<?xml version="1.0" encoding="utf-8" standalone="no"?>
<!DOCTYPE svg PUBLIC "-//W3C//DTD SVG 1.1//EN"
  "http://www.w3.org/Graphics/SVG/1.1/DTD/svg11.dtd">
<svg xmlns:xlink="http://www.w3.org/1999/xlink" width="848.015938pt" height="370.537812pt" viewBox="0 0 848.015938 370.537812" xmlns="http://www.w3.org/2000/svg" version="1.1">
 <metadata>
  <rdf:RDF xmlns:dc="http://purl.org/dc/elements/1.1/" xmlns:cc="http://creativecommons.org/ns#" xmlns:rdf="http://www.w3.org/1999/02/22-rdf-syntax-ns#">
   <cc:Work>
    <dc:type rdf:resource="http://purl.org/dc/dcmitype/StillImage"/>
    <dc:date>2025-03-19T16:41:01.326943</dc:date>
    <dc:format>image/svg+xml</dc:format>
    <dc:creator>
     <cc:Agent>
      <dc:title>Matplotlib v3.9.1, https://matplotlib.org/</dc:title>
     </cc:Agent>
    </dc:creator>
   </cc:Work>
  </rdf:RDF>
 </metadata>
 <defs>
  <style type="text/css">*{stroke-linejoin: round; stroke-linecap: butt}</style>
 </defs>
 <g id="figure_1">
  <g id="patch_1">
   <path d="M 0 370.537812 
L 848.015938 370.537812 
L 848.015938 0 
L 0 0 
z
" style="fill: #ffffff"/>
  </g>
  <g id="axes_1">
   <g id="patch_2">
    <path d="M 59.615938 320.4 
L 399.268111 320.4 
L 399.268111 43.2 
L 59.615938 43.2 
z
" style="fill: #ffffff"/>
   </g>
   <g id="matplotlib.axis_1">
    <g id="xtick_1">
     <g id="line2d_1">
      <defs>
       <path id="m64460cdd36" d="M 0 0 
L 0 3.5 
" style="stroke: #000000; stroke-width: 0.8"/>
      </defs>
      <g>
       <use xlink:href="#m64460cdd36" x="75.054673" y="320.4" style="stroke: #000000; stroke-width: 0.8"/>
      </g>
     </g>
     <g id="text_1">
      <!-- 0 -->
      <g transform="translate(70.282798 338.797656) scale(0.15 -0.15)">
       <defs>
        <path id="DejaVuSans-30" d="M 2034 4250 
Q 1547 4250 1301 3770 
Q 1056 3291 1056 2328 
Q 1056 1369 1301 889 
Q 1547 409 2034 409 
Q 2525 409 2770 889 
Q 3016 1369 3016 2328 
Q 3016 3291 2770 3770 
Q 2525 4250 2034 4250 
z
M 2034 4750 
Q 2819 4750 3233 4129 
Q 3647 3509 3647 2328 
Q 3647 1150 3233 529 
Q 2819 -91 2034 -91 
Q 1250 -91 836 529 
Q 422 1150 422 2328 
Q 422 3509 836 4129 
Q 1250 4750 2034 4750 
z
" transform="scale(0.015625)"/>
       </defs>
       <use xlink:href="#DejaVuSans-30"/>
      </g>
     </g>
    </g>
    <g id="xtick_2">
     <g id="line2d_2">
      <g>
       <use xlink:href="#m64460cdd36" x="170.062274" y="320.4" style="stroke: #000000; stroke-width: 0.8"/>
      </g>
     </g>
     <g id="text_2">
      <!-- 20 -->
      <g transform="translate(160.518524 338.797656) scale(0.15 -0.15)">
       <defs>
        <path id="DejaVuSans-32" d="M 1228 531 
L 3431 531 
L 3431 0 
L 469 0 
L 469 531 
Q 828 903 1448 1529 
Q 2069 2156 2228 2338 
Q 2531 2678 2651 2914 
Q 2772 3150 2772 3378 
Q 2772 3750 2511 3984 
Q 2250 4219 1831 4219 
Q 1534 4219 1204 4116 
Q 875 4013 500 3803 
L 500 4441 
Q 881 4594 1212 4672 
Q 1544 4750 1819 4750 
Q 2544 4750 2975 4387 
Q 3406 4025 3406 3419 
Q 3406 3131 3298 2873 
Q 3191 2616 2906 2266 
Q 2828 2175 2409 1742 
Q 1991 1309 1228 531 
z
" transform="scale(0.015625)"/>
       </defs>
       <use xlink:href="#DejaVuSans-32"/>
       <use xlink:href="#DejaVuSans-30" x="63.623047"/>
      </g>
     </g>
    </g>
    <g id="xtick_3">
     <g id="line2d_3">
      <g>
       <use xlink:href="#m64460cdd36" x="265.069875" y="320.4" style="stroke: #000000; stroke-width: 0.8"/>
      </g>
     </g>
     <g id="text_3">
      <!-- 40 -->
      <g transform="translate(255.526125 338.797656) scale(0.15 -0.15)">
       <defs>
        <path id="DejaVuSans-34" d="M 2419 4116 
L 825 1625 
L 2419 1625 
L 2419 4116 
z
M 2253 4666 
L 3047 4666 
L 3047 1625 
L 3713 1625 
L 3713 1100 
L 3047 1100 
L 3047 0 
L 2419 0 
L 2419 1100 
L 313 1100 
L 313 1709 
L 2253 4666 
z
" transform="scale(0.015625)"/>
       </defs>
       <use xlink:href="#DejaVuSans-34"/>
       <use xlink:href="#DejaVuSans-30" x="63.623047"/>
      </g>
     </g>
    </g>
    <g id="xtick_4">
     <g id="line2d_4">
      <g>
       <use xlink:href="#m64460cdd36" x="360.077476" y="320.4" style="stroke: #000000; stroke-width: 0.8"/>
      </g>
     </g>
     <g id="text_4">
      <!-- 60 -->
      <g transform="translate(350.533726 338.797656) scale(0.15 -0.15)">
       <defs>
        <path id="DejaVuSans-36" d="M 2113 2584 
Q 1688 2584 1439 2293 
Q 1191 2003 1191 1497 
Q 1191 994 1439 701 
Q 1688 409 2113 409 
Q 2538 409 2786 701 
Q 3034 994 3034 1497 
Q 3034 2003 2786 2293 
Q 2538 2584 2113 2584 
z
M 3366 4563 
L 3366 3988 
Q 3128 4100 2886 4159 
Q 2644 4219 2406 4219 
Q 1781 4219 1451 3797 
Q 1122 3375 1075 2522 
Q 1259 2794 1537 2939 
Q 1816 3084 2150 3084 
Q 2853 3084 3261 2657 
Q 3669 2231 3669 1497 
Q 3669 778 3244 343 
Q 2819 -91 2113 -91 
Q 1303 -91 875 529 
Q 447 1150 447 2328 
Q 447 3434 972 4092 
Q 1497 4750 2381 4750 
Q 2619 4750 2861 4703 
Q 3103 4656 3366 4563 
z
" transform="scale(0.015625)"/>
       </defs>
       <use xlink:href="#DejaVuSans-36"/>
       <use xlink:href="#DejaVuSans-30" x="63.623047"/>
      </g>
     </g>
    </g>
    <g id="text_5">
     <!-- time [hr] -->
     <g transform="translate(184.367493 359.594375) scale(0.18 -0.18)">
      <defs>
       <path id="DejaVuSans-Bold-74" d="M 1759 4494 
L 1759 3500 
L 2913 3500 
L 2913 2700 
L 1759 2700 
L 1759 1216 
Q 1759 972 1856 886 
Q 1953 800 2241 800 
L 2816 800 
L 2816 0 
L 1856 0 
Q 1194 0 917 276 
Q 641 553 641 1216 
L 641 2700 
L 84 2700 
L 84 3500 
L 641 3500 
L 641 4494 
L 1759 4494 
z
" transform="scale(0.015625)"/>
       <path id="DejaVuSans-Bold-69" d="M 538 3500 
L 1656 3500 
L 1656 0 
L 538 0 
L 538 3500 
z
M 538 4863 
L 1656 4863 
L 1656 3950 
L 538 3950 
L 538 4863 
z
" transform="scale(0.015625)"/>
       <path id="DejaVuSans-Bold-6d" d="M 3781 2919 
Q 3994 3244 4286 3414 
Q 4578 3584 4928 3584 
Q 5531 3584 5847 3212 
Q 6163 2841 6163 2131 
L 6163 0 
L 5038 0 
L 5038 1825 
Q 5041 1866 5042 1909 
Q 5044 1953 5044 2034 
Q 5044 2406 4934 2573 
Q 4825 2741 4581 2741 
Q 4263 2741 4089 2478 
Q 3916 2216 3909 1719 
L 3909 0 
L 2784 0 
L 2784 1825 
Q 2784 2406 2684 2573 
Q 2584 2741 2328 2741 
Q 2006 2741 1831 2477 
Q 1656 2213 1656 1722 
L 1656 0 
L 531 0 
L 531 3500 
L 1656 3500 
L 1656 2988 
Q 1863 3284 2130 3434 
Q 2397 3584 2719 3584 
Q 3081 3584 3359 3409 
Q 3638 3234 3781 2919 
z
" transform="scale(0.015625)"/>
       <path id="DejaVuSans-Bold-65" d="M 4031 1759 
L 4031 1441 
L 1416 1441 
Q 1456 1047 1700 850 
Q 1944 653 2381 653 
Q 2734 653 3104 758 
Q 3475 863 3866 1075 
L 3866 213 
Q 3469 63 3072 -14 
Q 2675 -91 2278 -91 
Q 1328 -91 801 392 
Q 275 875 275 1747 
Q 275 2603 792 3093 
Q 1309 3584 2216 3584 
Q 3041 3584 3536 3087 
Q 4031 2591 4031 1759 
z
M 2881 2131 
Q 2881 2450 2695 2645 
Q 2509 2841 2209 2841 
Q 1884 2841 1681 2658 
Q 1478 2475 1428 2131 
L 2881 2131 
z
" transform="scale(0.015625)"/>
       <path id="DejaVuSans-Bold-20" transform="scale(0.015625)"/>
       <path id="DejaVuSans-Bold-5b" d="M 550 4863 
L 2491 4863 
L 2491 4159 
L 1613 4159 
L 1613 -141 
L 2491 -141 
L 2491 -844 
L 550 -844 
L 550 4863 
z
" transform="scale(0.015625)"/>
       <path id="DejaVuSans-Bold-68" d="M 4056 2131 
L 4056 0 
L 2931 0 
L 2931 347 
L 2931 1625 
Q 2931 2084 2911 2256 
Q 2891 2428 2841 2509 
Q 2775 2619 2662 2680 
Q 2550 2741 2406 2741 
Q 2056 2741 1856 2470 
Q 1656 2200 1656 1722 
L 1656 0 
L 538 0 
L 538 4863 
L 1656 4863 
L 1656 2988 
Q 1909 3294 2193 3439 
Q 2478 3584 2822 3584 
Q 3428 3584 3742 3212 
Q 4056 2841 4056 2131 
z
" transform="scale(0.015625)"/>
       <path id="DejaVuSans-Bold-72" d="M 3138 2547 
Q 2991 2616 2845 2648 
Q 2700 2681 2553 2681 
Q 2122 2681 1889 2404 
Q 1656 2128 1656 1613 
L 1656 0 
L 538 0 
L 538 3500 
L 1656 3500 
L 1656 2925 
Q 1872 3269 2151 3426 
Q 2431 3584 2822 3584 
Q 2878 3584 2943 3579 
Q 3009 3575 3134 3559 
L 3138 2547 
z
" transform="scale(0.015625)"/>
       <path id="DejaVuSans-Bold-5d" d="M 2375 -844 
L 434 -844 
L 434 -141 
L 1313 -141 
L 1313 4159 
L 434 4159 
L 434 4863 
L 2375 4863 
L 2375 -844 
z
" transform="scale(0.015625)"/>
      </defs>
      <use xlink:href="#DejaVuSans-Bold-74"/>
      <use xlink:href="#DejaVuSans-Bold-69" x="47.802734"/>
      <use xlink:href="#DejaVuSans-Bold-6d" x="82.080078"/>
      <use xlink:href="#DejaVuSans-Bold-65" x="186.279297"/>
      <use xlink:href="#DejaVuSans-Bold-20" x="254.101562"/>
      <use xlink:href="#DejaVuSans-Bold-5b" x="288.916016"/>
      <use xlink:href="#DejaVuSans-Bold-68" x="334.619141"/>
      <use xlink:href="#DejaVuSans-Bold-72" x="405.810547"/>
      <use xlink:href="#DejaVuSans-Bold-5d" x="455.126953"/>
     </g>
    </g>
   </g>
   <g id="matplotlib.axis_2">
    <g id="ytick_1">
     <g id="line2d_5">
      <defs>
       <path id="mbef8d8f971" d="M 0 0 
L -3.5 0 
" style="stroke: #000000; stroke-width: 0.8"/>
      </defs>
      <g>
       <use xlink:href="#mbef8d8f971" x="59.615938" y="307.8" style="stroke: #000000; stroke-width: 0.8"/>
      </g>
     </g>
     <g id="text_6">
      <!-- 0.0 -->
      <g transform="translate(28.76125 313.498828) scale(0.15 -0.15)">
       <defs>
        <path id="DejaVuSans-2e" d="M 684 794 
L 1344 794 
L 1344 0 
L 684 0 
L 684 794 
z
" transform="scale(0.015625)"/>
       </defs>
       <use xlink:href="#DejaVuSans-30"/>
       <use xlink:href="#DejaVuSans-2e" x="63.623047"/>
       <use xlink:href="#DejaVuSans-30" x="95.410156"/>
      </g>
     </g>
    </g>
    <g id="ytick_2">
     <g id="line2d_6">
      <g>
       <use xlink:href="#mbef8d8f971" x="59.615938" y="261.058426" style="stroke: #000000; stroke-width: 0.8"/>
      </g>
     </g>
     <g id="text_7">
      <!-- 0.5 -->
      <g transform="translate(28.76125 266.757254) scale(0.15 -0.15)">
       <defs>
        <path id="DejaVuSans-35" d="M 691 4666 
L 3169 4666 
L 3169 4134 
L 1269 4134 
L 1269 2991 
Q 1406 3038 1543 3061 
Q 1681 3084 1819 3084 
Q 2600 3084 3056 2656 
Q 3513 2228 3513 1497 
Q 3513 744 3044 326 
Q 2575 -91 1722 -91 
Q 1428 -91 1123 -41 
Q 819 9 494 109 
L 494 744 
Q 775 591 1075 516 
Q 1375 441 1709 441 
Q 2250 441 2565 725 
Q 2881 1009 2881 1497 
Q 2881 1984 2565 2268 
Q 2250 2553 1709 2553 
Q 1456 2553 1204 2497 
Q 953 2441 691 2322 
L 691 4666 
z
" transform="scale(0.015625)"/>
       </defs>
       <use xlink:href="#DejaVuSans-30"/>
       <use xlink:href="#DejaVuSans-2e" x="63.623047"/>
       <use xlink:href="#DejaVuSans-35" x="95.410156"/>
      </g>
     </g>
    </g>
    <g id="ytick_3">
     <g id="line2d_7">
      <g>
       <use xlink:href="#mbef8d8f971" x="59.615938" y="214.316852" style="stroke: #000000; stroke-width: 0.8"/>
      </g>
     </g>
     <g id="text_8">
      <!-- 1.0 -->
      <g transform="translate(28.76125 220.01568) scale(0.15 -0.15)">
       <defs>
        <path id="DejaVuSans-31" d="M 794 531 
L 1825 531 
L 1825 4091 
L 703 3866 
L 703 4441 
L 1819 4666 
L 2450 4666 
L 2450 531 
L 3481 531 
L 3481 0 
L 794 0 
L 794 531 
z
" transform="scale(0.015625)"/>
       </defs>
       <use xlink:href="#DejaVuSans-31"/>
       <use xlink:href="#DejaVuSans-2e" x="63.623047"/>
       <use xlink:href="#DejaVuSans-30" x="95.410156"/>
      </g>
     </g>
    </g>
    <g id="ytick_4">
     <g id="line2d_8">
      <g>
       <use xlink:href="#mbef8d8f971" x="59.615938" y="167.575278" style="stroke: #000000; stroke-width: 0.8"/>
      </g>
     </g>
     <g id="text_9">
      <!-- 1.5 -->
      <g transform="translate(28.76125 173.274106) scale(0.15 -0.15)">
       <use xlink:href="#DejaVuSans-31"/>
       <use xlink:href="#DejaVuSans-2e" x="63.623047"/>
       <use xlink:href="#DejaVuSans-35" x="95.410156"/>
      </g>
     </g>
    </g>
    <g id="ytick_5">
     <g id="line2d_9">
      <g>
       <use xlink:href="#mbef8d8f971" x="59.615938" y="120.833704" style="stroke: #000000; stroke-width: 0.8"/>
      </g>
     </g>
     <g id="text_10">
      <!-- 2.0 -->
      <g transform="translate(28.76125 126.532533) scale(0.15 -0.15)">
       <use xlink:href="#DejaVuSans-32"/>
       <use xlink:href="#DejaVuSans-2e" x="63.623047"/>
       <use xlink:href="#DejaVuSans-30" x="95.410156"/>
      </g>
     </g>
    </g>
    <g id="ytick_6">
     <g id="line2d_10">
      <g>
       <use xlink:href="#mbef8d8f971" x="59.615938" y="74.092131" style="stroke: #000000; stroke-width: 0.8"/>
      </g>
     </g>
     <g id="text_11">
      <!-- 2.5 -->
      <g transform="translate(28.76125 79.790959) scale(0.15 -0.15)">
       <use xlink:href="#DejaVuSans-32"/>
       <use xlink:href="#DejaVuSans-2e" x="63.623047"/>
       <use xlink:href="#DejaVuSans-35" x="95.410156"/>
      </g>
     </g>
    </g>
    <g id="text_12">
     <!-- dapagliflozin plasma urine [µmole] -->
     <g transform="translate(20.877188 359.208281) rotate(-90) scale(0.18 -0.18)">
      <defs>
       <path id="DejaVuSans-Bold-64" d="M 2919 2988 
L 2919 4863 
L 4044 4863 
L 4044 0 
L 2919 0 
L 2919 506 
Q 2688 197 2409 53 
Q 2131 -91 1766 -91 
Q 1119 -91 703 423 
Q 288 938 288 1747 
Q 288 2556 703 3070 
Q 1119 3584 1766 3584 
Q 2128 3584 2408 3439 
Q 2688 3294 2919 2988 
z
M 2181 722 
Q 2541 722 2730 984 
Q 2919 1247 2919 1747 
Q 2919 2247 2730 2509 
Q 2541 2772 2181 2772 
Q 1825 2772 1636 2509 
Q 1447 2247 1447 1747 
Q 1447 1247 1636 984 
Q 1825 722 2181 722 
z
" transform="scale(0.015625)"/>
       <path id="DejaVuSans-Bold-61" d="M 2106 1575 
Q 1756 1575 1579 1456 
Q 1403 1338 1403 1106 
Q 1403 894 1545 773 
Q 1688 653 1941 653 
Q 2256 653 2472 879 
Q 2688 1106 2688 1447 
L 2688 1575 
L 2106 1575 
z
M 3816 1997 
L 3816 0 
L 2688 0 
L 2688 519 
Q 2463 200 2181 54 
Q 1900 -91 1497 -91 
Q 953 -91 614 226 
Q 275 544 275 1050 
Q 275 1666 698 1953 
Q 1122 2241 2028 2241 
L 2688 2241 
L 2688 2328 
Q 2688 2594 2478 2717 
Q 2269 2841 1825 2841 
Q 1466 2841 1156 2769 
Q 847 2697 581 2553 
L 581 3406 
Q 941 3494 1303 3539 
Q 1666 3584 2028 3584 
Q 2975 3584 3395 3211 
Q 3816 2838 3816 1997 
z
" transform="scale(0.015625)"/>
       <path id="DejaVuSans-Bold-70" d="M 1656 506 
L 1656 -1331 
L 538 -1331 
L 538 3500 
L 1656 3500 
L 1656 2988 
Q 1888 3294 2169 3439 
Q 2450 3584 2816 3584 
Q 3463 3584 3878 3070 
Q 4294 2556 4294 1747 
Q 4294 938 3878 423 
Q 3463 -91 2816 -91 
Q 2450 -91 2169 54 
Q 1888 200 1656 506 
z
M 2400 2772 
Q 2041 2772 1848 2508 
Q 1656 2244 1656 1747 
Q 1656 1250 1848 986 
Q 2041 722 2400 722 
Q 2759 722 2948 984 
Q 3138 1247 3138 1747 
Q 3138 2247 2948 2509 
Q 2759 2772 2400 2772 
z
" transform="scale(0.015625)"/>
       <path id="DejaVuSans-Bold-67" d="M 2919 594 
Q 2688 288 2409 144 
Q 2131 0 1766 0 
Q 1125 0 706 504 
Q 288 1009 288 1791 
Q 288 2575 706 3076 
Q 1125 3578 1766 3578 
Q 2131 3578 2409 3434 
Q 2688 3291 2919 2981 
L 2919 3500 
L 4044 3500 
L 4044 353 
Q 4044 -491 3511 -936 
Q 2978 -1381 1966 -1381 
Q 1638 -1381 1331 -1331 
Q 1025 -1281 716 -1178 
L 716 -306 
Q 1009 -475 1290 -558 
Q 1572 -641 1856 -641 
Q 2406 -641 2662 -400 
Q 2919 -159 2919 353 
L 2919 594 
z
M 2181 2772 
Q 1834 2772 1640 2515 
Q 1447 2259 1447 1791 
Q 1447 1309 1634 1061 
Q 1822 813 2181 813 
Q 2531 813 2725 1069 
Q 2919 1325 2919 1791 
Q 2919 2259 2725 2515 
Q 2531 2772 2181 2772 
z
" transform="scale(0.015625)"/>
       <path id="DejaVuSans-Bold-6c" d="M 538 4863 
L 1656 4863 
L 1656 0 
L 538 0 
L 538 4863 
z
" transform="scale(0.015625)"/>
       <path id="DejaVuSans-Bold-66" d="M 2841 4863 
L 2841 4128 
L 2222 4128 
Q 1984 4128 1890 4042 
Q 1797 3956 1797 3744 
L 1797 3500 
L 2753 3500 
L 2753 2700 
L 1797 2700 
L 1797 0 
L 678 0 
L 678 2700 
L 122 2700 
L 122 3500 
L 678 3500 
L 678 3744 
Q 678 4316 997 4589 
Q 1316 4863 1984 4863 
L 2841 4863 
z
" transform="scale(0.015625)"/>
       <path id="DejaVuSans-Bold-6f" d="M 2203 2784 
Q 1831 2784 1636 2517 
Q 1441 2250 1441 1747 
Q 1441 1244 1636 976 
Q 1831 709 2203 709 
Q 2569 709 2762 976 
Q 2956 1244 2956 1747 
Q 2956 2250 2762 2517 
Q 2569 2784 2203 2784 
z
M 2203 3584 
Q 3106 3584 3614 3096 
Q 4122 2609 4122 1747 
Q 4122 884 3614 396 
Q 3106 -91 2203 -91 
Q 1297 -91 786 396 
Q 275 884 275 1747 
Q 275 2609 786 3096 
Q 1297 3584 2203 3584 
z
" transform="scale(0.015625)"/>
       <path id="DejaVuSans-Bold-7a" d="M 366 3500 
L 3419 3500 
L 3419 2719 
L 1575 800 
L 3419 800 
L 3419 0 
L 288 0 
L 288 781 
L 2131 2700 
L 366 2700 
L 366 3500 
z
" transform="scale(0.015625)"/>
       <path id="DejaVuSans-Bold-6e" d="M 4056 2131 
L 4056 0 
L 2931 0 
L 2931 347 
L 2931 1631 
Q 2931 2084 2911 2256 
Q 2891 2428 2841 2509 
Q 2775 2619 2662 2680 
Q 2550 2741 2406 2741 
Q 2056 2741 1856 2470 
Q 1656 2200 1656 1722 
L 1656 0 
L 538 0 
L 538 3500 
L 1656 3500 
L 1656 2988 
Q 1909 3294 2193 3439 
Q 2478 3584 2822 3584 
Q 3428 3584 3742 3212 
Q 4056 2841 4056 2131 
z
" transform="scale(0.015625)"/>
       <path id="DejaVuSans-Bold-73" d="M 3272 3391 
L 3272 2541 
Q 2913 2691 2578 2766 
Q 2244 2841 1947 2841 
Q 1628 2841 1473 2761 
Q 1319 2681 1319 2516 
Q 1319 2381 1436 2309 
Q 1553 2238 1856 2203 
L 2053 2175 
Q 2913 2066 3209 1816 
Q 3506 1566 3506 1031 
Q 3506 472 3093 190 
Q 2681 -91 1863 -91 
Q 1516 -91 1145 -36 
Q 775 19 384 128 
L 384 978 
Q 719 816 1070 734 
Q 1422 653 1784 653 
Q 2113 653 2278 743 
Q 2444 834 2444 1013 
Q 2444 1163 2330 1236 
Q 2216 1309 1875 1350 
L 1678 1375 
Q 931 1469 631 1722 
Q 331 1975 331 2491 
Q 331 3047 712 3315 
Q 1094 3584 1881 3584 
Q 2191 3584 2531 3537 
Q 2872 3491 3272 3391 
z
" transform="scale(0.015625)"/>
       <path id="DejaVuSans-Bold-75" d="M 500 1363 
L 500 3500 
L 1625 3500 
L 1625 3150 
Q 1625 2866 1622 2436 
Q 1619 2006 1619 1863 
Q 1619 1441 1641 1255 
Q 1663 1069 1716 984 
Q 1784 875 1895 815 
Q 2006 756 2150 756 
Q 2500 756 2700 1025 
Q 2900 1294 2900 1772 
L 2900 3500 
L 4019 3500 
L 4019 0 
L 2900 0 
L 2900 506 
Q 2647 200 2364 54 
Q 2081 -91 1741 -91 
Q 1134 -91 817 281 
Q 500 653 500 1363 
z
" transform="scale(0.015625)"/>
       <path id="DejaVuSans-Bold-b5" d="M 544 -1338 
L 544 3500 
L 1672 3500 
L 1672 1466 
Q 1672 1103 1828 926 
Q 1984 750 2303 750 
Q 2625 750 2781 926 
Q 2938 1103 2938 1466 
L 2938 3500 
L 4063 3500 
L 4063 1159 
Q 4063 938 4114 850 
Q 4166 763 4288 763 
Q 4344 763 4395 778 
Q 4447 794 4506 831 
L 4506 50 
Q 4341 -22 4195 -56 
Q 4050 -91 3909 -91 
Q 3631 -91 3454 26 
Q 3278 144 3169 403 
Q 3022 156 2811 32 
Q 2600 -91 2322 -91 
Q 2091 -91 1928 -17 
Q 1766 56 1672 206 
L 1672 -1338 
L 544 -1338 
z
" transform="scale(0.015625)"/>
      </defs>
      <use xlink:href="#DejaVuSans-Bold-64"/>
      <use xlink:href="#DejaVuSans-Bold-61" x="71.582031"/>
      <use xlink:href="#DejaVuSans-Bold-70" x="139.0625"/>
      <use xlink:href="#DejaVuSans-Bold-61" x="210.644531"/>
      <use xlink:href="#DejaVuSans-Bold-67" x="278.125"/>
      <use xlink:href="#DejaVuSans-Bold-6c" x="349.707031"/>
      <use xlink:href="#DejaVuSans-Bold-69" x="383.984375"/>
      <use xlink:href="#DejaVuSans-Bold-66" x="418.261719"/>
      <use xlink:href="#DejaVuSans-Bold-6c" x="461.767578"/>
      <use xlink:href="#DejaVuSans-Bold-6f" x="496.044922"/>
      <use xlink:href="#DejaVuSans-Bold-7a" x="564.746094"/>
      <use xlink:href="#DejaVuSans-Bold-69" x="622.949219"/>
      <use xlink:href="#DejaVuSans-Bold-6e" x="657.226562"/>
      <use xlink:href="#DejaVuSans-Bold-20" x="728.417969"/>
      <use xlink:href="#DejaVuSans-Bold-70" x="763.232422"/>
      <use xlink:href="#DejaVuSans-Bold-6c" x="834.814453"/>
      <use xlink:href="#DejaVuSans-Bold-61" x="869.091797"/>
      <use xlink:href="#DejaVuSans-Bold-73" x="936.572266"/>
      <use xlink:href="#DejaVuSans-Bold-6d" x="996.09375"/>
      <use xlink:href="#DejaVuSans-Bold-61" x="1100.292969"/>
      <use xlink:href="#DejaVuSans-Bold-20" x="1167.773438"/>
      <use xlink:href="#DejaVuSans-Bold-75" x="1202.587891"/>
      <use xlink:href="#DejaVuSans-Bold-72" x="1273.779297"/>
      <use xlink:href="#DejaVuSans-Bold-69" x="1323.095703"/>
      <use xlink:href="#DejaVuSans-Bold-6e" x="1357.373047"/>
      <use xlink:href="#DejaVuSans-Bold-65" x="1428.564453"/>
      <use xlink:href="#DejaVuSans-Bold-20" x="1496.386719"/>
      <use xlink:href="#DejaVuSans-Bold-5b" x="1531.201172"/>
      <use xlink:href="#DejaVuSans-Bold-b5" x="1576.904297"/>
      <use xlink:href="#DejaVuSans-Bold-6d" x="1650.488281"/>
      <use xlink:href="#DejaVuSans-Bold-6f" x="1754.6875"/>
      <use xlink:href="#DejaVuSans-Bold-6c" x="1823.388672"/>
      <use xlink:href="#DejaVuSans-Bold-65" x="1857.666016"/>
      <use xlink:href="#DejaVuSans-Bold-5d" x="1925.488281"/>
     </g>
    </g>
   </g>
   <g id="LineCollection_1">
    <path clip-path="url(#pe26c59c199)" style="fill: none; stroke: #000000"/>
    <path d="M 189.063794 231.536816 
L 189.063794 110.698489 
" clip-path="url(#pe26c59c199)" style="fill: none; stroke: #000000"/>
   </g>
   <g id="LineCollection_2">
    <path clip-path="url(#pe26c59c199)" style="fill: none; stroke: #000000"/>
    <path d="M 189.063794 257.767049 
L 189.063794 119.531895 
" clip-path="url(#pe26c59c199)" style="fill: none; stroke: #000000"/>
   </g>
   <g id="LineCollection_3">
    <path clip-path="url(#pe26c59c199)" style="fill: none; stroke: #66c2a4"/>
    <path d="M 189.063794 245.208915 
L 189.063794 55.8 
" clip-path="url(#pe26c59c199)" style="fill: none; stroke: #66c2a4"/>
   </g>
   <g id="LineCollection_4">
    <path clip-path="url(#pe26c59c199)" style="fill: none; stroke: #2ca25f"/>
    <path d="M 189.063794 272.52578 
L 189.063794 71.310435 
" clip-path="url(#pe26c59c199)" style="fill: none; stroke: #2ca25f"/>
   </g>
   <g id="LineCollection_5">
    <path clip-path="url(#pe26c59c199)" style="fill: none; stroke: #006d2c"/>
    <path d="M 189.063794 277.505216 
L 189.063794 177.90169 
" clip-path="url(#pe26c59c199)" style="fill: none; stroke: #006d2c"/>
   </g>
   <g id="line2d_11">
    <path d="M 75.054673 307.8 
L 75.672222 307.590179 
L 76.289771 306.265683 
L 76.907321 303.604035 
L 77.52487 299.876902 
L 78.759969 290.601707 
L 81.847716 266.409006 
L 83.700364 254.280186 
L 84.935463 247.397929 
L 86.170562 241.40062 
L 87.405661 236.194727 
L 88.64076 231.684958 
L 89.875858 227.781941 
L 91.110957 224.405004 
L 92.346056 221.482752 
L 93.581155 218.952682 
L 95.433803 215.775962 
L 97.286451 213.207123 
L 99.1391 211.122619 
L 100.991748 209.423567 
L 102.844396 208.030998 
L 104.697044 206.881949 
L 107.167242 205.643551 
L 109.637439 204.658663 
L 112.725187 203.683269 
L 116.430483 202.768942 
L 121.370878 201.81878 
L 128.163922 200.78162 
L 138.662262 199.436417 
L 161.51159 196.7853 
L 212.76819 191.0811 
L 268.347637 185.115085 
L 325.162183 179.240828 
L 383.211827 173.464409 
L 383.829376 173.404152 
L 383.829376 173.404152 
" clip-path="url(#pe26c59c199)" style="fill: none; stroke: #000000; stroke-width: 2; stroke-linecap: square"/>
   </g>
   <g id="line2d_12">
    <defs>
     <path id="mad9996d8a5" d="M -3 3 
L 3 3 
L 3 -3 
L -3 -3 
z
" style="stroke: #000000; stroke-linejoin: miter"/>
    </defs>
    <g clip-path="url(#pe26c59c199)">
     <use xlink:href="#mad9996d8a5" x="75.054673" y="307.8" style="stroke: #000000; stroke-linejoin: miter"/>
     <use xlink:href="#mad9996d8a5" x="189.063794" y="171.117652" style="stroke: #000000; stroke-linejoin: miter"/>
    </g>
   </g>
   <g id="line2d_13">
    <path d="M 75.054673 307.8 
L 75.672222 307.590179 
L 76.289771 306.265683 
L 76.907321 303.604035 
L 77.52487 299.876902 
L 78.759969 290.601707 
L 81.847716 266.409006 
L 83.700364 254.280186 
L 84.935463 247.397929 
L 86.170562 241.40062 
L 87.405661 236.194727 
L 88.64076 231.684958 
L 89.875858 227.781941 
L 91.110957 224.405004 
L 92.346056 221.482752 
L 93.581155 218.952682 
L 95.433803 215.775962 
L 97.286451 213.207123 
L 99.1391 211.122619 
L 100.991748 209.423567 
L 102.844396 208.030998 
L 104.697044 206.881949 
L 107.167242 205.643551 
L 109.637439 204.658663 
L 112.725187 203.683269 
L 116.430483 202.768942 
L 121.370878 201.81878 
L 128.163922 200.78162 
L 138.662262 199.436417 
L 161.51159 196.7853 
L 212.76819 191.0811 
L 268.347637 185.115085 
L 325.162183 179.240828 
L 383.211827 173.464409 
L 383.829376 173.404152 
L 383.829376 173.404152 
" clip-path="url(#pe26c59c199)" style="fill: none; stroke: #000000; stroke-width: 2; stroke-linecap: square"/>
   </g>
   <g id="line2d_14">
    <g clip-path="url(#pe26c59c199)">
     <use xlink:href="#mad9996d8a5" x="75.054673" y="307.8" style="stroke: #000000; stroke-linejoin: miter"/>
     <use xlink:href="#mad9996d8a5" x="189.063794" y="188.649472" style="stroke: #000000; stroke-linejoin: miter"/>
    </g>
   </g>
   <g id="line2d_15">
    <path d="M 75.054673 307.8 
L 75.672222 307.655429 
L 76.289771 306.742468 
L 76.907321 304.9072 
L 77.52487 302.33653 
L 78.759969 295.937117 
L 81.847716 279.236549 
L 83.700364 270.859832 
L 84.935463 266.105327 
L 86.170562 261.961285 
L 87.405661 258.36333 
L 88.64076 255.245821 
L 89.875858 252.547169 
L 91.110957 250.211763 
L 92.963605 247.283742 
L 94.816254 244.92281 
L 96.668902 243.014867 
L 98.52155 241.46813 
L 100.374198 240.209044 
L 102.226847 239.178815 
L 104.697044 238.081491 
L 107.167242 237.222961 
L 110.254989 236.390923 
L 113.960285 235.634222 
L 118.900681 234.879276 
L 125.693724 234.095553 
L 136.809613 233.074313 
L 162.746688 230.982915 
L 225.119179 226.193467 
L 292.432064 221.243952 
L 361.597598 216.38333 
L 383.829376 214.86777 
L 383.829376 214.86777 
" clip-path="url(#pe26c59c199)" style="fill: none; stroke: #66c2a4; stroke-width: 2; stroke-linecap: square"/>
   </g>
   <g id="line2d_16">
    <defs>
     <path id="mfe1e155d04" d="M -3 3 
L 3 3 
L 3 -3 
L -3 -3 
z
" style="stroke: #000000; stroke-linejoin: miter"/>
    </defs>
    <g clip-path="url(#pe26c59c199)">
     <use xlink:href="#mfe1e155d04" x="75.054673" y="307.8" style="fill: #66c2a4; stroke: #000000; stroke-linejoin: miter"/>
     <use xlink:href="#mfe1e155d04" x="189.063794" y="150.504458" style="fill: #66c2a4; stroke: #000000; stroke-linejoin: miter"/>
    </g>
   </g>
   <g id="line2d_17">
    <path d="M 75.054673 307.8 
L 75.672222 307.73229 
L 76.289771 307.304512 
L 76.907321 306.444231 
L 78.14242 303.803181 
L 82.465266 293.007365 
L 84.317914 289.309443 
L 86.170562 286.282746 
L 88.02321 283.832376 
L 89.875858 281.856712 
L 91.728507 280.265489 
L 93.581155 278.983211 
L 95.433803 277.948225 
L 97.904001 276.868269 
L 100.374198 276.048652 
L 103.461945 275.287983 
L 107.167242 274.640527 
L 111.490088 274.117376 
L 117.665582 273.614027 
L 126.928823 273.105488 
L 146.690404 272.297411 
L 219.561234 269.633974 
L 317.75159 266.249163 
L 383.829376 264.09164 
L 383.829376 264.09164 
" clip-path="url(#pe26c59c199)" style="fill: none; stroke: #2ca25f; stroke-width: 2; stroke-linecap: square"/>
   </g>
   <g id="line2d_18">
    <defs>
     <path id="m06433828da" d="M -3 3 
L 3 3 
L 3 -3 
L -3 -3 
z
" style="stroke: #000000; stroke-linejoin: miter"/>
    </defs>
    <g clip-path="url(#pe26c59c199)">
     <use xlink:href="#m06433828da" x="75.054673" y="307.8" style="fill: #2ca25f; stroke: #000000; stroke-linejoin: miter"/>
     <use xlink:href="#m06433828da" x="189.063794" y="171.918108" style="fill: #2ca25f; stroke: #000000; stroke-linejoin: miter"/>
    </g>
   </g>
   <g id="line2d_19">
    <path d="M 75.054673 307.8 
L 75.672222 307.759352 
L 76.289771 307.502505 
L 76.907321 306.9859 
L 78.14242 305.399661 
L 82.465266 298.913645 
L 84.317914 296.691411 
L 86.170562 294.872298 
L 88.02321 293.399374 
L 89.875858 292.211638 
L 91.728507 291.254894 
L 94.198704 290.261413 
L 96.668902 289.513901 
L 99.756649 288.829686 
L 103.461945 288.260925 
L 108.402341 287.768958 
L 115.195384 287.360016 
L 125.693724 286.982507 
L 151.01325 286.362257 
L 260.319495 283.996125 
L 383.829376 281.521697 
L 383.829376 281.521697 
" clip-path="url(#pe26c59c199)" style="fill: none; stroke: #006d2c; stroke-width: 2; stroke-linecap: square"/>
   </g>
   <g id="line2d_20">
    <defs>
     <path id="m6aa266eb4a" d="M -3 3 
L 3 3 
L 3 -3 
L -3 -3 
z
" style="stroke: #000000; stroke-linejoin: miter"/>
    </defs>
    <g clip-path="url(#pe26c59c199)">
     <use xlink:href="#m6aa266eb4a" x="75.054673" y="307.8" style="fill: #006d2c; stroke: #000000; stroke-linejoin: miter"/>
     <use xlink:href="#m6aa266eb4a" x="189.063794" y="227.703453" style="fill: #006d2c; stroke: #000000; stroke-linejoin: miter"/>
    </g>
   </g>
   <g id="patch_3">
    <path d="M 59.615938 320.4 
L 59.615938 43.2 
" style="fill: none; stroke: #000000; stroke-width: 0.8; stroke-linejoin: miter; stroke-linecap: square"/>
   </g>
   <g id="patch_4">
    <path d="M 399.268111 320.4 
L 399.268111 43.2 
" style="fill: none; stroke: #000000; stroke-width: 0.8; stroke-linejoin: miter; stroke-linecap: square"/>
   </g>
   <g id="patch_5">
    <path d="M 59.615938 320.4 
L 399.268111 320.4 
" style="fill: none; stroke: #000000; stroke-width: 0.8; stroke-linejoin: miter; stroke-linecap: square"/>
   </g>
   <g id="patch_6">
    <path d="M 59.615938 43.2 
L 399.268111 43.2 
" style="fill: none; stroke: #000000; stroke-width: 0.8; stroke-linejoin: miter; stroke-linecap: square"/>
   </g>
  </g>
  <g id="axes_2">
   <g id="patch_7">
    <path d="M 501.163764 320.4 
L 840.815938 320.4 
L 840.815938 43.2 
L 501.163764 43.2 
z
" style="fill: #ffffff"/>
   </g>
   <g id="matplotlib.axis_3">
    <g id="xtick_5">
     <g id="line2d_21">
      <g>
       <use xlink:href="#m64460cdd36" x="516.602499" y="320.4" style="stroke: #000000; stroke-width: 0.8"/>
      </g>
     </g>
     <g id="text_13">
      <!-- 0 -->
      <g transform="translate(511.830624 338.797656) scale(0.15 -0.15)">
       <use xlink:href="#DejaVuSans-30"/>
      </g>
     </g>
    </g>
    <g id="xtick_6">
     <g id="line2d_22">
      <g>
       <use xlink:href="#m64460cdd36" x="611.6101" y="320.4" style="stroke: #000000; stroke-width: 0.8"/>
      </g>
     </g>
     <g id="text_14">
      <!-- 20 -->
      <g transform="translate(602.06635 338.797656) scale(0.15 -0.15)">
       <use xlink:href="#DejaVuSans-32"/>
       <use xlink:href="#DejaVuSans-30" x="63.623047"/>
      </g>
     </g>
    </g>
    <g id="xtick_7">
     <g id="line2d_23">
      <g>
       <use xlink:href="#m64460cdd36" x="706.617701" y="320.4" style="stroke: #000000; stroke-width: 0.8"/>
      </g>
     </g>
     <g id="text_15">
      <!-- 40 -->
      <g transform="translate(697.073951 338.797656) scale(0.15 -0.15)">
       <use xlink:href="#DejaVuSans-34"/>
       <use xlink:href="#DejaVuSans-30" x="63.623047"/>
      </g>
     </g>
    </g>
    <g id="xtick_8">
     <g id="line2d_24">
      <g>
       <use xlink:href="#m64460cdd36" x="801.625302" y="320.4" style="stroke: #000000; stroke-width: 0.8"/>
      </g>
     </g>
     <g id="text_16">
      <!-- 60 -->
      <g transform="translate(792.081552 338.797656) scale(0.15 -0.15)">
       <use xlink:href="#DejaVuSans-36"/>
       <use xlink:href="#DejaVuSans-30" x="63.623047"/>
      </g>
     </g>
    </g>
    <g id="text_17">
     <!-- time [hr] -->
     <g transform="translate(625.915319 359.594375) scale(0.18 -0.18)">
      <use xlink:href="#DejaVuSans-Bold-74"/>
      <use xlink:href="#DejaVuSans-Bold-69" x="47.802734"/>
      <use xlink:href="#DejaVuSans-Bold-6d" x="82.080078"/>
      <use xlink:href="#DejaVuSans-Bold-65" x="186.279297"/>
      <use xlink:href="#DejaVuSans-Bold-20" x="254.101562"/>
      <use xlink:href="#DejaVuSans-Bold-5b" x="288.916016"/>
      <use xlink:href="#DejaVuSans-Bold-68" x="334.619141"/>
      <use xlink:href="#DejaVuSans-Bold-72" x="405.810547"/>
      <use xlink:href="#DejaVuSans-Bold-5d" x="455.126953"/>
     </g>
    </g>
   </g>
   <g id="matplotlib.axis_4">
    <g id="ytick_7">
     <g id="line2d_25">
      <g>
       <use xlink:href="#mbef8d8f971" x="501.163764" y="307.8" style="stroke: #000000; stroke-width: 0.8"/>
      </g>
     </g>
     <g id="text_18">
      <!-- 0 -->
      <g transform="translate(484.620014 313.498828) scale(0.15 -0.15)">
       <use xlink:href="#DejaVuSans-30"/>
      </g>
     </g>
    </g>
    <g id="ytick_8">
     <g id="line2d_26">
      <g>
       <use xlink:href="#mbef8d8f971" x="501.163764" y="264.778707" style="stroke: #000000; stroke-width: 0.8"/>
      </g>
     </g>
     <g id="text_19">
      <!-- 20 -->
      <g transform="translate(475.076264 270.477535) scale(0.15 -0.15)">
       <use xlink:href="#DejaVuSans-32"/>
       <use xlink:href="#DejaVuSans-30" x="63.623047"/>
      </g>
     </g>
    </g>
    <g id="ytick_9">
     <g id="line2d_27">
      <g>
       <use xlink:href="#mbef8d8f971" x="501.163764" y="221.757415" style="stroke: #000000; stroke-width: 0.8"/>
      </g>
     </g>
     <g id="text_20">
      <!-- 40 -->
      <g transform="translate(475.076264 227.456243) scale(0.15 -0.15)">
       <use xlink:href="#DejaVuSans-34"/>
       <use xlink:href="#DejaVuSans-30" x="63.623047"/>
      </g>
     </g>
    </g>
    <g id="ytick_10">
     <g id="line2d_28">
      <g>
       <use xlink:href="#mbef8d8f971" x="501.163764" y="178.736122" style="stroke: #000000; stroke-width: 0.8"/>
      </g>
     </g>
     <g id="text_21">
      <!-- 60 -->
      <g transform="translate(475.076264 184.43495) scale(0.15 -0.15)">
       <use xlink:href="#DejaVuSans-36"/>
       <use xlink:href="#DejaVuSans-30" x="63.623047"/>
      </g>
     </g>
    </g>
    <g id="ytick_11">
     <g id="line2d_29">
      <g>
       <use xlink:href="#mbef8d8f971" x="501.163764" y="135.714829" style="stroke: #000000; stroke-width: 0.8"/>
      </g>
     </g>
     <g id="text_22">
      <!-- 80 -->
      <g transform="translate(475.076264 141.413657) scale(0.15 -0.15)">
       <defs>
        <path id="DejaVuSans-38" d="M 2034 2216 
Q 1584 2216 1326 1975 
Q 1069 1734 1069 1313 
Q 1069 891 1326 650 
Q 1584 409 2034 409 
Q 2484 409 2743 651 
Q 3003 894 3003 1313 
Q 3003 1734 2745 1975 
Q 2488 2216 2034 2216 
z
M 1403 2484 
Q 997 2584 770 2862 
Q 544 3141 544 3541 
Q 544 4100 942 4425 
Q 1341 4750 2034 4750 
Q 2731 4750 3128 4425 
Q 3525 4100 3525 3541 
Q 3525 3141 3298 2862 
Q 3072 2584 2669 2484 
Q 3125 2378 3379 2068 
Q 3634 1759 3634 1313 
Q 3634 634 3220 271 
Q 2806 -91 2034 -91 
Q 1263 -91 848 271 
Q 434 634 434 1313 
Q 434 1759 690 2068 
Q 947 2378 1403 2484 
z
M 1172 3481 
Q 1172 3119 1398 2916 
Q 1625 2713 2034 2713 
Q 2441 2713 2670 2916 
Q 2900 3119 2900 3481 
Q 2900 3844 2670 4047 
Q 2441 4250 2034 4250 
Q 1625 4250 1398 4047 
Q 1172 3844 1172 3481 
z
" transform="scale(0.015625)"/>
       </defs>
       <use xlink:href="#DejaVuSans-38"/>
       <use xlink:href="#DejaVuSans-30" x="63.623047"/>
      </g>
     </g>
    </g>
    <g id="ytick_12">
     <g id="line2d_30">
      <g>
       <use xlink:href="#mbef8d8f971" x="501.163764" y="92.693537" style="stroke: #000000; stroke-width: 0.8"/>
      </g>
     </g>
     <g id="text_23">
      <!-- 100 -->
      <g transform="translate(465.532514 98.392365) scale(0.15 -0.15)">
       <use xlink:href="#DejaVuSans-31"/>
       <use xlink:href="#DejaVuSans-30" x="63.623047"/>
       <use xlink:href="#DejaVuSans-30" x="127.246094"/>
      </g>
     </g>
    </g>
    <g id="ytick_13">
     <g id="line2d_31">
      <g>
       <use xlink:href="#mbef8d8f971" x="501.163764" y="49.672244" style="stroke: #000000; stroke-width: 0.8"/>
      </g>
     </g>
     <g id="text_24">
      <!-- 120 -->
      <g transform="translate(465.532514 55.371072) scale(0.15 -0.15)">
       <use xlink:href="#DejaVuSans-31"/>
       <use xlink:href="#DejaVuSans-32" x="63.623047"/>
       <use xlink:href="#DejaVuSans-30" x="127.246094"/>
      </g>
     </g>
    </g>
    <g id="text_25">
     <!-- dapagliflozin-3-o- -->
     <g transform="translate(437.351764 271.008281) rotate(-90) scale(0.18 -0.18)">
      <defs>
       <path id="DejaVuSans-Bold-2d" d="M 347 2297 
L 2309 2297 
L 2309 1388 
L 347 1388 
L 347 2297 
z
" transform="scale(0.015625)"/>
       <path id="DejaVuSans-Bold-33" d="M 2981 2516 
Q 3453 2394 3698 2092 
Q 3944 1791 3944 1325 
Q 3944 631 3412 270 
Q 2881 -91 1863 -91 
Q 1503 -91 1142 -33 
Q 781 25 428 141 
L 428 1069 
Q 766 900 1098 814 
Q 1431 728 1753 728 
Q 2231 728 2486 893 
Q 2741 1059 2741 1369 
Q 2741 1688 2480 1852 
Q 2219 2016 1709 2016 
L 1228 2016 
L 1228 2791 
L 1734 2791 
Q 2188 2791 2409 2933 
Q 2631 3075 2631 3366 
Q 2631 3634 2415 3781 
Q 2200 3928 1806 3928 
Q 1516 3928 1219 3862 
Q 922 3797 628 3669 
L 628 4550 
Q 984 4650 1334 4700 
Q 1684 4750 2022 4750 
Q 2931 4750 3382 4451 
Q 3834 4153 3834 3553 
Q 3834 3144 3618 2883 
Q 3403 2622 2981 2516 
z
" transform="scale(0.015625)"/>
      </defs>
      <use xlink:href="#DejaVuSans-Bold-64"/>
      <use xlink:href="#DejaVuSans-Bold-61" x="71.582031"/>
      <use xlink:href="#DejaVuSans-Bold-70" x="139.0625"/>
      <use xlink:href="#DejaVuSans-Bold-61" x="210.644531"/>
      <use xlink:href="#DejaVuSans-Bold-67" x="278.125"/>
      <use xlink:href="#DejaVuSans-Bold-6c" x="349.707031"/>
      <use xlink:href="#DejaVuSans-Bold-69" x="383.984375"/>
      <use xlink:href="#DejaVuSans-Bold-66" x="418.261719"/>
      <use xlink:href="#DejaVuSans-Bold-6c" x="461.767578"/>
      <use xlink:href="#DejaVuSans-Bold-6f" x="496.044922"/>
      <use xlink:href="#DejaVuSans-Bold-7a" x="564.746094"/>
      <use xlink:href="#DejaVuSans-Bold-69" x="622.949219"/>
      <use xlink:href="#DejaVuSans-Bold-6e" x="657.226562"/>
      <use xlink:href="#DejaVuSans-Bold-2d" x="728.417969"/>
      <use xlink:href="#DejaVuSans-Bold-33" x="769.921875"/>
      <use xlink:href="#DejaVuSans-Bold-2d" x="839.501953"/>
      <use xlink:href="#DejaVuSans-Bold-6f" x="881.005859"/>
      <use xlink:href="#DejaVuSans-Bold-2d" x="949.707031"/>
     </g>
     <!-- glucuronide plasma urine [µmole] -->
     <g transform="translate(457.648451 353.986875) rotate(-90) scale(0.18 -0.18)">
      <defs>
       <path id="DejaVuSans-Bold-63" d="M 3366 3391 
L 3366 2478 
Q 3138 2634 2908 2709 
Q 2678 2784 2431 2784 
Q 1963 2784 1702 2511 
Q 1441 2238 1441 1747 
Q 1441 1256 1702 982 
Q 1963 709 2431 709 
Q 2694 709 2930 787 
Q 3166 866 3366 1019 
L 3366 103 
Q 3103 6 2833 -42 
Q 2563 -91 2291 -91 
Q 1344 -91 809 395 
Q 275 881 275 1747 
Q 275 2613 809 3098 
Q 1344 3584 2291 3584 
Q 2566 3584 2833 3536 
Q 3100 3488 3366 3391 
z
" transform="scale(0.015625)"/>
      </defs>
      <use xlink:href="#DejaVuSans-Bold-67"/>
      <use xlink:href="#DejaVuSans-Bold-6c" x="71.582031"/>
      <use xlink:href="#DejaVuSans-Bold-75" x="105.859375"/>
      <use xlink:href="#DejaVuSans-Bold-63" x="177.050781"/>
      <use xlink:href="#DejaVuSans-Bold-75" x="236.328125"/>
      <use xlink:href="#DejaVuSans-Bold-72" x="307.519531"/>
      <use xlink:href="#DejaVuSans-Bold-6f" x="356.835938"/>
      <use xlink:href="#DejaVuSans-Bold-6e" x="425.537109"/>
      <use xlink:href="#DejaVuSans-Bold-69" x="496.728516"/>
      <use xlink:href="#DejaVuSans-Bold-64" x="531.005859"/>
      <use xlink:href="#DejaVuSans-Bold-65" x="602.587891"/>
      <use xlink:href="#DejaVuSans-Bold-20" x="670.410156"/>
      <use xlink:href="#DejaVuSans-Bold-70" x="705.224609"/>
      <use xlink:href="#DejaVuSans-Bold-6c" x="776.806641"/>
      <use xlink:href="#DejaVuSans-Bold-61" x="811.083984"/>
      <use xlink:href="#DejaVuSans-Bold-73" x="878.564453"/>
      <use xlink:href="#DejaVuSans-Bold-6d" x="938.085938"/>
      <use xlink:href="#DejaVuSans-Bold-61" x="1042.285156"/>
      <use xlink:href="#DejaVuSans-Bold-20" x="1109.765625"/>
      <use xlink:href="#DejaVuSans-Bold-75" x="1144.580078"/>
      <use xlink:href="#DejaVuSans-Bold-72" x="1215.771484"/>
      <use xlink:href="#DejaVuSans-Bold-69" x="1265.087891"/>
      <use xlink:href="#DejaVuSans-Bold-6e" x="1299.365234"/>
      <use xlink:href="#DejaVuSans-Bold-65" x="1370.556641"/>
      <use xlink:href="#DejaVuSans-Bold-20" x="1438.378906"/>
      <use xlink:href="#DejaVuSans-Bold-5b" x="1473.193359"/>
      <use xlink:href="#DejaVuSans-Bold-b5" x="1518.896484"/>
      <use xlink:href="#DejaVuSans-Bold-6d" x="1592.480469"/>
      <use xlink:href="#DejaVuSans-Bold-6f" x="1696.679688"/>
      <use xlink:href="#DejaVuSans-Bold-6c" x="1765.380859"/>
      <use xlink:href="#DejaVuSans-Bold-65" x="1799.658203"/>
      <use xlink:href="#DejaVuSans-Bold-5d" x="1867.480469"/>
     </g>
    </g>
   </g>
   <g id="LineCollection_6">
    <path clip-path="url(#pfa2f308eed)" style="fill: none; stroke: #000000"/>
    <path d="M 630.61162 216.25929 
L 630.61162 103.148643 
" clip-path="url(#pfa2f308eed)" style="fill: none; stroke: #000000"/>
   </g>
   <g id="LineCollection_7">
    <path clip-path="url(#pfa2f308eed)" style="fill: none; stroke: #000000"/>
    <path d="M 630.61162 254.138205 
L 630.61162 81.05261 
" clip-path="url(#pfa2f308eed)" style="fill: none; stroke: #000000"/>
   </g>
   <g id="LineCollection_8">
    <path clip-path="url(#pfa2f308eed)" style="fill: none; stroke: #66c2a4"/>
    <path d="M 630.61162 205.73737 
L 630.61162 55.8 
" clip-path="url(#pfa2f308eed)" style="fill: none; stroke: #66c2a4"/>
   </g>
   <g id="LineCollection_9">
    <path clip-path="url(#pfa2f308eed)" style="fill: none; stroke: #2ca25f"/>
    <path d="M 630.61162 212.31357 
L 630.61162 100.781211 
" clip-path="url(#pfa2f308eed)" style="fill: none; stroke: #2ca25f"/>
   </g>
   <g id="LineCollection_10">
    <path clip-path="url(#pfa2f308eed)" style="fill: none; stroke: #006d2c"/>
    <path d="M 630.61162 278.338622 
L 630.61162 196.793737 
" clip-path="url(#pfa2f308eed)" style="fill: none; stroke: #006d2c"/>
   </g>
   <g id="line2d_32">
    <path d="M 516.602499 307.8 
L 517.220048 307.785621 
L 517.837598 307.649396 
L 518.455147 307.266648 
L 519.072696 306.563059 
L 519.690246 305.513145 
L 520.307795 304.126903 
L 521.542894 300.485043 
L 522.777993 295.99138 
L 525.24819 285.840474 
L 528.335938 273.364008 
L 530.188586 266.698852 
L 532.041234 260.80847 
L 533.893882 255.69239 
L 535.74653 251.297732 
L 537.599179 247.548744 
L 539.451827 244.363452 
L 541.304475 241.662465 
L 543.157123 239.373187 
L 545.009771 237.431436 
L 546.86242 235.781653 
L 548.715068 234.376399 
L 551.185266 232.814672 
L 553.655463 231.539145 
L 556.125661 230.488385 
L 559.213408 229.418516 
L 562.918704 228.399776 
L 567.24155 227.467228 
L 572.799495 226.531775 
L 579.592538 225.628037 
L 589.473329 224.553955 
L 606.147163 222.994753 
L 643.200127 219.800257 
L 704.955068 214.694873 
L 769.797756 209.556845 
L 825.377202 205.326256 
L 825.377202 205.326256 
" clip-path="url(#pfa2f308eed)" style="fill: none; stroke: #000000; stroke-width: 2; stroke-linecap: square"/>
   </g>
   <g id="line2d_33">
    <g clip-path="url(#pfa2f308eed)">
     <use xlink:href="#mad9996d8a5" x="516.602499" y="307.8" style="stroke: #000000; stroke-linejoin: miter"/>
     <use xlink:href="#mad9996d8a5" x="630.61162" y="159.703967" style="stroke: #000000; stroke-linejoin: miter"/>
    </g>
   </g>
   <g id="line2d_34">
    <path d="M 516.602499 307.8 
L 517.220048 307.785621 
L 517.837598 307.649396 
L 518.455147 307.266648 
L 519.072696 306.563059 
L 519.690246 305.513145 
L 520.307795 304.126903 
L 521.542894 300.485043 
L 522.777993 295.99138 
L 525.24819 285.840474 
L 528.335938 273.364008 
L 530.188586 266.698852 
L 532.041234 260.80847 
L 533.893882 255.69239 
L 535.74653 251.297732 
L 537.599179 247.548744 
L 539.451827 244.363452 
L 541.304475 241.662465 
L 543.157123 239.373187 
L 545.009771 237.431436 
L 546.86242 235.781653 
L 548.715068 234.376399 
L 551.185266 232.814672 
L 553.655463 231.539145 
L 556.125661 230.488385 
L 559.213408 229.418516 
L 562.918704 228.399776 
L 567.24155 227.467228 
L 572.799495 226.531775 
L 579.592538 225.628037 
L 589.473329 224.553955 
L 606.147163 222.994753 
L 643.200127 219.800257 
L 704.955068 214.694873 
L 769.797756 209.556845 
L 825.377202 205.326256 
L 825.377202 205.326256 
" clip-path="url(#pfa2f308eed)" style="fill: none; stroke: #000000; stroke-width: 2; stroke-linecap: square"/>
   </g>
   <g id="line2d_35">
    <g clip-path="url(#pfa2f308eed)">
     <use xlink:href="#mad9996d8a5" x="516.602499" y="307.8" style="stroke: #000000; stroke-linejoin: miter"/>
     <use xlink:href="#mad9996d8a5" x="630.61162" y="167.595407" style="stroke: #000000; stroke-linejoin: miter"/>
    </g>
   </g>
   <g id="line2d_36">
    <path d="M 516.602499 307.8 
L 517.837598 307.692045 
L 518.455147 307.41362 
L 519.072696 306.894559 
L 519.690246 306.108729 
L 520.307795 305.055725 
L 521.542894 302.224432 
L 522.777993 298.623439 
L 524.630641 292.330613 
L 530.188586 272.620056 
L 532.658783 265.020796 
L 534.511432 260.000033 
L 536.36408 255.556652 
L 538.216728 251.656266 
L 540.069376 248.251225 
L 541.922024 245.288983 
L 543.774673 242.717064 
L 545.627321 240.485833 
L 547.479969 238.549889 
L 549.332617 236.868608 
L 551.802815 234.961819 
L 554.273013 233.372237 
L 556.74321 232.040249 
L 559.830957 230.664224 
L 562.918704 229.539776 
L 566.624001 228.441811 
L 570.946847 227.414914 
L 575.887242 226.475083 
L 582.062736 225.530062 
L 590.708428 224.460101 
L 603.059416 223.185927 
L 624.673645 221.218282 
L 670.372301 217.320274 
L 733.362341 212.162331 
L 798.822578 207.0262 
L 825.377202 205.00545 
L 825.377202 205.00545 
" clip-path="url(#pfa2f308eed)" style="fill: none; stroke: #66c2a4; stroke-width: 2; stroke-linecap: square"/>
   </g>
   <g id="line2d_37">
    <g clip-path="url(#pfa2f308eed)">
     <use xlink:href="#mfe1e155d04" x="516.602499" y="307.8" style="fill: #66c2a4; stroke: #000000; stroke-linejoin: miter"/>
     <use xlink:href="#mfe1e155d04" x="630.61162" y="130.768685" style="fill: #66c2a4; stroke: #000000; stroke-linejoin: miter"/>
    </g>
   </g>
   <g id="line2d_38">
    <path d="M 516.602499 307.8 
L 517.837598 307.746939 
L 518.455147 307.607522 
L 519.072696 307.34288 
L 519.690246 306.934613 
L 520.925345 305.672096 
L 522.160443 303.859383 
L 523.395542 301.594326 
L 525.24819 297.587705 
L 527.718388 291.607066 
L 533.276333 277.889099 
L 536.36408 270.948193 
L 538.834277 265.915013 
L 541.304475 261.361973 
L 543.774673 257.274465 
L 546.24487 253.622458 
L 548.715068 250.368768 
L 551.185266 247.474057 
L 553.655463 244.899726 
L 556.125661 242.609481 
L 558.595858 240.570068 
L 561.683605 238.328203 
L 564.771353 236.380276 
L 567.8591 234.68221 
L 571.564396 232.921869 
L 575.269692 231.413232 
L 579.592538 229.912293 
L 584.532934 228.46977 
L 590.090878 227.116222 
L 596.266372 225.863384 
L 603.676965 224.611765 
L 612.322657 223.390063 
L 623.438546 222.059401 
L 638.259732 220.524938 
L 660.491511 218.468427 
L 698.162024 215.234915 
L 756.211669 210.483516 
L 821.054356 205.39605 
L 825.377202 205.064584 
L 825.377202 205.064584 
" clip-path="url(#pfa2f308eed)" style="fill: none; stroke: #2ca25f; stroke-width: 2; stroke-linecap: square"/>
   </g>
   <g id="line2d_39">
    <g clip-path="url(#pfa2f308eed)">
     <use xlink:href="#m06433828da" x="516.602499" y="307.8" style="fill: #2ca25f; stroke: #000000; stroke-linejoin: miter"/>
     <use xlink:href="#m06433828da" x="630.61162" y="156.54739" style="fill: #2ca25f; stroke: #000000; stroke-linejoin: miter"/>
    </g>
   </g>
   <g id="line2d_40">
    <path d="M 516.602499 307.8 
L 518.455147 307.681827 
L 519.690246 307.263282 
L 520.925345 306.466428 
L 522.160443 305.303888 
L 523.395542 303.826306 
L 525.24819 301.152673 
L 527.718388 297.027399 
L 532.041234 289.186035 
L 536.981629 280.377294 
L 540.686926 274.284853 
L 543.774673 269.628137 
L 546.86242 265.361909 
L 549.950167 261.471842 
L 553.037914 257.933524 
L 556.125661 254.718461 
L 559.213408 251.797435 
L 562.301155 249.142268 
L 566.006451 246.270146 
L 569.711748 243.701928 
L 573.417044 241.40107 
L 577.122341 239.335385 
L 581.445187 237.185151 
L 585.768032 235.277734 
L 590.708428 233.352468 
L 595.648823 231.658338 
L 601.206768 229.98441 
L 607.382262 228.363215 
L 614.175305 226.815599 
L 621.585898 225.351423 
L 630.23159 223.87236 
L 640.11238 222.408732 
L 651.845819 220.896014 
L 666.667005 219.221213 
L 685.811036 217.299358 
L 711.748111 214.935167 
L 749.418625 211.74027 
L 803.145424 207.417443 
L 825.377202 205.681929 
L 825.377202 205.681929 
" clip-path="url(#pfa2f308eed)" style="fill: none; stroke: #006d2c; stroke-width: 2; stroke-linecap: square"/>
   </g>
   <g id="line2d_41">
    <g clip-path="url(#pfa2f308eed)">
     <use xlink:href="#m6aa266eb4a" x="516.602499" y="307.8" style="fill: #006d2c; stroke: #000000; stroke-linejoin: miter"/>
     <use xlink:href="#m6aa266eb4a" x="630.61162" y="237.56618" style="fill: #006d2c; stroke: #000000; stroke-linejoin: miter"/>
    </g>
   </g>
   <g id="patch_8">
    <path d="M 501.163764 320.4 
L 501.163764 43.2 
" style="fill: none; stroke: #000000; stroke-width: 0.8; stroke-linejoin: miter; stroke-linecap: square"/>
   </g>
   <g id="patch_9">
    <path d="M 840.815938 320.4 
L 840.815938 43.2 
" style="fill: none; stroke: #000000; stroke-width: 0.8; stroke-linejoin: miter; stroke-linecap: square"/>
   </g>
   <g id="patch_10">
    <path d="M 501.163764 320.4 
L 840.815938 320.4 
" style="fill: none; stroke: #000000; stroke-width: 0.8; stroke-linejoin: miter; stroke-linecap: square"/>
   </g>
   <g id="patch_11">
    <path d="M 501.163764 43.2 
L 840.815938 43.2 
" style="fill: none; stroke: #000000; stroke-width: 0.8; stroke-linejoin: miter; stroke-linecap: square"/>
   </g>
  </g>
  <g id="text_26">
   <!-- FDAMB102007 -->
   <g transform="translate(334.875703 26.196094) scale(0.25 -0.25)">
    <defs>
     <path id="DejaVuSans-Bold-46" d="M 588 4666 
L 3834 4666 
L 3834 3756 
L 1791 3756 
L 1791 2888 
L 3713 2888 
L 3713 1978 
L 1791 1978 
L 1791 0 
L 588 0 
L 588 4666 
z
" transform="scale(0.015625)"/>
     <path id="DejaVuSans-Bold-44" d="M 1791 3756 
L 1791 909 
L 2222 909 
Q 2959 909 3348 1275 
Q 3738 1641 3738 2338 
Q 3738 3031 3350 3393 
Q 2963 3756 2222 3756 
L 1791 3756 
z
M 588 4666 
L 1856 4666 
Q 2919 4666 3439 4514 
Q 3959 4363 4331 4000 
Q 4659 3684 4818 3271 
Q 4978 2859 4978 2338 
Q 4978 1809 4818 1395 
Q 4659 981 4331 666 
Q 3956 303 3431 151 
Q 2906 0 1856 0 
L 588 0 
L 588 4666 
z
" transform="scale(0.015625)"/>
     <path id="DejaVuSans-Bold-41" d="M 3419 850 
L 1538 850 
L 1241 0 
L 31 0 
L 1759 4666 
L 3194 4666 
L 4922 0 
L 3713 0 
L 3419 850 
z
M 1838 1716 
L 3116 1716 
L 2478 3572 
L 1838 1716 
z
" transform="scale(0.015625)"/>
     <path id="DejaVuSans-Bold-4d" d="M 588 4666 
L 2119 4666 
L 3181 2169 
L 4250 4666 
L 5778 4666 
L 5778 0 
L 4641 0 
L 4641 3413 
L 3566 897 
L 2803 897 
L 1728 3413 
L 1728 0 
L 588 0 
L 588 4666 
z
" transform="scale(0.015625)"/>
     <path id="DejaVuSans-Bold-42" d="M 2456 2859 
Q 2741 2859 2887 2984 
Q 3034 3109 3034 3353 
Q 3034 3594 2887 3720 
Q 2741 3847 2456 3847 
L 1791 3847 
L 1791 2859 
L 2456 2859 
z
M 2497 819 
Q 2859 819 3042 972 
Q 3225 1125 3225 1434 
Q 3225 1738 3044 1889 
Q 2863 2041 2497 2041 
L 1791 2041 
L 1791 819 
L 2497 819 
z
M 3616 2497 
Q 4003 2384 4215 2081 
Q 4428 1778 4428 1338 
Q 4428 663 3972 331 
Q 3516 0 2584 0 
L 588 0 
L 588 4666 
L 2394 4666 
Q 3366 4666 3802 4372 
Q 4238 4078 4238 3431 
Q 4238 3091 4078 2852 
Q 3919 2613 3616 2497 
z
" transform="scale(0.015625)"/>
     <path id="DejaVuSans-Bold-31" d="M 750 831 
L 1813 831 
L 1813 3847 
L 722 3622 
L 722 4441 
L 1806 4666 
L 2950 4666 
L 2950 831 
L 4013 831 
L 4013 0 
L 750 0 
L 750 831 
z
" transform="scale(0.015625)"/>
     <path id="DejaVuSans-Bold-30" d="M 2944 2338 
Q 2944 3213 2780 3570 
Q 2616 3928 2228 3928 
Q 1841 3928 1675 3570 
Q 1509 3213 1509 2338 
Q 1509 1453 1675 1090 
Q 1841 728 2228 728 
Q 2613 728 2778 1090 
Q 2944 1453 2944 2338 
z
M 4147 2328 
Q 4147 1169 3647 539 
Q 3147 -91 2228 -91 
Q 1306 -91 806 539 
Q 306 1169 306 2328 
Q 306 3491 806 4120 
Q 1306 4750 2228 4750 
Q 3147 4750 3647 4120 
Q 4147 3491 4147 2328 
z
" transform="scale(0.015625)"/>
     <path id="DejaVuSans-Bold-32" d="M 1844 884 
L 3897 884 
L 3897 0 
L 506 0 
L 506 884 
L 2209 2388 
Q 2438 2594 2547 2791 
Q 2656 2988 2656 3200 
Q 2656 3528 2436 3728 
Q 2216 3928 1850 3928 
Q 1569 3928 1234 3808 
Q 900 3688 519 3450 
L 519 4475 
Q 925 4609 1322 4679 
Q 1719 4750 2100 4750 
Q 2938 4750 3402 4381 
Q 3866 4013 3866 3353 
Q 3866 2972 3669 2642 
Q 3472 2313 2841 1759 
L 1844 884 
z
" transform="scale(0.015625)"/>
     <path id="DejaVuSans-Bold-37" d="M 428 4666 
L 3944 4666 
L 3944 3988 
L 2125 0 
L 953 0 
L 2675 3781 
L 428 3781 
L 428 4666 
z
" transform="scale(0.015625)"/>
    </defs>
    <use xlink:href="#DejaVuSans-Bold-46"/>
    <use xlink:href="#DejaVuSans-Bold-44" x="68.310547"/>
    <use xlink:href="#DejaVuSans-Bold-41" x="151.318359"/>
    <use xlink:href="#DejaVuSans-Bold-4d" x="228.710938"/>
    <use xlink:href="#DejaVuSans-Bold-42" x="328.222656"/>
    <use xlink:href="#DejaVuSans-Bold-31" x="404.443359"/>
    <use xlink:href="#DejaVuSans-Bold-30" x="474.023438"/>
    <use xlink:href="#DejaVuSans-Bold-32" x="543.603516"/>
    <use xlink:href="#DejaVuSans-Bold-30" x="613.183594"/>
    <use xlink:href="#DejaVuSans-Bold-30" x="682.763672"/>
    <use xlink:href="#DejaVuSans-Bold-37" x="752.34375"/>
   </g>
  </g>
 </g>
 <defs>
  <clipPath id="pe26c59c199">
   <rect x="59.615938" y="43.2" width="339.652174" height="277.2"/>
  </clipPath>
  <clipPath id="pfa2f308eed">
   <rect x="501.163764" y="43.2" width="339.652174" height="277.2"/>
  </clipPath>
 </defs>
</svg>
