<?xml version="1.0" encoding="utf-8" standalone="no"?>
<!DOCTYPE svg PUBLIC "-//W3C//DTD SVG 1.1//EN"
  "http://www.w3.org/Graphics/SVG/1.1/DTD/svg11.dtd">
<svg xmlns:xlink="http://www.w3.org/1999/xlink" width="462.1925pt" height="370.537812pt" viewBox="0 0 462.1925 370.537812" xmlns="http://www.w3.org/2000/svg" version="1.1">
 <metadata>
  <rdf:RDF xmlns:dc="http://purl.org/dc/elements/1.1/" xmlns:cc="http://creativecommons.org/ns#" xmlns:rdf="http://www.w3.org/1999/02/22-rdf-syntax-ns#">
   <cc:Work>
    <dc:type rdf:resource="http://purl.org/dc/dcmitype/StillImage"/>
    <dc:date>2025-12-21T21:50:55.275007</dc:date>
    <dc:format>image/svg+xml</dc:format>
    <dc:creator>
     <cc:Agent>
      <dc:title>Matplotlib v3.10.7, https://matplotlib.org/</dc:title>
     </cc:Agent>
    </dc:creator>
   </cc:Work>
  </rdf:RDF>
 </metadata>
 <defs>
  <style type="text/css">*{stroke-linejoin: round; stroke-linecap: butt}</style>
 </defs>
 <g id="figure_1">
  <g id="patch_1">
   <path d="M 0 370.537812 
L 462.1925 370.537812 
L 462.1925 0 
L 0 0 
z
" style="fill: #ffffff"/>
  </g>
  <g id="axes_1">
   <g id="patch_2">
    <path d="M 64.3925 320.4 
L 454.9925 320.4 
L 454.9925 43.2 
L 64.3925 43.2 
z
" style="fill: #ffffff"/>
   </g>
   <g id="matplotlib.axis_1">
    <g id="xtick_1">
     <g id="line2d_1">
      <defs>
       <path id="mcc75b27d52" d="M 0 0 
L 0 3.5 
" style="stroke: #000000; stroke-width: 0.8"/>
      </defs>
      <g>
       <use xlink:href="#mcc75b27d52" x="71.050455" y="320.4" style="stroke: #000000; stroke-width: 0.8"/>
      </g>
     </g>
     <g id="text_1">
      <!-- −150 -->
      <g transform="translate(50.450064 338.797656) scale(0.15 -0.15)">
       <defs>
        <path id="DejaVuSans-2212" d="M 678 2272 
L 4684 2272 
L 4684 1741 
L 678 1741 
L 678 2272 
z
" transform="scale(0.015625)"/>
        <path id="DejaVuSans-31" d="M 794 531 
L 1825 531 
L 1825 4091 
L 703 3866 
L 703 4441 
L 1819 4666 
L 2450 4666 
L 2450 531 
L 3481 531 
L 3481 0 
L 794 0 
L 794 531 
z
" transform="scale(0.015625)"/>
        <path id="DejaVuSans-35" d="M 691 4666 
L 3169 4666 
L 3169 4134 
L 1269 4134 
L 1269 2991 
Q 1406 3038 1543 3061 
Q 1681 3084 1819 3084 
Q 2600 3084 3056 2656 
Q 3513 2228 3513 1497 
Q 3513 744 3044 326 
Q 2575 -91 1722 -91 
Q 1428 -91 1123 -41 
Q 819 9 494 109 
L 494 744 
Q 775 591 1075 516 
Q 1375 441 1709 441 
Q 2250 441 2565 725 
Q 2881 1009 2881 1497 
Q 2881 1984 2565 2268 
Q 2250 2553 1709 2553 
Q 1456 2553 1204 2497 
Q 953 2441 691 2322 
L 691 4666 
z
" transform="scale(0.015625)"/>
        <path id="DejaVuSans-30" d="M 2034 4250 
Q 1547 4250 1301 3770 
Q 1056 3291 1056 2328 
Q 1056 1369 1301 889 
Q 1547 409 2034 409 
Q 2525 409 2770 889 
Q 3016 1369 3016 2328 
Q 3016 3291 2770 3770 
Q 2525 4250 2034 4250 
z
M 2034 4750 
Q 2819 4750 3233 4129 
Q 3647 3509 3647 2328 
Q 3647 1150 3233 529 
Q 2819 -91 2034 -91 
Q 1250 -91 836 529 
Q 422 1150 422 2328 
Q 422 3509 836 4129 
Q 1250 4750 2034 4750 
z
" transform="scale(0.015625)"/>
       </defs>
       <use xlink:href="#DejaVuSans-2212"/>
       <use xlink:href="#DejaVuSans-31" transform="translate(83.789062 0)"/>
       <use xlink:href="#DejaVuSans-35" transform="translate(147.412109 0)"/>
       <use xlink:href="#DejaVuSans-30" transform="translate(211.035156 0)"/>
      </g>
     </g>
    </g>
    <g id="xtick_2">
     <g id="line2d_2">
      <g>
       <use xlink:href="#mcc75b27d52" x="163.522045" y="320.4" style="stroke: #000000; stroke-width: 0.8"/>
      </g>
     </g>
     <g id="text_2">
      <!-- −100 -->
      <g transform="translate(142.921655 338.797656) scale(0.15 -0.15)">
       <use xlink:href="#DejaVuSans-2212"/>
       <use xlink:href="#DejaVuSans-31" transform="translate(83.789062 0)"/>
       <use xlink:href="#DejaVuSans-30" transform="translate(147.412109 0)"/>
       <use xlink:href="#DejaVuSans-30" transform="translate(211.035156 0)"/>
      </g>
     </g>
    </g>
    <g id="xtick_3">
     <g id="line2d_3">
      <g>
       <use xlink:href="#mcc75b27d52" x="255.993636" y="320.4" style="stroke: #000000; stroke-width: 0.8"/>
      </g>
     </g>
     <g id="text_3">
      <!-- −50 -->
      <g transform="translate(240.165121 338.797656) scale(0.15 -0.15)">
       <use xlink:href="#DejaVuSans-2212"/>
       <use xlink:href="#DejaVuSans-35" transform="translate(83.789062 0)"/>
       <use xlink:href="#DejaVuSans-30" transform="translate(147.412109 0)"/>
      </g>
     </g>
    </g>
    <g id="xtick_4">
     <g id="line2d_4">
      <g>
       <use xlink:href="#mcc75b27d52" x="348.465227" y="320.4" style="stroke: #000000; stroke-width: 0.8"/>
      </g>
     </g>
     <g id="text_4">
      <!-- 0 -->
      <g transform="translate(343.693352 338.797656) scale(0.15 -0.15)">
       <use xlink:href="#DejaVuSans-30"/>
      </g>
     </g>
    </g>
    <g id="xtick_5">
     <g id="line2d_5">
      <g>
       <use xlink:href="#mcc75b27d52" x="440.936818" y="320.4" style="stroke: #000000; stroke-width: 0.8"/>
      </g>
     </g>
     <g id="text_5">
      <!-- 50 -->
      <g transform="translate(431.393068 338.797656) scale(0.15 -0.15)">
       <use xlink:href="#DejaVuSans-35"/>
       <use xlink:href="#DejaVuSans-30" transform="translate(63.623047 0)"/>
      </g>
     </g>
    </g>
    <g id="text_6">
     <!-- time [hr] -->
     <g transform="translate(214.617969 359.594375) scale(0.18 -0.18)">
      <defs>
       <path id="DejaVuSans-Bold-74" d="M 1759 4494 
L 1759 3500 
L 2913 3500 
L 2913 2700 
L 1759 2700 
L 1759 1216 
Q 1759 972 1856 886 
Q 1953 800 2241 800 
L 2816 800 
L 2816 0 
L 1856 0 
Q 1194 0 917 276 
Q 641 553 641 1216 
L 641 2700 
L 84 2700 
L 84 3500 
L 641 3500 
L 641 4494 
L 1759 4494 
z
" transform="scale(0.015625)"/>
       <path id="DejaVuSans-Bold-69" d="M 538 3500 
L 1656 3500 
L 1656 0 
L 538 0 
L 538 3500 
z
M 538 4863 
L 1656 4863 
L 1656 3950 
L 538 3950 
L 538 4863 
z
" transform="scale(0.015625)"/>
       <path id="DejaVuSans-Bold-6d" d="M 3781 2919 
Q 3994 3244 4286 3414 
Q 4578 3584 4928 3584 
Q 5531 3584 5847 3212 
Q 6163 2841 6163 2131 
L 6163 0 
L 5038 0 
L 5038 1825 
Q 5041 1866 5042 1909 
Q 5044 1953 5044 2034 
Q 5044 2406 4934 2573 
Q 4825 2741 4581 2741 
Q 4263 2741 4089 2478 
Q 3916 2216 3909 1719 
L 3909 0 
L 2784 0 
L 2784 1825 
Q 2784 2406 2684 2573 
Q 2584 2741 2328 2741 
Q 2006 2741 1831 2477 
Q 1656 2213 1656 1722 
L 1656 0 
L 531 0 
L 531 3500 
L 1656 3500 
L 1656 2988 
Q 1863 3284 2130 3434 
Q 2397 3584 2719 3584 
Q 3081 3584 3359 3409 
Q 3638 3234 3781 2919 
z
" transform="scale(0.015625)"/>
       <path id="DejaVuSans-Bold-65" d="M 4031 1759 
L 4031 1441 
L 1416 1441 
Q 1456 1047 1700 850 
Q 1944 653 2381 653 
Q 2734 653 3104 758 
Q 3475 863 3866 1075 
L 3866 213 
Q 3469 63 3072 -14 
Q 2675 -91 2278 -91 
Q 1328 -91 801 392 
Q 275 875 275 1747 
Q 275 2603 792 3093 
Q 1309 3584 2216 3584 
Q 3041 3584 3536 3087 
Q 4031 2591 4031 1759 
z
M 2881 2131 
Q 2881 2450 2695 2645 
Q 2509 2841 2209 2841 
Q 1884 2841 1681 2658 
Q 1478 2475 1428 2131 
L 2881 2131 
z
" transform="scale(0.015625)"/>
       <path id="DejaVuSans-Bold-20" transform="scale(0.015625)"/>
       <path id="DejaVuSans-Bold-5b" d="M 550 4863 
L 2491 4863 
L 2491 4159 
L 1613 4159 
L 1613 -141 
L 2491 -141 
L 2491 -844 
L 550 -844 
L 550 4863 
z
" transform="scale(0.015625)"/>
       <path id="DejaVuSans-Bold-68" d="M 4056 2131 
L 4056 0 
L 2931 0 
L 2931 347 
L 2931 1625 
Q 2931 2084 2911 2256 
Q 2891 2428 2841 2509 
Q 2775 2619 2662 2680 
Q 2550 2741 2406 2741 
Q 2056 2741 1856 2470 
Q 1656 2200 1656 1722 
L 1656 0 
L 538 0 
L 538 4863 
L 1656 4863 
L 1656 2988 
Q 1909 3294 2193 3439 
Q 2478 3584 2822 3584 
Q 3428 3584 3742 3212 
Q 4056 2841 4056 2131 
z
" transform="scale(0.015625)"/>
       <path id="DejaVuSans-Bold-72" d="M 3138 2547 
Q 2991 2616 2845 2648 
Q 2700 2681 2553 2681 
Q 2122 2681 1889 2404 
Q 1656 2128 1656 1613 
L 1656 0 
L 538 0 
L 538 3500 
L 1656 3500 
L 1656 2925 
Q 1872 3269 2151 3426 
Q 2431 3584 2822 3584 
Q 2878 3584 2943 3579 
Q 3009 3575 3134 3559 
L 3138 2547 
z
" transform="scale(0.015625)"/>
       <path id="DejaVuSans-Bold-5d" d="M 2375 -844 
L 434 -844 
L 434 -141 
L 1313 -141 
L 1313 4159 
L 434 4159 
L 434 4863 
L 2375 4863 
L 2375 -844 
z
" transform="scale(0.015625)"/>
      </defs>
      <use xlink:href="#DejaVuSans-Bold-74"/>
      <use xlink:href="#DejaVuSans-Bold-69" transform="translate(47.802734 0)"/>
      <use xlink:href="#DejaVuSans-Bold-6d" transform="translate(82.080078 0)"/>
      <use xlink:href="#DejaVuSans-Bold-65" transform="translate(186.279297 0)"/>
      <use xlink:href="#DejaVuSans-Bold-20" transform="translate(254.101562 0)"/>
      <use xlink:href="#DejaVuSans-Bold-5b" transform="translate(288.916016 0)"/>
      <use xlink:href="#DejaVuSans-Bold-68" transform="translate(334.619141 0)"/>
      <use xlink:href="#DejaVuSans-Bold-72" transform="translate(405.810547 0)"/>
      <use xlink:href="#DejaVuSans-Bold-5d" transform="translate(455.126953 0)"/>
     </g>
    </g>
   </g>
   <g id="matplotlib.axis_2">
    <g id="ytick_1">
     <g id="line2d_6">
      <defs>
       <path id="m1c1c3491c0" d="M 0 0 
L -3.5 0 
" style="stroke: #000000; stroke-width: 0.8"/>
      </defs>
      <g>
       <use xlink:href="#m1c1c3491c0" x="64.3925" y="307.8" style="stroke: #000000; stroke-width: 0.8"/>
      </g>
     </g>
     <g id="text_7">
      <!-- 0 -->
      <g transform="translate(47.84875 313.498828) scale(0.15 -0.15)">
       <use xlink:href="#DejaVuSans-30"/>
      </g>
     </g>
    </g>
    <g id="ytick_2">
     <g id="line2d_7">
      <g>
       <use xlink:href="#m1c1c3491c0" x="64.3925" y="273.42285" style="stroke: #000000; stroke-width: 0.8"/>
      </g>
     </g>
     <g id="text_8">
      <!-- 20 -->
      <g transform="translate(38.305 279.121678) scale(0.15 -0.15)">
       <defs>
        <path id="DejaVuSans-32" d="M 1228 531 
L 3431 531 
L 3431 0 
L 469 0 
L 469 531 
Q 828 903 1448 1529 
Q 2069 2156 2228 2338 
Q 2531 2678 2651 2914 
Q 2772 3150 2772 3378 
Q 2772 3750 2511 3984 
Q 2250 4219 1831 4219 
Q 1534 4219 1204 4116 
Q 875 4013 500 3803 
L 500 4441 
Q 881 4594 1212 4672 
Q 1544 4750 1819 4750 
Q 2544 4750 2975 4387 
Q 3406 4025 3406 3419 
Q 3406 3131 3298 2873 
Q 3191 2616 2906 2266 
Q 2828 2175 2409 1742 
Q 1991 1309 1228 531 
z
" transform="scale(0.015625)"/>
       </defs>
       <use xlink:href="#DejaVuSans-32"/>
       <use xlink:href="#DejaVuSans-30" transform="translate(63.623047 0)"/>
      </g>
     </g>
    </g>
    <g id="ytick_3">
     <g id="line2d_8">
      <g>
       <use xlink:href="#m1c1c3491c0" x="64.3925" y="239.045701" style="stroke: #000000; stroke-width: 0.8"/>
      </g>
     </g>
     <g id="text_9">
      <!-- 40 -->
      <g transform="translate(38.305 244.744529) scale(0.15 -0.15)">
       <defs>
        <path id="DejaVuSans-34" d="M 2419 4116 
L 825 1625 
L 2419 1625 
L 2419 4116 
z
M 2253 4666 
L 3047 4666 
L 3047 1625 
L 3713 1625 
L 3713 1100 
L 3047 1100 
L 3047 0 
L 2419 0 
L 2419 1100 
L 313 1100 
L 313 1709 
L 2253 4666 
z
" transform="scale(0.015625)"/>
       </defs>
       <use xlink:href="#DejaVuSans-34"/>
       <use xlink:href="#DejaVuSans-30" transform="translate(63.623047 0)"/>
      </g>
     </g>
    </g>
    <g id="ytick_4">
     <g id="line2d_9">
      <g>
       <use xlink:href="#m1c1c3491c0" x="64.3925" y="204.668551" style="stroke: #000000; stroke-width: 0.8"/>
      </g>
     </g>
     <g id="text_10">
      <!-- 60 -->
      <g transform="translate(38.305 210.367379) scale(0.15 -0.15)">
       <defs>
        <path id="DejaVuSans-36" d="M 2113 2584 
Q 1688 2584 1439 2293 
Q 1191 2003 1191 1497 
Q 1191 994 1439 701 
Q 1688 409 2113 409 
Q 2538 409 2786 701 
Q 3034 994 3034 1497 
Q 3034 2003 2786 2293 
Q 2538 2584 2113 2584 
z
M 3366 4563 
L 3366 3988 
Q 3128 4100 2886 4159 
Q 2644 4219 2406 4219 
Q 1781 4219 1451 3797 
Q 1122 3375 1075 2522 
Q 1259 2794 1537 2939 
Q 1816 3084 2150 3084 
Q 2853 3084 3261 2657 
Q 3669 2231 3669 1497 
Q 3669 778 3244 343 
Q 2819 -91 2113 -91 
Q 1303 -91 875 529 
Q 447 1150 447 2328 
Q 447 3434 972 4092 
Q 1497 4750 2381 4750 
Q 2619 4750 2861 4703 
Q 3103 4656 3366 4563 
z
" transform="scale(0.015625)"/>
       </defs>
       <use xlink:href="#DejaVuSans-36"/>
       <use xlink:href="#DejaVuSans-30" transform="translate(63.623047 0)"/>
      </g>
     </g>
    </g>
    <g id="ytick_5">
     <g id="line2d_10">
      <g>
       <use xlink:href="#m1c1c3491c0" x="64.3925" y="170.291401" style="stroke: #000000; stroke-width: 0.8"/>
      </g>
     </g>
     <g id="text_11">
      <!-- 80 -->
      <g transform="translate(38.305 175.990229) scale(0.15 -0.15)">
       <defs>
        <path id="DejaVuSans-38" d="M 2034 2216 
Q 1584 2216 1326 1975 
Q 1069 1734 1069 1313 
Q 1069 891 1326 650 
Q 1584 409 2034 409 
Q 2484 409 2743 651 
Q 3003 894 3003 1313 
Q 3003 1734 2745 1975 
Q 2488 2216 2034 2216 
z
M 1403 2484 
Q 997 2584 770 2862 
Q 544 3141 544 3541 
Q 544 4100 942 4425 
Q 1341 4750 2034 4750 
Q 2731 4750 3128 4425 
Q 3525 4100 3525 3541 
Q 3525 3141 3298 2862 
Q 3072 2584 2669 2484 
Q 3125 2378 3379 2068 
Q 3634 1759 3634 1313 
Q 3634 634 3220 271 
Q 2806 -91 2034 -91 
Q 1263 -91 848 271 
Q 434 634 434 1313 
Q 434 1759 690 2068 
Q 947 2378 1403 2484 
z
M 1172 3481 
Q 1172 3119 1398 2916 
Q 1625 2713 2034 2713 
Q 2441 2713 2670 2916 
Q 2900 3119 2900 3481 
Q 2900 3844 2670 4047 
Q 2441 4250 2034 4250 
Q 1625 4250 1398 4047 
Q 1172 3844 1172 3481 
z
" transform="scale(0.015625)"/>
       </defs>
       <use xlink:href="#DejaVuSans-38"/>
       <use xlink:href="#DejaVuSans-30" transform="translate(63.623047 0)"/>
      </g>
     </g>
    </g>
    <g id="ytick_6">
     <g id="line2d_11">
      <g>
       <use xlink:href="#m1c1c3491c0" x="64.3925" y="135.914252" style="stroke: #000000; stroke-width: 0.8"/>
      </g>
     </g>
     <g id="text_12">
      <!-- 100 -->
      <g transform="translate(28.76125 141.61308) scale(0.15 -0.15)">
       <use xlink:href="#DejaVuSans-31"/>
       <use xlink:href="#DejaVuSans-30" transform="translate(63.623047 0)"/>
       <use xlink:href="#DejaVuSans-30" transform="translate(127.246094 0)"/>
      </g>
     </g>
    </g>
    <g id="ytick_7">
     <g id="line2d_12">
      <g>
       <use xlink:href="#m1c1c3491c0" x="64.3925" y="101.537102" style="stroke: #000000; stroke-width: 0.8"/>
      </g>
     </g>
     <g id="text_13">
      <!-- 120 -->
      <g transform="translate(28.76125 107.23593) scale(0.15 -0.15)">
       <use xlink:href="#DejaVuSans-31"/>
       <use xlink:href="#DejaVuSans-32" transform="translate(63.623047 0)"/>
       <use xlink:href="#DejaVuSans-30" transform="translate(127.246094 0)"/>
      </g>
     </g>
    </g>
    <g id="ytick_8">
     <g id="line2d_13">
      <g>
       <use xlink:href="#m1c1c3491c0" x="64.3925" y="67.159952" style="stroke: #000000; stroke-width: 0.8"/>
      </g>
     </g>
     <g id="text_14">
      <!-- 140 -->
      <g transform="translate(28.76125 72.85878) scale(0.15 -0.15)">
       <use xlink:href="#DejaVuSans-31"/>
       <use xlink:href="#DejaVuSans-34" transform="translate(63.623047 0)"/>
       <use xlink:href="#DejaVuSans-30" transform="translate(127.246094 0)"/>
      </g>
     </g>
    </g>
    <g id="text_15">
     <!-- UGE [g] -->
     <g transform="translate(20.877187 220.445156) rotate(-90) scale(0.18 -0.18)">
      <defs>
       <path id="DejaVuSans-Bold-55" d="M 588 4666 
L 1791 4666 
L 1791 1869 
Q 1791 1291 1980 1042 
Q 2169 794 2597 794 
Q 3028 794 3217 1042 
Q 3406 1291 3406 1869 
L 3406 4666 
L 4609 4666 
L 4609 1869 
Q 4609 878 4112 393 
Q 3616 -91 2597 -91 
Q 1581 -91 1084 393 
Q 588 878 588 1869 
L 588 4666 
z
" transform="scale(0.015625)"/>
       <path id="DejaVuSans-Bold-47" d="M 4781 347 
Q 4331 128 3847 18 
Q 3363 -91 2847 -91 
Q 1681 -91 1000 561 
Q 319 1213 319 2328 
Q 319 3456 1012 4103 
Q 1706 4750 2913 4750 
Q 3378 4750 3804 4662 
Q 4231 4575 4609 4403 
L 4609 3438 
Q 4219 3659 3833 3768 
Q 3447 3878 3059 3878 
Q 2341 3878 1952 3476 
Q 1563 3075 1563 2328 
Q 1563 1588 1938 1184 
Q 2313 781 3003 781 
Q 3191 781 3352 804 
Q 3513 828 3641 878 
L 3641 1784 
L 2906 1784 
L 2906 2591 
L 4781 2591 
L 4781 347 
z
" transform="scale(0.015625)"/>
       <path id="DejaVuSans-Bold-45" d="M 588 4666 
L 3834 4666 
L 3834 3756 
L 1791 3756 
L 1791 2888 
L 3713 2888 
L 3713 1978 
L 1791 1978 
L 1791 909 
L 3903 909 
L 3903 0 
L 588 0 
L 588 4666 
z
" transform="scale(0.015625)"/>
       <path id="DejaVuSans-Bold-67" d="M 2919 594 
Q 2688 288 2409 144 
Q 2131 0 1766 0 
Q 1125 0 706 504 
Q 288 1009 288 1791 
Q 288 2575 706 3076 
Q 1125 3578 1766 3578 
Q 2131 3578 2409 3434 
Q 2688 3291 2919 2981 
L 2919 3500 
L 4044 3500 
L 4044 353 
Q 4044 -491 3511 -936 
Q 2978 -1381 1966 -1381 
Q 1638 -1381 1331 -1331 
Q 1025 -1281 716 -1178 
L 716 -306 
Q 1009 -475 1290 -558 
Q 1572 -641 1856 -641 
Q 2406 -641 2662 -400 
Q 2919 -159 2919 353 
L 2919 594 
z
M 2181 2772 
Q 1834 2772 1640 2515 
Q 1447 2259 1447 1791 
Q 1447 1309 1634 1061 
Q 1822 813 2181 813 
Q 2531 813 2725 1069 
Q 2919 1325 2919 1791 
Q 2919 2259 2725 2515 
Q 2531 2772 2181 2772 
z
" transform="scale(0.015625)"/>
      </defs>
      <use xlink:href="#DejaVuSans-Bold-55"/>
      <use xlink:href="#DejaVuSans-Bold-47" transform="translate(81.201172 0)"/>
      <use xlink:href="#DejaVuSans-Bold-45" transform="translate(163.28125 0)"/>
      <use xlink:href="#DejaVuSans-Bold-20" transform="translate(231.591797 0)"/>
      <use xlink:href="#DejaVuSans-Bold-5b" transform="translate(266.40625 0)"/>
      <use xlink:href="#DejaVuSans-Bold-67" transform="translate(312.109375 0)"/>
      <use xlink:href="#DejaVuSans-Bold-5d" transform="translate(383.691406 0)"/>
     </g>
    </g>
   </g>
   <g id="line2d_14">
    <path d="M 82.147045 307.8 
L 82.235818 307.8 
L 82.413364 307.372101 
L 83.478636 303.016331 
L 88.627455 281.867911 
L 91.113091 272.559058 
L 92.977318 266.407213 
L 94.486455 262.182934 
L 95.729273 259.31851 
L 96.883318 257.191787 
L 97.948591 255.677752 
L 98.925091 254.640724 
L 99.901591 253.900062 
L 100.966864 253.377665 
L 102.032136 253.096492 
L 103.274955 253.002443 
L 126.533409 253.002443 
L 126.533409 307.8 
L 126.622182 307.782298 
L 126.8885 306.96184 
L 128.8415 298.831325 
L 133.191364 281.058921 
L 135.765773 271.423356 
L 137.718773 264.939547 
L 139.405455 260.105697 
L 140.914591 256.439268 
L 142.423727 253.363259 
L 143.932864 250.787267 
L 145.619545 248.358564 
L 147.572545 245.95126 
L 150.058182 243.260407 
L 153.609091 239.774219 
L 159.201773 234.626894 
L 167.013773 227.748229 
L 170.919773 224.411101 
L 170.919773 307.8 
L 171.008545 307.701959 
L 171.274864 306.841429 
L 173.316636 298.333254 
L 177.6665 280.560353 
L 180.329682 270.566965 
L 182.371455 263.716673 
L 184.235682 258.224973 
L 186.011136 253.669242 
L 187.875364 249.480472 
L 190.094682 245.060483 
L 192.935409 239.933108 
L 197.1965 232.749473 
L 204.564636 220.816694 
L 214.595955 204.993699 
L 215.306136 203.888714 
L 215.306136 307.8 
L 215.394909 307.646777 
L 215.75 306.406923 
L 219.212136 291.953469 
L 222.940591 276.998135 
L 225.426227 267.878246 
L 227.556773 260.868322 
L 229.598545 254.904908 
L 231.729091 249.35717 
L 234.3035 243.289063 
L 237.854409 235.530337 
L 243.890955 222.947476 
L 254.366136 201.661897 
L 259.6925 190.998943 
L 259.6925 307.8 
L 259.781273 307.612003 
L 260.225136 305.991147 
L 268.658545 271.879183 
L 271.055409 263.45153 
L 273.274727 256.43569 
L 275.671591 249.61001 
L 278.601091 241.982997 
L 282.862182 231.574347 
L 290.762955 212.9504 
L 303.368682 183.81112 
L 304.078864 182.185301 
L 304.078864 307.8 
L 304.167636 307.588199 
L 304.6115 305.950181 
L 313.133682 271.45384 
L 315.619318 262.659329 
L 318.016182 254.974397 
L 320.679364 247.182607 
L 324.230273 237.520184 
L 330.266818 221.833256 
L 342.073591 191.842867 
L 348.465227 175.799456 
L 348.465227 307.8 
L 348.820318 306.633173 
L 351.661045 294.763873 
L 355.744591 278.16436 
L 358.585318 267.472078 
L 361.070955 258.922789 
L 363.734136 250.54364 
L 367.1075 240.699473 
L 372.611409 225.432089 
L 383.974318 194.696 
L 398.888136 154.975803 
L 413.624409 116.356382 
L 428.183136 78.825286 
L 437.237955 55.8 
L 437.237955 55.8 
" clip-path="url(#pafb0b01bbb)" style="fill: none; stroke: #000000; stroke-width: 2; stroke-linecap: square"/>
   </g>
   <g id="line2d_15">
    <path d="M 348.465227 307.8 
L 392.851591 150.604964 
" clip-path="url(#pafb0b01bbb)" style="fill: none; stroke-dasharray: 3.7,1.6; stroke-dashoffset: 0; stroke: #000000"/>
    <defs>
     <path id="mfed1dd48ab" d="M -3 3 
L 3 3 
L 3 -3 
L -3 -3 
z
" style="stroke: #000000; stroke-linejoin: miter"/>
    </defs>
    <g clip-path="url(#pafb0b01bbb)">
     <use xlink:href="#mfed1dd48ab" x="348.465227" y="307.8" style="stroke: #000000; stroke-linejoin: miter"/>
     <use xlink:href="#mfed1dd48ab" x="392.851591" y="150.604964" style="stroke: #000000; stroke-linejoin: miter"/>
    </g>
   </g>
   <g id="line2d_16">
    <path d="M 82.147045 307.8 
L 82.324591 307.699345 
L 82.857227 306.281956 
L 90.136591 285.802265 
L 92.444682 280.069883 
L 94.220136 276.216285 
L 95.729273 273.443422 
L 97.060864 271.429708 
L 98.303682 269.920169 
L 99.5465 268.742059 
L 100.878091 267.796347 
L 102.298455 267.075867 
L 103.896364 266.527327 
L 105.849364 266.108939 
L 108.423773 265.805697 
L 112.241 265.606695 
L 118.455091 265.53055 
L 126.533409 265.53055 
L 126.533409 307.8 
L 126.622182 307.777565 
L 126.8885 307.199266 
L 128.930273 301.331155 
L 133.635227 288.060599 
L 136.387182 280.938752 
L 138.517727 276.032805 
L 140.381955 272.301791 
L 142.157409 269.254507 
L 143.932864 266.642302 
L 145.974636 264.047066 
L 148.460273 261.270192 
L 151.922409 257.768787 
L 157.603864 252.382511 
L 167.102545 243.70541 
L 170.919773 240.287419 
L 170.919773 307.8 
L 171.008545 307.708306 
L 171.363636 306.85759 
L 175.003318 296.374927 
L 178.909318 285.5513 
L 181.5725 278.800132 
L 183.791818 273.769276 
L 185.922364 269.497084 
L 188.141682 265.548136 
L 190.804864 261.27709 
L 194.533318 255.754584 
L 200.924955 246.740608 
L 212.554182 230.756464 
L 215.306136 227.020353 
L 215.306136 307.8 
L 215.394909 307.671735 
L 215.838773 306.551834 
L 224.804818 281.521205 
L 227.379227 275.270685 
L 229.776091 270.038195 
L 232.3505 264.95852 
L 235.635091 258.998067 
L 240.783909 250.173518 
L 251.170318 232.890722 
L 259.6925 218.901689 
L 259.6925 307.8 
L 259.781273 307.649342 
L 260.225136 306.513637 
L 269.279955 281.202546 
L 271.943136 274.66726 
L 274.606318 268.72024 
L 277.713364 262.35063 
L 282.152 253.806427 
L 290.762955 237.799401 
L 304.078864 213.431994 
L 304.078864 307.8 
L 304.167636 307.634283 
L 304.700273 306.23483 
L 313.044909 282.748713 
L 315.974409 275.360978 
L 318.815136 268.794445 
L 322.277273 261.379689 
L 327.603636 250.56453 
L 339.055318 227.917643 
L 348.465227 209.505194 
L 348.465227 307.8 
L 348.997864 306.465985 
L 357.875136 281.530577 
L 360.893409 273.950721 
L 364.089227 266.542843 
L 368.350318 257.280716 
L 376.339864 240.559735 
L 393.206682 205.829609 
L 411.671409 168.300534 
L 429.781045 131.990536 
L 437.237955 117.185108 
L 437.237955 117.185108 
" clip-path="url(#pafb0b01bbb)" style="fill: none; stroke: #66c2a4; stroke-width: 2; stroke-linecap: square"/>
   </g>
   <g id="line2d_17">
    <path d="M 348.465227 307.8 
L 392.851591 187.059881 
" clip-path="url(#pafb0b01bbb)" style="fill: none; stroke-dasharray: 3.7,1.6; stroke-dashoffset: 0; stroke: #66c2a4"/>
    <defs>
     <path id="m0f4209f695" d="M -3 3 
L 3 3 
L 3 -3 
L -3 -3 
z
" style="stroke: #000000; stroke-linejoin: miter"/>
    </defs>
    <g clip-path="url(#pafb0b01bbb)">
     <use xlink:href="#m0f4209f695" x="348.465227" y="307.8" style="fill: #66c2a4; stroke: #000000; stroke-linejoin: miter"/>
     <use xlink:href="#m0f4209f695" x="392.851591" y="187.059881" style="fill: #66c2a4; stroke: #000000; stroke-linejoin: miter"/>
    </g>
   </g>
   <g id="line2d_18">
    <path d="M 82.147045 307.8 
L 82.324591 307.750803 
L 83.034773 306.844539 
L 90.402909 297.081705 
L 93.154864 293.818894 
L 95.285409 291.611848 
L 97.149636 289.983323 
L 98.925091 288.717051 
L 100.789318 287.664475 
L 102.831091 286.77233 
L 105.316727 285.93679 
L 108.778864 285.025365 
L 114.637864 283.745242 
L 126.444636 281.425825 
L 126.533409 281.409008 
L 126.533409 307.8 
L 126.622182 307.774302 
L 126.977273 307.380817 
L 131.682227 301.037877 
L 135.765773 295.795335 
L 138.6065 292.50009 
L 141.003364 290.051993 
L 143.400227 287.922821 
L 146.063409 285.858924 
L 149.614318 283.409356 
L 155.384545 279.735135 
L 167.9015 272.076539 
L 170.919773 270.254184 
L 170.919773 307.8 
L 171.008545 307.742302 
L 171.541182 307.09863 
L 180.596 295.174891 
L 183.614273 291.668841 
L 186.455 288.715107 
L 189.650818 285.729438 
L 194.089455 281.918524 
L 202.611636 274.953925 
L 215.306136 264.769649 
L 215.306136 307.8 
L 215.394909 307.726672 
L 216.016318 306.953411 
L 224.627273 295.559874 
L 227.911864 291.651283 
L 231.107682 288.190199 
L 235.102455 284.213602 
L 241.671636 278.035072 
L 257.917045 263.132898 
L 259.6925 261.515572 
L 259.6925 307.8 
L 259.781273 307.717452 
L 260.491455 306.816858 
L 268.747318 295.856331 
L 272.298227 291.562435 
L 275.937909 287.515498 
L 280.909182 282.355353 
L 291.118045 272.156735 
L 304.078864 259.361185 
L 304.078864 307.8 
L 304.167636 307.71139 
L 304.966591 306.68481 
L 312.956136 296.053086 
L 316.773364 291.386709 
L 320.856909 286.760369 
L 326.982227 280.201477 
L 342.339909 264.179229 
L 348.465227 257.830546 
L 348.465227 307.8 
L 349.352955 306.675648 
L 357.3425 296.030861 
L 361.426045 291.01022 
L 366.042227 285.715891 
L 373.854227 277.155699 
L 395.869864 253.451906 
L 423.566955 223.934533 
L 437.237955 209.486587 
L 437.237955 209.486587 
" clip-path="url(#pafb0b01bbb)" style="fill: none; stroke: #2ca25f; stroke-width: 2; stroke-linecap: square"/>
   </g>
   <g id="line2d_19">
    <path d="M 348.465227 307.8 
L 392.851591 273.344634 
" clip-path="url(#pafb0b01bbb)" style="fill: none; stroke-dasharray: 3.7,1.6; stroke-dashoffset: 0; stroke: #2ca25f"/>
    <defs>
     <path id="m5dbc736974" d="M -3 3 
L 3 3 
L 3 -3 
L -3 -3 
z
" style="stroke: #000000; stroke-linejoin: miter"/>
    </defs>
    <g clip-path="url(#pafb0b01bbb)">
     <use xlink:href="#m5dbc736974" x="348.465227" y="307.8" style="fill: #2ca25f; stroke: #000000; stroke-linejoin: miter"/>
     <use xlink:href="#m5dbc736974" x="392.851591" y="273.344634" style="fill: #2ca25f; stroke: #000000; stroke-linejoin: miter"/>
    </g>
   </g>
   <g id="line2d_20">
    <path d="M 82.147045 307.8 
L 82.413364 307.712504 
L 84.277591 306.211369 
L 90.580455 301.212615 
L 93.865045 298.8818 
L 96.350682 297.377535 
L 98.658773 296.239803 
L 100.966864 295.348469 
L 103.718818 294.537046 
L 107.3585 293.714485 
L 113.572591 292.571232 
L 126.533409 290.421595 
L 126.533409 307.8 
L 126.622182 307.780831 
L 127.154818 307.401204 
L 136.6535 299.910973 
L 139.849318 297.734546 
L 142.778818 296.006219 
L 146.063409 294.335743 
L 150.590818 292.303982 
L 159.468091 288.612031 
L 170.919773 283.968957 
L 170.919773 307.8 
L 171.008545 307.762024 
L 171.718727 307.229312 
L 180.418455 300.318506 
L 184.058136 297.741645 
L 187.609045 295.504699 
L 192.047682 292.989131 
L 200.126 288.712524 
L 215.306136 280.86965 
L 215.306136 307.8 
L 215.394909 307.753088 
L 216.282636 307.069612 
L 224.5385 300.488691 
L 228.622045 297.544311 
L 232.794364 294.822086 
L 239.008455 291.070123 
L 254.898773 281.819819 
L 259.6925 279.050752 
L 259.6925 307.8 
L 259.781273 307.74789 
L 260.757773 306.987264 
L 269.013636 300.399711 
L 273.3635 297.235774 
L 278.246 293.974643 
L 287.0345 288.424599 
L 304.078864 277.853693 
L 304.078864 307.8 
L 304.167636 307.7445 
L 305.321682 306.835267 
L 313.311227 300.450046 
L 318.016182 296.99453 
L 323.697636 293.122644 
L 336.125818 284.997175 
L 348.465227 277.00613 
L 348.465227 307.8 
L 349.5305 306.974777 
L 357.875136 300.299759 
L 362.846409 296.631382 
L 369.593136 291.966141 
L 388.057864 279.574797 
L 424.632227 255.275927 
L 437.237955 246.963682 
L 437.237955 246.963682 
" clip-path="url(#pafb0b01bbb)" style="fill: none; stroke: #006d2c; stroke-width: 2; stroke-linecap: square"/>
   </g>
   <g id="line2d_21">
    <path d="M 348.465227 307.8 
L 392.851591 295.920014 
" clip-path="url(#pafb0b01bbb)" style="fill: none; stroke-dasharray: 3.7,1.6; stroke-dashoffset: 0; stroke: #006d2c"/>
    <defs>
     <path id="mc7b0f64e5d" d="M -3 3 
L 3 3 
L 3 -3 
L -3 -3 
z
" style="stroke: #000000; stroke-linejoin: miter"/>
    </defs>
    <g clip-path="url(#pafb0b01bbb)">
     <use xlink:href="#mc7b0f64e5d" x="348.465227" y="307.8" style="fill: #006d2c; stroke: #000000; stroke-linejoin: miter"/>
     <use xlink:href="#mc7b0f64e5d" x="392.851591" y="295.920014" style="fill: #006d2c; stroke: #000000; stroke-linejoin: miter"/>
    </g>
   </g>
   <g id="patch_3">
    <path d="M 64.3925 320.4 
L 64.3925 43.2 
" style="fill: none; stroke: #000000; stroke-width: 0.8; stroke-linejoin: miter; stroke-linecap: square"/>
   </g>
   <g id="patch_4">
    <path d="M 454.9925 320.4 
L 454.9925 43.2 
" style="fill: none; stroke: #000000; stroke-width: 0.8; stroke-linejoin: miter; stroke-linecap: square"/>
   </g>
   <g id="patch_5">
    <path d="M 64.3925 320.4 
L 454.9925 320.4 
" style="fill: none; stroke: #000000; stroke-width: 0.8; stroke-linejoin: miter; stroke-linecap: square"/>
   </g>
   <g id="patch_6">
    <path d="M 64.3925 43.2 
L 454.9925 43.2 
" style="fill: none; stroke: #000000; stroke-width: 0.8; stroke-linejoin: miter; stroke-linecap: square"/>
   </g>
   <g id="legend_1">
    <g id="patch_7">
     <path d="M 71.3925 168.625 
L 243.162813 168.625 
Q 245.162813 168.625 245.162813 166.625 
L 245.162813 50.2 
Q 245.162813 48.2 243.162813 48.2 
L 71.3925 48.2 
Q 69.3925 48.2 69.3925 50.2 
L 69.3925 166.625 
Q 69.3925 168.625 71.3925 168.625 
z
" style="fill: #ffffff; opacity: 0.8; stroke: #cccccc; stroke-linejoin: miter"/>
    </g>
    <g id="line2d_22">
     <path d="M 73.3925 56.298437 
L 93.3925 56.298437 
" style="fill: none; stroke: #000000; stroke-width: 2; stroke-linecap: square"/>
    </g>
    <g id="line2d_23"/>
    <g id="text_16">
     <!-- normal - 20 mg PO -->
     <g transform="translate(101.3925 59.798437) scale(0.1 -0.1)">
      <defs>
       <path id="DejaVuSans-6e" d="M 3513 2113 
L 3513 0 
L 2938 0 
L 2938 2094 
Q 2938 2591 2744 2837 
Q 2550 3084 2163 3084 
Q 1697 3084 1428 2787 
Q 1159 2491 1159 1978 
L 1159 0 
L 581 0 
L 581 3500 
L 1159 3500 
L 1159 2956 
Q 1366 3272 1645 3428 
Q 1925 3584 2291 3584 
Q 2894 3584 3203 3211 
Q 3513 2838 3513 2113 
z
" transform="scale(0.015625)"/>
       <path id="DejaVuSans-6f" d="M 1959 3097 
Q 1497 3097 1228 2736 
Q 959 2375 959 1747 
Q 959 1119 1226 758 
Q 1494 397 1959 397 
Q 2419 397 2687 759 
Q 2956 1122 2956 1747 
Q 2956 2369 2687 2733 
Q 2419 3097 1959 3097 
z
M 1959 3584 
Q 2709 3584 3137 3096 
Q 3566 2609 3566 1747 
Q 3566 888 3137 398 
Q 2709 -91 1959 -91 
Q 1206 -91 779 398 
Q 353 888 353 1747 
Q 353 2609 779 3096 
Q 1206 3584 1959 3584 
z
" transform="scale(0.015625)"/>
       <path id="DejaVuSans-72" d="M 2631 2963 
Q 2534 3019 2420 3045 
Q 2306 3072 2169 3072 
Q 1681 3072 1420 2755 
Q 1159 2438 1159 1844 
L 1159 0 
L 581 0 
L 581 3500 
L 1159 3500 
L 1159 2956 
Q 1341 3275 1631 3429 
Q 1922 3584 2338 3584 
Q 2397 3584 2469 3576 
Q 2541 3569 2628 3553 
L 2631 2963 
z
" transform="scale(0.015625)"/>
       <path id="DejaVuSans-6d" d="M 3328 2828 
Q 3544 3216 3844 3400 
Q 4144 3584 4550 3584 
Q 5097 3584 5394 3201 
Q 5691 2819 5691 2113 
L 5691 0 
L 5113 0 
L 5113 2094 
Q 5113 2597 4934 2840 
Q 4756 3084 4391 3084 
Q 3944 3084 3684 2787 
Q 3425 2491 3425 1978 
L 3425 0 
L 2847 0 
L 2847 2094 
Q 2847 2600 2669 2842 
Q 2491 3084 2119 3084 
Q 1678 3084 1418 2786 
Q 1159 2488 1159 1978 
L 1159 0 
L 581 0 
L 581 3500 
L 1159 3500 
L 1159 2956 
Q 1356 3278 1631 3431 
Q 1906 3584 2284 3584 
Q 2666 3584 2933 3390 
Q 3200 3197 3328 2828 
z
" transform="scale(0.015625)"/>
       <path id="DejaVuSans-61" d="M 2194 1759 
Q 1497 1759 1228 1600 
Q 959 1441 959 1056 
Q 959 750 1161 570 
Q 1363 391 1709 391 
Q 2188 391 2477 730 
Q 2766 1069 2766 1631 
L 2766 1759 
L 2194 1759 
z
M 3341 1997 
L 3341 0 
L 2766 0 
L 2766 531 
Q 2569 213 2275 61 
Q 1981 -91 1556 -91 
Q 1019 -91 701 211 
Q 384 513 384 1019 
Q 384 1609 779 1909 
Q 1175 2209 1959 2209 
L 2766 2209 
L 2766 2266 
Q 2766 2663 2505 2880 
Q 2244 3097 1772 3097 
Q 1472 3097 1187 3025 
Q 903 2953 641 2809 
L 641 3341 
Q 956 3463 1253 3523 
Q 1550 3584 1831 3584 
Q 2591 3584 2966 3190 
Q 3341 2797 3341 1997 
z
" transform="scale(0.015625)"/>
       <path id="DejaVuSans-6c" d="M 603 4863 
L 1178 4863 
L 1178 0 
L 603 0 
L 603 4863 
z
" transform="scale(0.015625)"/>
       <path id="DejaVuSans-20" transform="scale(0.015625)"/>
       <path id="DejaVuSans-2d" d="M 313 2009 
L 1997 2009 
L 1997 1497 
L 313 1497 
L 313 2009 
z
" transform="scale(0.015625)"/>
       <path id="DejaVuSans-67" d="M 2906 1791 
Q 2906 2416 2648 2759 
Q 2391 3103 1925 3103 
Q 1463 3103 1205 2759 
Q 947 2416 947 1791 
Q 947 1169 1205 825 
Q 1463 481 1925 481 
Q 2391 481 2648 825 
Q 2906 1169 2906 1791 
z
M 3481 434 
Q 3481 -459 3084 -895 
Q 2688 -1331 1869 -1331 
Q 1566 -1331 1297 -1286 
Q 1028 -1241 775 -1147 
L 775 -588 
Q 1028 -725 1275 -790 
Q 1522 -856 1778 -856 
Q 2344 -856 2625 -561 
Q 2906 -266 2906 331 
L 2906 616 
Q 2728 306 2450 153 
Q 2172 0 1784 0 
Q 1141 0 747 490 
Q 353 981 353 1791 
Q 353 2603 747 3093 
Q 1141 3584 1784 3584 
Q 2172 3584 2450 3431 
Q 2728 3278 2906 2969 
L 2906 3500 
L 3481 3500 
L 3481 434 
z
" transform="scale(0.015625)"/>
       <path id="DejaVuSans-50" d="M 1259 4147 
L 1259 2394 
L 2053 2394 
Q 2494 2394 2734 2622 
Q 2975 2850 2975 3272 
Q 2975 3691 2734 3919 
Q 2494 4147 2053 4147 
L 1259 4147 
z
M 628 4666 
L 2053 4666 
Q 2838 4666 3239 4311 
Q 3641 3956 3641 3272 
Q 3641 2581 3239 2228 
Q 2838 1875 2053 1875 
L 1259 1875 
L 1259 0 
L 628 0 
L 628 4666 
z
" transform="scale(0.015625)"/>
       <path id="DejaVuSans-4f" d="M 2522 4238 
Q 1834 4238 1429 3725 
Q 1025 3213 1025 2328 
Q 1025 1447 1429 934 
Q 1834 422 2522 422 
Q 3209 422 3611 934 
Q 4013 1447 4013 2328 
Q 4013 3213 3611 3725 
Q 3209 4238 2522 4238 
z
M 2522 4750 
Q 3503 4750 4090 4092 
Q 4678 3434 4678 2328 
Q 4678 1225 4090 567 
Q 3503 -91 2522 -91 
Q 1538 -91 948 565 
Q 359 1222 359 2328 
Q 359 3434 948 4092 
Q 1538 4750 2522 4750 
z
" transform="scale(0.015625)"/>
      </defs>
      <use xlink:href="#DejaVuSans-6e"/>
      <use xlink:href="#DejaVuSans-6f" transform="translate(63.378906 0)"/>
      <use xlink:href="#DejaVuSans-72" transform="translate(124.560547 0)"/>
      <use xlink:href="#DejaVuSans-6d" transform="translate(163.923828 0)"/>
      <use xlink:href="#DejaVuSans-61" transform="translate(261.335938 0)"/>
      <use xlink:href="#DejaVuSans-6c" transform="translate(322.615234 0)"/>
      <use xlink:href="#DejaVuSans-20" transform="translate(350.398438 0)"/>
      <use xlink:href="#DejaVuSans-2d" transform="translate(382.185547 0)"/>
      <use xlink:href="#DejaVuSans-20" transform="translate(418.269531 0)"/>
      <use xlink:href="#DejaVuSans-32" transform="translate(450.056641 0)"/>
      <use xlink:href="#DejaVuSans-30" transform="translate(513.679688 0)"/>
      <use xlink:href="#DejaVuSans-20" transform="translate(577.302734 0)"/>
      <use xlink:href="#DejaVuSans-6d" transform="translate(609.089844 0)"/>
      <use xlink:href="#DejaVuSans-67" transform="translate(706.501953 0)"/>
      <use xlink:href="#DejaVuSans-20" transform="translate(769.978516 0)"/>
      <use xlink:href="#DejaVuSans-50" transform="translate(801.765625 0)"/>
      <use xlink:href="#DejaVuSans-4f" transform="translate(862.068359 0)"/>
     </g>
    </g>
    <g id="line2d_24">
     <path d="M 73.3925 70.976562 
L 93.3925 70.976562 
" style="fill: none; stroke-dasharray: 3.7,1.6; stroke-dashoffset: 0; stroke: #000000"/>
    </g>
    <g id="line2d_25">
     <g>
      <use xlink:href="#mfed1dd48ab" x="83.3925" y="70.976562" style="stroke: #000000; stroke-linejoin: miter"/>
     </g>
    </g>
    <g id="text_17">
     <!-- normal - 20 mg PO (n=3) -->
     <g transform="translate(101.3925 74.476562) scale(0.1 -0.1)">
      <defs>
       <path id="DejaVuSans-28" d="M 1984 4856 
Q 1566 4138 1362 3434 
Q 1159 2731 1159 2009 
Q 1159 1288 1364 580 
Q 1569 -128 1984 -844 
L 1484 -844 
Q 1016 -109 783 600 
Q 550 1309 550 2009 
Q 550 2706 781 3412 
Q 1013 4119 1484 4856 
L 1984 4856 
z
" transform="scale(0.015625)"/>
       <path id="DejaVuSans-3d" d="M 678 2906 
L 4684 2906 
L 4684 2381 
L 678 2381 
L 678 2906 
z
M 678 1631 
L 4684 1631 
L 4684 1100 
L 678 1100 
L 678 1631 
z
" transform="scale(0.015625)"/>
       <path id="DejaVuSans-33" d="M 2597 2516 
Q 3050 2419 3304 2112 
Q 3559 1806 3559 1356 
Q 3559 666 3084 287 
Q 2609 -91 1734 -91 
Q 1441 -91 1130 -33 
Q 819 25 488 141 
L 488 750 
Q 750 597 1062 519 
Q 1375 441 1716 441 
Q 2309 441 2620 675 
Q 2931 909 2931 1356 
Q 2931 1769 2642 2001 
Q 2353 2234 1838 2234 
L 1294 2234 
L 1294 2753 
L 1863 2753 
Q 2328 2753 2575 2939 
Q 2822 3125 2822 3475 
Q 2822 3834 2567 4026 
Q 2313 4219 1838 4219 
Q 1578 4219 1281 4162 
Q 984 4106 628 3988 
L 628 4550 
Q 988 4650 1302 4700 
Q 1616 4750 1894 4750 
Q 2613 4750 3031 4423 
Q 3450 4097 3450 3541 
Q 3450 3153 3228 2886 
Q 3006 2619 2597 2516 
z
" transform="scale(0.015625)"/>
       <path id="DejaVuSans-29" d="M 513 4856 
L 1013 4856 
Q 1481 4119 1714 3412 
Q 1947 2706 1947 2009 
Q 1947 1309 1714 600 
Q 1481 -109 1013 -844 
L 513 -844 
Q 928 -128 1133 580 
Q 1338 1288 1338 2009 
Q 1338 2731 1133 3434 
Q 928 4138 513 4856 
z
" transform="scale(0.015625)"/>
      </defs>
      <use xlink:href="#DejaVuSans-6e"/>
      <use xlink:href="#DejaVuSans-6f" transform="translate(63.378906 0)"/>
      <use xlink:href="#DejaVuSans-72" transform="translate(124.560547 0)"/>
      <use xlink:href="#DejaVuSans-6d" transform="translate(163.923828 0)"/>
      <use xlink:href="#DejaVuSans-61" transform="translate(261.335938 0)"/>
      <use xlink:href="#DejaVuSans-6c" transform="translate(322.615234 0)"/>
      <use xlink:href="#DejaVuSans-20" transform="translate(350.398438 0)"/>
      <use xlink:href="#DejaVuSans-2d" transform="translate(382.185547 0)"/>
      <use xlink:href="#DejaVuSans-20" transform="translate(418.269531 0)"/>
      <use xlink:href="#DejaVuSans-32" transform="translate(450.056641 0)"/>
      <use xlink:href="#DejaVuSans-30" transform="translate(513.679688 0)"/>
      <use xlink:href="#DejaVuSans-20" transform="translate(577.302734 0)"/>
      <use xlink:href="#DejaVuSans-6d" transform="translate(609.089844 0)"/>
      <use xlink:href="#DejaVuSans-67" transform="translate(706.501953 0)"/>
      <use xlink:href="#DejaVuSans-20" transform="translate(769.978516 0)"/>
      <use xlink:href="#DejaVuSans-50" transform="translate(801.765625 0)"/>
      <use xlink:href="#DejaVuSans-4f" transform="translate(862.068359 0)"/>
      <use xlink:href="#DejaVuSans-20" transform="translate(940.779297 0)"/>
      <use xlink:href="#DejaVuSans-28" transform="translate(972.566406 0)"/>
      <use xlink:href="#DejaVuSans-6e" transform="translate(1011.580078 0)"/>
      <use xlink:href="#DejaVuSans-3d" transform="translate(1074.958984 0)"/>
      <use xlink:href="#DejaVuSans-33" transform="translate(1158.748047 0)"/>
      <use xlink:href="#DejaVuSans-29" transform="translate(1222.371094 0)"/>
     </g>
    </g>
    <g id="line2d_26">
     <path d="M 73.3925 85.654687 
L 93.3925 85.654687 
" style="fill: none; stroke: #66c2a4; stroke-width: 2; stroke-linecap: square"/>
    </g>
    <g id="line2d_27"/>
    <g id="text_18">
     <!-- mild - 20 mg PO -->
     <g transform="translate(101.3925 89.154687) scale(0.1 -0.1)">
      <defs>
       <path id="DejaVuSans-69" d="M 603 3500 
L 1178 3500 
L 1178 0 
L 603 0 
L 603 3500 
z
M 603 4863 
L 1178 4863 
L 1178 4134 
L 603 4134 
L 603 4863 
z
" transform="scale(0.015625)"/>
       <path id="DejaVuSans-64" d="M 2906 2969 
L 2906 4863 
L 3481 4863 
L 3481 0 
L 2906 0 
L 2906 525 
Q 2725 213 2448 61 
Q 2172 -91 1784 -91 
Q 1150 -91 751 415 
Q 353 922 353 1747 
Q 353 2572 751 3078 
Q 1150 3584 1784 3584 
Q 2172 3584 2448 3432 
Q 2725 3281 2906 2969 
z
M 947 1747 
Q 947 1113 1208 752 
Q 1469 391 1925 391 
Q 2381 391 2643 752 
Q 2906 1113 2906 1747 
Q 2906 2381 2643 2742 
Q 2381 3103 1925 3103 
Q 1469 3103 1208 2742 
Q 947 2381 947 1747 
z
" transform="scale(0.015625)"/>
      </defs>
      <use xlink:href="#DejaVuSans-6d"/>
      <use xlink:href="#DejaVuSans-69" transform="translate(97.412109 0)"/>
      <use xlink:href="#DejaVuSans-6c" transform="translate(125.195312 0)"/>
      <use xlink:href="#DejaVuSans-64" transform="translate(152.978516 0)"/>
      <use xlink:href="#DejaVuSans-20" transform="translate(216.455078 0)"/>
      <use xlink:href="#DejaVuSans-2d" transform="translate(248.242188 0)"/>
      <use xlink:href="#DejaVuSans-20" transform="translate(284.326172 0)"/>
      <use xlink:href="#DejaVuSans-32" transform="translate(316.113281 0)"/>
      <use xlink:href="#DejaVuSans-30" transform="translate(379.736328 0)"/>
      <use xlink:href="#DejaVuSans-20" transform="translate(443.359375 0)"/>
      <use xlink:href="#DejaVuSans-6d" transform="translate(475.146484 0)"/>
      <use xlink:href="#DejaVuSans-67" transform="translate(572.558594 0)"/>
      <use xlink:href="#DejaVuSans-20" transform="translate(636.035156 0)"/>
      <use xlink:href="#DejaVuSans-50" transform="translate(667.822266 0)"/>
      <use xlink:href="#DejaVuSans-4f" transform="translate(728.125 0)"/>
     </g>
    </g>
    <g id="line2d_28">
     <path d="M 73.3925 100.332812 
L 93.3925 100.332812 
" style="fill: none; stroke-dasharray: 3.7,1.6; stroke-dashoffset: 0; stroke: #66c2a4"/>
    </g>
    <g id="line2d_29">
     <g>
      <use xlink:href="#m0f4209f695" x="83.3925" y="100.332812" style="fill: #66c2a4; stroke: #000000; stroke-linejoin: miter"/>
     </g>
    </g>
    <g id="text_19">
     <!-- mild - 20 mg PO (n=3) -->
     <g transform="translate(101.3925 103.832812) scale(0.1 -0.1)">
      <use xlink:href="#DejaVuSans-6d"/>
      <use xlink:href="#DejaVuSans-69" transform="translate(97.412109 0)"/>
      <use xlink:href="#DejaVuSans-6c" transform="translate(125.195312 0)"/>
      <use xlink:href="#DejaVuSans-64" transform="translate(152.978516 0)"/>
      <use xlink:href="#DejaVuSans-20" transform="translate(216.455078 0)"/>
      <use xlink:href="#DejaVuSans-2d" transform="translate(248.242188 0)"/>
      <use xlink:href="#DejaVuSans-20" transform="translate(284.326172 0)"/>
      <use xlink:href="#DejaVuSans-32" transform="translate(316.113281 0)"/>
      <use xlink:href="#DejaVuSans-30" transform="translate(379.736328 0)"/>
      <use xlink:href="#DejaVuSans-20" transform="translate(443.359375 0)"/>
      <use xlink:href="#DejaVuSans-6d" transform="translate(475.146484 0)"/>
      <use xlink:href="#DejaVuSans-67" transform="translate(572.558594 0)"/>
      <use xlink:href="#DejaVuSans-20" transform="translate(636.035156 0)"/>
      <use xlink:href="#DejaVuSans-50" transform="translate(667.822266 0)"/>
      <use xlink:href="#DejaVuSans-4f" transform="translate(728.125 0)"/>
      <use xlink:href="#DejaVuSans-20" transform="translate(806.835938 0)"/>
      <use xlink:href="#DejaVuSans-28" transform="translate(838.623047 0)"/>
      <use xlink:href="#DejaVuSans-6e" transform="translate(877.636719 0)"/>
      <use xlink:href="#DejaVuSans-3d" transform="translate(941.015625 0)"/>
      <use xlink:href="#DejaVuSans-33" transform="translate(1024.804688 0)"/>
      <use xlink:href="#DejaVuSans-29" transform="translate(1088.427734 0)"/>
     </g>
    </g>
    <g id="line2d_30">
     <path d="M 73.3925 115.010937 
L 93.3925 115.010937 
" style="fill: none; stroke: #2ca25f; stroke-width: 2; stroke-linecap: square"/>
    </g>
    <g id="line2d_31"/>
    <g id="text_20">
     <!-- moderate - 20 mg PO -->
     <g transform="translate(101.3925 118.510937) scale(0.1 -0.1)">
      <defs>
       <path id="DejaVuSans-65" d="M 3597 1894 
L 3597 1613 
L 953 1613 
Q 991 1019 1311 708 
Q 1631 397 2203 397 
Q 2534 397 2845 478 
Q 3156 559 3463 722 
L 3463 178 
Q 3153 47 2828 -22 
Q 2503 -91 2169 -91 
Q 1331 -91 842 396 
Q 353 884 353 1716 
Q 353 2575 817 3079 
Q 1281 3584 2069 3584 
Q 2775 3584 3186 3129 
Q 3597 2675 3597 1894 
z
M 3022 2063 
Q 3016 2534 2758 2815 
Q 2500 3097 2075 3097 
Q 1594 3097 1305 2825 
Q 1016 2553 972 2059 
L 3022 2063 
z
" transform="scale(0.015625)"/>
       <path id="DejaVuSans-74" d="M 1172 4494 
L 1172 3500 
L 2356 3500 
L 2356 3053 
L 1172 3053 
L 1172 1153 
Q 1172 725 1289 603 
Q 1406 481 1766 481 
L 2356 481 
L 2356 0 
L 1766 0 
Q 1100 0 847 248 
Q 594 497 594 1153 
L 594 3053 
L 172 3053 
L 172 3500 
L 594 3500 
L 594 4494 
L 1172 4494 
z
" transform="scale(0.015625)"/>
      </defs>
      <use xlink:href="#DejaVuSans-6d"/>
      <use xlink:href="#DejaVuSans-6f" transform="translate(97.412109 0)"/>
      <use xlink:href="#DejaVuSans-64" transform="translate(158.59375 0)"/>
      <use xlink:href="#DejaVuSans-65" transform="translate(222.070312 0)"/>
      <use xlink:href="#DejaVuSans-72" transform="translate(283.59375 0)"/>
      <use xlink:href="#DejaVuSans-61" transform="translate(324.707031 0)"/>
      <use xlink:href="#DejaVuSans-74" transform="translate(385.986328 0)"/>
      <use xlink:href="#DejaVuSans-65" transform="translate(425.195312 0)"/>
      <use xlink:href="#DejaVuSans-20" transform="translate(486.71875 0)"/>
      <use xlink:href="#DejaVuSans-2d" transform="translate(518.505859 0)"/>
      <use xlink:href="#DejaVuSans-20" transform="translate(554.589844 0)"/>
      <use xlink:href="#DejaVuSans-32" transform="translate(586.376953 0)"/>
      <use xlink:href="#DejaVuSans-30" transform="translate(650 0)"/>
      <use xlink:href="#DejaVuSans-20" transform="translate(713.623047 0)"/>
      <use xlink:href="#DejaVuSans-6d" transform="translate(745.410156 0)"/>
      <use xlink:href="#DejaVuSans-67" transform="translate(842.822266 0)"/>
      <use xlink:href="#DejaVuSans-20" transform="translate(906.298828 0)"/>
      <use xlink:href="#DejaVuSans-50" transform="translate(938.085938 0)"/>
      <use xlink:href="#DejaVuSans-4f" transform="translate(998.388672 0)"/>
     </g>
    </g>
    <g id="line2d_32">
     <path d="M 73.3925 129.689062 
L 93.3925 129.689062 
" style="fill: none; stroke-dasharray: 3.7,1.6; stroke-dashoffset: 0; stroke: #2ca25f"/>
    </g>
    <g id="line2d_33">
     <g>
      <use xlink:href="#m5dbc736974" x="83.3925" y="129.689062" style="fill: #2ca25f; stroke: #000000; stroke-linejoin: miter"/>
     </g>
    </g>
    <g id="text_21">
     <!-- moderate - 20 mg PO (n=6) -->
     <g transform="translate(101.3925 133.189062) scale(0.1 -0.1)">
      <use xlink:href="#DejaVuSans-6d"/>
      <use xlink:href="#DejaVuSans-6f" transform="translate(97.412109 0)"/>
      <use xlink:href="#DejaVuSans-64" transform="translate(158.59375 0)"/>
      <use xlink:href="#DejaVuSans-65" transform="translate(222.070312 0)"/>
      <use xlink:href="#DejaVuSans-72" transform="translate(283.59375 0)"/>
      <use xlink:href="#DejaVuSans-61" transform="translate(324.707031 0)"/>
      <use xlink:href="#DejaVuSans-74" transform="translate(385.986328 0)"/>
      <use xlink:href="#DejaVuSans-65" transform="translate(425.195312 0)"/>
      <use xlink:href="#DejaVuSans-20" transform="translate(486.71875 0)"/>
      <use xlink:href="#DejaVuSans-2d" transform="translate(518.505859 0)"/>
      <use xlink:href="#DejaVuSans-20" transform="translate(554.589844 0)"/>
      <use xlink:href="#DejaVuSans-32" transform="translate(586.376953 0)"/>
      <use xlink:href="#DejaVuSans-30" transform="translate(650 0)"/>
      <use xlink:href="#DejaVuSans-20" transform="translate(713.623047 0)"/>
      <use xlink:href="#DejaVuSans-6d" transform="translate(745.410156 0)"/>
      <use xlink:href="#DejaVuSans-67" transform="translate(842.822266 0)"/>
      <use xlink:href="#DejaVuSans-20" transform="translate(906.298828 0)"/>
      <use xlink:href="#DejaVuSans-50" transform="translate(938.085938 0)"/>
      <use xlink:href="#DejaVuSans-4f" transform="translate(998.388672 0)"/>
      <use xlink:href="#DejaVuSans-20" transform="translate(1077.099609 0)"/>
      <use xlink:href="#DejaVuSans-28" transform="translate(1108.886719 0)"/>
      <use xlink:href="#DejaVuSans-6e" transform="translate(1147.900391 0)"/>
      <use xlink:href="#DejaVuSans-3d" transform="translate(1211.279297 0)"/>
      <use xlink:href="#DejaVuSans-36" transform="translate(1295.068359 0)"/>
      <use xlink:href="#DejaVuSans-29" transform="translate(1358.691406 0)"/>
     </g>
    </g>
    <g id="line2d_34">
     <path d="M 73.3925 144.367187 
L 93.3925 144.367187 
" style="fill: none; stroke: #006d2c; stroke-width: 2; stroke-linecap: square"/>
    </g>
    <g id="line2d_35"/>
    <g id="text_22">
     <!-- severe - 20 mg PO -->
     <g transform="translate(101.3925 147.867187) scale(0.1 -0.1)">
      <defs>
       <path id="DejaVuSans-73" d="M 2834 3397 
L 2834 2853 
Q 2591 2978 2328 3040 
Q 2066 3103 1784 3103 
Q 1356 3103 1142 2972 
Q 928 2841 928 2578 
Q 928 2378 1081 2264 
Q 1234 2150 1697 2047 
L 1894 2003 
Q 2506 1872 2764 1633 
Q 3022 1394 3022 966 
Q 3022 478 2636 193 
Q 2250 -91 1575 -91 
Q 1294 -91 989 -36 
Q 684 19 347 128 
L 347 722 
Q 666 556 975 473 
Q 1284 391 1588 391 
Q 1994 391 2212 530 
Q 2431 669 2431 922 
Q 2431 1156 2273 1281 
Q 2116 1406 1581 1522 
L 1381 1569 
Q 847 1681 609 1914 
Q 372 2147 372 2553 
Q 372 3047 722 3315 
Q 1072 3584 1716 3584 
Q 2034 3584 2315 3537 
Q 2597 3491 2834 3397 
z
" transform="scale(0.015625)"/>
       <path id="DejaVuSans-76" d="M 191 3500 
L 800 3500 
L 1894 563 
L 2988 3500 
L 3597 3500 
L 2284 0 
L 1503 0 
L 191 3500 
z
" transform="scale(0.015625)"/>
      </defs>
      <use xlink:href="#DejaVuSans-73"/>
      <use xlink:href="#DejaVuSans-65" transform="translate(52.099609 0)"/>
      <use xlink:href="#DejaVuSans-76" transform="translate(113.623047 0)"/>
      <use xlink:href="#DejaVuSans-65" transform="translate(172.802734 0)"/>
      <use xlink:href="#DejaVuSans-72" transform="translate(234.326172 0)"/>
      <use xlink:href="#DejaVuSans-65" transform="translate(273.189453 0)"/>
      <use xlink:href="#DejaVuSans-20" transform="translate(334.712891 0)"/>
      <use xlink:href="#DejaVuSans-2d" transform="translate(366.5 0)"/>
      <use xlink:href="#DejaVuSans-20" transform="translate(402.583984 0)"/>
      <use xlink:href="#DejaVuSans-32" transform="translate(434.371094 0)"/>
      <use xlink:href="#DejaVuSans-30" transform="translate(497.994141 0)"/>
      <use xlink:href="#DejaVuSans-20" transform="translate(561.617188 0)"/>
      <use xlink:href="#DejaVuSans-6d" transform="translate(593.404297 0)"/>
      <use xlink:href="#DejaVuSans-67" transform="translate(690.816406 0)"/>
      <use xlink:href="#DejaVuSans-20" transform="translate(754.292969 0)"/>
      <use xlink:href="#DejaVuSans-50" transform="translate(786.080078 0)"/>
      <use xlink:href="#DejaVuSans-4f" transform="translate(846.382812 0)"/>
     </g>
    </g>
    <g id="line2d_36">
     <path d="M 73.3925 159.045312 
L 93.3925 159.045312 
" style="fill: none; stroke-dasharray: 3.7,1.6; stroke-dashoffset: 0; stroke: #006d2c"/>
    </g>
    <g id="line2d_37">
     <g>
      <use xlink:href="#mc7b0f64e5d" x="83.3925" y="159.045312" style="fill: #006d2c; stroke: #000000; stroke-linejoin: miter"/>
     </g>
    </g>
    <g id="text_23">
     <!-- severe - 20 mg PO (n=5) -->
     <g transform="translate(101.3925 162.545312) scale(0.1 -0.1)">
      <use xlink:href="#DejaVuSans-73"/>
      <use xlink:href="#DejaVuSans-65" transform="translate(52.099609 0)"/>
      <use xlink:href="#DejaVuSans-76" transform="translate(113.623047 0)"/>
      <use xlink:href="#DejaVuSans-65" transform="translate(172.802734 0)"/>
      <use xlink:href="#DejaVuSans-72" transform="translate(234.326172 0)"/>
      <use xlink:href="#DejaVuSans-65" transform="translate(273.189453 0)"/>
      <use xlink:href="#DejaVuSans-20" transform="translate(334.712891 0)"/>
      <use xlink:href="#DejaVuSans-2d" transform="translate(366.5 0)"/>
      <use xlink:href="#DejaVuSans-20" transform="translate(402.583984 0)"/>
      <use xlink:href="#DejaVuSans-32" transform="translate(434.371094 0)"/>
      <use xlink:href="#DejaVuSans-30" transform="translate(497.994141 0)"/>
      <use xlink:href="#DejaVuSans-20" transform="translate(561.617188 0)"/>
      <use xlink:href="#DejaVuSans-6d" transform="translate(593.404297 0)"/>
      <use xlink:href="#DejaVuSans-67" transform="translate(690.816406 0)"/>
      <use xlink:href="#DejaVuSans-20" transform="translate(754.292969 0)"/>
      <use xlink:href="#DejaVuSans-50" transform="translate(786.080078 0)"/>
      <use xlink:href="#DejaVuSans-4f" transform="translate(846.382812 0)"/>
      <use xlink:href="#DejaVuSans-20" transform="translate(925.09375 0)"/>
      <use xlink:href="#DejaVuSans-28" transform="translate(956.880859 0)"/>
      <use xlink:href="#DejaVuSans-6e" transform="translate(995.894531 0)"/>
      <use xlink:href="#DejaVuSans-3d" transform="translate(1059.273438 0)"/>
      <use xlink:href="#DejaVuSans-35" transform="translate(1143.0625 0)"/>
      <use xlink:href="#DejaVuSans-29" transform="translate(1206.685547 0)"/>
     </g>
    </g>
   </g>
  </g>
  <g id="text_24">
   <!-- FDAMB102007 (T2DM) -->
   <g transform="translate(126.545625 22.396875) scale(0.2 -0.2)">
    <defs>
     <path id="DejaVuSans-Bold-46" d="M 588 4666 
L 3834 4666 
L 3834 3756 
L 1791 3756 
L 1791 2888 
L 3713 2888 
L 3713 1978 
L 1791 1978 
L 1791 0 
L 588 0 
L 588 4666 
z
" transform="scale(0.015625)"/>
     <path id="DejaVuSans-Bold-44" d="M 1791 3756 
L 1791 909 
L 2222 909 
Q 2959 909 3348 1275 
Q 3738 1641 3738 2338 
Q 3738 3031 3350 3393 
Q 2963 3756 2222 3756 
L 1791 3756 
z
M 588 4666 
L 1856 4666 
Q 2919 4666 3439 4514 
Q 3959 4363 4331 4000 
Q 4659 3684 4818 3271 
Q 4978 2859 4978 2338 
Q 4978 1809 4818 1395 
Q 4659 981 4331 666 
Q 3956 303 3431 151 
Q 2906 0 1856 0 
L 588 0 
L 588 4666 
z
" transform="scale(0.015625)"/>
     <path id="DejaVuSans-Bold-41" d="M 3419 850 
L 1538 850 
L 1241 0 
L 31 0 
L 1759 4666 
L 3194 4666 
L 4922 0 
L 3713 0 
L 3419 850 
z
M 1838 1716 
L 3116 1716 
L 2478 3572 
L 1838 1716 
z
" transform="scale(0.015625)"/>
     <path id="DejaVuSans-Bold-4d" d="M 588 4666 
L 2119 4666 
L 3181 2169 
L 4250 4666 
L 5778 4666 
L 5778 0 
L 4641 0 
L 4641 3413 
L 3566 897 
L 2803 897 
L 1728 3413 
L 1728 0 
L 588 0 
L 588 4666 
z
" transform="scale(0.015625)"/>
     <path id="DejaVuSans-Bold-42" d="M 2456 2859 
Q 2741 2859 2887 2984 
Q 3034 3109 3034 3353 
Q 3034 3594 2887 3720 
Q 2741 3847 2456 3847 
L 1791 3847 
L 1791 2859 
L 2456 2859 
z
M 2497 819 
Q 2859 819 3042 972 
Q 3225 1125 3225 1434 
Q 3225 1738 3044 1889 
Q 2863 2041 2497 2041 
L 1791 2041 
L 1791 819 
L 2497 819 
z
M 3616 2497 
Q 4003 2384 4215 2081 
Q 4428 1778 4428 1338 
Q 4428 663 3972 331 
Q 3516 0 2584 0 
L 588 0 
L 588 4666 
L 2394 4666 
Q 3366 4666 3802 4372 
Q 4238 4078 4238 3431 
Q 4238 3091 4078 2852 
Q 3919 2613 3616 2497 
z
" transform="scale(0.015625)"/>
     <path id="DejaVuSans-Bold-31" d="M 750 831 
L 1813 831 
L 1813 3847 
L 722 3622 
L 722 4441 
L 1806 4666 
L 2950 4666 
L 2950 831 
L 4013 831 
L 4013 0 
L 750 0 
L 750 831 
z
" transform="scale(0.015625)"/>
     <path id="DejaVuSans-Bold-30" d="M 2944 2338 
Q 2944 3213 2780 3570 
Q 2616 3928 2228 3928 
Q 1841 3928 1675 3570 
Q 1509 3213 1509 2338 
Q 1509 1453 1675 1090 
Q 1841 728 2228 728 
Q 2613 728 2778 1090 
Q 2944 1453 2944 2338 
z
M 4147 2328 
Q 4147 1169 3647 539 
Q 3147 -91 2228 -91 
Q 1306 -91 806 539 
Q 306 1169 306 2328 
Q 306 3491 806 4120 
Q 1306 4750 2228 4750 
Q 3147 4750 3647 4120 
Q 4147 3491 4147 2328 
z
" transform="scale(0.015625)"/>
     <path id="DejaVuSans-Bold-32" d="M 1844 884 
L 3897 884 
L 3897 0 
L 506 0 
L 506 884 
L 2209 2388 
Q 2438 2594 2547 2791 
Q 2656 2988 2656 3200 
Q 2656 3528 2436 3728 
Q 2216 3928 1850 3928 
Q 1569 3928 1234 3808 
Q 900 3688 519 3450 
L 519 4475 
Q 925 4609 1322 4679 
Q 1719 4750 2100 4750 
Q 2938 4750 3402 4381 
Q 3866 4013 3866 3353 
Q 3866 2972 3669 2642 
Q 3472 2313 2841 1759 
L 1844 884 
z
" transform="scale(0.015625)"/>
     <path id="DejaVuSans-Bold-37" d="M 428 4666 
L 3944 4666 
L 3944 3988 
L 2125 0 
L 953 0 
L 2675 3781 
L 428 3781 
L 428 4666 
z
" transform="scale(0.015625)"/>
     <path id="DejaVuSans-Bold-28" d="M 2413 -844 
L 1484 -844 
Q 1006 -72 778 623 
Q 550 1319 550 2003 
Q 550 2688 779 3389 
Q 1009 4091 1484 4856 
L 2413 4856 
Q 2013 4116 1813 3408 
Q 1613 2700 1613 2009 
Q 1613 1319 1811 609 
Q 2009 -100 2413 -844 
z
" transform="scale(0.015625)"/>
     <path id="DejaVuSans-Bold-54" d="M 31 4666 
L 4331 4666 
L 4331 3756 
L 2784 3756 
L 2784 0 
L 1581 0 
L 1581 3756 
L 31 3756 
L 31 4666 
z
" transform="scale(0.015625)"/>
     <path id="DejaVuSans-Bold-29" d="M 513 -844 
Q 913 -100 1113 609 
Q 1313 1319 1313 2009 
Q 1313 2700 1113 3408 
Q 913 4116 513 4856 
L 1441 4856 
Q 1916 4091 2145 3389 
Q 2375 2688 2375 2003 
Q 2375 1319 2147 623 
Q 1919 -72 1441 -844 
L 513 -844 
z
" transform="scale(0.015625)"/>
    </defs>
    <use xlink:href="#DejaVuSans-Bold-46"/>
    <use xlink:href="#DejaVuSans-Bold-44" transform="translate(68.310547 0)"/>
    <use xlink:href="#DejaVuSans-Bold-41" transform="translate(151.318359 0)"/>
    <use xlink:href="#DejaVuSans-Bold-4d" transform="translate(228.710938 0)"/>
    <use xlink:href="#DejaVuSans-Bold-42" transform="translate(328.222656 0)"/>
    <use xlink:href="#DejaVuSans-Bold-31" transform="translate(404.443359 0)"/>
    <use xlink:href="#DejaVuSans-Bold-30" transform="translate(474.023438 0)"/>
    <use xlink:href="#DejaVuSans-Bold-32" transform="translate(543.603516 0)"/>
    <use xlink:href="#DejaVuSans-Bold-30" transform="translate(613.183594 0)"/>
    <use xlink:href="#DejaVuSans-Bold-30" transform="translate(682.763672 0)"/>
    <use xlink:href="#DejaVuSans-Bold-37" transform="translate(752.34375 0)"/>
    <use xlink:href="#DejaVuSans-Bold-20" transform="translate(821.923828 0)"/>
    <use xlink:href="#DejaVuSans-Bold-28" transform="translate(856.738281 0)"/>
    <use xlink:href="#DejaVuSans-Bold-54" transform="translate(902.441406 0)"/>
    <use xlink:href="#DejaVuSans-Bold-32" transform="translate(970.654297 0)"/>
    <use xlink:href="#DejaVuSans-Bold-44" transform="translate(1040.234375 0)"/>
    <use xlink:href="#DejaVuSans-Bold-4d" transform="translate(1123.242188 0)"/>
    <use xlink:href="#DejaVuSans-Bold-29" transform="translate(1222.753906 0)"/>
   </g>
  </g>
 </g>
 <defs>
  <clipPath id="pafb0b01bbb">
   <rect x="64.3925" y="43.2" width="390.6" height="277.2"/>
  </clipPath>
 </defs>
</svg>
