<?xml version="1.0" encoding="utf-8" standalone="no"?>
<!DOCTYPE svg PUBLIC "-//W3C//DTD SVG 1.1//EN"
  "http://www.w3.org/Graphics/SVG/1.1/DTD/svg11.dtd">
<svg xmlns:xlink="http://www.w3.org/1999/xlink" width="720pt" height="720pt" viewBox="0 0 720 720" xmlns="http://www.w3.org/2000/svg" version="1.1">
 <metadata>
  <rdf:RDF xmlns:dc="http://purl.org/dc/elements/1.1/" xmlns:cc="http://creativecommons.org/ns#" xmlns:rdf="http://www.w3.org/1999/02/22-rdf-syntax-ns#">
   <cc:Work>
    <dc:type rdf:resource="http://purl.org/dc/dcmitype/StillImage"/>
    <dc:date>2025-06-10T14:18:47.881226</dc:date>
    <dc:format>image/svg+xml</dc:format>
    <dc:creator>
     <cc:Agent>
      <dc:title>Matplotlib v3.9.1, https://matplotlib.org/</dc:title>
     </cc:Agent>
    </dc:creator>
   </cc:Work>
  </rdf:RDF>
 </metadata>
 <defs>
  <style type="text/css">*{stroke-linejoin: round; stroke-linecap: butt}</style>
 </defs>
 <g id="figure_1">
  <g id="patch_1">
   <path d="M 0 720 
L 720 720 
L 720 0 
L 0 0 
z
" style="fill: #ffffff"/>
  </g>
  <g id="axes_1">
   <g id="patch_2">
    <path d="M 90 338.4 
L 343.636364 338.4 
L 343.636364 86.4 
L 90 86.4 
z
" style="fill: #ffffff"/>
   </g>
   <g id="PolyCollection_1">
    <defs>
     <path id="m669a14481f" d="M 264.557533 -437.093433 
L 264.557533 -440.34096 
L 282.529994 -436.819484 
L 336.447379 -439.452037 
L 336.447379 -437.093433 
L 336.447379 -437.093433 
L 282.529994 -437.093433 
L 264.557533 -437.093433 
z
" style="stroke: #ff8c00; stroke-opacity: 0.4"/>
    </defs>
    <g clip-path="url(#p33844a2e7e)">
     <use xlink:href="#m669a14481f" x="0" y="720" style="fill: #ff8c00; fill-opacity: 0.4; stroke: #ff8c00; stroke-opacity: 0.4"/>
    </g>
   </g>
   <g id="matplotlib.axis_1">
    <g id="xtick_1">
     <g id="line2d_1">
      <defs>
       <path id="m7a9733fed3" d="M 0 0 
L 0 3.5 
" style="stroke: #000000; stroke-width: 0.8"/>
      </defs>
      <g>
       <use xlink:href="#m7a9733fed3" x="139.748772" y="338.4" style="stroke: #000000; stroke-width: 0.8"/>
      </g>
     </g>
    </g>
    <g id="xtick_2">
     <g id="line2d_2">
      <g>
       <use xlink:href="#m7a9733fed3" x="202.153152" y="338.4" style="stroke: #000000; stroke-width: 0.8"/>
      </g>
     </g>
    </g>
    <g id="xtick_3">
     <g id="line2d_3">
      <g>
       <use xlink:href="#m7a9733fed3" x="264.557533" y="338.4" style="stroke: #000000; stroke-width: 0.8"/>
      </g>
     </g>
    </g>
    <g id="xtick_4">
     <g id="line2d_4">
      <g>
       <use xlink:href="#m7a9733fed3" x="326.961913" y="338.4" style="stroke: #000000; stroke-width: 0.8"/>
      </g>
     </g>
    </g>
   </g>
   <g id="matplotlib.axis_2">
    <g id="ytick_1">
     <g id="line2d_5">
      <defs>
       <path id="m48a6ead7cb" d="M 0 0 
L -3.5 0 
" style="stroke: #000000; stroke-width: 0.8"/>
      </defs>
      <g>
       <use xlink:href="#m48a6ead7cb" x="90" y="313.070189" style="stroke: #000000; stroke-width: 0.8"/>
      </g>
     </g>
     <g id="text_1">
      <!-- −10 -->
      <g transform="translate(61.895313 316.869407) scale(0.1 -0.1)">
       <defs>
        <path id="DejaVuSans-2212" d="M 678 2272 
L 4684 2272 
L 4684 1741 
L 678 1741 
L 678 2272 
z
" transform="scale(0.015625)"/>
        <path id="DejaVuSans-31" d="M 794 531 
L 1825 531 
L 1825 4091 
L 703 3866 
L 703 4441 
L 1819 4666 
L 2450 4666 
L 2450 531 
L 3481 531 
L 3481 0 
L 794 0 
L 794 531 
z
" transform="scale(0.015625)"/>
        <path id="DejaVuSans-30" d="M 2034 4250 
Q 1547 4250 1301 3770 
Q 1056 3291 1056 2328 
Q 1056 1369 1301 889 
Q 1547 409 2034 409 
Q 2525 409 2770 889 
Q 3016 1369 3016 2328 
Q 3016 3291 2770 3770 
Q 2525 4250 2034 4250 
z
M 2034 4750 
Q 2819 4750 3233 4129 
Q 3647 3509 3647 2328 
Q 3647 1150 3233 529 
Q 2819 -91 2034 -91 
Q 1250 -91 836 529 
Q 422 1150 422 2328 
Q 422 3509 836 4129 
Q 1250 4750 2034 4750 
z
" transform="scale(0.015625)"/>
       </defs>
       <use xlink:href="#DejaVuSans-2212"/>
       <use xlink:href="#DejaVuSans-31" x="83.789062"/>
       <use xlink:href="#DejaVuSans-30" x="147.412109"/>
      </g>
     </g>
    </g>
    <g id="ytick_2">
     <g id="line2d_6">
      <g>
       <use xlink:href="#m48a6ead7cb" x="90" y="282.906567" style="stroke: #000000; stroke-width: 0.8"/>
      </g>
     </g>
     <g id="text_2">
      <!-- 0 -->
      <g transform="translate(76.6375 286.705786) scale(0.1 -0.1)">
       <use xlink:href="#DejaVuSans-30"/>
      </g>
     </g>
    </g>
    <g id="ytick_3">
     <g id="line2d_7">
      <g>
       <use xlink:href="#m48a6ead7cb" x="90" y="252.742946" style="stroke: #000000; stroke-width: 0.8"/>
      </g>
     </g>
     <g id="text_3">
      <!-- 10 -->
      <g transform="translate(70.275 256.542165) scale(0.1 -0.1)">
       <use xlink:href="#DejaVuSans-31"/>
       <use xlink:href="#DejaVuSans-30" x="63.623047"/>
      </g>
     </g>
    </g>
    <g id="ytick_4">
     <g id="line2d_8">
      <g>
       <use xlink:href="#m48a6ead7cb" x="90" y="222.579325" style="stroke: #000000; stroke-width: 0.8"/>
      </g>
     </g>
     <g id="text_4">
      <!-- 20 -->
      <g transform="translate(70.275 226.378543) scale(0.1 -0.1)">
       <defs>
        <path id="DejaVuSans-32" d="M 1228 531 
L 3431 531 
L 3431 0 
L 469 0 
L 469 531 
Q 828 903 1448 1529 
Q 2069 2156 2228 2338 
Q 2531 2678 2651 2914 
Q 2772 3150 2772 3378 
Q 2772 3750 2511 3984 
Q 2250 4219 1831 4219 
Q 1534 4219 1204 4116 
Q 875 4013 500 3803 
L 500 4441 
Q 881 4594 1212 4672 
Q 1544 4750 1819 4750 
Q 2544 4750 2975 4387 
Q 3406 4025 3406 3419 
Q 3406 3131 3298 2873 
Q 3191 2616 2906 2266 
Q 2828 2175 2409 1742 
Q 1991 1309 1228 531 
z
" transform="scale(0.015625)"/>
       </defs>
       <use xlink:href="#DejaVuSans-32"/>
       <use xlink:href="#DejaVuSans-30" x="63.623047"/>
      </g>
     </g>
    </g>
    <g id="ytick_5">
     <g id="line2d_9">
      <g>
       <use xlink:href="#m48a6ead7cb" x="90" y="192.415703" style="stroke: #000000; stroke-width: 0.8"/>
      </g>
     </g>
     <g id="text_5">
      <!-- 30 -->
      <g transform="translate(70.275 196.214922) scale(0.1 -0.1)">
       <defs>
        <path id="DejaVuSans-33" d="M 2597 2516 
Q 3050 2419 3304 2112 
Q 3559 1806 3559 1356 
Q 3559 666 3084 287 
Q 2609 -91 1734 -91 
Q 1441 -91 1130 -33 
Q 819 25 488 141 
L 488 750 
Q 750 597 1062 519 
Q 1375 441 1716 441 
Q 2309 441 2620 675 
Q 2931 909 2931 1356 
Q 2931 1769 2642 2001 
Q 2353 2234 1838 2234 
L 1294 2234 
L 1294 2753 
L 1863 2753 
Q 2328 2753 2575 2939 
Q 2822 3125 2822 3475 
Q 2822 3834 2567 4026 
Q 2313 4219 1838 4219 
Q 1578 4219 1281 4162 
Q 984 4106 628 3988 
L 628 4550 
Q 988 4650 1302 4700 
Q 1616 4750 1894 4750 
Q 2613 4750 3031 4423 
Q 3450 4097 3450 3541 
Q 3450 3153 3228 2886 
Q 3006 2619 2597 2516 
z
" transform="scale(0.015625)"/>
       </defs>
       <use xlink:href="#DejaVuSans-33"/>
       <use xlink:href="#DejaVuSans-30" x="63.623047"/>
      </g>
     </g>
    </g>
    <g id="ytick_6">
     <g id="line2d_10">
      <g>
       <use xlink:href="#m48a6ead7cb" x="90" y="162.252082" style="stroke: #000000; stroke-width: 0.8"/>
      </g>
     </g>
     <g id="text_6">
      <!-- 40 -->
      <g transform="translate(70.275 166.051301) scale(0.1 -0.1)">
       <defs>
        <path id="DejaVuSans-34" d="M 2419 4116 
L 825 1625 
L 2419 1625 
L 2419 4116 
z
M 2253 4666 
L 3047 4666 
L 3047 1625 
L 3713 1625 
L 3713 1100 
L 3047 1100 
L 3047 0 
L 2419 0 
L 2419 1100 
L 313 1100 
L 313 1709 
L 2253 4666 
z
" transform="scale(0.015625)"/>
       </defs>
       <use xlink:href="#DejaVuSans-34"/>
       <use xlink:href="#DejaVuSans-30" x="63.623047"/>
      </g>
     </g>
    </g>
    <g id="ytick_7">
     <g id="line2d_11">
      <g>
       <use xlink:href="#m48a6ead7cb" x="90" y="132.08846" style="stroke: #000000; stroke-width: 0.8"/>
      </g>
     </g>
     <g id="text_7">
      <!-- 50 -->
      <g transform="translate(70.275 135.887679) scale(0.1 -0.1)">
       <defs>
        <path id="DejaVuSans-35" d="M 691 4666 
L 3169 4666 
L 3169 4134 
L 1269 4134 
L 1269 2991 
Q 1406 3038 1543 3061 
Q 1681 3084 1819 3084 
Q 2600 3084 3056 2656 
Q 3513 2228 3513 1497 
Q 3513 744 3044 326 
Q 2575 -91 1722 -91 
Q 1428 -91 1123 -41 
Q 819 9 494 109 
L 494 744 
Q 775 591 1075 516 
Q 1375 441 1709 441 
Q 2250 441 2565 725 
Q 2881 1009 2881 1497 
Q 2881 1984 2565 2268 
Q 2250 2553 1709 2553 
Q 1456 2553 1204 2497 
Q 953 2441 691 2322 
L 691 4666 
z
" transform="scale(0.015625)"/>
       </defs>
       <use xlink:href="#DejaVuSans-35"/>
       <use xlink:href="#DejaVuSans-30" x="63.623047"/>
      </g>
     </g>
    </g>
    <g id="ytick_8">
     <g id="line2d_12">
      <g>
       <use xlink:href="#m48a6ead7cb" x="90" y="101.924839" style="stroke: #000000; stroke-width: 0.8"/>
      </g>
     </g>
     <g id="text_8">
      <!-- 60 -->
      <g transform="translate(70.275 105.724058) scale(0.1 -0.1)">
       <defs>
        <path id="DejaVuSans-36" d="M 2113 2584 
Q 1688 2584 1439 2293 
Q 1191 2003 1191 1497 
Q 1191 994 1439 701 
Q 1688 409 2113 409 
Q 2538 409 2786 701 
Q 3034 994 3034 1497 
Q 3034 2003 2786 2293 
Q 2538 2584 2113 2584 
z
M 3366 4563 
L 3366 3988 
Q 3128 4100 2886 4159 
Q 2644 4219 2406 4219 
Q 1781 4219 1451 3797 
Q 1122 3375 1075 2522 
Q 1259 2794 1537 2939 
Q 1816 3084 2150 3084 
Q 2853 3084 3261 2657 
Q 3669 2231 3669 1497 
Q 3669 778 3244 343 
Q 2819 -91 2113 -91 
Q 1303 -91 875 529 
Q 447 1150 447 2328 
Q 447 3434 972 4092 
Q 1497 4750 2381 4750 
Q 2619 4750 2861 4703 
Q 3103 4656 3366 4563 
z
" transform="scale(0.015625)"/>
       </defs>
       <use xlink:href="#DejaVuSans-36"/>
       <use xlink:href="#DejaVuSans-30" x="63.623047"/>
      </g>
     </g>
    </g>
    <g id="text_9">
     <!-- KI__UGE -->
     <g transform="translate(55.065938 236.93625) rotate(-90) scale(0.12 -0.12)">
      <defs>
       <path id="DejaVuSans-4b" d="M 628 4666 
L 1259 4666 
L 1259 2694 
L 3353 4666 
L 4166 4666 
L 1850 2491 
L 4331 0 
L 3500 0 
L 1259 2247 
L 1259 0 
L 628 0 
L 628 4666 
z
" transform="scale(0.015625)"/>
       <path id="DejaVuSans-49" d="M 628 4666 
L 1259 4666 
L 1259 0 
L 628 0 
L 628 4666 
z
" transform="scale(0.015625)"/>
       <path id="DejaVuSans-5f" d="M 3263 -1063 
L 3263 -1509 
L -63 -1509 
L -63 -1063 
L 3263 -1063 
z
" transform="scale(0.015625)"/>
       <path id="DejaVuSans-55" d="M 556 4666 
L 1191 4666 
L 1191 1831 
Q 1191 1081 1462 751 
Q 1734 422 2344 422 
Q 2950 422 3222 751 
Q 3494 1081 3494 1831 
L 3494 4666 
L 4128 4666 
L 4128 1753 
Q 4128 841 3676 375 
Q 3225 -91 2344 -91 
Q 1459 -91 1007 375 
Q 556 841 556 1753 
L 556 4666 
z
" transform="scale(0.015625)"/>
       <path id="DejaVuSans-47" d="M 3809 666 
L 3809 1919 
L 2778 1919 
L 2778 2438 
L 4434 2438 
L 4434 434 
Q 4069 175 3628 42 
Q 3188 -91 2688 -91 
Q 1594 -91 976 548 
Q 359 1188 359 2328 
Q 359 3472 976 4111 
Q 1594 4750 2688 4750 
Q 3144 4750 3555 4637 
Q 3966 4525 4313 4306 
L 4313 3634 
Q 3963 3931 3569 4081 
Q 3175 4231 2741 4231 
Q 1884 4231 1454 3753 
Q 1025 3275 1025 2328 
Q 1025 1384 1454 906 
Q 1884 428 2741 428 
Q 3075 428 3337 486 
Q 3600 544 3809 666 
z
" transform="scale(0.015625)"/>
       <path id="DejaVuSans-45" d="M 628 4666 
L 3578 4666 
L 3578 4134 
L 1259 4134 
L 1259 2753 
L 3481 2753 
L 3481 2222 
L 1259 2222 
L 1259 531 
L 3634 531 
L 3634 0 
L 628 0 
L 628 4666 
z
" transform="scale(0.015625)"/>
      </defs>
      <use xlink:href="#DejaVuSans-4b"/>
      <use xlink:href="#DejaVuSans-49" x="65.576172"/>
      <use xlink:href="#DejaVuSans-5f" x="95.068359"/>
      <use xlink:href="#DejaVuSans-5f" x="145.068359"/>
      <use xlink:href="#DejaVuSans-55" x="195.068359"/>
      <use xlink:href="#DejaVuSans-47" x="268.261719"/>
      <use xlink:href="#DejaVuSans-45" x="345.751953"/>
     </g>
    </g>
   </g>
   <g id="line2d_13">
    <path d="M 90 282.906567 
L 343.636364 282.906567 
" clip-path="url(#p33844a2e7e)" style="fill: none; stroke: #000000; stroke-width: 1.5; stroke-linecap: square"/>
   </g>
   <g id="line2d_14">
    <defs>
     <path id="ma79e3d7329" d="M 0 3 
C 0.795609 3 1.55874 2.683901 2.12132 2.12132 
C 2.683901 1.55874 3 0.795609 3 0 
C 3 -0.795609 2.683901 -1.55874 2.12132 -2.12132 
C 1.55874 -2.683901 0.795609 -3 0 -3 
C -0.795609 -3 -1.55874 -2.683901 -2.12132 -2.12132 
C -2.683901 -1.55874 -3 -0.795609 -3 0 
C -3 0.795609 -2.683901 1.55874 -2.12132 2.12132 
C -1.55874 2.683901 -0.795609 3 0 3 
z
" style="stroke: #ff8c00"/>
    </defs>
    <g clip-path="url(#p33844a2e7e)">
     <use xlink:href="#ma79e3d7329" x="264.557533" y="279.65904" style="fill: #ff8c00; stroke: #ff8c00"/>
     <use xlink:href="#ma79e3d7329" x="282.529994" y="283.180516" style="fill: #ff8c00; stroke: #ff8c00"/>
     <use xlink:href="#ma79e3d7329" x="336.447379" y="280.547963" style="fill: #ff8c00; stroke: #ff8c00"/>
    </g>
   </g>
   <g id="line2d_15">
    <path d="M 102.805379 282.906567 
L 102.905175 282.799282 
L 103.1002 281.179994 
L 105.789207 256.67802 
L 106.627324 251.394685 
L 107.186068 249.092441 
L 107.558564 248.219273 
L 107.837936 247.941809 
L 108.412623 247.922931 
L 121.526693 247.922535 
L 121.526693 282.906567 
L 121.635244 282.71692 
L 121.901631 280.361371 
L 124.295134 258.173948 
L 125.241123 251.62289 
L 125.903316 248.433707 
L 126.376311 247.00656 
L 126.754707 246.402433 
L 127.0947 246.258224 
L 139.499155 246.258415 
L 139.499155 282.906567 
L 139.605926 282.694229 
L 139.892336 280.135224 
L 142.243556 258.24206 
L 143.242196 251.160552 
L 143.991177 247.400328 
L 144.573717 245.538741 
L 145.073037 244.674457 
L 145.405917 244.441729 
L 145.961919 244.418141 
L 157.471616 244.418359 
L 157.471616 282.906567 
L 157.580972 282.643448 
L 157.911879 279.627099 
L 160.153163 258.645081 
L 161.207993 250.944619 
L 161.975142 246.83702 
L 162.646398 244.396334 
L 163.22176 243.109768 
L 163.701228 242.522334 
L 164.180697 242.291134 
L 165.21156 242.279095 
L 175.444078 242.278894 
L 175.444078 282.906567 
L 175.551271 282.623396 
L 175.879763 279.626122 
L 178.10144 258.748172 
L 179.181508 250.713609 
L 180.045562 245.939199 
L 180.801609 243.052225 
L 181.44965 241.420611 
L 182.09769 240.394214 
L 182.745731 239.803285 
L 183.393772 239.507358 
L 184.149819 239.400837 
L 193.416539 239.400117 
L 193.416539 282.906567 
L 193.526658 282.567103 
L 193.8898 279.209466 
L 196.023851 259.078748 
L 197.073244 251.052485 
L 197.912759 246.061405 
L 198.647334 242.80236 
L 199.381909 240.446641 
L 200.116484 238.776328 
L 200.955998 237.428639 
L 201.900452 236.339177 
L 203.159723 235.250802 
L 204.943691 234.033364 
L 207.357294 232.672455 
L 209.980777 231.449648 
L 211.389001 230.895057 
L 211.389001 282.906567 
L 211.496527 282.539279 
L 211.844563 279.329373 
L 214.089206 258.203478 
L 215.208143 249.780754 
L 216.127996 244.474916 
L 216.967924 240.882163 
L 217.807853 238.226782 
L 218.767772 235.947236 
L 219.96767 233.722151 
L 221.647528 231.127507 
L 224.167315 227.672082 
L 227.287051 223.760802 
L 229.361462 221.347728 
L 229.361462 282.906567 
L 229.46673 282.509798 
L 229.836235 279.086162 
L 232.086125 257.908054 
L 233.212101 249.390505 
L 234.133354 243.958308 
L 235.054606 239.834048 
L 235.975859 236.683459 
L 237.101835 233.630121 
L 238.637256 230.148093 
L 241.09393 225.178735 
L 244.67658 218.445923 
L 247.333924 213.735215 
L 247.333924 282.906567 
L 247.442717 282.447626 
L 247.835558 278.775868 
L 250.033966 258.038165 
L 251.189586 249.198107 
L 252.180117 243.260358 
L 253.170648 238.701302 
L 254.243724 234.839454 
L 255.646977 230.689802 
L 257.793128 225.118373 
L 261.384524 216.460492 
L 265.306385 207.518257 
L 265.306385 282.906567 
L 265.412509 282.436498 
L 265.813648 278.683139 
L 267.944034 258.504509 
L 269.18024 248.936013 
L 270.22626 242.589154 
L 271.27228 237.653 
L 272.508486 232.992258 
L 274.220156 227.526832 
L 277.168031 218.982339 
L 281.542298 206.989327 
L 286.013154 195.353071 
L 290.389471 184.565078 
L 294.668542 174.598445 
L 298.56608 166.025734 
L 302.194592 158.481548 
L 303.975597 154.933747 
L 309.684277 144.256046 
L 314.510039 136.062286 
L 317.106751 131.971787 
L 319.703464 128.105665 
L 322.300177 124.465086 
L 326.537573 119.011599 
L 330.774969 114.166733 
L 335.012365 109.93536 
L 339.249761 106.322261 
L 343.487158 103.332123 
L 347.724554 100.969538 
L 347.724554 100.969538 
" clip-path="url(#p33844a2e7e)" style="fill: none; stroke: #0000ff; stroke-width: 1.5; stroke-linecap: square"/>
   </g>
   <g id="line2d_16">
    <defs>
     <path id="m3cd3960b82" d="M 0 3 
C 0.795609 3 1.55874 2.683901 2.12132 2.12132 
C 2.683901 1.55874 3 0.795609 3 0 
C 3 -0.795609 2.683901 -1.55874 2.12132 -2.12132 
C 1.55874 -2.683901 0.795609 -3 0 -3 
C -0.795609 -3 -1.55874 -2.683901 -2.12132 -2.12132 
C -2.683901 -1.55874 -3 -0.795609 -3 0 
C -3 0.795609 -2.683901 1.55874 -2.12132 2.12132 
C -1.55874 2.683901 -0.795609 3 0 3 
z
" style="stroke: #0000ff"/>
    </defs>
    <g clip-path="url(#p33844a2e7e)">
     <use xlink:href="#m3cd3960b82" x="264.557533" y="209.187694" style="fill: #0000ff; stroke: #0000ff"/>
     <use xlink:href="#m3cd3960b82" x="282.529994" y="204.365418" style="fill: #0000ff; stroke: #0000ff"/>
     <use xlink:href="#m3cd3960b82" x="336.447379" y="108.711767" style="fill: #0000ff; stroke: #0000ff"/>
    </g>
   </g>
   <g id="LineCollection_1">
    <path d="M 264.557533 326.945455 
L 264.557533 238.86768 
" clip-path="url(#p33844a2e7e)" style="fill: none; stroke: #000000; stroke-width: 1.5"/>
    <path d="M 282.529994 220.769507 
L 282.529994 175.524075 
" clip-path="url(#p33844a2e7e)" style="fill: none; stroke: #000000; stroke-width: 1.5"/>
    <path d="M 336.447379 206.290969 
L 336.447379 118.213195 
" clip-path="url(#p33844a2e7e)" style="fill: none; stroke: #000000; stroke-width: 1.5"/>
   </g>
   <g id="line2d_17">
    <path d="M 264.557533 282.906567 
L 282.529994 198.146791 
L 336.447379 162.252082 
" clip-path="url(#p33844a2e7e)" style="fill: none; stroke: #000000; stroke-width: 1.5; stroke-linecap: square"/>
    <defs>
     <path id="m49625b6198" d="M -3 3 
L 3 3 
L 3 -3 
L -3 -3 
z
" style="stroke: #000000; stroke-linejoin: miter"/>
    </defs>
    <g clip-path="url(#p33844a2e7e)">
     <use xlink:href="#m49625b6198" x="264.557533" y="282.906567" style="stroke: #000000; stroke-linejoin: miter"/>
     <use xlink:href="#m49625b6198" x="282.529994" y="198.146791" style="stroke: #000000; stroke-linejoin: miter"/>
     <use xlink:href="#m49625b6198" x="336.447379" y="162.252082" style="stroke: #000000; stroke-linejoin: miter"/>
    </g>
   </g>
   <g id="patch_3">
    <path d="M 90 338.4 
L 90 86.4 
" style="fill: none; stroke: #000000; stroke-width: 0.8; stroke-linejoin: miter; stroke-linecap: square"/>
   </g>
   <g id="patch_4">
    <path d="M 343.636364 338.4 
L 343.636364 86.4 
" style="fill: none; stroke: #000000; stroke-width: 0.8; stroke-linejoin: miter; stroke-linecap: square"/>
   </g>
   <g id="patch_5">
    <path d="M 90 338.4 
L 343.636364 338.4 
" style="fill: none; stroke: #000000; stroke-width: 0.8; stroke-linejoin: miter; stroke-linecap: square"/>
   </g>
   <g id="patch_6">
    <path d="M 90 86.4 
L 343.636364 86.4 
" style="fill: none; stroke: #000000; stroke-width: 0.8; stroke-linejoin: miter; stroke-linecap: square"/>
   </g>
   <g id="text_10">
    <!-- Yang2013.task_po_dap5_KI__UGE -->
    <g transform="translate(100.077869 80.4) scale(0.14 -0.14)">
     <defs>
      <path id="DejaVuSans-59" d="M -13 4666 
L 666 4666 
L 1959 2747 
L 3244 4666 
L 3922 4666 
L 2272 2222 
L 2272 0 
L 1638 0 
L 1638 2222 
L -13 4666 
z
" transform="scale(0.015625)"/>
      <path id="DejaVuSans-61" d="M 2194 1759 
Q 1497 1759 1228 1600 
Q 959 1441 959 1056 
Q 959 750 1161 570 
Q 1363 391 1709 391 
Q 2188 391 2477 730 
Q 2766 1069 2766 1631 
L 2766 1759 
L 2194 1759 
z
M 3341 1997 
L 3341 0 
L 2766 0 
L 2766 531 
Q 2569 213 2275 61 
Q 1981 -91 1556 -91 
Q 1019 -91 701 211 
Q 384 513 384 1019 
Q 384 1609 779 1909 
Q 1175 2209 1959 2209 
L 2766 2209 
L 2766 2266 
Q 2766 2663 2505 2880 
Q 2244 3097 1772 3097 
Q 1472 3097 1187 3025 
Q 903 2953 641 2809 
L 641 3341 
Q 956 3463 1253 3523 
Q 1550 3584 1831 3584 
Q 2591 3584 2966 3190 
Q 3341 2797 3341 1997 
z
" transform="scale(0.015625)"/>
      <path id="DejaVuSans-6e" d="M 3513 2113 
L 3513 0 
L 2938 0 
L 2938 2094 
Q 2938 2591 2744 2837 
Q 2550 3084 2163 3084 
Q 1697 3084 1428 2787 
Q 1159 2491 1159 1978 
L 1159 0 
L 581 0 
L 581 3500 
L 1159 3500 
L 1159 2956 
Q 1366 3272 1645 3428 
Q 1925 3584 2291 3584 
Q 2894 3584 3203 3211 
Q 3513 2838 3513 2113 
z
" transform="scale(0.015625)"/>
      <path id="DejaVuSans-67" d="M 2906 1791 
Q 2906 2416 2648 2759 
Q 2391 3103 1925 3103 
Q 1463 3103 1205 2759 
Q 947 2416 947 1791 
Q 947 1169 1205 825 
Q 1463 481 1925 481 
Q 2391 481 2648 825 
Q 2906 1169 2906 1791 
z
M 3481 434 
Q 3481 -459 3084 -895 
Q 2688 -1331 1869 -1331 
Q 1566 -1331 1297 -1286 
Q 1028 -1241 775 -1147 
L 775 -588 
Q 1028 -725 1275 -790 
Q 1522 -856 1778 -856 
Q 2344 -856 2625 -561 
Q 2906 -266 2906 331 
L 2906 616 
Q 2728 306 2450 153 
Q 2172 0 1784 0 
Q 1141 0 747 490 
Q 353 981 353 1791 
Q 353 2603 747 3093 
Q 1141 3584 1784 3584 
Q 2172 3584 2450 3431 
Q 2728 3278 2906 2969 
L 2906 3500 
L 3481 3500 
L 3481 434 
z
" transform="scale(0.015625)"/>
      <path id="DejaVuSans-2e" d="M 684 794 
L 1344 794 
L 1344 0 
L 684 0 
L 684 794 
z
" transform="scale(0.015625)"/>
      <path id="DejaVuSans-74" d="M 1172 4494 
L 1172 3500 
L 2356 3500 
L 2356 3053 
L 1172 3053 
L 1172 1153 
Q 1172 725 1289 603 
Q 1406 481 1766 481 
L 2356 481 
L 2356 0 
L 1766 0 
Q 1100 0 847 248 
Q 594 497 594 1153 
L 594 3053 
L 172 3053 
L 172 3500 
L 594 3500 
L 594 4494 
L 1172 4494 
z
" transform="scale(0.015625)"/>
      <path id="DejaVuSans-73" d="M 2834 3397 
L 2834 2853 
Q 2591 2978 2328 3040 
Q 2066 3103 1784 3103 
Q 1356 3103 1142 2972 
Q 928 2841 928 2578 
Q 928 2378 1081 2264 
Q 1234 2150 1697 2047 
L 1894 2003 
Q 2506 1872 2764 1633 
Q 3022 1394 3022 966 
Q 3022 478 2636 193 
Q 2250 -91 1575 -91 
Q 1294 -91 989 -36 
Q 684 19 347 128 
L 347 722 
Q 666 556 975 473 
Q 1284 391 1588 391 
Q 1994 391 2212 530 
Q 2431 669 2431 922 
Q 2431 1156 2273 1281 
Q 2116 1406 1581 1522 
L 1381 1569 
Q 847 1681 609 1914 
Q 372 2147 372 2553 
Q 372 3047 722 3315 
Q 1072 3584 1716 3584 
Q 2034 3584 2315 3537 
Q 2597 3491 2834 3397 
z
" transform="scale(0.015625)"/>
      <path id="DejaVuSans-6b" d="M 581 4863 
L 1159 4863 
L 1159 1991 
L 2875 3500 
L 3609 3500 
L 1753 1863 
L 3688 0 
L 2938 0 
L 1159 1709 
L 1159 0 
L 581 0 
L 581 4863 
z
" transform="scale(0.015625)"/>
      <path id="DejaVuSans-70" d="M 1159 525 
L 1159 -1331 
L 581 -1331 
L 581 3500 
L 1159 3500 
L 1159 2969 
Q 1341 3281 1617 3432 
Q 1894 3584 2278 3584 
Q 2916 3584 3314 3078 
Q 3713 2572 3713 1747 
Q 3713 922 3314 415 
Q 2916 -91 2278 -91 
Q 1894 -91 1617 61 
Q 1341 213 1159 525 
z
M 3116 1747 
Q 3116 2381 2855 2742 
Q 2594 3103 2138 3103 
Q 1681 3103 1420 2742 
Q 1159 2381 1159 1747 
Q 1159 1113 1420 752 
Q 1681 391 2138 391 
Q 2594 391 2855 752 
Q 3116 1113 3116 1747 
z
" transform="scale(0.015625)"/>
      <path id="DejaVuSans-6f" d="M 1959 3097 
Q 1497 3097 1228 2736 
Q 959 2375 959 1747 
Q 959 1119 1226 758 
Q 1494 397 1959 397 
Q 2419 397 2687 759 
Q 2956 1122 2956 1747 
Q 2956 2369 2687 2733 
Q 2419 3097 1959 3097 
z
M 1959 3584 
Q 2709 3584 3137 3096 
Q 3566 2609 3566 1747 
Q 3566 888 3137 398 
Q 2709 -91 1959 -91 
Q 1206 -91 779 398 
Q 353 888 353 1747 
Q 353 2609 779 3096 
Q 1206 3584 1959 3584 
z
" transform="scale(0.015625)"/>
      <path id="DejaVuSans-64" d="M 2906 2969 
L 2906 4863 
L 3481 4863 
L 3481 0 
L 2906 0 
L 2906 525 
Q 2725 213 2448 61 
Q 2172 -91 1784 -91 
Q 1150 -91 751 415 
Q 353 922 353 1747 
Q 353 2572 751 3078 
Q 1150 3584 1784 3584 
Q 2172 3584 2448 3432 
Q 2725 3281 2906 2969 
z
M 947 1747 
Q 947 1113 1208 752 
Q 1469 391 1925 391 
Q 2381 391 2643 752 
Q 2906 1113 2906 1747 
Q 2906 2381 2643 2742 
Q 2381 3103 1925 3103 
Q 1469 3103 1208 2742 
Q 947 2381 947 1747 
z
" transform="scale(0.015625)"/>
     </defs>
     <use xlink:href="#DejaVuSans-59"/>
     <use xlink:href="#DejaVuSans-61" x="47.333984"/>
     <use xlink:href="#DejaVuSans-6e" x="108.613281"/>
     <use xlink:href="#DejaVuSans-67" x="171.992188"/>
     <use xlink:href="#DejaVuSans-32" x="235.46875"/>
     <use xlink:href="#DejaVuSans-30" x="299.091797"/>
     <use xlink:href="#DejaVuSans-31" x="362.714844"/>
     <use xlink:href="#DejaVuSans-33" x="426.337891"/>
     <use xlink:href="#DejaVuSans-2e" x="489.960938"/>
     <use xlink:href="#DejaVuSans-74" x="521.748047"/>
     <use xlink:href="#DejaVuSans-61" x="560.957031"/>
     <use xlink:href="#DejaVuSans-73" x="622.236328"/>
     <use xlink:href="#DejaVuSans-6b" x="674.335938"/>
     <use xlink:href="#DejaVuSans-5f" x="732.246094"/>
     <use xlink:href="#DejaVuSans-70" x="782.246094"/>
     <use xlink:href="#DejaVuSans-6f" x="845.722656"/>
     <use xlink:href="#DejaVuSans-5f" x="906.904297"/>
     <use xlink:href="#DejaVuSans-64" x="956.904297"/>
     <use xlink:href="#DejaVuSans-61" x="1020.380859"/>
     <use xlink:href="#DejaVuSans-70" x="1081.660156"/>
     <use xlink:href="#DejaVuSans-35" x="1145.136719"/>
     <use xlink:href="#DejaVuSans-5f" x="1208.759766"/>
     <use xlink:href="#DejaVuSans-4b" x="1258.759766"/>
     <use xlink:href="#DejaVuSans-49" x="1324.335938"/>
     <use xlink:href="#DejaVuSans-5f" x="1353.828125"/>
     <use xlink:href="#DejaVuSans-5f" x="1403.828125"/>
     <use xlink:href="#DejaVuSans-55" x="1453.828125"/>
     <use xlink:href="#DejaVuSans-47" x="1527.021484"/>
     <use xlink:href="#DejaVuSans-45" x="1604.511719"/>
    </g>
   </g>
   <g id="legend_1">
    <g id="patch_7">
     <path d="M 97 153.390625 
L 204.265625 153.390625 
Q 206.265625 153.390625 206.265625 151.390625 
L 206.265625 93.4 
Q 206.265625 91.4 204.265625 91.4 
L 97 91.4 
Q 95 91.4 95 93.4 
L 95 151.390625 
Q 95 153.390625 97 153.390625 
z
" style="fill: #ffffff; opacity: 0.8; stroke: #cccccc; stroke-linejoin: miter"/>
    </g>
    <g id="line2d_18">
     <g>
      <use xlink:href="#ma79e3d7329" x="109" y="99.498438" style="fill: #ff8c00; stroke: #ff8c00"/>
     </g>
    </g>
    <g id="text_11">
     <!-- residuals -->
     <g transform="translate(127 102.998438) scale(0.1 -0.1)">
      <defs>
       <path id="DejaVuSans-72" d="M 2631 2963 
Q 2534 3019 2420 3045 
Q 2306 3072 2169 3072 
Q 1681 3072 1420 2755 
Q 1159 2438 1159 1844 
L 1159 0 
L 581 0 
L 581 3500 
L 1159 3500 
L 1159 2956 
Q 1341 3275 1631 3429 
Q 1922 3584 2338 3584 
Q 2397 3584 2469 3576 
Q 2541 3569 2628 3553 
L 2631 2963 
z
" transform="scale(0.015625)"/>
       <path id="DejaVuSans-65" d="M 3597 1894 
L 3597 1613 
L 953 1613 
Q 991 1019 1311 708 
Q 1631 397 2203 397 
Q 2534 397 2845 478 
Q 3156 559 3463 722 
L 3463 178 
Q 3153 47 2828 -22 
Q 2503 -91 2169 -91 
Q 1331 -91 842 396 
Q 353 884 353 1716 
Q 353 2575 817 3079 
Q 1281 3584 2069 3584 
Q 2775 3584 3186 3129 
Q 3597 2675 3597 1894 
z
M 3022 2063 
Q 3016 2534 2758 2815 
Q 2500 3097 2075 3097 
Q 1594 3097 1305 2825 
Q 1016 2553 972 2059 
L 3022 2063 
z
" transform="scale(0.015625)"/>
       <path id="DejaVuSans-69" d="M 603 3500 
L 1178 3500 
L 1178 0 
L 603 0 
L 603 3500 
z
M 603 4863 
L 1178 4863 
L 1178 4134 
L 603 4134 
L 603 4863 
z
" transform="scale(0.015625)"/>
       <path id="DejaVuSans-75" d="M 544 1381 
L 544 3500 
L 1119 3500 
L 1119 1403 
Q 1119 906 1312 657 
Q 1506 409 1894 409 
Q 2359 409 2629 706 
Q 2900 1003 2900 1516 
L 2900 3500 
L 3475 3500 
L 3475 0 
L 2900 0 
L 2900 538 
Q 2691 219 2414 64 
Q 2138 -91 1772 -91 
Q 1169 -91 856 284 
Q 544 659 544 1381 
z
M 1991 3584 
L 1991 3584 
z
" transform="scale(0.015625)"/>
       <path id="DejaVuSans-6c" d="M 603 4863 
L 1178 4863 
L 1178 0 
L 603 0 
L 603 4863 
z
" transform="scale(0.015625)"/>
      </defs>
      <use xlink:href="#DejaVuSans-72"/>
      <use xlink:href="#DejaVuSans-65" x="38.863281"/>
      <use xlink:href="#DejaVuSans-73" x="100.386719"/>
      <use xlink:href="#DejaVuSans-69" x="152.486328"/>
      <use xlink:href="#DejaVuSans-64" x="180.269531"/>
      <use xlink:href="#DejaVuSans-75" x="243.746094"/>
      <use xlink:href="#DejaVuSans-61" x="307.125"/>
      <use xlink:href="#DejaVuSans-6c" x="368.404297"/>
      <use xlink:href="#DejaVuSans-73" x="396.1875"/>
     </g>
    </g>
    <g id="line2d_19">
     <path d="M 99 114.176563 
L 109 114.176563 
L 119 114.176563 
" style="fill: none; stroke: #0000ff; stroke-width: 1.5; stroke-linecap: square"/>
    </g>
    <g id="text_12">
     <!-- observable -->
     <g transform="translate(127 117.676563) scale(0.1 -0.1)">
      <defs>
       <path id="DejaVuSans-62" d="M 3116 1747 
Q 3116 2381 2855 2742 
Q 2594 3103 2138 3103 
Q 1681 3103 1420 2742 
Q 1159 2381 1159 1747 
Q 1159 1113 1420 752 
Q 1681 391 2138 391 
Q 2594 391 2855 752 
Q 3116 1113 3116 1747 
z
M 1159 2969 
Q 1341 3281 1617 3432 
Q 1894 3584 2278 3584 
Q 2916 3584 3314 3078 
Q 3713 2572 3713 1747 
Q 3713 922 3314 415 
Q 2916 -91 2278 -91 
Q 1894 -91 1617 61 
Q 1341 213 1159 525 
L 1159 0 
L 581 0 
L 581 4863 
L 1159 4863 
L 1159 2969 
z
" transform="scale(0.015625)"/>
       <path id="DejaVuSans-76" d="M 191 3500 
L 800 3500 
L 1894 563 
L 2988 3500 
L 3597 3500 
L 2284 0 
L 1503 0 
L 191 3500 
z
" transform="scale(0.015625)"/>
      </defs>
      <use xlink:href="#DejaVuSans-6f"/>
      <use xlink:href="#DejaVuSans-62" x="61.181641"/>
      <use xlink:href="#DejaVuSans-73" x="124.658203"/>
      <use xlink:href="#DejaVuSans-65" x="176.757812"/>
      <use xlink:href="#DejaVuSans-72" x="238.28125"/>
      <use xlink:href="#DejaVuSans-76" x="279.394531"/>
      <use xlink:href="#DejaVuSans-61" x="338.574219"/>
      <use xlink:href="#DejaVuSans-62" x="399.853516"/>
      <use xlink:href="#DejaVuSans-6c" x="463.330078"/>
      <use xlink:href="#DejaVuSans-65" x="491.113281"/>
     </g>
    </g>
    <g id="line2d_20">
     <g>
      <use xlink:href="#m3cd3960b82" x="109" y="128.854688" style="fill: #0000ff; stroke: #0000ff"/>
     </g>
    </g>
    <g id="text_13">
     <!-- interpolation -->
     <g transform="translate(127 132.354688) scale(0.1 -0.1)">
      <use xlink:href="#DejaVuSans-69"/>
      <use xlink:href="#DejaVuSans-6e" x="27.783203"/>
      <use xlink:href="#DejaVuSans-74" x="91.162109"/>
      <use xlink:href="#DejaVuSans-65" x="130.371094"/>
      <use xlink:href="#DejaVuSans-72" x="191.894531"/>
      <use xlink:href="#DejaVuSans-70" x="233.007812"/>
      <use xlink:href="#DejaVuSans-6f" x="296.484375"/>
      <use xlink:href="#DejaVuSans-6c" x="357.666016"/>
      <use xlink:href="#DejaVuSans-61" x="385.449219"/>
      <use xlink:href="#DejaVuSans-74" x="446.728516"/>
      <use xlink:href="#DejaVuSans-69" x="485.9375"/>
      <use xlink:href="#DejaVuSans-6f" x="513.720703"/>
      <use xlink:href="#DejaVuSans-6e" x="574.902344"/>
     </g>
    </g>
    <g id="LineCollection_2">
     <path d="M 109 148.532812 
L 109 138.532812 
" style="fill: none; stroke: #000000; stroke-width: 1.5"/>
    </g>
    <g id="line2d_21">
     <path d="M 99 143.532812 
L 119 143.532812 
" style="fill: none; stroke: #000000; stroke-width: 1.5; stroke-linecap: square"/>
    </g>
    <g id="line2d_22">
     <g>
      <use xlink:href="#m49625b6198" x="109" y="143.532812" style="stroke: #000000; stroke-linejoin: miter"/>
     </g>
    </g>
    <g id="text_14">
     <!-- reference_data -->
     <g transform="translate(127 147.032812) scale(0.1 -0.1)">
      <defs>
       <path id="DejaVuSans-66" d="M 2375 4863 
L 2375 4384 
L 1825 4384 
Q 1516 4384 1395 4259 
Q 1275 4134 1275 3809 
L 1275 3500 
L 2222 3500 
L 2222 3053 
L 1275 3053 
L 1275 0 
L 697 0 
L 697 3053 
L 147 3053 
L 147 3500 
L 697 3500 
L 697 3744 
Q 697 4328 969 4595 
Q 1241 4863 1831 4863 
L 2375 4863 
z
" transform="scale(0.015625)"/>
       <path id="DejaVuSans-63" d="M 3122 3366 
L 3122 2828 
Q 2878 2963 2633 3030 
Q 2388 3097 2138 3097 
Q 1578 3097 1268 2742 
Q 959 2388 959 1747 
Q 959 1106 1268 751 
Q 1578 397 2138 397 
Q 2388 397 2633 464 
Q 2878 531 3122 666 
L 3122 134 
Q 2881 22 2623 -34 
Q 2366 -91 2075 -91 
Q 1284 -91 818 406 
Q 353 903 353 1747 
Q 353 2603 823 3093 
Q 1294 3584 2113 3584 
Q 2378 3584 2631 3529 
Q 2884 3475 3122 3366 
z
" transform="scale(0.015625)"/>
      </defs>
      <use xlink:href="#DejaVuSans-72"/>
      <use xlink:href="#DejaVuSans-65" x="38.863281"/>
      <use xlink:href="#DejaVuSans-66" x="100.386719"/>
      <use xlink:href="#DejaVuSans-65" x="135.591797"/>
      <use xlink:href="#DejaVuSans-72" x="197.115234"/>
      <use xlink:href="#DejaVuSans-65" x="235.978516"/>
      <use xlink:href="#DejaVuSans-6e" x="297.501953"/>
      <use xlink:href="#DejaVuSans-63" x="360.880859"/>
      <use xlink:href="#DejaVuSans-65" x="415.861328"/>
      <use xlink:href="#DejaVuSans-5f" x="477.384766"/>
      <use xlink:href="#DejaVuSans-64" x="527.384766"/>
      <use xlink:href="#DejaVuSans-61" x="590.861328"/>
      <use xlink:href="#DejaVuSans-74" x="652.140625"/>
      <use xlink:href="#DejaVuSans-61" x="691.349609"/>
     </g>
    </g>
   </g>
  </g>
  <g id="axes_2">
   <g id="patch_8">
    <path d="M 394.363636 338.4 
L 648 338.4 
L 648 86.4 
L 394.363636 86.4 
z
" style="fill: #ffffff"/>
   </g>
   <g id="PolyCollection_2">
    <path d="M 568.921169 9463.397133 
L 568.921169 114.268667 
L 586.893631 9463.397133 
L 640.811015 115.567199 
L 640.811015 9463.397133 
L 640.811015 9463.397133 
L 586.893631 9463.397133 
L 568.921169 9463.397133 
z
" clip-path="url(#p54ba9c3398)" style="fill: #ff8c00; fill-opacity: 0.4; stroke: #ff8c00; stroke-opacity: 0.4"/>
   </g>
   <g id="matplotlib.axis_3">
    <g id="xtick_5">
     <g id="line2d_23">
      <g>
       <use xlink:href="#m7a9733fed3" x="444.112408" y="338.4" style="stroke: #000000; stroke-width: 0.8"/>
      </g>
     </g>
    </g>
    <g id="xtick_6">
     <g id="line2d_24">
      <g>
       <use xlink:href="#m7a9733fed3" x="506.516789" y="338.4" style="stroke: #000000; stroke-width: 0.8"/>
      </g>
     </g>
    </g>
    <g id="xtick_7">
     <g id="line2d_25">
      <g>
       <use xlink:href="#m7a9733fed3" x="568.921169" y="338.4" style="stroke: #000000; stroke-width: 0.8"/>
      </g>
     </g>
    </g>
    <g id="xtick_8">
     <g id="line2d_26">
      <g>
       <use xlink:href="#m7a9733fed3" x="631.32555" y="338.4" style="stroke: #000000; stroke-width: 0.8"/>
      </g>
     </g>
    </g>
   </g>
   <g id="matplotlib.axis_4">
    <g id="ytick_9">
     <g id="line2d_27">
      <g>
       <use xlink:href="#m48a6ead7cb" x="394.363636" y="310.89388" style="stroke: #000000; stroke-width: 0.8"/>
      </g>
     </g>
     <g id="text_15">
      <!-- $\mathdefault{10^{-21}}$ -->
      <g transform="translate(359.463636 314.693099) scale(0.1 -0.1)">
       <use xlink:href="#DejaVuSans-31" transform="translate(0 0.765625)"/>
       <use xlink:href="#DejaVuSans-30" transform="translate(63.623047 0.765625)"/>
       <use xlink:href="#DejaVuSans-2212" transform="translate(128.203125 39.046875) scale(0.7)"/>
       <use xlink:href="#DejaVuSans-32" transform="translate(186.855469 39.046875) scale(0.7)"/>
       <use xlink:href="#DejaVuSans-31" transform="translate(231.391602 39.046875) scale(0.7)"/>
      </g>
     </g>
    </g>
    <g id="ytick_10">
     <g id="line2d_28">
      <g>
       <use xlink:href="#m48a6ead7cb" x="394.363636" y="282.847394" style="stroke: #000000; stroke-width: 0.8"/>
      </g>
     </g>
     <g id="text_16">
      <!-- $\mathdefault{10^{-18}}$ -->
      <g transform="translate(359.463636 286.646613) scale(0.1 -0.1)">
       <defs>
        <path id="DejaVuSans-38" d="M 2034 2216 
Q 1584 2216 1326 1975 
Q 1069 1734 1069 1313 
Q 1069 891 1326 650 
Q 1584 409 2034 409 
Q 2484 409 2743 651 
Q 3003 894 3003 1313 
Q 3003 1734 2745 1975 
Q 2488 2216 2034 2216 
z
M 1403 2484 
Q 997 2584 770 2862 
Q 544 3141 544 3541 
Q 544 4100 942 4425 
Q 1341 4750 2034 4750 
Q 2731 4750 3128 4425 
Q 3525 4100 3525 3541 
Q 3525 3141 3298 2862 
Q 3072 2584 2669 2484 
Q 3125 2378 3379 2068 
Q 3634 1759 3634 1313 
Q 3634 634 3220 271 
Q 2806 -91 2034 -91 
Q 1263 -91 848 271 
Q 434 634 434 1313 
Q 434 1759 690 2068 
Q 947 2378 1403 2484 
z
M 1172 3481 
Q 1172 3119 1398 2916 
Q 1625 2713 2034 2713 
Q 2441 2713 2670 2916 
Q 2900 3119 2900 3481 
Q 2900 3844 2670 4047 
Q 2441 4250 2034 4250 
Q 1625 4250 1398 4047 
Q 1172 3844 1172 3481 
z
" transform="scale(0.015625)"/>
       </defs>
       <use xlink:href="#DejaVuSans-31" transform="translate(0 0.765625)"/>
       <use xlink:href="#DejaVuSans-30" transform="translate(63.623047 0.765625)"/>
       <use xlink:href="#DejaVuSans-2212" transform="translate(128.203125 39.046875) scale(0.7)"/>
       <use xlink:href="#DejaVuSans-31" transform="translate(186.855469 39.046875) scale(0.7)"/>
       <use xlink:href="#DejaVuSans-38" transform="translate(231.391602 39.046875) scale(0.7)"/>
      </g>
     </g>
    </g>
    <g id="ytick_11">
     <g id="line2d_29">
      <g>
       <use xlink:href="#m48a6ead7cb" x="394.363636" y="254.800908" style="stroke: #000000; stroke-width: 0.8"/>
      </g>
     </g>
     <g id="text_17">
      <!-- $\mathdefault{10^{-15}}$ -->
      <g transform="translate(359.463636 258.600127) scale(0.1 -0.1)">
       <use xlink:href="#DejaVuSans-31" transform="translate(0 0.684375)"/>
       <use xlink:href="#DejaVuSans-30" transform="translate(63.623047 0.684375)"/>
       <use xlink:href="#DejaVuSans-2212" transform="translate(128.203125 38.965625) scale(0.7)"/>
       <use xlink:href="#DejaVuSans-31" transform="translate(186.855469 38.965625) scale(0.7)"/>
       <use xlink:href="#DejaVuSans-35" transform="translate(231.391602 38.965625) scale(0.7)"/>
      </g>
     </g>
    </g>
    <g id="ytick_12">
     <g id="line2d_30">
      <g>
       <use xlink:href="#m48a6ead7cb" x="394.363636" y="226.754422" style="stroke: #000000; stroke-width: 0.8"/>
      </g>
     </g>
     <g id="text_18">
      <!-- $\mathdefault{10^{-12}}$ -->
      <g transform="translate(359.463636 230.553641) scale(0.1 -0.1)">
       <use xlink:href="#DejaVuSans-31" transform="translate(0 0.765625)"/>
       <use xlink:href="#DejaVuSans-30" transform="translate(63.623047 0.765625)"/>
       <use xlink:href="#DejaVuSans-2212" transform="translate(128.203125 39.046875) scale(0.7)"/>
       <use xlink:href="#DejaVuSans-31" transform="translate(186.855469 39.046875) scale(0.7)"/>
       <use xlink:href="#DejaVuSans-32" transform="translate(231.391602 39.046875) scale(0.7)"/>
      </g>
     </g>
    </g>
    <g id="ytick_13">
     <g id="line2d_31">
      <g>
       <use xlink:href="#m48a6ead7cb" x="394.363636" y="198.707936" style="stroke: #000000; stroke-width: 0.8"/>
      </g>
     </g>
     <g id="text_19">
      <!-- $\mathdefault{10^{-9}}$ -->
      <g transform="translate(363.863636 202.507155) scale(0.1 -0.1)">
       <defs>
        <path id="DejaVuSans-39" d="M 703 97 
L 703 672 
Q 941 559 1184 500 
Q 1428 441 1663 441 
Q 2288 441 2617 861 
Q 2947 1281 2994 2138 
Q 2813 1869 2534 1725 
Q 2256 1581 1919 1581 
Q 1219 1581 811 2004 
Q 403 2428 403 3163 
Q 403 3881 828 4315 
Q 1253 4750 1959 4750 
Q 2769 4750 3195 4129 
Q 3622 3509 3622 2328 
Q 3622 1225 3098 567 
Q 2575 -91 1691 -91 
Q 1453 -91 1209 -44 
Q 966 3 703 97 
z
M 1959 2075 
Q 2384 2075 2632 2365 
Q 2881 2656 2881 3163 
Q 2881 3666 2632 3958 
Q 2384 4250 1959 4250 
Q 1534 4250 1286 3958 
Q 1038 3666 1038 3163 
Q 1038 2656 1286 2365 
Q 1534 2075 1959 2075 
z
" transform="scale(0.015625)"/>
       </defs>
       <use xlink:href="#DejaVuSans-31" transform="translate(0 0.765625)"/>
       <use xlink:href="#DejaVuSans-30" transform="translate(63.623047 0.765625)"/>
       <use xlink:href="#DejaVuSans-2212" transform="translate(128.203125 39.046875) scale(0.7)"/>
       <use xlink:href="#DejaVuSans-39" transform="translate(186.855469 39.046875) scale(0.7)"/>
      </g>
     </g>
    </g>
    <g id="ytick_14">
     <g id="line2d_32">
      <g>
       <use xlink:href="#m48a6ead7cb" x="394.363636" y="170.66145" style="stroke: #000000; stroke-width: 0.8"/>
      </g>
     </g>
     <g id="text_20">
      <!-- $\mathdefault{10^{-6}}$ -->
      <g transform="translate(363.863636 174.460669) scale(0.1 -0.1)">
       <use xlink:href="#DejaVuSans-31" transform="translate(0 0.765625)"/>
       <use xlink:href="#DejaVuSans-30" transform="translate(63.623047 0.765625)"/>
       <use xlink:href="#DejaVuSans-2212" transform="translate(128.203125 39.046875) scale(0.7)"/>
       <use xlink:href="#DejaVuSans-36" transform="translate(186.855469 39.046875) scale(0.7)"/>
      </g>
     </g>
    </g>
    <g id="ytick_15">
     <g id="line2d_33">
      <g>
       <use xlink:href="#m48a6ead7cb" x="394.363636" y="142.614964" style="stroke: #000000; stroke-width: 0.8"/>
      </g>
     </g>
     <g id="text_21">
      <!-- $\mathdefault{10^{-3}}$ -->
      <g transform="translate(363.863636 146.414183) scale(0.1 -0.1)">
       <use xlink:href="#DejaVuSans-31" transform="translate(0 0.765625)"/>
       <use xlink:href="#DejaVuSans-30" transform="translate(63.623047 0.765625)"/>
       <use xlink:href="#DejaVuSans-2212" transform="translate(128.203125 39.046875) scale(0.7)"/>
       <use xlink:href="#DejaVuSans-33" transform="translate(186.855469 39.046875) scale(0.7)"/>
      </g>
     </g>
    </g>
    <g id="ytick_16">
     <g id="line2d_34">
      <g>
       <use xlink:href="#m48a6ead7cb" x="394.363636" y="114.568478" style="stroke: #000000; stroke-width: 0.8"/>
      </g>
     </g>
     <g id="text_22">
      <!-- $\mathdefault{10^{0}}$ -->
      <g transform="translate(369.763636 118.367697) scale(0.1 -0.1)">
       <use xlink:href="#DejaVuSans-31" transform="translate(0 0.765625)"/>
       <use xlink:href="#DejaVuSans-30" transform="translate(63.623047 0.765625)"/>
       <use xlink:href="#DejaVuSans-30" transform="translate(128.203125 39.046875) scale(0.7)"/>
      </g>
     </g>
    </g>
    <g id="ytick_17">
     <g id="line2d_35">
      <g>
       <use xlink:href="#m48a6ead7cb" x="394.363636" y="86.521992" style="stroke: #000000; stroke-width: 0.8"/>
      </g>
     </g>
     <g id="text_23">
      <!-- $\mathdefault{10^{3}}$ -->
      <g transform="translate(369.763636 90.321211) scale(0.1 -0.1)">
       <use xlink:href="#DejaVuSans-31" transform="translate(0 0.765625)"/>
       <use xlink:href="#DejaVuSans-30" transform="translate(63.623047 0.765625)"/>
       <use xlink:href="#DejaVuSans-33" transform="translate(128.203125 39.046875) scale(0.7)"/>
      </g>
     </g>
    </g>
   </g>
   <g id="line2d_36">
    <g clip-path="url(#p54ba9c3398)">
     <use xlink:href="#ma79e3d7329" x="568.921169" y="114.268667" style="fill: #ff8c00; stroke: #ff8c00"/>
     <use xlink:href="#ma79e3d7329" x="586.893631" y="9463.397133" style="fill: #ff8c00; stroke: #ff8c00"/>
     <use xlink:href="#ma79e3d7329" x="640.811015" y="115.567199" style="fill: #ff8c00; stroke: #ff8c00"/>
    </g>
   </g>
   <g id="line2d_37">
    <path d="M 407.233442 721 
L 407.340941 120.9942 
L 407.561341 115.074182 
L 407.896794 111.79718 
L 408.35851 109.503246 
L 408.919288 107.837709 
L 409.594099 106.536619 
L 410.339092 105.586023 
L 411.084084 104.983271 
L 411.829077 104.671698 
L 412.630369 104.617769 
L 425.890329 104.617712 
L 425.890329 721 
M 425.947997 721 
L 426.05004 121.383898 
L 426.265268 115.258068 
L 426.585036 111.986847 
L 427.008766 109.754843 
L 427.524413 108.105775 
L 428.185775 106.727912 
L 428.942567 105.683957 
L 429.699359 105.002816 
L 430.45615 104.60051 
L 431.212942 104.436475 
L 433.294488 104.429032 
L 443.862791 104.429032 
L 443.862791 721 
M 443.913558 721 
L 444.024294 120.997483 
L 444.240365 115.141488 
L 444.55927 111.937499 
L 444.990903 109.693046 
L 445.555268 107.940794 
L 446.191093 106.655181 
L 446.940073 105.632248 
L 447.772273 104.890729 
L 448.604473 104.454425 
L 449.436673 104.257236 
L 450.709623 104.230141 
L 461.835252 104.23013 
L 461.835252 721 
M 461.878753 721 
L 461.988226 121.195987 
L 462.203138 115.216101 
L 462.522141 111.969644 
L 462.941268 109.759308 
L 463.467534 108.075424 
L 464.133224 106.689835 
L 464.900374 105.624593 
L 465.667523 104.910454 
L 466.530566 104.403834 
L 467.489503 104.11149 
L 468.640227 104.01066 
L 479.807714 104.010486 
L 479.807714 721 
M 479.843056 721 
L 479.951558 121.440196 
L 480.163676 115.329252 
L 480.485978 111.996415 
L 480.904361 109.775844 
L 481.470956 107.980907 
L 482.141157 106.615245 
L 482.897104 105.578023 
L 483.761158 104.789428 
L 484.625212 104.291439 
L 485.705279 103.947699 
L 487.109367 103.77033 
L 489.593523 103.732528 
L 497.780176 103.73253 
L 497.780176 721 
M 497.804682 721 
L 497.90831 122.102939 
L 498.118524 115.538251 
L 498.429104 112.174332 
L 498.847149 109.876421 
L 499.394198 108.090687 
L 500.039162 106.727235 
L 500.807245 105.632015 
L 501.646759 104.826591 
L 502.591213 104.243257 
L 503.640606 103.85913 
L 505.109756 103.578997 
L 507.733238 103.349255 
L 514.239474 103.054578 
L 515.752637 103.007567 
L 515.752637 721 
M 515.752637 721 
L 515.860163 123.117761 
L 516.053656 116.09819 
L 516.348503 112.542539 
L 516.746046 110.169023 
L 517.256566 108.369144 
L 517.893373 106.923557 
L 518.61269 105.818951 
L 519.411931 104.973487 
L 520.251652 104.369076 
L 521.331561 103.873249 
L 522.771439 103.490836 
L 525.171236 103.124989 
L 530.450789 102.587392 
L 533.725099 102.323317 
L 533.725099 721 
M 533.725099 721 
L 533.830366 122.80429 
L 534.031911 115.892408 
L 534.340425 112.344921 
L 534.75741 109.973142 
L 535.2846 108.199307 
L 535.906746 106.834153 
L 536.654485 105.716784 
L 537.473376 104.8764 
L 538.394629 104.237994 
L 539.520604 103.736539 
L 541.056025 103.313424 
L 543.819784 102.820401 
L 549.040216 102.136301 
L 551.69756 101.849932 
L 551.69756 721 
M 551.69756 721 
L 551.806353 122.213263 
L 552.013217 115.660218 
L 552.306566 112.358946 
L 552.745145 109.888135 
L 553.293218 108.08947 
L 553.902337 106.780379 
L 554.645235 105.681076 
L 555.470678 104.837098 
L 556.461209 104.154836 
L 557.616829 103.637631 
L 559.267714 103.159186 
L 562.239308 102.565531 
L 567.234334 101.8078 
L 569.670022 101.500494 
L 569.670022 721 
M 569.670022 721 
L 569.776145 122.115988 
L 569.992442 115.485993 
L 570.309511 112.100929 
L 570.748012 109.746361 
L 571.268173 108.071064 
L 571.927299 106.677776 
L 572.688041 105.584606 
L 573.543876 104.737071 
L 574.494804 104.09356 
L 575.731009 103.537398 
L 577.537772 102.998649 
L 580.675833 102.327337 
L 585.525563 101.52695 
L 591.66391 100.745795 
L 599.032179 100.02939 
L 608.339234 99.352004 
L 621.470388 98.681959 
L 635.138605 98.229211 
L 652.08819 97.923472 
L 652.08819 97.923472 
" clip-path="url(#p54ba9c3398)" style="fill: none; stroke: #0000ff; stroke-width: 1.5; stroke-linecap: square"/>
   </g>
   <g id="line2d_38">
    <g clip-path="url(#p54ba9c3398)">
     <use xlink:href="#m3cd3960b82" x="568.921169" y="101.591414" style="fill: #0000ff; stroke: #0000ff"/>
     <use xlink:href="#m3cd3960b82" x="586.893631" y="101.334148" style="fill: #0000ff; stroke: #0000ff"/>
     <use xlink:href="#m3cd3960b82" x="640.811015" y="98.100033" style="fill: #0000ff; stroke: #0000ff"/>
    </g>
   </g>
   <g id="LineCollection_3">
    <path d="M 568.921169 721 
L 568.921169 103.683143 
" clip-path="url(#p54ba9c3398)" style="fill: none; stroke: #000000; stroke-width: 1.5"/>
    <path d="M 586.893631 102.285359 
L 586.893631 100.064238 
" clip-path="url(#p54ba9c3398)" style="fill: none; stroke: #000000; stroke-width: 1.5"/>
    <path d="M 640.811015 101.434928 
L 640.811015 98.327762 
" clip-path="url(#p54ba9c3398)" style="fill: none; stroke: #000000; stroke-width: 1.5"/>
   </g>
   <g id="line2d_39">
    <path d="M 585.703496 721 
L 586.893631 101.024771 
L 640.811015 99.591094 
" clip-path="url(#p54ba9c3398)" style="fill: none; stroke: #000000; stroke-width: 1.5; stroke-linecap: square"/>
    <g clip-path="url(#p54ba9c3398)">
     <use xlink:href="#m49625b6198" x="568.921169" y="9463.397133" style="stroke: #000000; stroke-linejoin: miter"/>
     <use xlink:href="#m49625b6198" x="586.893631" y="101.024771" style="stroke: #000000; stroke-linejoin: miter"/>
     <use xlink:href="#m49625b6198" x="640.811015" y="99.591094" style="stroke: #000000; stroke-linejoin: miter"/>
    </g>
   </g>
   <g id="patch_9">
    <path d="M 394.363636 338.4 
L 394.363636 86.4 
" style="fill: none; stroke: #000000; stroke-width: 0.8; stroke-linejoin: miter; stroke-linecap: square"/>
   </g>
   <g id="patch_10">
    <path d="M 648 338.4 
L 648 86.4 
" style="fill: none; stroke: #000000; stroke-width: 0.8; stroke-linejoin: miter; stroke-linecap: square"/>
   </g>
   <g id="patch_11">
    <path d="M 394.363636 338.4 
L 648 338.4 
" style="fill: none; stroke: #000000; stroke-width: 0.8; stroke-linejoin: miter; stroke-linecap: square"/>
   </g>
   <g id="patch_12">
    <path d="M 394.363636 86.4 
L 648 86.4 
" style="fill: none; stroke: #000000; stroke-width: 0.8; stroke-linejoin: miter; stroke-linecap: square"/>
   </g>
   <g id="text_24">
    <!-- Yang2013.task_po_dap5_KI__UGE -->
    <g transform="translate(404.441506 80.4) scale(0.14 -0.14)">
     <use xlink:href="#DejaVuSans-59"/>
     <use xlink:href="#DejaVuSans-61" x="47.333984"/>
     <use xlink:href="#DejaVuSans-6e" x="108.613281"/>
     <use xlink:href="#DejaVuSans-67" x="171.992188"/>
     <use xlink:href="#DejaVuSans-32" x="235.46875"/>
     <use xlink:href="#DejaVuSans-30" x="299.091797"/>
     <use xlink:href="#DejaVuSans-31" x="362.714844"/>
     <use xlink:href="#DejaVuSans-33" x="426.337891"/>
     <use xlink:href="#DejaVuSans-2e" x="489.960938"/>
     <use xlink:href="#DejaVuSans-74" x="521.748047"/>
     <use xlink:href="#DejaVuSans-61" x="560.957031"/>
     <use xlink:href="#DejaVuSans-73" x="622.236328"/>
     <use xlink:href="#DejaVuSans-6b" x="674.335938"/>
     <use xlink:href="#DejaVuSans-5f" x="732.246094"/>
     <use xlink:href="#DejaVuSans-70" x="782.246094"/>
     <use xlink:href="#DejaVuSans-6f" x="845.722656"/>
     <use xlink:href="#DejaVuSans-5f" x="906.904297"/>
     <use xlink:href="#DejaVuSans-64" x="956.904297"/>
     <use xlink:href="#DejaVuSans-61" x="1020.380859"/>
     <use xlink:href="#DejaVuSans-70" x="1081.660156"/>
     <use xlink:href="#DejaVuSans-35" x="1145.136719"/>
     <use xlink:href="#DejaVuSans-5f" x="1208.759766"/>
     <use xlink:href="#DejaVuSans-4b" x="1258.759766"/>
     <use xlink:href="#DejaVuSans-49" x="1324.335938"/>
     <use xlink:href="#DejaVuSans-5f" x="1353.828125"/>
     <use xlink:href="#DejaVuSans-5f" x="1403.828125"/>
     <use xlink:href="#DejaVuSans-55" x="1453.828125"/>
     <use xlink:href="#DejaVuSans-47" x="1527.021484"/>
     <use xlink:href="#DejaVuSans-45" x="1604.511719"/>
    </g>
   </g>
   <g id="legend_2">
    <g id="patch_13">
     <path d="M 467.549006 333.4 
L 574.814631 333.4 
Q 576.814631 333.4 576.814631 331.4 
L 576.814631 273.409375 
Q 576.814631 271.409375 574.814631 271.409375 
L 467.549006 271.409375 
Q 465.549006 271.409375 465.549006 273.409375 
L 465.549006 331.4 
Q 465.549006 333.4 467.549006 333.4 
z
" style="fill: #ffffff; opacity: 0.8; stroke: #cccccc; stroke-linejoin: miter"/>
    </g>
    <g id="line2d_40">
     <g>
      <use xlink:href="#ma79e3d7329" x="479.549006" y="279.507812" style="fill: #ff8c00; stroke: #ff8c00"/>
     </g>
    </g>
    <g id="text_25">
     <!-- residuals -->
     <g transform="translate(497.549006 283.007812) scale(0.1 -0.1)">
      <use xlink:href="#DejaVuSans-72"/>
      <use xlink:href="#DejaVuSans-65" x="38.863281"/>
      <use xlink:href="#DejaVuSans-73" x="100.386719"/>
      <use xlink:href="#DejaVuSans-69" x="152.486328"/>
      <use xlink:href="#DejaVuSans-64" x="180.269531"/>
      <use xlink:href="#DejaVuSans-75" x="243.746094"/>
      <use xlink:href="#DejaVuSans-61" x="307.125"/>
      <use xlink:href="#DejaVuSans-6c" x="368.404297"/>
      <use xlink:href="#DejaVuSans-73" x="396.1875"/>
     </g>
    </g>
    <g id="line2d_41">
     <path d="M 469.549006 294.185938 
L 479.549006 294.185938 
L 489.549006 294.185938 
" style="fill: none; stroke: #0000ff; stroke-width: 1.5; stroke-linecap: square"/>
    </g>
    <g id="text_26">
     <!-- observable -->
     <g transform="translate(497.549006 297.685938) scale(0.1 -0.1)">
      <use xlink:href="#DejaVuSans-6f"/>
      <use xlink:href="#DejaVuSans-62" x="61.181641"/>
      <use xlink:href="#DejaVuSans-73" x="124.658203"/>
      <use xlink:href="#DejaVuSans-65" x="176.757812"/>
      <use xlink:href="#DejaVuSans-72" x="238.28125"/>
      <use xlink:href="#DejaVuSans-76" x="279.394531"/>
      <use xlink:href="#DejaVuSans-61" x="338.574219"/>
      <use xlink:href="#DejaVuSans-62" x="399.853516"/>
      <use xlink:href="#DejaVuSans-6c" x="463.330078"/>
      <use xlink:href="#DejaVuSans-65" x="491.113281"/>
     </g>
    </g>
    <g id="line2d_42">
     <g>
      <use xlink:href="#m3cd3960b82" x="479.549006" y="308.864062" style="fill: #0000ff; stroke: #0000ff"/>
     </g>
    </g>
    <g id="text_27">
     <!-- interpolation -->
     <g transform="translate(497.549006 312.364062) scale(0.1 -0.1)">
      <use xlink:href="#DejaVuSans-69"/>
      <use xlink:href="#DejaVuSans-6e" x="27.783203"/>
      <use xlink:href="#DejaVuSans-74" x="91.162109"/>
      <use xlink:href="#DejaVuSans-65" x="130.371094"/>
      <use xlink:href="#DejaVuSans-72" x="191.894531"/>
      <use xlink:href="#DejaVuSans-70" x="233.007812"/>
      <use xlink:href="#DejaVuSans-6f" x="296.484375"/>
      <use xlink:href="#DejaVuSans-6c" x="357.666016"/>
      <use xlink:href="#DejaVuSans-61" x="385.449219"/>
      <use xlink:href="#DejaVuSans-74" x="446.728516"/>
      <use xlink:href="#DejaVuSans-69" x="485.9375"/>
      <use xlink:href="#DejaVuSans-6f" x="513.720703"/>
      <use xlink:href="#DejaVuSans-6e" x="574.902344"/>
     </g>
    </g>
    <g id="LineCollection_4">
     <path d="M 479.549006 328.542188 
L 479.549006 318.542188 
" style="fill: none; stroke: #000000; stroke-width: 1.5"/>
    </g>
    <g id="line2d_43">
     <path d="M 469.549006 323.542188 
L 489.549006 323.542188 
" style="fill: none; stroke: #000000; stroke-width: 1.5; stroke-linecap: square"/>
    </g>
    <g id="line2d_44">
     <g>
      <use xlink:href="#m49625b6198" x="479.549006" y="323.542188" style="stroke: #000000; stroke-linejoin: miter"/>
     </g>
    </g>
    <g id="text_28">
     <!-- reference_data -->
     <g transform="translate(497.549006 327.042188) scale(0.1 -0.1)">
      <use xlink:href="#DejaVuSans-72"/>
      <use xlink:href="#DejaVuSans-65" x="38.863281"/>
      <use xlink:href="#DejaVuSans-66" x="100.386719"/>
      <use xlink:href="#DejaVuSans-65" x="135.591797"/>
      <use xlink:href="#DejaVuSans-72" x="197.115234"/>
      <use xlink:href="#DejaVuSans-65" x="235.978516"/>
      <use xlink:href="#DejaVuSans-6e" x="297.501953"/>
      <use xlink:href="#DejaVuSans-63" x="360.880859"/>
      <use xlink:href="#DejaVuSans-65" x="415.861328"/>
      <use xlink:href="#DejaVuSans-5f" x="477.384766"/>
      <use xlink:href="#DejaVuSans-64" x="527.384766"/>
      <use xlink:href="#DejaVuSans-61" x="590.861328"/>
      <use xlink:href="#DejaVuSans-74" x="652.140625"/>
      <use xlink:href="#DejaVuSans-61" x="691.349609"/>
     </g>
    </g>
   </g>
  </g>
  <g id="axes_3">
   <g id="patch_14">
    <path d="M 90 640.8 
L 343.636364 640.8 
L 343.636364 388.8 
L 90 388.8 
z
" style="fill: #ffffff"/>
   </g>
   <g id="PolyCollection_3">
    <defs>
     <path id="m6d51542b26" d="M 264.557533 -90.654545 
L 264.557533 -90.654545 
L 282.529994 -94.880967 
L 336.447379 -319.745455 
L 336.447379 -90.654545 
L 336.447379 -90.654545 
L 282.529994 -90.654545 
L 264.557533 -90.654545 
z
" style="stroke: #8b0000; stroke-opacity: 0.4"/>
    </defs>
    <g clip-path="url(#pff90d9a316)">
     <use xlink:href="#m6d51542b26" x="0" y="720" style="fill: #8b0000; fill-opacity: 0.4; stroke: #8b0000; stroke-opacity: 0.4"/>
    </g>
   </g>
   <g id="matplotlib.axis_5">
    <g id="xtick_9">
     <g id="line2d_45">
      <g>
       <use xlink:href="#m7a9733fed3" x="139.748772" y="640.8" style="stroke: #000000; stroke-width: 0.8"/>
      </g>
     </g>
     <g id="text_29">
      <!-- −10000 -->
      <g transform="translate(119.652678 655.398438) scale(0.1 -0.1)">
       <use xlink:href="#DejaVuSans-2212"/>
       <use xlink:href="#DejaVuSans-31" x="83.789062"/>
       <use xlink:href="#DejaVuSans-30" x="147.412109"/>
       <use xlink:href="#DejaVuSans-30" x="211.035156"/>
       <use xlink:href="#DejaVuSans-30" x="274.658203"/>
       <use xlink:href="#DejaVuSans-30" x="338.28125"/>
      </g>
     </g>
    </g>
    <g id="xtick_10">
     <g id="line2d_46">
      <g>
       <use xlink:href="#m7a9733fed3" x="202.153152" y="640.8" style="stroke: #000000; stroke-width: 0.8"/>
      </g>
     </g>
     <g id="text_30">
      <!-- −5000 -->
      <g transform="translate(185.238309 655.398438) scale(0.1 -0.1)">
       <use xlink:href="#DejaVuSans-2212"/>
       <use xlink:href="#DejaVuSans-35" x="83.789062"/>
       <use xlink:href="#DejaVuSans-30" x="147.412109"/>
       <use xlink:href="#DejaVuSans-30" x="211.035156"/>
       <use xlink:href="#DejaVuSans-30" x="274.658203"/>
      </g>
     </g>
    </g>
    <g id="xtick_11">
     <g id="line2d_47">
      <g>
       <use xlink:href="#m7a9733fed3" x="264.557533" y="640.8" style="stroke: #000000; stroke-width: 0.8"/>
      </g>
     </g>
     <g id="text_31">
      <!-- 0 -->
      <g transform="translate(261.376283 655.398438) scale(0.1 -0.1)">
       <use xlink:href="#DejaVuSans-30"/>
      </g>
     </g>
    </g>
    <g id="xtick_12">
     <g id="line2d_48">
      <g>
       <use xlink:href="#m7a9733fed3" x="326.961913" y="640.8" style="stroke: #000000; stroke-width: 0.8"/>
      </g>
     </g>
     <g id="text_32">
      <!-- 5000 -->
      <g transform="translate(314.236913 655.398438) scale(0.1 -0.1)">
       <use xlink:href="#DejaVuSans-35"/>
       <use xlink:href="#DejaVuSans-30" x="63.623047"/>
       <use xlink:href="#DejaVuSans-30" x="127.246094"/>
       <use xlink:href="#DejaVuSans-30" x="190.869141"/>
      </g>
     </g>
    </g>
    <g id="text_33">
     <!-- time -->
     <g transform="translate(203.262869 670.59625) scale(0.12 -0.12)">
      <defs>
       <path id="DejaVuSans-6d" d="M 3328 2828 
Q 3544 3216 3844 3400 
Q 4144 3584 4550 3584 
Q 5097 3584 5394 3201 
Q 5691 2819 5691 2113 
L 5691 0 
L 5113 0 
L 5113 2094 
Q 5113 2597 4934 2840 
Q 4756 3084 4391 3084 
Q 3944 3084 3684 2787 
Q 3425 2491 3425 1978 
L 3425 0 
L 2847 0 
L 2847 2094 
Q 2847 2600 2669 2842 
Q 2491 3084 2119 3084 
Q 1678 3084 1418 2786 
Q 1159 2488 1159 1978 
L 1159 0 
L 581 0 
L 581 3500 
L 1159 3500 
L 1159 2956 
Q 1356 3278 1631 3431 
Q 1906 3584 2284 3584 
Q 2666 3584 2933 3390 
Q 3200 3197 3328 2828 
z
" transform="scale(0.015625)"/>
      </defs>
      <use xlink:href="#DejaVuSans-74"/>
      <use xlink:href="#DejaVuSans-69" x="39.208984"/>
      <use xlink:href="#DejaVuSans-6d" x="66.992188"/>
      <use xlink:href="#DejaVuSans-65" x="164.404297"/>
     </g>
    </g>
   </g>
   <g id="matplotlib.axis_6">
    <g id="ytick_18">
     <g id="line2d_49">
      <g>
       <use xlink:href="#m48a6ead7cb" x="90" y="629.345455" style="stroke: #000000; stroke-width: 0.8"/>
      </g>
     </g>
     <g id="text_34">
      <!-- 0 -->
      <g transform="translate(76.6375 633.144673) scale(0.1 -0.1)">
       <use xlink:href="#DejaVuSans-30"/>
      </g>
     </g>
    </g>
    <g id="ytick_19">
     <g id="line2d_50">
      <g>
       <use xlink:href="#m48a6ead7cb" x="90" y="600.039844" style="stroke: #000000; stroke-width: 0.8"/>
      </g>
     </g>
     <g id="text_35">
      <!-- 1 -->
      <g transform="translate(76.6375 603.839062) scale(0.1 -0.1)">
       <use xlink:href="#DejaVuSans-31"/>
      </g>
     </g>
    </g>
    <g id="ytick_20">
     <g id="line2d_51">
      <g>
       <use xlink:href="#m48a6ead7cb" x="90" y="570.734233" style="stroke: #000000; stroke-width: 0.8"/>
      </g>
     </g>
     <g id="text_36">
      <!-- 2 -->
      <g transform="translate(76.6375 574.533451) scale(0.1 -0.1)">
       <use xlink:href="#DejaVuSans-32"/>
      </g>
     </g>
    </g>
    <g id="ytick_21">
     <g id="line2d_52">
      <g>
       <use xlink:href="#m48a6ead7cb" x="90" y="541.428622" style="stroke: #000000; stroke-width: 0.8"/>
      </g>
     </g>
     <g id="text_37">
      <!-- 3 -->
      <g transform="translate(76.6375 545.22784) scale(0.1 -0.1)">
       <use xlink:href="#DejaVuSans-33"/>
      </g>
     </g>
    </g>
    <g id="ytick_22">
     <g id="line2d_53">
      <g>
       <use xlink:href="#m48a6ead7cb" x="90" y="512.123011" style="stroke: #000000; stroke-width: 0.8"/>
      </g>
     </g>
     <g id="text_38">
      <!-- 4 -->
      <g transform="translate(76.6375 515.922229) scale(0.1 -0.1)">
       <use xlink:href="#DejaVuSans-34"/>
      </g>
     </g>
    </g>
    <g id="ytick_23">
     <g id="line2d_54">
      <g>
       <use xlink:href="#m48a6ead7cb" x="90" y="482.8174" style="stroke: #000000; stroke-width: 0.8"/>
      </g>
     </g>
     <g id="text_39">
      <!-- 5 -->
      <g transform="translate(76.6375 486.616618) scale(0.1 -0.1)">
       <use xlink:href="#DejaVuSans-35"/>
      </g>
     </g>
    </g>
    <g id="ytick_24">
     <g id="line2d_55">
      <g>
       <use xlink:href="#m48a6ead7cb" x="90" y="453.511789" style="stroke: #000000; stroke-width: 0.8"/>
      </g>
     </g>
     <g id="text_40">
      <!-- 6 -->
      <g transform="translate(76.6375 457.311007) scale(0.1 -0.1)">
       <use xlink:href="#DejaVuSans-36"/>
      </g>
     </g>
    </g>
    <g id="ytick_25">
     <g id="line2d_56">
      <g>
       <use xlink:href="#m48a6ead7cb" x="90" y="424.206178" style="stroke: #000000; stroke-width: 0.8"/>
      </g>
     </g>
     <g id="text_41">
      <!-- 7 -->
      <g transform="translate(76.6375 428.005396) scale(0.1 -0.1)">
       <defs>
        <path id="DejaVuSans-37" d="M 525 4666 
L 3525 4666 
L 3525 4397 
L 1831 0 
L 1172 0 
L 2766 4134 
L 525 4134 
L 525 4666 
z
" transform="scale(0.015625)"/>
       </defs>
       <use xlink:href="#DejaVuSans-37"/>
      </g>
     </g>
    </g>
    <g id="ytick_26">
     <g id="line2d_57">
      <g>
       <use xlink:href="#m48a6ead7cb" x="90" y="394.900567" style="stroke: #000000; stroke-width: 0.8"/>
      </g>
     </g>
     <g id="text_42">
      <!-- 8 -->
      <g transform="translate(76.6375 398.699785) scale(0.1 -0.1)">
       <use xlink:href="#DejaVuSans-38"/>
      </g>
     </g>
    </g>
    <g id="text_43">
     <!-- KI__UGE -->
     <g transform="translate(69.808125 539.33625) rotate(-90) scale(0.12 -0.12)">
      <use xlink:href="#DejaVuSans-4b"/>
      <use xlink:href="#DejaVuSans-49" x="65.576172"/>
      <use xlink:href="#DejaVuSans-5f" x="95.068359"/>
      <use xlink:href="#DejaVuSans-5f" x="145.068359"/>
      <use xlink:href="#DejaVuSans-55" x="195.068359"/>
      <use xlink:href="#DejaVuSans-47" x="268.261719"/>
      <use xlink:href="#DejaVuSans-45" x="345.751953"/>
     </g>
    </g>
   </g>
   <g id="line2d_58">
    <path d="M 90 629.345455 
L 343.636364 629.345455 
" clip-path="url(#pff90d9a316)" style="fill: none; stroke: #000000; stroke-width: 1.5; stroke-linecap: square"/>
   </g>
   <g id="line2d_59">
    <defs>
     <path id="m1fdb55b473" d="M 0 3 
C 0.795609 3 1.55874 2.683901 2.12132 2.12132 
C 2.683901 1.55874 3 0.795609 3 0 
C 3 -0.795609 2.683901 -1.55874 2.12132 -2.12132 
C 1.55874 -2.683901 0.795609 -3 0 -3 
C -0.795609 -3 -1.55874 -2.683901 -2.12132 -2.12132 
C -2.683901 -1.55874 -3 -0.795609 -3 0 
C -3 0.795609 -2.683901 1.55874 -2.12132 2.12132 
C -1.55874 2.683901 -0.795609 3 0 3 
z
" style="stroke: #ff0000"/>
    </defs>
    <g clip-path="url(#pff90d9a316)">
     <use xlink:href="#m1fdb55b473" x="264.557533" y="629.345455" style="fill: #ff0000; stroke: #ff0000"/>
     <use xlink:href="#m1fdb55b473" x="282.529994" y="625.119033" style="fill: #ff0000; stroke: #ff0000"/>
     <use xlink:href="#m1fdb55b473" x="336.447379" y="400.254545" style="fill: #ff0000; stroke: #ff0000"/>
    </g>
   </g>
   <g id="patch_15">
    <path d="M 90 640.8 
L 90 388.8 
" style="fill: none; stroke: #000000; stroke-width: 0.8; stroke-linejoin: miter; stroke-linecap: square"/>
   </g>
   <g id="patch_16">
    <path d="M 343.636364 640.8 
L 343.636364 388.8 
" style="fill: none; stroke: #000000; stroke-width: 0.8; stroke-linejoin: miter; stroke-linecap: square"/>
   </g>
   <g id="patch_17">
    <path d="M 90 640.8 
L 343.636364 640.8 
" style="fill: none; stroke: #000000; stroke-width: 0.8; stroke-linejoin: miter; stroke-linecap: square"/>
   </g>
   <g id="patch_18">
    <path d="M 90 388.8 
L 343.636364 388.8 
" style="fill: none; stroke: #000000; stroke-width: 0.8; stroke-linejoin: miter; stroke-linecap: square"/>
   </g>
   <g id="legend_3">
    <g id="patch_19">
     <path d="M 97 411.478125 
L 245.76875 411.478125 
Q 247.76875 411.478125 247.76875 409.478125 
L 247.76875 395.8 
Q 247.76875 393.8 245.76875 393.8 
L 97 393.8 
Q 95 393.8 95 395.8 
L 95 409.478125 
Q 95 411.478125 97 411.478125 
z
" style="fill: #ffffff; opacity: 0.8; stroke: #cccccc; stroke-linejoin: miter"/>
    </g>
    <g id="line2d_60">
     <g>
      <use xlink:href="#m1fdb55b473" x="109" y="401.898438" style="fill: #ff0000; stroke: #ff0000"/>
     </g>
    </g>
    <g id="text_44">
     <!-- (weighted residuals)^2 -->
     <g transform="translate(127 405.398438) scale(0.1 -0.1)">
      <defs>
       <path id="DejaVuSans-28" d="M 1984 4856 
Q 1566 4138 1362 3434 
Q 1159 2731 1159 2009 
Q 1159 1288 1364 580 
Q 1569 -128 1984 -844 
L 1484 -844 
Q 1016 -109 783 600 
Q 550 1309 550 2009 
Q 550 2706 781 3412 
Q 1013 4119 1484 4856 
L 1984 4856 
z
" transform="scale(0.015625)"/>
       <path id="DejaVuSans-77" d="M 269 3500 
L 844 3500 
L 1563 769 
L 2278 3500 
L 2956 3500 
L 3675 769 
L 4391 3500 
L 4966 3500 
L 4050 0 
L 3372 0 
L 2619 2869 
L 1863 0 
L 1184 0 
L 269 3500 
z
" transform="scale(0.015625)"/>
       <path id="DejaVuSans-68" d="M 3513 2113 
L 3513 0 
L 2938 0 
L 2938 2094 
Q 2938 2591 2744 2837 
Q 2550 3084 2163 3084 
Q 1697 3084 1428 2787 
Q 1159 2491 1159 1978 
L 1159 0 
L 581 0 
L 581 4863 
L 1159 4863 
L 1159 2956 
Q 1366 3272 1645 3428 
Q 1925 3584 2291 3584 
Q 2894 3584 3203 3211 
Q 3513 2838 3513 2113 
z
" transform="scale(0.015625)"/>
       <path id="DejaVuSans-20" transform="scale(0.015625)"/>
       <path id="DejaVuSans-29" d="M 513 4856 
L 1013 4856 
Q 1481 4119 1714 3412 
Q 1947 2706 1947 2009 
Q 1947 1309 1714 600 
Q 1481 -109 1013 -844 
L 513 -844 
Q 928 -128 1133 580 
Q 1338 1288 1338 2009 
Q 1338 2731 1133 3434 
Q 928 4138 513 4856 
z
" transform="scale(0.015625)"/>
       <path id="DejaVuSans-5e" d="M 2988 4666 
L 4684 2925 
L 4056 2925 
L 2681 4159 
L 1306 2925 
L 678 2925 
L 2375 4666 
L 2988 4666 
z
" transform="scale(0.015625)"/>
      </defs>
      <use xlink:href="#DejaVuSans-28"/>
      <use xlink:href="#DejaVuSans-77" x="39.013672"/>
      <use xlink:href="#DejaVuSans-65" x="120.800781"/>
      <use xlink:href="#DejaVuSans-69" x="182.324219"/>
      <use xlink:href="#DejaVuSans-67" x="210.107422"/>
      <use xlink:href="#DejaVuSans-68" x="273.583984"/>
      <use xlink:href="#DejaVuSans-74" x="336.962891"/>
      <use xlink:href="#DejaVuSans-65" x="376.171875"/>
      <use xlink:href="#DejaVuSans-64" x="437.695312"/>
      <use xlink:href="#DejaVuSans-20" x="501.171875"/>
      <use xlink:href="#DejaVuSans-72" x="532.958984"/>
      <use xlink:href="#DejaVuSans-65" x="571.822266"/>
      <use xlink:href="#DejaVuSans-73" x="633.345703"/>
      <use xlink:href="#DejaVuSans-69" x="685.445312"/>
      <use xlink:href="#DejaVuSans-64" x="713.228516"/>
      <use xlink:href="#DejaVuSans-75" x="776.705078"/>
      <use xlink:href="#DejaVuSans-61" x="840.083984"/>
      <use xlink:href="#DejaVuSans-6c" x="901.363281"/>
      <use xlink:href="#DejaVuSans-73" x="929.146484"/>
      <use xlink:href="#DejaVuSans-29" x="981.246094"/>
      <use xlink:href="#DejaVuSans-5e" x="1020.259766"/>
      <use xlink:href="#DejaVuSans-32" x="1104.048828"/>
     </g>
    </g>
   </g>
  </g>
  <g id="axes_4">
   <g id="patch_20">
    <path d="M 394.363636 640.8 
L 648 640.8 
L 648 388.8 
L 394.363636 388.8 
z
" style="fill: #ffffff"/>
   </g>
   <g id="PolyCollection_4">
    <path d="M 568.921169 132632.591763 
L 568.921169 132632.591763 
L 586.893631 629.345455 
L 640.811015 400.254545 
L 640.811015 132632.591763 
L 640.811015 132632.591763 
L 586.893631 132632.591763 
L 568.921169 132632.591763 
z
" clip-path="url(#p997eabb825)" style="fill: #8b0000; fill-opacity: 0.4; stroke: #8b0000; stroke-opacity: 0.4"/>
   </g>
   <g id="matplotlib.axis_7">
    <g id="xtick_13">
     <g id="line2d_61">
      <g>
       <use xlink:href="#m7a9733fed3" x="444.112408" y="640.8" style="stroke: #000000; stroke-width: 0.8"/>
      </g>
     </g>
     <g id="text_45">
      <!-- −10000 -->
      <g transform="translate(424.016315 655.398438) scale(0.1 -0.1)">
       <use xlink:href="#DejaVuSans-2212"/>
       <use xlink:href="#DejaVuSans-31" x="83.789062"/>
       <use xlink:href="#DejaVuSans-30" x="147.412109"/>
       <use xlink:href="#DejaVuSans-30" x="211.035156"/>
       <use xlink:href="#DejaVuSans-30" x="274.658203"/>
       <use xlink:href="#DejaVuSans-30" x="338.28125"/>
      </g>
     </g>
    </g>
    <g id="xtick_14">
     <g id="line2d_62">
      <g>
       <use xlink:href="#m7a9733fed3" x="506.516789" y="640.8" style="stroke: #000000; stroke-width: 0.8"/>
      </g>
     </g>
     <g id="text_46">
      <!-- −5000 -->
      <g transform="translate(489.601945 655.398438) scale(0.1 -0.1)">
       <use xlink:href="#DejaVuSans-2212"/>
       <use xlink:href="#DejaVuSans-35" x="83.789062"/>
       <use xlink:href="#DejaVuSans-30" x="147.412109"/>
       <use xlink:href="#DejaVuSans-30" x="211.035156"/>
       <use xlink:href="#DejaVuSans-30" x="274.658203"/>
      </g>
     </g>
    </g>
    <g id="xtick_15">
     <g id="line2d_63">
      <g>
       <use xlink:href="#m7a9733fed3" x="568.921169" y="640.8" style="stroke: #000000; stroke-width: 0.8"/>
      </g>
     </g>
     <g id="text_47">
      <!-- 0 -->
      <g transform="translate(565.739919 655.398438) scale(0.1 -0.1)">
       <use xlink:href="#DejaVuSans-30"/>
      </g>
     </g>
    </g>
    <g id="xtick_16">
     <g id="line2d_64">
      <g>
       <use xlink:href="#m7a9733fed3" x="631.32555" y="640.8" style="stroke: #000000; stroke-width: 0.8"/>
      </g>
     </g>
     <g id="text_48">
      <!-- 5000 -->
      <g transform="translate(618.60055 655.398438) scale(0.1 -0.1)">
       <use xlink:href="#DejaVuSans-35"/>
       <use xlink:href="#DejaVuSans-30" x="63.623047"/>
       <use xlink:href="#DejaVuSans-30" x="127.246094"/>
       <use xlink:href="#DejaVuSans-30" x="190.869141"/>
      </g>
     </g>
    </g>
    <g id="text_49">
     <!-- time -->
     <g transform="translate(507.626506 670.59625) scale(0.12 -0.12)">
      <use xlink:href="#DejaVuSans-74"/>
      <use xlink:href="#DejaVuSans-69" x="39.208984"/>
      <use xlink:href="#DejaVuSans-6d" x="66.992188"/>
      <use xlink:href="#DejaVuSans-65" x="164.404297"/>
     </g>
    </g>
   </g>
   <g id="matplotlib.axis_8">
    <g id="ytick_27">
     <g id="line2d_65">
      <g>
       <use xlink:href="#m48a6ead7cb" x="394.363636" y="518.240202" style="stroke: #000000; stroke-width: 0.8"/>
      </g>
     </g>
     <g id="text_50">
      <!-- $\mathdefault{10^{0}}$ -->
      <g transform="translate(369.763636 522.039421) scale(0.1 -0.1)">
       <use xlink:href="#DejaVuSans-31" transform="translate(0 0.765625)"/>
       <use xlink:href="#DejaVuSans-30" transform="translate(63.623047 0.765625)"/>
       <use xlink:href="#DejaVuSans-30" transform="translate(128.203125 39.046875) scale(0.7)"/>
      </g>
     </g>
    </g>
    <g id="ytick_28">
     <g id="line2d_66">
      <defs>
       <path id="maa4db7a5c7" d="M 0 0 
L -2 0 
" style="stroke: #000000; stroke-width: 0.6"/>
      </defs>
      <g>
       <use xlink:href="#maa4db7a5c7" x="394.363636" y="610.584171" style="stroke: #000000; stroke-width: 0.6"/>
      </g>
     </g>
    </g>
    <g id="ytick_29">
     <g id="line2d_67">
      <g>
       <use xlink:href="#maa4db7a5c7" x="394.363636" y="587.319988" style="stroke: #000000; stroke-width: 0.6"/>
      </g>
     </g>
    </g>
    <g id="ytick_30">
     <g id="line2d_68">
      <g>
       <use xlink:href="#maa4db7a5c7" x="394.363636" y="570.813788" style="stroke: #000000; stroke-width: 0.6"/>
      </g>
     </g>
    </g>
    <g id="ytick_31">
     <g id="line2d_69">
      <g>
       <use xlink:href="#maa4db7a5c7" x="394.363636" y="558.010585" style="stroke: #000000; stroke-width: 0.6"/>
      </g>
     </g>
    </g>
    <g id="ytick_32">
     <g id="line2d_70">
      <g>
       <use xlink:href="#maa4db7a5c7" x="394.363636" y="547.549606" style="stroke: #000000; stroke-width: 0.6"/>
      </g>
     </g>
    </g>
    <g id="ytick_33">
     <g id="line2d_71">
      <g>
       <use xlink:href="#maa4db7a5c7" x="394.363636" y="538.704974" style="stroke: #000000; stroke-width: 0.6"/>
      </g>
     </g>
    </g>
    <g id="ytick_34">
     <g id="line2d_72">
      <g>
       <use xlink:href="#maa4db7a5c7" x="394.363636" y="531.043405" style="stroke: #000000; stroke-width: 0.6"/>
      </g>
     </g>
    </g>
    <g id="ytick_35">
     <g id="line2d_73">
      <g>
       <use xlink:href="#maa4db7a5c7" x="394.363636" y="524.285423" style="stroke: #000000; stroke-width: 0.6"/>
      </g>
     </g>
    </g>
    <g id="ytick_36">
     <g id="line2d_74">
      <g>
       <use xlink:href="#maa4db7a5c7" x="394.363636" y="478.469819" style="stroke: #000000; stroke-width: 0.6"/>
      </g>
     </g>
    </g>
    <g id="ytick_37">
     <g id="line2d_75">
      <g>
       <use xlink:href="#maa4db7a5c7" x="394.363636" y="455.205637" style="stroke: #000000; stroke-width: 0.6"/>
      </g>
     </g>
    </g>
    <g id="ytick_38">
     <g id="line2d_76">
      <g>
       <use xlink:href="#maa4db7a5c7" x="394.363636" y="438.699436" style="stroke: #000000; stroke-width: 0.6"/>
      </g>
     </g>
    </g>
    <g id="ytick_39">
     <g id="line2d_77">
      <g>
       <use xlink:href="#maa4db7a5c7" x="394.363636" y="425.896233" style="stroke: #000000; stroke-width: 0.6"/>
      </g>
     </g>
    </g>
    <g id="ytick_40">
     <g id="line2d_78">
      <g>
       <use xlink:href="#maa4db7a5c7" x="394.363636" y="415.435254" style="stroke: #000000; stroke-width: 0.6"/>
      </g>
     </g>
    </g>
    <g id="ytick_41">
     <g id="line2d_79">
      <g>
       <use xlink:href="#maa4db7a5c7" x="394.363636" y="406.590622" style="stroke: #000000; stroke-width: 0.6"/>
      </g>
     </g>
    </g>
    <g id="ytick_42">
     <g id="line2d_80">
      <g>
       <use xlink:href="#maa4db7a5c7" x="394.363636" y="398.929054" style="stroke: #000000; stroke-width: 0.6"/>
      </g>
     </g>
    </g>
    <g id="ytick_43">
     <g id="line2d_81">
      <g>
       <use xlink:href="#maa4db7a5c7" x="394.363636" y="392.171071" style="stroke: #000000; stroke-width: 0.6"/>
      </g>
     </g>
    </g>
   </g>
   <g id="line2d_82">
    <g clip-path="url(#p997eabb825)">
     <use xlink:href="#m1fdb55b473" x="579.921079" y="51841" style="fill: #ff0000; stroke: #ff0000"/>
     <use xlink:href="#m1fdb55b473" x="586.893631" y="629.345455" style="fill: #ff0000; stroke: #ff0000"/>
     <use xlink:href="#m1fdb55b473" x="640.811015" y="400.254545" style="fill: #ff0000; stroke: #ff0000"/>
    </g>
   </g>
   <g id="patch_21">
    <path d="M 394.363636 640.8 
L 394.363636 388.8 
" style="fill: none; stroke: #000000; stroke-width: 0.8; stroke-linejoin: miter; stroke-linecap: square"/>
   </g>
   <g id="patch_22">
    <path d="M 648 640.8 
L 648 388.8 
" style="fill: none; stroke: #000000; stroke-width: 0.8; stroke-linejoin: miter; stroke-linecap: square"/>
   </g>
   <g id="patch_23">
    <path d="M 394.363636 640.8 
L 648 640.8 
" style="fill: none; stroke: #000000; stroke-width: 0.8; stroke-linejoin: miter; stroke-linecap: square"/>
   </g>
   <g id="patch_24">
    <path d="M 394.363636 388.8 
L 648 388.8 
" style="fill: none; stroke: #000000; stroke-width: 0.8; stroke-linejoin: miter; stroke-linecap: square"/>
   </g>
   <g id="legend_4">
    <g id="patch_25">
     <path d="M 401.363636 411.478125 
L 550.132386 411.478125 
Q 552.132386 411.478125 552.132386 409.478125 
L 552.132386 395.8 
Q 552.132386 393.8 550.132386 393.8 
L 401.363636 393.8 
Q 399.363636 393.8 399.363636 395.8 
L 399.363636 409.478125 
Q 399.363636 411.478125 401.363636 411.478125 
z
" style="fill: #ffffff; opacity: 0.8; stroke: #cccccc; stroke-linejoin: miter"/>
    </g>
    <g id="line2d_83">
     <g>
      <use xlink:href="#m1fdb55b473" x="413.363636" y="401.898438" style="fill: #ff0000; stroke: #ff0000"/>
     </g>
    </g>
    <g id="text_51">
     <!-- (weighted residuals)^2 -->
     <g transform="translate(431.363636 405.398438) scale(0.1 -0.1)">
      <use xlink:href="#DejaVuSans-28"/>
      <use xlink:href="#DejaVuSans-77" x="39.013672"/>
      <use xlink:href="#DejaVuSans-65" x="120.800781"/>
      <use xlink:href="#DejaVuSans-69" x="182.324219"/>
      <use xlink:href="#DejaVuSans-67" x="210.107422"/>
      <use xlink:href="#DejaVuSans-68" x="273.583984"/>
      <use xlink:href="#DejaVuSans-74" x="336.962891"/>
      <use xlink:href="#DejaVuSans-65" x="376.171875"/>
      <use xlink:href="#DejaVuSans-64" x="437.695312"/>
      <use xlink:href="#DejaVuSans-20" x="501.171875"/>
      <use xlink:href="#DejaVuSans-72" x="532.958984"/>
      <use xlink:href="#DejaVuSans-65" x="571.822266"/>
      <use xlink:href="#DejaVuSans-73" x="633.345703"/>
      <use xlink:href="#DejaVuSans-69" x="685.445312"/>
      <use xlink:href="#DejaVuSans-64" x="713.228516"/>
      <use xlink:href="#DejaVuSans-75" x="776.705078"/>
      <use xlink:href="#DejaVuSans-61" x="840.083984"/>
      <use xlink:href="#DejaVuSans-6c" x="901.363281"/>
      <use xlink:href="#DejaVuSans-73" x="929.146484"/>
      <use xlink:href="#DejaVuSans-29" x="981.246094"/>
      <use xlink:href="#DejaVuSans-5e" x="1020.259766"/>
      <use xlink:href="#DejaVuSans-32" x="1104.048828"/>
     </g>
    </g>
   </g>
  </g>
 </g>
 <defs>
  <clipPath id="p33844a2e7e">
   <rect x="90" y="86.4" width="253.636364" height="252"/>
  </clipPath>
  <clipPath id="p54ba9c3398">
   <rect x="394.363636" y="86.4" width="253.636364" height="252"/>
  </clipPath>
  <clipPath id="pff90d9a316">
   <rect x="90" y="388.8" width="253.636364" height="252"/>
  </clipPath>
  <clipPath id="p997eabb825">
   <rect x="394.363636" y="388.8" width="253.636364" height="252"/>
  </clipPath>
 </defs>
</svg>
