<?xml version="1.0" encoding="utf-8" standalone="no"?>
<!DOCTYPE svg PUBLIC "-//W3C//DTD SVG 1.1//EN"
  "http://www.w3.org/Graphics/SVG/1.1/DTD/svg11.dtd">
<svg xmlns:xlink="http://www.w3.org/1999/xlink" width="720pt" height="720pt" viewBox="0 0 720 720" xmlns="http://www.w3.org/2000/svg" version="1.1">
 <metadata>
  <rdf:RDF xmlns:dc="http://purl.org/dc/elements/1.1/" xmlns:cc="http://creativecommons.org/ns#" xmlns:rdf="http://www.w3.org/1999/02/22-rdf-syntax-ns#">
   <cc:Work>
    <dc:type rdf:resource="http://purl.org/dc/dcmitype/StillImage"/>
    <dc:date>2025-06-10T14:18:40.317655</dc:date>
    <dc:format>image/svg+xml</dc:format>
    <dc:creator>
     <cc:Agent>
      <dc:title>Matplotlib v3.9.1, https://matplotlib.org/</dc:title>
     </cc:Agent>
    </dc:creator>
   </cc:Work>
  </rdf:RDF>
 </metadata>
 <defs>
  <style type="text/css">*{stroke-linejoin: round; stroke-linecap: butt}</style>
 </defs>
 <g id="figure_1">
  <g id="patch_1">
   <path d="M 0 720 
L 720 720 
L 720 0 
L 0 0 
z
" style="fill: #ffffff"/>
  </g>
  <g id="axes_1">
   <g id="patch_2">
    <path d="M 90 338.4 
L 343.636364 338.4 
L 343.636364 86.4 
L 90 86.4 
z
" style="fill: #ffffff"/>
   </g>
   <g id="PolyCollection_1">
    <defs>
     <path id="m227bc14337" d="M 103.684353 -400.338163 
L 103.684353 -400.849501 
L 106.309648 -400.427172 
L 108.934944 -399.588111 
L 111.560239 -398.34367 
L 114.185535 -396.863732 
L 116.810831 -393.054545 
L 308.457404 -400.625093 
L 311.082699 -401.090906 
L 313.707995 -400.769507 
L 316.33329 -400.654005 
L 318.958586 -400.799761 
L 321.583881 -401.053762 
L 321.583881 -400.338163 
L 321.583881 -400.338163 
L 318.958586 -400.338163 
L 316.33329 -400.338163 
L 313.707995 -400.338163 
L 311.082699 -400.338163 
L 308.457404 -400.338163 
L 116.810831 -400.338163 
L 114.185535 -400.338163 
L 111.560239 -400.338163 
L 108.934944 -400.338163 
L 106.309648 -400.338163 
L 103.684353 -400.338163 
z
" style="stroke: #ff8c00; stroke-opacity: 0.4"/>
    </defs>
    <g clip-path="url(#pdc7c29d7dd)">
     <use xlink:href="#m227bc14337" x="0" y="720" style="fill: #ff8c00; fill-opacity: 0.4; stroke: #ff8c00; stroke-opacity: 0.4"/>
    </g>
   </g>
   <g id="matplotlib.axis_1">
    <g id="xtick_1">
     <g id="line2d_1">
      <defs>
       <path id="mf04eb56c99" d="M 0 0 
L 0 3.5 
" style="stroke: #000000; stroke-width: 0.8"/>
      </defs>
      <g>
       <use xlink:href="#mf04eb56c99" x="101.059057" y="338.4" style="stroke: #000000; stroke-width: 0.8"/>
      </g>
     </g>
    </g>
    <g id="xtick_2">
     <g id="line2d_2">
      <g>
       <use xlink:href="#mf04eb56c99" x="155.752714" y="338.4" style="stroke: #000000; stroke-width: 0.8"/>
      </g>
     </g>
    </g>
    <g id="xtick_3">
     <g id="line2d_3">
      <g>
       <use xlink:href="#mf04eb56c99" x="210.446371" y="338.4" style="stroke: #000000; stroke-width: 0.8"/>
      </g>
     </g>
    </g>
    <g id="xtick_4">
     <g id="line2d_4">
      <g>
       <use xlink:href="#mf04eb56c99" x="265.140028" y="338.4" style="stroke: #000000; stroke-width: 0.8"/>
      </g>
     </g>
    </g>
    <g id="xtick_5">
     <g id="line2d_5">
      <g>
       <use xlink:href="#mf04eb56c99" x="319.833684" y="338.4" style="stroke: #000000; stroke-width: 0.8"/>
      </g>
     </g>
    </g>
   </g>
   <g id="matplotlib.axis_2">
    <g id="ytick_1">
     <g id="line2d_6">
      <defs>
       <path id="m21cb3e923c" d="M 0 0 
L -3.5 0 
" style="stroke: #000000; stroke-width: 0.8"/>
      </defs>
      <g>
       <use xlink:href="#m21cb3e923c" x="90" y="319.661837" style="stroke: #000000; stroke-width: 0.8"/>
      </g>
     </g>
     <g id="text_1">
      <!-- 0 -->
      <g transform="translate(76.6375 323.461056) scale(0.1 -0.1)">
       <defs>
        <path id="DejaVuSans-30" d="M 2034 4250 
Q 1547 4250 1301 3770 
Q 1056 3291 1056 2328 
Q 1056 1369 1301 889 
Q 1547 409 2034 409 
Q 2525 409 2770 889 
Q 3016 1369 3016 2328 
Q 3016 3291 2770 3770 
Q 2525 4250 2034 4250 
z
M 2034 4750 
Q 2819 4750 3233 4129 
Q 3647 3509 3647 2328 
Q 3647 1150 3233 529 
Q 2819 -91 2034 -91 
Q 1250 -91 836 529 
Q 422 1150 422 2328 
Q 422 3509 836 4129 
Q 1250 4750 2034 4750 
z
" transform="scale(0.015625)"/>
       </defs>
       <use xlink:href="#DejaVuSans-30"/>
      </g>
     </g>
    </g>
    <g id="ytick_2">
     <g id="line2d_7">
      <g>
       <use xlink:href="#m21cb3e923c" x="90" y="281.442055" style="stroke: #000000; stroke-width: 0.8"/>
      </g>
     </g>
     <g id="text_2">
      <!-- 10 -->
      <g transform="translate(70.275 285.241273) scale(0.1 -0.1)">
       <defs>
        <path id="DejaVuSans-31" d="M 794 531 
L 1825 531 
L 1825 4091 
L 703 3866 
L 703 4441 
L 1819 4666 
L 2450 4666 
L 2450 531 
L 3481 531 
L 3481 0 
L 794 0 
L 794 531 
z
" transform="scale(0.015625)"/>
       </defs>
       <use xlink:href="#DejaVuSans-31"/>
       <use xlink:href="#DejaVuSans-30" x="63.623047"/>
      </g>
     </g>
    </g>
    <g id="ytick_3">
     <g id="line2d_8">
      <g>
       <use xlink:href="#m21cb3e923c" x="90" y="243.222272" style="stroke: #000000; stroke-width: 0.8"/>
      </g>
     </g>
     <g id="text_3">
      <!-- 20 -->
      <g transform="translate(70.275 247.021491) scale(0.1 -0.1)">
       <defs>
        <path id="DejaVuSans-32" d="M 1228 531 
L 3431 531 
L 3431 0 
L 469 0 
L 469 531 
Q 828 903 1448 1529 
Q 2069 2156 2228 2338 
Q 2531 2678 2651 2914 
Q 2772 3150 2772 3378 
Q 2772 3750 2511 3984 
Q 2250 4219 1831 4219 
Q 1534 4219 1204 4116 
Q 875 4013 500 3803 
L 500 4441 
Q 881 4594 1212 4672 
Q 1544 4750 1819 4750 
Q 2544 4750 2975 4387 
Q 3406 4025 3406 3419 
Q 3406 3131 3298 2873 
Q 3191 2616 2906 2266 
Q 2828 2175 2409 1742 
Q 1991 1309 1228 531 
z
" transform="scale(0.015625)"/>
       </defs>
       <use xlink:href="#DejaVuSans-32"/>
       <use xlink:href="#DejaVuSans-30" x="63.623047"/>
      </g>
     </g>
    </g>
    <g id="ytick_4">
     <g id="line2d_9">
      <g>
       <use xlink:href="#m21cb3e923c" x="90" y="205.00249" style="stroke: #000000; stroke-width: 0.8"/>
      </g>
     </g>
     <g id="text_4">
      <!-- 30 -->
      <g transform="translate(70.275 208.801709) scale(0.1 -0.1)">
       <defs>
        <path id="DejaVuSans-33" d="M 2597 2516 
Q 3050 2419 3304 2112 
Q 3559 1806 3559 1356 
Q 3559 666 3084 287 
Q 2609 -91 1734 -91 
Q 1441 -91 1130 -33 
Q 819 25 488 141 
L 488 750 
Q 750 597 1062 519 
Q 1375 441 1716 441 
Q 2309 441 2620 675 
Q 2931 909 2931 1356 
Q 2931 1769 2642 2001 
Q 2353 2234 1838 2234 
L 1294 2234 
L 1294 2753 
L 1863 2753 
Q 2328 2753 2575 2939 
Q 2822 3125 2822 3475 
Q 2822 3834 2567 4026 
Q 2313 4219 1838 4219 
Q 1578 4219 1281 4162 
Q 984 4106 628 3988 
L 628 4550 
Q 988 4650 1302 4700 
Q 1616 4750 1894 4750 
Q 2613 4750 3031 4423 
Q 3450 4097 3450 3541 
Q 3450 3153 3228 2886 
Q 3006 2619 2597 2516 
z
" transform="scale(0.015625)"/>
       </defs>
       <use xlink:href="#DejaVuSans-33"/>
       <use xlink:href="#DejaVuSans-30" x="63.623047"/>
      </g>
     </g>
    </g>
    <g id="ytick_5">
     <g id="line2d_10">
      <g>
       <use xlink:href="#m21cb3e923c" x="90" y="166.782708" style="stroke: #000000; stroke-width: 0.8"/>
      </g>
     </g>
     <g id="text_5">
      <!-- 40 -->
      <g transform="translate(70.275 170.581926) scale(0.1 -0.1)">
       <defs>
        <path id="DejaVuSans-34" d="M 2419 4116 
L 825 1625 
L 2419 1625 
L 2419 4116 
z
M 2253 4666 
L 3047 4666 
L 3047 1625 
L 3713 1625 
L 3713 1100 
L 3047 1100 
L 3047 0 
L 2419 0 
L 2419 1100 
L 313 1100 
L 313 1709 
L 2253 4666 
z
" transform="scale(0.015625)"/>
       </defs>
       <use xlink:href="#DejaVuSans-34"/>
       <use xlink:href="#DejaVuSans-30" x="63.623047"/>
      </g>
     </g>
    </g>
    <g id="ytick_6">
     <g id="line2d_11">
      <g>
       <use xlink:href="#m21cb3e923c" x="90" y="128.562925" style="stroke: #000000; stroke-width: 0.8"/>
      </g>
     </g>
     <g id="text_6">
      <!-- 50 -->
      <g transform="translate(70.275 132.362144) scale(0.1 -0.1)">
       <defs>
        <path id="DejaVuSans-35" d="M 691 4666 
L 3169 4666 
L 3169 4134 
L 1269 4134 
L 1269 2991 
Q 1406 3038 1543 3061 
Q 1681 3084 1819 3084 
Q 2600 3084 3056 2656 
Q 3513 2228 3513 1497 
Q 3513 744 3044 326 
Q 2575 -91 1722 -91 
Q 1428 -91 1123 -41 
Q 819 9 494 109 
L 494 744 
Q 775 591 1075 516 
Q 1375 441 1709 441 
Q 2250 441 2565 725 
Q 2881 1009 2881 1497 
Q 2881 1984 2565 2268 
Q 2250 2553 1709 2553 
Q 1456 2553 1204 2497 
Q 953 2441 691 2322 
L 691 4666 
z
" transform="scale(0.015625)"/>
       </defs>
       <use xlink:href="#DejaVuSans-35"/>
       <use xlink:href="#DejaVuSans-30" x="63.623047"/>
      </g>
     </g>
    </g>
    <g id="ytick_7">
     <g id="line2d_12">
      <g>
       <use xlink:href="#m21cb3e923c" x="90" y="90.343143" style="stroke: #000000; stroke-width: 0.8"/>
      </g>
     </g>
     <g id="text_7">
      <!-- 60 -->
      <g transform="translate(70.275 94.142362) scale(0.1 -0.1)">
       <defs>
        <path id="DejaVuSans-36" d="M 2113 2584 
Q 1688 2584 1439 2293 
Q 1191 2003 1191 1497 
Q 1191 994 1439 701 
Q 1688 409 2113 409 
Q 2538 409 2786 701 
Q 3034 994 3034 1497 
Q 3034 2003 2786 2293 
Q 2538 2584 2113 2584 
z
M 3366 4563 
L 3366 3988 
Q 3128 4100 2886 4159 
Q 2644 4219 2406 4219 
Q 1781 4219 1451 3797 
Q 1122 3375 1075 2522 
Q 1259 2794 1537 2939 
Q 1816 3084 2150 3084 
Q 2853 3084 3261 2657 
Q 3669 2231 3669 1497 
Q 3669 778 3244 343 
Q 2819 -91 2113 -91 
Q 1303 -91 875 529 
Q 447 1150 447 2328 
Q 447 3434 972 4092 
Q 1497 4750 2381 4750 
Q 2619 4750 2861 4703 
Q 3103 4656 3366 4563 
z
" transform="scale(0.015625)"/>
       </defs>
       <use xlink:href="#DejaVuSans-36"/>
       <use xlink:href="#DejaVuSans-30" x="63.623047"/>
      </g>
     </g>
    </g>
    <g id="text_8">
     <!-- KI__UGE -->
     <g transform="translate(63.445625 236.93625) rotate(-90) scale(0.12 -0.12)">
      <defs>
       <path id="DejaVuSans-4b" d="M 628 4666 
L 1259 4666 
L 1259 2694 
L 3353 4666 
L 4166 4666 
L 1850 2491 
L 4331 0 
L 3500 0 
L 1259 2247 
L 1259 0 
L 628 0 
L 628 4666 
z
" transform="scale(0.015625)"/>
       <path id="DejaVuSans-49" d="M 628 4666 
L 1259 4666 
L 1259 0 
L 628 0 
L 628 4666 
z
" transform="scale(0.015625)"/>
       <path id="DejaVuSans-5f" d="M 3263 -1063 
L 3263 -1509 
L -63 -1509 
L -63 -1063 
L 3263 -1063 
z
" transform="scale(0.015625)"/>
       <path id="DejaVuSans-55" d="M 556 4666 
L 1191 4666 
L 1191 1831 
Q 1191 1081 1462 751 
Q 1734 422 2344 422 
Q 2950 422 3222 751 
Q 3494 1081 3494 1831 
L 3494 4666 
L 4128 4666 
L 4128 1753 
Q 4128 841 3676 375 
Q 3225 -91 2344 -91 
Q 1459 -91 1007 375 
Q 556 841 556 1753 
L 556 4666 
z
" transform="scale(0.015625)"/>
       <path id="DejaVuSans-47" d="M 3809 666 
L 3809 1919 
L 2778 1919 
L 2778 2438 
L 4434 2438 
L 4434 434 
Q 4069 175 3628 42 
Q 3188 -91 2688 -91 
Q 1594 -91 976 548 
Q 359 1188 359 2328 
Q 359 3472 976 4111 
Q 1594 4750 2688 4750 
Q 3144 4750 3555 4637 
Q 3966 4525 4313 4306 
L 4313 3634 
Q 3963 3931 3569 4081 
Q 3175 4231 2741 4231 
Q 1884 4231 1454 3753 
Q 1025 3275 1025 2328 
Q 1025 1384 1454 906 
Q 1884 428 2741 428 
Q 3075 428 3337 486 
Q 3600 544 3809 666 
z
" transform="scale(0.015625)"/>
       <path id="DejaVuSans-45" d="M 628 4666 
L 3578 4666 
L 3578 4134 
L 1259 4134 
L 1259 2753 
L 3481 2753 
L 3481 2222 
L 1259 2222 
L 1259 531 
L 3634 531 
L 3634 0 
L 628 0 
L 628 4666 
z
" transform="scale(0.015625)"/>
      </defs>
      <use xlink:href="#DejaVuSans-4b"/>
      <use xlink:href="#DejaVuSans-49" x="65.576172"/>
      <use xlink:href="#DejaVuSans-5f" x="95.068359"/>
      <use xlink:href="#DejaVuSans-5f" x="145.068359"/>
      <use xlink:href="#DejaVuSans-55" x="195.068359"/>
      <use xlink:href="#DejaVuSans-47" x="268.261719"/>
      <use xlink:href="#DejaVuSans-45" x="345.751953"/>
     </g>
    </g>
   </g>
   <g id="line2d_13">
    <path d="M 90 319.661837 
L 343.636364 319.661837 
" clip-path="url(#pdc7c29d7dd)" style="fill: none; stroke: #000000; stroke-width: 1.5; stroke-linecap: square"/>
   </g>
   <g id="line2d_14">
    <defs>
     <path id="m3f891dbded" d="M 0 3 
C 0.795609 3 1.55874 2.683901 2.12132 2.12132 
C 2.683901 1.55874 3 0.795609 3 0 
C 3 -0.795609 2.683901 -1.55874 2.12132 -2.12132 
C 1.55874 -2.683901 0.795609 -3 0 -3 
C -0.795609 -3 -1.55874 -2.683901 -2.12132 -2.12132 
C -2.683901 -1.55874 -3 -0.795609 -3 0 
C -3 0.795609 -2.683901 1.55874 -2.12132 2.12132 
C -1.55874 2.683901 -0.795609 3 0 3 
z
" style="stroke: #ff8c00"/>
    </defs>
    <g clip-path="url(#pdc7c29d7dd)">
     <use xlink:href="#m3f891dbded" x="103.684353" y="319.150499" style="fill: #ff8c00; stroke: #ff8c00"/>
     <use xlink:href="#m3f891dbded" x="106.309648" y="319.572828" style="fill: #ff8c00; stroke: #ff8c00"/>
     <use xlink:href="#m3f891dbded" x="108.934944" y="320.411889" style="fill: #ff8c00; stroke: #ff8c00"/>
     <use xlink:href="#m3f891dbded" x="111.560239" y="321.65633" style="fill: #ff8c00; stroke: #ff8c00"/>
     <use xlink:href="#m3f891dbded" x="114.185535" y="323.136268" style="fill: #ff8c00; stroke: #ff8c00"/>
     <use xlink:href="#m3f891dbded" x="116.810831" y="326.945455" style="fill: #ff8c00; stroke: #ff8c00"/>
     <use xlink:href="#m3f891dbded" x="308.457404" y="319.374907" style="fill: #ff8c00; stroke: #ff8c00"/>
     <use xlink:href="#m3f891dbded" x="311.082699" y="318.909094" style="fill: #ff8c00; stroke: #ff8c00"/>
     <use xlink:href="#m3f891dbded" x="313.707995" y="319.230493" style="fill: #ff8c00; stroke: #ff8c00"/>
     <use xlink:href="#m3f891dbded" x="316.33329" y="319.345995" style="fill: #ff8c00; stroke: #ff8c00"/>
     <use xlink:href="#m3f891dbded" x="318.958586" y="319.200239" style="fill: #ff8c00; stroke: #ff8c00"/>
     <use xlink:href="#m3f891dbded" x="321.583881" y="318.946238" style="fill: #ff8c00; stroke: #ff8c00"/>
    </g>
   </g>
   <g id="line2d_15">
    <path d="M 101.059057 319.661837 
L 101.110297 319.552772 
L 101.326332 316.480636 
L 104.482067 270.149414 
L 105.603521 256.956195 
L 106.40456 249.968868 
L 107.045391 246.103512 
L 107.606118 243.889654 
L 108.166845 242.560516 
L 108.647468 241.950825 
L 109.128092 241.691708 
L 109.768923 241.659624 
L 116.810831 241.659921 
L 116.810831 319.661837 
L 116.915787 318.766451 
L 118.381892 296.494679 
L 120.43919 267.184701 
L 121.585075 253.67049 
L 122.567261 244.489087 
L 123.631297 236.687429 
L 124.940879 228.854018 
L 127.06895 217.664744 
L 131.161394 197.496349 
L 132.562604 190.796517 
L 132.562604 319.661837 
L 132.669876 318.552026 
L 134.305582 293.716981 
L 136.30551 265.344431 
L 137.613155 249.793655 
L 138.9208 237.004255 
L 140.689967 222.177435 
L 144.305221 194.209116 
L 148.314377 164.07381 
L 148.314377 319.661837 
L 148.424745 318.407113 
L 150.517723 286.751443 
L 152.362871 261.124276 
L 153.765184 244.595231 
L 155.462721 227.363292 
L 158.783989 196.464069 
L 164.06615 148.73822 
L 164.06615 319.661837 
L 164.175033 318.366061 
L 166.362475 285.300537 
L 168.246774 259.178327 
L 169.803369 240.604985 
L 172.097298 216.278914 
L 177.995973 156.87848 
L 179.817923 138.780135 
L 179.817923 319.661837 
L 179.928938 318.292937 
L 185.024029 246.170603 
L 187.234029 221.047587 
L 192.807071 161.129297 
L 195.569696 131.826579 
L 195.569696 319.661837 
L 195.671772 318.390286 
L 197.674548 288.02963 
L 199.792528 258.235965 
L 201.74107 234.216724 
L 205.468715 191.821817 
L 211.321469 126.693065 
L 211.321469 319.661837 
L 211.424533 318.352843 
L 213.638666 284.848742 
L 215.720985 255.761998 
L 217.890068 228.905967 
L 222.922341 170.380631 
L 227.073242 122.775218 
L 227.073242 319.661837 
L 227.179237 318.29226 
L 232.652036 240.518112 
L 236.139938 198.450257 
L 242.825016 119.677878 
L 242.825016 319.661837 
L 242.930162 318.289689 
L 248.540025 238.52358 
L 252.608781 188.808562 
L 258.576789 117.18934 
L 258.576789 319.661837 
L 258.684289 318.243498 
L 264.295549 238.222939 
L 268.662597 184.171838 
L 274.328562 115.15025 
L 274.328562 319.661837 
L 274.435464 318.242058 
L 280.170315 236.431909 
L 285.045776 175.525338 
L 290.080335 113.459043 
L 290.080335 319.661837 
L 290.186699 318.241371 
L 296.033772 234.796466 
L 301.469162 166.353822 
L 305.832108 112.035214 
L 305.832108 319.661837 
L 305.942751 318.171889 
L 311.565956 237.465829 
L 316.738429 171.699455 
L 322.240205 102.613563 
L 322.240205 102.613563 
" clip-path="url(#pdc7c29d7dd)" style="fill: none; stroke: #0000ff; stroke-width: 1.5; stroke-linecap: square"/>
   </g>
   <g id="line2d_16">
    <defs>
     <path id="m1f49e17e2c" d="M 0 3 
C 0.795609 3 1.55874 2.683901 2.12132 2.12132 
C 2.683901 1.55874 3 0.795609 3 0 
C 3 -0.795609 2.683901 -1.55874 2.12132 -2.12132 
C 1.55874 -2.683901 0.795609 -3 0 -3 
C -0.795609 -3 -1.55874 -2.683901 -2.12132 -2.12132 
C -2.683901 -1.55874 -3 -0.795609 -3 0 
C -3 0.795609 -2.683901 1.55874 -2.12132 2.12132 
C -1.55874 2.683901 -0.795609 3 0 3 
z
" style="stroke: #0000ff"/>
    </defs>
    <g clip-path="url(#pdc7c29d7dd)">
     <use xlink:href="#m1f49e17e2c" x="103.684353" y="281.114056" style="fill: #0000ff; stroke: #0000ff"/>
     <use xlink:href="#m1f49e17e2c" x="106.309648" y="250.674193" style="fill: #0000ff; stroke: #0000ff"/>
     <use xlink:href="#m1f49e17e2c" x="108.934944" y="241.761934" style="fill: #0000ff; stroke: #0000ff"/>
     <use xlink:href="#m1f49e17e2c" x="111.560239" y="241.659921" style="fill: #0000ff; stroke: #0000ff"/>
     <use xlink:href="#m1f49e17e2c" x="114.185535" y="241.659921" style="fill: #0000ff; stroke: #0000ff"/>
     <use xlink:href="#m1f49e17e2c" x="116.810831" y="319.661837" style="fill: #0000ff; stroke: #0000ff"/>
     <use xlink:href="#m1f49e17e2c" x="308.457404" y="280.177347" style="fill: #0000ff; stroke: #0000ff"/>
     <use xlink:href="#m1f49e17e2c" x="311.082699" y="243.786086" style="fill: #0000ff; stroke: #0000ff"/>
     <use xlink:href="#m1f49e17e2c" x="313.707995" y="210.015875" style="fill: #0000ff; stroke: #0000ff"/>
     <use xlink:href="#m1f49e17e2c" x="316.33329" y="176.808084" style="fill: #0000ff; stroke: #0000ff"/>
     <use xlink:href="#m1f49e17e2c" x="318.958586" y="143.757937" style="fill: #0000ff; stroke: #0000ff"/>
     <use xlink:href="#m1f49e17e2c" x="321.583881" y="110.827697" style="fill: #0000ff; stroke: #0000ff"/>
    </g>
   </g>
   <g id="line2d_17">
    <defs>
     <path id="m5122d60198" d="M -3 3 
L 3 3 
L 3 -3 
L -3 -3 
z
" style="stroke: #000000; stroke-linejoin: miter"/>
    </defs>
    <g clip-path="url(#pdc7c29d7dd)">
     <use xlink:href="#m5122d60198" x="103.684353" y="296.685783" style="stroke: #000000; stroke-linejoin: miter"/>
     <use xlink:href="#m5122d60198" x="106.309648" y="253.384758" style="stroke: #000000; stroke-linejoin: miter"/>
     <use xlink:href="#m5122d60198" x="108.934944" y="218.920677" style="stroke: #000000; stroke-linejoin: miter"/>
     <use xlink:href="#m5122d60198" x="111.560239" y="180.921818" style="stroke: #000000; stroke-linejoin: miter"/>
     <use xlink:href="#m5122d60198" x="114.185535" y="135.853404" style="stroke: #000000; stroke-linejoin: miter"/>
     <use xlink:href="#m5122d60198" x="116.810831" y="97.854545" style="stroke: #000000; stroke-linejoin: miter"/>
     <use xlink:href="#m5122d60198" x="308.457404" y="288.915196" style="stroke: #000000; stroke-linejoin: miter"/>
     <use xlink:href="#m5122d60198" x="311.082699" y="266.709289" style="stroke: #000000; stroke-linejoin: miter"/>
     <use xlink:href="#m5122d60198" x="313.707995" y="223.151549" style="stroke: #000000; stroke-linejoin: miter"/>
     <use xlink:href="#m5122d60198" x="316.33329" y="186.426395" style="stroke: #000000; stroke-linejoin: miter"/>
     <use xlink:href="#m5122d60198" x="318.958586" y="157.814938" style="stroke: #000000; stroke-linejoin: miter"/>
     <use xlink:href="#m5122d60198" x="321.583881" y="132.619774" style="stroke: #000000; stroke-linejoin: miter"/>
    </g>
   </g>
   <g id="patch_3">
    <path d="M 90 338.4 
L 90 86.4 
" style="fill: none; stroke: #000000; stroke-width: 0.8; stroke-linejoin: miter; stroke-linecap: square"/>
   </g>
   <g id="patch_4">
    <path d="M 343.636364 338.4 
L 343.636364 86.4 
" style="fill: none; stroke: #000000; stroke-width: 0.8; stroke-linejoin: miter; stroke-linecap: square"/>
   </g>
   <g id="patch_5">
    <path d="M 90 338.4 
L 343.636364 338.4 
" style="fill: none; stroke: #000000; stroke-width: 0.8; stroke-linejoin: miter; stroke-linecap: square"/>
   </g>
   <g id="patch_6">
    <path d="M 90 86.4 
L 343.636364 86.4 
" style="fill: none; stroke: #000000; stroke-width: 0.8; stroke-linejoin: miter; stroke-linecap: square"/>
   </g>
   <g id="text_9">
    <!-- FDAMB102002.fm_dap20_uge -->
    <g transform="translate(111.391619 80.4) scale(0.14 -0.14)">
     <defs>
      <path id="DejaVuSans-46" d="M 628 4666 
L 3309 4666 
L 3309 4134 
L 1259 4134 
L 1259 2759 
L 3109 2759 
L 3109 2228 
L 1259 2228 
L 1259 0 
L 628 0 
L 628 4666 
z
" transform="scale(0.015625)"/>
      <path id="DejaVuSans-44" d="M 1259 4147 
L 1259 519 
L 2022 519 
Q 2988 519 3436 956 
Q 3884 1394 3884 2338 
Q 3884 3275 3436 3711 
Q 2988 4147 2022 4147 
L 1259 4147 
z
M 628 4666 
L 1925 4666 
Q 3281 4666 3915 4102 
Q 4550 3538 4550 2338 
Q 4550 1131 3912 565 
Q 3275 0 1925 0 
L 628 0 
L 628 4666 
z
" transform="scale(0.015625)"/>
      <path id="DejaVuSans-41" d="M 2188 4044 
L 1331 1722 
L 3047 1722 
L 2188 4044 
z
M 1831 4666 
L 2547 4666 
L 4325 0 
L 3669 0 
L 3244 1197 
L 1141 1197 
L 716 0 
L 50 0 
L 1831 4666 
z
" transform="scale(0.015625)"/>
      <path id="DejaVuSans-4d" d="M 628 4666 
L 1569 4666 
L 2759 1491 
L 3956 4666 
L 4897 4666 
L 4897 0 
L 4281 0 
L 4281 4097 
L 3078 897 
L 2444 897 
L 1241 4097 
L 1241 0 
L 628 0 
L 628 4666 
z
" transform="scale(0.015625)"/>
      <path id="DejaVuSans-42" d="M 1259 2228 
L 1259 519 
L 2272 519 
Q 2781 519 3026 730 
Q 3272 941 3272 1375 
Q 3272 1813 3026 2020 
Q 2781 2228 2272 2228 
L 1259 2228 
z
M 1259 4147 
L 1259 2741 
L 2194 2741 
Q 2656 2741 2882 2914 
Q 3109 3088 3109 3444 
Q 3109 3797 2882 3972 
Q 2656 4147 2194 4147 
L 1259 4147 
z
M 628 4666 
L 2241 4666 
Q 2963 4666 3353 4366 
Q 3744 4066 3744 3513 
Q 3744 3084 3544 2831 
Q 3344 2578 2956 2516 
Q 3422 2416 3680 2098 
Q 3938 1781 3938 1306 
Q 3938 681 3513 340 
Q 3088 0 2303 0 
L 628 0 
L 628 4666 
z
" transform="scale(0.015625)"/>
      <path id="DejaVuSans-2e" d="M 684 794 
L 1344 794 
L 1344 0 
L 684 0 
L 684 794 
z
" transform="scale(0.015625)"/>
      <path id="DejaVuSans-66" d="M 2375 4863 
L 2375 4384 
L 1825 4384 
Q 1516 4384 1395 4259 
Q 1275 4134 1275 3809 
L 1275 3500 
L 2222 3500 
L 2222 3053 
L 1275 3053 
L 1275 0 
L 697 0 
L 697 3053 
L 147 3053 
L 147 3500 
L 697 3500 
L 697 3744 
Q 697 4328 969 4595 
Q 1241 4863 1831 4863 
L 2375 4863 
z
" transform="scale(0.015625)"/>
      <path id="DejaVuSans-6d" d="M 3328 2828 
Q 3544 3216 3844 3400 
Q 4144 3584 4550 3584 
Q 5097 3584 5394 3201 
Q 5691 2819 5691 2113 
L 5691 0 
L 5113 0 
L 5113 2094 
Q 5113 2597 4934 2840 
Q 4756 3084 4391 3084 
Q 3944 3084 3684 2787 
Q 3425 2491 3425 1978 
L 3425 0 
L 2847 0 
L 2847 2094 
Q 2847 2600 2669 2842 
Q 2491 3084 2119 3084 
Q 1678 3084 1418 2786 
Q 1159 2488 1159 1978 
L 1159 0 
L 581 0 
L 581 3500 
L 1159 3500 
L 1159 2956 
Q 1356 3278 1631 3431 
Q 1906 3584 2284 3584 
Q 2666 3584 2933 3390 
Q 3200 3197 3328 2828 
z
" transform="scale(0.015625)"/>
      <path id="DejaVuSans-64" d="M 2906 2969 
L 2906 4863 
L 3481 4863 
L 3481 0 
L 2906 0 
L 2906 525 
Q 2725 213 2448 61 
Q 2172 -91 1784 -91 
Q 1150 -91 751 415 
Q 353 922 353 1747 
Q 353 2572 751 3078 
Q 1150 3584 1784 3584 
Q 2172 3584 2448 3432 
Q 2725 3281 2906 2969 
z
M 947 1747 
Q 947 1113 1208 752 
Q 1469 391 1925 391 
Q 2381 391 2643 752 
Q 2906 1113 2906 1747 
Q 2906 2381 2643 2742 
Q 2381 3103 1925 3103 
Q 1469 3103 1208 2742 
Q 947 2381 947 1747 
z
" transform="scale(0.015625)"/>
      <path id="DejaVuSans-61" d="M 2194 1759 
Q 1497 1759 1228 1600 
Q 959 1441 959 1056 
Q 959 750 1161 570 
Q 1363 391 1709 391 
Q 2188 391 2477 730 
Q 2766 1069 2766 1631 
L 2766 1759 
L 2194 1759 
z
M 3341 1997 
L 3341 0 
L 2766 0 
L 2766 531 
Q 2569 213 2275 61 
Q 1981 -91 1556 -91 
Q 1019 -91 701 211 
Q 384 513 384 1019 
Q 384 1609 779 1909 
Q 1175 2209 1959 2209 
L 2766 2209 
L 2766 2266 
Q 2766 2663 2505 2880 
Q 2244 3097 1772 3097 
Q 1472 3097 1187 3025 
Q 903 2953 641 2809 
L 641 3341 
Q 956 3463 1253 3523 
Q 1550 3584 1831 3584 
Q 2591 3584 2966 3190 
Q 3341 2797 3341 1997 
z
" transform="scale(0.015625)"/>
      <path id="DejaVuSans-70" d="M 1159 525 
L 1159 -1331 
L 581 -1331 
L 581 3500 
L 1159 3500 
L 1159 2969 
Q 1341 3281 1617 3432 
Q 1894 3584 2278 3584 
Q 2916 3584 3314 3078 
Q 3713 2572 3713 1747 
Q 3713 922 3314 415 
Q 2916 -91 2278 -91 
Q 1894 -91 1617 61 
Q 1341 213 1159 525 
z
M 3116 1747 
Q 3116 2381 2855 2742 
Q 2594 3103 2138 3103 
Q 1681 3103 1420 2742 
Q 1159 2381 1159 1747 
Q 1159 1113 1420 752 
Q 1681 391 2138 391 
Q 2594 391 2855 752 
Q 3116 1113 3116 1747 
z
" transform="scale(0.015625)"/>
      <path id="DejaVuSans-75" d="M 544 1381 
L 544 3500 
L 1119 3500 
L 1119 1403 
Q 1119 906 1312 657 
Q 1506 409 1894 409 
Q 2359 409 2629 706 
Q 2900 1003 2900 1516 
L 2900 3500 
L 3475 3500 
L 3475 0 
L 2900 0 
L 2900 538 
Q 2691 219 2414 64 
Q 2138 -91 1772 -91 
Q 1169 -91 856 284 
Q 544 659 544 1381 
z
M 1991 3584 
L 1991 3584 
z
" transform="scale(0.015625)"/>
      <path id="DejaVuSans-67" d="M 2906 1791 
Q 2906 2416 2648 2759 
Q 2391 3103 1925 3103 
Q 1463 3103 1205 2759 
Q 947 2416 947 1791 
Q 947 1169 1205 825 
Q 1463 481 1925 481 
Q 2391 481 2648 825 
Q 2906 1169 2906 1791 
z
M 3481 434 
Q 3481 -459 3084 -895 
Q 2688 -1331 1869 -1331 
Q 1566 -1331 1297 -1286 
Q 1028 -1241 775 -1147 
L 775 -588 
Q 1028 -725 1275 -790 
Q 1522 -856 1778 -856 
Q 2344 -856 2625 -561 
Q 2906 -266 2906 331 
L 2906 616 
Q 2728 306 2450 153 
Q 2172 0 1784 0 
Q 1141 0 747 490 
Q 353 981 353 1791 
Q 353 2603 747 3093 
Q 1141 3584 1784 3584 
Q 2172 3584 2450 3431 
Q 2728 3278 2906 2969 
L 2906 3500 
L 3481 3500 
L 3481 434 
z
" transform="scale(0.015625)"/>
      <path id="DejaVuSans-65" d="M 3597 1894 
L 3597 1613 
L 953 1613 
Q 991 1019 1311 708 
Q 1631 397 2203 397 
Q 2534 397 2845 478 
Q 3156 559 3463 722 
L 3463 178 
Q 3153 47 2828 -22 
Q 2503 -91 2169 -91 
Q 1331 -91 842 396 
Q 353 884 353 1716 
Q 353 2575 817 3079 
Q 1281 3584 2069 3584 
Q 2775 3584 3186 3129 
Q 3597 2675 3597 1894 
z
M 3022 2063 
Q 3016 2534 2758 2815 
Q 2500 3097 2075 3097 
Q 1594 3097 1305 2825 
Q 1016 2553 972 2059 
L 3022 2063 
z
" transform="scale(0.015625)"/>
     </defs>
     <use xlink:href="#DejaVuSans-46"/>
     <use xlink:href="#DejaVuSans-44" x="57.519531"/>
     <use xlink:href="#DejaVuSans-41" x="132.771484"/>
     <use xlink:href="#DejaVuSans-4d" x="201.179688"/>
     <use xlink:href="#DejaVuSans-42" x="287.458984"/>
     <use xlink:href="#DejaVuSans-31" x="356.0625"/>
     <use xlink:href="#DejaVuSans-30" x="419.685547"/>
     <use xlink:href="#DejaVuSans-32" x="483.308594"/>
     <use xlink:href="#DejaVuSans-30" x="546.931641"/>
     <use xlink:href="#DejaVuSans-30" x="610.554688"/>
     <use xlink:href="#DejaVuSans-32" x="674.177734"/>
     <use xlink:href="#DejaVuSans-2e" x="737.800781"/>
     <use xlink:href="#DejaVuSans-66" x="769.587891"/>
     <use xlink:href="#DejaVuSans-6d" x="804.792969"/>
     <use xlink:href="#DejaVuSans-5f" x="902.205078"/>
     <use xlink:href="#DejaVuSans-64" x="952.205078"/>
     <use xlink:href="#DejaVuSans-61" x="1015.681641"/>
     <use xlink:href="#DejaVuSans-70" x="1076.960938"/>
     <use xlink:href="#DejaVuSans-32" x="1140.4375"/>
     <use xlink:href="#DejaVuSans-30" x="1204.060547"/>
     <use xlink:href="#DejaVuSans-5f" x="1267.683594"/>
     <use xlink:href="#DejaVuSans-75" x="1317.683594"/>
     <use xlink:href="#DejaVuSans-67" x="1381.0625"/>
     <use xlink:href="#DejaVuSans-65" x="1444.539062"/>
    </g>
   </g>
   <g id="legend_1">
    <g id="patch_7">
     <path d="M 97 153.390625 
L 204.265625 153.390625 
Q 206.265625 153.390625 206.265625 151.390625 
L 206.265625 93.4 
Q 206.265625 91.4 204.265625 91.4 
L 97 91.4 
Q 95 91.4 95 93.4 
L 95 151.390625 
Q 95 153.390625 97 153.390625 
z
" style="fill: #ffffff; opacity: 0.8; stroke: #cccccc; stroke-linejoin: miter"/>
    </g>
    <g id="line2d_18">
     <g>
      <use xlink:href="#m3f891dbded" x="109" y="99.498438" style="fill: #ff8c00; stroke: #ff8c00"/>
     </g>
    </g>
    <g id="text_10">
     <!-- residuals -->
     <g transform="translate(127 102.998438) scale(0.1 -0.1)">
      <defs>
       <path id="DejaVuSans-72" d="M 2631 2963 
Q 2534 3019 2420 3045 
Q 2306 3072 2169 3072 
Q 1681 3072 1420 2755 
Q 1159 2438 1159 1844 
L 1159 0 
L 581 0 
L 581 3500 
L 1159 3500 
L 1159 2956 
Q 1341 3275 1631 3429 
Q 1922 3584 2338 3584 
Q 2397 3584 2469 3576 
Q 2541 3569 2628 3553 
L 2631 2963 
z
" transform="scale(0.015625)"/>
       <path id="DejaVuSans-73" d="M 2834 3397 
L 2834 2853 
Q 2591 2978 2328 3040 
Q 2066 3103 1784 3103 
Q 1356 3103 1142 2972 
Q 928 2841 928 2578 
Q 928 2378 1081 2264 
Q 1234 2150 1697 2047 
L 1894 2003 
Q 2506 1872 2764 1633 
Q 3022 1394 3022 966 
Q 3022 478 2636 193 
Q 2250 -91 1575 -91 
Q 1294 -91 989 -36 
Q 684 19 347 128 
L 347 722 
Q 666 556 975 473 
Q 1284 391 1588 391 
Q 1994 391 2212 530 
Q 2431 669 2431 922 
Q 2431 1156 2273 1281 
Q 2116 1406 1581 1522 
L 1381 1569 
Q 847 1681 609 1914 
Q 372 2147 372 2553 
Q 372 3047 722 3315 
Q 1072 3584 1716 3584 
Q 2034 3584 2315 3537 
Q 2597 3491 2834 3397 
z
" transform="scale(0.015625)"/>
       <path id="DejaVuSans-69" d="M 603 3500 
L 1178 3500 
L 1178 0 
L 603 0 
L 603 3500 
z
M 603 4863 
L 1178 4863 
L 1178 4134 
L 603 4134 
L 603 4863 
z
" transform="scale(0.015625)"/>
       <path id="DejaVuSans-6c" d="M 603 4863 
L 1178 4863 
L 1178 0 
L 603 0 
L 603 4863 
z
" transform="scale(0.015625)"/>
      </defs>
      <use xlink:href="#DejaVuSans-72"/>
      <use xlink:href="#DejaVuSans-65" x="38.863281"/>
      <use xlink:href="#DejaVuSans-73" x="100.386719"/>
      <use xlink:href="#DejaVuSans-69" x="152.486328"/>
      <use xlink:href="#DejaVuSans-64" x="180.269531"/>
      <use xlink:href="#DejaVuSans-75" x="243.746094"/>
      <use xlink:href="#DejaVuSans-61" x="307.125"/>
      <use xlink:href="#DejaVuSans-6c" x="368.404297"/>
      <use xlink:href="#DejaVuSans-73" x="396.1875"/>
     </g>
    </g>
    <g id="line2d_19">
     <path d="M 99 114.176563 
L 109 114.176563 
L 119 114.176563 
" style="fill: none; stroke: #0000ff; stroke-width: 1.5; stroke-linecap: square"/>
    </g>
    <g id="text_11">
     <!-- observable -->
     <g transform="translate(127 117.676563) scale(0.1 -0.1)">
      <defs>
       <path id="DejaVuSans-6f" d="M 1959 3097 
Q 1497 3097 1228 2736 
Q 959 2375 959 1747 
Q 959 1119 1226 758 
Q 1494 397 1959 397 
Q 2419 397 2687 759 
Q 2956 1122 2956 1747 
Q 2956 2369 2687 2733 
Q 2419 3097 1959 3097 
z
M 1959 3584 
Q 2709 3584 3137 3096 
Q 3566 2609 3566 1747 
Q 3566 888 3137 398 
Q 2709 -91 1959 -91 
Q 1206 -91 779 398 
Q 353 888 353 1747 
Q 353 2609 779 3096 
Q 1206 3584 1959 3584 
z
" transform="scale(0.015625)"/>
       <path id="DejaVuSans-62" d="M 3116 1747 
Q 3116 2381 2855 2742 
Q 2594 3103 2138 3103 
Q 1681 3103 1420 2742 
Q 1159 2381 1159 1747 
Q 1159 1113 1420 752 
Q 1681 391 2138 391 
Q 2594 391 2855 752 
Q 3116 1113 3116 1747 
z
M 1159 2969 
Q 1341 3281 1617 3432 
Q 1894 3584 2278 3584 
Q 2916 3584 3314 3078 
Q 3713 2572 3713 1747 
Q 3713 922 3314 415 
Q 2916 -91 2278 -91 
Q 1894 -91 1617 61 
Q 1341 213 1159 525 
L 1159 0 
L 581 0 
L 581 4863 
L 1159 4863 
L 1159 2969 
z
" transform="scale(0.015625)"/>
       <path id="DejaVuSans-76" d="M 191 3500 
L 800 3500 
L 1894 563 
L 2988 3500 
L 3597 3500 
L 2284 0 
L 1503 0 
L 191 3500 
z
" transform="scale(0.015625)"/>
      </defs>
      <use xlink:href="#DejaVuSans-6f"/>
      <use xlink:href="#DejaVuSans-62" x="61.181641"/>
      <use xlink:href="#DejaVuSans-73" x="124.658203"/>
      <use xlink:href="#DejaVuSans-65" x="176.757812"/>
      <use xlink:href="#DejaVuSans-72" x="238.28125"/>
      <use xlink:href="#DejaVuSans-76" x="279.394531"/>
      <use xlink:href="#DejaVuSans-61" x="338.574219"/>
      <use xlink:href="#DejaVuSans-62" x="399.853516"/>
      <use xlink:href="#DejaVuSans-6c" x="463.330078"/>
      <use xlink:href="#DejaVuSans-65" x="491.113281"/>
     </g>
    </g>
    <g id="line2d_20">
     <g>
      <use xlink:href="#m1f49e17e2c" x="109" y="128.854688" style="fill: #0000ff; stroke: #0000ff"/>
     </g>
    </g>
    <g id="text_12">
     <!-- interpolation -->
     <g transform="translate(127 132.354688) scale(0.1 -0.1)">
      <defs>
       <path id="DejaVuSans-6e" d="M 3513 2113 
L 3513 0 
L 2938 0 
L 2938 2094 
Q 2938 2591 2744 2837 
Q 2550 3084 2163 3084 
Q 1697 3084 1428 2787 
Q 1159 2491 1159 1978 
L 1159 0 
L 581 0 
L 581 3500 
L 1159 3500 
L 1159 2956 
Q 1366 3272 1645 3428 
Q 1925 3584 2291 3584 
Q 2894 3584 3203 3211 
Q 3513 2838 3513 2113 
z
" transform="scale(0.015625)"/>
       <path id="DejaVuSans-74" d="M 1172 4494 
L 1172 3500 
L 2356 3500 
L 2356 3053 
L 1172 3053 
L 1172 1153 
Q 1172 725 1289 603 
Q 1406 481 1766 481 
L 2356 481 
L 2356 0 
L 1766 0 
Q 1100 0 847 248 
Q 594 497 594 1153 
L 594 3053 
L 172 3053 
L 172 3500 
L 594 3500 
L 594 4494 
L 1172 4494 
z
" transform="scale(0.015625)"/>
      </defs>
      <use xlink:href="#DejaVuSans-69"/>
      <use xlink:href="#DejaVuSans-6e" x="27.783203"/>
      <use xlink:href="#DejaVuSans-74" x="91.162109"/>
      <use xlink:href="#DejaVuSans-65" x="130.371094"/>
      <use xlink:href="#DejaVuSans-72" x="191.894531"/>
      <use xlink:href="#DejaVuSans-70" x="233.007812"/>
      <use xlink:href="#DejaVuSans-6f" x="296.484375"/>
      <use xlink:href="#DejaVuSans-6c" x="357.666016"/>
      <use xlink:href="#DejaVuSans-61" x="385.449219"/>
      <use xlink:href="#DejaVuSans-74" x="446.728516"/>
      <use xlink:href="#DejaVuSans-69" x="485.9375"/>
      <use xlink:href="#DejaVuSans-6f" x="513.720703"/>
      <use xlink:href="#DejaVuSans-6e" x="574.902344"/>
     </g>
    </g>
    <g id="line2d_21">
     <g>
      <use xlink:href="#m5122d60198" x="109" y="143.532812" style="stroke: #000000; stroke-linejoin: miter"/>
     </g>
    </g>
    <g id="text_13">
     <!-- reference_data -->
     <g transform="translate(127 147.032812) scale(0.1 -0.1)">
      <defs>
       <path id="DejaVuSans-63" d="M 3122 3366 
L 3122 2828 
Q 2878 2963 2633 3030 
Q 2388 3097 2138 3097 
Q 1578 3097 1268 2742 
Q 959 2388 959 1747 
Q 959 1106 1268 751 
Q 1578 397 2138 397 
Q 2388 397 2633 464 
Q 2878 531 3122 666 
L 3122 134 
Q 2881 22 2623 -34 
Q 2366 -91 2075 -91 
Q 1284 -91 818 406 
Q 353 903 353 1747 
Q 353 2603 823 3093 
Q 1294 3584 2113 3584 
Q 2378 3584 2631 3529 
Q 2884 3475 3122 3366 
z
" transform="scale(0.015625)"/>
      </defs>
      <use xlink:href="#DejaVuSans-72"/>
      <use xlink:href="#DejaVuSans-65" x="38.863281"/>
      <use xlink:href="#DejaVuSans-66" x="100.386719"/>
      <use xlink:href="#DejaVuSans-65" x="135.591797"/>
      <use xlink:href="#DejaVuSans-72" x="197.115234"/>
      <use xlink:href="#DejaVuSans-65" x="235.978516"/>
      <use xlink:href="#DejaVuSans-6e" x="297.501953"/>
      <use xlink:href="#DejaVuSans-63" x="360.880859"/>
      <use xlink:href="#DejaVuSans-65" x="415.861328"/>
      <use xlink:href="#DejaVuSans-5f" x="477.384766"/>
      <use xlink:href="#DejaVuSans-64" x="527.384766"/>
      <use xlink:href="#DejaVuSans-61" x="590.861328"/>
      <use xlink:href="#DejaVuSans-74" x="652.140625"/>
      <use xlink:href="#DejaVuSans-61" x="691.349609"/>
     </g>
    </g>
   </g>
  </g>
  <g id="axes_2">
   <g id="patch_8">
    <path d="M 394.363636 338.4 
L 648 338.4 
L 648 86.4 
L 394.363636 86.4 
z
" style="fill: #ffffff"/>
   </g>
   <g id="PolyCollection_2">
    <path d="M 408.047989 15561.065231 
L 408.047989 138.563374 
L 410.673285 150.283564 
L 413.29858 15561.065231 
L 415.923876 15561.065231 
L 418.549171 15561.065231 
L 421.174467 15561.065231 
L 612.82104 142.436761 
L 615.446336 135.971077 
L 618.071631 139.703853 
L 620.696927 141.793169 
L 623.322222 139.249413 
L 625.947518 136.310309 
L 625.947518 15561.065231 
L 625.947518 15561.065231 
L 623.322222 15561.065231 
L 620.696927 15561.065231 
L 618.071631 15561.065231 
L 615.446336 15561.065231 
L 612.82104 15561.065231 
L 421.174467 15561.065231 
L 418.549171 15561.065231 
L 415.923876 15561.065231 
L 413.29858 15561.065231 
L 410.673285 15561.065231 
L 408.047989 15561.065231 
z
" clip-path="url(#p04b9fd1c9d)" style="fill: #ff8c00; fill-opacity: 0.4; stroke: #ff8c00; stroke-opacity: 0.4"/>
   </g>
   <g id="matplotlib.axis_3">
    <g id="xtick_6">
     <g id="line2d_22">
      <g>
       <use xlink:href="#mf04eb56c99" x="405.422694" y="338.4" style="stroke: #000000; stroke-width: 0.8"/>
      </g>
     </g>
    </g>
    <g id="xtick_7">
     <g id="line2d_23">
      <g>
       <use xlink:href="#mf04eb56c99" x="460.11635" y="338.4" style="stroke: #000000; stroke-width: 0.8"/>
      </g>
     </g>
    </g>
    <g id="xtick_8">
     <g id="line2d_24">
      <g>
       <use xlink:href="#mf04eb56c99" x="514.810007" y="338.4" style="stroke: #000000; stroke-width: 0.8"/>
      </g>
     </g>
    </g>
    <g id="xtick_9">
     <g id="line2d_25">
      <g>
       <use xlink:href="#mf04eb56c99" x="569.503664" y="338.4" style="stroke: #000000; stroke-width: 0.8"/>
      </g>
     </g>
    </g>
    <g id="xtick_10">
     <g id="line2d_26">
      <g>
       <use xlink:href="#mf04eb56c99" x="624.197321" y="338.4" style="stroke: #000000; stroke-width: 0.8"/>
      </g>
     </g>
    </g>
   </g>
   <g id="matplotlib.axis_4">
    <g id="ytick_8">
     <g id="line2d_27">
      <g>
       <use xlink:href="#m21cb3e923c" x="394.363636" y="310.310641" style="stroke: #000000; stroke-width: 0.8"/>
      </g>
     </g>
     <g id="text_14">
      <!-- $\mathdefault{10^{-12}}$ -->
      <g transform="translate(359.463636 314.109859) scale(0.1 -0.1)">
       <defs>
        <path id="DejaVuSans-2212" d="M 678 2272 
L 4684 2272 
L 4684 1741 
L 678 1741 
L 678 2272 
z
" transform="scale(0.015625)"/>
       </defs>
       <use xlink:href="#DejaVuSans-31" transform="translate(0 0.765625)"/>
       <use xlink:href="#DejaVuSans-30" transform="translate(63.623047 0.765625)"/>
       <use xlink:href="#DejaVuSans-2212" transform="translate(128.203125 39.046875) scale(0.7)"/>
       <use xlink:href="#DejaVuSans-31" transform="translate(186.855469 39.046875) scale(0.7)"/>
       <use xlink:href="#DejaVuSans-32" transform="translate(231.391602 39.046875) scale(0.7)"/>
      </g>
     </g>
    </g>
    <g id="ytick_9">
     <g id="line2d_28">
      <g>
       <use xlink:href="#m21cb3e923c" x="394.363636" y="279.438668" style="stroke: #000000; stroke-width: 0.8"/>
      </g>
     </g>
     <g id="text_15">
      <!-- $\mathdefault{10^{-10}}$ -->
      <g transform="translate(359.463636 283.237886) scale(0.1 -0.1)">
       <use xlink:href="#DejaVuSans-31" transform="translate(0 0.765625)"/>
       <use xlink:href="#DejaVuSans-30" transform="translate(63.623047 0.765625)"/>
       <use xlink:href="#DejaVuSans-2212" transform="translate(128.203125 39.046875) scale(0.7)"/>
       <use xlink:href="#DejaVuSans-31" transform="translate(186.855469 39.046875) scale(0.7)"/>
       <use xlink:href="#DejaVuSans-30" transform="translate(231.391602 39.046875) scale(0.7)"/>
      </g>
     </g>
    </g>
    <g id="ytick_10">
     <g id="line2d_29">
      <g>
       <use xlink:href="#m21cb3e923c" x="394.363636" y="248.566695" style="stroke: #000000; stroke-width: 0.8"/>
      </g>
     </g>
     <g id="text_16">
      <!-- $\mathdefault{10^{-8}}$ -->
      <g transform="translate(363.863636 252.365914) scale(0.1 -0.1)">
       <defs>
        <path id="DejaVuSans-38" d="M 2034 2216 
Q 1584 2216 1326 1975 
Q 1069 1734 1069 1313 
Q 1069 891 1326 650 
Q 1584 409 2034 409 
Q 2484 409 2743 651 
Q 3003 894 3003 1313 
Q 3003 1734 2745 1975 
Q 2488 2216 2034 2216 
z
M 1403 2484 
Q 997 2584 770 2862 
Q 544 3141 544 3541 
Q 544 4100 942 4425 
Q 1341 4750 2034 4750 
Q 2731 4750 3128 4425 
Q 3525 4100 3525 3541 
Q 3525 3141 3298 2862 
Q 3072 2584 2669 2484 
Q 3125 2378 3379 2068 
Q 3634 1759 3634 1313 
Q 3634 634 3220 271 
Q 2806 -91 2034 -91 
Q 1263 -91 848 271 
Q 434 634 434 1313 
Q 434 1759 690 2068 
Q 947 2378 1403 2484 
z
M 1172 3481 
Q 1172 3119 1398 2916 
Q 1625 2713 2034 2713 
Q 2441 2713 2670 2916 
Q 2900 3119 2900 3481 
Q 2900 3844 2670 4047 
Q 2441 4250 2034 4250 
Q 1625 4250 1398 4047 
Q 1172 3844 1172 3481 
z
" transform="scale(0.015625)"/>
       </defs>
       <use xlink:href="#DejaVuSans-31" transform="translate(0 0.765625)"/>
       <use xlink:href="#DejaVuSans-30" transform="translate(63.623047 0.765625)"/>
       <use xlink:href="#DejaVuSans-2212" transform="translate(128.203125 39.046875) scale(0.7)"/>
       <use xlink:href="#DejaVuSans-38" transform="translate(186.855469 39.046875) scale(0.7)"/>
      </g>
     </g>
    </g>
    <g id="ytick_11">
     <g id="line2d_30">
      <g>
       <use xlink:href="#m21cb3e923c" x="394.363636" y="217.694722" style="stroke: #000000; stroke-width: 0.8"/>
      </g>
     </g>
     <g id="text_17">
      <!-- $\mathdefault{10^{-6}}$ -->
      <g transform="translate(363.863636 221.493941) scale(0.1 -0.1)">
       <use xlink:href="#DejaVuSans-31" transform="translate(0 0.765625)"/>
       <use xlink:href="#DejaVuSans-30" transform="translate(63.623047 0.765625)"/>
       <use xlink:href="#DejaVuSans-2212" transform="translate(128.203125 39.046875) scale(0.7)"/>
       <use xlink:href="#DejaVuSans-36" transform="translate(186.855469 39.046875) scale(0.7)"/>
      </g>
     </g>
    </g>
    <g id="ytick_12">
     <g id="line2d_31">
      <g>
       <use xlink:href="#m21cb3e923c" x="394.363636" y="186.822749" style="stroke: #000000; stroke-width: 0.8"/>
      </g>
     </g>
     <g id="text_18">
      <!-- $\mathdefault{10^{-4}}$ -->
      <g transform="translate(363.863636 190.621968) scale(0.1 -0.1)">
       <use xlink:href="#DejaVuSans-31" transform="translate(0 0.684375)"/>
       <use xlink:href="#DejaVuSans-30" transform="translate(63.623047 0.684375)"/>
       <use xlink:href="#DejaVuSans-2212" transform="translate(128.203125 38.965625) scale(0.7)"/>
       <use xlink:href="#DejaVuSans-34" transform="translate(186.855469 38.965625) scale(0.7)"/>
      </g>
     </g>
    </g>
    <g id="ytick_13">
     <g id="line2d_32">
      <g>
       <use xlink:href="#m21cb3e923c" x="394.363636" y="155.950776" style="stroke: #000000; stroke-width: 0.8"/>
      </g>
     </g>
     <g id="text_19">
      <!-- $\mathdefault{10^{-2}}$ -->
      <g transform="translate(363.863636 159.749995) scale(0.1 -0.1)">
       <use xlink:href="#DejaVuSans-31" transform="translate(0 0.765625)"/>
       <use xlink:href="#DejaVuSans-30" transform="translate(63.623047 0.765625)"/>
       <use xlink:href="#DejaVuSans-2212" transform="translate(128.203125 39.046875) scale(0.7)"/>
       <use xlink:href="#DejaVuSans-32" transform="translate(186.855469 39.046875) scale(0.7)"/>
      </g>
     </g>
    </g>
    <g id="ytick_14">
     <g id="line2d_33">
      <g>
       <use xlink:href="#m21cb3e923c" x="394.363636" y="125.078803" style="stroke: #000000; stroke-width: 0.8"/>
      </g>
     </g>
     <g id="text_20">
      <!-- $\mathdefault{10^{0}}$ -->
      <g transform="translate(369.763636 128.878022) scale(0.1 -0.1)">
       <use xlink:href="#DejaVuSans-31" transform="translate(0 0.765625)"/>
       <use xlink:href="#DejaVuSans-30" transform="translate(63.623047 0.765625)"/>
       <use xlink:href="#DejaVuSans-30" transform="translate(128.203125 39.046875) scale(0.7)"/>
      </g>
     </g>
    </g>
    <g id="ytick_15">
     <g id="line2d_34">
      <g>
       <use xlink:href="#m21cb3e923c" x="394.363636" y="94.206831" style="stroke: #000000; stroke-width: 0.8"/>
      </g>
     </g>
     <g id="text_21">
      <!-- $\mathdefault{10^{2}}$ -->
      <g transform="translate(369.763636 98.006049) scale(0.1 -0.1)">
       <use xlink:href="#DejaVuSans-31" transform="translate(0 0.765625)"/>
       <use xlink:href="#DejaVuSans-30" transform="translate(63.623047 0.765625)"/>
       <use xlink:href="#DejaVuSans-32" transform="translate(128.203125 39.046875) scale(0.7)"/>
      </g>
     </g>
    </g>
   </g>
   <g id="line2d_35">
    <g clip-path="url(#p04b9fd1c9d)">
     <use xlink:href="#m3f891dbded" x="408.047989" y="138.563374" style="fill: #ff8c00; stroke: #ff8c00"/>
     <use xlink:href="#m3f891dbded" x="410.673285" y="150.283564" style="fill: #ff8c00; stroke: #ff8c00"/>
     <use xlink:href="#m3f891dbded" x="413.29858" y="15561.065231" style="fill: #ff8c00; stroke: #ff8c00"/>
     <use xlink:href="#m3f891dbded" x="415.923876" y="15561.065231" style="fill: #ff8c00; stroke: #ff8c00"/>
     <use xlink:href="#m3f891dbded" x="418.549171" y="15561.065231" style="fill: #ff8c00; stroke: #ff8c00"/>
     <use xlink:href="#m3f891dbded" x="421.174467" y="15561.065231" style="fill: #ff8c00; stroke: #ff8c00"/>
     <use xlink:href="#m3f891dbded" x="612.82104" y="142.436761" style="fill: #ff8c00; stroke: #ff8c00"/>
     <use xlink:href="#m3f891dbded" x="615.446336" y="135.971077" style="fill: #ff8c00; stroke: #ff8c00"/>
     <use xlink:href="#m3f891dbded" x="618.071631" y="139.703853" style="fill: #ff8c00; stroke: #ff8c00"/>
     <use xlink:href="#m3f891dbded" x="620.696927" y="141.793169" style="fill: #ff8c00; stroke: #ff8c00"/>
     <use xlink:href="#m3f891dbded" x="623.322222" y="139.249413" style="fill: #ff8c00; stroke: #ff8c00"/>
     <use xlink:href="#m3f891dbded" x="625.947518" y="136.310309" style="fill: #ff8c00; stroke: #ff8c00"/>
    </g>
   </g>
   <g id="line2d_36">
    <path d="M 405.454425 721 
L 405.564514 132.286447 
L 405.796959 123.5375 
L 406.127107 118.724071 
L 406.578214 115.17425 
L 407.163522 112.334054 
L 407.884457 110.006857 
L 408.685496 108.201224 
L 409.486535 106.909113 
L 410.287573 106.002788 
L 411.088612 105.414419 
L 411.969754 105.054909 
L 413.011105 104.885533 
L 414.933598 104.860479 
L 421.174467 104.860485 
L 421.174467 721 
M 421.19017 721 
L 421.298127 133.062014 
L 421.515528 124.09294 
L 421.859863 118.837449 
L 422.301647 115.296637 
L 422.848177 112.566458 
L 423.493244 110.372962 
L 424.229884 108.580679 
L 425.048373 107.129322 
L 425.948711 105.98142 
L 426.930897 105.108153 
L 428.076782 104.403273 
L 429.713759 103.677985 
L 432.414772 102.745535 
L 436.26167 101.661704 
L 436.92624 101.494965 
L 436.92624 721 
M 436.92624 721 
L 437.033512 133.368536 
L 437.246287 124.299598 
L 437.561167 119.255052 
L 437.990823 115.615632 
L 438.520256 112.844621 
L 439.20766 110.439558 
L 439.976863 108.552713 
L 440.822987 107.046228 
L 441.74603 105.845585 
L 442.822915 104.826191 
L 444.13056 103.904111 
L 446.053567 102.8447 
L 448.668858 101.674886 
L 451.82259 100.51217 
L 452.678013 100.231682 
L 452.678013 721 
M 452.678013 721 
L 452.788381 132.545806 
L 453.013675 123.785188 
L 453.355606 118.718544 
L 453.831752 115.016587 
L 454.364717 112.431686 
L 455.028971 110.217365 
L 455.840836 108.299674 
L 456.726508 106.784899 
L 457.685985 105.573274 
L 458.86688 104.458748 
L 460.342999 103.383172 
L 462.33576 102.213909 
L 464.88223 100.988324 
L 467.875826 99.798897 
L 468.429786 99.601494 
L 468.429786 721 
M 468.429786 721 
L 468.53867 132.329985 
L 468.760937 123.79035 
L 469.084412 118.915339 
L 469.555182 115.16026 
L 470.098873 112.483181 
L 470.808038 110.125518 
L 471.627298 108.21304 
L 472.528484 106.683536 
L 473.511597 105.439461 
L 474.740487 104.256785 
L 476.297082 103.082123 
L 478.345233 101.832226 
L 480.803014 100.601253 
L 483.752352 99.381454 
L 484.181559 99.221883 
L 484.181559 721 
M 484.181559 721 
L 484.292574 131.961966 
L 484.515014 123.675194 
L 484.865389 118.578698 
L 485.321294 115.054786 
L 485.865957 112.408167 
L 486.505057 110.267074 
L 487.273753 108.412336 
L 488.138535 106.874193 
L 489.195492 105.474958 
L 490.444622 104.223019 
L 491.982013 103.008629 
L 493.903751 101.774513 
L 496.305925 100.507438 
L 499.092446 99.294326 
L 499.933333 98.969004 
L 499.933333 721 
M 499.933333 721 
L 500.035408 132.456504 
L 500.264797 123.671064 
L 500.589776 118.840186 
L 501.036942 115.260483 
L 501.5749 112.570862 
L 502.207623 110.399069 
L 502.970096 108.51749 
L 503.817288 106.971717 
L 504.833918 105.576709 
L 506.019987 104.328103 
L 507.544933 103.05913 
L 509.408756 101.802465 
L 511.696174 100.536251 
L 514.407189 99.29867 
L 515.685106 98.78825 
L 515.685106 721 
M 515.685106 721 
L 515.788169 132.261951 
L 516.022536 123.50724 
L 516.352669 118.705447 
L 516.808571 115.127859 
L 517.355916 112.444201 
L 518.002302 110.268678 
L 518.783172 108.380999 
L 519.650805 106.83008 
L 520.691965 105.425418 
L 521.906652 104.158886 
L 523.468391 102.863678 
L 525.377184 101.579579 
L 527.633031 100.332018 
L 530.322694 99.101956 
L 531.436879 98.653506 
L 531.436879 721 
M 531.436879 721 
L 531.542873 131.958649 
L 531.779618 123.367925 
L 532.120545 118.526246 
L 532.562722 115.104674 
L 533.091782 112.5018 
L 533.745764 110.286369 
L 534.545075 108.352768 
L 535.41705 106.795795 
L 536.434355 105.4151 
L 537.669654 104.112038 
L 539.195611 102.827641 
L 541.084892 101.534531 
L 543.301798 100.286962 
L 545.918897 99.067392 
L 547.188652 98.548866 
L 547.188652 721 
M 547.188652 721 
L 547.293798 131.946078 
L 547.51886 123.61001 
L 547.86838 118.554837 
L 548.324589 115.036843 
L 548.870967 112.38626 
L 549.513031 110.237312 
L 550.288032 108.364736 
L 551.159909 106.799596 
L 552.225535 105.349986 
L 553.484912 104.022079 
L 555.034915 102.716776 
L 556.972418 101.392338 
L 559.200546 100.142146 
L 561.91305 98.885289 
L 562.940425 98.465961 
L 562.940425 721 
M 562.940425 721 
L 563.047925 131.724122 
L 563.282116 123.348793 
L 563.642077 118.32652 
L 564.10738 114.848071 
L 564.681721 112.151108 
L 565.359637 109.97003 
L 566.136002 108.163366 
L 567.106457 106.493905 
L 568.173957 105.103499 
L 569.532595 103.722343 
L 571.182368 102.383778 
L 573.123279 101.10039 
L 575.452371 99.832974 
L 578.169645 98.609881 
L 578.692198 98.398786 
L 578.692198 721 
M 578.692198 721 
L 578.799101 131.717319 
L 579.024475 123.530733 
L 579.381794 118.438227 
L 579.834163 114.990008 
L 580.36982 112.396613 
L 581.074585 110.067152 
L 581.849827 108.235119 
L 582.732151 106.676537 
L 583.792034 105.245793 
L 585.063893 103.903407 
L 586.653717 102.560749 
L 588.561506 101.251355 
L 590.787259 99.995388 
L 593.436966 98.758539 
L 594.443971 98.343577 
L 594.443971 721 
M 594.443971 721 
L 594.550336 131.714079 
L 594.779338 123.452003 
L 595.122202 118.546011 
L 595.594281 114.936394 
L 596.171661 112.196535 
L 596.871012 109.941879 
L 597.681459 108.070701 
L 598.653995 106.412934 
L 599.744597 104.999008 
L 601.101996 103.618811 
L 602.712482 102.303507 
L 604.624934 101.025756 
L 606.940007 99.752161 
L 609.657702 98.516686 
L 610.195744 98.297447 
L 610.195744 721 
M 610.195744 721 
L 610.306387 131.393931 
L 610.545227 123.150543 
L 610.904764 118.234996 
L 611.375801 114.759813 
L 611.969417 112.018179 
L 612.696796 109.74188 
L 613.504995 107.926437 
L 614.474834 106.305152 
L 615.606312 104.862668 
L 616.980251 103.487011 
L 618.596648 102.182355 
L 620.536326 100.899875 
L 622.880103 99.624163 
L 625.627979 98.388281 
L 626.603841 97.999944 
L 626.603841 97.999944 
" clip-path="url(#p04b9fd1c9d)" style="fill: none; stroke: #0000ff; stroke-width: 1.5; stroke-linecap: square"/>
   </g>
   <g id="line2d_37">
    <g clip-path="url(#p04b9fd1c9d)">
     <use xlink:href="#m1f49e17e2c" x="408.047989" y="109.585531" style="fill: #0000ff; stroke: #0000ff"/>
     <use xlink:href="#m1f49e17e2c" x="410.673285" y="105.683747" style="fill: #0000ff; stroke: #0000ff"/>
     <use xlink:href="#m1f49e17e2c" x="413.29858" y="104.869258" style="fill: #0000ff; stroke: #0000ff"/>
     <use xlink:href="#m1f49e17e2c" x="415.923876" y="104.860485" style="fill: #0000ff; stroke: #0000ff"/>
     <use xlink:href="#m1f49e17e2c" x="418.549171" y="104.860485" style="fill: #0000ff; stroke: #0000ff"/>
     <use xlink:href="#m1f49e17e2c" x="421.174467" y="15561.065231" style="fill: #0000ff; stroke: #0000ff"/>
     <use xlink:href="#m1f49e17e2c" x="612.82104" y="109.424578" style="fill: #0000ff; stroke: #0000ff"/>
     <use xlink:href="#m1f49e17e2c" x="615.446336" y="105.045752" style="fill: #0000ff; stroke: #0000ff"/>
     <use xlink:href="#m1f49e17e2c" x="618.071631" y="102.577698" style="fill: #0000ff; stroke: #0000ff"/>
     <use xlink:href="#m1f49e17e2c" x="620.696927" y="100.804118" style="fill: #0000ff; stroke: #0000ff"/>
     <use xlink:href="#m1f49e17e2c" x="623.322222" y="99.408955" style="fill: #0000ff; stroke: #0000ff"/>
     <use xlink:href="#m1f49e17e2c" x="625.947518" y="98.258572" style="fill: #0000ff; stroke: #0000ff"/>
    </g>
   </g>
   <g id="line2d_38">
    <g clip-path="url(#p04b9fd1c9d)">
     <use xlink:href="#m5122d60198" x="408.047989" y="113.054367" style="stroke: #000000; stroke-linejoin: miter"/>
     <use xlink:href="#m5122d60198" x="410.673285" y="105.952456" style="stroke: #000000; stroke-linejoin: miter"/>
     <use xlink:href="#m5122d60198" x="413.29858" y="103.145521" style="stroke: #000000; stroke-linejoin: miter"/>
     <use xlink:href="#m5122d60198" x="415.923876" y="100.999999" style="stroke: #000000; stroke-linejoin: miter"/>
     <use xlink:href="#m5122d60198" x="418.549171" y="99.114282" style="stroke: #000000; stroke-linejoin: miter"/>
     <use xlink:href="#m5122d60198" x="421.174467" y="97.854545" style="stroke: #000000; stroke-linejoin: miter"/>
     <use xlink:href="#m5122d60198" x="612.82104" y="111.101372" style="stroke: #000000; stroke-linejoin: miter"/>
     <use xlink:href="#m5122d60198" x="615.446336" y="107.457102" style="stroke: #000000; stroke-linejoin: miter"/>
     <use xlink:href="#m5122d60198" x="618.071631" y="103.433145" style="stroke: #000000; stroke-linejoin: miter"/>
     <use xlink:href="#m5122d60198" x="620.696927" y="101.271394" style="stroke: #000000; stroke-linejoin: miter"/>
     <use xlink:href="#m5122d60198" x="623.322222" y="99.967291" style="stroke: #000000; stroke-linejoin: miter"/>
     <use xlink:href="#m5122d60198" x="625.947518" y="98.997372" style="stroke: #000000; stroke-linejoin: miter"/>
    </g>
   </g>
   <g id="patch_9">
    <path d="M 394.363636 338.4 
L 394.363636 86.4 
" style="fill: none; stroke: #000000; stroke-width: 0.8; stroke-linejoin: miter; stroke-linecap: square"/>
   </g>
   <g id="patch_10">
    <path d="M 648 338.4 
L 648 86.4 
" style="fill: none; stroke: #000000; stroke-width: 0.8; stroke-linejoin: miter; stroke-linecap: square"/>
   </g>
   <g id="patch_11">
    <path d="M 394.363636 338.4 
L 648 338.4 
" style="fill: none; stroke: #000000; stroke-width: 0.8; stroke-linejoin: miter; stroke-linecap: square"/>
   </g>
   <g id="patch_12">
    <path d="M 394.363636 86.4 
L 648 86.4 
" style="fill: none; stroke: #000000; stroke-width: 0.8; stroke-linejoin: miter; stroke-linecap: square"/>
   </g>
   <g id="text_22">
    <!-- FDAMB102002.fm_dap20_uge -->
    <g transform="translate(415.755256 80.4) scale(0.14 -0.14)">
     <use xlink:href="#DejaVuSans-46"/>
     <use xlink:href="#DejaVuSans-44" x="57.519531"/>
     <use xlink:href="#DejaVuSans-41" x="132.771484"/>
     <use xlink:href="#DejaVuSans-4d" x="201.179688"/>
     <use xlink:href="#DejaVuSans-42" x="287.458984"/>
     <use xlink:href="#DejaVuSans-31" x="356.0625"/>
     <use xlink:href="#DejaVuSans-30" x="419.685547"/>
     <use xlink:href="#DejaVuSans-32" x="483.308594"/>
     <use xlink:href="#DejaVuSans-30" x="546.931641"/>
     <use xlink:href="#DejaVuSans-30" x="610.554688"/>
     <use xlink:href="#DejaVuSans-32" x="674.177734"/>
     <use xlink:href="#DejaVuSans-2e" x="737.800781"/>
     <use xlink:href="#DejaVuSans-66" x="769.587891"/>
     <use xlink:href="#DejaVuSans-6d" x="804.792969"/>
     <use xlink:href="#DejaVuSans-5f" x="902.205078"/>
     <use xlink:href="#DejaVuSans-64" x="952.205078"/>
     <use xlink:href="#DejaVuSans-61" x="1015.681641"/>
     <use xlink:href="#DejaVuSans-70" x="1076.960938"/>
     <use xlink:href="#DejaVuSans-32" x="1140.4375"/>
     <use xlink:href="#DejaVuSans-30" x="1204.060547"/>
     <use xlink:href="#DejaVuSans-5f" x="1267.683594"/>
     <use xlink:href="#DejaVuSans-75" x="1317.683594"/>
     <use xlink:href="#DejaVuSans-67" x="1381.0625"/>
     <use xlink:href="#DejaVuSans-65" x="1444.539062"/>
    </g>
   </g>
   <g id="legend_2">
    <g id="patch_13">
     <path d="M 467.549006 333.4 
L 574.814631 333.4 
Q 576.814631 333.4 576.814631 331.4 
L 576.814631 273.409375 
Q 576.814631 271.409375 574.814631 271.409375 
L 467.549006 271.409375 
Q 465.549006 271.409375 465.549006 273.409375 
L 465.549006 331.4 
Q 465.549006 333.4 467.549006 333.4 
z
" style="fill: #ffffff; opacity: 0.8; stroke: #cccccc; stroke-linejoin: miter"/>
    </g>
    <g id="line2d_39">
     <g>
      <use xlink:href="#m3f891dbded" x="479.549006" y="279.507812" style="fill: #ff8c00; stroke: #ff8c00"/>
     </g>
    </g>
    <g id="text_23">
     <!-- residuals -->
     <g transform="translate(497.549006 283.007812) scale(0.1 -0.1)">
      <use xlink:href="#DejaVuSans-72"/>
      <use xlink:href="#DejaVuSans-65" x="38.863281"/>
      <use xlink:href="#DejaVuSans-73" x="100.386719"/>
      <use xlink:href="#DejaVuSans-69" x="152.486328"/>
      <use xlink:href="#DejaVuSans-64" x="180.269531"/>
      <use xlink:href="#DejaVuSans-75" x="243.746094"/>
      <use xlink:href="#DejaVuSans-61" x="307.125"/>
      <use xlink:href="#DejaVuSans-6c" x="368.404297"/>
      <use xlink:href="#DejaVuSans-73" x="396.1875"/>
     </g>
    </g>
    <g id="line2d_40">
     <path d="M 469.549006 294.185938 
L 479.549006 294.185938 
L 489.549006 294.185938 
" style="fill: none; stroke: #0000ff; stroke-width: 1.5; stroke-linecap: square"/>
    </g>
    <g id="text_24">
     <!-- observable -->
     <g transform="translate(497.549006 297.685938) scale(0.1 -0.1)">
      <use xlink:href="#DejaVuSans-6f"/>
      <use xlink:href="#DejaVuSans-62" x="61.181641"/>
      <use xlink:href="#DejaVuSans-73" x="124.658203"/>
      <use xlink:href="#DejaVuSans-65" x="176.757812"/>
      <use xlink:href="#DejaVuSans-72" x="238.28125"/>
      <use xlink:href="#DejaVuSans-76" x="279.394531"/>
      <use xlink:href="#DejaVuSans-61" x="338.574219"/>
      <use xlink:href="#DejaVuSans-62" x="399.853516"/>
      <use xlink:href="#DejaVuSans-6c" x="463.330078"/>
      <use xlink:href="#DejaVuSans-65" x="491.113281"/>
     </g>
    </g>
    <g id="line2d_41">
     <g>
      <use xlink:href="#m1f49e17e2c" x="479.549006" y="308.864062" style="fill: #0000ff; stroke: #0000ff"/>
     </g>
    </g>
    <g id="text_25">
     <!-- interpolation -->
     <g transform="translate(497.549006 312.364062) scale(0.1 -0.1)">
      <use xlink:href="#DejaVuSans-69"/>
      <use xlink:href="#DejaVuSans-6e" x="27.783203"/>
      <use xlink:href="#DejaVuSans-74" x="91.162109"/>
      <use xlink:href="#DejaVuSans-65" x="130.371094"/>
      <use xlink:href="#DejaVuSans-72" x="191.894531"/>
      <use xlink:href="#DejaVuSans-70" x="233.007812"/>
      <use xlink:href="#DejaVuSans-6f" x="296.484375"/>
      <use xlink:href="#DejaVuSans-6c" x="357.666016"/>
      <use xlink:href="#DejaVuSans-61" x="385.449219"/>
      <use xlink:href="#DejaVuSans-74" x="446.728516"/>
      <use xlink:href="#DejaVuSans-69" x="485.9375"/>
      <use xlink:href="#DejaVuSans-6f" x="513.720703"/>
      <use xlink:href="#DejaVuSans-6e" x="574.902344"/>
     </g>
    </g>
    <g id="line2d_42">
     <g>
      <use xlink:href="#m5122d60198" x="479.549006" y="323.542188" style="stroke: #000000; stroke-linejoin: miter"/>
     </g>
    </g>
    <g id="text_26">
     <!-- reference_data -->
     <g transform="translate(497.549006 327.042188) scale(0.1 -0.1)">
      <use xlink:href="#DejaVuSans-72"/>
      <use xlink:href="#DejaVuSans-65" x="38.863281"/>
      <use xlink:href="#DejaVuSans-66" x="100.386719"/>
      <use xlink:href="#DejaVuSans-65" x="135.591797"/>
      <use xlink:href="#DejaVuSans-72" x="197.115234"/>
      <use xlink:href="#DejaVuSans-65" x="235.978516"/>
      <use xlink:href="#DejaVuSans-6e" x="297.501953"/>
      <use xlink:href="#DejaVuSans-63" x="360.880859"/>
      <use xlink:href="#DejaVuSans-65" x="415.861328"/>
      <use xlink:href="#DejaVuSans-5f" x="477.384766"/>
      <use xlink:href="#DejaVuSans-64" x="527.384766"/>
      <use xlink:href="#DejaVuSans-61" x="590.861328"/>
      <use xlink:href="#DejaVuSans-74" x="652.140625"/>
      <use xlink:href="#DejaVuSans-61" x="691.349609"/>
     </g>
    </g>
   </g>
  </g>
  <g id="axes_3">
   <g id="patch_14">
    <path d="M 90 640.8 
L 343.636364 640.8 
L 343.636364 388.8 
L 90 388.8 
z
" style="fill: #ffffff"/>
   </g>
   <g id="PolyCollection_3">
    <defs>
     <path id="m2f5bf91c2f" d="M 103.684353 -90.654545 
L 103.684353 -91.783639 
L 106.309648 -90.688757 
L 108.934944 -93.08393 
L 111.560239 -107.832786 
L 114.185535 -142.783745 
L 116.810831 -319.745455 
L 308.457404 -91.010066 
L 311.082699 -93.101392 
L 313.707995 -91.457999 
L 316.33329 -91.085324 
L 318.958586 -91.574659 
L 321.583881 -92.865875 
L 321.583881 -90.654545 
L 321.583881 -90.654545 
L 318.958586 -90.654545 
L 316.33329 -90.654545 
L 313.707995 -90.654545 
L 311.082699 -90.654545 
L 308.457404 -90.654545 
L 116.810831 -90.654545 
L 114.185535 -90.654545 
L 111.560239 -90.654545 
L 108.934944 -90.654545 
L 106.309648 -90.654545 
L 103.684353 -90.654545 
z
" style="stroke: #8b0000; stroke-opacity: 0.4"/>
    </defs>
    <g clip-path="url(#pc051dff21f)">
     <use xlink:href="#m2f5bf91c2f" x="0" y="720" style="fill: #8b0000; fill-opacity: 0.4; stroke: #8b0000; stroke-opacity: 0.4"/>
    </g>
   </g>
   <g id="matplotlib.axis_5">
    <g id="xtick_11">
     <g id="line2d_43">
      <g>
       <use xlink:href="#mf04eb56c99" x="101.059057" y="640.8" style="stroke: #000000; stroke-width: 0.8"/>
      </g>
     </g>
     <g id="text_27">
      <!-- 0 -->
      <g transform="translate(97.877807 655.398438) scale(0.1 -0.1)">
       <use xlink:href="#DejaVuSans-30"/>
      </g>
     </g>
    </g>
    <g id="xtick_12">
     <g id="line2d_44">
      <g>
       <use xlink:href="#mf04eb56c99" x="155.752714" y="640.8" style="stroke: #000000; stroke-width: 0.8"/>
      </g>
     </g>
     <g id="text_28">
      <!-- 5000 -->
      <g transform="translate(143.027714 655.398438) scale(0.1 -0.1)">
       <use xlink:href="#DejaVuSans-35"/>
       <use xlink:href="#DejaVuSans-30" x="63.623047"/>
       <use xlink:href="#DejaVuSans-30" x="127.246094"/>
       <use xlink:href="#DejaVuSans-30" x="190.869141"/>
      </g>
     </g>
    </g>
    <g id="xtick_13">
     <g id="line2d_45">
      <g>
       <use xlink:href="#mf04eb56c99" x="210.446371" y="640.8" style="stroke: #000000; stroke-width: 0.8"/>
      </g>
     </g>
     <g id="text_29">
      <!-- 10000 -->
      <g transform="translate(194.540121 655.398438) scale(0.1 -0.1)">
       <use xlink:href="#DejaVuSans-31"/>
       <use xlink:href="#DejaVuSans-30" x="63.623047"/>
       <use xlink:href="#DejaVuSans-30" x="127.246094"/>
       <use xlink:href="#DejaVuSans-30" x="190.869141"/>
       <use xlink:href="#DejaVuSans-30" x="254.492188"/>
      </g>
     </g>
    </g>
    <g id="xtick_14">
     <g id="line2d_46">
      <g>
       <use xlink:href="#mf04eb56c99" x="265.140028" y="640.8" style="stroke: #000000; stroke-width: 0.8"/>
      </g>
     </g>
     <g id="text_30">
      <!-- 15000 -->
      <g transform="translate(249.233778 655.398438) scale(0.1 -0.1)">
       <use xlink:href="#DejaVuSans-31"/>
       <use xlink:href="#DejaVuSans-35" x="63.623047"/>
       <use xlink:href="#DejaVuSans-30" x="127.246094"/>
       <use xlink:href="#DejaVuSans-30" x="190.869141"/>
       <use xlink:href="#DejaVuSans-30" x="254.492188"/>
      </g>
     </g>
    </g>
    <g id="xtick_15">
     <g id="line2d_47">
      <g>
       <use xlink:href="#mf04eb56c99" x="319.833684" y="640.8" style="stroke: #000000; stroke-width: 0.8"/>
      </g>
     </g>
     <g id="text_31">
      <!-- 20000 -->
      <g transform="translate(303.927434 655.398438) scale(0.1 -0.1)">
       <use xlink:href="#DejaVuSans-32"/>
       <use xlink:href="#DejaVuSans-30" x="63.623047"/>
       <use xlink:href="#DejaVuSans-30" x="127.246094"/>
       <use xlink:href="#DejaVuSans-30" x="190.869141"/>
       <use xlink:href="#DejaVuSans-30" x="254.492188"/>
      </g>
     </g>
    </g>
    <g id="text_32">
     <!-- time -->
     <g transform="translate(203.262869 670.59625) scale(0.12 -0.12)">
      <use xlink:href="#DejaVuSans-74"/>
      <use xlink:href="#DejaVuSans-69" x="39.208984"/>
      <use xlink:href="#DejaVuSans-6d" x="66.992188"/>
      <use xlink:href="#DejaVuSans-65" x="164.404297"/>
     </g>
    </g>
   </g>
   <g id="matplotlib.axis_6">
    <g id="ytick_16">
     <g id="line2d_48">
      <g>
       <use xlink:href="#m21cb3e923c" x="90" y="629.345455" style="stroke: #000000; stroke-width: 0.8"/>
      </g>
     </g>
     <g id="text_33">
      <!-- 0.0 -->
      <g transform="translate(67.096875 633.144673) scale(0.1 -0.1)">
       <use xlink:href="#DejaVuSans-30"/>
       <use xlink:href="#DejaVuSans-2e" x="63.623047"/>
       <use xlink:href="#DejaVuSans-30" x="95.410156"/>
      </g>
     </g>
    </g>
    <g id="ytick_17">
     <g id="line2d_49">
      <g>
       <use xlink:href="#m21cb3e923c" x="90" y="597.805578" style="stroke: #000000; stroke-width: 0.8"/>
      </g>
     </g>
     <g id="text_34">
      <!-- 0.5 -->
      <g transform="translate(67.096875 601.604796) scale(0.1 -0.1)">
       <use xlink:href="#DejaVuSans-30"/>
       <use xlink:href="#DejaVuSans-2e" x="63.623047"/>
       <use xlink:href="#DejaVuSans-35" x="95.410156"/>
      </g>
     </g>
    </g>
    <g id="ytick_18">
     <g id="line2d_50">
      <g>
       <use xlink:href="#m21cb3e923c" x="90" y="566.265701" style="stroke: #000000; stroke-width: 0.8"/>
      </g>
     </g>
     <g id="text_35">
      <!-- 1.0 -->
      <g transform="translate(67.096875 570.064919) scale(0.1 -0.1)">
       <use xlink:href="#DejaVuSans-31"/>
       <use xlink:href="#DejaVuSans-2e" x="63.623047"/>
       <use xlink:href="#DejaVuSans-30" x="95.410156"/>
      </g>
     </g>
    </g>
    <g id="ytick_19">
     <g id="line2d_51">
      <g>
       <use xlink:href="#m21cb3e923c" x="90" y="534.725824" style="stroke: #000000; stroke-width: 0.8"/>
      </g>
     </g>
     <g id="text_36">
      <!-- 1.5 -->
      <g transform="translate(67.096875 538.525042) scale(0.1 -0.1)">
       <use xlink:href="#DejaVuSans-31"/>
       <use xlink:href="#DejaVuSans-2e" x="63.623047"/>
       <use xlink:href="#DejaVuSans-35" x="95.410156"/>
      </g>
     </g>
    </g>
    <g id="ytick_20">
     <g id="line2d_52">
      <g>
       <use xlink:href="#m21cb3e923c" x="90" y="503.185947" style="stroke: #000000; stroke-width: 0.8"/>
      </g>
     </g>
     <g id="text_37">
      <!-- 2.0 -->
      <g transform="translate(67.096875 506.985165) scale(0.1 -0.1)">
       <use xlink:href="#DejaVuSans-32"/>
       <use xlink:href="#DejaVuSans-2e" x="63.623047"/>
       <use xlink:href="#DejaVuSans-30" x="95.410156"/>
      </g>
     </g>
    </g>
    <g id="ytick_21">
     <g id="line2d_53">
      <g>
       <use xlink:href="#m21cb3e923c" x="90" y="471.64607" style="stroke: #000000; stroke-width: 0.8"/>
      </g>
     </g>
     <g id="text_38">
      <!-- 2.5 -->
      <g transform="translate(67.096875 475.445288) scale(0.1 -0.1)">
       <use xlink:href="#DejaVuSans-32"/>
       <use xlink:href="#DejaVuSans-2e" x="63.623047"/>
       <use xlink:href="#DejaVuSans-35" x="95.410156"/>
      </g>
     </g>
    </g>
    <g id="ytick_22">
     <g id="line2d_54">
      <g>
       <use xlink:href="#m21cb3e923c" x="90" y="440.106192" style="stroke: #000000; stroke-width: 0.8"/>
      </g>
     </g>
     <g id="text_39">
      <!-- 3.0 -->
      <g transform="translate(67.096875 443.905411) scale(0.1 -0.1)">
       <use xlink:href="#DejaVuSans-33"/>
       <use xlink:href="#DejaVuSans-2e" x="63.623047"/>
       <use xlink:href="#DejaVuSans-30" x="95.410156"/>
      </g>
     </g>
    </g>
    <g id="ytick_23">
     <g id="line2d_55">
      <g>
       <use xlink:href="#m21cb3e923c" x="90" y="408.566315" style="stroke: #000000; stroke-width: 0.8"/>
      </g>
     </g>
     <g id="text_40">
      <!-- 3.5 -->
      <g transform="translate(67.096875 412.365534) scale(0.1 -0.1)">
       <use xlink:href="#DejaVuSans-33"/>
       <use xlink:href="#DejaVuSans-2e" x="63.623047"/>
       <use xlink:href="#DejaVuSans-35" x="95.410156"/>
      </g>
     </g>
    </g>
    <g id="text_41">
     <!-- KI__UGE -->
     <g transform="translate(60.2675 539.33625) rotate(-90) scale(0.12 -0.12)">
      <use xlink:href="#DejaVuSans-4b"/>
      <use xlink:href="#DejaVuSans-49" x="65.576172"/>
      <use xlink:href="#DejaVuSans-5f" x="95.068359"/>
      <use xlink:href="#DejaVuSans-5f" x="145.068359"/>
      <use xlink:href="#DejaVuSans-55" x="195.068359"/>
      <use xlink:href="#DejaVuSans-47" x="268.261719"/>
      <use xlink:href="#DejaVuSans-45" x="345.751953"/>
     </g>
    </g>
   </g>
   <g id="line2d_56">
    <path d="M 90 629.345455 
L 343.636364 629.345455 
" clip-path="url(#pc051dff21f)" style="fill: none; stroke: #000000; stroke-width: 1.5; stroke-linecap: square"/>
   </g>
   <g id="line2d_57">
    <defs>
     <path id="mdc989789c0" d="M 0 3 
C 0.795609 3 1.55874 2.683901 2.12132 2.12132 
C 2.683901 1.55874 3 0.795609 3 0 
C 3 -0.795609 2.683901 -1.55874 2.12132 -2.12132 
C 1.55874 -2.683901 0.795609 -3 0 -3 
C -0.795609 -3 -1.55874 -2.683901 -2.12132 -2.12132 
C -2.683901 -1.55874 -3 -0.795609 -3 0 
C -3 0.795609 -2.683901 1.55874 -2.12132 2.12132 
C -1.55874 2.683901 -0.795609 3 0 3 
z
" style="stroke: #ff0000"/>
    </defs>
    <g clip-path="url(#pc051dff21f)">
     <use xlink:href="#mdc989789c0" x="103.684353" y="628.216361" style="fill: #ff0000; stroke: #ff0000"/>
     <use xlink:href="#mdc989789c0" x="106.309648" y="629.311243" style="fill: #ff0000; stroke: #ff0000"/>
     <use xlink:href="#mdc989789c0" x="108.934944" y="626.91607" style="fill: #ff0000; stroke: #ff0000"/>
     <use xlink:href="#mdc989789c0" x="111.560239" y="612.167214" style="fill: #ff0000; stroke: #ff0000"/>
     <use xlink:href="#mdc989789c0" x="114.185535" y="577.216255" style="fill: #ff0000; stroke: #ff0000"/>
     <use xlink:href="#mdc989789c0" x="116.810831" y="400.254545" style="fill: #ff0000; stroke: #ff0000"/>
     <use xlink:href="#mdc989789c0" x="308.457404" y="628.989934" style="fill: #ff0000; stroke: #ff0000"/>
     <use xlink:href="#mdc989789c0" x="311.082699" y="626.898608" style="fill: #ff0000; stroke: #ff0000"/>
     <use xlink:href="#mdc989789c0" x="313.707995" y="628.542001" style="fill: #ff0000; stroke: #ff0000"/>
     <use xlink:href="#mdc989789c0" x="316.33329" y="628.914676" style="fill: #ff0000; stroke: #ff0000"/>
     <use xlink:href="#mdc989789c0" x="318.958586" y="628.425341" style="fill: #ff0000; stroke: #ff0000"/>
     <use xlink:href="#mdc989789c0" x="321.583881" y="627.134125" style="fill: #ff0000; stroke: #ff0000"/>
    </g>
   </g>
   <g id="patch_15">
    <path d="M 90 640.8 
L 90 388.8 
" style="fill: none; stroke: #000000; stroke-width: 0.8; stroke-linejoin: miter; stroke-linecap: square"/>
   </g>
   <g id="patch_16">
    <path d="M 343.636364 640.8 
L 343.636364 388.8 
" style="fill: none; stroke: #000000; stroke-width: 0.8; stroke-linejoin: miter; stroke-linecap: square"/>
   </g>
   <g id="patch_17">
    <path d="M 90 640.8 
L 343.636364 640.8 
" style="fill: none; stroke: #000000; stroke-width: 0.8; stroke-linejoin: miter; stroke-linecap: square"/>
   </g>
   <g id="patch_18">
    <path d="M 90 388.8 
L 343.636364 388.8 
" style="fill: none; stroke: #000000; stroke-width: 0.8; stroke-linejoin: miter; stroke-linecap: square"/>
   </g>
   <g id="legend_3">
    <g id="patch_19">
     <path d="M 187.867614 411.478125 
L 336.636364 411.478125 
Q 338.636364 411.478125 338.636364 409.478125 
L 338.636364 395.8 
Q 338.636364 393.8 336.636364 393.8 
L 187.867614 393.8 
Q 185.867614 393.8 185.867614 395.8 
L 185.867614 409.478125 
Q 185.867614 411.478125 187.867614 411.478125 
z
" style="fill: #ffffff; opacity: 0.8; stroke: #cccccc; stroke-linejoin: miter"/>
    </g>
    <g id="line2d_58">
     <g>
      <use xlink:href="#mdc989789c0" x="199.867614" y="401.898438" style="fill: #ff0000; stroke: #ff0000"/>
     </g>
    </g>
    <g id="text_42">
     <!-- (weighted residuals)^2 -->
     <g transform="translate(217.867614 405.398438) scale(0.1 -0.1)">
      <defs>
       <path id="DejaVuSans-28" d="M 1984 4856 
Q 1566 4138 1362 3434 
Q 1159 2731 1159 2009 
Q 1159 1288 1364 580 
Q 1569 -128 1984 -844 
L 1484 -844 
Q 1016 -109 783 600 
Q 550 1309 550 2009 
Q 550 2706 781 3412 
Q 1013 4119 1484 4856 
L 1984 4856 
z
" transform="scale(0.015625)"/>
       <path id="DejaVuSans-77" d="M 269 3500 
L 844 3500 
L 1563 769 
L 2278 3500 
L 2956 3500 
L 3675 769 
L 4391 3500 
L 4966 3500 
L 4050 0 
L 3372 0 
L 2619 2869 
L 1863 0 
L 1184 0 
L 269 3500 
z
" transform="scale(0.015625)"/>
       <path id="DejaVuSans-68" d="M 3513 2113 
L 3513 0 
L 2938 0 
L 2938 2094 
Q 2938 2591 2744 2837 
Q 2550 3084 2163 3084 
Q 1697 3084 1428 2787 
Q 1159 2491 1159 1978 
L 1159 0 
L 581 0 
L 581 4863 
L 1159 4863 
L 1159 2956 
Q 1366 3272 1645 3428 
Q 1925 3584 2291 3584 
Q 2894 3584 3203 3211 
Q 3513 2838 3513 2113 
z
" transform="scale(0.015625)"/>
       <path id="DejaVuSans-20" transform="scale(0.015625)"/>
       <path id="DejaVuSans-29" d="M 513 4856 
L 1013 4856 
Q 1481 4119 1714 3412 
Q 1947 2706 1947 2009 
Q 1947 1309 1714 600 
Q 1481 -109 1013 -844 
L 513 -844 
Q 928 -128 1133 580 
Q 1338 1288 1338 2009 
Q 1338 2731 1133 3434 
Q 928 4138 513 4856 
z
" transform="scale(0.015625)"/>
       <path id="DejaVuSans-5e" d="M 2988 4666 
L 4684 2925 
L 4056 2925 
L 2681 4159 
L 1306 2925 
L 678 2925 
L 2375 4666 
L 2988 4666 
z
" transform="scale(0.015625)"/>
      </defs>
      <use xlink:href="#DejaVuSans-28"/>
      <use xlink:href="#DejaVuSans-77" x="39.013672"/>
      <use xlink:href="#DejaVuSans-65" x="120.800781"/>
      <use xlink:href="#DejaVuSans-69" x="182.324219"/>
      <use xlink:href="#DejaVuSans-67" x="210.107422"/>
      <use xlink:href="#DejaVuSans-68" x="273.583984"/>
      <use xlink:href="#DejaVuSans-74" x="336.962891"/>
      <use xlink:href="#DejaVuSans-65" x="376.171875"/>
      <use xlink:href="#DejaVuSans-64" x="437.695312"/>
      <use xlink:href="#DejaVuSans-20" x="501.171875"/>
      <use xlink:href="#DejaVuSans-72" x="532.958984"/>
      <use xlink:href="#DejaVuSans-65" x="571.822266"/>
      <use xlink:href="#DejaVuSans-73" x="633.345703"/>
      <use xlink:href="#DejaVuSans-69" x="685.445312"/>
      <use xlink:href="#DejaVuSans-64" x="713.228516"/>
      <use xlink:href="#DejaVuSans-75" x="776.705078"/>
      <use xlink:href="#DejaVuSans-61" x="840.083984"/>
      <use xlink:href="#DejaVuSans-6c" x="901.363281"/>
      <use xlink:href="#DejaVuSans-73" x="929.146484"/>
      <use xlink:href="#DejaVuSans-29" x="981.246094"/>
      <use xlink:href="#DejaVuSans-5e" x="1020.259766"/>
      <use xlink:href="#DejaVuSans-32" x="1104.048828"/>
     </g>
    </g>
   </g>
  </g>
  <g id="axes_4">
   <g id="patch_20">
    <path d="M 394.363636 640.8 
L 648 640.8 
L 648 388.8 
L 394.363636 388.8 
z
" style="fill: #ffffff"/>
   </g>
   <g id="PolyCollection_4">
    <path d="M 408.047989 60313.816129 
L 408.047989 538.414407 
L 410.673285 629.345455 
L 413.29858 518.488345 
L 415.923876 467.621317 
L 418.549171 438.753016 
L 421.174467 400.254545 
L 612.82104 568.466062 
L 615.446336 518.302083 
L 618.071631 547.262808 
L 620.696927 563.472755 
L 623.322222 543.737036 
L 625.947518 520.934011 
L 625.947518 60313.816129 
L 625.947518 60313.816129 
L 623.322222 60313.816129 
L 620.696927 60313.816129 
L 618.071631 60313.816129 
L 615.446336 60313.816129 
L 612.82104 60313.816129 
L 421.174467 60313.816129 
L 418.549171 60313.816129 
L 415.923876 60313.816129 
L 413.29858 60313.816129 
L 410.673285 60313.816129 
L 408.047989 60313.816129 
z
" clip-path="url(#pb115e9337e)" style="fill: #8b0000; fill-opacity: 0.4; stroke: #8b0000; stroke-opacity: 0.4"/>
   </g>
   <g id="matplotlib.axis_7">
    <g id="xtick_16">
     <g id="line2d_59">
      <g>
       <use xlink:href="#mf04eb56c99" x="405.422694" y="640.8" style="stroke: #000000; stroke-width: 0.8"/>
      </g>
     </g>
     <g id="text_43">
      <!-- 0 -->
      <g transform="translate(402.241444 655.398438) scale(0.1 -0.1)">
       <use xlink:href="#DejaVuSans-30"/>
      </g>
     </g>
    </g>
    <g id="xtick_17">
     <g id="line2d_60">
      <g>
       <use xlink:href="#mf04eb56c99" x="460.11635" y="640.8" style="stroke: #000000; stroke-width: 0.8"/>
      </g>
     </g>
     <g id="text_44">
      <!-- 5000 -->
      <g transform="translate(447.39135 655.398438) scale(0.1 -0.1)">
       <use xlink:href="#DejaVuSans-35"/>
       <use xlink:href="#DejaVuSans-30" x="63.623047"/>
       <use xlink:href="#DejaVuSans-30" x="127.246094"/>
       <use xlink:href="#DejaVuSans-30" x="190.869141"/>
      </g>
     </g>
    </g>
    <g id="xtick_18">
     <g id="line2d_61">
      <g>
       <use xlink:href="#mf04eb56c99" x="514.810007" y="640.8" style="stroke: #000000; stroke-width: 0.8"/>
      </g>
     </g>
     <g id="text_45">
      <!-- 10000 -->
      <g transform="translate(498.903757 655.398438) scale(0.1 -0.1)">
       <use xlink:href="#DejaVuSans-31"/>
       <use xlink:href="#DejaVuSans-30" x="63.623047"/>
       <use xlink:href="#DejaVuSans-30" x="127.246094"/>
       <use xlink:href="#DejaVuSans-30" x="190.869141"/>
       <use xlink:href="#DejaVuSans-30" x="254.492188"/>
      </g>
     </g>
    </g>
    <g id="xtick_19">
     <g id="line2d_62">
      <g>
       <use xlink:href="#mf04eb56c99" x="569.503664" y="640.8" style="stroke: #000000; stroke-width: 0.8"/>
      </g>
     </g>
     <g id="text_46">
      <!-- 15000 -->
      <g transform="translate(553.597414 655.398438) scale(0.1 -0.1)">
       <use xlink:href="#DejaVuSans-31"/>
       <use xlink:href="#DejaVuSans-35" x="63.623047"/>
       <use xlink:href="#DejaVuSans-30" x="127.246094"/>
       <use xlink:href="#DejaVuSans-30" x="190.869141"/>
       <use xlink:href="#DejaVuSans-30" x="254.492188"/>
      </g>
     </g>
    </g>
    <g id="xtick_20">
     <g id="line2d_63">
      <g>
       <use xlink:href="#mf04eb56c99" x="624.197321" y="640.8" style="stroke: #000000; stroke-width: 0.8"/>
      </g>
     </g>
     <g id="text_47">
      <!-- 20000 -->
      <g transform="translate(608.291071 655.398438) scale(0.1 -0.1)">
       <use xlink:href="#DejaVuSans-32"/>
       <use xlink:href="#DejaVuSans-30" x="63.623047"/>
       <use xlink:href="#DejaVuSans-30" x="127.246094"/>
       <use xlink:href="#DejaVuSans-30" x="190.869141"/>
       <use xlink:href="#DejaVuSans-30" x="254.492188"/>
      </g>
     </g>
    </g>
    <g id="text_48">
     <!-- time -->
     <g transform="translate(507.626506 670.59625) scale(0.12 -0.12)">
      <use xlink:href="#DejaVuSans-74"/>
      <use xlink:href="#DejaVuSans-69" x="39.208984"/>
      <use xlink:href="#DejaVuSans-6d" x="66.992188"/>
      <use xlink:href="#DejaVuSans-65" x="164.404297"/>
     </g>
    </g>
   </g>
   <g id="matplotlib.axis_8">
    <g id="ytick_24">
     <g id="line2d_64">
      <g>
       <use xlink:href="#m21cb3e923c" x="394.363636" y="613.43448" style="stroke: #000000; stroke-width: 0.8"/>
      </g>
     </g>
     <g id="text_49">
      <!-- $\mathdefault{10^{-3}}$ -->
      <g transform="translate(363.863636 617.233699) scale(0.1 -0.1)">
       <use xlink:href="#DejaVuSans-31" transform="translate(0 0.765625)"/>
       <use xlink:href="#DejaVuSans-30" transform="translate(63.623047 0.765625)"/>
       <use xlink:href="#DejaVuSans-2212" transform="translate(128.203125 39.046875) scale(0.7)"/>
       <use xlink:href="#DejaVuSans-33" transform="translate(186.855469 39.046875) scale(0.7)"/>
      </g>
     </g>
    </g>
    <g id="ytick_25">
     <g id="line2d_65">
      <g>
       <use xlink:href="#m21cb3e923c" x="394.363636" y="553.554459" style="stroke: #000000; stroke-width: 0.8"/>
      </g>
     </g>
     <g id="text_50">
      <!-- $\mathdefault{10^{-2}}$ -->
      <g transform="translate(363.863636 557.353678) scale(0.1 -0.1)">
       <use xlink:href="#DejaVuSans-31" transform="translate(0 0.765625)"/>
       <use xlink:href="#DejaVuSans-30" transform="translate(63.623047 0.765625)"/>
       <use xlink:href="#DejaVuSans-2212" transform="translate(128.203125 39.046875) scale(0.7)"/>
       <use xlink:href="#DejaVuSans-32" transform="translate(186.855469 39.046875) scale(0.7)"/>
      </g>
     </g>
    </g>
    <g id="ytick_26">
     <g id="line2d_66">
      <g>
       <use xlink:href="#m21cb3e923c" x="394.363636" y="493.674437" style="stroke: #000000; stroke-width: 0.8"/>
      </g>
     </g>
     <g id="text_51">
      <!-- $\mathdefault{10^{-1}}$ -->
      <g transform="translate(363.863636 497.473656) scale(0.1 -0.1)">
       <use xlink:href="#DejaVuSans-31" transform="translate(0 0.684375)"/>
       <use xlink:href="#DejaVuSans-30" transform="translate(63.623047 0.684375)"/>
       <use xlink:href="#DejaVuSans-2212" transform="translate(128.203125 38.965625) scale(0.7)"/>
       <use xlink:href="#DejaVuSans-31" transform="translate(186.855469 38.965625) scale(0.7)"/>
      </g>
     </g>
    </g>
    <g id="ytick_27">
     <g id="line2d_67">
      <g>
       <use xlink:href="#m21cb3e923c" x="394.363636" y="433.794415" style="stroke: #000000; stroke-width: 0.8"/>
      </g>
     </g>
     <g id="text_52">
      <!-- $\mathdefault{10^{0}}$ -->
      <g transform="translate(369.763636 437.593634) scale(0.1 -0.1)">
       <use xlink:href="#DejaVuSans-31" transform="translate(0 0.765625)"/>
       <use xlink:href="#DejaVuSans-30" transform="translate(63.623047 0.765625)"/>
       <use xlink:href="#DejaVuSans-30" transform="translate(128.203125 39.046875) scale(0.7)"/>
      </g>
     </g>
    </g>
    <g id="ytick_28">
     <g id="line2d_68">
      <defs>
       <path id="ma497114a4e" d="M 0 0 
L -2 0 
" style="stroke: #000000; stroke-width: 0.6"/>
      </defs>
      <g>
       <use xlink:href="#ma497114a4e" x="394.363636" y="637.263137" style="stroke: #000000; stroke-width: 0.6"/>
      </g>
     </g>
    </g>
    <g id="ytick_29">
     <g id="line2d_69">
      <g>
       <use xlink:href="#ma497114a4e" x="394.363636" y="631.460163" style="stroke: #000000; stroke-width: 0.6"/>
      </g>
     </g>
    </g>
    <g id="ytick_30">
     <g id="line2d_70">
      <g>
       <use xlink:href="#ma497114a4e" x="394.363636" y="626.718788" style="stroke: #000000; stroke-width: 0.6"/>
      </g>
     </g>
    </g>
    <g id="ytick_31">
     <g id="line2d_71">
      <g>
       <use xlink:href="#ma497114a4e" x="394.363636" y="622.710013" style="stroke: #000000; stroke-width: 0.6"/>
      </g>
     </g>
    </g>
    <g id="ytick_32">
     <g id="line2d_72">
      <g>
       <use xlink:href="#ma497114a4e" x="394.363636" y="619.237454" style="stroke: #000000; stroke-width: 0.6"/>
      </g>
     </g>
    </g>
    <g id="ytick_33">
     <g id="line2d_73">
      <g>
       <use xlink:href="#ma497114a4e" x="394.363636" y="616.17444" style="stroke: #000000; stroke-width: 0.6"/>
      </g>
     </g>
    </g>
    <g id="ytick_34">
     <g id="line2d_74">
      <g>
       <use xlink:href="#ma497114a4e" x="394.363636" y="595.408798" style="stroke: #000000; stroke-width: 0.6"/>
      </g>
     </g>
    </g>
    <g id="ytick_35">
     <g id="line2d_75">
      <g>
       <use xlink:href="#ma497114a4e" x="394.363636" y="584.864449" style="stroke: #000000; stroke-width: 0.6"/>
      </g>
     </g>
    </g>
    <g id="ytick_36">
     <g id="line2d_76">
      <g>
       <use xlink:href="#ma497114a4e" x="394.363636" y="577.383115" style="stroke: #000000; stroke-width: 0.6"/>
      </g>
     </g>
    </g>
    <g id="ytick_37">
     <g id="line2d_77">
      <g>
       <use xlink:href="#ma497114a4e" x="394.363636" y="571.580141" style="stroke: #000000; stroke-width: 0.6"/>
      </g>
     </g>
    </g>
    <g id="ytick_38">
     <g id="line2d_78">
      <g>
       <use xlink:href="#ma497114a4e" x="394.363636" y="566.838767" style="stroke: #000000; stroke-width: 0.6"/>
      </g>
     </g>
    </g>
    <g id="ytick_39">
     <g id="line2d_79">
      <g>
       <use xlink:href="#ma497114a4e" x="394.363636" y="562.829991" style="stroke: #000000; stroke-width: 0.6"/>
      </g>
     </g>
    </g>
    <g id="ytick_40">
     <g id="line2d_80">
      <g>
       <use xlink:href="#ma497114a4e" x="394.363636" y="559.357432" style="stroke: #000000; stroke-width: 0.6"/>
      </g>
     </g>
    </g>
    <g id="ytick_41">
     <g id="line2d_81">
      <g>
       <use xlink:href="#ma497114a4e" x="394.363636" y="556.294418" style="stroke: #000000; stroke-width: 0.6"/>
      </g>
     </g>
    </g>
    <g id="ytick_42">
     <g id="line2d_82">
      <g>
       <use xlink:href="#ma497114a4e" x="394.363636" y="535.528776" style="stroke: #000000; stroke-width: 0.6"/>
      </g>
     </g>
    </g>
    <g id="ytick_43">
     <g id="line2d_83">
      <g>
       <use xlink:href="#ma497114a4e" x="394.363636" y="524.984428" style="stroke: #000000; stroke-width: 0.6"/>
      </g>
     </g>
    </g>
    <g id="ytick_44">
     <g id="line2d_84">
      <g>
       <use xlink:href="#ma497114a4e" x="394.363636" y="517.503093" style="stroke: #000000; stroke-width: 0.6"/>
      </g>
     </g>
    </g>
    <g id="ytick_45">
     <g id="line2d_85">
      <g>
       <use xlink:href="#ma497114a4e" x="394.363636" y="511.70012" style="stroke: #000000; stroke-width: 0.6"/>
      </g>
     </g>
    </g>
    <g id="ytick_46">
     <g id="line2d_86">
      <g>
       <use xlink:href="#ma497114a4e" x="394.363636" y="506.958745" style="stroke: #000000; stroke-width: 0.6"/>
      </g>
     </g>
    </g>
    <g id="ytick_47">
     <g id="line2d_87">
      <g>
       <use xlink:href="#ma497114a4e" x="394.363636" y="502.94997" style="stroke: #000000; stroke-width: 0.6"/>
      </g>
     </g>
    </g>
    <g id="ytick_48">
     <g id="line2d_88">
      <g>
       <use xlink:href="#ma497114a4e" x="394.363636" y="499.477411" style="stroke: #000000; stroke-width: 0.6"/>
      </g>
     </g>
    </g>
    <g id="ytick_49">
     <g id="line2d_89">
      <g>
       <use xlink:href="#ma497114a4e" x="394.363636" y="496.414397" style="stroke: #000000; stroke-width: 0.6"/>
      </g>
     </g>
    </g>
    <g id="ytick_50">
     <g id="line2d_90">
      <g>
       <use xlink:href="#ma497114a4e" x="394.363636" y="475.648754" style="stroke: #000000; stroke-width: 0.6"/>
      </g>
     </g>
    </g>
    <g id="ytick_51">
     <g id="line2d_91">
      <g>
       <use xlink:href="#ma497114a4e" x="394.363636" y="465.104406" style="stroke: #000000; stroke-width: 0.6"/>
      </g>
     </g>
    </g>
    <g id="ytick_52">
     <g id="line2d_92">
      <g>
       <use xlink:href="#ma497114a4e" x="394.363636" y="457.623072" style="stroke: #000000; stroke-width: 0.6"/>
      </g>
     </g>
    </g>
    <g id="ytick_53">
     <g id="line2d_93">
      <g>
       <use xlink:href="#ma497114a4e" x="394.363636" y="451.820098" style="stroke: #000000; stroke-width: 0.6"/>
      </g>
     </g>
    </g>
    <g id="ytick_54">
     <g id="line2d_94">
      <g>
       <use xlink:href="#ma497114a4e" x="394.363636" y="447.078723" style="stroke: #000000; stroke-width: 0.6"/>
      </g>
     </g>
    </g>
    <g id="ytick_55">
     <g id="line2d_95">
      <g>
       <use xlink:href="#ma497114a4e" x="394.363636" y="443.069948" style="stroke: #000000; stroke-width: 0.6"/>
      </g>
     </g>
    </g>
    <g id="ytick_56">
     <g id="line2d_96">
      <g>
       <use xlink:href="#ma497114a4e" x="394.363636" y="439.597389" style="stroke: #000000; stroke-width: 0.6"/>
      </g>
     </g>
    </g>
    <g id="ytick_57">
     <g id="line2d_97">
      <g>
       <use xlink:href="#ma497114a4e" x="394.363636" y="436.534375" style="stroke: #000000; stroke-width: 0.6"/>
      </g>
     </g>
    </g>
    <g id="ytick_58">
     <g id="line2d_98">
      <g>
       <use xlink:href="#ma497114a4e" x="394.363636" y="415.768733" style="stroke: #000000; stroke-width: 0.6"/>
      </g>
     </g>
    </g>
    <g id="ytick_59">
     <g id="line2d_99">
      <g>
       <use xlink:href="#ma497114a4e" x="394.363636" y="405.224384" style="stroke: #000000; stroke-width: 0.6"/>
      </g>
     </g>
    </g>
    <g id="ytick_60">
     <g id="line2d_100">
      <g>
       <use xlink:href="#ma497114a4e" x="394.363636" y="397.74305" style="stroke: #000000; stroke-width: 0.6"/>
      </g>
     </g>
    </g>
    <g id="ytick_61">
     <g id="line2d_101">
      <g>
       <use xlink:href="#ma497114a4e" x="394.363636" y="391.940076" style="stroke: #000000; stroke-width: 0.6"/>
      </g>
     </g>
    </g>
   </g>
   <g id="line2d_102">
    <g clip-path="url(#pb115e9337e)">
     <use xlink:href="#mdc989789c0" x="408.047989" y="538.414407" style="fill: #ff0000; stroke: #ff0000"/>
     <use xlink:href="#mdc989789c0" x="410.673285" y="629.345455" style="fill: #ff0000; stroke: #ff0000"/>
     <use xlink:href="#mdc989789c0" x="413.29858" y="518.488345" style="fill: #ff0000; stroke: #ff0000"/>
     <use xlink:href="#mdc989789c0" x="415.923876" y="467.621317" style="fill: #ff0000; stroke: #ff0000"/>
     <use xlink:href="#mdc989789c0" x="418.549171" y="438.753016" style="fill: #ff0000; stroke: #ff0000"/>
     <use xlink:href="#mdc989789c0" x="421.174467" y="400.254545" style="fill: #ff0000; stroke: #ff0000"/>
     <use xlink:href="#mdc989789c0" x="612.82104" y="568.466062" style="fill: #ff0000; stroke: #ff0000"/>
     <use xlink:href="#mdc989789c0" x="615.446336" y="518.302083" style="fill: #ff0000; stroke: #ff0000"/>
     <use xlink:href="#mdc989789c0" x="618.071631" y="547.262808" style="fill: #ff0000; stroke: #ff0000"/>
     <use xlink:href="#mdc989789c0" x="620.696927" y="563.472755" style="fill: #ff0000; stroke: #ff0000"/>
     <use xlink:href="#mdc989789c0" x="623.322222" y="543.737036" style="fill: #ff0000; stroke: #ff0000"/>
     <use xlink:href="#mdc989789c0" x="625.947518" y="520.934011" style="fill: #ff0000; stroke: #ff0000"/>
    </g>
   </g>
   <g id="patch_21">
    <path d="M 394.363636 640.8 
L 394.363636 388.8 
" style="fill: none; stroke: #000000; stroke-width: 0.8; stroke-linejoin: miter; stroke-linecap: square"/>
   </g>
   <g id="patch_22">
    <path d="M 648 640.8 
L 648 388.8 
" style="fill: none; stroke: #000000; stroke-width: 0.8; stroke-linejoin: miter; stroke-linecap: square"/>
   </g>
   <g id="patch_23">
    <path d="M 394.363636 640.8 
L 648 640.8 
" style="fill: none; stroke: #000000; stroke-width: 0.8; stroke-linejoin: miter; stroke-linecap: square"/>
   </g>
   <g id="patch_24">
    <path d="M 394.363636 388.8 
L 648 388.8 
" style="fill: none; stroke: #000000; stroke-width: 0.8; stroke-linejoin: miter; stroke-linecap: square"/>
   </g>
   <g id="legend_4">
    <g id="patch_25">
     <path d="M 492.23125 411.478125 
L 641 411.478125 
Q 643 411.478125 643 409.478125 
L 643 395.8 
Q 643 393.8 641 393.8 
L 492.23125 393.8 
Q 490.23125 393.8 490.23125 395.8 
L 490.23125 409.478125 
Q 490.23125 411.478125 492.23125 411.478125 
z
" style="fill: #ffffff; opacity: 0.8; stroke: #cccccc; stroke-linejoin: miter"/>
    </g>
    <g id="line2d_103">
     <g>
      <use xlink:href="#mdc989789c0" x="504.23125" y="401.898438" style="fill: #ff0000; stroke: #ff0000"/>
     </g>
    </g>
    <g id="text_53">
     <!-- (weighted residuals)^2 -->
     <g transform="translate(522.23125 405.398438) scale(0.1 -0.1)">
      <use xlink:href="#DejaVuSans-28"/>
      <use xlink:href="#DejaVuSans-77" x="39.013672"/>
      <use xlink:href="#DejaVuSans-65" x="120.800781"/>
      <use xlink:href="#DejaVuSans-69" x="182.324219"/>
      <use xlink:href="#DejaVuSans-67" x="210.107422"/>
      <use xlink:href="#DejaVuSans-68" x="273.583984"/>
      <use xlink:href="#DejaVuSans-74" x="336.962891"/>
      <use xlink:href="#DejaVuSans-65" x="376.171875"/>
      <use xlink:href="#DejaVuSans-64" x="437.695312"/>
      <use xlink:href="#DejaVuSans-20" x="501.171875"/>
      <use xlink:href="#DejaVuSans-72" x="532.958984"/>
      <use xlink:href="#DejaVuSans-65" x="571.822266"/>
      <use xlink:href="#DejaVuSans-73" x="633.345703"/>
      <use xlink:href="#DejaVuSans-69" x="685.445312"/>
      <use xlink:href="#DejaVuSans-64" x="713.228516"/>
      <use xlink:href="#DejaVuSans-75" x="776.705078"/>
      <use xlink:href="#DejaVuSans-61" x="840.083984"/>
      <use xlink:href="#DejaVuSans-6c" x="901.363281"/>
      <use xlink:href="#DejaVuSans-73" x="929.146484"/>
      <use xlink:href="#DejaVuSans-29" x="981.246094"/>
      <use xlink:href="#DejaVuSans-5e" x="1020.259766"/>
      <use xlink:href="#DejaVuSans-32" x="1104.048828"/>
     </g>
    </g>
   </g>
  </g>
 </g>
 <defs>
  <clipPath id="pdc7c29d7dd">
   <rect x="90" y="86.4" width="253.636364" height="252"/>
  </clipPath>
  <clipPath id="p04b9fd1c9d">
   <rect x="394.363636" y="86.4" width="253.636364" height="252"/>
  </clipPath>
  <clipPath id="pc051dff21f">
   <rect x="90" y="388.8" width="253.636364" height="252"/>
  </clipPath>
  <clipPath id="pb115e9337e">
   <rect x="394.363636" y="388.8" width="253.636364" height="252"/>
  </clipPath>
 </defs>
</svg>
