<?xml version="1.0" encoding="utf-8" standalone="no"?>
<!DOCTYPE svg PUBLIC "-//W3C//DTD SVG 1.1//EN"
  "http://www.w3.org/Graphics/SVG/1.1/DTD/svg11.dtd">
<svg xmlns:xlink="http://www.w3.org/1999/xlink" width="868.312625pt" height="683.737812pt" viewBox="0 0 868.312625 683.737812" xmlns="http://www.w3.org/2000/svg" version="1.1">
 <metadata>
  <rdf:RDF xmlns:dc="http://purl.org/dc/elements/1.1/" xmlns:cc="http://creativecommons.org/ns#" xmlns:rdf="http://www.w3.org/1999/02/22-rdf-syntax-ns#">
   <cc:Work>
    <dc:type rdf:resource="http://purl.org/dc/dcmitype/StillImage"/>
    <dc:date>2025-03-19T16:41:29.103561</dc:date>
    <dc:format>image/svg+xml</dc:format>
    <dc:creator>
     <cc:Agent>
      <dc:title>Matplotlib v3.9.1, https://matplotlib.org/</dc:title>
     </cc:Agent>
    </dc:creator>
   </cc:Work>
  </rdf:RDF>
 </metadata>
 <defs>
  <style type="text/css">*{stroke-linejoin: round; stroke-linecap: butt}</style>
 </defs>
 <g id="figure_1">
  <g id="patch_1">
   <path d="M 0 683.737812 
L 868.312625 683.737812 
L 868.312625 0 
L 0 0 
z
" style="fill: #ffffff"/>
  </g>
  <g id="axes_1">
   <g id="patch_2">
    <path d="M 79.912625 320.243478 
L 419.564799 320.243478 
L 419.564799 79.2 
L 79.912625 79.2 
z
" style="fill: #ffffff"/>
   </g>
   <g id="matplotlib.axis_1">
    <g id="xtick_1">
     <g id="line2d_1">
      <defs>
       <path id="mc6e8d02a4d" d="M 0 0 
L 0 3.5 
" style="stroke: #000000; stroke-width: 0.8"/>
      </defs>
      <g>
       <use xlink:href="#mc6e8d02a4d" x="95.35136" y="320.243478" style="stroke: #000000; stroke-width: 0.8"/>
      </g>
     </g>
     <g id="text_1">
      <!-- 0 -->
      <g transform="translate(90.579485 338.641135) scale(0.15 -0.15)">
       <defs>
        <path id="DejaVuSans-30" d="M 2034 4250 
Q 1547 4250 1301 3770 
Q 1056 3291 1056 2328 
Q 1056 1369 1301 889 
Q 1547 409 2034 409 
Q 2525 409 2770 889 
Q 3016 1369 3016 2328 
Q 3016 3291 2770 3770 
Q 2525 4250 2034 4250 
z
M 2034 4750 
Q 2819 4750 3233 4129 
Q 3647 3509 3647 2328 
Q 3647 1150 3233 529 
Q 2819 -91 2034 -91 
Q 1250 -91 836 529 
Q 422 1150 422 2328 
Q 422 3509 836 4129 
Q 1250 4750 2034 4750 
z
" transform="scale(0.015625)"/>
       </defs>
       <use xlink:href="#DejaVuSans-30"/>
      </g>
     </g>
    </g>
    <g id="xtick_2">
     <g id="line2d_2">
      <g>
       <use xlink:href="#mc6e8d02a4d" x="157.106301" y="320.243478" style="stroke: #000000; stroke-width: 0.8"/>
      </g>
     </g>
     <g id="text_2">
      <!-- 5 -->
      <g transform="translate(152.334426 338.641135) scale(0.15 -0.15)">
       <defs>
        <path id="DejaVuSans-35" d="M 691 4666 
L 3169 4666 
L 3169 4134 
L 1269 4134 
L 1269 2991 
Q 1406 3038 1543 3061 
Q 1681 3084 1819 3084 
Q 2600 3084 3056 2656 
Q 3513 2228 3513 1497 
Q 3513 744 3044 326 
Q 2575 -91 1722 -91 
Q 1428 -91 1123 -41 
Q 819 9 494 109 
L 494 744 
Q 775 591 1075 516 
Q 1375 441 1709 441 
Q 2250 441 2565 725 
Q 2881 1009 2881 1497 
Q 2881 1984 2565 2268 
Q 2250 2553 1709 2553 
Q 1456 2553 1204 2497 
Q 953 2441 691 2322 
L 691 4666 
z
" transform="scale(0.015625)"/>
       </defs>
       <use xlink:href="#DejaVuSans-35"/>
      </g>
     </g>
    </g>
    <g id="xtick_3">
     <g id="line2d_3">
      <g>
       <use xlink:href="#mc6e8d02a4d" x="218.861242" y="320.243478" style="stroke: #000000; stroke-width: 0.8"/>
      </g>
     </g>
     <g id="text_3">
      <!-- 10 -->
      <g transform="translate(209.317492 338.641135) scale(0.15 -0.15)">
       <defs>
        <path id="DejaVuSans-31" d="M 794 531 
L 1825 531 
L 1825 4091 
L 703 3866 
L 703 4441 
L 1819 4666 
L 2450 4666 
L 2450 531 
L 3481 531 
L 3481 0 
L 794 0 
L 794 531 
z
" transform="scale(0.015625)"/>
       </defs>
       <use xlink:href="#DejaVuSans-31"/>
       <use xlink:href="#DejaVuSans-30" x="63.623047"/>
      </g>
     </g>
    </g>
    <g id="xtick_4">
     <g id="line2d_4">
      <g>
       <use xlink:href="#mc6e8d02a4d" x="280.616182" y="320.243478" style="stroke: #000000; stroke-width: 0.8"/>
      </g>
     </g>
     <g id="text_4">
      <!-- 15 -->
      <g transform="translate(271.072432 338.641135) scale(0.15 -0.15)">
       <use xlink:href="#DejaVuSans-31"/>
       <use xlink:href="#DejaVuSans-35" x="63.623047"/>
      </g>
     </g>
    </g>
    <g id="xtick_5">
     <g id="line2d_5">
      <g>
       <use xlink:href="#mc6e8d02a4d" x="342.371123" y="320.243478" style="stroke: #000000; stroke-width: 0.8"/>
      </g>
     </g>
     <g id="text_5">
      <!-- 20 -->
      <g transform="translate(332.827373 338.641135) scale(0.15 -0.15)">
       <defs>
        <path id="DejaVuSans-32" d="M 1228 531 
L 3431 531 
L 3431 0 
L 469 0 
L 469 531 
Q 828 903 1448 1529 
Q 2069 2156 2228 2338 
Q 2531 2678 2651 2914 
Q 2772 3150 2772 3378 
Q 2772 3750 2511 3984 
Q 2250 4219 1831 4219 
Q 1534 4219 1204 4116 
Q 875 4013 500 3803 
L 500 4441 
Q 881 4594 1212 4672 
Q 1544 4750 1819 4750 
Q 2544 4750 2975 4387 
Q 3406 4025 3406 3419 
Q 3406 3131 3298 2873 
Q 3191 2616 2906 2266 
Q 2828 2175 2409 1742 
Q 1991 1309 1228 531 
z
" transform="scale(0.015625)"/>
       </defs>
       <use xlink:href="#DejaVuSans-32"/>
       <use xlink:href="#DejaVuSans-30" x="63.623047"/>
      </g>
     </g>
    </g>
    <g id="xtick_6">
     <g id="line2d_6">
      <g>
       <use xlink:href="#mc6e8d02a4d" x="404.126064" y="320.243478" style="stroke: #000000; stroke-width: 0.8"/>
      </g>
     </g>
     <g id="text_6">
      <!-- 25 -->
      <g transform="translate(394.582314 338.641135) scale(0.15 -0.15)">
       <use xlink:href="#DejaVuSans-32"/>
       <use xlink:href="#DejaVuSans-35" x="63.623047"/>
      </g>
     </g>
    </g>
    <g id="text_7">
     <!-- time [hr] -->
     <g transform="translate(204.664181 359.437853) scale(0.18 -0.18)">
      <defs>
       <path id="DejaVuSans-Bold-74" d="M 1759 4494 
L 1759 3500 
L 2913 3500 
L 2913 2700 
L 1759 2700 
L 1759 1216 
Q 1759 972 1856 886 
Q 1953 800 2241 800 
L 2816 800 
L 2816 0 
L 1856 0 
Q 1194 0 917 276 
Q 641 553 641 1216 
L 641 2700 
L 84 2700 
L 84 3500 
L 641 3500 
L 641 4494 
L 1759 4494 
z
" transform="scale(0.015625)"/>
       <path id="DejaVuSans-Bold-69" d="M 538 3500 
L 1656 3500 
L 1656 0 
L 538 0 
L 538 3500 
z
M 538 4863 
L 1656 4863 
L 1656 3950 
L 538 3950 
L 538 4863 
z
" transform="scale(0.015625)"/>
       <path id="DejaVuSans-Bold-6d" d="M 3781 2919 
Q 3994 3244 4286 3414 
Q 4578 3584 4928 3584 
Q 5531 3584 5847 3212 
Q 6163 2841 6163 2131 
L 6163 0 
L 5038 0 
L 5038 1825 
Q 5041 1866 5042 1909 
Q 5044 1953 5044 2034 
Q 5044 2406 4934 2573 
Q 4825 2741 4581 2741 
Q 4263 2741 4089 2478 
Q 3916 2216 3909 1719 
L 3909 0 
L 2784 0 
L 2784 1825 
Q 2784 2406 2684 2573 
Q 2584 2741 2328 2741 
Q 2006 2741 1831 2477 
Q 1656 2213 1656 1722 
L 1656 0 
L 531 0 
L 531 3500 
L 1656 3500 
L 1656 2988 
Q 1863 3284 2130 3434 
Q 2397 3584 2719 3584 
Q 3081 3584 3359 3409 
Q 3638 3234 3781 2919 
z
" transform="scale(0.015625)"/>
       <path id="DejaVuSans-Bold-65" d="M 4031 1759 
L 4031 1441 
L 1416 1441 
Q 1456 1047 1700 850 
Q 1944 653 2381 653 
Q 2734 653 3104 758 
Q 3475 863 3866 1075 
L 3866 213 
Q 3469 63 3072 -14 
Q 2675 -91 2278 -91 
Q 1328 -91 801 392 
Q 275 875 275 1747 
Q 275 2603 792 3093 
Q 1309 3584 2216 3584 
Q 3041 3584 3536 3087 
Q 4031 2591 4031 1759 
z
M 2881 2131 
Q 2881 2450 2695 2645 
Q 2509 2841 2209 2841 
Q 1884 2841 1681 2658 
Q 1478 2475 1428 2131 
L 2881 2131 
z
" transform="scale(0.015625)"/>
       <path id="DejaVuSans-Bold-20" transform="scale(0.015625)"/>
       <path id="DejaVuSans-Bold-5b" d="M 550 4863 
L 2491 4863 
L 2491 4159 
L 1613 4159 
L 1613 -141 
L 2491 -141 
L 2491 -844 
L 550 -844 
L 550 4863 
z
" transform="scale(0.015625)"/>
       <path id="DejaVuSans-Bold-68" d="M 4056 2131 
L 4056 0 
L 2931 0 
L 2931 347 
L 2931 1625 
Q 2931 2084 2911 2256 
Q 2891 2428 2841 2509 
Q 2775 2619 2662 2680 
Q 2550 2741 2406 2741 
Q 2056 2741 1856 2470 
Q 1656 2200 1656 1722 
L 1656 0 
L 538 0 
L 538 4863 
L 1656 4863 
L 1656 2988 
Q 1909 3294 2193 3439 
Q 2478 3584 2822 3584 
Q 3428 3584 3742 3212 
Q 4056 2841 4056 2131 
z
" transform="scale(0.015625)"/>
       <path id="DejaVuSans-Bold-72" d="M 3138 2547 
Q 2991 2616 2845 2648 
Q 2700 2681 2553 2681 
Q 2122 2681 1889 2404 
Q 1656 2128 1656 1613 
L 1656 0 
L 538 0 
L 538 3500 
L 1656 3500 
L 1656 2925 
Q 1872 3269 2151 3426 
Q 2431 3584 2822 3584 
Q 2878 3584 2943 3579 
Q 3009 3575 3134 3559 
L 3138 2547 
z
" transform="scale(0.015625)"/>
       <path id="DejaVuSans-Bold-5d" d="M 2375 -844 
L 434 -844 
L 434 -141 
L 1313 -141 
L 1313 4159 
L 434 4159 
L 434 4863 
L 2375 4863 
L 2375 -844 
z
" transform="scale(0.015625)"/>
      </defs>
      <use xlink:href="#DejaVuSans-Bold-74"/>
      <use xlink:href="#DejaVuSans-Bold-69" x="47.802734"/>
      <use xlink:href="#DejaVuSans-Bold-6d" x="82.080078"/>
      <use xlink:href="#DejaVuSans-Bold-65" x="186.279297"/>
      <use xlink:href="#DejaVuSans-Bold-20" x="254.101562"/>
      <use xlink:href="#DejaVuSans-Bold-5b" x="288.916016"/>
      <use xlink:href="#DejaVuSans-Bold-68" x="334.619141"/>
      <use xlink:href="#DejaVuSans-Bold-72" x="405.810547"/>
      <use xlink:href="#DejaVuSans-Bold-5d" x="455.126953"/>
     </g>
    </g>
   </g>
   <g id="matplotlib.axis_2">
    <g id="ytick_1">
     <g id="line2d_7">
      <defs>
       <path id="mde7ae87f64" d="M 0 0 
L -3.5 0 
" style="stroke: #000000; stroke-width: 0.8"/>
      </defs>
      <g>
       <use xlink:href="#mde7ae87f64" x="79.912625" y="309.286957" style="stroke: #000000; stroke-width: 0.8"/>
      </g>
     </g>
     <g id="text_8">
      <!-- 0.0 -->
      <g transform="translate(49.057937 314.985785) scale(0.15 -0.15)">
       <defs>
        <path id="DejaVuSans-2e" d="M 684 794 
L 1344 794 
L 1344 0 
L 684 0 
L 684 794 
z
" transform="scale(0.015625)"/>
       </defs>
       <use xlink:href="#DejaVuSans-30"/>
       <use xlink:href="#DejaVuSans-2e" x="63.623047"/>
       <use xlink:href="#DejaVuSans-30" x="95.410156"/>
      </g>
     </g>
    </g>
    <g id="ytick_2">
     <g id="line2d_8">
      <g>
       <use xlink:href="#mde7ae87f64" x="79.912625" y="261.908366" style="stroke: #000000; stroke-width: 0.8"/>
      </g>
     </g>
     <g id="text_9">
      <!-- 0.1 -->
      <g transform="translate(49.057937 267.607194) scale(0.15 -0.15)">
       <use xlink:href="#DejaVuSans-30"/>
       <use xlink:href="#DejaVuSans-2e" x="63.623047"/>
       <use xlink:href="#DejaVuSans-31" x="95.410156"/>
      </g>
     </g>
    </g>
    <g id="ytick_3">
     <g id="line2d_9">
      <g>
       <use xlink:href="#mde7ae87f64" x="79.912625" y="214.529776" style="stroke: #000000; stroke-width: 0.8"/>
      </g>
     </g>
     <g id="text_10">
      <!-- 0.2 -->
      <g transform="translate(49.057937 220.228604) scale(0.15 -0.15)">
       <use xlink:href="#DejaVuSans-30"/>
       <use xlink:href="#DejaVuSans-2e" x="63.623047"/>
       <use xlink:href="#DejaVuSans-32" x="95.410156"/>
      </g>
     </g>
    </g>
    <g id="ytick_4">
     <g id="line2d_10">
      <g>
       <use xlink:href="#mde7ae87f64" x="79.912625" y="167.151185" style="stroke: #000000; stroke-width: 0.8"/>
      </g>
     </g>
     <g id="text_11">
      <!-- 0.3 -->
      <g transform="translate(49.057937 172.850014) scale(0.15 -0.15)">
       <defs>
        <path id="DejaVuSans-33" d="M 2597 2516 
Q 3050 2419 3304 2112 
Q 3559 1806 3559 1356 
Q 3559 666 3084 287 
Q 2609 -91 1734 -91 
Q 1441 -91 1130 -33 
Q 819 25 488 141 
L 488 750 
Q 750 597 1062 519 
Q 1375 441 1716 441 
Q 2309 441 2620 675 
Q 2931 909 2931 1356 
Q 2931 1769 2642 2001 
Q 2353 2234 1838 2234 
L 1294 2234 
L 1294 2753 
L 1863 2753 
Q 2328 2753 2575 2939 
Q 2822 3125 2822 3475 
Q 2822 3834 2567 4026 
Q 2313 4219 1838 4219 
Q 1578 4219 1281 4162 
Q 984 4106 628 3988 
L 628 4550 
Q 988 4650 1302 4700 
Q 1616 4750 1894 4750 
Q 2613 4750 3031 4423 
Q 3450 4097 3450 3541 
Q 3450 3153 3228 2886 
Q 3006 2619 2597 2516 
z
" transform="scale(0.015625)"/>
       </defs>
       <use xlink:href="#DejaVuSans-30"/>
       <use xlink:href="#DejaVuSans-2e" x="63.623047"/>
       <use xlink:href="#DejaVuSans-33" x="95.410156"/>
      </g>
     </g>
    </g>
    <g id="ytick_5">
     <g id="line2d_11">
      <g>
       <use xlink:href="#mde7ae87f64" x="79.912625" y="119.772595" style="stroke: #000000; stroke-width: 0.8"/>
      </g>
     </g>
     <g id="text_12">
      <!-- 0.4 -->
      <g transform="translate(49.057937 125.471423) scale(0.15 -0.15)">
       <defs>
        <path id="DejaVuSans-34" d="M 2419 4116 
L 825 1625 
L 2419 1625 
L 2419 4116 
z
M 2253 4666 
L 3047 4666 
L 3047 1625 
L 3713 1625 
L 3713 1100 
L 3047 1100 
L 3047 0 
L 2419 0 
L 2419 1100 
L 313 1100 
L 313 1709 
L 2253 4666 
z
" transform="scale(0.015625)"/>
       </defs>
       <use xlink:href="#DejaVuSans-30"/>
       <use xlink:href="#DejaVuSans-2e" x="63.623047"/>
       <use xlink:href="#DejaVuSans-34" x="95.410156"/>
      </g>
     </g>
    </g>
    <g id="text_13">
     <!-- dapagliflozin plasma [µM] -->
     <g transform="translate(41.173875 331.760177) rotate(-90) scale(0.18 -0.18)">
      <defs>
       <path id="DejaVuSans-Bold-64" d="M 2919 2988 
L 2919 4863 
L 4044 4863 
L 4044 0 
L 2919 0 
L 2919 506 
Q 2688 197 2409 53 
Q 2131 -91 1766 -91 
Q 1119 -91 703 423 
Q 288 938 288 1747 
Q 288 2556 703 3070 
Q 1119 3584 1766 3584 
Q 2128 3584 2408 3439 
Q 2688 3294 2919 2988 
z
M 2181 722 
Q 2541 722 2730 984 
Q 2919 1247 2919 1747 
Q 2919 2247 2730 2509 
Q 2541 2772 2181 2772 
Q 1825 2772 1636 2509 
Q 1447 2247 1447 1747 
Q 1447 1247 1636 984 
Q 1825 722 2181 722 
z
" transform="scale(0.015625)"/>
       <path id="DejaVuSans-Bold-61" d="M 2106 1575 
Q 1756 1575 1579 1456 
Q 1403 1338 1403 1106 
Q 1403 894 1545 773 
Q 1688 653 1941 653 
Q 2256 653 2472 879 
Q 2688 1106 2688 1447 
L 2688 1575 
L 2106 1575 
z
M 3816 1997 
L 3816 0 
L 2688 0 
L 2688 519 
Q 2463 200 2181 54 
Q 1900 -91 1497 -91 
Q 953 -91 614 226 
Q 275 544 275 1050 
Q 275 1666 698 1953 
Q 1122 2241 2028 2241 
L 2688 2241 
L 2688 2328 
Q 2688 2594 2478 2717 
Q 2269 2841 1825 2841 
Q 1466 2841 1156 2769 
Q 847 2697 581 2553 
L 581 3406 
Q 941 3494 1303 3539 
Q 1666 3584 2028 3584 
Q 2975 3584 3395 3211 
Q 3816 2838 3816 1997 
z
" transform="scale(0.015625)"/>
       <path id="DejaVuSans-Bold-70" d="M 1656 506 
L 1656 -1331 
L 538 -1331 
L 538 3500 
L 1656 3500 
L 1656 2988 
Q 1888 3294 2169 3439 
Q 2450 3584 2816 3584 
Q 3463 3584 3878 3070 
Q 4294 2556 4294 1747 
Q 4294 938 3878 423 
Q 3463 -91 2816 -91 
Q 2450 -91 2169 54 
Q 1888 200 1656 506 
z
M 2400 2772 
Q 2041 2772 1848 2508 
Q 1656 2244 1656 1747 
Q 1656 1250 1848 986 
Q 2041 722 2400 722 
Q 2759 722 2948 984 
Q 3138 1247 3138 1747 
Q 3138 2247 2948 2509 
Q 2759 2772 2400 2772 
z
" transform="scale(0.015625)"/>
       <path id="DejaVuSans-Bold-67" d="M 2919 594 
Q 2688 288 2409 144 
Q 2131 0 1766 0 
Q 1125 0 706 504 
Q 288 1009 288 1791 
Q 288 2575 706 3076 
Q 1125 3578 1766 3578 
Q 2131 3578 2409 3434 
Q 2688 3291 2919 2981 
L 2919 3500 
L 4044 3500 
L 4044 353 
Q 4044 -491 3511 -936 
Q 2978 -1381 1966 -1381 
Q 1638 -1381 1331 -1331 
Q 1025 -1281 716 -1178 
L 716 -306 
Q 1009 -475 1290 -558 
Q 1572 -641 1856 -641 
Q 2406 -641 2662 -400 
Q 2919 -159 2919 353 
L 2919 594 
z
M 2181 2772 
Q 1834 2772 1640 2515 
Q 1447 2259 1447 1791 
Q 1447 1309 1634 1061 
Q 1822 813 2181 813 
Q 2531 813 2725 1069 
Q 2919 1325 2919 1791 
Q 2919 2259 2725 2515 
Q 2531 2772 2181 2772 
z
" transform="scale(0.015625)"/>
       <path id="DejaVuSans-Bold-6c" d="M 538 4863 
L 1656 4863 
L 1656 0 
L 538 0 
L 538 4863 
z
" transform="scale(0.015625)"/>
       <path id="DejaVuSans-Bold-66" d="M 2841 4863 
L 2841 4128 
L 2222 4128 
Q 1984 4128 1890 4042 
Q 1797 3956 1797 3744 
L 1797 3500 
L 2753 3500 
L 2753 2700 
L 1797 2700 
L 1797 0 
L 678 0 
L 678 2700 
L 122 2700 
L 122 3500 
L 678 3500 
L 678 3744 
Q 678 4316 997 4589 
Q 1316 4863 1984 4863 
L 2841 4863 
z
" transform="scale(0.015625)"/>
       <path id="DejaVuSans-Bold-6f" d="M 2203 2784 
Q 1831 2784 1636 2517 
Q 1441 2250 1441 1747 
Q 1441 1244 1636 976 
Q 1831 709 2203 709 
Q 2569 709 2762 976 
Q 2956 1244 2956 1747 
Q 2956 2250 2762 2517 
Q 2569 2784 2203 2784 
z
M 2203 3584 
Q 3106 3584 3614 3096 
Q 4122 2609 4122 1747 
Q 4122 884 3614 396 
Q 3106 -91 2203 -91 
Q 1297 -91 786 396 
Q 275 884 275 1747 
Q 275 2609 786 3096 
Q 1297 3584 2203 3584 
z
" transform="scale(0.015625)"/>
       <path id="DejaVuSans-Bold-7a" d="M 366 3500 
L 3419 3500 
L 3419 2719 
L 1575 800 
L 3419 800 
L 3419 0 
L 288 0 
L 288 781 
L 2131 2700 
L 366 2700 
L 366 3500 
z
" transform="scale(0.015625)"/>
       <path id="DejaVuSans-Bold-6e" d="M 4056 2131 
L 4056 0 
L 2931 0 
L 2931 347 
L 2931 1631 
Q 2931 2084 2911 2256 
Q 2891 2428 2841 2509 
Q 2775 2619 2662 2680 
Q 2550 2741 2406 2741 
Q 2056 2741 1856 2470 
Q 1656 2200 1656 1722 
L 1656 0 
L 538 0 
L 538 3500 
L 1656 3500 
L 1656 2988 
Q 1909 3294 2193 3439 
Q 2478 3584 2822 3584 
Q 3428 3584 3742 3212 
Q 4056 2841 4056 2131 
z
" transform="scale(0.015625)"/>
       <path id="DejaVuSans-Bold-73" d="M 3272 3391 
L 3272 2541 
Q 2913 2691 2578 2766 
Q 2244 2841 1947 2841 
Q 1628 2841 1473 2761 
Q 1319 2681 1319 2516 
Q 1319 2381 1436 2309 
Q 1553 2238 1856 2203 
L 2053 2175 
Q 2913 2066 3209 1816 
Q 3506 1566 3506 1031 
Q 3506 472 3093 190 
Q 2681 -91 1863 -91 
Q 1516 -91 1145 -36 
Q 775 19 384 128 
L 384 978 
Q 719 816 1070 734 
Q 1422 653 1784 653 
Q 2113 653 2278 743 
Q 2444 834 2444 1013 
Q 2444 1163 2330 1236 
Q 2216 1309 1875 1350 
L 1678 1375 
Q 931 1469 631 1722 
Q 331 1975 331 2491 
Q 331 3047 712 3315 
Q 1094 3584 1881 3584 
Q 2191 3584 2531 3537 
Q 2872 3491 3272 3391 
z
" transform="scale(0.015625)"/>
       <path id="DejaVuSans-Bold-b5" d="M 544 -1338 
L 544 3500 
L 1672 3500 
L 1672 1466 
Q 1672 1103 1828 926 
Q 1984 750 2303 750 
Q 2625 750 2781 926 
Q 2938 1103 2938 1466 
L 2938 3500 
L 4063 3500 
L 4063 1159 
Q 4063 938 4114 850 
Q 4166 763 4288 763 
Q 4344 763 4395 778 
Q 4447 794 4506 831 
L 4506 50 
Q 4341 -22 4195 -56 
Q 4050 -91 3909 -91 
Q 3631 -91 3454 26 
Q 3278 144 3169 403 
Q 3022 156 2811 32 
Q 2600 -91 2322 -91 
Q 2091 -91 1928 -17 
Q 1766 56 1672 206 
L 1672 -1338 
L 544 -1338 
z
" transform="scale(0.015625)"/>
       <path id="DejaVuSans-Bold-4d" d="M 588 4666 
L 2119 4666 
L 3181 2169 
L 4250 4666 
L 5778 4666 
L 5778 0 
L 4641 0 
L 4641 3413 
L 3566 897 
L 2803 897 
L 1728 3413 
L 1728 0 
L 588 0 
L 588 4666 
z
" transform="scale(0.015625)"/>
      </defs>
      <use xlink:href="#DejaVuSans-Bold-64"/>
      <use xlink:href="#DejaVuSans-Bold-61" x="71.582031"/>
      <use xlink:href="#DejaVuSans-Bold-70" x="139.0625"/>
      <use xlink:href="#DejaVuSans-Bold-61" x="210.644531"/>
      <use xlink:href="#DejaVuSans-Bold-67" x="278.125"/>
      <use xlink:href="#DejaVuSans-Bold-6c" x="349.707031"/>
      <use xlink:href="#DejaVuSans-Bold-69" x="383.984375"/>
      <use xlink:href="#DejaVuSans-Bold-66" x="418.261719"/>
      <use xlink:href="#DejaVuSans-Bold-6c" x="461.767578"/>
      <use xlink:href="#DejaVuSans-Bold-6f" x="496.044922"/>
      <use xlink:href="#DejaVuSans-Bold-7a" x="564.746094"/>
      <use xlink:href="#DejaVuSans-Bold-69" x="622.949219"/>
      <use xlink:href="#DejaVuSans-Bold-6e" x="657.226562"/>
      <use xlink:href="#DejaVuSans-Bold-20" x="728.417969"/>
      <use xlink:href="#DejaVuSans-Bold-70" x="763.232422"/>
      <use xlink:href="#DejaVuSans-Bold-6c" x="834.814453"/>
      <use xlink:href="#DejaVuSans-Bold-61" x="869.091797"/>
      <use xlink:href="#DejaVuSans-Bold-73" x="936.572266"/>
      <use xlink:href="#DejaVuSans-Bold-6d" x="996.09375"/>
      <use xlink:href="#DejaVuSans-Bold-61" x="1100.292969"/>
      <use xlink:href="#DejaVuSans-Bold-20" x="1167.773438"/>
      <use xlink:href="#DejaVuSans-Bold-5b" x="1202.587891"/>
      <use xlink:href="#DejaVuSans-Bold-b5" x="1248.291016"/>
      <use xlink:href="#DejaVuSans-Bold-4d" x="1321.875"/>
      <use xlink:href="#DejaVuSans-Bold-5d" x="1421.386719"/>
     </g>
    </g>
   </g>
   <g id="LineCollection_1">
    <path clip-path="url(#pd0334615f8)" style="fill: none; stroke: #1f77b4"/>
    <path d="M 101.526854 294.779782 
L 101.526854 112.714744 
" clip-path="url(#pd0334615f8)" style="fill: none; stroke: #1f77b4"/>
    <path d="M 104.614601 226.233383 
L 104.614601 99.295607 
" clip-path="url(#pd0334615f8)" style="fill: none; stroke: #1f77b4"/>
    <path d="M 107.650671 214.990323 
L 107.650671 117.066896 
" clip-path="url(#pd0334615f8)" style="fill: none; stroke: #1f77b4"/>
    <path d="M 113.877842 233.84965 
L 113.877842 175.095594 
" clip-path="url(#pd0334615f8)" style="fill: none; stroke: #1f77b4"/>
    <path d="M 120.053336 247.994145 
L 120.053336 204.472622 
" clip-path="url(#pd0334615f8)" style="fill: none; stroke: #1f77b4"/>
    <path d="M 144.755313 282.086005 
L 144.755313 251.620938 
" clip-path="url(#pd0334615f8)" style="fill: none; stroke: #1f77b4"/>
    <path d="M 194.159265 298.769255 
L 194.159265 283.899401 
" clip-path="url(#pd0334615f8)" style="fill: none; stroke: #1f77b4"/>
    <path d="M 243.563218 302.396049 
L 243.563218 294.417103 
" clip-path="url(#pd0334615f8)" style="fill: none; stroke: #1f77b4"/>
   </g>
   <g id="LineCollection_2">
    <path clip-path="url(#pd0334615f8)" style="fill: none; stroke: #ff7f0e"/>
    <path d="M 101.526854 258.389358 
L 101.526854 109.876989 
" clip-path="url(#pd0334615f8)" style="fill: none; stroke: #ff7f0e"/>
    <path d="M 104.614601 208.876054 
L 104.614601 90.156522 
" clip-path="url(#pd0334615f8)" style="fill: none; stroke: #ff7f0e"/>
    <path d="M 107.650671 202.449017 
L 107.650671 135.526121 
" clip-path="url(#pd0334615f8)" style="fill: none; stroke: #ff7f0e"/>
    <path d="M 113.877842 226.265318 
L 113.877842 181.344255 
" clip-path="url(#pd0334615f8)" style="fill: none; stroke: #ff7f0e"/>
    <path d="M 120.053336 250.53868 
L 120.053336 204.243813 
" clip-path="url(#pd0334615f8)" style="fill: none; stroke: #ff7f0e"/>
    <path d="M 144.755313 282.549274 
L 144.755313 260.547442 
" clip-path="url(#pd0334615f8)" style="fill: none; stroke: #ff7f0e"/>
    <path d="M 194.159265 300.731344 
L 194.159265 285.146057 
" clip-path="url(#pd0334615f8)" style="fill: none; stroke: #ff7f0e"/>
    <path d="M 243.563218 305.619984 
L 243.563218 295.07744 
" clip-path="url(#pd0334615f8)" style="fill: none; stroke: #ff7f0e"/>
   </g>
   <g id="line2d_12">
    <path d="M 95.35136 309.286957 
L 95.96891 306.332515 
L 96.586459 296.924954 
L 97.821558 269.088102 
L 99.674206 227.140197 
L 100.909305 205.665876 
L 102.144404 190.231066 
L 102.761953 184.586667 
L 103.379502 180.165016 
L 103.997052 176.837055 
L 104.614601 174.47565 
L 105.232151 172.959982 
L 105.8497 172.177996 
L 106.46725 172.02756 
L 107.084799 172.416773 
L 107.702348 173.263758 
L 108.319898 174.496126 
L 109.554997 177.870644 
L 110.790095 182.122954 
L 112.642744 189.483077 
L 120.670886 223.06971 
L 123.141083 232.145828 
L 125.611281 240.382008 
L 128.081479 247.793756 
L 130.551676 254.429382 
L 133.021874 260.351137 
L 135.492072 265.625146 
L 137.962269 270.316221 
L 140.432467 274.485341 
L 142.902665 278.188582 
L 145.372862 281.476831 
L 147.84306 284.395891 
L 150.313257 286.986783 
L 152.783455 289.286134 
L 155.253653 291.326576 
L 158.3414 293.556969 
L 161.429147 295.477696 
L 164.516894 297.131666 
L 167.604641 298.555877 
L 171.309937 300.006226 
L 175.015234 301.21824 
L 179.33808 302.382908 
L 183.660925 303.327515 
L 188.601321 304.190618 
L 194.159265 304.944192 
L 200.952309 305.628396 
L 208.980451 306.194698 
L 218.861242 306.648917 
L 231.21223 306.983959 
L 249.121163 307.225091 
L 278.763534 307.367195 
L 357.192309 307.443363 
L 404.126064 307.466199 
L 404.126064 307.466199 
" clip-path="url(#pd0334615f8)" style="fill: none; stroke: #000000; stroke-width: 2; stroke-linecap: square"/>
   </g>
   <g id="line2d_13">
    <path d="M 95.35136 309.286957 
L 101.526854 203.747263 
L 104.614601 162.764495 
L 107.650671 166.02861 
L 113.877842 204.472622 
L 120.053336 226.233383 
L 144.755313 266.853471 
L 194.159265 291.334328 
L 243.563218 298.406576 
" clip-path="url(#pd0334615f8)" style="fill: none; stroke-dasharray: 3.7,1.6; stroke-dashoffset: 0; stroke: #1f77b4"/>
    <defs>
     <path id="mac23332332" d="M -3 3 
L 3 3 
L 3 -3 
L -3 -3 
z
" style="stroke: #000000; stroke-linejoin: miter"/>
    </defs>
    <g clip-path="url(#pd0334615f8)">
     <use xlink:href="#mac23332332" x="95.35136" y="309.286957" style="fill: #1f77b4; stroke: #000000; stroke-linejoin: miter"/>
     <use xlink:href="#mac23332332" x="101.526854" y="203.747263" style="fill: #1f77b4; stroke: #000000; stroke-linejoin: miter"/>
     <use xlink:href="#mac23332332" x="104.614601" y="162.764495" style="fill: #1f77b4; stroke: #000000; stroke-linejoin: miter"/>
     <use xlink:href="#mac23332332" x="107.650671" y="166.02861" style="fill: #1f77b4; stroke: #000000; stroke-linejoin: miter"/>
     <use xlink:href="#mac23332332" x="113.877842" y="204.472622" style="fill: #1f77b4; stroke: #000000; stroke-linejoin: miter"/>
     <use xlink:href="#mac23332332" x="120.053336" y="226.233383" style="fill: #1f77b4; stroke: #000000; stroke-linejoin: miter"/>
     <use xlink:href="#mac23332332" x="144.755313" y="266.853471" style="fill: #1f77b4; stroke: #000000; stroke-linejoin: miter"/>
     <use xlink:href="#mac23332332" x="194.159265" y="291.334328" style="fill: #1f77b4; stroke: #000000; stroke-linejoin: miter"/>
     <use xlink:href="#mac23332332" x="243.563218" y="298.406576" style="fill: #1f77b4; stroke: #000000; stroke-linejoin: miter"/>
    </g>
   </g>
   <g id="line2d_14">
    <path d="M 95.35136 309.286957 
L 101.526854 184.133173 
L 104.614601 149.516288 
L 107.650671 168.987569 
L 113.877842 203.804787 
L 120.053336 227.391247 
L 144.755313 271.548358 
L 194.159265 292.938701 
L 243.563218 300.348712 
" clip-path="url(#pd0334615f8)" style="fill: none; stroke-dasharray: 3.7,1.6; stroke-dashoffset: 0; stroke: #ff7f0e"/>
    <defs>
     <path id="m91d95f08b2" d="M -3 3 
L 3 3 
L 3 -3 
L -3 -3 
z
" style="stroke: #000000; stroke-linejoin: miter"/>
    </defs>
    <g clip-path="url(#pd0334615f8)">
     <use xlink:href="#m91d95f08b2" x="95.35136" y="309.286957" style="fill: #ff7f0e; stroke: #000000; stroke-linejoin: miter"/>
     <use xlink:href="#m91d95f08b2" x="101.526854" y="184.133173" style="fill: #ff7f0e; stroke: #000000; stroke-linejoin: miter"/>
     <use xlink:href="#m91d95f08b2" x="104.614601" y="149.516288" style="fill: #ff7f0e; stroke: #000000; stroke-linejoin: miter"/>
     <use xlink:href="#m91d95f08b2" x="107.650671" y="168.987569" style="fill: #ff7f0e; stroke: #000000; stroke-linejoin: miter"/>
     <use xlink:href="#m91d95f08b2" x="113.877842" y="203.804787" style="fill: #ff7f0e; stroke: #000000; stroke-linejoin: miter"/>
     <use xlink:href="#m91d95f08b2" x="120.053336" y="227.391247" style="fill: #ff7f0e; stroke: #000000; stroke-linejoin: miter"/>
     <use xlink:href="#m91d95f08b2" x="144.755313" y="271.548358" style="fill: #ff7f0e; stroke: #000000; stroke-linejoin: miter"/>
     <use xlink:href="#m91d95f08b2" x="194.159265" y="292.938701" style="fill: #ff7f0e; stroke: #000000; stroke-linejoin: miter"/>
     <use xlink:href="#m91d95f08b2" x="243.563218" y="300.348712" style="fill: #ff7f0e; stroke: #000000; stroke-linejoin: miter"/>
    </g>
   </g>
   <g id="patch_3">
    <path d="M 79.912625 320.243478 
L 79.912625 79.2 
" style="fill: none; stroke: #000000; stroke-width: 0.8; stroke-linejoin: miter; stroke-linecap: square"/>
   </g>
   <g id="patch_4">
    <path d="M 419.564799 320.243478 
L 419.564799 79.2 
" style="fill: none; stroke: #000000; stroke-width: 0.8; stroke-linejoin: miter; stroke-linecap: square"/>
   </g>
   <g id="patch_5">
    <path d="M 79.912625 320.243478 
L 419.564799 320.243478 
" style="fill: none; stroke: #000000; stroke-width: 0.8; stroke-linejoin: miter; stroke-linecap: square"/>
   </g>
   <g id="patch_6">
    <path d="M 79.912625 79.2 
L 419.564799 79.2 
" style="fill: none; stroke: #000000; stroke-width: 0.8; stroke-linejoin: miter; stroke-linecap: square"/>
   </g>
   <g id="legend_1">
    <g id="patch_7">
     <path d="M 299.405424 131.234375 
L 412.564799 131.234375 
Q 414.564799 131.234375 414.564799 129.234375 
L 414.564799 86.2 
Q 414.564799 84.2 412.564799 84.2 
L 299.405424 84.2 
Q 297.405424 84.2 297.405424 86.2 
L 297.405424 129.234375 
Q 297.405424 131.234375 299.405424 131.234375 
z
" style="fill: #ffffff; opacity: 0.8; stroke: #cccccc; stroke-linejoin: miter"/>
    </g>
    <g id="line2d_15">
     <path d="M 301.405424 92.298437 
L 321.405424 92.298437 
" style="fill: none; stroke: #000000; stroke-width: 2; stroke-linecap: square"/>
    </g>
    <g id="line2d_16"/>
    <g id="text_14">
     <!-- Sim -->
     <g transform="translate(329.405424 95.798437) scale(0.1 -0.1)">
      <defs>
       <path id="DejaVuSans-53" d="M 3425 4513 
L 3425 3897 
Q 3066 4069 2747 4153 
Q 2428 4238 2131 4238 
Q 1616 4238 1336 4038 
Q 1056 3838 1056 3469 
Q 1056 3159 1242 3001 
Q 1428 2844 1947 2747 
L 2328 2669 
Q 3034 2534 3370 2195 
Q 3706 1856 3706 1288 
Q 3706 609 3251 259 
Q 2797 -91 1919 -91 
Q 1588 -91 1214 -16 
Q 841 59 441 206 
L 441 856 
Q 825 641 1194 531 
Q 1563 422 1919 422 
Q 2459 422 2753 634 
Q 3047 847 3047 1241 
Q 3047 1584 2836 1778 
Q 2625 1972 2144 2069 
L 1759 2144 
Q 1053 2284 737 2584 
Q 422 2884 422 3419 
Q 422 4038 858 4394 
Q 1294 4750 2059 4750 
Q 2388 4750 2728 4690 
Q 3069 4631 3425 4513 
z
" transform="scale(0.015625)"/>
       <path id="DejaVuSans-69" d="M 603 3500 
L 1178 3500 
L 1178 0 
L 603 0 
L 603 3500 
z
M 603 4863 
L 1178 4863 
L 1178 4134 
L 603 4134 
L 603 4863 
z
" transform="scale(0.015625)"/>
       <path id="DejaVuSans-6d" d="M 3328 2828 
Q 3544 3216 3844 3400 
Q 4144 3584 4550 3584 
Q 5097 3584 5394 3201 
Q 5691 2819 5691 2113 
L 5691 0 
L 5113 0 
L 5113 2094 
Q 5113 2597 4934 2840 
Q 4756 3084 4391 3084 
Q 3944 3084 3684 2787 
Q 3425 2491 3425 1978 
L 3425 0 
L 2847 0 
L 2847 2094 
Q 2847 2600 2669 2842 
Q 2491 3084 2119 3084 
Q 1678 3084 1418 2786 
Q 1159 2488 1159 1978 
L 1159 0 
L 581 0 
L 581 3500 
L 1159 3500 
L 1159 2956 
Q 1356 3278 1631 3431 
Q 1906 3584 2284 3584 
Q 2666 3584 2933 3390 
Q 3200 3197 3328 2828 
z
" transform="scale(0.015625)"/>
      </defs>
      <use xlink:href="#DejaVuSans-53"/>
      <use xlink:href="#DejaVuSans-69" x="63.476562"/>
      <use xlink:href="#DejaVuSans-6d" x="91.259766"/>
     </g>
    </g>
    <g id="LineCollection_3">
     <path d="M 311.405424 111.976562 
L 311.405424 101.976562 
" style="fill: none; stroke: #1f77b4"/>
    </g>
    <g id="line2d_17">
     <path d="M 301.405424 106.976562 
L 321.405424 106.976562 
" style="fill: none; stroke-dasharray: 3.7,1.6; stroke-dashoffset: 0; stroke: #1f77b4"/>
    </g>
    <g id="line2d_18">
     <g>
      <use xlink:href="#mac23332332" x="311.405424" y="106.976562" style="fill: #1f77b4; stroke: #000000; stroke-linejoin: miter"/>
     </g>
    </g>
    <g id="text_15">
     <!-- RIF±SD (n=14) -->
     <g transform="translate(329.405424 110.476562) scale(0.1 -0.1)">
      <defs>
       <path id="DejaVuSans-52" d="M 2841 2188 
Q 3044 2119 3236 1894 
Q 3428 1669 3622 1275 
L 4263 0 
L 3584 0 
L 2988 1197 
Q 2756 1666 2539 1819 
Q 2322 1972 1947 1972 
L 1259 1972 
L 1259 0 
L 628 0 
L 628 4666 
L 2053 4666 
Q 2853 4666 3247 4331 
Q 3641 3997 3641 3322 
Q 3641 2881 3436 2590 
Q 3231 2300 2841 2188 
z
M 1259 4147 
L 1259 2491 
L 2053 2491 
Q 2509 2491 2742 2702 
Q 2975 2913 2975 3322 
Q 2975 3731 2742 3939 
Q 2509 4147 2053 4147 
L 1259 4147 
z
" transform="scale(0.015625)"/>
       <path id="DejaVuSans-49" d="M 628 4666 
L 1259 4666 
L 1259 0 
L 628 0 
L 628 4666 
z
" transform="scale(0.015625)"/>
       <path id="DejaVuSans-46" d="M 628 4666 
L 3309 4666 
L 3309 4134 
L 1259 4134 
L 1259 2759 
L 3109 2759 
L 3109 2228 
L 1259 2228 
L 1259 0 
L 628 0 
L 628 4666 
z
" transform="scale(0.015625)"/>
       <path id="DejaVuSans-b1" d="M 2944 4013 
L 2944 2803 
L 4684 2803 
L 4684 2272 
L 2944 2272 
L 2944 1063 
L 2419 1063 
L 2419 2272 
L 678 2272 
L 678 2803 
L 2419 2803 
L 2419 4013 
L 2944 4013 
z
M 678 531 
L 4684 531 
L 4684 0 
L 678 0 
L 678 531 
z
" transform="scale(0.015625)"/>
       <path id="DejaVuSans-44" d="M 1259 4147 
L 1259 519 
L 2022 519 
Q 2988 519 3436 956 
Q 3884 1394 3884 2338 
Q 3884 3275 3436 3711 
Q 2988 4147 2022 4147 
L 1259 4147 
z
M 628 4666 
L 1925 4666 
Q 3281 4666 3915 4102 
Q 4550 3538 4550 2338 
Q 4550 1131 3912 565 
Q 3275 0 1925 0 
L 628 0 
L 628 4666 
z
" transform="scale(0.015625)"/>
       <path id="DejaVuSans-20" transform="scale(0.015625)"/>
       <path id="DejaVuSans-28" d="M 1984 4856 
Q 1566 4138 1362 3434 
Q 1159 2731 1159 2009 
Q 1159 1288 1364 580 
Q 1569 -128 1984 -844 
L 1484 -844 
Q 1016 -109 783 600 
Q 550 1309 550 2009 
Q 550 2706 781 3412 
Q 1013 4119 1484 4856 
L 1984 4856 
z
" transform="scale(0.015625)"/>
       <path id="DejaVuSans-6e" d="M 3513 2113 
L 3513 0 
L 2938 0 
L 2938 2094 
Q 2938 2591 2744 2837 
Q 2550 3084 2163 3084 
Q 1697 3084 1428 2787 
Q 1159 2491 1159 1978 
L 1159 0 
L 581 0 
L 581 3500 
L 1159 3500 
L 1159 2956 
Q 1366 3272 1645 3428 
Q 1925 3584 2291 3584 
Q 2894 3584 3203 3211 
Q 3513 2838 3513 2113 
z
" transform="scale(0.015625)"/>
       <path id="DejaVuSans-3d" d="M 678 2906 
L 4684 2906 
L 4684 2381 
L 678 2381 
L 678 2906 
z
M 678 1631 
L 4684 1631 
L 4684 1100 
L 678 1100 
L 678 1631 
z
" transform="scale(0.015625)"/>
       <path id="DejaVuSans-29" d="M 513 4856 
L 1013 4856 
Q 1481 4119 1714 3412 
Q 1947 2706 1947 2009 
Q 1947 1309 1714 600 
Q 1481 -109 1013 -844 
L 513 -844 
Q 928 -128 1133 580 
Q 1338 1288 1338 2009 
Q 1338 2731 1133 3434 
Q 928 4138 513 4856 
z
" transform="scale(0.015625)"/>
      </defs>
      <use xlink:href="#DejaVuSans-52"/>
      <use xlink:href="#DejaVuSans-49" x="69.482422"/>
      <use xlink:href="#DejaVuSans-46" x="98.974609"/>
      <use xlink:href="#DejaVuSans-b1" x="156.494141"/>
      <use xlink:href="#DejaVuSans-53" x="240.283203"/>
      <use xlink:href="#DejaVuSans-44" x="303.759766"/>
      <use xlink:href="#DejaVuSans-20" x="380.761719"/>
      <use xlink:href="#DejaVuSans-28" x="412.548828"/>
      <use xlink:href="#DejaVuSans-6e" x="451.5625"/>
      <use xlink:href="#DejaVuSans-3d" x="514.941406"/>
      <use xlink:href="#DejaVuSans-31" x="598.730469"/>
      <use xlink:href="#DejaVuSans-34" x="662.353516"/>
      <use xlink:href="#DejaVuSans-29" x="725.976562"/>
     </g>
    </g>
    <g id="LineCollection_4">
     <path d="M 311.405424 126.654687 
L 311.405424 116.654687 
" style="fill: none; stroke: #ff7f0e"/>
    </g>
    <g id="line2d_19">
     <path d="M 301.405424 121.654687 
L 321.405424 121.654687 
" style="fill: none; stroke-dasharray: 3.7,1.6; stroke-dashoffset: 0; stroke: #ff7f0e"/>
    </g>
    <g id="line2d_20">
     <g>
      <use xlink:href="#m91d95f08b2" x="311.405424" y="121.654687" style="fill: #ff7f0e; stroke: #000000; stroke-linejoin: miter"/>
     </g>
    </g>
    <g id="text_16">
     <!-- MFA±SD (n=16) -->
     <g transform="translate(329.405424 125.154687) scale(0.1 -0.1)">
      <defs>
       <path id="DejaVuSans-4d" d="M 628 4666 
L 1569 4666 
L 2759 1491 
L 3956 4666 
L 4897 4666 
L 4897 0 
L 4281 0 
L 4281 4097 
L 3078 897 
L 2444 897 
L 1241 4097 
L 1241 0 
L 628 0 
L 628 4666 
z
" transform="scale(0.015625)"/>
       <path id="DejaVuSans-41" d="M 2188 4044 
L 1331 1722 
L 3047 1722 
L 2188 4044 
z
M 1831 4666 
L 2547 4666 
L 4325 0 
L 3669 0 
L 3244 1197 
L 1141 1197 
L 716 0 
L 50 0 
L 1831 4666 
z
" transform="scale(0.015625)"/>
       <path id="DejaVuSans-36" d="M 2113 2584 
Q 1688 2584 1439 2293 
Q 1191 2003 1191 1497 
Q 1191 994 1439 701 
Q 1688 409 2113 409 
Q 2538 409 2786 701 
Q 3034 994 3034 1497 
Q 3034 2003 2786 2293 
Q 2538 2584 2113 2584 
z
M 3366 4563 
L 3366 3988 
Q 3128 4100 2886 4159 
Q 2644 4219 2406 4219 
Q 1781 4219 1451 3797 
Q 1122 3375 1075 2522 
Q 1259 2794 1537 2939 
Q 1816 3084 2150 3084 
Q 2853 3084 3261 2657 
Q 3669 2231 3669 1497 
Q 3669 778 3244 343 
Q 2819 -91 2113 -91 
Q 1303 -91 875 529 
Q 447 1150 447 2328 
Q 447 3434 972 4092 
Q 1497 4750 2381 4750 
Q 2619 4750 2861 4703 
Q 3103 4656 3366 4563 
z
" transform="scale(0.015625)"/>
      </defs>
      <use xlink:href="#DejaVuSans-4d"/>
      <use xlink:href="#DejaVuSans-46" x="86.279297"/>
      <use xlink:href="#DejaVuSans-41" x="134.673828"/>
      <use xlink:href="#DejaVuSans-b1" x="203.082031"/>
      <use xlink:href="#DejaVuSans-53" x="286.871094"/>
      <use xlink:href="#DejaVuSans-44" x="350.347656"/>
      <use xlink:href="#DejaVuSans-20" x="427.349609"/>
      <use xlink:href="#DejaVuSans-28" x="459.136719"/>
      <use xlink:href="#DejaVuSans-6e" x="498.150391"/>
      <use xlink:href="#DejaVuSans-3d" x="561.529297"/>
      <use xlink:href="#DejaVuSans-31" x="645.318359"/>
      <use xlink:href="#DejaVuSans-36" x="708.941406"/>
      <use xlink:href="#DejaVuSans-29" x="772.564453"/>
     </g>
    </g>
   </g>
  </g>
  <g id="axes_2">
   <g id="patch_8">
    <path d="M 521.460451 320.243478 
L 861.112625 320.243478 
L 861.112625 79.2 
L 521.460451 79.2 
z
" style="fill: #ffffff"/>
   </g>
   <g id="matplotlib.axis_3">
    <g id="xtick_7">
     <g id="line2d_21">
      <g>
       <use xlink:href="#mc6e8d02a4d" x="536.899186" y="320.243478" style="stroke: #000000; stroke-width: 0.8"/>
      </g>
     </g>
     <g id="text_17">
      <!-- 0 -->
      <g transform="translate(532.127311 338.641135) scale(0.15 -0.15)">
       <use xlink:href="#DejaVuSans-30"/>
      </g>
     </g>
    </g>
    <g id="xtick_8">
     <g id="line2d_22">
      <g>
       <use xlink:href="#mc6e8d02a4d" x="598.654127" y="320.243478" style="stroke: #000000; stroke-width: 0.8"/>
      </g>
     </g>
     <g id="text_18">
      <!-- 5 -->
      <g transform="translate(593.882252 338.641135) scale(0.15 -0.15)">
       <use xlink:href="#DejaVuSans-35"/>
      </g>
     </g>
    </g>
    <g id="xtick_9">
     <g id="line2d_23">
      <g>
       <use xlink:href="#mc6e8d02a4d" x="660.409068" y="320.243478" style="stroke: #000000; stroke-width: 0.8"/>
      </g>
     </g>
     <g id="text_19">
      <!-- 10 -->
      <g transform="translate(650.865318 338.641135) scale(0.15 -0.15)">
       <use xlink:href="#DejaVuSans-31"/>
       <use xlink:href="#DejaVuSans-30" x="63.623047"/>
      </g>
     </g>
    </g>
    <g id="xtick_10">
     <g id="line2d_24">
      <g>
       <use xlink:href="#mc6e8d02a4d" x="722.164008" y="320.243478" style="stroke: #000000; stroke-width: 0.8"/>
      </g>
     </g>
     <g id="text_20">
      <!-- 15 -->
      <g transform="translate(712.620258 338.641135) scale(0.15 -0.15)">
       <use xlink:href="#DejaVuSans-31"/>
       <use xlink:href="#DejaVuSans-35" x="63.623047"/>
      </g>
     </g>
    </g>
    <g id="xtick_11">
     <g id="line2d_25">
      <g>
       <use xlink:href="#mc6e8d02a4d" x="783.918949" y="320.243478" style="stroke: #000000; stroke-width: 0.8"/>
      </g>
     </g>
     <g id="text_21">
      <!-- 20 -->
      <g transform="translate(774.375199 338.641135) scale(0.15 -0.15)">
       <use xlink:href="#DejaVuSans-32"/>
       <use xlink:href="#DejaVuSans-30" x="63.623047"/>
      </g>
     </g>
    </g>
    <g id="xtick_12">
     <g id="line2d_26">
      <g>
       <use xlink:href="#mc6e8d02a4d" x="845.67389" y="320.243478" style="stroke: #000000; stroke-width: 0.8"/>
      </g>
     </g>
     <g id="text_22">
      <!-- 25 -->
      <g transform="translate(836.13014 338.641135) scale(0.15 -0.15)">
       <use xlink:href="#DejaVuSans-32"/>
       <use xlink:href="#DejaVuSans-35" x="63.623047"/>
      </g>
     </g>
    </g>
    <g id="text_23">
     <!-- time [hr] -->
     <g transform="translate(646.212007 359.437853) scale(0.18 -0.18)">
      <use xlink:href="#DejaVuSans-Bold-74"/>
      <use xlink:href="#DejaVuSans-Bold-69" x="47.802734"/>
      <use xlink:href="#DejaVuSans-Bold-6d" x="82.080078"/>
      <use xlink:href="#DejaVuSans-Bold-65" x="186.279297"/>
      <use xlink:href="#DejaVuSans-Bold-20" x="254.101562"/>
      <use xlink:href="#DejaVuSans-Bold-5b" x="288.916016"/>
      <use xlink:href="#DejaVuSans-Bold-68" x="334.619141"/>
      <use xlink:href="#DejaVuSans-Bold-72" x="405.810547"/>
      <use xlink:href="#DejaVuSans-Bold-5d" x="455.126953"/>
     </g>
    </g>
   </g>
   <g id="matplotlib.axis_4">
    <g id="ytick_6">
     <g id="line2d_27">
      <g>
       <use xlink:href="#mde7ae87f64" x="521.460451" y="309.286957" style="stroke: #000000; stroke-width: 0.8"/>
      </g>
     </g>
     <g id="text_24">
      <!-- 0.0 -->
      <g transform="translate(490.605764 314.985785) scale(0.15 -0.15)">
       <use xlink:href="#DejaVuSans-30"/>
       <use xlink:href="#DejaVuSans-2e" x="63.623047"/>
       <use xlink:href="#DejaVuSans-30" x="95.410156"/>
      </g>
     </g>
    </g>
    <g id="ytick_7">
     <g id="line2d_28">
      <g>
       <use xlink:href="#mde7ae87f64" x="521.460451" y="265.793501" style="stroke: #000000; stroke-width: 0.8"/>
      </g>
     </g>
     <g id="text_25">
      <!-- 0.1 -->
      <g transform="translate(490.605764 271.492329) scale(0.15 -0.15)">
       <use xlink:href="#DejaVuSans-30"/>
       <use xlink:href="#DejaVuSans-2e" x="63.623047"/>
       <use xlink:href="#DejaVuSans-31" x="95.410156"/>
      </g>
     </g>
    </g>
    <g id="ytick_8">
     <g id="line2d_29">
      <g>
       <use xlink:href="#mde7ae87f64" x="521.460451" y="222.300046" style="stroke: #000000; stroke-width: 0.8"/>
      </g>
     </g>
     <g id="text_26">
      <!-- 0.2 -->
      <g transform="translate(490.605764 227.998874) scale(0.15 -0.15)">
       <use xlink:href="#DejaVuSans-30"/>
       <use xlink:href="#DejaVuSans-2e" x="63.623047"/>
       <use xlink:href="#DejaVuSans-32" x="95.410156"/>
      </g>
     </g>
    </g>
    <g id="ytick_9">
     <g id="line2d_30">
      <g>
       <use xlink:href="#mde7ae87f64" x="521.460451" y="178.80659" style="stroke: #000000; stroke-width: 0.8"/>
      </g>
     </g>
     <g id="text_27">
      <!-- 0.3 -->
      <g transform="translate(490.605764 184.505418) scale(0.15 -0.15)">
       <use xlink:href="#DejaVuSans-30"/>
       <use xlink:href="#DejaVuSans-2e" x="63.623047"/>
       <use xlink:href="#DejaVuSans-33" x="95.410156"/>
      </g>
     </g>
    </g>
    <g id="ytick_10">
     <g id="line2d_31">
      <g>
       <use xlink:href="#mde7ae87f64" x="521.460451" y="135.313135" style="stroke: #000000; stroke-width: 0.8"/>
      </g>
     </g>
     <g id="text_28">
      <!-- 0.4 -->
      <g transform="translate(490.605764 141.011963) scale(0.15 -0.15)">
       <use xlink:href="#DejaVuSans-30"/>
       <use xlink:href="#DejaVuSans-2e" x="63.623047"/>
       <use xlink:href="#DejaVuSans-34" x="95.410156"/>
      </g>
     </g>
    </g>
    <g id="ytick_11">
     <g id="line2d_32">
      <g>
       <use xlink:href="#mde7ae87f64" x="521.460451" y="91.819679" style="stroke: #000000; stroke-width: 0.8"/>
      </g>
     </g>
     <g id="text_29">
      <!-- 0.5 -->
      <g transform="translate(490.605764 97.518507) scale(0.15 -0.15)">
       <use xlink:href="#DejaVuSans-30"/>
       <use xlink:href="#DejaVuSans-2e" x="63.623047"/>
       <use xlink:href="#DejaVuSans-35" x="95.410156"/>
      </g>
     </g>
    </g>
    <g id="text_30">
     <!-- dapagliflozin plasma urine [µmole] -->
     <g transform="translate(482.721701 377.13002) rotate(-90) scale(0.18 -0.18)">
      <defs>
       <path id="DejaVuSans-Bold-75" d="M 500 1363 
L 500 3500 
L 1625 3500 
L 1625 3150 
Q 1625 2866 1622 2436 
Q 1619 2006 1619 1863 
Q 1619 1441 1641 1255 
Q 1663 1069 1716 984 
Q 1784 875 1895 815 
Q 2006 756 2150 756 
Q 2500 756 2700 1025 
Q 2900 1294 2900 1772 
L 2900 3500 
L 4019 3500 
L 4019 0 
L 2900 0 
L 2900 506 
Q 2647 200 2364 54 
Q 2081 -91 1741 -91 
Q 1134 -91 817 281 
Q 500 653 500 1363 
z
" transform="scale(0.015625)"/>
      </defs>
      <use xlink:href="#DejaVuSans-Bold-64"/>
      <use xlink:href="#DejaVuSans-Bold-61" x="71.582031"/>
      <use xlink:href="#DejaVuSans-Bold-70" x="139.0625"/>
      <use xlink:href="#DejaVuSans-Bold-61" x="210.644531"/>
      <use xlink:href="#DejaVuSans-Bold-67" x="278.125"/>
      <use xlink:href="#DejaVuSans-Bold-6c" x="349.707031"/>
      <use xlink:href="#DejaVuSans-Bold-69" x="383.984375"/>
      <use xlink:href="#DejaVuSans-Bold-66" x="418.261719"/>
      <use xlink:href="#DejaVuSans-Bold-6c" x="461.767578"/>
      <use xlink:href="#DejaVuSans-Bold-6f" x="496.044922"/>
      <use xlink:href="#DejaVuSans-Bold-7a" x="564.746094"/>
      <use xlink:href="#DejaVuSans-Bold-69" x="622.949219"/>
      <use xlink:href="#DejaVuSans-Bold-6e" x="657.226562"/>
      <use xlink:href="#DejaVuSans-Bold-20" x="728.417969"/>
      <use xlink:href="#DejaVuSans-Bold-70" x="763.232422"/>
      <use xlink:href="#DejaVuSans-Bold-6c" x="834.814453"/>
      <use xlink:href="#DejaVuSans-Bold-61" x="869.091797"/>
      <use xlink:href="#DejaVuSans-Bold-73" x="936.572266"/>
      <use xlink:href="#DejaVuSans-Bold-6d" x="996.09375"/>
      <use xlink:href="#DejaVuSans-Bold-61" x="1100.292969"/>
      <use xlink:href="#DejaVuSans-Bold-20" x="1167.773438"/>
      <use xlink:href="#DejaVuSans-Bold-75" x="1202.587891"/>
      <use xlink:href="#DejaVuSans-Bold-72" x="1273.779297"/>
      <use xlink:href="#DejaVuSans-Bold-69" x="1323.095703"/>
      <use xlink:href="#DejaVuSans-Bold-6e" x="1357.373047"/>
      <use xlink:href="#DejaVuSans-Bold-65" x="1428.564453"/>
      <use xlink:href="#DejaVuSans-Bold-20" x="1496.386719"/>
      <use xlink:href="#DejaVuSans-Bold-5b" x="1531.201172"/>
      <use xlink:href="#DejaVuSans-Bold-b5" x="1576.904297"/>
      <use xlink:href="#DejaVuSans-Bold-6d" x="1650.488281"/>
      <use xlink:href="#DejaVuSans-Bold-6f" x="1754.6875"/>
      <use xlink:href="#DejaVuSans-Bold-6c" x="1823.388672"/>
      <use xlink:href="#DejaVuSans-Bold-65" x="1857.666016"/>
      <use xlink:href="#DejaVuSans-Bold-5d" x="1925.488281"/>
     </g>
    </g>
   </g>
   <g id="LineCollection_5">
    <path d="M 536.899186 309.286957 
L 536.899186 309.286957 
" clip-path="url(#p79bb827550)" style="fill: none; stroke: #1f77b4"/>
    <path d="M 833.322902 207.167919 
L 833.322902 90.156522 
" clip-path="url(#p79bb827550)" style="fill: none; stroke: #1f77b4"/>
   </g>
   <g id="LineCollection_6">
    <path d="M 536.899186 309.286957 
L 536.899186 309.286957 
" clip-path="url(#p79bb827550)" style="fill: none; stroke: #ff7f0e"/>
    <path d="M 833.322902 213.550359 
L 833.322902 143.34352 
" clip-path="url(#p79bb827550)" style="fill: none; stroke: #ff7f0e"/>
   </g>
   <g id="line2d_33">
    <path d="M 536.899186 309.286957 
L 538.134285 309.20259 
L 538.751834 308.984552 
L 539.369384 308.588169 
L 539.986933 308.000108 
L 541.222032 306.266141 
L 542.457131 303.886488 
L 543.69223 301.012175 
L 545.544878 296.092036 
L 554.808119 270.174779 
L 557.278317 264.189994 
L 559.748514 258.744866 
L 562.218712 253.824223 
L 564.68891 249.39615 
L 567.159107 245.421685 
L 569.629305 241.860049 
L 572.099502 238.671383 
L 574.5697 235.818096 
L 577.039898 233.265456 
L 579.510095 230.981765 
L 582.597842 228.461893 
L 585.685589 226.267703 
L 588.773336 224.355594 
L 591.861083 222.687586 
L 595.56638 220.962026 
L 599.271676 219.491813 
L 603.594522 218.044774 
L 607.917368 216.835309 
L 612.857763 215.687557 
L 618.415708 214.632661 
L 624.591202 213.685675 
L 632.001795 212.780035 
L 641.265036 211.894493 
L 652.380925 211.06487 
L 667.819661 210.153461 
L 691.286538 209.019039 
L 736.985194 207.078042 
L 845.67389 202.704355 
L 845.67389 202.704355 
" clip-path="url(#p79bb827550)" style="fill: none; stroke: #000000; stroke-width: 2; stroke-linecap: square"/>
   </g>
   <g id="line2d_34">
    <path d="M 536.899186 309.286957 
L 833.322902 148.66222 
" clip-path="url(#p79bb827550)" style="fill: none; stroke-dasharray: 3.7,1.6; stroke-dashoffset: 0; stroke: #1f77b4"/>
    <g clip-path="url(#p79bb827550)">
     <use xlink:href="#mac23332332" x="536.899186" y="309.286957" style="fill: #1f77b4; stroke: #000000; stroke-linejoin: miter"/>
     <use xlink:href="#mac23332332" x="833.322902" y="148.66222" style="fill: #1f77b4; stroke: #000000; stroke-linejoin: miter"/>
    </g>
   </g>
   <g id="line2d_35">
    <path d="M 536.899186 309.286957 
L 833.322902 178.44694 
" clip-path="url(#p79bb827550)" style="fill: none; stroke-dasharray: 3.7,1.6; stroke-dashoffset: 0; stroke: #ff7f0e"/>
    <g clip-path="url(#p79bb827550)">
     <use xlink:href="#m91d95f08b2" x="536.899186" y="309.286957" style="fill: #ff7f0e; stroke: #000000; stroke-linejoin: miter"/>
     <use xlink:href="#m91d95f08b2" x="833.322902" y="178.44694" style="fill: #ff7f0e; stroke: #000000; stroke-linejoin: miter"/>
    </g>
   </g>
   <g id="patch_9">
    <path d="M 521.460451 320.243478 
L 521.460451 79.2 
" style="fill: none; stroke: #000000; stroke-width: 0.8; stroke-linejoin: miter; stroke-linecap: square"/>
   </g>
   <g id="patch_10">
    <path d="M 861.112625 320.243478 
L 861.112625 79.2 
" style="fill: none; stroke: #000000; stroke-width: 0.8; stroke-linejoin: miter; stroke-linecap: square"/>
   </g>
   <g id="patch_11">
    <path d="M 521.460451 320.243478 
L 861.112625 320.243478 
" style="fill: none; stroke: #000000; stroke-width: 0.8; stroke-linejoin: miter; stroke-linecap: square"/>
   </g>
   <g id="patch_12">
    <path d="M 521.460451 79.2 
L 861.112625 79.2 
" style="fill: none; stroke: #000000; stroke-width: 0.8; stroke-linejoin: miter; stroke-linecap: square"/>
   </g>
   <g id="legend_2">
    <g id="patch_13">
     <path d="M 740.95325 131.234375 
L 854.112625 131.234375 
Q 856.112625 131.234375 856.112625 129.234375 
L 856.112625 86.2 
Q 856.112625 84.2 854.112625 84.2 
L 740.95325 84.2 
Q 738.95325 84.2 738.95325 86.2 
L 738.95325 129.234375 
Q 738.95325 131.234375 740.95325 131.234375 
z
" style="fill: #ffffff; opacity: 0.8; stroke: #cccccc; stroke-linejoin: miter"/>
    </g>
    <g id="line2d_36">
     <path d="M 742.95325 92.298437 
L 762.95325 92.298437 
" style="fill: none; stroke: #000000; stroke-width: 2; stroke-linecap: square"/>
    </g>
    <g id="line2d_37"/>
    <g id="text_31">
     <!-- Sim -->
     <g transform="translate(770.95325 95.798437) scale(0.1 -0.1)">
      <use xlink:href="#DejaVuSans-53"/>
      <use xlink:href="#DejaVuSans-69" x="63.476562"/>
      <use xlink:href="#DejaVuSans-6d" x="91.259766"/>
     </g>
    </g>
    <g id="LineCollection_7">
     <path d="M 752.95325 111.976562 
L 752.95325 101.976562 
" style="fill: none; stroke: #1f77b4"/>
    </g>
    <g id="line2d_38">
     <path d="M 742.95325 106.976562 
L 762.95325 106.976562 
" style="fill: none; stroke-dasharray: 3.7,1.6; stroke-dashoffset: 0; stroke: #1f77b4"/>
    </g>
    <g id="line2d_39">
     <g>
      <use xlink:href="#mac23332332" x="752.95325" y="106.976562" style="fill: #1f77b4; stroke: #000000; stroke-linejoin: miter"/>
     </g>
    </g>
    <g id="text_32">
     <!-- RIF±SD (n=14) -->
     <g transform="translate(770.95325 110.476562) scale(0.1 -0.1)">
      <use xlink:href="#DejaVuSans-52"/>
      <use xlink:href="#DejaVuSans-49" x="69.482422"/>
      <use xlink:href="#DejaVuSans-46" x="98.974609"/>
      <use xlink:href="#DejaVuSans-b1" x="156.494141"/>
      <use xlink:href="#DejaVuSans-53" x="240.283203"/>
      <use xlink:href="#DejaVuSans-44" x="303.759766"/>
      <use xlink:href="#DejaVuSans-20" x="380.761719"/>
      <use xlink:href="#DejaVuSans-28" x="412.548828"/>
      <use xlink:href="#DejaVuSans-6e" x="451.5625"/>
      <use xlink:href="#DejaVuSans-3d" x="514.941406"/>
      <use xlink:href="#DejaVuSans-31" x="598.730469"/>
      <use xlink:href="#DejaVuSans-34" x="662.353516"/>
      <use xlink:href="#DejaVuSans-29" x="725.976562"/>
     </g>
    </g>
    <g id="LineCollection_8">
     <path d="M 752.95325 126.654687 
L 752.95325 116.654687 
" style="fill: none; stroke: #ff7f0e"/>
    </g>
    <g id="line2d_40">
     <path d="M 742.95325 121.654687 
L 762.95325 121.654687 
" style="fill: none; stroke-dasharray: 3.7,1.6; stroke-dashoffset: 0; stroke: #ff7f0e"/>
    </g>
    <g id="line2d_41">
     <g>
      <use xlink:href="#m91d95f08b2" x="752.95325" y="121.654687" style="fill: #ff7f0e; stroke: #000000; stroke-linejoin: miter"/>
     </g>
    </g>
    <g id="text_33">
     <!-- MFA±SD (n=16) -->
     <g transform="translate(770.95325 125.154687) scale(0.1 -0.1)">
      <use xlink:href="#DejaVuSans-4d"/>
      <use xlink:href="#DejaVuSans-46" x="86.279297"/>
      <use xlink:href="#DejaVuSans-41" x="134.673828"/>
      <use xlink:href="#DejaVuSans-b1" x="203.082031"/>
      <use xlink:href="#DejaVuSans-53" x="286.871094"/>
      <use xlink:href="#DejaVuSans-44" x="350.347656"/>
      <use xlink:href="#DejaVuSans-20" x="427.349609"/>
      <use xlink:href="#DejaVuSans-28" x="459.136719"/>
      <use xlink:href="#DejaVuSans-6e" x="498.150391"/>
      <use xlink:href="#DejaVuSans-3d" x="561.529297"/>
      <use xlink:href="#DejaVuSans-31" x="645.318359"/>
      <use xlink:href="#DejaVuSans-36" x="708.941406"/>
      <use xlink:href="#DejaVuSans-29" x="772.564453"/>
     </g>
    </g>
   </g>
  </g>
  <g id="axes_3">
   <g id="patch_14">
    <path d="M 79.912625 633.6 
L 419.564799 633.6 
L 419.564799 392.556522 
L 79.912625 392.556522 
z
" style="fill: #ffffff"/>
   </g>
   <g id="matplotlib.axis_5">
    <g id="xtick_13">
     <g id="line2d_42">
      <g>
       <use xlink:href="#mc6e8d02a4d" x="95.35136" y="633.6" style="stroke: #000000; stroke-width: 0.8"/>
      </g>
     </g>
     <g id="text_34">
      <!-- 0 -->
      <g transform="translate(90.579485 651.997656) scale(0.15 -0.15)">
       <use xlink:href="#DejaVuSans-30"/>
      </g>
     </g>
    </g>
    <g id="xtick_14">
     <g id="line2d_43">
      <g>
       <use xlink:href="#mc6e8d02a4d" x="157.106301" y="633.6" style="stroke: #000000; stroke-width: 0.8"/>
      </g>
     </g>
     <g id="text_35">
      <!-- 5 -->
      <g transform="translate(152.334426 651.997656) scale(0.15 -0.15)">
       <use xlink:href="#DejaVuSans-35"/>
      </g>
     </g>
    </g>
    <g id="xtick_15">
     <g id="line2d_44">
      <g>
       <use xlink:href="#mc6e8d02a4d" x="218.861242" y="633.6" style="stroke: #000000; stroke-width: 0.8"/>
      </g>
     </g>
     <g id="text_36">
      <!-- 10 -->
      <g transform="translate(209.317492 651.997656) scale(0.15 -0.15)">
       <use xlink:href="#DejaVuSans-31"/>
       <use xlink:href="#DejaVuSans-30" x="63.623047"/>
      </g>
     </g>
    </g>
    <g id="xtick_16">
     <g id="line2d_45">
      <g>
       <use xlink:href="#mc6e8d02a4d" x="280.616182" y="633.6" style="stroke: #000000; stroke-width: 0.8"/>
      </g>
     </g>
     <g id="text_37">
      <!-- 15 -->
      <g transform="translate(271.072432 651.997656) scale(0.15 -0.15)">
       <use xlink:href="#DejaVuSans-31"/>
       <use xlink:href="#DejaVuSans-35" x="63.623047"/>
      </g>
     </g>
    </g>
    <g id="xtick_17">
     <g id="line2d_46">
      <g>
       <use xlink:href="#mc6e8d02a4d" x="342.371123" y="633.6" style="stroke: #000000; stroke-width: 0.8"/>
      </g>
     </g>
     <g id="text_38">
      <!-- 20 -->
      <g transform="translate(332.827373 651.997656) scale(0.15 -0.15)">
       <use xlink:href="#DejaVuSans-32"/>
       <use xlink:href="#DejaVuSans-30" x="63.623047"/>
      </g>
     </g>
    </g>
    <g id="xtick_18">
     <g id="line2d_47">
      <g>
       <use xlink:href="#mc6e8d02a4d" x="404.126064" y="633.6" style="stroke: #000000; stroke-width: 0.8"/>
      </g>
     </g>
     <g id="text_39">
      <!-- 25 -->
      <g transform="translate(394.582314 651.997656) scale(0.15 -0.15)">
       <use xlink:href="#DejaVuSans-32"/>
       <use xlink:href="#DejaVuSans-35" x="63.623047"/>
      </g>
     </g>
    </g>
    <g id="text_40">
     <!-- time [hr] -->
     <g transform="translate(204.664181 672.794375) scale(0.18 -0.18)">
      <use xlink:href="#DejaVuSans-Bold-74"/>
      <use xlink:href="#DejaVuSans-Bold-69" x="47.802734"/>
      <use xlink:href="#DejaVuSans-Bold-6d" x="82.080078"/>
      <use xlink:href="#DejaVuSans-Bold-65" x="186.279297"/>
      <use xlink:href="#DejaVuSans-Bold-20" x="254.101562"/>
      <use xlink:href="#DejaVuSans-Bold-5b" x="288.916016"/>
      <use xlink:href="#DejaVuSans-Bold-68" x="334.619141"/>
      <use xlink:href="#DejaVuSans-Bold-72" x="405.810547"/>
      <use xlink:href="#DejaVuSans-Bold-5d" x="455.126953"/>
     </g>
    </g>
   </g>
   <g id="matplotlib.axis_6">
    <g id="ytick_12">
     <g id="line2d_48">
      <g>
       <use xlink:href="#mde7ae87f64" x="79.912625" y="601.25461" style="stroke: #000000; stroke-width: 0.8"/>
      </g>
     </g>
     <g id="text_41">
      <!-- 0.0 -->
      <g transform="translate(49.057937 606.953438) scale(0.15 -0.15)">
       <use xlink:href="#DejaVuSans-30"/>
       <use xlink:href="#DejaVuSans-2e" x="63.623047"/>
       <use xlink:href="#DejaVuSans-30" x="95.410156"/>
      </g>
     </g>
    </g>
    <g id="ytick_13">
     <g id="line2d_49">
      <g>
       <use xlink:href="#mde7ae87f64" x="79.912625" y="553.841602" style="stroke: #000000; stroke-width: 0.8"/>
      </g>
     </g>
     <g id="text_42">
      <!-- 0.1 -->
      <g transform="translate(49.057937 559.54043) scale(0.15 -0.15)">
       <use xlink:href="#DejaVuSans-30"/>
       <use xlink:href="#DejaVuSans-2e" x="63.623047"/>
       <use xlink:href="#DejaVuSans-31" x="95.410156"/>
      </g>
     </g>
    </g>
    <g id="ytick_14">
     <g id="line2d_50">
      <g>
       <use xlink:href="#mde7ae87f64" x="79.912625" y="506.428595" style="stroke: #000000; stroke-width: 0.8"/>
      </g>
     </g>
     <g id="text_43">
      <!-- 0.2 -->
      <g transform="translate(49.057937 512.127423) scale(0.15 -0.15)">
       <use xlink:href="#DejaVuSans-30"/>
       <use xlink:href="#DejaVuSans-2e" x="63.623047"/>
       <use xlink:href="#DejaVuSans-32" x="95.410156"/>
      </g>
     </g>
    </g>
    <g id="ytick_15">
     <g id="line2d_51">
      <g>
       <use xlink:href="#mde7ae87f64" x="79.912625" y="459.015587" style="stroke: #000000; stroke-width: 0.8"/>
      </g>
     </g>
     <g id="text_44">
      <!-- 0.3 -->
      <g transform="translate(49.057937 464.714415) scale(0.15 -0.15)">
       <use xlink:href="#DejaVuSans-30"/>
       <use xlink:href="#DejaVuSans-2e" x="63.623047"/>
       <use xlink:href="#DejaVuSans-33" x="95.410156"/>
      </g>
     </g>
    </g>
    <g id="ytick_16">
     <g id="line2d_52">
      <g>
       <use xlink:href="#mde7ae87f64" x="79.912625" y="411.60258" style="stroke: #000000; stroke-width: 0.8"/>
      </g>
     </g>
     <g id="text_45">
      <!-- 0.4 -->
      <g transform="translate(49.057937 417.301408) scale(0.15 -0.15)">
       <use xlink:href="#DejaVuSans-30"/>
       <use xlink:href="#DejaVuSans-2e" x="63.623047"/>
       <use xlink:href="#DejaVuSans-34" x="95.410156"/>
      </g>
     </g>
    </g>
    <g id="text_46">
     <!-- dapagliflozin-3-o- -->
     <g transform="translate(20.877187 602.286542) rotate(-90) scale(0.18 -0.18)">
      <defs>
       <path id="DejaVuSans-Bold-2d" d="M 347 2297 
L 2309 2297 
L 2309 1388 
L 347 1388 
L 347 2297 
z
" transform="scale(0.015625)"/>
       <path id="DejaVuSans-Bold-33" d="M 2981 2516 
Q 3453 2394 3698 2092 
Q 3944 1791 3944 1325 
Q 3944 631 3412 270 
Q 2881 -91 1863 -91 
Q 1503 -91 1142 -33 
Q 781 25 428 141 
L 428 1069 
Q 766 900 1098 814 
Q 1431 728 1753 728 
Q 2231 728 2486 893 
Q 2741 1059 2741 1369 
Q 2741 1688 2480 1852 
Q 2219 2016 1709 2016 
L 1228 2016 
L 1228 2791 
L 1734 2791 
Q 2188 2791 2409 2933 
Q 2631 3075 2631 3366 
Q 2631 3634 2415 3781 
Q 2200 3928 1806 3928 
Q 1516 3928 1219 3862 
Q 922 3797 628 3669 
L 628 4550 
Q 984 4650 1334 4700 
Q 1684 4750 2022 4750 
Q 2931 4750 3382 4451 
Q 3834 4153 3834 3553 
Q 3834 3144 3618 2883 
Q 3403 2622 2981 2516 
z
" transform="scale(0.015625)"/>
      </defs>
      <use xlink:href="#DejaVuSans-Bold-64"/>
      <use xlink:href="#DejaVuSans-Bold-61" x="71.582031"/>
      <use xlink:href="#DejaVuSans-Bold-70" x="139.0625"/>
      <use xlink:href="#DejaVuSans-Bold-61" x="210.644531"/>
      <use xlink:href="#DejaVuSans-Bold-67" x="278.125"/>
      <use xlink:href="#DejaVuSans-Bold-6c" x="349.707031"/>
      <use xlink:href="#DejaVuSans-Bold-69" x="383.984375"/>
      <use xlink:href="#DejaVuSans-Bold-66" x="418.261719"/>
      <use xlink:href="#DejaVuSans-Bold-6c" x="461.767578"/>
      <use xlink:href="#DejaVuSans-Bold-6f" x="496.044922"/>
      <use xlink:href="#DejaVuSans-Bold-7a" x="564.746094"/>
      <use xlink:href="#DejaVuSans-Bold-69" x="622.949219"/>
      <use xlink:href="#DejaVuSans-Bold-6e" x="657.226562"/>
      <use xlink:href="#DejaVuSans-Bold-2d" x="728.417969"/>
      <use xlink:href="#DejaVuSans-Bold-33" x="769.921875"/>
      <use xlink:href="#DejaVuSans-Bold-2d" x="839.501953"/>
      <use xlink:href="#DejaVuSans-Bold-6f" x="881.005859"/>
      <use xlink:href="#DejaVuSans-Bold-2d" x="949.707031"/>
     </g>
     <!-- glucuronide plasma [µM] -->
     <g transform="translate(41.173875 639.895292) rotate(-90) scale(0.18 -0.18)">
      <defs>
       <path id="DejaVuSans-Bold-63" d="M 3366 3391 
L 3366 2478 
Q 3138 2634 2908 2709 
Q 2678 2784 2431 2784 
Q 1963 2784 1702 2511 
Q 1441 2238 1441 1747 
Q 1441 1256 1702 982 
Q 1963 709 2431 709 
Q 2694 709 2930 787 
Q 3166 866 3366 1019 
L 3366 103 
Q 3103 6 2833 -42 
Q 2563 -91 2291 -91 
Q 1344 -91 809 395 
Q 275 881 275 1747 
Q 275 2613 809 3098 
Q 1344 3584 2291 3584 
Q 2566 3584 2833 3536 
Q 3100 3488 3366 3391 
z
" transform="scale(0.015625)"/>
      </defs>
      <use xlink:href="#DejaVuSans-Bold-67"/>
      <use xlink:href="#DejaVuSans-Bold-6c" x="71.582031"/>
      <use xlink:href="#DejaVuSans-Bold-75" x="105.859375"/>
      <use xlink:href="#DejaVuSans-Bold-63" x="177.050781"/>
      <use xlink:href="#DejaVuSans-Bold-75" x="236.328125"/>
      <use xlink:href="#DejaVuSans-Bold-72" x="307.519531"/>
      <use xlink:href="#DejaVuSans-Bold-6f" x="356.835938"/>
      <use xlink:href="#DejaVuSans-Bold-6e" x="425.537109"/>
      <use xlink:href="#DejaVuSans-Bold-69" x="496.728516"/>
      <use xlink:href="#DejaVuSans-Bold-64" x="531.005859"/>
      <use xlink:href="#DejaVuSans-Bold-65" x="602.587891"/>
      <use xlink:href="#DejaVuSans-Bold-20" x="670.410156"/>
      <use xlink:href="#DejaVuSans-Bold-70" x="705.224609"/>
      <use xlink:href="#DejaVuSans-Bold-6c" x="776.806641"/>
      <use xlink:href="#DejaVuSans-Bold-61" x="811.083984"/>
      <use xlink:href="#DejaVuSans-Bold-73" x="878.564453"/>
      <use xlink:href="#DejaVuSans-Bold-6d" x="938.085938"/>
      <use xlink:href="#DejaVuSans-Bold-61" x="1042.285156"/>
      <use xlink:href="#DejaVuSans-Bold-20" x="1109.765625"/>
      <use xlink:href="#DejaVuSans-Bold-5b" x="1144.580078"/>
      <use xlink:href="#DejaVuSans-Bold-b5" x="1190.283203"/>
      <use xlink:href="#DejaVuSans-Bold-4d" x="1263.867188"/>
      <use xlink:href="#DejaVuSans-Bold-5d" x="1363.378906"/>
     </g>
    </g>
   </g>
   <g id="LineCollection_9">
    <path clip-path="url(#pa20e874cd0)" style="fill: none; stroke: #1f77b4"/>
    <path d="M 101.526854 601.547836 
L 101.526854 529.414054 
" clip-path="url(#pa20e874cd0)" style="fill: none; stroke: #1f77b4"/>
    <path d="M 104.614601 588.645859 
L 104.614601 466.370301 
" clip-path="url(#pa20e874cd0)" style="fill: none; stroke: #1f77b4"/>
    <path d="M 107.650671 553.751875 
L 107.650671 426.784688 
" clip-path="url(#pa20e874cd0)" style="fill: none; stroke: #1f77b4"/>
    <path d="M 113.877842 522.376612 
L 113.877842 438.513759 
" clip-path="url(#pa20e874cd0)" style="fill: none; stroke: #1f77b4"/>
    <path d="M 120.053336 517.97821 
L 120.053336 471.061929 
" clip-path="url(#pa20e874cd0)" style="fill: none; stroke: #1f77b4"/>
    <path d="M 144.755313 573.104841 
L 144.755313 527.94792 
" clip-path="url(#pa20e874cd0)" style="fill: none; stroke: #1f77b4"/>
    <path d="M 194.159265 592.751034 
L 194.159265 582.19487 
" clip-path="url(#pa20e874cd0)" style="fill: none; stroke: #1f77b4"/>
    <path d="M 243.563218 595.390074 
L 243.563218 590.111993 
" clip-path="url(#pa20e874cd0)" style="fill: none; stroke: #1f77b4"/>
   </g>
   <g id="LineCollection_10">
    <path d="M 95.35136 622.643478 
L 95.35136 579.865741 
" clip-path="url(#pa20e874cd0)" style="fill: none; stroke: #ff7f0e"/>
    <path d="M 101.526854 610.203093 
L 101.526854 525.513266 
" clip-path="url(#pa20e874cd0)" style="fill: none; stroke: #ff7f0e"/>
    <path d="M 104.614601 552.387658 
L 104.614601 462.495785 
" clip-path="url(#pa20e874cd0)" style="fill: none; stroke: #ff7f0e"/>
    <path d="M 107.650671 526.079851 
L 107.650671 409.884251 
" clip-path="url(#pa20e874cd0)" style="fill: none; stroke: #ff7f0e"/>
    <path d="M 113.877842 489.359046 
L 113.877842 403.513043 
" clip-path="url(#pa20e874cd0)" style="fill: none; stroke: #ff7f0e"/>
    <path d="M 120.053336 496.283481 
L 120.053336 454.083461 
" clip-path="url(#pa20e874cd0)" style="fill: none; stroke: #ff7f0e"/>
    <path d="M 144.755313 553.466285 
L 144.755313 539.881599 
" clip-path="url(#pa20e874cd0)" style="fill: none; stroke: #ff7f0e"/>
    <path d="M 194.159265 588.344853 
L 194.159265 581.696475 
" clip-path="url(#pa20e874cd0)" style="fill: none; stroke: #ff7f0e"/>
    <path d="M 243.563218 601.25461 
L 243.563218 578.132591 
" clip-path="url(#pa20e874cd0)" style="fill: none; stroke: #ff7f0e"/>
   </g>
   <g id="line2d_53">
    <path d="M 95.35136 601.25461 
L 95.96891 601.218122 
L 96.586459 600.790957 
L 97.204008 599.573555 
L 97.821558 597.38684 
L 98.439107 594.206834 
L 99.056657 590.10254 
L 100.291755 579.625268 
L 102.144404 560.425119 
L 105.232151 527.224021 
L 107.084799 509.899557 
L 108.319898 500.029544 
L 109.554997 491.60537 
L 110.790095 484.622213 
L 112.025194 479.0226 
L 113.260293 474.716025 
L 114.495392 471.593243 
L 115.112941 470.439075 
L 115.730491 469.536411 
L 116.34804 468.870321 
L 116.965589 468.426081 
L 117.583139 468.189275 
L 118.200688 468.145871 
L 118.818238 468.282282 
L 119.435787 468.585419 
L 120.053336 469.042711 
L 121.288435 470.372235 
L 122.523534 472.181395 
L 123.758633 474.389678 
L 125.611281 478.295643 
L 127.463929 482.731846 
L 130.551676 490.854711 
L 141.667566 520.973601 
L 144.755313 528.520784 
L 147.84306 535.51892 
L 150.930807 541.946438 
L 154.018554 547.807533 
L 157.106301 553.122797 
L 160.194048 557.922666 
L 163.281795 562.242907 
L 166.369542 566.121547 
L 169.457289 569.596849 
L 172.545036 572.706002 
L 175.632783 575.484323 
L 178.72053 577.964807 
L 181.808277 580.177916 
L 184.896024 582.151523 
L 188.601321 584.239202 
L 192.306617 586.057537 
L 196.011914 587.641064 
L 200.334759 589.23196 
L 204.657605 590.586019 
L 209.598 591.888856 
L 215.155945 593.095404 
L 220.71389 594.077593 
L 227.506933 595.034468 
L 234.917526 595.839364 
L 243.563218 596.540999 
L 253.444008 597.115394 
L 265.794997 597.599239 
L 281.233732 597.97158 
L 302.847961 598.250692 
L 336.195629 598.432863 
L 404.126064 598.544941 
L 404.126064 598.544941 
" clip-path="url(#pa20e874cd0)" style="fill: none; stroke: #000000; stroke-width: 2; stroke-linecap: square"/>
   </g>
   <g id="line2d_54">
    <path d="M 95.35136 601.25461 
L 101.526854 565.480945 
L 104.614601 527.50808 
L 107.650671 490.268281 
L 113.877842 480.445185 
L 120.053336 494.520069 
L 144.755313 550.52638 
L 194.159265 587.472952 
L 243.563218 592.751034 
" clip-path="url(#pa20e874cd0)" style="fill: none; stroke-dasharray: 3.7,1.6; stroke-dashoffset: 0; stroke: #1f77b4"/>
    <g clip-path="url(#pa20e874cd0)">
     <use xlink:href="#mac23332332" x="95.35136" y="601.25461" style="fill: #1f77b4; stroke: #000000; stroke-linejoin: miter"/>
     <use xlink:href="#mac23332332" x="101.526854" y="565.480945" style="fill: #1f77b4; stroke: #000000; stroke-linejoin: miter"/>
     <use xlink:href="#mac23332332" x="104.614601" y="527.50808" style="fill: #1f77b4; stroke: #000000; stroke-linejoin: miter"/>
     <use xlink:href="#mac23332332" x="107.650671" y="490.268281" style="fill: #1f77b4; stroke: #000000; stroke-linejoin: miter"/>
     <use xlink:href="#mac23332332" x="113.877842" y="480.445185" style="fill: #1f77b4; stroke: #000000; stroke-linejoin: miter"/>
     <use xlink:href="#mac23332332" x="120.053336" y="494.520069" style="fill: #1f77b4; stroke: #000000; stroke-linejoin: miter"/>
     <use xlink:href="#mac23332332" x="144.755313" y="550.52638" style="fill: #1f77b4; stroke: #000000; stroke-linejoin: miter"/>
     <use xlink:href="#mac23332332" x="194.159265" y="587.472952" style="fill: #1f77b4; stroke: #000000; stroke-linejoin: miter"/>
     <use xlink:href="#mac23332332" x="243.563218" y="592.751034" style="fill: #1f77b4; stroke: #000000; stroke-linejoin: miter"/>
    </g>
   </g>
   <g id="line2d_55">
    <path d="M 95.35136 601.25461 
L 101.526854 567.858179 
L 104.614601 507.441722 
L 107.650671 467.982051 
L 113.877842 446.436045 
L 120.053336 475.183471 
L 144.755313 546.673942 
L 194.159265 585.020664 
L 243.563218 589.6936 
" clip-path="url(#pa20e874cd0)" style="fill: none; stroke-dasharray: 3.7,1.6; stroke-dashoffset: 0; stroke: #ff7f0e"/>
    <g clip-path="url(#pa20e874cd0)">
     <use xlink:href="#m91d95f08b2" x="95.35136" y="601.25461" style="fill: #ff7f0e; stroke: #000000; stroke-linejoin: miter"/>
     <use xlink:href="#m91d95f08b2" x="101.526854" y="567.858179" style="fill: #ff7f0e; stroke: #000000; stroke-linejoin: miter"/>
     <use xlink:href="#m91d95f08b2" x="104.614601" y="507.441722" style="fill: #ff7f0e; stroke: #000000; stroke-linejoin: miter"/>
     <use xlink:href="#m91d95f08b2" x="107.650671" y="467.982051" style="fill: #ff7f0e; stroke: #000000; stroke-linejoin: miter"/>
     <use xlink:href="#m91d95f08b2" x="113.877842" y="446.436045" style="fill: #ff7f0e; stroke: #000000; stroke-linejoin: miter"/>
     <use xlink:href="#m91d95f08b2" x="120.053336" y="475.183471" style="fill: #ff7f0e; stroke: #000000; stroke-linejoin: miter"/>
     <use xlink:href="#m91d95f08b2" x="144.755313" y="546.673942" style="fill: #ff7f0e; stroke: #000000; stroke-linejoin: miter"/>
     <use xlink:href="#m91d95f08b2" x="194.159265" y="585.020664" style="fill: #ff7f0e; stroke: #000000; stroke-linejoin: miter"/>
     <use xlink:href="#m91d95f08b2" x="243.563218" y="589.6936" style="fill: #ff7f0e; stroke: #000000; stroke-linejoin: miter"/>
    </g>
   </g>
   <g id="patch_15">
    <path d="M 79.912625 633.6 
L 79.912625 392.556522 
" style="fill: none; stroke: #000000; stroke-width: 0.8; stroke-linejoin: miter; stroke-linecap: square"/>
   </g>
   <g id="patch_16">
    <path d="M 419.564799 633.6 
L 419.564799 392.556522 
" style="fill: none; stroke: #000000; stroke-width: 0.8; stroke-linejoin: miter; stroke-linecap: square"/>
   </g>
   <g id="patch_17">
    <path d="M 79.912625 633.6 
L 419.564799 633.6 
" style="fill: none; stroke: #000000; stroke-width: 0.8; stroke-linejoin: miter; stroke-linecap: square"/>
   </g>
   <g id="patch_18">
    <path d="M 79.912625 392.556522 
L 419.564799 392.556522 
" style="fill: none; stroke: #000000; stroke-width: 0.8; stroke-linejoin: miter; stroke-linecap: square"/>
   </g>
   <g id="legend_3">
    <g id="patch_19">
     <path d="M 299.405424 444.590897 
L 412.564799 444.590897 
Q 414.564799 444.590897 414.564799 442.590897 
L 414.564799 399.556522 
Q 414.564799 397.556522 412.564799 397.556522 
L 299.405424 397.556522 
Q 297.405424 397.556522 297.405424 399.556522 
L 297.405424 442.590897 
Q 297.405424 444.590897 299.405424 444.590897 
z
" style="fill: #ffffff; opacity: 0.8; stroke: #cccccc; stroke-linejoin: miter"/>
    </g>
    <g id="line2d_56">
     <path d="M 301.405424 405.654959 
L 321.405424 405.654959 
" style="fill: none; stroke: #000000; stroke-width: 2; stroke-linecap: square"/>
    </g>
    <g id="line2d_57"/>
    <g id="text_47">
     <!-- Sim -->
     <g transform="translate(329.405424 409.154959) scale(0.1 -0.1)">
      <use xlink:href="#DejaVuSans-53"/>
      <use xlink:href="#DejaVuSans-69" x="63.476562"/>
      <use xlink:href="#DejaVuSans-6d" x="91.259766"/>
     </g>
    </g>
    <g id="LineCollection_11">
     <path d="M 311.405424 425.333084 
L 311.405424 415.333084 
" style="fill: none; stroke: #1f77b4"/>
    </g>
    <g id="line2d_58">
     <path d="M 301.405424 420.333084 
L 321.405424 420.333084 
" style="fill: none; stroke-dasharray: 3.7,1.6; stroke-dashoffset: 0; stroke: #1f77b4"/>
    </g>
    <g id="line2d_59">
     <g>
      <use xlink:href="#mac23332332" x="311.405424" y="420.333084" style="fill: #1f77b4; stroke: #000000; stroke-linejoin: miter"/>
     </g>
    </g>
    <g id="text_48">
     <!-- RIF±SD (n=14) -->
     <g transform="translate(329.405424 423.833084) scale(0.1 -0.1)">
      <use xlink:href="#DejaVuSans-52"/>
      <use xlink:href="#DejaVuSans-49" x="69.482422"/>
      <use xlink:href="#DejaVuSans-46" x="98.974609"/>
      <use xlink:href="#DejaVuSans-b1" x="156.494141"/>
      <use xlink:href="#DejaVuSans-53" x="240.283203"/>
      <use xlink:href="#DejaVuSans-44" x="303.759766"/>
      <use xlink:href="#DejaVuSans-20" x="380.761719"/>
      <use xlink:href="#DejaVuSans-28" x="412.548828"/>
      <use xlink:href="#DejaVuSans-6e" x="451.5625"/>
      <use xlink:href="#DejaVuSans-3d" x="514.941406"/>
      <use xlink:href="#DejaVuSans-31" x="598.730469"/>
      <use xlink:href="#DejaVuSans-34" x="662.353516"/>
      <use xlink:href="#DejaVuSans-29" x="725.976562"/>
     </g>
    </g>
    <g id="LineCollection_12">
     <path d="M 311.405424 440.011209 
L 311.405424 430.011209 
" style="fill: none; stroke: #ff7f0e"/>
    </g>
    <g id="line2d_60">
     <path d="M 301.405424 435.011209 
L 321.405424 435.011209 
" style="fill: none; stroke-dasharray: 3.7,1.6; stroke-dashoffset: 0; stroke: #ff7f0e"/>
    </g>
    <g id="line2d_61">
     <g>
      <use xlink:href="#m91d95f08b2" x="311.405424" y="435.011209" style="fill: #ff7f0e; stroke: #000000; stroke-linejoin: miter"/>
     </g>
    </g>
    <g id="text_49">
     <!-- MFA±SD (n=16) -->
     <g transform="translate(329.405424 438.511209) scale(0.1 -0.1)">
      <use xlink:href="#DejaVuSans-4d"/>
      <use xlink:href="#DejaVuSans-46" x="86.279297"/>
      <use xlink:href="#DejaVuSans-41" x="134.673828"/>
      <use xlink:href="#DejaVuSans-b1" x="203.082031"/>
      <use xlink:href="#DejaVuSans-53" x="286.871094"/>
      <use xlink:href="#DejaVuSans-44" x="350.347656"/>
      <use xlink:href="#DejaVuSans-20" x="427.349609"/>
      <use xlink:href="#DejaVuSans-28" x="459.136719"/>
      <use xlink:href="#DejaVuSans-6e" x="498.150391"/>
      <use xlink:href="#DejaVuSans-3d" x="561.529297"/>
      <use xlink:href="#DejaVuSans-31" x="645.318359"/>
      <use xlink:href="#DejaVuSans-36" x="708.941406"/>
      <use xlink:href="#DejaVuSans-29" x="772.564453"/>
     </g>
    </g>
   </g>
  </g>
  <g id="axes_4">
   <g id="patch_20">
    <path d="M 521.460451 633.6 
L 861.112625 633.6 
L 861.112625 392.556522 
L 521.460451 392.556522 
z
" style="fill: #ffffff"/>
   </g>
   <g id="matplotlib.axis_7">
    <g id="xtick_19">
     <g id="line2d_62">
      <g>
       <use xlink:href="#mc6e8d02a4d" x="536.899186" y="633.6" style="stroke: #000000; stroke-width: 0.8"/>
      </g>
     </g>
     <g id="text_50">
      <!-- 0 -->
      <g transform="translate(532.127311 651.997656) scale(0.15 -0.15)">
       <use xlink:href="#DejaVuSans-30"/>
      </g>
     </g>
    </g>
    <g id="xtick_20">
     <g id="line2d_63">
      <g>
       <use xlink:href="#mc6e8d02a4d" x="598.654127" y="633.6" style="stroke: #000000; stroke-width: 0.8"/>
      </g>
     </g>
     <g id="text_51">
      <!-- 5 -->
      <g transform="translate(593.882252 651.997656) scale(0.15 -0.15)">
       <use xlink:href="#DejaVuSans-35"/>
      </g>
     </g>
    </g>
    <g id="xtick_21">
     <g id="line2d_64">
      <g>
       <use xlink:href="#mc6e8d02a4d" x="660.409068" y="633.6" style="stroke: #000000; stroke-width: 0.8"/>
      </g>
     </g>
     <g id="text_52">
      <!-- 10 -->
      <g transform="translate(650.865318 651.997656) scale(0.15 -0.15)">
       <use xlink:href="#DejaVuSans-31"/>
       <use xlink:href="#DejaVuSans-30" x="63.623047"/>
      </g>
     </g>
    </g>
    <g id="xtick_22">
     <g id="line2d_65">
      <g>
       <use xlink:href="#mc6e8d02a4d" x="722.164008" y="633.6" style="stroke: #000000; stroke-width: 0.8"/>
      </g>
     </g>
     <g id="text_53">
      <!-- 15 -->
      <g transform="translate(712.620258 651.997656) scale(0.15 -0.15)">
       <use xlink:href="#DejaVuSans-31"/>
       <use xlink:href="#DejaVuSans-35" x="63.623047"/>
      </g>
     </g>
    </g>
    <g id="xtick_23">
     <g id="line2d_66">
      <g>
       <use xlink:href="#mc6e8d02a4d" x="783.918949" y="633.6" style="stroke: #000000; stroke-width: 0.8"/>
      </g>
     </g>
     <g id="text_54">
      <!-- 20 -->
      <g transform="translate(774.375199 651.997656) scale(0.15 -0.15)">
       <use xlink:href="#DejaVuSans-32"/>
       <use xlink:href="#DejaVuSans-30" x="63.623047"/>
      </g>
     </g>
    </g>
    <g id="xtick_24">
     <g id="line2d_67">
      <g>
       <use xlink:href="#mc6e8d02a4d" x="845.67389" y="633.6" style="stroke: #000000; stroke-width: 0.8"/>
      </g>
     </g>
     <g id="text_55">
      <!-- 25 -->
      <g transform="translate(836.13014 651.997656) scale(0.15 -0.15)">
       <use xlink:href="#DejaVuSans-32"/>
       <use xlink:href="#DejaVuSans-35" x="63.623047"/>
      </g>
     </g>
    </g>
    <g id="text_56">
     <!-- time [hr] -->
     <g transform="translate(646.212007 672.794375) scale(0.18 -0.18)">
      <use xlink:href="#DejaVuSans-Bold-74"/>
      <use xlink:href="#DejaVuSans-Bold-69" x="47.802734"/>
      <use xlink:href="#DejaVuSans-Bold-6d" x="82.080078"/>
      <use xlink:href="#DejaVuSans-Bold-65" x="186.279297"/>
      <use xlink:href="#DejaVuSans-Bold-20" x="254.101562"/>
      <use xlink:href="#DejaVuSans-Bold-5b" x="288.916016"/>
      <use xlink:href="#DejaVuSans-Bold-68" x="334.619141"/>
      <use xlink:href="#DejaVuSans-Bold-72" x="405.810547"/>
      <use xlink:href="#DejaVuSans-Bold-5d" x="455.126953"/>
     </g>
    </g>
   </g>
   <g id="matplotlib.axis_8">
    <g id="ytick_17">
     <g id="line2d_68">
      <g>
       <use xlink:href="#mde7ae87f64" x="521.460451" y="622.643478" style="stroke: #000000; stroke-width: 0.8"/>
      </g>
     </g>
     <g id="text_57">
      <!-- 0 -->
      <g transform="translate(504.916701 628.342306) scale(0.15 -0.15)">
       <use xlink:href="#DejaVuSans-30"/>
      </g>
     </g>
    </g>
    <g id="ytick_18">
     <g id="line2d_69">
      <g>
       <use xlink:href="#mde7ae87f64" x="521.460451" y="590.515332" style="stroke: #000000; stroke-width: 0.8"/>
      </g>
     </g>
     <g id="text_58">
      <!-- 2 -->
      <g transform="translate(504.916701 596.21416) scale(0.15 -0.15)">
       <use xlink:href="#DejaVuSans-32"/>
      </g>
     </g>
    </g>
    <g id="ytick_19">
     <g id="line2d_70">
      <g>
       <use xlink:href="#mde7ae87f64" x="521.460451" y="558.387185" style="stroke: #000000; stroke-width: 0.8"/>
      </g>
     </g>
     <g id="text_59">
      <!-- 4 -->
      <g transform="translate(504.916701 564.086013) scale(0.15 -0.15)">
       <use xlink:href="#DejaVuSans-34"/>
      </g>
     </g>
    </g>
    <g id="ytick_20">
     <g id="line2d_71">
      <g>
       <use xlink:href="#mde7ae87f64" x="521.460451" y="526.259039" style="stroke: #000000; stroke-width: 0.8"/>
      </g>
     </g>
     <g id="text_60">
      <!-- 6 -->
      <g transform="translate(504.916701 531.957867) scale(0.15 -0.15)">
       <use xlink:href="#DejaVuSans-36"/>
      </g>
     </g>
    </g>
    <g id="ytick_21">
     <g id="line2d_72">
      <g>
       <use xlink:href="#mde7ae87f64" x="521.460451" y="494.130892" style="stroke: #000000; stroke-width: 0.8"/>
      </g>
     </g>
     <g id="text_61">
      <!-- 8 -->
      <g transform="translate(504.916701 499.829721) scale(0.15 -0.15)">
       <defs>
        <path id="DejaVuSans-38" d="M 2034 2216 
Q 1584 2216 1326 1975 
Q 1069 1734 1069 1313 
Q 1069 891 1326 650 
Q 1584 409 2034 409 
Q 2484 409 2743 651 
Q 3003 894 3003 1313 
Q 3003 1734 2745 1975 
Q 2488 2216 2034 2216 
z
M 1403 2484 
Q 997 2584 770 2862 
Q 544 3141 544 3541 
Q 544 4100 942 4425 
Q 1341 4750 2034 4750 
Q 2731 4750 3128 4425 
Q 3525 4100 3525 3541 
Q 3525 3141 3298 2862 
Q 3072 2584 2669 2484 
Q 3125 2378 3379 2068 
Q 3634 1759 3634 1313 
Q 3634 634 3220 271 
Q 2806 -91 2034 -91 
Q 1263 -91 848 271 
Q 434 634 434 1313 
Q 434 1759 690 2068 
Q 947 2378 1403 2484 
z
M 1172 3481 
Q 1172 3119 1398 2916 
Q 1625 2713 2034 2713 
Q 2441 2713 2670 2916 
Q 2900 3119 2900 3481 
Q 2900 3844 2670 4047 
Q 2441 4250 2034 4250 
Q 1625 4250 1398 4047 
Q 1172 3844 1172 3481 
z
" transform="scale(0.015625)"/>
       </defs>
       <use xlink:href="#DejaVuSans-38"/>
      </g>
     </g>
    </g>
    <g id="ytick_22">
     <g id="line2d_73">
      <g>
       <use xlink:href="#mde7ae87f64" x="521.460451" y="462.002746" style="stroke: #000000; stroke-width: 0.8"/>
      </g>
     </g>
     <g id="text_62">
      <!-- 10 -->
      <g transform="translate(495.372951 467.701574) scale(0.15 -0.15)">
       <use xlink:href="#DejaVuSans-31"/>
       <use xlink:href="#DejaVuSans-30" x="63.623047"/>
      </g>
     </g>
    </g>
    <g id="ytick_23">
     <g id="line2d_74">
      <g>
       <use xlink:href="#mde7ae87f64" x="521.460451" y="429.8746" style="stroke: #000000; stroke-width: 0.8"/>
      </g>
     </g>
     <g id="text_63">
      <!-- 12 -->
      <g transform="translate(495.372951 435.573428) scale(0.15 -0.15)">
       <use xlink:href="#DejaVuSans-31"/>
       <use xlink:href="#DejaVuSans-32" x="63.623047"/>
      </g>
     </g>
    </g>
    <g id="ytick_24">
     <g id="line2d_75">
      <g>
       <use xlink:href="#mde7ae87f64" x="521.460451" y="397.746453" style="stroke: #000000; stroke-width: 0.8"/>
      </g>
     </g>
     <g id="text_64">
      <!-- 14 -->
      <g transform="translate(495.372951 403.445281) scale(0.15 -0.15)">
       <use xlink:href="#DejaVuSans-31"/>
       <use xlink:href="#DejaVuSans-34" x="63.623047"/>
      </g>
     </g>
    </g>
    <g id="text_65">
     <!-- dapagliflozin-3-o- -->
     <g transform="translate(467.192201 602.286542) rotate(-90) scale(0.18 -0.18)">
      <use xlink:href="#DejaVuSans-Bold-64"/>
      <use xlink:href="#DejaVuSans-Bold-61" x="71.582031"/>
      <use xlink:href="#DejaVuSans-Bold-70" x="139.0625"/>
      <use xlink:href="#DejaVuSans-Bold-61" x="210.644531"/>
      <use xlink:href="#DejaVuSans-Bold-67" x="278.125"/>
      <use xlink:href="#DejaVuSans-Bold-6c" x="349.707031"/>
      <use xlink:href="#DejaVuSans-Bold-69" x="383.984375"/>
      <use xlink:href="#DejaVuSans-Bold-66" x="418.261719"/>
      <use xlink:href="#DejaVuSans-Bold-6c" x="461.767578"/>
      <use xlink:href="#DejaVuSans-Bold-6f" x="496.044922"/>
      <use xlink:href="#DejaVuSans-Bold-7a" x="564.746094"/>
      <use xlink:href="#DejaVuSans-Bold-69" x="622.949219"/>
      <use xlink:href="#DejaVuSans-Bold-6e" x="657.226562"/>
      <use xlink:href="#DejaVuSans-Bold-2d" x="728.417969"/>
      <use xlink:href="#DejaVuSans-Bold-33" x="769.921875"/>
      <use xlink:href="#DejaVuSans-Bold-2d" x="839.501953"/>
      <use xlink:href="#DejaVuSans-Bold-6f" x="881.005859"/>
      <use xlink:href="#DejaVuSans-Bold-2d" x="949.707031"/>
     </g>
     <!-- glucuronide plasma urine [µmole] -->
     <g transform="translate(487.488889 685.265136) rotate(-90) scale(0.18 -0.18)">
      <use xlink:href="#DejaVuSans-Bold-67"/>
      <use xlink:href="#DejaVuSans-Bold-6c" x="71.582031"/>
      <use xlink:href="#DejaVuSans-Bold-75" x="105.859375"/>
      <use xlink:href="#DejaVuSans-Bold-63" x="177.050781"/>
      <use xlink:href="#DejaVuSans-Bold-75" x="236.328125"/>
      <use xlink:href="#DejaVuSans-Bold-72" x="307.519531"/>
      <use xlink:href="#DejaVuSans-Bold-6f" x="356.835938"/>
      <use xlink:href="#DejaVuSans-Bold-6e" x="425.537109"/>
      <use xlink:href="#DejaVuSans-Bold-69" x="496.728516"/>
      <use xlink:href="#DejaVuSans-Bold-64" x="531.005859"/>
      <use xlink:href="#DejaVuSans-Bold-65" x="602.587891"/>
      <use xlink:href="#DejaVuSans-Bold-20" x="670.410156"/>
      <use xlink:href="#DejaVuSans-Bold-70" x="705.224609"/>
      <use xlink:href="#DejaVuSans-Bold-6c" x="776.806641"/>
      <use xlink:href="#DejaVuSans-Bold-61" x="811.083984"/>
      <use xlink:href="#DejaVuSans-Bold-73" x="878.564453"/>
      <use xlink:href="#DejaVuSans-Bold-6d" x="938.085938"/>
      <use xlink:href="#DejaVuSans-Bold-61" x="1042.285156"/>
      <use xlink:href="#DejaVuSans-Bold-20" x="1109.765625"/>
      <use xlink:href="#DejaVuSans-Bold-75" x="1144.580078"/>
      <use xlink:href="#DejaVuSans-Bold-72" x="1215.771484"/>
      <use xlink:href="#DejaVuSans-Bold-69" x="1265.087891"/>
      <use xlink:href="#DejaVuSans-Bold-6e" x="1299.365234"/>
      <use xlink:href="#DejaVuSans-Bold-65" x="1370.556641"/>
      <use xlink:href="#DejaVuSans-Bold-20" x="1438.378906"/>
      <use xlink:href="#DejaVuSans-Bold-5b" x="1473.193359"/>
      <use xlink:href="#DejaVuSans-Bold-b5" x="1518.896484"/>
      <use xlink:href="#DejaVuSans-Bold-6d" x="1592.480469"/>
      <use xlink:href="#DejaVuSans-Bold-6f" x="1696.679688"/>
      <use xlink:href="#DejaVuSans-Bold-6c" x="1765.380859"/>
      <use xlink:href="#DejaVuSans-Bold-65" x="1799.658203"/>
      <use xlink:href="#DejaVuSans-Bold-5d" x="1867.480469"/>
     </g>
    </g>
   </g>
   <g id="LineCollection_13">
    <path d="M 536.899186 622.643478 
L 536.899186 622.643478 
" clip-path="url(#p1c9269d974)" style="fill: none; stroke: #1f77b4"/>
    <path d="M 833.322902 448.821968 
L 833.322902 417.51762 
" clip-path="url(#p1c9269d974)" style="fill: none; stroke: #1f77b4"/>
   </g>
   <g id="LineCollection_14">
    <path d="M 536.899186 622.643478 
L 536.899186 622.643478 
" clip-path="url(#p1c9269d974)" style="fill: none; stroke: #ff7f0e"/>
    <path d="M 833.322902 479.851716 
L 833.322902 403.513043 
" clip-path="url(#p1c9269d974)" style="fill: none; stroke: #ff7f0e"/>
   </g>
   <g id="line2d_76">
    <path d="M 536.899186 622.643478 
L 539.369384 622.5484 
L 540.604483 622.288361 
L 541.839582 621.783124 
L 543.07468 620.989202 
L 544.309779 619.888549 
L 545.544878 618.482907 
L 546.779977 616.788055 
L 548.632625 613.759496 
L 550.485273 610.240675 
L 552.955471 604.976898 
L 556.043218 597.81973 
L 565.924008 574.420118 
L 569.629305 566.400564 
L 572.717052 560.216729 
L 575.804799 554.513862 
L 578.892546 549.292465 
L 581.980293 544.53778 
L 585.06804 540.225649 
L 588.155787 536.326623 
L 591.243534 532.808798 
L 594.331281 529.639712 
L 597.419028 526.787587 
L 600.506775 524.222097 
L 603.594522 521.914812 
L 607.299819 519.450015 
L 611.005115 517.277975 
L 614.710412 515.361868 
L 619.033257 513.406612 
L 623.356103 511.71039 
L 628.296499 510.039685 
L 633.236894 508.608186 
L 638.794838 507.233378 
L 644.970333 505.943328 
L 651.763376 504.753374 
L 659.791518 503.585412 
L 669.054759 502.476075 
L 680.170649 501.382913 
L 693.756736 500.280747 
L 711.665668 499.065203 
L 736.985194 497.586912 
L 778.978554 495.385539 
L 845.67389 492.080456 
L 845.67389 492.080456 
" clip-path="url(#p1c9269d974)" style="fill: none; stroke: #000000; stroke-width: 2; stroke-linecap: square"/>
   </g>
   <g id="line2d_77">
    <path d="M 536.899186 622.643478 
L 833.322902 433.169794 
" clip-path="url(#p1c9269d974)" style="fill: none; stroke-dasharray: 3.7,1.6; stroke-dashoffset: 0; stroke: #1f77b4"/>
    <g clip-path="url(#p1c9269d974)">
     <use xlink:href="#mac23332332" x="536.899186" y="622.643478" style="fill: #1f77b4; stroke: #000000; stroke-linejoin: miter"/>
     <use xlink:href="#mac23332332" x="833.322902" y="433.169794" style="fill: #1f77b4; stroke: #000000; stroke-linejoin: miter"/>
    </g>
   </g>
   <g id="line2d_78">
    <path d="M 536.899186 622.643478 
L 833.322902 441.68238 
" clip-path="url(#p1c9269d974)" style="fill: none; stroke-dasharray: 3.7,1.6; stroke-dashoffset: 0; stroke: #ff7f0e"/>
    <g clip-path="url(#p1c9269d974)">
     <use xlink:href="#m91d95f08b2" x="536.899186" y="622.643478" style="fill: #ff7f0e; stroke: #000000; stroke-linejoin: miter"/>
     <use xlink:href="#m91d95f08b2" x="833.322902" y="441.68238" style="fill: #ff7f0e; stroke: #000000; stroke-linejoin: miter"/>
    </g>
   </g>
   <g id="patch_21">
    <path d="M 521.460451 633.6 
L 521.460451 392.556522 
" style="fill: none; stroke: #000000; stroke-width: 0.8; stroke-linejoin: miter; stroke-linecap: square"/>
   </g>
   <g id="patch_22">
    <path d="M 861.112625 633.6 
L 861.112625 392.556522 
" style="fill: none; stroke: #000000; stroke-width: 0.8; stroke-linejoin: miter; stroke-linecap: square"/>
   </g>
   <g id="patch_23">
    <path d="M 521.460451 633.6 
L 861.112625 633.6 
" style="fill: none; stroke: #000000; stroke-width: 0.8; stroke-linejoin: miter; stroke-linecap: square"/>
   </g>
   <g id="patch_24">
    <path d="M 521.460451 392.556522 
L 861.112625 392.556522 
" style="fill: none; stroke: #000000; stroke-width: 0.8; stroke-linejoin: miter; stroke-linecap: square"/>
   </g>
   <g id="legend_4">
    <g id="patch_25">
     <path d="M 528.460451 444.590897 
L 641.619826 444.590897 
Q 643.619826 444.590897 643.619826 442.590897 
L 643.619826 399.556522 
Q 643.619826 397.556522 641.619826 397.556522 
L 528.460451 397.556522 
Q 526.460451 397.556522 526.460451 399.556522 
L 526.460451 442.590897 
Q 526.460451 444.590897 528.460451 444.590897 
z
" style="fill: #ffffff; opacity: 0.8; stroke: #cccccc; stroke-linejoin: miter"/>
    </g>
    <g id="line2d_79">
     <path d="M 530.460451 405.654959 
L 550.460451 405.654959 
" style="fill: none; stroke: #000000; stroke-width: 2; stroke-linecap: square"/>
    </g>
    <g id="line2d_80"/>
    <g id="text_66">
     <!-- Sim -->
     <g transform="translate(558.460451 409.154959) scale(0.1 -0.1)">
      <use xlink:href="#DejaVuSans-53"/>
      <use xlink:href="#DejaVuSans-69" x="63.476562"/>
      <use xlink:href="#DejaVuSans-6d" x="91.259766"/>
     </g>
    </g>
    <g id="LineCollection_15">
     <path d="M 540.460451 425.333084 
L 540.460451 415.333084 
" style="fill: none; stroke: #1f77b4"/>
    </g>
    <g id="line2d_81">
     <path d="M 530.460451 420.333084 
L 550.460451 420.333084 
" style="fill: none; stroke-dasharray: 3.7,1.6; stroke-dashoffset: 0; stroke: #1f77b4"/>
    </g>
    <g id="line2d_82">
     <g>
      <use xlink:href="#mac23332332" x="540.460451" y="420.333084" style="fill: #1f77b4; stroke: #000000; stroke-linejoin: miter"/>
     </g>
    </g>
    <g id="text_67">
     <!-- RIF±SD (n=14) -->
     <g transform="translate(558.460451 423.833084) scale(0.1 -0.1)">
      <use xlink:href="#DejaVuSans-52"/>
      <use xlink:href="#DejaVuSans-49" x="69.482422"/>
      <use xlink:href="#DejaVuSans-46" x="98.974609"/>
      <use xlink:href="#DejaVuSans-b1" x="156.494141"/>
      <use xlink:href="#DejaVuSans-53" x="240.283203"/>
      <use xlink:href="#DejaVuSans-44" x="303.759766"/>
      <use xlink:href="#DejaVuSans-20" x="380.761719"/>
      <use xlink:href="#DejaVuSans-28" x="412.548828"/>
      <use xlink:href="#DejaVuSans-6e" x="451.5625"/>
      <use xlink:href="#DejaVuSans-3d" x="514.941406"/>
      <use xlink:href="#DejaVuSans-31" x="598.730469"/>
      <use xlink:href="#DejaVuSans-34" x="662.353516"/>
      <use xlink:href="#DejaVuSans-29" x="725.976562"/>
     </g>
    </g>
    <g id="LineCollection_16">
     <path d="M 540.460451 440.011209 
L 540.460451 430.011209 
" style="fill: none; stroke: #ff7f0e"/>
    </g>
    <g id="line2d_83">
     <path d="M 530.460451 435.011209 
L 550.460451 435.011209 
" style="fill: none; stroke-dasharray: 3.7,1.6; stroke-dashoffset: 0; stroke: #ff7f0e"/>
    </g>
    <g id="line2d_84">
     <g>
      <use xlink:href="#m91d95f08b2" x="540.460451" y="435.011209" style="fill: #ff7f0e; stroke: #000000; stroke-linejoin: miter"/>
     </g>
    </g>
    <g id="text_68">
     <!-- MFA±SD (n=16) -->
     <g transform="translate(558.460451 438.511209) scale(0.1 -0.1)">
      <use xlink:href="#DejaVuSans-4d"/>
      <use xlink:href="#DejaVuSans-46" x="86.279297"/>
      <use xlink:href="#DejaVuSans-41" x="134.673828"/>
      <use xlink:href="#DejaVuSans-b1" x="203.082031"/>
      <use xlink:href="#DejaVuSans-53" x="286.871094"/>
      <use xlink:href="#DejaVuSans-44" x="350.347656"/>
      <use xlink:href="#DejaVuSans-20" x="427.349609"/>
      <use xlink:href="#DejaVuSans-28" x="459.136719"/>
      <use xlink:href="#DejaVuSans-6e" x="498.150391"/>
      <use xlink:href="#DejaVuSans-3d" x="561.529297"/>
      <use xlink:href="#DejaVuSans-31" x="645.318359"/>
      <use xlink:href="#DejaVuSans-36" x="708.941406"/>
      <use xlink:href="#DejaVuSans-29" x="772.564453"/>
     </g>
    </g>
   </g>
  </g>
  <g id="text_69">
   <!-- Kasichayanula2013a -->
   <g transform="translate(313.387234 26.196094) scale(0.25 -0.25)">
    <defs>
     <path id="DejaVuSans-Bold-4b" d="M 588 4666 
L 1791 4666 
L 1791 2963 
L 3525 4666 
L 4922 4666 
L 2675 2456 
L 5153 0 
L 3647 0 
L 1791 1838 
L 1791 0 
L 588 0 
L 588 4666 
z
" transform="scale(0.015625)"/>
     <path id="DejaVuSans-Bold-79" d="M 78 3500 
L 1197 3500 
L 2138 1125 
L 2938 3500 
L 4056 3500 
L 2584 -331 
Q 2363 -916 2067 -1148 
Q 1772 -1381 1288 -1381 
L 641 -1381 
L 641 -647 
L 991 -647 
Q 1275 -647 1404 -556 
Q 1534 -466 1606 -231 
L 1638 -134 
L 78 3500 
z
" transform="scale(0.015625)"/>
     <path id="DejaVuSans-Bold-32" d="M 1844 884 
L 3897 884 
L 3897 0 
L 506 0 
L 506 884 
L 2209 2388 
Q 2438 2594 2547 2791 
Q 2656 2988 2656 3200 
Q 2656 3528 2436 3728 
Q 2216 3928 1850 3928 
Q 1569 3928 1234 3808 
Q 900 3688 519 3450 
L 519 4475 
Q 925 4609 1322 4679 
Q 1719 4750 2100 4750 
Q 2938 4750 3402 4381 
Q 3866 4013 3866 3353 
Q 3866 2972 3669 2642 
Q 3472 2313 2841 1759 
L 1844 884 
z
" transform="scale(0.015625)"/>
     <path id="DejaVuSans-Bold-30" d="M 2944 2338 
Q 2944 3213 2780 3570 
Q 2616 3928 2228 3928 
Q 1841 3928 1675 3570 
Q 1509 3213 1509 2338 
Q 1509 1453 1675 1090 
Q 1841 728 2228 728 
Q 2613 728 2778 1090 
Q 2944 1453 2944 2338 
z
M 4147 2328 
Q 4147 1169 3647 539 
Q 3147 -91 2228 -91 
Q 1306 -91 806 539 
Q 306 1169 306 2328 
Q 306 3491 806 4120 
Q 1306 4750 2228 4750 
Q 3147 4750 3647 4120 
Q 4147 3491 4147 2328 
z
" transform="scale(0.015625)"/>
     <path id="DejaVuSans-Bold-31" d="M 750 831 
L 1813 831 
L 1813 3847 
L 722 3622 
L 722 4441 
L 1806 4666 
L 2950 4666 
L 2950 831 
L 4013 831 
L 4013 0 
L 750 0 
L 750 831 
z
" transform="scale(0.015625)"/>
    </defs>
    <use xlink:href="#DejaVuSans-Bold-4b"/>
    <use xlink:href="#DejaVuSans-Bold-61" x="77.490234"/>
    <use xlink:href="#DejaVuSans-Bold-73" x="144.970703"/>
    <use xlink:href="#DejaVuSans-Bold-69" x="204.492188"/>
    <use xlink:href="#DejaVuSans-Bold-63" x="238.769531"/>
    <use xlink:href="#DejaVuSans-Bold-68" x="298.046875"/>
    <use xlink:href="#DejaVuSans-Bold-61" x="369.238281"/>
    <use xlink:href="#DejaVuSans-Bold-79" x="433.59375"/>
    <use xlink:href="#DejaVuSans-Bold-61" x="498.779297"/>
    <use xlink:href="#DejaVuSans-Bold-6e" x="566.259766"/>
    <use xlink:href="#DejaVuSans-Bold-75" x="637.451172"/>
    <use xlink:href="#DejaVuSans-Bold-6c" x="708.642578"/>
    <use xlink:href="#DejaVuSans-Bold-61" x="742.919922"/>
    <use xlink:href="#DejaVuSans-Bold-32" x="810.400391"/>
    <use xlink:href="#DejaVuSans-Bold-30" x="879.980469"/>
    <use xlink:href="#DejaVuSans-Bold-31" x="949.560547"/>
    <use xlink:href="#DejaVuSans-Bold-33" x="1019.140625"/>
    <use xlink:href="#DejaVuSans-Bold-61" x="1088.720703"/>
   </g>
  </g>
 </g>
 <defs>
  <clipPath id="pd0334615f8">
   <rect x="79.912625" y="79.2" width="339.652174" height="241.043478"/>
  </clipPath>
  <clipPath id="p79bb827550">
   <rect x="521.460451" y="79.2" width="339.652174" height="241.043478"/>
  </clipPath>
  <clipPath id="pa20e874cd0">
   <rect x="79.912625" y="392.556522" width="339.652174" height="241.043478"/>
  </clipPath>
  <clipPath id="p1c9269d974">
   <rect x="521.460451" y="392.556522" width="339.652174" height="241.043478"/>
  </clipPath>
 </defs>
</svg>
