<?xml version="1.0" encoding="utf-8" standalone="no"?>
<!DOCTYPE svg PUBLIC "-//W3C//DTD SVG 1.1//EN"
  "http://www.w3.org/Graphics/SVG/1.1/DTD/svg11.dtd">
<svg xmlns:xlink="http://www.w3.org/1999/xlink" width="868.191688pt" height="683.737812pt" viewBox="0 0 868.191688 683.737812" xmlns="http://www.w3.org/2000/svg" version="1.1">
 <metadata>
  <rdf:RDF xmlns:dc="http://purl.org/dc/elements/1.1/" xmlns:cc="http://creativecommons.org/ns#" xmlns:rdf="http://www.w3.org/1999/02/22-rdf-syntax-ns#">
   <cc:Work>
    <dc:type rdf:resource="http://purl.org/dc/dcmitype/StillImage"/>
    <dc:date>2025-06-10T17:07:42.764674</dc:date>
    <dc:format>image/svg+xml</dc:format>
    <dc:creator>
     <cc:Agent>
      <dc:title>Matplotlib v3.9.1, https://matplotlib.org/</dc:title>
     </cc:Agent>
    </dc:creator>
   </cc:Work>
  </rdf:RDF>
 </metadata>
 <defs>
  <style type="text/css">*{stroke-linejoin: round; stroke-linecap: butt}</style>
 </defs>
 <g id="figure_1">
  <g id="patch_1">
   <path d="M 0 683.737812 
L 868.191688 683.737812 
L 868.191688 0 
L 0 0 
z
" style="fill: #ffffff"/>
  </g>
  <g id="axes_1">
   <g id="patch_2">
    <path d="M 79.791687 320.243478 
L 419.443861 320.243478 
L 419.443861 79.2 
L 79.791687 79.2 
z
" style="fill: #ffffff"/>
   </g>
   <g id="matplotlib.axis_1">
    <g id="xtick_1">
     <g id="line2d_1">
      <defs>
       <path id="mf59ac89a9e" d="M 0 0 
L 0 3.5 
" style="stroke: #000000; stroke-width: 0.8"/>
      </defs>
      <g>
       <use xlink:href="#mf59ac89a9e" x="95.230423" y="320.243478" style="stroke: #000000; stroke-width: 0.8"/>
      </g>
     </g>
     <g id="text_1">
      <!-- 0 -->
      <g transform="translate(90.458548 338.641135) scale(0.15 -0.15)">
       <defs>
        <path id="DejaVuSans-30" d="M 2034 4250 
Q 1547 4250 1301 3770 
Q 1056 3291 1056 2328 
Q 1056 1369 1301 889 
Q 1547 409 2034 409 
Q 2525 409 2770 889 
Q 3016 1369 3016 2328 
Q 3016 3291 2770 3770 
Q 2525 4250 2034 4250 
z
M 2034 4750 
Q 2819 4750 3233 4129 
Q 3647 3509 3647 2328 
Q 3647 1150 3233 529 
Q 2819 -91 2034 -91 
Q 1250 -91 836 529 
Q 422 1150 422 2328 
Q 422 3509 836 4129 
Q 1250 4750 2034 4750 
z
" transform="scale(0.015625)"/>
       </defs>
       <use xlink:href="#DejaVuSans-30"/>
      </g>
     </g>
    </g>
    <g id="xtick_2">
     <g id="line2d_2">
      <g>
       <use xlink:href="#mf59ac89a9e" x="190.238024" y="320.243478" style="stroke: #000000; stroke-width: 0.8"/>
      </g>
     </g>
     <g id="text_2">
      <!-- 20 -->
      <g transform="translate(180.694274 338.641135) scale(0.15 -0.15)">
       <defs>
        <path id="DejaVuSans-32" d="M 1228 531 
L 3431 531 
L 3431 0 
L 469 0 
L 469 531 
Q 828 903 1448 1529 
Q 2069 2156 2228 2338 
Q 2531 2678 2651 2914 
Q 2772 3150 2772 3378 
Q 2772 3750 2511 3984 
Q 2250 4219 1831 4219 
Q 1534 4219 1204 4116 
Q 875 4013 500 3803 
L 500 4441 
Q 881 4594 1212 4672 
Q 1544 4750 1819 4750 
Q 2544 4750 2975 4387 
Q 3406 4025 3406 3419 
Q 3406 3131 3298 2873 
Q 3191 2616 2906 2266 
Q 2828 2175 2409 1742 
Q 1991 1309 1228 531 
z
" transform="scale(0.015625)"/>
       </defs>
       <use xlink:href="#DejaVuSans-32"/>
       <use xlink:href="#DejaVuSans-30" x="63.623047"/>
      </g>
     </g>
    </g>
    <g id="xtick_3">
     <g id="line2d_3">
      <g>
       <use xlink:href="#mf59ac89a9e" x="285.245625" y="320.243478" style="stroke: #000000; stroke-width: 0.8"/>
      </g>
     </g>
     <g id="text_3">
      <!-- 40 -->
      <g transform="translate(275.701875 338.641135) scale(0.15 -0.15)">
       <defs>
        <path id="DejaVuSans-34" d="M 2419 4116 
L 825 1625 
L 2419 1625 
L 2419 4116 
z
M 2253 4666 
L 3047 4666 
L 3047 1625 
L 3713 1625 
L 3713 1100 
L 3047 1100 
L 3047 0 
L 2419 0 
L 2419 1100 
L 313 1100 
L 313 1709 
L 2253 4666 
z
" transform="scale(0.015625)"/>
       </defs>
       <use xlink:href="#DejaVuSans-34"/>
       <use xlink:href="#DejaVuSans-30" x="63.623047"/>
      </g>
     </g>
    </g>
    <g id="xtick_4">
     <g id="line2d_4">
      <g>
       <use xlink:href="#mf59ac89a9e" x="380.253226" y="320.243478" style="stroke: #000000; stroke-width: 0.8"/>
      </g>
     </g>
     <g id="text_4">
      <!-- 60 -->
      <g transform="translate(370.709476 338.641135) scale(0.15 -0.15)">
       <defs>
        <path id="DejaVuSans-36" d="M 2113 2584 
Q 1688 2584 1439 2293 
Q 1191 2003 1191 1497 
Q 1191 994 1439 701 
Q 1688 409 2113 409 
Q 2538 409 2786 701 
Q 3034 994 3034 1497 
Q 3034 2003 2786 2293 
Q 2538 2584 2113 2584 
z
M 3366 4563 
L 3366 3988 
Q 3128 4100 2886 4159 
Q 2644 4219 2406 4219 
Q 1781 4219 1451 3797 
Q 1122 3375 1075 2522 
Q 1259 2794 1537 2939 
Q 1816 3084 2150 3084 
Q 2853 3084 3261 2657 
Q 3669 2231 3669 1497 
Q 3669 778 3244 343 
Q 2819 -91 2113 -91 
Q 1303 -91 875 529 
Q 447 1150 447 2328 
Q 447 3434 972 4092 
Q 1497 4750 2381 4750 
Q 2619 4750 2861 4703 
Q 3103 4656 3366 4563 
z
" transform="scale(0.015625)"/>
       </defs>
       <use xlink:href="#DejaVuSans-36"/>
       <use xlink:href="#DejaVuSans-30" x="63.623047"/>
      </g>
     </g>
    </g>
    <g id="text_5">
     <!-- time [hr] -->
     <g transform="translate(204.543243 359.437853) scale(0.18 -0.18)">
      <defs>
       <path id="DejaVuSans-Bold-74" d="M 1759 4494 
L 1759 3500 
L 2913 3500 
L 2913 2700 
L 1759 2700 
L 1759 1216 
Q 1759 972 1856 886 
Q 1953 800 2241 800 
L 2816 800 
L 2816 0 
L 1856 0 
Q 1194 0 917 276 
Q 641 553 641 1216 
L 641 2700 
L 84 2700 
L 84 3500 
L 641 3500 
L 641 4494 
L 1759 4494 
z
" transform="scale(0.015625)"/>
       <path id="DejaVuSans-Bold-69" d="M 538 3500 
L 1656 3500 
L 1656 0 
L 538 0 
L 538 3500 
z
M 538 4863 
L 1656 4863 
L 1656 3950 
L 538 3950 
L 538 4863 
z
" transform="scale(0.015625)"/>
       <path id="DejaVuSans-Bold-6d" d="M 3781 2919 
Q 3994 3244 4286 3414 
Q 4578 3584 4928 3584 
Q 5531 3584 5847 3212 
Q 6163 2841 6163 2131 
L 6163 0 
L 5038 0 
L 5038 1825 
Q 5041 1866 5042 1909 
Q 5044 1953 5044 2034 
Q 5044 2406 4934 2573 
Q 4825 2741 4581 2741 
Q 4263 2741 4089 2478 
Q 3916 2216 3909 1719 
L 3909 0 
L 2784 0 
L 2784 1825 
Q 2784 2406 2684 2573 
Q 2584 2741 2328 2741 
Q 2006 2741 1831 2477 
Q 1656 2213 1656 1722 
L 1656 0 
L 531 0 
L 531 3500 
L 1656 3500 
L 1656 2988 
Q 1863 3284 2130 3434 
Q 2397 3584 2719 3584 
Q 3081 3584 3359 3409 
Q 3638 3234 3781 2919 
z
" transform="scale(0.015625)"/>
       <path id="DejaVuSans-Bold-65" d="M 4031 1759 
L 4031 1441 
L 1416 1441 
Q 1456 1047 1700 850 
Q 1944 653 2381 653 
Q 2734 653 3104 758 
Q 3475 863 3866 1075 
L 3866 213 
Q 3469 63 3072 -14 
Q 2675 -91 2278 -91 
Q 1328 -91 801 392 
Q 275 875 275 1747 
Q 275 2603 792 3093 
Q 1309 3584 2216 3584 
Q 3041 3584 3536 3087 
Q 4031 2591 4031 1759 
z
M 2881 2131 
Q 2881 2450 2695 2645 
Q 2509 2841 2209 2841 
Q 1884 2841 1681 2658 
Q 1478 2475 1428 2131 
L 2881 2131 
z
" transform="scale(0.015625)"/>
       <path id="DejaVuSans-Bold-20" transform="scale(0.015625)"/>
       <path id="DejaVuSans-Bold-5b" d="M 550 4863 
L 2491 4863 
L 2491 4159 
L 1613 4159 
L 1613 -141 
L 2491 -141 
L 2491 -844 
L 550 -844 
L 550 4863 
z
" transform="scale(0.015625)"/>
       <path id="DejaVuSans-Bold-68" d="M 4056 2131 
L 4056 0 
L 2931 0 
L 2931 347 
L 2931 1625 
Q 2931 2084 2911 2256 
Q 2891 2428 2841 2509 
Q 2775 2619 2662 2680 
Q 2550 2741 2406 2741 
Q 2056 2741 1856 2470 
Q 1656 2200 1656 1722 
L 1656 0 
L 538 0 
L 538 4863 
L 1656 4863 
L 1656 2988 
Q 1909 3294 2193 3439 
Q 2478 3584 2822 3584 
Q 3428 3584 3742 3212 
Q 4056 2841 4056 2131 
z
" transform="scale(0.015625)"/>
       <path id="DejaVuSans-Bold-72" d="M 3138 2547 
Q 2991 2616 2845 2648 
Q 2700 2681 2553 2681 
Q 2122 2681 1889 2404 
Q 1656 2128 1656 1613 
L 1656 0 
L 538 0 
L 538 3500 
L 1656 3500 
L 1656 2925 
Q 1872 3269 2151 3426 
Q 2431 3584 2822 3584 
Q 2878 3584 2943 3579 
Q 3009 3575 3134 3559 
L 3138 2547 
z
" transform="scale(0.015625)"/>
       <path id="DejaVuSans-Bold-5d" d="M 2375 -844 
L 434 -844 
L 434 -141 
L 1313 -141 
L 1313 4159 
L 434 4159 
L 434 4863 
L 2375 4863 
L 2375 -844 
z
" transform="scale(0.015625)"/>
      </defs>
      <use xlink:href="#DejaVuSans-Bold-74"/>
      <use xlink:href="#DejaVuSans-Bold-69" x="47.802734"/>
      <use xlink:href="#DejaVuSans-Bold-6d" x="82.080078"/>
      <use xlink:href="#DejaVuSans-Bold-65" x="186.279297"/>
      <use xlink:href="#DejaVuSans-Bold-20" x="254.101562"/>
      <use xlink:href="#DejaVuSans-Bold-5b" x="288.916016"/>
      <use xlink:href="#DejaVuSans-Bold-68" x="334.619141"/>
      <use xlink:href="#DejaVuSans-Bold-72" x="405.810547"/>
      <use xlink:href="#DejaVuSans-Bold-5d" x="455.126953"/>
     </g>
    </g>
   </g>
   <g id="matplotlib.axis_2">
    <g id="ytick_1">
     <g id="line2d_5">
      <defs>
       <path id="m25429146b4" d="M 0 0 
L -3.5 0 
" style="stroke: #000000; stroke-width: 0.8"/>
      </defs>
      <g>
       <use xlink:href="#m25429146b4" x="79.791687" y="299.326482" style="stroke: #000000; stroke-width: 0.8"/>
      </g>
     </g>
     <g id="text_6">
      <!-- 0.0 -->
      <g transform="translate(48.937 305.02531) scale(0.15 -0.15)">
       <defs>
        <path id="DejaVuSans-2e" d="M 684 794 
L 1344 794 
L 1344 0 
L 684 0 
L 684 794 
z
" transform="scale(0.015625)"/>
       </defs>
       <use xlink:href="#DejaVuSans-30"/>
       <use xlink:href="#DejaVuSans-2e" x="63.623047"/>
       <use xlink:href="#DejaVuSans-30" x="95.410156"/>
      </g>
     </g>
    </g>
    <g id="ytick_2">
     <g id="line2d_6">
      <g>
       <use xlink:href="#m25429146b4" x="79.791687" y="248.41937" style="stroke: #000000; stroke-width: 0.8"/>
      </g>
     </g>
     <g id="text_7">
      <!-- 0.5 -->
      <g transform="translate(48.937 254.118198) scale(0.15 -0.15)">
       <defs>
        <path id="DejaVuSans-35" d="M 691 4666 
L 3169 4666 
L 3169 4134 
L 1269 4134 
L 1269 2991 
Q 1406 3038 1543 3061 
Q 1681 3084 1819 3084 
Q 2600 3084 3056 2656 
Q 3513 2228 3513 1497 
Q 3513 744 3044 326 
Q 2575 -91 1722 -91 
Q 1428 -91 1123 -41 
Q 819 9 494 109 
L 494 744 
Q 775 591 1075 516 
Q 1375 441 1709 441 
Q 2250 441 2565 725 
Q 2881 1009 2881 1497 
Q 2881 1984 2565 2268 
Q 2250 2553 1709 2553 
Q 1456 2553 1204 2497 
Q 953 2441 691 2322 
L 691 4666 
z
" transform="scale(0.015625)"/>
       </defs>
       <use xlink:href="#DejaVuSans-30"/>
       <use xlink:href="#DejaVuSans-2e" x="63.623047"/>
       <use xlink:href="#DejaVuSans-35" x="95.410156"/>
      </g>
     </g>
    </g>
    <g id="ytick_3">
     <g id="line2d_7">
      <g>
       <use xlink:href="#m25429146b4" x="79.791687" y="197.512257" style="stroke: #000000; stroke-width: 0.8"/>
      </g>
     </g>
     <g id="text_8">
      <!-- 1.0 -->
      <g transform="translate(48.937 203.211085) scale(0.15 -0.15)">
       <defs>
        <path id="DejaVuSans-31" d="M 794 531 
L 1825 531 
L 1825 4091 
L 703 3866 
L 703 4441 
L 1819 4666 
L 2450 4666 
L 2450 531 
L 3481 531 
L 3481 0 
L 794 0 
L 794 531 
z
" transform="scale(0.015625)"/>
       </defs>
       <use xlink:href="#DejaVuSans-31"/>
       <use xlink:href="#DejaVuSans-2e" x="63.623047"/>
       <use xlink:href="#DejaVuSans-30" x="95.410156"/>
      </g>
     </g>
    </g>
    <g id="ytick_4">
     <g id="line2d_8">
      <g>
       <use xlink:href="#m25429146b4" x="79.791687" y="146.605144" style="stroke: #000000; stroke-width: 0.8"/>
      </g>
     </g>
     <g id="text_9">
      <!-- 1.5 -->
      <g transform="translate(48.937 152.303972) scale(0.15 -0.15)">
       <use xlink:href="#DejaVuSans-31"/>
       <use xlink:href="#DejaVuSans-2e" x="63.623047"/>
       <use xlink:href="#DejaVuSans-35" x="95.410156"/>
      </g>
     </g>
    </g>
    <g id="ytick_5">
     <g id="line2d_9">
      <g>
       <use xlink:href="#m25429146b4" x="79.791687" y="95.698032" style="stroke: #000000; stroke-width: 0.8"/>
      </g>
     </g>
     <g id="text_10">
      <!-- 2.0 -->
      <g transform="translate(48.937 101.39686) scale(0.15 -0.15)">
       <use xlink:href="#DejaVuSans-32"/>
       <use xlink:href="#DejaVuSans-2e" x="63.623047"/>
       <use xlink:href="#DejaVuSans-30" x="95.410156"/>
      </g>
     </g>
    </g>
    <g id="text_11">
     <!-- dapagliflozin -->
     <g transform="translate(20.877187 265.279708) rotate(-90) scale(0.18 -0.18)">
      <defs>
       <path id="DejaVuSans-Bold-64" d="M 2919 2988 
L 2919 4863 
L 4044 4863 
L 4044 0 
L 2919 0 
L 2919 506 
Q 2688 197 2409 53 
Q 2131 -91 1766 -91 
Q 1119 -91 703 423 
Q 288 938 288 1747 
Q 288 2556 703 3070 
Q 1119 3584 1766 3584 
Q 2128 3584 2408 3439 
Q 2688 3294 2919 2988 
z
M 2181 722 
Q 2541 722 2730 984 
Q 2919 1247 2919 1747 
Q 2919 2247 2730 2509 
Q 2541 2772 2181 2772 
Q 1825 2772 1636 2509 
Q 1447 2247 1447 1747 
Q 1447 1247 1636 984 
Q 1825 722 2181 722 
z
" transform="scale(0.015625)"/>
       <path id="DejaVuSans-Bold-61" d="M 2106 1575 
Q 1756 1575 1579 1456 
Q 1403 1338 1403 1106 
Q 1403 894 1545 773 
Q 1688 653 1941 653 
Q 2256 653 2472 879 
Q 2688 1106 2688 1447 
L 2688 1575 
L 2106 1575 
z
M 3816 1997 
L 3816 0 
L 2688 0 
L 2688 519 
Q 2463 200 2181 54 
Q 1900 -91 1497 -91 
Q 953 -91 614 226 
Q 275 544 275 1050 
Q 275 1666 698 1953 
Q 1122 2241 2028 2241 
L 2688 2241 
L 2688 2328 
Q 2688 2594 2478 2717 
Q 2269 2841 1825 2841 
Q 1466 2841 1156 2769 
Q 847 2697 581 2553 
L 581 3406 
Q 941 3494 1303 3539 
Q 1666 3584 2028 3584 
Q 2975 3584 3395 3211 
Q 3816 2838 3816 1997 
z
" transform="scale(0.015625)"/>
       <path id="DejaVuSans-Bold-70" d="M 1656 506 
L 1656 -1331 
L 538 -1331 
L 538 3500 
L 1656 3500 
L 1656 2988 
Q 1888 3294 2169 3439 
Q 2450 3584 2816 3584 
Q 3463 3584 3878 3070 
Q 4294 2556 4294 1747 
Q 4294 938 3878 423 
Q 3463 -91 2816 -91 
Q 2450 -91 2169 54 
Q 1888 200 1656 506 
z
M 2400 2772 
Q 2041 2772 1848 2508 
Q 1656 2244 1656 1747 
Q 1656 1250 1848 986 
Q 2041 722 2400 722 
Q 2759 722 2948 984 
Q 3138 1247 3138 1747 
Q 3138 2247 2948 2509 
Q 2759 2772 2400 2772 
z
" transform="scale(0.015625)"/>
       <path id="DejaVuSans-Bold-67" d="M 2919 594 
Q 2688 288 2409 144 
Q 2131 0 1766 0 
Q 1125 0 706 504 
Q 288 1009 288 1791 
Q 288 2575 706 3076 
Q 1125 3578 1766 3578 
Q 2131 3578 2409 3434 
Q 2688 3291 2919 2981 
L 2919 3500 
L 4044 3500 
L 4044 353 
Q 4044 -491 3511 -936 
Q 2978 -1381 1966 -1381 
Q 1638 -1381 1331 -1331 
Q 1025 -1281 716 -1178 
L 716 -306 
Q 1009 -475 1290 -558 
Q 1572 -641 1856 -641 
Q 2406 -641 2662 -400 
Q 2919 -159 2919 353 
L 2919 594 
z
M 2181 2772 
Q 1834 2772 1640 2515 
Q 1447 2259 1447 1791 
Q 1447 1309 1634 1061 
Q 1822 813 2181 813 
Q 2531 813 2725 1069 
Q 2919 1325 2919 1791 
Q 2919 2259 2725 2515 
Q 2531 2772 2181 2772 
z
" transform="scale(0.015625)"/>
       <path id="DejaVuSans-Bold-6c" d="M 538 4863 
L 1656 4863 
L 1656 0 
L 538 0 
L 538 4863 
z
" transform="scale(0.015625)"/>
       <path id="DejaVuSans-Bold-66" d="M 2841 4863 
L 2841 4128 
L 2222 4128 
Q 1984 4128 1890 4042 
Q 1797 3956 1797 3744 
L 1797 3500 
L 2753 3500 
L 2753 2700 
L 1797 2700 
L 1797 0 
L 678 0 
L 678 2700 
L 122 2700 
L 122 3500 
L 678 3500 
L 678 3744 
Q 678 4316 997 4589 
Q 1316 4863 1984 4863 
L 2841 4863 
z
" transform="scale(0.015625)"/>
       <path id="DejaVuSans-Bold-6f" d="M 2203 2784 
Q 1831 2784 1636 2517 
Q 1441 2250 1441 1747 
Q 1441 1244 1636 976 
Q 1831 709 2203 709 
Q 2569 709 2762 976 
Q 2956 1244 2956 1747 
Q 2956 2250 2762 2517 
Q 2569 2784 2203 2784 
z
M 2203 3584 
Q 3106 3584 3614 3096 
Q 4122 2609 4122 1747 
Q 4122 884 3614 396 
Q 3106 -91 2203 -91 
Q 1297 -91 786 396 
Q 275 884 275 1747 
Q 275 2609 786 3096 
Q 1297 3584 2203 3584 
z
" transform="scale(0.015625)"/>
       <path id="DejaVuSans-Bold-7a" d="M 366 3500 
L 3419 3500 
L 3419 2719 
L 1575 800 
L 3419 800 
L 3419 0 
L 288 0 
L 288 781 
L 2131 2700 
L 366 2700 
L 366 3500 
z
" transform="scale(0.015625)"/>
       <path id="DejaVuSans-Bold-6e" d="M 4056 2131 
L 4056 0 
L 2931 0 
L 2931 347 
L 2931 1631 
Q 2931 2084 2911 2256 
Q 2891 2428 2841 2509 
Q 2775 2619 2662 2680 
Q 2550 2741 2406 2741 
Q 2056 2741 1856 2470 
Q 1656 2200 1656 1722 
L 1656 0 
L 538 0 
L 538 3500 
L 1656 3500 
L 1656 2988 
Q 1909 3294 2193 3439 
Q 2478 3584 2822 3584 
Q 3428 3584 3742 3212 
Q 4056 2841 4056 2131 
z
" transform="scale(0.015625)"/>
      </defs>
      <use xlink:href="#DejaVuSans-Bold-64"/>
      <use xlink:href="#DejaVuSans-Bold-61" x="71.582031"/>
      <use xlink:href="#DejaVuSans-Bold-70" x="139.0625"/>
      <use xlink:href="#DejaVuSans-Bold-61" x="210.644531"/>
      <use xlink:href="#DejaVuSans-Bold-67" x="278.125"/>
      <use xlink:href="#DejaVuSans-Bold-6c" x="349.707031"/>
      <use xlink:href="#DejaVuSans-Bold-69" x="383.984375"/>
      <use xlink:href="#DejaVuSans-Bold-66" x="418.261719"/>
      <use xlink:href="#DejaVuSans-Bold-6c" x="461.767578"/>
      <use xlink:href="#DejaVuSans-Bold-6f" x="496.044922"/>
      <use xlink:href="#DejaVuSans-Bold-7a" x="564.746094"/>
      <use xlink:href="#DejaVuSans-Bold-69" x="622.949219"/>
      <use xlink:href="#DejaVuSans-Bold-6e" x="657.226562"/>
     </g>
     <!-- urine [µmole] -->
     <g transform="translate(41.173875 268.896583) rotate(-90) scale(0.18 -0.18)">
      <defs>
       <path id="DejaVuSans-Bold-75" d="M 500 1363 
L 500 3500 
L 1625 3500 
L 1625 3150 
Q 1625 2866 1622 2436 
Q 1619 2006 1619 1863 
Q 1619 1441 1641 1255 
Q 1663 1069 1716 984 
Q 1784 875 1895 815 
Q 2006 756 2150 756 
Q 2500 756 2700 1025 
Q 2900 1294 2900 1772 
L 2900 3500 
L 4019 3500 
L 4019 0 
L 2900 0 
L 2900 506 
Q 2647 200 2364 54 
Q 2081 -91 1741 -91 
Q 1134 -91 817 281 
Q 500 653 500 1363 
z
" transform="scale(0.015625)"/>
       <path id="DejaVuSans-Bold-b5" d="M 544 -1338 
L 544 3500 
L 1672 3500 
L 1672 1466 
Q 1672 1103 1828 926 
Q 1984 750 2303 750 
Q 2625 750 2781 926 
Q 2938 1103 2938 1466 
L 2938 3500 
L 4063 3500 
L 4063 1159 
Q 4063 938 4114 850 
Q 4166 763 4288 763 
Q 4344 763 4395 778 
Q 4447 794 4506 831 
L 4506 50 
Q 4341 -22 4195 -56 
Q 4050 -91 3909 -91 
Q 3631 -91 3454 26 
Q 3278 144 3169 403 
Q 3022 156 2811 32 
Q 2600 -91 2322 -91 
Q 2091 -91 1928 -17 
Q 1766 56 1672 206 
L 1672 -1338 
L 544 -1338 
z
" transform="scale(0.015625)"/>
      </defs>
      <use xlink:href="#DejaVuSans-Bold-75"/>
      <use xlink:href="#DejaVuSans-Bold-72" x="71.191406"/>
      <use xlink:href="#DejaVuSans-Bold-69" x="120.507812"/>
      <use xlink:href="#DejaVuSans-Bold-6e" x="154.785156"/>
      <use xlink:href="#DejaVuSans-Bold-65" x="225.976562"/>
      <use xlink:href="#DejaVuSans-Bold-20" x="293.798828"/>
      <use xlink:href="#DejaVuSans-Bold-5b" x="328.613281"/>
      <use xlink:href="#DejaVuSans-Bold-b5" x="374.316406"/>
      <use xlink:href="#DejaVuSans-Bold-6d" x="447.900391"/>
      <use xlink:href="#DejaVuSans-Bold-6f" x="552.099609"/>
      <use xlink:href="#DejaVuSans-Bold-6c" x="620.800781"/>
      <use xlink:href="#DejaVuSans-Bold-65" x="655.078125"/>
      <use xlink:href="#DejaVuSans-Bold-5d" x="722.900391"/>
     </g>
    </g>
   </g>
   <g id="LineCollection_1">
    <path d="M 95.230423 299.326482 
L 95.230423 299.326482 
" clip-path="url(#p227e320fe9)" style="fill: none; stroke: #000000"/>
    <path d="M 209.239544 254.504348 
L 209.239544 204.701976 
" clip-path="url(#p227e320fe9)" style="fill: none; stroke: #000000"/>
   </g>
   <g id="LineCollection_2">
    <path d="M 95.230423 299.326482 
L 95.230423 299.326482 
" clip-path="url(#p227e320fe9)" style="fill: none; stroke: #66c2a4"/>
    <path d="M 209.239544 264.464822 
L 209.239544 224.622925 
" clip-path="url(#p227e320fe9)" style="fill: none; stroke: #66c2a4"/>
   </g>
   <g id="LineCollection_3">
    <path d="M 95.230423 299.326482 
L 95.230423 299.326482 
" clip-path="url(#p227e320fe9)" style="fill: none; stroke: #2ca25f"/>
    <path d="M 209.239544 309.286957 
L 209.239544 90.156522 
" clip-path="url(#p227e320fe9)" style="fill: none; stroke: #2ca25f"/>
   </g>
   <g id="LineCollection_4">
    <path d="M 95.230423 299.326482 
L 95.230423 299.326482 
" clip-path="url(#p227e320fe9)" style="fill: none; stroke: #006d2c"/>
    <path d="M 209.239544 274.425296 
L 209.239544 234.583399 
" clip-path="url(#p227e320fe9)" style="fill: none; stroke: #006d2c"/>
   </g>
   <g id="line2d_10">
    <path d="M 95.230423 299.326482 
L 95.847972 299.197752 
L 96.465521 298.389873 
L 97.083071 296.77936 
L 98.31817 291.909309 
L 102.023466 275.048935 
L 103.876114 268.063634 
L 105.728763 262.277216 
L 106.963861 259.013494 
L 108.81651 254.882516 
L 110.669158 251.527546 
L 112.521806 248.808806 
L 114.374454 246.608274 
L 116.227103 244.827776 
L 118.079751 243.386397 
L 119.932399 242.217899 
L 121.785047 241.268355 
L 124.255245 240.268594 
L 126.725442 239.500333 
L 129.813189 238.774813 
L 133.518486 238.140103 
L 138.458881 237.541422 
L 145.251925 236.96456 
L 156.985363 236.234734 
L 186.010186 234.727309 
L 256.410818 231.301828 
L 330.516747 227.916882 
L 404.005126 224.769335 
L 404.005126 224.769335 
" clip-path="url(#p227e320fe9)" style="fill: none; stroke: #000000; stroke-width: 2; stroke-linecap: square"/>
   </g>
   <g id="line2d_11">
    <path d="M 95.230423 299.326482 
L 209.239544 229.603162 
" clip-path="url(#p227e320fe9)" style="fill: none; stroke-dasharray: 3.7,1.6; stroke-dashoffset: 0; stroke: #000000"/>
    <defs>
     <path id="m48dd2da870" d="M -3 3 
L 3 3 
L 3 -3 
L -3 -3 
z
" style="stroke: #000000; stroke-linejoin: miter"/>
    </defs>
    <g clip-path="url(#p227e320fe9)">
     <use xlink:href="#m48dd2da870" x="95.230423" y="299.326482" style="stroke: #000000; stroke-linejoin: miter"/>
     <use xlink:href="#m48dd2da870" x="209.239544" y="229.603162" style="stroke: #000000; stroke-linejoin: miter"/>
    </g>
   </g>
   <g id="line2d_12">
    <path d="M 95.230423 299.326482 
L 95.847972 299.254974 
L 96.465521 298.79941 
L 97.083071 297.878784 
L 98.31817 295.043184 
L 103.258565 281.860671 
L 105.111213 277.945658 
L 106.963861 274.673339 
L 108.81651 271.962293 
L 110.669158 269.727863 
L 112.521806 267.892372 
L 114.374454 266.387687 
L 116.227103 265.155383 
L 118.079751 264.146091 
L 120.549948 263.076962 
L 123.020146 262.25291 
L 126.107893 261.47642 
L 129.813189 260.804504 
L 134.136035 260.252009 
L 140.311529 259.70959 
L 149.574771 259.148215 
L 168.718802 258.262501 
L 235.414138 255.484275 
L 323.723703 252.012774 
L 404.005126 249.042797 
L 404.005126 249.042797 
" clip-path="url(#p227e320fe9)" style="fill: none; stroke: #66c2a4; stroke-width: 2; stroke-linecap: square"/>
   </g>
   <g id="line2d_13">
    <path d="M 95.230423 299.326482 
L 209.239544 244.543874 
" clip-path="url(#p227e320fe9)" style="fill: none; stroke-dasharray: 3.7,1.6; stroke-dashoffset: 0; stroke: #66c2a4"/>
    <defs>
     <path id="mb6ecabbec2" d="M -3 3 
L 3 3 
L 3 -3 
L -3 -3 
z
" style="stroke: #000000; stroke-linejoin: miter"/>
    </defs>
    <g clip-path="url(#p227e320fe9)">
     <use xlink:href="#mb6ecabbec2" x="95.230423" y="299.326482" style="fill: #66c2a4; stroke: #000000; stroke-linejoin: miter"/>
     <use xlink:href="#mb6ecabbec2" x="209.239544" y="244.543874" style="fill: #66c2a4; stroke: #000000; stroke-linejoin: miter"/>
    </g>
   </g>
   <g id="line2d_14">
    <path d="M 95.230423 299.326482 
L 95.847972 299.28107 
L 96.465521 298.987294 
L 97.083071 298.385078 
L 98.31817 296.497923 
L 103.876114 286.514853 
L 105.728763 283.933957 
L 107.581411 281.765644 
L 109.434059 279.955876 
L 111.286707 278.451055 
L 113.139355 277.202681 
L 115.609553 275.864712 
L 118.079751 274.823892 
L 120.549948 274.0129 
L 123.637695 273.242536 
L 127.342992 272.574153 
L 131.665838 272.02965 
L 137.223782 271.555131 
L 145.869474 271.073284 
L 161.308209 270.487687 
L 210.712162 268.939788 
L 321.253506 265.679138 
L 404.005126 263.37674 
L 404.005126 263.37674 
" clip-path="url(#p227e320fe9)" style="fill: none; stroke: #2ca25f; stroke-width: 2; stroke-linecap: square"/>
   </g>
   <g id="line2d_15">
    <path d="M 95.230423 299.326482 
L 209.239544 199.721739 
" clip-path="url(#p227e320fe9)" style="fill: none; stroke-dasharray: 3.7,1.6; stroke-dashoffset: 0; stroke: #2ca25f"/>
    <defs>
     <path id="m58cd25dea3" d="M -3 3 
L 3 3 
L 3 -3 
L -3 -3 
z
" style="stroke: #000000; stroke-linejoin: miter"/>
    </defs>
    <g clip-path="url(#p227e320fe9)">
     <use xlink:href="#m58cd25dea3" x="95.230423" y="299.326482" style="fill: #2ca25f; stroke: #000000; stroke-linejoin: miter"/>
     <use xlink:href="#m58cd25dea3" x="209.239544" y="199.721739" style="fill: #2ca25f; stroke: #000000; stroke-linejoin: miter"/>
    </g>
   </g>
   <g id="line2d_16">
    <path d="M 95.230423 299.326482 
L 95.847972 299.299967 
L 96.465521 299.126935 
L 97.083071 298.769265 
L 98.31817 297.63641 
L 103.876114 291.511805 
L 105.728763 289.902348 
L 107.581411 288.540668 
L 109.434059 287.396039 
L 111.904257 286.154073 
L 114.374454 285.176899 
L 117.462201 284.244338 
L 120.549948 283.553463 
L 124.255245 282.952772 
L 129.19564 282.410831 
L 135.371134 281.981616 
L 144.634375 281.591541 
L 161.925759 281.137009 
L 225.533348 279.811211 
L 373.127656 276.929897 
L 404.005126 276.354309 
L 404.005126 276.354309 
" clip-path="url(#p227e320fe9)" style="fill: none; stroke: #006d2c; stroke-width: 2; stroke-linecap: square"/>
   </g>
   <g id="line2d_17">
    <path d="M 95.230423 299.326482 
L 209.239544 254.504348 
" clip-path="url(#p227e320fe9)" style="fill: none; stroke-dasharray: 3.7,1.6; stroke-dashoffset: 0; stroke: #006d2c"/>
    <defs>
     <path id="mb161b4898a" d="M -3 3 
L 3 3 
L 3 -3 
L -3 -3 
z
" style="stroke: #000000; stroke-linejoin: miter"/>
    </defs>
    <g clip-path="url(#p227e320fe9)">
     <use xlink:href="#mb161b4898a" x="95.230423" y="299.326482" style="fill: #006d2c; stroke: #000000; stroke-linejoin: miter"/>
     <use xlink:href="#mb161b4898a" x="209.239544" y="254.504348" style="fill: #006d2c; stroke: #000000; stroke-linejoin: miter"/>
    </g>
   </g>
   <g id="patch_3">
    <path d="M 79.791687 320.243478 
L 79.791687 79.2 
" style="fill: none; stroke: #000000; stroke-width: 0.8; stroke-linejoin: miter; stroke-linecap: square"/>
   </g>
   <g id="patch_4">
    <path d="M 419.443861 320.243478 
L 419.443861 79.2 
" style="fill: none; stroke: #000000; stroke-width: 0.8; stroke-linejoin: miter; stroke-linecap: square"/>
   </g>
   <g id="patch_5">
    <path d="M 79.791687 320.243478 
L 419.443861 320.243478 
" style="fill: none; stroke: #000000; stroke-width: 0.8; stroke-linejoin: miter; stroke-linecap: square"/>
   </g>
   <g id="patch_6">
    <path d="M 79.791687 79.2 
L 419.443861 79.2 
" style="fill: none; stroke: #000000; stroke-width: 0.8; stroke-linejoin: miter; stroke-linecap: square"/>
   </g>
  </g>
  <g id="axes_2">
   <g id="patch_7">
    <path d="M 521.339514 320.243478 
L 860.991688 320.243478 
L 860.991688 79.2 
L 521.339514 79.2 
z
" style="fill: #ffffff"/>
   </g>
   <g id="matplotlib.axis_3">
    <g id="xtick_5">
     <g id="line2d_18">
      <g>
       <use xlink:href="#mf59ac89a9e" x="536.778249" y="320.243478" style="stroke: #000000; stroke-width: 0.8"/>
      </g>
     </g>
     <g id="text_12">
      <!-- 0 -->
      <g transform="translate(532.006374 338.641135) scale(0.15 -0.15)">
       <use xlink:href="#DejaVuSans-30"/>
      </g>
     </g>
    </g>
    <g id="xtick_6">
     <g id="line2d_19">
      <g>
       <use xlink:href="#mf59ac89a9e" x="631.78585" y="320.243478" style="stroke: #000000; stroke-width: 0.8"/>
      </g>
     </g>
     <g id="text_13">
      <!-- 20 -->
      <g transform="translate(622.2421 338.641135) scale(0.15 -0.15)">
       <use xlink:href="#DejaVuSans-32"/>
       <use xlink:href="#DejaVuSans-30" x="63.623047"/>
      </g>
     </g>
    </g>
    <g id="xtick_7">
     <g id="line2d_20">
      <g>
       <use xlink:href="#mf59ac89a9e" x="726.793451" y="320.243478" style="stroke: #000000; stroke-width: 0.8"/>
      </g>
     </g>
     <g id="text_14">
      <!-- 40 -->
      <g transform="translate(717.249701 338.641135) scale(0.15 -0.15)">
       <use xlink:href="#DejaVuSans-34"/>
       <use xlink:href="#DejaVuSans-30" x="63.623047"/>
      </g>
     </g>
    </g>
    <g id="xtick_8">
     <g id="line2d_21">
      <g>
       <use xlink:href="#mf59ac89a9e" x="821.801052" y="320.243478" style="stroke: #000000; stroke-width: 0.8"/>
      </g>
     </g>
     <g id="text_15">
      <!-- 60 -->
      <g transform="translate(812.257302 338.641135) scale(0.15 -0.15)">
       <use xlink:href="#DejaVuSans-36"/>
       <use xlink:href="#DejaVuSans-30" x="63.623047"/>
      </g>
     </g>
    </g>
    <g id="text_16">
     <!-- time [hr] -->
     <g transform="translate(646.091069 359.437853) scale(0.18 -0.18)">
      <use xlink:href="#DejaVuSans-Bold-74"/>
      <use xlink:href="#DejaVuSans-Bold-69" x="47.802734"/>
      <use xlink:href="#DejaVuSans-Bold-6d" x="82.080078"/>
      <use xlink:href="#DejaVuSans-Bold-65" x="186.279297"/>
      <use xlink:href="#DejaVuSans-Bold-20" x="254.101562"/>
      <use xlink:href="#DejaVuSans-Bold-5b" x="288.916016"/>
      <use xlink:href="#DejaVuSans-Bold-68" x="334.619141"/>
      <use xlink:href="#DejaVuSans-Bold-72" x="405.810547"/>
      <use xlink:href="#DejaVuSans-Bold-5d" x="455.126953"/>
     </g>
    </g>
   </g>
   <g id="matplotlib.axis_4">
    <g id="ytick_6">
     <g id="line2d_22">
      <g>
       <use xlink:href="#m25429146b4" x="521.339514" y="309.286957" style="stroke: #000000; stroke-width: 0.8"/>
      </g>
     </g>
     <g id="text_17">
      <!-- 0.0 -->
      <g transform="translate(490.484826 314.985785) scale(0.15 -0.15)">
       <use xlink:href="#DejaVuSans-30"/>
       <use xlink:href="#DejaVuSans-2e" x="63.623047"/>
       <use xlink:href="#DejaVuSans-30" x="95.410156"/>
      </g>
     </g>
    </g>
    <g id="ytick_7">
     <g id="line2d_23">
      <g>
       <use xlink:href="#m25429146b4" x="521.339514" y="278.391605" style="stroke: #000000; stroke-width: 0.8"/>
      </g>
     </g>
     <g id="text_18">
      <!-- 0.5 -->
      <g transform="translate(490.484826 284.090434) scale(0.15 -0.15)">
       <use xlink:href="#DejaVuSans-30"/>
       <use xlink:href="#DejaVuSans-2e" x="63.623047"/>
       <use xlink:href="#DejaVuSans-35" x="95.410156"/>
      </g>
     </g>
    </g>
    <g id="ytick_8">
     <g id="line2d_24">
      <g>
       <use xlink:href="#m25429146b4" x="521.339514" y="247.496254" style="stroke: #000000; stroke-width: 0.8"/>
      </g>
     </g>
     <g id="text_19">
      <!-- 1.0 -->
      <g transform="translate(490.484826 253.195082) scale(0.15 -0.15)">
       <use xlink:href="#DejaVuSans-31"/>
       <use xlink:href="#DejaVuSans-2e" x="63.623047"/>
       <use xlink:href="#DejaVuSans-30" x="95.410156"/>
      </g>
     </g>
    </g>
    <g id="ytick_9">
     <g id="line2d_25">
      <g>
       <use xlink:href="#m25429146b4" x="521.339514" y="216.600903" style="stroke: #000000; stroke-width: 0.8"/>
      </g>
     </g>
     <g id="text_20">
      <!-- 1.5 -->
      <g transform="translate(490.484826 222.299731) scale(0.15 -0.15)">
       <use xlink:href="#DejaVuSans-31"/>
       <use xlink:href="#DejaVuSans-2e" x="63.623047"/>
       <use xlink:href="#DejaVuSans-35" x="95.410156"/>
      </g>
     </g>
    </g>
    <g id="ytick_10">
     <g id="line2d_26">
      <g>
       <use xlink:href="#m25429146b4" x="521.339514" y="185.705552" style="stroke: #000000; stroke-width: 0.8"/>
      </g>
     </g>
     <g id="text_21">
      <!-- 2.0 -->
      <g transform="translate(490.484826 191.40438) scale(0.15 -0.15)">
       <use xlink:href="#DejaVuSans-32"/>
       <use xlink:href="#DejaVuSans-2e" x="63.623047"/>
       <use xlink:href="#DejaVuSans-30" x="95.410156"/>
      </g>
     </g>
    </g>
    <g id="ytick_11">
     <g id="line2d_27">
      <g>
       <use xlink:href="#m25429146b4" x="521.339514" y="154.810201" style="stroke: #000000; stroke-width: 0.8"/>
      </g>
     </g>
     <g id="text_22">
      <!-- 2.5 -->
      <g transform="translate(490.484826 160.509029) scale(0.15 -0.15)">
       <use xlink:href="#DejaVuSans-32"/>
       <use xlink:href="#DejaVuSans-2e" x="63.623047"/>
       <use xlink:href="#DejaVuSans-35" x="95.410156"/>
      </g>
     </g>
    </g>
    <g id="ytick_12">
     <g id="line2d_28">
      <g>
       <use xlink:href="#m25429146b4" x="521.339514" y="123.91485" style="stroke: #000000; stroke-width: 0.8"/>
      </g>
     </g>
     <g id="text_23">
      <!-- 3.0 -->
      <g transform="translate(490.484826 129.613678) scale(0.15 -0.15)">
       <defs>
        <path id="DejaVuSans-33" d="M 2597 2516 
Q 3050 2419 3304 2112 
Q 3559 1806 3559 1356 
Q 3559 666 3084 287 
Q 2609 -91 1734 -91 
Q 1441 -91 1130 -33 
Q 819 25 488 141 
L 488 750 
Q 750 597 1062 519 
Q 1375 441 1716 441 
Q 2309 441 2620 675 
Q 2931 909 2931 1356 
Q 2931 1769 2642 2001 
Q 2353 2234 1838 2234 
L 1294 2234 
L 1294 2753 
L 1863 2753 
Q 2328 2753 2575 2939 
Q 2822 3125 2822 3475 
Q 2822 3834 2567 4026 
Q 2313 4219 1838 4219 
Q 1578 4219 1281 4162 
Q 984 4106 628 3988 
L 628 4550 
Q 988 4650 1302 4700 
Q 1616 4750 1894 4750 
Q 2613 4750 3031 4423 
Q 3450 4097 3450 3541 
Q 3450 3153 3228 2886 
Q 3006 2619 2597 2516 
z
" transform="scale(0.015625)"/>
       </defs>
       <use xlink:href="#DejaVuSans-33"/>
       <use xlink:href="#DejaVuSans-2e" x="63.623047"/>
       <use xlink:href="#DejaVuSans-30" x="95.410156"/>
      </g>
     </g>
    </g>
    <g id="ytick_13">
     <g id="line2d_29">
      <g>
       <use xlink:href="#m25429146b4" x="521.339514" y="93.019499" style="stroke: #000000; stroke-width: 0.8"/>
      </g>
     </g>
     <g id="text_24">
      <!-- 3.5 -->
      <g transform="translate(490.484826 98.718327) scale(0.15 -0.15)">
       <use xlink:href="#DejaVuSans-33"/>
       <use xlink:href="#DejaVuSans-2e" x="63.623047"/>
       <use xlink:href="#DejaVuSans-35" x="95.410156"/>
      </g>
     </g>
    </g>
    <g id="text_25">
     <!-- dapagliflozin -->
     <g transform="translate(462.425014 265.279708) rotate(-90) scale(0.18 -0.18)">
      <use xlink:href="#DejaVuSans-Bold-64"/>
      <use xlink:href="#DejaVuSans-Bold-61" x="71.582031"/>
      <use xlink:href="#DejaVuSans-Bold-70" x="139.0625"/>
      <use xlink:href="#DejaVuSans-Bold-61" x="210.644531"/>
      <use xlink:href="#DejaVuSans-Bold-67" x="278.125"/>
      <use xlink:href="#DejaVuSans-Bold-6c" x="349.707031"/>
      <use xlink:href="#DejaVuSans-Bold-69" x="383.984375"/>
      <use xlink:href="#DejaVuSans-Bold-66" x="418.261719"/>
      <use xlink:href="#DejaVuSans-Bold-6c" x="461.767578"/>
      <use xlink:href="#DejaVuSans-Bold-6f" x="496.044922"/>
      <use xlink:href="#DejaVuSans-Bold-7a" x="564.746094"/>
      <use xlink:href="#DejaVuSans-Bold-69" x="622.949219"/>
      <use xlink:href="#DejaVuSans-Bold-6e" x="657.226562"/>
     </g>
     <!-- urine [µmole] -->
     <g transform="translate(482.721701 268.896583) rotate(-90) scale(0.18 -0.18)">
      <use xlink:href="#DejaVuSans-Bold-75"/>
      <use xlink:href="#DejaVuSans-Bold-72" x="71.191406"/>
      <use xlink:href="#DejaVuSans-Bold-69" x="120.507812"/>
      <use xlink:href="#DejaVuSans-Bold-6e" x="154.785156"/>
      <use xlink:href="#DejaVuSans-Bold-65" x="225.976562"/>
      <use xlink:href="#DejaVuSans-Bold-20" x="293.798828"/>
      <use xlink:href="#DejaVuSans-Bold-5b" x="328.613281"/>
      <use xlink:href="#DejaVuSans-Bold-b5" x="374.316406"/>
      <use xlink:href="#DejaVuSans-Bold-6d" x="447.900391"/>
      <use xlink:href="#DejaVuSans-Bold-6f" x="552.099609"/>
      <use xlink:href="#DejaVuSans-Bold-6c" x="620.800781"/>
      <use xlink:href="#DejaVuSans-Bold-65" x="655.078125"/>
      <use xlink:href="#DejaVuSans-Bold-5d" x="722.900391"/>
     </g>
    </g>
   </g>
   <g id="LineCollection_5">
    <path d="M 536.778249 309.286957 
L 536.778249 309.286957 
" clip-path="url(#pf9a4866b31)" style="fill: none; stroke: #000000"/>
    <path d="M 821.801052 256.393403 
L 821.801052 180.831184 
" clip-path="url(#pf9a4866b31)" style="fill: none; stroke: #000000"/>
   </g>
   <g id="LineCollection_6">
    <path d="M 536.778249 309.286957 
L 536.778249 309.286957 
" clip-path="url(#pf9a4866b31)" style="fill: none; stroke: #000000"/>
    <path d="M 821.801052 263.949625 
L 821.801052 203.49985 
" clip-path="url(#pf9a4866b31)" style="fill: none; stroke: #000000"/>
   </g>
   <g id="LineCollection_7">
    <path d="M 536.778249 309.286957 
L 536.778249 309.286957 
" clip-path="url(#pf9a4866b31)" style="fill: none; stroke: #66c2a4"/>
    <path d="M 821.801052 279.062069 
L 821.801052 127.937631 
" clip-path="url(#pf9a4866b31)" style="fill: none; stroke: #66c2a4"/>
   </g>
   <g id="LineCollection_8">
    <path d="M 536.778249 309.286957 
L 536.778249 309.286957 
" clip-path="url(#pf9a4866b31)" style="fill: none; stroke: #2ca25f"/>
    <path d="M 821.801052 286.618291 
L 821.801052 90.156522 
" clip-path="url(#pf9a4866b31)" style="fill: none; stroke: #2ca25f"/>
   </g>
   <g id="LineCollection_9">
    <path d="M 536.778249 309.286957 
L 536.778249 309.286957 
" clip-path="url(#pf9a4866b31)" style="fill: none; stroke: #006d2c"/>
    <path d="M 821.801052 286.618291 
L 821.801052 256.393403 
" clip-path="url(#pf9a4866b31)" style="fill: none; stroke: #006d2c"/>
   </g>
   <g id="line2d_30">
    <path d="M 536.778249 309.286957 
L 537.395798 309.110792 
L 538.013348 308.001582 
L 538.630897 305.783691 
L 539.865996 299.049483 
L 544.188842 272.0839 
L 546.04149 262.837631 
L 547.276589 257.573115 
L 548.511687 252.956443 
L 549.746786 248.919294 
L 550.981885 245.395681 
L 552.216984 242.324497 
L 554.069632 238.446315 
L 555.92228 235.299431 
L 557.774929 232.74719 
L 559.627577 230.676384 
L 561.480225 228.993943 
L 563.332873 227.623808 
L 565.185521 226.504143 
L 567.655719 225.315774 
L 570.125917 224.392067 
L 573.213664 223.505855 
L 576.91896 222.712126 
L 581.241806 222.021481 
L 587.4173 221.280764 
L 597.298091 220.36347 
L 617.677221 218.75346 
L 670.78647 214.819026 
L 731.923861 210.507707 
L 794.296352 206.333036 
L 845.552952 203.063388 
L 845.552952 203.063388 
" clip-path="url(#pf9a4866b31)" style="fill: none; stroke: #000000; stroke-width: 2; stroke-linecap: square"/>
   </g>
   <g id="line2d_31">
    <path d="M 536.778249 309.286957 
L 821.801052 218.612294 
" clip-path="url(#pf9a4866b31)" style="fill: none; stroke-dasharray: 3.7,1.6; stroke-dashoffset: 0; stroke: #000000"/>
    <g clip-path="url(#pf9a4866b31)">
     <use xlink:href="#m48dd2da870" x="536.778249" y="309.286957" style="stroke: #000000; stroke-linejoin: miter"/>
     <use xlink:href="#m48dd2da870" x="821.801052" y="218.612294" style="stroke: #000000; stroke-linejoin: miter"/>
    </g>
   </g>
   <g id="line2d_32">
    <path d="M 536.778249 309.286957 
L 537.395798 309.091637 
L 538.013348 307.86576 
L 538.630897 305.421648 
L 539.865996 298.029294 
L 543.571292 272.429513 
L 545.42394 261.823065 
L 546.659039 255.776036 
L 547.894138 250.47603 
L 549.129237 245.846226 
L 550.364336 241.810512 
L 551.599435 238.297827 
L 552.834533 235.243575 
L 554.069632 232.589856 
L 555.92228 229.249325 
L 557.774929 226.54649 
L 559.627577 224.358485 
L 561.480225 222.584738 
L 563.332873 221.143373 
L 565.185521 219.968036 
L 567.655719 218.723707 
L 570.125917 217.759358 
L 573.213664 216.837276 
L 576.91896 216.014897 
L 581.241806 215.302814 
L 587.4173 214.54334 
L 596.680541 213.661514 
L 615.824573 212.116391 
L 665.846075 208.34618 
L 725.130818 204.091554 
L 786.268209 199.928344 
L 845.552952 196.097788 
L 845.552952 196.097788 
" clip-path="url(#pf9a4866b31)" style="fill: none; stroke: #000000; stroke-width: 2; stroke-linecap: square"/>
   </g>
   <g id="line2d_33">
    <path d="M 536.778249 309.286957 
L 821.801052 233.724738 
" clip-path="url(#pf9a4866b31)" style="fill: none; stroke-dasharray: 3.7,1.6; stroke-dashoffset: 0; stroke: #000000"/>
    <g clip-path="url(#pf9a4866b31)">
     <use xlink:href="#m48dd2da870" x="536.778249" y="309.286957" style="stroke: #000000; stroke-linejoin: miter"/>
     <use xlink:href="#m48dd2da870" x="821.801052" y="233.724738" style="stroke: #000000; stroke-linejoin: miter"/>
    </g>
   </g>
   <g id="line2d_34">
    <path d="M 536.778249 309.286957 
L 537.395798 309.178458 
L 538.013348 308.487199 
L 538.630897 307.090119 
L 539.248446 305.127363 
L 540.483545 300.228828 
L 543.571292 287.314346 
L 545.42394 280.675697 
L 547.276589 275.06875 
L 549.129237 270.399105 
L 550.981885 266.538263 
L 552.834533 263.360311 
L 554.687182 260.751937 
L 556.53983 258.614645 
L 558.392478 256.864445 
L 560.245126 255.430639 
L 562.097774 254.254295 
L 564.567972 253.003361 
L 567.03817 252.032316 
L 570.125917 251.106645 
L 573.831213 250.289776 
L 578.154059 249.597389 
L 583.712004 248.946884 
L 592.357695 248.193738 
L 608.41398 247.068148 
L 656.582834 243.992828 
L 727.601016 239.665502 
L 800.471846 235.449437 
L 845.552952 232.949806 
L 845.552952 232.949806 
" clip-path="url(#pf9a4866b31)" style="fill: none; stroke: #66c2a4; stroke-width: 2; stroke-linecap: square"/>
   </g>
   <g id="line2d_35">
    <path d="M 536.778249 309.286957 
L 821.801052 203.49985 
" clip-path="url(#pf9a4866b31)" style="fill: none; stroke-dasharray: 3.7,1.6; stroke-dashoffset: 0; stroke: #66c2a4"/>
    <g clip-path="url(#pf9a4866b31)">
     <use xlink:href="#mb6ecabbec2" x="536.778249" y="309.286957" style="fill: #66c2a4; stroke: #000000; stroke-linejoin: miter"/>
     <use xlink:href="#mb6ecabbec2" x="821.801052" y="203.49985" style="fill: #66c2a4; stroke: #000000; stroke-linejoin: miter"/>
    </g>
   </g>
   <g id="line2d_36">
    <path d="M 536.778249 309.286957 
L 537.395798 309.218054 
L 538.013348 308.772294 
L 538.630897 307.858446 
L 539.248446 306.559178 
L 540.483545 303.271381 
L 543.571292 294.439553 
L 545.42394 289.838582 
L 547.276589 285.920228 
L 549.129237 282.628325 
L 550.981885 279.880817 
L 552.834533 277.596307 
L 554.687182 275.701148 
L 556.53983 274.130977 
L 558.392478 272.830546 
L 560.245126 271.752985 
L 562.715324 270.595735 
L 565.185521 269.689439 
L 568.273269 268.820638 
L 571.978565 268.054325 
L 576.301411 267.412803 
L 581.859355 266.828977 
L 589.887498 266.232695 
L 604.091134 265.444782 
L 643.614296 263.559192 
L 732.541411 259.530363 
L 824.556272 255.583357 
L 845.552952 254.713003 
L 845.552952 254.713003 
" clip-path="url(#pf9a4866b31)" style="fill: none; stroke: #2ca25f; stroke-width: 2; stroke-linecap: square"/>
   </g>
   <g id="line2d_37">
    <path d="M 536.778249 309.286957 
L 821.801052 188.387406 
" clip-path="url(#pf9a4866b31)" style="fill: none; stroke-dasharray: 3.7,1.6; stroke-dashoffset: 0; stroke: #2ca25f"/>
    <g clip-path="url(#pf9a4866b31)">
     <use xlink:href="#m58cd25dea3" x="536.778249" y="309.286957" style="fill: #2ca25f; stroke: #000000; stroke-linejoin: miter"/>
     <use xlink:href="#m58cd25dea3" x="821.801052" y="188.387406" style="fill: #2ca25f; stroke: #000000; stroke-linejoin: miter"/>
    </g>
   </g>
   <g id="line2d_38">
    <path d="M 536.778249 309.286957 
L 537.395798 309.246725 
L 538.013348 308.984179 
L 538.630897 308.441438 
L 539.865996 306.72217 
L 545.42394 297.424817 
L 547.276589 294.981463 
L 549.129237 292.91429 
L 550.981885 291.176647 
L 552.834533 289.721277 
L 554.687182 288.504964 
L 557.157379 287.190004 
L 559.627577 286.156716 
L 562.097774 285.34348 
L 565.185521 284.562551 
L 568.890818 283.876558 
L 573.213664 283.310691 
L 578.771608 282.812422 
L 586.799751 282.334722 
L 600.385838 281.783121 
L 637.438802 280.582489 
L 752.920541 277.078742 
L 845.552952 274.415341 
L 845.552952 274.415341 
" clip-path="url(#pf9a4866b31)" style="fill: none; stroke: #006d2c; stroke-width: 2; stroke-linecap: square"/>
   </g>
   <g id="line2d_39">
    <path d="M 536.778249 309.286957 
L 821.801052 271.505847 
" clip-path="url(#pf9a4866b31)" style="fill: none; stroke-dasharray: 3.7,1.6; stroke-dashoffset: 0; stroke: #006d2c"/>
    <g clip-path="url(#pf9a4866b31)">
     <use xlink:href="#mb161b4898a" x="536.778249" y="309.286957" style="fill: #006d2c; stroke: #000000; stroke-linejoin: miter"/>
     <use xlink:href="#mb161b4898a" x="821.801052" y="271.505847" style="fill: #006d2c; stroke: #000000; stroke-linejoin: miter"/>
    </g>
   </g>
   <g id="patch_8">
    <path d="M 521.339514 320.243478 
L 521.339514 79.2 
" style="fill: none; stroke: #000000; stroke-width: 0.8; stroke-linejoin: miter; stroke-linecap: square"/>
   </g>
   <g id="patch_9">
    <path d="M 860.991688 320.243478 
L 860.991688 79.2 
" style="fill: none; stroke: #000000; stroke-width: 0.8; stroke-linejoin: miter; stroke-linecap: square"/>
   </g>
   <g id="patch_10">
    <path d="M 521.339514 320.243478 
L 860.991688 320.243478 
" style="fill: none; stroke: #000000; stroke-width: 0.8; stroke-linejoin: miter; stroke-linecap: square"/>
   </g>
   <g id="patch_11">
    <path d="M 521.339514 79.2 
L 860.991688 79.2 
" style="fill: none; stroke: #000000; stroke-width: 0.8; stroke-linejoin: miter; stroke-linecap: square"/>
   </g>
  </g>
  <g id="axes_3">
   <g id="patch_12">
    <path d="M 79.791687 633.6 
L 419.443861 633.6 
L 419.443861 392.556522 
L 79.791687 392.556522 
z
" style="fill: #ffffff"/>
   </g>
   <g id="matplotlib.axis_5">
    <g id="xtick_9">
     <g id="line2d_40">
      <g>
       <use xlink:href="#mf59ac89a9e" x="95.230423" y="633.6" style="stroke: #000000; stroke-width: 0.8"/>
      </g>
     </g>
     <g id="text_26">
      <!-- 0 -->
      <g transform="translate(90.458548 651.997656) scale(0.15 -0.15)">
       <use xlink:href="#DejaVuSans-30"/>
      </g>
     </g>
    </g>
    <g id="xtick_10">
     <g id="line2d_41">
      <g>
       <use xlink:href="#mf59ac89a9e" x="190.238024" y="633.6" style="stroke: #000000; stroke-width: 0.8"/>
      </g>
     </g>
     <g id="text_27">
      <!-- 20 -->
      <g transform="translate(180.694274 651.997656) scale(0.15 -0.15)">
       <use xlink:href="#DejaVuSans-32"/>
       <use xlink:href="#DejaVuSans-30" x="63.623047"/>
      </g>
     </g>
    </g>
    <g id="xtick_11">
     <g id="line2d_42">
      <g>
       <use xlink:href="#mf59ac89a9e" x="285.245625" y="633.6" style="stroke: #000000; stroke-width: 0.8"/>
      </g>
     </g>
     <g id="text_28">
      <!-- 40 -->
      <g transform="translate(275.701875 651.997656) scale(0.15 -0.15)">
       <use xlink:href="#DejaVuSans-34"/>
       <use xlink:href="#DejaVuSans-30" x="63.623047"/>
      </g>
     </g>
    </g>
    <g id="xtick_12">
     <g id="line2d_43">
      <g>
       <use xlink:href="#mf59ac89a9e" x="380.253226" y="633.6" style="stroke: #000000; stroke-width: 0.8"/>
      </g>
     </g>
     <g id="text_29">
      <!-- 60 -->
      <g transform="translate(370.709476 651.997656) scale(0.15 -0.15)">
       <use xlink:href="#DejaVuSans-36"/>
       <use xlink:href="#DejaVuSans-30" x="63.623047"/>
      </g>
     </g>
    </g>
    <g id="text_30">
     <!-- time [hr] -->
     <g transform="translate(204.543243 672.794375) scale(0.18 -0.18)">
      <use xlink:href="#DejaVuSans-Bold-74"/>
      <use xlink:href="#DejaVuSans-Bold-69" x="47.802734"/>
      <use xlink:href="#DejaVuSans-Bold-6d" x="82.080078"/>
      <use xlink:href="#DejaVuSans-Bold-65" x="186.279297"/>
      <use xlink:href="#DejaVuSans-Bold-20" x="254.101562"/>
      <use xlink:href="#DejaVuSans-Bold-5b" x="288.916016"/>
      <use xlink:href="#DejaVuSans-Bold-68" x="334.619141"/>
      <use xlink:href="#DejaVuSans-Bold-72" x="405.810547"/>
      <use xlink:href="#DejaVuSans-Bold-5d" x="455.126953"/>
     </g>
    </g>
   </g>
   <g id="matplotlib.axis_6">
    <g id="ytick_14">
     <g id="line2d_44">
      <g>
       <use xlink:href="#m25429146b4" x="79.791687" y="622.643478" style="stroke: #000000; stroke-width: 0.8"/>
      </g>
     </g>
     <g id="text_31">
      <!-- 0 -->
      <g transform="translate(63.247937 628.342306) scale(0.15 -0.15)">
       <use xlink:href="#DejaVuSans-30"/>
      </g>
     </g>
    </g>
    <g id="ytick_15">
     <g id="line2d_45">
      <g>
       <use xlink:href="#m25429146b4" x="79.791687" y="589.015119" style="stroke: #000000; stroke-width: 0.8"/>
      </g>
     </g>
     <g id="text_32">
      <!-- 5 -->
      <g transform="translate(63.247937 594.713947) scale(0.15 -0.15)">
       <use xlink:href="#DejaVuSans-35"/>
      </g>
     </g>
    </g>
    <g id="ytick_16">
     <g id="line2d_46">
      <g>
       <use xlink:href="#m25429146b4" x="79.791687" y="555.38676" style="stroke: #000000; stroke-width: 0.8"/>
      </g>
     </g>
     <g id="text_33">
      <!-- 10 -->
      <g transform="translate(53.704187 561.085588) scale(0.15 -0.15)">
       <use xlink:href="#DejaVuSans-31"/>
       <use xlink:href="#DejaVuSans-30" x="63.623047"/>
      </g>
     </g>
    </g>
    <g id="ytick_17">
     <g id="line2d_47">
      <g>
       <use xlink:href="#m25429146b4" x="79.791687" y="521.758401" style="stroke: #000000; stroke-width: 0.8"/>
      </g>
     </g>
     <g id="text_34">
      <!-- 15 -->
      <g transform="translate(53.704187 527.45723) scale(0.15 -0.15)">
       <use xlink:href="#DejaVuSans-31"/>
       <use xlink:href="#DejaVuSans-35" x="63.623047"/>
      </g>
     </g>
    </g>
    <g id="ytick_18">
     <g id="line2d_48">
      <g>
       <use xlink:href="#m25429146b4" x="79.791687" y="488.130042" style="stroke: #000000; stroke-width: 0.8"/>
      </g>
     </g>
     <g id="text_35">
      <!-- 20 -->
      <g transform="translate(53.704187 493.828871) scale(0.15 -0.15)">
       <use xlink:href="#DejaVuSans-32"/>
       <use xlink:href="#DejaVuSans-30" x="63.623047"/>
      </g>
     </g>
    </g>
    <g id="ytick_19">
     <g id="line2d_49">
      <g>
       <use xlink:href="#m25429146b4" x="79.791687" y="454.501683" style="stroke: #000000; stroke-width: 0.8"/>
      </g>
     </g>
     <g id="text_36">
      <!-- 25 -->
      <g transform="translate(53.704187 460.200512) scale(0.15 -0.15)">
       <use xlink:href="#DejaVuSans-32"/>
       <use xlink:href="#DejaVuSans-35" x="63.623047"/>
      </g>
     </g>
    </g>
    <g id="ytick_20">
     <g id="line2d_50">
      <g>
       <use xlink:href="#m25429146b4" x="79.791687" y="420.873325" style="stroke: #000000; stroke-width: 0.8"/>
      </g>
     </g>
     <g id="text_37">
      <!-- 30 -->
      <g transform="translate(53.704187 426.572153) scale(0.15 -0.15)">
       <use xlink:href="#DejaVuSans-33"/>
       <use xlink:href="#DejaVuSans-30" x="63.623047"/>
      </g>
     </g>
    </g>
    <g id="text_38">
     <!-- dapagliflozin-3-O- -->
     <g transform="translate(25.523438 603.923417) rotate(-90) scale(0.18 -0.18)">
      <defs>
       <path id="DejaVuSans-Bold-2d" d="M 347 2297 
L 2309 2297 
L 2309 1388 
L 347 1388 
L 347 2297 
z
" transform="scale(0.015625)"/>
       <path id="DejaVuSans-Bold-33" d="M 2981 2516 
Q 3453 2394 3698 2092 
Q 3944 1791 3944 1325 
Q 3944 631 3412 270 
Q 2881 -91 1863 -91 
Q 1503 -91 1142 -33 
Q 781 25 428 141 
L 428 1069 
Q 766 900 1098 814 
Q 1431 728 1753 728 
Q 2231 728 2486 893 
Q 2741 1059 2741 1369 
Q 2741 1688 2480 1852 
Q 2219 2016 1709 2016 
L 1228 2016 
L 1228 2791 
L 1734 2791 
Q 2188 2791 2409 2933 
Q 2631 3075 2631 3366 
Q 2631 3634 2415 3781 
Q 2200 3928 1806 3928 
Q 1516 3928 1219 3862 
Q 922 3797 628 3669 
L 628 4550 
Q 984 4650 1334 4700 
Q 1684 4750 2022 4750 
Q 2931 4750 3382 4451 
Q 3834 4153 3834 3553 
Q 3834 3144 3618 2883 
Q 3403 2622 2981 2516 
z
" transform="scale(0.015625)"/>
       <path id="DejaVuSans-Bold-4f" d="M 2719 3878 
Q 2169 3878 1866 3472 
Q 1563 3066 1563 2328 
Q 1563 1594 1866 1187 
Q 2169 781 2719 781 
Q 3272 781 3575 1187 
Q 3878 1594 3878 2328 
Q 3878 3066 3575 3472 
Q 3272 3878 2719 3878 
z
M 2719 4750 
Q 3844 4750 4481 4106 
Q 5119 3463 5119 2328 
Q 5119 1197 4481 553 
Q 3844 -91 2719 -91 
Q 1597 -91 958 553 
Q 319 1197 319 2328 
Q 319 3463 958 4106 
Q 1597 4750 2719 4750 
z
" transform="scale(0.015625)"/>
      </defs>
      <use xlink:href="#DejaVuSans-Bold-64"/>
      <use xlink:href="#DejaVuSans-Bold-61" x="71.582031"/>
      <use xlink:href="#DejaVuSans-Bold-70" x="139.0625"/>
      <use xlink:href="#DejaVuSans-Bold-61" x="210.644531"/>
      <use xlink:href="#DejaVuSans-Bold-67" x="278.125"/>
      <use xlink:href="#DejaVuSans-Bold-6c" x="349.707031"/>
      <use xlink:href="#DejaVuSans-Bold-69" x="383.984375"/>
      <use xlink:href="#DejaVuSans-Bold-66" x="418.261719"/>
      <use xlink:href="#DejaVuSans-Bold-6c" x="461.767578"/>
      <use xlink:href="#DejaVuSans-Bold-6f" x="496.044922"/>
      <use xlink:href="#DejaVuSans-Bold-7a" x="564.746094"/>
      <use xlink:href="#DejaVuSans-Bold-69" x="622.949219"/>
      <use xlink:href="#DejaVuSans-Bold-6e" x="657.226562"/>
      <use xlink:href="#DejaVuSans-Bold-2d" x="728.417969"/>
      <use xlink:href="#DejaVuSans-Bold-33" x="769.921875"/>
      <use xlink:href="#DejaVuSans-Bold-2d" x="839.501953"/>
      <use xlink:href="#DejaVuSans-Bold-4f" x="881.005859"/>
      <use xlink:href="#DejaVuSans-Bold-2d" x="967.890625"/>
     </g>
     <!-- glucuronide urine [µmole] -->
     <g transform="translate(45.820125 645.722792) rotate(-90) scale(0.18 -0.18)">
      <defs>
       <path id="DejaVuSans-Bold-63" d="M 3366 3391 
L 3366 2478 
Q 3138 2634 2908 2709 
Q 2678 2784 2431 2784 
Q 1963 2784 1702 2511 
Q 1441 2238 1441 1747 
Q 1441 1256 1702 982 
Q 1963 709 2431 709 
Q 2694 709 2930 787 
Q 3166 866 3366 1019 
L 3366 103 
Q 3103 6 2833 -42 
Q 2563 -91 2291 -91 
Q 1344 -91 809 395 
Q 275 881 275 1747 
Q 275 2613 809 3098 
Q 1344 3584 2291 3584 
Q 2566 3584 2833 3536 
Q 3100 3488 3366 3391 
z
" transform="scale(0.015625)"/>
      </defs>
      <use xlink:href="#DejaVuSans-Bold-67"/>
      <use xlink:href="#DejaVuSans-Bold-6c" x="71.582031"/>
      <use xlink:href="#DejaVuSans-Bold-75" x="105.859375"/>
      <use xlink:href="#DejaVuSans-Bold-63" x="177.050781"/>
      <use xlink:href="#DejaVuSans-Bold-75" x="236.328125"/>
      <use xlink:href="#DejaVuSans-Bold-72" x="307.519531"/>
      <use xlink:href="#DejaVuSans-Bold-6f" x="356.835938"/>
      <use xlink:href="#DejaVuSans-Bold-6e" x="425.537109"/>
      <use xlink:href="#DejaVuSans-Bold-69" x="496.728516"/>
      <use xlink:href="#DejaVuSans-Bold-64" x="531.005859"/>
      <use xlink:href="#DejaVuSans-Bold-65" x="602.587891"/>
      <use xlink:href="#DejaVuSans-Bold-20" x="670.410156"/>
      <use xlink:href="#DejaVuSans-Bold-75" x="705.224609"/>
      <use xlink:href="#DejaVuSans-Bold-72" x="776.416016"/>
      <use xlink:href="#DejaVuSans-Bold-69" x="825.732422"/>
      <use xlink:href="#DejaVuSans-Bold-6e" x="860.009766"/>
      <use xlink:href="#DejaVuSans-Bold-65" x="931.201172"/>
      <use xlink:href="#DejaVuSans-Bold-20" x="999.023438"/>
      <use xlink:href="#DejaVuSans-Bold-5b" x="1033.837891"/>
      <use xlink:href="#DejaVuSans-Bold-b5" x="1079.541016"/>
      <use xlink:href="#DejaVuSans-Bold-6d" x="1153.125"/>
      <use xlink:href="#DejaVuSans-Bold-6f" x="1257.324219"/>
      <use xlink:href="#DejaVuSans-Bold-6c" x="1326.025391"/>
      <use xlink:href="#DejaVuSans-Bold-65" x="1360.302734"/>
      <use xlink:href="#DejaVuSans-Bold-5d" x="1428.125"/>
     </g>
    </g>
   </g>
   <g id="LineCollection_10">
    <path d="M 95.230423 622.643478 
L 95.230423 622.643478 
" clip-path="url(#p4352d4353d)" style="fill: none; stroke: #000000"/>
    <path d="M 209.239544 474.333793 
L 209.239544 403.513043 
" clip-path="url(#p4352d4353d)" style="fill: none; stroke: #000000"/>
   </g>
   <g id="LineCollection_11">
    <path d="M 95.230423 622.643478 
L 95.230423 622.643478 
" clip-path="url(#p4352d4353d)" style="fill: none; stroke: #66c2a4"/>
    <path d="M 209.239544 512.733355 
L 209.239544 416.619481 
" clip-path="url(#p4352d4353d)" style="fill: none; stroke: #66c2a4"/>
   </g>
   <g id="LineCollection_12">
    <path d="M 95.230423 622.643478 
L 95.230423 622.643478 
" clip-path="url(#p4352d4353d)" style="fill: none; stroke: #2ca25f"/>
    <path d="M 209.239544 543.544979 
L 209.239544 471.344605 
" clip-path="url(#p4352d4353d)" style="fill: none; stroke: #2ca25f"/>
   </g>
   <g id="LineCollection_13">
    <path d="M 95.230423 622.643478 
L 95.230423 622.643478 
" clip-path="url(#p4352d4353d)" style="fill: none; stroke: #006d2c"/>
    <path d="M 209.239544 595.740791 
L 209.239544 522.160792 
" clip-path="url(#p4352d4353d)" style="fill: none; stroke: #006d2c"/>
   </g>
   <g id="line2d_51">
    <path d="M 95.230423 622.643478 
L 95.847972 622.606415 
L 96.465521 622.259558 
L 97.083071 621.305544 
L 97.70062 619.589641 
L 98.31817 617.082809 
L 98.935719 613.840156 
L 100.170818 605.573658 
L 102.023466 590.516292 
L 105.728763 559.537584 
L 107.581411 546.044954 
L 109.434059 534.400407 
L 111.286707 524.576857 
L 113.139355 516.412726 
L 114.374454 511.787441 
L 115.609553 507.739443 
L 116.844652 504.204992 
L 118.079751 501.124192 
L 119.31485 498.441922 
L 121.167498 495.057853 
L 123.020146 492.312175 
L 124.872794 490.08217 
L 126.725442 488.266748 
L 128.578091 486.783408 
L 130.430739 485.565288 
L 132.900937 484.262101 
L 135.371134 483.236523 
L 138.458881 482.234599 
L 142.164178 481.312181 
L 146.487023 480.478939 
L 152.662518 479.541128 
L 161.925759 478.386609 
L 181.06979 476.276646 
L 224.915798 471.699097 
L 275.55485 466.6312 
L 326.81145 461.724382 
L 379.30315 456.921519 
L 404.005126 454.73629 
L 404.005126 454.73629 
" clip-path="url(#p4352d4353d)" style="fill: none; stroke: #000000; stroke-width: 2; stroke-linecap: square"/>
   </g>
   <g id="line2d_52">
    <path d="M 95.230423 622.643478 
L 209.239544 438.923418 
" clip-path="url(#p4352d4353d)" style="fill: none; stroke-dasharray: 3.7,1.6; stroke-dashoffset: 0; stroke: #000000"/>
    <g clip-path="url(#p4352d4353d)">
     <use xlink:href="#m48dd2da870" x="95.230423" y="622.643478" style="stroke: #000000; stroke-linejoin: miter"/>
     <use xlink:href="#m48dd2da870" x="209.239544" y="438.923418" style="stroke: #000000; stroke-linejoin: miter"/>
    </g>
   </g>
   <g id="line2d_53">
    <path d="M 95.230423 622.643478 
L 95.847972 622.629929 
L 96.465521 622.493853 
L 97.083071 622.098538 
L 97.70062 621.353699 
L 98.31817 620.218521 
L 98.935719 618.690294 
L 100.170818 614.5596 
L 101.405917 609.276404 
L 103.258565 599.982183 
L 109.434059 567.482339 
L 111.286707 559.046228 
L 113.139355 551.520806 
L 114.992004 544.914839 
L 116.844652 539.187399 
L 118.6973 534.269401 
L 120.549948 530.078161 
L 122.402597 526.526938 
L 124.255245 523.530933 
L 126.107893 521.010826 
L 127.960541 518.894636 
L 129.813189 517.118474 
L 131.665838 515.626584 
L 133.518486 514.370951 
L 135.988684 512.994518 
L 138.458881 511.886407 
L 141.546628 510.784246 
L 145.251925 509.757687 
L 149.574771 508.829804 
L 155.132715 507.892384 
L 163.160857 506.796869 
L 176.746944 505.202609 
L 210.094612 501.568987 
L 263.821411 495.928011 
L 318.783308 490.37907 
L 374.980304 484.927978 
L 404.005126 482.19778 
L 404.005126 482.19778 
" clip-path="url(#p4352d4353d)" style="fill: none; stroke: #66c2a4; stroke-width: 2; stroke-linecap: square"/>
   </g>
   <g id="line2d_54">
    <path d="M 95.230423 622.643478 
L 209.239544 464.676418 
" clip-path="url(#p4352d4353d)" style="fill: none; stroke-dasharray: 3.7,1.6; stroke-dashoffset: 0; stroke: #66c2a4"/>
    <g clip-path="url(#p4352d4353d)">
     <use xlink:href="#mb6ecabbec2" x="95.230423" y="622.643478" style="fill: #66c2a4; stroke: #000000; stroke-linejoin: miter"/>
     <use xlink:href="#mb6ecabbec2" x="209.239544" y="464.676418" style="fill: #66c2a4; stroke: #000000; stroke-linejoin: miter"/>
    </g>
   </g>
   <g id="line2d_55">
    <path d="M 95.230423 622.643478 
L 96.465521 622.568506 
L 97.083071 622.361922 
L 97.70062 621.960831 
L 98.31817 621.333446 
L 98.935719 620.468655 
L 100.170818 618.051518 
L 101.405917 614.832544 
L 102.641016 610.987999 
L 104.493664 604.429372 
L 113.139355 572.12183 
L 115.609553 564.261652 
L 117.462201 558.968213 
L 119.31485 554.192737 
L 121.167498 549.918044 
L 123.020146 546.115908 
L 124.872794 542.751591 
L 126.725442 539.787125 
L 128.578091 537.183634 
L 130.430739 534.902939 
L 132.283387 532.908612 
L 134.136035 531.166621 
L 136.606233 529.182854 
L 139.076431 527.526314 
L 141.546628 526.139952 
L 144.016826 524.975235 
L 147.104573 523.76951 
L 150.809869 522.605749 
L 155.132715 521.531779 
L 160.07311 520.560047 
L 166.248604 519.587225 
L 174.894296 518.474929 
L 188.480383 516.982152 
L 217.505205 514.069045 
L 276.172399 508.416079 
L 339.162438 502.567667 
L 403.387577 496.829157 
L 404.005126 496.775052 
L 404.005126 496.775052 
" clip-path="url(#p4352d4353d)" style="fill: none; stroke: #2ca25f; stroke-width: 2; stroke-linecap: square"/>
   </g>
   <g id="line2d_56">
    <path d="M 95.230423 622.643478 
L 209.239544 507.444792 
" clip-path="url(#p4352d4353d)" style="fill: none; stroke-dasharray: 3.7,1.6; stroke-dashoffset: 0; stroke: #2ca25f"/>
    <g clip-path="url(#p4352d4353d)">
     <use xlink:href="#m58cd25dea3" x="95.230423" y="622.643478" style="fill: #2ca25f; stroke: #000000; stroke-linejoin: miter"/>
     <use xlink:href="#m58cd25dea3" x="209.239544" y="507.444792" style="fill: #2ca25f; stroke: #000000; stroke-linejoin: miter"/>
    </g>
   </g>
   <g id="line2d_57">
    <path d="M 95.230423 622.643478 
L 96.465521 622.6084 
L 97.70062 622.309141 
L 98.31817 621.991474 
L 99.553269 620.970164 
L 100.788367 619.446479 
L 102.023466 617.480231 
L 103.258565 615.149651 
L 105.111213 611.140523 
L 107.581411 605.188996 
L 116.227103 583.675376 
L 119.31485 576.796842 
L 121.785047 571.77088 
L 124.255245 567.186599 
L 126.725442 563.038852 
L 129.19564 559.309558 
L 131.665838 555.972716 
L 134.136035 552.998004 
L 136.606233 550.353284 
L 139.076431 548.006322 
L 141.546628 545.925916 
L 144.634375 543.655569 
L 147.722122 541.703056 
L 150.809869 540.021316 
L 153.897616 538.569033 
L 157.602913 537.079066 
L 161.308209 535.815687 
L 165.631055 534.570751 
L 170.57145 533.38309 
L 176.129395 532.271357 
L 182.922438 531.142128 
L 191.56813 529.946407 
L 202.68402 528.645089 
L 219.357854 526.941262 
L 247.765126 524.294313 
L 303.344573 519.367585 
L 373.745205 513.345661 
L 404.005126 510.823815 
L 404.005126 510.823815 
" clip-path="url(#p4352d4353d)" style="fill: none; stroke: #006d2c; stroke-width: 2; stroke-linecap: square"/>
   </g>
   <g id="line2d_58">
    <path d="M 95.230423 622.643478 
L 209.239544 558.950792 
" clip-path="url(#p4352d4353d)" style="fill: none; stroke-dasharray: 3.7,1.6; stroke-dashoffset: 0; stroke: #006d2c"/>
    <g clip-path="url(#p4352d4353d)">
     <use xlink:href="#mb161b4898a" x="95.230423" y="622.643478" style="fill: #006d2c; stroke: #000000; stroke-linejoin: miter"/>
     <use xlink:href="#mb161b4898a" x="209.239544" y="558.950792" style="fill: #006d2c; stroke: #000000; stroke-linejoin: miter"/>
    </g>
   </g>
   <g id="patch_13">
    <path d="M 79.791687 633.6 
L 79.791687 392.556522 
" style="fill: none; stroke: #000000; stroke-width: 0.8; stroke-linejoin: miter; stroke-linecap: square"/>
   </g>
   <g id="patch_14">
    <path d="M 419.443861 633.6 
L 419.443861 392.556522 
" style="fill: none; stroke: #000000; stroke-width: 0.8; stroke-linejoin: miter; stroke-linecap: square"/>
   </g>
   <g id="patch_15">
    <path d="M 79.791687 633.6 
L 419.443861 633.6 
" style="fill: none; stroke: #000000; stroke-width: 0.8; stroke-linejoin: miter; stroke-linecap: square"/>
   </g>
   <g id="patch_16">
    <path d="M 79.791687 392.556522 
L 419.443861 392.556522 
" style="fill: none; stroke: #000000; stroke-width: 0.8; stroke-linejoin: miter; stroke-linecap: square"/>
   </g>
  </g>
  <g id="axes_4">
   <g id="patch_17">
    <path d="M 521.339514 633.6 
L 860.991688 633.6 
L 860.991688 392.556522 
L 521.339514 392.556522 
z
" style="fill: #ffffff"/>
   </g>
   <g id="matplotlib.axis_7">
    <g id="xtick_13">
     <g id="line2d_59">
      <g>
       <use xlink:href="#mf59ac89a9e" x="536.778249" y="633.6" style="stroke: #000000; stroke-width: 0.8"/>
      </g>
     </g>
     <g id="text_39">
      <!-- 0 -->
      <g transform="translate(532.006374 651.997656) scale(0.15 -0.15)">
       <use xlink:href="#DejaVuSans-30"/>
      </g>
     </g>
    </g>
    <g id="xtick_14">
     <g id="line2d_60">
      <g>
       <use xlink:href="#mf59ac89a9e" x="631.78585" y="633.6" style="stroke: #000000; stroke-width: 0.8"/>
      </g>
     </g>
     <g id="text_40">
      <!-- 20 -->
      <g transform="translate(622.2421 651.997656) scale(0.15 -0.15)">
       <use xlink:href="#DejaVuSans-32"/>
       <use xlink:href="#DejaVuSans-30" x="63.623047"/>
      </g>
     </g>
    </g>
    <g id="xtick_15">
     <g id="line2d_61">
      <g>
       <use xlink:href="#mf59ac89a9e" x="726.793451" y="633.6" style="stroke: #000000; stroke-width: 0.8"/>
      </g>
     </g>
     <g id="text_41">
      <!-- 40 -->
      <g transform="translate(717.249701 651.997656) scale(0.15 -0.15)">
       <use xlink:href="#DejaVuSans-34"/>
       <use xlink:href="#DejaVuSans-30" x="63.623047"/>
      </g>
     </g>
    </g>
    <g id="xtick_16">
     <g id="line2d_62">
      <g>
       <use xlink:href="#mf59ac89a9e" x="821.801052" y="633.6" style="stroke: #000000; stroke-width: 0.8"/>
      </g>
     </g>
     <g id="text_42">
      <!-- 60 -->
      <g transform="translate(812.257302 651.997656) scale(0.15 -0.15)">
       <use xlink:href="#DejaVuSans-36"/>
       <use xlink:href="#DejaVuSans-30" x="63.623047"/>
      </g>
     </g>
    </g>
    <g id="text_43">
     <!-- time [hr] -->
     <g transform="translate(646.091069 672.794375) scale(0.18 -0.18)">
      <use xlink:href="#DejaVuSans-Bold-74"/>
      <use xlink:href="#DejaVuSans-Bold-69" x="47.802734"/>
      <use xlink:href="#DejaVuSans-Bold-6d" x="82.080078"/>
      <use xlink:href="#DejaVuSans-Bold-65" x="186.279297"/>
      <use xlink:href="#DejaVuSans-Bold-20" x="254.101562"/>
      <use xlink:href="#DejaVuSans-Bold-5b" x="288.916016"/>
      <use xlink:href="#DejaVuSans-Bold-68" x="334.619141"/>
      <use xlink:href="#DejaVuSans-Bold-72" x="405.810547"/>
      <use xlink:href="#DejaVuSans-Bold-5d" x="455.126953"/>
     </g>
    </g>
   </g>
   <g id="matplotlib.axis_8">
    <g id="ytick_21">
     <g id="line2d_63">
      <g>
       <use xlink:href="#m25429146b4" x="521.339514" y="622.643478" style="stroke: #000000; stroke-width: 0.8"/>
      </g>
     </g>
     <g id="text_44">
      <!-- 0 -->
      <g transform="translate(504.795764 628.342306) scale(0.15 -0.15)">
       <use xlink:href="#DejaVuSans-30"/>
      </g>
     </g>
    </g>
    <g id="ytick_22">
     <g id="line2d_64">
      <g>
       <use xlink:href="#m25429146b4" x="521.339514" y="565.094071" style="stroke: #000000; stroke-width: 0.8"/>
      </g>
     </g>
     <g id="text_45">
      <!-- 20 -->
      <g transform="translate(495.252014 570.792899) scale(0.15 -0.15)">
       <use xlink:href="#DejaVuSans-32"/>
       <use xlink:href="#DejaVuSans-30" x="63.623047"/>
      </g>
     </g>
    </g>
    <g id="ytick_23">
     <g id="line2d_65">
      <g>
       <use xlink:href="#m25429146b4" x="521.339514" y="507.544664" style="stroke: #000000; stroke-width: 0.8"/>
      </g>
     </g>
     <g id="text_46">
      <!-- 40 -->
      <g transform="translate(495.252014 513.243492) scale(0.15 -0.15)">
       <use xlink:href="#DejaVuSans-34"/>
       <use xlink:href="#DejaVuSans-30" x="63.623047"/>
      </g>
     </g>
    </g>
    <g id="ytick_24">
     <g id="line2d_66">
      <g>
       <use xlink:href="#m25429146b4" x="521.339514" y="449.995257" style="stroke: #000000; stroke-width: 0.8"/>
      </g>
     </g>
     <g id="text_47">
      <!-- 60 -->
      <g transform="translate(495.252014 455.694085) scale(0.15 -0.15)">
       <use xlink:href="#DejaVuSans-36"/>
       <use xlink:href="#DejaVuSans-30" x="63.623047"/>
      </g>
     </g>
    </g>
    <g id="text_48">
     <!-- dapagliflozin-3-O- -->
     <g transform="translate(467.071264 603.923417) rotate(-90) scale(0.18 -0.18)">
      <use xlink:href="#DejaVuSans-Bold-64"/>
      <use xlink:href="#DejaVuSans-Bold-61" x="71.582031"/>
      <use xlink:href="#DejaVuSans-Bold-70" x="139.0625"/>
      <use xlink:href="#DejaVuSans-Bold-61" x="210.644531"/>
      <use xlink:href="#DejaVuSans-Bold-67" x="278.125"/>
      <use xlink:href="#DejaVuSans-Bold-6c" x="349.707031"/>
      <use xlink:href="#DejaVuSans-Bold-69" x="383.984375"/>
      <use xlink:href="#DejaVuSans-Bold-66" x="418.261719"/>
      <use xlink:href="#DejaVuSans-Bold-6c" x="461.767578"/>
      <use xlink:href="#DejaVuSans-Bold-6f" x="496.044922"/>
      <use xlink:href="#DejaVuSans-Bold-7a" x="564.746094"/>
      <use xlink:href="#DejaVuSans-Bold-69" x="622.949219"/>
      <use xlink:href="#DejaVuSans-Bold-6e" x="657.226562"/>
      <use xlink:href="#DejaVuSans-Bold-2d" x="728.417969"/>
      <use xlink:href="#DejaVuSans-Bold-33" x="769.921875"/>
      <use xlink:href="#DejaVuSans-Bold-2d" x="839.501953"/>
      <use xlink:href="#DejaVuSans-Bold-4f" x="881.005859"/>
      <use xlink:href="#DejaVuSans-Bold-2d" x="967.890625"/>
     </g>
     <!-- glucuronide urine [µmole] -->
     <g transform="translate(487.367951 645.722792) rotate(-90) scale(0.18 -0.18)">
      <use xlink:href="#DejaVuSans-Bold-67"/>
      <use xlink:href="#DejaVuSans-Bold-6c" x="71.582031"/>
      <use xlink:href="#DejaVuSans-Bold-75" x="105.859375"/>
      <use xlink:href="#DejaVuSans-Bold-63" x="177.050781"/>
      <use xlink:href="#DejaVuSans-Bold-75" x="236.328125"/>
      <use xlink:href="#DejaVuSans-Bold-72" x="307.519531"/>
      <use xlink:href="#DejaVuSans-Bold-6f" x="356.835938"/>
      <use xlink:href="#DejaVuSans-Bold-6e" x="425.537109"/>
      <use xlink:href="#DejaVuSans-Bold-69" x="496.728516"/>
      <use xlink:href="#DejaVuSans-Bold-64" x="531.005859"/>
      <use xlink:href="#DejaVuSans-Bold-65" x="602.587891"/>
      <use xlink:href="#DejaVuSans-Bold-20" x="670.410156"/>
      <use xlink:href="#DejaVuSans-Bold-75" x="705.224609"/>
      <use xlink:href="#DejaVuSans-Bold-72" x="776.416016"/>
      <use xlink:href="#DejaVuSans-Bold-69" x="825.732422"/>
      <use xlink:href="#DejaVuSans-Bold-6e" x="860.009766"/>
      <use xlink:href="#DejaVuSans-Bold-65" x="931.201172"/>
      <use xlink:href="#DejaVuSans-Bold-20" x="999.023438"/>
      <use xlink:href="#DejaVuSans-Bold-5b" x="1033.837891"/>
      <use xlink:href="#DejaVuSans-Bold-b5" x="1079.541016"/>
      <use xlink:href="#DejaVuSans-Bold-6d" x="1153.125"/>
      <use xlink:href="#DejaVuSans-Bold-6f" x="1257.324219"/>
      <use xlink:href="#DejaVuSans-Bold-6c" x="1326.025391"/>
      <use xlink:href="#DejaVuSans-Bold-65" x="1360.302734"/>
      <use xlink:href="#DejaVuSans-Bold-5d" x="1428.125"/>
     </g>
    </g>
   </g>
   <g id="LineCollection_14">
    <path d="M 536.778249 622.643478 
L 536.778249 622.643478 
" clip-path="url(#p2c19aef91f)" style="fill: none; stroke: #000000"/>
    <path d="M 821.801052 528.203426 
L 821.801052 406.710233 
" clip-path="url(#p2c19aef91f)" style="fill: none; stroke: #000000"/>
   </g>
   <g id="LineCollection_15">
    <path d="M 536.778249 622.643478 
L 536.778249 622.643478 
" clip-path="url(#p2c19aef91f)" style="fill: none; stroke: #000000"/>
    <path d="M 821.801052 570.996574 
L 821.801052 420.974616 
" clip-path="url(#p2c19aef91f)" style="fill: none; stroke: #000000"/>
   </g>
   <g id="LineCollection_16">
    <path d="M 536.778249 622.643478 
L 536.778249 622.643478 
" clip-path="url(#p2c19aef91f)" style="fill: none; stroke: #66c2a4"/>
    <path d="M 821.801052 525.498112 
L 821.801052 403.513043 
" clip-path="url(#p2c19aef91f)" style="fill: none; stroke: #66c2a4"/>
   </g>
   <g id="LineCollection_17">
    <path d="M 536.778249 622.643478 
L 536.778249 622.643478 
" clip-path="url(#p2c19aef91f)" style="fill: none; stroke: #2ca25f"/>
    <path d="M 821.801052 530.662802 
L 821.801052 406.710233 
" clip-path="url(#p2c19aef91f)" style="fill: none; stroke: #2ca25f"/>
   </g>
   <g id="LineCollection_18">
    <path d="M 536.778249 622.643478 
L 536.778249 622.643478 
" clip-path="url(#p2c19aef91f)" style="fill: none; stroke: #006d2c"/>
    <path d="M 821.801052 596.328151 
L 821.801052 557.96188 
" clip-path="url(#p2c19aef91f)" style="fill: none; stroke: #006d2c"/>
   </g>
   <g id="line2d_67">
    <path d="M 536.778249 622.643478 
L 537.395798 622.610402 
L 538.013348 622.296727 
L 538.630897 621.424753 
L 539.248446 619.841769 
L 539.865996 617.509115 
L 540.483545 614.466852 
L 541.718644 606.617003 
L 543.571292 592.048642 
L 547.894138 556.383844 
L 549.746786 543.12068 
L 551.599435 531.608757 
L 553.452083 521.829962 
L 555.304731 513.645135 
L 557.157379 506.864493 
L 559.010027 501.286979 
L 560.862676 496.720892 
L 562.715324 492.993564 
L 564.567972 489.954819 
L 566.42062 487.47704 
L 568.273269 485.453545 
L 570.125917 483.796204 
L 571.978565 482.432866 
L 573.831213 481.304872 
L 576.301411 480.086351 
L 578.771608 479.115304 
L 581.859355 478.151761 
L 585.564652 477.246273 
L 590.505047 476.301571 
L 597.298091 475.263854 
L 608.41398 473.831759 
L 633.115956 470.935551 
L 680.049711 465.663169 
L 729.453664 460.336242 
L 780.092715 455.102225 
L 831.349316 450.027727 
L 845.552952 448.660018 
L 845.552952 448.660018 
" clip-path="url(#p2c19aef91f)" style="fill: none; stroke: #000000; stroke-width: 2; stroke-linecap: square"/>
   </g>
   <g id="line2d_68">
    <path d="M 536.778249 622.643478 
L 821.801052 467.456829 
" clip-path="url(#p2c19aef91f)" style="fill: none; stroke-dasharray: 3.7,1.6; stroke-dashoffset: 0; stroke: #000000"/>
    <g clip-path="url(#p2c19aef91f)">
     <use xlink:href="#m48dd2da870" x="536.778249" y="622.643478" style="stroke: #000000; stroke-linejoin: miter"/>
     <use xlink:href="#m48dd2da870" x="821.801052" y="467.456829" style="stroke: #000000; stroke-linejoin: miter"/>
    </g>
   </g>
   <g id="line2d_69">
    <path d="M 536.778249 622.643478 
L 537.395798 622.603841 
L 538.013348 622.232981 
L 538.630897 621.213216 
L 539.248446 619.379419 
L 539.865996 616.700696 
L 540.483545 613.235945 
L 541.718644 604.403518 
L 543.571292 588.314444 
L 547.276589 555.206378 
L 549.129237 540.783063 
L 550.981885 528.333587 
L 552.834533 517.829673 
L 554.687182 509.09914 
L 555.92228 504.152558 
L 557.157379 499.82311 
L 558.392478 496.042716 
L 559.627577 492.747383 
L 560.862676 489.878208 
L 562.715324 486.258164 
L 564.567972 483.320884 
L 566.42062 480.935164 
L 568.273269 478.992908 
L 570.125917 477.405888 
L 571.978565 476.102594 
L 573.831213 475.025371 
L 576.301411 473.862107 
L 578.771608 472.934562 
L 581.859355 472.012529 
L 585.564652 471.143032 
L 590.505047 470.230874 
L 597.298091 469.22162 
L 609.031529 467.744966 
L 635.586154 464.692065 
L 682.519909 459.519195 
L 731.306312 454.36284 
L 781.327814 449.298819 
L 832.584415 444.333859 
L 845.552952 443.112442 
L 845.552952 443.112442 
" clip-path="url(#p2c19aef91f)" style="fill: none; stroke: #000000; stroke-width: 2; stroke-linecap: square"/>
   </g>
   <g id="line2d_70">
    <path d="M 536.778249 622.643478 
L 821.801052 495.985595 
" clip-path="url(#p2c19aef91f)" style="fill: none; stroke-dasharray: 3.7,1.6; stroke-dashoffset: 0; stroke: #000000"/>
    <g clip-path="url(#p2c19aef91f)">
     <use xlink:href="#m48dd2da870" x="536.778249" y="622.643478" style="stroke: #000000; stroke-linejoin: miter"/>
     <use xlink:href="#m48dd2da870" x="821.801052" y="495.985595" style="stroke: #000000; stroke-linejoin: miter"/>
    </g>
   </g>
   <g id="line2d_71">
    <path d="M 536.778249 622.643478 
L 537.395798 622.628989 
L 538.013348 622.483509 
L 538.630897 622.061021 
L 539.248446 621.265196 
L 539.865996 620.052539 
L 540.483545 618.420199 
L 541.718644 614.008445 
L 542.953743 608.365799 
L 544.806391 598.438467 
L 550.981885 563.714419 
L 552.834533 554.698236 
L 554.687182 546.654388 
L 556.53983 539.592557 
L 558.392478 533.469265 
L 560.245126 528.210883 
L 562.097774 523.729192 
L 563.950423 519.931589 
L 565.803071 516.727509 
L 567.655719 514.032214 
L 569.508367 511.768789 
L 571.361016 509.868953 
L 573.213664 508.273107 
L 575.066312 506.929924 
L 577.53651 505.45745 
L 580.006707 504.271962 
L 583.094454 503.092782 
L 586.182201 502.158602 
L 589.887498 501.261095 
L 594.827893 500.308315 
L 601.620937 499.252333 
L 612.119276 497.873479 
L 634.351055 495.22727 
L 683.137458 489.664612 
L 736.246707 483.830214 
L 789.973506 478.150661 
L 844.935403 472.563468 
L 845.552952 472.501938 
L 845.552952 472.501938 
" clip-path="url(#p2c19aef91f)" style="fill: none; stroke: #66c2a4; stroke-width: 2; stroke-linecap: square"/>
   </g>
   <g id="line2d_72">
    <path d="M 536.778249 622.643478 
L 821.801052 464.505578 
" clip-path="url(#p2c19aef91f)" style="fill: none; stroke-dasharray: 3.7,1.6; stroke-dashoffset: 0; stroke: #66c2a4"/>
    <g clip-path="url(#p2c19aef91f)">
     <use xlink:href="#mb6ecabbec2" x="536.778249" y="622.643478" style="fill: #66c2a4; stroke: #000000; stroke-linejoin: miter"/>
     <use xlink:href="#mb6ecabbec2" x="821.801052" y="464.505578" style="fill: #66c2a4; stroke: #000000; stroke-linejoin: miter"/>
    </g>
   </g>
   <g id="line2d_73">
    <path d="M 536.778249 622.643478 
L 538.013348 622.563325 
L 538.630897 622.34255 
L 539.248446 621.914032 
L 539.865996 621.243887 
L 540.483545 620.320283 
L 541.718644 617.739037 
L 542.953743 614.301611 
L 544.188842 610.196001 
L 546.04149 603.191374 
L 550.364336 585.415987 
L 553.452083 573.222184 
L 555.92228 564.354791 
L 558.392478 556.440935 
L 560.245126 551.153278 
L 562.097774 546.408275 
L 563.950423 542.179179 
L 565.803071 538.430812 
L 567.655719 535.123482 
L 569.508367 532.215784 
L 571.361016 529.666545 
L 573.213664 527.436132 
L 575.066312 525.487277 
L 577.53651 523.267718 
L 580.006707 521.414753 
L 582.476905 519.865024 
L 584.947103 518.564449 
L 588.03485 517.220354 
L 591.122597 516.122045 
L 594.827893 515.048606 
L 599.150739 514.040151 
L 604.708684 513.001691 
L 611.501727 511.971548 
L 621.382518 510.713968 
L 638.673901 508.772689 
L 678.814612 504.541233 
L 738.716905 498.44226 
L 799.854296 492.441084 
L 845.552952 488.097775 
L 845.552952 488.097775 
" clip-path="url(#p2c19aef91f)" style="fill: none; stroke: #2ca25f; stroke-width: 2; stroke-linecap: square"/>
   </g>
   <g id="line2d_74">
    <path d="M 536.778249 622.643478 
L 821.801052 468.686517 
" clip-path="url(#p2c19aef91f)" style="fill: none; stroke-dasharray: 3.7,1.6; stroke-dashoffset: 0; stroke: #2ca25f"/>
    <g clip-path="url(#p2c19aef91f)">
     <use xlink:href="#m58cd25dea3" x="536.778249" y="622.643478" style="fill: #2ca25f; stroke: #000000; stroke-linejoin: miter"/>
     <use xlink:href="#m58cd25dea3" x="821.801052" y="468.686517" style="fill: #2ca25f; stroke: #000000; stroke-linejoin: miter"/>
    </g>
   </g>
   <g id="line2d_75">
    <path d="M 536.778249 622.643478 
L 538.013348 622.605977 
L 539.248446 622.286242 
L 539.865996 621.946955 
L 541.101095 620.856367 
L 542.336193 619.229504 
L 543.571292 617.130123 
L 544.806391 614.64163 
L 546.659039 610.360482 
L 549.129237 604.004291 
L 557.774929 581.021082 
L 560.862676 573.670889 
L 563.332873 568.299845 
L 565.803071 563.400495 
L 568.273269 558.967437 
L 570.743466 554.981422 
L 573.213664 551.414721 
L 575.683861 548.234972 
L 578.154059 545.40786 
L 580.624257 542.898957 
L 583.094454 540.674933 
L 585.564652 538.70431 
L 588.652399 536.553139 
L 591.740146 534.70095 
L 594.827893 533.102377 
L 598.533189 531.463715 
L 602.238486 530.075894 
L 606.561332 528.710451 
L 611.501727 527.410544 
L 617.059672 526.196957 
L 623.852715 524.968313 
L 631.880857 523.757744 
L 642.379197 522.414476 
L 657.200383 520.761419 
L 681.902359 518.26327 
L 729.453664 513.71414 
L 796.149 507.553954 
L 845.552952 503.126314 
L 845.552952 503.126314 
" clip-path="url(#p2c19aef91f)" style="fill: none; stroke: #006d2c; stroke-width: 2; stroke-linecap: square"/>
   </g>
   <g id="line2d_76">
    <path d="M 536.778249 622.643478 
L 821.801052 577.145015 
" clip-path="url(#p2c19aef91f)" style="fill: none; stroke-dasharray: 3.7,1.6; stroke-dashoffset: 0; stroke: #006d2c"/>
    <g clip-path="url(#p2c19aef91f)">
     <use xlink:href="#mb161b4898a" x="536.778249" y="622.643478" style="fill: #006d2c; stroke: #000000; stroke-linejoin: miter"/>
     <use xlink:href="#mb161b4898a" x="821.801052" y="577.145015" style="fill: #006d2c; stroke: #000000; stroke-linejoin: miter"/>
    </g>
   </g>
   <g id="patch_18">
    <path d="M 521.339514 633.6 
L 521.339514 392.556522 
" style="fill: none; stroke: #000000; stroke-width: 0.8; stroke-linejoin: miter; stroke-linecap: square"/>
   </g>
   <g id="patch_19">
    <path d="M 860.991688 633.6 
L 860.991688 392.556522 
" style="fill: none; stroke: #000000; stroke-width: 0.8; stroke-linejoin: miter; stroke-linecap: square"/>
   </g>
   <g id="patch_20">
    <path d="M 521.339514 633.6 
L 860.991688 633.6 
" style="fill: none; stroke: #000000; stroke-width: 0.8; stroke-linejoin: miter; stroke-linecap: square"/>
   </g>
   <g id="patch_21">
    <path d="M 521.339514 392.556522 
L 860.991688 392.556522 
" style="fill: none; stroke: #000000; stroke-width: 0.8; stroke-linejoin: miter; stroke-linecap: square"/>
   </g>
  </g>
  <g id="text_49">
   <!-- Kasichayanula2013 -->
   <g transform="translate(321.701844 26.196094) scale(0.25 -0.25)">
    <defs>
     <path id="DejaVuSans-Bold-4b" d="M 588 4666 
L 1791 4666 
L 1791 2963 
L 3525 4666 
L 4922 4666 
L 2675 2456 
L 5153 0 
L 3647 0 
L 1791 1838 
L 1791 0 
L 588 0 
L 588 4666 
z
" transform="scale(0.015625)"/>
     <path id="DejaVuSans-Bold-73" d="M 3272 3391 
L 3272 2541 
Q 2913 2691 2578 2766 
Q 2244 2841 1947 2841 
Q 1628 2841 1473 2761 
Q 1319 2681 1319 2516 
Q 1319 2381 1436 2309 
Q 1553 2238 1856 2203 
L 2053 2175 
Q 2913 2066 3209 1816 
Q 3506 1566 3506 1031 
Q 3506 472 3093 190 
Q 2681 -91 1863 -91 
Q 1516 -91 1145 -36 
Q 775 19 384 128 
L 384 978 
Q 719 816 1070 734 
Q 1422 653 1784 653 
Q 2113 653 2278 743 
Q 2444 834 2444 1013 
Q 2444 1163 2330 1236 
Q 2216 1309 1875 1350 
L 1678 1375 
Q 931 1469 631 1722 
Q 331 1975 331 2491 
Q 331 3047 712 3315 
Q 1094 3584 1881 3584 
Q 2191 3584 2531 3537 
Q 2872 3491 3272 3391 
z
" transform="scale(0.015625)"/>
     <path id="DejaVuSans-Bold-79" d="M 78 3500 
L 1197 3500 
L 2138 1125 
L 2938 3500 
L 4056 3500 
L 2584 -331 
Q 2363 -916 2067 -1148 
Q 1772 -1381 1288 -1381 
L 641 -1381 
L 641 -647 
L 991 -647 
Q 1275 -647 1404 -556 
Q 1534 -466 1606 -231 
L 1638 -134 
L 78 3500 
z
" transform="scale(0.015625)"/>
     <path id="DejaVuSans-Bold-32" d="M 1844 884 
L 3897 884 
L 3897 0 
L 506 0 
L 506 884 
L 2209 2388 
Q 2438 2594 2547 2791 
Q 2656 2988 2656 3200 
Q 2656 3528 2436 3728 
Q 2216 3928 1850 3928 
Q 1569 3928 1234 3808 
Q 900 3688 519 3450 
L 519 4475 
Q 925 4609 1322 4679 
Q 1719 4750 2100 4750 
Q 2938 4750 3402 4381 
Q 3866 4013 3866 3353 
Q 3866 2972 3669 2642 
Q 3472 2313 2841 1759 
L 1844 884 
z
" transform="scale(0.015625)"/>
     <path id="DejaVuSans-Bold-30" d="M 2944 2338 
Q 2944 3213 2780 3570 
Q 2616 3928 2228 3928 
Q 1841 3928 1675 3570 
Q 1509 3213 1509 2338 
Q 1509 1453 1675 1090 
Q 1841 728 2228 728 
Q 2613 728 2778 1090 
Q 2944 1453 2944 2338 
z
M 4147 2328 
Q 4147 1169 3647 539 
Q 3147 -91 2228 -91 
Q 1306 -91 806 539 
Q 306 1169 306 2328 
Q 306 3491 806 4120 
Q 1306 4750 2228 4750 
Q 3147 4750 3647 4120 
Q 4147 3491 4147 2328 
z
" transform="scale(0.015625)"/>
     <path id="DejaVuSans-Bold-31" d="M 750 831 
L 1813 831 
L 1813 3847 
L 722 3622 
L 722 4441 
L 1806 4666 
L 2950 4666 
L 2950 831 
L 4013 831 
L 4013 0 
L 750 0 
L 750 831 
z
" transform="scale(0.015625)"/>
    </defs>
    <use xlink:href="#DejaVuSans-Bold-4b"/>
    <use xlink:href="#DejaVuSans-Bold-61" x="77.490234"/>
    <use xlink:href="#DejaVuSans-Bold-73" x="144.970703"/>
    <use xlink:href="#DejaVuSans-Bold-69" x="204.492188"/>
    <use xlink:href="#DejaVuSans-Bold-63" x="238.769531"/>
    <use xlink:href="#DejaVuSans-Bold-68" x="298.046875"/>
    <use xlink:href="#DejaVuSans-Bold-61" x="369.238281"/>
    <use xlink:href="#DejaVuSans-Bold-79" x="433.59375"/>
    <use xlink:href="#DejaVuSans-Bold-61" x="498.779297"/>
    <use xlink:href="#DejaVuSans-Bold-6e" x="566.259766"/>
    <use xlink:href="#DejaVuSans-Bold-75" x="637.451172"/>
    <use xlink:href="#DejaVuSans-Bold-6c" x="708.642578"/>
    <use xlink:href="#DejaVuSans-Bold-61" x="742.919922"/>
    <use xlink:href="#DejaVuSans-Bold-32" x="810.400391"/>
    <use xlink:href="#DejaVuSans-Bold-30" x="879.980469"/>
    <use xlink:href="#DejaVuSans-Bold-31" x="949.560547"/>
    <use xlink:href="#DejaVuSans-Bold-33" x="1019.140625"/>
   </g>
  </g>
 </g>
 <defs>
  <clipPath id="p227e320fe9">
   <rect x="79.791687" y="79.2" width="339.652174" height="241.043478"/>
  </clipPath>
  <clipPath id="pf9a4866b31">
   <rect x="521.339514" y="79.2" width="339.652174" height="241.043478"/>
  </clipPath>
  <clipPath id="p4352d4353d">
   <rect x="79.791687" y="392.556522" width="339.652174" height="241.043478"/>
  </clipPath>
  <clipPath id="p2c19aef91f">
   <rect x="521.339514" y="392.556522" width="339.652174" height="241.043478"/>
  </clipPath>
 </defs>
</svg>
