<?xml version="1.0" encoding="utf-8" standalone="no"?>
<!DOCTYPE svg PUBLIC "-//W3C//DTD SVG 1.1//EN"
  "http://www.w3.org/Graphics/SVG/1.1/DTD/svg11.dtd">
<svg xmlns:xlink="http://www.w3.org/1999/xlink" width="863.545438pt" height="683.737812pt" viewBox="0 0 863.545438 683.737812" xmlns="http://www.w3.org/2000/svg" version="1.1">
 <metadata>
  <rdf:RDF xmlns:dc="http://purl.org/dc/elements/1.1/" xmlns:cc="http://creativecommons.org/ns#" xmlns:rdf="http://www.w3.org/1999/02/22-rdf-syntax-ns#">
   <cc:Work>
    <dc:type rdf:resource="http://purl.org/dc/dcmitype/StillImage"/>
    <dc:date>2025-03-19T16:41:26.020927</dc:date>
    <dc:format>image/svg+xml</dc:format>
    <dc:creator>
     <cc:Agent>
      <dc:title>Matplotlib v3.9.1, https://matplotlib.org/</dc:title>
     </cc:Agent>
    </dc:creator>
   </cc:Work>
  </rdf:RDF>
 </metadata>
 <defs>
  <style type="text/css">*{stroke-linejoin: round; stroke-linecap: butt}</style>
 </defs>
 <g id="figure_1">
  <g id="patch_1">
   <path d="M 0 683.737812 
L 863.545438 683.737812 
L 863.545438 0 
L 0 0 
z
" style="fill: #ffffff"/>
  </g>
  <g id="axes_1">
   <g id="patch_2">
    <path d="M 75.145438 320.243478 
L 414.797611 320.243478 
L 414.797611 79.2 
L 75.145438 79.2 
z
" style="fill: #ffffff"/>
   </g>
   <g id="matplotlib.axis_1">
    <g id="xtick_1">
     <g id="line2d_1">
      <defs>
       <path id="ma3db90be9b" d="M 0 0 
L 0 3.5 
" style="stroke: #000000; stroke-width: 0.8"/>
      </defs>
      <g>
       <use xlink:href="#ma3db90be9b" x="90.584173" y="320.243478" style="stroke: #000000; stroke-width: 0.8"/>
      </g>
     </g>
     <g id="text_1">
      <!-- 0 -->
      <g transform="translate(85.812298 338.641135) scale(0.15 -0.15)">
       <defs>
        <path id="DejaVuSans-30" d="M 2034 4250 
Q 1547 4250 1301 3770 
Q 1056 3291 1056 2328 
Q 1056 1369 1301 889 
Q 1547 409 2034 409 
Q 2525 409 2770 889 
Q 3016 1369 3016 2328 
Q 3016 3291 2770 3770 
Q 2525 4250 2034 4250 
z
M 2034 4750 
Q 2819 4750 3233 4129 
Q 3647 3509 3647 2328 
Q 3647 1150 3233 529 
Q 2819 -91 2034 -91 
Q 1250 -91 836 529 
Q 422 1150 422 2328 
Q 422 3509 836 4129 
Q 1250 4750 2034 4750 
z
" transform="scale(0.015625)"/>
       </defs>
       <use xlink:href="#DejaVuSans-30"/>
      </g>
     </g>
    </g>
    <g id="xtick_2">
     <g id="line2d_2">
      <g>
       <use xlink:href="#ma3db90be9b" x="185.591774" y="320.243478" style="stroke: #000000; stroke-width: 0.8"/>
      </g>
     </g>
     <g id="text_2">
      <!-- 20 -->
      <g transform="translate(176.048024 338.641135) scale(0.15 -0.15)">
       <defs>
        <path id="DejaVuSans-32" d="M 1228 531 
L 3431 531 
L 3431 0 
L 469 0 
L 469 531 
Q 828 903 1448 1529 
Q 2069 2156 2228 2338 
Q 2531 2678 2651 2914 
Q 2772 3150 2772 3378 
Q 2772 3750 2511 3984 
Q 2250 4219 1831 4219 
Q 1534 4219 1204 4116 
Q 875 4013 500 3803 
L 500 4441 
Q 881 4594 1212 4672 
Q 1544 4750 1819 4750 
Q 2544 4750 2975 4387 
Q 3406 4025 3406 3419 
Q 3406 3131 3298 2873 
Q 3191 2616 2906 2266 
Q 2828 2175 2409 1742 
Q 1991 1309 1228 531 
z
" transform="scale(0.015625)"/>
       </defs>
       <use xlink:href="#DejaVuSans-32"/>
       <use xlink:href="#DejaVuSans-30" x="63.623047"/>
      </g>
     </g>
    </g>
    <g id="xtick_3">
     <g id="line2d_3">
      <g>
       <use xlink:href="#ma3db90be9b" x="280.599375" y="320.243478" style="stroke: #000000; stroke-width: 0.8"/>
      </g>
     </g>
     <g id="text_3">
      <!-- 40 -->
      <g transform="translate(271.055625 338.641135) scale(0.15 -0.15)">
       <defs>
        <path id="DejaVuSans-34" d="M 2419 4116 
L 825 1625 
L 2419 1625 
L 2419 4116 
z
M 2253 4666 
L 3047 4666 
L 3047 1625 
L 3713 1625 
L 3713 1100 
L 3047 1100 
L 3047 0 
L 2419 0 
L 2419 1100 
L 313 1100 
L 313 1709 
L 2253 4666 
z
" transform="scale(0.015625)"/>
       </defs>
       <use xlink:href="#DejaVuSans-34"/>
       <use xlink:href="#DejaVuSans-30" x="63.623047"/>
      </g>
     </g>
    </g>
    <g id="xtick_4">
     <g id="line2d_4">
      <g>
       <use xlink:href="#ma3db90be9b" x="375.606976" y="320.243478" style="stroke: #000000; stroke-width: 0.8"/>
      </g>
     </g>
     <g id="text_4">
      <!-- 60 -->
      <g transform="translate(366.063226 338.641135) scale(0.15 -0.15)">
       <defs>
        <path id="DejaVuSans-36" d="M 2113 2584 
Q 1688 2584 1439 2293 
Q 1191 2003 1191 1497 
Q 1191 994 1439 701 
Q 1688 409 2113 409 
Q 2538 409 2786 701 
Q 3034 994 3034 1497 
Q 3034 2003 2786 2293 
Q 2538 2584 2113 2584 
z
M 3366 4563 
L 3366 3988 
Q 3128 4100 2886 4159 
Q 2644 4219 2406 4219 
Q 1781 4219 1451 3797 
Q 1122 3375 1075 2522 
Q 1259 2794 1537 2939 
Q 1816 3084 2150 3084 
Q 2853 3084 3261 2657 
Q 3669 2231 3669 1497 
Q 3669 778 3244 343 
Q 2819 -91 2113 -91 
Q 1303 -91 875 529 
Q 447 1150 447 2328 
Q 447 3434 972 4092 
Q 1497 4750 2381 4750 
Q 2619 4750 2861 4703 
Q 3103 4656 3366 4563 
z
" transform="scale(0.015625)"/>
       </defs>
       <use xlink:href="#DejaVuSans-36"/>
       <use xlink:href="#DejaVuSans-30" x="63.623047"/>
      </g>
     </g>
    </g>
    <g id="text_5">
     <!-- time [hr] -->
     <g transform="translate(199.896993 359.437853) scale(0.18 -0.18)">
      <defs>
       <path id="DejaVuSans-Bold-74" d="M 1759 4494 
L 1759 3500 
L 2913 3500 
L 2913 2700 
L 1759 2700 
L 1759 1216 
Q 1759 972 1856 886 
Q 1953 800 2241 800 
L 2816 800 
L 2816 0 
L 1856 0 
Q 1194 0 917 276 
Q 641 553 641 1216 
L 641 2700 
L 84 2700 
L 84 3500 
L 641 3500 
L 641 4494 
L 1759 4494 
z
" transform="scale(0.015625)"/>
       <path id="DejaVuSans-Bold-69" d="M 538 3500 
L 1656 3500 
L 1656 0 
L 538 0 
L 538 3500 
z
M 538 4863 
L 1656 4863 
L 1656 3950 
L 538 3950 
L 538 4863 
z
" transform="scale(0.015625)"/>
       <path id="DejaVuSans-Bold-6d" d="M 3781 2919 
Q 3994 3244 4286 3414 
Q 4578 3584 4928 3584 
Q 5531 3584 5847 3212 
Q 6163 2841 6163 2131 
L 6163 0 
L 5038 0 
L 5038 1825 
Q 5041 1866 5042 1909 
Q 5044 1953 5044 2034 
Q 5044 2406 4934 2573 
Q 4825 2741 4581 2741 
Q 4263 2741 4089 2478 
Q 3916 2216 3909 1719 
L 3909 0 
L 2784 0 
L 2784 1825 
Q 2784 2406 2684 2573 
Q 2584 2741 2328 2741 
Q 2006 2741 1831 2477 
Q 1656 2213 1656 1722 
L 1656 0 
L 531 0 
L 531 3500 
L 1656 3500 
L 1656 2988 
Q 1863 3284 2130 3434 
Q 2397 3584 2719 3584 
Q 3081 3584 3359 3409 
Q 3638 3234 3781 2919 
z
" transform="scale(0.015625)"/>
       <path id="DejaVuSans-Bold-65" d="M 4031 1759 
L 4031 1441 
L 1416 1441 
Q 1456 1047 1700 850 
Q 1944 653 2381 653 
Q 2734 653 3104 758 
Q 3475 863 3866 1075 
L 3866 213 
Q 3469 63 3072 -14 
Q 2675 -91 2278 -91 
Q 1328 -91 801 392 
Q 275 875 275 1747 
Q 275 2603 792 3093 
Q 1309 3584 2216 3584 
Q 3041 3584 3536 3087 
Q 4031 2591 4031 1759 
z
M 2881 2131 
Q 2881 2450 2695 2645 
Q 2509 2841 2209 2841 
Q 1884 2841 1681 2658 
Q 1478 2475 1428 2131 
L 2881 2131 
z
" transform="scale(0.015625)"/>
       <path id="DejaVuSans-Bold-20" transform="scale(0.015625)"/>
       <path id="DejaVuSans-Bold-5b" d="M 550 4863 
L 2491 4863 
L 2491 4159 
L 1613 4159 
L 1613 -141 
L 2491 -141 
L 2491 -844 
L 550 -844 
L 550 4863 
z
" transform="scale(0.015625)"/>
       <path id="DejaVuSans-Bold-68" d="M 4056 2131 
L 4056 0 
L 2931 0 
L 2931 347 
L 2931 1625 
Q 2931 2084 2911 2256 
Q 2891 2428 2841 2509 
Q 2775 2619 2662 2680 
Q 2550 2741 2406 2741 
Q 2056 2741 1856 2470 
Q 1656 2200 1656 1722 
L 1656 0 
L 538 0 
L 538 4863 
L 1656 4863 
L 1656 2988 
Q 1909 3294 2193 3439 
Q 2478 3584 2822 3584 
Q 3428 3584 3742 3212 
Q 4056 2841 4056 2131 
z
" transform="scale(0.015625)"/>
       <path id="DejaVuSans-Bold-72" d="M 3138 2547 
Q 2991 2616 2845 2648 
Q 2700 2681 2553 2681 
Q 2122 2681 1889 2404 
Q 1656 2128 1656 1613 
L 1656 0 
L 538 0 
L 538 3500 
L 1656 3500 
L 1656 2925 
Q 1872 3269 2151 3426 
Q 2431 3584 2822 3584 
Q 2878 3584 2943 3579 
Q 3009 3575 3134 3559 
L 3138 2547 
z
" transform="scale(0.015625)"/>
       <path id="DejaVuSans-Bold-5d" d="M 2375 -844 
L 434 -844 
L 434 -141 
L 1313 -141 
L 1313 4159 
L 434 4159 
L 434 4863 
L 2375 4863 
L 2375 -844 
z
" transform="scale(0.015625)"/>
      </defs>
      <use xlink:href="#DejaVuSans-Bold-74"/>
      <use xlink:href="#DejaVuSans-Bold-69" x="47.802734"/>
      <use xlink:href="#DejaVuSans-Bold-6d" x="82.080078"/>
      <use xlink:href="#DejaVuSans-Bold-65" x="186.279297"/>
      <use xlink:href="#DejaVuSans-Bold-20" x="254.101562"/>
      <use xlink:href="#DejaVuSans-Bold-5b" x="288.916016"/>
      <use xlink:href="#DejaVuSans-Bold-68" x="334.619141"/>
      <use xlink:href="#DejaVuSans-Bold-72" x="405.810547"/>
      <use xlink:href="#DejaVuSans-Bold-5d" x="455.126953"/>
     </g>
    </g>
   </g>
   <g id="matplotlib.axis_2">
    <g id="ytick_1">
     <g id="line2d_5">
      <defs>
       <path id="mdd4b65abbc" d="M 0 0 
L -3.5 0 
" style="stroke: #000000; stroke-width: 0.8"/>
      </defs>
      <g>
       <use xlink:href="#mdd4b65abbc" x="75.145438" y="299.326482" style="stroke: #000000; stroke-width: 0.8"/>
      </g>
     </g>
     <g id="text_6">
      <!-- 0.0 -->
      <g transform="translate(44.29075 305.02531) scale(0.15 -0.15)">
       <defs>
        <path id="DejaVuSans-2e" d="M 684 794 
L 1344 794 
L 1344 0 
L 684 0 
L 684 794 
z
" transform="scale(0.015625)"/>
       </defs>
       <use xlink:href="#DejaVuSans-30"/>
       <use xlink:href="#DejaVuSans-2e" x="63.623047"/>
       <use xlink:href="#DejaVuSans-30" x="95.410156"/>
      </g>
     </g>
    </g>
    <g id="ytick_2">
     <g id="line2d_6">
      <g>
       <use xlink:href="#mdd4b65abbc" x="75.145438" y="248.41937" style="stroke: #000000; stroke-width: 0.8"/>
      </g>
     </g>
     <g id="text_7">
      <!-- 0.5 -->
      <g transform="translate(44.29075 254.118198) scale(0.15 -0.15)">
       <defs>
        <path id="DejaVuSans-35" d="M 691 4666 
L 3169 4666 
L 3169 4134 
L 1269 4134 
L 1269 2991 
Q 1406 3038 1543 3061 
Q 1681 3084 1819 3084 
Q 2600 3084 3056 2656 
Q 3513 2228 3513 1497 
Q 3513 744 3044 326 
Q 2575 -91 1722 -91 
Q 1428 -91 1123 -41 
Q 819 9 494 109 
L 494 744 
Q 775 591 1075 516 
Q 1375 441 1709 441 
Q 2250 441 2565 725 
Q 2881 1009 2881 1497 
Q 2881 1984 2565 2268 
Q 2250 2553 1709 2553 
Q 1456 2553 1204 2497 
Q 953 2441 691 2322 
L 691 4666 
z
" transform="scale(0.015625)"/>
       </defs>
       <use xlink:href="#DejaVuSans-30"/>
       <use xlink:href="#DejaVuSans-2e" x="63.623047"/>
       <use xlink:href="#DejaVuSans-35" x="95.410156"/>
      </g>
     </g>
    </g>
    <g id="ytick_3">
     <g id="line2d_7">
      <g>
       <use xlink:href="#mdd4b65abbc" x="75.145438" y="197.512257" style="stroke: #000000; stroke-width: 0.8"/>
      </g>
     </g>
     <g id="text_8">
      <!-- 1.0 -->
      <g transform="translate(44.29075 203.211085) scale(0.15 -0.15)">
       <defs>
        <path id="DejaVuSans-31" d="M 794 531 
L 1825 531 
L 1825 4091 
L 703 3866 
L 703 4441 
L 1819 4666 
L 2450 4666 
L 2450 531 
L 3481 531 
L 3481 0 
L 794 0 
L 794 531 
z
" transform="scale(0.015625)"/>
       </defs>
       <use xlink:href="#DejaVuSans-31"/>
       <use xlink:href="#DejaVuSans-2e" x="63.623047"/>
       <use xlink:href="#DejaVuSans-30" x="95.410156"/>
      </g>
     </g>
    </g>
    <g id="ytick_4">
     <g id="line2d_8">
      <g>
       <use xlink:href="#mdd4b65abbc" x="75.145438" y="146.605144" style="stroke: #000000; stroke-width: 0.8"/>
      </g>
     </g>
     <g id="text_9">
      <!-- 1.5 -->
      <g transform="translate(44.29075 152.303972) scale(0.15 -0.15)">
       <use xlink:href="#DejaVuSans-31"/>
       <use xlink:href="#DejaVuSans-2e" x="63.623047"/>
       <use xlink:href="#DejaVuSans-35" x="95.410156"/>
      </g>
     </g>
    </g>
    <g id="ytick_5">
     <g id="line2d_9">
      <g>
       <use xlink:href="#mdd4b65abbc" x="75.145438" y="95.698032" style="stroke: #000000; stroke-width: 0.8"/>
      </g>
     </g>
     <g id="text_10">
      <!-- 2.0 -->
      <g transform="translate(44.29075 101.39686) scale(0.15 -0.15)">
       <use xlink:href="#DejaVuSans-32"/>
       <use xlink:href="#DejaVuSans-2e" x="63.623047"/>
       <use xlink:href="#DejaVuSans-30" x="95.410156"/>
      </g>
     </g>
    </g>
    <g id="text_11">
     <!-- dapagliflozin plasma urine [µmole] -->
     <g transform="translate(36.406688 377.13002) rotate(-90) scale(0.18 -0.18)">
      <defs>
       <path id="DejaVuSans-Bold-64" d="M 2919 2988 
L 2919 4863 
L 4044 4863 
L 4044 0 
L 2919 0 
L 2919 506 
Q 2688 197 2409 53 
Q 2131 -91 1766 -91 
Q 1119 -91 703 423 
Q 288 938 288 1747 
Q 288 2556 703 3070 
Q 1119 3584 1766 3584 
Q 2128 3584 2408 3439 
Q 2688 3294 2919 2988 
z
M 2181 722 
Q 2541 722 2730 984 
Q 2919 1247 2919 1747 
Q 2919 2247 2730 2509 
Q 2541 2772 2181 2772 
Q 1825 2772 1636 2509 
Q 1447 2247 1447 1747 
Q 1447 1247 1636 984 
Q 1825 722 2181 722 
z
" transform="scale(0.015625)"/>
       <path id="DejaVuSans-Bold-61" d="M 2106 1575 
Q 1756 1575 1579 1456 
Q 1403 1338 1403 1106 
Q 1403 894 1545 773 
Q 1688 653 1941 653 
Q 2256 653 2472 879 
Q 2688 1106 2688 1447 
L 2688 1575 
L 2106 1575 
z
M 3816 1997 
L 3816 0 
L 2688 0 
L 2688 519 
Q 2463 200 2181 54 
Q 1900 -91 1497 -91 
Q 953 -91 614 226 
Q 275 544 275 1050 
Q 275 1666 698 1953 
Q 1122 2241 2028 2241 
L 2688 2241 
L 2688 2328 
Q 2688 2594 2478 2717 
Q 2269 2841 1825 2841 
Q 1466 2841 1156 2769 
Q 847 2697 581 2553 
L 581 3406 
Q 941 3494 1303 3539 
Q 1666 3584 2028 3584 
Q 2975 3584 3395 3211 
Q 3816 2838 3816 1997 
z
" transform="scale(0.015625)"/>
       <path id="DejaVuSans-Bold-70" d="M 1656 506 
L 1656 -1331 
L 538 -1331 
L 538 3500 
L 1656 3500 
L 1656 2988 
Q 1888 3294 2169 3439 
Q 2450 3584 2816 3584 
Q 3463 3584 3878 3070 
Q 4294 2556 4294 1747 
Q 4294 938 3878 423 
Q 3463 -91 2816 -91 
Q 2450 -91 2169 54 
Q 1888 200 1656 506 
z
M 2400 2772 
Q 2041 2772 1848 2508 
Q 1656 2244 1656 1747 
Q 1656 1250 1848 986 
Q 2041 722 2400 722 
Q 2759 722 2948 984 
Q 3138 1247 3138 1747 
Q 3138 2247 2948 2509 
Q 2759 2772 2400 2772 
z
" transform="scale(0.015625)"/>
       <path id="DejaVuSans-Bold-67" d="M 2919 594 
Q 2688 288 2409 144 
Q 2131 0 1766 0 
Q 1125 0 706 504 
Q 288 1009 288 1791 
Q 288 2575 706 3076 
Q 1125 3578 1766 3578 
Q 2131 3578 2409 3434 
Q 2688 3291 2919 2981 
L 2919 3500 
L 4044 3500 
L 4044 353 
Q 4044 -491 3511 -936 
Q 2978 -1381 1966 -1381 
Q 1638 -1381 1331 -1331 
Q 1025 -1281 716 -1178 
L 716 -306 
Q 1009 -475 1290 -558 
Q 1572 -641 1856 -641 
Q 2406 -641 2662 -400 
Q 2919 -159 2919 353 
L 2919 594 
z
M 2181 2772 
Q 1834 2772 1640 2515 
Q 1447 2259 1447 1791 
Q 1447 1309 1634 1061 
Q 1822 813 2181 813 
Q 2531 813 2725 1069 
Q 2919 1325 2919 1791 
Q 2919 2259 2725 2515 
Q 2531 2772 2181 2772 
z
" transform="scale(0.015625)"/>
       <path id="DejaVuSans-Bold-6c" d="M 538 4863 
L 1656 4863 
L 1656 0 
L 538 0 
L 538 4863 
z
" transform="scale(0.015625)"/>
       <path id="DejaVuSans-Bold-66" d="M 2841 4863 
L 2841 4128 
L 2222 4128 
Q 1984 4128 1890 4042 
Q 1797 3956 1797 3744 
L 1797 3500 
L 2753 3500 
L 2753 2700 
L 1797 2700 
L 1797 0 
L 678 0 
L 678 2700 
L 122 2700 
L 122 3500 
L 678 3500 
L 678 3744 
Q 678 4316 997 4589 
Q 1316 4863 1984 4863 
L 2841 4863 
z
" transform="scale(0.015625)"/>
       <path id="DejaVuSans-Bold-6f" d="M 2203 2784 
Q 1831 2784 1636 2517 
Q 1441 2250 1441 1747 
Q 1441 1244 1636 976 
Q 1831 709 2203 709 
Q 2569 709 2762 976 
Q 2956 1244 2956 1747 
Q 2956 2250 2762 2517 
Q 2569 2784 2203 2784 
z
M 2203 3584 
Q 3106 3584 3614 3096 
Q 4122 2609 4122 1747 
Q 4122 884 3614 396 
Q 3106 -91 2203 -91 
Q 1297 -91 786 396 
Q 275 884 275 1747 
Q 275 2609 786 3096 
Q 1297 3584 2203 3584 
z
" transform="scale(0.015625)"/>
       <path id="DejaVuSans-Bold-7a" d="M 366 3500 
L 3419 3500 
L 3419 2719 
L 1575 800 
L 3419 800 
L 3419 0 
L 288 0 
L 288 781 
L 2131 2700 
L 366 2700 
L 366 3500 
z
" transform="scale(0.015625)"/>
       <path id="DejaVuSans-Bold-6e" d="M 4056 2131 
L 4056 0 
L 2931 0 
L 2931 347 
L 2931 1631 
Q 2931 2084 2911 2256 
Q 2891 2428 2841 2509 
Q 2775 2619 2662 2680 
Q 2550 2741 2406 2741 
Q 2056 2741 1856 2470 
Q 1656 2200 1656 1722 
L 1656 0 
L 538 0 
L 538 3500 
L 1656 3500 
L 1656 2988 
Q 1909 3294 2193 3439 
Q 2478 3584 2822 3584 
Q 3428 3584 3742 3212 
Q 4056 2841 4056 2131 
z
" transform="scale(0.015625)"/>
       <path id="DejaVuSans-Bold-73" d="M 3272 3391 
L 3272 2541 
Q 2913 2691 2578 2766 
Q 2244 2841 1947 2841 
Q 1628 2841 1473 2761 
Q 1319 2681 1319 2516 
Q 1319 2381 1436 2309 
Q 1553 2238 1856 2203 
L 2053 2175 
Q 2913 2066 3209 1816 
Q 3506 1566 3506 1031 
Q 3506 472 3093 190 
Q 2681 -91 1863 -91 
Q 1516 -91 1145 -36 
Q 775 19 384 128 
L 384 978 
Q 719 816 1070 734 
Q 1422 653 1784 653 
Q 2113 653 2278 743 
Q 2444 834 2444 1013 
Q 2444 1163 2330 1236 
Q 2216 1309 1875 1350 
L 1678 1375 
Q 931 1469 631 1722 
Q 331 1975 331 2491 
Q 331 3047 712 3315 
Q 1094 3584 1881 3584 
Q 2191 3584 2531 3537 
Q 2872 3491 3272 3391 
z
" transform="scale(0.015625)"/>
       <path id="DejaVuSans-Bold-75" d="M 500 1363 
L 500 3500 
L 1625 3500 
L 1625 3150 
Q 1625 2866 1622 2436 
Q 1619 2006 1619 1863 
Q 1619 1441 1641 1255 
Q 1663 1069 1716 984 
Q 1784 875 1895 815 
Q 2006 756 2150 756 
Q 2500 756 2700 1025 
Q 2900 1294 2900 1772 
L 2900 3500 
L 4019 3500 
L 4019 0 
L 2900 0 
L 2900 506 
Q 2647 200 2364 54 
Q 2081 -91 1741 -91 
Q 1134 -91 817 281 
Q 500 653 500 1363 
z
" transform="scale(0.015625)"/>
       <path id="DejaVuSans-Bold-b5" d="M 544 -1338 
L 544 3500 
L 1672 3500 
L 1672 1466 
Q 1672 1103 1828 926 
Q 1984 750 2303 750 
Q 2625 750 2781 926 
Q 2938 1103 2938 1466 
L 2938 3500 
L 4063 3500 
L 4063 1159 
Q 4063 938 4114 850 
Q 4166 763 4288 763 
Q 4344 763 4395 778 
Q 4447 794 4506 831 
L 4506 50 
Q 4341 -22 4195 -56 
Q 4050 -91 3909 -91 
Q 3631 -91 3454 26 
Q 3278 144 3169 403 
Q 3022 156 2811 32 
Q 2600 -91 2322 -91 
Q 2091 -91 1928 -17 
Q 1766 56 1672 206 
L 1672 -1338 
L 544 -1338 
z
" transform="scale(0.015625)"/>
      </defs>
      <use xlink:href="#DejaVuSans-Bold-64"/>
      <use xlink:href="#DejaVuSans-Bold-61" x="71.582031"/>
      <use xlink:href="#DejaVuSans-Bold-70" x="139.0625"/>
      <use xlink:href="#DejaVuSans-Bold-61" x="210.644531"/>
      <use xlink:href="#DejaVuSans-Bold-67" x="278.125"/>
      <use xlink:href="#DejaVuSans-Bold-6c" x="349.707031"/>
      <use xlink:href="#DejaVuSans-Bold-69" x="383.984375"/>
      <use xlink:href="#DejaVuSans-Bold-66" x="418.261719"/>
      <use xlink:href="#DejaVuSans-Bold-6c" x="461.767578"/>
      <use xlink:href="#DejaVuSans-Bold-6f" x="496.044922"/>
      <use xlink:href="#DejaVuSans-Bold-7a" x="564.746094"/>
      <use xlink:href="#DejaVuSans-Bold-69" x="622.949219"/>
      <use xlink:href="#DejaVuSans-Bold-6e" x="657.226562"/>
      <use xlink:href="#DejaVuSans-Bold-20" x="728.417969"/>
      <use xlink:href="#DejaVuSans-Bold-70" x="763.232422"/>
      <use xlink:href="#DejaVuSans-Bold-6c" x="834.814453"/>
      <use xlink:href="#DejaVuSans-Bold-61" x="869.091797"/>
      <use xlink:href="#DejaVuSans-Bold-73" x="936.572266"/>
      <use xlink:href="#DejaVuSans-Bold-6d" x="996.09375"/>
      <use xlink:href="#DejaVuSans-Bold-61" x="1100.292969"/>
      <use xlink:href="#DejaVuSans-Bold-20" x="1167.773438"/>
      <use xlink:href="#DejaVuSans-Bold-75" x="1202.587891"/>
      <use xlink:href="#DejaVuSans-Bold-72" x="1273.779297"/>
      <use xlink:href="#DejaVuSans-Bold-69" x="1323.095703"/>
      <use xlink:href="#DejaVuSans-Bold-6e" x="1357.373047"/>
      <use xlink:href="#DejaVuSans-Bold-65" x="1428.564453"/>
      <use xlink:href="#DejaVuSans-Bold-20" x="1496.386719"/>
      <use xlink:href="#DejaVuSans-Bold-5b" x="1531.201172"/>
      <use xlink:href="#DejaVuSans-Bold-b5" x="1576.904297"/>
      <use xlink:href="#DejaVuSans-Bold-6d" x="1650.488281"/>
      <use xlink:href="#DejaVuSans-Bold-6f" x="1754.6875"/>
      <use xlink:href="#DejaVuSans-Bold-6c" x="1823.388672"/>
      <use xlink:href="#DejaVuSans-Bold-65" x="1857.666016"/>
      <use xlink:href="#DejaVuSans-Bold-5d" x="1925.488281"/>
     </g>
    </g>
   </g>
   <g id="LineCollection_1">
    <path d="M 90.584173 299.326482 
L 90.584173 299.326482 
" clip-path="url(#p0b1413a582)" style="fill: none; stroke: #000000"/>
    <path d="M 204.593294 254.504348 
L 204.593294 204.701976 
" clip-path="url(#p0b1413a582)" style="fill: none; stroke: #000000"/>
   </g>
   <g id="LineCollection_2">
    <path d="M 90.584173 299.326482 
L 90.584173 299.326482 
" clip-path="url(#p0b1413a582)" style="fill: none; stroke: #66c2a4"/>
    <path d="M 204.593294 264.464822 
L 204.593294 224.622925 
" clip-path="url(#p0b1413a582)" style="fill: none; stroke: #66c2a4"/>
   </g>
   <g id="LineCollection_3">
    <path d="M 90.584173 299.326482 
L 90.584173 299.326482 
" clip-path="url(#p0b1413a582)" style="fill: none; stroke: #2ca25f"/>
    <path d="M 204.593294 309.286957 
L 204.593294 90.156522 
" clip-path="url(#p0b1413a582)" style="fill: none; stroke: #2ca25f"/>
   </g>
   <g id="LineCollection_4">
    <path d="M 90.584173 299.326482 
L 90.584173 299.326482 
" clip-path="url(#p0b1413a582)" style="fill: none; stroke: #006d2c"/>
    <path d="M 204.593294 274.425296 
L 204.593294 234.583399 
" clip-path="url(#p0b1413a582)" style="fill: none; stroke: #006d2c"/>
   </g>
   <g id="line2d_10">
    <path d="M 90.584173 299.326482 
L 91.201722 299.203946 
L 91.819271 298.425904 
L 92.436821 296.854358 
L 93.05437 294.645772 
L 94.289469 289.13375 
L 97.377216 274.755162 
L 99.229864 267.569128 
L 100.464963 263.499079 
L 101.700062 259.955561 
L 102.935161 256.880694 
L 104.17026 254.216411 
L 105.405358 251.908878 
L 107.258007 249.012822 
L 109.110655 246.674492 
L 110.963303 244.782222 
L 112.815951 243.246404 
L 114.6686 241.99535 
L 116.521248 240.971776 
L 118.991445 239.883146 
L 121.461643 239.034788 
L 124.54939 238.219169 
L 128.254687 237.488679 
L 133.195082 236.779525 
L 139.988125 236.075106 
L 150.486465 235.252015 
L 172.718244 233.78763 
L 237.560932 229.787339 
L 312.901959 225.353163 
L 390.095635 221.032322 
L 399.358876 220.528416 
L 399.358876 220.528416 
" clip-path="url(#p0b1413a582)" style="fill: none; stroke: #000000; stroke-width: 2; stroke-linecap: square"/>
   </g>
   <g id="line2d_11">
    <path d="M 90.584173 299.326482 
L 204.593294 229.603162 
" clip-path="url(#p0b1413a582)" style="fill: none; stroke-dasharray: 3.7,1.6; stroke-dashoffset: 0; stroke: #000000"/>
    <defs>
     <path id="m3b78e861ca" d="M -3 3 
L 3 3 
L 3 -3 
L -3 -3 
z
" style="stroke: #000000; stroke-linejoin: miter"/>
    </defs>
    <g clip-path="url(#p0b1413a582)">
     <use xlink:href="#m3b78e861ca" x="90.584173" y="299.326482" style="stroke: #000000; stroke-linejoin: miter"/>
     <use xlink:href="#m3b78e861ca" x="204.593294" y="229.603162" style="stroke: #000000; stroke-linejoin: miter"/>
    </g>
   </g>
   <g id="line2d_12">
    <path d="M 90.584173 299.326482 
L 91.201722 299.262922 
L 91.819271 298.862285 
L 92.436821 298.058253 
L 93.67192 295.595195 
L 97.994766 285.544557 
L 99.847414 282.101685 
L 101.700062 279.28379 
L 103.55271 277.00327 
L 105.405358 275.165827 
L 107.258007 273.687386 
L 109.110655 272.497441 
L 110.963303 271.538304 
L 113.433501 270.539192 
L 115.903698 269.782427 
L 118.991445 269.081501 
L 122.696742 268.486001 
L 127.637137 267.949493 
L 134.430181 267.468202 
L 145.54607 266.940452 
L 173.335793 265.919548 
L 266.585754 262.758066 
L 368.481406 259.522229 
L 399.358876 258.584301 
L 399.358876 258.584301 
" clip-path="url(#p0b1413a582)" style="fill: none; stroke: #66c2a4; stroke-width: 2; stroke-linecap: square"/>
   </g>
   <g id="line2d_13">
    <path d="M 90.584173 299.326482 
L 204.593294 244.543874 
" clip-path="url(#p0b1413a582)" style="fill: none; stroke-dasharray: 3.7,1.6; stroke-dashoffset: 0; stroke: #66c2a4"/>
    <defs>
     <path id="m12293cab95" d="M -3 3 
L 3 3 
L 3 -3 
L -3 -3 
z
" style="stroke: #000000; stroke-linejoin: miter"/>
    </defs>
    <g clip-path="url(#p0b1413a582)">
     <use xlink:href="#m12293cab95" x="90.584173" y="299.326482" style="fill: #66c2a4; stroke: #000000; stroke-linejoin: miter"/>
     <use xlink:href="#m12293cab95" x="204.593294" y="244.543874" style="fill: #66c2a4; stroke: #000000; stroke-linejoin: miter"/>
    </g>
   </g>
   <g id="line2d_14">
    <path d="M 90.584173 299.326482 
L 91.201722 299.287271 
L 91.819271 299.038679 
L 92.436821 298.537237 
L 93.67192 296.993462 
L 97.994766 290.676901 
L 99.847414 288.51749 
L 101.700062 286.751549 
L 103.55271 285.322074 
L 105.405358 284.168879 
L 107.258007 283.238983 
L 109.728204 282.271626 
L 112.198402 281.541855 
L 115.286149 280.87172 
L 118.991445 280.312578 
L 123.931841 279.827396 
L 130.724884 279.424388 
L 141.223224 279.05691 
L 165.9252 278.48267 
L 275.231445 276.266153 
L 399.358876 273.936579 
L 399.358876 273.936579 
" clip-path="url(#p0b1413a582)" style="fill: none; stroke: #2ca25f; stroke-width: 2; stroke-linecap: square"/>
   </g>
   <g id="line2d_15">
    <path d="M 90.584173 299.326482 
L 204.593294 199.721739 
" clip-path="url(#p0b1413a582)" style="fill: none; stroke-dasharray: 3.7,1.6; stroke-dashoffset: 0; stroke: #2ca25f"/>
    <defs>
     <path id="mf9700676a1" d="M -3 3 
L 3 3 
L 3 -3 
L -3 -3 
z
" style="stroke: #000000; stroke-linejoin: miter"/>
    </defs>
    <g clip-path="url(#p0b1413a582)">
     <use xlink:href="#mf9700676a1" x="90.584173" y="299.326482" style="fill: #2ca25f; stroke: #000000; stroke-linejoin: miter"/>
     <use xlink:href="#mf9700676a1" x="204.593294" y="199.721739" style="fill: #2ca25f; stroke: #000000; stroke-linejoin: miter"/>
    </g>
   </g>
   <g id="line2d_16">
    <path d="M 90.584173 299.326482 
L 91.201722 299.304057 
L 91.819271 299.161641 
L 93.05437 298.469492 
L 94.907019 296.913413 
L 97.377216 294.820512 
L 99.229864 293.498683 
L 101.082513 292.411025 
L 103.55271 291.273779 
L 106.022908 290.419015 
L 109.110655 289.642506 
L 112.198402 289.096368 
L 116.521248 288.586783 
L 122.079192 288.19401 
L 130.107335 287.886191 
L 144.310971 287.609435 
L 191.244726 287.028138 
L 364.15856 285.11008 
L 399.358876 284.745307 
L 399.358876 284.745307 
" clip-path="url(#p0b1413a582)" style="fill: none; stroke: #006d2c; stroke-width: 2; stroke-linecap: square"/>
   </g>
   <g id="line2d_17">
    <path d="M 90.584173 299.326482 
L 204.593294 254.504348 
" clip-path="url(#p0b1413a582)" style="fill: none; stroke-dasharray: 3.7,1.6; stroke-dashoffset: 0; stroke: #006d2c"/>
    <defs>
     <path id="m79decec982" d="M -3 3 
L 3 3 
L 3 -3 
L -3 -3 
z
" style="stroke: #000000; stroke-linejoin: miter"/>
    </defs>
    <g clip-path="url(#p0b1413a582)">
     <use xlink:href="#m79decec982" x="90.584173" y="299.326482" style="fill: #006d2c; stroke: #000000; stroke-linejoin: miter"/>
     <use xlink:href="#m79decec982" x="204.593294" y="254.504348" style="fill: #006d2c; stroke: #000000; stroke-linejoin: miter"/>
    </g>
   </g>
   <g id="patch_3">
    <path d="M 75.145438 320.243478 
L 75.145438 79.2 
" style="fill: none; stroke: #000000; stroke-width: 0.8; stroke-linejoin: miter; stroke-linecap: square"/>
   </g>
   <g id="patch_4">
    <path d="M 414.797611 320.243478 
L 414.797611 79.2 
" style="fill: none; stroke: #000000; stroke-width: 0.8; stroke-linejoin: miter; stroke-linecap: square"/>
   </g>
   <g id="patch_5">
    <path d="M 75.145438 320.243478 
L 414.797611 320.243478 
" style="fill: none; stroke: #000000; stroke-width: 0.8; stroke-linejoin: miter; stroke-linecap: square"/>
   </g>
   <g id="patch_6">
    <path d="M 75.145438 79.2 
L 414.797611 79.2 
" style="fill: none; stroke: #000000; stroke-width: 0.8; stroke-linejoin: miter; stroke-linecap: square"/>
   </g>
  </g>
  <g id="axes_2">
   <g id="patch_7">
    <path d="M 516.693264 320.243478 
L 856.345438 320.243478 
L 856.345438 79.2 
L 516.693264 79.2 
z
" style="fill: #ffffff"/>
   </g>
   <g id="matplotlib.axis_3">
    <g id="xtick_5">
     <g id="line2d_18">
      <g>
       <use xlink:href="#ma3db90be9b" x="532.131999" y="320.243478" style="stroke: #000000; stroke-width: 0.8"/>
      </g>
     </g>
     <g id="text_12">
      <!-- 0 -->
      <g transform="translate(527.360124 338.641135) scale(0.15 -0.15)">
       <use xlink:href="#DejaVuSans-30"/>
      </g>
     </g>
    </g>
    <g id="xtick_6">
     <g id="line2d_19">
      <g>
       <use xlink:href="#ma3db90be9b" x="627.1396" y="320.243478" style="stroke: #000000; stroke-width: 0.8"/>
      </g>
     </g>
     <g id="text_13">
      <!-- 20 -->
      <g transform="translate(617.59585 338.641135) scale(0.15 -0.15)">
       <use xlink:href="#DejaVuSans-32"/>
       <use xlink:href="#DejaVuSans-30" x="63.623047"/>
      </g>
     </g>
    </g>
    <g id="xtick_7">
     <g id="line2d_20">
      <g>
       <use xlink:href="#ma3db90be9b" x="722.147201" y="320.243478" style="stroke: #000000; stroke-width: 0.8"/>
      </g>
     </g>
     <g id="text_14">
      <!-- 40 -->
      <g transform="translate(712.603451 338.641135) scale(0.15 -0.15)">
       <use xlink:href="#DejaVuSans-34"/>
       <use xlink:href="#DejaVuSans-30" x="63.623047"/>
      </g>
     </g>
    </g>
    <g id="xtick_8">
     <g id="line2d_21">
      <g>
       <use xlink:href="#ma3db90be9b" x="817.154802" y="320.243478" style="stroke: #000000; stroke-width: 0.8"/>
      </g>
     </g>
     <g id="text_15">
      <!-- 60 -->
      <g transform="translate(807.611052 338.641135) scale(0.15 -0.15)">
       <use xlink:href="#DejaVuSans-36"/>
       <use xlink:href="#DejaVuSans-30" x="63.623047"/>
      </g>
     </g>
    </g>
    <g id="text_16">
     <!-- time [hr] -->
     <g transform="translate(641.444819 359.437853) scale(0.18 -0.18)">
      <use xlink:href="#DejaVuSans-Bold-74"/>
      <use xlink:href="#DejaVuSans-Bold-69" x="47.802734"/>
      <use xlink:href="#DejaVuSans-Bold-6d" x="82.080078"/>
      <use xlink:href="#DejaVuSans-Bold-65" x="186.279297"/>
      <use xlink:href="#DejaVuSans-Bold-20" x="254.101562"/>
      <use xlink:href="#DejaVuSans-Bold-5b" x="288.916016"/>
      <use xlink:href="#DejaVuSans-Bold-68" x="334.619141"/>
      <use xlink:href="#DejaVuSans-Bold-72" x="405.810547"/>
      <use xlink:href="#DejaVuSans-Bold-5d" x="455.126953"/>
     </g>
    </g>
   </g>
   <g id="matplotlib.axis_4">
    <g id="ytick_6">
     <g id="line2d_22">
      <g>
       <use xlink:href="#mdd4b65abbc" x="516.693264" y="309.286957" style="stroke: #000000; stroke-width: 0.8"/>
      </g>
     </g>
     <g id="text_17">
      <!-- 0.0 -->
      <g transform="translate(485.838576 314.985785) scale(0.15 -0.15)">
       <use xlink:href="#DejaVuSans-30"/>
       <use xlink:href="#DejaVuSans-2e" x="63.623047"/>
       <use xlink:href="#DejaVuSans-30" x="95.410156"/>
      </g>
     </g>
    </g>
    <g id="ytick_7">
     <g id="line2d_23">
      <g>
       <use xlink:href="#mdd4b65abbc" x="516.693264" y="278.391605" style="stroke: #000000; stroke-width: 0.8"/>
      </g>
     </g>
     <g id="text_18">
      <!-- 0.5 -->
      <g transform="translate(485.838576 284.090434) scale(0.15 -0.15)">
       <use xlink:href="#DejaVuSans-30"/>
       <use xlink:href="#DejaVuSans-2e" x="63.623047"/>
       <use xlink:href="#DejaVuSans-35" x="95.410156"/>
      </g>
     </g>
    </g>
    <g id="ytick_8">
     <g id="line2d_24">
      <g>
       <use xlink:href="#mdd4b65abbc" x="516.693264" y="247.496254" style="stroke: #000000; stroke-width: 0.8"/>
      </g>
     </g>
     <g id="text_19">
      <!-- 1.0 -->
      <g transform="translate(485.838576 253.195082) scale(0.15 -0.15)">
       <use xlink:href="#DejaVuSans-31"/>
       <use xlink:href="#DejaVuSans-2e" x="63.623047"/>
       <use xlink:href="#DejaVuSans-30" x="95.410156"/>
      </g>
     </g>
    </g>
    <g id="ytick_9">
     <g id="line2d_25">
      <g>
       <use xlink:href="#mdd4b65abbc" x="516.693264" y="216.600903" style="stroke: #000000; stroke-width: 0.8"/>
      </g>
     </g>
     <g id="text_20">
      <!-- 1.5 -->
      <g transform="translate(485.838576 222.299731) scale(0.15 -0.15)">
       <use xlink:href="#DejaVuSans-31"/>
       <use xlink:href="#DejaVuSans-2e" x="63.623047"/>
       <use xlink:href="#DejaVuSans-35" x="95.410156"/>
      </g>
     </g>
    </g>
    <g id="ytick_10">
     <g id="line2d_26">
      <g>
       <use xlink:href="#mdd4b65abbc" x="516.693264" y="185.705552" style="stroke: #000000; stroke-width: 0.8"/>
      </g>
     </g>
     <g id="text_21">
      <!-- 2.0 -->
      <g transform="translate(485.838576 191.40438) scale(0.15 -0.15)">
       <use xlink:href="#DejaVuSans-32"/>
       <use xlink:href="#DejaVuSans-2e" x="63.623047"/>
       <use xlink:href="#DejaVuSans-30" x="95.410156"/>
      </g>
     </g>
    </g>
    <g id="ytick_11">
     <g id="line2d_27">
      <g>
       <use xlink:href="#mdd4b65abbc" x="516.693264" y="154.810201" style="stroke: #000000; stroke-width: 0.8"/>
      </g>
     </g>
     <g id="text_22">
      <!-- 2.5 -->
      <g transform="translate(485.838576 160.509029) scale(0.15 -0.15)">
       <use xlink:href="#DejaVuSans-32"/>
       <use xlink:href="#DejaVuSans-2e" x="63.623047"/>
       <use xlink:href="#DejaVuSans-35" x="95.410156"/>
      </g>
     </g>
    </g>
    <g id="ytick_12">
     <g id="line2d_28">
      <g>
       <use xlink:href="#mdd4b65abbc" x="516.693264" y="123.91485" style="stroke: #000000; stroke-width: 0.8"/>
      </g>
     </g>
     <g id="text_23">
      <!-- 3.0 -->
      <g transform="translate(485.838576 129.613678) scale(0.15 -0.15)">
       <defs>
        <path id="DejaVuSans-33" d="M 2597 2516 
Q 3050 2419 3304 2112 
Q 3559 1806 3559 1356 
Q 3559 666 3084 287 
Q 2609 -91 1734 -91 
Q 1441 -91 1130 -33 
Q 819 25 488 141 
L 488 750 
Q 750 597 1062 519 
Q 1375 441 1716 441 
Q 2309 441 2620 675 
Q 2931 909 2931 1356 
Q 2931 1769 2642 2001 
Q 2353 2234 1838 2234 
L 1294 2234 
L 1294 2753 
L 1863 2753 
Q 2328 2753 2575 2939 
Q 2822 3125 2822 3475 
Q 2822 3834 2567 4026 
Q 2313 4219 1838 4219 
Q 1578 4219 1281 4162 
Q 984 4106 628 3988 
L 628 4550 
Q 988 4650 1302 4700 
Q 1616 4750 1894 4750 
Q 2613 4750 3031 4423 
Q 3450 4097 3450 3541 
Q 3450 3153 3228 2886 
Q 3006 2619 2597 2516 
z
" transform="scale(0.015625)"/>
       </defs>
       <use xlink:href="#DejaVuSans-33"/>
       <use xlink:href="#DejaVuSans-2e" x="63.623047"/>
       <use xlink:href="#DejaVuSans-30" x="95.410156"/>
      </g>
     </g>
    </g>
    <g id="ytick_13">
     <g id="line2d_29">
      <g>
       <use xlink:href="#mdd4b65abbc" x="516.693264" y="93.019499" style="stroke: #000000; stroke-width: 0.8"/>
      </g>
     </g>
     <g id="text_24">
      <!-- 3.5 -->
      <g transform="translate(485.838576 98.718327) scale(0.15 -0.15)">
       <use xlink:href="#DejaVuSans-33"/>
       <use xlink:href="#DejaVuSans-2e" x="63.623047"/>
       <use xlink:href="#DejaVuSans-35" x="95.410156"/>
      </g>
     </g>
    </g>
    <g id="text_25">
     <!-- dapagliflozin plasma urine [µmole] -->
     <g transform="translate(477.954514 377.13002) rotate(-90) scale(0.18 -0.18)">
      <use xlink:href="#DejaVuSans-Bold-64"/>
      <use xlink:href="#DejaVuSans-Bold-61" x="71.582031"/>
      <use xlink:href="#DejaVuSans-Bold-70" x="139.0625"/>
      <use xlink:href="#DejaVuSans-Bold-61" x="210.644531"/>
      <use xlink:href="#DejaVuSans-Bold-67" x="278.125"/>
      <use xlink:href="#DejaVuSans-Bold-6c" x="349.707031"/>
      <use xlink:href="#DejaVuSans-Bold-69" x="383.984375"/>
      <use xlink:href="#DejaVuSans-Bold-66" x="418.261719"/>
      <use xlink:href="#DejaVuSans-Bold-6c" x="461.767578"/>
      <use xlink:href="#DejaVuSans-Bold-6f" x="496.044922"/>
      <use xlink:href="#DejaVuSans-Bold-7a" x="564.746094"/>
      <use xlink:href="#DejaVuSans-Bold-69" x="622.949219"/>
      <use xlink:href="#DejaVuSans-Bold-6e" x="657.226562"/>
      <use xlink:href="#DejaVuSans-Bold-20" x="728.417969"/>
      <use xlink:href="#DejaVuSans-Bold-70" x="763.232422"/>
      <use xlink:href="#DejaVuSans-Bold-6c" x="834.814453"/>
      <use xlink:href="#DejaVuSans-Bold-61" x="869.091797"/>
      <use xlink:href="#DejaVuSans-Bold-73" x="936.572266"/>
      <use xlink:href="#DejaVuSans-Bold-6d" x="996.09375"/>
      <use xlink:href="#DejaVuSans-Bold-61" x="1100.292969"/>
      <use xlink:href="#DejaVuSans-Bold-20" x="1167.773438"/>
      <use xlink:href="#DejaVuSans-Bold-75" x="1202.587891"/>
      <use xlink:href="#DejaVuSans-Bold-72" x="1273.779297"/>
      <use xlink:href="#DejaVuSans-Bold-69" x="1323.095703"/>
      <use xlink:href="#DejaVuSans-Bold-6e" x="1357.373047"/>
      <use xlink:href="#DejaVuSans-Bold-65" x="1428.564453"/>
      <use xlink:href="#DejaVuSans-Bold-20" x="1496.386719"/>
      <use xlink:href="#DejaVuSans-Bold-5b" x="1531.201172"/>
      <use xlink:href="#DejaVuSans-Bold-b5" x="1576.904297"/>
      <use xlink:href="#DejaVuSans-Bold-6d" x="1650.488281"/>
      <use xlink:href="#DejaVuSans-Bold-6f" x="1754.6875"/>
      <use xlink:href="#DejaVuSans-Bold-6c" x="1823.388672"/>
      <use xlink:href="#DejaVuSans-Bold-65" x="1857.666016"/>
      <use xlink:href="#DejaVuSans-Bold-5d" x="1925.488281"/>
     </g>
    </g>
   </g>
   <g id="LineCollection_5">
    <path d="M 532.131999 309.286957 
L 532.131999 309.286957 
" clip-path="url(#pbd11f6ccac)" style="fill: none; stroke: #000000"/>
    <path d="M 817.154802 256.393403 
L 817.154802 180.831184 
" clip-path="url(#pbd11f6ccac)" style="fill: none; stroke: #000000"/>
   </g>
   <g id="LineCollection_6">
    <path d="M 532.131999 309.286957 
L 532.131999 309.286957 
" clip-path="url(#pbd11f6ccac)" style="fill: none; stroke: #000000"/>
    <path d="M 817.154802 263.949625 
L 817.154802 203.49985 
" clip-path="url(#pbd11f6ccac)" style="fill: none; stroke: #000000"/>
   </g>
   <g id="LineCollection_7">
    <path d="M 532.131999 309.286957 
L 532.131999 309.286957 
" clip-path="url(#pbd11f6ccac)" style="fill: none; stroke: #66c2a4"/>
    <path d="M 817.154802 279.062069 
L 817.154802 127.937631 
" clip-path="url(#pbd11f6ccac)" style="fill: none; stroke: #66c2a4"/>
   </g>
   <g id="LineCollection_8">
    <path d="M 532.131999 309.286957 
L 532.131999 309.286957 
" clip-path="url(#pbd11f6ccac)" style="fill: none; stroke: #2ca25f"/>
    <path d="M 817.154802 286.618291 
L 817.154802 90.156522 
" clip-path="url(#pbd11f6ccac)" style="fill: none; stroke: #2ca25f"/>
   </g>
   <g id="LineCollection_9">
    <path d="M 532.131999 309.286957 
L 532.131999 309.286957 
" clip-path="url(#pbd11f6ccac)" style="fill: none; stroke: #006d2c"/>
    <path d="M 817.154802 286.618291 
L 817.154802 256.393403 
" clip-path="url(#pbd11f6ccac)" style="fill: none; stroke: #006d2c"/>
   </g>
   <g id="line2d_30">
    <path d="M 532.131999 309.286957 
L 532.749548 309.121836 
L 533.367098 308.075122 
L 533.984647 305.963873 
L 534.602196 302.999669 
L 535.837295 295.607212 
L 538.925042 276.320822 
L 540.77769 266.671999 
L 542.012789 261.203771 
L 543.247888 256.441477 
L 544.482987 252.308434 
L 545.718086 248.727359 
L 546.953185 245.626357 
L 548.188283 242.940968 
L 549.423382 240.614458 
L 551.27603 237.691241 
L 553.128679 235.325852 
L 554.981327 233.40596 
L 556.833975 231.841659 
L 558.686623 230.561089 
L 560.539271 229.506859 
L 563.009469 228.3755 
L 565.479667 227.482294 
L 568.567414 226.607788 
L 572.27271 225.802946 
L 577.213105 224.989588 
L 584.006149 224.135262 
L 594.504489 223.072434 
L 617.353817 221.03932 
L 674.785912 216.183491 
L 739.01105 210.970539 
L 804.471287 205.880023 
L 840.906702 203.140506 
L 840.906702 203.140506 
" clip-path="url(#pbd11f6ccac)" style="fill: none; stroke: #000000; stroke-width: 2; stroke-linecap: square"/>
   </g>
   <g id="line2d_31">
    <path d="M 532.131999 309.286957 
L 817.154802 218.612294 
" clip-path="url(#pbd11f6ccac)" style="fill: none; stroke-dasharray: 3.7,1.6; stroke-dashoffset: 0; stroke: #000000"/>
    <g clip-path="url(#pbd11f6ccac)">
     <use xlink:href="#m3b78e861ca" x="532.131999" y="309.286957" style="stroke: #000000; stroke-linejoin: miter"/>
     <use xlink:href="#m3b78e861ca" x="817.154802" y="218.612294" style="stroke: #000000; stroke-linejoin: miter"/>
    </g>
   </g>
   <g id="line2d_32">
    <path d="M 532.131999 309.286957 
L 532.749548 309.101033 
L 533.367098 307.920414 
L 533.984647 305.53542 
L 534.602196 302.183214 
L 535.837295 293.815681 
L 538.925042 271.984659 
L 540.77769 261.073919 
L 542.012789 254.894447 
L 543.247888 249.514544 
L 544.482987 244.846284 
L 545.718086 240.801464 
L 546.953185 237.298323 
L 548.188283 234.263765 
L 549.423382 231.633619 
L 551.27603 228.326651 
L 553.128679 225.648133 
L 554.981327 223.471734 
L 556.833975 221.696449 
L 558.686623 220.24158 
L 560.539271 219.04268 
L 563.009469 217.754891 
L 565.479667 216.737521 
L 568.567414 215.741406 
L 572.27271 214.825597 
L 576.595556 214.004878 
L 582.153501 213.179092 
L 590.799192 212.146939 
L 606.237928 210.569049 
L 646.996188 206.689769 
L 707.51603 201.140719 
L 769.270971 195.701805 
L 832.261011 190.377195 
L 840.906702 189.663441 
L 840.906702 189.663441 
" clip-path="url(#pbd11f6ccac)" style="fill: none; stroke: #000000; stroke-width: 2; stroke-linecap: square"/>
   </g>
   <g id="line2d_33">
    <path d="M 532.131999 309.286957 
L 817.154802 233.724738 
" clip-path="url(#pbd11f6ccac)" style="fill: none; stroke-dasharray: 3.7,1.6; stroke-dashoffset: 0; stroke: #000000"/>
    <g clip-path="url(#pbd11f6ccac)">
     <use xlink:href="#m3b78e861ca" x="532.131999" y="309.286957" style="stroke: #000000; stroke-linejoin: miter"/>
     <use xlink:href="#m3b78e861ca" x="817.154802" y="233.724738" style="stroke: #000000; stroke-linejoin: miter"/>
    </g>
   </g>
   <g id="line2d_34">
    <path d="M 532.131999 309.286957 
L 532.749548 309.190517 
L 533.367098 308.582577 
L 533.984647 307.362356 
L 535.219746 303.623621 
L 539.542592 288.363692 
L 541.39524 283.136253 
L 542.630339 280.186125 
L 543.865437 277.620382 
L 545.718086 274.397692 
L 547.570734 271.803023 
L 549.423382 269.715455 
L 551.27603 268.03466 
L 553.128679 266.678946 
L 554.981327 265.5824 
L 557.451524 264.433617 
L 559.921722 263.555655 
L 563.009469 262.731505 
L 566.714766 262.016052 
L 571.037611 261.419367 
L 577.213105 260.815341 
L 586.476347 260.158127 
L 606.237928 259.033606 
L 671.080615 255.641435 
L 752.597137 251.58649 
L 836.583856 247.632954 
L 840.906702 247.435394 
L 840.906702 247.435394 
" clip-path="url(#pbd11f6ccac)" style="fill: none; stroke: #66c2a4; stroke-width: 2; stroke-linecap: square"/>
   </g>
   <g id="line2d_35">
    <path d="M 532.131999 309.286957 
L 817.154802 203.49985 
" clip-path="url(#pbd11f6ccac)" style="fill: none; stroke-dasharray: 3.7,1.6; stroke-dashoffset: 0; stroke: #66c2a4"/>
    <g clip-path="url(#pbd11f6ccac)">
     <use xlink:href="#m12293cab95" x="532.131999" y="309.286957" style="fill: #66c2a4; stroke: #000000; stroke-linejoin: miter"/>
     <use xlink:href="#m12293cab95" x="817.154802" y="203.49985" style="fill: #66c2a4; stroke: #000000; stroke-linejoin: miter"/>
    </g>
   </g>
   <g id="line2d_36">
    <path d="M 532.131999 309.286957 
L 532.749548 309.227462 
L 533.367098 308.850241 
L 533.984647 308.089243 
L 535.219746 305.745924 
L 539.542592 296.155481 
L 541.39524 292.876771 
L 543.247888 290.195586 
L 545.100536 288.025333 
L 546.953185 286.274589 
L 548.805833 284.86289 
L 550.658481 283.723403 
L 552.511129 282.801821 
L 554.981327 281.837706 
L 557.451524 281.103754 
L 560.539271 280.420449 
L 564.244568 279.837212 
L 569.184963 279.310908 
L 575.978007 278.842161 
L 587.093896 278.340679 
L 613.030971 277.464005 
L 707.51603 274.553721 
L 815.587177 271.440181 
L 840.906702 270.741978 
L 840.906702 270.741978 
" clip-path="url(#pbd11f6ccac)" style="fill: none; stroke: #2ca25f; stroke-width: 2; stroke-linecap: square"/>
   </g>
   <g id="line2d_37">
    <path d="M 532.131999 309.286957 
L 817.154802 188.387406 
" clip-path="url(#pbd11f6ccac)" style="fill: none; stroke-dasharray: 3.7,1.6; stroke-dashoffset: 0; stroke: #2ca25f"/>
    <g clip-path="url(#pbd11f6ccac)">
     <use xlink:href="#mf9700676a1" x="532.131999" y="309.286957" style="fill: #2ca25f; stroke: #000000; stroke-linejoin: miter"/>
     <use xlink:href="#mf9700676a1" x="817.154802" y="188.387406" style="fill: #2ca25f; stroke: #000000; stroke-linejoin: miter"/>
    </g>
   </g>
   <g id="line2d_38">
    <path d="M 532.131999 309.286957 
L 532.749548 309.252931 
L 533.367098 309.036825 
L 533.984647 308.600191 
L 535.219746 307.253594 
L 539.542592 301.736463 
L 541.39524 299.850947 
L 543.247888 298.309291 
L 545.100536 297.061256 
L 546.953185 296.054044 
L 549.423382 295.006805 
L 551.89358 294.218149 
L 554.981327 293.496365 
L 558.686623 292.898077 
L 563.009469 292.437182 
L 569.184963 292.031815 
L 578.448204 291.684883 
L 596.974687 291.269888 
L 676.63856 289.84658 
L 819.292473 287.489408 
L 840.906702 287.150913 
L 840.906702 287.150913 
" clip-path="url(#pbd11f6ccac)" style="fill: none; stroke: #006d2c; stroke-width: 2; stroke-linecap: square"/>
   </g>
   <g id="line2d_39">
    <path d="M 532.131999 309.286957 
L 817.154802 271.505847 
" clip-path="url(#pbd11f6ccac)" style="fill: none; stroke-dasharray: 3.7,1.6; stroke-dashoffset: 0; stroke: #006d2c"/>
    <g clip-path="url(#pbd11f6ccac)">
     <use xlink:href="#m79decec982" x="532.131999" y="309.286957" style="fill: #006d2c; stroke: #000000; stroke-linejoin: miter"/>
     <use xlink:href="#m79decec982" x="817.154802" y="271.505847" style="fill: #006d2c; stroke: #000000; stroke-linejoin: miter"/>
    </g>
   </g>
   <g id="patch_8">
    <path d="M 516.693264 320.243478 
L 516.693264 79.2 
" style="fill: none; stroke: #000000; stroke-width: 0.8; stroke-linejoin: miter; stroke-linecap: square"/>
   </g>
   <g id="patch_9">
    <path d="M 856.345438 320.243478 
L 856.345438 79.2 
" style="fill: none; stroke: #000000; stroke-width: 0.8; stroke-linejoin: miter; stroke-linecap: square"/>
   </g>
   <g id="patch_10">
    <path d="M 516.693264 320.243478 
L 856.345438 320.243478 
" style="fill: none; stroke: #000000; stroke-width: 0.8; stroke-linejoin: miter; stroke-linecap: square"/>
   </g>
   <g id="patch_11">
    <path d="M 516.693264 79.2 
L 856.345438 79.2 
" style="fill: none; stroke: #000000; stroke-width: 0.8; stroke-linejoin: miter; stroke-linecap: square"/>
   </g>
  </g>
  <g id="axes_3">
   <g id="patch_12">
    <path d="M 75.145438 633.6 
L 414.797611 633.6 
L 414.797611 392.556522 
L 75.145438 392.556522 
z
" style="fill: #ffffff"/>
   </g>
   <g id="matplotlib.axis_5">
    <g id="xtick_9">
     <g id="line2d_40">
      <g>
       <use xlink:href="#ma3db90be9b" x="90.584173" y="633.6" style="stroke: #000000; stroke-width: 0.8"/>
      </g>
     </g>
     <g id="text_26">
      <!-- 0 -->
      <g transform="translate(85.812298 651.997656) scale(0.15 -0.15)">
       <use xlink:href="#DejaVuSans-30"/>
      </g>
     </g>
    </g>
    <g id="xtick_10">
     <g id="line2d_41">
      <g>
       <use xlink:href="#ma3db90be9b" x="185.591774" y="633.6" style="stroke: #000000; stroke-width: 0.8"/>
      </g>
     </g>
     <g id="text_27">
      <!-- 20 -->
      <g transform="translate(176.048024 651.997656) scale(0.15 -0.15)">
       <use xlink:href="#DejaVuSans-32"/>
       <use xlink:href="#DejaVuSans-30" x="63.623047"/>
      </g>
     </g>
    </g>
    <g id="xtick_11">
     <g id="line2d_42">
      <g>
       <use xlink:href="#ma3db90be9b" x="280.599375" y="633.6" style="stroke: #000000; stroke-width: 0.8"/>
      </g>
     </g>
     <g id="text_28">
      <!-- 40 -->
      <g transform="translate(271.055625 651.997656) scale(0.15 -0.15)">
       <use xlink:href="#DejaVuSans-34"/>
       <use xlink:href="#DejaVuSans-30" x="63.623047"/>
      </g>
     </g>
    </g>
    <g id="xtick_12">
     <g id="line2d_43">
      <g>
       <use xlink:href="#ma3db90be9b" x="375.606976" y="633.6" style="stroke: #000000; stroke-width: 0.8"/>
      </g>
     </g>
     <g id="text_29">
      <!-- 60 -->
      <g transform="translate(366.063226 651.997656) scale(0.15 -0.15)">
       <use xlink:href="#DejaVuSans-36"/>
       <use xlink:href="#DejaVuSans-30" x="63.623047"/>
      </g>
     </g>
    </g>
    <g id="text_30">
     <!-- time [hr] -->
     <g transform="translate(199.896993 672.794375) scale(0.18 -0.18)">
      <use xlink:href="#DejaVuSans-Bold-74"/>
      <use xlink:href="#DejaVuSans-Bold-69" x="47.802734"/>
      <use xlink:href="#DejaVuSans-Bold-6d" x="82.080078"/>
      <use xlink:href="#DejaVuSans-Bold-65" x="186.279297"/>
      <use xlink:href="#DejaVuSans-Bold-20" x="254.101562"/>
      <use xlink:href="#DejaVuSans-Bold-5b" x="288.916016"/>
      <use xlink:href="#DejaVuSans-Bold-68" x="334.619141"/>
      <use xlink:href="#DejaVuSans-Bold-72" x="405.810547"/>
      <use xlink:href="#DejaVuSans-Bold-5d" x="455.126953"/>
     </g>
    </g>
   </g>
   <g id="matplotlib.axis_6">
    <g id="ytick_14">
     <g id="line2d_44">
      <g>
       <use xlink:href="#mdd4b65abbc" x="75.145438" y="622.643478" style="stroke: #000000; stroke-width: 0.8"/>
      </g>
     </g>
     <g id="text_31">
      <!-- 0 -->
      <g transform="translate(58.601688 628.342306) scale(0.15 -0.15)">
       <use xlink:href="#DejaVuSans-30"/>
      </g>
     </g>
    </g>
    <g id="ytick_15">
     <g id="line2d_45">
      <g>
       <use xlink:href="#mdd4b65abbc" x="75.145438" y="589.015119" style="stroke: #000000; stroke-width: 0.8"/>
      </g>
     </g>
     <g id="text_32">
      <!-- 5 -->
      <g transform="translate(58.601688 594.713947) scale(0.15 -0.15)">
       <use xlink:href="#DejaVuSans-35"/>
      </g>
     </g>
    </g>
    <g id="ytick_16">
     <g id="line2d_46">
      <g>
       <use xlink:href="#mdd4b65abbc" x="75.145438" y="555.38676" style="stroke: #000000; stroke-width: 0.8"/>
      </g>
     </g>
     <g id="text_33">
      <!-- 10 -->
      <g transform="translate(49.057938 561.085588) scale(0.15 -0.15)">
       <use xlink:href="#DejaVuSans-31"/>
       <use xlink:href="#DejaVuSans-30" x="63.623047"/>
      </g>
     </g>
    </g>
    <g id="ytick_17">
     <g id="line2d_47">
      <g>
       <use xlink:href="#mdd4b65abbc" x="75.145438" y="521.758401" style="stroke: #000000; stroke-width: 0.8"/>
      </g>
     </g>
     <g id="text_34">
      <!-- 15 -->
      <g transform="translate(49.057938 527.45723) scale(0.15 -0.15)">
       <use xlink:href="#DejaVuSans-31"/>
       <use xlink:href="#DejaVuSans-35" x="63.623047"/>
      </g>
     </g>
    </g>
    <g id="ytick_18">
     <g id="line2d_48">
      <g>
       <use xlink:href="#mdd4b65abbc" x="75.145438" y="488.130042" style="stroke: #000000; stroke-width: 0.8"/>
      </g>
     </g>
     <g id="text_35">
      <!-- 20 -->
      <g transform="translate(49.057938 493.828871) scale(0.15 -0.15)">
       <use xlink:href="#DejaVuSans-32"/>
       <use xlink:href="#DejaVuSans-30" x="63.623047"/>
      </g>
     </g>
    </g>
    <g id="ytick_19">
     <g id="line2d_49">
      <g>
       <use xlink:href="#mdd4b65abbc" x="75.145438" y="454.501683" style="stroke: #000000; stroke-width: 0.8"/>
      </g>
     </g>
     <g id="text_36">
      <!-- 25 -->
      <g transform="translate(49.057938 460.200512) scale(0.15 -0.15)">
       <use xlink:href="#DejaVuSans-32"/>
       <use xlink:href="#DejaVuSans-35" x="63.623047"/>
      </g>
     </g>
    </g>
    <g id="ytick_20">
     <g id="line2d_50">
      <g>
       <use xlink:href="#mdd4b65abbc" x="75.145438" y="420.873325" style="stroke: #000000; stroke-width: 0.8"/>
      </g>
     </g>
     <g id="text_37">
      <!-- 30 -->
      <g transform="translate(49.057938 426.572153) scale(0.15 -0.15)">
       <use xlink:href="#DejaVuSans-33"/>
       <use xlink:href="#DejaVuSans-30" x="63.623047"/>
      </g>
     </g>
    </g>
    <g id="text_38">
     <!-- dapagliflozin-3-o- -->
     <g transform="translate(20.877188 602.286542) rotate(-90) scale(0.18 -0.18)">
      <defs>
       <path id="DejaVuSans-Bold-2d" d="M 347 2297 
L 2309 2297 
L 2309 1388 
L 347 1388 
L 347 2297 
z
" transform="scale(0.015625)"/>
       <path id="DejaVuSans-Bold-33" d="M 2981 2516 
Q 3453 2394 3698 2092 
Q 3944 1791 3944 1325 
Q 3944 631 3412 270 
Q 2881 -91 1863 -91 
Q 1503 -91 1142 -33 
Q 781 25 428 141 
L 428 1069 
Q 766 900 1098 814 
Q 1431 728 1753 728 
Q 2231 728 2486 893 
Q 2741 1059 2741 1369 
Q 2741 1688 2480 1852 
Q 2219 2016 1709 2016 
L 1228 2016 
L 1228 2791 
L 1734 2791 
Q 2188 2791 2409 2933 
Q 2631 3075 2631 3366 
Q 2631 3634 2415 3781 
Q 2200 3928 1806 3928 
Q 1516 3928 1219 3862 
Q 922 3797 628 3669 
L 628 4550 
Q 984 4650 1334 4700 
Q 1684 4750 2022 4750 
Q 2931 4750 3382 4451 
Q 3834 4153 3834 3553 
Q 3834 3144 3618 2883 
Q 3403 2622 2981 2516 
z
" transform="scale(0.015625)"/>
      </defs>
      <use xlink:href="#DejaVuSans-Bold-64"/>
      <use xlink:href="#DejaVuSans-Bold-61" x="71.582031"/>
      <use xlink:href="#DejaVuSans-Bold-70" x="139.0625"/>
      <use xlink:href="#DejaVuSans-Bold-61" x="210.644531"/>
      <use xlink:href="#DejaVuSans-Bold-67" x="278.125"/>
      <use xlink:href="#DejaVuSans-Bold-6c" x="349.707031"/>
      <use xlink:href="#DejaVuSans-Bold-69" x="383.984375"/>
      <use xlink:href="#DejaVuSans-Bold-66" x="418.261719"/>
      <use xlink:href="#DejaVuSans-Bold-6c" x="461.767578"/>
      <use xlink:href="#DejaVuSans-Bold-6f" x="496.044922"/>
      <use xlink:href="#DejaVuSans-Bold-7a" x="564.746094"/>
      <use xlink:href="#DejaVuSans-Bold-69" x="622.949219"/>
      <use xlink:href="#DejaVuSans-Bold-6e" x="657.226562"/>
      <use xlink:href="#DejaVuSans-Bold-2d" x="728.417969"/>
      <use xlink:href="#DejaVuSans-Bold-33" x="769.921875"/>
      <use xlink:href="#DejaVuSans-Bold-2d" x="839.501953"/>
      <use xlink:href="#DejaVuSans-Bold-6f" x="881.005859"/>
      <use xlink:href="#DejaVuSans-Bold-2d" x="949.707031"/>
     </g>
     <!-- glucuronide plasma urine [µmole] -->
     <g transform="translate(41.173875 685.265136) rotate(-90) scale(0.18 -0.18)">
      <defs>
       <path id="DejaVuSans-Bold-63" d="M 3366 3391 
L 3366 2478 
Q 3138 2634 2908 2709 
Q 2678 2784 2431 2784 
Q 1963 2784 1702 2511 
Q 1441 2238 1441 1747 
Q 1441 1256 1702 982 
Q 1963 709 2431 709 
Q 2694 709 2930 787 
Q 3166 866 3366 1019 
L 3366 103 
Q 3103 6 2833 -42 
Q 2563 -91 2291 -91 
Q 1344 -91 809 395 
Q 275 881 275 1747 
Q 275 2613 809 3098 
Q 1344 3584 2291 3584 
Q 2566 3584 2833 3536 
Q 3100 3488 3366 3391 
z
" transform="scale(0.015625)"/>
      </defs>
      <use xlink:href="#DejaVuSans-Bold-67"/>
      <use xlink:href="#DejaVuSans-Bold-6c" x="71.582031"/>
      <use xlink:href="#DejaVuSans-Bold-75" x="105.859375"/>
      <use xlink:href="#DejaVuSans-Bold-63" x="177.050781"/>
      <use xlink:href="#DejaVuSans-Bold-75" x="236.328125"/>
      <use xlink:href="#DejaVuSans-Bold-72" x="307.519531"/>
      <use xlink:href="#DejaVuSans-Bold-6f" x="356.835938"/>
      <use xlink:href="#DejaVuSans-Bold-6e" x="425.537109"/>
      <use xlink:href="#DejaVuSans-Bold-69" x="496.728516"/>
      <use xlink:href="#DejaVuSans-Bold-64" x="531.005859"/>
      <use xlink:href="#DejaVuSans-Bold-65" x="602.587891"/>
      <use xlink:href="#DejaVuSans-Bold-20" x="670.410156"/>
      <use xlink:href="#DejaVuSans-Bold-70" x="705.224609"/>
      <use xlink:href="#DejaVuSans-Bold-6c" x="776.806641"/>
      <use xlink:href="#DejaVuSans-Bold-61" x="811.083984"/>
      <use xlink:href="#DejaVuSans-Bold-73" x="878.564453"/>
      <use xlink:href="#DejaVuSans-Bold-6d" x="938.085938"/>
      <use xlink:href="#DejaVuSans-Bold-61" x="1042.285156"/>
      <use xlink:href="#DejaVuSans-Bold-20" x="1109.765625"/>
      <use xlink:href="#DejaVuSans-Bold-75" x="1144.580078"/>
      <use xlink:href="#DejaVuSans-Bold-72" x="1215.771484"/>
      <use xlink:href="#DejaVuSans-Bold-69" x="1265.087891"/>
      <use xlink:href="#DejaVuSans-Bold-6e" x="1299.365234"/>
      <use xlink:href="#DejaVuSans-Bold-65" x="1370.556641"/>
      <use xlink:href="#DejaVuSans-Bold-20" x="1438.378906"/>
      <use xlink:href="#DejaVuSans-Bold-5b" x="1473.193359"/>
      <use xlink:href="#DejaVuSans-Bold-b5" x="1518.896484"/>
      <use xlink:href="#DejaVuSans-Bold-6d" x="1592.480469"/>
      <use xlink:href="#DejaVuSans-Bold-6f" x="1696.679688"/>
      <use xlink:href="#DejaVuSans-Bold-6c" x="1765.380859"/>
      <use xlink:href="#DejaVuSans-Bold-65" x="1799.658203"/>
      <use xlink:href="#DejaVuSans-Bold-5d" x="1867.480469"/>
     </g>
    </g>
   </g>
   <g id="LineCollection_10">
    <path d="M 90.584173 622.643478 
L 90.584173 622.643478 
" clip-path="url(#p6823065f70)" style="fill: none; stroke: #000000"/>
    <path d="M 204.593294 474.333793 
L 204.593294 403.513043 
" clip-path="url(#p6823065f70)" style="fill: none; stroke: #000000"/>
   </g>
   <g id="LineCollection_11">
    <path d="M 90.584173 622.643478 
L 90.584173 622.643478 
" clip-path="url(#p6823065f70)" style="fill: none; stroke: #66c2a4"/>
    <path d="M 204.593294 512.733355 
L 204.593294 416.619481 
" clip-path="url(#p6823065f70)" style="fill: none; stroke: #66c2a4"/>
   </g>
   <g id="LineCollection_12">
    <path d="M 90.584173 622.643478 
L 90.584173 622.643478 
" clip-path="url(#p6823065f70)" style="fill: none; stroke: #2ca25f"/>
    <path d="M 204.593294 543.544979 
L 204.593294 471.344605 
" clip-path="url(#p6823065f70)" style="fill: none; stroke: #2ca25f"/>
   </g>
   <g id="LineCollection_13">
    <path d="M 90.584173 622.643478 
L 90.584173 622.643478 
" clip-path="url(#p6823065f70)" style="fill: none; stroke: #006d2c"/>
    <path d="M 204.593294 595.740791 
L 204.593294 522.160792 
" clip-path="url(#p6823065f70)" style="fill: none; stroke: #006d2c"/>
   </g>
   <g id="line2d_51">
    <path d="M 90.584173 622.643478 
L 91.201722 622.620073 
L 91.819271 622.399846 
L 92.436821 621.78632 
L 93.05437 620.669807 
L 93.67192 619.022491 
L 94.289469 616.874021 
L 95.524568 611.342123 
L 97.377216 601.148906 
L 101.082513 579.908476 
L 102.935161 570.547781 
L 104.787809 562.383948 
L 106.640457 555.399821 
L 108.493105 549.490637 
L 110.345754 544.521148 
L 112.198402 540.354058 
L 114.05105 536.862771 
L 115.903698 533.936041 
L 117.756347 531.478671 
L 119.608995 529.410429 
L 121.461643 527.664308 
L 123.314291 526.184638 
L 125.784489 524.547711 
L 128.254687 523.215589 
L 130.724884 522.120195 
L 133.812631 521.004672 
L 137.517928 519.938841 
L 141.840773 518.954981 
L 147.398718 517.952531 
L 154.809311 516.878651 
L 165.9252 515.533475 
L 185.686781 513.40663 
L 230.767888 508.82005 
L 289.435082 503.068211 
L 349.337374 497.420151 
L 399.358876 492.871356 
L 399.358876 492.871356 
" clip-path="url(#p6823065f70)" style="fill: none; stroke: #000000; stroke-width: 2; stroke-linecap: square"/>
   </g>
   <g id="line2d_52">
    <path d="M 90.584173 622.643478 
L 204.593294 438.923418 
" clip-path="url(#p6823065f70)" style="fill: none; stroke-dasharray: 3.7,1.6; stroke-dashoffset: 0; stroke: #000000"/>
    <g clip-path="url(#p6823065f70)">
     <use xlink:href="#m3b78e861ca" x="90.584173" y="622.643478" style="stroke: #000000; stroke-linejoin: miter"/>
     <use xlink:href="#m3b78e861ca" x="204.593294" y="438.923418" style="stroke: #000000; stroke-linejoin: miter"/>
    </g>
   </g>
   <g id="line2d_53">
    <path d="M 90.584173 622.643478 
L 91.819271 622.507462 
L 92.436821 622.157156 
L 93.05437 621.504764 
L 93.67192 620.517933 
L 94.289469 619.19658 
L 95.524568 615.647252 
L 96.759667 611.137946 
L 98.612315 603.267224 
L 104.17026 578.674838 
L 106.022908 571.461762 
L 107.875556 564.975888 
L 109.728204 559.22254 
L 111.580853 554.166278 
L 113.433501 549.750568 
L 115.286149 545.910076 
L 117.138797 542.578049 
L 118.991445 539.690525 
L 120.844094 537.188529 
L 122.696742 535.019026 
L 124.54939 533.135122 
L 127.019588 530.997488 
L 129.489785 529.213122 
L 131.959983 527.714738 
L 134.430181 526.447652 
L 137.517928 525.122458 
L 141.223224 523.82397 
L 144.928521 522.761828 
L 149.868916 521.605698 
L 155.42686 520.544985 
L 162.837453 519.373582 
L 173.335793 517.97078 
L 190.009627 516.006203 
L 222.122196 512.488989 
L 275.231445 506.899701 
L 332.66354 501.077655 
L 391.330734 495.356268 
L 399.358876 494.590609 
L 399.358876 494.590609 
" clip-path="url(#p6823065f70)" style="fill: none; stroke: #66c2a4; stroke-width: 2; stroke-linecap: square"/>
   </g>
   <g id="line2d_54">
    <path d="M 90.584173 622.643478 
L 204.593294 464.676418 
" clip-path="url(#p6823065f70)" style="fill: none; stroke-dasharray: 3.7,1.6; stroke-dashoffset: 0; stroke: #66c2a4"/>
    <g clip-path="url(#p6823065f70)">
     <use xlink:href="#m12293cab95" x="90.584173" y="622.643478" style="fill: #66c2a4; stroke: #000000; stroke-linejoin: miter"/>
     <use xlink:href="#m12293cab95" x="204.593294" y="464.676418" style="fill: #66c2a4; stroke: #000000; stroke-linejoin: miter"/>
    </g>
   </g>
   <g id="line2d_55">
    <path d="M 90.584173 622.643478 
L 91.819271 622.556226 
L 92.436821 622.327473 
L 93.05437 621.894618 
L 93.67192 621.229545 
L 94.289469 620.325122 
L 95.524568 617.837273 
L 96.759667 614.578184 
L 98.612315 608.663213 
L 101.082513 599.763433 
L 106.022908 581.843055 
L 108.493105 573.740901 
L 110.963303 566.443487 
L 113.433501 559.972851 
L 115.903698 554.292695 
L 117.756347 550.512702 
L 120.226544 546.051955 
L 122.696742 542.181467 
L 125.166939 538.82592 
L 127.637137 535.915984 
L 130.107335 533.389574 
L 132.577532 531.192078 
L 135.04773 529.276007 
L 137.517928 527.600391 
L 140.605675 525.790925 
L 143.693422 524.24487 
L 147.398718 522.67126 
L 151.104015 521.343391 
L 155.42686 520.036359 
L 160.367256 518.785638 
L 165.9252 517.605761 
L 172.718244 516.391926 
L 181.363936 515.083505 
L 193.097374 513.554009 
L 210.388758 511.551835 
L 240.031129 508.378597 
L 290.052631 503.265173 
L 348.102275 497.550356 
L 399.358876 492.681896 
L 399.358876 492.681896 
" clip-path="url(#p6823065f70)" style="fill: none; stroke: #2ca25f; stroke-width: 2; stroke-linecap: square"/>
   </g>
   <g id="line2d_56">
    <path d="M 90.584173 622.643478 
L 204.593294 507.444792 
" clip-path="url(#p6823065f70)" style="fill: none; stroke-dasharray: 3.7,1.6; stroke-dashoffset: 0; stroke: #2ca25f"/>
    <g clip-path="url(#p6823065f70)">
     <use xlink:href="#mf9700676a1" x="90.584173" y="622.643478" style="fill: #2ca25f; stroke: #000000; stroke-linejoin: miter"/>
     <use xlink:href="#mf9700676a1" x="204.593294" y="507.444792" style="fill: #2ca25f; stroke: #000000; stroke-linejoin: miter"/>
    </g>
   </g>
   <g id="line2d_57">
    <path d="M 90.584173 622.643478 
L 91.819271 622.592284 
L 92.436821 622.456613 
L 93.05437 622.197264 
L 93.67192 621.794594 
L 94.289469 621.241108 
L 95.524568 619.692298 
L 96.759667 617.616465 
L 97.994766 615.113039 
L 99.847414 610.777051 
L 102.317611 604.358571 
L 109.728204 584.682323 
L 112.815951 577.243803 
L 115.903698 570.461252 
L 118.373896 565.517169 
L 120.844094 560.987485 
L 123.314291 556.849211 
L 125.784489 553.074888 
L 128.254687 549.635474 
L 131.342434 545.763275 
L 134.430181 542.315651 
L 137.517928 539.243226 
L 140.605675 536.501475 
L 143.693422 534.050709 
L 146.781169 531.8558 
L 150.486465 529.516311 
L 154.191762 527.454378 
L 157.897058 525.630215 
L 162.219904 523.757425 
L 166.54275 522.116489 
L 171.483145 520.476508 
L 177.04109 518.876369 
L 183.216584 517.340432 
L 190.009627 515.8794 
L 198.03777 514.384887 
L 207.301011 512.886498 
L 219.034449 511.225061 
L 233.855635 509.363785 
L 254.234766 507.045921 
L 284.494687 503.851479 
L 329.575793 499.331511 
L 386.390339 493.859684 
L 399.358876 492.639808 
L 399.358876 492.639808 
" clip-path="url(#p6823065f70)" style="fill: none; stroke: #006d2c; stroke-width: 2; stroke-linecap: square"/>
   </g>
   <g id="line2d_58">
    <path d="M 90.584173 622.643478 
L 204.593294 558.950792 
" clip-path="url(#p6823065f70)" style="fill: none; stroke-dasharray: 3.7,1.6; stroke-dashoffset: 0; stroke: #006d2c"/>
    <g clip-path="url(#p6823065f70)">
     <use xlink:href="#m79decec982" x="90.584173" y="622.643478" style="fill: #006d2c; stroke: #000000; stroke-linejoin: miter"/>
     <use xlink:href="#m79decec982" x="204.593294" y="558.950792" style="fill: #006d2c; stroke: #000000; stroke-linejoin: miter"/>
    </g>
   </g>
   <g id="patch_13">
    <path d="M 75.145438 633.6 
L 75.145438 392.556522 
" style="fill: none; stroke: #000000; stroke-width: 0.8; stroke-linejoin: miter; stroke-linecap: square"/>
   </g>
   <g id="patch_14">
    <path d="M 414.797611 633.6 
L 414.797611 392.556522 
" style="fill: none; stroke: #000000; stroke-width: 0.8; stroke-linejoin: miter; stroke-linecap: square"/>
   </g>
   <g id="patch_15">
    <path d="M 75.145438 633.6 
L 414.797611 633.6 
" style="fill: none; stroke: #000000; stroke-width: 0.8; stroke-linejoin: miter; stroke-linecap: square"/>
   </g>
   <g id="patch_16">
    <path d="M 75.145438 392.556522 
L 414.797611 392.556522 
" style="fill: none; stroke: #000000; stroke-width: 0.8; stroke-linejoin: miter; stroke-linecap: square"/>
   </g>
  </g>
  <g id="axes_4">
   <g id="patch_17">
    <path d="M 516.693264 633.6 
L 856.345438 633.6 
L 856.345438 392.556522 
L 516.693264 392.556522 
z
" style="fill: #ffffff"/>
   </g>
   <g id="matplotlib.axis_7">
    <g id="xtick_13">
     <g id="line2d_59">
      <g>
       <use xlink:href="#ma3db90be9b" x="532.131999" y="633.6" style="stroke: #000000; stroke-width: 0.8"/>
      </g>
     </g>
     <g id="text_39">
      <!-- 0 -->
      <g transform="translate(527.360124 651.997656) scale(0.15 -0.15)">
       <use xlink:href="#DejaVuSans-30"/>
      </g>
     </g>
    </g>
    <g id="xtick_14">
     <g id="line2d_60">
      <g>
       <use xlink:href="#ma3db90be9b" x="627.1396" y="633.6" style="stroke: #000000; stroke-width: 0.8"/>
      </g>
     </g>
     <g id="text_40">
      <!-- 20 -->
      <g transform="translate(617.59585 651.997656) scale(0.15 -0.15)">
       <use xlink:href="#DejaVuSans-32"/>
       <use xlink:href="#DejaVuSans-30" x="63.623047"/>
      </g>
     </g>
    </g>
    <g id="xtick_15">
     <g id="line2d_61">
      <g>
       <use xlink:href="#ma3db90be9b" x="722.147201" y="633.6" style="stroke: #000000; stroke-width: 0.8"/>
      </g>
     </g>
     <g id="text_41">
      <!-- 40 -->
      <g transform="translate(712.603451 651.997656) scale(0.15 -0.15)">
       <use xlink:href="#DejaVuSans-34"/>
       <use xlink:href="#DejaVuSans-30" x="63.623047"/>
      </g>
     </g>
    </g>
    <g id="xtick_16">
     <g id="line2d_62">
      <g>
       <use xlink:href="#ma3db90be9b" x="817.154802" y="633.6" style="stroke: #000000; stroke-width: 0.8"/>
      </g>
     </g>
     <g id="text_42">
      <!-- 60 -->
      <g transform="translate(807.611052 651.997656) scale(0.15 -0.15)">
       <use xlink:href="#DejaVuSans-36"/>
       <use xlink:href="#DejaVuSans-30" x="63.623047"/>
      </g>
     </g>
    </g>
    <g id="text_43">
     <!-- time [hr] -->
     <g transform="translate(641.444819 672.794375) scale(0.18 -0.18)">
      <use xlink:href="#DejaVuSans-Bold-74"/>
      <use xlink:href="#DejaVuSans-Bold-69" x="47.802734"/>
      <use xlink:href="#DejaVuSans-Bold-6d" x="82.080078"/>
      <use xlink:href="#DejaVuSans-Bold-65" x="186.279297"/>
      <use xlink:href="#DejaVuSans-Bold-20" x="254.101562"/>
      <use xlink:href="#DejaVuSans-Bold-5b" x="288.916016"/>
      <use xlink:href="#DejaVuSans-Bold-68" x="334.619141"/>
      <use xlink:href="#DejaVuSans-Bold-72" x="405.810547"/>
      <use xlink:href="#DejaVuSans-Bold-5d" x="455.126953"/>
     </g>
    </g>
   </g>
   <g id="matplotlib.axis_8">
    <g id="ytick_21">
     <g id="line2d_63">
      <g>
       <use xlink:href="#mdd4b65abbc" x="516.693264" y="622.643478" style="stroke: #000000; stroke-width: 0.8"/>
      </g>
     </g>
     <g id="text_44">
      <!-- 0 -->
      <g transform="translate(500.149514 628.342306) scale(0.15 -0.15)">
       <use xlink:href="#DejaVuSans-30"/>
      </g>
     </g>
    </g>
    <g id="ytick_22">
     <g id="line2d_64">
      <g>
       <use xlink:href="#mdd4b65abbc" x="516.693264" y="565.094071" style="stroke: #000000; stroke-width: 0.8"/>
      </g>
     </g>
     <g id="text_45">
      <!-- 20 -->
      <g transform="translate(490.605764 570.792899) scale(0.15 -0.15)">
       <use xlink:href="#DejaVuSans-32"/>
       <use xlink:href="#DejaVuSans-30" x="63.623047"/>
      </g>
     </g>
    </g>
    <g id="ytick_23">
     <g id="line2d_65">
      <g>
       <use xlink:href="#mdd4b65abbc" x="516.693264" y="507.544664" style="stroke: #000000; stroke-width: 0.8"/>
      </g>
     </g>
     <g id="text_46">
      <!-- 40 -->
      <g transform="translate(490.605764 513.243492) scale(0.15 -0.15)">
       <use xlink:href="#DejaVuSans-34"/>
       <use xlink:href="#DejaVuSans-30" x="63.623047"/>
      </g>
     </g>
    </g>
    <g id="ytick_24">
     <g id="line2d_66">
      <g>
       <use xlink:href="#mdd4b65abbc" x="516.693264" y="449.995257" style="stroke: #000000; stroke-width: 0.8"/>
      </g>
     </g>
     <g id="text_47">
      <!-- 60 -->
      <g transform="translate(490.605764 455.694085) scale(0.15 -0.15)">
       <use xlink:href="#DejaVuSans-36"/>
       <use xlink:href="#DejaVuSans-30" x="63.623047"/>
      </g>
     </g>
    </g>
    <g id="text_48">
     <!-- dapagliflozin-3-o- -->
     <g transform="translate(462.425014 602.286542) rotate(-90) scale(0.18 -0.18)">
      <use xlink:href="#DejaVuSans-Bold-64"/>
      <use xlink:href="#DejaVuSans-Bold-61" x="71.582031"/>
      <use xlink:href="#DejaVuSans-Bold-70" x="139.0625"/>
      <use xlink:href="#DejaVuSans-Bold-61" x="210.644531"/>
      <use xlink:href="#DejaVuSans-Bold-67" x="278.125"/>
      <use xlink:href="#DejaVuSans-Bold-6c" x="349.707031"/>
      <use xlink:href="#DejaVuSans-Bold-69" x="383.984375"/>
      <use xlink:href="#DejaVuSans-Bold-66" x="418.261719"/>
      <use xlink:href="#DejaVuSans-Bold-6c" x="461.767578"/>
      <use xlink:href="#DejaVuSans-Bold-6f" x="496.044922"/>
      <use xlink:href="#DejaVuSans-Bold-7a" x="564.746094"/>
      <use xlink:href="#DejaVuSans-Bold-69" x="622.949219"/>
      <use xlink:href="#DejaVuSans-Bold-6e" x="657.226562"/>
      <use xlink:href="#DejaVuSans-Bold-2d" x="728.417969"/>
      <use xlink:href="#DejaVuSans-Bold-33" x="769.921875"/>
      <use xlink:href="#DejaVuSans-Bold-2d" x="839.501953"/>
      <use xlink:href="#DejaVuSans-Bold-6f" x="881.005859"/>
      <use xlink:href="#DejaVuSans-Bold-2d" x="949.707031"/>
     </g>
     <!-- glucuronide plasma urine [µmole] -->
     <g transform="translate(482.721701 685.265136) rotate(-90) scale(0.18 -0.18)">
      <use xlink:href="#DejaVuSans-Bold-67"/>
      <use xlink:href="#DejaVuSans-Bold-6c" x="71.582031"/>
      <use xlink:href="#DejaVuSans-Bold-75" x="105.859375"/>
      <use xlink:href="#DejaVuSans-Bold-63" x="177.050781"/>
      <use xlink:href="#DejaVuSans-Bold-75" x="236.328125"/>
      <use xlink:href="#DejaVuSans-Bold-72" x="307.519531"/>
      <use xlink:href="#DejaVuSans-Bold-6f" x="356.835938"/>
      <use xlink:href="#DejaVuSans-Bold-6e" x="425.537109"/>
      <use xlink:href="#DejaVuSans-Bold-69" x="496.728516"/>
      <use xlink:href="#DejaVuSans-Bold-64" x="531.005859"/>
      <use xlink:href="#DejaVuSans-Bold-65" x="602.587891"/>
      <use xlink:href="#DejaVuSans-Bold-20" x="670.410156"/>
      <use xlink:href="#DejaVuSans-Bold-70" x="705.224609"/>
      <use xlink:href="#DejaVuSans-Bold-6c" x="776.806641"/>
      <use xlink:href="#DejaVuSans-Bold-61" x="811.083984"/>
      <use xlink:href="#DejaVuSans-Bold-73" x="878.564453"/>
      <use xlink:href="#DejaVuSans-Bold-6d" x="938.085938"/>
      <use xlink:href="#DejaVuSans-Bold-61" x="1042.285156"/>
      <use xlink:href="#DejaVuSans-Bold-20" x="1109.765625"/>
      <use xlink:href="#DejaVuSans-Bold-75" x="1144.580078"/>
      <use xlink:href="#DejaVuSans-Bold-72" x="1215.771484"/>
      <use xlink:href="#DejaVuSans-Bold-69" x="1265.087891"/>
      <use xlink:href="#DejaVuSans-Bold-6e" x="1299.365234"/>
      <use xlink:href="#DejaVuSans-Bold-65" x="1370.556641"/>
      <use xlink:href="#DejaVuSans-Bold-20" x="1438.378906"/>
      <use xlink:href="#DejaVuSans-Bold-5b" x="1473.193359"/>
      <use xlink:href="#DejaVuSans-Bold-b5" x="1518.896484"/>
      <use xlink:href="#DejaVuSans-Bold-6d" x="1592.480469"/>
      <use xlink:href="#DejaVuSans-Bold-6f" x="1696.679688"/>
      <use xlink:href="#DejaVuSans-Bold-6c" x="1765.380859"/>
      <use xlink:href="#DejaVuSans-Bold-65" x="1799.658203"/>
      <use xlink:href="#DejaVuSans-Bold-5d" x="1867.480469"/>
     </g>
    </g>
   </g>
   <g id="LineCollection_14">
    <path d="M 532.131999 622.643478 
L 532.131999 622.643478 
" clip-path="url(#pd938791dd1)" style="fill: none; stroke: #000000"/>
    <path d="M 817.154802 528.203426 
L 817.154802 406.710233 
" clip-path="url(#pd938791dd1)" style="fill: none; stroke: #000000"/>
   </g>
   <g id="LineCollection_15">
    <path d="M 532.131999 622.643478 
L 532.131999 622.643478 
" clip-path="url(#pd938791dd1)" style="fill: none; stroke: #000000"/>
    <path d="M 817.154802 570.996574 
L 817.154802 420.974616 
" clip-path="url(#pd938791dd1)" style="fill: none; stroke: #000000"/>
   </g>
   <g id="LineCollection_16">
    <path d="M 532.131999 622.643478 
L 532.131999 622.643478 
" clip-path="url(#pd938791dd1)" style="fill: none; stroke: #66c2a4"/>
    <path d="M 817.154802 525.498112 
L 817.154802 403.513043 
" clip-path="url(#pd938791dd1)" style="fill: none; stroke: #66c2a4"/>
   </g>
   <g id="LineCollection_17">
    <path d="M 532.131999 622.643478 
L 532.131999 622.643478 
" clip-path="url(#pd938791dd1)" style="fill: none; stroke: #2ca25f"/>
    <path d="M 817.154802 530.662802 
L 817.154802 406.710233 
" clip-path="url(#pd938791dd1)" style="fill: none; stroke: #2ca25f"/>
   </g>
   <g id="LineCollection_18">
    <path d="M 532.131999 622.643478 
L 532.131999 622.643478 
" clip-path="url(#pd938791dd1)" style="fill: none; stroke: #006d2c"/>
    <path d="M 817.154802 596.328151 
L 817.154802 557.96188 
" clip-path="url(#pd938791dd1)" style="fill: none; stroke: #006d2c"/>
   </g>
   <g id="line2d_67">
    <path d="M 532.131999 622.643478 
L 532.749548 622.620958 
L 533.367098 622.408306 
L 533.984647 621.813444 
L 534.602196 620.725855 
L 535.219746 619.113028 
L 535.837295 616.998115 
L 537.072394 611.504865 
L 538.925042 601.234211 
L 543.247888 575.888747 
L 545.100536 566.384368 
L 546.953185 558.065021 
L 548.805833 550.911836 
L 550.658481 544.826887 
L 552.511129 539.682605 
L 554.363777 535.34758 
L 556.216426 531.698894 
L 558.069074 528.627149 
L 559.921722 526.037699 
L 561.77437 523.850047 
L 563.627019 521.996444 
L 565.479667 520.420246 
L 567.949864 518.669824 
L 570.420062 517.239315 
L 572.89026 516.058353 
L 575.978007 514.850831 
L 579.683303 513.692184 
L 584.006149 512.618522 
L 588.946544 511.631896 
L 595.739588 510.526053 
L 605.002829 509.262189 
L 620.441564 507.405884 
L 653.789232 503.668147 
L 708.13358 497.800696 
L 764.948125 491.889026 
L 822.99777 486.073606 
L 840.906702 484.324017 
L 840.906702 484.324017 
" clip-path="url(#pd938791dd1)" style="fill: none; stroke: #000000; stroke-width: 2; stroke-linecap: square"/>
   </g>
   <g id="line2d_68">
    <path d="M 532.131999 622.643478 
L 817.154802 467.456829 
" clip-path="url(#pd938791dd1)" style="fill: none; stroke-dasharray: 3.7,1.6; stroke-dashoffset: 0; stroke: #000000"/>
    <g clip-path="url(#pd938791dd1)">
     <use xlink:href="#m3b78e861ca" x="532.131999" y="622.643478" style="stroke: #000000; stroke-linejoin: miter"/>
     <use xlink:href="#m3b78e861ca" x="817.154802" y="467.456829" style="stroke: #000000; stroke-linejoin: miter"/>
    </g>
   </g>
   <g id="line2d_69">
    <path d="M 532.131999 622.643478 
L 532.749548 622.618448 
L 533.367098 622.383001 
L 533.984647 621.727286 
L 534.602196 620.534294 
L 535.219746 618.77443 
L 535.837295 616.479389 
L 537.072394 610.570313 
L 538.925042 599.681205 
L 542.630339 576.984914 
L 544.482987 566.980652 
L 546.335635 558.255003 
L 548.188283 550.790057 
L 550.040932 544.474013 
L 551.89358 539.162327 
L 553.746228 534.708204 
L 555.598876 530.976283 
L 557.451524 527.84763 
L 559.304173 525.220488 
L 561.156821 523.009117 
L 563.009469 521.141926 
L 564.862117 519.559445 
L 566.714766 518.212427 
L 569.184963 516.713355 
L 571.655161 515.48382 
L 574.742908 514.235796 
L 577.830655 513.22764 
L 581.535951 512.245137 
L 586.476347 511.196958 
L 592.651841 510.146321 
L 601.297532 508.933408 
L 614.883619 507.284722 
L 642.673343 504.181233 
L 695.165042 498.55144 
L 751.979588 492.676655 
L 810.029232 486.89678 
L 840.906702 483.911159 
L 840.906702 483.911159 
" clip-path="url(#pd938791dd1)" style="fill: none; stroke: #000000; stroke-width: 2; stroke-linecap: square"/>
   </g>
   <g id="line2d_70">
    <path d="M 532.131999 622.643478 
L 817.154802 495.985595 
" clip-path="url(#pd938791dd1)" style="fill: none; stroke-dasharray: 3.7,1.6; stroke-dashoffset: 0; stroke: #000000"/>
    <g clip-path="url(#pd938791dd1)">
     <use xlink:href="#m3b78e861ca" x="532.131999" y="622.643478" style="stroke: #000000; stroke-linejoin: miter"/>
     <use xlink:href="#m3b78e861ca" x="817.154802" y="495.985595" style="stroke: #000000; stroke-linejoin: miter"/>
    </g>
   </g>
   <g id="line2d_71">
    <path d="M 532.131999 622.643478 
L 532.749548 622.629728 
L 533.367098 622.49806 
L 533.984647 622.123675 
L 534.602196 621.426613 
L 535.219746 620.372382 
L 535.837295 618.960905 
L 537.072394 615.169587 
L 538.307493 610.352473 
L 540.160141 601.942978 
L 545.718086 575.65767 
L 547.570734 567.947109 
L 549.423382 561.014329 
L 551.27603 554.865205 
L 553.128679 549.461814 
L 554.981327 544.74356 
L 556.833975 540.640392 
L 558.686623 537.080751 
L 560.539271 533.9961 
L 562.39192 531.323283 
L 564.244568 529.005542 
L 566.097216 526.992725 
L 567.949864 525.24104 
L 570.420062 523.246891 
L 572.89026 521.574586 
L 575.360457 520.162644 
L 578.448204 518.688943 
L 581.535951 517.468243 
L 585.241248 516.25578 
L 589.564094 515.096021 
L 594.504489 514.004834 
L 600.679983 512.871045 
L 609.325675 511.537458 
L 621.676663 509.888207 
L 642.673343 507.342561 
L 684.049153 502.582447 
L 738.393501 496.550606 
L 793.972947 490.604369 
L 840.906702 485.751922 
L 840.906702 485.751922 
" clip-path="url(#pd938791dd1)" style="fill: none; stroke: #66c2a4; stroke-width: 2; stroke-linecap: square"/>
   </g>
   <g id="line2d_72">
    <path d="M 532.131999 622.643478 
L 817.154802 464.505578 
" clip-path="url(#pd938791dd1)" style="fill: none; stroke-dasharray: 3.7,1.6; stroke-dashoffset: 0; stroke: #66c2a4"/>
    <g clip-path="url(#pd938791dd1)">
     <use xlink:href="#m12293cab95" x="532.131999" y="622.643478" style="fill: #66c2a4; stroke: #000000; stroke-linejoin: miter"/>
     <use xlink:href="#m12293cab95" x="817.154802" y="464.505578" style="fill: #66c2a4; stroke: #000000; stroke-linejoin: miter"/>
    </g>
   </g>
   <g id="line2d_73">
    <path d="M 532.131999 622.643478 
L 533.367098 622.550193 
L 533.984647 622.305709 
L 534.602196 621.843199 
L 535.219746 621.13267 
L 535.837295 620.166511 
L 537.072394 617.50888 
L 538.307493 614.02705 
L 540.160141 607.706495 
L 542.630339 598.193524 
L 547.570734 579.03255 
L 550.040932 570.369518 
L 552.511129 562.568285 
L 554.981327 555.652598 
L 556.833975 551.02484 
L 558.686623 546.844911 
L 560.539271 543.079049 
L 562.39192 539.691731 
L 564.862117 535.703298 
L 567.332315 532.245752 
L 569.802513 529.246638 
L 572.27271 526.641502 
L 574.742908 524.373906 
L 577.213105 522.394945 
L 579.683303 520.662521 
L 582.77105 518.789239 
L 585.858797 517.186059 
L 589.564094 515.551159 
L 593.26939 514.168472 
L 597.592236 512.804038 
L 602.532631 511.494488 
L 608.090576 510.254973 
L 614.883619 508.97505 
L 623.529311 507.589825 
L 634.6452 506.044783 
L 651.319034 503.975234 
L 679.108758 500.782586 
L 726.042513 495.632313 
L 782.239509 489.686941 
L 839.671604 483.833184 
L 840.906702 483.709695 
L 840.906702 483.709695 
" clip-path="url(#pd938791dd1)" style="fill: none; stroke: #2ca25f; stroke-width: 2; stroke-linecap: square"/>
   </g>
   <g id="line2d_74">
    <path d="M 532.131999 622.643478 
L 817.154802 468.686517 
" clip-path="url(#pd938791dd1)" style="fill: none; stroke-dasharray: 3.7,1.6; stroke-dashoffset: 0; stroke: #2ca25f"/>
    <g clip-path="url(#pd938791dd1)">
     <use xlink:href="#mf9700676a1" x="532.131999" y="622.643478" style="fill: #2ca25f; stroke: #000000; stroke-linejoin: miter"/>
     <use xlink:href="#mf9700676a1" x="817.154802" y="468.686517" style="fill: #2ca25f; stroke: #000000; stroke-linejoin: miter"/>
    </g>
   </g>
   <g id="line2d_75">
    <path d="M 532.131999 622.643478 
L 533.367098 622.588745 
L 533.984647 622.443742 
L 534.602196 622.16662 
L 535.219746 621.736422 
L 535.837295 621.145142 
L 537.072394 619.490584 
L 538.307493 617.272781 
L 539.542592 614.597649 
L 541.39524 609.96302 
L 543.865437 603.100093 
L 551.27603 582.054208 
L 554.363777 574.0994 
L 557.451524 566.848527 
L 559.921722 561.564903 
L 562.39192 556.725596 
L 564.862117 552.30564 
L 567.332315 548.275287 
L 569.802513 544.603142 
L 572.27271 541.258053 
L 575.360457 537.491352 
L 578.448204 534.13519 
L 581.535951 531.140806 
L 584.623698 528.464745 
L 587.711445 526.068561 
L 590.799192 523.918389 
L 594.504489 521.621264 
L 598.209785 519.591102 
L 602.532631 517.509398 
L 606.855477 515.688143 
L 611.795872 513.871196 
L 616.736268 512.28636 
L 622.294212 510.727964 
L 628.469706 509.218558 
L 635.880299 507.645366 
L 644.525991 506.053311 
L 655.024331 504.367268 
L 667.992868 502.529995 
L 684.666702 500.406656 
L 708.13358 497.659202 
L 743.333896 493.781394 
L 792.737849 488.57061 
L 840.906702 483.664862 
L 840.906702 483.664862 
" clip-path="url(#pd938791dd1)" style="fill: none; stroke: #006d2c; stroke-width: 2; stroke-linecap: square"/>
   </g>
   <g id="line2d_76">
    <path d="M 532.131999 622.643478 
L 817.154802 577.145015 
" clip-path="url(#pd938791dd1)" style="fill: none; stroke-dasharray: 3.7,1.6; stroke-dashoffset: 0; stroke: #006d2c"/>
    <g clip-path="url(#pd938791dd1)">
     <use xlink:href="#m79decec982" x="532.131999" y="622.643478" style="fill: #006d2c; stroke: #000000; stroke-linejoin: miter"/>
     <use xlink:href="#m79decec982" x="817.154802" y="577.145015" style="fill: #006d2c; stroke: #000000; stroke-linejoin: miter"/>
    </g>
   </g>
   <g id="patch_18">
    <path d="M 516.693264 633.6 
L 516.693264 392.556522 
" style="fill: none; stroke: #000000; stroke-width: 0.8; stroke-linejoin: miter; stroke-linecap: square"/>
   </g>
   <g id="patch_19">
    <path d="M 856.345438 633.6 
L 856.345438 392.556522 
" style="fill: none; stroke: #000000; stroke-width: 0.8; stroke-linejoin: miter; stroke-linecap: square"/>
   </g>
   <g id="patch_20">
    <path d="M 516.693264 633.6 
L 856.345438 633.6 
" style="fill: none; stroke: #000000; stroke-width: 0.8; stroke-linejoin: miter; stroke-linecap: square"/>
   </g>
   <g id="patch_21">
    <path d="M 516.693264 392.556522 
L 856.345438 392.556522 
" style="fill: none; stroke: #000000; stroke-width: 0.8; stroke-linejoin: miter; stroke-linecap: square"/>
   </g>
  </g>
  <g id="text_49">
   <!-- Kasichayanula2013 -->
   <g transform="translate(317.055594 26.196094) scale(0.25 -0.25)">
    <defs>
     <path id="DejaVuSans-Bold-4b" d="M 588 4666 
L 1791 4666 
L 1791 2963 
L 3525 4666 
L 4922 4666 
L 2675 2456 
L 5153 0 
L 3647 0 
L 1791 1838 
L 1791 0 
L 588 0 
L 588 4666 
z
" transform="scale(0.015625)"/>
     <path id="DejaVuSans-Bold-79" d="M 78 3500 
L 1197 3500 
L 2138 1125 
L 2938 3500 
L 4056 3500 
L 2584 -331 
Q 2363 -916 2067 -1148 
Q 1772 -1381 1288 -1381 
L 641 -1381 
L 641 -647 
L 991 -647 
Q 1275 -647 1404 -556 
Q 1534 -466 1606 -231 
L 1638 -134 
L 78 3500 
z
" transform="scale(0.015625)"/>
     <path id="DejaVuSans-Bold-32" d="M 1844 884 
L 3897 884 
L 3897 0 
L 506 0 
L 506 884 
L 2209 2388 
Q 2438 2594 2547 2791 
Q 2656 2988 2656 3200 
Q 2656 3528 2436 3728 
Q 2216 3928 1850 3928 
Q 1569 3928 1234 3808 
Q 900 3688 519 3450 
L 519 4475 
Q 925 4609 1322 4679 
Q 1719 4750 2100 4750 
Q 2938 4750 3402 4381 
Q 3866 4013 3866 3353 
Q 3866 2972 3669 2642 
Q 3472 2313 2841 1759 
L 1844 884 
z
" transform="scale(0.015625)"/>
     <path id="DejaVuSans-Bold-30" d="M 2944 2338 
Q 2944 3213 2780 3570 
Q 2616 3928 2228 3928 
Q 1841 3928 1675 3570 
Q 1509 3213 1509 2338 
Q 1509 1453 1675 1090 
Q 1841 728 2228 728 
Q 2613 728 2778 1090 
Q 2944 1453 2944 2338 
z
M 4147 2328 
Q 4147 1169 3647 539 
Q 3147 -91 2228 -91 
Q 1306 -91 806 539 
Q 306 1169 306 2328 
Q 306 3491 806 4120 
Q 1306 4750 2228 4750 
Q 3147 4750 3647 4120 
Q 4147 3491 4147 2328 
z
" transform="scale(0.015625)"/>
     <path id="DejaVuSans-Bold-31" d="M 750 831 
L 1813 831 
L 1813 3847 
L 722 3622 
L 722 4441 
L 1806 4666 
L 2950 4666 
L 2950 831 
L 4013 831 
L 4013 0 
L 750 0 
L 750 831 
z
" transform="scale(0.015625)"/>
    </defs>
    <use xlink:href="#DejaVuSans-Bold-4b"/>
    <use xlink:href="#DejaVuSans-Bold-61" x="77.490234"/>
    <use xlink:href="#DejaVuSans-Bold-73" x="144.970703"/>
    <use xlink:href="#DejaVuSans-Bold-69" x="204.492188"/>
    <use xlink:href="#DejaVuSans-Bold-63" x="238.769531"/>
    <use xlink:href="#DejaVuSans-Bold-68" x="298.046875"/>
    <use xlink:href="#DejaVuSans-Bold-61" x="369.238281"/>
    <use xlink:href="#DejaVuSans-Bold-79" x="433.59375"/>
    <use xlink:href="#DejaVuSans-Bold-61" x="498.779297"/>
    <use xlink:href="#DejaVuSans-Bold-6e" x="566.259766"/>
    <use xlink:href="#DejaVuSans-Bold-75" x="637.451172"/>
    <use xlink:href="#DejaVuSans-Bold-6c" x="708.642578"/>
    <use xlink:href="#DejaVuSans-Bold-61" x="742.919922"/>
    <use xlink:href="#DejaVuSans-Bold-32" x="810.400391"/>
    <use xlink:href="#DejaVuSans-Bold-30" x="879.980469"/>
    <use xlink:href="#DejaVuSans-Bold-31" x="949.560547"/>
    <use xlink:href="#DejaVuSans-Bold-33" x="1019.140625"/>
   </g>
  </g>
 </g>
 <defs>
  <clipPath id="p0b1413a582">
   <rect x="75.145438" y="79.2" width="339.652174" height="241.043478"/>
  </clipPath>
  <clipPath id="pbd11f6ccac">
   <rect x="516.693264" y="79.2" width="339.652174" height="241.043478"/>
  </clipPath>
  <clipPath id="p6823065f70">
   <rect x="75.145438" y="392.556522" width="339.652174" height="241.043478"/>
  </clipPath>
  <clipPath id="pd938791dd1">
   <rect x="516.693264" y="392.556522" width="339.652174" height="241.043478"/>
  </clipPath>
 </defs>
</svg>
