<?xml version="1.0" encoding="utf-8" standalone="no"?>
<!DOCTYPE svg PUBLIC "-//W3C//DTD SVG 1.1//EN"
  "http://www.w3.org/Graphics/SVG/1.1/DTD/svg11.dtd">
<svg xmlns:xlink="http://www.w3.org/1999/xlink" width="496.800125pt" height="370.537812pt" viewBox="0 0 496.800125 370.537812" xmlns="http://www.w3.org/2000/svg" version="1.1">
 <metadata>
  <rdf:RDF xmlns:dc="http://purl.org/dc/elements/1.1/" xmlns:cc="http://creativecommons.org/ns#" xmlns:rdf="http://www.w3.org/1999/02/22-rdf-syntax-ns#">
   <cc:Work>
    <dc:type rdf:resource="http://purl.org/dc/dcmitype/StillImage"/>
    <dc:date>2025-12-21T21:51:23.745302</dc:date>
    <dc:format>image/svg+xml</dc:format>
    <dc:creator>
     <cc:Agent>
      <dc:title>Matplotlib v3.10.7, https://matplotlib.org/</dc:title>
     </cc:Agent>
    </dc:creator>
   </cc:Work>
  </rdf:RDF>
 </metadata>
 <defs>
  <style type="text/css">*{stroke-linejoin: round; stroke-linecap: butt}</style>
 </defs>
 <g id="figure_1">
  <g id="patch_1">
   <path d="M 0 370.537812 
L 496.800125 370.537812 
L 496.800125 0 
L 0 0 
z
" style="fill: #ffffff"/>
  </g>
  <g id="axes_1">
   <g id="patch_2">
    <path d="M 89.456375 320.4 
L 480.056375 320.4 
L 480.056375 43.2 
L 89.456375 43.2 
z
" style="fill: #ffffff"/>
   </g>
   <g id="matplotlib.axis_1">
    <g id="xtick_1">
     <g id="line2d_1">
      <defs>
       <path id="m1c4dd941bd" d="M 0 0 
L 0 3.5 
" style="stroke: #000000; stroke-width: 0.8"/>
      </defs>
      <g>
       <use xlink:href="#m1c4dd941bd" x="113.868875" y="320.4" style="stroke: #000000; stroke-width: 0.8"/>
      </g>
     </g>
     <g id="text_1">
      <!-- 0 -->
      <g transform="translate(109.097 338.797656) scale(0.15 -0.15)">
       <defs>
        <path id="DejaVuSans-30" d="M 2034 4250 
Q 1547 4250 1301 3770 
Q 1056 3291 1056 2328 
Q 1056 1369 1301 889 
Q 1547 409 2034 409 
Q 2525 409 2770 889 
Q 3016 1369 3016 2328 
Q 3016 3291 2770 3770 
Q 2525 4250 2034 4250 
z
M 2034 4750 
Q 2819 4750 3233 4129 
Q 3647 3509 3647 2328 
Q 3647 1150 3233 529 
Q 2819 -91 2034 -91 
Q 1250 -91 836 529 
Q 422 1150 422 2328 
Q 422 3509 836 4129 
Q 1250 4750 2034 4750 
z
" transform="scale(0.015625)"/>
       </defs>
       <use xlink:href="#DejaVuSans-30"/>
      </g>
     </g>
    </g>
    <g id="xtick_2">
     <g id="line2d_2">
      <g>
       <use xlink:href="#m1c4dd941bd" x="174.900125" y="320.4" style="stroke: #000000; stroke-width: 0.8"/>
      </g>
     </g>
     <g id="text_2">
      <!-- 5 -->
      <g transform="translate(170.12825 338.797656) scale(0.15 -0.15)">
       <defs>
        <path id="DejaVuSans-35" d="M 691 4666 
L 3169 4666 
L 3169 4134 
L 1269 4134 
L 1269 2991 
Q 1406 3038 1543 3061 
Q 1681 3084 1819 3084 
Q 2600 3084 3056 2656 
Q 3513 2228 3513 1497 
Q 3513 744 3044 326 
Q 2575 -91 1722 -91 
Q 1428 -91 1123 -41 
Q 819 9 494 109 
L 494 744 
Q 775 591 1075 516 
Q 1375 441 1709 441 
Q 2250 441 2565 725 
Q 2881 1009 2881 1497 
Q 2881 1984 2565 2268 
Q 2250 2553 1709 2553 
Q 1456 2553 1204 2497 
Q 953 2441 691 2322 
L 691 4666 
z
" transform="scale(0.015625)"/>
       </defs>
       <use xlink:href="#DejaVuSans-35"/>
      </g>
     </g>
    </g>
    <g id="xtick_3">
     <g id="line2d_3">
      <g>
       <use xlink:href="#m1c4dd941bd" x="235.931375" y="320.4" style="stroke: #000000; stroke-width: 0.8"/>
      </g>
     </g>
     <g id="text_3">
      <!-- 10 -->
      <g transform="translate(226.387625 338.797656) scale(0.15 -0.15)">
       <defs>
        <path id="DejaVuSans-31" d="M 794 531 
L 1825 531 
L 1825 4091 
L 703 3866 
L 703 4441 
L 1819 4666 
L 2450 4666 
L 2450 531 
L 3481 531 
L 3481 0 
L 794 0 
L 794 531 
z
" transform="scale(0.015625)"/>
       </defs>
       <use xlink:href="#DejaVuSans-31"/>
       <use xlink:href="#DejaVuSans-30" transform="translate(63.623047 0)"/>
      </g>
     </g>
    </g>
    <g id="xtick_4">
     <g id="line2d_4">
      <g>
       <use xlink:href="#m1c4dd941bd" x="296.962625" y="320.4" style="stroke: #000000; stroke-width: 0.8"/>
      </g>
     </g>
     <g id="text_4">
      <!-- 15 -->
      <g transform="translate(287.418875 338.797656) scale(0.15 -0.15)">
       <use xlink:href="#DejaVuSans-31"/>
       <use xlink:href="#DejaVuSans-35" transform="translate(63.623047 0)"/>
      </g>
     </g>
    </g>
    <g id="xtick_5">
     <g id="line2d_5">
      <g>
       <use xlink:href="#m1c4dd941bd" x="357.993875" y="320.4" style="stroke: #000000; stroke-width: 0.8"/>
      </g>
     </g>
     <g id="text_5">
      <!-- 20 -->
      <g transform="translate(348.450125 338.797656) scale(0.15 -0.15)">
       <defs>
        <path id="DejaVuSans-32" d="M 1228 531 
L 3431 531 
L 3431 0 
L 469 0 
L 469 531 
Q 828 903 1448 1529 
Q 2069 2156 2228 2338 
Q 2531 2678 2651 2914 
Q 2772 3150 2772 3378 
Q 2772 3750 2511 3984 
Q 2250 4219 1831 4219 
Q 1534 4219 1204 4116 
Q 875 4013 500 3803 
L 500 4441 
Q 881 4594 1212 4672 
Q 1544 4750 1819 4750 
Q 2544 4750 2975 4387 
Q 3406 4025 3406 3419 
Q 3406 3131 3298 2873 
Q 3191 2616 2906 2266 
Q 2828 2175 2409 1742 
Q 1991 1309 1228 531 
z
" transform="scale(0.015625)"/>
       </defs>
       <use xlink:href="#DejaVuSans-32"/>
       <use xlink:href="#DejaVuSans-30" transform="translate(63.623047 0)"/>
      </g>
     </g>
    </g>
    <g id="xtick_6">
     <g id="line2d_6">
      <g>
       <use xlink:href="#m1c4dd941bd" x="419.025125" y="320.4" style="stroke: #000000; stroke-width: 0.8"/>
      </g>
     </g>
     <g id="text_6">
      <!-- 25 -->
      <g transform="translate(409.481375 338.797656) scale(0.15 -0.15)">
       <use xlink:href="#DejaVuSans-32"/>
       <use xlink:href="#DejaVuSans-35" transform="translate(63.623047 0)"/>
      </g>
     </g>
    </g>
    <g id="xtick_7">
     <g id="line2d_7">
      <g>
       <use xlink:href="#m1c4dd941bd" x="480.056375" y="320.4" style="stroke: #000000; stroke-width: 0.8"/>
      </g>
     </g>
     <g id="text_7">
      <!-- 30 -->
      <g transform="translate(470.512625 338.797656) scale(0.15 -0.15)">
       <defs>
        <path id="DejaVuSans-33" d="M 2597 2516 
Q 3050 2419 3304 2112 
Q 3559 1806 3559 1356 
Q 3559 666 3084 287 
Q 2609 -91 1734 -91 
Q 1441 -91 1130 -33 
Q 819 25 488 141 
L 488 750 
Q 750 597 1062 519 
Q 1375 441 1716 441 
Q 2309 441 2620 675 
Q 2931 909 2931 1356 
Q 2931 1769 2642 2001 
Q 2353 2234 1838 2234 
L 1294 2234 
L 1294 2753 
L 1863 2753 
Q 2328 2753 2575 2939 
Q 2822 3125 2822 3475 
Q 2822 3834 2567 4026 
Q 2313 4219 1838 4219 
Q 1578 4219 1281 4162 
Q 984 4106 628 3988 
L 628 4550 
Q 988 4650 1302 4700 
Q 1616 4750 1894 4750 
Q 2613 4750 3031 4423 
Q 3450 4097 3450 3541 
Q 3450 3153 3228 2886 
Q 3006 2619 2597 2516 
z
" transform="scale(0.015625)"/>
       </defs>
       <use xlink:href="#DejaVuSans-33"/>
       <use xlink:href="#DejaVuSans-30" transform="translate(63.623047 0)"/>
      </g>
     </g>
    </g>
    <g id="text_8">
     <!-- time [hr] -->
     <g transform="translate(239.681844 359.594375) scale(0.18 -0.18)">
      <defs>
       <path id="DejaVuSans-Bold-74" d="M 1759 4494 
L 1759 3500 
L 2913 3500 
L 2913 2700 
L 1759 2700 
L 1759 1216 
Q 1759 972 1856 886 
Q 1953 800 2241 800 
L 2816 800 
L 2816 0 
L 1856 0 
Q 1194 0 917 276 
Q 641 553 641 1216 
L 641 2700 
L 84 2700 
L 84 3500 
L 641 3500 
L 641 4494 
L 1759 4494 
z
" transform="scale(0.015625)"/>
       <path id="DejaVuSans-Bold-69" d="M 538 3500 
L 1656 3500 
L 1656 0 
L 538 0 
L 538 3500 
z
M 538 4863 
L 1656 4863 
L 1656 3950 
L 538 3950 
L 538 4863 
z
" transform="scale(0.015625)"/>
       <path id="DejaVuSans-Bold-6d" d="M 3781 2919 
Q 3994 3244 4286 3414 
Q 4578 3584 4928 3584 
Q 5531 3584 5847 3212 
Q 6163 2841 6163 2131 
L 6163 0 
L 5038 0 
L 5038 1825 
Q 5041 1866 5042 1909 
Q 5044 1953 5044 2034 
Q 5044 2406 4934 2573 
Q 4825 2741 4581 2741 
Q 4263 2741 4089 2478 
Q 3916 2216 3909 1719 
L 3909 0 
L 2784 0 
L 2784 1825 
Q 2784 2406 2684 2573 
Q 2584 2741 2328 2741 
Q 2006 2741 1831 2477 
Q 1656 2213 1656 1722 
L 1656 0 
L 531 0 
L 531 3500 
L 1656 3500 
L 1656 2988 
Q 1863 3284 2130 3434 
Q 2397 3584 2719 3584 
Q 3081 3584 3359 3409 
Q 3638 3234 3781 2919 
z
" transform="scale(0.015625)"/>
       <path id="DejaVuSans-Bold-65" d="M 4031 1759 
L 4031 1441 
L 1416 1441 
Q 1456 1047 1700 850 
Q 1944 653 2381 653 
Q 2734 653 3104 758 
Q 3475 863 3866 1075 
L 3866 213 
Q 3469 63 3072 -14 
Q 2675 -91 2278 -91 
Q 1328 -91 801 392 
Q 275 875 275 1747 
Q 275 2603 792 3093 
Q 1309 3584 2216 3584 
Q 3041 3584 3536 3087 
Q 4031 2591 4031 1759 
z
M 2881 2131 
Q 2881 2450 2695 2645 
Q 2509 2841 2209 2841 
Q 1884 2841 1681 2658 
Q 1478 2475 1428 2131 
L 2881 2131 
z
" transform="scale(0.015625)"/>
       <path id="DejaVuSans-Bold-20" transform="scale(0.015625)"/>
       <path id="DejaVuSans-Bold-5b" d="M 550 4863 
L 2491 4863 
L 2491 4159 
L 1613 4159 
L 1613 -141 
L 2491 -141 
L 2491 -844 
L 550 -844 
L 550 4863 
z
" transform="scale(0.015625)"/>
       <path id="DejaVuSans-Bold-68" d="M 4056 2131 
L 4056 0 
L 2931 0 
L 2931 347 
L 2931 1625 
Q 2931 2084 2911 2256 
Q 2891 2428 2841 2509 
Q 2775 2619 2662 2680 
Q 2550 2741 2406 2741 
Q 2056 2741 1856 2470 
Q 1656 2200 1656 1722 
L 1656 0 
L 538 0 
L 538 4863 
L 1656 4863 
L 1656 2988 
Q 1909 3294 2193 3439 
Q 2478 3584 2822 3584 
Q 3428 3584 3742 3212 
Q 4056 2841 4056 2131 
z
" transform="scale(0.015625)"/>
       <path id="DejaVuSans-Bold-72" d="M 3138 2547 
Q 2991 2616 2845 2648 
Q 2700 2681 2553 2681 
Q 2122 2681 1889 2404 
Q 1656 2128 1656 1613 
L 1656 0 
L 538 0 
L 538 3500 
L 1656 3500 
L 1656 2925 
Q 1872 3269 2151 3426 
Q 2431 3584 2822 3584 
Q 2878 3584 2943 3579 
Q 3009 3575 3134 3559 
L 3138 2547 
z
" transform="scale(0.015625)"/>
       <path id="DejaVuSans-Bold-5d" d="M 2375 -844 
L 434 -844 
L 434 -141 
L 1313 -141 
L 1313 4159 
L 434 4159 
L 434 4863 
L 2375 4863 
L 2375 -844 
z
" transform="scale(0.015625)"/>
      </defs>
      <use xlink:href="#DejaVuSans-Bold-74"/>
      <use xlink:href="#DejaVuSans-Bold-69" transform="translate(47.802734 0)"/>
      <use xlink:href="#DejaVuSans-Bold-6d" transform="translate(82.080078 0)"/>
      <use xlink:href="#DejaVuSans-Bold-65" transform="translate(186.279297 0)"/>
      <use xlink:href="#DejaVuSans-Bold-20" transform="translate(254.101562 0)"/>
      <use xlink:href="#DejaVuSans-Bold-5b" transform="translate(288.916016 0)"/>
      <use xlink:href="#DejaVuSans-Bold-68" transform="translate(334.619141 0)"/>
      <use xlink:href="#DejaVuSans-Bold-72" transform="translate(405.810547 0)"/>
      <use xlink:href="#DejaVuSans-Bold-5d" transform="translate(455.126953 0)"/>
     </g>
    </g>
   </g>
   <g id="matplotlib.axis_2">
    <g id="ytick_1">
     <g id="line2d_8">
      <defs>
       <path id="m35985eb799" d="M 0 0 
L -3.5 0 
" style="stroke: #000000; stroke-width: 0.8"/>
      </defs>
      <g>
       <use xlink:href="#m35985eb799" x="89.456375" y="307.8" style="stroke: #000000; stroke-width: 0.8"/>
      </g>
     </g>
     <g id="text_9">
      <!-- 0.00 -->
      <g transform="translate(49.057937 313.498828) scale(0.15 -0.15)">
       <defs>
        <path id="DejaVuSans-2e" d="M 684 794 
L 1344 794 
L 1344 0 
L 684 0 
L 684 794 
z
" transform="scale(0.015625)"/>
       </defs>
       <use xlink:href="#DejaVuSans-30"/>
       <use xlink:href="#DejaVuSans-2e" transform="translate(63.623047 0)"/>
       <use xlink:href="#DejaVuSans-30" transform="translate(95.410156 0)"/>
       <use xlink:href="#DejaVuSans-30" transform="translate(159.033203 0)"/>
      </g>
     </g>
    </g>
    <g id="ytick_2">
     <g id="line2d_9">
      <g>
       <use xlink:href="#m35985eb799" x="89.456375" y="274.240833" style="stroke: #000000; stroke-width: 0.8"/>
      </g>
     </g>
     <g id="text_10">
      <!-- 0.05 -->
      <g transform="translate(49.057937 279.939661) scale(0.15 -0.15)">
       <use xlink:href="#DejaVuSans-30"/>
       <use xlink:href="#DejaVuSans-2e" transform="translate(63.623047 0)"/>
       <use xlink:href="#DejaVuSans-30" transform="translate(95.410156 0)"/>
       <use xlink:href="#DejaVuSans-35" transform="translate(159.033203 0)"/>
      </g>
     </g>
    </g>
    <g id="ytick_3">
     <g id="line2d_10">
      <g>
       <use xlink:href="#m35985eb799" x="89.456375" y="240.681665" style="stroke: #000000; stroke-width: 0.8"/>
      </g>
     </g>
     <g id="text_11">
      <!-- 0.10 -->
      <g transform="translate(49.057937 246.380493) scale(0.15 -0.15)">
       <use xlink:href="#DejaVuSans-30"/>
       <use xlink:href="#DejaVuSans-2e" transform="translate(63.623047 0)"/>
       <use xlink:href="#DejaVuSans-31" transform="translate(95.410156 0)"/>
       <use xlink:href="#DejaVuSans-30" transform="translate(159.033203 0)"/>
      </g>
     </g>
    </g>
    <g id="ytick_4">
     <g id="line2d_11">
      <g>
       <use xlink:href="#m35985eb799" x="89.456375" y="207.122498" style="stroke: #000000; stroke-width: 0.8"/>
      </g>
     </g>
     <g id="text_12">
      <!-- 0.15 -->
      <g transform="translate(49.057937 212.821326) scale(0.15 -0.15)">
       <use xlink:href="#DejaVuSans-30"/>
       <use xlink:href="#DejaVuSans-2e" transform="translate(63.623047 0)"/>
       <use xlink:href="#DejaVuSans-31" transform="translate(95.410156 0)"/>
       <use xlink:href="#DejaVuSans-35" transform="translate(159.033203 0)"/>
      </g>
     </g>
    </g>
    <g id="ytick_5">
     <g id="line2d_12">
      <g>
       <use xlink:href="#m35985eb799" x="89.456375" y="173.563331" style="stroke: #000000; stroke-width: 0.8"/>
      </g>
     </g>
     <g id="text_13">
      <!-- 0.20 -->
      <g transform="translate(49.057937 179.262159) scale(0.15 -0.15)">
       <use xlink:href="#DejaVuSans-30"/>
       <use xlink:href="#DejaVuSans-2e" transform="translate(63.623047 0)"/>
       <use xlink:href="#DejaVuSans-32" transform="translate(95.410156 0)"/>
       <use xlink:href="#DejaVuSans-30" transform="translate(159.033203 0)"/>
      </g>
     </g>
    </g>
    <g id="ytick_6">
     <g id="line2d_13">
      <g>
       <use xlink:href="#m35985eb799" x="89.456375" y="140.004163" style="stroke: #000000; stroke-width: 0.8"/>
      </g>
     </g>
     <g id="text_14">
      <!-- 0.25 -->
      <g transform="translate(49.057937 145.702992) scale(0.15 -0.15)">
       <use xlink:href="#DejaVuSans-30"/>
       <use xlink:href="#DejaVuSans-2e" transform="translate(63.623047 0)"/>
       <use xlink:href="#DejaVuSans-32" transform="translate(95.410156 0)"/>
       <use xlink:href="#DejaVuSans-35" transform="translate(159.033203 0)"/>
      </g>
     </g>
    </g>
    <g id="ytick_7">
     <g id="line2d_14">
      <g>
       <use xlink:href="#m35985eb799" x="89.456375" y="106.444996" style="stroke: #000000; stroke-width: 0.8"/>
      </g>
     </g>
     <g id="text_15">
      <!-- 0.30 -->
      <g transform="translate(49.057937 112.143824) scale(0.15 -0.15)">
       <use xlink:href="#DejaVuSans-30"/>
       <use xlink:href="#DejaVuSans-2e" transform="translate(63.623047 0)"/>
       <use xlink:href="#DejaVuSans-33" transform="translate(95.410156 0)"/>
       <use xlink:href="#DejaVuSans-30" transform="translate(159.033203 0)"/>
      </g>
     </g>
    </g>
    <g id="ytick_8">
     <g id="line2d_15">
      <g>
       <use xlink:href="#m35985eb799" x="89.456375" y="72.885829" style="stroke: #000000; stroke-width: 0.8"/>
      </g>
     </g>
     <g id="text_16">
      <!-- 0.35 -->
      <g transform="translate(49.057937 78.584657) scale(0.15 -0.15)">
       <use xlink:href="#DejaVuSans-30"/>
       <use xlink:href="#DejaVuSans-2e" transform="translate(63.623047 0)"/>
       <use xlink:href="#DejaVuSans-33" transform="translate(95.410156 0)"/>
       <use xlink:href="#DejaVuSans-35" transform="translate(159.033203 0)"/>
      </g>
     </g>
    </g>
    <g id="text_17">
     <!-- dapagliflozin-3-O- -->
     <g transform="translate(20.877187 272.645156) rotate(-90) scale(0.18 -0.18)">
      <defs>
       <path id="DejaVuSans-Bold-64" d="M 2919 2988 
L 2919 4863 
L 4044 4863 
L 4044 0 
L 2919 0 
L 2919 506 
Q 2688 197 2409 53 
Q 2131 -91 1766 -91 
Q 1119 -91 703 423 
Q 288 938 288 1747 
Q 288 2556 703 3070 
Q 1119 3584 1766 3584 
Q 2128 3584 2408 3439 
Q 2688 3294 2919 2988 
z
M 2181 722 
Q 2541 722 2730 984 
Q 2919 1247 2919 1747 
Q 2919 2247 2730 2509 
Q 2541 2772 2181 2772 
Q 1825 2772 1636 2509 
Q 1447 2247 1447 1747 
Q 1447 1247 1636 984 
Q 1825 722 2181 722 
z
" transform="scale(0.015625)"/>
       <path id="DejaVuSans-Bold-61" d="M 2106 1575 
Q 1756 1575 1579 1456 
Q 1403 1338 1403 1106 
Q 1403 894 1545 773 
Q 1688 653 1941 653 
Q 2256 653 2472 879 
Q 2688 1106 2688 1447 
L 2688 1575 
L 2106 1575 
z
M 3816 1997 
L 3816 0 
L 2688 0 
L 2688 519 
Q 2463 200 2181 54 
Q 1900 -91 1497 -91 
Q 953 -91 614 226 
Q 275 544 275 1050 
Q 275 1666 698 1953 
Q 1122 2241 2028 2241 
L 2688 2241 
L 2688 2328 
Q 2688 2594 2478 2717 
Q 2269 2841 1825 2841 
Q 1466 2841 1156 2769 
Q 847 2697 581 2553 
L 581 3406 
Q 941 3494 1303 3539 
Q 1666 3584 2028 3584 
Q 2975 3584 3395 3211 
Q 3816 2838 3816 1997 
z
" transform="scale(0.015625)"/>
       <path id="DejaVuSans-Bold-70" d="M 1656 506 
L 1656 -1331 
L 538 -1331 
L 538 3500 
L 1656 3500 
L 1656 2988 
Q 1888 3294 2169 3439 
Q 2450 3584 2816 3584 
Q 3463 3584 3878 3070 
Q 4294 2556 4294 1747 
Q 4294 938 3878 423 
Q 3463 -91 2816 -91 
Q 2450 -91 2169 54 
Q 1888 200 1656 506 
z
M 2400 2772 
Q 2041 2772 1848 2508 
Q 1656 2244 1656 1747 
Q 1656 1250 1848 986 
Q 2041 722 2400 722 
Q 2759 722 2948 984 
Q 3138 1247 3138 1747 
Q 3138 2247 2948 2509 
Q 2759 2772 2400 2772 
z
" transform="scale(0.015625)"/>
       <path id="DejaVuSans-Bold-67" d="M 2919 594 
Q 2688 288 2409 144 
Q 2131 0 1766 0 
Q 1125 0 706 504 
Q 288 1009 288 1791 
Q 288 2575 706 3076 
Q 1125 3578 1766 3578 
Q 2131 3578 2409 3434 
Q 2688 3291 2919 2981 
L 2919 3500 
L 4044 3500 
L 4044 353 
Q 4044 -491 3511 -936 
Q 2978 -1381 1966 -1381 
Q 1638 -1381 1331 -1331 
Q 1025 -1281 716 -1178 
L 716 -306 
Q 1009 -475 1290 -558 
Q 1572 -641 1856 -641 
Q 2406 -641 2662 -400 
Q 2919 -159 2919 353 
L 2919 594 
z
M 2181 2772 
Q 1834 2772 1640 2515 
Q 1447 2259 1447 1791 
Q 1447 1309 1634 1061 
Q 1822 813 2181 813 
Q 2531 813 2725 1069 
Q 2919 1325 2919 1791 
Q 2919 2259 2725 2515 
Q 2531 2772 2181 2772 
z
" transform="scale(0.015625)"/>
       <path id="DejaVuSans-Bold-6c" d="M 538 4863 
L 1656 4863 
L 1656 0 
L 538 0 
L 538 4863 
z
" transform="scale(0.015625)"/>
       <path id="DejaVuSans-Bold-66" d="M 2841 4863 
L 2841 4128 
L 2222 4128 
Q 1984 4128 1890 4042 
Q 1797 3956 1797 3744 
L 1797 3500 
L 2753 3500 
L 2753 2700 
L 1797 2700 
L 1797 0 
L 678 0 
L 678 2700 
L 122 2700 
L 122 3500 
L 678 3500 
L 678 3744 
Q 678 4316 997 4589 
Q 1316 4863 1984 4863 
L 2841 4863 
z
" transform="scale(0.015625)"/>
       <path id="DejaVuSans-Bold-6f" d="M 2203 2784 
Q 1831 2784 1636 2517 
Q 1441 2250 1441 1747 
Q 1441 1244 1636 976 
Q 1831 709 2203 709 
Q 2569 709 2762 976 
Q 2956 1244 2956 1747 
Q 2956 2250 2762 2517 
Q 2569 2784 2203 2784 
z
M 2203 3584 
Q 3106 3584 3614 3096 
Q 4122 2609 4122 1747 
Q 4122 884 3614 396 
Q 3106 -91 2203 -91 
Q 1297 -91 786 396 
Q 275 884 275 1747 
Q 275 2609 786 3096 
Q 1297 3584 2203 3584 
z
" transform="scale(0.015625)"/>
       <path id="DejaVuSans-Bold-7a" d="M 366 3500 
L 3419 3500 
L 3419 2719 
L 1575 800 
L 3419 800 
L 3419 0 
L 288 0 
L 288 781 
L 2131 2700 
L 366 2700 
L 366 3500 
z
" transform="scale(0.015625)"/>
       <path id="DejaVuSans-Bold-6e" d="M 4056 2131 
L 4056 0 
L 2931 0 
L 2931 347 
L 2931 1631 
Q 2931 2084 2911 2256 
Q 2891 2428 2841 2509 
Q 2775 2619 2662 2680 
Q 2550 2741 2406 2741 
Q 2056 2741 1856 2470 
Q 1656 2200 1656 1722 
L 1656 0 
L 538 0 
L 538 3500 
L 1656 3500 
L 1656 2988 
Q 1909 3294 2193 3439 
Q 2478 3584 2822 3584 
Q 3428 3584 3742 3212 
Q 4056 2841 4056 2131 
z
" transform="scale(0.015625)"/>
       <path id="DejaVuSans-Bold-2d" d="M 347 2297 
L 2309 2297 
L 2309 1388 
L 347 1388 
L 347 2297 
z
" transform="scale(0.015625)"/>
       <path id="DejaVuSans-Bold-33" d="M 2981 2516 
Q 3453 2394 3698 2092 
Q 3944 1791 3944 1325 
Q 3944 631 3412 270 
Q 2881 -91 1863 -91 
Q 1503 -91 1142 -33 
Q 781 25 428 141 
L 428 1069 
Q 766 900 1098 814 
Q 1431 728 1753 728 
Q 2231 728 2486 893 
Q 2741 1059 2741 1369 
Q 2741 1688 2480 1852 
Q 2219 2016 1709 2016 
L 1228 2016 
L 1228 2791 
L 1734 2791 
Q 2188 2791 2409 2933 
Q 2631 3075 2631 3366 
Q 2631 3634 2415 3781 
Q 2200 3928 1806 3928 
Q 1516 3928 1219 3862 
Q 922 3797 628 3669 
L 628 4550 
Q 984 4650 1334 4700 
Q 1684 4750 2022 4750 
Q 2931 4750 3382 4451 
Q 3834 4153 3834 3553 
Q 3834 3144 3618 2883 
Q 3403 2622 2981 2516 
z
" transform="scale(0.015625)"/>
       <path id="DejaVuSans-Bold-4f" d="M 2719 3878 
Q 2169 3878 1866 3472 
Q 1563 3066 1563 2328 
Q 1563 1594 1866 1187 
Q 2169 781 2719 781 
Q 3272 781 3575 1187 
Q 3878 1594 3878 2328 
Q 3878 3066 3575 3472 
Q 3272 3878 2719 3878 
z
M 2719 4750 
Q 3844 4750 4481 4106 
Q 5119 3463 5119 2328 
Q 5119 1197 4481 553 
Q 3844 -91 2719 -91 
Q 1597 -91 958 553 
Q 319 1197 319 2328 
Q 319 3463 958 4106 
Q 1597 4750 2719 4750 
z
" transform="scale(0.015625)"/>
      </defs>
      <use xlink:href="#DejaVuSans-Bold-64"/>
      <use xlink:href="#DejaVuSans-Bold-61" transform="translate(71.582031 0)"/>
      <use xlink:href="#DejaVuSans-Bold-70" transform="translate(139.0625 0)"/>
      <use xlink:href="#DejaVuSans-Bold-61" transform="translate(210.644531 0)"/>
      <use xlink:href="#DejaVuSans-Bold-67" transform="translate(278.125 0)"/>
      <use xlink:href="#DejaVuSans-Bold-6c" transform="translate(349.707031 0)"/>
      <use xlink:href="#DejaVuSans-Bold-69" transform="translate(383.984375 0)"/>
      <use xlink:href="#DejaVuSans-Bold-66" transform="translate(418.261719 0)"/>
      <use xlink:href="#DejaVuSans-Bold-6c" transform="translate(461.767578 0)"/>
      <use xlink:href="#DejaVuSans-Bold-6f" transform="translate(496.044922 0)"/>
      <use xlink:href="#DejaVuSans-Bold-7a" transform="translate(564.746094 0)"/>
      <use xlink:href="#DejaVuSans-Bold-69" transform="translate(622.949219 0)"/>
      <use xlink:href="#DejaVuSans-Bold-6e" transform="translate(657.226562 0)"/>
      <use xlink:href="#DejaVuSans-Bold-2d" transform="translate(728.417969 0)"/>
      <use xlink:href="#DejaVuSans-Bold-33" transform="translate(769.921875 0)"/>
      <use xlink:href="#DejaVuSans-Bold-2d" transform="translate(839.501953 0)"/>
      <use xlink:href="#DejaVuSans-Bold-4f" transform="translate(881.005859 0)"/>
      <use xlink:href="#DejaVuSans-Bold-2d" transform="translate(967.890625 0)"/>
     </g>
     <!-- glucuronide plasma [µM] -->
     <g transform="translate(41.173875 308.617031) rotate(-90) scale(0.18 -0.18)">
      <defs>
       <path id="DejaVuSans-Bold-75" d="M 500 1363 
L 500 3500 
L 1625 3500 
L 1625 3150 
Q 1625 2866 1622 2436 
Q 1619 2006 1619 1863 
Q 1619 1441 1641 1255 
Q 1663 1069 1716 984 
Q 1784 875 1895 815 
Q 2006 756 2150 756 
Q 2500 756 2700 1025 
Q 2900 1294 2900 1772 
L 2900 3500 
L 4019 3500 
L 4019 0 
L 2900 0 
L 2900 506 
Q 2647 200 2364 54 
Q 2081 -91 1741 -91 
Q 1134 -91 817 281 
Q 500 653 500 1363 
z
" transform="scale(0.015625)"/>
       <path id="DejaVuSans-Bold-63" d="M 3366 3391 
L 3366 2478 
Q 3138 2634 2908 2709 
Q 2678 2784 2431 2784 
Q 1963 2784 1702 2511 
Q 1441 2238 1441 1747 
Q 1441 1256 1702 982 
Q 1963 709 2431 709 
Q 2694 709 2930 787 
Q 3166 866 3366 1019 
L 3366 103 
Q 3103 6 2833 -42 
Q 2563 -91 2291 -91 
Q 1344 -91 809 395 
Q 275 881 275 1747 
Q 275 2613 809 3098 
Q 1344 3584 2291 3584 
Q 2566 3584 2833 3536 
Q 3100 3488 3366 3391 
z
" transform="scale(0.015625)"/>
       <path id="DejaVuSans-Bold-73" d="M 3272 3391 
L 3272 2541 
Q 2913 2691 2578 2766 
Q 2244 2841 1947 2841 
Q 1628 2841 1473 2761 
Q 1319 2681 1319 2516 
Q 1319 2381 1436 2309 
Q 1553 2238 1856 2203 
L 2053 2175 
Q 2913 2066 3209 1816 
Q 3506 1566 3506 1031 
Q 3506 472 3093 190 
Q 2681 -91 1863 -91 
Q 1516 -91 1145 -36 
Q 775 19 384 128 
L 384 978 
Q 719 816 1070 734 
Q 1422 653 1784 653 
Q 2113 653 2278 743 
Q 2444 834 2444 1013 
Q 2444 1163 2330 1236 
Q 2216 1309 1875 1350 
L 1678 1375 
Q 931 1469 631 1722 
Q 331 1975 331 2491 
Q 331 3047 712 3315 
Q 1094 3584 1881 3584 
Q 2191 3584 2531 3537 
Q 2872 3491 3272 3391 
z
" transform="scale(0.015625)"/>
       <path id="DejaVuSans-Bold-b5" d="M 544 -1338 
L 544 3500 
L 1672 3500 
L 1672 1466 
Q 1672 1103 1828 926 
Q 1984 750 2303 750 
Q 2625 750 2781 926 
Q 2938 1103 2938 1466 
L 2938 3500 
L 4063 3500 
L 4063 1159 
Q 4063 938 4114 850 
Q 4166 763 4288 763 
Q 4344 763 4395 778 
Q 4447 794 4506 831 
L 4506 50 
Q 4341 -22 4195 -56 
Q 4050 -91 3909 -91 
Q 3631 -91 3454 26 
Q 3278 144 3169 403 
Q 3022 156 2811 32 
Q 2600 -91 2322 -91 
Q 2091 -91 1928 -17 
Q 1766 56 1672 206 
L 1672 -1338 
L 544 -1338 
z
" transform="scale(0.015625)"/>
       <path id="DejaVuSans-Bold-4d" d="M 588 4666 
L 2119 4666 
L 3181 2169 
L 4250 4666 
L 5778 4666 
L 5778 0 
L 4641 0 
L 4641 3413 
L 3566 897 
L 2803 897 
L 1728 3413 
L 1728 0 
L 588 0 
L 588 4666 
z
" transform="scale(0.015625)"/>
      </defs>
      <use xlink:href="#DejaVuSans-Bold-67"/>
      <use xlink:href="#DejaVuSans-Bold-6c" transform="translate(71.582031 0)"/>
      <use xlink:href="#DejaVuSans-Bold-75" transform="translate(105.859375 0)"/>
      <use xlink:href="#DejaVuSans-Bold-63" transform="translate(177.050781 0)"/>
      <use xlink:href="#DejaVuSans-Bold-75" transform="translate(236.328125 0)"/>
      <use xlink:href="#DejaVuSans-Bold-72" transform="translate(307.519531 0)"/>
      <use xlink:href="#DejaVuSans-Bold-6f" transform="translate(356.835938 0)"/>
      <use xlink:href="#DejaVuSans-Bold-6e" transform="translate(425.537109 0)"/>
      <use xlink:href="#DejaVuSans-Bold-69" transform="translate(496.728516 0)"/>
      <use xlink:href="#DejaVuSans-Bold-64" transform="translate(531.005859 0)"/>
      <use xlink:href="#DejaVuSans-Bold-65" transform="translate(602.587891 0)"/>
      <use xlink:href="#DejaVuSans-Bold-20" transform="translate(670.410156 0)"/>
      <use xlink:href="#DejaVuSans-Bold-70" transform="translate(705.224609 0)"/>
      <use xlink:href="#DejaVuSans-Bold-6c" transform="translate(776.806641 0)"/>
      <use xlink:href="#DejaVuSans-Bold-61" transform="translate(811.083984 0)"/>
      <use xlink:href="#DejaVuSans-Bold-73" transform="translate(878.564453 0)"/>
      <use xlink:href="#DejaVuSans-Bold-6d" transform="translate(938.085938 0)"/>
      <use xlink:href="#DejaVuSans-Bold-61" transform="translate(1042.285156 0)"/>
      <use xlink:href="#DejaVuSans-Bold-20" transform="translate(1109.765625 0)"/>
      <use xlink:href="#DejaVuSans-Bold-5b" transform="translate(1144.580078 0)"/>
      <use xlink:href="#DejaVuSans-Bold-b5" transform="translate(1190.283203 0)"/>
      <use xlink:href="#DejaVuSans-Bold-4d" transform="translate(1263.867188 0)"/>
      <use xlink:href="#DejaVuSans-Bold-5d" transform="translate(1363.378906 0)"/>
     </g>
    </g>
   </g>
   <g id="LineCollection_1">
    <path d="M 113.868875 304.292881 
L 113.868875 302.901572 
" clip-path="url(#p44279a8175)" style="fill: none; stroke: #f57c00"/>
    <path d="M 119.972 282.592367 
L 119.972 264.43397 
" clip-path="url(#p44279a8175)" style="fill: none; stroke: #f57c00"/>
    <path d="M 126.075125 221.099429 
L 126.075125 198.637291 
" clip-path="url(#p44279a8175)" style="fill: none; stroke: #f57c00"/>
    <path d="M 132.17825 226.078267 
L 132.17825 190.082052 
" clip-path="url(#p44279a8175)" style="fill: none; stroke: #f57c00"/>
    <path d="M 138.281375 234.486106 
L 138.281375 205.401763 
" clip-path="url(#p44279a8175)" style="fill: none; stroke: #f57c00"/>
    <path d="M 150.487625 263.628007 
L 150.487625 245.142363 
" clip-path="url(#p44279a8175)" style="fill: none; stroke: #f57c00"/>
    <path d="M 162.693875 274.128009 
L 162.693875 260.769998 
" clip-path="url(#p44279a8175)" style="fill: none; stroke: #f57c00"/>
    <path d="M 187.106375 290.246604 
L 187.106375 285.143751 
" clip-path="url(#p44279a8175)" style="fill: none; stroke: #f57c00"/>
    <path d="M 211.518875 297.782803 
L 211.518875 293.590682 
" clip-path="url(#p44279a8175)" style="fill: none; stroke: #f57c00"/>
    <path d="M 260.343875 302.083486 
L 260.343875 300.061375 
" clip-path="url(#p44279a8175)" style="fill: none; stroke: #f57c00"/>
    <path d="M 309.168875 303.960778 
L 309.168875 301.924411 
" clip-path="url(#p44279a8175)" style="fill: none; stroke: #f57c00"/>
    <path d="M 406.818875 305.609071 
L 406.818875 304.644026 
" clip-path="url(#p44279a8175)" style="fill: none; stroke: #f57c00"/>
   </g>
   <g id="LineCollection_2">
    <path d="M 113.868875 301.971624 
L 113.868875 298.462647 
" clip-path="url(#p44279a8175)" style="fill: none; stroke: #ef6c00"/>
    <path d="M 119.972 289.315797 
L 119.972 248.888691 
" clip-path="url(#p44279a8175)" style="fill: none; stroke: #ef6c00"/>
    <path d="M 126.075125 186.297607 
L 126.075125 86.483003 
" clip-path="url(#p44279a8175)" style="fill: none; stroke: #ef6c00"/>
    <path d="M 132.17825 129.240116 
L 132.17825 62.184855 
" clip-path="url(#p44279a8175)" style="fill: none; stroke: #ef6c00"/>
    <path d="M 138.281375 122.368684 
L 138.281375 55.8 
" clip-path="url(#p44279a8175)" style="fill: none; stroke: #ef6c00"/>
    <path d="M 150.487625 182.475654 
L 150.487625 129.010709 
" clip-path="url(#p44279a8175)" style="fill: none; stroke: #ef6c00"/>
    <path d="M 162.693875 226.290987 
L 162.693875 194.323198 
" clip-path="url(#p44279a8175)" style="fill: none; stroke: #ef6c00"/>
    <path d="M 187.106375 269.191701 
L 187.106375 254.051304 
" clip-path="url(#p44279a8175)" style="fill: none; stroke: #ef6c00"/>
    <path d="M 211.518875 284.008854 
L 211.518875 274.679062 
" clip-path="url(#p44279a8175)" style="fill: none; stroke: #ef6c00"/>
    <path d="M 260.343875 296.773114 
L 260.343875 288.94933 
" clip-path="url(#p44279a8175)" style="fill: none; stroke: #ef6c00"/>
    <path d="M 309.168875 299.466123 
L 309.168875 295.518809 
" clip-path="url(#p44279a8175)" style="fill: none; stroke: #ef6c00"/>
    <path d="M 406.818875 302.030474 
L 406.818875 298.707703 
" clip-path="url(#p44279a8175)" style="fill: none; stroke: #ef6c00"/>
   </g>
   <g id="line2d_16">
    <path d="M 113.868875 307.8 
L 115.0895 307.131306 
L 116.310125 303.484548 
L 117.53075 296.543244 
L 118.751375 287.141691 
L 124.8545 233.860225 
L 126.075125 225.453718 
L 127.29575 218.22943 
L 128.516375 212.187174 
L 129.737 207.283862 
L 130.957625 203.449985 
L 132.17825 200.601223 
L 133.398875 198.646422 
L 134.6195 197.492951 
L 135.840125 197.050184 
L 137.06075 197.231681 
L 138.281375 197.956456 
L 139.502 199.149633 
L 140.722625 200.742681 
L 141.94325 202.67338 
L 143.163875 204.885619 
L 145.605125 209.958856 
L 148.046375 215.622487 
L 152.928875 227.718567 
L 157.811375 239.718967 
L 161.47325 248.162458 
L 165.135125 255.928023 
L 167.576375 260.686526 
L 170.017625 265.099844 
L 172.458875 269.169492 
L 174.900125 272.903556 
L 177.341375 276.314798 
L 179.782625 279.419174 
L 182.223875 282.234665 
L 184.665125 284.78038 
L 187.106375 287.07587 
L 189.547625 289.140615 
L 191.988875 290.993643 
L 194.430125 292.653268 
L 198.092 294.81788 
L 201.753875 296.640661 
L 205.41575 298.170469 
L 209.077625 299.450591 
L 212.7395 300.518953 
L 217.622 301.670278 
L 222.5045 302.568834 
L 228.607625 303.416713 
L 234.71075 304.033703 
L 242.0345 304.554615 
L 251.7995 304.997932 
L 264.00575 305.308212 
L 282.315125 305.520366 
L 315.272 305.637357 
L 450.761375 305.750065 
L 481.277 305.771126 
L 481.277 305.771126 
" clip-path="url(#p44279a8175)" style="fill: none; stroke: #f57c00; stroke-width: 2; stroke-linecap: square"/>
   </g>
   <g id="line2d_17">
    <path d="M 113.868875 303.597226 
L 119.972 273.513169 
L 126.075125 209.86836 
L 132.17825 208.08016 
L 138.281375 219.943935 
L 150.487625 254.385185 
L 162.693875 267.449003 
L 187.106375 287.695178 
L 211.518875 295.686743 
L 260.343875 301.07243 
L 309.168875 302.942594 
L 406.818875 305.126548 
" clip-path="url(#p44279a8175)" style="fill: none; stroke-dasharray: 3.7,1.6; stroke-dashoffset: 0; stroke: #f57c00"/>
    <defs>
     <path id="mf380403089" d="M -3 3 
L 3 3 
L 3 -3 
L -3 -3 
z
" style="stroke: #000000; stroke-linejoin: miter"/>
    </defs>
    <g clip-path="url(#p44279a8175)">
     <use xlink:href="#mf380403089" x="113.868875" y="303.597226" style="fill: #f57c00; stroke: #000000; stroke-linejoin: miter"/>
     <use xlink:href="#mf380403089" x="119.972" y="273.513169" style="fill: #f57c00; stroke: #000000; stroke-linejoin: miter"/>
     <use xlink:href="#mf380403089" x="126.075125" y="209.86836" style="fill: #f57c00; stroke: #000000; stroke-linejoin: miter"/>
     <use xlink:href="#mf380403089" x="132.17825" y="208.08016" style="fill: #f57c00; stroke: #000000; stroke-linejoin: miter"/>
     <use xlink:href="#mf380403089" x="138.281375" y="219.943935" style="fill: #f57c00; stroke: #000000; stroke-linejoin: miter"/>
     <use xlink:href="#mf380403089" x="150.487625" y="254.385185" style="fill: #f57c00; stroke: #000000; stroke-linejoin: miter"/>
     <use xlink:href="#mf380403089" x="162.693875" y="267.449003" style="fill: #f57c00; stroke: #000000; stroke-linejoin: miter"/>
     <use xlink:href="#mf380403089" x="187.106375" y="287.695178" style="fill: #f57c00; stroke: #000000; stroke-linejoin: miter"/>
     <use xlink:href="#mf380403089" x="211.518875" y="295.686743" style="fill: #f57c00; stroke: #000000; stroke-linejoin: miter"/>
     <use xlink:href="#mf380403089" x="260.343875" y="301.07243" style="fill: #f57c00; stroke: #000000; stroke-linejoin: miter"/>
     <use xlink:href="#mf380403089" x="309.168875" y="302.942594" style="fill: #f57c00; stroke: #000000; stroke-linejoin: miter"/>
     <use xlink:href="#mf380403089" x="406.818875" y="305.126548" style="fill: #f57c00; stroke: #000000; stroke-linejoin: miter"/>
    </g>
   </g>
   <g id="line2d_18">
    <path d="M 113.868875 307.8 
L 115.0895 306.450463 
L 116.310125 299.097108 
L 117.53075 285.113664 
L 118.751375 266.188827 
L 124.8545 159.067432 
L 126.075125 142.173322 
L 127.29575 127.654211 
L 128.516375 115.509289 
L 129.737 105.651948 
L 130.957625 97.942748 
L 132.17825 92.212614 
L 133.398875 88.278792 
L 134.6195 85.955543 
L 135.840125 85.061114 
L 137.06075 85.422098 
L 138.281375 86.875975 
L 139.502 89.27243 
L 140.722625 92.473834 
L 141.94325 96.355188 
L 143.163875 100.80371 
L 145.605125 111.008416 
L 148.046375 122.404118 
L 152.928875 146.749998 
L 157.811375 170.909125 
L 161.47325 187.908838 
L 165.135125 203.543284 
L 167.576375 213.122886 
L 170.017625 222.006731 
L 172.458875 230.197767 
L 174.900125 237.712231 
L 177.341375 244.575834 
L 179.782625 250.820746 
L 182.223875 256.483248 
L 184.665125 261.601911 
L 187.106375 266.216209 
L 189.547625 270.365471 
L 191.988875 274.088127 
L 194.430125 277.421152 
L 196.871375 280.399701 
L 199.312625 283.056869 
L 201.753875 285.423562 
L 204.195125 287.528441 
L 206.636375 289.397931 
L 209.077625 291.056273 
L 211.518875 292.525604 
L 215.18075 294.418739 
L 218.842625 295.991631 
L 222.5045 297.295866 
L 226.166375 298.375424 
L 231.048875 299.528964 
L 235.931375 300.421486 
L 242.0345 301.256787 
L 248.137625 301.86006 
L 255.461375 302.366326 
L 265.226375 302.795492 
L 277.432625 303.096687 
L 295.742 303.308011 
L 331.140125 303.446921 
L 481.277 303.675358 
L 481.277 303.675358 
" clip-path="url(#p44279a8175)" style="fill: none; stroke: #ef6c00; stroke-width: 2; stroke-linecap: square"/>
   </g>
   <g id="line2d_19">
    <path d="M 113.868875 300.217135 
L 119.972 269.102244 
L 126.075125 136.390305 
L 132.17825 95.712486 
L 138.281375 89.084342 
L 150.487625 155.743181 
L 162.693875 210.307093 
L 187.106375 261.621503 
L 211.518875 279.343958 
L 260.343875 292.861222 
L 309.168875 297.492466 
L 406.818875 300.369088 
" clip-path="url(#p44279a8175)" style="fill: none; stroke-dasharray: 3.7,1.6; stroke-dashoffset: 0; stroke: #ef6c00"/>
    <defs>
     <path id="m44afc4fd99" d="M -3 3 
L 3 3 
L 3 -3 
L -3 -3 
z
" style="stroke: #000000; stroke-linejoin: miter"/>
    </defs>
    <g clip-path="url(#p44279a8175)">
     <use xlink:href="#m44afc4fd99" x="113.868875" y="300.217135" style="fill: #ef6c00; stroke: #000000; stroke-linejoin: miter"/>
     <use xlink:href="#m44afc4fd99" x="119.972" y="269.102244" style="fill: #ef6c00; stroke: #000000; stroke-linejoin: miter"/>
     <use xlink:href="#m44afc4fd99" x="126.075125" y="136.390305" style="fill: #ef6c00; stroke: #000000; stroke-linejoin: miter"/>
     <use xlink:href="#m44afc4fd99" x="132.17825" y="95.712486" style="fill: #ef6c00; stroke: #000000; stroke-linejoin: miter"/>
     <use xlink:href="#m44afc4fd99" x="138.281375" y="89.084342" style="fill: #ef6c00; stroke: #000000; stroke-linejoin: miter"/>
     <use xlink:href="#m44afc4fd99" x="150.487625" y="155.743181" style="fill: #ef6c00; stroke: #000000; stroke-linejoin: miter"/>
     <use xlink:href="#m44afc4fd99" x="162.693875" y="210.307093" style="fill: #ef6c00; stroke: #000000; stroke-linejoin: miter"/>
     <use xlink:href="#m44afc4fd99" x="187.106375" y="261.621503" style="fill: #ef6c00; stroke: #000000; stroke-linejoin: miter"/>
     <use xlink:href="#m44afc4fd99" x="211.518875" y="279.343958" style="fill: #ef6c00; stroke: #000000; stroke-linejoin: miter"/>
     <use xlink:href="#m44afc4fd99" x="260.343875" y="292.861222" style="fill: #ef6c00; stroke: #000000; stroke-linejoin: miter"/>
     <use xlink:href="#m44afc4fd99" x="309.168875" y="297.492466" style="fill: #ef6c00; stroke: #000000; stroke-linejoin: miter"/>
     <use xlink:href="#m44afc4fd99" x="406.818875" y="300.369088" style="fill: #ef6c00; stroke: #000000; stroke-linejoin: miter"/>
    </g>
   </g>
   <g id="patch_3">
    <path d="M 89.456375 320.4 
L 89.456375 43.2 
" style="fill: none; stroke: #000000; stroke-width: 0.8; stroke-linejoin: miter; stroke-linecap: square"/>
   </g>
   <g id="patch_4">
    <path d="M 480.056375 320.4 
L 480.056375 43.2 
" style="fill: none; stroke: #000000; stroke-width: 0.8; stroke-linejoin: miter; stroke-linecap: square"/>
   </g>
   <g id="patch_5">
    <path d="M 89.456375 320.4 
L 480.056375 320.4 
" style="fill: none; stroke: #000000; stroke-width: 0.8; stroke-linejoin: miter; stroke-linecap: square"/>
   </g>
   <g id="patch_6">
    <path d="M 89.456375 43.2 
L 480.056375 43.2 
" style="fill: none; stroke: #000000; stroke-width: 0.8; stroke-linejoin: miter; stroke-linecap: square"/>
   </g>
   <g id="legend_1">
    <g id="patch_7">
     <path d="M 331.132938 109.9125 
L 473.056375 109.9125 
Q 475.056375 109.9125 475.056375 107.9125 
L 475.056375 50.2 
Q 475.056375 48.2 473.056375 48.2 
L 331.132938 48.2 
Q 329.132938 48.2 329.132938 50.2 
L 329.132938 107.9125 
Q 329.132938 109.9125 331.132938 109.9125 
z
" style="fill: #ffffff; opacity: 0.8; stroke: #cccccc; stroke-linejoin: miter"/>
    </g>
    <g id="line2d_20">
     <path d="M 333.132938 56.298437 
L 353.132938 56.298437 
" style="fill: none; stroke: #f57c00; stroke-width: 2; stroke-linecap: square"/>
    </g>
    <g id="line2d_21"/>
    <g id="text_18">
     <!-- 5 mg PO -->
     <g transform="translate(361.132938 59.798437) scale(0.1 -0.1)">
      <defs>
       <path id="DejaVuSans-20" transform="scale(0.015625)"/>
       <path id="DejaVuSans-6d" d="M 3328 2828 
Q 3544 3216 3844 3400 
Q 4144 3584 4550 3584 
Q 5097 3584 5394 3201 
Q 5691 2819 5691 2113 
L 5691 0 
L 5113 0 
L 5113 2094 
Q 5113 2597 4934 2840 
Q 4756 3084 4391 3084 
Q 3944 3084 3684 2787 
Q 3425 2491 3425 1978 
L 3425 0 
L 2847 0 
L 2847 2094 
Q 2847 2600 2669 2842 
Q 2491 3084 2119 3084 
Q 1678 3084 1418 2786 
Q 1159 2488 1159 1978 
L 1159 0 
L 581 0 
L 581 3500 
L 1159 3500 
L 1159 2956 
Q 1356 3278 1631 3431 
Q 1906 3584 2284 3584 
Q 2666 3584 2933 3390 
Q 3200 3197 3328 2828 
z
" transform="scale(0.015625)"/>
       <path id="DejaVuSans-67" d="M 2906 1791 
Q 2906 2416 2648 2759 
Q 2391 3103 1925 3103 
Q 1463 3103 1205 2759 
Q 947 2416 947 1791 
Q 947 1169 1205 825 
Q 1463 481 1925 481 
Q 2391 481 2648 825 
Q 2906 1169 2906 1791 
z
M 3481 434 
Q 3481 -459 3084 -895 
Q 2688 -1331 1869 -1331 
Q 1566 -1331 1297 -1286 
Q 1028 -1241 775 -1147 
L 775 -588 
Q 1028 -725 1275 -790 
Q 1522 -856 1778 -856 
Q 2344 -856 2625 -561 
Q 2906 -266 2906 331 
L 2906 616 
Q 2728 306 2450 153 
Q 2172 0 1784 0 
Q 1141 0 747 490 
Q 353 981 353 1791 
Q 353 2603 747 3093 
Q 1141 3584 1784 3584 
Q 2172 3584 2450 3431 
Q 2728 3278 2906 2969 
L 2906 3500 
L 3481 3500 
L 3481 434 
z
" transform="scale(0.015625)"/>
       <path id="DejaVuSans-50" d="M 1259 4147 
L 1259 2394 
L 2053 2394 
Q 2494 2394 2734 2622 
Q 2975 2850 2975 3272 
Q 2975 3691 2734 3919 
Q 2494 4147 2053 4147 
L 1259 4147 
z
M 628 4666 
L 2053 4666 
Q 2838 4666 3239 4311 
Q 3641 3956 3641 3272 
Q 3641 2581 3239 2228 
Q 2838 1875 2053 1875 
L 1259 1875 
L 1259 0 
L 628 0 
L 628 4666 
z
" transform="scale(0.015625)"/>
       <path id="DejaVuSans-4f" d="M 2522 4238 
Q 1834 4238 1429 3725 
Q 1025 3213 1025 2328 
Q 1025 1447 1429 934 
Q 1834 422 2522 422 
Q 3209 422 3611 934 
Q 4013 1447 4013 2328 
Q 4013 3213 3611 3725 
Q 3209 4238 2522 4238 
z
M 2522 4750 
Q 3503 4750 4090 4092 
Q 4678 3434 4678 2328 
Q 4678 1225 4090 567 
Q 3503 -91 2522 -91 
Q 1538 -91 948 565 
Q 359 1222 359 2328 
Q 359 3434 948 4092 
Q 1538 4750 2522 4750 
z
" transform="scale(0.015625)"/>
      </defs>
      <use xlink:href="#DejaVuSans-35"/>
      <use xlink:href="#DejaVuSans-20" transform="translate(63.623047 0)"/>
      <use xlink:href="#DejaVuSans-6d" transform="translate(95.410156 0)"/>
      <use xlink:href="#DejaVuSans-67" transform="translate(192.822266 0)"/>
      <use xlink:href="#DejaVuSans-20" transform="translate(256.298828 0)"/>
      <use xlink:href="#DejaVuSans-50" transform="translate(288.085938 0)"/>
      <use xlink:href="#DejaVuSans-4f" transform="translate(348.388672 0)"/>
     </g>
    </g>
    <g id="LineCollection_3">
     <path d="M 343.132938 75.976562 
L 343.132938 65.976562 
" style="fill: none; stroke: #f57c00"/>
    </g>
    <g id="line2d_22">
     <path d="M 333.132938 70.976562 
L 353.132938 70.976562 
" style="fill: none; stroke-dasharray: 3.7,1.6; stroke-dashoffset: 0; stroke: #f57c00"/>
    </g>
    <g id="line2d_23">
     <g>
      <use xlink:href="#mf380403089" x="343.132938" y="70.976562" style="fill: #f57c00; stroke: #000000; stroke-linejoin: miter"/>
     </g>
    </g>
    <g id="text_19">
     <!-- 5 mg PO±SD (n=14) -->
     <g transform="translate(361.132938 74.476562) scale(0.1 -0.1)">
      <defs>
       <path id="DejaVuSans-b1" d="M 2944 4013 
L 2944 2803 
L 4684 2803 
L 4684 2272 
L 2944 2272 
L 2944 1063 
L 2419 1063 
L 2419 2272 
L 678 2272 
L 678 2803 
L 2419 2803 
L 2419 4013 
L 2944 4013 
z
M 678 531 
L 4684 531 
L 4684 0 
L 678 0 
L 678 531 
z
" transform="scale(0.015625)"/>
       <path id="DejaVuSans-53" d="M 3425 4513 
L 3425 3897 
Q 3066 4069 2747 4153 
Q 2428 4238 2131 4238 
Q 1616 4238 1336 4038 
Q 1056 3838 1056 3469 
Q 1056 3159 1242 3001 
Q 1428 2844 1947 2747 
L 2328 2669 
Q 3034 2534 3370 2195 
Q 3706 1856 3706 1288 
Q 3706 609 3251 259 
Q 2797 -91 1919 -91 
Q 1588 -91 1214 -16 
Q 841 59 441 206 
L 441 856 
Q 825 641 1194 531 
Q 1563 422 1919 422 
Q 2459 422 2753 634 
Q 3047 847 3047 1241 
Q 3047 1584 2836 1778 
Q 2625 1972 2144 2069 
L 1759 2144 
Q 1053 2284 737 2584 
Q 422 2884 422 3419 
Q 422 4038 858 4394 
Q 1294 4750 2059 4750 
Q 2388 4750 2728 4690 
Q 3069 4631 3425 4513 
z
" transform="scale(0.015625)"/>
       <path id="DejaVuSans-44" d="M 1259 4147 
L 1259 519 
L 2022 519 
Q 2988 519 3436 956 
Q 3884 1394 3884 2338 
Q 3884 3275 3436 3711 
Q 2988 4147 2022 4147 
L 1259 4147 
z
M 628 4666 
L 1925 4666 
Q 3281 4666 3915 4102 
Q 4550 3538 4550 2338 
Q 4550 1131 3912 565 
Q 3275 0 1925 0 
L 628 0 
L 628 4666 
z
" transform="scale(0.015625)"/>
       <path id="DejaVuSans-28" d="M 1984 4856 
Q 1566 4138 1362 3434 
Q 1159 2731 1159 2009 
Q 1159 1288 1364 580 
Q 1569 -128 1984 -844 
L 1484 -844 
Q 1016 -109 783 600 
Q 550 1309 550 2009 
Q 550 2706 781 3412 
Q 1013 4119 1484 4856 
L 1984 4856 
z
" transform="scale(0.015625)"/>
       <path id="DejaVuSans-6e" d="M 3513 2113 
L 3513 0 
L 2938 0 
L 2938 2094 
Q 2938 2591 2744 2837 
Q 2550 3084 2163 3084 
Q 1697 3084 1428 2787 
Q 1159 2491 1159 1978 
L 1159 0 
L 581 0 
L 581 3500 
L 1159 3500 
L 1159 2956 
Q 1366 3272 1645 3428 
Q 1925 3584 2291 3584 
Q 2894 3584 3203 3211 
Q 3513 2838 3513 2113 
z
" transform="scale(0.015625)"/>
       <path id="DejaVuSans-3d" d="M 678 2906 
L 4684 2906 
L 4684 2381 
L 678 2381 
L 678 2906 
z
M 678 1631 
L 4684 1631 
L 4684 1100 
L 678 1100 
L 678 1631 
z
" transform="scale(0.015625)"/>
       <path id="DejaVuSans-34" d="M 2419 4116 
L 825 1625 
L 2419 1625 
L 2419 4116 
z
M 2253 4666 
L 3047 4666 
L 3047 1625 
L 3713 1625 
L 3713 1100 
L 3047 1100 
L 3047 0 
L 2419 0 
L 2419 1100 
L 313 1100 
L 313 1709 
L 2253 4666 
z
" transform="scale(0.015625)"/>
       <path id="DejaVuSans-29" d="M 513 4856 
L 1013 4856 
Q 1481 4119 1714 3412 
Q 1947 2706 1947 2009 
Q 1947 1309 1714 600 
Q 1481 -109 1013 -844 
L 513 -844 
Q 928 -128 1133 580 
Q 1338 1288 1338 2009 
Q 1338 2731 1133 3434 
Q 928 4138 513 4856 
z
" transform="scale(0.015625)"/>
      </defs>
      <use xlink:href="#DejaVuSans-35"/>
      <use xlink:href="#DejaVuSans-20" transform="translate(63.623047 0)"/>
      <use xlink:href="#DejaVuSans-6d" transform="translate(95.410156 0)"/>
      <use xlink:href="#DejaVuSans-67" transform="translate(192.822266 0)"/>
      <use xlink:href="#DejaVuSans-20" transform="translate(256.298828 0)"/>
      <use xlink:href="#DejaVuSans-50" transform="translate(288.085938 0)"/>
      <use xlink:href="#DejaVuSans-4f" transform="translate(348.388672 0)"/>
      <use xlink:href="#DejaVuSans-b1" transform="translate(427.099609 0)"/>
      <use xlink:href="#DejaVuSans-53" transform="translate(510.888672 0)"/>
      <use xlink:href="#DejaVuSans-44" transform="translate(574.365234 0)"/>
      <use xlink:href="#DejaVuSans-20" transform="translate(651.367188 0)"/>
      <use xlink:href="#DejaVuSans-28" transform="translate(683.154297 0)"/>
      <use xlink:href="#DejaVuSans-6e" transform="translate(722.167969 0)"/>
      <use xlink:href="#DejaVuSans-3d" transform="translate(785.546875 0)"/>
      <use xlink:href="#DejaVuSans-31" transform="translate(869.335938 0)"/>
      <use xlink:href="#DejaVuSans-34" transform="translate(932.958984 0)"/>
      <use xlink:href="#DejaVuSans-29" transform="translate(996.582031 0)"/>
     </g>
    </g>
    <g id="line2d_24">
     <path d="M 333.132938 85.654687 
L 353.132938 85.654687 
" style="fill: none; stroke: #ef6c00; stroke-width: 2; stroke-linecap: square"/>
    </g>
    <g id="line2d_25"/>
    <g id="text_20">
     <!-- 10 mg PO -->
     <g transform="translate(361.132938 89.154687) scale(0.1 -0.1)">
      <use xlink:href="#DejaVuSans-31"/>
      <use xlink:href="#DejaVuSans-30" transform="translate(63.623047 0)"/>
      <use xlink:href="#DejaVuSans-20" transform="translate(127.246094 0)"/>
      <use xlink:href="#DejaVuSans-6d" transform="translate(159.033203 0)"/>
      <use xlink:href="#DejaVuSans-67" transform="translate(256.445312 0)"/>
      <use xlink:href="#DejaVuSans-20" transform="translate(319.921875 0)"/>
      <use xlink:href="#DejaVuSans-50" transform="translate(351.708984 0)"/>
      <use xlink:href="#DejaVuSans-4f" transform="translate(412.011719 0)"/>
     </g>
    </g>
    <g id="LineCollection_4">
     <path d="M 343.132938 105.332812 
L 343.132938 95.332812 
" style="fill: none; stroke: #ef6c00"/>
    </g>
    <g id="line2d_26">
     <path d="M 333.132938 100.332812 
L 353.132938 100.332812 
" style="fill: none; stroke-dasharray: 3.7,1.6; stroke-dashoffset: 0; stroke: #ef6c00"/>
    </g>
    <g id="line2d_27">
     <g>
      <use xlink:href="#m44afc4fd99" x="343.132938" y="100.332812" style="fill: #ef6c00; stroke: #000000; stroke-linejoin: miter"/>
     </g>
    </g>
    <g id="text_21">
     <!-- 10 mg PO±SD (n=14) -->
     <g transform="translate(361.132938 103.832812) scale(0.1 -0.1)">
      <use xlink:href="#DejaVuSans-31"/>
      <use xlink:href="#DejaVuSans-30" transform="translate(63.623047 0)"/>
      <use xlink:href="#DejaVuSans-20" transform="translate(127.246094 0)"/>
      <use xlink:href="#DejaVuSans-6d" transform="translate(159.033203 0)"/>
      <use xlink:href="#DejaVuSans-67" transform="translate(256.445312 0)"/>
      <use xlink:href="#DejaVuSans-20" transform="translate(319.921875 0)"/>
      <use xlink:href="#DejaVuSans-50" transform="translate(351.708984 0)"/>
      <use xlink:href="#DejaVuSans-4f" transform="translate(412.011719 0)"/>
      <use xlink:href="#DejaVuSans-b1" transform="translate(490.722656 0)"/>
      <use xlink:href="#DejaVuSans-53" transform="translate(574.511719 0)"/>
      <use xlink:href="#DejaVuSans-44" transform="translate(637.988281 0)"/>
      <use xlink:href="#DejaVuSans-20" transform="translate(714.990234 0)"/>
      <use xlink:href="#DejaVuSans-28" transform="translate(746.777344 0)"/>
      <use xlink:href="#DejaVuSans-6e" transform="translate(785.791016 0)"/>
      <use xlink:href="#DejaVuSans-3d" transform="translate(849.169922 0)"/>
      <use xlink:href="#DejaVuSans-31" transform="translate(932.958984 0)"/>
      <use xlink:href="#DejaVuSans-34" transform="translate(996.582031 0)"/>
      <use xlink:href="#DejaVuSans-29" transform="translate(1060.205078 0)"/>
     </g>
    </g>
   </g>
  </g>
  <g id="text_22">
   <!-- Yang2013 (Healthy) -->
   <g transform="translate(166.904812 22.396875) scale(0.2 -0.2)">
    <defs>
     <path id="DejaVuSans-Bold-59" d="M -63 4666 
L 1253 4666 
L 2316 3003 
L 3378 4666 
L 4697 4666 
L 2919 1966 
L 2919 0 
L 1716 0 
L 1716 1966 
L -63 4666 
z
" transform="scale(0.015625)"/>
     <path id="DejaVuSans-Bold-32" d="M 1844 884 
L 3897 884 
L 3897 0 
L 506 0 
L 506 884 
L 2209 2388 
Q 2438 2594 2547 2791 
Q 2656 2988 2656 3200 
Q 2656 3528 2436 3728 
Q 2216 3928 1850 3928 
Q 1569 3928 1234 3808 
Q 900 3688 519 3450 
L 519 4475 
Q 925 4609 1322 4679 
Q 1719 4750 2100 4750 
Q 2938 4750 3402 4381 
Q 3866 4013 3866 3353 
Q 3866 2972 3669 2642 
Q 3472 2313 2841 1759 
L 1844 884 
z
" transform="scale(0.015625)"/>
     <path id="DejaVuSans-Bold-30" d="M 2944 2338 
Q 2944 3213 2780 3570 
Q 2616 3928 2228 3928 
Q 1841 3928 1675 3570 
Q 1509 3213 1509 2338 
Q 1509 1453 1675 1090 
Q 1841 728 2228 728 
Q 2613 728 2778 1090 
Q 2944 1453 2944 2338 
z
M 4147 2328 
Q 4147 1169 3647 539 
Q 3147 -91 2228 -91 
Q 1306 -91 806 539 
Q 306 1169 306 2328 
Q 306 3491 806 4120 
Q 1306 4750 2228 4750 
Q 3147 4750 3647 4120 
Q 4147 3491 4147 2328 
z
" transform="scale(0.015625)"/>
     <path id="DejaVuSans-Bold-31" d="M 750 831 
L 1813 831 
L 1813 3847 
L 722 3622 
L 722 4441 
L 1806 4666 
L 2950 4666 
L 2950 831 
L 4013 831 
L 4013 0 
L 750 0 
L 750 831 
z
" transform="scale(0.015625)"/>
     <path id="DejaVuSans-Bold-28" d="M 2413 -844 
L 1484 -844 
Q 1006 -72 778 623 
Q 550 1319 550 2003 
Q 550 2688 779 3389 
Q 1009 4091 1484 4856 
L 2413 4856 
Q 2013 4116 1813 3408 
Q 1613 2700 1613 2009 
Q 1613 1319 1811 609 
Q 2009 -100 2413 -844 
z
" transform="scale(0.015625)"/>
     <path id="DejaVuSans-Bold-48" d="M 588 4666 
L 1791 4666 
L 1791 2888 
L 3566 2888 
L 3566 4666 
L 4769 4666 
L 4769 0 
L 3566 0 
L 3566 1978 
L 1791 1978 
L 1791 0 
L 588 0 
L 588 4666 
z
" transform="scale(0.015625)"/>
     <path id="DejaVuSans-Bold-79" d="M 78 3500 
L 1197 3500 
L 2138 1125 
L 2938 3500 
L 4056 3500 
L 2584 -331 
Q 2363 -916 2067 -1148 
Q 1772 -1381 1288 -1381 
L 641 -1381 
L 641 -647 
L 991 -647 
Q 1275 -647 1404 -556 
Q 1534 -466 1606 -231 
L 1638 -134 
L 78 3500 
z
" transform="scale(0.015625)"/>
     <path id="DejaVuSans-Bold-29" d="M 513 -844 
Q 913 -100 1113 609 
Q 1313 1319 1313 2009 
Q 1313 2700 1113 3408 
Q 913 4116 513 4856 
L 1441 4856 
Q 1916 4091 2145 3389 
Q 2375 2688 2375 2003 
Q 2375 1319 2147 623 
Q 1919 -72 1441 -844 
L 513 -844 
z
" transform="scale(0.015625)"/>
    </defs>
    <use xlink:href="#DejaVuSans-Bold-59"/>
    <use xlink:href="#DejaVuSans-Bold-61" transform="translate(63.287109 0)"/>
    <use xlink:href="#DejaVuSans-Bold-6e" transform="translate(130.767578 0)"/>
    <use xlink:href="#DejaVuSans-Bold-67" transform="translate(201.958984 0)"/>
    <use xlink:href="#DejaVuSans-Bold-32" transform="translate(273.541016 0)"/>
    <use xlink:href="#DejaVuSans-Bold-30" transform="translate(343.121094 0)"/>
    <use xlink:href="#DejaVuSans-Bold-31" transform="translate(412.701172 0)"/>
    <use xlink:href="#DejaVuSans-Bold-33" transform="translate(482.28125 0)"/>
    <use xlink:href="#DejaVuSans-Bold-20" transform="translate(551.861328 0)"/>
    <use xlink:href="#DejaVuSans-Bold-28" transform="translate(586.675781 0)"/>
    <use xlink:href="#DejaVuSans-Bold-48" transform="translate(632.378906 0)"/>
    <use xlink:href="#DejaVuSans-Bold-65" transform="translate(716.070312 0)"/>
    <use xlink:href="#DejaVuSans-Bold-61" transform="translate(783.892578 0)"/>
    <use xlink:href="#DejaVuSans-Bold-6c" transform="translate(851.373047 0)"/>
    <use xlink:href="#DejaVuSans-Bold-74" transform="translate(885.650391 0)"/>
    <use xlink:href="#DejaVuSans-Bold-68" transform="translate(933.453125 0)"/>
    <use xlink:href="#DejaVuSans-Bold-79" transform="translate(1004.644531 0)"/>
    <use xlink:href="#DejaVuSans-Bold-29" transform="translate(1069.830078 0)"/>
   </g>
  </g>
 </g>
 <defs>
  <clipPath id="p44279a8175">
   <rect x="89.456375" y="43.2" width="390.6" height="277.2"/>
  </clipPath>
 </defs>
</svg>
