<?xml version="1.0" encoding="utf-8" standalone="no"?>
<!DOCTYPE svg PUBLIC "-//W3C//DTD SVG 1.1//EN"
  "http://www.w3.org/Graphics/SVG/1.1/DTD/svg11.dtd">
<svg xmlns:xlink="http://www.w3.org/1999/xlink" width="720pt" height="720pt" viewBox="0 0 720 720" xmlns="http://www.w3.org/2000/svg" version="1.1">
 <metadata>
  <rdf:RDF xmlns:dc="http://purl.org/dc/elements/1.1/" xmlns:cc="http://creativecommons.org/ns#" xmlns:rdf="http://www.w3.org/1999/02/22-rdf-syntax-ns#">
   <cc:Work>
    <dc:type rdf:resource="http://purl.org/dc/dcmitype/StillImage"/>
    <dc:date>2025-06-10T18:07:03.746492</dc:date>
    <dc:format>image/svg+xml</dc:format>
    <dc:creator>
     <cc:Agent>
      <dc:title>Matplotlib v3.9.1, https://matplotlib.org/</dc:title>
     </cc:Agent>
    </dc:creator>
   </cc:Work>
  </rdf:RDF>
 </metadata>
 <defs>
  <style type="text/css">*{stroke-linejoin: round; stroke-linecap: butt}</style>
 </defs>
 <g id="figure_1">
  <g id="patch_1">
   <path d="M 0 720 
L 720 720 
L 720 0 
L 0 0 
z
" style="fill: #ffffff"/>
  </g>
  <g id="axes_1">
   <g id="patch_2">
    <path d="M 90 338.4 
L 343.636364 338.4 
L 343.636364 86.4 
L 90 86.4 
z
" style="fill: #ffffff"/>
   </g>
   <g id="PolyCollection_1">
    <defs>
     <path id="mc62bbe5c41" d="M 103.684353 -407.857502 
L 103.684353 -409.980354 
L 106.309648 -407.259438 
L 108.934944 -403.43932 
L 111.560239 -401.051746 
L 114.185535 -399.810208 
L 116.810831 -393.054545 
L 308.457404 -411.369298 
L 311.082699 -410.5961 
L 313.707995 -407.745815 
L 316.33329 -405.530572 
L 318.958586 -402.023106 
L 321.583881 -399.900167 
L 321.583881 -407.857502 
L 321.583881 -407.857502 
L 318.958586 -407.857502 
L 316.33329 -407.857502 
L 313.707995 -407.857502 
L 311.082699 -407.857502 
L 308.457404 -407.857502 
L 116.810831 -407.857502 
L 114.185535 -407.857502 
L 111.560239 -407.857502 
L 108.934944 -407.857502 
L 106.309648 -407.857502 
L 103.684353 -407.857502 
z
" style="stroke: #ff8c00; stroke-opacity: 0.4"/>
    </defs>
    <g clip-path="url(#peba6f3a9b3)">
     <use xlink:href="#mc62bbe5c41" x="0" y="720" style="fill: #ff8c00; fill-opacity: 0.4; stroke: #ff8c00; stroke-opacity: 0.4"/>
    </g>
   </g>
   <g id="matplotlib.axis_1">
    <g id="xtick_1">
     <g id="line2d_1">
      <defs>
       <path id="ma07750df6c" d="M 0 0 
L 0 3.5 
" style="stroke: #000000; stroke-width: 0.8"/>
      </defs>
      <g>
       <use xlink:href="#ma07750df6c" x="101.059057" y="338.4" style="stroke: #000000; stroke-width: 0.8"/>
      </g>
     </g>
    </g>
    <g id="xtick_2">
     <g id="line2d_2">
      <g>
       <use xlink:href="#ma07750df6c" x="155.752714" y="338.4" style="stroke: #000000; stroke-width: 0.8"/>
      </g>
     </g>
    </g>
    <g id="xtick_3">
     <g id="line2d_3">
      <g>
       <use xlink:href="#ma07750df6c" x="210.446371" y="338.4" style="stroke: #000000; stroke-width: 0.8"/>
      </g>
     </g>
    </g>
    <g id="xtick_4">
     <g id="line2d_4">
      <g>
       <use xlink:href="#ma07750df6c" x="265.140028" y="338.4" style="stroke: #000000; stroke-width: 0.8"/>
      </g>
     </g>
    </g>
    <g id="xtick_5">
     <g id="line2d_5">
      <g>
       <use xlink:href="#ma07750df6c" x="319.833684" y="338.4" style="stroke: #000000; stroke-width: 0.8"/>
      </g>
     </g>
    </g>
   </g>
   <g id="matplotlib.axis_2">
    <g id="ytick_1">
     <g id="line2d_6">
      <defs>
       <path id="md7907dc364" d="M 0 0 
L -3.5 0 
" style="stroke: #000000; stroke-width: 0.8"/>
      </defs>
      <g>
       <use xlink:href="#md7907dc364" x="90" y="312.142498" style="stroke: #000000; stroke-width: 0.8"/>
      </g>
     </g>
     <g id="text_1">
      <!-- 0 -->
      <g transform="translate(76.6375 315.941717) scale(0.1 -0.1)">
       <defs>
        <path id="DejaVuSans-30" d="M 2034 4250 
Q 1547 4250 1301 3770 
Q 1056 3291 1056 2328 
Q 1056 1369 1301 889 
Q 1547 409 2034 409 
Q 2525 409 2770 889 
Q 3016 1369 3016 2328 
Q 3016 3291 2770 3770 
Q 2525 4250 2034 4250 
z
M 2034 4750 
Q 2819 4750 3233 4129 
Q 3647 3509 3647 2328 
Q 3647 1150 3233 529 
Q 2819 -91 2034 -91 
Q 1250 -91 836 529 
Q 422 1150 422 2328 
Q 422 3509 836 4129 
Q 1250 4750 2034 4750 
z
" transform="scale(0.015625)"/>
       </defs>
       <use xlink:href="#DejaVuSans-30"/>
      </g>
     </g>
    </g>
    <g id="ytick_2">
     <g id="line2d_7">
      <g>
       <use xlink:href="#md7907dc364" x="90" y="259.741482" style="stroke: #000000; stroke-width: 0.8"/>
      </g>
     </g>
     <g id="text_2">
      <!-- 5 -->
      <g transform="translate(76.6375 263.540701) scale(0.1 -0.1)">
       <defs>
        <path id="DejaVuSans-35" d="M 691 4666 
L 3169 4666 
L 3169 4134 
L 1269 4134 
L 1269 2991 
Q 1406 3038 1543 3061 
Q 1681 3084 1819 3084 
Q 2600 3084 3056 2656 
Q 3513 2228 3513 1497 
Q 3513 744 3044 326 
Q 2575 -91 1722 -91 
Q 1428 -91 1123 -41 
Q 819 9 494 109 
L 494 744 
Q 775 591 1075 516 
Q 1375 441 1709 441 
Q 2250 441 2565 725 
Q 2881 1009 2881 1497 
Q 2881 1984 2565 2268 
Q 2250 2553 1709 2553 
Q 1456 2553 1204 2497 
Q 953 2441 691 2322 
L 691 4666 
z
" transform="scale(0.015625)"/>
       </defs>
       <use xlink:href="#DejaVuSans-35"/>
      </g>
     </g>
    </g>
    <g id="ytick_3">
     <g id="line2d_8">
      <g>
       <use xlink:href="#md7907dc364" x="90" y="207.340467" style="stroke: #000000; stroke-width: 0.8"/>
      </g>
     </g>
     <g id="text_3">
      <!-- 10 -->
      <g transform="translate(70.275 211.139685) scale(0.1 -0.1)">
       <defs>
        <path id="DejaVuSans-31" d="M 794 531 
L 1825 531 
L 1825 4091 
L 703 3866 
L 703 4441 
L 1819 4666 
L 2450 4666 
L 2450 531 
L 3481 531 
L 3481 0 
L 794 0 
L 794 531 
z
" transform="scale(0.015625)"/>
       </defs>
       <use xlink:href="#DejaVuSans-31"/>
       <use xlink:href="#DejaVuSans-30" x="63.623047"/>
      </g>
     </g>
    </g>
    <g id="ytick_4">
     <g id="line2d_9">
      <g>
       <use xlink:href="#md7907dc364" x="90" y="154.939451" style="stroke: #000000; stroke-width: 0.8"/>
      </g>
     </g>
     <g id="text_4">
      <!-- 15 -->
      <g transform="translate(70.275 158.73867) scale(0.1 -0.1)">
       <use xlink:href="#DejaVuSans-31"/>
       <use xlink:href="#DejaVuSans-35" x="63.623047"/>
      </g>
     </g>
    </g>
    <g id="ytick_5">
     <g id="line2d_10">
      <g>
       <use xlink:href="#md7907dc364" x="90" y="102.538435" style="stroke: #000000; stroke-width: 0.8"/>
      </g>
     </g>
     <g id="text_5">
      <!-- 20 -->
      <g transform="translate(70.275 106.337654) scale(0.1 -0.1)">
       <defs>
        <path id="DejaVuSans-32" d="M 1228 531 
L 3431 531 
L 3431 0 
L 469 0 
L 469 531 
Q 828 903 1448 1529 
Q 2069 2156 2228 2338 
Q 2531 2678 2651 2914 
Q 2772 3150 2772 3378 
Q 2772 3750 2511 3984 
Q 2250 4219 1831 4219 
Q 1534 4219 1204 4116 
Q 875 4013 500 3803 
L 500 4441 
Q 881 4594 1212 4672 
Q 1544 4750 1819 4750 
Q 2544 4750 2975 4387 
Q 3406 4025 3406 3419 
Q 3406 3131 3298 2873 
Q 3191 2616 2906 2266 
Q 2828 2175 2409 1742 
Q 1991 1309 1228 531 
z
" transform="scale(0.015625)"/>
       </defs>
       <use xlink:href="#DejaVuSans-32"/>
       <use xlink:href="#DejaVuSans-30" x="63.623047"/>
      </g>
     </g>
    </g>
    <g id="text_6">
     <!-- KI__UGE -->
     <g transform="translate(63.445625 236.93625) rotate(-90) scale(0.12 -0.12)">
      <defs>
       <path id="DejaVuSans-4b" d="M 628 4666 
L 1259 4666 
L 1259 2694 
L 3353 4666 
L 4166 4666 
L 1850 2491 
L 4331 0 
L 3500 0 
L 1259 2247 
L 1259 0 
L 628 0 
L 628 4666 
z
" transform="scale(0.015625)"/>
       <path id="DejaVuSans-49" d="M 628 4666 
L 1259 4666 
L 1259 0 
L 628 0 
L 628 4666 
z
" transform="scale(0.015625)"/>
       <path id="DejaVuSans-5f" d="M 3263 -1063 
L 3263 -1509 
L -63 -1509 
L -63 -1063 
L 3263 -1063 
z
" transform="scale(0.015625)"/>
       <path id="DejaVuSans-55" d="M 556 4666 
L 1191 4666 
L 1191 1831 
Q 1191 1081 1462 751 
Q 1734 422 2344 422 
Q 2950 422 3222 751 
Q 3494 1081 3494 1831 
L 3494 4666 
L 4128 4666 
L 4128 1753 
Q 4128 841 3676 375 
Q 3225 -91 2344 -91 
Q 1459 -91 1007 375 
Q 556 841 556 1753 
L 556 4666 
z
" transform="scale(0.015625)"/>
       <path id="DejaVuSans-47" d="M 3809 666 
L 3809 1919 
L 2778 1919 
L 2778 2438 
L 4434 2438 
L 4434 434 
Q 4069 175 3628 42 
Q 3188 -91 2688 -91 
Q 1594 -91 976 548 
Q 359 1188 359 2328 
Q 359 3472 976 4111 
Q 1594 4750 2688 4750 
Q 3144 4750 3555 4637 
Q 3966 4525 4313 4306 
L 4313 3634 
Q 3963 3931 3569 4081 
Q 3175 4231 2741 4231 
Q 1884 4231 1454 3753 
Q 1025 3275 1025 2328 
Q 1025 1384 1454 906 
Q 1884 428 2741 428 
Q 3075 428 3337 486 
Q 3600 544 3809 666 
z
" transform="scale(0.015625)"/>
       <path id="DejaVuSans-45" d="M 628 4666 
L 3578 4666 
L 3578 4134 
L 1259 4134 
L 1259 2753 
L 3481 2753 
L 3481 2222 
L 1259 2222 
L 1259 531 
L 3634 531 
L 3634 0 
L 628 0 
L 628 4666 
z
" transform="scale(0.015625)"/>
      </defs>
      <use xlink:href="#DejaVuSans-4b"/>
      <use xlink:href="#DejaVuSans-49" x="65.576172"/>
      <use xlink:href="#DejaVuSans-5f" x="95.068359"/>
      <use xlink:href="#DejaVuSans-5f" x="145.068359"/>
      <use xlink:href="#DejaVuSans-55" x="195.068359"/>
      <use xlink:href="#DejaVuSans-47" x="268.261719"/>
      <use xlink:href="#DejaVuSans-45" x="345.751953"/>
     </g>
    </g>
   </g>
   <g id="line2d_11">
    <path d="M 90 312.142498 
L 343.636364 312.142498 
" clip-path="url(#peba6f3a9b3)" style="fill: none; stroke: #000000; stroke-width: 1.5; stroke-linecap: square"/>
   </g>
   <g id="line2d_12">
    <defs>
     <path id="m33274f1a0e" d="M 0 3 
C 0.795609 3 1.55874 2.683901 2.12132 2.12132 
C 2.683901 1.55874 3 0.795609 3 0 
C 3 -0.795609 2.683901 -1.55874 2.12132 -2.12132 
C 1.55874 -2.683901 0.795609 -3 0 -3 
C -0.795609 -3 -1.55874 -2.683901 -2.12132 -2.12132 
C -2.683901 -1.55874 -3 -0.795609 -3 0 
C -3 0.795609 -2.683901 1.55874 -2.12132 2.12132 
C -1.55874 2.683901 -0.795609 3 0 3 
z
" style="stroke: #ff8c00"/>
    </defs>
    <g clip-path="url(#peba6f3a9b3)">
     <use xlink:href="#m33274f1a0e" x="103.684353" y="310.019646" style="fill: #ff8c00; stroke: #ff8c00"/>
     <use xlink:href="#m33274f1a0e" x="106.309648" y="312.740562" style="fill: #ff8c00; stroke: #ff8c00"/>
     <use xlink:href="#m33274f1a0e" x="108.934944" y="316.56068" style="fill: #ff8c00; stroke: #ff8c00"/>
     <use xlink:href="#m33274f1a0e" x="111.560239" y="318.948254" style="fill: #ff8c00; stroke: #ff8c00"/>
     <use xlink:href="#m33274f1a0e" x="114.185535" y="320.189792" style="fill: #ff8c00; stroke: #ff8c00"/>
     <use xlink:href="#m33274f1a0e" x="116.810831" y="326.945455" style="fill: #ff8c00; stroke: #ff8c00"/>
     <use xlink:href="#m33274f1a0e" x="308.457404" y="308.630702" style="fill: #ff8c00; stroke: #ff8c00"/>
     <use xlink:href="#m33274f1a0e" x="311.082699" y="309.4039" style="fill: #ff8c00; stroke: #ff8c00"/>
     <use xlink:href="#m33274f1a0e" x="313.707995" y="312.254185" style="fill: #ff8c00; stroke: #ff8c00"/>
     <use xlink:href="#m33274f1a0e" x="316.33329" y="314.469428" style="fill: #ff8c00; stroke: #ff8c00"/>
     <use xlink:href="#m33274f1a0e" x="318.958586" y="317.976894" style="fill: #ff8c00; stroke: #ff8c00"/>
     <use xlink:href="#m33274f1a0e" x="321.583881" y="320.099833" style="fill: #ff8c00; stroke: #ff8c00"/>
    </g>
   </g>
   <g id="line2d_13">
    <path d="M 101.059057 312.142498 
L 101.158671 312.041355 
L 101.249982 310.100375 
L 101.74758 292.563293 
L 102.883389 254.947777 
L 103.516146 239.779183 
L 104.024893 232.009909 
L 104.330141 229.559316 
L 104.605758 228.861268 
L 116.810831 228.860939 
L 116.810831 312.142498 
L 116.919492 311.881043 
L 117.058191 308.248866 
L 119.319435 237.970018 
L 119.882766 229.455748 
L 120.25832 226.725094 
L 120.49934 226.251769 
L 123.550199 226.254316 
L 132.562604 226.254316 
L 132.562604 312.142498 
L 132.673474 311.788769 
L 132.8272 307.559424 
L 134.904296 240.817628 
L 135.486649 230.068136 
L 135.902614 225.544138 
L 136.235387 223.893791 
L 136.472172 223.706254 
L 145.837992 223.706172 
L 148.314377 223.706172 
L 148.314377 312.142498 
L 148.423997 311.750853 
L 148.591708 307.015144 
L 150.63622 240.730354 
L 151.239534 229.067061 
L 151.670472 223.917339 
L 152.015223 221.757226 
L 152.293495 221.237195 
L 159.127821 221.237851 
L 164.06615 221.237851 
L 164.06615 312.142498 
L 164.175784 311.694281 
L 164.351381 306.637045 
L 166.323119 241.82107 
L 166.991169 228.202413 
L 167.492207 221.939648 
L 167.909738 219.331991 
L 168.160256 218.836546 
L 168.665824 218.827144 
L 179.817923 218.827692 
L 179.817923 312.142498 
L 179.92717 311.64668 
L 180.10691 306.406619 
L 182.066743 241.620351 
L 182.764372 227.080896 
L 183.287595 220.284455 
L 183.723613 217.287908 
L 183.985225 216.561463 
L 184.221403 216.473562 
L 189.361453 216.474371 
L 195.569696 216.474371 
L 195.569696 312.142498 
L 195.679225 311.589199 
L 195.875868 305.713998 
L 197.810232 241.470433 
L 198.466683 227.246716 
L 199.050195 219.052919 
L 199.487828 215.609661 
L 199.852523 214.332651 
L 200.105321 214.174508 
L 211.321469 214.175336 
L 211.321469 312.142498 
L 211.429378 311.569875 
L 211.617666 305.97522 
L 213.597791 240.233101 
L 214.26589 225.806732 
L 214.859757 217.426242 
L 215.305156 213.783631 
L 215.676322 212.275717 
L 215.899022 211.94926 
L 216.32429 211.926894 
L 227.073242 211.927965 
L 227.073242 312.142498 
L 227.183848 311.469966 
L 227.392376 305.085824 
L 229.260924 242.247488 
L 230.028112 225.066806 
L 230.624813 216.349526 
L 231.136271 211.952761 
L 231.562487 210.151055 
L 231.818216 209.749169 
L 232.191205 209.710197 
L 242.825016 209.71229 
L 242.825016 312.142498 
L 242.934126 311.453915 
L 243.14375 305.0232 
L 244.985881 242.717412 
L 245.716747 225.757635 
L 246.288846 216.604419 
L 246.860945 210.908516 
L 247.337694 208.415969 
L 247.719094 207.606338 
L 248.021334 207.523054 
L 257.029945 207.523964 
L 258.576789 207.523964 
L 258.576789 312.142498 
L 258.683724 311.454425 
L 258.897823 304.870154 
L 260.740356 242.420713 
L 261.499511 224.734343 
L 262.089965 215.265216 
L 262.596069 209.971075 
L 263.102172 206.884758 
L 263.523925 205.65772 
L 263.776977 205.386566 
L 264.23502 205.359109 
L 274.328562 205.360117 
L 274.328562 312.142498 
L 274.43846 311.353599 
L 274.671474 304.019247 
L 276.413308 244.406424 
L 277.182817 225.708962 
L 277.813093 215.013771 
L 278.339453 209.10477 
L 278.865814 205.508697 
L 279.286902 203.947944 
L 279.602718 203.373957 
L 279.918534 203.203057 
L 287.401585 203.203894 
L 290.080335 203.203894 
L 290.080335 312.142498 
L 290.186784 311.385963 
L 290.407291 304.530959 
L 292.284085 240.934226 
L 293.049936 223.072453 
L 293.643598 213.366103 
L 294.168883 207.558861 
L 294.694168 203.911265 
L 295.114396 202.206329 
L 295.534624 201.314187 
L 295.849795 201.052918 
L 296.440909 201.025042 
L 305.832108 201.025193 
L 305.832108 312.142498 
L 305.941079 311.297196 
L 306.162422 304.35307 
L 308.018732 241.229266 
L 308.778773 223.195127 
L 309.402469 212.731541 
L 310.027086 205.815036 
L 310.547601 202.244566 
L 311.068116 200.154634 
L 311.484527 199.259255 
L 311.900939 198.86189 
L 312.317351 198.804925 
L 322.240205 198.804117 
L 322.240205 198.804117 
" clip-path="url(#peba6f3a9b3)" style="fill: none; stroke: #0000ff; stroke-width: 1.5; stroke-linecap: square"/>
   </g>
   <g id="line2d_14">
    <defs>
     <path id="m39b28b5c4c" d="M 0 3 
C 0.795609 3 1.55874 2.683901 2.12132 2.12132 
C 2.683901 1.55874 3 0.795609 3 0 
C 3 -0.795609 2.683901 -1.55874 2.12132 -2.12132 
C 1.55874 -2.683901 0.795609 -3 0 -3 
C -0.795609 -3 -1.55874 -2.683901 -2.12132 -2.12132 
C -2.683901 -1.55874 -3 -0.795609 -3 0 
C -3 0.795609 -2.683901 1.55874 -2.12132 2.12132 
C -1.55874 2.683901 -0.795609 3 0 3 
z
" style="stroke: #0000ff"/>
    </defs>
    <g clip-path="url(#peba6f3a9b3)">
     <use xlink:href="#m39b28b5c4c" x="103.684353" y="236.747872" style="fill: #0000ff; stroke: #0000ff"/>
     <use xlink:href="#m39b28b5c4c" x="106.309648" y="228.860939" style="fill: #0000ff; stroke: #0000ff"/>
     <use xlink:href="#m39b28b5c4c" x="108.934944" y="228.860939" style="fill: #0000ff; stroke: #0000ff"/>
     <use xlink:href="#m39b28b5c4c" x="111.560239" y="228.860939" style="fill: #0000ff; stroke: #0000ff"/>
     <use xlink:href="#m39b28b5c4c" x="114.185535" y="228.860939" style="fill: #0000ff; stroke: #0000ff"/>
     <use xlink:href="#m39b28b5c4c" x="116.810831" y="312.142498" style="fill: #0000ff; stroke: #0000ff"/>
     <use xlink:href="#m39b28b5c4c" x="308.457404" y="230.119485" style="fill: #0000ff; stroke: #0000ff"/>
     <use xlink:href="#m39b28b5c4c" x="311.082699" y="200.115494" style="fill: #0000ff; stroke: #0000ff"/>
     <use xlink:href="#m39b28b5c4c" x="313.707995" y="198.8041" style="fill: #0000ff; stroke: #0000ff"/>
     <use xlink:href="#m39b28b5c4c" x="316.33329" y="198.804117" style="fill: #0000ff; stroke: #0000ff"/>
     <use xlink:href="#m39b28b5c4c" x="318.958586" y="198.804117" style="fill: #0000ff; stroke: #0000ff"/>
     <use xlink:href="#m39b28b5c4c" x="321.583881" y="198.804117" style="fill: #0000ff; stroke: #0000ff"/>
    </g>
   </g>
   <g id="line2d_15">
    <defs>
     <path id="maf0743728a" d="M -3 3 
L 3 3 
L 3 -3 
L -3 -3 
z
" style="stroke: #000000; stroke-linejoin: miter"/>
    </defs>
    <g clip-path="url(#peba6f3a9b3)">
     <use xlink:href="#maf0743728a" x="103.684353" y="263.679131" style="stroke: #000000; stroke-linejoin: miter"/>
     <use xlink:href="#maf0743728a" x="106.309648" y="221.273685" style="stroke: #000000; stroke-linejoin: miter"/>
     <use xlink:href="#maf0743728a" x="108.934944" y="172.810318" style="stroke: #000000; stroke-linejoin: miter"/>
     <use xlink:href="#maf0743728a" x="111.560239" y="142.520713" style="stroke: #000000; stroke-linejoin: miter"/>
     <use xlink:href="#maf0743728a" x="114.185535" y="126.770119" style="stroke: #000000; stroke-linejoin: miter"/>
     <use xlink:href="#maf0743728a" x="116.810831" y="124.34695" style="stroke: #000000; stroke-linejoin: miter"/>
     <use xlink:href="#maf0743728a" x="308.457404" y="274.671381" style="stroke: #000000; stroke-linejoin: miter"/>
     <use xlink:href="#maf0743728a" x="311.082699" y="234.858319" style="stroke: #000000; stroke-linejoin: miter"/>
     <use xlink:href="#maf0743728a" x="313.707995" y="197.387201" style="stroke: #000000; stroke-linejoin: miter"/>
     <use xlink:href="#maf0743728a" x="316.33329" y="169.283863" style="stroke: #000000; stroke-linejoin: miter"/>
     <use xlink:href="#maf0743728a" x="318.958586" y="124.786911" style="stroke: #000000; stroke-linejoin: miter"/>
     <use xlink:href="#maf0743728a" x="321.583881" y="97.854545" style="stroke: #000000; stroke-linejoin: miter"/>
    </g>
   </g>
   <g id="patch_3">
    <path d="M 90 338.4 
L 90 86.4 
" style="fill: none; stroke: #000000; stroke-width: 0.8; stroke-linejoin: miter; stroke-linecap: square"/>
   </g>
   <g id="patch_4">
    <path d="M 343.636364 338.4 
L 343.636364 86.4 
" style="fill: none; stroke: #000000; stroke-width: 0.8; stroke-linejoin: miter; stroke-linecap: square"/>
   </g>
   <g id="patch_5">
    <path d="M 90 338.4 
L 343.636364 338.4 
" style="fill: none; stroke: #000000; stroke-width: 0.8; stroke-linejoin: miter; stroke-linecap: square"/>
   </g>
   <g id="patch_6">
    <path d="M 90 86.4 
L 343.636364 86.4 
" style="fill: none; stroke: #000000; stroke-width: 0.8; stroke-linejoin: miter; stroke-linecap: square"/>
   </g>
   <g id="text_7">
    <!-- FDAMB102002.fm_dap2.5_uge -->
    <g transform="translate(109.166932 80.4) scale(0.14 -0.14)">
     <defs>
      <path id="DejaVuSans-46" d="M 628 4666 
L 3309 4666 
L 3309 4134 
L 1259 4134 
L 1259 2759 
L 3109 2759 
L 3109 2228 
L 1259 2228 
L 1259 0 
L 628 0 
L 628 4666 
z
" transform="scale(0.015625)"/>
      <path id="DejaVuSans-44" d="M 1259 4147 
L 1259 519 
L 2022 519 
Q 2988 519 3436 956 
Q 3884 1394 3884 2338 
Q 3884 3275 3436 3711 
Q 2988 4147 2022 4147 
L 1259 4147 
z
M 628 4666 
L 1925 4666 
Q 3281 4666 3915 4102 
Q 4550 3538 4550 2338 
Q 4550 1131 3912 565 
Q 3275 0 1925 0 
L 628 0 
L 628 4666 
z
" transform="scale(0.015625)"/>
      <path id="DejaVuSans-41" d="M 2188 4044 
L 1331 1722 
L 3047 1722 
L 2188 4044 
z
M 1831 4666 
L 2547 4666 
L 4325 0 
L 3669 0 
L 3244 1197 
L 1141 1197 
L 716 0 
L 50 0 
L 1831 4666 
z
" transform="scale(0.015625)"/>
      <path id="DejaVuSans-4d" d="M 628 4666 
L 1569 4666 
L 2759 1491 
L 3956 4666 
L 4897 4666 
L 4897 0 
L 4281 0 
L 4281 4097 
L 3078 897 
L 2444 897 
L 1241 4097 
L 1241 0 
L 628 0 
L 628 4666 
z
" transform="scale(0.015625)"/>
      <path id="DejaVuSans-42" d="M 1259 2228 
L 1259 519 
L 2272 519 
Q 2781 519 3026 730 
Q 3272 941 3272 1375 
Q 3272 1813 3026 2020 
Q 2781 2228 2272 2228 
L 1259 2228 
z
M 1259 4147 
L 1259 2741 
L 2194 2741 
Q 2656 2741 2882 2914 
Q 3109 3088 3109 3444 
Q 3109 3797 2882 3972 
Q 2656 4147 2194 4147 
L 1259 4147 
z
M 628 4666 
L 2241 4666 
Q 2963 4666 3353 4366 
Q 3744 4066 3744 3513 
Q 3744 3084 3544 2831 
Q 3344 2578 2956 2516 
Q 3422 2416 3680 2098 
Q 3938 1781 3938 1306 
Q 3938 681 3513 340 
Q 3088 0 2303 0 
L 628 0 
L 628 4666 
z
" transform="scale(0.015625)"/>
      <path id="DejaVuSans-2e" d="M 684 794 
L 1344 794 
L 1344 0 
L 684 0 
L 684 794 
z
" transform="scale(0.015625)"/>
      <path id="DejaVuSans-66" d="M 2375 4863 
L 2375 4384 
L 1825 4384 
Q 1516 4384 1395 4259 
Q 1275 4134 1275 3809 
L 1275 3500 
L 2222 3500 
L 2222 3053 
L 1275 3053 
L 1275 0 
L 697 0 
L 697 3053 
L 147 3053 
L 147 3500 
L 697 3500 
L 697 3744 
Q 697 4328 969 4595 
Q 1241 4863 1831 4863 
L 2375 4863 
z
" transform="scale(0.015625)"/>
      <path id="DejaVuSans-6d" d="M 3328 2828 
Q 3544 3216 3844 3400 
Q 4144 3584 4550 3584 
Q 5097 3584 5394 3201 
Q 5691 2819 5691 2113 
L 5691 0 
L 5113 0 
L 5113 2094 
Q 5113 2597 4934 2840 
Q 4756 3084 4391 3084 
Q 3944 3084 3684 2787 
Q 3425 2491 3425 1978 
L 3425 0 
L 2847 0 
L 2847 2094 
Q 2847 2600 2669 2842 
Q 2491 3084 2119 3084 
Q 1678 3084 1418 2786 
Q 1159 2488 1159 1978 
L 1159 0 
L 581 0 
L 581 3500 
L 1159 3500 
L 1159 2956 
Q 1356 3278 1631 3431 
Q 1906 3584 2284 3584 
Q 2666 3584 2933 3390 
Q 3200 3197 3328 2828 
z
" transform="scale(0.015625)"/>
      <path id="DejaVuSans-64" d="M 2906 2969 
L 2906 4863 
L 3481 4863 
L 3481 0 
L 2906 0 
L 2906 525 
Q 2725 213 2448 61 
Q 2172 -91 1784 -91 
Q 1150 -91 751 415 
Q 353 922 353 1747 
Q 353 2572 751 3078 
Q 1150 3584 1784 3584 
Q 2172 3584 2448 3432 
Q 2725 3281 2906 2969 
z
M 947 1747 
Q 947 1113 1208 752 
Q 1469 391 1925 391 
Q 2381 391 2643 752 
Q 2906 1113 2906 1747 
Q 2906 2381 2643 2742 
Q 2381 3103 1925 3103 
Q 1469 3103 1208 2742 
Q 947 2381 947 1747 
z
" transform="scale(0.015625)"/>
      <path id="DejaVuSans-61" d="M 2194 1759 
Q 1497 1759 1228 1600 
Q 959 1441 959 1056 
Q 959 750 1161 570 
Q 1363 391 1709 391 
Q 2188 391 2477 730 
Q 2766 1069 2766 1631 
L 2766 1759 
L 2194 1759 
z
M 3341 1997 
L 3341 0 
L 2766 0 
L 2766 531 
Q 2569 213 2275 61 
Q 1981 -91 1556 -91 
Q 1019 -91 701 211 
Q 384 513 384 1019 
Q 384 1609 779 1909 
Q 1175 2209 1959 2209 
L 2766 2209 
L 2766 2266 
Q 2766 2663 2505 2880 
Q 2244 3097 1772 3097 
Q 1472 3097 1187 3025 
Q 903 2953 641 2809 
L 641 3341 
Q 956 3463 1253 3523 
Q 1550 3584 1831 3584 
Q 2591 3584 2966 3190 
Q 3341 2797 3341 1997 
z
" transform="scale(0.015625)"/>
      <path id="DejaVuSans-70" d="M 1159 525 
L 1159 -1331 
L 581 -1331 
L 581 3500 
L 1159 3500 
L 1159 2969 
Q 1341 3281 1617 3432 
Q 1894 3584 2278 3584 
Q 2916 3584 3314 3078 
Q 3713 2572 3713 1747 
Q 3713 922 3314 415 
Q 2916 -91 2278 -91 
Q 1894 -91 1617 61 
Q 1341 213 1159 525 
z
M 3116 1747 
Q 3116 2381 2855 2742 
Q 2594 3103 2138 3103 
Q 1681 3103 1420 2742 
Q 1159 2381 1159 1747 
Q 1159 1113 1420 752 
Q 1681 391 2138 391 
Q 2594 391 2855 752 
Q 3116 1113 3116 1747 
z
" transform="scale(0.015625)"/>
      <path id="DejaVuSans-75" d="M 544 1381 
L 544 3500 
L 1119 3500 
L 1119 1403 
Q 1119 906 1312 657 
Q 1506 409 1894 409 
Q 2359 409 2629 706 
Q 2900 1003 2900 1516 
L 2900 3500 
L 3475 3500 
L 3475 0 
L 2900 0 
L 2900 538 
Q 2691 219 2414 64 
Q 2138 -91 1772 -91 
Q 1169 -91 856 284 
Q 544 659 544 1381 
z
M 1991 3584 
L 1991 3584 
z
" transform="scale(0.015625)"/>
      <path id="DejaVuSans-67" d="M 2906 1791 
Q 2906 2416 2648 2759 
Q 2391 3103 1925 3103 
Q 1463 3103 1205 2759 
Q 947 2416 947 1791 
Q 947 1169 1205 825 
Q 1463 481 1925 481 
Q 2391 481 2648 825 
Q 2906 1169 2906 1791 
z
M 3481 434 
Q 3481 -459 3084 -895 
Q 2688 -1331 1869 -1331 
Q 1566 -1331 1297 -1286 
Q 1028 -1241 775 -1147 
L 775 -588 
Q 1028 -725 1275 -790 
Q 1522 -856 1778 -856 
Q 2344 -856 2625 -561 
Q 2906 -266 2906 331 
L 2906 616 
Q 2728 306 2450 153 
Q 2172 0 1784 0 
Q 1141 0 747 490 
Q 353 981 353 1791 
Q 353 2603 747 3093 
Q 1141 3584 1784 3584 
Q 2172 3584 2450 3431 
Q 2728 3278 2906 2969 
L 2906 3500 
L 3481 3500 
L 3481 434 
z
" transform="scale(0.015625)"/>
      <path id="DejaVuSans-65" d="M 3597 1894 
L 3597 1613 
L 953 1613 
Q 991 1019 1311 708 
Q 1631 397 2203 397 
Q 2534 397 2845 478 
Q 3156 559 3463 722 
L 3463 178 
Q 3153 47 2828 -22 
Q 2503 -91 2169 -91 
Q 1331 -91 842 396 
Q 353 884 353 1716 
Q 353 2575 817 3079 
Q 1281 3584 2069 3584 
Q 2775 3584 3186 3129 
Q 3597 2675 3597 1894 
z
M 3022 2063 
Q 3016 2534 2758 2815 
Q 2500 3097 2075 3097 
Q 1594 3097 1305 2825 
Q 1016 2553 972 2059 
L 3022 2063 
z
" transform="scale(0.015625)"/>
     </defs>
     <use xlink:href="#DejaVuSans-46"/>
     <use xlink:href="#DejaVuSans-44" x="57.519531"/>
     <use xlink:href="#DejaVuSans-41" x="132.771484"/>
     <use xlink:href="#DejaVuSans-4d" x="201.179688"/>
     <use xlink:href="#DejaVuSans-42" x="287.458984"/>
     <use xlink:href="#DejaVuSans-31" x="356.0625"/>
     <use xlink:href="#DejaVuSans-30" x="419.685547"/>
     <use xlink:href="#DejaVuSans-32" x="483.308594"/>
     <use xlink:href="#DejaVuSans-30" x="546.931641"/>
     <use xlink:href="#DejaVuSans-30" x="610.554688"/>
     <use xlink:href="#DejaVuSans-32" x="674.177734"/>
     <use xlink:href="#DejaVuSans-2e" x="737.800781"/>
     <use xlink:href="#DejaVuSans-66" x="769.587891"/>
     <use xlink:href="#DejaVuSans-6d" x="804.792969"/>
     <use xlink:href="#DejaVuSans-5f" x="902.205078"/>
     <use xlink:href="#DejaVuSans-64" x="952.205078"/>
     <use xlink:href="#DejaVuSans-61" x="1015.681641"/>
     <use xlink:href="#DejaVuSans-70" x="1076.960938"/>
     <use xlink:href="#DejaVuSans-32" x="1140.4375"/>
     <use xlink:href="#DejaVuSans-2e" x="1204.060547"/>
     <use xlink:href="#DejaVuSans-35" x="1235.847656"/>
     <use xlink:href="#DejaVuSans-5f" x="1299.470703"/>
     <use xlink:href="#DejaVuSans-75" x="1349.470703"/>
     <use xlink:href="#DejaVuSans-67" x="1412.849609"/>
     <use xlink:href="#DejaVuSans-65" x="1476.326172"/>
    </g>
   </g>
   <g id="legend_1">
    <g id="patch_7">
     <path d="M 163.185369 153.390625 
L 270.450994 153.390625 
Q 272.450994 153.390625 272.450994 151.390625 
L 272.450994 93.4 
Q 272.450994 91.4 270.450994 91.4 
L 163.185369 91.4 
Q 161.185369 91.4 161.185369 93.4 
L 161.185369 151.390625 
Q 161.185369 153.390625 163.185369 153.390625 
z
" style="fill: #ffffff; opacity: 0.8; stroke: #cccccc; stroke-linejoin: miter"/>
    </g>
    <g id="line2d_16">
     <g>
      <use xlink:href="#m33274f1a0e" x="175.185369" y="99.498438" style="fill: #ff8c00; stroke: #ff8c00"/>
     </g>
    </g>
    <g id="text_8">
     <!-- residuals -->
     <g transform="translate(193.185369 102.998438) scale(0.1 -0.1)">
      <defs>
       <path id="DejaVuSans-72" d="M 2631 2963 
Q 2534 3019 2420 3045 
Q 2306 3072 2169 3072 
Q 1681 3072 1420 2755 
Q 1159 2438 1159 1844 
L 1159 0 
L 581 0 
L 581 3500 
L 1159 3500 
L 1159 2956 
Q 1341 3275 1631 3429 
Q 1922 3584 2338 3584 
Q 2397 3584 2469 3576 
Q 2541 3569 2628 3553 
L 2631 2963 
z
" transform="scale(0.015625)"/>
       <path id="DejaVuSans-73" d="M 2834 3397 
L 2834 2853 
Q 2591 2978 2328 3040 
Q 2066 3103 1784 3103 
Q 1356 3103 1142 2972 
Q 928 2841 928 2578 
Q 928 2378 1081 2264 
Q 1234 2150 1697 2047 
L 1894 2003 
Q 2506 1872 2764 1633 
Q 3022 1394 3022 966 
Q 3022 478 2636 193 
Q 2250 -91 1575 -91 
Q 1294 -91 989 -36 
Q 684 19 347 128 
L 347 722 
Q 666 556 975 473 
Q 1284 391 1588 391 
Q 1994 391 2212 530 
Q 2431 669 2431 922 
Q 2431 1156 2273 1281 
Q 2116 1406 1581 1522 
L 1381 1569 
Q 847 1681 609 1914 
Q 372 2147 372 2553 
Q 372 3047 722 3315 
Q 1072 3584 1716 3584 
Q 2034 3584 2315 3537 
Q 2597 3491 2834 3397 
z
" transform="scale(0.015625)"/>
       <path id="DejaVuSans-69" d="M 603 3500 
L 1178 3500 
L 1178 0 
L 603 0 
L 603 3500 
z
M 603 4863 
L 1178 4863 
L 1178 4134 
L 603 4134 
L 603 4863 
z
" transform="scale(0.015625)"/>
       <path id="DejaVuSans-6c" d="M 603 4863 
L 1178 4863 
L 1178 0 
L 603 0 
L 603 4863 
z
" transform="scale(0.015625)"/>
      </defs>
      <use xlink:href="#DejaVuSans-72"/>
      <use xlink:href="#DejaVuSans-65" x="38.863281"/>
      <use xlink:href="#DejaVuSans-73" x="100.386719"/>
      <use xlink:href="#DejaVuSans-69" x="152.486328"/>
      <use xlink:href="#DejaVuSans-64" x="180.269531"/>
      <use xlink:href="#DejaVuSans-75" x="243.746094"/>
      <use xlink:href="#DejaVuSans-61" x="307.125"/>
      <use xlink:href="#DejaVuSans-6c" x="368.404297"/>
      <use xlink:href="#DejaVuSans-73" x="396.1875"/>
     </g>
    </g>
    <g id="line2d_17">
     <path d="M 165.185369 114.176563 
L 175.185369 114.176563 
L 185.185369 114.176563 
" style="fill: none; stroke: #0000ff; stroke-width: 1.5; stroke-linecap: square"/>
    </g>
    <g id="text_9">
     <!-- observable -->
     <g transform="translate(193.185369 117.676563) scale(0.1 -0.1)">
      <defs>
       <path id="DejaVuSans-6f" d="M 1959 3097 
Q 1497 3097 1228 2736 
Q 959 2375 959 1747 
Q 959 1119 1226 758 
Q 1494 397 1959 397 
Q 2419 397 2687 759 
Q 2956 1122 2956 1747 
Q 2956 2369 2687 2733 
Q 2419 3097 1959 3097 
z
M 1959 3584 
Q 2709 3584 3137 3096 
Q 3566 2609 3566 1747 
Q 3566 888 3137 398 
Q 2709 -91 1959 -91 
Q 1206 -91 779 398 
Q 353 888 353 1747 
Q 353 2609 779 3096 
Q 1206 3584 1959 3584 
z
" transform="scale(0.015625)"/>
       <path id="DejaVuSans-62" d="M 3116 1747 
Q 3116 2381 2855 2742 
Q 2594 3103 2138 3103 
Q 1681 3103 1420 2742 
Q 1159 2381 1159 1747 
Q 1159 1113 1420 752 
Q 1681 391 2138 391 
Q 2594 391 2855 752 
Q 3116 1113 3116 1747 
z
M 1159 2969 
Q 1341 3281 1617 3432 
Q 1894 3584 2278 3584 
Q 2916 3584 3314 3078 
Q 3713 2572 3713 1747 
Q 3713 922 3314 415 
Q 2916 -91 2278 -91 
Q 1894 -91 1617 61 
Q 1341 213 1159 525 
L 1159 0 
L 581 0 
L 581 4863 
L 1159 4863 
L 1159 2969 
z
" transform="scale(0.015625)"/>
       <path id="DejaVuSans-76" d="M 191 3500 
L 800 3500 
L 1894 563 
L 2988 3500 
L 3597 3500 
L 2284 0 
L 1503 0 
L 191 3500 
z
" transform="scale(0.015625)"/>
      </defs>
      <use xlink:href="#DejaVuSans-6f"/>
      <use xlink:href="#DejaVuSans-62" x="61.181641"/>
      <use xlink:href="#DejaVuSans-73" x="124.658203"/>
      <use xlink:href="#DejaVuSans-65" x="176.757812"/>
      <use xlink:href="#DejaVuSans-72" x="238.28125"/>
      <use xlink:href="#DejaVuSans-76" x="279.394531"/>
      <use xlink:href="#DejaVuSans-61" x="338.574219"/>
      <use xlink:href="#DejaVuSans-62" x="399.853516"/>
      <use xlink:href="#DejaVuSans-6c" x="463.330078"/>
      <use xlink:href="#DejaVuSans-65" x="491.113281"/>
     </g>
    </g>
    <g id="line2d_18">
     <g>
      <use xlink:href="#m39b28b5c4c" x="175.185369" y="128.854688" style="fill: #0000ff; stroke: #0000ff"/>
     </g>
    </g>
    <g id="text_10">
     <!-- interpolation -->
     <g transform="translate(193.185369 132.354688) scale(0.1 -0.1)">
      <defs>
       <path id="DejaVuSans-6e" d="M 3513 2113 
L 3513 0 
L 2938 0 
L 2938 2094 
Q 2938 2591 2744 2837 
Q 2550 3084 2163 3084 
Q 1697 3084 1428 2787 
Q 1159 2491 1159 1978 
L 1159 0 
L 581 0 
L 581 3500 
L 1159 3500 
L 1159 2956 
Q 1366 3272 1645 3428 
Q 1925 3584 2291 3584 
Q 2894 3584 3203 3211 
Q 3513 2838 3513 2113 
z
" transform="scale(0.015625)"/>
       <path id="DejaVuSans-74" d="M 1172 4494 
L 1172 3500 
L 2356 3500 
L 2356 3053 
L 1172 3053 
L 1172 1153 
Q 1172 725 1289 603 
Q 1406 481 1766 481 
L 2356 481 
L 2356 0 
L 1766 0 
Q 1100 0 847 248 
Q 594 497 594 1153 
L 594 3053 
L 172 3053 
L 172 3500 
L 594 3500 
L 594 4494 
L 1172 4494 
z
" transform="scale(0.015625)"/>
      </defs>
      <use xlink:href="#DejaVuSans-69"/>
      <use xlink:href="#DejaVuSans-6e" x="27.783203"/>
      <use xlink:href="#DejaVuSans-74" x="91.162109"/>
      <use xlink:href="#DejaVuSans-65" x="130.371094"/>
      <use xlink:href="#DejaVuSans-72" x="191.894531"/>
      <use xlink:href="#DejaVuSans-70" x="233.007812"/>
      <use xlink:href="#DejaVuSans-6f" x="296.484375"/>
      <use xlink:href="#DejaVuSans-6c" x="357.666016"/>
      <use xlink:href="#DejaVuSans-61" x="385.449219"/>
      <use xlink:href="#DejaVuSans-74" x="446.728516"/>
      <use xlink:href="#DejaVuSans-69" x="485.9375"/>
      <use xlink:href="#DejaVuSans-6f" x="513.720703"/>
      <use xlink:href="#DejaVuSans-6e" x="574.902344"/>
     </g>
    </g>
    <g id="line2d_19">
     <g>
      <use xlink:href="#maf0743728a" x="175.185369" y="143.532812" style="stroke: #000000; stroke-linejoin: miter"/>
     </g>
    </g>
    <g id="text_11">
     <!-- reference_data -->
     <g transform="translate(193.185369 147.032812) scale(0.1 -0.1)">
      <defs>
       <path id="DejaVuSans-63" d="M 3122 3366 
L 3122 2828 
Q 2878 2963 2633 3030 
Q 2388 3097 2138 3097 
Q 1578 3097 1268 2742 
Q 959 2388 959 1747 
Q 959 1106 1268 751 
Q 1578 397 2138 397 
Q 2388 397 2633 464 
Q 2878 531 3122 666 
L 3122 134 
Q 2881 22 2623 -34 
Q 2366 -91 2075 -91 
Q 1284 -91 818 406 
Q 353 903 353 1747 
Q 353 2603 823 3093 
Q 1294 3584 2113 3584 
Q 2378 3584 2631 3529 
Q 2884 3475 3122 3366 
z
" transform="scale(0.015625)"/>
      </defs>
      <use xlink:href="#DejaVuSans-72"/>
      <use xlink:href="#DejaVuSans-65" x="38.863281"/>
      <use xlink:href="#DejaVuSans-66" x="100.386719"/>
      <use xlink:href="#DejaVuSans-65" x="135.591797"/>
      <use xlink:href="#DejaVuSans-72" x="197.115234"/>
      <use xlink:href="#DejaVuSans-65" x="235.978516"/>
      <use xlink:href="#DejaVuSans-6e" x="297.501953"/>
      <use xlink:href="#DejaVuSans-63" x="360.880859"/>
      <use xlink:href="#DejaVuSans-65" x="415.861328"/>
      <use xlink:href="#DejaVuSans-5f" x="477.384766"/>
      <use xlink:href="#DejaVuSans-64" x="527.384766"/>
      <use xlink:href="#DejaVuSans-61" x="590.861328"/>
      <use xlink:href="#DejaVuSans-74" x="652.140625"/>
      <use xlink:href="#DejaVuSans-61" x="691.349609"/>
     </g>
    </g>
   </g>
  </g>
  <g id="axes_2">
   <g id="patch_8">
    <path d="M 394.363636 338.4 
L 648 338.4 
L 648 86.4 
L 394.363636 86.4 
z
" style="fill: #ffffff"/>
   </g>
   <g id="PolyCollection_2">
    <path d="M 408.047989 13993.164992 
L 408.047989 125.665381 
L 410.673285 13993.164992 
L 413.29858 13993.164992 
L 415.923876 13993.164992 
L 418.549171 13993.164992 
L 421.174467 13993.164992 
L 612.82104 122.63171 
L 615.446336 124.130454 
L 618.071631 13993.164992 
L 620.696927 13993.164992 
L 623.322222 13993.164992 
L 625.947518 13993.164992 
L 625.947518 13993.164992 
L 625.947518 13993.164992 
L 623.322222 13993.164992 
L 620.696927 13993.164992 
L 618.071631 13993.164992 
L 615.446336 13993.164992 
L 612.82104 13993.164992 
L 421.174467 13993.164992 
L 418.549171 13993.164992 
L 415.923876 13993.164992 
L 413.29858 13993.164992 
L 410.673285 13993.164992 
L 408.047989 13993.164992 
z
" clip-path="url(#p74a451df1d)" style="fill: #ff8c00; fill-opacity: 0.4; stroke: #ff8c00; stroke-opacity: 0.4"/>
   </g>
   <g id="matplotlib.axis_3">
    <g id="xtick_6">
     <g id="line2d_20">
      <g>
       <use xlink:href="#ma07750df6c" x="405.422694" y="338.4" style="stroke: #000000; stroke-width: 0.8"/>
      </g>
     </g>
    </g>
    <g id="xtick_7">
     <g id="line2d_21">
      <g>
       <use xlink:href="#ma07750df6c" x="460.11635" y="338.4" style="stroke: #000000; stroke-width: 0.8"/>
      </g>
     </g>
    </g>
    <g id="xtick_8">
     <g id="line2d_22">
      <g>
       <use xlink:href="#ma07750df6c" x="514.810007" y="338.4" style="stroke: #000000; stroke-width: 0.8"/>
      </g>
     </g>
    </g>
    <g id="xtick_9">
     <g id="line2d_23">
      <g>
       <use xlink:href="#ma07750df6c" x="569.503664" y="338.4" style="stroke: #000000; stroke-width: 0.8"/>
      </g>
     </g>
    </g>
    <g id="xtick_10">
     <g id="line2d_24">
      <g>
       <use xlink:href="#ma07750df6c" x="624.197321" y="338.4" style="stroke: #000000; stroke-width: 0.8"/>
      </g>
     </g>
    </g>
   </g>
   <g id="matplotlib.axis_4">
    <g id="ytick_6">
     <g id="line2d_25">
      <g>
       <use xlink:href="#md7907dc364" x="394.363636" y="310.32201" style="stroke: #000000; stroke-width: 0.8"/>
      </g>
     </g>
     <g id="text_12">
      <!-- $\mathdefault{10^{-14}}$ -->
      <g transform="translate(359.463636 314.121228) scale(0.1 -0.1)">
       <defs>
        <path id="DejaVuSans-2212" d="M 678 2272 
L 4684 2272 
L 4684 1741 
L 678 1741 
L 678 2272 
z
" transform="scale(0.015625)"/>
        <path id="DejaVuSans-34" d="M 2419 4116 
L 825 1625 
L 2419 1625 
L 2419 4116 
z
M 2253 4666 
L 3047 4666 
L 3047 1625 
L 3713 1625 
L 3713 1100 
L 3047 1100 
L 3047 0 
L 2419 0 
L 2419 1100 
L 313 1100 
L 313 1709 
L 2253 4666 
z
" transform="scale(0.015625)"/>
       </defs>
       <use xlink:href="#DejaVuSans-31" transform="translate(0 0.684375)"/>
       <use xlink:href="#DejaVuSans-30" transform="translate(63.623047 0.684375)"/>
       <use xlink:href="#DejaVuSans-2212" transform="translate(128.203125 38.965625) scale(0.7)"/>
       <use xlink:href="#DejaVuSans-31" transform="translate(186.855469 38.965625) scale(0.7)"/>
       <use xlink:href="#DejaVuSans-34" transform="translate(231.391602 38.965625) scale(0.7)"/>
      </g>
     </g>
    </g>
    <g id="ytick_7">
     <g id="line2d_26">
      <g>
       <use xlink:href="#md7907dc364" x="394.363636" y="268.690641" style="stroke: #000000; stroke-width: 0.8"/>
      </g>
     </g>
     <g id="text_13">
      <!-- $\mathdefault{10^{-11}}$ -->
      <g transform="translate(359.463636 272.48986) scale(0.1 -0.1)">
       <use xlink:href="#DejaVuSans-31" transform="translate(0 0.684375)"/>
       <use xlink:href="#DejaVuSans-30" transform="translate(63.623047 0.684375)"/>
       <use xlink:href="#DejaVuSans-2212" transform="translate(128.203125 38.965625) scale(0.7)"/>
       <use xlink:href="#DejaVuSans-31" transform="translate(186.855469 38.965625) scale(0.7)"/>
       <use xlink:href="#DejaVuSans-31" transform="translate(231.391602 38.965625) scale(0.7)"/>
      </g>
     </g>
    </g>
    <g id="ytick_8">
     <g id="line2d_27">
      <g>
       <use xlink:href="#md7907dc364" x="394.363636" y="227.059273" style="stroke: #000000; stroke-width: 0.8"/>
      </g>
     </g>
     <g id="text_14">
      <!-- $\mathdefault{10^{-8}}$ -->
      <g transform="translate(363.863636 230.858492) scale(0.1 -0.1)">
       <defs>
        <path id="DejaVuSans-38" d="M 2034 2216 
Q 1584 2216 1326 1975 
Q 1069 1734 1069 1313 
Q 1069 891 1326 650 
Q 1584 409 2034 409 
Q 2484 409 2743 651 
Q 3003 894 3003 1313 
Q 3003 1734 2745 1975 
Q 2488 2216 2034 2216 
z
M 1403 2484 
Q 997 2584 770 2862 
Q 544 3141 544 3541 
Q 544 4100 942 4425 
Q 1341 4750 2034 4750 
Q 2731 4750 3128 4425 
Q 3525 4100 3525 3541 
Q 3525 3141 3298 2862 
Q 3072 2584 2669 2484 
Q 3125 2378 3379 2068 
Q 3634 1759 3634 1313 
Q 3634 634 3220 271 
Q 2806 -91 2034 -91 
Q 1263 -91 848 271 
Q 434 634 434 1313 
Q 434 1759 690 2068 
Q 947 2378 1403 2484 
z
M 1172 3481 
Q 1172 3119 1398 2916 
Q 1625 2713 2034 2713 
Q 2441 2713 2670 2916 
Q 2900 3119 2900 3481 
Q 2900 3844 2670 4047 
Q 2441 4250 2034 4250 
Q 1625 4250 1398 4047 
Q 1172 3844 1172 3481 
z
" transform="scale(0.015625)"/>
       </defs>
       <use xlink:href="#DejaVuSans-31" transform="translate(0 0.765625)"/>
       <use xlink:href="#DejaVuSans-30" transform="translate(63.623047 0.765625)"/>
       <use xlink:href="#DejaVuSans-2212" transform="translate(128.203125 39.046875) scale(0.7)"/>
       <use xlink:href="#DejaVuSans-38" transform="translate(186.855469 39.046875) scale(0.7)"/>
      </g>
     </g>
    </g>
    <g id="ytick_9">
     <g id="line2d_28">
      <g>
       <use xlink:href="#md7907dc364" x="394.363636" y="185.427905" style="stroke: #000000; stroke-width: 0.8"/>
      </g>
     </g>
     <g id="text_15">
      <!-- $\mathdefault{10^{-5}}$ -->
      <g transform="translate(363.863636 189.227124) scale(0.1 -0.1)">
       <use xlink:href="#DejaVuSans-31" transform="translate(0 0.684375)"/>
       <use xlink:href="#DejaVuSans-30" transform="translate(63.623047 0.684375)"/>
       <use xlink:href="#DejaVuSans-2212" transform="translate(128.203125 38.965625) scale(0.7)"/>
       <use xlink:href="#DejaVuSans-35" transform="translate(186.855469 38.965625) scale(0.7)"/>
      </g>
     </g>
    </g>
    <g id="ytick_10">
     <g id="line2d_29">
      <g>
       <use xlink:href="#md7907dc364" x="394.363636" y="143.796537" style="stroke: #000000; stroke-width: 0.8"/>
      </g>
     </g>
     <g id="text_16">
      <!-- $\mathdefault{10^{-2}}$ -->
      <g transform="translate(363.863636 147.595756) scale(0.1 -0.1)">
       <use xlink:href="#DejaVuSans-31" transform="translate(0 0.765625)"/>
       <use xlink:href="#DejaVuSans-30" transform="translate(63.623047 0.765625)"/>
       <use xlink:href="#DejaVuSans-2212" transform="translate(128.203125 39.046875) scale(0.7)"/>
       <use xlink:href="#DejaVuSans-32" transform="translate(186.855469 39.046875) scale(0.7)"/>
      </g>
     </g>
    </g>
    <g id="ytick_11">
     <g id="line2d_30">
      <g>
       <use xlink:href="#md7907dc364" x="394.363636" y="102.165169" style="stroke: #000000; stroke-width: 0.8"/>
      </g>
     </g>
     <g id="text_17">
      <!-- $\mathdefault{10^{1}}$ -->
      <g transform="translate(369.763636 105.964388) scale(0.1 -0.1)">
       <use xlink:href="#DejaVuSans-31" transform="translate(0 0.684375)"/>
       <use xlink:href="#DejaVuSans-30" transform="translate(63.623047 0.684375)"/>
       <use xlink:href="#DejaVuSans-31" transform="translate(128.203125 38.965625) scale(0.7)"/>
      </g>
     </g>
    </g>
   </g>
   <g id="line2d_31">
    <g clip-path="url(#p74a451df1d)">
     <use xlink:href="#m33274f1a0e" x="408.047989" y="125.665381" style="fill: #ff8c00; stroke: #ff8c00"/>
     <use xlink:href="#m33274f1a0e" x="410.673285" y="13993.164992" style="fill: #ff8c00; stroke: #ff8c00"/>
     <use xlink:href="#m33274f1a0e" x="413.29858" y="13993.164992" style="fill: #ff8c00; stroke: #ff8c00"/>
     <use xlink:href="#m33274f1a0e" x="415.923876" y="13993.164992" style="fill: #ff8c00; stroke: #ff8c00"/>
     <use xlink:href="#m33274f1a0e" x="418.549171" y="13993.164992" style="fill: #ff8c00; stroke: #ff8c00"/>
     <use xlink:href="#m33274f1a0e" x="421.174467" y="13993.164992" style="fill: #ff8c00; stroke: #ff8c00"/>
     <use xlink:href="#m33274f1a0e" x="612.82104" y="122.63171" style="fill: #ff8c00; stroke: #ff8c00"/>
     <use xlink:href="#m33274f1a0e" x="615.446336" y="124.130454" style="fill: #ff8c00; stroke: #ff8c00"/>
     <use xlink:href="#m33274f1a0e" x="618.071631" y="13993.164992" style="fill: #ff8c00; stroke: #ff8c00"/>
     <use xlink:href="#m33274f1a0e" x="620.696927" y="13993.164992" style="fill: #ff8c00; stroke: #ff8c00"/>
     <use xlink:href="#m33274f1a0e" x="623.322222" y="13993.164992" style="fill: #ff8c00; stroke: #ff8c00"/>
     <use xlink:href="#m33274f1a0e" x="625.947518" y="13993.164992" style="fill: #ff8c00; stroke: #ff8c00"/>
    </g>
   </g>
   <g id="line2d_32">
    <path d="M 405.502638 721 
L 405.613618 125.899041 
L 405.833334 116.688767 
L 406.138214 111.979103 
L 406.546729 108.753099 
L 407.061011 106.413427 
L 407.574534 104.977335 
L 408.083281 104.102162 
L 408.592028 103.646816 
L 409.066126 103.550353 
L 421.174467 103.550395 
L 421.174467 721 
M 421.2499 721 
L 421.360489 125.976835 
L 421.578985 116.730917 
L 421.906111 111.755261 
L 422.34296 108.456426 
L 422.838767 106.282282 
L 423.401406 104.76338 
L 423.964737 103.863309 
L 424.43418 103.473148 
L 424.921427 103.364584 
L 436.92624 103.364656 
L 436.92624 721 
M 436.997414 721 
L 437.107691 126.052738 
L 437.33255 116.59854 
L 437.652729 111.759596 
L 438.09644 108.410167 
L 438.613336 106.167599 
L 439.18474 104.649171 
L 439.767092 103.729339 
L 440.266251 103.315028 
L 440.784974 103.188504 
L 452.678013 103.188454 
L 452.678013 721 
M 452.745151 721 
L 452.85138 126.462703 
L 453.073329 116.769232 
L 453.387492 111.893192 
L 453.80929 108.598765 
L 454.303518 106.347793 
L 454.827481 104.843286 
L 455.430795 103.773328 
L 455.947921 103.258523 
L 456.465047 103.038793 
L 457.422119 103.022547 
L 468.429786 103.022548 
L 468.429786 721 
M 468.493091 721 
L 468.59516 126.909634 
L 468.816652 116.891036 
L 469.113845 112.127325 
L 469.547599 108.647159 
L 470.021466 106.440671 
L 470.60325 104.752093 
L 471.187793 103.711543 
L 471.772337 103.123136 
L 472.273374 102.8975 
L 472.979407 102.864782 
L 484.181559 102.864842 
L 484.181559 721 
M 484.241209 721 
L 484.349316 126.422808 
L 484.56094 116.998416 
L 484.856278 112.192334 
L 485.28119 108.727614 
L 485.760882 106.459737 
L 486.343175 104.746195 
L 486.953601 103.643822 
L 487.564027 103.018006 
L 488.08725 102.766206 
L 488.762728 102.714658 
L 499.933333 102.714737 
L 499.933333 721 
M 499.98949 721 
L 500.091366 127.073688 
L 500.301637 117.203754 
L 500.620612 112.017025 
L 501.027199 108.736809 
L 501.526989 106.382547 
L 502.100929 104.703046 
L 502.684441 103.630378 
L 503.267953 102.98732 
L 503.851465 102.660508 
L 504.50389 102.571587 
L 515.685106 102.571619 
L 515.685106 721 
M 515.737918 721 
L 515.8421 126.933612 
L 516.053766 117.130578 
L 516.381296 111.888181 
L 516.799876 108.588702 
L 517.318881 106.215479 
L 517.887194 104.59786 
L 518.48106 103.52872 
L 519.074926 102.884439 
L 519.668793 102.54757 
L 520.336892 102.434848 
L 531.436879 102.434926 
L 531.436879 721 
M 531.486457 721 
L 531.592585 126.835423 
L 531.803485 117.122612 
L 532.105998 112.155205 
L 532.513625 108.79642 
L 533.033581 106.329593 
L 533.624561 104.606481 
L 534.221262 103.510687 
L 534.817963 102.839086 
L 535.414665 102.469727 
L 536.096609 102.310197 
L 538.101851 102.30313 
L 547.188652 102.30313 
L 547.188652 721 
M 547.235092 721 
L 547.336844 127.348838 
L 547.542756 117.384922 
L 547.850103 112.213544 
L 548.253532 108.850106 
L 548.778759 106.335785 
L 549.349517 104.647138 
L 549.985034 103.462581 
L 550.652483 102.722935 
L 551.319931 102.335477 
L 552.08273 102.180478 
L 555.005071 102.175731 
L 562.940425 102.175731 
L 562.940425 721 
M 562.983816 721 
L 563.093838 126.660687 
L 563.322412 116.650623 
L 563.636276 111.810224 
L 564.076782 108.405138 
L 564.573988 106.161484 
L 565.103992 104.621436 
L 565.694446 103.497948 
L 566.2849 102.785555 
L 566.959705 102.318376 
L 567.71886 102.089812 
L 568.799779 102.052333 
L 578.692198 102.052349 
L 578.692198 721 
M 578.7326 721 
L 578.840857 126.926871 
L 579.054588 117.075994 
L 579.376218 111.914057 
L 579.786022 108.638502 
L 580.313275 106.191205 
L 580.916855 104.462944 
L 581.546453 103.32651 
L 582.176729 102.623419 
L 582.808362 102.215767 
L 583.545266 101.989748 
L 584.552592 101.931861 
L 594.443971 101.931865 
L 594.443971 721 
M 594.48141 721 
L 594.589937 127.015051 
L 594.796783 117.273497 
L 595.119463 111.985409 
L 595.512787 108.775666 
L 596.021596 106.337018 
L 596.578099 104.658486 
L 597.204704 103.441818 
L 597.797121 102.709895 
L 598.427462 102.234061 
L 599.162861 101.942504 
L 600.108374 101.816954 
L 604.233544 101.812524 
L 610.195744 101.812524 
L 610.195744 721 
M 610.230217 721 
L 610.338413 127.172676 
L 610.54508 117.321478 
L 610.857442 112.118256 
L 611.254423 108.824536 
L 611.760646 106.372314 
L 612.313274 104.684698 
L 612.935126 103.455365 
L 613.557899 102.672463 
L 614.28662 102.131257 
L 615.119443 101.825093 
L 616.160473 101.699548 
L 619.908178 101.693246 
L 626.603841 101.693246 
L 626.603841 101.693246 
" clip-path="url(#p74a451df1d)" style="fill: none; stroke: #0000ff; stroke-width: 1.5; stroke-linecap: square"/>
   </g>
   <g id="line2d_33">
    <g clip-path="url(#p74a451df1d)">
     <use xlink:href="#m39b28b5c4c" x="408.047989" y="104.150004" style="fill: #0000ff; stroke: #0000ff"/>
     <use xlink:href="#m39b28b5c4c" x="410.673285" y="103.550395" style="fill: #0000ff; stroke: #0000ff"/>
     <use xlink:href="#m39b28b5c4c" x="413.29858" y="103.550395" style="fill: #0000ff; stroke: #0000ff"/>
     <use xlink:href="#m39b28b5c4c" x="415.923876" y="103.550395" style="fill: #0000ff; stroke: #0000ff"/>
     <use xlink:href="#m39b28b5c4c" x="418.549171" y="103.550395" style="fill: #0000ff; stroke: #0000ff"/>
     <use xlink:href="#m39b28b5c4c" x="421.174467" y="13993.164992" style="fill: #0000ff; stroke: #0000ff"/>
     <use xlink:href="#m39b28b5c4c" x="612.82104" y="103.642166" style="fill: #0000ff; stroke: #0000ff"/>
     <use xlink:href="#m39b28b5c4c" x="615.446336" y="101.763384" style="fill: #0000ff; stroke: #0000ff"/>
     <use xlink:href="#m39b28b5c4c" x="618.071631" y="101.693245" style="fill: #0000ff; stroke: #0000ff"/>
     <use xlink:href="#m39b28b5c4c" x="620.696927" y="101.693246" style="fill: #0000ff; stroke: #0000ff"/>
     <use xlink:href="#m39b28b5c4c" x="623.322222" y="101.693246" style="fill: #0000ff; stroke: #0000ff"/>
     <use xlink:href="#m39b28b5c4c" x="625.947518" y="101.693246" style="fill: #0000ff; stroke: #0000ff"/>
    </g>
   </g>
   <g id="line2d_34">
    <g clip-path="url(#p74a451df1d)">
     <use xlink:href="#maf0743728a" x="408.047989" y="106.813396" style="stroke: #000000; stroke-linejoin: miter"/>
     <use xlink:href="#maf0743728a" x="410.673285" y="103.024924" style="stroke: #000000; stroke-linejoin: miter"/>
     <use xlink:href="#maf0743728a" x="413.29858" y="100.448822" style="stroke: #000000; stroke-linejoin: miter"/>
     <use xlink:href="#maf0743728a" x="415.923876" y="99.263297" style="stroke: #000000; stroke-linejoin: miter"/>
     <use xlink:href="#maf0743728a" x="418.549171" y="98.728148" style="stroke: #000000; stroke-linejoin: miter"/>
     <use xlink:href="#maf0743728a" x="421.174467" y="98.649878" style="stroke: #000000; stroke-linejoin: miter"/>
     <use xlink:href="#maf0743728a" x="612.82104" y="108.363706" style="stroke: #000000; stroke-linejoin: miter"/>
     <use xlink:href="#maf0743728a" x="615.446336" y="104.000822" style="stroke: #000000; stroke-linejoin: miter"/>
     <use xlink:href="#maf0743728a" x="618.071631" y="101.618368" style="stroke: #000000; stroke-linejoin: miter"/>
     <use xlink:href="#maf0743728a" x="620.696927" y="100.298185" style="stroke: #000000; stroke-linejoin: miter"/>
     <use xlink:href="#maf0743728a" x="623.322222" y="98.664013" style="stroke: #000000; stroke-linejoin: miter"/>
     <use xlink:href="#maf0743728a" x="625.947518" y="97.854545" style="stroke: #000000; stroke-linejoin: miter"/>
    </g>
   </g>
   <g id="patch_9">
    <path d="M 394.363636 338.4 
L 394.363636 86.4 
" style="fill: none; stroke: #000000; stroke-width: 0.8; stroke-linejoin: miter; stroke-linecap: square"/>
   </g>
   <g id="patch_10">
    <path d="M 648 338.4 
L 648 86.4 
" style="fill: none; stroke: #000000; stroke-width: 0.8; stroke-linejoin: miter; stroke-linecap: square"/>
   </g>
   <g id="patch_11">
    <path d="M 394.363636 338.4 
L 648 338.4 
" style="fill: none; stroke: #000000; stroke-width: 0.8; stroke-linejoin: miter; stroke-linecap: square"/>
   </g>
   <g id="patch_12">
    <path d="M 394.363636 86.4 
L 648 86.4 
" style="fill: none; stroke: #000000; stroke-width: 0.8; stroke-linejoin: miter; stroke-linecap: square"/>
   </g>
   <g id="text_18">
    <!-- FDAMB102002.fm_dap2.5_uge -->
    <g transform="translate(413.530568 80.4) scale(0.14 -0.14)">
     <use xlink:href="#DejaVuSans-46"/>
     <use xlink:href="#DejaVuSans-44" x="57.519531"/>
     <use xlink:href="#DejaVuSans-41" x="132.771484"/>
     <use xlink:href="#DejaVuSans-4d" x="201.179688"/>
     <use xlink:href="#DejaVuSans-42" x="287.458984"/>
     <use xlink:href="#DejaVuSans-31" x="356.0625"/>
     <use xlink:href="#DejaVuSans-30" x="419.685547"/>
     <use xlink:href="#DejaVuSans-32" x="483.308594"/>
     <use xlink:href="#DejaVuSans-30" x="546.931641"/>
     <use xlink:href="#DejaVuSans-30" x="610.554688"/>
     <use xlink:href="#DejaVuSans-32" x="674.177734"/>
     <use xlink:href="#DejaVuSans-2e" x="737.800781"/>
     <use xlink:href="#DejaVuSans-66" x="769.587891"/>
     <use xlink:href="#DejaVuSans-6d" x="804.792969"/>
     <use xlink:href="#DejaVuSans-5f" x="902.205078"/>
     <use xlink:href="#DejaVuSans-64" x="952.205078"/>
     <use xlink:href="#DejaVuSans-61" x="1015.681641"/>
     <use xlink:href="#DejaVuSans-70" x="1076.960938"/>
     <use xlink:href="#DejaVuSans-32" x="1140.4375"/>
     <use xlink:href="#DejaVuSans-2e" x="1204.060547"/>
     <use xlink:href="#DejaVuSans-35" x="1235.847656"/>
     <use xlink:href="#DejaVuSans-5f" x="1299.470703"/>
     <use xlink:href="#DejaVuSans-75" x="1349.470703"/>
     <use xlink:href="#DejaVuSans-67" x="1412.849609"/>
     <use xlink:href="#DejaVuSans-65" x="1476.326172"/>
    </g>
   </g>
   <g id="legend_2">
    <g id="patch_13">
     <path d="M 533.734375 333.4 
L 641 333.4 
Q 643 333.4 643 331.4 
L 643 273.409375 
Q 643 271.409375 641 271.409375 
L 533.734375 271.409375 
Q 531.734375 271.409375 531.734375 273.409375 
L 531.734375 331.4 
Q 531.734375 333.4 533.734375 333.4 
z
" style="fill: #ffffff; opacity: 0.8; stroke: #cccccc; stroke-linejoin: miter"/>
    </g>
    <g id="line2d_35">
     <g>
      <use xlink:href="#m33274f1a0e" x="545.734375" y="279.507812" style="fill: #ff8c00; stroke: #ff8c00"/>
     </g>
    </g>
    <g id="text_19">
     <!-- residuals -->
     <g transform="translate(563.734375 283.007812) scale(0.1 -0.1)">
      <use xlink:href="#DejaVuSans-72"/>
      <use xlink:href="#DejaVuSans-65" x="38.863281"/>
      <use xlink:href="#DejaVuSans-73" x="100.386719"/>
      <use xlink:href="#DejaVuSans-69" x="152.486328"/>
      <use xlink:href="#DejaVuSans-64" x="180.269531"/>
      <use xlink:href="#DejaVuSans-75" x="243.746094"/>
      <use xlink:href="#DejaVuSans-61" x="307.125"/>
      <use xlink:href="#DejaVuSans-6c" x="368.404297"/>
      <use xlink:href="#DejaVuSans-73" x="396.1875"/>
     </g>
    </g>
    <g id="line2d_36">
     <path d="M 535.734375 294.185938 
L 545.734375 294.185938 
L 555.734375 294.185938 
" style="fill: none; stroke: #0000ff; stroke-width: 1.5; stroke-linecap: square"/>
    </g>
    <g id="text_20">
     <!-- observable -->
     <g transform="translate(563.734375 297.685938) scale(0.1 -0.1)">
      <use xlink:href="#DejaVuSans-6f"/>
      <use xlink:href="#DejaVuSans-62" x="61.181641"/>
      <use xlink:href="#DejaVuSans-73" x="124.658203"/>
      <use xlink:href="#DejaVuSans-65" x="176.757812"/>
      <use xlink:href="#DejaVuSans-72" x="238.28125"/>
      <use xlink:href="#DejaVuSans-76" x="279.394531"/>
      <use xlink:href="#DejaVuSans-61" x="338.574219"/>
      <use xlink:href="#DejaVuSans-62" x="399.853516"/>
      <use xlink:href="#DejaVuSans-6c" x="463.330078"/>
      <use xlink:href="#DejaVuSans-65" x="491.113281"/>
     </g>
    </g>
    <g id="line2d_37">
     <g>
      <use xlink:href="#m39b28b5c4c" x="545.734375" y="308.864062" style="fill: #0000ff; stroke: #0000ff"/>
     </g>
    </g>
    <g id="text_21">
     <!-- interpolation -->
     <g transform="translate(563.734375 312.364062) scale(0.1 -0.1)">
      <use xlink:href="#DejaVuSans-69"/>
      <use xlink:href="#DejaVuSans-6e" x="27.783203"/>
      <use xlink:href="#DejaVuSans-74" x="91.162109"/>
      <use xlink:href="#DejaVuSans-65" x="130.371094"/>
      <use xlink:href="#DejaVuSans-72" x="191.894531"/>
      <use xlink:href="#DejaVuSans-70" x="233.007812"/>
      <use xlink:href="#DejaVuSans-6f" x="296.484375"/>
      <use xlink:href="#DejaVuSans-6c" x="357.666016"/>
      <use xlink:href="#DejaVuSans-61" x="385.449219"/>
      <use xlink:href="#DejaVuSans-74" x="446.728516"/>
      <use xlink:href="#DejaVuSans-69" x="485.9375"/>
      <use xlink:href="#DejaVuSans-6f" x="513.720703"/>
      <use xlink:href="#DejaVuSans-6e" x="574.902344"/>
     </g>
    </g>
    <g id="line2d_38">
     <g>
      <use xlink:href="#maf0743728a" x="545.734375" y="323.542188" style="stroke: #000000; stroke-linejoin: miter"/>
     </g>
    </g>
    <g id="text_22">
     <!-- reference_data -->
     <g transform="translate(563.734375 327.042188) scale(0.1 -0.1)">
      <use xlink:href="#DejaVuSans-72"/>
      <use xlink:href="#DejaVuSans-65" x="38.863281"/>
      <use xlink:href="#DejaVuSans-66" x="100.386719"/>
      <use xlink:href="#DejaVuSans-65" x="135.591797"/>
      <use xlink:href="#DejaVuSans-72" x="197.115234"/>
      <use xlink:href="#DejaVuSans-65" x="235.978516"/>
      <use xlink:href="#DejaVuSans-6e" x="297.501953"/>
      <use xlink:href="#DejaVuSans-63" x="360.880859"/>
      <use xlink:href="#DejaVuSans-65" x="415.861328"/>
      <use xlink:href="#DejaVuSans-5f" x="477.384766"/>
      <use xlink:href="#DejaVuSans-64" x="527.384766"/>
      <use xlink:href="#DejaVuSans-61" x="590.861328"/>
      <use xlink:href="#DejaVuSans-74" x="652.140625"/>
      <use xlink:href="#DejaVuSans-61" x="691.349609"/>
     </g>
    </g>
   </g>
  </g>
  <g id="axes_3">
   <g id="patch_14">
    <path d="M 90 640.8 
L 343.636364 640.8 
L 343.636364 388.8 
L 90 388.8 
z
" style="fill: #ffffff"/>
   </g>
   <g id="PolyCollection_3">
    <defs>
     <path id="m8912193ce0" d="M 103.684353 -90.654545 
L 103.684353 -95.365952 
L 106.309648 -91.028489 
L 108.934944 -111.062437 
L 111.560239 -139.078876 
L 114.185535 -158.357973 
L 116.810831 -319.745455 
L 308.457404 -103.548011 
L 311.082699 -98.495474 
L 313.707995 -90.667587 
L 316.33329 -96.315341 
L 318.958586 -126.242468 
L 321.583881 -156.852753 
L 321.583881 -90.654545 
L 321.583881 -90.654545 
L 318.958586 -90.654545 
L 316.33329 -90.654545 
L 313.707995 -90.654545 
L 311.082699 -90.654545 
L 308.457404 -90.654545 
L 116.810831 -90.654545 
L 114.185535 -90.654545 
L 111.560239 -90.654545 
L 108.934944 -90.654545 
L 106.309648 -90.654545 
L 103.684353 -90.654545 
z
" style="stroke: #8b0000; stroke-opacity: 0.4"/>
    </defs>
    <g clip-path="url(#pce8f2424ee)">
     <use xlink:href="#m8912193ce0" x="0" y="720" style="fill: #8b0000; fill-opacity: 0.4; stroke: #8b0000; stroke-opacity: 0.4"/>
    </g>
   </g>
   <g id="matplotlib.axis_5">
    <g id="xtick_11">
     <g id="line2d_39">
      <g>
       <use xlink:href="#ma07750df6c" x="101.059057" y="640.8" style="stroke: #000000; stroke-width: 0.8"/>
      </g>
     </g>
     <g id="text_23">
      <!-- 0 -->
      <g transform="translate(97.877807 655.398438) scale(0.1 -0.1)">
       <use xlink:href="#DejaVuSans-30"/>
      </g>
     </g>
    </g>
    <g id="xtick_12">
     <g id="line2d_40">
      <g>
       <use xlink:href="#ma07750df6c" x="155.752714" y="640.8" style="stroke: #000000; stroke-width: 0.8"/>
      </g>
     </g>
     <g id="text_24">
      <!-- 5000 -->
      <g transform="translate(143.027714 655.398438) scale(0.1 -0.1)">
       <use xlink:href="#DejaVuSans-35"/>
       <use xlink:href="#DejaVuSans-30" x="63.623047"/>
       <use xlink:href="#DejaVuSans-30" x="127.246094"/>
       <use xlink:href="#DejaVuSans-30" x="190.869141"/>
      </g>
     </g>
    </g>
    <g id="xtick_13">
     <g id="line2d_41">
      <g>
       <use xlink:href="#ma07750df6c" x="210.446371" y="640.8" style="stroke: #000000; stroke-width: 0.8"/>
      </g>
     </g>
     <g id="text_25">
      <!-- 10000 -->
      <g transform="translate(194.540121 655.398438) scale(0.1 -0.1)">
       <use xlink:href="#DejaVuSans-31"/>
       <use xlink:href="#DejaVuSans-30" x="63.623047"/>
       <use xlink:href="#DejaVuSans-30" x="127.246094"/>
       <use xlink:href="#DejaVuSans-30" x="190.869141"/>
       <use xlink:href="#DejaVuSans-30" x="254.492188"/>
      </g>
     </g>
    </g>
    <g id="xtick_14">
     <g id="line2d_42">
      <g>
       <use xlink:href="#ma07750df6c" x="265.140028" y="640.8" style="stroke: #000000; stroke-width: 0.8"/>
      </g>
     </g>
     <g id="text_26">
      <!-- 15000 -->
      <g transform="translate(249.233778 655.398438) scale(0.1 -0.1)">
       <use xlink:href="#DejaVuSans-31"/>
       <use xlink:href="#DejaVuSans-35" x="63.623047"/>
       <use xlink:href="#DejaVuSans-30" x="127.246094"/>
       <use xlink:href="#DejaVuSans-30" x="190.869141"/>
       <use xlink:href="#DejaVuSans-30" x="254.492188"/>
      </g>
     </g>
    </g>
    <g id="xtick_15">
     <g id="line2d_43">
      <g>
       <use xlink:href="#ma07750df6c" x="319.833684" y="640.8" style="stroke: #000000; stroke-width: 0.8"/>
      </g>
     </g>
     <g id="text_27">
      <!-- 20000 -->
      <g transform="translate(303.927434 655.398438) scale(0.1 -0.1)">
       <use xlink:href="#DejaVuSans-32"/>
       <use xlink:href="#DejaVuSans-30" x="63.623047"/>
       <use xlink:href="#DejaVuSans-30" x="127.246094"/>
       <use xlink:href="#DejaVuSans-30" x="190.869141"/>
       <use xlink:href="#DejaVuSans-30" x="254.492188"/>
      </g>
     </g>
    </g>
    <g id="text_28">
     <!-- time -->
     <g transform="translate(203.262869 670.59625) scale(0.12 -0.12)">
      <use xlink:href="#DejaVuSans-74"/>
      <use xlink:href="#DejaVuSans-69" x="39.208984"/>
      <use xlink:href="#DejaVuSans-6d" x="66.992188"/>
      <use xlink:href="#DejaVuSans-65" x="164.404297"/>
     </g>
    </g>
   </g>
   <g id="matplotlib.axis_6">
    <g id="ytick_12">
     <g id="line2d_44">
      <g>
       <use xlink:href="#md7907dc364" x="90" y="629.345455" style="stroke: #000000; stroke-width: 0.8"/>
      </g>
     </g>
     <g id="text_29">
      <!-- 0.00 -->
      <g transform="translate(60.734375 633.144673) scale(0.1 -0.1)">
       <use xlink:href="#DejaVuSans-30"/>
       <use xlink:href="#DejaVuSans-2e" x="63.623047"/>
       <use xlink:href="#DejaVuSans-30" x="95.410156"/>
       <use xlink:href="#DejaVuSans-30" x="159.033203"/>
      </g>
     </g>
    </g>
    <g id="ytick_13">
     <g id="line2d_45">
      <g>
       <use xlink:href="#md7907dc364" x="90" y="600.638286" style="stroke: #000000; stroke-width: 0.8"/>
      </g>
     </g>
     <g id="text_30">
      <!-- 0.25 -->
      <g transform="translate(60.734375 604.437505) scale(0.1 -0.1)">
       <use xlink:href="#DejaVuSans-30"/>
       <use xlink:href="#DejaVuSans-2e" x="63.623047"/>
       <use xlink:href="#DejaVuSans-32" x="95.410156"/>
       <use xlink:href="#DejaVuSans-35" x="159.033203"/>
      </g>
     </g>
    </g>
    <g id="ytick_14">
     <g id="line2d_46">
      <g>
       <use xlink:href="#md7907dc364" x="90" y="571.931118" style="stroke: #000000; stroke-width: 0.8"/>
      </g>
     </g>
     <g id="text_31">
      <!-- 0.50 -->
      <g transform="translate(60.734375 575.730337) scale(0.1 -0.1)">
       <use xlink:href="#DejaVuSans-30"/>
       <use xlink:href="#DejaVuSans-2e" x="63.623047"/>
       <use xlink:href="#DejaVuSans-35" x="95.410156"/>
       <use xlink:href="#DejaVuSans-30" x="159.033203"/>
      </g>
     </g>
    </g>
    <g id="ytick_15">
     <g id="line2d_47">
      <g>
       <use xlink:href="#md7907dc364" x="90" y="543.22395" style="stroke: #000000; stroke-width: 0.8"/>
      </g>
     </g>
     <g id="text_32">
      <!-- 0.75 -->
      <g transform="translate(60.734375 547.023169) scale(0.1 -0.1)">
       <defs>
        <path id="DejaVuSans-37" d="M 525 4666 
L 3525 4666 
L 3525 4397 
L 1831 0 
L 1172 0 
L 2766 4134 
L 525 4134 
L 525 4666 
z
" transform="scale(0.015625)"/>
       </defs>
       <use xlink:href="#DejaVuSans-30"/>
       <use xlink:href="#DejaVuSans-2e" x="63.623047"/>
       <use xlink:href="#DejaVuSans-37" x="95.410156"/>
       <use xlink:href="#DejaVuSans-35" x="159.033203"/>
      </g>
     </g>
    </g>
    <g id="ytick_16">
     <g id="line2d_48">
      <g>
       <use xlink:href="#md7907dc364" x="90" y="514.516782" style="stroke: #000000; stroke-width: 0.8"/>
      </g>
     </g>
     <g id="text_33">
      <!-- 1.00 -->
      <g transform="translate(60.734375 518.316) scale(0.1 -0.1)">
       <use xlink:href="#DejaVuSans-31"/>
       <use xlink:href="#DejaVuSans-2e" x="63.623047"/>
       <use xlink:href="#DejaVuSans-30" x="95.410156"/>
       <use xlink:href="#DejaVuSans-30" x="159.033203"/>
      </g>
     </g>
    </g>
    <g id="ytick_17">
     <g id="line2d_49">
      <g>
       <use xlink:href="#md7907dc364" x="90" y="485.809613" style="stroke: #000000; stroke-width: 0.8"/>
      </g>
     </g>
     <g id="text_34">
      <!-- 1.25 -->
      <g transform="translate(60.734375 489.608832) scale(0.1 -0.1)">
       <use xlink:href="#DejaVuSans-31"/>
       <use xlink:href="#DejaVuSans-2e" x="63.623047"/>
       <use xlink:href="#DejaVuSans-32" x="95.410156"/>
       <use xlink:href="#DejaVuSans-35" x="159.033203"/>
      </g>
     </g>
    </g>
    <g id="ytick_18">
     <g id="line2d_50">
      <g>
       <use xlink:href="#md7907dc364" x="90" y="457.102445" style="stroke: #000000; stroke-width: 0.8"/>
      </g>
     </g>
     <g id="text_35">
      <!-- 1.50 -->
      <g transform="translate(60.734375 460.901664) scale(0.1 -0.1)">
       <use xlink:href="#DejaVuSans-31"/>
       <use xlink:href="#DejaVuSans-2e" x="63.623047"/>
       <use xlink:href="#DejaVuSans-35" x="95.410156"/>
       <use xlink:href="#DejaVuSans-30" x="159.033203"/>
      </g>
     </g>
    </g>
    <g id="ytick_19">
     <g id="line2d_51">
      <g>
       <use xlink:href="#md7907dc364" x="90" y="428.395277" style="stroke: #000000; stroke-width: 0.8"/>
      </g>
     </g>
     <g id="text_36">
      <!-- 1.75 -->
      <g transform="translate(60.734375 432.194496) scale(0.1 -0.1)">
       <use xlink:href="#DejaVuSans-31"/>
       <use xlink:href="#DejaVuSans-2e" x="63.623047"/>
       <use xlink:href="#DejaVuSans-37" x="95.410156"/>
       <use xlink:href="#DejaVuSans-35" x="159.033203"/>
      </g>
     </g>
    </g>
    <g id="ytick_20">
     <g id="line2d_52">
      <g>
       <use xlink:href="#md7907dc364" x="90" y="399.688109" style="stroke: #000000; stroke-width: 0.8"/>
      </g>
     </g>
     <g id="text_37">
      <!-- 2.00 -->
      <g transform="translate(60.734375 403.487327) scale(0.1 -0.1)">
       <use xlink:href="#DejaVuSans-32"/>
       <use xlink:href="#DejaVuSans-2e" x="63.623047"/>
       <use xlink:href="#DejaVuSans-30" x="95.410156"/>
       <use xlink:href="#DejaVuSans-30" x="159.033203"/>
      </g>
     </g>
    </g>
    <g id="text_38">
     <!-- KI__UGE -->
     <g transform="translate(53.905 539.33625) rotate(-90) scale(0.12 -0.12)">
      <use xlink:href="#DejaVuSans-4b"/>
      <use xlink:href="#DejaVuSans-49" x="65.576172"/>
      <use xlink:href="#DejaVuSans-5f" x="95.068359"/>
      <use xlink:href="#DejaVuSans-5f" x="145.068359"/>
      <use xlink:href="#DejaVuSans-55" x="195.068359"/>
      <use xlink:href="#DejaVuSans-47" x="268.261719"/>
      <use xlink:href="#DejaVuSans-45" x="345.751953"/>
     </g>
    </g>
   </g>
   <g id="line2d_53">
    <path d="M 90 629.345455 
L 343.636364 629.345455 
" clip-path="url(#pce8f2424ee)" style="fill: none; stroke: #000000; stroke-width: 1.5; stroke-linecap: square"/>
   </g>
   <g id="line2d_54">
    <defs>
     <path id="m80584660f9" d="M 0 3 
C 0.795609 3 1.55874 2.683901 2.12132 2.12132 
C 2.683901 1.55874 3 0.795609 3 0 
C 3 -0.795609 2.683901 -1.55874 2.12132 -2.12132 
C 1.55874 -2.683901 0.795609 -3 0 -3 
C -0.795609 -3 -1.55874 -2.683901 -2.12132 -2.12132 
C -2.683901 -1.55874 -3 -0.795609 -3 0 
C -3 0.795609 -2.683901 1.55874 -2.12132 2.12132 
C -1.55874 2.683901 -0.795609 3 0 3 
z
" style="stroke: #ff0000"/>
    </defs>
    <g clip-path="url(#pce8f2424ee)">
     <use xlink:href="#m80584660f9" x="103.684353" y="624.634048" style="fill: #ff0000; stroke: #ff0000"/>
     <use xlink:href="#m80584660f9" x="106.309648" y="628.971511" style="fill: #ff0000; stroke: #ff0000"/>
     <use xlink:href="#m80584660f9" x="108.934944" y="608.937563" style="fill: #ff0000; stroke: #ff0000"/>
     <use xlink:href="#m80584660f9" x="111.560239" y="580.921124" style="fill: #ff0000; stroke: #ff0000"/>
     <use xlink:href="#m80584660f9" x="114.185535" y="561.642027" style="fill: #ff0000; stroke: #ff0000"/>
     <use xlink:href="#m80584660f9" x="116.810831" y="400.254545" style="fill: #ff0000; stroke: #ff0000"/>
     <use xlink:href="#m80584660f9" x="308.457404" y="616.451989" style="fill: #ff0000; stroke: #ff0000"/>
     <use xlink:href="#m80584660f9" x="311.082699" y="621.504526" style="fill: #ff0000; stroke: #ff0000"/>
     <use xlink:href="#m80584660f9" x="313.707995" y="629.332413" style="fill: #ff0000; stroke: #ff0000"/>
     <use xlink:href="#m80584660f9" x="316.33329" y="623.684659" style="fill: #ff0000; stroke: #ff0000"/>
     <use xlink:href="#m80584660f9" x="318.958586" y="593.757532" style="fill: #ff0000; stroke: #ff0000"/>
     <use xlink:href="#m80584660f9" x="321.583881" y="563.147247" style="fill: #ff0000; stroke: #ff0000"/>
    </g>
   </g>
   <g id="patch_15">
    <path d="M 90 640.8 
L 90 388.8 
" style="fill: none; stroke: #000000; stroke-width: 0.8; stroke-linejoin: miter; stroke-linecap: square"/>
   </g>
   <g id="patch_16">
    <path d="M 343.636364 640.8 
L 343.636364 388.8 
" style="fill: none; stroke: #000000; stroke-width: 0.8; stroke-linejoin: miter; stroke-linecap: square"/>
   </g>
   <g id="patch_17">
    <path d="M 90 640.8 
L 343.636364 640.8 
" style="fill: none; stroke: #000000; stroke-width: 0.8; stroke-linejoin: miter; stroke-linecap: square"/>
   </g>
   <g id="patch_18">
    <path d="M 90 388.8 
L 343.636364 388.8 
" style="fill: none; stroke: #000000; stroke-width: 0.8; stroke-linejoin: miter; stroke-linecap: square"/>
   </g>
   <g id="legend_3">
    <g id="patch_19">
     <path d="M 187.867614 411.478125 
L 336.636364 411.478125 
Q 338.636364 411.478125 338.636364 409.478125 
L 338.636364 395.8 
Q 338.636364 393.8 336.636364 393.8 
L 187.867614 393.8 
Q 185.867614 393.8 185.867614 395.8 
L 185.867614 409.478125 
Q 185.867614 411.478125 187.867614 411.478125 
z
" style="fill: #ffffff; opacity: 0.8; stroke: #cccccc; stroke-linejoin: miter"/>
    </g>
    <g id="line2d_55">
     <g>
      <use xlink:href="#m80584660f9" x="199.867614" y="401.898438" style="fill: #ff0000; stroke: #ff0000"/>
     </g>
    </g>
    <g id="text_39">
     <!-- (weighted residuals)^2 -->
     <g transform="translate(217.867614 405.398438) scale(0.1 -0.1)">
      <defs>
       <path id="DejaVuSans-28" d="M 1984 4856 
Q 1566 4138 1362 3434 
Q 1159 2731 1159 2009 
Q 1159 1288 1364 580 
Q 1569 -128 1984 -844 
L 1484 -844 
Q 1016 -109 783 600 
Q 550 1309 550 2009 
Q 550 2706 781 3412 
Q 1013 4119 1484 4856 
L 1984 4856 
z
" transform="scale(0.015625)"/>
       <path id="DejaVuSans-77" d="M 269 3500 
L 844 3500 
L 1563 769 
L 2278 3500 
L 2956 3500 
L 3675 769 
L 4391 3500 
L 4966 3500 
L 4050 0 
L 3372 0 
L 2619 2869 
L 1863 0 
L 1184 0 
L 269 3500 
z
" transform="scale(0.015625)"/>
       <path id="DejaVuSans-68" d="M 3513 2113 
L 3513 0 
L 2938 0 
L 2938 2094 
Q 2938 2591 2744 2837 
Q 2550 3084 2163 3084 
Q 1697 3084 1428 2787 
Q 1159 2491 1159 1978 
L 1159 0 
L 581 0 
L 581 4863 
L 1159 4863 
L 1159 2956 
Q 1366 3272 1645 3428 
Q 1925 3584 2291 3584 
Q 2894 3584 3203 3211 
Q 3513 2838 3513 2113 
z
" transform="scale(0.015625)"/>
       <path id="DejaVuSans-20" transform="scale(0.015625)"/>
       <path id="DejaVuSans-29" d="M 513 4856 
L 1013 4856 
Q 1481 4119 1714 3412 
Q 1947 2706 1947 2009 
Q 1947 1309 1714 600 
Q 1481 -109 1013 -844 
L 513 -844 
Q 928 -128 1133 580 
Q 1338 1288 1338 2009 
Q 1338 2731 1133 3434 
Q 928 4138 513 4856 
z
" transform="scale(0.015625)"/>
       <path id="DejaVuSans-5e" d="M 2988 4666 
L 4684 2925 
L 4056 2925 
L 2681 4159 
L 1306 2925 
L 678 2925 
L 2375 4666 
L 2988 4666 
z
" transform="scale(0.015625)"/>
      </defs>
      <use xlink:href="#DejaVuSans-28"/>
      <use xlink:href="#DejaVuSans-77" x="39.013672"/>
      <use xlink:href="#DejaVuSans-65" x="120.800781"/>
      <use xlink:href="#DejaVuSans-69" x="182.324219"/>
      <use xlink:href="#DejaVuSans-67" x="210.107422"/>
      <use xlink:href="#DejaVuSans-68" x="273.583984"/>
      <use xlink:href="#DejaVuSans-74" x="336.962891"/>
      <use xlink:href="#DejaVuSans-65" x="376.171875"/>
      <use xlink:href="#DejaVuSans-64" x="437.695312"/>
      <use xlink:href="#DejaVuSans-20" x="501.171875"/>
      <use xlink:href="#DejaVuSans-72" x="532.958984"/>
      <use xlink:href="#DejaVuSans-65" x="571.822266"/>
      <use xlink:href="#DejaVuSans-73" x="633.345703"/>
      <use xlink:href="#DejaVuSans-69" x="685.445312"/>
      <use xlink:href="#DejaVuSans-64" x="713.228516"/>
      <use xlink:href="#DejaVuSans-75" x="776.705078"/>
      <use xlink:href="#DejaVuSans-61" x="840.083984"/>
      <use xlink:href="#DejaVuSans-6c" x="901.363281"/>
      <use xlink:href="#DejaVuSans-73" x="929.146484"/>
      <use xlink:href="#DejaVuSans-29" x="981.246094"/>
      <use xlink:href="#DejaVuSans-5e" x="1020.259766"/>
      <use xlink:href="#DejaVuSans-32" x="1104.048828"/>
     </g>
    </g>
   </g>
  </g>
  <g id="axes_4">
   <g id="patch_20">
    <path d="M 394.363636 640.8 
L 648 640.8 
L 648 388.8 
L 394.363636 388.8 
z
" style="fill: #ffffff"/>
   </g>
   <g id="PolyCollection_4">
    <path d="M 408.047989 54387.58226 
L 408.047989 491.296153 
L 410.673285 550.682976 
L 413.29858 456.93556 
L 415.923876 436.682054 
L 418.549171 428.826715 
L 421.174467 400.254545 
L 612.82104 467.698942 
L 615.446336 479.356824 
L 618.071631 629.345455 
L 620.696927 486.993204 
L 623.322222 443.901287 
L 625.947518 429.353712 
L 625.947518 54387.58226 
L 625.947518 54387.58226 
L 623.322222 54387.58226 
L 620.696927 54387.58226 
L 618.071631 54387.58226 
L 615.446336 54387.58226 
L 612.82104 54387.58226 
L 421.174467 54387.58226 
L 418.549171 54387.58226 
L 415.923876 54387.58226 
L 413.29858 54387.58226 
L 410.673285 54387.58226 
L 408.047989 54387.58226 
z
" clip-path="url(#p546ad47c7a)" style="fill: #8b0000; fill-opacity: 0.4; stroke: #8b0000; stroke-opacity: 0.4"/>
   </g>
   <g id="matplotlib.axis_7">
    <g id="xtick_16">
     <g id="line2d_56">
      <g>
       <use xlink:href="#ma07750df6c" x="405.422694" y="640.8" style="stroke: #000000; stroke-width: 0.8"/>
      </g>
     </g>
     <g id="text_40">
      <!-- 0 -->
      <g transform="translate(402.241444 655.398438) scale(0.1 -0.1)">
       <use xlink:href="#DejaVuSans-30"/>
      </g>
     </g>
    </g>
    <g id="xtick_17">
     <g id="line2d_57">
      <g>
       <use xlink:href="#ma07750df6c" x="460.11635" y="640.8" style="stroke: #000000; stroke-width: 0.8"/>
      </g>
     </g>
     <g id="text_41">
      <!-- 5000 -->
      <g transform="translate(447.39135 655.398438) scale(0.1 -0.1)">
       <use xlink:href="#DejaVuSans-35"/>
       <use xlink:href="#DejaVuSans-30" x="63.623047"/>
       <use xlink:href="#DejaVuSans-30" x="127.246094"/>
       <use xlink:href="#DejaVuSans-30" x="190.869141"/>
      </g>
     </g>
    </g>
    <g id="xtick_18">
     <g id="line2d_58">
      <g>
       <use xlink:href="#ma07750df6c" x="514.810007" y="640.8" style="stroke: #000000; stroke-width: 0.8"/>
      </g>
     </g>
     <g id="text_42">
      <!-- 10000 -->
      <g transform="translate(498.903757 655.398438) scale(0.1 -0.1)">
       <use xlink:href="#DejaVuSans-31"/>
       <use xlink:href="#DejaVuSans-30" x="63.623047"/>
       <use xlink:href="#DejaVuSans-30" x="127.246094"/>
       <use xlink:href="#DejaVuSans-30" x="190.869141"/>
       <use xlink:href="#DejaVuSans-30" x="254.492188"/>
      </g>
     </g>
    </g>
    <g id="xtick_19">
     <g id="line2d_59">
      <g>
       <use xlink:href="#ma07750df6c" x="569.503664" y="640.8" style="stroke: #000000; stroke-width: 0.8"/>
      </g>
     </g>
     <g id="text_43">
      <!-- 15000 -->
      <g transform="translate(553.597414 655.398438) scale(0.1 -0.1)">
       <use xlink:href="#DejaVuSans-31"/>
       <use xlink:href="#DejaVuSans-35" x="63.623047"/>
       <use xlink:href="#DejaVuSans-30" x="127.246094"/>
       <use xlink:href="#DejaVuSans-30" x="190.869141"/>
       <use xlink:href="#DejaVuSans-30" x="254.492188"/>
      </g>
     </g>
    </g>
    <g id="xtick_20">
     <g id="line2d_60">
      <g>
       <use xlink:href="#ma07750df6c" x="624.197321" y="640.8" style="stroke: #000000; stroke-width: 0.8"/>
      </g>
     </g>
     <g id="text_44">
      <!-- 20000 -->
      <g transform="translate(608.291071 655.398438) scale(0.1 -0.1)">
       <use xlink:href="#DejaVuSans-32"/>
       <use xlink:href="#DejaVuSans-30" x="63.623047"/>
       <use xlink:href="#DejaVuSans-30" x="127.246094"/>
       <use xlink:href="#DejaVuSans-30" x="190.869141"/>
       <use xlink:href="#DejaVuSans-30" x="254.492188"/>
      </g>
     </g>
    </g>
    <g id="text_45">
     <!-- time -->
     <g transform="translate(507.626506 670.59625) scale(0.12 -0.12)">
      <use xlink:href="#DejaVuSans-74"/>
      <use xlink:href="#DejaVuSans-69" x="39.208984"/>
      <use xlink:href="#DejaVuSans-6d" x="66.992188"/>
      <use xlink:href="#DejaVuSans-65" x="164.404297"/>
     </g>
    </g>
   </g>
   <g id="matplotlib.axis_8">
    <g id="ytick_21">
     <g id="line2d_61">
      <g>
       <use xlink:href="#md7907dc364" x="394.363636" y="632.328148" style="stroke: #000000; stroke-width: 0.8"/>
      </g>
     </g>
     <g id="text_46">
      <!-- $\mathdefault{10^{-4}}$ -->
      <g transform="translate(363.863636 636.127367) scale(0.1 -0.1)">
       <use xlink:href="#DejaVuSans-31" transform="translate(0 0.684375)"/>
       <use xlink:href="#DejaVuSans-30" transform="translate(63.623047 0.684375)"/>
       <use xlink:href="#DejaVuSans-2212" transform="translate(128.203125 38.965625) scale(0.7)"/>
       <use xlink:href="#DejaVuSans-34" transform="translate(186.855469 38.965625) scale(0.7)"/>
      </g>
     </g>
    </g>
    <g id="ytick_22">
     <g id="line2d_62">
      <g>
       <use xlink:href="#md7907dc364" x="394.363636" y="578.35701" style="stroke: #000000; stroke-width: 0.8"/>
      </g>
     </g>
     <g id="text_47">
      <!-- $\mathdefault{10^{-3}}$ -->
      <g transform="translate(363.863636 582.156229) scale(0.1 -0.1)">
       <defs>
        <path id="DejaVuSans-33" d="M 2597 2516 
Q 3050 2419 3304 2112 
Q 3559 1806 3559 1356 
Q 3559 666 3084 287 
Q 2609 -91 1734 -91 
Q 1441 -91 1130 -33 
Q 819 25 488 141 
L 488 750 
Q 750 597 1062 519 
Q 1375 441 1716 441 
Q 2309 441 2620 675 
Q 2931 909 2931 1356 
Q 2931 1769 2642 2001 
Q 2353 2234 1838 2234 
L 1294 2234 
L 1294 2753 
L 1863 2753 
Q 2328 2753 2575 2939 
Q 2822 3125 2822 3475 
Q 2822 3834 2567 4026 
Q 2313 4219 1838 4219 
Q 1578 4219 1281 4162 
Q 984 4106 628 3988 
L 628 4550 
Q 988 4650 1302 4700 
Q 1616 4750 1894 4750 
Q 2613 4750 3031 4423 
Q 3450 4097 3450 3541 
Q 3450 3153 3228 2886 
Q 3006 2619 2597 2516 
z
" transform="scale(0.015625)"/>
       </defs>
       <use xlink:href="#DejaVuSans-31" transform="translate(0 0.765625)"/>
       <use xlink:href="#DejaVuSans-30" transform="translate(63.623047 0.765625)"/>
       <use xlink:href="#DejaVuSans-2212" transform="translate(128.203125 39.046875) scale(0.7)"/>
       <use xlink:href="#DejaVuSans-33" transform="translate(186.855469 39.046875) scale(0.7)"/>
      </g>
     </g>
    </g>
    <g id="ytick_23">
     <g id="line2d_63">
      <g>
       <use xlink:href="#md7907dc364" x="394.363636" y="524.385871" style="stroke: #000000; stroke-width: 0.8"/>
      </g>
     </g>
     <g id="text_48">
      <!-- $\mathdefault{10^{-2}}$ -->
      <g transform="translate(363.863636 528.18509) scale(0.1 -0.1)">
       <use xlink:href="#DejaVuSans-31" transform="translate(0 0.765625)"/>
       <use xlink:href="#DejaVuSans-30" transform="translate(63.623047 0.765625)"/>
       <use xlink:href="#DejaVuSans-2212" transform="translate(128.203125 39.046875) scale(0.7)"/>
       <use xlink:href="#DejaVuSans-32" transform="translate(186.855469 39.046875) scale(0.7)"/>
      </g>
     </g>
    </g>
    <g id="ytick_24">
     <g id="line2d_64">
      <g>
       <use xlink:href="#md7907dc364" x="394.363636" y="470.414732" style="stroke: #000000; stroke-width: 0.8"/>
      </g>
     </g>
     <g id="text_49">
      <!-- $\mathdefault{10^{-1}}$ -->
      <g transform="translate(363.863636 474.213951) scale(0.1 -0.1)">
       <use xlink:href="#DejaVuSans-31" transform="translate(0 0.684375)"/>
       <use xlink:href="#DejaVuSans-30" transform="translate(63.623047 0.684375)"/>
       <use xlink:href="#DejaVuSans-2212" transform="translate(128.203125 38.965625) scale(0.7)"/>
       <use xlink:href="#DejaVuSans-31" transform="translate(186.855469 38.965625) scale(0.7)"/>
      </g>
     </g>
    </g>
    <g id="ytick_25">
     <g id="line2d_65">
      <g>
       <use xlink:href="#md7907dc364" x="394.363636" y="416.443594" style="stroke: #000000; stroke-width: 0.8"/>
      </g>
     </g>
     <g id="text_50">
      <!-- $\mathdefault{10^{0}}$ -->
      <g transform="translate(369.763636 420.242813) scale(0.1 -0.1)">
       <use xlink:href="#DejaVuSans-31" transform="translate(0 0.765625)"/>
       <use xlink:href="#DejaVuSans-30" transform="translate(63.623047 0.765625)"/>
       <use xlink:href="#DejaVuSans-30" transform="translate(128.203125 39.046875) scale(0.7)"/>
      </g>
     </g>
    </g>
    <g id="ytick_26">
     <g id="line2d_66">
      <defs>
       <path id="m6d392f9a50" d="M 0 0 
L -2 0 
" style="stroke: #000000; stroke-width: 0.6"/>
      </defs>
      <g>
       <use xlink:href="#m6d392f9a50" x="394.363636" y="640.688384" style="stroke: #000000; stroke-width: 0.6"/>
      </g>
     </g>
    </g>
    <g id="ytick_27">
     <g id="line2d_67">
      <g>
       <use xlink:href="#m6d392f9a50" x="394.363636" y="637.558492" style="stroke: #000000; stroke-width: 0.6"/>
      </g>
     </g>
    </g>
    <g id="ytick_28">
     <g id="line2d_68">
      <g>
       <use xlink:href="#m6d392f9a50" x="394.363636" y="634.797732" style="stroke: #000000; stroke-width: 0.6"/>
      </g>
     </g>
    </g>
    <g id="ytick_29">
     <g id="line2d_69">
      <g>
       <use xlink:href="#m6d392f9a50" x="394.363636" y="616.081217" style="stroke: #000000; stroke-width: 0.6"/>
      </g>
     </g>
    </g>
    <g id="ytick_30">
     <g id="line2d_70">
      <g>
       <use xlink:href="#m6d392f9a50" x="394.363636" y="606.577371" style="stroke: #000000; stroke-width: 0.6"/>
      </g>
     </g>
    </g>
    <g id="ytick_31">
     <g id="line2d_71">
      <g>
       <use xlink:href="#m6d392f9a50" x="394.363636" y="599.834285" style="stroke: #000000; stroke-width: 0.6"/>
      </g>
     </g>
    </g>
    <g id="ytick_32">
     <g id="line2d_72">
      <g>
       <use xlink:href="#m6d392f9a50" x="394.363636" y="594.603941" style="stroke: #000000; stroke-width: 0.6"/>
      </g>
     </g>
    </g>
    <g id="ytick_33">
     <g id="line2d_73">
      <g>
       <use xlink:href="#m6d392f9a50" x="394.363636" y="590.330439" style="stroke: #000000; stroke-width: 0.6"/>
      </g>
     </g>
    </g>
    <g id="ytick_34">
     <g id="line2d_74">
      <g>
       <use xlink:href="#m6d392f9a50" x="394.363636" y="586.717245" style="stroke: #000000; stroke-width: 0.6"/>
      </g>
     </g>
    </g>
    <g id="ytick_35">
     <g id="line2d_75">
      <g>
       <use xlink:href="#m6d392f9a50" x="394.363636" y="583.587354" style="stroke: #000000; stroke-width: 0.6"/>
      </g>
     </g>
    </g>
    <g id="ytick_36">
     <g id="line2d_76">
      <g>
       <use xlink:href="#m6d392f9a50" x="394.363636" y="580.826594" style="stroke: #000000; stroke-width: 0.6"/>
      </g>
     </g>
    </g>
    <g id="ytick_37">
     <g id="line2d_77">
      <g>
       <use xlink:href="#m6d392f9a50" x="394.363636" y="562.110078" style="stroke: #000000; stroke-width: 0.6"/>
      </g>
     </g>
    </g>
    <g id="ytick_38">
     <g id="line2d_78">
      <g>
       <use xlink:href="#m6d392f9a50" x="394.363636" y="552.606232" style="stroke: #000000; stroke-width: 0.6"/>
      </g>
     </g>
    </g>
    <g id="ytick_39">
     <g id="line2d_79">
      <g>
       <use xlink:href="#m6d392f9a50" x="394.363636" y="545.863147" style="stroke: #000000; stroke-width: 0.6"/>
      </g>
     </g>
    </g>
    <g id="ytick_40">
     <g id="line2d_80">
      <g>
       <use xlink:href="#m6d392f9a50" x="394.363636" y="540.632803" style="stroke: #000000; stroke-width: 0.6"/>
      </g>
     </g>
    </g>
    <g id="ytick_41">
     <g id="line2d_81">
      <g>
       <use xlink:href="#m6d392f9a50" x="394.363636" y="536.359301" style="stroke: #000000; stroke-width: 0.6"/>
      </g>
     </g>
    </g>
    <g id="ytick_42">
     <g id="line2d_82">
      <g>
       <use xlink:href="#m6d392f9a50" x="394.363636" y="532.746106" style="stroke: #000000; stroke-width: 0.6"/>
      </g>
     </g>
    </g>
    <g id="ytick_43">
     <g id="line2d_83">
      <g>
       <use xlink:href="#m6d392f9a50" x="394.363636" y="529.616215" style="stroke: #000000; stroke-width: 0.6"/>
      </g>
     </g>
    </g>
    <g id="ytick_44">
     <g id="line2d_84">
      <g>
       <use xlink:href="#m6d392f9a50" x="394.363636" y="526.855455" style="stroke: #000000; stroke-width: 0.6"/>
      </g>
     </g>
    </g>
    <g id="ytick_45">
     <g id="line2d_85">
      <g>
       <use xlink:href="#m6d392f9a50" x="394.363636" y="508.13894" style="stroke: #000000; stroke-width: 0.6"/>
      </g>
     </g>
    </g>
    <g id="ytick_46">
     <g id="line2d_86">
      <g>
       <use xlink:href="#m6d392f9a50" x="394.363636" y="498.635094" style="stroke: #000000; stroke-width: 0.6"/>
      </g>
     </g>
    </g>
    <g id="ytick_47">
     <g id="line2d_87">
      <g>
       <use xlink:href="#m6d392f9a50" x="394.363636" y="491.892008" style="stroke: #000000; stroke-width: 0.6"/>
      </g>
     </g>
    </g>
    <g id="ytick_48">
     <g id="line2d_88">
      <g>
       <use xlink:href="#m6d392f9a50" x="394.363636" y="486.661664" style="stroke: #000000; stroke-width: 0.6"/>
      </g>
     </g>
    </g>
    <g id="ytick_49">
     <g id="line2d_89">
      <g>
       <use xlink:href="#m6d392f9a50" x="394.363636" y="482.388162" style="stroke: #000000; stroke-width: 0.6"/>
      </g>
     </g>
    </g>
    <g id="ytick_50">
     <g id="line2d_90">
      <g>
       <use xlink:href="#m6d392f9a50" x="394.363636" y="478.774968" style="stroke: #000000; stroke-width: 0.6"/>
      </g>
     </g>
    </g>
    <g id="ytick_51">
     <g id="line2d_91">
      <g>
       <use xlink:href="#m6d392f9a50" x="394.363636" y="475.645076" style="stroke: #000000; stroke-width: 0.6"/>
      </g>
     </g>
    </g>
    <g id="ytick_52">
     <g id="line2d_92">
      <g>
       <use xlink:href="#m6d392f9a50" x="394.363636" y="472.884316" style="stroke: #000000; stroke-width: 0.6"/>
      </g>
     </g>
    </g>
    <g id="ytick_53">
     <g id="line2d_93">
      <g>
       <use xlink:href="#m6d392f9a50" x="394.363636" y="454.167801" style="stroke: #000000; stroke-width: 0.6"/>
      </g>
     </g>
    </g>
    <g id="ytick_54">
     <g id="line2d_94">
      <g>
       <use xlink:href="#m6d392f9a50" x="394.363636" y="444.663955" style="stroke: #000000; stroke-width: 0.6"/>
      </g>
     </g>
    </g>
    <g id="ytick_55">
     <g id="line2d_95">
      <g>
       <use xlink:href="#m6d392f9a50" x="394.363636" y="437.920869" style="stroke: #000000; stroke-width: 0.6"/>
      </g>
     </g>
    </g>
    <g id="ytick_56">
     <g id="line2d_96">
      <g>
       <use xlink:href="#m6d392f9a50" x="394.363636" y="432.690525" style="stroke: #000000; stroke-width: 0.6"/>
      </g>
     </g>
    </g>
    <g id="ytick_57">
     <g id="line2d_97">
      <g>
       <use xlink:href="#m6d392f9a50" x="394.363636" y="428.417023" style="stroke: #000000; stroke-width: 0.6"/>
      </g>
     </g>
    </g>
    <g id="ytick_58">
     <g id="line2d_98">
      <g>
       <use xlink:href="#m6d392f9a50" x="394.363636" y="424.803829" style="stroke: #000000; stroke-width: 0.6"/>
      </g>
     </g>
    </g>
    <g id="ytick_59">
     <g id="line2d_99">
      <g>
       <use xlink:href="#m6d392f9a50" x="394.363636" y="421.673938" style="stroke: #000000; stroke-width: 0.6"/>
      </g>
     </g>
    </g>
    <g id="ytick_60">
     <g id="line2d_100">
      <g>
       <use xlink:href="#m6d392f9a50" x="394.363636" y="418.913178" style="stroke: #000000; stroke-width: 0.6"/>
      </g>
     </g>
    </g>
    <g id="ytick_61">
     <g id="line2d_101">
      <g>
       <use xlink:href="#m6d392f9a50" x="394.363636" y="400.196662" style="stroke: #000000; stroke-width: 0.6"/>
      </g>
     </g>
    </g>
    <g id="ytick_62">
     <g id="line2d_102">
      <g>
       <use xlink:href="#m6d392f9a50" x="394.363636" y="390.692816" style="stroke: #000000; stroke-width: 0.6"/>
      </g>
     </g>
    </g>
   </g>
   <g id="line2d_103">
    <g clip-path="url(#p546ad47c7a)">
     <use xlink:href="#m80584660f9" x="408.047989" y="491.296153" style="fill: #ff0000; stroke: #ff0000"/>
     <use xlink:href="#m80584660f9" x="410.673285" y="550.682976" style="fill: #ff0000; stroke: #ff0000"/>
     <use xlink:href="#m80584660f9" x="413.29858" y="456.93556" style="fill: #ff0000; stroke: #ff0000"/>
     <use xlink:href="#m80584660f9" x="415.923876" y="436.682054" style="fill: #ff0000; stroke: #ff0000"/>
     <use xlink:href="#m80584660f9" x="418.549171" y="428.826715" style="fill: #ff0000; stroke: #ff0000"/>
     <use xlink:href="#m80584660f9" x="421.174467" y="400.254545" style="fill: #ff0000; stroke: #ff0000"/>
     <use xlink:href="#m80584660f9" x="612.82104" y="467.698942" style="fill: #ff0000; stroke: #ff0000"/>
     <use xlink:href="#m80584660f9" x="615.446336" y="479.356824" style="fill: #ff0000; stroke: #ff0000"/>
     <use xlink:href="#m80584660f9" x="618.071631" y="629.345455" style="fill: #ff0000; stroke: #ff0000"/>
     <use xlink:href="#m80584660f9" x="620.696927" y="486.993204" style="fill: #ff0000; stroke: #ff0000"/>
     <use xlink:href="#m80584660f9" x="623.322222" y="443.901287" style="fill: #ff0000; stroke: #ff0000"/>
     <use xlink:href="#m80584660f9" x="625.947518" y="429.353712" style="fill: #ff0000; stroke: #ff0000"/>
    </g>
   </g>
   <g id="patch_21">
    <path d="M 394.363636 640.8 
L 394.363636 388.8 
" style="fill: none; stroke: #000000; stroke-width: 0.8; stroke-linejoin: miter; stroke-linecap: square"/>
   </g>
   <g id="patch_22">
    <path d="M 648 640.8 
L 648 388.8 
" style="fill: none; stroke: #000000; stroke-width: 0.8; stroke-linejoin: miter; stroke-linecap: square"/>
   </g>
   <g id="patch_23">
    <path d="M 394.363636 640.8 
L 648 640.8 
" style="fill: none; stroke: #000000; stroke-width: 0.8; stroke-linejoin: miter; stroke-linecap: square"/>
   </g>
   <g id="patch_24">
    <path d="M 394.363636 388.8 
L 648 388.8 
" style="fill: none; stroke: #000000; stroke-width: 0.8; stroke-linejoin: miter; stroke-linecap: square"/>
   </g>
   <g id="legend_4">
    <g id="patch_25">
     <path d="M 492.23125 411.478125 
L 641 411.478125 
Q 643 411.478125 643 409.478125 
L 643 395.8 
Q 643 393.8 641 393.8 
L 492.23125 393.8 
Q 490.23125 393.8 490.23125 395.8 
L 490.23125 409.478125 
Q 490.23125 411.478125 492.23125 411.478125 
z
" style="fill: #ffffff; opacity: 0.8; stroke: #cccccc; stroke-linejoin: miter"/>
    </g>
    <g id="line2d_104">
     <g>
      <use xlink:href="#m80584660f9" x="504.23125" y="401.898438" style="fill: #ff0000; stroke: #ff0000"/>
     </g>
    </g>
    <g id="text_51">
     <!-- (weighted residuals)^2 -->
     <g transform="translate(522.23125 405.398438) scale(0.1 -0.1)">
      <use xlink:href="#DejaVuSans-28"/>
      <use xlink:href="#DejaVuSans-77" x="39.013672"/>
      <use xlink:href="#DejaVuSans-65" x="120.800781"/>
      <use xlink:href="#DejaVuSans-69" x="182.324219"/>
      <use xlink:href="#DejaVuSans-67" x="210.107422"/>
      <use xlink:href="#DejaVuSans-68" x="273.583984"/>
      <use xlink:href="#DejaVuSans-74" x="336.962891"/>
      <use xlink:href="#DejaVuSans-65" x="376.171875"/>
      <use xlink:href="#DejaVuSans-64" x="437.695312"/>
      <use xlink:href="#DejaVuSans-20" x="501.171875"/>
      <use xlink:href="#DejaVuSans-72" x="532.958984"/>
      <use xlink:href="#DejaVuSans-65" x="571.822266"/>
      <use xlink:href="#DejaVuSans-73" x="633.345703"/>
      <use xlink:href="#DejaVuSans-69" x="685.445312"/>
      <use xlink:href="#DejaVuSans-64" x="713.228516"/>
      <use xlink:href="#DejaVuSans-75" x="776.705078"/>
      <use xlink:href="#DejaVuSans-61" x="840.083984"/>
      <use xlink:href="#DejaVuSans-6c" x="901.363281"/>
      <use xlink:href="#DejaVuSans-73" x="929.146484"/>
      <use xlink:href="#DejaVuSans-29" x="981.246094"/>
      <use xlink:href="#DejaVuSans-5e" x="1020.259766"/>
      <use xlink:href="#DejaVuSans-32" x="1104.048828"/>
     </g>
    </g>
   </g>
  </g>
 </g>
 <defs>
  <clipPath id="peba6f3a9b3">
   <rect x="90" y="86.4" width="253.636364" height="252"/>
  </clipPath>
  <clipPath id="p74a451df1d">
   <rect x="394.363636" y="86.4" width="253.636364" height="252"/>
  </clipPath>
  <clipPath id="pce8f2424ee">
   <rect x="90" y="388.8" width="253.636364" height="252"/>
  </clipPath>
  <clipPath id="p546ad47c7a">
   <rect x="394.363636" y="388.8" width="253.636364" height="252"/>
  </clipPath>
 </defs>
</svg>
