<?xml version="1.0" encoding="utf-8" standalone="no"?>
<!DOCTYPE svg PUBLIC "-//W3C//DTD SVG 1.1//EN"
  "http://www.w3.org/Graphics/SVG/1.1/DTD/svg11.dtd">
<svg xmlns:xlink="http://www.w3.org/1999/xlink" width="720pt" height="720pt" viewBox="0 0 720 720" xmlns="http://www.w3.org/2000/svg" version="1.1">
 <metadata>
  <rdf:RDF xmlns:dc="http://purl.org/dc/elements/1.1/" xmlns:cc="http://creativecommons.org/ns#" xmlns:rdf="http://www.w3.org/1999/02/22-rdf-syntax-ns#">
   <cc:Work>
    <dc:type rdf:resource="http://purl.org/dc/dcmitype/StillImage"/>
    <dc:date>2025-06-10T18:07:06.252605</dc:date>
    <dc:format>image/svg+xml</dc:format>
    <dc:creator>
     <cc:Agent>
      <dc:title>Matplotlib v3.9.1, https://matplotlib.org/</dc:title>
     </cc:Agent>
    </dc:creator>
   </cc:Work>
  </rdf:RDF>
 </metadata>
 <defs>
  <style type="text/css">*{stroke-linejoin: round; stroke-linecap: butt}</style>
 </defs>
 <g id="figure_1">
  <g id="patch_1">
   <path d="M 0 720 
L 720 720 
L 720 0 
L 0 0 
z
" style="fill: #ffffff"/>
  </g>
  <g id="axes_1">
   <g id="patch_2">
    <path d="M 90 338.4 
L 343.636364 338.4 
L 343.636364 86.4 
L 90 86.4 
z
" style="fill: #ffffff"/>
   </g>
   <g id="PolyCollection_1">
    <defs>
     <path id="m68f529d843" d="M 101.059057 -433.89666 
L 101.059057 -433.89666 
L 116.810831 -429.810826 
L 305.832108 -433.89666 
L 321.583881 -434.487242 
L 321.583881 -433.89666 
L 321.583881 -433.89666 
L 305.832108 -433.89666 
L 116.810831 -433.89666 
L 101.059057 -433.89666 
z
" style="stroke: #ff8c00; stroke-opacity: 0.4"/>
    </defs>
    <g clip-path="url(#p0388652dee)">
     <use xlink:href="#m68f529d843" x="0" y="720" style="fill: #ff8c00; fill-opacity: 0.4; stroke: #ff8c00; stroke-opacity: 0.4"/>
    </g>
   </g>
   <g id="matplotlib.axis_1">
    <g id="xtick_1">
     <g id="line2d_1">
      <defs>
       <path id="m9c54470818" d="M 0 0 
L 0 3.5 
" style="stroke: #000000; stroke-width: 0.8"/>
      </defs>
      <g>
       <use xlink:href="#m9c54470818" x="101.059057" y="338.4" style="stroke: #000000; stroke-width: 0.8"/>
      </g>
     </g>
    </g>
    <g id="xtick_2">
     <g id="line2d_2">
      <g>
       <use xlink:href="#m9c54470818" x="155.752714" y="338.4" style="stroke: #000000; stroke-width: 0.8"/>
      </g>
     </g>
    </g>
    <g id="xtick_3">
     <g id="line2d_3">
      <g>
       <use xlink:href="#m9c54470818" x="210.446371" y="338.4" style="stroke: #000000; stroke-width: 0.8"/>
      </g>
     </g>
    </g>
    <g id="xtick_4">
     <g id="line2d_4">
      <g>
       <use xlink:href="#m9c54470818" x="265.140028" y="338.4" style="stroke: #000000; stroke-width: 0.8"/>
      </g>
     </g>
    </g>
    <g id="xtick_5">
     <g id="line2d_5">
      <g>
       <use xlink:href="#m9c54470818" x="319.833684" y="338.4" style="stroke: #000000; stroke-width: 0.8"/>
      </g>
     </g>
    </g>
   </g>
   <g id="matplotlib.axis_2">
    <g id="ytick_1">
     <g id="line2d_6">
      <defs>
       <path id="m5872b7f5ed" d="M 0 0 
L -3.5 0 
" style="stroke: #000000; stroke-width: 0.8"/>
      </defs>
      <g>
       <use xlink:href="#m5872b7f5ed" x="90" y="325.900423" style="stroke: #000000; stroke-width: 0.8"/>
      </g>
     </g>
     <g id="text_1">
      <!-- −20 -->
      <g transform="translate(61.895313 329.699642) scale(0.1 -0.1)">
       <defs>
        <path id="DejaVuSans-2212" d="M 678 2272 
L 4684 2272 
L 4684 1741 
L 678 1741 
L 678 2272 
z
" transform="scale(0.015625)"/>
        <path id="DejaVuSans-32" d="M 1228 531 
L 3431 531 
L 3431 0 
L 469 0 
L 469 531 
Q 828 903 1448 1529 
Q 2069 2156 2228 2338 
Q 2531 2678 2651 2914 
Q 2772 3150 2772 3378 
Q 2772 3750 2511 3984 
Q 2250 4219 1831 4219 
Q 1534 4219 1204 4116 
Q 875 4013 500 3803 
L 500 4441 
Q 881 4594 1212 4672 
Q 1544 4750 1819 4750 
Q 2544 4750 2975 4387 
Q 3406 4025 3406 3419 
Q 3406 3131 3298 2873 
Q 3191 2616 2906 2266 
Q 2828 2175 2409 1742 
Q 1991 1309 1228 531 
z
" transform="scale(0.015625)"/>
        <path id="DejaVuSans-30" d="M 2034 4250 
Q 1547 4250 1301 3770 
Q 1056 3291 1056 2328 
Q 1056 1369 1301 889 
Q 1547 409 2034 409 
Q 2525 409 2770 889 
Q 3016 1369 3016 2328 
Q 3016 3291 2770 3770 
Q 2525 4250 2034 4250 
z
M 2034 4750 
Q 2819 4750 3233 4129 
Q 3647 3509 3647 2328 
Q 3647 1150 3233 529 
Q 2819 -91 2034 -91 
Q 1250 -91 836 529 
Q 422 1150 422 2328 
Q 422 3509 836 4129 
Q 1250 4750 2034 4750 
z
" transform="scale(0.015625)"/>
       </defs>
       <use xlink:href="#DejaVuSans-2212"/>
       <use xlink:href="#DejaVuSans-32" x="83.789062"/>
       <use xlink:href="#DejaVuSans-30" x="147.412109"/>
      </g>
     </g>
    </g>
    <g id="ytick_2">
     <g id="line2d_7">
      <g>
       <use xlink:href="#m5872b7f5ed" x="90" y="286.10334" style="stroke: #000000; stroke-width: 0.8"/>
      </g>
     </g>
     <g id="text_2">
      <!-- 0 -->
      <g transform="translate(76.6375 289.902558) scale(0.1 -0.1)">
       <use xlink:href="#DejaVuSans-30"/>
      </g>
     </g>
    </g>
    <g id="ytick_3">
     <g id="line2d_8">
      <g>
       <use xlink:href="#m5872b7f5ed" x="90" y="246.306256" style="stroke: #000000; stroke-width: 0.8"/>
      </g>
     </g>
     <g id="text_3">
      <!-- 20 -->
      <g transform="translate(70.275 250.105475) scale(0.1 -0.1)">
       <use xlink:href="#DejaVuSans-32"/>
       <use xlink:href="#DejaVuSans-30" x="63.623047"/>
      </g>
     </g>
    </g>
    <g id="ytick_4">
     <g id="line2d_9">
      <g>
       <use xlink:href="#m5872b7f5ed" x="90" y="206.509173" style="stroke: #000000; stroke-width: 0.8"/>
      </g>
     </g>
     <g id="text_4">
      <!-- 40 -->
      <g transform="translate(70.275 210.308391) scale(0.1 -0.1)">
       <defs>
        <path id="DejaVuSans-34" d="M 2419 4116 
L 825 1625 
L 2419 1625 
L 2419 4116 
z
M 2253 4666 
L 3047 4666 
L 3047 1625 
L 3713 1625 
L 3713 1100 
L 3047 1100 
L 3047 0 
L 2419 0 
L 2419 1100 
L 313 1100 
L 313 1709 
L 2253 4666 
z
" transform="scale(0.015625)"/>
       </defs>
       <use xlink:href="#DejaVuSans-34"/>
       <use xlink:href="#DejaVuSans-30" x="63.623047"/>
      </g>
     </g>
    </g>
    <g id="ytick_5">
     <g id="line2d_10">
      <g>
       <use xlink:href="#m5872b7f5ed" x="90" y="166.712089" style="stroke: #000000; stroke-width: 0.8"/>
      </g>
     </g>
     <g id="text_5">
      <!-- 60 -->
      <g transform="translate(70.275 170.511308) scale(0.1 -0.1)">
       <defs>
        <path id="DejaVuSans-36" d="M 2113 2584 
Q 1688 2584 1439 2293 
Q 1191 2003 1191 1497 
Q 1191 994 1439 701 
Q 1688 409 2113 409 
Q 2538 409 2786 701 
Q 3034 994 3034 1497 
Q 3034 2003 2786 2293 
Q 2538 2584 2113 2584 
z
M 3366 4563 
L 3366 3988 
Q 3128 4100 2886 4159 
Q 2644 4219 2406 4219 
Q 1781 4219 1451 3797 
Q 1122 3375 1075 2522 
Q 1259 2794 1537 2939 
Q 1816 3084 2150 3084 
Q 2853 3084 3261 2657 
Q 3669 2231 3669 1497 
Q 3669 778 3244 343 
Q 2819 -91 2113 -91 
Q 1303 -91 875 529 
Q 447 1150 447 2328 
Q 447 3434 972 4092 
Q 1497 4750 2381 4750 
Q 2619 4750 2861 4703 
Q 3103 4656 3366 4563 
z
" transform="scale(0.015625)"/>
       </defs>
       <use xlink:href="#DejaVuSans-36"/>
       <use xlink:href="#DejaVuSans-30" x="63.623047"/>
      </g>
     </g>
    </g>
    <g id="ytick_6">
     <g id="line2d_11">
      <g>
       <use xlink:href="#m5872b7f5ed" x="90" y="126.915006" style="stroke: #000000; stroke-width: 0.8"/>
      </g>
     </g>
     <g id="text_6">
      <!-- 80 -->
      <g transform="translate(70.275 130.714224) scale(0.1 -0.1)">
       <defs>
        <path id="DejaVuSans-38" d="M 2034 2216 
Q 1584 2216 1326 1975 
Q 1069 1734 1069 1313 
Q 1069 891 1326 650 
Q 1584 409 2034 409 
Q 2484 409 2743 651 
Q 3003 894 3003 1313 
Q 3003 1734 2745 1975 
Q 2488 2216 2034 2216 
z
M 1403 2484 
Q 997 2584 770 2862 
Q 544 3141 544 3541 
Q 544 4100 942 4425 
Q 1341 4750 2034 4750 
Q 2731 4750 3128 4425 
Q 3525 4100 3525 3541 
Q 3525 3141 3298 2862 
Q 3072 2584 2669 2484 
Q 3125 2378 3379 2068 
Q 3634 1759 3634 1313 
Q 3634 634 3220 271 
Q 2806 -91 2034 -91 
Q 1263 -91 848 271 
Q 434 634 434 1313 
Q 434 1759 690 2068 
Q 947 2378 1403 2484 
z
M 1172 3481 
Q 1172 3119 1398 2916 
Q 1625 2713 2034 2713 
Q 2441 2713 2670 2916 
Q 2900 3119 2900 3481 
Q 2900 3844 2670 4047 
Q 2441 4250 2034 4250 
Q 1625 4250 1398 4047 
Q 1172 3844 1172 3481 
z
" transform="scale(0.015625)"/>
       </defs>
       <use xlink:href="#DejaVuSans-38"/>
       <use xlink:href="#DejaVuSans-30" x="63.623047"/>
      </g>
     </g>
    </g>
    <g id="ytick_7">
     <g id="line2d_12">
      <g>
       <use xlink:href="#m5872b7f5ed" x="90" y="87.117922" style="stroke: #000000; stroke-width: 0.8"/>
      </g>
     </g>
     <g id="text_7">
      <!-- 100 -->
      <g transform="translate(63.9125 90.917141) scale(0.1 -0.1)">
       <defs>
        <path id="DejaVuSans-31" d="M 794 531 
L 1825 531 
L 1825 4091 
L 703 3866 
L 703 4441 
L 1819 4666 
L 2450 4666 
L 2450 531 
L 3481 531 
L 3481 0 
L 794 0 
L 794 531 
z
" transform="scale(0.015625)"/>
       </defs>
       <use xlink:href="#DejaVuSans-31"/>
       <use xlink:href="#DejaVuSans-30" x="63.623047"/>
       <use xlink:href="#DejaVuSans-30" x="127.246094"/>
      </g>
     </g>
    </g>
    <g id="text_8">
     <!-- KI__UGE -->
     <g transform="translate(55.065938 236.93625) rotate(-90) scale(0.12 -0.12)">
      <defs>
       <path id="DejaVuSans-4b" d="M 628 4666 
L 1259 4666 
L 1259 2694 
L 3353 4666 
L 4166 4666 
L 1850 2491 
L 4331 0 
L 3500 0 
L 1259 2247 
L 1259 0 
L 628 0 
L 628 4666 
z
" transform="scale(0.015625)"/>
       <path id="DejaVuSans-49" d="M 628 4666 
L 1259 4666 
L 1259 0 
L 628 0 
L 628 4666 
z
" transform="scale(0.015625)"/>
       <path id="DejaVuSans-5f" d="M 3263 -1063 
L 3263 -1509 
L -63 -1509 
L -63 -1063 
L 3263 -1063 
z
" transform="scale(0.015625)"/>
       <path id="DejaVuSans-55" d="M 556 4666 
L 1191 4666 
L 1191 1831 
Q 1191 1081 1462 751 
Q 1734 422 2344 422 
Q 2950 422 3222 751 
Q 3494 1081 3494 1831 
L 3494 4666 
L 4128 4666 
L 4128 1753 
Q 4128 841 3676 375 
Q 3225 -91 2344 -91 
Q 1459 -91 1007 375 
Q 556 841 556 1753 
L 556 4666 
z
" transform="scale(0.015625)"/>
       <path id="DejaVuSans-47" d="M 3809 666 
L 3809 1919 
L 2778 1919 
L 2778 2438 
L 4434 2438 
L 4434 434 
Q 4069 175 3628 42 
Q 3188 -91 2688 -91 
Q 1594 -91 976 548 
Q 359 1188 359 2328 
Q 359 3472 976 4111 
Q 1594 4750 2688 4750 
Q 3144 4750 3555 4637 
Q 3966 4525 4313 4306 
L 4313 3634 
Q 3963 3931 3569 4081 
Q 3175 4231 2741 4231 
Q 1884 4231 1454 3753 
Q 1025 3275 1025 2328 
Q 1025 1384 1454 906 
Q 1884 428 2741 428 
Q 3075 428 3337 486 
Q 3600 544 3809 666 
z
" transform="scale(0.015625)"/>
       <path id="DejaVuSans-45" d="M 628 4666 
L 3578 4666 
L 3578 4134 
L 1259 4134 
L 1259 2753 
L 3481 2753 
L 3481 2222 
L 1259 2222 
L 1259 531 
L 3634 531 
L 3634 0 
L 628 0 
L 628 4666 
z
" transform="scale(0.015625)"/>
      </defs>
      <use xlink:href="#DejaVuSans-4b"/>
      <use xlink:href="#DejaVuSans-49" x="65.576172"/>
      <use xlink:href="#DejaVuSans-5f" x="95.068359"/>
      <use xlink:href="#DejaVuSans-5f" x="145.068359"/>
      <use xlink:href="#DejaVuSans-55" x="195.068359"/>
      <use xlink:href="#DejaVuSans-47" x="268.261719"/>
      <use xlink:href="#DejaVuSans-45" x="345.751953"/>
     </g>
    </g>
   </g>
   <g id="line2d_13">
    <path d="M 90 286.10334 
L 343.636364 286.10334 
" clip-path="url(#p0388652dee)" style="fill: none; stroke: #000000; stroke-width: 1.5; stroke-linecap: square"/>
   </g>
   <g id="line2d_14">
    <defs>
     <path id="m54e320919f" d="M 0 3 
C 0.795609 3 1.55874 2.683901 2.12132 2.12132 
C 2.683901 1.55874 3 0.795609 3 0 
C 3 -0.795609 2.683901 -1.55874 2.12132 -2.12132 
C 1.55874 -2.683901 0.795609 -3 0 -3 
C -0.795609 -3 -1.55874 -2.683901 -2.12132 -2.12132 
C -2.683901 -1.55874 -3 -0.795609 -3 0 
C -3 0.795609 -2.683901 1.55874 -2.12132 2.12132 
C -1.55874 2.683901 -0.795609 3 0 3 
z
" style="stroke: #ff8c00"/>
    </defs>
    <g clip-path="url(#p0388652dee)">
     <use xlink:href="#m54e320919f" x="101.059057" y="286.10334" style="fill: #ff8c00; stroke: #ff8c00"/>
     <use xlink:href="#m54e320919f" x="116.810831" y="290.189174" style="fill: #ff8c00; stroke: #ff8c00"/>
     <use xlink:href="#m54e320919f" x="305.832108" y="286.10334" style="fill: #ff8c00; stroke: #ff8c00"/>
     <use xlink:href="#m54e320919f" x="321.583881" y="285.512758" style="fill: #ff8c00; stroke: #ff8c00"/>
    </g>
   </g>
   <g id="line2d_15">
    <path d="M 101.059057 286.10334 
L 101.110017 285.996995 
L 101.347906 283.341002 
L 104.549345 246.793684 
L 105.69546 236.283959 
L 106.528998 230.418654 
L 107.362536 226.04706 
L 108.300266 222.412638 
L 109.446381 218.958916 
L 111.21765 214.428166 
L 114.476521 206.779652 
L 116.810831 201.547598 
L 116.810831 286.10334 
L 116.919382 285.274087 
L 118.611384 265.301756 
L 120.547532 243.981528 
L 121.810041 232.407189 
L 122.975435 223.680126 
L 124.588983 213.421289 
L 127.836879 194.548844 
L 132.562604 167.933673 
L 132.562604 286.10334 
L 132.66819 285.18678 
L 134.421532 264.488893 
L 136.368119 243.003913 
L 137.830603 229.277627 
L 139.502014 215.840487 
L 142.949298 190.423134 
L 148.314377 151.878976 
L 148.314377 286.10334 
L 148.422058 285.100178 
L 150.550505 260.047756 
L 152.455856 239.37776 
L 154.089864 224.070304 
L 156.745128 201.733334 
L 164.06615 142.486319 
L 164.06615 286.10334 
L 164.177203 285.022547 
L 169.312108 228.331384 
L 171.885661 205.086259 
L 179.790144 136.558369 
L 179.817923 136.319718 
L 179.817923 286.10334 
L 179.922059 285.07254 
L 182.434405 255.59955 
L 184.423599 234.284205 
L 186.744326 212.092446 
L 193.374972 151.752817 
L 195.569696 131.976019 
L 195.569696 286.10334 
L 195.675945 285.028762 
L 201.236182 223.531412 
L 205.365133 184.347468 
L 211.321469 128.754133 
L 211.321469 286.10334 
L 211.431192 284.974203 
L 216.947672 223.626095 
L 221.4656 179.850681 
L 227.073242 126.282016 
L 227.073242 286.10334 
L 227.181217 284.981768 
L 232.838152 221.985063 
L 238.233939 168.953509 
L 242.825016 124.325438 
L 242.825016 286.10334 
L 242.930563 284.999441 
L 248.856419 219.065442 
L 255.577076 152.299004 
L 258.576789 122.748573 
L 258.576789 286.10334 
L 258.680446 285.012846 
L 264.72061 217.709936 
L 272.32029 141.460344 
L 274.328562 121.458007 
L 274.328562 286.10334 
L 274.439285 284.926036 
L 280.267347 219.631935 
L 287.482825 146.511395 
L 290.080335 120.384299 
L 290.080335 286.10334 
L 290.186246 284.975082 
L 296.321023 216.362412 
L 305.014653 127.755765 
L 305.832108 119.475727 
L 305.832108 286.10334 
L 305.936743 284.98476 
L 312.210521 214.787884 
L 321.786881 116.628089 
L 322.240205 112.009185 
L 322.240205 112.009185 
" clip-path="url(#p0388652dee)" style="fill: none; stroke: #0000ff; stroke-width: 1.5; stroke-linecap: square"/>
   </g>
   <g id="line2d_16">
    <defs>
     <path id="m3f03641c15" d="M 0 3 
C 0.795609 3 1.55874 2.683901 2.12132 2.12132 
C 2.683901 1.55874 3 0.795609 3 0 
C 3 -0.795609 2.683901 -1.55874 2.12132 -2.12132 
C 1.55874 -2.683901 0.795609 -3 0 -3 
C -0.795609 -3 -1.55874 -2.683901 -2.12132 -2.12132 
C -2.683901 -1.55874 -3 -0.795609 -3 0 
C -3 0.795609 -2.683901 1.55874 -2.12132 2.12132 
C -1.55874 2.683901 -0.795609 3 0 3 
z
" style="stroke: #0000ff"/>
    </defs>
    <g clip-path="url(#p0388652dee)">
     <use xlink:href="#m3f03641c15" x="101.059057" y="286.10334" style="fill: #0000ff; stroke: #0000ff"/>
     <use xlink:href="#m3f03641c15" x="116.810831" y="286.10334" style="fill: #0000ff; stroke: #0000ff"/>
     <use xlink:href="#m3f03641c15" x="305.832108" y="286.10334" style="fill: #0000ff; stroke: #0000ff"/>
     <use xlink:href="#m3f03641c15" x="321.583881" y="118.697157" style="fill: #0000ff; stroke: #0000ff"/>
    </g>
   </g>
   <g id="LineCollection_1">
    <path d="M 101.059057 326.945455 
L 101.059057 245.261225 
" clip-path="url(#p0388652dee)" style="fill: none; stroke: #000000; stroke-width: 1.5"/>
    <path d="M 116.810831 167.914591 
L 116.810831 97.854545 
" clip-path="url(#p0388652dee)" style="fill: none; stroke: #000000; stroke-width: 1.5"/>
    <path d="M 305.832108 326.945455 
L 305.832108 245.261225 
" clip-path="url(#p0388652dee)" style="fill: none; stroke: #000000; stroke-width: 1.5"/>
    <path d="M 321.583881 181.6861 
L 321.583881 100.00187 
" clip-path="url(#p0388652dee)" style="fill: none; stroke: #000000; stroke-width: 1.5"/>
   </g>
   <g id="line2d_17">
    <path d="M 101.059057 286.10334 
L 116.810831 132.884568 
L 305.832108 286.10334 
L 321.583881 140.843985 
" clip-path="url(#p0388652dee)" style="fill: none; stroke: #000000; stroke-width: 1.5; stroke-linecap: square"/>
    <defs>
     <path id="m87f976d636" d="M -3 3 
L 3 3 
L 3 -3 
L -3 -3 
z
" style="stroke: #000000; stroke-linejoin: miter"/>
    </defs>
    <g clip-path="url(#p0388652dee)">
     <use xlink:href="#m87f976d636" x="101.059057" y="286.10334" style="stroke: #000000; stroke-linejoin: miter"/>
     <use xlink:href="#m87f976d636" x="116.810831" y="132.884568" style="stroke: #000000; stroke-linejoin: miter"/>
     <use xlink:href="#m87f976d636" x="305.832108" y="286.10334" style="stroke: #000000; stroke-linejoin: miter"/>
     <use xlink:href="#m87f976d636" x="321.583881" y="140.843985" style="stroke: #000000; stroke-linejoin: miter"/>
    </g>
   </g>
   <g id="patch_3">
    <path d="M 90 338.4 
L 90 86.4 
" style="fill: none; stroke: #000000; stroke-width: 0.8; stroke-linejoin: miter; stroke-linecap: square"/>
   </g>
   <g id="patch_4">
    <path d="M 343.636364 338.4 
L 343.636364 86.4 
" style="fill: none; stroke: #000000; stroke-width: 0.8; stroke-linejoin: miter; stroke-linecap: square"/>
   </g>
   <g id="patch_5">
    <path d="M 90 338.4 
L 343.636364 338.4 
" style="fill: none; stroke: #000000; stroke-width: 0.8; stroke-linejoin: miter; stroke-linecap: square"/>
   </g>
   <g id="patch_6">
    <path d="M 90 86.4 
L 343.636364 86.4 
" style="fill: none; stroke: #000000; stroke-width: 0.8; stroke-linejoin: miter; stroke-linecap: square"/>
   </g>
   <g id="text_9">
    <!-- Kasichayanula2011a.fm_dap20_uge -->
    <g transform="translate(90.470369 80.4) scale(0.14 -0.14)">
     <defs>
      <path id="DejaVuSans-61" d="M 2194 1759 
Q 1497 1759 1228 1600 
Q 959 1441 959 1056 
Q 959 750 1161 570 
Q 1363 391 1709 391 
Q 2188 391 2477 730 
Q 2766 1069 2766 1631 
L 2766 1759 
L 2194 1759 
z
M 3341 1997 
L 3341 0 
L 2766 0 
L 2766 531 
Q 2569 213 2275 61 
Q 1981 -91 1556 -91 
Q 1019 -91 701 211 
Q 384 513 384 1019 
Q 384 1609 779 1909 
Q 1175 2209 1959 2209 
L 2766 2209 
L 2766 2266 
Q 2766 2663 2505 2880 
Q 2244 3097 1772 3097 
Q 1472 3097 1187 3025 
Q 903 2953 641 2809 
L 641 3341 
Q 956 3463 1253 3523 
Q 1550 3584 1831 3584 
Q 2591 3584 2966 3190 
Q 3341 2797 3341 1997 
z
" transform="scale(0.015625)"/>
      <path id="DejaVuSans-73" d="M 2834 3397 
L 2834 2853 
Q 2591 2978 2328 3040 
Q 2066 3103 1784 3103 
Q 1356 3103 1142 2972 
Q 928 2841 928 2578 
Q 928 2378 1081 2264 
Q 1234 2150 1697 2047 
L 1894 2003 
Q 2506 1872 2764 1633 
Q 3022 1394 3022 966 
Q 3022 478 2636 193 
Q 2250 -91 1575 -91 
Q 1294 -91 989 -36 
Q 684 19 347 128 
L 347 722 
Q 666 556 975 473 
Q 1284 391 1588 391 
Q 1994 391 2212 530 
Q 2431 669 2431 922 
Q 2431 1156 2273 1281 
Q 2116 1406 1581 1522 
L 1381 1569 
Q 847 1681 609 1914 
Q 372 2147 372 2553 
Q 372 3047 722 3315 
Q 1072 3584 1716 3584 
Q 2034 3584 2315 3537 
Q 2597 3491 2834 3397 
z
" transform="scale(0.015625)"/>
      <path id="DejaVuSans-69" d="M 603 3500 
L 1178 3500 
L 1178 0 
L 603 0 
L 603 3500 
z
M 603 4863 
L 1178 4863 
L 1178 4134 
L 603 4134 
L 603 4863 
z
" transform="scale(0.015625)"/>
      <path id="DejaVuSans-63" d="M 3122 3366 
L 3122 2828 
Q 2878 2963 2633 3030 
Q 2388 3097 2138 3097 
Q 1578 3097 1268 2742 
Q 959 2388 959 1747 
Q 959 1106 1268 751 
Q 1578 397 2138 397 
Q 2388 397 2633 464 
Q 2878 531 3122 666 
L 3122 134 
Q 2881 22 2623 -34 
Q 2366 -91 2075 -91 
Q 1284 -91 818 406 
Q 353 903 353 1747 
Q 353 2603 823 3093 
Q 1294 3584 2113 3584 
Q 2378 3584 2631 3529 
Q 2884 3475 3122 3366 
z
" transform="scale(0.015625)"/>
      <path id="DejaVuSans-68" d="M 3513 2113 
L 3513 0 
L 2938 0 
L 2938 2094 
Q 2938 2591 2744 2837 
Q 2550 3084 2163 3084 
Q 1697 3084 1428 2787 
Q 1159 2491 1159 1978 
L 1159 0 
L 581 0 
L 581 4863 
L 1159 4863 
L 1159 2956 
Q 1366 3272 1645 3428 
Q 1925 3584 2291 3584 
Q 2894 3584 3203 3211 
Q 3513 2838 3513 2113 
z
" transform="scale(0.015625)"/>
      <path id="DejaVuSans-79" d="M 2059 -325 
Q 1816 -950 1584 -1140 
Q 1353 -1331 966 -1331 
L 506 -1331 
L 506 -850 
L 844 -850 
Q 1081 -850 1212 -737 
Q 1344 -625 1503 -206 
L 1606 56 
L 191 3500 
L 800 3500 
L 1894 763 
L 2988 3500 
L 3597 3500 
L 2059 -325 
z
" transform="scale(0.015625)"/>
      <path id="DejaVuSans-6e" d="M 3513 2113 
L 3513 0 
L 2938 0 
L 2938 2094 
Q 2938 2591 2744 2837 
Q 2550 3084 2163 3084 
Q 1697 3084 1428 2787 
Q 1159 2491 1159 1978 
L 1159 0 
L 581 0 
L 581 3500 
L 1159 3500 
L 1159 2956 
Q 1366 3272 1645 3428 
Q 1925 3584 2291 3584 
Q 2894 3584 3203 3211 
Q 3513 2838 3513 2113 
z
" transform="scale(0.015625)"/>
      <path id="DejaVuSans-75" d="M 544 1381 
L 544 3500 
L 1119 3500 
L 1119 1403 
Q 1119 906 1312 657 
Q 1506 409 1894 409 
Q 2359 409 2629 706 
Q 2900 1003 2900 1516 
L 2900 3500 
L 3475 3500 
L 3475 0 
L 2900 0 
L 2900 538 
Q 2691 219 2414 64 
Q 2138 -91 1772 -91 
Q 1169 -91 856 284 
Q 544 659 544 1381 
z
M 1991 3584 
L 1991 3584 
z
" transform="scale(0.015625)"/>
      <path id="DejaVuSans-6c" d="M 603 4863 
L 1178 4863 
L 1178 0 
L 603 0 
L 603 4863 
z
" transform="scale(0.015625)"/>
      <path id="DejaVuSans-2e" d="M 684 794 
L 1344 794 
L 1344 0 
L 684 0 
L 684 794 
z
" transform="scale(0.015625)"/>
      <path id="DejaVuSans-66" d="M 2375 4863 
L 2375 4384 
L 1825 4384 
Q 1516 4384 1395 4259 
Q 1275 4134 1275 3809 
L 1275 3500 
L 2222 3500 
L 2222 3053 
L 1275 3053 
L 1275 0 
L 697 0 
L 697 3053 
L 147 3053 
L 147 3500 
L 697 3500 
L 697 3744 
Q 697 4328 969 4595 
Q 1241 4863 1831 4863 
L 2375 4863 
z
" transform="scale(0.015625)"/>
      <path id="DejaVuSans-6d" d="M 3328 2828 
Q 3544 3216 3844 3400 
Q 4144 3584 4550 3584 
Q 5097 3584 5394 3201 
Q 5691 2819 5691 2113 
L 5691 0 
L 5113 0 
L 5113 2094 
Q 5113 2597 4934 2840 
Q 4756 3084 4391 3084 
Q 3944 3084 3684 2787 
Q 3425 2491 3425 1978 
L 3425 0 
L 2847 0 
L 2847 2094 
Q 2847 2600 2669 2842 
Q 2491 3084 2119 3084 
Q 1678 3084 1418 2786 
Q 1159 2488 1159 1978 
L 1159 0 
L 581 0 
L 581 3500 
L 1159 3500 
L 1159 2956 
Q 1356 3278 1631 3431 
Q 1906 3584 2284 3584 
Q 2666 3584 2933 3390 
Q 3200 3197 3328 2828 
z
" transform="scale(0.015625)"/>
      <path id="DejaVuSans-64" d="M 2906 2969 
L 2906 4863 
L 3481 4863 
L 3481 0 
L 2906 0 
L 2906 525 
Q 2725 213 2448 61 
Q 2172 -91 1784 -91 
Q 1150 -91 751 415 
Q 353 922 353 1747 
Q 353 2572 751 3078 
Q 1150 3584 1784 3584 
Q 2172 3584 2448 3432 
Q 2725 3281 2906 2969 
z
M 947 1747 
Q 947 1113 1208 752 
Q 1469 391 1925 391 
Q 2381 391 2643 752 
Q 2906 1113 2906 1747 
Q 2906 2381 2643 2742 
Q 2381 3103 1925 3103 
Q 1469 3103 1208 2742 
Q 947 2381 947 1747 
z
" transform="scale(0.015625)"/>
      <path id="DejaVuSans-70" d="M 1159 525 
L 1159 -1331 
L 581 -1331 
L 581 3500 
L 1159 3500 
L 1159 2969 
Q 1341 3281 1617 3432 
Q 1894 3584 2278 3584 
Q 2916 3584 3314 3078 
Q 3713 2572 3713 1747 
Q 3713 922 3314 415 
Q 2916 -91 2278 -91 
Q 1894 -91 1617 61 
Q 1341 213 1159 525 
z
M 3116 1747 
Q 3116 2381 2855 2742 
Q 2594 3103 2138 3103 
Q 1681 3103 1420 2742 
Q 1159 2381 1159 1747 
Q 1159 1113 1420 752 
Q 1681 391 2138 391 
Q 2594 391 2855 752 
Q 3116 1113 3116 1747 
z
" transform="scale(0.015625)"/>
      <path id="DejaVuSans-67" d="M 2906 1791 
Q 2906 2416 2648 2759 
Q 2391 3103 1925 3103 
Q 1463 3103 1205 2759 
Q 947 2416 947 1791 
Q 947 1169 1205 825 
Q 1463 481 1925 481 
Q 2391 481 2648 825 
Q 2906 1169 2906 1791 
z
M 3481 434 
Q 3481 -459 3084 -895 
Q 2688 -1331 1869 -1331 
Q 1566 -1331 1297 -1286 
Q 1028 -1241 775 -1147 
L 775 -588 
Q 1028 -725 1275 -790 
Q 1522 -856 1778 -856 
Q 2344 -856 2625 -561 
Q 2906 -266 2906 331 
L 2906 616 
Q 2728 306 2450 153 
Q 2172 0 1784 0 
Q 1141 0 747 490 
Q 353 981 353 1791 
Q 353 2603 747 3093 
Q 1141 3584 1784 3584 
Q 2172 3584 2450 3431 
Q 2728 3278 2906 2969 
L 2906 3500 
L 3481 3500 
L 3481 434 
z
" transform="scale(0.015625)"/>
      <path id="DejaVuSans-65" d="M 3597 1894 
L 3597 1613 
L 953 1613 
Q 991 1019 1311 708 
Q 1631 397 2203 397 
Q 2534 397 2845 478 
Q 3156 559 3463 722 
L 3463 178 
Q 3153 47 2828 -22 
Q 2503 -91 2169 -91 
Q 1331 -91 842 396 
Q 353 884 353 1716 
Q 353 2575 817 3079 
Q 1281 3584 2069 3584 
Q 2775 3584 3186 3129 
Q 3597 2675 3597 1894 
z
M 3022 2063 
Q 3016 2534 2758 2815 
Q 2500 3097 2075 3097 
Q 1594 3097 1305 2825 
Q 1016 2553 972 2059 
L 3022 2063 
z
" transform="scale(0.015625)"/>
     </defs>
     <use xlink:href="#DejaVuSans-4b"/>
     <use xlink:href="#DejaVuSans-61" x="63.826172"/>
     <use xlink:href="#DejaVuSans-73" x="125.105469"/>
     <use xlink:href="#DejaVuSans-69" x="177.205078"/>
     <use xlink:href="#DejaVuSans-63" x="204.988281"/>
     <use xlink:href="#DejaVuSans-68" x="259.96875"/>
     <use xlink:href="#DejaVuSans-61" x="323.347656"/>
     <use xlink:href="#DejaVuSans-79" x="384.626953"/>
     <use xlink:href="#DejaVuSans-61" x="443.806641"/>
     <use xlink:href="#DejaVuSans-6e" x="505.085938"/>
     <use xlink:href="#DejaVuSans-75" x="568.464844"/>
     <use xlink:href="#DejaVuSans-6c" x="631.84375"/>
     <use xlink:href="#DejaVuSans-61" x="659.626953"/>
     <use xlink:href="#DejaVuSans-32" x="720.90625"/>
     <use xlink:href="#DejaVuSans-30" x="784.529297"/>
     <use xlink:href="#DejaVuSans-31" x="848.152344"/>
     <use xlink:href="#DejaVuSans-31" x="911.775391"/>
     <use xlink:href="#DejaVuSans-61" x="975.398438"/>
     <use xlink:href="#DejaVuSans-2e" x="1036.677734"/>
     <use xlink:href="#DejaVuSans-66" x="1068.464844"/>
     <use xlink:href="#DejaVuSans-6d" x="1103.669922"/>
     <use xlink:href="#DejaVuSans-5f" x="1201.082031"/>
     <use xlink:href="#DejaVuSans-64" x="1251.082031"/>
     <use xlink:href="#DejaVuSans-61" x="1314.558594"/>
     <use xlink:href="#DejaVuSans-70" x="1375.837891"/>
     <use xlink:href="#DejaVuSans-32" x="1439.314453"/>
     <use xlink:href="#DejaVuSans-30" x="1502.9375"/>
     <use xlink:href="#DejaVuSans-5f" x="1566.560547"/>
     <use xlink:href="#DejaVuSans-75" x="1616.560547"/>
     <use xlink:href="#DejaVuSans-67" x="1679.939453"/>
     <use xlink:href="#DejaVuSans-65" x="1743.416016"/>
    </g>
   </g>
   <g id="legend_1">
    <g id="patch_7">
     <path d="M 97 153.390625 
L 204.265625 153.390625 
Q 206.265625 153.390625 206.265625 151.390625 
L 206.265625 93.4 
Q 206.265625 91.4 204.265625 91.4 
L 97 91.4 
Q 95 91.4 95 93.4 
L 95 151.390625 
Q 95 153.390625 97 153.390625 
z
" style="fill: #ffffff; opacity: 0.8; stroke: #cccccc; stroke-linejoin: miter"/>
    </g>
    <g id="line2d_18">
     <g>
      <use xlink:href="#m54e320919f" x="109" y="99.498438" style="fill: #ff8c00; stroke: #ff8c00"/>
     </g>
    </g>
    <g id="text_10">
     <!-- residuals -->
     <g transform="translate(127 102.998438) scale(0.1 -0.1)">
      <defs>
       <path id="DejaVuSans-72" d="M 2631 2963 
Q 2534 3019 2420 3045 
Q 2306 3072 2169 3072 
Q 1681 3072 1420 2755 
Q 1159 2438 1159 1844 
L 1159 0 
L 581 0 
L 581 3500 
L 1159 3500 
L 1159 2956 
Q 1341 3275 1631 3429 
Q 1922 3584 2338 3584 
Q 2397 3584 2469 3576 
Q 2541 3569 2628 3553 
L 2631 2963 
z
" transform="scale(0.015625)"/>
      </defs>
      <use xlink:href="#DejaVuSans-72"/>
      <use xlink:href="#DejaVuSans-65" x="38.863281"/>
      <use xlink:href="#DejaVuSans-73" x="100.386719"/>
      <use xlink:href="#DejaVuSans-69" x="152.486328"/>
      <use xlink:href="#DejaVuSans-64" x="180.269531"/>
      <use xlink:href="#DejaVuSans-75" x="243.746094"/>
      <use xlink:href="#DejaVuSans-61" x="307.125"/>
      <use xlink:href="#DejaVuSans-6c" x="368.404297"/>
      <use xlink:href="#DejaVuSans-73" x="396.1875"/>
     </g>
    </g>
    <g id="line2d_19">
     <path d="M 99 114.176563 
L 109 114.176563 
L 119 114.176563 
" style="fill: none; stroke: #0000ff; stroke-width: 1.5; stroke-linecap: square"/>
    </g>
    <g id="text_11">
     <!-- observable -->
     <g transform="translate(127 117.676563) scale(0.1 -0.1)">
      <defs>
       <path id="DejaVuSans-6f" d="M 1959 3097 
Q 1497 3097 1228 2736 
Q 959 2375 959 1747 
Q 959 1119 1226 758 
Q 1494 397 1959 397 
Q 2419 397 2687 759 
Q 2956 1122 2956 1747 
Q 2956 2369 2687 2733 
Q 2419 3097 1959 3097 
z
M 1959 3584 
Q 2709 3584 3137 3096 
Q 3566 2609 3566 1747 
Q 3566 888 3137 398 
Q 2709 -91 1959 -91 
Q 1206 -91 779 398 
Q 353 888 353 1747 
Q 353 2609 779 3096 
Q 1206 3584 1959 3584 
z
" transform="scale(0.015625)"/>
       <path id="DejaVuSans-62" d="M 3116 1747 
Q 3116 2381 2855 2742 
Q 2594 3103 2138 3103 
Q 1681 3103 1420 2742 
Q 1159 2381 1159 1747 
Q 1159 1113 1420 752 
Q 1681 391 2138 391 
Q 2594 391 2855 752 
Q 3116 1113 3116 1747 
z
M 1159 2969 
Q 1341 3281 1617 3432 
Q 1894 3584 2278 3584 
Q 2916 3584 3314 3078 
Q 3713 2572 3713 1747 
Q 3713 922 3314 415 
Q 2916 -91 2278 -91 
Q 1894 -91 1617 61 
Q 1341 213 1159 525 
L 1159 0 
L 581 0 
L 581 4863 
L 1159 4863 
L 1159 2969 
z
" transform="scale(0.015625)"/>
       <path id="DejaVuSans-76" d="M 191 3500 
L 800 3500 
L 1894 563 
L 2988 3500 
L 3597 3500 
L 2284 0 
L 1503 0 
L 191 3500 
z
" transform="scale(0.015625)"/>
      </defs>
      <use xlink:href="#DejaVuSans-6f"/>
      <use xlink:href="#DejaVuSans-62" x="61.181641"/>
      <use xlink:href="#DejaVuSans-73" x="124.658203"/>
      <use xlink:href="#DejaVuSans-65" x="176.757812"/>
      <use xlink:href="#DejaVuSans-72" x="238.28125"/>
      <use xlink:href="#DejaVuSans-76" x="279.394531"/>
      <use xlink:href="#DejaVuSans-61" x="338.574219"/>
      <use xlink:href="#DejaVuSans-62" x="399.853516"/>
      <use xlink:href="#DejaVuSans-6c" x="463.330078"/>
      <use xlink:href="#DejaVuSans-65" x="491.113281"/>
     </g>
    </g>
    <g id="line2d_20">
     <g>
      <use xlink:href="#m3f03641c15" x="109" y="128.854688" style="fill: #0000ff; stroke: #0000ff"/>
     </g>
    </g>
    <g id="text_12">
     <!-- interpolation -->
     <g transform="translate(127 132.354688) scale(0.1 -0.1)">
      <defs>
       <path id="DejaVuSans-74" d="M 1172 4494 
L 1172 3500 
L 2356 3500 
L 2356 3053 
L 1172 3053 
L 1172 1153 
Q 1172 725 1289 603 
Q 1406 481 1766 481 
L 2356 481 
L 2356 0 
L 1766 0 
Q 1100 0 847 248 
Q 594 497 594 1153 
L 594 3053 
L 172 3053 
L 172 3500 
L 594 3500 
L 594 4494 
L 1172 4494 
z
" transform="scale(0.015625)"/>
      </defs>
      <use xlink:href="#DejaVuSans-69"/>
      <use xlink:href="#DejaVuSans-6e" x="27.783203"/>
      <use xlink:href="#DejaVuSans-74" x="91.162109"/>
      <use xlink:href="#DejaVuSans-65" x="130.371094"/>
      <use xlink:href="#DejaVuSans-72" x="191.894531"/>
      <use xlink:href="#DejaVuSans-70" x="233.007812"/>
      <use xlink:href="#DejaVuSans-6f" x="296.484375"/>
      <use xlink:href="#DejaVuSans-6c" x="357.666016"/>
      <use xlink:href="#DejaVuSans-61" x="385.449219"/>
      <use xlink:href="#DejaVuSans-74" x="446.728516"/>
      <use xlink:href="#DejaVuSans-69" x="485.9375"/>
      <use xlink:href="#DejaVuSans-6f" x="513.720703"/>
      <use xlink:href="#DejaVuSans-6e" x="574.902344"/>
     </g>
    </g>
    <g id="LineCollection_2">
     <path d="M 109 148.532812 
L 109 138.532812 
" style="fill: none; stroke: #000000; stroke-width: 1.5"/>
    </g>
    <g id="line2d_21">
     <path d="M 99 143.532812 
L 119 143.532812 
" style="fill: none; stroke: #000000; stroke-width: 1.5; stroke-linecap: square"/>
    </g>
    <g id="line2d_22">
     <g>
      <use xlink:href="#m87f976d636" x="109" y="143.532812" style="stroke: #000000; stroke-linejoin: miter"/>
     </g>
    </g>
    <g id="text_13">
     <!-- reference_data -->
     <g transform="translate(127 147.032812) scale(0.1 -0.1)">
      <use xlink:href="#DejaVuSans-72"/>
      <use xlink:href="#DejaVuSans-65" x="38.863281"/>
      <use xlink:href="#DejaVuSans-66" x="100.386719"/>
      <use xlink:href="#DejaVuSans-65" x="135.591797"/>
      <use xlink:href="#DejaVuSans-72" x="197.115234"/>
      <use xlink:href="#DejaVuSans-65" x="235.978516"/>
      <use xlink:href="#DejaVuSans-6e" x="297.501953"/>
      <use xlink:href="#DejaVuSans-63" x="360.880859"/>
      <use xlink:href="#DejaVuSans-65" x="415.861328"/>
      <use xlink:href="#DejaVuSans-5f" x="477.384766"/>
      <use xlink:href="#DejaVuSans-64" x="527.384766"/>
      <use xlink:href="#DejaVuSans-61" x="590.861328"/>
      <use xlink:href="#DejaVuSans-74" x="652.140625"/>
      <use xlink:href="#DejaVuSans-61" x="691.349609"/>
     </g>
    </g>
   </g>
  </g>
  <g id="axes_2">
   <g id="patch_8">
    <path d="M 394.363636 338.4 
L 648 338.4 
L 648 86.4 
L 394.363636 86.4 
z
" style="fill: #ffffff"/>
   </g>
   <g id="PolyCollection_2">
    <path d="M 405.422694 15175.535341 
L 405.422694 15175.535341 
L 421.174467 15175.535341 
L 610.195744 15175.535341 
L 625.947518 135.526358 
L 625.947518 15175.535341 
L 625.947518 15175.535341 
L 610.195744 15175.535341 
L 421.174467 15175.535341 
L 405.422694 15175.535341 
z
" clip-path="url(#p8cb8066b81)" style="fill: #ff8c00; fill-opacity: 0.4; stroke: #ff8c00; stroke-opacity: 0.4"/>
   </g>
   <g id="matplotlib.axis_3">
    <g id="xtick_6">
     <g id="line2d_23">
      <g>
       <use xlink:href="#m9c54470818" x="405.422694" y="338.4" style="stroke: #000000; stroke-width: 0.8"/>
      </g>
     </g>
    </g>
    <g id="xtick_7">
     <g id="line2d_24">
      <g>
       <use xlink:href="#m9c54470818" x="460.11635" y="338.4" style="stroke: #000000; stroke-width: 0.8"/>
      </g>
     </g>
    </g>
    <g id="xtick_8">
     <g id="line2d_25">
      <g>
       <use xlink:href="#m9c54470818" x="514.810007" y="338.4" style="stroke: #000000; stroke-width: 0.8"/>
      </g>
     </g>
    </g>
    <g id="xtick_9">
     <g id="line2d_26">
      <g>
       <use xlink:href="#m9c54470818" x="569.503664" y="338.4" style="stroke: #000000; stroke-width: 0.8"/>
      </g>
     </g>
    </g>
    <g id="xtick_10">
     <g id="line2d_27">
      <g>
       <use xlink:href="#m9c54470818" x="624.197321" y="338.4" style="stroke: #000000; stroke-width: 0.8"/>
      </g>
     </g>
    </g>
   </g>
   <g id="matplotlib.axis_4">
    <g id="ytick_8">
     <g id="line2d_28">
      <g>
       <use xlink:href="#m5872b7f5ed" x="394.363636" y="323.211266" style="stroke: #000000; stroke-width: 0.8"/>
      </g>
     </g>
     <g id="text_14">
      <!-- $\mathdefault{10^{-13}}$ -->
      <g transform="translate(359.463636 327.010484) scale(0.1 -0.1)">
       <defs>
        <path id="DejaVuSans-33" d="M 2597 2516 
Q 3050 2419 3304 2112 
Q 3559 1806 3559 1356 
Q 3559 666 3084 287 
Q 2609 -91 1734 -91 
Q 1441 -91 1130 -33 
Q 819 25 488 141 
L 488 750 
Q 750 597 1062 519 
Q 1375 441 1716 441 
Q 2309 441 2620 675 
Q 2931 909 2931 1356 
Q 2931 1769 2642 2001 
Q 2353 2234 1838 2234 
L 1294 2234 
L 1294 2753 
L 1863 2753 
Q 2328 2753 2575 2939 
Q 2822 3125 2822 3475 
Q 2822 3834 2567 4026 
Q 2313 4219 1838 4219 
Q 1578 4219 1281 4162 
Q 984 4106 628 3988 
L 628 4550 
Q 988 4650 1302 4700 
Q 1616 4750 1894 4750 
Q 2613 4750 3031 4423 
Q 3450 4097 3450 3541 
Q 3450 3153 3228 2886 
Q 3006 2619 2597 2516 
z
" transform="scale(0.015625)"/>
       </defs>
       <use xlink:href="#DejaVuSans-31" transform="translate(0 0.765625)"/>
       <use xlink:href="#DejaVuSans-30" transform="translate(63.623047 0.765625)"/>
       <use xlink:href="#DejaVuSans-2212" transform="translate(128.203125 39.046875) scale(0.7)"/>
       <use xlink:href="#DejaVuSans-31" transform="translate(186.855469 39.046875) scale(0.7)"/>
       <use xlink:href="#DejaVuSans-33" transform="translate(231.391602 39.046875) scale(0.7)"/>
      </g>
     </g>
    </g>
    <g id="ytick_9">
     <g id="line2d_29">
      <g>
       <use xlink:href="#m5872b7f5ed" x="394.363636" y="293.115371" style="stroke: #000000; stroke-width: 0.8"/>
      </g>
     </g>
     <g id="text_15">
      <!-- $\mathdefault{10^{-11}}$ -->
      <g transform="translate(359.463636 296.91459) scale(0.1 -0.1)">
       <use xlink:href="#DejaVuSans-31" transform="translate(0 0.684375)"/>
       <use xlink:href="#DejaVuSans-30" transform="translate(63.623047 0.684375)"/>
       <use xlink:href="#DejaVuSans-2212" transform="translate(128.203125 38.965625) scale(0.7)"/>
       <use xlink:href="#DejaVuSans-31" transform="translate(186.855469 38.965625) scale(0.7)"/>
       <use xlink:href="#DejaVuSans-31" transform="translate(231.391602 38.965625) scale(0.7)"/>
      </g>
     </g>
    </g>
    <g id="ytick_10">
     <g id="line2d_30">
      <g>
       <use xlink:href="#m5872b7f5ed" x="394.363636" y="263.019476" style="stroke: #000000; stroke-width: 0.8"/>
      </g>
     </g>
     <g id="text_16">
      <!-- $\mathdefault{10^{-9}}$ -->
      <g transform="translate(363.863636 266.818695) scale(0.1 -0.1)">
       <defs>
        <path id="DejaVuSans-39" d="M 703 97 
L 703 672 
Q 941 559 1184 500 
Q 1428 441 1663 441 
Q 2288 441 2617 861 
Q 2947 1281 2994 2138 
Q 2813 1869 2534 1725 
Q 2256 1581 1919 1581 
Q 1219 1581 811 2004 
Q 403 2428 403 3163 
Q 403 3881 828 4315 
Q 1253 4750 1959 4750 
Q 2769 4750 3195 4129 
Q 3622 3509 3622 2328 
Q 3622 1225 3098 567 
Q 2575 -91 1691 -91 
Q 1453 -91 1209 -44 
Q 966 3 703 97 
z
M 1959 2075 
Q 2384 2075 2632 2365 
Q 2881 2656 2881 3163 
Q 2881 3666 2632 3958 
Q 2384 4250 1959 4250 
Q 1534 4250 1286 3958 
Q 1038 3666 1038 3163 
Q 1038 2656 1286 2365 
Q 1534 2075 1959 2075 
z
" transform="scale(0.015625)"/>
       </defs>
       <use xlink:href="#DejaVuSans-31" transform="translate(0 0.765625)"/>
       <use xlink:href="#DejaVuSans-30" transform="translate(63.623047 0.765625)"/>
       <use xlink:href="#DejaVuSans-2212" transform="translate(128.203125 39.046875) scale(0.7)"/>
       <use xlink:href="#DejaVuSans-39" transform="translate(186.855469 39.046875) scale(0.7)"/>
      </g>
     </g>
    </g>
    <g id="ytick_11">
     <g id="line2d_31">
      <g>
       <use xlink:href="#m5872b7f5ed" x="394.363636" y="232.923581" style="stroke: #000000; stroke-width: 0.8"/>
      </g>
     </g>
     <g id="text_17">
      <!-- $\mathdefault{10^{-7}}$ -->
      <g transform="translate(363.863636 236.7228) scale(0.1 -0.1)">
       <defs>
        <path id="DejaVuSans-37" d="M 525 4666 
L 3525 4666 
L 3525 4397 
L 1831 0 
L 1172 0 
L 2766 4134 
L 525 4134 
L 525 4666 
z
" transform="scale(0.015625)"/>
       </defs>
       <use xlink:href="#DejaVuSans-31" transform="translate(0 0.684375)"/>
       <use xlink:href="#DejaVuSans-30" transform="translate(63.623047 0.684375)"/>
       <use xlink:href="#DejaVuSans-2212" transform="translate(128.203125 38.965625) scale(0.7)"/>
       <use xlink:href="#DejaVuSans-37" transform="translate(186.855469 38.965625) scale(0.7)"/>
      </g>
     </g>
    </g>
    <g id="ytick_12">
     <g id="line2d_32">
      <g>
       <use xlink:href="#m5872b7f5ed" x="394.363636" y="202.827686" style="stroke: #000000; stroke-width: 0.8"/>
      </g>
     </g>
     <g id="text_18">
      <!-- $\mathdefault{10^{-5}}$ -->
      <g transform="translate(363.863636 206.626905) scale(0.1 -0.1)">
       <defs>
        <path id="DejaVuSans-35" d="M 691 4666 
L 3169 4666 
L 3169 4134 
L 1269 4134 
L 1269 2991 
Q 1406 3038 1543 3061 
Q 1681 3084 1819 3084 
Q 2600 3084 3056 2656 
Q 3513 2228 3513 1497 
Q 3513 744 3044 326 
Q 2575 -91 1722 -91 
Q 1428 -91 1123 -41 
Q 819 9 494 109 
L 494 744 
Q 775 591 1075 516 
Q 1375 441 1709 441 
Q 2250 441 2565 725 
Q 2881 1009 2881 1497 
Q 2881 1984 2565 2268 
Q 2250 2553 1709 2553 
Q 1456 2553 1204 2497 
Q 953 2441 691 2322 
L 691 4666 
z
" transform="scale(0.015625)"/>
       </defs>
       <use xlink:href="#DejaVuSans-31" transform="translate(0 0.684375)"/>
       <use xlink:href="#DejaVuSans-30" transform="translate(63.623047 0.684375)"/>
       <use xlink:href="#DejaVuSans-2212" transform="translate(128.203125 38.965625) scale(0.7)"/>
       <use xlink:href="#DejaVuSans-35" transform="translate(186.855469 38.965625) scale(0.7)"/>
      </g>
     </g>
    </g>
    <g id="ytick_13">
     <g id="line2d_33">
      <g>
       <use xlink:href="#m5872b7f5ed" x="394.363636" y="172.731792" style="stroke: #000000; stroke-width: 0.8"/>
      </g>
     </g>
     <g id="text_19">
      <!-- $\mathdefault{10^{-3}}$ -->
      <g transform="translate(363.863636 176.53101) scale(0.1 -0.1)">
       <use xlink:href="#DejaVuSans-31" transform="translate(0 0.765625)"/>
       <use xlink:href="#DejaVuSans-30" transform="translate(63.623047 0.765625)"/>
       <use xlink:href="#DejaVuSans-2212" transform="translate(128.203125 39.046875) scale(0.7)"/>
       <use xlink:href="#DejaVuSans-33" transform="translate(186.855469 39.046875) scale(0.7)"/>
      </g>
     </g>
    </g>
    <g id="ytick_14">
     <g id="line2d_34">
      <g>
       <use xlink:href="#m5872b7f5ed" x="394.363636" y="142.635897" style="stroke: #000000; stroke-width: 0.8"/>
      </g>
     </g>
     <g id="text_20">
      <!-- $\mathdefault{10^{-1}}$ -->
      <g transform="translate(363.863636 146.435116) scale(0.1 -0.1)">
       <use xlink:href="#DejaVuSans-31" transform="translate(0 0.684375)"/>
       <use xlink:href="#DejaVuSans-30" transform="translate(63.623047 0.684375)"/>
       <use xlink:href="#DejaVuSans-2212" transform="translate(128.203125 38.965625) scale(0.7)"/>
       <use xlink:href="#DejaVuSans-31" transform="translate(186.855469 38.965625) scale(0.7)"/>
      </g>
     </g>
    </g>
    <g id="ytick_15">
     <g id="line2d_35">
      <g>
       <use xlink:href="#m5872b7f5ed" x="394.363636" y="112.540002" style="stroke: #000000; stroke-width: 0.8"/>
      </g>
     </g>
     <g id="text_21">
      <!-- $\mathdefault{10^{1}}$ -->
      <g transform="translate(369.763636 116.339221) scale(0.1 -0.1)">
       <use xlink:href="#DejaVuSans-31" transform="translate(0 0.684375)"/>
       <use xlink:href="#DejaVuSans-30" transform="translate(63.623047 0.684375)"/>
       <use xlink:href="#DejaVuSans-31" transform="translate(128.203125 38.965625) scale(0.7)"/>
      </g>
     </g>
    </g>
   </g>
   <g id="line2d_36">
    <g clip-path="url(#p8cb8066b81)">
     <use xlink:href="#m54e320919f" x="405.422694" y="15175.535341" style="fill: #ff8c00; stroke: #ff8c00"/>
     <use xlink:href="#m54e320919f" x="421.174467" y="15175.535341" style="fill: #ff8c00; stroke: #ff8c00"/>
     <use xlink:href="#m54e320919f" x="610.195744" y="15175.535341" style="fill: #ff8c00; stroke: #ff8c00"/>
     <use xlink:href="#m54e320919f" x="625.947518" y="135.526358" style="fill: #ff8c00; stroke: #ff8c00"/>
    </g>
   </g>
   <g id="line2d_37">
    <path d="M 405.450435 721 
L 405.557482 132.301594 
L 405.784688 123.661487 
L 406.12501 118.763201 
L 406.588313 115.232836 
L 407.143206 112.605427 
L 407.766866 110.57375 
L 408.496212 108.858903 
L 409.32975 107.441197 
L 410.163288 106.435431 
L 411.101019 105.673076 
L 412.142941 105.133719 
L 413.601633 104.648555 
L 416.519016 103.962777 
L 421.174467 103.085048 
L 421.174467 721 
M 421.174467 721 
L 421.283018 133.308194 
L 421.488996 124.433043 
L 421.823175 119.183433 
L 422.262584 115.618616 
L 422.783875 112.992014 
L 423.454427 110.708771 
L 424.231355 108.849524 
L 425.1054 107.346154 
L 425.979446 106.253545 
L 427.047723 105.285166 
L 428.407348 104.380333 
L 430.392074 103.352619 
L 433.157925 102.187791 
L 436.45567 101.044279 
L 436.92624 100.897635 
L 436.92624 721 
M 436.92624 721 
L 437.031827 132.653997 
L 437.257334 123.814671 
L 437.602397 118.78559 
L 438.044499 115.368814 
L 438.599953 112.688102 
L 439.271413 110.492098 
L 440.035513 108.710448 
L 440.940682 107.177311 
L 441.88085 106.006187 
L 443.029945 104.93111 
L 444.596893 103.801536 
L 446.686156 102.595954 
L 449.193272 101.409417 
L 452.222704 100.225025 
L 452.678013 100.065102 
L 452.678013 721 
M 452.678013 721 
L 452.785695 132.063965 
L 453.010892 123.655059 
L 453.341414 118.85805 
L 453.784243 115.406064 
L 454.370607 112.589991 
L 455.050025 110.398892 
L 455.798237 108.66695 
L 456.717366 107.107061 
L 457.738622 105.826452 
L 458.964128 104.657791 
L 460.598137 103.433239 
L 462.640648 102.195649 
L 465.09166 100.976348 
L 468.053301 99.761894 
L 468.429786 99.623075 
L 468.429786 721 
M 468.429786 721 
L 468.54084 131.576843 
L 468.767668 123.474239 
L 469.112216 118.628706 
L 469.561291 115.232838 
L 470.10518 112.640827 
L 470.734541 110.569706 
L 471.561754 108.627702 
L 472.48088 107.063758 
L 473.491919 105.775329 
L 474.778695 104.514698 
L 476.34121 103.299562 
L 478.363287 102.021951 
L 480.753014 100.785002 
L 483.602305 99.569281 
L 484.181559 99.348323 
L 484.181559 721 
M 484.181559 721 
L 484.285696 131.886351 
L 484.520994 123.390323 
L 484.854268 118.700102 
L 485.324791 115.148514 
L 485.888194 112.508323 
L 486.549392 110.385994 
L 487.378223 108.488035 
L 488.289937 106.959183 
L 489.367417 105.598591 
L 490.693547 104.304677 
L 492.351208 103.016696 
L 494.340402 101.759196 
L 496.744012 100.511464 
L 499.562036 99.304692 
L 499.933333 99.161498 
L 499.933333 721 
M 499.933333 721 
L 500.039581 131.614533 
L 500.268357 123.442699 
L 500.606717 118.673986 
L 501.084181 115.092651 
L 501.66713 112.396363 
L 502.379237 110.169977 
L 503.205027 108.333332 
L 504.113396 106.837953 
L 505.186923 105.491065 
L 506.508188 104.195566 
L 508.159768 102.898479 
L 510.141664 101.630885 
L 512.536456 100.373962 
L 515.344142 99.159217 
L 515.685106 99.026294 
L 515.685106 721 
M 515.685106 721 
L 515.794828 131.290867 
L 516.026491 123.283128 
L 516.379393 118.453454 
L 516.84689 115.020837 
L 517.438799 112.314974 
L 518.164895 110.075254 
L 518.971668 108.296178 
L 519.939795 106.716351 
L 521.069277 105.32023 
L 522.440791 103.993994 
L 524.135014 102.67948 
L 526.151946 101.404693 
L 528.572264 100.149056 
L 531.436879 98.924417 
L 531.436879 721 
M 531.436879 721 
L 531.544854 131.334804 
L 531.782979 123.165596 
L 532.140343 118.353706 
L 532.609555 114.951763 
L 533.190961 112.307864 
L 533.881304 110.161605 
L 534.711425 108.311409 
L 535.624558 106.799155 
L 536.703716 105.427393 
L 538.031909 104.099678 
L 539.692151 102.768683 
L 541.684442 101.471226 
L 544.008781 100.229161 
L 546.74818 99.019699 
L 547.188652 98.844896 
L 547.188652 721 
M 547.188652 721 
L 547.294199 131.4386 
L 547.519153 123.463147 
L 547.855837 118.69919 
L 548.309125 115.246621 
L 548.872002 112.571623 
L 549.558453 110.355762 
L 550.340119 108.544856 
L 551.299867 106.900529 
L 552.366638 105.510466 
L 553.646763 104.195844 
L 555.24692 102.874447 
L 557.167108 101.58442 
L 559.407327 100.347982 
L 562.074254 99.13163 
L 562.940425 98.781505 
L 562.940425 721 
M 562.940425 721 
L 563.044082 131.518444 
L 563.275796 123.34697 
L 563.607831 118.688777 
L 564.04815 115.317029 
L 564.606984 112.633029 
L 565.285633 110.418821 
L 566.023265 108.678095 
L 566.973224 107.009535 
L 568.028736 105.600411 
L 569.295349 104.269286 
L 570.878616 102.933676 
L 572.778536 101.632086 
L 574.995109 100.386351 
L 577.633887 99.162214 
L 578.692198 98.730077 
L 578.692198 721 
M 578.692198 721 
L 578.802922 131.017868 
L 579.04461 122.99544 
L 579.372242 118.556339 
L 579.851599 115.011529 
L 580.426417 112.370004 
L 581.109143 110.221926 
L 581.968129 108.291916 
L 582.913013 106.722936 
L 584.029694 105.299869 
L 585.404071 103.921554 
L 587.036143 102.605363 
L 589.011809 101.307144 
L 591.33107 100.056611 
L 594.079823 98.833477 
L 594.443971 98.687597 
L 594.443971 721 
M 594.443971 721 
L 594.549883 131.29596 
L 594.790732 123.094756 
L 595.142756 118.36886 
L 595.607985 114.981637 
L 596.187383 112.332599 
L 596.876021 110.178932 
L 597.703986 108.318236 
L 598.697544 106.668468 
L 599.856694 105.203513 
L 601.264234 103.807075 
L 602.920164 102.486269 
L 604.907279 101.193934 
L 607.225581 99.954848 
L 610.040661 98.713744 
L 610.195744 98.651864 
L 610.195744 721 
M 610.195744 721 
L 610.30038 131.352259 
L 610.531479 123.305238 
L 610.885757 118.448307 
L 611.340944 115.085876 
L 611.909234 112.442838 
L 612.57626 110.313779 
L 613.413029 108.397455 
L 614.342773 106.81808 
L 615.458465 105.363494 
L 616.853081 103.938344 
L 618.526619 102.57198 
L 620.479081 101.276986 
L 622.80344 100.012698 
L 625.499697 98.802121 
L 626.603841 98.365393 
L 626.603841 98.365393 
" clip-path="url(#p8cb8066b81)" style="fill: none; stroke: #0000ff; stroke-width: 1.5; stroke-linecap: square"/>
   </g>
   <g id="line2d_38">
    <g clip-path="url(#p8cb8066b81)">
     <use xlink:href="#m3f03641c15" x="405.422694" y="15175.535341" style="fill: #0000ff; stroke: #0000ff"/>
     <use xlink:href="#m3f03641c15" x="421.174467" y="15175.535341" style="fill: #0000ff; stroke: #0000ff"/>
     <use xlink:href="#m3f03641c15" x="610.195744" y="15175.535341" style="fill: #0000ff; stroke: #0000ff"/>
     <use xlink:href="#m3f03641c15" x="625.947518" y="98.6214" style="fill: #0000ff; stroke: #0000ff"/>
    </g>
   </g>
   <g id="LineCollection_3">
    <path d="M 405.422694 721 
L 405.422694 107.840724 
" clip-path="url(#p8cb8066b81)" style="fill: none; stroke: #000000; stroke-width: 1.5"/>
    <path d="M 421.174467 100.896579 
L 421.174467 97.854545 
" clip-path="url(#p8cb8066b81)" style="fill: none; stroke: #000000; stroke-width: 1.5"/>
    <path d="M 610.195744 721 
L 610.195744 107.840724 
" clip-path="url(#p8cb8066b81)" style="fill: none; stroke: #000000; stroke-width: 1.5"/>
    <path d="M 625.947518 101.706218 
L 625.947518 97.92952 
" clip-path="url(#p8cb8066b81)" style="fill: none; stroke: #000000; stroke-width: 1.5"/>
   </g>
   <g id="line2d_39">
    <path d="M 420.52481 721 
L 421.174467 99.200136 
L 428.970354 721 
M 625.29821 721 
L 625.947518 99.548765 
" clip-path="url(#p8cb8066b81)" style="fill: none; stroke: #000000; stroke-width: 1.5; stroke-linecap: square"/>
    <g clip-path="url(#p8cb8066b81)">
     <use xlink:href="#m87f976d636" x="405.422694" y="15175.535341" style="stroke: #000000; stroke-linejoin: miter"/>
     <use xlink:href="#m87f976d636" x="421.174467" y="99.200136" style="stroke: #000000; stroke-linejoin: miter"/>
     <use xlink:href="#m87f976d636" x="610.195744" y="15175.535341" style="stroke: #000000; stroke-linejoin: miter"/>
     <use xlink:href="#m87f976d636" x="625.947518" y="99.548765" style="stroke: #000000; stroke-linejoin: miter"/>
    </g>
   </g>
   <g id="patch_9">
    <path d="M 394.363636 338.4 
L 394.363636 86.4 
" style="fill: none; stroke: #000000; stroke-width: 0.8; stroke-linejoin: miter; stroke-linecap: square"/>
   </g>
   <g id="patch_10">
    <path d="M 648 338.4 
L 648 86.4 
" style="fill: none; stroke: #000000; stroke-width: 0.8; stroke-linejoin: miter; stroke-linecap: square"/>
   </g>
   <g id="patch_11">
    <path d="M 394.363636 338.4 
L 648 338.4 
" style="fill: none; stroke: #000000; stroke-width: 0.8; stroke-linejoin: miter; stroke-linecap: square"/>
   </g>
   <g id="patch_12">
    <path d="M 394.363636 86.4 
L 648 86.4 
" style="fill: none; stroke: #000000; stroke-width: 0.8; stroke-linejoin: miter; stroke-linecap: square"/>
   </g>
   <g id="text_22">
    <!-- Kasichayanula2011a.fm_dap20_uge -->
    <g transform="translate(394.834006 80.4) scale(0.14 -0.14)">
     <use xlink:href="#DejaVuSans-4b"/>
     <use xlink:href="#DejaVuSans-61" x="63.826172"/>
     <use xlink:href="#DejaVuSans-73" x="125.105469"/>
     <use xlink:href="#DejaVuSans-69" x="177.205078"/>
     <use xlink:href="#DejaVuSans-63" x="204.988281"/>
     <use xlink:href="#DejaVuSans-68" x="259.96875"/>
     <use xlink:href="#DejaVuSans-61" x="323.347656"/>
     <use xlink:href="#DejaVuSans-79" x="384.626953"/>
     <use xlink:href="#DejaVuSans-61" x="443.806641"/>
     <use xlink:href="#DejaVuSans-6e" x="505.085938"/>
     <use xlink:href="#DejaVuSans-75" x="568.464844"/>
     <use xlink:href="#DejaVuSans-6c" x="631.84375"/>
     <use xlink:href="#DejaVuSans-61" x="659.626953"/>
     <use xlink:href="#DejaVuSans-32" x="720.90625"/>
     <use xlink:href="#DejaVuSans-30" x="784.529297"/>
     <use xlink:href="#DejaVuSans-31" x="848.152344"/>
     <use xlink:href="#DejaVuSans-31" x="911.775391"/>
     <use xlink:href="#DejaVuSans-61" x="975.398438"/>
     <use xlink:href="#DejaVuSans-2e" x="1036.677734"/>
     <use xlink:href="#DejaVuSans-66" x="1068.464844"/>
     <use xlink:href="#DejaVuSans-6d" x="1103.669922"/>
     <use xlink:href="#DejaVuSans-5f" x="1201.082031"/>
     <use xlink:href="#DejaVuSans-64" x="1251.082031"/>
     <use xlink:href="#DejaVuSans-61" x="1314.558594"/>
     <use xlink:href="#DejaVuSans-70" x="1375.837891"/>
     <use xlink:href="#DejaVuSans-32" x="1439.314453"/>
     <use xlink:href="#DejaVuSans-30" x="1502.9375"/>
     <use xlink:href="#DejaVuSans-5f" x="1566.560547"/>
     <use xlink:href="#DejaVuSans-75" x="1616.560547"/>
     <use xlink:href="#DejaVuSans-67" x="1679.939453"/>
     <use xlink:href="#DejaVuSans-65" x="1743.416016"/>
    </g>
   </g>
   <g id="legend_2">
    <g id="patch_13">
     <path d="M 401.363636 333.4 
L 508.629261 333.4 
Q 510.629261 333.4 510.629261 331.4 
L 510.629261 273.409375 
Q 510.629261 271.409375 508.629261 271.409375 
L 401.363636 271.409375 
Q 399.363636 271.409375 399.363636 273.409375 
L 399.363636 331.4 
Q 399.363636 333.4 401.363636 333.4 
z
" style="fill: #ffffff; opacity: 0.8; stroke: #cccccc; stroke-linejoin: miter"/>
    </g>
    <g id="line2d_40">
     <g>
      <use xlink:href="#m54e320919f" x="413.363636" y="279.507812" style="fill: #ff8c00; stroke: #ff8c00"/>
     </g>
    </g>
    <g id="text_23">
     <!-- residuals -->
     <g transform="translate(431.363636 283.007812) scale(0.1 -0.1)">
      <use xlink:href="#DejaVuSans-72"/>
      <use xlink:href="#DejaVuSans-65" x="38.863281"/>
      <use xlink:href="#DejaVuSans-73" x="100.386719"/>
      <use xlink:href="#DejaVuSans-69" x="152.486328"/>
      <use xlink:href="#DejaVuSans-64" x="180.269531"/>
      <use xlink:href="#DejaVuSans-75" x="243.746094"/>
      <use xlink:href="#DejaVuSans-61" x="307.125"/>
      <use xlink:href="#DejaVuSans-6c" x="368.404297"/>
      <use xlink:href="#DejaVuSans-73" x="396.1875"/>
     </g>
    </g>
    <g id="line2d_41">
     <path d="M 403.363636 294.185938 
L 413.363636 294.185938 
L 423.363636 294.185938 
" style="fill: none; stroke: #0000ff; stroke-width: 1.5; stroke-linecap: square"/>
    </g>
    <g id="text_24">
     <!-- observable -->
     <g transform="translate(431.363636 297.685938) scale(0.1 -0.1)">
      <use xlink:href="#DejaVuSans-6f"/>
      <use xlink:href="#DejaVuSans-62" x="61.181641"/>
      <use xlink:href="#DejaVuSans-73" x="124.658203"/>
      <use xlink:href="#DejaVuSans-65" x="176.757812"/>
      <use xlink:href="#DejaVuSans-72" x="238.28125"/>
      <use xlink:href="#DejaVuSans-76" x="279.394531"/>
      <use xlink:href="#DejaVuSans-61" x="338.574219"/>
      <use xlink:href="#DejaVuSans-62" x="399.853516"/>
      <use xlink:href="#DejaVuSans-6c" x="463.330078"/>
      <use xlink:href="#DejaVuSans-65" x="491.113281"/>
     </g>
    </g>
    <g id="line2d_42">
     <g>
      <use xlink:href="#m3f03641c15" x="413.363636" y="308.864062" style="fill: #0000ff; stroke: #0000ff"/>
     </g>
    </g>
    <g id="text_25">
     <!-- interpolation -->
     <g transform="translate(431.363636 312.364062) scale(0.1 -0.1)">
      <use xlink:href="#DejaVuSans-69"/>
      <use xlink:href="#DejaVuSans-6e" x="27.783203"/>
      <use xlink:href="#DejaVuSans-74" x="91.162109"/>
      <use xlink:href="#DejaVuSans-65" x="130.371094"/>
      <use xlink:href="#DejaVuSans-72" x="191.894531"/>
      <use xlink:href="#DejaVuSans-70" x="233.007812"/>
      <use xlink:href="#DejaVuSans-6f" x="296.484375"/>
      <use xlink:href="#DejaVuSans-6c" x="357.666016"/>
      <use xlink:href="#DejaVuSans-61" x="385.449219"/>
      <use xlink:href="#DejaVuSans-74" x="446.728516"/>
      <use xlink:href="#DejaVuSans-69" x="485.9375"/>
      <use xlink:href="#DejaVuSans-6f" x="513.720703"/>
      <use xlink:href="#DejaVuSans-6e" x="574.902344"/>
     </g>
    </g>
    <g id="LineCollection_4">
     <path d="M 413.363636 328.542188 
L 413.363636 318.542188 
" style="fill: none; stroke: #000000; stroke-width: 1.5"/>
    </g>
    <g id="line2d_43">
     <path d="M 403.363636 323.542188 
L 423.363636 323.542188 
" style="fill: none; stroke: #000000; stroke-width: 1.5; stroke-linecap: square"/>
    </g>
    <g id="line2d_44">
     <g>
      <use xlink:href="#m87f976d636" x="413.363636" y="323.542188" style="stroke: #000000; stroke-linejoin: miter"/>
     </g>
    </g>
    <g id="text_26">
     <!-- reference_data -->
     <g transform="translate(431.363636 327.042188) scale(0.1 -0.1)">
      <use xlink:href="#DejaVuSans-72"/>
      <use xlink:href="#DejaVuSans-65" x="38.863281"/>
      <use xlink:href="#DejaVuSans-66" x="100.386719"/>
      <use xlink:href="#DejaVuSans-65" x="135.591797"/>
      <use xlink:href="#DejaVuSans-72" x="197.115234"/>
      <use xlink:href="#DejaVuSans-65" x="235.978516"/>
      <use xlink:href="#DejaVuSans-6e" x="297.501953"/>
      <use xlink:href="#DejaVuSans-63" x="360.880859"/>
      <use xlink:href="#DejaVuSans-65" x="415.861328"/>
      <use xlink:href="#DejaVuSans-5f" x="477.384766"/>
      <use xlink:href="#DejaVuSans-64" x="527.384766"/>
      <use xlink:href="#DejaVuSans-61" x="590.861328"/>
      <use xlink:href="#DejaVuSans-74" x="652.140625"/>
      <use xlink:href="#DejaVuSans-61" x="691.349609"/>
     </g>
    </g>
   </g>
  </g>
  <g id="axes_3">
   <g id="patch_14">
    <path d="M 90 640.8 
L 343.636364 640.8 
L 343.636364 388.8 
L 90 388.8 
z
" style="fill: #ffffff"/>
   </g>
   <g id="PolyCollection_3">
    <defs>
     <path id="mf6748e8047" d="M 101.059057 -90.654545 
L 101.059057 -90.654545 
L 116.810831 -319.745455 
L 305.832108 -90.654545 
L 321.583881 -94.546532 
L 321.583881 -90.654545 
L 321.583881 -90.654545 
L 305.832108 -90.654545 
L 116.810831 -90.654545 
L 101.059057 -90.654545 
z
" style="stroke: #8b0000; stroke-opacity: 0.4"/>
    </defs>
    <g clip-path="url(#p71f4c7977f)">
     <use xlink:href="#mf6748e8047" x="0" y="720" style="fill: #8b0000; fill-opacity: 0.4; stroke: #8b0000; stroke-opacity: 0.4"/>
    </g>
   </g>
   <g id="matplotlib.axis_5">
    <g id="xtick_11">
     <g id="line2d_45">
      <g>
       <use xlink:href="#m9c54470818" x="101.059057" y="640.8" style="stroke: #000000; stroke-width: 0.8"/>
      </g>
     </g>
     <g id="text_27">
      <!-- 0 -->
      <g transform="translate(97.877807 655.398438) scale(0.1 -0.1)">
       <use xlink:href="#DejaVuSans-30"/>
      </g>
     </g>
    </g>
    <g id="xtick_12">
     <g id="line2d_46">
      <g>
       <use xlink:href="#m9c54470818" x="155.752714" y="640.8" style="stroke: #000000; stroke-width: 0.8"/>
      </g>
     </g>
     <g id="text_28">
      <!-- 5000 -->
      <g transform="translate(143.027714 655.398438) scale(0.1 -0.1)">
       <use xlink:href="#DejaVuSans-35"/>
       <use xlink:href="#DejaVuSans-30" x="63.623047"/>
       <use xlink:href="#DejaVuSans-30" x="127.246094"/>
       <use xlink:href="#DejaVuSans-30" x="190.869141"/>
      </g>
     </g>
    </g>
    <g id="xtick_13">
     <g id="line2d_47">
      <g>
       <use xlink:href="#m9c54470818" x="210.446371" y="640.8" style="stroke: #000000; stroke-width: 0.8"/>
      </g>
     </g>
     <g id="text_29">
      <!-- 10000 -->
      <g transform="translate(194.540121 655.398438) scale(0.1 -0.1)">
       <use xlink:href="#DejaVuSans-31"/>
       <use xlink:href="#DejaVuSans-30" x="63.623047"/>
       <use xlink:href="#DejaVuSans-30" x="127.246094"/>
       <use xlink:href="#DejaVuSans-30" x="190.869141"/>
       <use xlink:href="#DejaVuSans-30" x="254.492188"/>
      </g>
     </g>
    </g>
    <g id="xtick_14">
     <g id="line2d_48">
      <g>
       <use xlink:href="#m9c54470818" x="265.140028" y="640.8" style="stroke: #000000; stroke-width: 0.8"/>
      </g>
     </g>
     <g id="text_30">
      <!-- 15000 -->
      <g transform="translate(249.233778 655.398438) scale(0.1 -0.1)">
       <use xlink:href="#DejaVuSans-31"/>
       <use xlink:href="#DejaVuSans-35" x="63.623047"/>
       <use xlink:href="#DejaVuSans-30" x="127.246094"/>
       <use xlink:href="#DejaVuSans-30" x="190.869141"/>
       <use xlink:href="#DejaVuSans-30" x="254.492188"/>
      </g>
     </g>
    </g>
    <g id="xtick_15">
     <g id="line2d_49">
      <g>
       <use xlink:href="#m9c54470818" x="319.833684" y="640.8" style="stroke: #000000; stroke-width: 0.8"/>
      </g>
     </g>
     <g id="text_31">
      <!-- 20000 -->
      <g transform="translate(303.927434 655.398438) scale(0.1 -0.1)">
       <use xlink:href="#DejaVuSans-32"/>
       <use xlink:href="#DejaVuSans-30" x="63.623047"/>
       <use xlink:href="#DejaVuSans-30" x="127.246094"/>
       <use xlink:href="#DejaVuSans-30" x="190.869141"/>
       <use xlink:href="#DejaVuSans-30" x="254.492188"/>
      </g>
     </g>
    </g>
    <g id="text_32">
     <!-- time -->
     <g transform="translate(203.262869 670.59625) scale(0.12 -0.12)">
      <use xlink:href="#DejaVuSans-74"/>
      <use xlink:href="#DejaVuSans-69" x="39.208984"/>
      <use xlink:href="#DejaVuSans-6d" x="66.992188"/>
      <use xlink:href="#DejaVuSans-65" x="164.404297"/>
     </g>
    </g>
   </g>
   <g id="matplotlib.axis_6">
    <g id="ytick_16">
     <g id="line2d_50">
      <g>
       <use xlink:href="#m5872b7f5ed" x="90" y="629.345455" style="stroke: #000000; stroke-width: 0.8"/>
      </g>
     </g>
     <g id="text_33">
      <!-- 0 -->
      <g transform="translate(76.6375 633.144673) scale(0.1 -0.1)">
       <use xlink:href="#DejaVuSans-30"/>
      </g>
     </g>
    </g>
    <g id="ytick_17">
     <g id="line2d_51">
      <g>
       <use xlink:href="#m5872b7f5ed" x="90" y="574.133278" style="stroke: #000000; stroke-width: 0.8"/>
      </g>
     </g>
     <g id="text_34">
      <!-- 10 -->
      <g transform="translate(70.275 577.932497) scale(0.1 -0.1)">
       <use xlink:href="#DejaVuSans-31"/>
       <use xlink:href="#DejaVuSans-30" x="63.623047"/>
      </g>
     </g>
    </g>
    <g id="ytick_18">
     <g id="line2d_52">
      <g>
       <use xlink:href="#m5872b7f5ed" x="90" y="518.921102" style="stroke: #000000; stroke-width: 0.8"/>
      </g>
     </g>
     <g id="text_35">
      <!-- 20 -->
      <g transform="translate(70.275 522.720321) scale(0.1 -0.1)">
       <use xlink:href="#DejaVuSans-32"/>
       <use xlink:href="#DejaVuSans-30" x="63.623047"/>
      </g>
     </g>
    </g>
    <g id="ytick_19">
     <g id="line2d_53">
      <g>
       <use xlink:href="#m5872b7f5ed" x="90" y="463.708925" style="stroke: #000000; stroke-width: 0.8"/>
      </g>
     </g>
     <g id="text_36">
      <!-- 30 -->
      <g transform="translate(70.275 467.508144) scale(0.1 -0.1)">
       <use xlink:href="#DejaVuSans-33"/>
       <use xlink:href="#DejaVuSans-30" x="63.623047"/>
      </g>
     </g>
    </g>
    <g id="ytick_20">
     <g id="line2d_54">
      <g>
       <use xlink:href="#m5872b7f5ed" x="90" y="408.496749" style="stroke: #000000; stroke-width: 0.8"/>
      </g>
     </g>
     <g id="text_37">
      <!-- 40 -->
      <g transform="translate(70.275 412.295968) scale(0.1 -0.1)">
       <use xlink:href="#DejaVuSans-34"/>
       <use xlink:href="#DejaVuSans-30" x="63.623047"/>
      </g>
     </g>
    </g>
    <g id="text_38">
     <!-- KI__UGE -->
     <g transform="translate(63.445625 539.33625) rotate(-90) scale(0.12 -0.12)">
      <use xlink:href="#DejaVuSans-4b"/>
      <use xlink:href="#DejaVuSans-49" x="65.576172"/>
      <use xlink:href="#DejaVuSans-5f" x="95.068359"/>
      <use xlink:href="#DejaVuSans-5f" x="145.068359"/>
      <use xlink:href="#DejaVuSans-55" x="195.068359"/>
      <use xlink:href="#DejaVuSans-47" x="268.261719"/>
      <use xlink:href="#DejaVuSans-45" x="345.751953"/>
     </g>
    </g>
   </g>
   <g id="line2d_55">
    <path d="M 90 629.345455 
L 343.636364 629.345455 
" clip-path="url(#p71f4c7977f)" style="fill: none; stroke: #000000; stroke-width: 1.5; stroke-linecap: square"/>
   </g>
   <g id="line2d_56">
    <defs>
     <path id="mccf2ad2d2d" d="M 0 3 
C 0.795609 3 1.55874 2.683901 2.12132 2.12132 
C 2.683901 1.55874 3 0.795609 3 0 
C 3 -0.795609 2.683901 -1.55874 2.12132 -2.12132 
C 1.55874 -2.683901 0.795609 -3 0 -3 
C -0.795609 -3 -1.55874 -2.683901 -2.12132 -2.12132 
C -2.683901 -1.55874 -3 -0.795609 -3 0 
C -3 0.795609 -2.683901 1.55874 -2.12132 2.12132 
C -1.55874 2.683901 -0.795609 3 0 3 
z
" style="stroke: #ff0000"/>
    </defs>
    <g clip-path="url(#p71f4c7977f)">
     <use xlink:href="#mccf2ad2d2d" x="101.059057" y="629.345455" style="fill: #ff0000; stroke: #ff0000"/>
     <use xlink:href="#mccf2ad2d2d" x="116.810831" y="400.254545" style="fill: #ff0000; stroke: #ff0000"/>
     <use xlink:href="#mccf2ad2d2d" x="305.832108" y="629.345455" style="fill: #ff0000; stroke: #ff0000"/>
     <use xlink:href="#mccf2ad2d2d" x="321.583881" y="625.453468" style="fill: #ff0000; stroke: #ff0000"/>
    </g>
   </g>
   <g id="patch_15">
    <path d="M 90 640.8 
L 90 388.8 
" style="fill: none; stroke: #000000; stroke-width: 0.8; stroke-linejoin: miter; stroke-linecap: square"/>
   </g>
   <g id="patch_16">
    <path d="M 343.636364 640.8 
L 343.636364 388.8 
" style="fill: none; stroke: #000000; stroke-width: 0.8; stroke-linejoin: miter; stroke-linecap: square"/>
   </g>
   <g id="patch_17">
    <path d="M 90 640.8 
L 343.636364 640.8 
" style="fill: none; stroke: #000000; stroke-width: 0.8; stroke-linejoin: miter; stroke-linecap: square"/>
   </g>
   <g id="patch_18">
    <path d="M 90 388.8 
L 343.636364 388.8 
" style="fill: none; stroke: #000000; stroke-width: 0.8; stroke-linejoin: miter; stroke-linecap: square"/>
   </g>
   <g id="legend_3">
    <g id="patch_19">
     <path d="M 187.867614 411.478125 
L 336.636364 411.478125 
Q 338.636364 411.478125 338.636364 409.478125 
L 338.636364 395.8 
Q 338.636364 393.8 336.636364 393.8 
L 187.867614 393.8 
Q 185.867614 393.8 185.867614 395.8 
L 185.867614 409.478125 
Q 185.867614 411.478125 187.867614 411.478125 
z
" style="fill: #ffffff; opacity: 0.8; stroke: #cccccc; stroke-linejoin: miter"/>
    </g>
    <g id="line2d_57">
     <g>
      <use xlink:href="#mccf2ad2d2d" x="199.867614" y="401.898438" style="fill: #ff0000; stroke: #ff0000"/>
     </g>
    </g>
    <g id="text_39">
     <!-- (weighted residuals)^2 -->
     <g transform="translate(217.867614 405.398438) scale(0.1 -0.1)">
      <defs>
       <path id="DejaVuSans-28" d="M 1984 4856 
Q 1566 4138 1362 3434 
Q 1159 2731 1159 2009 
Q 1159 1288 1364 580 
Q 1569 -128 1984 -844 
L 1484 -844 
Q 1016 -109 783 600 
Q 550 1309 550 2009 
Q 550 2706 781 3412 
Q 1013 4119 1484 4856 
L 1984 4856 
z
" transform="scale(0.015625)"/>
       <path id="DejaVuSans-77" d="M 269 3500 
L 844 3500 
L 1563 769 
L 2278 3500 
L 2956 3500 
L 3675 769 
L 4391 3500 
L 4966 3500 
L 4050 0 
L 3372 0 
L 2619 2869 
L 1863 0 
L 1184 0 
L 269 3500 
z
" transform="scale(0.015625)"/>
       <path id="DejaVuSans-20" transform="scale(0.015625)"/>
       <path id="DejaVuSans-29" d="M 513 4856 
L 1013 4856 
Q 1481 4119 1714 3412 
Q 1947 2706 1947 2009 
Q 1947 1309 1714 600 
Q 1481 -109 1013 -844 
L 513 -844 
Q 928 -128 1133 580 
Q 1338 1288 1338 2009 
Q 1338 2731 1133 3434 
Q 928 4138 513 4856 
z
" transform="scale(0.015625)"/>
       <path id="DejaVuSans-5e" d="M 2988 4666 
L 4684 2925 
L 4056 2925 
L 2681 4159 
L 1306 2925 
L 678 2925 
L 2375 4666 
L 2988 4666 
z
" transform="scale(0.015625)"/>
      </defs>
      <use xlink:href="#DejaVuSans-28"/>
      <use xlink:href="#DejaVuSans-77" x="39.013672"/>
      <use xlink:href="#DejaVuSans-65" x="120.800781"/>
      <use xlink:href="#DejaVuSans-69" x="182.324219"/>
      <use xlink:href="#DejaVuSans-67" x="210.107422"/>
      <use xlink:href="#DejaVuSans-68" x="273.583984"/>
      <use xlink:href="#DejaVuSans-74" x="336.962891"/>
      <use xlink:href="#DejaVuSans-65" x="376.171875"/>
      <use xlink:href="#DejaVuSans-64" x="437.695312"/>
      <use xlink:href="#DejaVuSans-20" x="501.171875"/>
      <use xlink:href="#DejaVuSans-72" x="532.958984"/>
      <use xlink:href="#DejaVuSans-65" x="571.822266"/>
      <use xlink:href="#DejaVuSans-73" x="633.345703"/>
      <use xlink:href="#DejaVuSans-69" x="685.445312"/>
      <use xlink:href="#DejaVuSans-64" x="713.228516"/>
      <use xlink:href="#DejaVuSans-75" x="776.705078"/>
      <use xlink:href="#DejaVuSans-61" x="840.083984"/>
      <use xlink:href="#DejaVuSans-6c" x="901.363281"/>
      <use xlink:href="#DejaVuSans-73" x="929.146484"/>
      <use xlink:href="#DejaVuSans-29" x="981.246094"/>
      <use xlink:href="#DejaVuSans-5e" x="1020.259766"/>
      <use xlink:href="#DejaVuSans-32" x="1104.048828"/>
     </g>
    </g>
   </g>
  </g>
  <g id="axes_4">
   <g id="patch_20">
    <path d="M 394.363636 640.8 
L 648 640.8 
L 648 388.8 
L 394.363636 388.8 
z
" style="fill: #ffffff"/>
   </g>
   <g id="PolyCollection_4">
    <path d="M 405.422694 130051.5336 
L 405.422694 130051.5336 
L 421.174467 400.254545 
L 610.195744 130051.5336 
L 625.947518 629.345455 
L 625.947518 130051.5336 
L 625.947518 130051.5336 
L 610.195744 130051.5336 
L 421.174467 130051.5336 
L 405.422694 130051.5336 
z
" clip-path="url(#p4ae201ca04)" style="fill: #8b0000; fill-opacity: 0.4; stroke: #8b0000; stroke-opacity: 0.4"/>
   </g>
   <g id="matplotlib.axis_7">
    <g id="xtick_16">
     <g id="line2d_58">
      <g>
       <use xlink:href="#m9c54470818" x="405.422694" y="640.8" style="stroke: #000000; stroke-width: 0.8"/>
      </g>
     </g>
     <g id="text_40">
      <!-- 0 -->
      <g transform="translate(402.241444 655.398438) scale(0.1 -0.1)">
       <use xlink:href="#DejaVuSans-30"/>
      </g>
     </g>
    </g>
    <g id="xtick_17">
     <g id="line2d_59">
      <g>
       <use xlink:href="#m9c54470818" x="460.11635" y="640.8" style="stroke: #000000; stroke-width: 0.8"/>
      </g>
     </g>
     <g id="text_41">
      <!-- 5000 -->
      <g transform="translate(447.39135 655.398438) scale(0.1 -0.1)">
       <use xlink:href="#DejaVuSans-35"/>
       <use xlink:href="#DejaVuSans-30" x="63.623047"/>
       <use xlink:href="#DejaVuSans-30" x="127.246094"/>
       <use xlink:href="#DejaVuSans-30" x="190.869141"/>
      </g>
     </g>
    </g>
    <g id="xtick_18">
     <g id="line2d_60">
      <g>
       <use xlink:href="#m9c54470818" x="514.810007" y="640.8" style="stroke: #000000; stroke-width: 0.8"/>
      </g>
     </g>
     <g id="text_42">
      <!-- 10000 -->
      <g transform="translate(498.903757 655.398438) scale(0.1 -0.1)">
       <use xlink:href="#DejaVuSans-31"/>
       <use xlink:href="#DejaVuSans-30" x="63.623047"/>
       <use xlink:href="#DejaVuSans-30" x="127.246094"/>
       <use xlink:href="#DejaVuSans-30" x="190.869141"/>
       <use xlink:href="#DejaVuSans-30" x="254.492188"/>
      </g>
     </g>
    </g>
    <g id="xtick_19">
     <g id="line2d_61">
      <g>
       <use xlink:href="#m9c54470818" x="569.503664" y="640.8" style="stroke: #000000; stroke-width: 0.8"/>
      </g>
     </g>
     <g id="text_43">
      <!-- 15000 -->
      <g transform="translate(553.597414 655.398438) scale(0.1 -0.1)">
       <use xlink:href="#DejaVuSans-31"/>
       <use xlink:href="#DejaVuSans-35" x="63.623047"/>
       <use xlink:href="#DejaVuSans-30" x="127.246094"/>
       <use xlink:href="#DejaVuSans-30" x="190.869141"/>
       <use xlink:href="#DejaVuSans-30" x="254.492188"/>
      </g>
     </g>
    </g>
    <g id="xtick_20">
     <g id="line2d_62">
      <g>
       <use xlink:href="#m9c54470818" x="624.197321" y="640.8" style="stroke: #000000; stroke-width: 0.8"/>
      </g>
     </g>
     <g id="text_44">
      <!-- 20000 -->
      <g transform="translate(608.291071 655.398438) scale(0.1 -0.1)">
       <use xlink:href="#DejaVuSans-32"/>
       <use xlink:href="#DejaVuSans-30" x="63.623047"/>
       <use xlink:href="#DejaVuSans-30" x="127.246094"/>
       <use xlink:href="#DejaVuSans-30" x="190.869141"/>
       <use xlink:href="#DejaVuSans-30" x="254.492188"/>
      </g>
     </g>
    </g>
    <g id="text_45">
     <!-- time -->
     <g transform="translate(507.626506 670.59625) scale(0.12 -0.12)">
      <use xlink:href="#DejaVuSans-74"/>
      <use xlink:href="#DejaVuSans-69" x="39.208984"/>
      <use xlink:href="#DejaVuSans-6d" x="66.992188"/>
      <use xlink:href="#DejaVuSans-65" x="164.404297"/>
     </g>
    </g>
   </g>
   <g id="matplotlib.axis_8">
    <g id="ytick_21">
     <g id="line2d_63">
      <g>
       <use xlink:href="#m5872b7f5ed" x="394.363636" y="609.687955" style="stroke: #000000; stroke-width: 0.8"/>
      </g>
     </g>
     <g id="text_46">
      <!-- $\mathdefault{10^{0}}$ -->
      <g transform="translate(369.763636 613.487174) scale(0.1 -0.1)">
       <use xlink:href="#DejaVuSans-31" transform="translate(0 0.765625)"/>
       <use xlink:href="#DejaVuSans-30" transform="translate(63.623047 0.765625)"/>
       <use xlink:href="#DejaVuSans-30" transform="translate(128.203125 39.046875) scale(0.7)"/>
      </g>
     </g>
    </g>
    <g id="ytick_22">
     <g id="line2d_64">
      <g>
       <use xlink:href="#m5872b7f5ed" x="394.363636" y="480.24611" style="stroke: #000000; stroke-width: 0.8"/>
      </g>
     </g>
     <g id="text_47">
      <!-- $\mathdefault{10^{1}}$ -->
      <g transform="translate(369.763636 484.045328) scale(0.1 -0.1)">
       <use xlink:href="#DejaVuSans-31" transform="translate(0 0.684375)"/>
       <use xlink:href="#DejaVuSans-30" transform="translate(63.623047 0.684375)"/>
       <use xlink:href="#DejaVuSans-31" transform="translate(128.203125 38.965625) scale(0.7)"/>
      </g>
     </g>
    </g>
    <g id="ytick_23">
     <g id="line2d_65">
      <defs>
       <path id="mdd7cef94f0" d="M 0 0 
L -2 0 
" style="stroke: #000000; stroke-width: 0.6"/>
      </defs>
      <g>
       <use xlink:href="#mdd7cef94f0" x="394.363636" y="638.404467" style="stroke: #000000; stroke-width: 0.6"/>
      </g>
     </g>
    </g>
    <g id="ytick_24">
     <g id="line2d_66">
      <g>
       <use xlink:href="#mdd7cef94f0" x="394.363636" y="629.738751" style="stroke: #000000; stroke-width: 0.6"/>
      </g>
     </g>
    </g>
    <g id="ytick_25">
     <g id="line2d_67">
      <g>
       <use xlink:href="#mdd7cef94f0" x="394.363636" y="622.232166" style="stroke: #000000; stroke-width: 0.6"/>
      </g>
     </g>
    </g>
    <g id="ytick_26">
     <g id="line2d_68">
      <g>
       <use xlink:href="#mdd7cef94f0" x="394.363636" y="615.610889" style="stroke: #000000; stroke-width: 0.6"/>
      </g>
     </g>
    </g>
    <g id="ytick_27">
     <g id="line2d_69">
      <g>
       <use xlink:href="#mdd7cef94f0" x="394.363636" y="570.722077" style="stroke: #000000; stroke-width: 0.6"/>
      </g>
     </g>
    </g>
    <g id="ytick_28">
     <g id="line2d_70">
      <g>
       <use xlink:href="#mdd7cef94f0" x="394.363636" y="547.9285" style="stroke: #000000; stroke-width: 0.6"/>
      </g>
     </g>
    </g>
    <g id="ytick_29">
     <g id="line2d_71">
      <g>
       <use xlink:href="#mdd7cef94f0" x="394.363636" y="531.756199" style="stroke: #000000; stroke-width: 0.6"/>
      </g>
     </g>
    </g>
    <g id="ytick_30">
     <g id="line2d_72">
      <g>
       <use xlink:href="#mdd7cef94f0" x="394.363636" y="519.211988" style="stroke: #000000; stroke-width: 0.6"/>
      </g>
     </g>
    </g>
    <g id="ytick_31">
     <g id="line2d_73">
      <g>
       <use xlink:href="#mdd7cef94f0" x="394.363636" y="508.962621" style="stroke: #000000; stroke-width: 0.6"/>
      </g>
     </g>
    </g>
    <g id="ytick_32">
     <g id="line2d_74">
      <g>
       <use xlink:href="#mdd7cef94f0" x="394.363636" y="500.296905" style="stroke: #000000; stroke-width: 0.6"/>
      </g>
     </g>
    </g>
    <g id="ytick_33">
     <g id="line2d_75">
      <g>
       <use xlink:href="#mdd7cef94f0" x="394.363636" y="492.790321" style="stroke: #000000; stroke-width: 0.6"/>
      </g>
     </g>
    </g>
    <g id="ytick_34">
     <g id="line2d_76">
      <g>
       <use xlink:href="#mdd7cef94f0" x="394.363636" y="486.169044" style="stroke: #000000; stroke-width: 0.6"/>
      </g>
     </g>
    </g>
    <g id="ytick_35">
     <g id="line2d_77">
      <g>
       <use xlink:href="#mdd7cef94f0" x="394.363636" y="441.280231" style="stroke: #000000; stroke-width: 0.6"/>
      </g>
     </g>
    </g>
    <g id="ytick_36">
     <g id="line2d_78">
      <g>
       <use xlink:href="#mdd7cef94f0" x="394.363636" y="418.486654" style="stroke: #000000; stroke-width: 0.6"/>
      </g>
     </g>
    </g>
    <g id="ytick_37">
     <g id="line2d_79">
      <g>
       <use xlink:href="#mdd7cef94f0" x="394.363636" y="402.314353" style="stroke: #000000; stroke-width: 0.6"/>
      </g>
     </g>
    </g>
    <g id="ytick_38">
     <g id="line2d_80">
      <g>
       <use xlink:href="#mdd7cef94f0" x="394.363636" y="389.770142" style="stroke: #000000; stroke-width: 0.6"/>
      </g>
     </g>
    </g>
   </g>
   <g id="line2d_81">
    <g clip-path="url(#p4ae201ca04)">
     <use xlink:href="#mccf2ad2d2d" x="414.924756" y="51841" style="fill: #ff0000; stroke: #ff0000"/>
     <use xlink:href="#mccf2ad2d2d" x="421.174467" y="400.254545" style="fill: #ff0000; stroke: #ff0000"/>
     <use xlink:href="#mccf2ad2d2d" x="496.170992" y="51841" style="fill: #ff0000; stroke: #ff0000"/>
     <use xlink:href="#mccf2ad2d2d" x="619.714627" y="51841" style="fill: #ff0000; stroke: #ff0000"/>
     <use xlink:href="#mccf2ad2d2d" x="625.947518" y="629.345455" style="fill: #ff0000; stroke: #ff0000"/>
    </g>
   </g>
   <g id="patch_21">
    <path d="M 394.363636 640.8 
L 394.363636 388.8 
" style="fill: none; stroke: #000000; stroke-width: 0.8; stroke-linejoin: miter; stroke-linecap: square"/>
   </g>
   <g id="patch_22">
    <path d="M 648 640.8 
L 648 388.8 
" style="fill: none; stroke: #000000; stroke-width: 0.8; stroke-linejoin: miter; stroke-linecap: square"/>
   </g>
   <g id="patch_23">
    <path d="M 394.363636 640.8 
L 648 640.8 
" style="fill: none; stroke: #000000; stroke-width: 0.8; stroke-linejoin: miter; stroke-linecap: square"/>
   </g>
   <g id="patch_24">
    <path d="M 394.363636 388.8 
L 648 388.8 
" style="fill: none; stroke: #000000; stroke-width: 0.8; stroke-linejoin: miter; stroke-linecap: square"/>
   </g>
   <g id="legend_4">
    <g id="patch_25">
     <path d="M 492.23125 411.478125 
L 641 411.478125 
Q 643 411.478125 643 409.478125 
L 643 395.8 
Q 643 393.8 641 393.8 
L 492.23125 393.8 
Q 490.23125 393.8 490.23125 395.8 
L 490.23125 409.478125 
Q 490.23125 411.478125 492.23125 411.478125 
z
" style="fill: #ffffff; opacity: 0.8; stroke: #cccccc; stroke-linejoin: miter"/>
    </g>
    <g id="line2d_82">
     <g>
      <use xlink:href="#mccf2ad2d2d" x="504.23125" y="401.898438" style="fill: #ff0000; stroke: #ff0000"/>
     </g>
    </g>
    <g id="text_48">
     <!-- (weighted residuals)^2 -->
     <g transform="translate(522.23125 405.398438) scale(0.1 -0.1)">
      <use xlink:href="#DejaVuSans-28"/>
      <use xlink:href="#DejaVuSans-77" x="39.013672"/>
      <use xlink:href="#DejaVuSans-65" x="120.800781"/>
      <use xlink:href="#DejaVuSans-69" x="182.324219"/>
      <use xlink:href="#DejaVuSans-67" x="210.107422"/>
      <use xlink:href="#DejaVuSans-68" x="273.583984"/>
      <use xlink:href="#DejaVuSans-74" x="336.962891"/>
      <use xlink:href="#DejaVuSans-65" x="376.171875"/>
      <use xlink:href="#DejaVuSans-64" x="437.695312"/>
      <use xlink:href="#DejaVuSans-20" x="501.171875"/>
      <use xlink:href="#DejaVuSans-72" x="532.958984"/>
      <use xlink:href="#DejaVuSans-65" x="571.822266"/>
      <use xlink:href="#DejaVuSans-73" x="633.345703"/>
      <use xlink:href="#DejaVuSans-69" x="685.445312"/>
      <use xlink:href="#DejaVuSans-64" x="713.228516"/>
      <use xlink:href="#DejaVuSans-75" x="776.705078"/>
      <use xlink:href="#DejaVuSans-61" x="840.083984"/>
      <use xlink:href="#DejaVuSans-6c" x="901.363281"/>
      <use xlink:href="#DejaVuSans-73" x="929.146484"/>
      <use xlink:href="#DejaVuSans-29" x="981.246094"/>
      <use xlink:href="#DejaVuSans-5e" x="1020.259766"/>
      <use xlink:href="#DejaVuSans-32" x="1104.048828"/>
     </g>
    </g>
   </g>
  </g>
 </g>
 <defs>
  <clipPath id="p0388652dee">
   <rect x="90" y="86.4" width="253.636364" height="252"/>
  </clipPath>
  <clipPath id="p8cb8066b81">
   <rect x="394.363636" y="86.4" width="253.636364" height="252"/>
  </clipPath>
  <clipPath id="p71f4c7977f">
   <rect x="90" y="388.8" width="253.636364" height="252"/>
  </clipPath>
  <clipPath id="p4ae201ca04">
   <rect x="394.363636" y="388.8" width="253.636364" height="252"/>
  </clipPath>
 </defs>
</svg>
