<?xml version="1.0" encoding="utf-8" standalone="no"?>
<!DOCTYPE svg PUBLIC "-//W3C//DTD SVG 1.1//EN"
  "http://www.w3.org/Graphics/SVG/1.1/DTD/svg11.dtd">
<svg xmlns:xlink="http://www.w3.org/1999/xlink" width="720pt" height="720pt" viewBox="0 0 720 720" xmlns="http://www.w3.org/2000/svg" version="1.1">
 <metadata>
  <rdf:RDF xmlns:dc="http://purl.org/dc/elements/1.1/" xmlns:cc="http://creativecommons.org/ns#" xmlns:rdf="http://www.w3.org/1999/02/22-rdf-syntax-ns#">
   <cc:Work>
    <dc:type rdf:resource="http://purl.org/dc/dcmitype/StillImage"/>
    <dc:date>2025-06-10T18:07:04.256185</dc:date>
    <dc:format>image/svg+xml</dc:format>
    <dc:creator>
     <cc:Agent>
      <dc:title>Matplotlib v3.9.1, https://matplotlib.org/</dc:title>
     </cc:Agent>
    </dc:creator>
   </cc:Work>
  </rdf:RDF>
 </metadata>
 <defs>
  <style type="text/css">*{stroke-linejoin: round; stroke-linecap: butt}</style>
 </defs>
 <g id="figure_1">
  <g id="patch_1">
   <path d="M 0 720 
L 720 720 
L 720 0 
L 0 0 
z
" style="fill: #ffffff"/>
  </g>
  <g id="axes_1">
   <g id="patch_2">
    <path d="M 90 338.4 
L 343.636364 338.4 
L 343.636364 86.4 
L 90 86.4 
z
" style="fill: #ffffff"/>
   </g>
   <g id="PolyCollection_1">
    <defs>
     <path id="m247bfec4b4" d="M 103.684353 -400.274442 
L 103.684353 -400.85325 
L 106.309648 -400.444576 
L 108.934944 -399.577548 
L 111.560239 -398.341569 
L 114.185535 -396.874579 
L 116.810831 -393.054545 
L 308.457404 -400.63515 
L 311.082699 -401.144773 
L 313.707995 -400.852936 
L 316.33329 -400.761063 
L 318.958586 -400.92704 
L 321.583881 -401.199469 
L 321.583881 -400.274442 
L 321.583881 -400.274442 
L 318.958586 -400.274442 
L 316.33329 -400.274442 
L 313.707995 -400.274442 
L 311.082699 -400.274442 
L 308.457404 -400.274442 
L 116.810831 -400.274442 
L 114.185535 -400.274442 
L 111.560239 -400.274442 
L 108.934944 -400.274442 
L 106.309648 -400.274442 
L 103.684353 -400.274442 
z
" style="stroke: #ff8c00; stroke-opacity: 0.4"/>
    </defs>
    <g clip-path="url(#pf083ebefe9)">
     <use xlink:href="#m247bfec4b4" x="0" y="720" style="fill: #ff8c00; fill-opacity: 0.4; stroke: #ff8c00; stroke-opacity: 0.4"/>
    </g>
   </g>
   <g id="matplotlib.axis_1">
    <g id="xtick_1">
     <g id="line2d_1">
      <defs>
       <path id="m2c77ea4357" d="M 0 0 
L 0 3.5 
" style="stroke: #000000; stroke-width: 0.8"/>
      </defs>
      <g>
       <use xlink:href="#m2c77ea4357" x="101.059057" y="338.4" style="stroke: #000000; stroke-width: 0.8"/>
      </g>
     </g>
    </g>
    <g id="xtick_2">
     <g id="line2d_2">
      <g>
       <use xlink:href="#m2c77ea4357" x="155.752714" y="338.4" style="stroke: #000000; stroke-width: 0.8"/>
      </g>
     </g>
    </g>
    <g id="xtick_3">
     <g id="line2d_3">
      <g>
       <use xlink:href="#m2c77ea4357" x="210.446371" y="338.4" style="stroke: #000000; stroke-width: 0.8"/>
      </g>
     </g>
    </g>
    <g id="xtick_4">
     <g id="line2d_4">
      <g>
       <use xlink:href="#m2c77ea4357" x="265.140028" y="338.4" style="stroke: #000000; stroke-width: 0.8"/>
      </g>
     </g>
    </g>
    <g id="xtick_5">
     <g id="line2d_5">
      <g>
       <use xlink:href="#m2c77ea4357" x="319.833684" y="338.4" style="stroke: #000000; stroke-width: 0.8"/>
      </g>
     </g>
    </g>
   </g>
   <g id="matplotlib.axis_2">
    <g id="ytick_1">
     <g id="line2d_6">
      <defs>
       <path id="mbd43e92bc6" d="M 0 0 
L -3.5 0 
" style="stroke: #000000; stroke-width: 0.8"/>
      </defs>
      <g>
       <use xlink:href="#mbd43e92bc6" x="90" y="319.725558" style="stroke: #000000; stroke-width: 0.8"/>
      </g>
     </g>
     <g id="text_1">
      <!-- 0 -->
      <g transform="translate(76.6375 323.524777) scale(0.1 -0.1)">
       <defs>
        <path id="DejaVuSans-30" d="M 2034 4250 
Q 1547 4250 1301 3770 
Q 1056 3291 1056 2328 
Q 1056 1369 1301 889 
Q 1547 409 2034 409 
Q 2525 409 2770 889 
Q 3016 1369 3016 2328 
Q 3016 3291 2770 3770 
Q 2525 4250 2034 4250 
z
M 2034 4750 
Q 2819 4750 3233 4129 
Q 3647 3509 3647 2328 
Q 3647 1150 3233 529 
Q 2819 -91 2034 -91 
Q 1250 -91 836 529 
Q 422 1150 422 2328 
Q 422 3509 836 4129 
Q 1250 4750 2034 4750 
z
" transform="scale(0.015625)"/>
       </defs>
       <use xlink:href="#DejaVuSans-30"/>
      </g>
     </g>
    </g>
    <g id="ytick_2">
     <g id="line2d_7">
      <g>
       <use xlink:href="#mbd43e92bc6" x="90" y="281.840145" style="stroke: #000000; stroke-width: 0.8"/>
      </g>
     </g>
     <g id="text_2">
      <!-- 10 -->
      <g transform="translate(70.275 285.639364) scale(0.1 -0.1)">
       <defs>
        <path id="DejaVuSans-31" d="M 794 531 
L 1825 531 
L 1825 4091 
L 703 3866 
L 703 4441 
L 1819 4666 
L 2450 4666 
L 2450 531 
L 3481 531 
L 3481 0 
L 794 0 
L 794 531 
z
" transform="scale(0.015625)"/>
       </defs>
       <use xlink:href="#DejaVuSans-31"/>
       <use xlink:href="#DejaVuSans-30" x="63.623047"/>
      </g>
     </g>
    </g>
    <g id="ytick_3">
     <g id="line2d_8">
      <g>
       <use xlink:href="#mbd43e92bc6" x="90" y="243.954733" style="stroke: #000000; stroke-width: 0.8"/>
      </g>
     </g>
     <g id="text_3">
      <!-- 20 -->
      <g transform="translate(70.275 247.753951) scale(0.1 -0.1)">
       <defs>
        <path id="DejaVuSans-32" d="M 1228 531 
L 3431 531 
L 3431 0 
L 469 0 
L 469 531 
Q 828 903 1448 1529 
Q 2069 2156 2228 2338 
Q 2531 2678 2651 2914 
Q 2772 3150 2772 3378 
Q 2772 3750 2511 3984 
Q 2250 4219 1831 4219 
Q 1534 4219 1204 4116 
Q 875 4013 500 3803 
L 500 4441 
Q 881 4594 1212 4672 
Q 1544 4750 1819 4750 
Q 2544 4750 2975 4387 
Q 3406 4025 3406 3419 
Q 3406 3131 3298 2873 
Q 3191 2616 2906 2266 
Q 2828 2175 2409 1742 
Q 1991 1309 1228 531 
z
" transform="scale(0.015625)"/>
       </defs>
       <use xlink:href="#DejaVuSans-32"/>
       <use xlink:href="#DejaVuSans-30" x="63.623047"/>
      </g>
     </g>
    </g>
    <g id="ytick_4">
     <g id="line2d_9">
      <g>
       <use xlink:href="#mbd43e92bc6" x="90" y="206.06932" style="stroke: #000000; stroke-width: 0.8"/>
      </g>
     </g>
     <g id="text_4">
      <!-- 30 -->
      <g transform="translate(70.275 209.868538) scale(0.1 -0.1)">
       <defs>
        <path id="DejaVuSans-33" d="M 2597 2516 
Q 3050 2419 3304 2112 
Q 3559 1806 3559 1356 
Q 3559 666 3084 287 
Q 2609 -91 1734 -91 
Q 1441 -91 1130 -33 
Q 819 25 488 141 
L 488 750 
Q 750 597 1062 519 
Q 1375 441 1716 441 
Q 2309 441 2620 675 
Q 2931 909 2931 1356 
Q 2931 1769 2642 2001 
Q 2353 2234 1838 2234 
L 1294 2234 
L 1294 2753 
L 1863 2753 
Q 2328 2753 2575 2939 
Q 2822 3125 2822 3475 
Q 2822 3834 2567 4026 
Q 2313 4219 1838 4219 
Q 1578 4219 1281 4162 
Q 984 4106 628 3988 
L 628 4550 
Q 988 4650 1302 4700 
Q 1616 4750 1894 4750 
Q 2613 4750 3031 4423 
Q 3450 4097 3450 3541 
Q 3450 3153 3228 2886 
Q 3006 2619 2597 2516 
z
" transform="scale(0.015625)"/>
       </defs>
       <use xlink:href="#DejaVuSans-33"/>
       <use xlink:href="#DejaVuSans-30" x="63.623047"/>
      </g>
     </g>
    </g>
    <g id="ytick_5">
     <g id="line2d_10">
      <g>
       <use xlink:href="#mbd43e92bc6" x="90" y="168.183907" style="stroke: #000000; stroke-width: 0.8"/>
      </g>
     </g>
     <g id="text_5">
      <!-- 40 -->
      <g transform="translate(70.275 171.983125) scale(0.1 -0.1)">
       <defs>
        <path id="DejaVuSans-34" d="M 2419 4116 
L 825 1625 
L 2419 1625 
L 2419 4116 
z
M 2253 4666 
L 3047 4666 
L 3047 1625 
L 3713 1625 
L 3713 1100 
L 3047 1100 
L 3047 0 
L 2419 0 
L 2419 1100 
L 313 1100 
L 313 1709 
L 2253 4666 
z
" transform="scale(0.015625)"/>
       </defs>
       <use xlink:href="#DejaVuSans-34"/>
       <use xlink:href="#DejaVuSans-30" x="63.623047"/>
      </g>
     </g>
    </g>
    <g id="ytick_6">
     <g id="line2d_11">
      <g>
       <use xlink:href="#mbd43e92bc6" x="90" y="130.298494" style="stroke: #000000; stroke-width: 0.8"/>
      </g>
     </g>
     <g id="text_6">
      <!-- 50 -->
      <g transform="translate(70.275 134.097713) scale(0.1 -0.1)">
       <defs>
        <path id="DejaVuSans-35" d="M 691 4666 
L 3169 4666 
L 3169 4134 
L 1269 4134 
L 1269 2991 
Q 1406 3038 1543 3061 
Q 1681 3084 1819 3084 
Q 2600 3084 3056 2656 
Q 3513 2228 3513 1497 
Q 3513 744 3044 326 
Q 2575 -91 1722 -91 
Q 1428 -91 1123 -41 
Q 819 9 494 109 
L 494 744 
Q 775 591 1075 516 
Q 1375 441 1709 441 
Q 2250 441 2565 725 
Q 2881 1009 2881 1497 
Q 2881 1984 2565 2268 
Q 2250 2553 1709 2553 
Q 1456 2553 1204 2497 
Q 953 2441 691 2322 
L 691 4666 
z
" transform="scale(0.015625)"/>
       </defs>
       <use xlink:href="#DejaVuSans-35"/>
       <use xlink:href="#DejaVuSans-30" x="63.623047"/>
      </g>
     </g>
    </g>
    <g id="ytick_7">
     <g id="line2d_12">
      <g>
       <use xlink:href="#mbd43e92bc6" x="90" y="92.413081" style="stroke: #000000; stroke-width: 0.8"/>
      </g>
     </g>
     <g id="text_7">
      <!-- 60 -->
      <g transform="translate(70.275 96.2123) scale(0.1 -0.1)">
       <defs>
        <path id="DejaVuSans-36" d="M 2113 2584 
Q 1688 2584 1439 2293 
Q 1191 2003 1191 1497 
Q 1191 994 1439 701 
Q 1688 409 2113 409 
Q 2538 409 2786 701 
Q 3034 994 3034 1497 
Q 3034 2003 2786 2293 
Q 2538 2584 2113 2584 
z
M 3366 4563 
L 3366 3988 
Q 3128 4100 2886 4159 
Q 2644 4219 2406 4219 
Q 1781 4219 1451 3797 
Q 1122 3375 1075 2522 
Q 1259 2794 1537 2939 
Q 1816 3084 2150 3084 
Q 2853 3084 3261 2657 
Q 3669 2231 3669 1497 
Q 3669 778 3244 343 
Q 2819 -91 2113 -91 
Q 1303 -91 875 529 
Q 447 1150 447 2328 
Q 447 3434 972 4092 
Q 1497 4750 2381 4750 
Q 2619 4750 2861 4703 
Q 3103 4656 3366 4563 
z
" transform="scale(0.015625)"/>
       </defs>
       <use xlink:href="#DejaVuSans-36"/>
       <use xlink:href="#DejaVuSans-30" x="63.623047"/>
      </g>
     </g>
    </g>
    <g id="text_8">
     <!-- KI__UGE -->
     <g transform="translate(63.445625 236.93625) rotate(-90) scale(0.12 -0.12)">
      <defs>
       <path id="DejaVuSans-4b" d="M 628 4666 
L 1259 4666 
L 1259 2694 
L 3353 4666 
L 4166 4666 
L 1850 2491 
L 4331 0 
L 3500 0 
L 1259 2247 
L 1259 0 
L 628 0 
L 628 4666 
z
" transform="scale(0.015625)"/>
       <path id="DejaVuSans-49" d="M 628 4666 
L 1259 4666 
L 1259 0 
L 628 0 
L 628 4666 
z
" transform="scale(0.015625)"/>
       <path id="DejaVuSans-5f" d="M 3263 -1063 
L 3263 -1509 
L -63 -1509 
L -63 -1063 
L 3263 -1063 
z
" transform="scale(0.015625)"/>
       <path id="DejaVuSans-55" d="M 556 4666 
L 1191 4666 
L 1191 1831 
Q 1191 1081 1462 751 
Q 1734 422 2344 422 
Q 2950 422 3222 751 
Q 3494 1081 3494 1831 
L 3494 4666 
L 4128 4666 
L 4128 1753 
Q 4128 841 3676 375 
Q 3225 -91 2344 -91 
Q 1459 -91 1007 375 
Q 556 841 556 1753 
L 556 4666 
z
" transform="scale(0.015625)"/>
       <path id="DejaVuSans-47" d="M 3809 666 
L 3809 1919 
L 2778 1919 
L 2778 2438 
L 4434 2438 
L 4434 434 
Q 4069 175 3628 42 
Q 3188 -91 2688 -91 
Q 1594 -91 976 548 
Q 359 1188 359 2328 
Q 359 3472 976 4111 
Q 1594 4750 2688 4750 
Q 3144 4750 3555 4637 
Q 3966 4525 4313 4306 
L 4313 3634 
Q 3963 3931 3569 4081 
Q 3175 4231 2741 4231 
Q 1884 4231 1454 3753 
Q 1025 3275 1025 2328 
Q 1025 1384 1454 906 
Q 1884 428 2741 428 
Q 3075 428 3337 486 
Q 3600 544 3809 666 
z
" transform="scale(0.015625)"/>
       <path id="DejaVuSans-45" d="M 628 4666 
L 3578 4666 
L 3578 4134 
L 1259 4134 
L 1259 2753 
L 3481 2753 
L 3481 2222 
L 1259 2222 
L 1259 531 
L 3634 531 
L 3634 0 
L 628 0 
L 628 4666 
z
" transform="scale(0.015625)"/>
      </defs>
      <use xlink:href="#DejaVuSans-4b"/>
      <use xlink:href="#DejaVuSans-49" x="65.576172"/>
      <use xlink:href="#DejaVuSans-5f" x="95.068359"/>
      <use xlink:href="#DejaVuSans-5f" x="145.068359"/>
      <use xlink:href="#DejaVuSans-55" x="195.068359"/>
      <use xlink:href="#DejaVuSans-47" x="268.261719"/>
      <use xlink:href="#DejaVuSans-45" x="345.751953"/>
     </g>
    </g>
   </g>
   <g id="line2d_13">
    <path d="M 90 319.725558 
L 343.636364 319.725558 
" clip-path="url(#pf083ebefe9)" style="fill: none; stroke: #000000; stroke-width: 1.5; stroke-linecap: square"/>
   </g>
   <g id="line2d_14">
    <defs>
     <path id="m2f47dc18b8" d="M 0 3 
C 0.795609 3 1.55874 2.683901 2.12132 2.12132 
C 2.683901 1.55874 3 0.795609 3 0 
C 3 -0.795609 2.683901 -1.55874 2.12132 -2.12132 
C 1.55874 -2.683901 0.795609 -3 0 -3 
C -0.795609 -3 -1.55874 -2.683901 -2.12132 -2.12132 
C -2.683901 -1.55874 -3 -0.795609 -3 0 
C -3 0.795609 -2.683901 1.55874 -2.12132 2.12132 
C -1.55874 2.683901 -0.795609 3 0 3 
z
" style="stroke: #ff8c00"/>
    </defs>
    <g clip-path="url(#pf083ebefe9)">
     <use xlink:href="#m2f47dc18b8" x="103.684353" y="319.14675" style="fill: #ff8c00; stroke: #ff8c00"/>
     <use xlink:href="#m2f47dc18b8" x="106.309648" y="319.555424" style="fill: #ff8c00; stroke: #ff8c00"/>
     <use xlink:href="#m2f47dc18b8" x="108.934944" y="320.422452" style="fill: #ff8c00; stroke: #ff8c00"/>
     <use xlink:href="#m2f47dc18b8" x="111.560239" y="321.658431" style="fill: #ff8c00; stroke: #ff8c00"/>
     <use xlink:href="#m2f47dc18b8" x="114.185535" y="323.125421" style="fill: #ff8c00; stroke: #ff8c00"/>
     <use xlink:href="#m2f47dc18b8" x="116.810831" y="326.945455" style="fill: #ff8c00; stroke: #ff8c00"/>
     <use xlink:href="#m2f47dc18b8" x="308.457404" y="319.36485" style="fill: #ff8c00; stroke: #ff8c00"/>
     <use xlink:href="#m2f47dc18b8" x="311.082699" y="318.855227" style="fill: #ff8c00; stroke: #ff8c00"/>
     <use xlink:href="#m2f47dc18b8" x="313.707995" y="319.147064" style="fill: #ff8c00; stroke: #ff8c00"/>
     <use xlink:href="#m2f47dc18b8" x="316.33329" y="319.238937" style="fill: #ff8c00; stroke: #ff8c00"/>
     <use xlink:href="#m2f47dc18b8" x="318.958586" y="319.07296" style="fill: #ff8c00; stroke: #ff8c00"/>
     <use xlink:href="#m2f47dc18b8" x="321.583881" y="318.800531" style="fill: #ff8c00; stroke: #ff8c00"/>
    </g>
   </g>
   <g id="line2d_15">
    <path d="M 101.059057 319.725558 
L 101.11021 319.626717 
L 101.284603 317.099842 
L 104.506986 267.704533 
L 105.509055 255.800456 
L 106.237833 249.36437 
L 106.875513 245.455332 
L 107.422096 243.273429 
L 107.96868 241.960184 
L 108.424166 241.36616 
L 108.879652 241.101583 
L 109.517332 241.060722 
L 116.810831 241.060886 
L 116.810831 319.725558 
L 116.918035 318.802886 
L 118.118152 299.587853 
L 120.166454 268.658108 
L 121.280046 254.735711 
L 122.27202 245.042242 
L 123.199982 238.097663 
L 124.304862 231.557643 
L 125.911961 223.571063 
L 128.824828 210.436654 
L 132.562604 194.388503 
L 132.562604 319.725558 
L 132.667347 318.661933 
L 133.898619 298.941494 
L 135.9832 267.441491 
L 137.194627 252.109361 
L 138.305102 240.635668 
L 139.617482 229.368542 
L 141.737479 213.341259 
L 146.482236 179.535734 
L 148.314377 166.769727 
L 148.314377 319.725558 
L 148.421014 318.526637 
L 149.814964 296.203404 
L 151.850064 265.608965 
L 153.16986 248.853946 
L 154.567292 234.004392 
L 156.585804 215.200956 
L 161.321543 173.686767 
L 164.06615 150.097975 
L 164.06615 319.725558 
L 164.173002 318.45413 
L 165.673603 294.428031 
L 167.640538 264.878206 
L 169.119488 245.920166 
L 170.809715 227.368042 
L 173.978892 195.634986 
L 179.817923 138.94573 
L 179.817923 319.725558 
L 179.927555 318.364111 
L 181.582802 291.880708 
L 183.570651 262.23976 
L 185.110843 242.503282 
L 187.164431 219.365564 
L 192.041704 167.725361 
L 195.569696 130.989477 
L 195.569696 319.725558 
L 195.679892 318.319513 
L 197.504198 289.166435 
L 199.472314 260.016779 
L 201.137643 238.653716 
L 203.711332 209.007083 
L 210.865093 130.021784 
L 211.321469 125.037304 
L 211.321469 319.725558 
L 211.423864 318.408388 
L 213.01001 293.002727 
L 215.160413 260.759527 
L 216.949762 237.421807 
L 219.828279 203.354991 
L 227.073242 120.443585 
L 227.073242 319.725558 
L 227.178098 318.349798 
L 228.873423 291.208338 
L 230.990721 259.546664 
L 232.888988 234.657897 
L 236.320471 193.296607 
L 242.825016 116.786366 
L 242.825016 319.725558 
L 242.929863 318.332126 
L 244.723118 289.639479 
L 246.836264 258.13006 
L 248.859146 231.51125 
L 252.996857 180.874765 
L 258.576789 113.815296 
L 258.576789 319.725558 
L 258.683473 318.289821 
L 260.624912 287.26205 
L 262.718578 256.209206 
L 264.846579 228.145617 
L 269.876398 165.794141 
L 274.328562 111.367409 
L 274.328562 319.725558 
L 274.435358 318.275919 
L 276.490431 285.46386 
L 278.594133 254.391061 
L 280.908866 223.82395 
L 287.011344 147.368162 
L 290.080335 109.337657 
L 290.080335 319.725558 
L 290.18663 318.273166 
L 292.178715 286.436637 
L 294.360888 254.091916 
L 296.77125 222.060201 
L 303.488046 137.013044 
L 305.832108 107.622632 
L 305.832108 319.725558 
L 305.942266 318.20577 
L 311.446653 235.874398 
L 315.698101 180.945626 
L 322.240205 97.854545 
L 322.240205 97.854545 
" clip-path="url(#pf083ebefe9)" style="fill: none; stroke: #0000ff; stroke-width: 1.5; stroke-linecap: square"/>
   </g>
   <g id="line2d_16">
    <defs>
     <path id="m4f14c6731d" d="M 0 3 
C 0.795609 3 1.55874 2.683901 2.12132 2.12132 
C 2.683901 1.55874 3 0.795609 3 0 
C 3 -0.795609 2.683901 -1.55874 2.12132 -2.12132 
C 1.55874 -2.683901 0.795609 -3 0 -3 
C -0.795609 -3 -1.55874 -2.683901 -2.12132 -2.12132 
C -2.683901 -1.55874 -3 -0.795609 -3 0 
C -3 0.795609 -2.683901 1.55874 -2.12132 2.12132 
C -1.55874 2.683901 -0.795609 3 0 3 
z
" style="stroke: #0000ff"/>
    </defs>
    <g clip-path="url(#pf083ebefe9)">
     <use xlink:href="#m4f14c6731d" x="103.684353" y="279.324132" style="fill: #0000ff; stroke: #0000ff"/>
     <use xlink:href="#m4f14c6731d" x="106.309648" y="248.847223" style="fill: #0000ff; stroke: #0000ff"/>
     <use xlink:href="#m4f14c6731d" x="108.934944" y="241.08819" style="fill: #0000ff; stroke: #0000ff"/>
     <use xlink:href="#m4f14c6731d" x="111.560239" y="241.060888" style="fill: #0000ff; stroke: #0000ff"/>
     <use xlink:href="#m4f14c6731d" x="114.185535" y="241.060886" style="fill: #0000ff; stroke: #0000ff"/>
     <use xlink:href="#m4f14c6731d" x="116.810831" y="319.725558" style="fill: #0000ff; stroke: #0000ff"/>
     <use xlink:href="#m4f14c6731d" x="308.457404" y="278.263307" style="fill: #0000ff; stroke: #0000ff"/>
     <use xlink:href="#m4f14c6731d" x="311.082699" y="240.732157" style="fill: #0000ff; stroke: #0000ff"/>
     <use xlink:href="#m4f14c6731d" x="313.707995" y="206.442757" style="fill: #0000ff; stroke: #0000ff"/>
     <use xlink:href="#m4f14c6731d" x="316.33329" y="172.836711" style="fill: #0000ff; stroke: #0000ff"/>
     <use xlink:href="#m4f14c6731d" x="318.958586" y="139.421085" style="fill: #0000ff; stroke: #0000ff"/>
     <use xlink:href="#m4f14c6731d" x="321.583881" y="106.150096" style="fill: #0000ff; stroke: #0000ff"/>
    </g>
   </g>
   <g id="line2d_17">
    <defs>
     <path id="m3a050ef63b" d="M -3 3 
L 3 3 
L 3 -3 
L -3 -3 
z
" style="stroke: #000000; stroke-linejoin: miter"/>
    </defs>
    <g clip-path="url(#pf083ebefe9)">
     <use xlink:href="#m3a050ef63b" x="103.684353" y="296.950512" style="stroke: #000000; stroke-linejoin: miter"/>
     <use xlink:href="#m3a050ef63b" x="106.309648" y="254.02831" style="stroke: #000000; stroke-linejoin: miter"/>
     <use xlink:href="#m3a050ef63b" x="108.934944" y="219.865742" style="stroke: #000000; stroke-linejoin: miter"/>
     <use xlink:href="#m3a050ef63b" x="111.560239" y="182.19932" style="stroke: #000000; stroke-linejoin: miter"/>
     <use xlink:href="#m3a050ef63b" x="114.185535" y="137.525191" style="stroke: #000000; stroke-linejoin: miter"/>
     <use xlink:href="#m3a050ef63b" x="116.810831" y="99.858769" style="stroke: #000000; stroke-linejoin: miter"/>
     <use xlink:href="#m3a050ef63b" x="308.457404" y="289.247908" style="stroke: #000000; stroke-linejoin: miter"/>
     <use xlink:href="#m3a050ef63b" x="311.082699" y="267.236271" style="stroke: #000000; stroke-linejoin: miter"/>
     <use xlink:href="#m3a050ef63b" x="313.707995" y="224.059599" style="stroke: #000000; stroke-linejoin: miter"/>
     <use xlink:href="#m3a050ef63b" x="316.33329" y="187.655739" style="stroke: #000000; stroke-linejoin: miter"/>
     <use xlink:href="#m3a050ef63b" x="318.958586" y="159.294592" style="stroke: #000000; stroke-linejoin: miter"/>
     <use xlink:href="#m3a050ef63b" x="321.583881" y="134.31985" style="stroke: #000000; stroke-linejoin: miter"/>
    </g>
   </g>
   <g id="patch_3">
    <path d="M 90 338.4 
L 90 86.4 
" style="fill: none; stroke: #000000; stroke-width: 0.8; stroke-linejoin: miter; stroke-linecap: square"/>
   </g>
   <g id="patch_4">
    <path d="M 343.636364 338.4 
L 343.636364 86.4 
" style="fill: none; stroke: #000000; stroke-width: 0.8; stroke-linejoin: miter; stroke-linecap: square"/>
   </g>
   <g id="patch_5">
    <path d="M 90 338.4 
L 343.636364 338.4 
" style="fill: none; stroke: #000000; stroke-width: 0.8; stroke-linejoin: miter; stroke-linecap: square"/>
   </g>
   <g id="patch_6">
    <path d="M 90 86.4 
L 343.636364 86.4 
" style="fill: none; stroke: #000000; stroke-width: 0.8; stroke-linejoin: miter; stroke-linecap: square"/>
   </g>
   <g id="text_9">
    <!-- FDAMB102002.fm_dap20_uge -->
    <g transform="translate(111.391619 80.4) scale(0.14 -0.14)">
     <defs>
      <path id="DejaVuSans-46" d="M 628 4666 
L 3309 4666 
L 3309 4134 
L 1259 4134 
L 1259 2759 
L 3109 2759 
L 3109 2228 
L 1259 2228 
L 1259 0 
L 628 0 
L 628 4666 
z
" transform="scale(0.015625)"/>
      <path id="DejaVuSans-44" d="M 1259 4147 
L 1259 519 
L 2022 519 
Q 2988 519 3436 956 
Q 3884 1394 3884 2338 
Q 3884 3275 3436 3711 
Q 2988 4147 2022 4147 
L 1259 4147 
z
M 628 4666 
L 1925 4666 
Q 3281 4666 3915 4102 
Q 4550 3538 4550 2338 
Q 4550 1131 3912 565 
Q 3275 0 1925 0 
L 628 0 
L 628 4666 
z
" transform="scale(0.015625)"/>
      <path id="DejaVuSans-41" d="M 2188 4044 
L 1331 1722 
L 3047 1722 
L 2188 4044 
z
M 1831 4666 
L 2547 4666 
L 4325 0 
L 3669 0 
L 3244 1197 
L 1141 1197 
L 716 0 
L 50 0 
L 1831 4666 
z
" transform="scale(0.015625)"/>
      <path id="DejaVuSans-4d" d="M 628 4666 
L 1569 4666 
L 2759 1491 
L 3956 4666 
L 4897 4666 
L 4897 0 
L 4281 0 
L 4281 4097 
L 3078 897 
L 2444 897 
L 1241 4097 
L 1241 0 
L 628 0 
L 628 4666 
z
" transform="scale(0.015625)"/>
      <path id="DejaVuSans-42" d="M 1259 2228 
L 1259 519 
L 2272 519 
Q 2781 519 3026 730 
Q 3272 941 3272 1375 
Q 3272 1813 3026 2020 
Q 2781 2228 2272 2228 
L 1259 2228 
z
M 1259 4147 
L 1259 2741 
L 2194 2741 
Q 2656 2741 2882 2914 
Q 3109 3088 3109 3444 
Q 3109 3797 2882 3972 
Q 2656 4147 2194 4147 
L 1259 4147 
z
M 628 4666 
L 2241 4666 
Q 2963 4666 3353 4366 
Q 3744 4066 3744 3513 
Q 3744 3084 3544 2831 
Q 3344 2578 2956 2516 
Q 3422 2416 3680 2098 
Q 3938 1781 3938 1306 
Q 3938 681 3513 340 
Q 3088 0 2303 0 
L 628 0 
L 628 4666 
z
" transform="scale(0.015625)"/>
      <path id="DejaVuSans-2e" d="M 684 794 
L 1344 794 
L 1344 0 
L 684 0 
L 684 794 
z
" transform="scale(0.015625)"/>
      <path id="DejaVuSans-66" d="M 2375 4863 
L 2375 4384 
L 1825 4384 
Q 1516 4384 1395 4259 
Q 1275 4134 1275 3809 
L 1275 3500 
L 2222 3500 
L 2222 3053 
L 1275 3053 
L 1275 0 
L 697 0 
L 697 3053 
L 147 3053 
L 147 3500 
L 697 3500 
L 697 3744 
Q 697 4328 969 4595 
Q 1241 4863 1831 4863 
L 2375 4863 
z
" transform="scale(0.015625)"/>
      <path id="DejaVuSans-6d" d="M 3328 2828 
Q 3544 3216 3844 3400 
Q 4144 3584 4550 3584 
Q 5097 3584 5394 3201 
Q 5691 2819 5691 2113 
L 5691 0 
L 5113 0 
L 5113 2094 
Q 5113 2597 4934 2840 
Q 4756 3084 4391 3084 
Q 3944 3084 3684 2787 
Q 3425 2491 3425 1978 
L 3425 0 
L 2847 0 
L 2847 2094 
Q 2847 2600 2669 2842 
Q 2491 3084 2119 3084 
Q 1678 3084 1418 2786 
Q 1159 2488 1159 1978 
L 1159 0 
L 581 0 
L 581 3500 
L 1159 3500 
L 1159 2956 
Q 1356 3278 1631 3431 
Q 1906 3584 2284 3584 
Q 2666 3584 2933 3390 
Q 3200 3197 3328 2828 
z
" transform="scale(0.015625)"/>
      <path id="DejaVuSans-64" d="M 2906 2969 
L 2906 4863 
L 3481 4863 
L 3481 0 
L 2906 0 
L 2906 525 
Q 2725 213 2448 61 
Q 2172 -91 1784 -91 
Q 1150 -91 751 415 
Q 353 922 353 1747 
Q 353 2572 751 3078 
Q 1150 3584 1784 3584 
Q 2172 3584 2448 3432 
Q 2725 3281 2906 2969 
z
M 947 1747 
Q 947 1113 1208 752 
Q 1469 391 1925 391 
Q 2381 391 2643 752 
Q 2906 1113 2906 1747 
Q 2906 2381 2643 2742 
Q 2381 3103 1925 3103 
Q 1469 3103 1208 2742 
Q 947 2381 947 1747 
z
" transform="scale(0.015625)"/>
      <path id="DejaVuSans-61" d="M 2194 1759 
Q 1497 1759 1228 1600 
Q 959 1441 959 1056 
Q 959 750 1161 570 
Q 1363 391 1709 391 
Q 2188 391 2477 730 
Q 2766 1069 2766 1631 
L 2766 1759 
L 2194 1759 
z
M 3341 1997 
L 3341 0 
L 2766 0 
L 2766 531 
Q 2569 213 2275 61 
Q 1981 -91 1556 -91 
Q 1019 -91 701 211 
Q 384 513 384 1019 
Q 384 1609 779 1909 
Q 1175 2209 1959 2209 
L 2766 2209 
L 2766 2266 
Q 2766 2663 2505 2880 
Q 2244 3097 1772 3097 
Q 1472 3097 1187 3025 
Q 903 2953 641 2809 
L 641 3341 
Q 956 3463 1253 3523 
Q 1550 3584 1831 3584 
Q 2591 3584 2966 3190 
Q 3341 2797 3341 1997 
z
" transform="scale(0.015625)"/>
      <path id="DejaVuSans-70" d="M 1159 525 
L 1159 -1331 
L 581 -1331 
L 581 3500 
L 1159 3500 
L 1159 2969 
Q 1341 3281 1617 3432 
Q 1894 3584 2278 3584 
Q 2916 3584 3314 3078 
Q 3713 2572 3713 1747 
Q 3713 922 3314 415 
Q 2916 -91 2278 -91 
Q 1894 -91 1617 61 
Q 1341 213 1159 525 
z
M 3116 1747 
Q 3116 2381 2855 2742 
Q 2594 3103 2138 3103 
Q 1681 3103 1420 2742 
Q 1159 2381 1159 1747 
Q 1159 1113 1420 752 
Q 1681 391 2138 391 
Q 2594 391 2855 752 
Q 3116 1113 3116 1747 
z
" transform="scale(0.015625)"/>
      <path id="DejaVuSans-75" d="M 544 1381 
L 544 3500 
L 1119 3500 
L 1119 1403 
Q 1119 906 1312 657 
Q 1506 409 1894 409 
Q 2359 409 2629 706 
Q 2900 1003 2900 1516 
L 2900 3500 
L 3475 3500 
L 3475 0 
L 2900 0 
L 2900 538 
Q 2691 219 2414 64 
Q 2138 -91 1772 -91 
Q 1169 -91 856 284 
Q 544 659 544 1381 
z
M 1991 3584 
L 1991 3584 
z
" transform="scale(0.015625)"/>
      <path id="DejaVuSans-67" d="M 2906 1791 
Q 2906 2416 2648 2759 
Q 2391 3103 1925 3103 
Q 1463 3103 1205 2759 
Q 947 2416 947 1791 
Q 947 1169 1205 825 
Q 1463 481 1925 481 
Q 2391 481 2648 825 
Q 2906 1169 2906 1791 
z
M 3481 434 
Q 3481 -459 3084 -895 
Q 2688 -1331 1869 -1331 
Q 1566 -1331 1297 -1286 
Q 1028 -1241 775 -1147 
L 775 -588 
Q 1028 -725 1275 -790 
Q 1522 -856 1778 -856 
Q 2344 -856 2625 -561 
Q 2906 -266 2906 331 
L 2906 616 
Q 2728 306 2450 153 
Q 2172 0 1784 0 
Q 1141 0 747 490 
Q 353 981 353 1791 
Q 353 2603 747 3093 
Q 1141 3584 1784 3584 
Q 2172 3584 2450 3431 
Q 2728 3278 2906 2969 
L 2906 3500 
L 3481 3500 
L 3481 434 
z
" transform="scale(0.015625)"/>
      <path id="DejaVuSans-65" d="M 3597 1894 
L 3597 1613 
L 953 1613 
Q 991 1019 1311 708 
Q 1631 397 2203 397 
Q 2534 397 2845 478 
Q 3156 559 3463 722 
L 3463 178 
Q 3153 47 2828 -22 
Q 2503 -91 2169 -91 
Q 1331 -91 842 396 
Q 353 884 353 1716 
Q 353 2575 817 3079 
Q 1281 3584 2069 3584 
Q 2775 3584 3186 3129 
Q 3597 2675 3597 1894 
z
M 3022 2063 
Q 3016 2534 2758 2815 
Q 2500 3097 2075 3097 
Q 1594 3097 1305 2825 
Q 1016 2553 972 2059 
L 3022 2063 
z
" transform="scale(0.015625)"/>
     </defs>
     <use xlink:href="#DejaVuSans-46"/>
     <use xlink:href="#DejaVuSans-44" x="57.519531"/>
     <use xlink:href="#DejaVuSans-41" x="132.771484"/>
     <use xlink:href="#DejaVuSans-4d" x="201.179688"/>
     <use xlink:href="#DejaVuSans-42" x="287.458984"/>
     <use xlink:href="#DejaVuSans-31" x="356.0625"/>
     <use xlink:href="#DejaVuSans-30" x="419.685547"/>
     <use xlink:href="#DejaVuSans-32" x="483.308594"/>
     <use xlink:href="#DejaVuSans-30" x="546.931641"/>
     <use xlink:href="#DejaVuSans-30" x="610.554688"/>
     <use xlink:href="#DejaVuSans-32" x="674.177734"/>
     <use xlink:href="#DejaVuSans-2e" x="737.800781"/>
     <use xlink:href="#DejaVuSans-66" x="769.587891"/>
     <use xlink:href="#DejaVuSans-6d" x="804.792969"/>
     <use xlink:href="#DejaVuSans-5f" x="902.205078"/>
     <use xlink:href="#DejaVuSans-64" x="952.205078"/>
     <use xlink:href="#DejaVuSans-61" x="1015.681641"/>
     <use xlink:href="#DejaVuSans-70" x="1076.960938"/>
     <use xlink:href="#DejaVuSans-32" x="1140.4375"/>
     <use xlink:href="#DejaVuSans-30" x="1204.060547"/>
     <use xlink:href="#DejaVuSans-5f" x="1267.683594"/>
     <use xlink:href="#DejaVuSans-75" x="1317.683594"/>
     <use xlink:href="#DejaVuSans-67" x="1381.0625"/>
     <use xlink:href="#DejaVuSans-65" x="1444.539062"/>
    </g>
   </g>
   <g id="legend_1">
    <g id="patch_7">
     <path d="M 97 153.390625 
L 204.265625 153.390625 
Q 206.265625 153.390625 206.265625 151.390625 
L 206.265625 93.4 
Q 206.265625 91.4 204.265625 91.4 
L 97 91.4 
Q 95 91.4 95 93.4 
L 95 151.390625 
Q 95 153.390625 97 153.390625 
z
" style="fill: #ffffff; opacity: 0.8; stroke: #cccccc; stroke-linejoin: miter"/>
    </g>
    <g id="line2d_18">
     <g>
      <use xlink:href="#m2f47dc18b8" x="109" y="99.498438" style="fill: #ff8c00; stroke: #ff8c00"/>
     </g>
    </g>
    <g id="text_10">
     <!-- residuals -->
     <g transform="translate(127 102.998438) scale(0.1 -0.1)">
      <defs>
       <path id="DejaVuSans-72" d="M 2631 2963 
Q 2534 3019 2420 3045 
Q 2306 3072 2169 3072 
Q 1681 3072 1420 2755 
Q 1159 2438 1159 1844 
L 1159 0 
L 581 0 
L 581 3500 
L 1159 3500 
L 1159 2956 
Q 1341 3275 1631 3429 
Q 1922 3584 2338 3584 
Q 2397 3584 2469 3576 
Q 2541 3569 2628 3553 
L 2631 2963 
z
" transform="scale(0.015625)"/>
       <path id="DejaVuSans-73" d="M 2834 3397 
L 2834 2853 
Q 2591 2978 2328 3040 
Q 2066 3103 1784 3103 
Q 1356 3103 1142 2972 
Q 928 2841 928 2578 
Q 928 2378 1081 2264 
Q 1234 2150 1697 2047 
L 1894 2003 
Q 2506 1872 2764 1633 
Q 3022 1394 3022 966 
Q 3022 478 2636 193 
Q 2250 -91 1575 -91 
Q 1294 -91 989 -36 
Q 684 19 347 128 
L 347 722 
Q 666 556 975 473 
Q 1284 391 1588 391 
Q 1994 391 2212 530 
Q 2431 669 2431 922 
Q 2431 1156 2273 1281 
Q 2116 1406 1581 1522 
L 1381 1569 
Q 847 1681 609 1914 
Q 372 2147 372 2553 
Q 372 3047 722 3315 
Q 1072 3584 1716 3584 
Q 2034 3584 2315 3537 
Q 2597 3491 2834 3397 
z
" transform="scale(0.015625)"/>
       <path id="DejaVuSans-69" d="M 603 3500 
L 1178 3500 
L 1178 0 
L 603 0 
L 603 3500 
z
M 603 4863 
L 1178 4863 
L 1178 4134 
L 603 4134 
L 603 4863 
z
" transform="scale(0.015625)"/>
       <path id="DejaVuSans-6c" d="M 603 4863 
L 1178 4863 
L 1178 0 
L 603 0 
L 603 4863 
z
" transform="scale(0.015625)"/>
      </defs>
      <use xlink:href="#DejaVuSans-72"/>
      <use xlink:href="#DejaVuSans-65" x="38.863281"/>
      <use xlink:href="#DejaVuSans-73" x="100.386719"/>
      <use xlink:href="#DejaVuSans-69" x="152.486328"/>
      <use xlink:href="#DejaVuSans-64" x="180.269531"/>
      <use xlink:href="#DejaVuSans-75" x="243.746094"/>
      <use xlink:href="#DejaVuSans-61" x="307.125"/>
      <use xlink:href="#DejaVuSans-6c" x="368.404297"/>
      <use xlink:href="#DejaVuSans-73" x="396.1875"/>
     </g>
    </g>
    <g id="line2d_19">
     <path d="M 99 114.176563 
L 109 114.176563 
L 119 114.176563 
" style="fill: none; stroke: #0000ff; stroke-width: 1.5; stroke-linecap: square"/>
    </g>
    <g id="text_11">
     <!-- observable -->
     <g transform="translate(127 117.676563) scale(0.1 -0.1)">
      <defs>
       <path id="DejaVuSans-6f" d="M 1959 3097 
Q 1497 3097 1228 2736 
Q 959 2375 959 1747 
Q 959 1119 1226 758 
Q 1494 397 1959 397 
Q 2419 397 2687 759 
Q 2956 1122 2956 1747 
Q 2956 2369 2687 2733 
Q 2419 3097 1959 3097 
z
M 1959 3584 
Q 2709 3584 3137 3096 
Q 3566 2609 3566 1747 
Q 3566 888 3137 398 
Q 2709 -91 1959 -91 
Q 1206 -91 779 398 
Q 353 888 353 1747 
Q 353 2609 779 3096 
Q 1206 3584 1959 3584 
z
" transform="scale(0.015625)"/>
       <path id="DejaVuSans-62" d="M 3116 1747 
Q 3116 2381 2855 2742 
Q 2594 3103 2138 3103 
Q 1681 3103 1420 2742 
Q 1159 2381 1159 1747 
Q 1159 1113 1420 752 
Q 1681 391 2138 391 
Q 2594 391 2855 752 
Q 3116 1113 3116 1747 
z
M 1159 2969 
Q 1341 3281 1617 3432 
Q 1894 3584 2278 3584 
Q 2916 3584 3314 3078 
Q 3713 2572 3713 1747 
Q 3713 922 3314 415 
Q 2916 -91 2278 -91 
Q 1894 -91 1617 61 
Q 1341 213 1159 525 
L 1159 0 
L 581 0 
L 581 4863 
L 1159 4863 
L 1159 2969 
z
" transform="scale(0.015625)"/>
       <path id="DejaVuSans-76" d="M 191 3500 
L 800 3500 
L 1894 563 
L 2988 3500 
L 3597 3500 
L 2284 0 
L 1503 0 
L 191 3500 
z
" transform="scale(0.015625)"/>
      </defs>
      <use xlink:href="#DejaVuSans-6f"/>
      <use xlink:href="#DejaVuSans-62" x="61.181641"/>
      <use xlink:href="#DejaVuSans-73" x="124.658203"/>
      <use xlink:href="#DejaVuSans-65" x="176.757812"/>
      <use xlink:href="#DejaVuSans-72" x="238.28125"/>
      <use xlink:href="#DejaVuSans-76" x="279.394531"/>
      <use xlink:href="#DejaVuSans-61" x="338.574219"/>
      <use xlink:href="#DejaVuSans-62" x="399.853516"/>
      <use xlink:href="#DejaVuSans-6c" x="463.330078"/>
      <use xlink:href="#DejaVuSans-65" x="491.113281"/>
     </g>
    </g>
    <g id="line2d_20">
     <g>
      <use xlink:href="#m4f14c6731d" x="109" y="128.854688" style="fill: #0000ff; stroke: #0000ff"/>
     </g>
    </g>
    <g id="text_12">
     <!-- interpolation -->
     <g transform="translate(127 132.354688) scale(0.1 -0.1)">
      <defs>
       <path id="DejaVuSans-6e" d="M 3513 2113 
L 3513 0 
L 2938 0 
L 2938 2094 
Q 2938 2591 2744 2837 
Q 2550 3084 2163 3084 
Q 1697 3084 1428 2787 
Q 1159 2491 1159 1978 
L 1159 0 
L 581 0 
L 581 3500 
L 1159 3500 
L 1159 2956 
Q 1366 3272 1645 3428 
Q 1925 3584 2291 3584 
Q 2894 3584 3203 3211 
Q 3513 2838 3513 2113 
z
" transform="scale(0.015625)"/>
       <path id="DejaVuSans-74" d="M 1172 4494 
L 1172 3500 
L 2356 3500 
L 2356 3053 
L 1172 3053 
L 1172 1153 
Q 1172 725 1289 603 
Q 1406 481 1766 481 
L 2356 481 
L 2356 0 
L 1766 0 
Q 1100 0 847 248 
Q 594 497 594 1153 
L 594 3053 
L 172 3053 
L 172 3500 
L 594 3500 
L 594 4494 
L 1172 4494 
z
" transform="scale(0.015625)"/>
      </defs>
      <use xlink:href="#DejaVuSans-69"/>
      <use xlink:href="#DejaVuSans-6e" x="27.783203"/>
      <use xlink:href="#DejaVuSans-74" x="91.162109"/>
      <use xlink:href="#DejaVuSans-65" x="130.371094"/>
      <use xlink:href="#DejaVuSans-72" x="191.894531"/>
      <use xlink:href="#DejaVuSans-70" x="233.007812"/>
      <use xlink:href="#DejaVuSans-6f" x="296.484375"/>
      <use xlink:href="#DejaVuSans-6c" x="357.666016"/>
      <use xlink:href="#DejaVuSans-61" x="385.449219"/>
      <use xlink:href="#DejaVuSans-74" x="446.728516"/>
      <use xlink:href="#DejaVuSans-69" x="485.9375"/>
      <use xlink:href="#DejaVuSans-6f" x="513.720703"/>
      <use xlink:href="#DejaVuSans-6e" x="574.902344"/>
     </g>
    </g>
    <g id="line2d_21">
     <g>
      <use xlink:href="#m3a050ef63b" x="109" y="143.532812" style="stroke: #000000; stroke-linejoin: miter"/>
     </g>
    </g>
    <g id="text_13">
     <!-- reference_data -->
     <g transform="translate(127 147.032812) scale(0.1 -0.1)">
      <defs>
       <path id="DejaVuSans-63" d="M 3122 3366 
L 3122 2828 
Q 2878 2963 2633 3030 
Q 2388 3097 2138 3097 
Q 1578 3097 1268 2742 
Q 959 2388 959 1747 
Q 959 1106 1268 751 
Q 1578 397 2138 397 
Q 2388 397 2633 464 
Q 2878 531 3122 666 
L 3122 134 
Q 2881 22 2623 -34 
Q 2366 -91 2075 -91 
Q 1284 -91 818 406 
Q 353 903 353 1747 
Q 353 2603 823 3093 
Q 1294 3584 2113 3584 
Q 2378 3584 2631 3529 
Q 2884 3475 3122 3366 
z
" transform="scale(0.015625)"/>
      </defs>
      <use xlink:href="#DejaVuSans-72"/>
      <use xlink:href="#DejaVuSans-65" x="38.863281"/>
      <use xlink:href="#DejaVuSans-66" x="100.386719"/>
      <use xlink:href="#DejaVuSans-65" x="135.591797"/>
      <use xlink:href="#DejaVuSans-72" x="197.115234"/>
      <use xlink:href="#DejaVuSans-65" x="235.978516"/>
      <use xlink:href="#DejaVuSans-6e" x="297.501953"/>
      <use xlink:href="#DejaVuSans-63" x="360.880859"/>
      <use xlink:href="#DejaVuSans-65" x="415.861328"/>
      <use xlink:href="#DejaVuSans-5f" x="477.384766"/>
      <use xlink:href="#DejaVuSans-64" x="527.384766"/>
      <use xlink:href="#DejaVuSans-61" x="590.861328"/>
      <use xlink:href="#DejaVuSans-74" x="652.140625"/>
      <use xlink:href="#DejaVuSans-61" x="691.349609"/>
     </g>
    </g>
   </g>
  </g>
  <g id="axes_2">
   <g id="patch_8">
    <path d="M 394.363636 338.4 
L 648 338.4 
L 648 86.4 
L 394.363636 86.4 
z
" style="fill: #ffffff"/>
   </g>
   <g id="PolyCollection_2">
    <path d="M 408.047989 15531.374512 
L 408.047989 137.657707 
L 410.673285 145.84988 
L 413.29858 15531.374512 
L 415.923876 15531.374512 
L 418.549171 15531.374512 
L 421.174467 15531.374512 
L 612.82104 140.821833 
L 615.446336 134.928481 
L 618.071631 137.661329 
L 620.696927 138.81847 
L 623.322222 136.854865 
L 625.947518 134.52068 
L 625.947518 15531.374512 
L 625.947518 15531.374512 
L 623.322222 15531.374512 
L 620.696927 15531.374512 
L 618.071631 15531.374512 
L 615.446336 15531.374512 
L 612.82104 15531.374512 
L 421.174467 15531.374512 
L 418.549171 15531.374512 
L 415.923876 15531.374512 
L 413.29858 15531.374512 
L 410.673285 15531.374512 
L 408.047989 15531.374512 
z
" clip-path="url(#p6481b037a6)" style="fill: #ff8c00; fill-opacity: 0.4; stroke: #ff8c00; stroke-opacity: 0.4"/>
   </g>
   <g id="matplotlib.axis_3">
    <g id="xtick_6">
     <g id="line2d_22">
      <g>
       <use xlink:href="#m2c77ea4357" x="405.422694" y="338.4" style="stroke: #000000; stroke-width: 0.8"/>
      </g>
     </g>
    </g>
    <g id="xtick_7">
     <g id="line2d_23">
      <g>
       <use xlink:href="#m2c77ea4357" x="460.11635" y="338.4" style="stroke: #000000; stroke-width: 0.8"/>
      </g>
     </g>
    </g>
    <g id="xtick_8">
     <g id="line2d_24">
      <g>
       <use xlink:href="#m2c77ea4357" x="514.810007" y="338.4" style="stroke: #000000; stroke-width: 0.8"/>
      </g>
     </g>
    </g>
    <g id="xtick_9">
     <g id="line2d_25">
      <g>
       <use xlink:href="#m2c77ea4357" x="569.503664" y="338.4" style="stroke: #000000; stroke-width: 0.8"/>
      </g>
     </g>
    </g>
    <g id="xtick_10">
     <g id="line2d_26">
      <g>
       <use xlink:href="#m2c77ea4357" x="624.197321" y="338.4" style="stroke: #000000; stroke-width: 0.8"/>
      </g>
     </g>
    </g>
   </g>
   <g id="matplotlib.axis_4">
    <g id="ytick_8">
     <g id="line2d_27">
      <g>
       <use xlink:href="#mbd43e92bc6" x="394.363636" y="309.962587" style="stroke: #000000; stroke-width: 0.8"/>
      </g>
     </g>
     <g id="text_14">
      <!-- $\mathdefault{10^{-12}}$ -->
      <g transform="translate(359.463636 313.761806) scale(0.1 -0.1)">
       <defs>
        <path id="DejaVuSans-2212" d="M 678 2272 
L 4684 2272 
L 4684 1741 
L 678 1741 
L 678 2272 
z
" transform="scale(0.015625)"/>
       </defs>
       <use xlink:href="#DejaVuSans-31" transform="translate(0 0.765625)"/>
       <use xlink:href="#DejaVuSans-30" transform="translate(63.623047 0.765625)"/>
       <use xlink:href="#DejaVuSans-2212" transform="translate(128.203125 39.046875) scale(0.7)"/>
       <use xlink:href="#DejaVuSans-31" transform="translate(186.855469 39.046875) scale(0.7)"/>
       <use xlink:href="#DejaVuSans-32" transform="translate(231.391602 39.046875) scale(0.7)"/>
      </g>
     </g>
    </g>
    <g id="ytick_9">
     <g id="line2d_28">
      <g>
       <use xlink:href="#mbd43e92bc6" x="394.363636" y="279.150012" style="stroke: #000000; stroke-width: 0.8"/>
      </g>
     </g>
     <g id="text_15">
      <!-- $\mathdefault{10^{-10}}$ -->
      <g transform="translate(359.463636 282.949231) scale(0.1 -0.1)">
       <use xlink:href="#DejaVuSans-31" transform="translate(0 0.765625)"/>
       <use xlink:href="#DejaVuSans-30" transform="translate(63.623047 0.765625)"/>
       <use xlink:href="#DejaVuSans-2212" transform="translate(128.203125 39.046875) scale(0.7)"/>
       <use xlink:href="#DejaVuSans-31" transform="translate(186.855469 39.046875) scale(0.7)"/>
       <use xlink:href="#DejaVuSans-30" transform="translate(231.391602 39.046875) scale(0.7)"/>
      </g>
     </g>
    </g>
    <g id="ytick_10">
     <g id="line2d_29">
      <g>
       <use xlink:href="#mbd43e92bc6" x="394.363636" y="248.337438" style="stroke: #000000; stroke-width: 0.8"/>
      </g>
     </g>
     <g id="text_16">
      <!-- $\mathdefault{10^{-8}}$ -->
      <g transform="translate(363.863636 252.136656) scale(0.1 -0.1)">
       <defs>
        <path id="DejaVuSans-38" d="M 2034 2216 
Q 1584 2216 1326 1975 
Q 1069 1734 1069 1313 
Q 1069 891 1326 650 
Q 1584 409 2034 409 
Q 2484 409 2743 651 
Q 3003 894 3003 1313 
Q 3003 1734 2745 1975 
Q 2488 2216 2034 2216 
z
M 1403 2484 
Q 997 2584 770 2862 
Q 544 3141 544 3541 
Q 544 4100 942 4425 
Q 1341 4750 2034 4750 
Q 2731 4750 3128 4425 
Q 3525 4100 3525 3541 
Q 3525 3141 3298 2862 
Q 3072 2584 2669 2484 
Q 3125 2378 3379 2068 
Q 3634 1759 3634 1313 
Q 3634 634 3220 271 
Q 2806 -91 2034 -91 
Q 1263 -91 848 271 
Q 434 634 434 1313 
Q 434 1759 690 2068 
Q 947 2378 1403 2484 
z
M 1172 3481 
Q 1172 3119 1398 2916 
Q 1625 2713 2034 2713 
Q 2441 2713 2670 2916 
Q 2900 3119 2900 3481 
Q 2900 3844 2670 4047 
Q 2441 4250 2034 4250 
Q 1625 4250 1398 4047 
Q 1172 3844 1172 3481 
z
" transform="scale(0.015625)"/>
       </defs>
       <use xlink:href="#DejaVuSans-31" transform="translate(0 0.765625)"/>
       <use xlink:href="#DejaVuSans-30" transform="translate(63.623047 0.765625)"/>
       <use xlink:href="#DejaVuSans-2212" transform="translate(128.203125 39.046875) scale(0.7)"/>
       <use xlink:href="#DejaVuSans-38" transform="translate(186.855469 39.046875) scale(0.7)"/>
      </g>
     </g>
    </g>
    <g id="ytick_11">
     <g id="line2d_30">
      <g>
       <use xlink:href="#mbd43e92bc6" x="394.363636" y="217.524863" style="stroke: #000000; stroke-width: 0.8"/>
      </g>
     </g>
     <g id="text_17">
      <!-- $\mathdefault{10^{-6}}$ -->
      <g transform="translate(363.863636 221.324082) scale(0.1 -0.1)">
       <use xlink:href="#DejaVuSans-31" transform="translate(0 0.765625)"/>
       <use xlink:href="#DejaVuSans-30" transform="translate(63.623047 0.765625)"/>
       <use xlink:href="#DejaVuSans-2212" transform="translate(128.203125 39.046875) scale(0.7)"/>
       <use xlink:href="#DejaVuSans-36" transform="translate(186.855469 39.046875) scale(0.7)"/>
      </g>
     </g>
    </g>
    <g id="ytick_12">
     <g id="line2d_31">
      <g>
       <use xlink:href="#mbd43e92bc6" x="394.363636" y="186.712288" style="stroke: #000000; stroke-width: 0.8"/>
      </g>
     </g>
     <g id="text_18">
      <!-- $\mathdefault{10^{-4}}$ -->
      <g transform="translate(363.863636 190.511507) scale(0.1 -0.1)">
       <use xlink:href="#DejaVuSans-31" transform="translate(0 0.684375)"/>
       <use xlink:href="#DejaVuSans-30" transform="translate(63.623047 0.684375)"/>
       <use xlink:href="#DejaVuSans-2212" transform="translate(128.203125 38.965625) scale(0.7)"/>
       <use xlink:href="#DejaVuSans-34" transform="translate(186.855469 38.965625) scale(0.7)"/>
      </g>
     </g>
    </g>
    <g id="ytick_13">
     <g id="line2d_32">
      <g>
       <use xlink:href="#mbd43e92bc6" x="394.363636" y="155.899713" style="stroke: #000000; stroke-width: 0.8"/>
      </g>
     </g>
     <g id="text_19">
      <!-- $\mathdefault{10^{-2}}$ -->
      <g transform="translate(363.863636 159.698932) scale(0.1 -0.1)">
       <use xlink:href="#DejaVuSans-31" transform="translate(0 0.765625)"/>
       <use xlink:href="#DejaVuSans-30" transform="translate(63.623047 0.765625)"/>
       <use xlink:href="#DejaVuSans-2212" transform="translate(128.203125 39.046875) scale(0.7)"/>
       <use xlink:href="#DejaVuSans-32" transform="translate(186.855469 39.046875) scale(0.7)"/>
      </g>
     </g>
    </g>
    <g id="ytick_14">
     <g id="line2d_33">
      <g>
       <use xlink:href="#mbd43e92bc6" x="394.363636" y="125.087139" style="stroke: #000000; stroke-width: 0.8"/>
      </g>
     </g>
     <g id="text_20">
      <!-- $\mathdefault{10^{0}}$ -->
      <g transform="translate(369.763636 128.886357) scale(0.1 -0.1)">
       <use xlink:href="#DejaVuSans-31" transform="translate(0 0.765625)"/>
       <use xlink:href="#DejaVuSans-30" transform="translate(63.623047 0.765625)"/>
       <use xlink:href="#DejaVuSans-30" transform="translate(128.203125 39.046875) scale(0.7)"/>
      </g>
     </g>
    </g>
    <g id="ytick_15">
     <g id="line2d_34">
      <g>
       <use xlink:href="#mbd43e92bc6" x="394.363636" y="94.274564" style="stroke: #000000; stroke-width: 0.8"/>
      </g>
     </g>
     <g id="text_21">
      <!-- $\mathdefault{10^{2}}$ -->
      <g transform="translate(369.763636 98.073783) scale(0.1 -0.1)">
       <use xlink:href="#DejaVuSans-31" transform="translate(0 0.765625)"/>
       <use xlink:href="#DejaVuSans-30" transform="translate(63.623047 0.765625)"/>
       <use xlink:href="#DejaVuSans-32" transform="translate(128.203125 39.046875) scale(0.7)"/>
      </g>
     </g>
    </g>
   </g>
   <g id="line2d_35">
    <g clip-path="url(#p6481b037a6)">
     <use xlink:href="#m2f47dc18b8" x="408.047989" y="137.657707" style="fill: #ff8c00; stroke: #ff8c00"/>
     <use xlink:href="#m2f47dc18b8" x="410.673285" y="145.84988" style="fill: #ff8c00; stroke: #ff8c00"/>
     <use xlink:href="#m2f47dc18b8" x="413.29858" y="15531.374512" style="fill: #ff8c00; stroke: #ff8c00"/>
     <use xlink:href="#m2f47dc18b8" x="415.923876" y="15531.374512" style="fill: #ff8c00; stroke: #ff8c00"/>
     <use xlink:href="#m2f47dc18b8" x="418.549171" y="15531.374512" style="fill: #ff8c00; stroke: #ff8c00"/>
     <use xlink:href="#m2f47dc18b8" x="421.174467" y="15531.374512" style="fill: #ff8c00; stroke: #ff8c00"/>
     <use xlink:href="#m2f47dc18b8" x="612.82104" y="140.821833" style="fill: #ff8c00; stroke: #ff8c00"/>
     <use xlink:href="#m2f47dc18b8" x="615.446336" y="134.928481" style="fill: #ff8c00; stroke: #ff8c00"/>
     <use xlink:href="#m2f47dc18b8" x="618.071631" y="137.661329" style="fill: #ff8c00; stroke: #ff8c00"/>
     <use xlink:href="#m2f47dc18b8" x="620.696927" y="138.81847" style="fill: #ff8c00; stroke: #ff8c00"/>
     <use xlink:href="#m2f47dc18b8" x="623.322222" y="136.854865" style="fill: #ff8c00; stroke: #ff8c00"/>
     <use xlink:href="#m2f47dc18b8" x="625.947518" y="134.52068" style="fill: #ff8c00; stroke: #ff8c00"/>
    </g>
   </g>
   <g id="line2d_36">
    <path d="M 405.454692 721 
L 405.559815 132.508206 
L 405.780808 123.582819 
L 406.120169 118.44928 
L 406.581879 114.794847 
L 407.146113 112.048695 
L 407.777455 109.958162 
L 408.506233 108.234316 
L 409.326108 106.853241 
L 410.145983 105.908039 
L 410.965858 105.311869 
L 411.785733 104.983204 
L 412.787802 104.818333 
L 414.700844 104.792319 
L 421.174467 104.792318 
L 421.174467 721 
M 421.190973 721 
L 421.300083 132.805531 
L 421.519532 123.705643 
L 421.853425 118.563831 
L 422.296976 114.971161 
L 422.876096 112.100715 
L 423.502159 110.004885 
L 424.273107 108.171253 
L 425.129717 106.724532 
L 425.986326 105.704778 
L 426.930222 104.928419 
L 428.065836 104.292128 
L 429.773379 103.617475 
L 432.786689 102.701518 
L 436.92624 101.675629 
L 436.92624 721 
M 436.92624 721 
L 437.030984 133.586531 
L 437.242159 124.129106 
L 437.573223 118.78891 
L 438.003863 115.182083 
L 438.563712 112.31146 
L 439.236535 110.014866 
L 439.943027 108.299915 
L 440.750645 106.863875 
L 441.659216 105.692945 
L 442.668739 104.756248 
L 443.981118 103.865134 
L 445.899211 102.866147 
L 448.624923 101.719262 
L 451.956348 100.566097 
L 452.678013 100.343193 
L 452.678013 721 
M 452.678013 721 
L 452.78465 132.785374 
L 453.013234 123.512344 
L 453.347925 118.463361 
L 453.812798 114.779169 
L 454.378195 112.026682 
L 455.049174 109.819314 
L 455.825525 108.008456 
L 456.679511 106.563402 
L 457.611132 105.406458 
L 458.698023 104.401149 
L 460.173089 103.35719 
L 462.191601 102.218587 
L 464.753559 101.033226 
L 467.858962 99.846421 
L 468.429786 99.650982 
L 468.429786 721 
M 468.429786 721 
L 468.536638 132.392492 
L 468.768973 123.323685 
L 469.091498 118.501356 
L 469.525161 114.992744 
L 470.083792 112.190965 
L 470.739136 109.974397 
L 471.512215 108.119418 
L 472.321092 106.696634 
L 473.271846 105.45123 
L 474.433877 104.311779 
L 475.912826 103.190812 
L 477.919972 101.970506 
L 480.349674 100.760055 
L 483.307573 99.54369 
L 484.181559 99.224944 
L 484.181559 721 
M 484.181559 721 
L 484.291192 131.934788 
L 484.516883 123.337291 
L 484.844853 118.449467 
L 485.297914 114.84128 
L 485.841045 112.153461 
L 486.479663 109.993147 
L 487.249758 108.133388 
L 488.10542 106.623836 
L 489.132214 105.28516 
L 490.330141 104.107719 
L 491.870332 102.920554 
L 493.838355 101.692937 
L 496.234208 100.464466 
L 499.143458 99.233668 
L 499.933333 98.93677 
L 499.933333 721 
M 499.933333 721 
L 500.043528 131.719126 
L 500.271358 123.225964 
L 500.617633 118.205269 
L 501.068427 114.711583 
L 501.640744 111.951088 
L 502.322015 109.73011 
L 503.078983 107.964112 
L 503.987344 106.409449 
L 505.047098 105.065868 
L 506.333943 103.824031 
L 507.923575 102.608917 
L 509.967388 101.3389 
L 512.389684 100.10224 
L 515.228729 98.902552 
L 515.685106 98.729019 
L 515.685106 721 
M 515.685106 721 
L 515.787501 132.156009 
L 516.015604 123.348393 
L 516.348785 118.398688 
L 516.809238 114.765376 
L 517.373647 112.016284 
L 518.045892 109.79837 
L 518.82387 107.967463 
L 519.757443 106.364974 
L 520.768814 105.067353 
L 522.013578 103.832032 
L 523.569533 102.601334 
L 525.514478 101.34739 
L 527.848411 100.108617 
L 530.64913 98.880165 
L 531.436879 98.57298 
L 531.436879 721 
M 531.436879 721 
L 531.541734 131.864816 
L 531.763974 123.389897 
L 532.091548 118.477402 
L 532.527622 114.96074 
L 533.073131 112.21926 
L 533.748132 109.930045 
L 534.551245 108.00795 
L 535.427368 106.472661 
L 536.449511 105.122521 
L 537.690686 103.855452 
L 539.296912 102.554226 
L 541.268189 101.260975 
L 543.605359 100.003094 
L 546.344998 98.784597 
L 547.188652 98.451302 
L 547.188652 721 
M 547.188652 721 
L 547.293499 131.779417 
L 547.521966 123.227414 
L 547.870547 118.180841 
L 548.338811 114.591311 
L 548.90454 111.895167 
L 549.544816 109.798234 
L 550.372358 107.861172 
L 551.29185 106.291535 
L 552.39524 104.879326 
L 553.682528 103.603129 
L 555.337612 102.291908 
L 557.360494 100.990529 
L 559.751172 99.728419 
L 562.601595 98.486989 
L 562.940425 98.354057 
L 562.940425 721 
M 562.940425 721 
L 563.04711 131.579303 
L 563.278429 123.105325 
L 563.635048 118.041849 
L 564.097497 114.543773 
L 564.668738 111.841757 
L 565.341123 109.670826 
L 566.114942 107.872766 
L 566.985487 106.367136 
L 568.049488 104.970447 
L 569.306943 103.6862 
L 570.854579 102.41768 
L 572.789125 101.124881 
L 575.11058 99.851893 
L 577.818945 98.625678 
L 578.692198 98.274984 
L 578.692198 721 
M 578.692198 721 
L 578.798995 131.514828 
L 579.022689 123.247448 
L 579.349793 118.411965 
L 579.784521 114.929182 
L 580.363298 112.062068 
L 581.064398 109.744465 
L 581.835608 107.92945 
L 582.747339 106.34258 
L 583.79949 104.956183 
L 585.062072 103.657155 
L 586.640299 102.355724 
L 588.534172 101.082105 
L 590.848905 99.802983 
L 593.584498 98.557008 
L 594.443971 98.21012 
L 594.443971 721 
M 594.443971 721 
L 594.550267 131.502134 
L 594.778841 123.137905 
L 595.121094 118.201477 
L 595.591833 114.587325 
L 596.168159 111.849414 
L 596.865636 109.605851 
L 597.673848 107.752378 
L 598.562881 106.238836 
L 599.681656 104.792125 
L 601.031551 103.436621 
L 602.684916 102.108833 
L 604.648287 100.823774 
L 607.024999 99.545634 
L 609.815053 98.307835 
L 610.195744 98.155799 
L 610.195744 721 
M 610.195744 721 
L 610.305902 131.198645 
L 610.543256 122.861393 
L 610.901025 117.913485 
L 611.369005 114.434699 
L 611.959922 111.693232 
L 612.681866 109.431155 
L 613.484026 107.634309 
L 614.446618 106.038327 
L 615.569642 104.625916 
L 616.933314 103.282505 
L 618.61785 101.95012 
L 620.623249 100.656949 
L 623.029729 99.381883 
L 625.837289 98.153324 
L 626.603841 97.854545 
L 626.603841 97.854545 
" clip-path="url(#p6481b037a6)" style="fill: none; stroke: #0000ff; stroke-width: 1.5; stroke-linecap: square"/>
   </g>
   <g id="line2d_37">
    <g clip-path="url(#p6481b037a6)">
     <use xlink:href="#m4f14c6731d" x="408.047989" y="109.250636" style="fill: #0000ff; stroke: #0000ff"/>
     <use xlink:href="#m4f14c6731d" x="410.673285" y="105.489702" style="fill: #0000ff; stroke: #0000ff"/>
     <use xlink:href="#m4f14c6731d" x="413.29858" y="104.79464" style="fill: #0000ff; stroke: #0000ff"/>
     <use xlink:href="#m4f14c6731d" x="415.923876" y="104.792318" style="fill: #0000ff; stroke: #0000ff"/>
     <use xlink:href="#m4f14c6731d" x="418.549171" y="104.792318" style="fill: #0000ff; stroke: #0000ff"/>
     <use xlink:href="#m4f14c6731d" x="421.174467" y="15531.374512" style="fill: #0000ff; stroke: #0000ff"/>
     <use xlink:href="#m4f14c6731d" x="612.82104" y="109.07722" style="fill: #0000ff; stroke: #0000ff"/>
     <use xlink:href="#m4f14c6731d" x="615.446336" y="104.764416" style="fill: #0000ff; stroke: #0000ff"/>
     <use xlink:href="#m4f14c6731d" x="618.071631" y="102.352204" style="fill: #0000ff; stroke: #0000ff"/>
     <use xlink:href="#m4f14c6731d" x="620.696927" y="100.613992" style="fill: #0000ff; stroke: #0000ff"/>
     <use xlink:href="#m4f14c6731d" x="623.322222" y="99.242561" style="fill: #0000ff; stroke: #0000ff"/>
     <use xlink:href="#m4f14c6731d" x="625.947518" y="98.109507" style="fill: #0000ff; stroke: #0000ff"/>
    </g>
   </g>
   <g id="line2d_38">
    <g clip-path="url(#p6481b037a6)">
     <use xlink:href="#m3a050ef63b" x="408.047989" y="113.085838" style="stroke: #000000; stroke-linejoin: miter"/>
     <use xlink:href="#m3a050ef63b" x="410.673285" y="105.997591" style="stroke: #000000; stroke-linejoin: miter"/>
     <use xlink:href="#m3a050ef63b" x="413.29858" y="103.196056" style="stroke: #000000; stroke-linejoin: miter"/>
     <use xlink:href="#m3a050ef63b" x="415.923876" y="101.054662" style="stroke: #000000; stroke-linejoin: miter"/>
     <use xlink:href="#m3a050ef63b" x="418.549171" y="99.172574" style="stroke: #000000; stroke-linejoin: miter"/>
     <use xlink:href="#m3a050ef63b" x="421.174467" y="97.915261" style="stroke: #000000; stroke-linejoin: miter"/>
     <use xlink:href="#m3a050ef63b" x="612.82104" y="111.1366" style="stroke: #000000; stroke-linejoin: miter"/>
     <use xlink:href="#m3a050ef63b" x="615.446336" y="107.499342" style="stroke: #000000; stroke-linejoin: miter"/>
     <use xlink:href="#m3a050ef63b" x="618.071631" y="103.483127" style="stroke: #000000; stroke-linejoin: miter"/>
     <use xlink:href="#m3a050ef63b" x="620.696927" y="101.325536" style="stroke: #000000; stroke-linejoin: miter"/>
     <use xlink:href="#m3a050ef63b" x="623.322222" y="100.023941" style="stroke: #000000; stroke-linejoin: miter"/>
     <use xlink:href="#m3a050ef63b" x="625.947518" y="99.055889" style="stroke: #000000; stroke-linejoin: miter"/>
    </g>
   </g>
   <g id="patch_9">
    <path d="M 394.363636 338.4 
L 394.363636 86.4 
" style="fill: none; stroke: #000000; stroke-width: 0.8; stroke-linejoin: miter; stroke-linecap: square"/>
   </g>
   <g id="patch_10">
    <path d="M 648 338.4 
L 648 86.4 
" style="fill: none; stroke: #000000; stroke-width: 0.8; stroke-linejoin: miter; stroke-linecap: square"/>
   </g>
   <g id="patch_11">
    <path d="M 394.363636 338.4 
L 648 338.4 
" style="fill: none; stroke: #000000; stroke-width: 0.8; stroke-linejoin: miter; stroke-linecap: square"/>
   </g>
   <g id="patch_12">
    <path d="M 394.363636 86.4 
L 648 86.4 
" style="fill: none; stroke: #000000; stroke-width: 0.8; stroke-linejoin: miter; stroke-linecap: square"/>
   </g>
   <g id="text_22">
    <!-- FDAMB102002.fm_dap20_uge -->
    <g transform="translate(415.755256 80.4) scale(0.14 -0.14)">
     <use xlink:href="#DejaVuSans-46"/>
     <use xlink:href="#DejaVuSans-44" x="57.519531"/>
     <use xlink:href="#DejaVuSans-41" x="132.771484"/>
     <use xlink:href="#DejaVuSans-4d" x="201.179688"/>
     <use xlink:href="#DejaVuSans-42" x="287.458984"/>
     <use xlink:href="#DejaVuSans-31" x="356.0625"/>
     <use xlink:href="#DejaVuSans-30" x="419.685547"/>
     <use xlink:href="#DejaVuSans-32" x="483.308594"/>
     <use xlink:href="#DejaVuSans-30" x="546.931641"/>
     <use xlink:href="#DejaVuSans-30" x="610.554688"/>
     <use xlink:href="#DejaVuSans-32" x="674.177734"/>
     <use xlink:href="#DejaVuSans-2e" x="737.800781"/>
     <use xlink:href="#DejaVuSans-66" x="769.587891"/>
     <use xlink:href="#DejaVuSans-6d" x="804.792969"/>
     <use xlink:href="#DejaVuSans-5f" x="902.205078"/>
     <use xlink:href="#DejaVuSans-64" x="952.205078"/>
     <use xlink:href="#DejaVuSans-61" x="1015.681641"/>
     <use xlink:href="#DejaVuSans-70" x="1076.960938"/>
     <use xlink:href="#DejaVuSans-32" x="1140.4375"/>
     <use xlink:href="#DejaVuSans-30" x="1204.060547"/>
     <use xlink:href="#DejaVuSans-5f" x="1267.683594"/>
     <use xlink:href="#DejaVuSans-75" x="1317.683594"/>
     <use xlink:href="#DejaVuSans-67" x="1381.0625"/>
     <use xlink:href="#DejaVuSans-65" x="1444.539062"/>
    </g>
   </g>
   <g id="legend_2">
    <g id="patch_13">
     <path d="M 467.549006 333.4 
L 574.814631 333.4 
Q 576.814631 333.4 576.814631 331.4 
L 576.814631 273.409375 
Q 576.814631 271.409375 574.814631 271.409375 
L 467.549006 271.409375 
Q 465.549006 271.409375 465.549006 273.409375 
L 465.549006 331.4 
Q 465.549006 333.4 467.549006 333.4 
z
" style="fill: #ffffff; opacity: 0.8; stroke: #cccccc; stroke-linejoin: miter"/>
    </g>
    <g id="line2d_39">
     <g>
      <use xlink:href="#m2f47dc18b8" x="479.549006" y="279.507812" style="fill: #ff8c00; stroke: #ff8c00"/>
     </g>
    </g>
    <g id="text_23">
     <!-- residuals -->
     <g transform="translate(497.549006 283.007812) scale(0.1 -0.1)">
      <use xlink:href="#DejaVuSans-72"/>
      <use xlink:href="#DejaVuSans-65" x="38.863281"/>
      <use xlink:href="#DejaVuSans-73" x="100.386719"/>
      <use xlink:href="#DejaVuSans-69" x="152.486328"/>
      <use xlink:href="#DejaVuSans-64" x="180.269531"/>
      <use xlink:href="#DejaVuSans-75" x="243.746094"/>
      <use xlink:href="#DejaVuSans-61" x="307.125"/>
      <use xlink:href="#DejaVuSans-6c" x="368.404297"/>
      <use xlink:href="#DejaVuSans-73" x="396.1875"/>
     </g>
    </g>
    <g id="line2d_40">
     <path d="M 469.549006 294.185938 
L 479.549006 294.185938 
L 489.549006 294.185938 
" style="fill: none; stroke: #0000ff; stroke-width: 1.5; stroke-linecap: square"/>
    </g>
    <g id="text_24">
     <!-- observable -->
     <g transform="translate(497.549006 297.685938) scale(0.1 -0.1)">
      <use xlink:href="#DejaVuSans-6f"/>
      <use xlink:href="#DejaVuSans-62" x="61.181641"/>
      <use xlink:href="#DejaVuSans-73" x="124.658203"/>
      <use xlink:href="#DejaVuSans-65" x="176.757812"/>
      <use xlink:href="#DejaVuSans-72" x="238.28125"/>
      <use xlink:href="#DejaVuSans-76" x="279.394531"/>
      <use xlink:href="#DejaVuSans-61" x="338.574219"/>
      <use xlink:href="#DejaVuSans-62" x="399.853516"/>
      <use xlink:href="#DejaVuSans-6c" x="463.330078"/>
      <use xlink:href="#DejaVuSans-65" x="491.113281"/>
     </g>
    </g>
    <g id="line2d_41">
     <g>
      <use xlink:href="#m4f14c6731d" x="479.549006" y="308.864062" style="fill: #0000ff; stroke: #0000ff"/>
     </g>
    </g>
    <g id="text_25">
     <!-- interpolation -->
     <g transform="translate(497.549006 312.364062) scale(0.1 -0.1)">
      <use xlink:href="#DejaVuSans-69"/>
      <use xlink:href="#DejaVuSans-6e" x="27.783203"/>
      <use xlink:href="#DejaVuSans-74" x="91.162109"/>
      <use xlink:href="#DejaVuSans-65" x="130.371094"/>
      <use xlink:href="#DejaVuSans-72" x="191.894531"/>
      <use xlink:href="#DejaVuSans-70" x="233.007812"/>
      <use xlink:href="#DejaVuSans-6f" x="296.484375"/>
      <use xlink:href="#DejaVuSans-6c" x="357.666016"/>
      <use xlink:href="#DejaVuSans-61" x="385.449219"/>
      <use xlink:href="#DejaVuSans-74" x="446.728516"/>
      <use xlink:href="#DejaVuSans-69" x="485.9375"/>
      <use xlink:href="#DejaVuSans-6f" x="513.720703"/>
      <use xlink:href="#DejaVuSans-6e" x="574.902344"/>
     </g>
    </g>
    <g id="line2d_42">
     <g>
      <use xlink:href="#m3a050ef63b" x="479.549006" y="323.542188" style="stroke: #000000; stroke-linejoin: miter"/>
     </g>
    </g>
    <g id="text_26">
     <!-- reference_data -->
     <g transform="translate(497.549006 327.042188) scale(0.1 -0.1)">
      <use xlink:href="#DejaVuSans-72"/>
      <use xlink:href="#DejaVuSans-65" x="38.863281"/>
      <use xlink:href="#DejaVuSans-66" x="100.386719"/>
      <use xlink:href="#DejaVuSans-65" x="135.591797"/>
      <use xlink:href="#DejaVuSans-72" x="197.115234"/>
      <use xlink:href="#DejaVuSans-65" x="235.978516"/>
      <use xlink:href="#DejaVuSans-6e" x="297.501953"/>
      <use xlink:href="#DejaVuSans-63" x="360.880859"/>
      <use xlink:href="#DejaVuSans-65" x="415.861328"/>
      <use xlink:href="#DejaVuSans-5f" x="477.384766"/>
      <use xlink:href="#DejaVuSans-64" x="527.384766"/>
      <use xlink:href="#DejaVuSans-61" x="590.861328"/>
      <use xlink:href="#DejaVuSans-74" x="652.140625"/>
      <use xlink:href="#DejaVuSans-61" x="691.349609"/>
     </g>
    </g>
   </g>
  </g>
  <g id="axes_3">
   <g id="patch_14">
    <path d="M 90 640.8 
L 343.636364 640.8 
L 343.636364 388.8 
L 90 388.8 
z
" style="fill: #ffffff"/>
   </g>
   <g id="PolyCollection_3">
    <defs>
     <path id="m4fbd4a6cd8" d="M 103.684353 -90.654545 
L 103.684353 -92.126908 
L 106.309648 -90.781758 
L 108.934944 -92.788964 
L 111.560239 -107.073755 
L 114.185535 -141.455139 
L 116.810831 -319.745455 
L 308.457404 -91.226363 
L 311.082699 -93.983556 
L 313.707995 -92.125315 
L 316.33329 -91.695251 
L 318.958586 -92.526251 
L 321.583881 -94.415124 
L 321.583881 -90.654545 
L 321.583881 -90.654545 
L 318.958586 -90.654545 
L 316.33329 -90.654545 
L 313.707995 -90.654545 
L 311.082699 -90.654545 
L 308.457404 -90.654545 
L 116.810831 -90.654545 
L 114.185535 -90.654545 
L 111.560239 -90.654545 
L 108.934944 -90.654545 
L 106.309648 -90.654545 
L 103.684353 -90.654545 
z
" style="stroke: #8b0000; stroke-opacity: 0.4"/>
    </defs>
    <g clip-path="url(#p210f5f0a92)">
     <use xlink:href="#m4fbd4a6cd8" x="0" y="720" style="fill: #8b0000; fill-opacity: 0.4; stroke: #8b0000; stroke-opacity: 0.4"/>
    </g>
   </g>
   <g id="matplotlib.axis_5">
    <g id="xtick_11">
     <g id="line2d_43">
      <g>
       <use xlink:href="#m2c77ea4357" x="101.059057" y="640.8" style="stroke: #000000; stroke-width: 0.8"/>
      </g>
     </g>
     <g id="text_27">
      <!-- 0 -->
      <g transform="translate(97.877807 655.398438) scale(0.1 -0.1)">
       <use xlink:href="#DejaVuSans-30"/>
      </g>
     </g>
    </g>
    <g id="xtick_12">
     <g id="line2d_44">
      <g>
       <use xlink:href="#m2c77ea4357" x="155.752714" y="640.8" style="stroke: #000000; stroke-width: 0.8"/>
      </g>
     </g>
     <g id="text_28">
      <!-- 5000 -->
      <g transform="translate(143.027714 655.398438) scale(0.1 -0.1)">
       <use xlink:href="#DejaVuSans-35"/>
       <use xlink:href="#DejaVuSans-30" x="63.623047"/>
       <use xlink:href="#DejaVuSans-30" x="127.246094"/>
       <use xlink:href="#DejaVuSans-30" x="190.869141"/>
      </g>
     </g>
    </g>
    <g id="xtick_13">
     <g id="line2d_45">
      <g>
       <use xlink:href="#m2c77ea4357" x="210.446371" y="640.8" style="stroke: #000000; stroke-width: 0.8"/>
      </g>
     </g>
     <g id="text_29">
      <!-- 10000 -->
      <g transform="translate(194.540121 655.398438) scale(0.1 -0.1)">
       <use xlink:href="#DejaVuSans-31"/>
       <use xlink:href="#DejaVuSans-30" x="63.623047"/>
       <use xlink:href="#DejaVuSans-30" x="127.246094"/>
       <use xlink:href="#DejaVuSans-30" x="190.869141"/>
       <use xlink:href="#DejaVuSans-30" x="254.492188"/>
      </g>
     </g>
    </g>
    <g id="xtick_14">
     <g id="line2d_46">
      <g>
       <use xlink:href="#m2c77ea4357" x="265.140028" y="640.8" style="stroke: #000000; stroke-width: 0.8"/>
      </g>
     </g>
     <g id="text_30">
      <!-- 15000 -->
      <g transform="translate(249.233778 655.398438) scale(0.1 -0.1)">
       <use xlink:href="#DejaVuSans-31"/>
       <use xlink:href="#DejaVuSans-35" x="63.623047"/>
       <use xlink:href="#DejaVuSans-30" x="127.246094"/>
       <use xlink:href="#DejaVuSans-30" x="190.869141"/>
       <use xlink:href="#DejaVuSans-30" x="254.492188"/>
      </g>
     </g>
    </g>
    <g id="xtick_15">
     <g id="line2d_47">
      <g>
       <use xlink:href="#m2c77ea4357" x="319.833684" y="640.8" style="stroke: #000000; stroke-width: 0.8"/>
      </g>
     </g>
     <g id="text_31">
      <!-- 20000 -->
      <g transform="translate(303.927434 655.398438) scale(0.1 -0.1)">
       <use xlink:href="#DejaVuSans-32"/>
       <use xlink:href="#DejaVuSans-30" x="63.623047"/>
       <use xlink:href="#DejaVuSans-30" x="127.246094"/>
       <use xlink:href="#DejaVuSans-30" x="190.869141"/>
       <use xlink:href="#DejaVuSans-30" x="254.492188"/>
      </g>
     </g>
    </g>
    <g id="text_32">
     <!-- time -->
     <g transform="translate(203.262869 670.59625) scale(0.12 -0.12)">
      <use xlink:href="#DejaVuSans-74"/>
      <use xlink:href="#DejaVuSans-69" x="39.208984"/>
      <use xlink:href="#DejaVuSans-6d" x="66.992188"/>
      <use xlink:href="#DejaVuSans-65" x="164.404297"/>
     </g>
    </g>
   </g>
   <g id="matplotlib.axis_6">
    <g id="ytick_16">
     <g id="line2d_48">
      <g>
       <use xlink:href="#mbd43e92bc6" x="90" y="629.345455" style="stroke: #000000; stroke-width: 0.8"/>
      </g>
     </g>
     <g id="text_33">
      <!-- 0.0 -->
      <g transform="translate(67.096875 633.144673) scale(0.1 -0.1)">
       <use xlink:href="#DejaVuSans-30"/>
       <use xlink:href="#DejaVuSans-2e" x="63.623047"/>
       <use xlink:href="#DejaVuSans-30" x="95.410156"/>
      </g>
     </g>
    </g>
    <g id="ytick_17">
     <g id="line2d_49">
      <g>
       <use xlink:href="#mbd43e92bc6" x="90" y="597.805578" style="stroke: #000000; stroke-width: 0.8"/>
      </g>
     </g>
     <g id="text_34">
      <!-- 0.5 -->
      <g transform="translate(67.096875 601.604796) scale(0.1 -0.1)">
       <use xlink:href="#DejaVuSans-30"/>
       <use xlink:href="#DejaVuSans-2e" x="63.623047"/>
       <use xlink:href="#DejaVuSans-35" x="95.410156"/>
      </g>
     </g>
    </g>
    <g id="ytick_18">
     <g id="line2d_50">
      <g>
       <use xlink:href="#mbd43e92bc6" x="90" y="566.265701" style="stroke: #000000; stroke-width: 0.8"/>
      </g>
     </g>
     <g id="text_35">
      <!-- 1.0 -->
      <g transform="translate(67.096875 570.064919) scale(0.1 -0.1)">
       <use xlink:href="#DejaVuSans-31"/>
       <use xlink:href="#DejaVuSans-2e" x="63.623047"/>
       <use xlink:href="#DejaVuSans-30" x="95.410156"/>
      </g>
     </g>
    </g>
    <g id="ytick_19">
     <g id="line2d_51">
      <g>
       <use xlink:href="#mbd43e92bc6" x="90" y="534.725824" style="stroke: #000000; stroke-width: 0.8"/>
      </g>
     </g>
     <g id="text_36">
      <!-- 1.5 -->
      <g transform="translate(67.096875 538.525042) scale(0.1 -0.1)">
       <use xlink:href="#DejaVuSans-31"/>
       <use xlink:href="#DejaVuSans-2e" x="63.623047"/>
       <use xlink:href="#DejaVuSans-35" x="95.410156"/>
      </g>
     </g>
    </g>
    <g id="ytick_20">
     <g id="line2d_52">
      <g>
       <use xlink:href="#mbd43e92bc6" x="90" y="503.185947" style="stroke: #000000; stroke-width: 0.8"/>
      </g>
     </g>
     <g id="text_37">
      <!-- 2.0 -->
      <g transform="translate(67.096875 506.985165) scale(0.1 -0.1)">
       <use xlink:href="#DejaVuSans-32"/>
       <use xlink:href="#DejaVuSans-2e" x="63.623047"/>
       <use xlink:href="#DejaVuSans-30" x="95.410156"/>
      </g>
     </g>
    </g>
    <g id="ytick_21">
     <g id="line2d_53">
      <g>
       <use xlink:href="#mbd43e92bc6" x="90" y="471.64607" style="stroke: #000000; stroke-width: 0.8"/>
      </g>
     </g>
     <g id="text_38">
      <!-- 2.5 -->
      <g transform="translate(67.096875 475.445288) scale(0.1 -0.1)">
       <use xlink:href="#DejaVuSans-32"/>
       <use xlink:href="#DejaVuSans-2e" x="63.623047"/>
       <use xlink:href="#DejaVuSans-35" x="95.410156"/>
      </g>
     </g>
    </g>
    <g id="ytick_22">
     <g id="line2d_54">
      <g>
       <use xlink:href="#mbd43e92bc6" x="90" y="440.106192" style="stroke: #000000; stroke-width: 0.8"/>
      </g>
     </g>
     <g id="text_39">
      <!-- 3.0 -->
      <g transform="translate(67.096875 443.905411) scale(0.1 -0.1)">
       <use xlink:href="#DejaVuSans-33"/>
       <use xlink:href="#DejaVuSans-2e" x="63.623047"/>
       <use xlink:href="#DejaVuSans-30" x="95.410156"/>
      </g>
     </g>
    </g>
    <g id="ytick_23">
     <g id="line2d_55">
      <g>
       <use xlink:href="#mbd43e92bc6" x="90" y="408.566315" style="stroke: #000000; stroke-width: 0.8"/>
      </g>
     </g>
     <g id="text_40">
      <!-- 3.5 -->
      <g transform="translate(67.096875 412.365534) scale(0.1 -0.1)">
       <use xlink:href="#DejaVuSans-33"/>
       <use xlink:href="#DejaVuSans-2e" x="63.623047"/>
       <use xlink:href="#DejaVuSans-35" x="95.410156"/>
      </g>
     </g>
    </g>
    <g id="text_41">
     <!-- KI__UGE -->
     <g transform="translate(60.2675 539.33625) rotate(-90) scale(0.12 -0.12)">
      <use xlink:href="#DejaVuSans-4b"/>
      <use xlink:href="#DejaVuSans-49" x="65.576172"/>
      <use xlink:href="#DejaVuSans-5f" x="95.068359"/>
      <use xlink:href="#DejaVuSans-5f" x="145.068359"/>
      <use xlink:href="#DejaVuSans-55" x="195.068359"/>
      <use xlink:href="#DejaVuSans-47" x="268.261719"/>
      <use xlink:href="#DejaVuSans-45" x="345.751953"/>
     </g>
    </g>
   </g>
   <g id="line2d_56">
    <path d="M 90 629.345455 
L 343.636364 629.345455 
" clip-path="url(#p210f5f0a92)" style="fill: none; stroke: #000000; stroke-width: 1.5; stroke-linecap: square"/>
   </g>
   <g id="line2d_57">
    <defs>
     <path id="m29a95fcc85" d="M 0 3 
C 0.795609 3 1.55874 2.683901 2.12132 2.12132 
C 2.683901 1.55874 3 0.795609 3 0 
C 3 -0.795609 2.683901 -1.55874 2.12132 -2.12132 
C 1.55874 -2.683901 0.795609 -3 0 -3 
C -0.795609 -3 -1.55874 -2.683901 -2.12132 -2.12132 
C -2.683901 -1.55874 -3 -0.795609 -3 0 
C -3 0.795609 -2.683901 1.55874 -2.12132 2.12132 
C -1.55874 2.683901 -0.795609 3 0 3 
z
" style="stroke: #ff0000"/>
    </defs>
    <g clip-path="url(#p210f5f0a92)">
     <use xlink:href="#m29a95fcc85" x="103.684353" y="627.873092" style="fill: #ff0000; stroke: #ff0000"/>
     <use xlink:href="#m29a95fcc85" x="106.309648" y="629.218242" style="fill: #ff0000; stroke: #ff0000"/>
     <use xlink:href="#m29a95fcc85" x="108.934944" y="627.211036" style="fill: #ff0000; stroke: #ff0000"/>
     <use xlink:href="#m29a95fcc85" x="111.560239" y="612.926245" style="fill: #ff0000; stroke: #ff0000"/>
     <use xlink:href="#m29a95fcc85" x="114.185535" y="578.544861" style="fill: #ff0000; stroke: #ff0000"/>
     <use xlink:href="#m29a95fcc85" x="116.810831" y="400.254545" style="fill: #ff0000; stroke: #ff0000"/>
     <use xlink:href="#m29a95fcc85" x="308.457404" y="628.773637" style="fill: #ff0000; stroke: #ff0000"/>
     <use xlink:href="#m29a95fcc85" x="311.082699" y="626.016444" style="fill: #ff0000; stroke: #ff0000"/>
     <use xlink:href="#m29a95fcc85" x="313.707995" y="627.874685" style="fill: #ff0000; stroke: #ff0000"/>
     <use xlink:href="#m29a95fcc85" x="316.33329" y="628.304749" style="fill: #ff0000; stroke: #ff0000"/>
     <use xlink:href="#m29a95fcc85" x="318.958586" y="627.473749" style="fill: #ff0000; stroke: #ff0000"/>
     <use xlink:href="#m29a95fcc85" x="321.583881" y="625.584876" style="fill: #ff0000; stroke: #ff0000"/>
    </g>
   </g>
   <g id="patch_15">
    <path d="M 90 640.8 
L 90 388.8 
" style="fill: none; stroke: #000000; stroke-width: 0.8; stroke-linejoin: miter; stroke-linecap: square"/>
   </g>
   <g id="patch_16">
    <path d="M 343.636364 640.8 
L 343.636364 388.8 
" style="fill: none; stroke: #000000; stroke-width: 0.8; stroke-linejoin: miter; stroke-linecap: square"/>
   </g>
   <g id="patch_17">
    <path d="M 90 640.8 
L 343.636364 640.8 
" style="fill: none; stroke: #000000; stroke-width: 0.8; stroke-linejoin: miter; stroke-linecap: square"/>
   </g>
   <g id="patch_18">
    <path d="M 90 388.8 
L 343.636364 388.8 
" style="fill: none; stroke: #000000; stroke-width: 0.8; stroke-linejoin: miter; stroke-linecap: square"/>
   </g>
   <g id="legend_3">
    <g id="patch_19">
     <path d="M 187.867614 411.478125 
L 336.636364 411.478125 
Q 338.636364 411.478125 338.636364 409.478125 
L 338.636364 395.8 
Q 338.636364 393.8 336.636364 393.8 
L 187.867614 393.8 
Q 185.867614 393.8 185.867614 395.8 
L 185.867614 409.478125 
Q 185.867614 411.478125 187.867614 411.478125 
z
" style="fill: #ffffff; opacity: 0.8; stroke: #cccccc; stroke-linejoin: miter"/>
    </g>
    <g id="line2d_58">
     <g>
      <use xlink:href="#m29a95fcc85" x="199.867614" y="401.898438" style="fill: #ff0000; stroke: #ff0000"/>
     </g>
    </g>
    <g id="text_42">
     <!-- (weighted residuals)^2 -->
     <g transform="translate(217.867614 405.398438) scale(0.1 -0.1)">
      <defs>
       <path id="DejaVuSans-28" d="M 1984 4856 
Q 1566 4138 1362 3434 
Q 1159 2731 1159 2009 
Q 1159 1288 1364 580 
Q 1569 -128 1984 -844 
L 1484 -844 
Q 1016 -109 783 600 
Q 550 1309 550 2009 
Q 550 2706 781 3412 
Q 1013 4119 1484 4856 
L 1984 4856 
z
" transform="scale(0.015625)"/>
       <path id="DejaVuSans-77" d="M 269 3500 
L 844 3500 
L 1563 769 
L 2278 3500 
L 2956 3500 
L 3675 769 
L 4391 3500 
L 4966 3500 
L 4050 0 
L 3372 0 
L 2619 2869 
L 1863 0 
L 1184 0 
L 269 3500 
z
" transform="scale(0.015625)"/>
       <path id="DejaVuSans-68" d="M 3513 2113 
L 3513 0 
L 2938 0 
L 2938 2094 
Q 2938 2591 2744 2837 
Q 2550 3084 2163 3084 
Q 1697 3084 1428 2787 
Q 1159 2491 1159 1978 
L 1159 0 
L 581 0 
L 581 4863 
L 1159 4863 
L 1159 2956 
Q 1366 3272 1645 3428 
Q 1925 3584 2291 3584 
Q 2894 3584 3203 3211 
Q 3513 2838 3513 2113 
z
" transform="scale(0.015625)"/>
       <path id="DejaVuSans-20" transform="scale(0.015625)"/>
       <path id="DejaVuSans-29" d="M 513 4856 
L 1013 4856 
Q 1481 4119 1714 3412 
Q 1947 2706 1947 2009 
Q 1947 1309 1714 600 
Q 1481 -109 1013 -844 
L 513 -844 
Q 928 -128 1133 580 
Q 1338 1288 1338 2009 
Q 1338 2731 1133 3434 
Q 928 4138 513 4856 
z
" transform="scale(0.015625)"/>
       <path id="DejaVuSans-5e" d="M 2988 4666 
L 4684 2925 
L 4056 2925 
L 2681 4159 
L 1306 2925 
L 678 2925 
L 2375 4666 
L 2988 4666 
z
" transform="scale(0.015625)"/>
      </defs>
      <use xlink:href="#DejaVuSans-28"/>
      <use xlink:href="#DejaVuSans-77" x="39.013672"/>
      <use xlink:href="#DejaVuSans-65" x="120.800781"/>
      <use xlink:href="#DejaVuSans-69" x="182.324219"/>
      <use xlink:href="#DejaVuSans-67" x="210.107422"/>
      <use xlink:href="#DejaVuSans-68" x="273.583984"/>
      <use xlink:href="#DejaVuSans-74" x="336.962891"/>
      <use xlink:href="#DejaVuSans-65" x="376.171875"/>
      <use xlink:href="#DejaVuSans-64" x="437.695312"/>
      <use xlink:href="#DejaVuSans-20" x="501.171875"/>
      <use xlink:href="#DejaVuSans-72" x="532.958984"/>
      <use xlink:href="#DejaVuSans-65" x="571.822266"/>
      <use xlink:href="#DejaVuSans-73" x="633.345703"/>
      <use xlink:href="#DejaVuSans-69" x="685.445312"/>
      <use xlink:href="#DejaVuSans-64" x="713.228516"/>
      <use xlink:href="#DejaVuSans-75" x="776.705078"/>
      <use xlink:href="#DejaVuSans-61" x="840.083984"/>
      <use xlink:href="#DejaVuSans-6c" x="901.363281"/>
      <use xlink:href="#DejaVuSans-73" x="929.146484"/>
      <use xlink:href="#DejaVuSans-29" x="981.246094"/>
      <use xlink:href="#DejaVuSans-5e" x="1020.259766"/>
      <use xlink:href="#DejaVuSans-32" x="1104.048828"/>
     </g>
    </g>
   </g>
  </g>
  <g id="axes_4">
   <g id="patch_20">
    <path d="M 394.363636 640.8 
L 648 640.8 
L 648 388.8 
L 394.363636 388.8 
z
" style="fill: #ffffff"/>
   </g>
   <g id="PolyCollection_4">
    <path d="M 408.047989 70810.5814 
L 408.047989 554.507089 
L 410.673285 629.345455 
L 413.29858 543.158745 
L 415.923876 480.805004 
L 418.549171 446.286907 
L 421.174467 400.254545 
L 612.82104 583.412483 
L 615.446336 529.574654 
L 618.071631 554.540172 
L 620.696927 565.111058 
L 623.322222 547.172839 
L 625.947518 525.84925 
L 625.947518 70810.5814 
L 625.947518 70810.5814 
L 623.322222 70810.5814 
L 620.696927 70810.5814 
L 618.071631 70810.5814 
L 615.446336 70810.5814 
L 612.82104 70810.5814 
L 421.174467 70810.5814 
L 418.549171 70810.5814 
L 415.923876 70810.5814 
L 413.29858 70810.5814 
L 410.673285 70810.5814 
L 408.047989 70810.5814 
z
" clip-path="url(#p96524c40be)" style="fill: #8b0000; fill-opacity: 0.4; stroke: #8b0000; stroke-opacity: 0.4"/>
   </g>
   <g id="matplotlib.axis_7">
    <g id="xtick_16">
     <g id="line2d_59">
      <g>
       <use xlink:href="#m2c77ea4357" x="405.422694" y="640.8" style="stroke: #000000; stroke-width: 0.8"/>
      </g>
     </g>
     <g id="text_43">
      <!-- 0 -->
      <g transform="translate(402.241444 655.398438) scale(0.1 -0.1)">
       <use xlink:href="#DejaVuSans-30"/>
      </g>
     </g>
    </g>
    <g id="xtick_17">
     <g id="line2d_60">
      <g>
       <use xlink:href="#m2c77ea4357" x="460.11635" y="640.8" style="stroke: #000000; stroke-width: 0.8"/>
      </g>
     </g>
     <g id="text_44">
      <!-- 5000 -->
      <g transform="translate(447.39135 655.398438) scale(0.1 -0.1)">
       <use xlink:href="#DejaVuSans-35"/>
       <use xlink:href="#DejaVuSans-30" x="63.623047"/>
       <use xlink:href="#DejaVuSans-30" x="127.246094"/>
       <use xlink:href="#DejaVuSans-30" x="190.869141"/>
      </g>
     </g>
    </g>
    <g id="xtick_18">
     <g id="line2d_61">
      <g>
       <use xlink:href="#m2c77ea4357" x="514.810007" y="640.8" style="stroke: #000000; stroke-width: 0.8"/>
      </g>
     </g>
     <g id="text_45">
      <!-- 10000 -->
      <g transform="translate(498.903757 655.398438) scale(0.1 -0.1)">
       <use xlink:href="#DejaVuSans-31"/>
       <use xlink:href="#DejaVuSans-30" x="63.623047"/>
       <use xlink:href="#DejaVuSans-30" x="127.246094"/>
       <use xlink:href="#DejaVuSans-30" x="190.869141"/>
       <use xlink:href="#DejaVuSans-30" x="254.492188"/>
      </g>
     </g>
    </g>
    <g id="xtick_19">
     <g id="line2d_62">
      <g>
       <use xlink:href="#m2c77ea4357" x="569.503664" y="640.8" style="stroke: #000000; stroke-width: 0.8"/>
      </g>
     </g>
     <g id="text_46">
      <!-- 15000 -->
      <g transform="translate(553.597414 655.398438) scale(0.1 -0.1)">
       <use xlink:href="#DejaVuSans-31"/>
       <use xlink:href="#DejaVuSans-35" x="63.623047"/>
       <use xlink:href="#DejaVuSans-30" x="127.246094"/>
       <use xlink:href="#DejaVuSans-30" x="190.869141"/>
       <use xlink:href="#DejaVuSans-30" x="254.492188"/>
      </g>
     </g>
    </g>
    <g id="xtick_20">
     <g id="line2d_63">
      <g>
       <use xlink:href="#m2c77ea4357" x="624.197321" y="640.8" style="stroke: #000000; stroke-width: 0.8"/>
      </g>
     </g>
     <g id="text_47">
      <!-- 20000 -->
      <g transform="translate(608.291071 655.398438) scale(0.1 -0.1)">
       <use xlink:href="#DejaVuSans-32"/>
       <use xlink:href="#DejaVuSans-30" x="63.623047"/>
       <use xlink:href="#DejaVuSans-30" x="127.246094"/>
       <use xlink:href="#DejaVuSans-30" x="190.869141"/>
       <use xlink:href="#DejaVuSans-30" x="254.492188"/>
      </g>
     </g>
    </g>
    <g id="text_48">
     <!-- time -->
     <g transform="translate(507.626506 670.59625) scale(0.12 -0.12)">
      <use xlink:href="#DejaVuSans-74"/>
      <use xlink:href="#DejaVuSans-69" x="39.208984"/>
      <use xlink:href="#DejaVuSans-6d" x="66.992188"/>
      <use xlink:href="#DejaVuSans-65" x="164.404297"/>
     </g>
    </g>
   </g>
   <g id="matplotlib.axis_8">
    <g id="ytick_24">
     <g id="line2d_64">
      <g>
       <use xlink:href="#mbd43e92bc6" x="394.363636" y="580.412371" style="stroke: #000000; stroke-width: 0.8"/>
      </g>
     </g>
     <g id="text_49">
      <!-- $\mathdefault{10^{-2}}$ -->
      <g transform="translate(363.863636 584.21159) scale(0.1 -0.1)">
       <use xlink:href="#DejaVuSans-31" transform="translate(0 0.765625)"/>
       <use xlink:href="#DejaVuSans-30" transform="translate(63.623047 0.765625)"/>
       <use xlink:href="#DejaVuSans-2212" transform="translate(128.203125 39.046875) scale(0.7)"/>
       <use xlink:href="#DejaVuSans-32" transform="translate(186.855469 39.046875) scale(0.7)"/>
      </g>
     </g>
    </g>
    <g id="ytick_25">
     <g id="line2d_65">
      <g>
       <use xlink:href="#mbd43e92bc6" x="394.363636" y="510.041461" style="stroke: #000000; stroke-width: 0.8"/>
      </g>
     </g>
     <g id="text_50">
      <!-- $\mathdefault{10^{-1}}$ -->
      <g transform="translate(363.863636 513.840679) scale(0.1 -0.1)">
       <use xlink:href="#DejaVuSans-31" transform="translate(0 0.684375)"/>
       <use xlink:href="#DejaVuSans-30" transform="translate(63.623047 0.684375)"/>
       <use xlink:href="#DejaVuSans-2212" transform="translate(128.203125 38.965625) scale(0.7)"/>
       <use xlink:href="#DejaVuSans-31" transform="translate(186.855469 38.965625) scale(0.7)"/>
      </g>
     </g>
    </g>
    <g id="ytick_26">
     <g id="line2d_66">
      <g>
       <use xlink:href="#mbd43e92bc6" x="394.363636" y="439.67055" style="stroke: #000000; stroke-width: 0.8"/>
      </g>
     </g>
     <g id="text_51">
      <!-- $\mathdefault{10^{0}}$ -->
      <g transform="translate(369.763636 443.469769) scale(0.1 -0.1)">
       <use xlink:href="#DejaVuSans-31" transform="translate(0 0.765625)"/>
       <use xlink:href="#DejaVuSans-30" transform="translate(63.623047 0.765625)"/>
       <use xlink:href="#DejaVuSans-30" transform="translate(128.203125 39.046875) scale(0.7)"/>
      </g>
     </g>
    </g>
    <g id="ytick_27">
     <g id="line2d_67">
      <defs>
       <path id="m1660e4f745" d="M 0 0 
L -2 0 
" style="stroke: #000000; stroke-width: 0.6"/>
      </defs>
      <g>
       <use xlink:href="#m1660e4f745" x="394.363636" y="629.599527" style="stroke: #000000; stroke-width: 0.6"/>
      </g>
     </g>
    </g>
    <g id="ytick_28">
     <g id="line2d_68">
      <g>
       <use xlink:href="#m1660e4f745" x="394.363636" y="617.207825" style="stroke: #000000; stroke-width: 0.6"/>
      </g>
     </g>
    </g>
    <g id="ytick_29">
     <g id="line2d_69">
      <g>
       <use xlink:href="#m1660e4f745" x="394.363636" y="608.415772" style="stroke: #000000; stroke-width: 0.6"/>
      </g>
     </g>
    </g>
    <g id="ytick_30">
     <g id="line2d_70">
      <g>
       <use xlink:href="#m1660e4f745" x="394.363636" y="601.596126" style="stroke: #000000; stroke-width: 0.6"/>
      </g>
     </g>
    </g>
    <g id="ytick_31">
     <g id="line2d_71">
      <g>
       <use xlink:href="#m1660e4f745" x="394.363636" y="596.02407" style="stroke: #000000; stroke-width: 0.6"/>
      </g>
     </g>
    </g>
    <g id="ytick_32">
     <g id="line2d_72">
      <g>
       <use xlink:href="#m1660e4f745" x="394.363636" y="591.312963" style="stroke: #000000; stroke-width: 0.6"/>
      </g>
     </g>
    </g>
    <g id="ytick_33">
     <g id="line2d_73">
      <g>
       <use xlink:href="#m1660e4f745" x="394.363636" y="587.232017" style="stroke: #000000; stroke-width: 0.6"/>
      </g>
     </g>
    </g>
    <g id="ytick_34">
     <g id="line2d_74">
      <g>
       <use xlink:href="#m1660e4f745" x="394.363636" y="583.632368" style="stroke: #000000; stroke-width: 0.6"/>
      </g>
     </g>
    </g>
    <g id="ytick_35">
     <g id="line2d_75">
      <g>
       <use xlink:href="#m1660e4f745" x="394.363636" y="559.228616" style="stroke: #000000; stroke-width: 0.6"/>
      </g>
     </g>
    </g>
    <g id="ytick_36">
     <g id="line2d_76">
      <g>
       <use xlink:href="#m1660e4f745" x="394.363636" y="546.836914" style="stroke: #000000; stroke-width: 0.6"/>
      </g>
     </g>
    </g>
    <g id="ytick_37">
     <g id="line2d_77">
      <g>
       <use xlink:href="#m1660e4f745" x="394.363636" y="538.044861" style="stroke: #000000; stroke-width: 0.6"/>
      </g>
     </g>
    </g>
    <g id="ytick_38">
     <g id="line2d_78">
      <g>
       <use xlink:href="#m1660e4f745" x="394.363636" y="531.225216" style="stroke: #000000; stroke-width: 0.6"/>
      </g>
     </g>
    </g>
    <g id="ytick_39">
     <g id="line2d_79">
      <g>
       <use xlink:href="#m1660e4f745" x="394.363636" y="525.653159" style="stroke: #000000; stroke-width: 0.6"/>
      </g>
     </g>
    </g>
    <g id="ytick_40">
     <g id="line2d_80">
      <g>
       <use xlink:href="#m1660e4f745" x="394.363636" y="520.942053" style="stroke: #000000; stroke-width: 0.6"/>
      </g>
     </g>
    </g>
    <g id="ytick_41">
     <g id="line2d_81">
      <g>
       <use xlink:href="#m1660e4f745" x="394.363636" y="516.861106" style="stroke: #000000; stroke-width: 0.6"/>
      </g>
     </g>
    </g>
    <g id="ytick_42">
     <g id="line2d_82">
      <g>
       <use xlink:href="#m1660e4f745" x="394.363636" y="513.261457" style="stroke: #000000; stroke-width: 0.6"/>
      </g>
     </g>
    </g>
    <g id="ytick_43">
     <g id="line2d_83">
      <g>
       <use xlink:href="#m1660e4f745" x="394.363636" y="488.857706" style="stroke: #000000; stroke-width: 0.6"/>
      </g>
     </g>
    </g>
    <g id="ytick_44">
     <g id="line2d_84">
      <g>
       <use xlink:href="#m1660e4f745" x="394.363636" y="476.466003" style="stroke: #000000; stroke-width: 0.6"/>
      </g>
     </g>
    </g>
    <g id="ytick_45">
     <g id="line2d_85">
      <g>
       <use xlink:href="#m1660e4f745" x="394.363636" y="467.673951" style="stroke: #000000; stroke-width: 0.6"/>
      </g>
     </g>
    </g>
    <g id="ytick_46">
     <g id="line2d_86">
      <g>
       <use xlink:href="#m1660e4f745" x="394.363636" y="460.854305" style="stroke: #000000; stroke-width: 0.6"/>
      </g>
     </g>
    </g>
    <g id="ytick_47">
     <g id="line2d_87">
      <g>
       <use xlink:href="#m1660e4f745" x="394.363636" y="455.282248" style="stroke: #000000; stroke-width: 0.6"/>
      </g>
     </g>
    </g>
    <g id="ytick_48">
     <g id="line2d_88">
      <g>
       <use xlink:href="#m1660e4f745" x="394.363636" y="450.571142" style="stroke: #000000; stroke-width: 0.6"/>
      </g>
     </g>
    </g>
    <g id="ytick_49">
     <g id="line2d_89">
      <g>
       <use xlink:href="#m1660e4f745" x="394.363636" y="446.490196" style="stroke: #000000; stroke-width: 0.6"/>
      </g>
     </g>
    </g>
    <g id="ytick_50">
     <g id="line2d_90">
      <g>
       <use xlink:href="#m1660e4f745" x="394.363636" y="442.890546" style="stroke: #000000; stroke-width: 0.6"/>
      </g>
     </g>
    </g>
    <g id="ytick_51">
     <g id="line2d_91">
      <g>
       <use xlink:href="#m1660e4f745" x="394.363636" y="418.486795" style="stroke: #000000; stroke-width: 0.6"/>
      </g>
     </g>
    </g>
    <g id="ytick_52">
     <g id="line2d_92">
      <g>
       <use xlink:href="#m1660e4f745" x="394.363636" y="406.095092" style="stroke: #000000; stroke-width: 0.6"/>
      </g>
     </g>
    </g>
    <g id="ytick_53">
     <g id="line2d_93">
      <g>
       <use xlink:href="#m1660e4f745" x="394.363636" y="397.30304" style="stroke: #000000; stroke-width: 0.6"/>
      </g>
     </g>
    </g>
    <g id="ytick_54">
     <g id="line2d_94">
      <g>
       <use xlink:href="#m1660e4f745" x="394.363636" y="390.483394" style="stroke: #000000; stroke-width: 0.6"/>
      </g>
     </g>
    </g>
   </g>
   <g id="line2d_95">
    <g clip-path="url(#p96524c40be)">
     <use xlink:href="#m29a95fcc85" x="408.047989" y="554.507089" style="fill: #ff0000; stroke: #ff0000"/>
     <use xlink:href="#m29a95fcc85" x="410.673285" y="629.345455" style="fill: #ff0000; stroke: #ff0000"/>
     <use xlink:href="#m29a95fcc85" x="413.29858" y="543.158745" style="fill: #ff0000; stroke: #ff0000"/>
     <use xlink:href="#m29a95fcc85" x="415.923876" y="480.805004" style="fill: #ff0000; stroke: #ff0000"/>
     <use xlink:href="#m29a95fcc85" x="418.549171" y="446.286907" style="fill: #ff0000; stroke: #ff0000"/>
     <use xlink:href="#m29a95fcc85" x="421.174467" y="400.254545" style="fill: #ff0000; stroke: #ff0000"/>
     <use xlink:href="#m29a95fcc85" x="612.82104" y="583.412483" style="fill: #ff0000; stroke: #ff0000"/>
     <use xlink:href="#m29a95fcc85" x="615.446336" y="529.574654" style="fill: #ff0000; stroke: #ff0000"/>
     <use xlink:href="#m29a95fcc85" x="618.071631" y="554.540172" style="fill: #ff0000; stroke: #ff0000"/>
     <use xlink:href="#m29a95fcc85" x="620.696927" y="565.111058" style="fill: #ff0000; stroke: #ff0000"/>
     <use xlink:href="#m29a95fcc85" x="623.322222" y="547.172839" style="fill: #ff0000; stroke: #ff0000"/>
     <use xlink:href="#m29a95fcc85" x="625.947518" y="525.84925" style="fill: #ff0000; stroke: #ff0000"/>
    </g>
   </g>
   <g id="patch_21">
    <path d="M 394.363636 640.8 
L 394.363636 388.8 
" style="fill: none; stroke: #000000; stroke-width: 0.8; stroke-linejoin: miter; stroke-linecap: square"/>
   </g>
   <g id="patch_22">
    <path d="M 648 640.8 
L 648 388.8 
" style="fill: none; stroke: #000000; stroke-width: 0.8; stroke-linejoin: miter; stroke-linecap: square"/>
   </g>
   <g id="patch_23">
    <path d="M 394.363636 640.8 
L 648 640.8 
" style="fill: none; stroke: #000000; stroke-width: 0.8; stroke-linejoin: miter; stroke-linecap: square"/>
   </g>
   <g id="patch_24">
    <path d="M 394.363636 388.8 
L 648 388.8 
" style="fill: none; stroke: #000000; stroke-width: 0.8; stroke-linejoin: miter; stroke-linecap: square"/>
   </g>
   <g id="legend_4">
    <g id="patch_25">
     <path d="M 492.23125 411.478125 
L 641 411.478125 
Q 643 411.478125 643 409.478125 
L 643 395.8 
Q 643 393.8 641 393.8 
L 492.23125 393.8 
Q 490.23125 393.8 490.23125 395.8 
L 490.23125 409.478125 
Q 490.23125 411.478125 492.23125 411.478125 
z
" style="fill: #ffffff; opacity: 0.8; stroke: #cccccc; stroke-linejoin: miter"/>
    </g>
    <g id="line2d_96">
     <g>
      <use xlink:href="#m29a95fcc85" x="504.23125" y="401.898438" style="fill: #ff0000; stroke: #ff0000"/>
     </g>
    </g>
    <g id="text_52">
     <!-- (weighted residuals)^2 -->
     <g transform="translate(522.23125 405.398438) scale(0.1 -0.1)">
      <use xlink:href="#DejaVuSans-28"/>
      <use xlink:href="#DejaVuSans-77" x="39.013672"/>
      <use xlink:href="#DejaVuSans-65" x="120.800781"/>
      <use xlink:href="#DejaVuSans-69" x="182.324219"/>
      <use xlink:href="#DejaVuSans-67" x="210.107422"/>
      <use xlink:href="#DejaVuSans-68" x="273.583984"/>
      <use xlink:href="#DejaVuSans-74" x="336.962891"/>
      <use xlink:href="#DejaVuSans-65" x="376.171875"/>
      <use xlink:href="#DejaVuSans-64" x="437.695312"/>
      <use xlink:href="#DejaVuSans-20" x="501.171875"/>
      <use xlink:href="#DejaVuSans-72" x="532.958984"/>
      <use xlink:href="#DejaVuSans-65" x="571.822266"/>
      <use xlink:href="#DejaVuSans-73" x="633.345703"/>
      <use xlink:href="#DejaVuSans-69" x="685.445312"/>
      <use xlink:href="#DejaVuSans-64" x="713.228516"/>
      <use xlink:href="#DejaVuSans-75" x="776.705078"/>
      <use xlink:href="#DejaVuSans-61" x="840.083984"/>
      <use xlink:href="#DejaVuSans-6c" x="901.363281"/>
      <use xlink:href="#DejaVuSans-73" x="929.146484"/>
      <use xlink:href="#DejaVuSans-29" x="981.246094"/>
      <use xlink:href="#DejaVuSans-5e" x="1020.259766"/>
      <use xlink:href="#DejaVuSans-32" x="1104.048828"/>
     </g>
    </g>
   </g>
  </g>
 </g>
 <defs>
  <clipPath id="pf083ebefe9">
   <rect x="90" y="86.4" width="253.636364" height="252"/>
  </clipPath>
  <clipPath id="p6481b037a6">
   <rect x="394.363636" y="86.4" width="253.636364" height="252"/>
  </clipPath>
  <clipPath id="p210f5f0a92">
   <rect x="90" y="388.8" width="253.636364" height="252"/>
  </clipPath>
  <clipPath id="p96524c40be">
   <rect x="394.363636" y="388.8" width="253.636364" height="252"/>
  </clipPath>
 </defs>
</svg>
