<?xml version="1.0" encoding="utf-8" standalone="no"?>
<!DOCTYPE svg PUBLIC "-//W3C//DTD SVG 1.1//EN"
  "http://www.w3.org/Graphics/SVG/1.1/DTD/svg11.dtd">
<svg xmlns:xlink="http://www.w3.org/1999/xlink" width="452.64875pt" height="469.3875pt" viewBox="0 0 452.64875 469.3875" xmlns="http://www.w3.org/2000/svg" version="1.1">
 <metadata>
  <rdf:RDF xmlns:dc="http://purl.org/dc/elements/1.1/" xmlns:cc="http://creativecommons.org/ns#" xmlns:rdf="http://www.w3.org/1999/02/22-rdf-syntax-ns#">
   <cc:Work>
    <dc:type rdf:resource="http://purl.org/dc/dcmitype/StillImage"/>
    <dc:date>2025-12-21T21:50:56.417580</dc:date>
    <dc:format>image/svg+xml</dc:format>
    <dc:creator>
     <cc:Agent>
      <dc:title>Matplotlib v3.10.7, https://matplotlib.org/</dc:title>
     </cc:Agent>
    </dc:creator>
   </cc:Work>
  </rdf:RDF>
 </metadata>
 <defs>
  <style type="text/css">*{stroke-linejoin: round; stroke-linecap: butt}</style>
 </defs>
 <g id="figure_1">
  <g id="patch_1">
   <path d="M 0 469.3875 
L 452.64875 469.3875 
L 452.64875 -0 
L 0 -0 
z
" style="fill: #ffffff"/>
  </g>
  <g id="axes_1">
   <g id="patch_2">
    <path d="M 54.84875 320.4 
L 445.44875 320.4 
L 445.44875 43.2 
L 54.84875 43.2 
z
" style="fill: #ffffff"/>
   </g>
   <g id="matplotlib.axis_1">
    <g id="xtick_1">
     <g id="line2d_1">
      <defs>
       <path id="mddcda52d37" d="M 0 0 
L 0 3.5 
" style="stroke: #000000; stroke-width: 0.8"/>
      </defs>
      <g>
       <use xlink:href="#mddcda52d37" x="72.603295" y="320.4" style="stroke: #000000; stroke-width: 0.8"/>
      </g>
     </g>
     <g id="text_1">
      <!-- 0 -->
      <g transform="translate(67.83142 338.797656) scale(0.15 -0.15)">
       <defs>
        <path id="DejaVuSans-30" d="M 2034 4250 
Q 1547 4250 1301 3770 
Q 1056 3291 1056 2328 
Q 1056 1369 1301 889 
Q 1547 409 2034 409 
Q 2525 409 2770 889 
Q 3016 1369 3016 2328 
Q 3016 3291 2770 3770 
Q 2525 4250 2034 4250 
z
M 2034 4750 
Q 2819 4750 3233 4129 
Q 3647 3509 3647 2328 
Q 3647 1150 3233 529 
Q 2819 -91 2034 -91 
Q 1250 -91 836 529 
Q 422 1150 422 2328 
Q 422 3509 836 4129 
Q 1250 4750 2034 4750 
z
" transform="scale(0.015625)"/>
       </defs>
       <use xlink:href="#DejaVuSans-30"/>
      </g>
     </g>
    </g>
    <g id="xtick_2">
     <g id="line2d_2">
      <g>
       <use xlink:href="#mddcda52d37" x="143.621477" y="320.4" style="stroke: #000000; stroke-width: 0.8"/>
      </g>
     </g>
     <g id="text_2">
      <!-- 5 -->
      <g transform="translate(138.849602 338.797656) scale(0.15 -0.15)">
       <defs>
        <path id="DejaVuSans-35" d="M 691 4666 
L 3169 4666 
L 3169 4134 
L 1269 4134 
L 1269 2991 
Q 1406 3038 1543 3061 
Q 1681 3084 1819 3084 
Q 2600 3084 3056 2656 
Q 3513 2228 3513 1497 
Q 3513 744 3044 326 
Q 2575 -91 1722 -91 
Q 1428 -91 1123 -41 
Q 819 9 494 109 
L 494 744 
Q 775 591 1075 516 
Q 1375 441 1709 441 
Q 2250 441 2565 725 
Q 2881 1009 2881 1497 
Q 2881 1984 2565 2268 
Q 2250 2553 1709 2553 
Q 1456 2553 1204 2497 
Q 953 2441 691 2322 
L 691 4666 
z
" transform="scale(0.015625)"/>
       </defs>
       <use xlink:href="#DejaVuSans-35"/>
      </g>
     </g>
    </g>
    <g id="xtick_3">
     <g id="line2d_3">
      <g>
       <use xlink:href="#mddcda52d37" x="214.639659" y="320.4" style="stroke: #000000; stroke-width: 0.8"/>
      </g>
     </g>
     <g id="text_3">
      <!-- 10 -->
      <g transform="translate(205.095909 338.797656) scale(0.15 -0.15)">
       <defs>
        <path id="DejaVuSans-31" d="M 794 531 
L 1825 531 
L 1825 4091 
L 703 3866 
L 703 4441 
L 1819 4666 
L 2450 4666 
L 2450 531 
L 3481 531 
L 3481 0 
L 794 0 
L 794 531 
z
" transform="scale(0.015625)"/>
       </defs>
       <use xlink:href="#DejaVuSans-31"/>
       <use xlink:href="#DejaVuSans-30" transform="translate(63.623047 0)"/>
      </g>
     </g>
    </g>
    <g id="xtick_4">
     <g id="line2d_4">
      <g>
       <use xlink:href="#mddcda52d37" x="285.657841" y="320.4" style="stroke: #000000; stroke-width: 0.8"/>
      </g>
     </g>
     <g id="text_4">
      <!-- 15 -->
      <g transform="translate(276.114091 338.797656) scale(0.15 -0.15)">
       <use xlink:href="#DejaVuSans-31"/>
       <use xlink:href="#DejaVuSans-35" transform="translate(63.623047 0)"/>
      </g>
     </g>
    </g>
    <g id="xtick_5">
     <g id="line2d_5">
      <g>
       <use xlink:href="#mddcda52d37" x="356.676023" y="320.4" style="stroke: #000000; stroke-width: 0.8"/>
      </g>
     </g>
     <g id="text_5">
      <!-- 20 -->
      <g transform="translate(347.132273 338.797656) scale(0.15 -0.15)">
       <defs>
        <path id="DejaVuSans-32" d="M 1228 531 
L 3431 531 
L 3431 0 
L 469 0 
L 469 531 
Q 828 903 1448 1529 
Q 2069 2156 2228 2338 
Q 2531 2678 2651 2914 
Q 2772 3150 2772 3378 
Q 2772 3750 2511 3984 
Q 2250 4219 1831 4219 
Q 1534 4219 1204 4116 
Q 875 4013 500 3803 
L 500 4441 
Q 881 4594 1212 4672 
Q 1544 4750 1819 4750 
Q 2544 4750 2975 4387 
Q 3406 4025 3406 3419 
Q 3406 3131 3298 2873 
Q 3191 2616 2906 2266 
Q 2828 2175 2409 1742 
Q 1991 1309 1228 531 
z
" transform="scale(0.015625)"/>
       </defs>
       <use xlink:href="#DejaVuSans-32"/>
       <use xlink:href="#DejaVuSans-30" transform="translate(63.623047 0)"/>
      </g>
     </g>
    </g>
    <g id="xtick_6">
     <g id="line2d_6">
      <g>
       <use xlink:href="#mddcda52d37" x="427.694205" y="320.4" style="stroke: #000000; stroke-width: 0.8"/>
      </g>
     </g>
     <g id="text_6">
      <!-- 25 -->
      <g transform="translate(418.150455 338.797656) scale(0.15 -0.15)">
       <use xlink:href="#DejaVuSans-32"/>
       <use xlink:href="#DejaVuSans-35" transform="translate(63.623047 0)"/>
      </g>
     </g>
    </g>
    <g id="text_7">
     <!-- time [hr] -->
     <g transform="translate(205.074219 359.594375) scale(0.18 -0.18)">
      <defs>
       <path id="DejaVuSans-Bold-74" d="M 1759 4494 
L 1759 3500 
L 2913 3500 
L 2913 2700 
L 1759 2700 
L 1759 1216 
Q 1759 972 1856 886 
Q 1953 800 2241 800 
L 2816 800 
L 2816 0 
L 1856 0 
Q 1194 0 917 276 
Q 641 553 641 1216 
L 641 2700 
L 84 2700 
L 84 3500 
L 641 3500 
L 641 4494 
L 1759 4494 
z
" transform="scale(0.015625)"/>
       <path id="DejaVuSans-Bold-69" d="M 538 3500 
L 1656 3500 
L 1656 0 
L 538 0 
L 538 3500 
z
M 538 4863 
L 1656 4863 
L 1656 3950 
L 538 3950 
L 538 4863 
z
" transform="scale(0.015625)"/>
       <path id="DejaVuSans-Bold-6d" d="M 3781 2919 
Q 3994 3244 4286 3414 
Q 4578 3584 4928 3584 
Q 5531 3584 5847 3212 
Q 6163 2841 6163 2131 
L 6163 0 
L 5038 0 
L 5038 1825 
Q 5041 1866 5042 1909 
Q 5044 1953 5044 2034 
Q 5044 2406 4934 2573 
Q 4825 2741 4581 2741 
Q 4263 2741 4089 2478 
Q 3916 2216 3909 1719 
L 3909 0 
L 2784 0 
L 2784 1825 
Q 2784 2406 2684 2573 
Q 2584 2741 2328 2741 
Q 2006 2741 1831 2477 
Q 1656 2213 1656 1722 
L 1656 0 
L 531 0 
L 531 3500 
L 1656 3500 
L 1656 2988 
Q 1863 3284 2130 3434 
Q 2397 3584 2719 3584 
Q 3081 3584 3359 3409 
Q 3638 3234 3781 2919 
z
" transform="scale(0.015625)"/>
       <path id="DejaVuSans-Bold-65" d="M 4031 1759 
L 4031 1441 
L 1416 1441 
Q 1456 1047 1700 850 
Q 1944 653 2381 653 
Q 2734 653 3104 758 
Q 3475 863 3866 1075 
L 3866 213 
Q 3469 63 3072 -14 
Q 2675 -91 2278 -91 
Q 1328 -91 801 392 
Q 275 875 275 1747 
Q 275 2603 792 3093 
Q 1309 3584 2216 3584 
Q 3041 3584 3536 3087 
Q 4031 2591 4031 1759 
z
M 2881 2131 
Q 2881 2450 2695 2645 
Q 2509 2841 2209 2841 
Q 1884 2841 1681 2658 
Q 1478 2475 1428 2131 
L 2881 2131 
z
" transform="scale(0.015625)"/>
       <path id="DejaVuSans-Bold-20" transform="scale(0.015625)"/>
       <path id="DejaVuSans-Bold-5b" d="M 550 4863 
L 2491 4863 
L 2491 4159 
L 1613 4159 
L 1613 -141 
L 2491 -141 
L 2491 -844 
L 550 -844 
L 550 4863 
z
" transform="scale(0.015625)"/>
       <path id="DejaVuSans-Bold-68" d="M 4056 2131 
L 4056 0 
L 2931 0 
L 2931 347 
L 2931 1625 
Q 2931 2084 2911 2256 
Q 2891 2428 2841 2509 
Q 2775 2619 2662 2680 
Q 2550 2741 2406 2741 
Q 2056 2741 1856 2470 
Q 1656 2200 1656 1722 
L 1656 0 
L 538 0 
L 538 4863 
L 1656 4863 
L 1656 2988 
Q 1909 3294 2193 3439 
Q 2478 3584 2822 3584 
Q 3428 3584 3742 3212 
Q 4056 2841 4056 2131 
z
" transform="scale(0.015625)"/>
       <path id="DejaVuSans-Bold-72" d="M 3138 2547 
Q 2991 2616 2845 2648 
Q 2700 2681 2553 2681 
Q 2122 2681 1889 2404 
Q 1656 2128 1656 1613 
L 1656 0 
L 538 0 
L 538 3500 
L 1656 3500 
L 1656 2925 
Q 1872 3269 2151 3426 
Q 2431 3584 2822 3584 
Q 2878 3584 2943 3579 
Q 3009 3575 3134 3559 
L 3138 2547 
z
" transform="scale(0.015625)"/>
       <path id="DejaVuSans-Bold-5d" d="M 2375 -844 
L 434 -844 
L 434 -141 
L 1313 -141 
L 1313 4159 
L 434 4159 
L 434 4863 
L 2375 4863 
L 2375 -844 
z
" transform="scale(0.015625)"/>
      </defs>
      <use xlink:href="#DejaVuSans-Bold-74"/>
      <use xlink:href="#DejaVuSans-Bold-69" transform="translate(47.802734 0)"/>
      <use xlink:href="#DejaVuSans-Bold-6d" transform="translate(82.080078 0)"/>
      <use xlink:href="#DejaVuSans-Bold-65" transform="translate(186.279297 0)"/>
      <use xlink:href="#DejaVuSans-Bold-20" transform="translate(254.101562 0)"/>
      <use xlink:href="#DejaVuSans-Bold-5b" transform="translate(288.916016 0)"/>
      <use xlink:href="#DejaVuSans-Bold-68" transform="translate(334.619141 0)"/>
      <use xlink:href="#DejaVuSans-Bold-72" transform="translate(405.810547 0)"/>
      <use xlink:href="#DejaVuSans-Bold-5d" transform="translate(455.126953 0)"/>
     </g>
    </g>
   </g>
   <g id="matplotlib.axis_2">
    <g id="ytick_1">
     <g id="line2d_7">
      <defs>
       <path id="maced79c6c4" d="M 0 0 
L -3.5 0 
" style="stroke: #000000; stroke-width: 0.8"/>
      </defs>
      <g>
       <use xlink:href="#maced79c6c4" x="54.84875" y="307.8" style="stroke: #000000; stroke-width: 0.8"/>
      </g>
     </g>
     <g id="text_8">
      <!-- 0 -->
      <g transform="translate(38.305 313.498828) scale(0.15 -0.15)">
       <use xlink:href="#DejaVuSans-30"/>
      </g>
     </g>
    </g>
    <g id="ytick_2">
     <g id="line2d_8">
      <g>
       <use xlink:href="#maced79c6c4" x="54.84875" y="249.416565" style="stroke: #000000; stroke-width: 0.8"/>
      </g>
     </g>
     <g id="text_9">
      <!-- 20 -->
      <g transform="translate(28.76125 255.115393) scale(0.15 -0.15)">
       <use xlink:href="#DejaVuSans-32"/>
       <use xlink:href="#DejaVuSans-30" transform="translate(63.623047 0)"/>
      </g>
     </g>
    </g>
    <g id="ytick_3">
     <g id="line2d_9">
      <g>
       <use xlink:href="#maced79c6c4" x="54.84875" y="191.03313" style="stroke: #000000; stroke-width: 0.8"/>
      </g>
     </g>
     <g id="text_10">
      <!-- 40 -->
      <g transform="translate(28.76125 196.731958) scale(0.15 -0.15)">
       <defs>
        <path id="DejaVuSans-34" d="M 2419 4116 
L 825 1625 
L 2419 1625 
L 2419 4116 
z
M 2253 4666 
L 3047 4666 
L 3047 1625 
L 3713 1625 
L 3713 1100 
L 3047 1100 
L 3047 0 
L 2419 0 
L 2419 1100 
L 313 1100 
L 313 1709 
L 2253 4666 
z
" transform="scale(0.015625)"/>
       </defs>
       <use xlink:href="#DejaVuSans-34"/>
       <use xlink:href="#DejaVuSans-30" transform="translate(63.623047 0)"/>
      </g>
     </g>
    </g>
    <g id="ytick_4">
     <g id="line2d_10">
      <g>
       <use xlink:href="#maced79c6c4" x="54.84875" y="132.649695" style="stroke: #000000; stroke-width: 0.8"/>
      </g>
     </g>
     <g id="text_11">
      <!-- 60 -->
      <g transform="translate(28.76125 138.348523) scale(0.15 -0.15)">
       <defs>
        <path id="DejaVuSans-36" d="M 2113 2584 
Q 1688 2584 1439 2293 
Q 1191 2003 1191 1497 
Q 1191 994 1439 701 
Q 1688 409 2113 409 
Q 2538 409 2786 701 
Q 3034 994 3034 1497 
Q 3034 2003 2786 2293 
Q 2538 2584 2113 2584 
z
M 3366 4563 
L 3366 3988 
Q 3128 4100 2886 4159 
Q 2644 4219 2406 4219 
Q 1781 4219 1451 3797 
Q 1122 3375 1075 2522 
Q 1259 2794 1537 2939 
Q 1816 3084 2150 3084 
Q 2853 3084 3261 2657 
Q 3669 2231 3669 1497 
Q 3669 778 3244 343 
Q 2819 -91 2113 -91 
Q 1303 -91 875 529 
Q 447 1150 447 2328 
Q 447 3434 972 4092 
Q 1497 4750 2381 4750 
Q 2619 4750 2861 4703 
Q 3103 4656 3366 4563 
z
" transform="scale(0.015625)"/>
       </defs>
       <use xlink:href="#DejaVuSans-36"/>
       <use xlink:href="#DejaVuSans-30" transform="translate(63.623047 0)"/>
      </g>
     </g>
    </g>
    <g id="ytick_5">
     <g id="line2d_11">
      <g>
       <use xlink:href="#maced79c6c4" x="54.84875" y="74.26626" style="stroke: #000000; stroke-width: 0.8"/>
      </g>
     </g>
     <g id="text_12">
      <!-- 80 -->
      <g transform="translate(28.76125 79.965088) scale(0.15 -0.15)">
       <defs>
        <path id="DejaVuSans-38" d="M 2034 2216 
Q 1584 2216 1326 1975 
Q 1069 1734 1069 1313 
Q 1069 891 1326 650 
Q 1584 409 2034 409 
Q 2484 409 2743 651 
Q 3003 894 3003 1313 
Q 3003 1734 2745 1975 
Q 2488 2216 2034 2216 
z
M 1403 2484 
Q 997 2584 770 2862 
Q 544 3141 544 3541 
Q 544 4100 942 4425 
Q 1341 4750 2034 4750 
Q 2731 4750 3128 4425 
Q 3525 4100 3525 3541 
Q 3525 3141 3298 2862 
Q 3072 2584 2669 2484 
Q 3125 2378 3379 2068 
Q 3634 1759 3634 1313 
Q 3634 634 3220 271 
Q 2806 -91 2034 -91 
Q 1263 -91 848 271 
Q 434 634 434 1313 
Q 434 1759 690 2068 
Q 947 2378 1403 2484 
z
M 1172 3481 
Q 1172 3119 1398 2916 
Q 1625 2713 2034 2713 
Q 2441 2713 2670 2916 
Q 2900 3119 2900 3481 
Q 2900 3844 2670 4047 
Q 2441 4250 2034 4250 
Q 1625 4250 1398 4047 
Q 1172 3844 1172 3481 
z
" transform="scale(0.015625)"/>
       </defs>
       <use xlink:href="#DejaVuSans-38"/>
       <use xlink:href="#DejaVuSans-30" transform="translate(63.623047 0)"/>
      </g>
     </g>
    </g>
    <g id="text_13">
     <!-- UGE [g] -->
     <g transform="translate(20.877188 220.445156) rotate(-90) scale(0.18 -0.18)">
      <defs>
       <path id="DejaVuSans-Bold-55" d="M 588 4666 
L 1791 4666 
L 1791 1869 
Q 1791 1291 1980 1042 
Q 2169 794 2597 794 
Q 3028 794 3217 1042 
Q 3406 1291 3406 1869 
L 3406 4666 
L 4609 4666 
L 4609 1869 
Q 4609 878 4112 393 
Q 3616 -91 2597 -91 
Q 1581 -91 1084 393 
Q 588 878 588 1869 
L 588 4666 
z
" transform="scale(0.015625)"/>
       <path id="DejaVuSans-Bold-47" d="M 4781 347 
Q 4331 128 3847 18 
Q 3363 -91 2847 -91 
Q 1681 -91 1000 561 
Q 319 1213 319 2328 
Q 319 3456 1012 4103 
Q 1706 4750 2913 4750 
Q 3378 4750 3804 4662 
Q 4231 4575 4609 4403 
L 4609 3438 
Q 4219 3659 3833 3768 
Q 3447 3878 3059 3878 
Q 2341 3878 1952 3476 
Q 1563 3075 1563 2328 
Q 1563 1588 1938 1184 
Q 2313 781 3003 781 
Q 3191 781 3352 804 
Q 3513 828 3641 878 
L 3641 1784 
L 2906 1784 
L 2906 2591 
L 4781 2591 
L 4781 347 
z
" transform="scale(0.015625)"/>
       <path id="DejaVuSans-Bold-45" d="M 588 4666 
L 3834 4666 
L 3834 3756 
L 1791 3756 
L 1791 2888 
L 3713 2888 
L 3713 1978 
L 1791 1978 
L 1791 909 
L 3903 909 
L 3903 0 
L 588 0 
L 588 4666 
z
" transform="scale(0.015625)"/>
       <path id="DejaVuSans-Bold-67" d="M 2919 594 
Q 2688 288 2409 144 
Q 2131 0 1766 0 
Q 1125 0 706 504 
Q 288 1009 288 1791 
Q 288 2575 706 3076 
Q 1125 3578 1766 3578 
Q 2131 3578 2409 3434 
Q 2688 3291 2919 2981 
L 2919 3500 
L 4044 3500 
L 4044 353 
Q 4044 -491 3511 -936 
Q 2978 -1381 1966 -1381 
Q 1638 -1381 1331 -1331 
Q 1025 -1281 716 -1178 
L 716 -306 
Q 1009 -475 1290 -558 
Q 1572 -641 1856 -641 
Q 2406 -641 2662 -400 
Q 2919 -159 2919 353 
L 2919 594 
z
M 2181 2772 
Q 1834 2772 1640 2515 
Q 1447 2259 1447 1791 
Q 1447 1309 1634 1061 
Q 1822 813 2181 813 
Q 2531 813 2725 1069 
Q 2919 1325 2919 1791 
Q 2919 2259 2725 2515 
Q 2531 2772 2181 2772 
z
" transform="scale(0.015625)"/>
      </defs>
      <use xlink:href="#DejaVuSans-Bold-55"/>
      <use xlink:href="#DejaVuSans-Bold-47" transform="translate(81.201172 0)"/>
      <use xlink:href="#DejaVuSans-Bold-45" transform="translate(163.28125 0)"/>
      <use xlink:href="#DejaVuSans-Bold-20" transform="translate(231.591797 0)"/>
      <use xlink:href="#DejaVuSans-Bold-5b" transform="translate(266.40625 0)"/>
      <use xlink:href="#DejaVuSans-Bold-67" transform="translate(312.109375 0)"/>
      <use xlink:href="#DejaVuSans-Bold-5d" transform="translate(383.691406 0)"/>
     </g>
    </g>
   </g>
   <g id="LineCollection_1">
    <path clip-path="url(#p15b8a2c312)" style="fill: none; stroke: #000000"/>
    <path clip-path="url(#p15b8a2c312)" style="fill: none; stroke: #000000"/>
   </g>
   <g id="LineCollection_2">
    <path clip-path="url(#p15b8a2c312)" style="fill: none; stroke: #ffeb3b"/>
    <path d="M 413.490568 307.698413 
L 413.490568 307.50458 
" clip-path="url(#p15b8a2c312)" style="fill: none; stroke: #ffeb3b"/>
   </g>
   <g id="LineCollection_3">
    <path clip-path="url(#p15b8a2c312)" style="fill: none; stroke: #ffd54f"/>
    <path d="M 413.490568 307.703667 
L 413.490568 307.639446 
" clip-path="url(#p15b8a2c312)" style="fill: none; stroke: #ffd54f"/>
   </g>
   <g id="LineCollection_4">
    <path clip-path="url(#p15b8a2c312)" style="fill: none; stroke: #ffb74d"/>
    <path d="M 413.490568 307.72994 
L 413.490568 307.443861 
" clip-path="url(#p15b8a2c312)" style="fill: none; stroke: #ffb74d"/>
   </g>
   <g id="LineCollection_5">
    <path clip-path="url(#p15b8a2c312)" style="fill: none; stroke: #ffa726"/>
    <path d="M 413.490568 307.388397 
L 413.490568 304.755304 
" clip-path="url(#p15b8a2c312)" style="fill: none; stroke: #ffa726"/>
   </g>
   <g id="LineCollection_6">
    <path clip-path="url(#p15b8a2c312)" style="fill: none; stroke: #ff9800"/>
    <path d="M 413.490568 283.065858 
L 413.490568 220.432109 
" clip-path="url(#p15b8a2c312)" style="fill: none; stroke: #ff9800"/>
   </g>
   <g id="LineCollection_7">
    <path clip-path="url(#p15b8a2c312)" style="fill: none; stroke: #fb8c00"/>
    <path clip-path="url(#p15b8a2c312)" style="fill: none; stroke: #fb8c00"/>
   </g>
   <g id="LineCollection_8">
    <path clip-path="url(#p15b8a2c312)" style="fill: none; stroke: #f57c00"/>
    <path d="M 413.490568 227.482431 
L 413.490568 200.908515 
" clip-path="url(#p15b8a2c312)" style="fill: none; stroke: #f57c00"/>
   </g>
   <g id="LineCollection_9">
    <path clip-path="url(#p15b8a2c312)" style="fill: none; stroke: #ef6c00"/>
    <path d="M 413.490568 191.510241 
L 413.490568 164.936325 
" clip-path="url(#p15b8a2c312)" style="fill: none; stroke: #ef6c00"/>
   </g>
   <g id="LineCollection_10">
    <path clip-path="url(#p15b8a2c312)" style="fill: none; stroke: #e65100"/>
    <path d="M 413.490568 151.339256 
L 413.490568 105.184561 
" clip-path="url(#p15b8a2c312)" style="fill: none; stroke: #e65100"/>
   </g>
   <g id="LineCollection_11">
    <path clip-path="url(#p15b8a2c312)" style="fill: none; stroke: #bf360c"/>
    <path d="M 413.490568 168.725523 
L 413.490568 119.773573 
" clip-path="url(#p15b8a2c312)" style="fill: none; stroke: #bf360c"/>
   </g>
   <g id="LineCollection_12">
    <path clip-path="url(#p15b8a2c312)" style="fill: none; stroke: #a52a00"/>
    <path d="M 413.490568 154.377286 
L 413.490568 84.445929 
" clip-path="url(#p15b8a2c312)" style="fill: none; stroke: #a52a00"/>
   </g>
   <g id="LineCollection_13">
    <path clip-path="url(#p15b8a2c312)" style="fill: none; stroke: #872200"/>
    <path d="M 413.490568 157.646042 
L 413.490568 86.316058 
" clip-path="url(#p15b8a2c312)" style="fill: none; stroke: #872200"/>
   </g>
   <g id="LineCollection_14">
    <path clip-path="url(#p15b8a2c312)" style="fill: none; stroke: #5e1800"/>
    <path d="M 413.490568 157.899781 
L 413.490568 55.8 
" clip-path="url(#p15b8a2c312)" style="fill: none; stroke: #5e1800"/>
   </g>
   <g id="line2d_12">
    <path d="M 72.603295 307.8 
L 427.694205 307.8 
L 427.694205 307.8 
" clip-path="url(#p15b8a2c312)" style="fill: none; stroke: #000000; stroke-width: 2; stroke-linecap: square"/>
   </g>
   <g id="line2d_13">
    <defs>
     <path id="ma2d5b06a74" d="M -3 3 
L 3 3 
L 3 -3 
L -3 -3 
z
" style="stroke: #000000; stroke-linejoin: miter"/>
    </defs>
    <g clip-path="url(#p15b8a2c312)">
     <use xlink:href="#ma2d5b06a74" x="72.603295" y="307.8" style="stroke: #000000; stroke-linejoin: miter"/>
     <use xlink:href="#ma2d5b06a74" x="413.490568" y="307.55187" style="stroke: #000000; stroke-linejoin: miter"/>
    </g>
   </g>
   <g id="line2d_14">
    <path d="M 72.603295 307.8 
L 427.694205 307.8 
L 427.694205 307.8 
" clip-path="url(#p15b8a2c312)" style="fill: none; stroke: #ffeb3b; stroke-width: 2; stroke-linecap: square"/>
   </g>
   <g id="line2d_15">
    <defs>
     <path id="m9fd895378d" d="M -3 3 
L 3 3 
L 3 -3 
L -3 -3 
z
" style="stroke: #000000; stroke-linejoin: miter"/>
    </defs>
    <g clip-path="url(#p15b8a2c312)">
     <use xlink:href="#m9fd895378d" x="72.603295" y="307.8" style="fill: #ffeb3b; stroke: #000000; stroke-linejoin: miter"/>
     <use xlink:href="#m9fd895378d" x="413.490568" y="307.601496" style="fill: #ffeb3b; stroke: #000000; stroke-linejoin: miter"/>
    </g>
   </g>
   <g id="line2d_16">
    <path d="M 72.603295 307.8 
L 427.694205 307.8 
L 427.694205 307.8 
" clip-path="url(#p15b8a2c312)" style="fill: none; stroke: #ffd54f; stroke-width: 2; stroke-linecap: square"/>
   </g>
   <g id="line2d_17">
    <defs>
     <path id="md68db829cb" d="M -3 3 
L 3 3 
L 3 -3 
L -3 -3 
z
" style="stroke: #000000; stroke-linejoin: miter"/>
    </defs>
    <g clip-path="url(#p15b8a2c312)">
     <use xlink:href="#md68db829cb" x="72.603295" y="307.8" style="fill: #ffd54f; stroke: #000000; stroke-linejoin: miter"/>
     <use xlink:href="#md68db829cb" x="413.490568" y="307.671556" style="fill: #ffd54f; stroke: #000000; stroke-linejoin: miter"/>
    </g>
   </g>
   <g id="line2d_18">
    <path d="M 72.603295 307.8 
L 427.694205 307.8 
L 427.694205 307.8 
" clip-path="url(#p15b8a2c312)" style="fill: none; stroke: #ffb74d; stroke-width: 2; stroke-linecap: square"/>
   </g>
   <g id="line2d_19">
    <defs>
     <path id="mf2132761fa" d="M -3 3 
L 3 3 
L 3 -3 
L -3 -3 
z
" style="stroke: #000000; stroke-linejoin: miter"/>
    </defs>
    <g clip-path="url(#p15b8a2c312)">
     <use xlink:href="#mf2132761fa" x="72.603295" y="307.8" style="fill: #ffb74d; stroke: #000000; stroke-linejoin: miter"/>
     <use xlink:href="#mf2132761fa" x="413.490568" y="307.5869" style="fill: #ffb74d; stroke: #000000; stroke-linejoin: miter"/>
    </g>
   </g>
   <g id="line2d_20">
    <path d="M 72.603295 307.8 
L 83.966205 307.695198 
L 93.198568 307.379053 
L 113.793841 307.374601 
L 427.694205 307.374601 
L 427.694205 307.374601 
" clip-path="url(#p15b8a2c312)" style="fill: none; stroke: #ffa726; stroke-width: 2; stroke-linecap: square"/>
   </g>
   <g id="line2d_21">
    <defs>
     <path id="m3ababcf6db" d="M -3 3 
L 3 3 
L 3 -3 
L -3 -3 
z
" style="stroke: #000000; stroke-linejoin: miter"/>
    </defs>
    <g clip-path="url(#p15b8a2c312)">
     <use xlink:href="#m3ababcf6db" x="72.603295" y="307.8" style="fill: #ffa726; stroke: #000000; stroke-linejoin: miter"/>
     <use xlink:href="#m3ababcf6db" x="413.490568" y="306.07185" style="fill: #ffa726; stroke: #000000; stroke-linejoin: miter"/>
    </g>
   </g>
   <g id="line2d_22">
    <path d="M 72.603295 307.8 
L 76.154205 307.744419 
L 77.574568 307.482114 
L 80.415295 306.642377 
L 86.09675 304.5905 
L 93.90875 301.814664 
L 99.590205 300.039211 
L 104.561477 298.708215 
L 109.53275 297.609306 
L 114.504023 296.758249 
L 119.475295 296.164869 
L 123.736386 295.86452 
L 128.707659 295.755001 
L 427.694205 295.755001 
L 427.694205 295.755001 
" clip-path="url(#p15b8a2c312)" style="fill: none; stroke: #ff9800; stroke-width: 2; stroke-linecap: square"/>
   </g>
   <g id="line2d_23">
    <defs>
     <path id="m804810842c" d="M -3 3 
L 3 3 
L 3 -3 
L -3 -3 
z
" style="stroke: #000000; stroke-linejoin: miter"/>
    </defs>
    <g clip-path="url(#p15b8a2c312)">
     <use xlink:href="#m804810842c" x="72.603295" y="307.8" style="fill: #ff9800; stroke: #000000; stroke-linejoin: miter"/>
     <use xlink:href="#m804810842c" x="413.490568" y="251.748983" style="fill: #ff9800; stroke: #000000; stroke-linejoin: miter"/>
    </g>
   </g>
   <g id="line2d_24">
    <path d="M 72.603295 307.8 
L 74.733841 307.758762 
L 76.154205 307.369705 
L 78.28475 306.458529 
L 82.545841 304.305705 
L 97.459659 296.593237 
L 104.561477 293.230162 
L 110.953114 290.467572 
L 116.634568 288.261782 
L 121.605841 286.55059 
L 126.577114 285.064004 
L 131.548386 283.8185 
L 136.519659 282.826528 
L 141.490932 282.09551 
L 145.752023 281.678089 
L 150.723295 281.431817 
L 157.114932 281.403343 
L 427.694205 281.403343 
L 427.694205 281.403343 
" clip-path="url(#p15b8a2c312)" style="fill: none; stroke: #fb8c00; stroke-width: 2; stroke-linecap: square"/>
   </g>
   <g id="line2d_25">
    <defs>
     <path id="m96fa83e39f" d="M -3 3 
L 3 3 
L 3 -3 
L -3 -3 
z
" style="stroke: #000000; stroke-linejoin: miter"/>
    </defs>
    <g clip-path="url(#p15b8a2c312)">
     <use xlink:href="#m96fa83e39f" x="72.603295" y="307.8" style="fill: #fb8c00; stroke: #000000; stroke-linejoin: miter"/>
     <use xlink:href="#m96fa83e39f" x="413.490568" y="240.988916" style="fill: #fb8c00; stroke: #000000; stroke-linejoin: miter"/>
    </g>
   </g>
   <g id="line2d_26">
    <path d="M 72.603295 307.8 
L 74.023659 307.783039 
L 75.444023 307.331661 
L 77.574568 306.253572 
L 82.545841 303.385179 
L 100.300386 293.007556 
L 108.822568 288.320737 
L 115.924386 284.649644 
L 122.316023 281.574886 
L 127.997477 279.059233 
L 133.678932 276.779639 
L 138.650205 275.001414 
L 143.621477 273.443353 
L 148.59275 272.119482 
L 153.564023 271.039466 
L 158.535295 270.207771 
L 163.506568 269.62324 
L 168.477841 269.279175 
L 173.449114 269.163908 
L 427.694205 269.163828 
L 427.694205 269.163828 
" clip-path="url(#p15b8a2c312)" style="fill: none; stroke: #f57c00; stroke-width: 2; stroke-linecap: square"/>
   </g>
   <g id="line2d_27">
    <defs>
     <path id="m435310d946" d="M -3 3 
L 3 3 
L 3 -3 
L -3 -3 
z
" style="stroke: #000000; stroke-linejoin: miter"/>
    </defs>
    <g clip-path="url(#p15b8a2c312)">
     <use xlink:href="#m435310d946" x="72.603295" y="307.8" style="fill: #f57c00; stroke: #000000; stroke-linejoin: miter"/>
     <use xlink:href="#m435310d946" x="413.490568" y="214.195473" style="fill: #f57c00; stroke: #000000; stroke-linejoin: miter"/>
    </g>
   </g>
   <g id="line2d_28">
    <path d="M 72.603295 307.8 
L 74.023659 307.70082 
L 75.444023 307.046894 
L 78.994932 304.940542 
L 113.083659 283.966681 
L 122.316023 278.692124 
L 130.128023 274.478309 
L 137.229841 270.901206 
L 143.621477 267.932072 
L 149.302932 265.523576 
L 154.984386 263.357927 
L 159.955659 261.678539 
L 164.926932 260.21106 
L 169.898205 258.961202 
L 174.869477 257.929775 
L 179.84075 257.112598 
L 184.812023 256.500879 
L 190.493477 256.036975 
L 196.174932 255.80145 
L 203.27675 255.758475 
L 427.694205 255.758475 
L 427.694205 255.758475 
" clip-path="url(#p15b8a2c312)" style="fill: none; stroke: #ef6c00; stroke-width: 2; stroke-linecap: square"/>
   </g>
   <g id="line2d_29">
    <defs>
     <path id="mda374dbb34" d="M -3 3 
L 3 3 
L 3 -3 
L -3 -3 
z
" style="stroke: #000000; stroke-linejoin: miter"/>
    </defs>
    <g clip-path="url(#p15b8a2c312)">
     <use xlink:href="#mda374dbb34" x="72.603295" y="307.8" style="fill: #ef6c00; stroke: #000000; stroke-linejoin: miter"/>
     <use xlink:href="#mda374dbb34" x="413.490568" y="178.223283" style="fill: #ef6c00; stroke: #000000; stroke-linejoin: miter"/>
    </g>
   </g>
   <g id="line2d_30">
    <path d="M 72.603295 307.8 
L 73.313477 307.798447 
L 74.023659 307.580514 
L 76.154205 306.360021 
L 83.966205 301.355464 
L 108.112386 285.86732 
L 121.605841 277.481043 
L 132.258568 271.111597 
L 141.490932 265.854067 
L 149.302932 261.658775 
L 156.40475 258.095056 
L 162.796386 255.12639 
L 169.188023 252.411392 
L 174.869477 250.22754 
L 180.550932 248.268556 
L 186.232386 246.536259 
L 191.913841 245.025726 
L 197.595295 243.725877 
L 203.986932 242.495302 
L 210.378568 241.483346 
L 217.480386 240.578842 
L 225.292386 239.804316 
L 234.52475 239.121605 
L 245.177477 238.563624 
L 258.670932 238.094594 
L 276.425477 237.72068 
L 301.281841 237.437188 
L 338.921477 237.248212 
L 395.025841 237.208984 
L 427.694205 237.208984 
L 427.694205 237.208984 
" clip-path="url(#p15b8a2c312)" style="fill: none; stroke: #e65100; stroke-width: 2; stroke-linecap: square"/>
   </g>
   <g id="line2d_31">
    <defs>
     <path id="m0112852914" d="M -3 3 
L 3 3 
L 3 -3 
L -3 -3 
z
" style="stroke: #000000; stroke-linejoin: miter"/>
    </defs>
    <g clip-path="url(#p15b8a2c312)">
     <use xlink:href="#m0112852914" x="72.603295" y="307.8" style="fill: #e65100; stroke: #000000; stroke-linejoin: miter"/>
     <use xlink:href="#m0112852914" x="413.490568" y="128.261908" style="fill: #e65100; stroke: #000000; stroke-linejoin: miter"/>
    </g>
   </g>
   <g id="line2d_32">
    <path d="M 72.603295 307.8 
L 73.313477 307.759441 
L 74.733841 306.983698 
L 81.835659 302.358639 
L 118.054932 278.676973 
L 135.099295 267.804046 
L 147.882568 259.899794 
L 158.535295 253.568479 
L 167.767659 248.336634 
L 176.289841 243.767058 
L 184.101841 239.828764 
L 191.913841 236.147389 
L 199.725841 232.725816 
L 207.537841 229.552698 
L 216.060023 226.347053 
L 225.292386 223.13045 
L 235.234932 219.903507 
L 247.308023 216.228229 
L 262.221841 211.933633 
L 282.106932 206.452917 
L 311.224386 198.676055 
L 355.255659 187.163402 
L 409.229477 173.282295 
L 427.694205 168.583641 
L 427.694205 168.583641 
" clip-path="url(#p15b8a2c312)" style="fill: none; stroke: #bf360c; stroke-width: 2; stroke-linecap: square"/>
   </g>
   <g id="line2d_33">
    <defs>
     <path id="mc11f0d5845" d="M -3 3 
L 3 3 
L 3 -3 
L -3 -3 
z
" style="stroke: #000000; stroke-linejoin: miter"/>
    </defs>
    <g clip-path="url(#p15b8a2c312)">
     <use xlink:href="#mc11f0d5845" x="72.603295" y="307.8" style="fill: #bf360c; stroke: #000000; stroke-linejoin: miter"/>
     <use xlink:href="#mc11f0d5845" x="413.490568" y="144.249548" style="fill: #bf360c; stroke: #000000; stroke-linejoin: miter"/>
    </g>
   </g>
   <g id="line2d_34">
    <path d="M 72.603295 307.8 
L 73.313477 307.707621 
L 75.444023 306.39081 
L 96.749477 292.316168 
L 129.417841 270.872046 
L 148.59275 258.534776 
L 162.796386 249.646259 
L 174.869477 242.350564 
L 185.522205 236.171258 
L 195.46475 230.654883 
L 205.407295 225.389783 
L 216.060023 220.01167 
L 227.422932 214.532046 
L 240.916386 208.289504 
L 257.250568 200.991983 
L 279.976386 191.10564 
L 314.775295 176.237177 
L 369.459295 153.130197 
L 427.694205 128.722928 
L 427.694205 128.722928 
" clip-path="url(#p15b8a2c312)" style="fill: none; stroke: #a52a00; stroke-width: 2; stroke-linecap: square"/>
   </g>
   <g id="line2d_35">
    <defs>
     <path id="m897f389a01" d="M -3 3 
L 3 3 
L 3 -3 
L -3 -3 
z
" style="stroke: #000000; stroke-linejoin: miter"/>
    </defs>
    <g clip-path="url(#p15b8a2c312)">
     <use xlink:href="#m897f389a01" x="72.603295" y="307.8" style="fill: #a52a00; stroke: #000000; stroke-linejoin: miter"/>
     <use xlink:href="#m897f389a01" x="413.490568" y="119.411608" style="fill: #a52a00; stroke: #000000; stroke-linejoin: miter"/>
    </g>
   </g>
   <g id="line2d_36">
    <path d="M 72.603295 307.8 
L 73.313477 307.632427 
L 77.574568 304.844556 
L 145.041841 260.23773 
L 167.767659 245.495248 
L 184.812023 234.688975 
L 200.436023 225.047692 
L 216.060023 215.678535 
L 233.104386 205.724333 
L 255.120023 193.144695 
L 287.788386 174.762831 
L 348.864023 140.691085 
L 427.694205 96.918128 
L 427.694205 96.918128 
" clip-path="url(#p15b8a2c312)" style="fill: none; stroke: #872200; stroke-width: 2; stroke-linecap: square"/>
   </g>
   <g id="line2d_37">
    <defs>
     <path id="m4eee9d6c5a" d="M -3 3 
L 3 3 
L 3 -3 
L -3 -3 
z
" style="stroke: #000000; stroke-linejoin: miter"/>
    </defs>
    <g clip-path="url(#p15b8a2c312)">
     <use xlink:href="#m4eee9d6c5a" x="72.603295" y="307.8" style="fill: #872200; stroke: #000000; stroke-linejoin: miter"/>
     <use xlink:href="#m4eee9d6c5a" x="413.490568" y="121.98105" style="fill: #872200; stroke: #000000; stroke-linejoin: miter"/>
    </g>
   </g>
   <g id="line2d_38">
    <path d="M 72.603295 307.8 
L 73.313477 307.580432 
L 81.125477 302.406463 
L 148.59275 257.668455 
L 178.420386 238.145412 
L 200.436023 223.994116 
L 222.451659 210.114732 
L 249.438568 193.387616 
L 292.759659 166.837897 
L 389.344386 107.95914 
L 427.694205 84.626767 
L 427.694205 84.626767 
" clip-path="url(#p15b8a2c312)" style="fill: none; stroke: #5e1800; stroke-width: 2; stroke-linecap: square"/>
   </g>
   <g id="line2d_39">
    <defs>
     <path id="mc386f7c0c3" d="M -3 3 
L 3 3 
L 3 -3 
L -3 -3 
z
" style="stroke: #000000; stroke-linejoin: miter"/>
    </defs>
    <g clip-path="url(#p15b8a2c312)">
     <use xlink:href="#mc386f7c0c3" x="72.603295" y="307.8" style="fill: #5e1800; stroke: #000000; stroke-linejoin: miter"/>
     <use xlink:href="#mc386f7c0c3" x="413.490568" y="106.849891" style="fill: #5e1800; stroke: #000000; stroke-linejoin: miter"/>
    </g>
   </g>
   <g id="patch_3">
    <path d="M 54.84875 320.4 
L 54.84875 43.2 
" style="fill: none; stroke: #000000; stroke-width: 0.8; stroke-linejoin: miter; stroke-linecap: square"/>
   </g>
   <g id="patch_4">
    <path d="M 445.44875 320.4 
L 445.44875 43.2 
" style="fill: none; stroke: #000000; stroke-width: 0.8; stroke-linejoin: miter; stroke-linecap: square"/>
   </g>
   <g id="patch_5">
    <path d="M 54.84875 320.4 
L 445.44875 320.4 
" style="fill: none; stroke: #000000; stroke-width: 0.8; stroke-linejoin: miter; stroke-linecap: square"/>
   </g>
   <g id="patch_6">
    <path d="M 54.84875 43.2 
L 445.44875 43.2 
" style="fill: none; stroke: #000000; stroke-width: 0.8; stroke-linejoin: miter; stroke-linecap: square"/>
   </g>
   <g id="legend_1">
    <g id="patch_7">
     <path d="M 279.500313 462.1875 
L 438.44875 462.1875 
Q 440.44875 462.1875 440.44875 460.1875 
L 440.44875 50.2 
Q 440.44875 48.2 438.44875 48.2 
L 279.500313 48.2 
Q 277.500313 48.2 277.500313 50.2 
L 277.500313 460.1875 
Q 277.500313 462.1875 279.500313 462.1875 
z
" style="fill: #ffffff; opacity: 0.8; stroke: #cccccc; stroke-linejoin: miter"/>
    </g>
    <g id="line2d_40">
     <path d="M 281.500313 56.298437 
L 301.500313 56.298437 
" style="fill: none; stroke: #000000; stroke-width: 2; stroke-linecap: square"/>
    </g>
    <g id="line2d_41"/>
    <g id="text_14">
     <!-- Sim 0 mg -->
     <g transform="translate(309.500313 59.798437) scale(0.1 -0.1)">
      <defs>
       <path id="DejaVuSans-53" d="M 3425 4513 
L 3425 3897 
Q 3066 4069 2747 4153 
Q 2428 4238 2131 4238 
Q 1616 4238 1336 4038 
Q 1056 3838 1056 3469 
Q 1056 3159 1242 3001 
Q 1428 2844 1947 2747 
L 2328 2669 
Q 3034 2534 3370 2195 
Q 3706 1856 3706 1288 
Q 3706 609 3251 259 
Q 2797 -91 1919 -91 
Q 1588 -91 1214 -16 
Q 841 59 441 206 
L 441 856 
Q 825 641 1194 531 
Q 1563 422 1919 422 
Q 2459 422 2753 634 
Q 3047 847 3047 1241 
Q 3047 1584 2836 1778 
Q 2625 1972 2144 2069 
L 1759 2144 
Q 1053 2284 737 2584 
Q 422 2884 422 3419 
Q 422 4038 858 4394 
Q 1294 4750 2059 4750 
Q 2388 4750 2728 4690 
Q 3069 4631 3425 4513 
z
" transform="scale(0.015625)"/>
       <path id="DejaVuSans-69" d="M 603 3500 
L 1178 3500 
L 1178 0 
L 603 0 
L 603 3500 
z
M 603 4863 
L 1178 4863 
L 1178 4134 
L 603 4134 
L 603 4863 
z
" transform="scale(0.015625)"/>
       <path id="DejaVuSans-6d" d="M 3328 2828 
Q 3544 3216 3844 3400 
Q 4144 3584 4550 3584 
Q 5097 3584 5394 3201 
Q 5691 2819 5691 2113 
L 5691 0 
L 5113 0 
L 5113 2094 
Q 5113 2597 4934 2840 
Q 4756 3084 4391 3084 
Q 3944 3084 3684 2787 
Q 3425 2491 3425 1978 
L 3425 0 
L 2847 0 
L 2847 2094 
Q 2847 2600 2669 2842 
Q 2491 3084 2119 3084 
Q 1678 3084 1418 2786 
Q 1159 2488 1159 1978 
L 1159 0 
L 581 0 
L 581 3500 
L 1159 3500 
L 1159 2956 
Q 1356 3278 1631 3431 
Q 1906 3584 2284 3584 
Q 2666 3584 2933 3390 
Q 3200 3197 3328 2828 
z
" transform="scale(0.015625)"/>
       <path id="DejaVuSans-20" transform="scale(0.015625)"/>
       <path id="DejaVuSans-67" d="M 2906 1791 
Q 2906 2416 2648 2759 
Q 2391 3103 1925 3103 
Q 1463 3103 1205 2759 
Q 947 2416 947 1791 
Q 947 1169 1205 825 
Q 1463 481 1925 481 
Q 2391 481 2648 825 
Q 2906 1169 2906 1791 
z
M 3481 434 
Q 3481 -459 3084 -895 
Q 2688 -1331 1869 -1331 
Q 1566 -1331 1297 -1286 
Q 1028 -1241 775 -1147 
L 775 -588 
Q 1028 -725 1275 -790 
Q 1522 -856 1778 -856 
Q 2344 -856 2625 -561 
Q 2906 -266 2906 331 
L 2906 616 
Q 2728 306 2450 153 
Q 2172 0 1784 0 
Q 1141 0 747 490 
Q 353 981 353 1791 
Q 353 2603 747 3093 
Q 1141 3584 1784 3584 
Q 2172 3584 2450 3431 
Q 2728 3278 2906 2969 
L 2906 3500 
L 3481 3500 
L 3481 434 
z
" transform="scale(0.015625)"/>
      </defs>
      <use xlink:href="#DejaVuSans-53"/>
      <use xlink:href="#DejaVuSans-69" transform="translate(63.476562 0)"/>
      <use xlink:href="#DejaVuSans-6d" transform="translate(91.259766 0)"/>
      <use xlink:href="#DejaVuSans-20" transform="translate(188.671875 0)"/>
      <use xlink:href="#DejaVuSans-30" transform="translate(220.458984 0)"/>
      <use xlink:href="#DejaVuSans-20" transform="translate(284.082031 0)"/>
      <use xlink:href="#DejaVuSans-6d" transform="translate(315.869141 0)"/>
      <use xlink:href="#DejaVuSans-67" transform="translate(413.28125 0)"/>
     </g>
    </g>
    <g id="LineCollection_15">
     <path d="M 291.500313 75.976562 
L 291.500313 65.976562 
" style="fill: none; stroke: #000000"/>
    </g>
    <g id="line2d_42"/>
    <g id="line2d_43">
     <g>
      <use xlink:href="#ma2d5b06a74" x="291.500313" y="70.976562" style="stroke: #000000; stroke-linejoin: miter"/>
     </g>
    </g>
    <g id="text_15">
     <!-- UGE 0 mg±SD (n=22) -->
     <g transform="translate(309.500313 74.476562) scale(0.1 -0.1)">
      <defs>
       <path id="DejaVuSans-55" d="M 556 4666 
L 1191 4666 
L 1191 1831 
Q 1191 1081 1462 751 
Q 1734 422 2344 422 
Q 2950 422 3222 751 
Q 3494 1081 3494 1831 
L 3494 4666 
L 4128 4666 
L 4128 1753 
Q 4128 841 3676 375 
Q 3225 -91 2344 -91 
Q 1459 -91 1007 375 
Q 556 841 556 1753 
L 556 4666 
z
" transform="scale(0.015625)"/>
       <path id="DejaVuSans-47" d="M 3809 666 
L 3809 1919 
L 2778 1919 
L 2778 2438 
L 4434 2438 
L 4434 434 
Q 4069 175 3628 42 
Q 3188 -91 2688 -91 
Q 1594 -91 976 548 
Q 359 1188 359 2328 
Q 359 3472 976 4111 
Q 1594 4750 2688 4750 
Q 3144 4750 3555 4637 
Q 3966 4525 4313 4306 
L 4313 3634 
Q 3963 3931 3569 4081 
Q 3175 4231 2741 4231 
Q 1884 4231 1454 3753 
Q 1025 3275 1025 2328 
Q 1025 1384 1454 906 
Q 1884 428 2741 428 
Q 3075 428 3337 486 
Q 3600 544 3809 666 
z
" transform="scale(0.015625)"/>
       <path id="DejaVuSans-45" d="M 628 4666 
L 3578 4666 
L 3578 4134 
L 1259 4134 
L 1259 2753 
L 3481 2753 
L 3481 2222 
L 1259 2222 
L 1259 531 
L 3634 531 
L 3634 0 
L 628 0 
L 628 4666 
z
" transform="scale(0.015625)"/>
       <path id="DejaVuSans-b1" d="M 2944 4013 
L 2944 2803 
L 4684 2803 
L 4684 2272 
L 2944 2272 
L 2944 1063 
L 2419 1063 
L 2419 2272 
L 678 2272 
L 678 2803 
L 2419 2803 
L 2419 4013 
L 2944 4013 
z
M 678 531 
L 4684 531 
L 4684 0 
L 678 0 
L 678 531 
z
" transform="scale(0.015625)"/>
       <path id="DejaVuSans-44" d="M 1259 4147 
L 1259 519 
L 2022 519 
Q 2988 519 3436 956 
Q 3884 1394 3884 2338 
Q 3884 3275 3436 3711 
Q 2988 4147 2022 4147 
L 1259 4147 
z
M 628 4666 
L 1925 4666 
Q 3281 4666 3915 4102 
Q 4550 3538 4550 2338 
Q 4550 1131 3912 565 
Q 3275 0 1925 0 
L 628 0 
L 628 4666 
z
" transform="scale(0.015625)"/>
       <path id="DejaVuSans-28" d="M 1984 4856 
Q 1566 4138 1362 3434 
Q 1159 2731 1159 2009 
Q 1159 1288 1364 580 
Q 1569 -128 1984 -844 
L 1484 -844 
Q 1016 -109 783 600 
Q 550 1309 550 2009 
Q 550 2706 781 3412 
Q 1013 4119 1484 4856 
L 1984 4856 
z
" transform="scale(0.015625)"/>
       <path id="DejaVuSans-6e" d="M 3513 2113 
L 3513 0 
L 2938 0 
L 2938 2094 
Q 2938 2591 2744 2837 
Q 2550 3084 2163 3084 
Q 1697 3084 1428 2787 
Q 1159 2491 1159 1978 
L 1159 0 
L 581 0 
L 581 3500 
L 1159 3500 
L 1159 2956 
Q 1366 3272 1645 3428 
Q 1925 3584 2291 3584 
Q 2894 3584 3203 3211 
Q 3513 2838 3513 2113 
z
" transform="scale(0.015625)"/>
       <path id="DejaVuSans-3d" d="M 678 2906 
L 4684 2906 
L 4684 2381 
L 678 2381 
L 678 2906 
z
M 678 1631 
L 4684 1631 
L 4684 1100 
L 678 1100 
L 678 1631 
z
" transform="scale(0.015625)"/>
       <path id="DejaVuSans-29" d="M 513 4856 
L 1013 4856 
Q 1481 4119 1714 3412 
Q 1947 2706 1947 2009 
Q 1947 1309 1714 600 
Q 1481 -109 1013 -844 
L 513 -844 
Q 928 -128 1133 580 
Q 1338 1288 1338 2009 
Q 1338 2731 1133 3434 
Q 928 4138 513 4856 
z
" transform="scale(0.015625)"/>
      </defs>
      <use xlink:href="#DejaVuSans-55"/>
      <use xlink:href="#DejaVuSans-47" transform="translate(73.193359 0)"/>
      <use xlink:href="#DejaVuSans-45" transform="translate(150.683594 0)"/>
      <use xlink:href="#DejaVuSans-20" transform="translate(213.867188 0)"/>
      <use xlink:href="#DejaVuSans-30" transform="translate(245.654297 0)"/>
      <use xlink:href="#DejaVuSans-20" transform="translate(309.277344 0)"/>
      <use xlink:href="#DejaVuSans-6d" transform="translate(341.064453 0)"/>
      <use xlink:href="#DejaVuSans-67" transform="translate(438.476562 0)"/>
      <use xlink:href="#DejaVuSans-b1" transform="translate(501.953125 0)"/>
      <use xlink:href="#DejaVuSans-53" transform="translate(585.742188 0)"/>
      <use xlink:href="#DejaVuSans-44" transform="translate(649.21875 0)"/>
      <use xlink:href="#DejaVuSans-20" transform="translate(726.220703 0)"/>
      <use xlink:href="#DejaVuSans-28" transform="translate(758.007812 0)"/>
      <use xlink:href="#DejaVuSans-6e" transform="translate(797.021484 0)"/>
      <use xlink:href="#DejaVuSans-3d" transform="translate(860.400391 0)"/>
      <use xlink:href="#DejaVuSans-32" transform="translate(944.189453 0)"/>
      <use xlink:href="#DejaVuSans-32" transform="translate(1007.8125 0)"/>
      <use xlink:href="#DejaVuSans-29" transform="translate(1071.435547 0)"/>
     </g>
    </g>
    <g id="line2d_44">
     <path d="M 281.500313 85.654687 
L 301.500313 85.654687 
" style="fill: none; stroke: #ffeb3b; stroke-width: 2; stroke-linecap: square"/>
    </g>
    <g id="line2d_45"/>
    <g id="text_16">
     <!-- Sim 0.001 mg -->
     <g transform="translate(309.500313 89.154687) scale(0.1 -0.1)">
      <defs>
       <path id="DejaVuSans-2e" d="M 684 794 
L 1344 794 
L 1344 0 
L 684 0 
L 684 794 
z
" transform="scale(0.015625)"/>
      </defs>
      <use xlink:href="#DejaVuSans-53"/>
      <use xlink:href="#DejaVuSans-69" transform="translate(63.476562 0)"/>
      <use xlink:href="#DejaVuSans-6d" transform="translate(91.259766 0)"/>
      <use xlink:href="#DejaVuSans-20" transform="translate(188.671875 0)"/>
      <use xlink:href="#DejaVuSans-30" transform="translate(220.458984 0)"/>
      <use xlink:href="#DejaVuSans-2e" transform="translate(284.082031 0)"/>
      <use xlink:href="#DejaVuSans-30" transform="translate(315.869141 0)"/>
      <use xlink:href="#DejaVuSans-30" transform="translate(379.492188 0)"/>
      <use xlink:href="#DejaVuSans-31" transform="translate(443.115234 0)"/>
      <use xlink:href="#DejaVuSans-20" transform="translate(506.738281 0)"/>
      <use xlink:href="#DejaVuSans-6d" transform="translate(538.525391 0)"/>
      <use xlink:href="#DejaVuSans-67" transform="translate(635.9375 0)"/>
     </g>
    </g>
    <g id="LineCollection_16">
     <path d="M 291.500313 105.332812 
L 291.500313 95.332812 
" style="fill: none; stroke: #ffeb3b"/>
    </g>
    <g id="line2d_46"/>
    <g id="line2d_47">
     <g>
      <use xlink:href="#m9fd895378d" x="291.500313" y="100.332812" style="fill: #ffeb3b; stroke: #000000; stroke-linejoin: miter"/>
     </g>
    </g>
    <g id="text_17">
     <!-- UGE 0.001 mg±SD (n=5) -->
     <g transform="translate(309.500313 103.832812) scale(0.1 -0.1)">
      <use xlink:href="#DejaVuSans-55"/>
      <use xlink:href="#DejaVuSans-47" transform="translate(73.193359 0)"/>
      <use xlink:href="#DejaVuSans-45" transform="translate(150.683594 0)"/>
      <use xlink:href="#DejaVuSans-20" transform="translate(213.867188 0)"/>
      <use xlink:href="#DejaVuSans-30" transform="translate(245.654297 0)"/>
      <use xlink:href="#DejaVuSans-2e" transform="translate(309.277344 0)"/>
      <use xlink:href="#DejaVuSans-30" transform="translate(341.064453 0)"/>
      <use xlink:href="#DejaVuSans-30" transform="translate(404.6875 0)"/>
      <use xlink:href="#DejaVuSans-31" transform="translate(468.310547 0)"/>
      <use xlink:href="#DejaVuSans-20" transform="translate(531.933594 0)"/>
      <use xlink:href="#DejaVuSans-6d" transform="translate(563.720703 0)"/>
      <use xlink:href="#DejaVuSans-67" transform="translate(661.132812 0)"/>
      <use xlink:href="#DejaVuSans-b1" transform="translate(724.609375 0)"/>
      <use xlink:href="#DejaVuSans-53" transform="translate(808.398438 0)"/>
      <use xlink:href="#DejaVuSans-44" transform="translate(871.875 0)"/>
      <use xlink:href="#DejaVuSans-20" transform="translate(948.876953 0)"/>
      <use xlink:href="#DejaVuSans-28" transform="translate(980.664062 0)"/>
      <use xlink:href="#DejaVuSans-6e" transform="translate(1019.677734 0)"/>
      <use xlink:href="#DejaVuSans-3d" transform="translate(1083.056641 0)"/>
      <use xlink:href="#DejaVuSans-35" transform="translate(1166.845703 0)"/>
      <use xlink:href="#DejaVuSans-29" transform="translate(1230.46875 0)"/>
     </g>
    </g>
    <g id="line2d_48">
     <path d="M 281.500313 115.010938 
L 301.500313 115.010938 
" style="fill: none; stroke: #ffd54f; stroke-width: 2; stroke-linecap: square"/>
    </g>
    <g id="line2d_49"/>
    <g id="text_18">
     <!-- Sim 0.01 mg -->
     <g transform="translate(309.500313 118.510938) scale(0.1 -0.1)">
      <use xlink:href="#DejaVuSans-53"/>
      <use xlink:href="#DejaVuSans-69" transform="translate(63.476562 0)"/>
      <use xlink:href="#DejaVuSans-6d" transform="translate(91.259766 0)"/>
      <use xlink:href="#DejaVuSans-20" transform="translate(188.671875 0)"/>
      <use xlink:href="#DejaVuSans-30" transform="translate(220.458984 0)"/>
      <use xlink:href="#DejaVuSans-2e" transform="translate(284.082031 0)"/>
      <use xlink:href="#DejaVuSans-30" transform="translate(315.869141 0)"/>
      <use xlink:href="#DejaVuSans-31" transform="translate(379.492188 0)"/>
      <use xlink:href="#DejaVuSans-20" transform="translate(443.115234 0)"/>
      <use xlink:href="#DejaVuSans-6d" transform="translate(474.902344 0)"/>
      <use xlink:href="#DejaVuSans-67" transform="translate(572.314453 0)"/>
     </g>
    </g>
    <g id="LineCollection_17">
     <path d="M 291.500313 134.689062 
L 291.500313 124.689062 
" style="fill: none; stroke: #ffd54f"/>
    </g>
    <g id="line2d_50"/>
    <g id="line2d_51">
     <g>
      <use xlink:href="#md68db829cb" x="291.500313" y="129.689062" style="fill: #ffd54f; stroke: #000000; stroke-linejoin: miter"/>
     </g>
    </g>
    <g id="text_19">
     <!-- UGE 0.01 mg±SD (n=5) -->
     <g transform="translate(309.500313 133.189062) scale(0.1 -0.1)">
      <use xlink:href="#DejaVuSans-55"/>
      <use xlink:href="#DejaVuSans-47" transform="translate(73.193359 0)"/>
      <use xlink:href="#DejaVuSans-45" transform="translate(150.683594 0)"/>
      <use xlink:href="#DejaVuSans-20" transform="translate(213.867188 0)"/>
      <use xlink:href="#DejaVuSans-30" transform="translate(245.654297 0)"/>
      <use xlink:href="#DejaVuSans-2e" transform="translate(309.277344 0)"/>
      <use xlink:href="#DejaVuSans-30" transform="translate(341.064453 0)"/>
      <use xlink:href="#DejaVuSans-31" transform="translate(404.6875 0)"/>
      <use xlink:href="#DejaVuSans-20" transform="translate(468.310547 0)"/>
      <use xlink:href="#DejaVuSans-6d" transform="translate(500.097656 0)"/>
      <use xlink:href="#DejaVuSans-67" transform="translate(597.509766 0)"/>
      <use xlink:href="#DejaVuSans-b1" transform="translate(660.986328 0)"/>
      <use xlink:href="#DejaVuSans-53" transform="translate(744.775391 0)"/>
      <use xlink:href="#DejaVuSans-44" transform="translate(808.251953 0)"/>
      <use xlink:href="#DejaVuSans-20" transform="translate(885.253906 0)"/>
      <use xlink:href="#DejaVuSans-28" transform="translate(917.041016 0)"/>
      <use xlink:href="#DejaVuSans-6e" transform="translate(956.054688 0)"/>
      <use xlink:href="#DejaVuSans-3d" transform="translate(1019.433594 0)"/>
      <use xlink:href="#DejaVuSans-35" transform="translate(1103.222656 0)"/>
      <use xlink:href="#DejaVuSans-29" transform="translate(1166.845703 0)"/>
     </g>
    </g>
    <g id="line2d_52">
     <path d="M 281.500313 144.367188 
L 301.500313 144.367188 
" style="fill: none; stroke: #ffb74d; stroke-width: 2; stroke-linecap: square"/>
    </g>
    <g id="line2d_53"/>
    <g id="text_20">
     <!-- Sim 0.1 mg -->
     <g transform="translate(309.500313 147.867188) scale(0.1 -0.1)">
      <use xlink:href="#DejaVuSans-53"/>
      <use xlink:href="#DejaVuSans-69" transform="translate(63.476562 0)"/>
      <use xlink:href="#DejaVuSans-6d" transform="translate(91.259766 0)"/>
      <use xlink:href="#DejaVuSans-20" transform="translate(188.671875 0)"/>
      <use xlink:href="#DejaVuSans-30" transform="translate(220.458984 0)"/>
      <use xlink:href="#DejaVuSans-2e" transform="translate(284.082031 0)"/>
      <use xlink:href="#DejaVuSans-31" transform="translate(315.869141 0)"/>
      <use xlink:href="#DejaVuSans-20" transform="translate(379.492188 0)"/>
      <use xlink:href="#DejaVuSans-6d" transform="translate(411.279297 0)"/>
      <use xlink:href="#DejaVuSans-67" transform="translate(508.691406 0)"/>
     </g>
    </g>
    <g id="LineCollection_18">
     <path d="M 291.500313 164.045312 
L 291.500313 154.045312 
" style="fill: none; stroke: #ffb74d"/>
    </g>
    <g id="line2d_54"/>
    <g id="line2d_55">
     <g>
      <use xlink:href="#mf2132761fa" x="291.500313" y="159.045312" style="fill: #ffb74d; stroke: #000000; stroke-linejoin: miter"/>
     </g>
    </g>
    <g id="text_21">
     <!-- UGE 0.1 mg±SD (n=5) -->
     <g transform="translate(309.500313 162.545312) scale(0.1 -0.1)">
      <use xlink:href="#DejaVuSans-55"/>
      <use xlink:href="#DejaVuSans-47" transform="translate(73.193359 0)"/>
      <use xlink:href="#DejaVuSans-45" transform="translate(150.683594 0)"/>
      <use xlink:href="#DejaVuSans-20" transform="translate(213.867188 0)"/>
      <use xlink:href="#DejaVuSans-30" transform="translate(245.654297 0)"/>
      <use xlink:href="#DejaVuSans-2e" transform="translate(309.277344 0)"/>
      <use xlink:href="#DejaVuSans-31" transform="translate(341.064453 0)"/>
      <use xlink:href="#DejaVuSans-20" transform="translate(404.6875 0)"/>
      <use xlink:href="#DejaVuSans-6d" transform="translate(436.474609 0)"/>
      <use xlink:href="#DejaVuSans-67" transform="translate(533.886719 0)"/>
      <use xlink:href="#DejaVuSans-b1" transform="translate(597.363281 0)"/>
      <use xlink:href="#DejaVuSans-53" transform="translate(681.152344 0)"/>
      <use xlink:href="#DejaVuSans-44" transform="translate(744.628906 0)"/>
      <use xlink:href="#DejaVuSans-20" transform="translate(821.630859 0)"/>
      <use xlink:href="#DejaVuSans-28" transform="translate(853.417969 0)"/>
      <use xlink:href="#DejaVuSans-6e" transform="translate(892.431641 0)"/>
      <use xlink:href="#DejaVuSans-3d" transform="translate(955.810547 0)"/>
      <use xlink:href="#DejaVuSans-35" transform="translate(1039.599609 0)"/>
      <use xlink:href="#DejaVuSans-29" transform="translate(1103.222656 0)"/>
     </g>
    </g>
    <g id="line2d_56">
     <path d="M 281.500313 173.723437 
L 301.500313 173.723437 
" style="fill: none; stroke: #ffa726; stroke-width: 2; stroke-linecap: square"/>
    </g>
    <g id="line2d_57"/>
    <g id="text_22">
     <!-- Sim 0.3 mg -->
     <g transform="translate(309.500313 177.223437) scale(0.1 -0.1)">
      <defs>
       <path id="DejaVuSans-33" d="M 2597 2516 
Q 3050 2419 3304 2112 
Q 3559 1806 3559 1356 
Q 3559 666 3084 287 
Q 2609 -91 1734 -91 
Q 1441 -91 1130 -33 
Q 819 25 488 141 
L 488 750 
Q 750 597 1062 519 
Q 1375 441 1716 441 
Q 2309 441 2620 675 
Q 2931 909 2931 1356 
Q 2931 1769 2642 2001 
Q 2353 2234 1838 2234 
L 1294 2234 
L 1294 2753 
L 1863 2753 
Q 2328 2753 2575 2939 
Q 2822 3125 2822 3475 
Q 2822 3834 2567 4026 
Q 2313 4219 1838 4219 
Q 1578 4219 1281 4162 
Q 984 4106 628 3988 
L 628 4550 
Q 988 4650 1302 4700 
Q 1616 4750 1894 4750 
Q 2613 4750 3031 4423 
Q 3450 4097 3450 3541 
Q 3450 3153 3228 2886 
Q 3006 2619 2597 2516 
z
" transform="scale(0.015625)"/>
      </defs>
      <use xlink:href="#DejaVuSans-53"/>
      <use xlink:href="#DejaVuSans-69" transform="translate(63.476562 0)"/>
      <use xlink:href="#DejaVuSans-6d" transform="translate(91.259766 0)"/>
      <use xlink:href="#DejaVuSans-20" transform="translate(188.671875 0)"/>
      <use xlink:href="#DejaVuSans-30" transform="translate(220.458984 0)"/>
      <use xlink:href="#DejaVuSans-2e" transform="translate(284.082031 0)"/>
      <use xlink:href="#DejaVuSans-33" transform="translate(315.869141 0)"/>
      <use xlink:href="#DejaVuSans-20" transform="translate(379.492188 0)"/>
      <use xlink:href="#DejaVuSans-6d" transform="translate(411.279297 0)"/>
      <use xlink:href="#DejaVuSans-67" transform="translate(508.691406 0)"/>
     </g>
    </g>
    <g id="LineCollection_19">
     <path d="M 291.500313 193.401562 
L 291.500313 183.401562 
" style="fill: none; stroke: #ffa726"/>
    </g>
    <g id="line2d_58"/>
    <g id="line2d_59">
     <g>
      <use xlink:href="#m3ababcf6db" x="291.500313" y="188.401562" style="fill: #ffa726; stroke: #000000; stroke-linejoin: miter"/>
     </g>
    </g>
    <g id="text_23">
     <!-- UGE 0.3 mg±SD (n=6) -->
     <g transform="translate(309.500313 191.901562) scale(0.1 -0.1)">
      <use xlink:href="#DejaVuSans-55"/>
      <use xlink:href="#DejaVuSans-47" transform="translate(73.193359 0)"/>
      <use xlink:href="#DejaVuSans-45" transform="translate(150.683594 0)"/>
      <use xlink:href="#DejaVuSans-20" transform="translate(213.867188 0)"/>
      <use xlink:href="#DejaVuSans-30" transform="translate(245.654297 0)"/>
      <use xlink:href="#DejaVuSans-2e" transform="translate(309.277344 0)"/>
      <use xlink:href="#DejaVuSans-33" transform="translate(341.064453 0)"/>
      <use xlink:href="#DejaVuSans-20" transform="translate(404.6875 0)"/>
      <use xlink:href="#DejaVuSans-6d" transform="translate(436.474609 0)"/>
      <use xlink:href="#DejaVuSans-67" transform="translate(533.886719 0)"/>
      <use xlink:href="#DejaVuSans-b1" transform="translate(597.363281 0)"/>
      <use xlink:href="#DejaVuSans-53" transform="translate(681.152344 0)"/>
      <use xlink:href="#DejaVuSans-44" transform="translate(744.628906 0)"/>
      <use xlink:href="#DejaVuSans-20" transform="translate(821.630859 0)"/>
      <use xlink:href="#DejaVuSans-28" transform="translate(853.417969 0)"/>
      <use xlink:href="#DejaVuSans-6e" transform="translate(892.431641 0)"/>
      <use xlink:href="#DejaVuSans-3d" transform="translate(955.810547 0)"/>
      <use xlink:href="#DejaVuSans-36" transform="translate(1039.599609 0)"/>
      <use xlink:href="#DejaVuSans-29" transform="translate(1103.222656 0)"/>
     </g>
    </g>
    <g id="line2d_60">
     <path d="M 281.500313 203.079687 
L 301.500313 203.079687 
" style="fill: none; stroke: #ff9800; stroke-width: 2; stroke-linecap: square"/>
    </g>
    <g id="line2d_61"/>
    <g id="text_24">
     <!-- Sim 1 mg -->
     <g transform="translate(309.500313 206.579687) scale(0.1 -0.1)">
      <use xlink:href="#DejaVuSans-53"/>
      <use xlink:href="#DejaVuSans-69" transform="translate(63.476562 0)"/>
      <use xlink:href="#DejaVuSans-6d" transform="translate(91.259766 0)"/>
      <use xlink:href="#DejaVuSans-20" transform="translate(188.671875 0)"/>
      <use xlink:href="#DejaVuSans-31" transform="translate(220.458984 0)"/>
      <use xlink:href="#DejaVuSans-20" transform="translate(284.082031 0)"/>
      <use xlink:href="#DejaVuSans-6d" transform="translate(315.869141 0)"/>
      <use xlink:href="#DejaVuSans-67" transform="translate(413.28125 0)"/>
     </g>
    </g>
    <g id="LineCollection_20">
     <path d="M 291.500313 222.757812 
L 291.500313 212.757812 
" style="fill: none; stroke: #ff9800"/>
    </g>
    <g id="line2d_62"/>
    <g id="line2d_63">
     <g>
      <use xlink:href="#m804810842c" x="291.500313" y="217.757812" style="fill: #ff9800; stroke: #000000; stroke-linejoin: miter"/>
     </g>
    </g>
    <g id="text_25">
     <!-- UGE 1 mg±SD (n=6) -->
     <g transform="translate(309.500313 221.257812) scale(0.1 -0.1)">
      <use xlink:href="#DejaVuSans-55"/>
      <use xlink:href="#DejaVuSans-47" transform="translate(73.193359 0)"/>
      <use xlink:href="#DejaVuSans-45" transform="translate(150.683594 0)"/>
      <use xlink:href="#DejaVuSans-20" transform="translate(213.867188 0)"/>
      <use xlink:href="#DejaVuSans-31" transform="translate(245.654297 0)"/>
      <use xlink:href="#DejaVuSans-20" transform="translate(309.277344 0)"/>
      <use xlink:href="#DejaVuSans-6d" transform="translate(341.064453 0)"/>
      <use xlink:href="#DejaVuSans-67" transform="translate(438.476562 0)"/>
      <use xlink:href="#DejaVuSans-b1" transform="translate(501.953125 0)"/>
      <use xlink:href="#DejaVuSans-53" transform="translate(585.742188 0)"/>
      <use xlink:href="#DejaVuSans-44" transform="translate(649.21875 0)"/>
      <use xlink:href="#DejaVuSans-20" transform="translate(726.220703 0)"/>
      <use xlink:href="#DejaVuSans-28" transform="translate(758.007812 0)"/>
      <use xlink:href="#DejaVuSans-6e" transform="translate(797.021484 0)"/>
      <use xlink:href="#DejaVuSans-3d" transform="translate(860.400391 0)"/>
      <use xlink:href="#DejaVuSans-36" transform="translate(944.189453 0)"/>
      <use xlink:href="#DejaVuSans-29" transform="translate(1007.8125 0)"/>
     </g>
    </g>
    <g id="line2d_64">
     <path d="M 281.500313 232.435937 
L 301.500313 232.435937 
" style="fill: none; stroke: #fb8c00; stroke-width: 2; stroke-linecap: square"/>
    </g>
    <g id="line2d_65"/>
    <g id="text_26">
     <!-- Sim 2.5 mg -->
     <g transform="translate(309.500313 235.935937) scale(0.1 -0.1)">
      <use xlink:href="#DejaVuSans-53"/>
      <use xlink:href="#DejaVuSans-69" transform="translate(63.476562 0)"/>
      <use xlink:href="#DejaVuSans-6d" transform="translate(91.259766 0)"/>
      <use xlink:href="#DejaVuSans-20" transform="translate(188.671875 0)"/>
      <use xlink:href="#DejaVuSans-32" transform="translate(220.458984 0)"/>
      <use xlink:href="#DejaVuSans-2e" transform="translate(284.082031 0)"/>
      <use xlink:href="#DejaVuSans-35" transform="translate(315.869141 0)"/>
      <use xlink:href="#DejaVuSans-20" transform="translate(379.492188 0)"/>
      <use xlink:href="#DejaVuSans-6d" transform="translate(411.279297 0)"/>
      <use xlink:href="#DejaVuSans-67" transform="translate(508.691406 0)"/>
     </g>
    </g>
    <g id="LineCollection_21">
     <path d="M 291.500313 252.114062 
L 291.500313 242.114062 
" style="fill: none; stroke: #fb8c00"/>
    </g>
    <g id="line2d_66"/>
    <g id="line2d_67">
     <g>
      <use xlink:href="#m96fa83e39f" x="291.500313" y="247.114062" style="fill: #fb8c00; stroke: #000000; stroke-linejoin: miter"/>
     </g>
    </g>
    <g id="text_27">
     <!-- UGE 2.5 mg±SD (n=6) -->
     <g transform="translate(309.500313 250.614062) scale(0.1 -0.1)">
      <use xlink:href="#DejaVuSans-55"/>
      <use xlink:href="#DejaVuSans-47" transform="translate(73.193359 0)"/>
      <use xlink:href="#DejaVuSans-45" transform="translate(150.683594 0)"/>
      <use xlink:href="#DejaVuSans-20" transform="translate(213.867188 0)"/>
      <use xlink:href="#DejaVuSans-32" transform="translate(245.654297 0)"/>
      <use xlink:href="#DejaVuSans-2e" transform="translate(309.277344 0)"/>
      <use xlink:href="#DejaVuSans-35" transform="translate(341.064453 0)"/>
      <use xlink:href="#DejaVuSans-20" transform="translate(404.6875 0)"/>
      <use xlink:href="#DejaVuSans-6d" transform="translate(436.474609 0)"/>
      <use xlink:href="#DejaVuSans-67" transform="translate(533.886719 0)"/>
      <use xlink:href="#DejaVuSans-b1" transform="translate(597.363281 0)"/>
      <use xlink:href="#DejaVuSans-53" transform="translate(681.152344 0)"/>
      <use xlink:href="#DejaVuSans-44" transform="translate(744.628906 0)"/>
      <use xlink:href="#DejaVuSans-20" transform="translate(821.630859 0)"/>
      <use xlink:href="#DejaVuSans-28" transform="translate(853.417969 0)"/>
      <use xlink:href="#DejaVuSans-6e" transform="translate(892.431641 0)"/>
      <use xlink:href="#DejaVuSans-3d" transform="translate(955.810547 0)"/>
      <use xlink:href="#DejaVuSans-36" transform="translate(1039.599609 0)"/>
      <use xlink:href="#DejaVuSans-29" transform="translate(1103.222656 0)"/>
     </g>
    </g>
    <g id="line2d_68">
     <path d="M 281.500313 261.792187 
L 301.500313 261.792187 
" style="fill: none; stroke: #f57c00; stroke-width: 2; stroke-linecap: square"/>
    </g>
    <g id="line2d_69"/>
    <g id="text_28">
     <!-- Sim 5 mg -->
     <g transform="translate(309.500313 265.292187) scale(0.1 -0.1)">
      <use xlink:href="#DejaVuSans-53"/>
      <use xlink:href="#DejaVuSans-69" transform="translate(63.476562 0)"/>
      <use xlink:href="#DejaVuSans-6d" transform="translate(91.259766 0)"/>
      <use xlink:href="#DejaVuSans-20" transform="translate(188.671875 0)"/>
      <use xlink:href="#DejaVuSans-35" transform="translate(220.458984 0)"/>
      <use xlink:href="#DejaVuSans-20" transform="translate(284.082031 0)"/>
      <use xlink:href="#DejaVuSans-6d" transform="translate(315.869141 0)"/>
      <use xlink:href="#DejaVuSans-67" transform="translate(413.28125 0)"/>
     </g>
    </g>
    <g id="LineCollection_22">
     <path d="M 291.500313 281.470312 
L 291.500313 271.470312 
" style="fill: none; stroke: #f57c00"/>
    </g>
    <g id="line2d_70"/>
    <g id="line2d_71">
     <g>
      <use xlink:href="#m435310d946" x="291.500313" y="276.470312" style="fill: #f57c00; stroke: #000000; stroke-linejoin: miter"/>
     </g>
    </g>
    <g id="text_29">
     <!-- UGE 5 mg±SD (n=6) -->
     <g transform="translate(309.500313 279.970312) scale(0.1 -0.1)">
      <use xlink:href="#DejaVuSans-55"/>
      <use xlink:href="#DejaVuSans-47" transform="translate(73.193359 0)"/>
      <use xlink:href="#DejaVuSans-45" transform="translate(150.683594 0)"/>
      <use xlink:href="#DejaVuSans-20" transform="translate(213.867188 0)"/>
      <use xlink:href="#DejaVuSans-35" transform="translate(245.654297 0)"/>
      <use xlink:href="#DejaVuSans-20" transform="translate(309.277344 0)"/>
      <use xlink:href="#DejaVuSans-6d" transform="translate(341.064453 0)"/>
      <use xlink:href="#DejaVuSans-67" transform="translate(438.476562 0)"/>
      <use xlink:href="#DejaVuSans-b1" transform="translate(501.953125 0)"/>
      <use xlink:href="#DejaVuSans-53" transform="translate(585.742188 0)"/>
      <use xlink:href="#DejaVuSans-44" transform="translate(649.21875 0)"/>
      <use xlink:href="#DejaVuSans-20" transform="translate(726.220703 0)"/>
      <use xlink:href="#DejaVuSans-28" transform="translate(758.007812 0)"/>
      <use xlink:href="#DejaVuSans-6e" transform="translate(797.021484 0)"/>
      <use xlink:href="#DejaVuSans-3d" transform="translate(860.400391 0)"/>
      <use xlink:href="#DejaVuSans-36" transform="translate(944.189453 0)"/>
      <use xlink:href="#DejaVuSans-29" transform="translate(1007.8125 0)"/>
     </g>
    </g>
    <g id="line2d_72">
     <path d="M 281.500313 291.148437 
L 301.500313 291.148437 
" style="fill: none; stroke: #ef6c00; stroke-width: 2; stroke-linecap: square"/>
    </g>
    <g id="line2d_73"/>
    <g id="text_30">
     <!-- Sim 10 mg -->
     <g transform="translate(309.500313 294.648437) scale(0.1 -0.1)">
      <use xlink:href="#DejaVuSans-53"/>
      <use xlink:href="#DejaVuSans-69" transform="translate(63.476562 0)"/>
      <use xlink:href="#DejaVuSans-6d" transform="translate(91.259766 0)"/>
      <use xlink:href="#DejaVuSans-20" transform="translate(188.671875 0)"/>
      <use xlink:href="#DejaVuSans-31" transform="translate(220.458984 0)"/>
      <use xlink:href="#DejaVuSans-30" transform="translate(284.082031 0)"/>
      <use xlink:href="#DejaVuSans-20" transform="translate(347.705078 0)"/>
      <use xlink:href="#DejaVuSans-6d" transform="translate(379.492188 0)"/>
      <use xlink:href="#DejaVuSans-67" transform="translate(476.904297 0)"/>
     </g>
    </g>
    <g id="LineCollection_23">
     <path d="M 291.500313 310.826562 
L 291.500313 300.826562 
" style="fill: none; stroke: #ef6c00"/>
    </g>
    <g id="line2d_74"/>
    <g id="line2d_75">
     <g>
      <use xlink:href="#mda374dbb34" x="291.500313" y="305.826562" style="fill: #ef6c00; stroke: #000000; stroke-linejoin: miter"/>
     </g>
    </g>
    <g id="text_31">
     <!-- UGE 10 mg±SD (n=6) -->
     <g transform="translate(309.500313 309.326562) scale(0.1 -0.1)">
      <use xlink:href="#DejaVuSans-55"/>
      <use xlink:href="#DejaVuSans-47" transform="translate(73.193359 0)"/>
      <use xlink:href="#DejaVuSans-45" transform="translate(150.683594 0)"/>
      <use xlink:href="#DejaVuSans-20" transform="translate(213.867188 0)"/>
      <use xlink:href="#DejaVuSans-31" transform="translate(245.654297 0)"/>
      <use xlink:href="#DejaVuSans-30" transform="translate(309.277344 0)"/>
      <use xlink:href="#DejaVuSans-20" transform="translate(372.900391 0)"/>
      <use xlink:href="#DejaVuSans-6d" transform="translate(404.6875 0)"/>
      <use xlink:href="#DejaVuSans-67" transform="translate(502.099609 0)"/>
      <use xlink:href="#DejaVuSans-b1" transform="translate(565.576172 0)"/>
      <use xlink:href="#DejaVuSans-53" transform="translate(649.365234 0)"/>
      <use xlink:href="#DejaVuSans-44" transform="translate(712.841797 0)"/>
      <use xlink:href="#DejaVuSans-20" transform="translate(789.84375 0)"/>
      <use xlink:href="#DejaVuSans-28" transform="translate(821.630859 0)"/>
      <use xlink:href="#DejaVuSans-6e" transform="translate(860.644531 0)"/>
      <use xlink:href="#DejaVuSans-3d" transform="translate(924.023438 0)"/>
      <use xlink:href="#DejaVuSans-36" transform="translate(1007.8125 0)"/>
      <use xlink:href="#DejaVuSans-29" transform="translate(1071.435547 0)"/>
     </g>
    </g>
    <g id="line2d_76">
     <path d="M 281.500313 320.504687 
L 301.500313 320.504687 
" style="fill: none; stroke: #e65100; stroke-width: 2; stroke-linecap: square"/>
    </g>
    <g id="line2d_77"/>
    <g id="text_32">
     <!-- Sim 20 mg -->
     <g transform="translate(309.500313 324.004687) scale(0.1 -0.1)">
      <use xlink:href="#DejaVuSans-53"/>
      <use xlink:href="#DejaVuSans-69" transform="translate(63.476562 0)"/>
      <use xlink:href="#DejaVuSans-6d" transform="translate(91.259766 0)"/>
      <use xlink:href="#DejaVuSans-20" transform="translate(188.671875 0)"/>
      <use xlink:href="#DejaVuSans-32" transform="translate(220.458984 0)"/>
      <use xlink:href="#DejaVuSans-30" transform="translate(284.082031 0)"/>
      <use xlink:href="#DejaVuSans-20" transform="translate(347.705078 0)"/>
      <use xlink:href="#DejaVuSans-6d" transform="translate(379.492188 0)"/>
      <use xlink:href="#DejaVuSans-67" transform="translate(476.904297 0)"/>
     </g>
    </g>
    <g id="LineCollection_24">
     <path d="M 291.500313 340.182812 
L 291.500313 330.182812 
" style="fill: none; stroke: #e65100"/>
    </g>
    <g id="line2d_78"/>
    <g id="line2d_79">
     <g>
      <use xlink:href="#m0112852914" x="291.500313" y="335.182812" style="fill: #e65100; stroke: #000000; stroke-linejoin: miter"/>
     </g>
    </g>
    <g id="text_33">
     <!-- UGE 20 mg±SD (n=6) -->
     <g transform="translate(309.500313 338.682812) scale(0.1 -0.1)">
      <use xlink:href="#DejaVuSans-55"/>
      <use xlink:href="#DejaVuSans-47" transform="translate(73.193359 0)"/>
      <use xlink:href="#DejaVuSans-45" transform="translate(150.683594 0)"/>
      <use xlink:href="#DejaVuSans-20" transform="translate(213.867188 0)"/>
      <use xlink:href="#DejaVuSans-32" transform="translate(245.654297 0)"/>
      <use xlink:href="#DejaVuSans-30" transform="translate(309.277344 0)"/>
      <use xlink:href="#DejaVuSans-20" transform="translate(372.900391 0)"/>
      <use xlink:href="#DejaVuSans-6d" transform="translate(404.6875 0)"/>
      <use xlink:href="#DejaVuSans-67" transform="translate(502.099609 0)"/>
      <use xlink:href="#DejaVuSans-b1" transform="translate(565.576172 0)"/>
      <use xlink:href="#DejaVuSans-53" transform="translate(649.365234 0)"/>
      <use xlink:href="#DejaVuSans-44" transform="translate(712.841797 0)"/>
      <use xlink:href="#DejaVuSans-20" transform="translate(789.84375 0)"/>
      <use xlink:href="#DejaVuSans-28" transform="translate(821.630859 0)"/>
      <use xlink:href="#DejaVuSans-6e" transform="translate(860.644531 0)"/>
      <use xlink:href="#DejaVuSans-3d" transform="translate(924.023438 0)"/>
      <use xlink:href="#DejaVuSans-36" transform="translate(1007.8125 0)"/>
      <use xlink:href="#DejaVuSans-29" transform="translate(1071.435547 0)"/>
     </g>
    </g>
    <g id="line2d_80">
     <path d="M 281.500313 349.860937 
L 301.500313 349.860937 
" style="fill: none; stroke: #bf360c; stroke-width: 2; stroke-linecap: square"/>
    </g>
    <g id="line2d_81"/>
    <g id="text_34">
     <!-- Sim 50 mg -->
     <g transform="translate(309.500313 353.360937) scale(0.1 -0.1)">
      <use xlink:href="#DejaVuSans-53"/>
      <use xlink:href="#DejaVuSans-69" transform="translate(63.476562 0)"/>
      <use xlink:href="#DejaVuSans-6d" transform="translate(91.259766 0)"/>
      <use xlink:href="#DejaVuSans-20" transform="translate(188.671875 0)"/>
      <use xlink:href="#DejaVuSans-35" transform="translate(220.458984 0)"/>
      <use xlink:href="#DejaVuSans-30" transform="translate(284.082031 0)"/>
      <use xlink:href="#DejaVuSans-20" transform="translate(347.705078 0)"/>
      <use xlink:href="#DejaVuSans-6d" transform="translate(379.492188 0)"/>
      <use xlink:href="#DejaVuSans-67" transform="translate(476.904297 0)"/>
     </g>
    </g>
    <g id="LineCollection_25">
     <path d="M 291.500313 369.539062 
L 291.500313 359.539062 
" style="fill: none; stroke: #bf360c"/>
    </g>
    <g id="line2d_82"/>
    <g id="line2d_83">
     <g>
      <use xlink:href="#mc11f0d5845" x="291.500313" y="364.539062" style="fill: #bf360c; stroke: #000000; stroke-linejoin: miter"/>
     </g>
    </g>
    <g id="text_35">
     <!-- UGE 50 mg±SD (n=6) -->
     <g transform="translate(309.500313 368.039062) scale(0.1 -0.1)">
      <use xlink:href="#DejaVuSans-55"/>
      <use xlink:href="#DejaVuSans-47" transform="translate(73.193359 0)"/>
      <use xlink:href="#DejaVuSans-45" transform="translate(150.683594 0)"/>
      <use xlink:href="#DejaVuSans-20" transform="translate(213.867188 0)"/>
      <use xlink:href="#DejaVuSans-35" transform="translate(245.654297 0)"/>
      <use xlink:href="#DejaVuSans-30" transform="translate(309.277344 0)"/>
      <use xlink:href="#DejaVuSans-20" transform="translate(372.900391 0)"/>
      <use xlink:href="#DejaVuSans-6d" transform="translate(404.6875 0)"/>
      <use xlink:href="#DejaVuSans-67" transform="translate(502.099609 0)"/>
      <use xlink:href="#DejaVuSans-b1" transform="translate(565.576172 0)"/>
      <use xlink:href="#DejaVuSans-53" transform="translate(649.365234 0)"/>
      <use xlink:href="#DejaVuSans-44" transform="translate(712.841797 0)"/>
      <use xlink:href="#DejaVuSans-20" transform="translate(789.84375 0)"/>
      <use xlink:href="#DejaVuSans-28" transform="translate(821.630859 0)"/>
      <use xlink:href="#DejaVuSans-6e" transform="translate(860.644531 0)"/>
      <use xlink:href="#DejaVuSans-3d" transform="translate(924.023438 0)"/>
      <use xlink:href="#DejaVuSans-36" transform="translate(1007.8125 0)"/>
      <use xlink:href="#DejaVuSans-29" transform="translate(1071.435547 0)"/>
     </g>
    </g>
    <g id="line2d_84">
     <path d="M 281.500313 379.217188 
L 301.500313 379.217188 
" style="fill: none; stroke: #a52a00; stroke-width: 2; stroke-linecap: square"/>
    </g>
    <g id="line2d_85"/>
    <g id="text_36">
     <!-- Sim 100 mg -->
     <g transform="translate(309.500313 382.717188) scale(0.1 -0.1)">
      <use xlink:href="#DejaVuSans-53"/>
      <use xlink:href="#DejaVuSans-69" transform="translate(63.476562 0)"/>
      <use xlink:href="#DejaVuSans-6d" transform="translate(91.259766 0)"/>
      <use xlink:href="#DejaVuSans-20" transform="translate(188.671875 0)"/>
      <use xlink:href="#DejaVuSans-31" transform="translate(220.458984 0)"/>
      <use xlink:href="#DejaVuSans-30" transform="translate(284.082031 0)"/>
      <use xlink:href="#DejaVuSans-30" transform="translate(347.705078 0)"/>
      <use xlink:href="#DejaVuSans-20" transform="translate(411.328125 0)"/>
      <use xlink:href="#DejaVuSans-6d" transform="translate(443.115234 0)"/>
      <use xlink:href="#DejaVuSans-67" transform="translate(540.527344 0)"/>
     </g>
    </g>
    <g id="LineCollection_26">
     <path d="M 291.500313 398.895313 
L 291.500313 388.895313 
" style="fill: none; stroke: #a52a00"/>
    </g>
    <g id="line2d_86"/>
    <g id="line2d_87">
     <g>
      <use xlink:href="#m897f389a01" x="291.500313" y="393.895313" style="fill: #a52a00; stroke: #000000; stroke-linejoin: miter"/>
     </g>
    </g>
    <g id="text_37">
     <!-- UGE 100 mg±SD (n=6) -->
     <g transform="translate(309.500313 397.395313) scale(0.1 -0.1)">
      <use xlink:href="#DejaVuSans-55"/>
      <use xlink:href="#DejaVuSans-47" transform="translate(73.193359 0)"/>
      <use xlink:href="#DejaVuSans-45" transform="translate(150.683594 0)"/>
      <use xlink:href="#DejaVuSans-20" transform="translate(213.867188 0)"/>
      <use xlink:href="#DejaVuSans-31" transform="translate(245.654297 0)"/>
      <use xlink:href="#DejaVuSans-30" transform="translate(309.277344 0)"/>
      <use xlink:href="#DejaVuSans-30" transform="translate(372.900391 0)"/>
      <use xlink:href="#DejaVuSans-20" transform="translate(436.523438 0)"/>
      <use xlink:href="#DejaVuSans-6d" transform="translate(468.310547 0)"/>
      <use xlink:href="#DejaVuSans-67" transform="translate(565.722656 0)"/>
      <use xlink:href="#DejaVuSans-b1" transform="translate(629.199219 0)"/>
      <use xlink:href="#DejaVuSans-53" transform="translate(712.988281 0)"/>
      <use xlink:href="#DejaVuSans-44" transform="translate(776.464844 0)"/>
      <use xlink:href="#DejaVuSans-20" transform="translate(853.466797 0)"/>
      <use xlink:href="#DejaVuSans-28" transform="translate(885.253906 0)"/>
      <use xlink:href="#DejaVuSans-6e" transform="translate(924.267578 0)"/>
      <use xlink:href="#DejaVuSans-3d" transform="translate(987.646484 0)"/>
      <use xlink:href="#DejaVuSans-36" transform="translate(1071.435547 0)"/>
      <use xlink:href="#DejaVuSans-29" transform="translate(1135.058594 0)"/>
     </g>
    </g>
    <g id="line2d_88">
     <path d="M 281.500313 408.573438 
L 301.500313 408.573438 
" style="fill: none; stroke: #872200; stroke-width: 2; stroke-linecap: square"/>
    </g>
    <g id="line2d_89"/>
    <g id="text_38">
     <!-- Sim 250 mg -->
     <g transform="translate(309.500313 412.073438) scale(0.1 -0.1)">
      <use xlink:href="#DejaVuSans-53"/>
      <use xlink:href="#DejaVuSans-69" transform="translate(63.476562 0)"/>
      <use xlink:href="#DejaVuSans-6d" transform="translate(91.259766 0)"/>
      <use xlink:href="#DejaVuSans-20" transform="translate(188.671875 0)"/>
      <use xlink:href="#DejaVuSans-32" transform="translate(220.458984 0)"/>
      <use xlink:href="#DejaVuSans-35" transform="translate(284.082031 0)"/>
      <use xlink:href="#DejaVuSans-30" transform="translate(347.705078 0)"/>
      <use xlink:href="#DejaVuSans-20" transform="translate(411.328125 0)"/>
      <use xlink:href="#DejaVuSans-6d" transform="translate(443.115234 0)"/>
      <use xlink:href="#DejaVuSans-67" transform="translate(540.527344 0)"/>
     </g>
    </g>
    <g id="LineCollection_27">
     <path d="M 291.500313 428.251563 
L 291.500313 418.251563 
" style="fill: none; stroke: #872200"/>
    </g>
    <g id="line2d_90"/>
    <g id="line2d_91">
     <g>
      <use xlink:href="#m4eee9d6c5a" x="291.500313" y="423.251563" style="fill: #872200; stroke: #000000; stroke-linejoin: miter"/>
     </g>
    </g>
    <g id="text_39">
     <!-- UGE 250 mg±SD (n=6) -->
     <g transform="translate(309.500313 426.751563) scale(0.1 -0.1)">
      <use xlink:href="#DejaVuSans-55"/>
      <use xlink:href="#DejaVuSans-47" transform="translate(73.193359 0)"/>
      <use xlink:href="#DejaVuSans-45" transform="translate(150.683594 0)"/>
      <use xlink:href="#DejaVuSans-20" transform="translate(213.867188 0)"/>
      <use xlink:href="#DejaVuSans-32" transform="translate(245.654297 0)"/>
      <use xlink:href="#DejaVuSans-35" transform="translate(309.277344 0)"/>
      <use xlink:href="#DejaVuSans-30" transform="translate(372.900391 0)"/>
      <use xlink:href="#DejaVuSans-20" transform="translate(436.523438 0)"/>
      <use xlink:href="#DejaVuSans-6d" transform="translate(468.310547 0)"/>
      <use xlink:href="#DejaVuSans-67" transform="translate(565.722656 0)"/>
      <use xlink:href="#DejaVuSans-b1" transform="translate(629.199219 0)"/>
      <use xlink:href="#DejaVuSans-53" transform="translate(712.988281 0)"/>
      <use xlink:href="#DejaVuSans-44" transform="translate(776.464844 0)"/>
      <use xlink:href="#DejaVuSans-20" transform="translate(853.466797 0)"/>
      <use xlink:href="#DejaVuSans-28" transform="translate(885.253906 0)"/>
      <use xlink:href="#DejaVuSans-6e" transform="translate(924.267578 0)"/>
      <use xlink:href="#DejaVuSans-3d" transform="translate(987.646484 0)"/>
      <use xlink:href="#DejaVuSans-36" transform="translate(1071.435547 0)"/>
      <use xlink:href="#DejaVuSans-29" transform="translate(1135.058594 0)"/>
     </g>
    </g>
    <g id="line2d_92">
     <path d="M 281.500313 437.929688 
L 301.500313 437.929688 
" style="fill: none; stroke: #5e1800; stroke-width: 2; stroke-linecap: square"/>
    </g>
    <g id="line2d_93"/>
    <g id="text_40">
     <!-- Sim 500 mg -->
     <g transform="translate(309.500313 441.429688) scale(0.1 -0.1)">
      <use xlink:href="#DejaVuSans-53"/>
      <use xlink:href="#DejaVuSans-69" transform="translate(63.476562 0)"/>
      <use xlink:href="#DejaVuSans-6d" transform="translate(91.259766 0)"/>
      <use xlink:href="#DejaVuSans-20" transform="translate(188.671875 0)"/>
      <use xlink:href="#DejaVuSans-35" transform="translate(220.458984 0)"/>
      <use xlink:href="#DejaVuSans-30" transform="translate(284.082031 0)"/>
      <use xlink:href="#DejaVuSans-30" transform="translate(347.705078 0)"/>
      <use xlink:href="#DejaVuSans-20" transform="translate(411.328125 0)"/>
      <use xlink:href="#DejaVuSans-6d" transform="translate(443.115234 0)"/>
      <use xlink:href="#DejaVuSans-67" transform="translate(540.527344 0)"/>
     </g>
    </g>
    <g id="LineCollection_28">
     <path d="M 291.500313 457.607813 
L 291.500313 447.607813 
" style="fill: none; stroke: #5e1800"/>
    </g>
    <g id="line2d_94"/>
    <g id="line2d_95">
     <g>
      <use xlink:href="#mc386f7c0c3" x="291.500313" y="452.607813" style="fill: #5e1800; stroke: #000000; stroke-linejoin: miter"/>
     </g>
    </g>
    <g id="text_41">
     <!-- UGE 500 mg±SD (n=6) -->
     <g transform="translate(309.500313 456.107813) scale(0.1 -0.1)">
      <use xlink:href="#DejaVuSans-55"/>
      <use xlink:href="#DejaVuSans-47" transform="translate(73.193359 0)"/>
      <use xlink:href="#DejaVuSans-45" transform="translate(150.683594 0)"/>
      <use xlink:href="#DejaVuSans-20" transform="translate(213.867188 0)"/>
      <use xlink:href="#DejaVuSans-35" transform="translate(245.654297 0)"/>
      <use xlink:href="#DejaVuSans-30" transform="translate(309.277344 0)"/>
      <use xlink:href="#DejaVuSans-30" transform="translate(372.900391 0)"/>
      <use xlink:href="#DejaVuSans-20" transform="translate(436.523438 0)"/>
      <use xlink:href="#DejaVuSans-6d" transform="translate(468.310547 0)"/>
      <use xlink:href="#DejaVuSans-67" transform="translate(565.722656 0)"/>
      <use xlink:href="#DejaVuSans-b1" transform="translate(629.199219 0)"/>
      <use xlink:href="#DejaVuSans-53" transform="translate(712.988281 0)"/>
      <use xlink:href="#DejaVuSans-44" transform="translate(776.464844 0)"/>
      <use xlink:href="#DejaVuSans-20" transform="translate(853.466797 0)"/>
      <use xlink:href="#DejaVuSans-28" transform="translate(885.253906 0)"/>
      <use xlink:href="#DejaVuSans-6e" transform="translate(924.267578 0)"/>
      <use xlink:href="#DejaVuSans-3d" transform="translate(987.646484 0)"/>
      <use xlink:href="#DejaVuSans-36" transform="translate(1071.435547 0)"/>
      <use xlink:href="#DejaVuSans-29" transform="translate(1135.058594 0)"/>
     </g>
    </g>
   </g>
  </g>
  <g id="text_42">
   <!-- Gould2013 (Healthy) -->
   <g transform="translate(126.8675 22.396875) scale(0.2 -0.2)">
    <defs>
     <path id="DejaVuSans-Bold-6f" d="M 2203 2784 
Q 1831 2784 1636 2517 
Q 1441 2250 1441 1747 
Q 1441 1244 1636 976 
Q 1831 709 2203 709 
Q 2569 709 2762 976 
Q 2956 1244 2956 1747 
Q 2956 2250 2762 2517 
Q 2569 2784 2203 2784 
z
M 2203 3584 
Q 3106 3584 3614 3096 
Q 4122 2609 4122 1747 
Q 4122 884 3614 396 
Q 3106 -91 2203 -91 
Q 1297 -91 786 396 
Q 275 884 275 1747 
Q 275 2609 786 3096 
Q 1297 3584 2203 3584 
z
" transform="scale(0.015625)"/>
     <path id="DejaVuSans-Bold-75" d="M 500 1363 
L 500 3500 
L 1625 3500 
L 1625 3150 
Q 1625 2866 1622 2436 
Q 1619 2006 1619 1863 
Q 1619 1441 1641 1255 
Q 1663 1069 1716 984 
Q 1784 875 1895 815 
Q 2006 756 2150 756 
Q 2500 756 2700 1025 
Q 2900 1294 2900 1772 
L 2900 3500 
L 4019 3500 
L 4019 0 
L 2900 0 
L 2900 506 
Q 2647 200 2364 54 
Q 2081 -91 1741 -91 
Q 1134 -91 817 281 
Q 500 653 500 1363 
z
" transform="scale(0.015625)"/>
     <path id="DejaVuSans-Bold-6c" d="M 538 4863 
L 1656 4863 
L 1656 0 
L 538 0 
L 538 4863 
z
" transform="scale(0.015625)"/>
     <path id="DejaVuSans-Bold-64" d="M 2919 2988 
L 2919 4863 
L 4044 4863 
L 4044 0 
L 2919 0 
L 2919 506 
Q 2688 197 2409 53 
Q 2131 -91 1766 -91 
Q 1119 -91 703 423 
Q 288 938 288 1747 
Q 288 2556 703 3070 
Q 1119 3584 1766 3584 
Q 2128 3584 2408 3439 
Q 2688 3294 2919 2988 
z
M 2181 722 
Q 2541 722 2730 984 
Q 2919 1247 2919 1747 
Q 2919 2247 2730 2509 
Q 2541 2772 2181 2772 
Q 1825 2772 1636 2509 
Q 1447 2247 1447 1747 
Q 1447 1247 1636 984 
Q 1825 722 2181 722 
z
" transform="scale(0.015625)"/>
     <path id="DejaVuSans-Bold-32" d="M 1844 884 
L 3897 884 
L 3897 0 
L 506 0 
L 506 884 
L 2209 2388 
Q 2438 2594 2547 2791 
Q 2656 2988 2656 3200 
Q 2656 3528 2436 3728 
Q 2216 3928 1850 3928 
Q 1569 3928 1234 3808 
Q 900 3688 519 3450 
L 519 4475 
Q 925 4609 1322 4679 
Q 1719 4750 2100 4750 
Q 2938 4750 3402 4381 
Q 3866 4013 3866 3353 
Q 3866 2972 3669 2642 
Q 3472 2313 2841 1759 
L 1844 884 
z
" transform="scale(0.015625)"/>
     <path id="DejaVuSans-Bold-30" d="M 2944 2338 
Q 2944 3213 2780 3570 
Q 2616 3928 2228 3928 
Q 1841 3928 1675 3570 
Q 1509 3213 1509 2338 
Q 1509 1453 1675 1090 
Q 1841 728 2228 728 
Q 2613 728 2778 1090 
Q 2944 1453 2944 2338 
z
M 4147 2328 
Q 4147 1169 3647 539 
Q 3147 -91 2228 -91 
Q 1306 -91 806 539 
Q 306 1169 306 2328 
Q 306 3491 806 4120 
Q 1306 4750 2228 4750 
Q 3147 4750 3647 4120 
Q 4147 3491 4147 2328 
z
" transform="scale(0.015625)"/>
     <path id="DejaVuSans-Bold-31" d="M 750 831 
L 1813 831 
L 1813 3847 
L 722 3622 
L 722 4441 
L 1806 4666 
L 2950 4666 
L 2950 831 
L 4013 831 
L 4013 0 
L 750 0 
L 750 831 
z
" transform="scale(0.015625)"/>
     <path id="DejaVuSans-Bold-33" d="M 2981 2516 
Q 3453 2394 3698 2092 
Q 3944 1791 3944 1325 
Q 3944 631 3412 270 
Q 2881 -91 1863 -91 
Q 1503 -91 1142 -33 
Q 781 25 428 141 
L 428 1069 
Q 766 900 1098 814 
Q 1431 728 1753 728 
Q 2231 728 2486 893 
Q 2741 1059 2741 1369 
Q 2741 1688 2480 1852 
Q 2219 2016 1709 2016 
L 1228 2016 
L 1228 2791 
L 1734 2791 
Q 2188 2791 2409 2933 
Q 2631 3075 2631 3366 
Q 2631 3634 2415 3781 
Q 2200 3928 1806 3928 
Q 1516 3928 1219 3862 
Q 922 3797 628 3669 
L 628 4550 
Q 984 4650 1334 4700 
Q 1684 4750 2022 4750 
Q 2931 4750 3382 4451 
Q 3834 4153 3834 3553 
Q 3834 3144 3618 2883 
Q 3403 2622 2981 2516 
z
" transform="scale(0.015625)"/>
     <path id="DejaVuSans-Bold-28" d="M 2413 -844 
L 1484 -844 
Q 1006 -72 778 623 
Q 550 1319 550 2003 
Q 550 2688 779 3389 
Q 1009 4091 1484 4856 
L 2413 4856 
Q 2013 4116 1813 3408 
Q 1613 2700 1613 2009 
Q 1613 1319 1811 609 
Q 2009 -100 2413 -844 
z
" transform="scale(0.015625)"/>
     <path id="DejaVuSans-Bold-48" d="M 588 4666 
L 1791 4666 
L 1791 2888 
L 3566 2888 
L 3566 4666 
L 4769 4666 
L 4769 0 
L 3566 0 
L 3566 1978 
L 1791 1978 
L 1791 0 
L 588 0 
L 588 4666 
z
" transform="scale(0.015625)"/>
     <path id="DejaVuSans-Bold-61" d="M 2106 1575 
Q 1756 1575 1579 1456 
Q 1403 1338 1403 1106 
Q 1403 894 1545 773 
Q 1688 653 1941 653 
Q 2256 653 2472 879 
Q 2688 1106 2688 1447 
L 2688 1575 
L 2106 1575 
z
M 3816 1997 
L 3816 0 
L 2688 0 
L 2688 519 
Q 2463 200 2181 54 
Q 1900 -91 1497 -91 
Q 953 -91 614 226 
Q 275 544 275 1050 
Q 275 1666 698 1953 
Q 1122 2241 2028 2241 
L 2688 2241 
L 2688 2328 
Q 2688 2594 2478 2717 
Q 2269 2841 1825 2841 
Q 1466 2841 1156 2769 
Q 847 2697 581 2553 
L 581 3406 
Q 941 3494 1303 3539 
Q 1666 3584 2028 3584 
Q 2975 3584 3395 3211 
Q 3816 2838 3816 1997 
z
" transform="scale(0.015625)"/>
     <path id="DejaVuSans-Bold-79" d="M 78 3500 
L 1197 3500 
L 2138 1125 
L 2938 3500 
L 4056 3500 
L 2584 -331 
Q 2363 -916 2067 -1148 
Q 1772 -1381 1288 -1381 
L 641 -1381 
L 641 -647 
L 991 -647 
Q 1275 -647 1404 -556 
Q 1534 -466 1606 -231 
L 1638 -134 
L 78 3500 
z
" transform="scale(0.015625)"/>
     <path id="DejaVuSans-Bold-29" d="M 513 -844 
Q 913 -100 1113 609 
Q 1313 1319 1313 2009 
Q 1313 2700 1113 3408 
Q 913 4116 513 4856 
L 1441 4856 
Q 1916 4091 2145 3389 
Q 2375 2688 2375 2003 
Q 2375 1319 2147 623 
Q 1919 -72 1441 -844 
L 513 -844 
z
" transform="scale(0.015625)"/>
    </defs>
    <use xlink:href="#DejaVuSans-Bold-47"/>
    <use xlink:href="#DejaVuSans-Bold-6f" transform="translate(82.080078 0)"/>
    <use xlink:href="#DejaVuSans-Bold-75" transform="translate(150.78125 0)"/>
    <use xlink:href="#DejaVuSans-Bold-6c" transform="translate(221.972656 0)"/>
    <use xlink:href="#DejaVuSans-Bold-64" transform="translate(256.25 0)"/>
    <use xlink:href="#DejaVuSans-Bold-32" transform="translate(327.832031 0)"/>
    <use xlink:href="#DejaVuSans-Bold-30" transform="translate(397.412109 0)"/>
    <use xlink:href="#DejaVuSans-Bold-31" transform="translate(466.992188 0)"/>
    <use xlink:href="#DejaVuSans-Bold-33" transform="translate(536.572266 0)"/>
    <use xlink:href="#DejaVuSans-Bold-20" transform="translate(606.152344 0)"/>
    <use xlink:href="#DejaVuSans-Bold-28" transform="translate(640.966797 0)"/>
    <use xlink:href="#DejaVuSans-Bold-48" transform="translate(686.669922 0)"/>
    <use xlink:href="#DejaVuSans-Bold-65" transform="translate(770.361328 0)"/>
    <use xlink:href="#DejaVuSans-Bold-61" transform="translate(838.183594 0)"/>
    <use xlink:href="#DejaVuSans-Bold-6c" transform="translate(905.664062 0)"/>
    <use xlink:href="#DejaVuSans-Bold-74" transform="translate(939.941406 0)"/>
    <use xlink:href="#DejaVuSans-Bold-68" transform="translate(987.744141 0)"/>
    <use xlink:href="#DejaVuSans-Bold-79" transform="translate(1058.935547 0)"/>
    <use xlink:href="#DejaVuSans-Bold-29" transform="translate(1124.121094 0)"/>
   </g>
  </g>
 </g>
 <defs>
  <clipPath id="p15b8a2c312">
   <rect x="54.84875" y="43.2" width="390.6" height="277.2"/>
  </clipPath>
 </defs>
</svg>
