<?xml version="1.0" encoding="utf-8" standalone="no"?>
<!DOCTYPE svg PUBLIC "-//W3C//DTD SVG 1.1//EN"
  "http://www.w3.org/Graphics/SVG/1.1/DTD/svg11.dtd">
<svg xmlns:xlink="http://www.w3.org/1999/xlink" width="462.071562pt" height="683.878437pt" viewBox="0 0 462.071562 683.878437" xmlns="http://www.w3.org/2000/svg" version="1.1">
 <metadata>
  <rdf:RDF xmlns:dc="http://purl.org/dc/elements/1.1/" xmlns:cc="http://creativecommons.org/ns#" xmlns:rdf="http://www.w3.org/1999/02/22-rdf-syntax-ns#">
   <cc:Work>
    <dc:type rdf:resource="http://purl.org/dc/dcmitype/StillImage"/>
    <dc:date>2025-03-19T16:40:58.475127</dc:date>
    <dc:format>image/svg+xml</dc:format>
    <dc:creator>
     <cc:Agent>
      <dc:title>Matplotlib v3.9.1, https://matplotlib.org/</dc:title>
     </cc:Agent>
    </dc:creator>
   </cc:Work>
  </rdf:RDF>
 </metadata>
 <defs>
  <style type="text/css">*{stroke-linejoin: round; stroke-linecap: butt}</style>
 </defs>
 <g id="figure_1">
  <g id="patch_1">
   <path d="M 0 683.878437 
L 462.071562 683.878437 
L 462.071562 0 
L 0 0 
z
" style="fill: #ffffff"/>
  </g>
  <g id="axes_1">
   <g id="patch_2">
    <path d="M 64.271563 320.243478 
L 454.871563 320.243478 
L 454.871563 79.2 
L 64.271563 79.2 
z
" style="fill: #ffffff"/>
   </g>
   <g id="matplotlib.axis_1">
    <g id="xtick_1">
     <g id="line2d_1">
      <defs>
       <path id="m9d0581bf4c" d="M 0 0 
L 0 3.5 
" style="stroke: #000000; stroke-width: 0.8"/>
      </defs>
      <g>
       <use xlink:href="#m9d0581bf4c" x="82.026108" y="320.243478" style="stroke: #000000; stroke-width: 0.8"/>
      </g>
     </g>
     <g id="text_1">
      <!-- 0 -->
      <g transform="translate(77.254233 338.641135) scale(0.15 -0.15)">
       <defs>
        <path id="DejaVuSans-30" d="M 2034 4250 
Q 1547 4250 1301 3770 
Q 1056 3291 1056 2328 
Q 1056 1369 1301 889 
Q 1547 409 2034 409 
Q 2525 409 2770 889 
Q 3016 1369 3016 2328 
Q 3016 3291 2770 3770 
Q 2525 4250 2034 4250 
z
M 2034 4750 
Q 2819 4750 3233 4129 
Q 3647 3509 3647 2328 
Q 3647 1150 3233 529 
Q 2819 -91 2034 -91 
Q 1250 -91 836 529 
Q 422 1150 422 2328 
Q 422 3509 836 4129 
Q 1250 4750 2034 4750 
z
" transform="scale(0.015625)"/>
       </defs>
       <use xlink:href="#DejaVuSans-30"/>
      </g>
     </g>
    </g>
    <g id="xtick_2">
     <g id="line2d_2">
      <g>
       <use xlink:href="#m9d0581bf4c" x="132.753381" y="320.243478" style="stroke: #000000; stroke-width: 0.8"/>
      </g>
     </g>
     <g id="text_2">
      <!-- 2 -->
      <g transform="translate(127.981506 338.641135) scale(0.15 -0.15)">
       <defs>
        <path id="DejaVuSans-32" d="M 1228 531 
L 3431 531 
L 3431 0 
L 469 0 
L 469 531 
Q 828 903 1448 1529 
Q 2069 2156 2228 2338 
Q 2531 2678 2651 2914 
Q 2772 3150 2772 3378 
Q 2772 3750 2511 3984 
Q 2250 4219 1831 4219 
Q 1534 4219 1204 4116 
Q 875 4013 500 3803 
L 500 4441 
Q 881 4594 1212 4672 
Q 1544 4750 1819 4750 
Q 2544 4750 2975 4387 
Q 3406 4025 3406 3419 
Q 3406 3131 3298 2873 
Q 3191 2616 2906 2266 
Q 2828 2175 2409 1742 
Q 1991 1309 1228 531 
z
" transform="scale(0.015625)"/>
       </defs>
       <use xlink:href="#DejaVuSans-32"/>
      </g>
     </g>
    </g>
    <g id="xtick_3">
     <g id="line2d_3">
      <g>
       <use xlink:href="#m9d0581bf4c" x="183.480653" y="320.243478" style="stroke: #000000; stroke-width: 0.8"/>
      </g>
     </g>
     <g id="text_3">
      <!-- 4 -->
      <g transform="translate(178.708778 338.641135) scale(0.15 -0.15)">
       <defs>
        <path id="DejaVuSans-34" d="M 2419 4116 
L 825 1625 
L 2419 1625 
L 2419 4116 
z
M 2253 4666 
L 3047 4666 
L 3047 1625 
L 3713 1625 
L 3713 1100 
L 3047 1100 
L 3047 0 
L 2419 0 
L 2419 1100 
L 313 1100 
L 313 1709 
L 2253 4666 
z
" transform="scale(0.015625)"/>
       </defs>
       <use xlink:href="#DejaVuSans-34"/>
      </g>
     </g>
    </g>
    <g id="xtick_4">
     <g id="line2d_4">
      <g>
       <use xlink:href="#m9d0581bf4c" x="234.207926" y="320.243478" style="stroke: #000000; stroke-width: 0.8"/>
      </g>
     </g>
     <g id="text_4">
      <!-- 6 -->
      <g transform="translate(229.436051 338.641135) scale(0.15 -0.15)">
       <defs>
        <path id="DejaVuSans-36" d="M 2113 2584 
Q 1688 2584 1439 2293 
Q 1191 2003 1191 1497 
Q 1191 994 1439 701 
Q 1688 409 2113 409 
Q 2538 409 2786 701 
Q 3034 994 3034 1497 
Q 3034 2003 2786 2293 
Q 2538 2584 2113 2584 
z
M 3366 4563 
L 3366 3988 
Q 3128 4100 2886 4159 
Q 2644 4219 2406 4219 
Q 1781 4219 1451 3797 
Q 1122 3375 1075 2522 
Q 1259 2794 1537 2939 
Q 1816 3084 2150 3084 
Q 2853 3084 3261 2657 
Q 3669 2231 3669 1497 
Q 3669 778 3244 343 
Q 2819 -91 2113 -91 
Q 1303 -91 875 529 
Q 447 1150 447 2328 
Q 447 3434 972 4092 
Q 1497 4750 2381 4750 
Q 2619 4750 2861 4703 
Q 3103 4656 3366 4563 
z
" transform="scale(0.015625)"/>
       </defs>
       <use xlink:href="#DejaVuSans-36"/>
      </g>
     </g>
    </g>
    <g id="xtick_5">
     <g id="line2d_5">
      <g>
       <use xlink:href="#m9d0581bf4c" x="284.935199" y="320.243478" style="stroke: #000000; stroke-width: 0.8"/>
      </g>
     </g>
     <g id="text_5">
      <!-- 8 -->
      <g transform="translate(280.163324 338.641135) scale(0.15 -0.15)">
       <defs>
        <path id="DejaVuSans-38" d="M 2034 2216 
Q 1584 2216 1326 1975 
Q 1069 1734 1069 1313 
Q 1069 891 1326 650 
Q 1584 409 2034 409 
Q 2484 409 2743 651 
Q 3003 894 3003 1313 
Q 3003 1734 2745 1975 
Q 2488 2216 2034 2216 
z
M 1403 2484 
Q 997 2584 770 2862 
Q 544 3141 544 3541 
Q 544 4100 942 4425 
Q 1341 4750 2034 4750 
Q 2731 4750 3128 4425 
Q 3525 4100 3525 3541 
Q 3525 3141 3298 2862 
Q 3072 2584 2669 2484 
Q 3125 2378 3379 2068 
Q 3634 1759 3634 1313 
Q 3634 634 3220 271 
Q 2806 -91 2034 -91 
Q 1263 -91 848 271 
Q 434 634 434 1313 
Q 434 1759 690 2068 
Q 947 2378 1403 2484 
z
M 1172 3481 
Q 1172 3119 1398 2916 
Q 1625 2713 2034 2713 
Q 2441 2713 2670 2916 
Q 2900 3119 2900 3481 
Q 2900 3844 2670 4047 
Q 2441 4250 2034 4250 
Q 1625 4250 1398 4047 
Q 1172 3844 1172 3481 
z
" transform="scale(0.015625)"/>
       </defs>
       <use xlink:href="#DejaVuSans-38"/>
      </g>
     </g>
    </g>
    <g id="xtick_6">
     <g id="line2d_6">
      <g>
       <use xlink:href="#m9d0581bf4c" x="335.662472" y="320.243478" style="stroke: #000000; stroke-width: 0.8"/>
      </g>
     </g>
     <g id="text_6">
      <!-- 10 -->
      <g transform="translate(326.118722 338.641135) scale(0.15 -0.15)">
       <defs>
        <path id="DejaVuSans-31" d="M 794 531 
L 1825 531 
L 1825 4091 
L 703 3866 
L 703 4441 
L 1819 4666 
L 2450 4666 
L 2450 531 
L 3481 531 
L 3481 0 
L 794 0 
L 794 531 
z
" transform="scale(0.015625)"/>
       </defs>
       <use xlink:href="#DejaVuSans-31"/>
       <use xlink:href="#DejaVuSans-30" x="63.623047"/>
      </g>
     </g>
    </g>
    <g id="xtick_7">
     <g id="line2d_7">
      <g>
       <use xlink:href="#m9d0581bf4c" x="386.389744" y="320.243478" style="stroke: #000000; stroke-width: 0.8"/>
      </g>
     </g>
     <g id="text_7">
      <!-- 12 -->
      <g transform="translate(376.845994 338.641135) scale(0.15 -0.15)">
       <use xlink:href="#DejaVuSans-31"/>
       <use xlink:href="#DejaVuSans-32" x="63.623047"/>
      </g>
     </g>
    </g>
    <g id="xtick_8">
     <g id="line2d_8">
      <g>
       <use xlink:href="#m9d0581bf4c" x="437.117017" y="320.243478" style="stroke: #000000; stroke-width: 0.8"/>
      </g>
     </g>
     <g id="text_8">
      <!-- 14 -->
      <g transform="translate(427.573267 338.641135) scale(0.15 -0.15)">
       <use xlink:href="#DejaVuSans-31"/>
       <use xlink:href="#DejaVuSans-34" x="63.623047"/>
      </g>
     </g>
    </g>
    <g id="text_9">
     <!-- time [day] -->
     <g transform="translate(207.240781 359.437853) scale(0.18 -0.18)">
      <defs>
       <path id="DejaVuSans-Bold-74" d="M 1759 4494 
L 1759 3500 
L 2913 3500 
L 2913 2700 
L 1759 2700 
L 1759 1216 
Q 1759 972 1856 886 
Q 1953 800 2241 800 
L 2816 800 
L 2816 0 
L 1856 0 
Q 1194 0 917 276 
Q 641 553 641 1216 
L 641 2700 
L 84 2700 
L 84 3500 
L 641 3500 
L 641 4494 
L 1759 4494 
z
" transform="scale(0.015625)"/>
       <path id="DejaVuSans-Bold-69" d="M 538 3500 
L 1656 3500 
L 1656 0 
L 538 0 
L 538 3500 
z
M 538 4863 
L 1656 4863 
L 1656 3950 
L 538 3950 
L 538 4863 
z
" transform="scale(0.015625)"/>
       <path id="DejaVuSans-Bold-6d" d="M 3781 2919 
Q 3994 3244 4286 3414 
Q 4578 3584 4928 3584 
Q 5531 3584 5847 3212 
Q 6163 2841 6163 2131 
L 6163 0 
L 5038 0 
L 5038 1825 
Q 5041 1866 5042 1909 
Q 5044 1953 5044 2034 
Q 5044 2406 4934 2573 
Q 4825 2741 4581 2741 
Q 4263 2741 4089 2478 
Q 3916 2216 3909 1719 
L 3909 0 
L 2784 0 
L 2784 1825 
Q 2784 2406 2684 2573 
Q 2584 2741 2328 2741 
Q 2006 2741 1831 2477 
Q 1656 2213 1656 1722 
L 1656 0 
L 531 0 
L 531 3500 
L 1656 3500 
L 1656 2988 
Q 1863 3284 2130 3434 
Q 2397 3584 2719 3584 
Q 3081 3584 3359 3409 
Q 3638 3234 3781 2919 
z
" transform="scale(0.015625)"/>
       <path id="DejaVuSans-Bold-65" d="M 4031 1759 
L 4031 1441 
L 1416 1441 
Q 1456 1047 1700 850 
Q 1944 653 2381 653 
Q 2734 653 3104 758 
Q 3475 863 3866 1075 
L 3866 213 
Q 3469 63 3072 -14 
Q 2675 -91 2278 -91 
Q 1328 -91 801 392 
Q 275 875 275 1747 
Q 275 2603 792 3093 
Q 1309 3584 2216 3584 
Q 3041 3584 3536 3087 
Q 4031 2591 4031 1759 
z
M 2881 2131 
Q 2881 2450 2695 2645 
Q 2509 2841 2209 2841 
Q 1884 2841 1681 2658 
Q 1478 2475 1428 2131 
L 2881 2131 
z
" transform="scale(0.015625)"/>
       <path id="DejaVuSans-Bold-20" transform="scale(0.015625)"/>
       <path id="DejaVuSans-Bold-5b" d="M 550 4863 
L 2491 4863 
L 2491 4159 
L 1613 4159 
L 1613 -141 
L 2491 -141 
L 2491 -844 
L 550 -844 
L 550 4863 
z
" transform="scale(0.015625)"/>
       <path id="DejaVuSans-Bold-64" d="M 2919 2988 
L 2919 4863 
L 4044 4863 
L 4044 0 
L 2919 0 
L 2919 506 
Q 2688 197 2409 53 
Q 2131 -91 1766 -91 
Q 1119 -91 703 423 
Q 288 938 288 1747 
Q 288 2556 703 3070 
Q 1119 3584 1766 3584 
Q 2128 3584 2408 3439 
Q 2688 3294 2919 2988 
z
M 2181 722 
Q 2541 722 2730 984 
Q 2919 1247 2919 1747 
Q 2919 2247 2730 2509 
Q 2541 2772 2181 2772 
Q 1825 2772 1636 2509 
Q 1447 2247 1447 1747 
Q 1447 1247 1636 984 
Q 1825 722 2181 722 
z
" transform="scale(0.015625)"/>
       <path id="DejaVuSans-Bold-61" d="M 2106 1575 
Q 1756 1575 1579 1456 
Q 1403 1338 1403 1106 
Q 1403 894 1545 773 
Q 1688 653 1941 653 
Q 2256 653 2472 879 
Q 2688 1106 2688 1447 
L 2688 1575 
L 2106 1575 
z
M 3816 1997 
L 3816 0 
L 2688 0 
L 2688 519 
Q 2463 200 2181 54 
Q 1900 -91 1497 -91 
Q 953 -91 614 226 
Q 275 544 275 1050 
Q 275 1666 698 1953 
Q 1122 2241 2028 2241 
L 2688 2241 
L 2688 2328 
Q 2688 2594 2478 2717 
Q 2269 2841 1825 2841 
Q 1466 2841 1156 2769 
Q 847 2697 581 2553 
L 581 3406 
Q 941 3494 1303 3539 
Q 1666 3584 2028 3584 
Q 2975 3584 3395 3211 
Q 3816 2838 3816 1997 
z
" transform="scale(0.015625)"/>
       <path id="DejaVuSans-Bold-79" d="M 78 3500 
L 1197 3500 
L 2138 1125 
L 2938 3500 
L 4056 3500 
L 2584 -331 
Q 2363 -916 2067 -1148 
Q 1772 -1381 1288 -1381 
L 641 -1381 
L 641 -647 
L 991 -647 
Q 1275 -647 1404 -556 
Q 1534 -466 1606 -231 
L 1638 -134 
L 78 3500 
z
" transform="scale(0.015625)"/>
       <path id="DejaVuSans-Bold-5d" d="M 2375 -844 
L 434 -844 
L 434 -141 
L 1313 -141 
L 1313 4159 
L 434 4159 
L 434 4863 
L 2375 4863 
L 2375 -844 
z
" transform="scale(0.015625)"/>
      </defs>
      <use xlink:href="#DejaVuSans-Bold-74"/>
      <use xlink:href="#DejaVuSans-Bold-69" x="47.802734"/>
      <use xlink:href="#DejaVuSans-Bold-6d" x="82.080078"/>
      <use xlink:href="#DejaVuSans-Bold-65" x="186.279297"/>
      <use xlink:href="#DejaVuSans-Bold-20" x="254.101562"/>
      <use xlink:href="#DejaVuSans-Bold-5b" x="288.916016"/>
      <use xlink:href="#DejaVuSans-Bold-64" x="334.619141"/>
      <use xlink:href="#DejaVuSans-Bold-61" x="406.201172"/>
      <use xlink:href="#DejaVuSans-Bold-79" x="470.556641"/>
      <use xlink:href="#DejaVuSans-Bold-5d" x="535.742188"/>
     </g>
    </g>
   </g>
   <g id="matplotlib.axis_2">
    <g id="ytick_1">
     <g id="line2d_9">
      <defs>
       <path id="m2f8157a2f4" d="M 0 0 
L -3.5 0 
" style="stroke: #000000; stroke-width: 0.8"/>
      </defs>
      <g>
       <use xlink:href="#m2f8157a2f4" x="64.271563" y="309.286957" style="stroke: #000000; stroke-width: 0.8"/>
      </g>
     </g>
     <g id="text_10">
      <!-- 0 -->
      <g transform="translate(47.727812 314.985785) scale(0.15 -0.15)">
       <use xlink:href="#DejaVuSans-30"/>
      </g>
     </g>
    </g>
    <g id="ytick_2">
     <g id="line2d_10">
      <g>
       <use xlink:href="#m2f8157a2f4" x="64.271563" y="266.798981" style="stroke: #000000; stroke-width: 0.8"/>
      </g>
     </g>
     <g id="text_11">
      <!-- 20 -->
      <g transform="translate(38.184063 272.497809) scale(0.15 -0.15)">
       <use xlink:href="#DejaVuSans-32"/>
       <use xlink:href="#DejaVuSans-30" x="63.623047"/>
      </g>
     </g>
    </g>
    <g id="ytick_3">
     <g id="line2d_11">
      <g>
       <use xlink:href="#m2f8157a2f4" x="64.271563" y="224.311006" style="stroke: #000000; stroke-width: 0.8"/>
      </g>
     </g>
     <g id="text_12">
      <!-- 40 -->
      <g transform="translate(38.184063 230.009834) scale(0.15 -0.15)">
       <use xlink:href="#DejaVuSans-34"/>
       <use xlink:href="#DejaVuSans-30" x="63.623047"/>
      </g>
     </g>
    </g>
    <g id="ytick_4">
     <g id="line2d_12">
      <g>
       <use xlink:href="#m2f8157a2f4" x="64.271563" y="181.82303" style="stroke: #000000; stroke-width: 0.8"/>
      </g>
     </g>
     <g id="text_13">
      <!-- 60 -->
      <g transform="translate(38.184063 187.521858) scale(0.15 -0.15)">
       <use xlink:href="#DejaVuSans-36"/>
       <use xlink:href="#DejaVuSans-30" x="63.623047"/>
      </g>
     </g>
    </g>
    <g id="ytick_5">
     <g id="line2d_13">
      <g>
       <use xlink:href="#m2f8157a2f4" x="64.271563" y="139.335055" style="stroke: #000000; stroke-width: 0.8"/>
      </g>
     </g>
     <g id="text_14">
      <!-- 80 -->
      <g transform="translate(38.184063 145.033883) scale(0.15 -0.15)">
       <use xlink:href="#DejaVuSans-38"/>
       <use xlink:href="#DejaVuSans-30" x="63.623047"/>
      </g>
     </g>
    </g>
    <g id="ytick_6">
     <g id="line2d_14">
      <g>
       <use xlink:href="#m2f8157a2f4" x="64.271563" y="96.847079" style="stroke: #000000; stroke-width: 0.8"/>
      </g>
     </g>
     <g id="text_15">
      <!-- 100 -->
      <g transform="translate(28.640313 102.545907) scale(0.15 -0.15)">
       <use xlink:href="#DejaVuSans-31"/>
       <use xlink:href="#DejaVuSans-30" x="63.623047"/>
       <use xlink:href="#DejaVuSans-30" x="127.246094"/>
      </g>
     </g>
    </g>
    <g id="text_16">
     <!-- metabolites urine [µmole] -->
     <g transform="translate(20.877187 332.446427) rotate(-90) scale(0.18 -0.18)">
      <defs>
       <path id="DejaVuSans-Bold-62" d="M 2400 722 
Q 2759 722 2948 984 
Q 3138 1247 3138 1747 
Q 3138 2247 2948 2509 
Q 2759 2772 2400 2772 
Q 2041 2772 1848 2508 
Q 1656 2244 1656 1747 
Q 1656 1250 1848 986 
Q 2041 722 2400 722 
z
M 1656 2988 
Q 1888 3294 2169 3439 
Q 2450 3584 2816 3584 
Q 3463 3584 3878 3070 
Q 4294 2556 4294 1747 
Q 4294 938 3878 423 
Q 3463 -91 2816 -91 
Q 2450 -91 2169 54 
Q 1888 200 1656 506 
L 1656 0 
L 538 0 
L 538 4863 
L 1656 4863 
L 1656 2988 
z
" transform="scale(0.015625)"/>
       <path id="DejaVuSans-Bold-6f" d="M 2203 2784 
Q 1831 2784 1636 2517 
Q 1441 2250 1441 1747 
Q 1441 1244 1636 976 
Q 1831 709 2203 709 
Q 2569 709 2762 976 
Q 2956 1244 2956 1747 
Q 2956 2250 2762 2517 
Q 2569 2784 2203 2784 
z
M 2203 3584 
Q 3106 3584 3614 3096 
Q 4122 2609 4122 1747 
Q 4122 884 3614 396 
Q 3106 -91 2203 -91 
Q 1297 -91 786 396 
Q 275 884 275 1747 
Q 275 2609 786 3096 
Q 1297 3584 2203 3584 
z
" transform="scale(0.015625)"/>
       <path id="DejaVuSans-Bold-6c" d="M 538 4863 
L 1656 4863 
L 1656 0 
L 538 0 
L 538 4863 
z
" transform="scale(0.015625)"/>
       <path id="DejaVuSans-Bold-73" d="M 3272 3391 
L 3272 2541 
Q 2913 2691 2578 2766 
Q 2244 2841 1947 2841 
Q 1628 2841 1473 2761 
Q 1319 2681 1319 2516 
Q 1319 2381 1436 2309 
Q 1553 2238 1856 2203 
L 2053 2175 
Q 2913 2066 3209 1816 
Q 3506 1566 3506 1031 
Q 3506 472 3093 190 
Q 2681 -91 1863 -91 
Q 1516 -91 1145 -36 
Q 775 19 384 128 
L 384 978 
Q 719 816 1070 734 
Q 1422 653 1784 653 
Q 2113 653 2278 743 
Q 2444 834 2444 1013 
Q 2444 1163 2330 1236 
Q 2216 1309 1875 1350 
L 1678 1375 
Q 931 1469 631 1722 
Q 331 1975 331 2491 
Q 331 3047 712 3315 
Q 1094 3584 1881 3584 
Q 2191 3584 2531 3537 
Q 2872 3491 3272 3391 
z
" transform="scale(0.015625)"/>
       <path id="DejaVuSans-Bold-75" d="M 500 1363 
L 500 3500 
L 1625 3500 
L 1625 3150 
Q 1625 2866 1622 2436 
Q 1619 2006 1619 1863 
Q 1619 1441 1641 1255 
Q 1663 1069 1716 984 
Q 1784 875 1895 815 
Q 2006 756 2150 756 
Q 2500 756 2700 1025 
Q 2900 1294 2900 1772 
L 2900 3500 
L 4019 3500 
L 4019 0 
L 2900 0 
L 2900 506 
Q 2647 200 2364 54 
Q 2081 -91 1741 -91 
Q 1134 -91 817 281 
Q 500 653 500 1363 
z
" transform="scale(0.015625)"/>
       <path id="DejaVuSans-Bold-72" d="M 3138 2547 
Q 2991 2616 2845 2648 
Q 2700 2681 2553 2681 
Q 2122 2681 1889 2404 
Q 1656 2128 1656 1613 
L 1656 0 
L 538 0 
L 538 3500 
L 1656 3500 
L 1656 2925 
Q 1872 3269 2151 3426 
Q 2431 3584 2822 3584 
Q 2878 3584 2943 3579 
Q 3009 3575 3134 3559 
L 3138 2547 
z
" transform="scale(0.015625)"/>
       <path id="DejaVuSans-Bold-6e" d="M 4056 2131 
L 4056 0 
L 2931 0 
L 2931 347 
L 2931 1631 
Q 2931 2084 2911 2256 
Q 2891 2428 2841 2509 
Q 2775 2619 2662 2680 
Q 2550 2741 2406 2741 
Q 2056 2741 1856 2470 
Q 1656 2200 1656 1722 
L 1656 0 
L 538 0 
L 538 3500 
L 1656 3500 
L 1656 2988 
Q 1909 3294 2193 3439 
Q 2478 3584 2822 3584 
Q 3428 3584 3742 3212 
Q 4056 2841 4056 2131 
z
" transform="scale(0.015625)"/>
       <path id="DejaVuSans-Bold-b5" d="M 544 -1338 
L 544 3500 
L 1672 3500 
L 1672 1466 
Q 1672 1103 1828 926 
Q 1984 750 2303 750 
Q 2625 750 2781 926 
Q 2938 1103 2938 1466 
L 2938 3500 
L 4063 3500 
L 4063 1159 
Q 4063 938 4114 850 
Q 4166 763 4288 763 
Q 4344 763 4395 778 
Q 4447 794 4506 831 
L 4506 50 
Q 4341 -22 4195 -56 
Q 4050 -91 3909 -91 
Q 3631 -91 3454 26 
Q 3278 144 3169 403 
Q 3022 156 2811 32 
Q 2600 -91 2322 -91 
Q 2091 -91 1928 -17 
Q 1766 56 1672 206 
L 1672 -1338 
L 544 -1338 
z
" transform="scale(0.015625)"/>
      </defs>
      <use xlink:href="#DejaVuSans-Bold-6d"/>
      <use xlink:href="#DejaVuSans-Bold-65" x="104.199219"/>
      <use xlink:href="#DejaVuSans-Bold-74" x="172.021484"/>
      <use xlink:href="#DejaVuSans-Bold-61" x="219.824219"/>
      <use xlink:href="#DejaVuSans-Bold-62" x="287.304688"/>
      <use xlink:href="#DejaVuSans-Bold-6f" x="358.886719"/>
      <use xlink:href="#DejaVuSans-Bold-6c" x="427.587891"/>
      <use xlink:href="#DejaVuSans-Bold-69" x="461.865234"/>
      <use xlink:href="#DejaVuSans-Bold-74" x="496.142578"/>
      <use xlink:href="#DejaVuSans-Bold-65" x="543.945312"/>
      <use xlink:href="#DejaVuSans-Bold-73" x="611.767578"/>
      <use xlink:href="#DejaVuSans-Bold-20" x="671.289062"/>
      <use xlink:href="#DejaVuSans-Bold-75" x="706.103516"/>
      <use xlink:href="#DejaVuSans-Bold-72" x="777.294922"/>
      <use xlink:href="#DejaVuSans-Bold-69" x="826.611328"/>
      <use xlink:href="#DejaVuSans-Bold-6e" x="860.888672"/>
      <use xlink:href="#DejaVuSans-Bold-65" x="932.080078"/>
      <use xlink:href="#DejaVuSans-Bold-20" x="999.902344"/>
      <use xlink:href="#DejaVuSans-Bold-5b" x="1034.716797"/>
      <use xlink:href="#DejaVuSans-Bold-b5" x="1080.419922"/>
      <use xlink:href="#DejaVuSans-Bold-6d" x="1154.003906"/>
      <use xlink:href="#DejaVuSans-Bold-6f" x="1258.203125"/>
      <use xlink:href="#DejaVuSans-Bold-6c" x="1326.904297"/>
      <use xlink:href="#DejaVuSans-Bold-65" x="1361.181641"/>
      <use xlink:href="#DejaVuSans-Bold-5d" x="1429.003906"/>
     </g>
    </g>
   </g>
   <g id="LineCollection_1">
    <path clip-path="url(#p4ac3f207b6)" style="fill: none; stroke: #000000"/>
    <path d="M 411.753381 137.905394 
L 411.753381 90.156522 
" clip-path="url(#p4ac3f207b6)" style="fill: none; stroke: #000000"/>
   </g>
   <g id="LineCollection_2">
    <path clip-path="url(#p4ac3f207b6)" style="fill: none; stroke: #1f77b4"/>
    <path clip-path="url(#p4ac3f207b6)" style="fill: none; stroke: #1f77b4"/>
   </g>
   <g id="LineCollection_3">
    <path clip-path="url(#p4ac3f207b6)" style="fill: none; stroke: #ff7f0e"/>
    <path clip-path="url(#p4ac3f207b6)" style="fill: none; stroke: #ff7f0e"/>
   </g>
   <g id="line2d_15">
    <path d="M 82.026108 309.286957 
L 82.73629 306.520444 
L 83.446472 295.943784 
L 84.866835 269.843392 
L 85.577017 259.487404 
L 86.287199 251.419347 
L 86.997381 245.288472 
L 87.707563 240.674726 
L 88.417744 237.206183 
L 89.127926 234.586432 
L 89.838108 232.590182 
L 90.54829 231.050151 
L 91.258472 229.843549 
L 92.678835 228.096405 
L 94.099199 226.885741 
L 95.519563 225.965363 
L 97.650108 224.858599 
L 101.201017 223.308395 
L 109.013017 220.209037 
L 123.216653 214.823846 
L 138.130472 209.412533 
L 153.04429 204.237829 
L 168.66829 199.059217 
L 184.29229 194.117567 
L 200.626472 189.192896 
L 216.960653 184.503563 
L 234.005017 179.849096 
L 251.049381 175.426481 
L 268.803926 171.053688 
L 286.558472 166.907553 
L 305.023199 162.82339 
L 324.198108 158.814765 
L 343.373017 155.030073 
L 363.258108 151.328364 
L 383.853381 147.720128 
L 405.158835 144.214656 
L 427.174472 140.820038 
L 437.117017 139.358904 
L 437.117017 139.358904 
" clip-path="url(#p4ac3f207b6)" style="fill: none; stroke: #000000; stroke-width: 2; stroke-linecap: square"/>
   </g>
   <g id="line2d_16">
    <defs>
     <path id="m044c742d11" d="M -3 3 
L 3 3 
L 3 -3 
L -3 -3 
z
" style="stroke: #000000; stroke-linejoin: miter"/>
    </defs>
    <g clip-path="url(#p4ac3f207b6)">
     <use xlink:href="#m044c742d11" x="82.026108" y="309.286957" style="stroke: #000000; stroke-linejoin: miter"/>
     <use xlink:href="#m044c742d11" x="411.753381" y="114.030958" style="stroke: #000000; stroke-linejoin: miter"/>
    </g>
   </g>
   <g id="line2d_17">
    <path d="M 82.026108 309.286957 
L 82.73629 308.987946 
L 84.156653 307.950879 
L 85.577017 307.397327 
L 86.997381 307.134132 
L 89.838108 306.938853 
L 97.650108 306.806523 
L 173.639563 306.012089 
L 267.383563 305.251798 
L 376.041381 304.600431 
L 437.117017 304.317405 
L 437.117017 304.317405 
" clip-path="url(#p4ac3f207b6)" style="fill: none; stroke: #1f77b4; stroke-width: 2; stroke-linecap: square"/>
   </g>
   <g id="line2d_18">
    <defs>
     <path id="m79eebf2fbd" d="M -3 3 
L 3 3 
L 3 -3 
L -3 -3 
z
" style="stroke: #000000; stroke-linejoin: miter"/>
    </defs>
    <g clip-path="url(#p4ac3f207b6)">
     <use xlink:href="#m79eebf2fbd" x="82.026108" y="309.286957" style="fill: #1f77b4; stroke: #000000; stroke-linejoin: miter"/>
     <use xlink:href="#m79eebf2fbd" x="411.753381" y="306.169511" style="fill: #1f77b4; stroke: #000000; stroke-linejoin: miter"/>
    </g>
   </g>
   <g id="line2d_19">
    <path d="M 82.026108 309.286957 
L 82.73629 306.819455 
L 83.446472 296.816957 
L 84.866835 271.50697 
L 85.577017 261.377034 
L 86.287199 253.464578 
L 86.997381 247.441296 
L 87.707563 242.902652 
L 88.417744 239.487299 
L 89.127926 236.905993 
L 89.838108 234.938286 
L 90.54829 233.420149 
L 91.258472 232.230985 
L 92.678835 230.510727 
L 94.099199 229.321341 
L 95.519563 228.419695 
L 97.650108 227.339032 
L 101.201017 225.830511 
L 109.013017 222.820471 
L 123.216653 217.592304 
L 138.130472 212.338826 
L 153.04429 207.315055 
L 168.66829 202.287489 
L 184.29229 197.489973 
L 200.626472 192.708942 
L 216.960653 188.156383 
L 234.005017 183.637674 
L 251.049381 179.344053 
L 268.803926 175.098802 
L 287.268653 170.917003 
L 305.733381 166.960395 
L 324.90829 163.076966 
L 344.793381 159.278686 
L 365.388653 155.576315 
L 386.694108 151.97939 
L 408.709744 148.49621 
L 431.435563 145.133856 
L 437.117017 144.328455 
L 437.117017 144.328455 
" clip-path="url(#p4ac3f207b6)" style="fill: none; stroke: #ff7f0e; stroke-width: 2; stroke-linecap: square"/>
   </g>
   <g id="line2d_20">
    <defs>
     <path id="m34dd549567" d="M -3 3 
L 3 3 
L 3 -3 
L -3 -3 
z
" style="stroke: #000000; stroke-linejoin: miter"/>
    </defs>
    <g clip-path="url(#p4ac3f207b6)">
     <use xlink:href="#m34dd549567" x="82.026108" y="309.286957" style="fill: #ff7f0e; stroke: #000000; stroke-linejoin: miter"/>
     <use xlink:href="#m34dd549567" x="411.753381" y="150.816814" style="fill: #ff7f0e; stroke: #000000; stroke-linejoin: miter"/>
    </g>
   </g>
   <g id="patch_3">
    <path d="M 64.271563 320.243478 
L 64.271563 79.2 
" style="fill: none; stroke: #000000; stroke-width: 0.8; stroke-linejoin: miter; stroke-linecap: square"/>
   </g>
   <g id="patch_4">
    <path d="M 454.871563 320.243478 
L 454.871563 79.2 
" style="fill: none; stroke: #000000; stroke-width: 0.8; stroke-linejoin: miter; stroke-linecap: square"/>
   </g>
   <g id="patch_5">
    <path d="M 64.271563 320.243478 
L 454.871562 320.243478 
" style="fill: none; stroke: #000000; stroke-width: 0.8; stroke-linejoin: miter; stroke-linecap: square"/>
   </g>
   <g id="patch_6">
    <path d="M 64.271563 79.2 
L 454.871562 79.2 
" style="fill: none; stroke: #000000; stroke-width: 0.8; stroke-linejoin: miter; stroke-linecap: square"/>
   </g>
   <g id="legend_1">
    <g id="patch_7">
     <path d="M 71.271563 176.9375 
L 302.227813 176.9375 
Q 304.227813 176.9375 304.227813 174.9375 
L 304.227813 86.2 
Q 304.227813 84.2 302.227813 84.2 
L 71.271563 84.2 
Q 69.271563 84.2 69.271563 86.2 
L 69.271563 174.9375 
Q 69.271563 176.9375 71.271563 176.9375 
z
" style="fill: #ffffff; opacity: 0.8; stroke: #cccccc; stroke-linejoin: miter"/>
    </g>
    <g id="line2d_21">
     <path d="M 73.271563 92.298437 
L 93.271563 92.298437 
" style="fill: none; stroke: #000000; stroke-width: 2; stroke-linecap: square"/>
    </g>
    <g id="line2d_22"/>
    <g id="text_17">
     <!-- Sim total dapagliflozin_urine -->
     <g transform="translate(101.271563 95.798437) scale(0.1 -0.1)">
      <defs>
       <path id="DejaVuSans-53" d="M 3425 4513 
L 3425 3897 
Q 3066 4069 2747 4153 
Q 2428 4238 2131 4238 
Q 1616 4238 1336 4038 
Q 1056 3838 1056 3469 
Q 1056 3159 1242 3001 
Q 1428 2844 1947 2747 
L 2328 2669 
Q 3034 2534 3370 2195 
Q 3706 1856 3706 1288 
Q 3706 609 3251 259 
Q 2797 -91 1919 -91 
Q 1588 -91 1214 -16 
Q 841 59 441 206 
L 441 856 
Q 825 641 1194 531 
Q 1563 422 1919 422 
Q 2459 422 2753 634 
Q 3047 847 3047 1241 
Q 3047 1584 2836 1778 
Q 2625 1972 2144 2069 
L 1759 2144 
Q 1053 2284 737 2584 
Q 422 2884 422 3419 
Q 422 4038 858 4394 
Q 1294 4750 2059 4750 
Q 2388 4750 2728 4690 
Q 3069 4631 3425 4513 
z
" transform="scale(0.015625)"/>
       <path id="DejaVuSans-69" d="M 603 3500 
L 1178 3500 
L 1178 0 
L 603 0 
L 603 3500 
z
M 603 4863 
L 1178 4863 
L 1178 4134 
L 603 4134 
L 603 4863 
z
" transform="scale(0.015625)"/>
       <path id="DejaVuSans-6d" d="M 3328 2828 
Q 3544 3216 3844 3400 
Q 4144 3584 4550 3584 
Q 5097 3584 5394 3201 
Q 5691 2819 5691 2113 
L 5691 0 
L 5113 0 
L 5113 2094 
Q 5113 2597 4934 2840 
Q 4756 3084 4391 3084 
Q 3944 3084 3684 2787 
Q 3425 2491 3425 1978 
L 3425 0 
L 2847 0 
L 2847 2094 
Q 2847 2600 2669 2842 
Q 2491 3084 2119 3084 
Q 1678 3084 1418 2786 
Q 1159 2488 1159 1978 
L 1159 0 
L 581 0 
L 581 3500 
L 1159 3500 
L 1159 2956 
Q 1356 3278 1631 3431 
Q 1906 3584 2284 3584 
Q 2666 3584 2933 3390 
Q 3200 3197 3328 2828 
z
" transform="scale(0.015625)"/>
       <path id="DejaVuSans-20" transform="scale(0.015625)"/>
       <path id="DejaVuSans-74" d="M 1172 4494 
L 1172 3500 
L 2356 3500 
L 2356 3053 
L 1172 3053 
L 1172 1153 
Q 1172 725 1289 603 
Q 1406 481 1766 481 
L 2356 481 
L 2356 0 
L 1766 0 
Q 1100 0 847 248 
Q 594 497 594 1153 
L 594 3053 
L 172 3053 
L 172 3500 
L 594 3500 
L 594 4494 
L 1172 4494 
z
" transform="scale(0.015625)"/>
       <path id="DejaVuSans-6f" d="M 1959 3097 
Q 1497 3097 1228 2736 
Q 959 2375 959 1747 
Q 959 1119 1226 758 
Q 1494 397 1959 397 
Q 2419 397 2687 759 
Q 2956 1122 2956 1747 
Q 2956 2369 2687 2733 
Q 2419 3097 1959 3097 
z
M 1959 3584 
Q 2709 3584 3137 3096 
Q 3566 2609 3566 1747 
Q 3566 888 3137 398 
Q 2709 -91 1959 -91 
Q 1206 -91 779 398 
Q 353 888 353 1747 
Q 353 2609 779 3096 
Q 1206 3584 1959 3584 
z
" transform="scale(0.015625)"/>
       <path id="DejaVuSans-61" d="M 2194 1759 
Q 1497 1759 1228 1600 
Q 959 1441 959 1056 
Q 959 750 1161 570 
Q 1363 391 1709 391 
Q 2188 391 2477 730 
Q 2766 1069 2766 1631 
L 2766 1759 
L 2194 1759 
z
M 3341 1997 
L 3341 0 
L 2766 0 
L 2766 531 
Q 2569 213 2275 61 
Q 1981 -91 1556 -91 
Q 1019 -91 701 211 
Q 384 513 384 1019 
Q 384 1609 779 1909 
Q 1175 2209 1959 2209 
L 2766 2209 
L 2766 2266 
Q 2766 2663 2505 2880 
Q 2244 3097 1772 3097 
Q 1472 3097 1187 3025 
Q 903 2953 641 2809 
L 641 3341 
Q 956 3463 1253 3523 
Q 1550 3584 1831 3584 
Q 2591 3584 2966 3190 
Q 3341 2797 3341 1997 
z
" transform="scale(0.015625)"/>
       <path id="DejaVuSans-6c" d="M 603 4863 
L 1178 4863 
L 1178 0 
L 603 0 
L 603 4863 
z
" transform="scale(0.015625)"/>
       <path id="DejaVuSans-64" d="M 2906 2969 
L 2906 4863 
L 3481 4863 
L 3481 0 
L 2906 0 
L 2906 525 
Q 2725 213 2448 61 
Q 2172 -91 1784 -91 
Q 1150 -91 751 415 
Q 353 922 353 1747 
Q 353 2572 751 3078 
Q 1150 3584 1784 3584 
Q 2172 3584 2448 3432 
Q 2725 3281 2906 2969 
z
M 947 1747 
Q 947 1113 1208 752 
Q 1469 391 1925 391 
Q 2381 391 2643 752 
Q 2906 1113 2906 1747 
Q 2906 2381 2643 2742 
Q 2381 3103 1925 3103 
Q 1469 3103 1208 2742 
Q 947 2381 947 1747 
z
" transform="scale(0.015625)"/>
       <path id="DejaVuSans-70" d="M 1159 525 
L 1159 -1331 
L 581 -1331 
L 581 3500 
L 1159 3500 
L 1159 2969 
Q 1341 3281 1617 3432 
Q 1894 3584 2278 3584 
Q 2916 3584 3314 3078 
Q 3713 2572 3713 1747 
Q 3713 922 3314 415 
Q 2916 -91 2278 -91 
Q 1894 -91 1617 61 
Q 1341 213 1159 525 
z
M 3116 1747 
Q 3116 2381 2855 2742 
Q 2594 3103 2138 3103 
Q 1681 3103 1420 2742 
Q 1159 2381 1159 1747 
Q 1159 1113 1420 752 
Q 1681 391 2138 391 
Q 2594 391 2855 752 
Q 3116 1113 3116 1747 
z
" transform="scale(0.015625)"/>
       <path id="DejaVuSans-67" d="M 2906 1791 
Q 2906 2416 2648 2759 
Q 2391 3103 1925 3103 
Q 1463 3103 1205 2759 
Q 947 2416 947 1791 
Q 947 1169 1205 825 
Q 1463 481 1925 481 
Q 2391 481 2648 825 
Q 2906 1169 2906 1791 
z
M 3481 434 
Q 3481 -459 3084 -895 
Q 2688 -1331 1869 -1331 
Q 1566 -1331 1297 -1286 
Q 1028 -1241 775 -1147 
L 775 -588 
Q 1028 -725 1275 -790 
Q 1522 -856 1778 -856 
Q 2344 -856 2625 -561 
Q 2906 -266 2906 331 
L 2906 616 
Q 2728 306 2450 153 
Q 2172 0 1784 0 
Q 1141 0 747 490 
Q 353 981 353 1791 
Q 353 2603 747 3093 
Q 1141 3584 1784 3584 
Q 2172 3584 2450 3431 
Q 2728 3278 2906 2969 
L 2906 3500 
L 3481 3500 
L 3481 434 
z
" transform="scale(0.015625)"/>
       <path id="DejaVuSans-66" d="M 2375 4863 
L 2375 4384 
L 1825 4384 
Q 1516 4384 1395 4259 
Q 1275 4134 1275 3809 
L 1275 3500 
L 2222 3500 
L 2222 3053 
L 1275 3053 
L 1275 0 
L 697 0 
L 697 3053 
L 147 3053 
L 147 3500 
L 697 3500 
L 697 3744 
Q 697 4328 969 4595 
Q 1241 4863 1831 4863 
L 2375 4863 
z
" transform="scale(0.015625)"/>
       <path id="DejaVuSans-7a" d="M 353 3500 
L 3084 3500 
L 3084 2975 
L 922 459 
L 3084 459 
L 3084 0 
L 275 0 
L 275 525 
L 2438 3041 
L 353 3041 
L 353 3500 
z
" transform="scale(0.015625)"/>
       <path id="DejaVuSans-6e" d="M 3513 2113 
L 3513 0 
L 2938 0 
L 2938 2094 
Q 2938 2591 2744 2837 
Q 2550 3084 2163 3084 
Q 1697 3084 1428 2787 
Q 1159 2491 1159 1978 
L 1159 0 
L 581 0 
L 581 3500 
L 1159 3500 
L 1159 2956 
Q 1366 3272 1645 3428 
Q 1925 3584 2291 3584 
Q 2894 3584 3203 3211 
Q 3513 2838 3513 2113 
z
" transform="scale(0.015625)"/>
       <path id="DejaVuSans-5f" d="M 3263 -1063 
L 3263 -1509 
L -63 -1509 
L -63 -1063 
L 3263 -1063 
z
" transform="scale(0.015625)"/>
       <path id="DejaVuSans-75" d="M 544 1381 
L 544 3500 
L 1119 3500 
L 1119 1403 
Q 1119 906 1312 657 
Q 1506 409 1894 409 
Q 2359 409 2629 706 
Q 2900 1003 2900 1516 
L 2900 3500 
L 3475 3500 
L 3475 0 
L 2900 0 
L 2900 538 
Q 2691 219 2414 64 
Q 2138 -91 1772 -91 
Q 1169 -91 856 284 
Q 544 659 544 1381 
z
M 1991 3584 
L 1991 3584 
z
" transform="scale(0.015625)"/>
       <path id="DejaVuSans-72" d="M 2631 2963 
Q 2534 3019 2420 3045 
Q 2306 3072 2169 3072 
Q 1681 3072 1420 2755 
Q 1159 2438 1159 1844 
L 1159 0 
L 581 0 
L 581 3500 
L 1159 3500 
L 1159 2956 
Q 1341 3275 1631 3429 
Q 1922 3584 2338 3584 
Q 2397 3584 2469 3576 
Q 2541 3569 2628 3553 
L 2631 2963 
z
" transform="scale(0.015625)"/>
       <path id="DejaVuSans-65" d="M 3597 1894 
L 3597 1613 
L 953 1613 
Q 991 1019 1311 708 
Q 1631 397 2203 397 
Q 2534 397 2845 478 
Q 3156 559 3463 722 
L 3463 178 
Q 3153 47 2828 -22 
Q 2503 -91 2169 -91 
Q 1331 -91 842 396 
Q 353 884 353 1716 
Q 353 2575 817 3079 
Q 1281 3584 2069 3584 
Q 2775 3584 3186 3129 
Q 3597 2675 3597 1894 
z
M 3022 2063 
Q 3016 2534 2758 2815 
Q 2500 3097 2075 3097 
Q 1594 3097 1305 2825 
Q 1016 2553 972 2059 
L 3022 2063 
z
" transform="scale(0.015625)"/>
      </defs>
      <use xlink:href="#DejaVuSans-53"/>
      <use xlink:href="#DejaVuSans-69" x="63.476562"/>
      <use xlink:href="#DejaVuSans-6d" x="91.259766"/>
      <use xlink:href="#DejaVuSans-20" x="188.671875"/>
      <use xlink:href="#DejaVuSans-74" x="220.458984"/>
      <use xlink:href="#DejaVuSans-6f" x="259.667969"/>
      <use xlink:href="#DejaVuSans-74" x="320.849609"/>
      <use xlink:href="#DejaVuSans-61" x="360.058594"/>
      <use xlink:href="#DejaVuSans-6c" x="421.337891"/>
      <use xlink:href="#DejaVuSans-20" x="449.121094"/>
      <use xlink:href="#DejaVuSans-64" x="480.908203"/>
      <use xlink:href="#DejaVuSans-61" x="544.384766"/>
      <use xlink:href="#DejaVuSans-70" x="605.664062"/>
      <use xlink:href="#DejaVuSans-61" x="669.140625"/>
      <use xlink:href="#DejaVuSans-67" x="730.419922"/>
      <use xlink:href="#DejaVuSans-6c" x="793.896484"/>
      <use xlink:href="#DejaVuSans-69" x="821.679688"/>
      <use xlink:href="#DejaVuSans-66" x="849.462891"/>
      <use xlink:href="#DejaVuSans-6c" x="884.667969"/>
      <use xlink:href="#DejaVuSans-6f" x="912.451172"/>
      <use xlink:href="#DejaVuSans-7a" x="973.632812"/>
      <use xlink:href="#DejaVuSans-69" x="1026.123047"/>
      <use xlink:href="#DejaVuSans-6e" x="1053.90625"/>
      <use xlink:href="#DejaVuSans-5f" x="1117.285156"/>
      <use xlink:href="#DejaVuSans-75" x="1167.285156"/>
      <use xlink:href="#DejaVuSans-72" x="1230.664062"/>
      <use xlink:href="#DejaVuSans-69" x="1271.777344"/>
      <use xlink:href="#DejaVuSans-6e" x="1299.560547"/>
      <use xlink:href="#DejaVuSans-65" x="1362.939453"/>
     </g>
    </g>
    <g id="LineCollection_4">
     <path d="M 83.271563 112.254687 
L 83.271563 102.254687 
" style="fill: none; stroke: #000000"/>
    </g>
    <g id="line2d_23"/>
    <g id="line2d_24">
     <g>
      <use xlink:href="#m044c742d11" x="83.271563" y="107.254687" style="stroke: #000000; stroke-linejoin: miter"/>
     </g>
    </g>
    <g id="text_18">
     <!-- total dapagliflozin_urine±SD -->
     <g transform="translate(101.271563 110.754687) scale(0.1 -0.1)">
      <defs>
       <path id="DejaVuSans-b1" d="M 2944 4013 
L 2944 2803 
L 4684 2803 
L 4684 2272 
L 2944 2272 
L 2944 1063 
L 2419 1063 
L 2419 2272 
L 678 2272 
L 678 2803 
L 2419 2803 
L 2419 4013 
L 2944 4013 
z
M 678 531 
L 4684 531 
L 4684 0 
L 678 0 
L 678 531 
z
" transform="scale(0.015625)"/>
       <path id="DejaVuSans-44" d="M 1259 4147 
L 1259 519 
L 2022 519 
Q 2988 519 3436 956 
Q 3884 1394 3884 2338 
Q 3884 3275 3436 3711 
Q 2988 4147 2022 4147 
L 1259 4147 
z
M 628 4666 
L 1925 4666 
Q 3281 4666 3915 4102 
Q 4550 3538 4550 2338 
Q 4550 1131 3912 565 
Q 3275 0 1925 0 
L 628 0 
L 628 4666 
z
" transform="scale(0.015625)"/>
      </defs>
      <use xlink:href="#DejaVuSans-74"/>
      <use xlink:href="#DejaVuSans-6f" x="39.208984"/>
      <use xlink:href="#DejaVuSans-74" x="100.390625"/>
      <use xlink:href="#DejaVuSans-61" x="139.599609"/>
      <use xlink:href="#DejaVuSans-6c" x="200.878906"/>
      <use xlink:href="#DejaVuSans-20" x="228.662109"/>
      <use xlink:href="#DejaVuSans-64" x="260.449219"/>
      <use xlink:href="#DejaVuSans-61" x="323.925781"/>
      <use xlink:href="#DejaVuSans-70" x="385.205078"/>
      <use xlink:href="#DejaVuSans-61" x="448.681641"/>
      <use xlink:href="#DejaVuSans-67" x="509.960938"/>
      <use xlink:href="#DejaVuSans-6c" x="573.4375"/>
      <use xlink:href="#DejaVuSans-69" x="601.220703"/>
      <use xlink:href="#DejaVuSans-66" x="629.003906"/>
      <use xlink:href="#DejaVuSans-6c" x="664.208984"/>
      <use xlink:href="#DejaVuSans-6f" x="691.992188"/>
      <use xlink:href="#DejaVuSans-7a" x="753.173828"/>
      <use xlink:href="#DejaVuSans-69" x="805.664062"/>
      <use xlink:href="#DejaVuSans-6e" x="833.447266"/>
      <use xlink:href="#DejaVuSans-5f" x="896.826172"/>
      <use xlink:href="#DejaVuSans-75" x="946.826172"/>
      <use xlink:href="#DejaVuSans-72" x="1010.205078"/>
      <use xlink:href="#DejaVuSans-69" x="1051.318359"/>
      <use xlink:href="#DejaVuSans-6e" x="1079.101562"/>
      <use xlink:href="#DejaVuSans-65" x="1142.480469"/>
      <use xlink:href="#DejaVuSans-b1" x="1204.003906"/>
      <use xlink:href="#DejaVuSans-53" x="1287.792969"/>
      <use xlink:href="#DejaVuSans-44" x="1351.269531"/>
     </g>
    </g>
    <g id="line2d_25">
     <path d="M 73.271563 122.210938 
L 93.271563 122.210938 
" style="fill: none; stroke: #1f77b4; stroke-width: 2; stroke-linecap: square"/>
    </g>
    <g id="line2d_26"/>
    <g id="text_19">
     <!-- Sim dapagliflozin_urine -->
     <g transform="translate(101.271563 125.710938) scale(0.1 -0.1)">
      <use xlink:href="#DejaVuSans-53"/>
      <use xlink:href="#DejaVuSans-69" x="63.476562"/>
      <use xlink:href="#DejaVuSans-6d" x="91.259766"/>
      <use xlink:href="#DejaVuSans-20" x="188.671875"/>
      <use xlink:href="#DejaVuSans-64" x="220.458984"/>
      <use xlink:href="#DejaVuSans-61" x="283.935547"/>
      <use xlink:href="#DejaVuSans-70" x="345.214844"/>
      <use xlink:href="#DejaVuSans-61" x="408.691406"/>
      <use xlink:href="#DejaVuSans-67" x="469.970703"/>
      <use xlink:href="#DejaVuSans-6c" x="533.447266"/>
      <use xlink:href="#DejaVuSans-69" x="561.230469"/>
      <use xlink:href="#DejaVuSans-66" x="589.013672"/>
      <use xlink:href="#DejaVuSans-6c" x="624.21875"/>
      <use xlink:href="#DejaVuSans-6f" x="652.001953"/>
      <use xlink:href="#DejaVuSans-7a" x="713.183594"/>
      <use xlink:href="#DejaVuSans-69" x="765.673828"/>
      <use xlink:href="#DejaVuSans-6e" x="793.457031"/>
      <use xlink:href="#DejaVuSans-5f" x="856.835938"/>
      <use xlink:href="#DejaVuSans-75" x="906.835938"/>
      <use xlink:href="#DejaVuSans-72" x="970.214844"/>
      <use xlink:href="#DejaVuSans-69" x="1011.328125"/>
      <use xlink:href="#DejaVuSans-6e" x="1039.111328"/>
      <use xlink:href="#DejaVuSans-65" x="1102.490234"/>
     </g>
    </g>
    <g id="LineCollection_5">
     <path d="M 83.271563 142.167187 
L 83.271563 132.167187 
" style="fill: none; stroke: #1f77b4"/>
    </g>
    <g id="line2d_27"/>
    <g id="line2d_28">
     <g>
      <use xlink:href="#m79eebf2fbd" x="83.271563" y="137.167187" style="fill: #1f77b4; stroke: #000000; stroke-linejoin: miter"/>
     </g>
    </g>
    <g id="text_20">
     <!-- dapagliflozin_urine±SD -->
     <g transform="translate(101.271563 140.667187) scale(0.1 -0.1)">
      <use xlink:href="#DejaVuSans-64"/>
      <use xlink:href="#DejaVuSans-61" x="63.476562"/>
      <use xlink:href="#DejaVuSans-70" x="124.755859"/>
      <use xlink:href="#DejaVuSans-61" x="188.232422"/>
      <use xlink:href="#DejaVuSans-67" x="249.511719"/>
      <use xlink:href="#DejaVuSans-6c" x="312.988281"/>
      <use xlink:href="#DejaVuSans-69" x="340.771484"/>
      <use xlink:href="#DejaVuSans-66" x="368.554688"/>
      <use xlink:href="#DejaVuSans-6c" x="403.759766"/>
      <use xlink:href="#DejaVuSans-6f" x="431.542969"/>
      <use xlink:href="#DejaVuSans-7a" x="492.724609"/>
      <use xlink:href="#DejaVuSans-69" x="545.214844"/>
      <use xlink:href="#DejaVuSans-6e" x="572.998047"/>
      <use xlink:href="#DejaVuSans-5f" x="636.376953"/>
      <use xlink:href="#DejaVuSans-75" x="686.376953"/>
      <use xlink:href="#DejaVuSans-72" x="749.755859"/>
      <use xlink:href="#DejaVuSans-69" x="790.869141"/>
      <use xlink:href="#DejaVuSans-6e" x="818.652344"/>
      <use xlink:href="#DejaVuSans-65" x="882.03125"/>
      <use xlink:href="#DejaVuSans-b1" x="943.554688"/>
      <use xlink:href="#DejaVuSans-53" x="1027.34375"/>
      <use xlink:href="#DejaVuSans-44" x="1090.820312"/>
     </g>
    </g>
    <g id="line2d_29">
     <path d="M 73.271563 152.123438 
L 93.271563 152.123438 
" style="fill: none; stroke: #ff7f0e; stroke-width: 2; stroke-linecap: square"/>
    </g>
    <g id="line2d_30"/>
    <g id="text_21">
     <!-- Sim dapagliflozin 3-o-glucuronide_urine -->
     <g transform="translate(101.271563 155.623438) scale(0.1 -0.1)">
      <defs>
       <path id="DejaVuSans-33" d="M 2597 2516 
Q 3050 2419 3304 2112 
Q 3559 1806 3559 1356 
Q 3559 666 3084 287 
Q 2609 -91 1734 -91 
Q 1441 -91 1130 -33 
Q 819 25 488 141 
L 488 750 
Q 750 597 1062 519 
Q 1375 441 1716 441 
Q 2309 441 2620 675 
Q 2931 909 2931 1356 
Q 2931 1769 2642 2001 
Q 2353 2234 1838 2234 
L 1294 2234 
L 1294 2753 
L 1863 2753 
Q 2328 2753 2575 2939 
Q 2822 3125 2822 3475 
Q 2822 3834 2567 4026 
Q 2313 4219 1838 4219 
Q 1578 4219 1281 4162 
Q 984 4106 628 3988 
L 628 4550 
Q 988 4650 1302 4700 
Q 1616 4750 1894 4750 
Q 2613 4750 3031 4423 
Q 3450 4097 3450 3541 
Q 3450 3153 3228 2886 
Q 3006 2619 2597 2516 
z
" transform="scale(0.015625)"/>
       <path id="DejaVuSans-2d" d="M 313 2009 
L 1997 2009 
L 1997 1497 
L 313 1497 
L 313 2009 
z
" transform="scale(0.015625)"/>
       <path id="DejaVuSans-63" d="M 3122 3366 
L 3122 2828 
Q 2878 2963 2633 3030 
Q 2388 3097 2138 3097 
Q 1578 3097 1268 2742 
Q 959 2388 959 1747 
Q 959 1106 1268 751 
Q 1578 397 2138 397 
Q 2388 397 2633 464 
Q 2878 531 3122 666 
L 3122 134 
Q 2881 22 2623 -34 
Q 2366 -91 2075 -91 
Q 1284 -91 818 406 
Q 353 903 353 1747 
Q 353 2603 823 3093 
Q 1294 3584 2113 3584 
Q 2378 3584 2631 3529 
Q 2884 3475 3122 3366 
z
" transform="scale(0.015625)"/>
      </defs>
      <use xlink:href="#DejaVuSans-53"/>
      <use xlink:href="#DejaVuSans-69" x="63.476562"/>
      <use xlink:href="#DejaVuSans-6d" x="91.259766"/>
      <use xlink:href="#DejaVuSans-20" x="188.671875"/>
      <use xlink:href="#DejaVuSans-64" x="220.458984"/>
      <use xlink:href="#DejaVuSans-61" x="283.935547"/>
      <use xlink:href="#DejaVuSans-70" x="345.214844"/>
      <use xlink:href="#DejaVuSans-61" x="408.691406"/>
      <use xlink:href="#DejaVuSans-67" x="469.970703"/>
      <use xlink:href="#DejaVuSans-6c" x="533.447266"/>
      <use xlink:href="#DejaVuSans-69" x="561.230469"/>
      <use xlink:href="#DejaVuSans-66" x="589.013672"/>
      <use xlink:href="#DejaVuSans-6c" x="624.21875"/>
      <use xlink:href="#DejaVuSans-6f" x="652.001953"/>
      <use xlink:href="#DejaVuSans-7a" x="713.183594"/>
      <use xlink:href="#DejaVuSans-69" x="765.673828"/>
      <use xlink:href="#DejaVuSans-6e" x="793.457031"/>
      <use xlink:href="#DejaVuSans-20" x="856.835938"/>
      <use xlink:href="#DejaVuSans-33" x="888.623047"/>
      <use xlink:href="#DejaVuSans-2d" x="952.246094"/>
      <use xlink:href="#DejaVuSans-6f" x="990.205078"/>
      <use xlink:href="#DejaVuSans-2d" x="1053.261719"/>
      <use xlink:href="#DejaVuSans-67" x="1089.345703"/>
      <use xlink:href="#DejaVuSans-6c" x="1152.822266"/>
      <use xlink:href="#DejaVuSans-75" x="1180.605469"/>
      <use xlink:href="#DejaVuSans-63" x="1243.984375"/>
      <use xlink:href="#DejaVuSans-75" x="1298.964844"/>
      <use xlink:href="#DejaVuSans-72" x="1362.34375"/>
      <use xlink:href="#DejaVuSans-6f" x="1401.207031"/>
      <use xlink:href="#DejaVuSans-6e" x="1462.388672"/>
      <use xlink:href="#DejaVuSans-69" x="1525.767578"/>
      <use xlink:href="#DejaVuSans-64" x="1553.550781"/>
      <use xlink:href="#DejaVuSans-65" x="1617.027344"/>
      <use xlink:href="#DejaVuSans-5f" x="1678.550781"/>
      <use xlink:href="#DejaVuSans-75" x="1728.550781"/>
      <use xlink:href="#DejaVuSans-72" x="1791.929688"/>
      <use xlink:href="#DejaVuSans-69" x="1833.042969"/>
      <use xlink:href="#DejaVuSans-6e" x="1860.826172"/>
      <use xlink:href="#DejaVuSans-65" x="1924.205078"/>
     </g>
    </g>
    <g id="LineCollection_6">
     <path d="M 83.271563 172.079687 
L 83.271563 162.079687 
" style="fill: none; stroke: #ff7f0e"/>
    </g>
    <g id="line2d_31"/>
    <g id="line2d_32">
     <g>
      <use xlink:href="#m34dd549567" x="83.271563" y="167.079687" style="fill: #ff7f0e; stroke: #000000; stroke-linejoin: miter"/>
     </g>
    </g>
    <g id="text_22">
     <!-- dapagliflozin 3-o-glucuronide_urine±SD -->
     <g transform="translate(101.271563 170.579687) scale(0.1 -0.1)">
      <use xlink:href="#DejaVuSans-64"/>
      <use xlink:href="#DejaVuSans-61" x="63.476562"/>
      <use xlink:href="#DejaVuSans-70" x="124.755859"/>
      <use xlink:href="#DejaVuSans-61" x="188.232422"/>
      <use xlink:href="#DejaVuSans-67" x="249.511719"/>
      <use xlink:href="#DejaVuSans-6c" x="312.988281"/>
      <use xlink:href="#DejaVuSans-69" x="340.771484"/>
      <use xlink:href="#DejaVuSans-66" x="368.554688"/>
      <use xlink:href="#DejaVuSans-6c" x="403.759766"/>
      <use xlink:href="#DejaVuSans-6f" x="431.542969"/>
      <use xlink:href="#DejaVuSans-7a" x="492.724609"/>
      <use xlink:href="#DejaVuSans-69" x="545.214844"/>
      <use xlink:href="#DejaVuSans-6e" x="572.998047"/>
      <use xlink:href="#DejaVuSans-20" x="636.376953"/>
      <use xlink:href="#DejaVuSans-33" x="668.164062"/>
      <use xlink:href="#DejaVuSans-2d" x="731.787109"/>
      <use xlink:href="#DejaVuSans-6f" x="769.746094"/>
      <use xlink:href="#DejaVuSans-2d" x="832.802734"/>
      <use xlink:href="#DejaVuSans-67" x="868.886719"/>
      <use xlink:href="#DejaVuSans-6c" x="932.363281"/>
      <use xlink:href="#DejaVuSans-75" x="960.146484"/>
      <use xlink:href="#DejaVuSans-63" x="1023.525391"/>
      <use xlink:href="#DejaVuSans-75" x="1078.505859"/>
      <use xlink:href="#DejaVuSans-72" x="1141.884766"/>
      <use xlink:href="#DejaVuSans-6f" x="1180.748047"/>
      <use xlink:href="#DejaVuSans-6e" x="1241.929688"/>
      <use xlink:href="#DejaVuSans-69" x="1305.308594"/>
      <use xlink:href="#DejaVuSans-64" x="1333.091797"/>
      <use xlink:href="#DejaVuSans-65" x="1396.568359"/>
      <use xlink:href="#DejaVuSans-5f" x="1458.091797"/>
      <use xlink:href="#DejaVuSans-75" x="1508.091797"/>
      <use xlink:href="#DejaVuSans-72" x="1571.470703"/>
      <use xlink:href="#DejaVuSans-69" x="1612.583984"/>
      <use xlink:href="#DejaVuSans-6e" x="1640.367188"/>
      <use xlink:href="#DejaVuSans-65" x="1703.746094"/>
      <use xlink:href="#DejaVuSans-b1" x="1765.269531"/>
      <use xlink:href="#DejaVuSans-53" x="1849.058594"/>
      <use xlink:href="#DejaVuSans-44" x="1912.535156"/>
     </g>
    </g>
   </g>
  </g>
  <g id="axes_2">
   <g id="patch_8">
    <path d="M 64.271563 633.6 
L 454.871563 633.6 
L 454.871563 392.556522 
L 64.271563 392.556522 
z
" style="fill: #ffffff"/>
   </g>
   <g id="matplotlib.axis_3">
    <g id="xtick_9">
     <g id="line2d_33">
      <g>
       <use xlink:href="#m9d0581bf4c" x="82.026108" y="633.6" style="stroke: #000000; stroke-width: 0.8"/>
      </g>
     </g>
     <g id="text_23">
      <!-- 0 -->
      <g transform="translate(77.254233 651.997656) scale(0.15 -0.15)">
       <use xlink:href="#DejaVuSans-30"/>
      </g>
     </g>
    </g>
    <g id="xtick_10">
     <g id="line2d_34">
      <g>
       <use xlink:href="#m9d0581bf4c" x="132.753381" y="633.6" style="stroke: #000000; stroke-width: 0.8"/>
      </g>
     </g>
     <g id="text_24">
      <!-- 2 -->
      <g transform="translate(127.981506 651.997656) scale(0.15 -0.15)">
       <use xlink:href="#DejaVuSans-32"/>
      </g>
     </g>
    </g>
    <g id="xtick_11">
     <g id="line2d_35">
      <g>
       <use xlink:href="#m9d0581bf4c" x="183.480653" y="633.6" style="stroke: #000000; stroke-width: 0.8"/>
      </g>
     </g>
     <g id="text_25">
      <!-- 4 -->
      <g transform="translate(178.708778 651.997656) scale(0.15 -0.15)">
       <use xlink:href="#DejaVuSans-34"/>
      </g>
     </g>
    </g>
    <g id="xtick_12">
     <g id="line2d_36">
      <g>
       <use xlink:href="#m9d0581bf4c" x="234.207926" y="633.6" style="stroke: #000000; stroke-width: 0.8"/>
      </g>
     </g>
     <g id="text_26">
      <!-- 6 -->
      <g transform="translate(229.436051 651.997656) scale(0.15 -0.15)">
       <use xlink:href="#DejaVuSans-36"/>
      </g>
     </g>
    </g>
    <g id="xtick_13">
     <g id="line2d_37">
      <g>
       <use xlink:href="#m9d0581bf4c" x="284.935199" y="633.6" style="stroke: #000000; stroke-width: 0.8"/>
      </g>
     </g>
     <g id="text_27">
      <!-- 8 -->
      <g transform="translate(280.163324 651.997656) scale(0.15 -0.15)">
       <use xlink:href="#DejaVuSans-38"/>
      </g>
     </g>
    </g>
    <g id="xtick_14">
     <g id="line2d_38">
      <g>
       <use xlink:href="#m9d0581bf4c" x="335.662472" y="633.6" style="stroke: #000000; stroke-width: 0.8"/>
      </g>
     </g>
     <g id="text_28">
      <!-- 10 -->
      <g transform="translate(326.118722 651.997656) scale(0.15 -0.15)">
       <use xlink:href="#DejaVuSans-31"/>
       <use xlink:href="#DejaVuSans-30" x="63.623047"/>
      </g>
     </g>
    </g>
    <g id="xtick_15">
     <g id="line2d_39">
      <g>
       <use xlink:href="#m9d0581bf4c" x="386.389744" y="633.6" style="stroke: #000000; stroke-width: 0.8"/>
      </g>
     </g>
     <g id="text_29">
      <!-- 12 -->
      <g transform="translate(376.845994 651.997656) scale(0.15 -0.15)">
       <use xlink:href="#DejaVuSans-31"/>
       <use xlink:href="#DejaVuSans-32" x="63.623047"/>
      </g>
     </g>
    </g>
    <g id="xtick_16">
     <g id="line2d_40">
      <g>
       <use xlink:href="#m9d0581bf4c" x="437.117017" y="633.6" style="stroke: #000000; stroke-width: 0.8"/>
      </g>
     </g>
     <g id="text_30">
      <!-- 14 -->
      <g transform="translate(427.573267 651.997656) scale(0.15 -0.15)">
       <use xlink:href="#DejaVuSans-31"/>
       <use xlink:href="#DejaVuSans-34" x="63.623047"/>
      </g>
     </g>
    </g>
    <g id="text_31">
     <!-- time [day] -->
     <g transform="translate(207.240781 672.794375) scale(0.18 -0.18)">
      <use xlink:href="#DejaVuSans-Bold-74"/>
      <use xlink:href="#DejaVuSans-Bold-69" x="47.802734"/>
      <use xlink:href="#DejaVuSans-Bold-6d" x="82.080078"/>
      <use xlink:href="#DejaVuSans-Bold-65" x="186.279297"/>
      <use xlink:href="#DejaVuSans-Bold-20" x="254.101562"/>
      <use xlink:href="#DejaVuSans-Bold-5b" x="288.916016"/>
      <use xlink:href="#DejaVuSans-Bold-64" x="334.619141"/>
      <use xlink:href="#DejaVuSans-Bold-61" x="406.201172"/>
      <use xlink:href="#DejaVuSans-Bold-79" x="470.556641"/>
      <use xlink:href="#DejaVuSans-Bold-5d" x="535.742188"/>
     </g>
    </g>
   </g>
   <g id="matplotlib.axis_4">
    <g id="ytick_7">
     <g id="line2d_41">
      <g>
       <use xlink:href="#m2f8157a2f4" x="64.271563" y="622.643478" style="stroke: #000000; stroke-width: 0.8"/>
      </g>
     </g>
     <g id="text_32">
      <!-- 0 -->
      <g transform="translate(47.727812 628.342306) scale(0.15 -0.15)">
       <use xlink:href="#DejaVuSans-30"/>
      </g>
     </g>
    </g>
    <g id="ytick_8">
     <g id="line2d_42">
      <g>
       <use xlink:href="#m2f8157a2f4" x="64.271563" y="562.511587" style="stroke: #000000; stroke-width: 0.8"/>
      </g>
     </g>
     <g id="text_33">
      <!-- 10 -->
      <g transform="translate(38.184063 568.210415) scale(0.15 -0.15)">
       <use xlink:href="#DejaVuSans-31"/>
       <use xlink:href="#DejaVuSans-30" x="63.623047"/>
      </g>
     </g>
    </g>
    <g id="ytick_9">
     <g id="line2d_43">
      <g>
       <use xlink:href="#m2f8157a2f4" x="64.271563" y="502.379695" style="stroke: #000000; stroke-width: 0.8"/>
      </g>
     </g>
     <g id="text_34">
      <!-- 20 -->
      <g transform="translate(38.184063 508.078523) scale(0.15 -0.15)">
       <use xlink:href="#DejaVuSans-32"/>
       <use xlink:href="#DejaVuSans-30" x="63.623047"/>
      </g>
     </g>
    </g>
    <g id="ytick_10">
     <g id="line2d_44">
      <g>
       <use xlink:href="#m2f8157a2f4" x="64.271563" y="442.247804" style="stroke: #000000; stroke-width: 0.8"/>
      </g>
     </g>
     <g id="text_35">
      <!-- 30 -->
      <g transform="translate(38.184063 447.946632) scale(0.15 -0.15)">
       <use xlink:href="#DejaVuSans-33"/>
       <use xlink:href="#DejaVuSans-30" x="63.623047"/>
      </g>
     </g>
    </g>
    <g id="text_36">
     <!-- metabolites feces [µmole] -->
     <g transform="translate(30.420937 646.177011) rotate(-90) scale(0.18 -0.18)">
      <defs>
       <path id="DejaVuSans-Bold-66" d="M 2841 4863 
L 2841 4128 
L 2222 4128 
Q 1984 4128 1890 4042 
Q 1797 3956 1797 3744 
L 1797 3500 
L 2753 3500 
L 2753 2700 
L 1797 2700 
L 1797 0 
L 678 0 
L 678 2700 
L 122 2700 
L 122 3500 
L 678 3500 
L 678 3744 
Q 678 4316 997 4589 
Q 1316 4863 1984 4863 
L 2841 4863 
z
" transform="scale(0.015625)"/>
       <path id="DejaVuSans-Bold-63" d="M 3366 3391 
L 3366 2478 
Q 3138 2634 2908 2709 
Q 2678 2784 2431 2784 
Q 1963 2784 1702 2511 
Q 1441 2238 1441 1747 
Q 1441 1256 1702 982 
Q 1963 709 2431 709 
Q 2694 709 2930 787 
Q 3166 866 3366 1019 
L 3366 103 
Q 3103 6 2833 -42 
Q 2563 -91 2291 -91 
Q 1344 -91 809 395 
Q 275 881 275 1747 
Q 275 2613 809 3098 
Q 1344 3584 2291 3584 
Q 2566 3584 2833 3536 
Q 3100 3488 3366 3391 
z
" transform="scale(0.015625)"/>
      </defs>
      <use xlink:href="#DejaVuSans-Bold-6d"/>
      <use xlink:href="#DejaVuSans-Bold-65" x="104.199219"/>
      <use xlink:href="#DejaVuSans-Bold-74" x="172.021484"/>
      <use xlink:href="#DejaVuSans-Bold-61" x="219.824219"/>
      <use xlink:href="#DejaVuSans-Bold-62" x="287.304688"/>
      <use xlink:href="#DejaVuSans-Bold-6f" x="358.886719"/>
      <use xlink:href="#DejaVuSans-Bold-6c" x="427.587891"/>
      <use xlink:href="#DejaVuSans-Bold-69" x="461.865234"/>
      <use xlink:href="#DejaVuSans-Bold-74" x="496.142578"/>
      <use xlink:href="#DejaVuSans-Bold-65" x="543.945312"/>
      <use xlink:href="#DejaVuSans-Bold-73" x="611.767578"/>
      <use xlink:href="#DejaVuSans-Bold-20" x="671.289062"/>
      <use xlink:href="#DejaVuSans-Bold-66" x="706.103516"/>
      <use xlink:href="#DejaVuSans-Bold-65" x="749.609375"/>
      <use xlink:href="#DejaVuSans-Bold-63" x="817.431641"/>
      <use xlink:href="#DejaVuSans-Bold-65" x="876.708984"/>
      <use xlink:href="#DejaVuSans-Bold-73" x="944.53125"/>
      <use xlink:href="#DejaVuSans-Bold-20" x="1004.052734"/>
      <use xlink:href="#DejaVuSans-Bold-5b" x="1038.867188"/>
      <use xlink:href="#DejaVuSans-Bold-b5" x="1084.570312"/>
      <use xlink:href="#DejaVuSans-Bold-6d" x="1158.154297"/>
      <use xlink:href="#DejaVuSans-Bold-6f" x="1262.353516"/>
      <use xlink:href="#DejaVuSans-Bold-6c" x="1331.054688"/>
      <use xlink:href="#DejaVuSans-Bold-65" x="1365.332031"/>
      <use xlink:href="#DejaVuSans-Bold-5d" x="1433.154297"/>
     </g>
    </g>
   </g>
   <g id="LineCollection_7">
    <path clip-path="url(#pc074ac0acc)" style="fill: none; stroke: #000000"/>
    <path d="M 411.753381 533.079428 
L 411.753381 403.513043 
" clip-path="url(#pc074ac0acc)" style="fill: none; stroke: #000000"/>
   </g>
   <g id="LineCollection_8">
    <path clip-path="url(#pc074ac0acc)" style="fill: none; stroke: #1f77b4"/>
    <path clip-path="url(#pc074ac0acc)" style="fill: none; stroke: #1f77b4"/>
   </g>
   <g id="line2d_45">
    <path d="M 82.026108 622.643478 
L 83.446472 549.675399 
L 84.156653 527.961291 
L 84.866835 516.628237 
L 85.577017 510.862764 
L 86.287199 507.95004 
L 86.997381 506.481369 
L 87.707563 505.741227 
L 88.417744 505.368287 
L 89.838108 505.0857 
L 92.678835 504.99575 
L 119.665744 504.989554 
L 437.117017 504.989554 
L 437.117017 504.989554 
" clip-path="url(#pc074ac0acc)" style="fill: none; stroke: #000000; stroke-width: 2; stroke-linecap: square"/>
   </g>
   <g id="line2d_46">
    <g clip-path="url(#pc074ac0acc)">
     <use xlink:href="#m044c742d11" x="82.026108" y="622.643478" style="stroke: #000000; stroke-linejoin: miter"/>
     <use xlink:href="#m044c742d11" x="411.753381" y="468.296236" style="stroke: #000000; stroke-linejoin: miter"/>
    </g>
   </g>
   <g id="line2d_47">
    <path d="M 82.026108 622.643478 
L 83.446472 549.675399 
L 84.156653 527.961291 
L 84.866835 516.628237 
L 85.577017 510.862764 
L 86.287199 507.95004 
L 86.997381 506.481369 
L 87.707563 505.741227 
L 88.417744 505.368287 
L 89.838108 505.0857 
L 92.678835 504.99575 
L 119.665744 504.989554 
L 437.117017 504.989554 
L 437.117017 504.989554 
" clip-path="url(#pc074ac0acc)" style="fill: none; stroke: #1f77b4; stroke-width: 2; stroke-linecap: square"/>
   </g>
   <g id="line2d_48">
    <g clip-path="url(#pc074ac0acc)">
     <use xlink:href="#m79eebf2fbd" x="82.026108" y="622.643478" style="fill: #1f77b4; stroke: #000000; stroke-linejoin: miter"/>
     <use xlink:href="#m79eebf2fbd" x="411.753381" y="509.401576" style="fill: #1f77b4; stroke: #000000; stroke-linejoin: miter"/>
    </g>
   </g>
   <g id="patch_9">
    <path d="M 64.271563 633.6 
L 64.271563 392.556522 
" style="fill: none; stroke: #000000; stroke-width: 0.8; stroke-linejoin: miter; stroke-linecap: square"/>
   </g>
   <g id="patch_10">
    <path d="M 454.871563 633.6 
L 454.871563 392.556522 
" style="fill: none; stroke: #000000; stroke-width: 0.8; stroke-linejoin: miter; stroke-linecap: square"/>
   </g>
   <g id="patch_11">
    <path d="M 64.271563 633.6 
L 454.871562 633.6 
" style="fill: none; stroke: #000000; stroke-width: 0.8; stroke-linejoin: miter; stroke-linecap: square"/>
   </g>
   <g id="patch_12">
    <path d="M 64.271563 392.556522 
L 454.871562 392.556522 
" style="fill: none; stroke: #000000; stroke-width: 0.8; stroke-linejoin: miter; stroke-linecap: square"/>
   </g>
   <g id="legend_2">
    <g id="patch_13">
     <path d="M 272.22625 460.381522 
L 447.871562 460.381522 
Q 449.871562 460.381522 449.871562 458.381522 
L 449.871562 399.556522 
Q 449.871562 397.556522 447.871562 397.556522 
L 272.22625 397.556522 
Q 270.22625 397.556522 270.22625 399.556522 
L 270.22625 458.381522 
Q 270.22625 460.381522 272.22625 460.381522 
z
" style="fill: #ffffff; opacity: 0.8; stroke: #cccccc; stroke-linejoin: miter"/>
    </g>
    <g id="line2d_49">
     <path d="M 274.22625 405.654959 
L 294.22625 405.654959 
" style="fill: none; stroke: #000000; stroke-width: 2; stroke-linecap: square"/>
    </g>
    <g id="line2d_50"/>
    <g id="text_37">
     <!-- Sim total dapagliflozin_feces -->
     <g transform="translate(302.22625 409.154959) scale(0.1 -0.1)">
      <defs>
       <path id="DejaVuSans-73" d="M 2834 3397 
L 2834 2853 
Q 2591 2978 2328 3040 
Q 2066 3103 1784 3103 
Q 1356 3103 1142 2972 
Q 928 2841 928 2578 
Q 928 2378 1081 2264 
Q 1234 2150 1697 2047 
L 1894 2003 
Q 2506 1872 2764 1633 
Q 3022 1394 3022 966 
Q 3022 478 2636 193 
Q 2250 -91 1575 -91 
Q 1294 -91 989 -36 
Q 684 19 347 128 
L 347 722 
Q 666 556 975 473 
Q 1284 391 1588 391 
Q 1994 391 2212 530 
Q 2431 669 2431 922 
Q 2431 1156 2273 1281 
Q 2116 1406 1581 1522 
L 1381 1569 
Q 847 1681 609 1914 
Q 372 2147 372 2553 
Q 372 3047 722 3315 
Q 1072 3584 1716 3584 
Q 2034 3584 2315 3537 
Q 2597 3491 2834 3397 
z
" transform="scale(0.015625)"/>
      </defs>
      <use xlink:href="#DejaVuSans-53"/>
      <use xlink:href="#DejaVuSans-69" x="63.476562"/>
      <use xlink:href="#DejaVuSans-6d" x="91.259766"/>
      <use xlink:href="#DejaVuSans-20" x="188.671875"/>
      <use xlink:href="#DejaVuSans-74" x="220.458984"/>
      <use xlink:href="#DejaVuSans-6f" x="259.667969"/>
      <use xlink:href="#DejaVuSans-74" x="320.849609"/>
      <use xlink:href="#DejaVuSans-61" x="360.058594"/>
      <use xlink:href="#DejaVuSans-6c" x="421.337891"/>
      <use xlink:href="#DejaVuSans-20" x="449.121094"/>
      <use xlink:href="#DejaVuSans-64" x="480.908203"/>
      <use xlink:href="#DejaVuSans-61" x="544.384766"/>
      <use xlink:href="#DejaVuSans-70" x="605.664062"/>
      <use xlink:href="#DejaVuSans-61" x="669.140625"/>
      <use xlink:href="#DejaVuSans-67" x="730.419922"/>
      <use xlink:href="#DejaVuSans-6c" x="793.896484"/>
      <use xlink:href="#DejaVuSans-69" x="821.679688"/>
      <use xlink:href="#DejaVuSans-66" x="849.462891"/>
      <use xlink:href="#DejaVuSans-6c" x="884.667969"/>
      <use xlink:href="#DejaVuSans-6f" x="912.451172"/>
      <use xlink:href="#DejaVuSans-7a" x="973.632812"/>
      <use xlink:href="#DejaVuSans-69" x="1026.123047"/>
      <use xlink:href="#DejaVuSans-6e" x="1053.90625"/>
      <use xlink:href="#DejaVuSans-5f" x="1117.285156"/>
      <use xlink:href="#DejaVuSans-66" x="1167.285156"/>
      <use xlink:href="#DejaVuSans-65" x="1202.490234"/>
      <use xlink:href="#DejaVuSans-63" x="1264.013672"/>
      <use xlink:href="#DejaVuSans-65" x="1318.994141"/>
      <use xlink:href="#DejaVuSans-73" x="1380.517578"/>
     </g>
    </g>
    <g id="LineCollection_9">
     <path d="M 284.22625 425.611209 
L 284.22625 415.611209 
" style="fill: none; stroke: #000000"/>
    </g>
    <g id="line2d_51"/>
    <g id="line2d_52">
     <g>
      <use xlink:href="#m044c742d11" x="284.22625" y="420.611209" style="stroke: #000000; stroke-linejoin: miter"/>
     </g>
    </g>
    <g id="text_38">
     <!-- total dapagliflozin_feces±SD -->
     <g transform="translate(302.22625 424.111209) scale(0.1 -0.1)">
      <use xlink:href="#DejaVuSans-74"/>
      <use xlink:href="#DejaVuSans-6f" x="39.208984"/>
      <use xlink:href="#DejaVuSans-74" x="100.390625"/>
      <use xlink:href="#DejaVuSans-61" x="139.599609"/>
      <use xlink:href="#DejaVuSans-6c" x="200.878906"/>
      <use xlink:href="#DejaVuSans-20" x="228.662109"/>
      <use xlink:href="#DejaVuSans-64" x="260.449219"/>
      <use xlink:href="#DejaVuSans-61" x="323.925781"/>
      <use xlink:href="#DejaVuSans-70" x="385.205078"/>
      <use xlink:href="#DejaVuSans-61" x="448.681641"/>
      <use xlink:href="#DejaVuSans-67" x="509.960938"/>
      <use xlink:href="#DejaVuSans-6c" x="573.4375"/>
      <use xlink:href="#DejaVuSans-69" x="601.220703"/>
      <use xlink:href="#DejaVuSans-66" x="629.003906"/>
      <use xlink:href="#DejaVuSans-6c" x="664.208984"/>
      <use xlink:href="#DejaVuSans-6f" x="691.992188"/>
      <use xlink:href="#DejaVuSans-7a" x="753.173828"/>
      <use xlink:href="#DejaVuSans-69" x="805.664062"/>
      <use xlink:href="#DejaVuSans-6e" x="833.447266"/>
      <use xlink:href="#DejaVuSans-5f" x="896.826172"/>
      <use xlink:href="#DejaVuSans-66" x="946.826172"/>
      <use xlink:href="#DejaVuSans-65" x="982.03125"/>
      <use xlink:href="#DejaVuSans-63" x="1043.554688"/>
      <use xlink:href="#DejaVuSans-65" x="1098.535156"/>
      <use xlink:href="#DejaVuSans-73" x="1160.058594"/>
      <use xlink:href="#DejaVuSans-b1" x="1212.158203"/>
      <use xlink:href="#DejaVuSans-53" x="1295.947266"/>
      <use xlink:href="#DejaVuSans-44" x="1359.423828"/>
     </g>
    </g>
    <g id="line2d_53">
     <path d="M 274.22625 435.567459 
L 294.22625 435.567459 
" style="fill: none; stroke: #1f77b4; stroke-width: 2; stroke-linecap: square"/>
    </g>
    <g id="line2d_54"/>
    <g id="text_39">
     <!-- Sim dapagliflozin_feces -->
     <g transform="translate(302.22625 439.067459) scale(0.1 -0.1)">
      <use xlink:href="#DejaVuSans-53"/>
      <use xlink:href="#DejaVuSans-69" x="63.476562"/>
      <use xlink:href="#DejaVuSans-6d" x="91.259766"/>
      <use xlink:href="#DejaVuSans-20" x="188.671875"/>
      <use xlink:href="#DejaVuSans-64" x="220.458984"/>
      <use xlink:href="#DejaVuSans-61" x="283.935547"/>
      <use xlink:href="#DejaVuSans-70" x="345.214844"/>
      <use xlink:href="#DejaVuSans-61" x="408.691406"/>
      <use xlink:href="#DejaVuSans-67" x="469.970703"/>
      <use xlink:href="#DejaVuSans-6c" x="533.447266"/>
      <use xlink:href="#DejaVuSans-69" x="561.230469"/>
      <use xlink:href="#DejaVuSans-66" x="589.013672"/>
      <use xlink:href="#DejaVuSans-6c" x="624.21875"/>
      <use xlink:href="#DejaVuSans-6f" x="652.001953"/>
      <use xlink:href="#DejaVuSans-7a" x="713.183594"/>
      <use xlink:href="#DejaVuSans-69" x="765.673828"/>
      <use xlink:href="#DejaVuSans-6e" x="793.457031"/>
      <use xlink:href="#DejaVuSans-5f" x="856.835938"/>
      <use xlink:href="#DejaVuSans-66" x="906.835938"/>
      <use xlink:href="#DejaVuSans-65" x="942.041016"/>
      <use xlink:href="#DejaVuSans-63" x="1003.564453"/>
      <use xlink:href="#DejaVuSans-65" x="1058.544922"/>
      <use xlink:href="#DejaVuSans-73" x="1120.068359"/>
     </g>
    </g>
    <g id="LineCollection_10">
     <path d="M 284.22625 455.523709 
L 284.22625 445.523709 
" style="fill: none; stroke: #1f77b4"/>
    </g>
    <g id="line2d_55"/>
    <g id="line2d_56">
     <g>
      <use xlink:href="#m79eebf2fbd" x="284.22625" y="450.523709" style="fill: #1f77b4; stroke: #000000; stroke-linejoin: miter"/>
     </g>
    </g>
    <g id="text_40">
     <!-- dapagliflozin_feces±SD -->
     <g transform="translate(302.22625 454.023709) scale(0.1 -0.1)">
      <use xlink:href="#DejaVuSans-64"/>
      <use xlink:href="#DejaVuSans-61" x="63.476562"/>
      <use xlink:href="#DejaVuSans-70" x="124.755859"/>
      <use xlink:href="#DejaVuSans-61" x="188.232422"/>
      <use xlink:href="#DejaVuSans-67" x="249.511719"/>
      <use xlink:href="#DejaVuSans-6c" x="312.988281"/>
      <use xlink:href="#DejaVuSans-69" x="340.771484"/>
      <use xlink:href="#DejaVuSans-66" x="368.554688"/>
      <use xlink:href="#DejaVuSans-6c" x="403.759766"/>
      <use xlink:href="#DejaVuSans-6f" x="431.542969"/>
      <use xlink:href="#DejaVuSans-7a" x="492.724609"/>
      <use xlink:href="#DejaVuSans-69" x="545.214844"/>
      <use xlink:href="#DejaVuSans-6e" x="572.998047"/>
      <use xlink:href="#DejaVuSans-5f" x="636.376953"/>
      <use xlink:href="#DejaVuSans-66" x="686.376953"/>
      <use xlink:href="#DejaVuSans-65" x="721.582031"/>
      <use xlink:href="#DejaVuSans-63" x="783.105469"/>
      <use xlink:href="#DejaVuSans-65" x="838.085938"/>
      <use xlink:href="#DejaVuSans-73" x="899.609375"/>
      <use xlink:href="#DejaVuSans-b1" x="951.708984"/>
      <use xlink:href="#DejaVuSans-53" x="1035.498047"/>
      <use xlink:href="#DejaVuSans-44" x="1098.974609"/>
     </g>
    </g>
   </g>
  </g>
  <g id="text_41">
   <!-- FDAMB102006 (healthy) -->
   <g transform="translate(81.634844 26.196094) scale(0.25 -0.25)">
    <defs>
     <path id="DejaVuSans-Bold-46" d="M 588 4666 
L 3834 4666 
L 3834 3756 
L 1791 3756 
L 1791 2888 
L 3713 2888 
L 3713 1978 
L 1791 1978 
L 1791 0 
L 588 0 
L 588 4666 
z
" transform="scale(0.015625)"/>
     <path id="DejaVuSans-Bold-44" d="M 1791 3756 
L 1791 909 
L 2222 909 
Q 2959 909 3348 1275 
Q 3738 1641 3738 2338 
Q 3738 3031 3350 3393 
Q 2963 3756 2222 3756 
L 1791 3756 
z
M 588 4666 
L 1856 4666 
Q 2919 4666 3439 4514 
Q 3959 4363 4331 4000 
Q 4659 3684 4818 3271 
Q 4978 2859 4978 2338 
Q 4978 1809 4818 1395 
Q 4659 981 4331 666 
Q 3956 303 3431 151 
Q 2906 0 1856 0 
L 588 0 
L 588 4666 
z
" transform="scale(0.015625)"/>
     <path id="DejaVuSans-Bold-41" d="M 3419 850 
L 1538 850 
L 1241 0 
L 31 0 
L 1759 4666 
L 3194 4666 
L 4922 0 
L 3713 0 
L 3419 850 
z
M 1838 1716 
L 3116 1716 
L 2478 3572 
L 1838 1716 
z
" transform="scale(0.015625)"/>
     <path id="DejaVuSans-Bold-4d" d="M 588 4666 
L 2119 4666 
L 3181 2169 
L 4250 4666 
L 5778 4666 
L 5778 0 
L 4641 0 
L 4641 3413 
L 3566 897 
L 2803 897 
L 1728 3413 
L 1728 0 
L 588 0 
L 588 4666 
z
" transform="scale(0.015625)"/>
     <path id="DejaVuSans-Bold-42" d="M 2456 2859 
Q 2741 2859 2887 2984 
Q 3034 3109 3034 3353 
Q 3034 3594 2887 3720 
Q 2741 3847 2456 3847 
L 1791 3847 
L 1791 2859 
L 2456 2859 
z
M 2497 819 
Q 2859 819 3042 972 
Q 3225 1125 3225 1434 
Q 3225 1738 3044 1889 
Q 2863 2041 2497 2041 
L 1791 2041 
L 1791 819 
L 2497 819 
z
M 3616 2497 
Q 4003 2384 4215 2081 
Q 4428 1778 4428 1338 
Q 4428 663 3972 331 
Q 3516 0 2584 0 
L 588 0 
L 588 4666 
L 2394 4666 
Q 3366 4666 3802 4372 
Q 4238 4078 4238 3431 
Q 4238 3091 4078 2852 
Q 3919 2613 3616 2497 
z
" transform="scale(0.015625)"/>
     <path id="DejaVuSans-Bold-31" d="M 750 831 
L 1813 831 
L 1813 3847 
L 722 3622 
L 722 4441 
L 1806 4666 
L 2950 4666 
L 2950 831 
L 4013 831 
L 4013 0 
L 750 0 
L 750 831 
z
" transform="scale(0.015625)"/>
     <path id="DejaVuSans-Bold-30" d="M 2944 2338 
Q 2944 3213 2780 3570 
Q 2616 3928 2228 3928 
Q 1841 3928 1675 3570 
Q 1509 3213 1509 2338 
Q 1509 1453 1675 1090 
Q 1841 728 2228 728 
Q 2613 728 2778 1090 
Q 2944 1453 2944 2338 
z
M 4147 2328 
Q 4147 1169 3647 539 
Q 3147 -91 2228 -91 
Q 1306 -91 806 539 
Q 306 1169 306 2328 
Q 306 3491 806 4120 
Q 1306 4750 2228 4750 
Q 3147 4750 3647 4120 
Q 4147 3491 4147 2328 
z
" transform="scale(0.015625)"/>
     <path id="DejaVuSans-Bold-32" d="M 1844 884 
L 3897 884 
L 3897 0 
L 506 0 
L 506 884 
L 2209 2388 
Q 2438 2594 2547 2791 
Q 2656 2988 2656 3200 
Q 2656 3528 2436 3728 
Q 2216 3928 1850 3928 
Q 1569 3928 1234 3808 
Q 900 3688 519 3450 
L 519 4475 
Q 925 4609 1322 4679 
Q 1719 4750 2100 4750 
Q 2938 4750 3402 4381 
Q 3866 4013 3866 3353 
Q 3866 2972 3669 2642 
Q 3472 2313 2841 1759 
L 1844 884 
z
" transform="scale(0.015625)"/>
     <path id="DejaVuSans-Bold-36" d="M 2316 2303 
Q 2000 2303 1842 2098 
Q 1684 1894 1684 1484 
Q 1684 1075 1842 870 
Q 2000 666 2316 666 
Q 2634 666 2792 870 
Q 2950 1075 2950 1484 
Q 2950 1894 2792 2098 
Q 2634 2303 2316 2303 
z
M 3803 4544 
L 3803 3681 
Q 3506 3822 3243 3889 
Q 2981 3956 2731 3956 
Q 2194 3956 1894 3657 
Q 1594 3359 1544 2772 
Q 1750 2925 1990 3001 
Q 2231 3078 2516 3078 
Q 3231 3078 3670 2659 
Q 4109 2241 4109 1563 
Q 4109 813 3618 361 
Q 3128 -91 2303 -91 
Q 1394 -91 895 523 
Q 397 1138 397 2266 
Q 397 3422 980 4083 
Q 1563 4744 2578 4744 
Q 2900 4744 3203 4694 
Q 3506 4644 3803 4544 
z
" transform="scale(0.015625)"/>
     <path id="DejaVuSans-Bold-28" d="M 2413 -844 
L 1484 -844 
Q 1006 -72 778 623 
Q 550 1319 550 2003 
Q 550 2688 779 3389 
Q 1009 4091 1484 4856 
L 2413 4856 
Q 2013 4116 1813 3408 
Q 1613 2700 1613 2009 
Q 1613 1319 1811 609 
Q 2009 -100 2413 -844 
z
" transform="scale(0.015625)"/>
     <path id="DejaVuSans-Bold-68" d="M 4056 2131 
L 4056 0 
L 2931 0 
L 2931 347 
L 2931 1625 
Q 2931 2084 2911 2256 
Q 2891 2428 2841 2509 
Q 2775 2619 2662 2680 
Q 2550 2741 2406 2741 
Q 2056 2741 1856 2470 
Q 1656 2200 1656 1722 
L 1656 0 
L 538 0 
L 538 4863 
L 1656 4863 
L 1656 2988 
Q 1909 3294 2193 3439 
Q 2478 3584 2822 3584 
Q 3428 3584 3742 3212 
Q 4056 2841 4056 2131 
z
" transform="scale(0.015625)"/>
     <path id="DejaVuSans-Bold-29" d="M 513 -844 
Q 913 -100 1113 609 
Q 1313 1319 1313 2009 
Q 1313 2700 1113 3408 
Q 913 4116 513 4856 
L 1441 4856 
Q 1916 4091 2145 3389 
Q 2375 2688 2375 2003 
Q 2375 1319 2147 623 
Q 1919 -72 1441 -844 
L 513 -844 
z
" transform="scale(0.015625)"/>
    </defs>
    <use xlink:href="#DejaVuSans-Bold-46"/>
    <use xlink:href="#DejaVuSans-Bold-44" x="68.310547"/>
    <use xlink:href="#DejaVuSans-Bold-41" x="151.318359"/>
    <use xlink:href="#DejaVuSans-Bold-4d" x="228.710938"/>
    <use xlink:href="#DejaVuSans-Bold-42" x="328.222656"/>
    <use xlink:href="#DejaVuSans-Bold-31" x="404.443359"/>
    <use xlink:href="#DejaVuSans-Bold-30" x="474.023438"/>
    <use xlink:href="#DejaVuSans-Bold-32" x="543.603516"/>
    <use xlink:href="#DejaVuSans-Bold-30" x="613.183594"/>
    <use xlink:href="#DejaVuSans-Bold-30" x="682.763672"/>
    <use xlink:href="#DejaVuSans-Bold-36" x="752.34375"/>
    <use xlink:href="#DejaVuSans-Bold-20" x="821.923828"/>
    <use xlink:href="#DejaVuSans-Bold-28" x="856.738281"/>
    <use xlink:href="#DejaVuSans-Bold-68" x="902.441406"/>
    <use xlink:href="#DejaVuSans-Bold-65" x="973.632812"/>
    <use xlink:href="#DejaVuSans-Bold-61" x="1041.455078"/>
    <use xlink:href="#DejaVuSans-Bold-6c" x="1108.935547"/>
    <use xlink:href="#DejaVuSans-Bold-74" x="1143.212891"/>
    <use xlink:href="#DejaVuSans-Bold-68" x="1191.015625"/>
    <use xlink:href="#DejaVuSans-Bold-79" x="1262.207031"/>
    <use xlink:href="#DejaVuSans-Bold-29" x="1327.392578"/>
   </g>
  </g>
 </g>
 <defs>
  <clipPath id="p4ac3f207b6">
   <rect x="64.271563" y="79.2" width="390.6" height="241.043478"/>
  </clipPath>
  <clipPath id="pc074ac0acc">
   <rect x="64.271563" y="392.556522" width="390.6" height="241.043478"/>
  </clipPath>
 </defs>
</svg>
