<?xml version="1.0" encoding="utf-8" standalone="no"?>
<!DOCTYPE svg PUBLIC "-//W3C//DTD SVG 1.1//EN"
  "http://www.w3.org/Graphics/SVG/1.1/DTD/svg11.dtd">
<svg xmlns:xlink="http://www.w3.org/1999/xlink" width="720pt" height="360pt" viewBox="0 0 720 360" xmlns="http://www.w3.org/2000/svg" version="1.1">
 <metadata>
  <rdf:RDF xmlns:dc="http://purl.org/dc/elements/1.1/" xmlns:cc="http://creativecommons.org/ns#" xmlns:rdf="http://www.w3.org/1999/02/22-rdf-syntax-ns#">
   <cc:Work>
    <dc:type rdf:resource="http://purl.org/dc/dcmitype/StillImage"/>
    <dc:date>2024-12-16T16:48:58.429857</dc:date>
    <dc:format>image/svg+xml</dc:format>
    <dc:creator>
     <cc:Agent>
      <dc:title>Matplotlib v3.9.1, https://matplotlib.org/</dc:title>
     </cc:Agent>
    </dc:creator>
   </cc:Work>
  </rdf:RDF>
 </metadata>
 <defs>
  <style type="text/css">*{stroke-linejoin: round; stroke-linecap: butt}</style>
 </defs>
 <g id="figure_1">
  <g id="patch_1">
   <path d="M 0 360 
L 720 360 
L 720 0 
L 0 0 
z
" style="fill: #ffffff"/>
  </g>
  <g id="axes_1">
   <g id="patch_2">
    <path d="M 90 320.4 
L 343.636364 320.4 
L 343.636364 43.2 
L 90 43.2 
z
" style="fill: #ffffff"/>
   </g>
   <g id="matplotlib.axis_1">
    <g id="xtick_1">
     <g id="line2d_1">
      <defs>
       <path id="mebb3236a2e" d="M 0 0 
L 0 3.5 
" style="stroke: #000000; stroke-width: 0.8"/>
      </defs>
      <g>
       <use xlink:href="#mebb3236a2e" x="110.994589" y="320.4" style="stroke: #000000; stroke-width: 0.8"/>
      </g>
     </g>
     <g id="text_1">
      <!-- 0 -->
      <g transform="translate(107.813339 334.998438) scale(0.1 -0.1)">
       <defs>
        <path id="DejaVuSans-30" d="M 2034 4250 
Q 1547 4250 1301 3770 
Q 1056 3291 1056 2328 
Q 1056 1369 1301 889 
Q 1547 409 2034 409 
Q 2525 409 2770 889 
Q 3016 1369 3016 2328 
Q 3016 3291 2770 3770 
Q 2525 4250 2034 4250 
z
M 2034 4750 
Q 2819 4750 3233 4129 
Q 3647 3509 3647 2328 
Q 3647 1150 3233 529 
Q 2819 -91 2034 -91 
Q 1250 -91 836 529 
Q 422 1150 422 2328 
Q 422 3509 836 4129 
Q 1250 4750 2034 4750 
z
" transform="scale(0.015625)"/>
       </defs>
       <use xlink:href="#DejaVuSans-30"/>
      </g>
     </g>
    </g>
    <g id="xtick_2">
     <g id="line2d_2">
      <g>
       <use xlink:href="#mebb3236a2e" x="163.451288" y="320.4" style="stroke: #000000; stroke-width: 0.8"/>
      </g>
     </g>
     <g id="text_2">
      <!-- 5000 -->
      <g transform="translate(150.726288 334.998438) scale(0.1 -0.1)">
       <defs>
        <path id="DejaVuSans-35" d="M 691 4666 
L 3169 4666 
L 3169 4134 
L 1269 4134 
L 1269 2991 
Q 1406 3038 1543 3061 
Q 1681 3084 1819 3084 
Q 2600 3084 3056 2656 
Q 3513 2228 3513 1497 
Q 3513 744 3044 326 
Q 2575 -91 1722 -91 
Q 1428 -91 1123 -41 
Q 819 9 494 109 
L 494 744 
Q 775 591 1075 516 
Q 1375 441 1709 441 
Q 2250 441 2565 725 
Q 2881 1009 2881 1497 
Q 2881 1984 2565 2268 
Q 2250 2553 1709 2553 
Q 1456 2553 1204 2497 
Q 953 2441 691 2322 
L 691 4666 
z
" transform="scale(0.015625)"/>
       </defs>
       <use xlink:href="#DejaVuSans-35"/>
       <use xlink:href="#DejaVuSans-30" x="63.623047"/>
       <use xlink:href="#DejaVuSans-30" x="127.246094"/>
       <use xlink:href="#DejaVuSans-30" x="190.869141"/>
      </g>
     </g>
    </g>
    <g id="xtick_3">
     <g id="line2d_3">
      <g>
       <use xlink:href="#mebb3236a2e" x="215.907987" y="320.4" style="stroke: #000000; stroke-width: 0.8"/>
      </g>
     </g>
     <g id="text_3">
      <!-- 10000 -->
      <g transform="translate(200.001737 334.998438) scale(0.1 -0.1)">
       <defs>
        <path id="DejaVuSans-31" d="M 794 531 
L 1825 531 
L 1825 4091 
L 703 3866 
L 703 4441 
L 1819 4666 
L 2450 4666 
L 2450 531 
L 3481 531 
L 3481 0 
L 794 0 
L 794 531 
z
" transform="scale(0.015625)"/>
       </defs>
       <use xlink:href="#DejaVuSans-31"/>
       <use xlink:href="#DejaVuSans-30" x="63.623047"/>
       <use xlink:href="#DejaVuSans-30" x="127.246094"/>
       <use xlink:href="#DejaVuSans-30" x="190.869141"/>
       <use xlink:href="#DejaVuSans-30" x="254.492188"/>
      </g>
     </g>
    </g>
    <g id="xtick_4">
     <g id="line2d_4">
      <g>
       <use xlink:href="#mebb3236a2e" x="268.364686" y="320.4" style="stroke: #000000; stroke-width: 0.8"/>
      </g>
     </g>
     <g id="text_4">
      <!-- 15000 -->
      <g transform="translate(252.458436 334.998438) scale(0.1 -0.1)">
       <use xlink:href="#DejaVuSans-31"/>
       <use xlink:href="#DejaVuSans-35" x="63.623047"/>
       <use xlink:href="#DejaVuSans-30" x="127.246094"/>
       <use xlink:href="#DejaVuSans-30" x="190.869141"/>
       <use xlink:href="#DejaVuSans-30" x="254.492188"/>
      </g>
     </g>
    </g>
    <g id="xtick_5">
     <g id="line2d_5">
      <g>
       <use xlink:href="#mebb3236a2e" x="320.821386" y="320.4" style="stroke: #000000; stroke-width: 0.8"/>
      </g>
     </g>
     <g id="text_5">
      <!-- 20000 -->
      <g transform="translate(304.915136 334.998438) scale(0.1 -0.1)">
       <defs>
        <path id="DejaVuSans-32" d="M 1228 531 
L 3431 531 
L 3431 0 
L 469 0 
L 469 531 
Q 828 903 1448 1529 
Q 2069 2156 2228 2338 
Q 2531 2678 2651 2914 
Q 2772 3150 2772 3378 
Q 2772 3750 2511 3984 
Q 2250 4219 1831 4219 
Q 1534 4219 1204 4116 
Q 875 4013 500 3803 
L 500 4441 
Q 881 4594 1212 4672 
Q 1544 4750 1819 4750 
Q 2544 4750 2975 4387 
Q 3406 4025 3406 3419 
Q 3406 3131 3298 2873 
Q 3191 2616 2906 2266 
Q 2828 2175 2409 1742 
Q 1991 1309 1228 531 
z
" transform="scale(0.015625)"/>
       </defs>
       <use xlink:href="#DejaVuSans-32"/>
       <use xlink:href="#DejaVuSans-30" x="63.623047"/>
       <use xlink:href="#DejaVuSans-30" x="127.246094"/>
       <use xlink:href="#DejaVuSans-30" x="190.869141"/>
       <use xlink:href="#DejaVuSans-30" x="254.492188"/>
      </g>
     </g>
    </g>
    <g id="text_6">
     <!-- time -->
     <g transform="translate(203.262869 350.19625) scale(0.12 -0.12)">
      <defs>
       <path id="DejaVuSans-74" d="M 1172 4494 
L 1172 3500 
L 2356 3500 
L 2356 3053 
L 1172 3053 
L 1172 1153 
Q 1172 725 1289 603 
Q 1406 481 1766 481 
L 2356 481 
L 2356 0 
L 1766 0 
Q 1100 0 847 248 
Q 594 497 594 1153 
L 594 3053 
L 172 3053 
L 172 3500 
L 594 3500 
L 594 4494 
L 1172 4494 
z
" transform="scale(0.015625)"/>
       <path id="DejaVuSans-69" d="M 603 3500 
L 1178 3500 
L 1178 0 
L 603 0 
L 603 3500 
z
M 603 4863 
L 1178 4863 
L 1178 4134 
L 603 4134 
L 603 4863 
z
" transform="scale(0.015625)"/>
       <path id="DejaVuSans-6d" d="M 3328 2828 
Q 3544 3216 3844 3400 
Q 4144 3584 4550 3584 
Q 5097 3584 5394 3201 
Q 5691 2819 5691 2113 
L 5691 0 
L 5113 0 
L 5113 2094 
Q 5113 2597 4934 2840 
Q 4756 3084 4391 3084 
Q 3944 3084 3684 2787 
Q 3425 2491 3425 1978 
L 3425 0 
L 2847 0 
L 2847 2094 
Q 2847 2600 2669 2842 
Q 2491 3084 2119 3084 
Q 1678 3084 1418 2786 
Q 1159 2488 1159 1978 
L 1159 0 
L 581 0 
L 581 3500 
L 1159 3500 
L 1159 2956 
Q 1356 3278 1631 3431 
Q 1906 3584 2284 3584 
Q 2666 3584 2933 3390 
Q 3200 3197 3328 2828 
z
" transform="scale(0.015625)"/>
       <path id="DejaVuSans-65" d="M 3597 1894 
L 3597 1613 
L 953 1613 
Q 991 1019 1311 708 
Q 1631 397 2203 397 
Q 2534 397 2845 478 
Q 3156 559 3463 722 
L 3463 178 
Q 3153 47 2828 -22 
Q 2503 -91 2169 -91 
Q 1331 -91 842 396 
Q 353 884 353 1716 
Q 353 2575 817 3079 
Q 1281 3584 2069 3584 
Q 2775 3584 3186 3129 
Q 3597 2675 3597 1894 
z
M 3022 2063 
Q 3016 2534 2758 2815 
Q 2500 3097 2075 3097 
Q 1594 3097 1305 2825 
Q 1016 2553 972 2059 
L 3022 2063 
z
" transform="scale(0.015625)"/>
      </defs>
      <use xlink:href="#DejaVuSans-74"/>
      <use xlink:href="#DejaVuSans-69" x="39.208984"/>
      <use xlink:href="#DejaVuSans-6d" x="66.992188"/>
      <use xlink:href="#DejaVuSans-65" x="164.404297"/>
     </g>
    </g>
   </g>
   <g id="matplotlib.axis_2">
    <g id="ytick_1">
     <g id="line2d_6">
      <defs>
       <path id="m853235e181" d="M 0 0 
L -3.5 0 
" style="stroke: #000000; stroke-width: 0.8"/>
      </defs>
      <g>
       <use xlink:href="#m853235e181" x="90" y="307.8" style="stroke: #000000; stroke-width: 0.8"/>
      </g>
     </g>
     <g id="text_7">
      <!-- 0.00000 -->
      <g transform="translate(41.646875 311.599219) scale(0.1 -0.1)">
       <defs>
        <path id="DejaVuSans-2e" d="M 684 794 
L 1344 794 
L 1344 0 
L 684 0 
L 684 794 
z
" transform="scale(0.015625)"/>
       </defs>
       <use xlink:href="#DejaVuSans-30"/>
       <use xlink:href="#DejaVuSans-2e" x="63.623047"/>
       <use xlink:href="#DejaVuSans-30" x="95.410156"/>
       <use xlink:href="#DejaVuSans-30" x="159.033203"/>
       <use xlink:href="#DejaVuSans-30" x="222.65625"/>
       <use xlink:href="#DejaVuSans-30" x="286.279297"/>
       <use xlink:href="#DejaVuSans-30" x="349.902344"/>
      </g>
     </g>
    </g>
    <g id="ytick_2">
     <g id="line2d_7">
      <g>
       <use xlink:href="#m853235e181" x="90" y="270.532751" style="stroke: #000000; stroke-width: 0.8"/>
      </g>
     </g>
     <g id="text_8">
      <!-- 0.00025 -->
      <g transform="translate(41.646875 274.33197) scale(0.1 -0.1)">
       <use xlink:href="#DejaVuSans-30"/>
       <use xlink:href="#DejaVuSans-2e" x="63.623047"/>
       <use xlink:href="#DejaVuSans-30" x="95.410156"/>
       <use xlink:href="#DejaVuSans-30" x="159.033203"/>
       <use xlink:href="#DejaVuSans-30" x="222.65625"/>
       <use xlink:href="#DejaVuSans-32" x="286.279297"/>
       <use xlink:href="#DejaVuSans-35" x="349.902344"/>
      </g>
     </g>
    </g>
    <g id="ytick_3">
     <g id="line2d_8">
      <g>
       <use xlink:href="#m853235e181" x="90" y="233.265502" style="stroke: #000000; stroke-width: 0.8"/>
      </g>
     </g>
     <g id="text_9">
      <!-- 0.00050 -->
      <g transform="translate(41.646875 237.064721) scale(0.1 -0.1)">
       <use xlink:href="#DejaVuSans-30"/>
       <use xlink:href="#DejaVuSans-2e" x="63.623047"/>
       <use xlink:href="#DejaVuSans-30" x="95.410156"/>
       <use xlink:href="#DejaVuSans-30" x="159.033203"/>
       <use xlink:href="#DejaVuSans-30" x="222.65625"/>
       <use xlink:href="#DejaVuSans-35" x="286.279297"/>
       <use xlink:href="#DejaVuSans-30" x="349.902344"/>
      </g>
     </g>
    </g>
    <g id="ytick_4">
     <g id="line2d_9">
      <g>
       <use xlink:href="#m853235e181" x="90" y="195.998253" style="stroke: #000000; stroke-width: 0.8"/>
      </g>
     </g>
     <g id="text_10">
      <!-- 0.00075 -->
      <g transform="translate(41.646875 199.797472) scale(0.1 -0.1)">
       <defs>
        <path id="DejaVuSans-37" d="M 525 4666 
L 3525 4666 
L 3525 4397 
L 1831 0 
L 1172 0 
L 2766 4134 
L 525 4134 
L 525 4666 
z
" transform="scale(0.015625)"/>
       </defs>
       <use xlink:href="#DejaVuSans-30"/>
       <use xlink:href="#DejaVuSans-2e" x="63.623047"/>
       <use xlink:href="#DejaVuSans-30" x="95.410156"/>
       <use xlink:href="#DejaVuSans-30" x="159.033203"/>
       <use xlink:href="#DejaVuSans-30" x="222.65625"/>
       <use xlink:href="#DejaVuSans-37" x="286.279297"/>
       <use xlink:href="#DejaVuSans-35" x="349.902344"/>
      </g>
     </g>
    </g>
    <g id="ytick_5">
     <g id="line2d_10">
      <g>
       <use xlink:href="#m853235e181" x="90" y="158.731005" style="stroke: #000000; stroke-width: 0.8"/>
      </g>
     </g>
     <g id="text_11">
      <!-- 0.00100 -->
      <g transform="translate(41.646875 162.530223) scale(0.1 -0.1)">
       <use xlink:href="#DejaVuSans-30"/>
       <use xlink:href="#DejaVuSans-2e" x="63.623047"/>
       <use xlink:href="#DejaVuSans-30" x="95.410156"/>
       <use xlink:href="#DejaVuSans-30" x="159.033203"/>
       <use xlink:href="#DejaVuSans-31" x="222.65625"/>
       <use xlink:href="#DejaVuSans-30" x="286.279297"/>
       <use xlink:href="#DejaVuSans-30" x="349.902344"/>
      </g>
     </g>
    </g>
    <g id="ytick_6">
     <g id="line2d_11">
      <g>
       <use xlink:href="#m853235e181" x="90" y="121.463756" style="stroke: #000000; stroke-width: 0.8"/>
      </g>
     </g>
     <g id="text_12">
      <!-- 0.00125 -->
      <g transform="translate(41.646875 125.262974) scale(0.1 -0.1)">
       <use xlink:href="#DejaVuSans-30"/>
       <use xlink:href="#DejaVuSans-2e" x="63.623047"/>
       <use xlink:href="#DejaVuSans-30" x="95.410156"/>
       <use xlink:href="#DejaVuSans-30" x="159.033203"/>
       <use xlink:href="#DejaVuSans-31" x="222.65625"/>
       <use xlink:href="#DejaVuSans-32" x="286.279297"/>
       <use xlink:href="#DejaVuSans-35" x="349.902344"/>
      </g>
     </g>
    </g>
    <g id="ytick_7">
     <g id="line2d_12">
      <g>
       <use xlink:href="#m853235e181" x="90" y="84.196507" style="stroke: #000000; stroke-width: 0.8"/>
      </g>
     </g>
     <g id="text_13">
      <!-- 0.00150 -->
      <g transform="translate(41.646875 87.995726) scale(0.1 -0.1)">
       <use xlink:href="#DejaVuSans-30"/>
       <use xlink:href="#DejaVuSans-2e" x="63.623047"/>
       <use xlink:href="#DejaVuSans-30" x="95.410156"/>
       <use xlink:href="#DejaVuSans-30" x="159.033203"/>
       <use xlink:href="#DejaVuSans-31" x="222.65625"/>
       <use xlink:href="#DejaVuSans-35" x="286.279297"/>
       <use xlink:href="#DejaVuSans-30" x="349.902344"/>
      </g>
     </g>
    </g>
    <g id="ytick_8">
     <g id="line2d_13">
      <g>
       <use xlink:href="#m853235e181" x="90" y="46.929258" style="stroke: #000000; stroke-width: 0.8"/>
      </g>
     </g>
     <g id="text_14">
      <!-- 0.00175 -->
      <g transform="translate(41.646875 50.728477) scale(0.1 -0.1)">
       <use xlink:href="#DejaVuSans-30"/>
       <use xlink:href="#DejaVuSans-2e" x="63.623047"/>
       <use xlink:href="#DejaVuSans-30" x="95.410156"/>
       <use xlink:href="#DejaVuSans-30" x="159.033203"/>
       <use xlink:href="#DejaVuSans-31" x="222.65625"/>
       <use xlink:href="#DejaVuSans-37" x="286.279297"/>
       <use xlink:href="#DejaVuSans-35" x="349.902344"/>
      </g>
     </g>
    </g>
    <g id="text_15">
     <!-- [Cve_d3g] -->
     <g transform="translate(34.8175 212.350312) rotate(-90) scale(0.12 -0.12)">
      <defs>
       <path id="DejaVuSans-5b" d="M 550 4863 
L 1875 4863 
L 1875 4416 
L 1125 4416 
L 1125 -397 
L 1875 -397 
L 1875 -844 
L 550 -844 
L 550 4863 
z
" transform="scale(0.015625)"/>
       <path id="DejaVuSans-43" d="M 4122 4306 
L 4122 3641 
Q 3803 3938 3442 4084 
Q 3081 4231 2675 4231 
Q 1875 4231 1450 3742 
Q 1025 3253 1025 2328 
Q 1025 1406 1450 917 
Q 1875 428 2675 428 
Q 3081 428 3442 575 
Q 3803 722 4122 1019 
L 4122 359 
Q 3791 134 3420 21 
Q 3050 -91 2638 -91 
Q 1578 -91 968 557 
Q 359 1206 359 2328 
Q 359 3453 968 4101 
Q 1578 4750 2638 4750 
Q 3056 4750 3426 4639 
Q 3797 4528 4122 4306 
z
" transform="scale(0.015625)"/>
       <path id="DejaVuSans-76" d="M 191 3500 
L 800 3500 
L 1894 563 
L 2988 3500 
L 3597 3500 
L 2284 0 
L 1503 0 
L 191 3500 
z
" transform="scale(0.015625)"/>
       <path id="DejaVuSans-5f" d="M 3263 -1063 
L 3263 -1509 
L -63 -1509 
L -63 -1063 
L 3263 -1063 
z
" transform="scale(0.015625)"/>
       <path id="DejaVuSans-64" d="M 2906 2969 
L 2906 4863 
L 3481 4863 
L 3481 0 
L 2906 0 
L 2906 525 
Q 2725 213 2448 61 
Q 2172 -91 1784 -91 
Q 1150 -91 751 415 
Q 353 922 353 1747 
Q 353 2572 751 3078 
Q 1150 3584 1784 3584 
Q 2172 3584 2448 3432 
Q 2725 3281 2906 2969 
z
M 947 1747 
Q 947 1113 1208 752 
Q 1469 391 1925 391 
Q 2381 391 2643 752 
Q 2906 1113 2906 1747 
Q 2906 2381 2643 2742 
Q 2381 3103 1925 3103 
Q 1469 3103 1208 2742 
Q 947 2381 947 1747 
z
" transform="scale(0.015625)"/>
       <path id="DejaVuSans-33" d="M 2597 2516 
Q 3050 2419 3304 2112 
Q 3559 1806 3559 1356 
Q 3559 666 3084 287 
Q 2609 -91 1734 -91 
Q 1441 -91 1130 -33 
Q 819 25 488 141 
L 488 750 
Q 750 597 1062 519 
Q 1375 441 1716 441 
Q 2309 441 2620 675 
Q 2931 909 2931 1356 
Q 2931 1769 2642 2001 
Q 2353 2234 1838 2234 
L 1294 2234 
L 1294 2753 
L 1863 2753 
Q 2328 2753 2575 2939 
Q 2822 3125 2822 3475 
Q 2822 3834 2567 4026 
Q 2313 4219 1838 4219 
Q 1578 4219 1281 4162 
Q 984 4106 628 3988 
L 628 4550 
Q 988 4650 1302 4700 
Q 1616 4750 1894 4750 
Q 2613 4750 3031 4423 
Q 3450 4097 3450 3541 
Q 3450 3153 3228 2886 
Q 3006 2619 2597 2516 
z
" transform="scale(0.015625)"/>
       <path id="DejaVuSans-67" d="M 2906 1791 
Q 2906 2416 2648 2759 
Q 2391 3103 1925 3103 
Q 1463 3103 1205 2759 
Q 947 2416 947 1791 
Q 947 1169 1205 825 
Q 1463 481 1925 481 
Q 2391 481 2648 825 
Q 2906 1169 2906 1791 
z
M 3481 434 
Q 3481 -459 3084 -895 
Q 2688 -1331 1869 -1331 
Q 1566 -1331 1297 -1286 
Q 1028 -1241 775 -1147 
L 775 -588 
Q 1028 -725 1275 -790 
Q 1522 -856 1778 -856 
Q 2344 -856 2625 -561 
Q 2906 -266 2906 331 
L 2906 616 
Q 2728 306 2450 153 
Q 2172 0 1784 0 
Q 1141 0 747 490 
Q 353 981 353 1791 
Q 353 2603 747 3093 
Q 1141 3584 1784 3584 
Q 2172 3584 2450 3431 
Q 2728 3278 2906 2969 
L 2906 3500 
L 3481 3500 
L 3481 434 
z
" transform="scale(0.015625)"/>
       <path id="DejaVuSans-5d" d="M 1947 4863 
L 1947 -844 
L 622 -844 
L 622 -397 
L 1369 -397 
L 1369 4416 
L 622 4416 
L 622 4863 
L 1947 4863 
z
" transform="scale(0.015625)"/>
      </defs>
      <use xlink:href="#DejaVuSans-5b"/>
      <use xlink:href="#DejaVuSans-43" x="39.013672"/>
      <use xlink:href="#DejaVuSans-76" x="108.837891"/>
      <use xlink:href="#DejaVuSans-65" x="168.017578"/>
      <use xlink:href="#DejaVuSans-5f" x="229.541016"/>
      <use xlink:href="#DejaVuSans-64" x="279.541016"/>
      <use xlink:href="#DejaVuSans-33" x="343.017578"/>
      <use xlink:href="#DejaVuSans-67" x="406.640625"/>
      <use xlink:href="#DejaVuSans-5d" x="470.117188"/>
     </g>
    </g>
   </g>
   <g id="LineCollection_1">
    <path d="M 111.136364 307.291431 
L 111.136364 301.799159 
" clip-path="url(#pb6b243f85c)" style="fill: none; stroke: #000000; stroke-width: 1.5"/>
    <path d="M 111.309329 302.162102 
L 111.309329 215.198519 
" clip-path="url(#pb6b243f85c)" style="fill: none; stroke: #000000; stroke-width: 1.5"/>
    <path d="M 111.624069 206.745977 
L 111.624069 55.8 
" clip-path="url(#pb6b243f85c)" style="fill: none; stroke: #000000; stroke-width: 1.5"/>
    <path d="M 111.938809 177.34716 
L 111.938809 77.256332 
" clip-path="url(#pb6b243f85c)" style="fill: none; stroke: #000000; stroke-width: 1.5"/>
    <path d="M 112.25355 188.533649 
L 112.25355 123.241165 
" clip-path="url(#pb6b243f85c)" style="fill: none; stroke: #000000; stroke-width: 1.5"/>
    <path d="M 113.51251 255.777392 
L 113.51251 209.902293 
" clip-path="url(#pb6b243f85c)" style="fill: none; stroke: #000000; stroke-width: 1.5"/>
    <path d="M 114.771471 278.949491 
L 114.771471 253.508246 
" clip-path="url(#pb6b243f85c)" style="fill: none; stroke: #000000; stroke-width: 1.5"/>
    <path d="M 116.030432 284.704088 
L 116.030432 264.337419 
" clip-path="url(#pb6b243f85c)" style="fill: none; stroke: #000000; stroke-width: 1.5"/>
    <path d="M 117.289393 293.023066 
L 117.289393 280.860716 
" clip-path="url(#pb6b243f85c)" style="fill: none; stroke: #000000; stroke-width: 1.5"/>
    <path d="M 118.548353 296.161667 
L 118.548353 287.849616 
" clip-path="url(#pb6b243f85c)" style="fill: none; stroke: #000000; stroke-width: 1.5"/>
    <path d="M 122.325236 301.351356 
L 122.325236 297.678025 
" clip-path="url(#pb6b243f85c)" style="fill: none; stroke: #000000; stroke-width: 1.5"/>
    <path d="M 126.102118 301.982994 
L 126.102118 299.51469 
" clip-path="url(#pb6b243f85c)" style="fill: none; stroke: #000000; stroke-width: 1.5"/>
    <path d="M 307.392471 300.050832 
L 307.392471 296.61223 
" clip-path="url(#pb6b243f85c)" style="fill: none; stroke: #000000; stroke-width: 1.5"/>
    <path d="M 307.534245 299.350973 
L 307.534245 295.434212 
" clip-path="url(#pb6b243f85c)" style="fill: none; stroke: #000000; stroke-width: 1.5"/>
    <path d="M 307.707211 283.913979 
L 307.707211 266.228869 
" clip-path="url(#pb6b243f85c)" style="fill: none; stroke: #000000; stroke-width: 1.5"/>
    <path d="M 308.021951 237.648841 
L 308.021951 96.885783 
" clip-path="url(#pb6b243f85c)" style="fill: none; stroke: #000000; stroke-width: 1.5"/>
    <path d="M 308.336691 186.298504 
L 308.336691 89.728652 
" clip-path="url(#pb6b243f85c)" style="fill: none; stroke: #000000; stroke-width: 1.5"/>
    <path d="M 308.651431 184.473067 
L 308.651431 127.301746 
" clip-path="url(#pb6b243f85c)" style="fill: none; stroke: #000000; stroke-width: 1.5"/>
    <path d="M 309.910392 243.521578 
L 309.910392 205.448033 
" clip-path="url(#pb6b243f85c)" style="fill: none; stroke: #000000; stroke-width: 1.5"/>
    <path d="M 311.169353 274.42833 
L 311.169353 242.932291 
" clip-path="url(#pb6b243f85c)" style="fill: none; stroke: #000000; stroke-width: 1.5"/>
    <path d="M 312.428314 279.556782 
L 312.428314 252.900955 
" clip-path="url(#pb6b243f85c)" style="fill: none; stroke: #000000; stroke-width: 1.5"/>
    <path d="M 313.687275 290.389113 
L 313.687275 272.223846 
" clip-path="url(#pb6b243f85c)" style="fill: none; stroke: #000000; stroke-width: 1.5"/>
    <path d="M 314.946235 295.293938 
L 314.946235 285.00066 
" clip-path="url(#pb6b243f85c)" style="fill: none; stroke: #000000; stroke-width: 1.5"/>
    <path d="M 318.723118 301.200456 
L 318.723118 296.487087 
" clip-path="url(#pb6b243f85c)" style="fill: none; stroke: #000000; stroke-width: 1.5"/>
    <path d="M 322.5 301.312215 
L 322.5 295.972359 
" clip-path="url(#pb6b243f85c)" style="fill: none; stroke: #000000; stroke-width: 1.5"/>
   </g>
   <g id="line2d_14">
    <path d="M 110.994589 307.8 
L 111.040511 307.702876 
L 111.096956 306.455362 
L 111.212088 297.998128 
L 111.972562 226.238491 
L 112.137746 224.131789 
L 112.179042 224.166949 
L 112.30293 225.315328 
L 112.572131 231.511439 
L 114.265596 279.939691 
L 114.892806 289.424286 
L 115.520015 295.500072 
L 116.084504 299.038069 
L 116.711713 301.584369 
L 117.338923 303.196086 
L 117.966132 304.21974 
L 118.65677 304.923972 
L 119.410365 305.385798 
L 120.352358 305.707904 
L 121.724654 305.926733 
L 124.28258 306.056607 
L 126.147119 306.001176 
L 126.204064 304.763758 
L 126.323413 295.894412 
L 127.096817 224.142674 
L 127.2789 222.451649 
L 127.370811 223.101636 
L 127.600588 227.623916 
L 128.136977 244.935186 
L 128.924213 268.578747 
L 129.568316 281.668829 
L 130.140851 289.36473 
L 130.713387 294.472147 
L 131.285922 297.837644 
L 131.858457 300.053078 
L 132.50256 301.65796 
L 133.146662 302.667249 
L 133.862331 303.360346 
L 134.649568 303.812417 
L 135.651505 304.127973 
L 137.15441 304.344087 
L 140.017087 304.481529 
L 141.256661 304.405176 
L 141.314904 303.053113 
L 141.441983 293.126136 
L 142.166761 223.535487 
L 142.363516 220.857885 
L 142.442218 221.178102 
L 142.599622 223.503264 
L 142.93622 232.902924 
L 144.13085 269.399752 
L 144.728165 280.95532 
L 145.32548 288.63451 
L 145.922795 293.635453 
L 146.52011 296.871906 
L 147.117425 298.966368 
L 147.71474 300.325849 
L 148.371786 301.282152 
L 149.088564 301.926403 
L 149.924805 302.368581 
L 150.999971 302.673274 
L 152.672821 302.885084 
L 156.078916 303.038126 
L 156.360593 302.967958 
L 156.41766 301.775962 
L 156.541461 292.536216 
L 157.274213 222.082143 
L 157.458923 219.415525 
L 157.495865 219.432843 
L 157.606691 220.337074 
L 157.810805 224.47884 
L 158.374259 242.682683 
L 159.19626 266.964415 
L 159.792879 278.833375 
L 160.389499 286.744693 
L 160.986118 291.905247 
L 161.582737 295.248817 
L 162.179357 297.414925 
L 162.775976 298.822698 
L 163.457827 299.844867 
L 164.139677 300.478803 
L 164.99199 300.950821 
L 166.099998 301.277951 
L 167.719393 301.497745 
L 171.043415 301.674389 
L 171.471853 301.584449 
L 171.534296 300.052865 
L 171.660039 289.978583 
L 172.363819 221.279397 
L 172.575285 218.058246 
L 172.645774 218.290891 
L 172.786752 220.157112 
L 173.110412 228.785204 
L 174.434227 268.625512 
L 175.021054 279.379599 
L 175.607881 286.551661 
L 176.194708 291.254636 
L 176.781534 294.323742 
L 177.368361 296.328236 
L 177.955188 297.642342 
L 178.625847 298.605922 
L 179.380339 299.268352 
L 180.218663 299.700378 
L 181.308484 300.0076 
L 183.068965 300.238781 
L 186.558912 300.422931 
L 186.59423 300.159049 
L 186.67331 297.120065 
L 186.851435 278.393 
L 187.335104 226.186531 
L 187.583786 217.496042 
L 187.690364 216.809215 
L 187.72589 216.889393 
L 187.832468 217.891081 
L 188.066567 222.9832 
L 188.803099 247.215331 
L 189.562194 267.837206 
L 190.1526 278.50219 
L 190.743007 285.590956 
L 191.333414 290.22668 
L 191.92382 293.245112 
L 192.514227 295.212969 
L 193.104634 296.501404 
L 193.779384 297.445585 
L 194.538478 298.095089 
L 195.381916 298.520033 
L 196.56273 298.841388 
L 198.418293 299.07522 
L 201.675008 299.235798 
L 201.72328 298.548166 
L 201.819586 293.063419 
L 202.088608 259.788999 
L 202.481911 222.869747 
L 202.732285 215.898851 
L 202.80382 215.657308 
L 202.839588 215.762088 
L 202.982658 217.410499 
L 203.237217 223.650024 
L 204.855917 270.517949 
L 205.449182 279.961656 
L 206.042446 286.182504 
L 206.635711 290.234131 
L 207.228975 292.867882 
L 207.822239 294.584582 
L 208.415504 295.709626 
L 209.09352 296.536029 
L 209.856289 297.107318 
L 210.788562 297.512641 
L 212.059843 297.804415 
L 214.178644 298.032526 
L 216.788241 298.13014 
L 216.840233 297.189047 
L 216.951855 289.709694 
L 217.798908 215.267469 
L 217.909262 214.5846 
L 217.946046 214.686156 
L 218.093184 216.392936 
L 218.391469 224.007492 
L 219.866377 267.519779 
L 220.466235 277.701825 
L 221.066093 284.400723 
L 221.665951 288.747946 
L 222.265809 291.561275 
L 222.865667 293.386541 
L 223.465525 294.577396 
L 224.151077 295.448391 
L 224.922323 296.048128 
L 225.864958 296.472479 
L 227.150368 296.778275 
L 229.292718 297.02062 
L 231.896823 297.122098 
L 231.948161 296.174437 
L 232.05495 289.139147 
L 232.92719 214.019505 
L 232.997462 213.597564 
L 233.067735 213.769123 
L 233.20828 215.534167 
L 233.532634 224.075347 
L 234.863593 264.179744 
L 235.454692 275.015151 
L 236.04579 282.22346 
L 236.636889 286.939613 
L 237.227988 290.012221 
L 237.819087 292.017472 
L 238.410186 293.332768 
L 239.085727 294.299756 
L 239.845711 294.969006 
L 240.690138 295.411831 
L 241.872336 295.754654 
L 243.730075 296.018824 
L 246.997479 296.231239 
L 247.045258 295.560244 
L 247.149263 289.440449 
L 247.45106 251.637113 
L 247.80181 220.017273 
L 248.030358 213.148073 
L 248.106541 212.676274 
L 248.144632 212.708581 
L 248.258906 213.702017 
L 248.508174 219.171633 
L 250.390135 271.381367 
L 250.978248 279.487947 
L 251.566362 284.820784 
L 252.154475 288.305169 
L 252.742588 290.582816 
L 253.330701 292.078121 
L 253.977625 293.145196 
L 254.683361 293.878795 
L 255.506719 294.398328 
L 256.565754 294.777207 
L 258.067277 295.056812 
L 260.981999 295.327874 
L 262.116554 295.307207 
L 262.173814 294.008386 
L 262.300855 284.1851 
L 263.01047 214.985808 
L 263.223525 211.817147 
L 263.294543 212.07925 
L 263.43658 214.011809 
L 263.764445 222.846656 
L 265.022175 261.154544 
L 265.6179 272.477574 
L 266.213625 280.007089 
L 266.809351 284.922614 
L 267.405076 288.116415 
L 268.000801 290.195153 
L 268.596526 291.555473 
L 269.277355 292.553807 
L 270.043287 293.244315 
L 270.894323 293.702042 
L 272.00067 294.040336 
L 273.787846 294.322067 
L 277.207555 294.592305 
L 277.250276 294.143402 
L 277.34216 289.636208 
L 277.565741 263.266221 
L 277.977996 220.527357 
L 278.22629 211.745885 
L 278.332701 211.024834 
L 278.368172 211.094586 
L 278.474583 212.06817 
L 278.723147 217.528807 
L 279.561635 245.050213 
L 280.234912 262.701048 
L 280.824029 273.168938 
L 281.413147 280.130268 
L 282.002264 284.690896 
L 282.591382 287.668919 
L 283.180499 289.618294 
L 283.769617 290.901836 
L 284.442894 291.850433 
L 285.20033 292.512212 
L 286.126086 292.988849 
L 287.304321 293.324638 
L 289.239993 293.60874 
L 292.321054 293.837707 
L 292.370643 293.094576 
L 292.476117 286.667088 
L 292.804682 245.406822 
L 293.154878 216.169471 
L 293.380983 210.511478 
L 293.42665 210.306203 
L 293.472316 210.351952 
L 293.609317 211.746743 
L 293.883318 218.330734 
L 295.531611 265.797079 
L 296.149867 275.372346 
L 296.768124 281.565673 
L 297.38638 285.530527 
L 298.004636 288.068053 
L 298.622892 289.700025 
L 299.241149 290.758402 
L 299.9281 291.513798 
L 300.752442 292.069978 
L 301.782869 292.470228 
L 303.225467 292.772214 
L 305.904577 293.066756 
L 307.436484 293.110301 
L 307.490156 292.027668 
L 307.607698 283.642369 
L 308.403553 210.97383 
L 308.537922 209.62114 
L 308.582712 209.683046 
L 308.717081 211.071435 
L 308.985819 217.502525 
L 310.649021 265.311158 
L 311.274452 274.911671 
L 311.899883 281.087933 
L 312.525314 285.021677 
L 313.150746 287.527434 
L 313.776177 289.132185 
L 314.401608 290.16921 
L 315.096532 290.907341 
L 315.93044 291.450067 
L 316.972825 291.841421 
L 318.501657 292.150173 
L 321.420337 292.463697 
L 323.12948 292.604265 
L 323.12948 292.604265 
" clip-path="url(#pb6b243f85c)" style="fill: none; stroke: #0000ff; stroke-width: 1.5; stroke-linecap: square"/>
   </g>
   <g id="line2d_15">
    <path d="M 111.136364 304.545295 
L 111.309329 258.68031 
L 111.624069 131.272989 
L 111.938809 127.301746 
L 112.25355 155.887407 
L 113.51251 232.839842 
L 114.771471 266.228869 
L 116.030432 274.520753 
L 117.289393 286.941891 
L 118.548353 292.005642 
L 122.325236 299.51469 
L 126.102118 300.748842 
L 307.392471 298.331531 
L 307.534245 297.392592 
L 307.707211 275.071424 
L 308.021951 167.267312 
L 308.336691 138.013578 
L 308.651431 155.887407 
L 309.910392 224.484806 
L 311.169353 258.68031 
L 312.428314 266.228869 
L 313.687275 281.30648 
L 314.946235 290.147299 
L 318.723118 298.843771 
L 322.5 298.642287 
" clip-path="url(#pb6b243f85c)" style="fill: none; stroke: #000000; stroke-width: 1.5; stroke-linecap: square"/>
    <defs>
     <path id="ma7afeb7d20" d="M -5 5 
L 5 5 
L 5 -5 
L -5 -5 
z
" style="stroke: #000000; stroke-linejoin: miter"/>
    </defs>
    <g clip-path="url(#pb6b243f85c)">
     <use xlink:href="#ma7afeb7d20" x="111.136364" y="304.545295" style="stroke: #000000; stroke-linejoin: miter"/>
     <use xlink:href="#ma7afeb7d20" x="111.309329" y="258.68031" style="stroke: #000000; stroke-linejoin: miter"/>
     <use xlink:href="#ma7afeb7d20" x="111.624069" y="131.272989" style="stroke: #000000; stroke-linejoin: miter"/>
     <use xlink:href="#ma7afeb7d20" x="111.938809" y="127.301746" style="stroke: #000000; stroke-linejoin: miter"/>
     <use xlink:href="#ma7afeb7d20" x="112.25355" y="155.887407" style="stroke: #000000; stroke-linejoin: miter"/>
     <use xlink:href="#ma7afeb7d20" x="113.51251" y="232.839842" style="stroke: #000000; stroke-linejoin: miter"/>
     <use xlink:href="#ma7afeb7d20" x="114.771471" y="266.228869" style="stroke: #000000; stroke-linejoin: miter"/>
     <use xlink:href="#ma7afeb7d20" x="116.030432" y="274.520753" style="stroke: #000000; stroke-linejoin: miter"/>
     <use xlink:href="#ma7afeb7d20" x="117.289393" y="286.941891" style="stroke: #000000; stroke-linejoin: miter"/>
     <use xlink:href="#ma7afeb7d20" x="118.548353" y="292.005642" style="stroke: #000000; stroke-linejoin: miter"/>
     <use xlink:href="#ma7afeb7d20" x="122.325236" y="299.51469" style="stroke: #000000; stroke-linejoin: miter"/>
     <use xlink:href="#ma7afeb7d20" x="126.102118" y="300.748842" style="stroke: #000000; stroke-linejoin: miter"/>
     <use xlink:href="#ma7afeb7d20" x="307.392471" y="298.331531" style="stroke: #000000; stroke-linejoin: miter"/>
     <use xlink:href="#ma7afeb7d20" x="307.534245" y="297.392592" style="stroke: #000000; stroke-linejoin: miter"/>
     <use xlink:href="#ma7afeb7d20" x="307.707211" y="275.071424" style="stroke: #000000; stroke-linejoin: miter"/>
     <use xlink:href="#ma7afeb7d20" x="308.021951" y="167.267312" style="stroke: #000000; stroke-linejoin: miter"/>
     <use xlink:href="#ma7afeb7d20" x="308.336691" y="138.013578" style="stroke: #000000; stroke-linejoin: miter"/>
     <use xlink:href="#ma7afeb7d20" x="308.651431" y="155.887407" style="stroke: #000000; stroke-linejoin: miter"/>
     <use xlink:href="#ma7afeb7d20" x="309.910392" y="224.484806" style="stroke: #000000; stroke-linejoin: miter"/>
     <use xlink:href="#ma7afeb7d20" x="311.169353" y="258.68031" style="stroke: #000000; stroke-linejoin: miter"/>
     <use xlink:href="#ma7afeb7d20" x="312.428314" y="266.228869" style="stroke: #000000; stroke-linejoin: miter"/>
     <use xlink:href="#ma7afeb7d20" x="313.687275" y="281.30648" style="stroke: #000000; stroke-linejoin: miter"/>
     <use xlink:href="#ma7afeb7d20" x="314.946235" y="290.147299" style="stroke: #000000; stroke-linejoin: miter"/>
     <use xlink:href="#ma7afeb7d20" x="318.723118" y="298.843771" style="stroke: #000000; stroke-linejoin: miter"/>
     <use xlink:href="#ma7afeb7d20" x="322.5" y="298.642287" style="stroke: #000000; stroke-linejoin: miter"/>
    </g>
   </g>
   <g id="patch_3">
    <path d="M 90 320.4 
L 90 43.2 
" style="fill: none; stroke: #000000; stroke-width: 0.8; stroke-linejoin: miter; stroke-linecap: square"/>
   </g>
   <g id="patch_4">
    <path d="M 343.636364 320.4 
L 343.636364 43.2 
" style="fill: none; stroke: #000000; stroke-width: 0.8; stroke-linejoin: miter; stroke-linecap: square"/>
   </g>
   <g id="patch_5">
    <path d="M 90 320.4 
L 343.636364 320.4 
" style="fill: none; stroke: #000000; stroke-width: 0.8; stroke-linejoin: miter; stroke-linecap: square"/>
   </g>
   <g id="patch_6">
    <path d="M 90 43.2 
L 343.636364 43.2 
" style="fill: none; stroke: #000000; stroke-width: 0.8; stroke-linejoin: miter; stroke-linecap: square"/>
   </g>
   <g id="text_16">
    <!-- Kasichayanula2011a fm_dap20_dapagliflozin 3-o-glucuronide -->
    <g transform="translate(1.590057 37.2) scale(0.14 -0.14)">
     <defs>
      <path id="DejaVuSans-4b" d="M 628 4666 
L 1259 4666 
L 1259 2694 
L 3353 4666 
L 4166 4666 
L 1850 2491 
L 4331 0 
L 3500 0 
L 1259 2247 
L 1259 0 
L 628 0 
L 628 4666 
z
" transform="scale(0.015625)"/>
      <path id="DejaVuSans-61" d="M 2194 1759 
Q 1497 1759 1228 1600 
Q 959 1441 959 1056 
Q 959 750 1161 570 
Q 1363 391 1709 391 
Q 2188 391 2477 730 
Q 2766 1069 2766 1631 
L 2766 1759 
L 2194 1759 
z
M 3341 1997 
L 3341 0 
L 2766 0 
L 2766 531 
Q 2569 213 2275 61 
Q 1981 -91 1556 -91 
Q 1019 -91 701 211 
Q 384 513 384 1019 
Q 384 1609 779 1909 
Q 1175 2209 1959 2209 
L 2766 2209 
L 2766 2266 
Q 2766 2663 2505 2880 
Q 2244 3097 1772 3097 
Q 1472 3097 1187 3025 
Q 903 2953 641 2809 
L 641 3341 
Q 956 3463 1253 3523 
Q 1550 3584 1831 3584 
Q 2591 3584 2966 3190 
Q 3341 2797 3341 1997 
z
" transform="scale(0.015625)"/>
      <path id="DejaVuSans-73" d="M 2834 3397 
L 2834 2853 
Q 2591 2978 2328 3040 
Q 2066 3103 1784 3103 
Q 1356 3103 1142 2972 
Q 928 2841 928 2578 
Q 928 2378 1081 2264 
Q 1234 2150 1697 2047 
L 1894 2003 
Q 2506 1872 2764 1633 
Q 3022 1394 3022 966 
Q 3022 478 2636 193 
Q 2250 -91 1575 -91 
Q 1294 -91 989 -36 
Q 684 19 347 128 
L 347 722 
Q 666 556 975 473 
Q 1284 391 1588 391 
Q 1994 391 2212 530 
Q 2431 669 2431 922 
Q 2431 1156 2273 1281 
Q 2116 1406 1581 1522 
L 1381 1569 
Q 847 1681 609 1914 
Q 372 2147 372 2553 
Q 372 3047 722 3315 
Q 1072 3584 1716 3584 
Q 2034 3584 2315 3537 
Q 2597 3491 2834 3397 
z
" transform="scale(0.015625)"/>
      <path id="DejaVuSans-63" d="M 3122 3366 
L 3122 2828 
Q 2878 2963 2633 3030 
Q 2388 3097 2138 3097 
Q 1578 3097 1268 2742 
Q 959 2388 959 1747 
Q 959 1106 1268 751 
Q 1578 397 2138 397 
Q 2388 397 2633 464 
Q 2878 531 3122 666 
L 3122 134 
Q 2881 22 2623 -34 
Q 2366 -91 2075 -91 
Q 1284 -91 818 406 
Q 353 903 353 1747 
Q 353 2603 823 3093 
Q 1294 3584 2113 3584 
Q 2378 3584 2631 3529 
Q 2884 3475 3122 3366 
z
" transform="scale(0.015625)"/>
      <path id="DejaVuSans-68" d="M 3513 2113 
L 3513 0 
L 2938 0 
L 2938 2094 
Q 2938 2591 2744 2837 
Q 2550 3084 2163 3084 
Q 1697 3084 1428 2787 
Q 1159 2491 1159 1978 
L 1159 0 
L 581 0 
L 581 4863 
L 1159 4863 
L 1159 2956 
Q 1366 3272 1645 3428 
Q 1925 3584 2291 3584 
Q 2894 3584 3203 3211 
Q 3513 2838 3513 2113 
z
" transform="scale(0.015625)"/>
      <path id="DejaVuSans-79" d="M 2059 -325 
Q 1816 -950 1584 -1140 
Q 1353 -1331 966 -1331 
L 506 -1331 
L 506 -850 
L 844 -850 
Q 1081 -850 1212 -737 
Q 1344 -625 1503 -206 
L 1606 56 
L 191 3500 
L 800 3500 
L 1894 763 
L 2988 3500 
L 3597 3500 
L 2059 -325 
z
" transform="scale(0.015625)"/>
      <path id="DejaVuSans-6e" d="M 3513 2113 
L 3513 0 
L 2938 0 
L 2938 2094 
Q 2938 2591 2744 2837 
Q 2550 3084 2163 3084 
Q 1697 3084 1428 2787 
Q 1159 2491 1159 1978 
L 1159 0 
L 581 0 
L 581 3500 
L 1159 3500 
L 1159 2956 
Q 1366 3272 1645 3428 
Q 1925 3584 2291 3584 
Q 2894 3584 3203 3211 
Q 3513 2838 3513 2113 
z
" transform="scale(0.015625)"/>
      <path id="DejaVuSans-75" d="M 544 1381 
L 544 3500 
L 1119 3500 
L 1119 1403 
Q 1119 906 1312 657 
Q 1506 409 1894 409 
Q 2359 409 2629 706 
Q 2900 1003 2900 1516 
L 2900 3500 
L 3475 3500 
L 3475 0 
L 2900 0 
L 2900 538 
Q 2691 219 2414 64 
Q 2138 -91 1772 -91 
Q 1169 -91 856 284 
Q 544 659 544 1381 
z
M 1991 3584 
L 1991 3584 
z
" transform="scale(0.015625)"/>
      <path id="DejaVuSans-6c" d="M 603 4863 
L 1178 4863 
L 1178 0 
L 603 0 
L 603 4863 
z
" transform="scale(0.015625)"/>
      <path id="DejaVuSans-20" transform="scale(0.015625)"/>
      <path id="DejaVuSans-66" d="M 2375 4863 
L 2375 4384 
L 1825 4384 
Q 1516 4384 1395 4259 
Q 1275 4134 1275 3809 
L 1275 3500 
L 2222 3500 
L 2222 3053 
L 1275 3053 
L 1275 0 
L 697 0 
L 697 3053 
L 147 3053 
L 147 3500 
L 697 3500 
L 697 3744 
Q 697 4328 969 4595 
Q 1241 4863 1831 4863 
L 2375 4863 
z
" transform="scale(0.015625)"/>
      <path id="DejaVuSans-70" d="M 1159 525 
L 1159 -1331 
L 581 -1331 
L 581 3500 
L 1159 3500 
L 1159 2969 
Q 1341 3281 1617 3432 
Q 1894 3584 2278 3584 
Q 2916 3584 3314 3078 
Q 3713 2572 3713 1747 
Q 3713 922 3314 415 
Q 2916 -91 2278 -91 
Q 1894 -91 1617 61 
Q 1341 213 1159 525 
z
M 3116 1747 
Q 3116 2381 2855 2742 
Q 2594 3103 2138 3103 
Q 1681 3103 1420 2742 
Q 1159 2381 1159 1747 
Q 1159 1113 1420 752 
Q 1681 391 2138 391 
Q 2594 391 2855 752 
Q 3116 1113 3116 1747 
z
" transform="scale(0.015625)"/>
      <path id="DejaVuSans-6f" d="M 1959 3097 
Q 1497 3097 1228 2736 
Q 959 2375 959 1747 
Q 959 1119 1226 758 
Q 1494 397 1959 397 
Q 2419 397 2687 759 
Q 2956 1122 2956 1747 
Q 2956 2369 2687 2733 
Q 2419 3097 1959 3097 
z
M 1959 3584 
Q 2709 3584 3137 3096 
Q 3566 2609 3566 1747 
Q 3566 888 3137 398 
Q 2709 -91 1959 -91 
Q 1206 -91 779 398 
Q 353 888 353 1747 
Q 353 2609 779 3096 
Q 1206 3584 1959 3584 
z
" transform="scale(0.015625)"/>
      <path id="DejaVuSans-7a" d="M 353 3500 
L 3084 3500 
L 3084 2975 
L 922 459 
L 3084 459 
L 3084 0 
L 275 0 
L 275 525 
L 2438 3041 
L 353 3041 
L 353 3500 
z
" transform="scale(0.015625)"/>
      <path id="DejaVuSans-2d" d="M 313 2009 
L 1997 2009 
L 1997 1497 
L 313 1497 
L 313 2009 
z
" transform="scale(0.015625)"/>
      <path id="DejaVuSans-72" d="M 2631 2963 
Q 2534 3019 2420 3045 
Q 2306 3072 2169 3072 
Q 1681 3072 1420 2755 
Q 1159 2438 1159 1844 
L 1159 0 
L 581 0 
L 581 3500 
L 1159 3500 
L 1159 2956 
Q 1341 3275 1631 3429 
Q 1922 3584 2338 3584 
Q 2397 3584 2469 3576 
Q 2541 3569 2628 3553 
L 2631 2963 
z
" transform="scale(0.015625)"/>
     </defs>
     <use xlink:href="#DejaVuSans-4b"/>
     <use xlink:href="#DejaVuSans-61" x="63.826172"/>
     <use xlink:href="#DejaVuSans-73" x="125.105469"/>
     <use xlink:href="#DejaVuSans-69" x="177.205078"/>
     <use xlink:href="#DejaVuSans-63" x="204.988281"/>
     <use xlink:href="#DejaVuSans-68" x="259.96875"/>
     <use xlink:href="#DejaVuSans-61" x="323.347656"/>
     <use xlink:href="#DejaVuSans-79" x="384.626953"/>
     <use xlink:href="#DejaVuSans-61" x="443.806641"/>
     <use xlink:href="#DejaVuSans-6e" x="505.085938"/>
     <use xlink:href="#DejaVuSans-75" x="568.464844"/>
     <use xlink:href="#DejaVuSans-6c" x="631.84375"/>
     <use xlink:href="#DejaVuSans-61" x="659.626953"/>
     <use xlink:href="#DejaVuSans-32" x="720.90625"/>
     <use xlink:href="#DejaVuSans-30" x="784.529297"/>
     <use xlink:href="#DejaVuSans-31" x="848.152344"/>
     <use xlink:href="#DejaVuSans-31" x="911.775391"/>
     <use xlink:href="#DejaVuSans-61" x="975.398438"/>
     <use xlink:href="#DejaVuSans-20" x="1036.677734"/>
     <use xlink:href="#DejaVuSans-66" x="1068.464844"/>
     <use xlink:href="#DejaVuSans-6d" x="1103.669922"/>
     <use xlink:href="#DejaVuSans-5f" x="1201.082031"/>
     <use xlink:href="#DejaVuSans-64" x="1251.082031"/>
     <use xlink:href="#DejaVuSans-61" x="1314.558594"/>
     <use xlink:href="#DejaVuSans-70" x="1375.837891"/>
     <use xlink:href="#DejaVuSans-32" x="1439.314453"/>
     <use xlink:href="#DejaVuSans-30" x="1502.9375"/>
     <use xlink:href="#DejaVuSans-5f" x="1566.560547"/>
     <use xlink:href="#DejaVuSans-64" x="1616.560547"/>
     <use xlink:href="#DejaVuSans-61" x="1680.037109"/>
     <use xlink:href="#DejaVuSans-70" x="1741.316406"/>
     <use xlink:href="#DejaVuSans-61" x="1804.792969"/>
     <use xlink:href="#DejaVuSans-67" x="1866.072266"/>
     <use xlink:href="#DejaVuSans-6c" x="1929.548828"/>
     <use xlink:href="#DejaVuSans-69" x="1957.332031"/>
     <use xlink:href="#DejaVuSans-66" x="1985.115234"/>
     <use xlink:href="#DejaVuSans-6c" x="2020.320312"/>
     <use xlink:href="#DejaVuSans-6f" x="2048.103516"/>
     <use xlink:href="#DejaVuSans-7a" x="2109.285156"/>
     <use xlink:href="#DejaVuSans-69" x="2161.775391"/>
     <use xlink:href="#DejaVuSans-6e" x="2189.558594"/>
     <use xlink:href="#DejaVuSans-20" x="2252.9375"/>
     <use xlink:href="#DejaVuSans-33" x="2284.724609"/>
     <use xlink:href="#DejaVuSans-2d" x="2348.347656"/>
     <use xlink:href="#DejaVuSans-6f" x="2386.306641"/>
     <use xlink:href="#DejaVuSans-2d" x="2449.363281"/>
     <use xlink:href="#DejaVuSans-67" x="2485.447266"/>
     <use xlink:href="#DejaVuSans-6c" x="2548.923828"/>
     <use xlink:href="#DejaVuSans-75" x="2576.707031"/>
     <use xlink:href="#DejaVuSans-63" x="2640.085938"/>
     <use xlink:href="#DejaVuSans-75" x="2695.066406"/>
     <use xlink:href="#DejaVuSans-72" x="2758.445312"/>
     <use xlink:href="#DejaVuSans-6f" x="2797.308594"/>
     <use xlink:href="#DejaVuSans-6e" x="2858.490234"/>
     <use xlink:href="#DejaVuSans-69" x="2921.869141"/>
     <use xlink:href="#DejaVuSans-64" x="2949.652344"/>
     <use xlink:href="#DejaVuSans-65" x="3013.128906"/>
    </g>
   </g>
   <g id="legend_1">
    <g id="patch_7">
     <path d="M 200.586364 80.834375 
L 336.636364 80.834375 
Q 338.636364 80.834375 338.636364 78.834375 
L 338.636364 50.2 
Q 338.636364 48.2 336.636364 48.2 
L 200.586364 48.2 
Q 198.586364 48.2 198.586364 50.2 
L 198.586364 78.834375 
Q 198.586364 80.834375 200.586364 80.834375 
z
" style="fill: #ffffff; opacity: 0.8; stroke: #cccccc; stroke-linejoin: miter"/>
    </g>
    <g id="line2d_16">
     <path d="M 202.586364 56.298437 
L 212.586364 56.298437 
L 222.586364 56.298437 
" style="fill: none; stroke: #0000ff; stroke-width: 1.5; stroke-linecap: square"/>
    </g>
    <g id="text_17">
     <!-- observable -->
     <g transform="translate(230.586364 59.798437) scale(0.1 -0.1)">
      <defs>
       <path id="DejaVuSans-62" d="M 3116 1747 
Q 3116 2381 2855 2742 
Q 2594 3103 2138 3103 
Q 1681 3103 1420 2742 
Q 1159 2381 1159 1747 
Q 1159 1113 1420 752 
Q 1681 391 2138 391 
Q 2594 391 2855 752 
Q 3116 1113 3116 1747 
z
M 1159 2969 
Q 1341 3281 1617 3432 
Q 1894 3584 2278 3584 
Q 2916 3584 3314 3078 
Q 3713 2572 3713 1747 
Q 3713 922 3314 415 
Q 2916 -91 2278 -91 
Q 1894 -91 1617 61 
Q 1341 213 1159 525 
L 1159 0 
L 581 0 
L 581 4863 
L 1159 4863 
L 1159 2969 
z
" transform="scale(0.015625)"/>
      </defs>
      <use xlink:href="#DejaVuSans-6f"/>
      <use xlink:href="#DejaVuSans-62" x="61.181641"/>
      <use xlink:href="#DejaVuSans-73" x="124.658203"/>
      <use xlink:href="#DejaVuSans-65" x="176.757812"/>
      <use xlink:href="#DejaVuSans-72" x="238.28125"/>
      <use xlink:href="#DejaVuSans-76" x="279.394531"/>
      <use xlink:href="#DejaVuSans-61" x="338.574219"/>
      <use xlink:href="#DejaVuSans-62" x="399.853516"/>
      <use xlink:href="#DejaVuSans-6c" x="463.330078"/>
      <use xlink:href="#DejaVuSans-65" x="491.113281"/>
     </g>
    </g>
    <g id="LineCollection_2">
     <path d="M 212.586364 75.976562 
L 212.586364 65.976562 
" style="fill: none; stroke: #000000; stroke-width: 1.5"/>
    </g>
    <g id="line2d_17">
     <path d="M 202.586364 70.976562 
L 222.586364 70.976562 
" style="fill: none; stroke: #000000; stroke-width: 1.5; stroke-linecap: square"/>
    </g>
    <g id="line2d_18">
     <g>
      <use xlink:href="#ma7afeb7d20" x="212.586364" y="70.976562" style="stroke: #000000; stroke-linejoin: miter"/>
     </g>
    </g>
    <g id="text_18">
     <!-- reference_data ± SD -->
     <g transform="translate(230.586364 74.476562) scale(0.1 -0.1)">
      <defs>
       <path id="DejaVuSans-b1" d="M 2944 4013 
L 2944 2803 
L 4684 2803 
L 4684 2272 
L 2944 2272 
L 2944 1063 
L 2419 1063 
L 2419 2272 
L 678 2272 
L 678 2803 
L 2419 2803 
L 2419 4013 
L 2944 4013 
z
M 678 531 
L 4684 531 
L 4684 0 
L 678 0 
L 678 531 
z
" transform="scale(0.015625)"/>
       <path id="DejaVuSans-53" d="M 3425 4513 
L 3425 3897 
Q 3066 4069 2747 4153 
Q 2428 4238 2131 4238 
Q 1616 4238 1336 4038 
Q 1056 3838 1056 3469 
Q 1056 3159 1242 3001 
Q 1428 2844 1947 2747 
L 2328 2669 
Q 3034 2534 3370 2195 
Q 3706 1856 3706 1288 
Q 3706 609 3251 259 
Q 2797 -91 1919 -91 
Q 1588 -91 1214 -16 
Q 841 59 441 206 
L 441 856 
Q 825 641 1194 531 
Q 1563 422 1919 422 
Q 2459 422 2753 634 
Q 3047 847 3047 1241 
Q 3047 1584 2836 1778 
Q 2625 1972 2144 2069 
L 1759 2144 
Q 1053 2284 737 2584 
Q 422 2884 422 3419 
Q 422 4038 858 4394 
Q 1294 4750 2059 4750 
Q 2388 4750 2728 4690 
Q 3069 4631 3425 4513 
z
" transform="scale(0.015625)"/>
       <path id="DejaVuSans-44" d="M 1259 4147 
L 1259 519 
L 2022 519 
Q 2988 519 3436 956 
Q 3884 1394 3884 2338 
Q 3884 3275 3436 3711 
Q 2988 4147 2022 4147 
L 1259 4147 
z
M 628 4666 
L 1925 4666 
Q 3281 4666 3915 4102 
Q 4550 3538 4550 2338 
Q 4550 1131 3912 565 
Q 3275 0 1925 0 
L 628 0 
L 628 4666 
z
" transform="scale(0.015625)"/>
      </defs>
      <use xlink:href="#DejaVuSans-72"/>
      <use xlink:href="#DejaVuSans-65" x="38.863281"/>
      <use xlink:href="#DejaVuSans-66" x="100.386719"/>
      <use xlink:href="#DejaVuSans-65" x="135.591797"/>
      <use xlink:href="#DejaVuSans-72" x="197.115234"/>
      <use xlink:href="#DejaVuSans-65" x="235.978516"/>
      <use xlink:href="#DejaVuSans-6e" x="297.501953"/>
      <use xlink:href="#DejaVuSans-63" x="360.880859"/>
      <use xlink:href="#DejaVuSans-65" x="415.861328"/>
      <use xlink:href="#DejaVuSans-5f" x="477.384766"/>
      <use xlink:href="#DejaVuSans-64" x="527.384766"/>
      <use xlink:href="#DejaVuSans-61" x="590.861328"/>
      <use xlink:href="#DejaVuSans-74" x="652.140625"/>
      <use xlink:href="#DejaVuSans-61" x="691.349609"/>
      <use xlink:href="#DejaVuSans-20" x="752.628906"/>
      <use xlink:href="#DejaVuSans-b1" x="784.416016"/>
      <use xlink:href="#DejaVuSans-20" x="868.205078"/>
      <use xlink:href="#DejaVuSans-53" x="899.992188"/>
      <use xlink:href="#DejaVuSans-44" x="963.46875"/>
     </g>
    </g>
   </g>
  </g>
  <g id="axes_2">
   <g id="patch_8">
    <path d="M 394.363636 320.4 
L 648 320.4 
L 648 43.2 
L 394.363636 43.2 
z
" style="fill: #ffffff"/>
   </g>
   <g id="matplotlib.axis_3">
    <g id="xtick_6">
     <g id="line2d_19">
      <g>
       <use xlink:href="#mebb3236a2e" x="415.358225" y="320.4" style="stroke: #000000; stroke-width: 0.8"/>
      </g>
     </g>
     <g id="text_19">
      <!-- 0 -->
      <g transform="translate(412.176975 334.998438) scale(0.1 -0.1)">
       <use xlink:href="#DejaVuSans-30"/>
      </g>
     </g>
    </g>
    <g id="xtick_7">
     <g id="line2d_20">
      <g>
       <use xlink:href="#mebb3236a2e" x="467.814924" y="320.4" style="stroke: #000000; stroke-width: 0.8"/>
      </g>
     </g>
     <g id="text_20">
      <!-- 5000 -->
      <g transform="translate(455.089924 334.998438) scale(0.1 -0.1)">
       <use xlink:href="#DejaVuSans-35"/>
       <use xlink:href="#DejaVuSans-30" x="63.623047"/>
       <use xlink:href="#DejaVuSans-30" x="127.246094"/>
       <use xlink:href="#DejaVuSans-30" x="190.869141"/>
      </g>
     </g>
    </g>
    <g id="xtick_8">
     <g id="line2d_21">
      <g>
       <use xlink:href="#mebb3236a2e" x="520.271624" y="320.4" style="stroke: #000000; stroke-width: 0.8"/>
      </g>
     </g>
     <g id="text_21">
      <!-- 10000 -->
      <g transform="translate(504.365374 334.998438) scale(0.1 -0.1)">
       <use xlink:href="#DejaVuSans-31"/>
       <use xlink:href="#DejaVuSans-30" x="63.623047"/>
       <use xlink:href="#DejaVuSans-30" x="127.246094"/>
       <use xlink:href="#DejaVuSans-30" x="190.869141"/>
       <use xlink:href="#DejaVuSans-30" x="254.492188"/>
      </g>
     </g>
    </g>
    <g id="xtick_9">
     <g id="line2d_22">
      <g>
       <use xlink:href="#mebb3236a2e" x="572.728323" y="320.4" style="stroke: #000000; stroke-width: 0.8"/>
      </g>
     </g>
     <g id="text_22">
      <!-- 15000 -->
      <g transform="translate(556.822073 334.998438) scale(0.1 -0.1)">
       <use xlink:href="#DejaVuSans-31"/>
       <use xlink:href="#DejaVuSans-35" x="63.623047"/>
       <use xlink:href="#DejaVuSans-30" x="127.246094"/>
       <use xlink:href="#DejaVuSans-30" x="190.869141"/>
       <use xlink:href="#DejaVuSans-30" x="254.492188"/>
      </g>
     </g>
    </g>
    <g id="xtick_10">
     <g id="line2d_23">
      <g>
       <use xlink:href="#mebb3236a2e" x="625.185022" y="320.4" style="stroke: #000000; stroke-width: 0.8"/>
      </g>
     </g>
     <g id="text_23">
      <!-- 20000 -->
      <g transform="translate(609.278772 334.998438) scale(0.1 -0.1)">
       <use xlink:href="#DejaVuSans-32"/>
       <use xlink:href="#DejaVuSans-30" x="63.623047"/>
       <use xlink:href="#DejaVuSans-30" x="127.246094"/>
       <use xlink:href="#DejaVuSans-30" x="190.869141"/>
       <use xlink:href="#DejaVuSans-30" x="254.492188"/>
      </g>
     </g>
    </g>
    <g id="text_24">
     <!-- time -->
     <g transform="translate(507.626506 350.19625) scale(0.12 -0.12)">
      <use xlink:href="#DejaVuSans-74"/>
      <use xlink:href="#DejaVuSans-69" x="39.208984"/>
      <use xlink:href="#DejaVuSans-6d" x="66.992188"/>
      <use xlink:href="#DejaVuSans-65" x="164.404297"/>
     </g>
    </g>
   </g>
   <g id="matplotlib.axis_4">
    <g id="ytick_9">
     <g id="line2d_24">
      <g>
       <use xlink:href="#m853235e181" x="394.363636" y="311.692285" style="stroke: #000000; stroke-width: 0.8"/>
      </g>
     </g>
     <g id="text_25">
      <!-- $\mathdefault{10^{-5}}$ -->
      <g transform="translate(363.863636 315.491503) scale(0.1 -0.1)">
       <defs>
        <path id="DejaVuSans-2212" d="M 678 2272 
L 4684 2272 
L 4684 1741 
L 678 1741 
L 678 2272 
z
" transform="scale(0.015625)"/>
       </defs>
       <use xlink:href="#DejaVuSans-31" transform="translate(0 0.684375)"/>
       <use xlink:href="#DejaVuSans-30" transform="translate(63.623047 0.684375)"/>
       <use xlink:href="#DejaVuSans-2212" transform="translate(128.203125 38.965625) scale(0.7)"/>
       <use xlink:href="#DejaVuSans-35" transform="translate(186.855469 38.965625) scale(0.7)"/>
      </g>
     </g>
    </g>
    <g id="ytick_10">
     <g id="line2d_25">
      <g>
       <use xlink:href="#m853235e181" x="394.363636" y="264.304497" style="stroke: #000000; stroke-width: 0.8"/>
      </g>
     </g>
     <g id="text_26">
      <!-- $\mathdefault{10^{-4}}$ -->
      <g transform="translate(363.863636 268.103716) scale(0.1 -0.1)">
       <defs>
        <path id="DejaVuSans-34" d="M 2419 4116 
L 825 1625 
L 2419 1625 
L 2419 4116 
z
M 2253 4666 
L 3047 4666 
L 3047 1625 
L 3713 1625 
L 3713 1100 
L 3047 1100 
L 3047 0 
L 2419 0 
L 2419 1100 
L 313 1100 
L 313 1709 
L 2253 4666 
z
" transform="scale(0.015625)"/>
       </defs>
       <use xlink:href="#DejaVuSans-31" transform="translate(0 0.684375)"/>
       <use xlink:href="#DejaVuSans-30" transform="translate(63.623047 0.684375)"/>
       <use xlink:href="#DejaVuSans-2212" transform="translate(128.203125 38.965625) scale(0.7)"/>
       <use xlink:href="#DejaVuSans-34" transform="translate(186.855469 38.965625) scale(0.7)"/>
      </g>
     </g>
    </g>
    <g id="ytick_11">
     <g id="line2d_26">
      <g>
       <use xlink:href="#m853235e181" x="394.363636" y="216.916709" style="stroke: #000000; stroke-width: 0.8"/>
      </g>
     </g>
     <g id="text_27">
      <!-- $\mathdefault{10^{-3}}$ -->
      <g transform="translate(363.863636 220.715928) scale(0.1 -0.1)">
       <use xlink:href="#DejaVuSans-31" transform="translate(0 0.765625)"/>
       <use xlink:href="#DejaVuSans-30" transform="translate(63.623047 0.765625)"/>
       <use xlink:href="#DejaVuSans-2212" transform="translate(128.203125 39.046875) scale(0.7)"/>
       <use xlink:href="#DejaVuSans-33" transform="translate(186.855469 39.046875) scale(0.7)"/>
      </g>
     </g>
    </g>
    <g id="ytick_12">
     <g id="line2d_27">
      <g>
       <use xlink:href="#m853235e181" x="394.363636" y="169.528922" style="stroke: #000000; stroke-width: 0.8"/>
      </g>
     </g>
     <g id="text_28">
      <!-- $\mathdefault{10^{-2}}$ -->
      <g transform="translate(363.863636 173.32814) scale(0.1 -0.1)">
       <use xlink:href="#DejaVuSans-31" transform="translate(0 0.765625)"/>
       <use xlink:href="#DejaVuSans-30" transform="translate(63.623047 0.765625)"/>
       <use xlink:href="#DejaVuSans-2212" transform="translate(128.203125 39.046875) scale(0.7)"/>
       <use xlink:href="#DejaVuSans-32" transform="translate(186.855469 39.046875) scale(0.7)"/>
      </g>
     </g>
    </g>
    <g id="ytick_13">
     <g id="line2d_28">
      <g>
       <use xlink:href="#m853235e181" x="394.363636" y="122.141134" style="stroke: #000000; stroke-width: 0.8"/>
      </g>
     </g>
     <g id="text_29">
      <!-- $\mathdefault{10^{-1}}$ -->
      <g transform="translate(363.863636 125.940353) scale(0.1 -0.1)">
       <use xlink:href="#DejaVuSans-31" transform="translate(0 0.684375)"/>
       <use xlink:href="#DejaVuSans-30" transform="translate(63.623047 0.684375)"/>
       <use xlink:href="#DejaVuSans-2212" transform="translate(128.203125 38.965625) scale(0.7)"/>
       <use xlink:href="#DejaVuSans-31" transform="translate(186.855469 38.965625) scale(0.7)"/>
      </g>
     </g>
    </g>
    <g id="ytick_14">
     <g id="line2d_29">
      <g>
       <use xlink:href="#m853235e181" x="394.363636" y="74.753346" style="stroke: #000000; stroke-width: 0.8"/>
      </g>
     </g>
     <g id="text_30">
      <!-- $\mathdefault{10^{0}}$ -->
      <g transform="translate(369.763636 78.552565) scale(0.1 -0.1)">
       <use xlink:href="#DejaVuSans-31" transform="translate(0 0.765625)"/>
       <use xlink:href="#DejaVuSans-30" transform="translate(63.623047 0.765625)"/>
       <use xlink:href="#DejaVuSans-30" transform="translate(128.203125 39.046875) scale(0.7)"/>
      </g>
     </g>
    </g>
    <g id="ytick_15">
     <g id="line2d_30">
      <defs>
       <path id="m75e5481aaf" d="M 0 0 
L -2 0 
" style="stroke: #000000; stroke-width: 0.6"/>
      </defs>
      <g>
       <use xlink:href="#m75e5481aaf" x="394.363636" y="319.032746" style="stroke: #000000; stroke-width: 0.6"/>
      </g>
     </g>
    </g>
    <g id="ytick_16">
     <g id="line2d_31">
      <g>
       <use xlink:href="#m75e5481aaf" x="394.363636" y="316.284636" style="stroke: #000000; stroke-width: 0.6"/>
      </g>
     </g>
    </g>
    <g id="ytick_17">
     <g id="line2d_32">
      <g>
       <use xlink:href="#m75e5481aaf" x="394.363636" y="313.860631" style="stroke: #000000; stroke-width: 0.6"/>
      </g>
     </g>
    </g>
    <g id="ytick_18">
     <g id="line2d_33">
      <g>
       <use xlink:href="#m75e5481aaf" x="394.363636" y="297.427139" style="stroke: #000000; stroke-width: 0.6"/>
      </g>
     </g>
    </g>
    <g id="ytick_19">
     <g id="line2d_34">
      <g>
       <use xlink:href="#m75e5481aaf" x="394.363636" y="289.082564" style="stroke: #000000; stroke-width: 0.6"/>
      </g>
     </g>
    </g>
    <g id="ytick_20">
     <g id="line2d_35">
      <g>
       <use xlink:href="#m75e5481aaf" x="394.363636" y="283.161994" style="stroke: #000000; stroke-width: 0.6"/>
      </g>
     </g>
    </g>
    <g id="ytick_21">
     <g id="line2d_36">
      <g>
       <use xlink:href="#m75e5481aaf" x="394.363636" y="278.569643" style="stroke: #000000; stroke-width: 0.6"/>
      </g>
     </g>
    </g>
    <g id="ytick_22">
     <g id="line2d_37">
      <g>
       <use xlink:href="#m75e5481aaf" x="394.363636" y="274.817418" style="stroke: #000000; stroke-width: 0.6"/>
      </g>
     </g>
    </g>
    <g id="ytick_23">
     <g id="line2d_38">
      <g>
       <use xlink:href="#m75e5481aaf" x="394.363636" y="271.644958" style="stroke: #000000; stroke-width: 0.6"/>
      </g>
     </g>
    </g>
    <g id="ytick_24">
     <g id="line2d_39">
      <g>
       <use xlink:href="#m75e5481aaf" x="394.363636" y="268.896848" style="stroke: #000000; stroke-width: 0.6"/>
      </g>
     </g>
    </g>
    <g id="ytick_25">
     <g id="line2d_40">
      <g>
       <use xlink:href="#m75e5481aaf" x="394.363636" y="266.472843" style="stroke: #000000; stroke-width: 0.6"/>
      </g>
     </g>
    </g>
    <g id="ytick_26">
     <g id="line2d_41">
      <g>
       <use xlink:href="#m75e5481aaf" x="394.363636" y="250.039351" style="stroke: #000000; stroke-width: 0.6"/>
      </g>
     </g>
    </g>
    <g id="ytick_27">
     <g id="line2d_42">
      <g>
       <use xlink:href="#m75e5481aaf" x="394.363636" y="241.694776" style="stroke: #000000; stroke-width: 0.6"/>
      </g>
     </g>
    </g>
    <g id="ytick_28">
     <g id="line2d_43">
      <g>
       <use xlink:href="#m75e5481aaf" x="394.363636" y="235.774206" style="stroke: #000000; stroke-width: 0.6"/>
      </g>
     </g>
    </g>
    <g id="ytick_29">
     <g id="line2d_44">
      <g>
       <use xlink:href="#m75e5481aaf" x="394.363636" y="231.181855" style="stroke: #000000; stroke-width: 0.6"/>
      </g>
     </g>
    </g>
    <g id="ytick_30">
     <g id="line2d_45">
      <g>
       <use xlink:href="#m75e5481aaf" x="394.363636" y="227.429631" style="stroke: #000000; stroke-width: 0.6"/>
      </g>
     </g>
    </g>
    <g id="ytick_31">
     <g id="line2d_46">
      <g>
       <use xlink:href="#m75e5481aaf" x="394.363636" y="224.257171" style="stroke: #000000; stroke-width: 0.6"/>
      </g>
     </g>
    </g>
    <g id="ytick_32">
     <g id="line2d_47">
      <g>
       <use xlink:href="#m75e5481aaf" x="394.363636" y="221.50906" style="stroke: #000000; stroke-width: 0.6"/>
      </g>
     </g>
    </g>
    <g id="ytick_33">
     <g id="line2d_48">
      <g>
       <use xlink:href="#m75e5481aaf" x="394.363636" y="219.085056" style="stroke: #000000; stroke-width: 0.6"/>
      </g>
     </g>
    </g>
    <g id="ytick_34">
     <g id="line2d_49">
      <g>
       <use xlink:href="#m75e5481aaf" x="394.363636" y="202.651564" style="stroke: #000000; stroke-width: 0.6"/>
      </g>
     </g>
    </g>
    <g id="ytick_35">
     <g id="line2d_50">
      <g>
       <use xlink:href="#m75e5481aaf" x="394.363636" y="194.306989" style="stroke: #000000; stroke-width: 0.6"/>
      </g>
     </g>
    </g>
    <g id="ytick_36">
     <g id="line2d_51">
      <g>
       <use xlink:href="#m75e5481aaf" x="394.363636" y="188.386418" style="stroke: #000000; stroke-width: 0.6"/>
      </g>
     </g>
    </g>
    <g id="ytick_37">
     <g id="line2d_52">
      <g>
       <use xlink:href="#m75e5481aaf" x="394.363636" y="183.794067" style="stroke: #000000; stroke-width: 0.6"/>
      </g>
     </g>
    </g>
    <g id="ytick_38">
     <g id="line2d_53">
      <g>
       <use xlink:href="#m75e5481aaf" x="394.363636" y="180.041843" style="stroke: #000000; stroke-width: 0.6"/>
      </g>
     </g>
    </g>
    <g id="ytick_39">
     <g id="line2d_54">
      <g>
       <use xlink:href="#m75e5481aaf" x="394.363636" y="176.869383" style="stroke: #000000; stroke-width: 0.6"/>
      </g>
     </g>
    </g>
    <g id="ytick_40">
     <g id="line2d_55">
      <g>
       <use xlink:href="#m75e5481aaf" x="394.363636" y="174.121273" style="stroke: #000000; stroke-width: 0.6"/>
      </g>
     </g>
    </g>
    <g id="ytick_41">
     <g id="line2d_56">
      <g>
       <use xlink:href="#m75e5481aaf" x="394.363636" y="171.697268" style="stroke: #000000; stroke-width: 0.6"/>
      </g>
     </g>
    </g>
    <g id="ytick_42">
     <g id="line2d_57">
      <g>
       <use xlink:href="#m75e5481aaf" x="394.363636" y="155.263776" style="stroke: #000000; stroke-width: 0.6"/>
      </g>
     </g>
    </g>
    <g id="ytick_43">
     <g id="line2d_58">
      <g>
       <use xlink:href="#m75e5481aaf" x="394.363636" y="146.919201" style="stroke: #000000; stroke-width: 0.6"/>
      </g>
     </g>
    </g>
    <g id="ytick_44">
     <g id="line2d_59">
      <g>
       <use xlink:href="#m75e5481aaf" x="394.363636" y="140.998631" style="stroke: #000000; stroke-width: 0.6"/>
      </g>
     </g>
    </g>
    <g id="ytick_45">
     <g id="line2d_60">
      <g>
       <use xlink:href="#m75e5481aaf" x="394.363636" y="136.40628" style="stroke: #000000; stroke-width: 0.6"/>
      </g>
     </g>
    </g>
    <g id="ytick_46">
     <g id="line2d_61">
      <g>
       <use xlink:href="#m75e5481aaf" x="394.363636" y="132.654055" style="stroke: #000000; stroke-width: 0.6"/>
      </g>
     </g>
    </g>
    <g id="ytick_47">
     <g id="line2d_62">
      <g>
       <use xlink:href="#m75e5481aaf" x="394.363636" y="129.481595" style="stroke: #000000; stroke-width: 0.6"/>
      </g>
     </g>
    </g>
    <g id="ytick_48">
     <g id="line2d_63">
      <g>
       <use xlink:href="#m75e5481aaf" x="394.363636" y="126.733485" style="stroke: #000000; stroke-width: 0.6"/>
      </g>
     </g>
    </g>
    <g id="ytick_49">
     <g id="line2d_64">
      <g>
       <use xlink:href="#m75e5481aaf" x="394.363636" y="124.30948" style="stroke: #000000; stroke-width: 0.6"/>
      </g>
     </g>
    </g>
    <g id="ytick_50">
     <g id="line2d_65">
      <g>
       <use xlink:href="#m75e5481aaf" x="394.363636" y="107.875989" style="stroke: #000000; stroke-width: 0.6"/>
      </g>
     </g>
    </g>
    <g id="ytick_51">
     <g id="line2d_66">
      <g>
       <use xlink:href="#m75e5481aaf" x="394.363636" y="99.531413" style="stroke: #000000; stroke-width: 0.6"/>
      </g>
     </g>
    </g>
    <g id="ytick_52">
     <g id="line2d_67">
      <g>
       <use xlink:href="#m75e5481aaf" x="394.363636" y="93.610843" style="stroke: #000000; stroke-width: 0.6"/>
      </g>
     </g>
    </g>
    <g id="ytick_53">
     <g id="line2d_68">
      <g>
       <use xlink:href="#m75e5481aaf" x="394.363636" y="89.018492" style="stroke: #000000; stroke-width: 0.6"/>
      </g>
     </g>
    </g>
    <g id="ytick_54">
     <g id="line2d_69">
      <g>
       <use xlink:href="#m75e5481aaf" x="394.363636" y="85.266268" style="stroke: #000000; stroke-width: 0.6"/>
      </g>
     </g>
    </g>
    <g id="ytick_55">
     <g id="line2d_70">
      <g>
       <use xlink:href="#m75e5481aaf" x="394.363636" y="82.093808" style="stroke: #000000; stroke-width: 0.6"/>
      </g>
     </g>
    </g>
    <g id="ytick_56">
     <g id="line2d_71">
      <g>
       <use xlink:href="#m75e5481aaf" x="394.363636" y="79.345698" style="stroke: #000000; stroke-width: 0.6"/>
      </g>
     </g>
    </g>
    <g id="ytick_57">
     <g id="line2d_72">
      <g>
       <use xlink:href="#m75e5481aaf" x="394.363636" y="76.921693" style="stroke: #000000; stroke-width: 0.6"/>
      </g>
     </g>
    </g>
    <g id="ytick_58">
     <g id="line2d_73">
      <g>
       <use xlink:href="#m75e5481aaf" x="394.363636" y="60.488201" style="stroke: #000000; stroke-width: 0.6"/>
      </g>
     </g>
    </g>
    <g id="ytick_59">
     <g id="line2d_74">
      <g>
       <use xlink:href="#m75e5481aaf" x="394.363636" y="52.143626" style="stroke: #000000; stroke-width: 0.6"/>
      </g>
     </g>
    </g>
    <g id="ytick_60">
     <g id="line2d_75">
      <g>
       <use xlink:href="#m75e5481aaf" x="394.363636" y="46.223055" style="stroke: #000000; stroke-width: 0.6"/>
      </g>
     </g>
    </g>
    <g id="text_31">
     <!-- [Cve_d3g] -->
     <g transform="translate(357.034261 212.350312) rotate(-90) scale(0.12 -0.12)">
      <use xlink:href="#DejaVuSans-5b"/>
      <use xlink:href="#DejaVuSans-43" x="39.013672"/>
      <use xlink:href="#DejaVuSans-76" x="108.837891"/>
      <use xlink:href="#DejaVuSans-65" x="168.017578"/>
      <use xlink:href="#DejaVuSans-5f" x="229.541016"/>
      <use xlink:href="#DejaVuSans-64" x="279.541016"/>
      <use xlink:href="#DejaVuSans-33" x="343.017578"/>
      <use xlink:href="#DejaVuSans-67" x="406.640625"/>
      <use xlink:href="#DejaVuSans-5d" x="470.117188"/>
     </g>
    </g>
   </g>
   <g id="LineCollection_3">
    <path d="M 415.5 333.824152 
L 415.5 283.030975 
" clip-path="url(#pfb2b2bbd76)" style="fill: none; stroke: #000000; stroke-width: 1.5"/>
    <path d="M 415.672965 284.314943 
L 415.672965 226.715053 
" clip-path="url(#pfb2b2bbd76)" style="fill: none; stroke: #000000; stroke-width: 1.5"/>
    <path d="M 415.987706 224.917366 
L 415.987706 206.111667 
" clip-path="url(#pfb2b2bbd76)" style="fill: none; stroke: #000000; stroke-width: 1.5"/>
    <path d="M 416.302446 219.662063 
L 416.302446 207.94308 
" clip-path="url(#pfb2b2bbd76)" style="fill: none; stroke: #000000; stroke-width: 1.5"/>
    <path d="M 416.617186 221.507135 
L 416.617186 212.52161 
" clip-path="url(#pfb2b2bbd76)" style="fill: none; stroke: #000000; stroke-width: 1.5"/>
    <path d="M 417.876147 238.582178 
L 417.876147 225.570421 
" clip-path="url(#pfb2b2bbd76)" style="fill: none; stroke: #000000; stroke-width: 1.5"/>
    <path d="M 419.135107 250.715284 
L 419.135107 237.703526 
" clip-path="url(#pfb2b2bbd76)" style="fill: none; stroke: #000000; stroke-width: 1.5"/>
    <path d="M 420.394068 255.293814 
L 420.394068 242.282056 
" clip-path="url(#pfb2b2bbd76)" style="fill: none; stroke: #000000; stroke-width: 1.5"/>
    <path d="M 421.653029 264.484712 
L 421.653029 252.125896 
" clip-path="url(#pfb2b2bbd76)" style="fill: none; stroke: #000000; stroke-width: 1.5"/>
    <path d="M 422.91199 269.398521 
L 422.91199 258.306912 
" clip-path="url(#pfb2b2bbd76)" style="fill: none; stroke: #000000; stroke-width: 1.5"/>
    <path d="M 426.688872 281.549809 
L 426.688872 272.271429 
" clip-path="url(#pfb2b2bbd76)" style="fill: none; stroke: #000000; stroke-width: 1.5"/>
    <path d="M 430.465755 283.671308 
L 430.465755 276.392106 
" clip-path="url(#pfb2b2bbd76)" style="fill: none; stroke: #000000; stroke-width: 1.5"/>
    <path d="M 611.756107 277.768895 
L 611.756107 270.21109 
" clip-path="url(#pfb2b2bbd76)" style="fill: none; stroke: #000000; stroke-width: 1.5"/>
    <path d="M 611.897882 275.989406 
L 611.897882 268.150752 
" clip-path="url(#pfb2b2bbd76)" style="fill: none; stroke: #000000; stroke-width: 1.5"/>
    <path d="M 612.070847 254.60154 
L 612.070847 243.197762 
" clip-path="url(#pfb2b2bbd76)" style="fill: none; stroke: #000000; stroke-width: 1.5"/>
    <path d="M 612.385587 232.429219 
L 612.385587 209.774492 
" clip-path="url(#pfb2b2bbd76)" style="fill: none; stroke: #000000; stroke-width: 1.5"/>
    <path d="M 612.700328 221.125015 
L 612.700328 209.087712 
" clip-path="url(#pfb2b2bbd76)" style="fill: none; stroke: #000000; stroke-width: 1.5"/>
    <path d="M 613.015068 220.818117 
L 613.015068 212.979463 
" clip-path="url(#pfb2b2bbd76)" style="fill: none; stroke: #000000; stroke-width: 1.5"/>
    <path d="M 614.274029 234.228516 
L 614.274029 224.654715 
" clip-path="url(#pfb2b2bbd76)" style="fill: none; stroke: #000000; stroke-width: 1.5"/>
    <path d="M 615.532989 247.719216 
L 615.532989 234.040702 
" clip-path="url(#pfb2b2bbd76)" style="fill: none; stroke: #000000; stroke-width: 1.5"/>
    <path d="M 616.79195 251.153114 
L 616.79195 237.474599 
" clip-path="url(#pfb2b2bbd76)" style="fill: none; stroke: #000000; stroke-width: 1.5"/>
    <path d="M 618.050911 261.108969 
L 618.050911 246.402733 
" clip-path="url(#pfb2b2bbd76)" style="fill: none; stroke: #000000; stroke-width: 1.5"/>
    <path d="M 619.309872 267.918609 
L 619.309872 255.559794 
" clip-path="url(#pfb2b2bbd76)" style="fill: none; stroke: #000000; stroke-width: 1.5"/>
    <path d="M 623.086754 281.073773 
L 623.086754 269.982164 
" clip-path="url(#pfb2b2bbd76)" style="fill: none; stroke: #000000; stroke-width: 1.5"/>
    <path d="M 626.863636 281.425273 
L 626.863636 269.066458 
" clip-path="url(#pfb2b2bbd76)" style="fill: none; stroke: #000000; stroke-width: 1.5"/>
   </g>
   <g id="line2d_76">
    <path d="M 415.408656 361 
L 415.575724 272.932784 
L 415.816331 243.621519 
L 416.088423 232.651025 
L 416.336199 229.327669 
L 416.501383 228.802838 
L 416.542679 228.811489 
L 416.666566 229.096038 
L 416.873046 230.233149 
L 417.312093 234.332893 
L 418.190186 245.429295 
L 420.761745 278.875586 
L 421.828001 289.602106 
L 422.643609 295.86059 
L 423.397204 300.127749 
L 424.150798 303.128712 
L 424.810193 304.936743 
L 425.519434 306.260178 
L 426.230504 307.138675 
L 427.095188 307.818782 
L 427.971271 308.246188 
L 429.321162 308.636862 
L 430.481923 308.865552 
L 430.490812 308.774355 
L 430.524824 306.231389 
L 431.099769 234.714238 
L 431.370283 229.488576 
L 431.59658 228.396994 
L 431.688491 228.446869 
L 431.872313 229.122063 
L 432.194002 231.532013 
L 432.786881 238.048156 
L 435.864259 274.63984 
L 436.723062 281.586827 
L 437.510299 286.246803 
L 438.225968 289.232285 
L 438.941637 291.279248 
L 439.657306 292.643425 
L 440.372976 293.540704 
L 441.160212 294.17878 
L 442.090582 294.64857 
L 443.378787 295.030778 
L 445.454228 295.38066 
L 445.597243 295.356776 
L 445.601592 295.310284 
L 445.637714 293.525171 
L 445.794838 266.326904 
L 446.053726 240.719066 
L 446.333643 231.096916 
L 446.6091 228.23253 
L 446.727153 228.012897 
L 446.766504 228.031275 
L 446.884556 228.308463 
L 447.120662 229.62 
L 447.538783 233.435374 
L 448.494487 244.830642 
L 450.107237 263.575778 
L 451.062941 272.109705 
L 451.83945 277.244697 
L 452.556228 280.652094 
L 453.273006 283.013627 
L 453.930052 284.487243 
L 454.64683 285.564779 
L 455.423339 286.317581 
L 456.319385 286.85788 
L 457.484628 287.272523 
L 459.187675 287.61627 
L 460.70539 287.791208 
L 460.710757 287.746289 
L 460.752883 285.951127 
L 460.905098 263.817593 
L 461.176305 239.292369 
L 461.45314 230.484187 
L 461.711734 227.906239 
L 461.859502 227.678307 
L 461.970328 227.889983 
L 462.174441 228.888382 
L 462.568859 232.207613 
L 463.389434 241.51279 
L 465.008829 259.784024 
L 465.946374 267.844491 
L 466.713456 272.687161 
L 467.395306 275.780404 
L 468.077157 277.9487 
L 468.759007 279.424194 
L 469.440858 280.412463 
L 470.20794 281.138295 
L 471.060253 281.646825 
L 472.168261 282.046339 
L 473.872887 282.396961 
L 475.815817 282.617662 
L 475.817515 282.605418 
L 475.858856 281.28637 
L 475.975313 267.207715 
L 476.275767 239.155922 
L 476.551233 230.293409 
L 476.797944 227.682539 
L 476.938922 227.360635 
L 476.974166 227.371863 
L 477.115144 227.703534 
L 477.366162 229.134087 
L 477.851653 233.607912 
L 480.809841 264.082606 
L 481.564333 268.836391 
L 482.318824 272.199005 
L 482.989484 274.250205 
L 483.660143 275.649875 
L 484.330802 276.591632 
L 485.085294 277.287545 
L 486.00745 277.81679 
L 487.181104 278.212819 
L 489.025417 278.56444 
L 490.925726 278.762752 
L 490.928318 278.742471 
L 490.970309 277.455213 
L 491.103822 262.610024 
L 491.411675 237.29628 
L 491.69874 229.314562 
L 491.947422 227.232109 
L 492.054 227.076173 
L 492.089526 227.094316 
L 492.23163 227.44899 
L 492.484552 228.904047 
L 492.973694 233.37665 
L 495.69705 260.917858 
L 496.456144 265.736805 
L 497.215239 269.14016 
L 497.889989 271.210214 
L 498.564739 272.618046 
L 499.23949 273.562007 
L 499.998584 274.257167 
L 500.926366 274.784145 
L 502.107179 275.177637 
L 503.962743 275.527403 
L 506.035667 275.735792 
L 506.081846 274.41071 
L 506.211944 261.113044 
L 506.519256 236.867503 
L 506.80978 228.973455 
L 507.060153 226.954742 
L 507.167456 226.817271 
L 507.203224 226.840687 
L 507.346295 227.212623 
L 507.600854 228.684676 
L 508.093133 233.148709 
L 510.575587 257.972836 
L 511.338355 262.945899 
L 512.101124 266.469583 
L 512.77914 268.614303 
L 513.457157 270.071392 
L 514.135173 271.046221 
L 514.897942 271.761817 
L 515.830214 272.301885 
L 517.016743 272.702776 
L 518.796537 273.04403 
L 521.143831 273.288247 
L 521.18529 272.300968 
L 521.30541 261.448865 
L 521.643081 235.789824 
L 521.941838 228.376732 
L 522.199329 226.640246 
L 522.309683 226.601497 
L 522.456821 226.982234 
L 522.698926 228.357187 
L 523.204536 232.866649 
L 525.601117 256.332767 
L 526.372363 261.244167 
L 527.057916 264.372648 
L 527.743468 266.553807 
L 528.42902 268.02856 
L 529.114572 269.010084 
L 529.885818 269.726787 
L 530.742758 270.226567 
L 531.85678 270.618311 
L 533.57066 270.963232 
L 536.247637 271.272191 
L 536.286578 270.58752 
L 536.389033 262.789227 
L 536.767136 234.79858 
L 537.044872 228.195495 
L 537.290826 226.454677 
L 537.396235 226.366114 
L 537.431371 226.399804 
L 537.571917 226.789785 
L 537.842212 228.3774 
L 538.382802 233.286976 
L 540.409427 253.194218 
L 541.253854 258.902448 
L 542.013838 262.501806 
L 542.689379 264.699871 
L 543.364921 266.195883 
L 544.040462 267.197547 
L 544.800446 267.93276 
L 545.644873 268.447377 
L 546.742628 268.850974 
L 548.431482 269.203728 
L 551.354769 269.555904 
L 551.390456 269.03262 
L 551.481496 263.079996 
L 551.88909 233.968751 
L 552.165447 227.81487 
L 552.393994 226.264323 
L 552.508268 226.168985 
L 552.54636 226.210378 
L 552.698725 226.666258 
L 552.989433 228.454265 
L 553.577546 233.895097 
L 555.400696 251.573903 
L 556.224054 257.200723 
L 556.92979 260.651261 
L 557.635526 263.048535 
L 558.341261 264.655513 
L 559.046997 265.712412 
L 559.811544 266.450947 
L 560.664416 266.96791 
L 561.81264 267.382477 
L 563.490812 267.72566 
L 566.462354 268.082144 
L 566.498188 267.58972 
L 566.586312 262.23418 
L 567.009316 233.262809 
L 567.303089 227.281017 
L 567.516143 226.047593 
L 567.622671 225.990512 
L 567.65818 226.03323 
L 567.800216 226.452988 
L 568.073437 228.07416 
L 568.619879 232.974514 
L 570.492158 250.834624 
L 571.258091 255.985446 
L 572.024023 259.65742 
L 572.704852 261.894928 
L 573.385681 263.412603 
L 574.066509 264.424709 
L 574.832442 265.164408 
L 575.683478 265.679953 
L 576.789824 266.082821 
L 578.491896 266.434519 
L 581.566726 266.809333 
L 581.601844 266.427852 
L 581.687237 261.806825 
L 582.142224 232.213151 
L 582.412574 227.080663 
L 582.625396 225.874454 
L 582.731808 225.822606 
L 582.87369 226.147982 
L 583.140057 227.595866 
L 583.672792 232.202191 
L 585.608464 250.347771 
L 586.365901 255.282063 
L 587.123337 258.78952 
L 587.796614 260.926286 
L 588.469891 262.378292 
L 589.143169 263.349865 
L 589.900605 264.063274 
L 590.826361 264.601963 
L 592.004596 265.002067 
L 593.771948 265.34262 
L 596.68031 265.6745 
L 596.72482 264.92428 
L 596.826919 258.255295 
L 597.217785 233.021179 
L 597.518515 226.931982 
L 597.744619 225.698885 
L 597.835953 225.665167 
L 597.972953 225.961864 
L 598.246954 227.423219 
L 598.72743 231.485044 
L 600.788284 250.372882 
L 601.543931 255.024952 
L 602.230882 258.048214 
L 602.917834 260.142336 
L 603.604785 261.550177 
L 604.291736 262.483267 
L 605.047383 263.151056 
L 605.94042 263.644709 
L 607.108237 264.028287 
L 608.963006 264.374734 
L 611.78884 264.684403 
L 611.83346 263.938514 
L 611.947483 256.449302 
L 612.325902 232.796719 
L 612.620094 226.840438 
L 612.856769 225.548645 
L 612.946348 225.524382 
L 613.080717 225.81768 
L 613.349456 227.233586 
L 613.831287 231.26169 
L 615.916058 250.049106 
L 616.680474 254.591577 
L 617.375397 257.511447 
L 618.070321 259.514686 
L 618.765244 260.850664 
L 619.460168 261.730833 
L 620.224584 262.358459 
L 621.197477 262.849607 
L 622.517832 263.23216 
L 624.672095 263.58438 
L 627.493117 263.909549 
L 627.493117 263.909549 
" clip-path="url(#pfb2b2bbd76)" style="fill: none; stroke: #0000ff; stroke-width: 1.5; stroke-linecap: square"/>
   </g>
   <g id="line2d_77">
    <path d="M 415.5 295.621933 
L 415.672965 239.763865 
L 415.987706 213.437316 
L 416.302446 212.979463 
L 416.617186 216.527824 
L 417.876147 231.064657 
L 419.135107 243.197762 
L 420.394068 247.776292 
L 421.653029 257.391206 
L 422.91199 263.114369 
L 426.688872 276.392106 
L 430.465755 279.711541 
L 611.756107 273.644988 
L 611.897882 271.699113 
L 612.070847 248.119682 
L 612.385587 218.130309 
L 612.700328 214.238559 
L 613.015068 216.527824 
L 614.274029 228.889855 
L 615.532989 239.763865 
L 616.79195 243.197762 
L 618.050911 252.469286 
L 619.309872 260.825103 
L 623.086754 274.789621 
L 626.863636 274.331768 
" clip-path="url(#pfb2b2bbd76)" style="fill: none; stroke: #000000; stroke-width: 1.5; stroke-linecap: square"/>
    <g clip-path="url(#pfb2b2bbd76)">
     <use xlink:href="#ma7afeb7d20" x="415.5" y="295.621933" style="stroke: #000000; stroke-linejoin: miter"/>
     <use xlink:href="#ma7afeb7d20" x="415.672965" y="239.763865" style="stroke: #000000; stroke-linejoin: miter"/>
     <use xlink:href="#ma7afeb7d20" x="415.987706" y="213.437316" style="stroke: #000000; stroke-linejoin: miter"/>
     <use xlink:href="#ma7afeb7d20" x="416.302446" y="212.979463" style="stroke: #000000; stroke-linejoin: miter"/>
     <use xlink:href="#ma7afeb7d20" x="416.617186" y="216.527824" style="stroke: #000000; stroke-linejoin: miter"/>
     <use xlink:href="#ma7afeb7d20" x="417.876147" y="231.064657" style="stroke: #000000; stroke-linejoin: miter"/>
     <use xlink:href="#ma7afeb7d20" x="419.135107" y="243.197762" style="stroke: #000000; stroke-linejoin: miter"/>
     <use xlink:href="#ma7afeb7d20" x="420.394068" y="247.776292" style="stroke: #000000; stroke-linejoin: miter"/>
     <use xlink:href="#ma7afeb7d20" x="421.653029" y="257.391206" style="stroke: #000000; stroke-linejoin: miter"/>
     <use xlink:href="#ma7afeb7d20" x="422.91199" y="263.114369" style="stroke: #000000; stroke-linejoin: miter"/>
     <use xlink:href="#ma7afeb7d20" x="426.688872" y="276.392106" style="stroke: #000000; stroke-linejoin: miter"/>
     <use xlink:href="#ma7afeb7d20" x="430.465755" y="279.711541" style="stroke: #000000; stroke-linejoin: miter"/>
     <use xlink:href="#ma7afeb7d20" x="611.756107" y="273.644988" style="stroke: #000000; stroke-linejoin: miter"/>
     <use xlink:href="#ma7afeb7d20" x="611.897882" y="271.699113" style="stroke: #000000; stroke-linejoin: miter"/>
     <use xlink:href="#ma7afeb7d20" x="612.070847" y="248.119682" style="stroke: #000000; stroke-linejoin: miter"/>
     <use xlink:href="#ma7afeb7d20" x="612.385587" y="218.130309" style="stroke: #000000; stroke-linejoin: miter"/>
     <use xlink:href="#ma7afeb7d20" x="612.700328" y="214.238559" style="stroke: #000000; stroke-linejoin: miter"/>
     <use xlink:href="#ma7afeb7d20" x="613.015068" y="216.527824" style="stroke: #000000; stroke-linejoin: miter"/>
     <use xlink:href="#ma7afeb7d20" x="614.274029" y="228.889855" style="stroke: #000000; stroke-linejoin: miter"/>
     <use xlink:href="#ma7afeb7d20" x="615.532989" y="239.763865" style="stroke: #000000; stroke-linejoin: miter"/>
     <use xlink:href="#ma7afeb7d20" x="616.79195" y="243.197762" style="stroke: #000000; stroke-linejoin: miter"/>
     <use xlink:href="#ma7afeb7d20" x="618.050911" y="252.469286" style="stroke: #000000; stroke-linejoin: miter"/>
     <use xlink:href="#ma7afeb7d20" x="619.309872" y="260.825103" style="stroke: #000000; stroke-linejoin: miter"/>
     <use xlink:href="#ma7afeb7d20" x="623.086754" y="274.789621" style="stroke: #000000; stroke-linejoin: miter"/>
     <use xlink:href="#ma7afeb7d20" x="626.863636" y="274.331768" style="stroke: #000000; stroke-linejoin: miter"/>
    </g>
   </g>
   <g id="patch_9">
    <path d="M 394.363636 320.4 
L 394.363636 43.2 
" style="fill: none; stroke: #000000; stroke-width: 0.8; stroke-linejoin: miter; stroke-linecap: square"/>
   </g>
   <g id="patch_10">
    <path d="M 648 320.4 
L 648 43.2 
" style="fill: none; stroke: #000000; stroke-width: 0.8; stroke-linejoin: miter; stroke-linecap: square"/>
   </g>
   <g id="patch_11">
    <path d="M 394.363636 320.4 
L 648 320.4 
" style="fill: none; stroke: #000000; stroke-width: 0.8; stroke-linejoin: miter; stroke-linecap: square"/>
   </g>
   <g id="patch_12">
    <path d="M 394.363636 43.2 
L 648 43.2 
" style="fill: none; stroke: #000000; stroke-width: 0.8; stroke-linejoin: miter; stroke-linecap: square"/>
   </g>
   <g id="text_32">
    <!-- Kasichayanula2011a fm_dap20_dapagliflozin 3-o-glucuronide -->
    <g transform="translate(305.953693 37.2) scale(0.14 -0.14)">
     <use xlink:href="#DejaVuSans-4b"/>
     <use xlink:href="#DejaVuSans-61" x="63.826172"/>
     <use xlink:href="#DejaVuSans-73" x="125.105469"/>
     <use xlink:href="#DejaVuSans-69" x="177.205078"/>
     <use xlink:href="#DejaVuSans-63" x="204.988281"/>
     <use xlink:href="#DejaVuSans-68" x="259.96875"/>
     <use xlink:href="#DejaVuSans-61" x="323.347656"/>
     <use xlink:href="#DejaVuSans-79" x="384.626953"/>
     <use xlink:href="#DejaVuSans-61" x="443.806641"/>
     <use xlink:href="#DejaVuSans-6e" x="505.085938"/>
     <use xlink:href="#DejaVuSans-75" x="568.464844"/>
     <use xlink:href="#DejaVuSans-6c" x="631.84375"/>
     <use xlink:href="#DejaVuSans-61" x="659.626953"/>
     <use xlink:href="#DejaVuSans-32" x="720.90625"/>
     <use xlink:href="#DejaVuSans-30" x="784.529297"/>
     <use xlink:href="#DejaVuSans-31" x="848.152344"/>
     <use xlink:href="#DejaVuSans-31" x="911.775391"/>
     <use xlink:href="#DejaVuSans-61" x="975.398438"/>
     <use xlink:href="#DejaVuSans-20" x="1036.677734"/>
     <use xlink:href="#DejaVuSans-66" x="1068.464844"/>
     <use xlink:href="#DejaVuSans-6d" x="1103.669922"/>
     <use xlink:href="#DejaVuSans-5f" x="1201.082031"/>
     <use xlink:href="#DejaVuSans-64" x="1251.082031"/>
     <use xlink:href="#DejaVuSans-61" x="1314.558594"/>
     <use xlink:href="#DejaVuSans-70" x="1375.837891"/>
     <use xlink:href="#DejaVuSans-32" x="1439.314453"/>
     <use xlink:href="#DejaVuSans-30" x="1502.9375"/>
     <use xlink:href="#DejaVuSans-5f" x="1566.560547"/>
     <use xlink:href="#DejaVuSans-64" x="1616.560547"/>
     <use xlink:href="#DejaVuSans-61" x="1680.037109"/>
     <use xlink:href="#DejaVuSans-70" x="1741.316406"/>
     <use xlink:href="#DejaVuSans-61" x="1804.792969"/>
     <use xlink:href="#DejaVuSans-67" x="1866.072266"/>
     <use xlink:href="#DejaVuSans-6c" x="1929.548828"/>
     <use xlink:href="#DejaVuSans-69" x="1957.332031"/>
     <use xlink:href="#DejaVuSans-66" x="1985.115234"/>
     <use xlink:href="#DejaVuSans-6c" x="2020.320312"/>
     <use xlink:href="#DejaVuSans-6f" x="2048.103516"/>
     <use xlink:href="#DejaVuSans-7a" x="2109.285156"/>
     <use xlink:href="#DejaVuSans-69" x="2161.775391"/>
     <use xlink:href="#DejaVuSans-6e" x="2189.558594"/>
     <use xlink:href="#DejaVuSans-20" x="2252.9375"/>
     <use xlink:href="#DejaVuSans-33" x="2284.724609"/>
     <use xlink:href="#DejaVuSans-2d" x="2348.347656"/>
     <use xlink:href="#DejaVuSans-6f" x="2386.306641"/>
     <use xlink:href="#DejaVuSans-2d" x="2449.363281"/>
     <use xlink:href="#DejaVuSans-67" x="2485.447266"/>
     <use xlink:href="#DejaVuSans-6c" x="2548.923828"/>
     <use xlink:href="#DejaVuSans-75" x="2576.707031"/>
     <use xlink:href="#DejaVuSans-63" x="2640.085938"/>
     <use xlink:href="#DejaVuSans-75" x="2695.066406"/>
     <use xlink:href="#DejaVuSans-72" x="2758.445312"/>
     <use xlink:href="#DejaVuSans-6f" x="2797.308594"/>
     <use xlink:href="#DejaVuSans-6e" x="2858.490234"/>
     <use xlink:href="#DejaVuSans-69" x="2921.869141"/>
     <use xlink:href="#DejaVuSans-64" x="2949.652344"/>
     <use xlink:href="#DejaVuSans-65" x="3013.128906"/>
    </g>
   </g>
   <g id="legend_2">
    <g id="patch_13">
     <path d="M 504.95 80.834375 
L 641 80.834375 
Q 643 80.834375 643 78.834375 
L 643 50.2 
Q 643 48.2 641 48.2 
L 504.95 48.2 
Q 502.95 48.2 502.95 50.2 
L 502.95 78.834375 
Q 502.95 80.834375 504.95 80.834375 
z
" style="fill: #ffffff; opacity: 0.8; stroke: #cccccc; stroke-linejoin: miter"/>
    </g>
    <g id="line2d_78">
     <path d="M 506.95 56.298437 
L 516.95 56.298437 
L 526.95 56.298437 
" style="fill: none; stroke: #0000ff; stroke-width: 1.5; stroke-linecap: square"/>
    </g>
    <g id="text_33">
     <!-- observable -->
     <g transform="translate(534.95 59.798437) scale(0.1 -0.1)">
      <use xlink:href="#DejaVuSans-6f"/>
      <use xlink:href="#DejaVuSans-62" x="61.181641"/>
      <use xlink:href="#DejaVuSans-73" x="124.658203"/>
      <use xlink:href="#DejaVuSans-65" x="176.757812"/>
      <use xlink:href="#DejaVuSans-72" x="238.28125"/>
      <use xlink:href="#DejaVuSans-76" x="279.394531"/>
      <use xlink:href="#DejaVuSans-61" x="338.574219"/>
      <use xlink:href="#DejaVuSans-62" x="399.853516"/>
      <use xlink:href="#DejaVuSans-6c" x="463.330078"/>
      <use xlink:href="#DejaVuSans-65" x="491.113281"/>
     </g>
    </g>
    <g id="LineCollection_4">
     <path d="M 516.95 75.976562 
L 516.95 65.976562 
" style="fill: none; stroke: #000000; stroke-width: 1.5"/>
    </g>
    <g id="line2d_79">
     <path d="M 506.95 70.976562 
L 526.95 70.976562 
" style="fill: none; stroke: #000000; stroke-width: 1.5; stroke-linecap: square"/>
    </g>
    <g id="line2d_80">
     <g>
      <use xlink:href="#ma7afeb7d20" x="516.95" y="70.976562" style="stroke: #000000; stroke-linejoin: miter"/>
     </g>
    </g>
    <g id="text_34">
     <!-- reference_data ± SD -->
     <g transform="translate(534.95 74.476562) scale(0.1 -0.1)">
      <use xlink:href="#DejaVuSans-72"/>
      <use xlink:href="#DejaVuSans-65" x="38.863281"/>
      <use xlink:href="#DejaVuSans-66" x="100.386719"/>
      <use xlink:href="#DejaVuSans-65" x="135.591797"/>
      <use xlink:href="#DejaVuSans-72" x="197.115234"/>
      <use xlink:href="#DejaVuSans-65" x="235.978516"/>
      <use xlink:href="#DejaVuSans-6e" x="297.501953"/>
      <use xlink:href="#DejaVuSans-63" x="360.880859"/>
      <use xlink:href="#DejaVuSans-65" x="415.861328"/>
      <use xlink:href="#DejaVuSans-5f" x="477.384766"/>
      <use xlink:href="#DejaVuSans-64" x="527.384766"/>
      <use xlink:href="#DejaVuSans-61" x="590.861328"/>
      <use xlink:href="#DejaVuSans-74" x="652.140625"/>
      <use xlink:href="#DejaVuSans-61" x="691.349609"/>
      <use xlink:href="#DejaVuSans-20" x="752.628906"/>
      <use xlink:href="#DejaVuSans-b1" x="784.416016"/>
      <use xlink:href="#DejaVuSans-20" x="868.205078"/>
      <use xlink:href="#DejaVuSans-53" x="899.992188"/>
      <use xlink:href="#DejaVuSans-44" x="963.46875"/>
     </g>
    </g>
   </g>
  </g>
 </g>
 <defs>
  <clipPath id="pb6b243f85c">
   <rect x="90" y="43.2" width="253.636364" height="277.2"/>
  </clipPath>
  <clipPath id="pfb2b2bbd76">
   <rect x="394.363636" y="43.2" width="253.636364" height="277.2"/>
  </clipPath>
 </defs>
</svg>
