<?xml version="1.0" encoding="utf-8" standalone="no"?>
<!DOCTYPE svg PUBLIC "-//W3C//DTD SVG 1.1//EN"
  "http://www.w3.org/Graphics/SVG/1.1/DTD/svg11.dtd">
<svg xmlns:xlink="http://www.w3.org/1999/xlink" width="720pt" height="360pt" viewBox="0 0 720 360" xmlns="http://www.w3.org/2000/svg" version="1.1">
 <metadata>
  <rdf:RDF xmlns:dc="http://purl.org/dc/elements/1.1/" xmlns:cc="http://creativecommons.org/ns#" xmlns:rdf="http://www.w3.org/1999/02/22-rdf-syntax-ns#">
   <cc:Work>
    <dc:type rdf:resource="http://purl.org/dc/dcmitype/StillImage"/>
    <dc:date>2024-12-16T16:48:57.543311</dc:date>
    <dc:format>image/svg+xml</dc:format>
    <dc:creator>
     <cc:Agent>
      <dc:title>Matplotlib v3.9.1, https://matplotlib.org/</dc:title>
     </cc:Agent>
    </dc:creator>
   </cc:Work>
  </rdf:RDF>
 </metadata>
 <defs>
  <style type="text/css">*{stroke-linejoin: round; stroke-linecap: butt}</style>
 </defs>
 <g id="figure_1">
  <g id="patch_1">
   <path d="M 0 360 
L 720 360 
L 720 0 
L 0 0 
z
" style="fill: #ffffff"/>
  </g>
  <g id="axes_1">
   <g id="patch_2">
    <path d="M 90 320.4 
L 343.636364 320.4 
L 343.636364 43.2 
L 90 43.2 
z
" style="fill: #ffffff"/>
   </g>
   <g id="matplotlib.axis_1">
    <g id="xtick_1">
     <g id="line2d_1">
      <defs>
       <path id="m00e3d9709b" d="M 0 0 
L 0 3.5 
" style="stroke: #000000; stroke-width: 0.8"/>
      </defs>
      <g>
       <use xlink:href="#m00e3d9709b" x="111.006411" y="320.4" style="stroke: #000000; stroke-width: 0.8"/>
      </g>
     </g>
     <g id="text_1">
      <!-- 0 -->
      <g transform="translate(107.825161 334.998438) scale(0.1 -0.1)">
       <defs>
        <path id="DejaVuSans-30" d="M 2034 4250 
Q 1547 4250 1301 3770 
Q 1056 3291 1056 2328 
Q 1056 1369 1301 889 
Q 1547 409 2034 409 
Q 2525 409 2770 889 
Q 3016 1369 3016 2328 
Q 3016 3291 2770 3770 
Q 2525 4250 2034 4250 
z
M 2034 4750 
Q 2819 4750 3233 4129 
Q 3647 3509 3647 2328 
Q 3647 1150 3233 529 
Q 2819 -91 2034 -91 
Q 1250 -91 836 529 
Q 422 1150 422 2328 
Q 422 3509 836 4129 
Q 1250 4750 2034 4750 
z
" transform="scale(0.015625)"/>
       </defs>
       <use xlink:href="#DejaVuSans-30"/>
      </g>
     </g>
    </g>
    <g id="xtick_2">
     <g id="line2d_2">
      <g>
       <use xlink:href="#m00e3d9709b" x="163.460178" y="320.4" style="stroke: #000000; stroke-width: 0.8"/>
      </g>
     </g>
     <g id="text_2">
      <!-- 5000 -->
      <g transform="translate(150.735178 334.998438) scale(0.1 -0.1)">
       <defs>
        <path id="DejaVuSans-35" d="M 691 4666 
L 3169 4666 
L 3169 4134 
L 1269 4134 
L 1269 2991 
Q 1406 3038 1543 3061 
Q 1681 3084 1819 3084 
Q 2600 3084 3056 2656 
Q 3513 2228 3513 1497 
Q 3513 744 3044 326 
Q 2575 -91 1722 -91 
Q 1428 -91 1123 -41 
Q 819 9 494 109 
L 494 744 
Q 775 591 1075 516 
Q 1375 441 1709 441 
Q 2250 441 2565 725 
Q 2881 1009 2881 1497 
Q 2881 1984 2565 2268 
Q 2250 2553 1709 2553 
Q 1456 2553 1204 2497 
Q 953 2441 691 2322 
L 691 4666 
z
" transform="scale(0.015625)"/>
       </defs>
       <use xlink:href="#DejaVuSans-35"/>
       <use xlink:href="#DejaVuSans-30" x="63.623047"/>
       <use xlink:href="#DejaVuSans-30" x="127.246094"/>
       <use xlink:href="#DejaVuSans-30" x="190.869141"/>
      </g>
     </g>
    </g>
    <g id="xtick_3">
     <g id="line2d_3">
      <g>
       <use xlink:href="#m00e3d9709b" x="215.913945" y="320.4" style="stroke: #000000; stroke-width: 0.8"/>
      </g>
     </g>
     <g id="text_3">
      <!-- 10000 -->
      <g transform="translate(200.007695 334.998438) scale(0.1 -0.1)">
       <defs>
        <path id="DejaVuSans-31" d="M 794 531 
L 1825 531 
L 1825 4091 
L 703 3866 
L 703 4441 
L 1819 4666 
L 2450 4666 
L 2450 531 
L 3481 531 
L 3481 0 
L 794 0 
L 794 531 
z
" transform="scale(0.015625)"/>
       </defs>
       <use xlink:href="#DejaVuSans-31"/>
       <use xlink:href="#DejaVuSans-30" x="63.623047"/>
       <use xlink:href="#DejaVuSans-30" x="127.246094"/>
       <use xlink:href="#DejaVuSans-30" x="190.869141"/>
       <use xlink:href="#DejaVuSans-30" x="254.492188"/>
      </g>
     </g>
    </g>
    <g id="xtick_4">
     <g id="line2d_4">
      <g>
       <use xlink:href="#m00e3d9709b" x="268.367712" y="320.4" style="stroke: #000000; stroke-width: 0.8"/>
      </g>
     </g>
     <g id="text_4">
      <!-- 15000 -->
      <g transform="translate(252.461462 334.998438) scale(0.1 -0.1)">
       <use xlink:href="#DejaVuSans-31"/>
       <use xlink:href="#DejaVuSans-35" x="63.623047"/>
       <use xlink:href="#DejaVuSans-30" x="127.246094"/>
       <use xlink:href="#DejaVuSans-30" x="190.869141"/>
       <use xlink:href="#DejaVuSans-30" x="254.492188"/>
      </g>
     </g>
    </g>
    <g id="xtick_5">
     <g id="line2d_5">
      <g>
       <use xlink:href="#m00e3d9709b" x="320.821479" y="320.4" style="stroke: #000000; stroke-width: 0.8"/>
      </g>
     </g>
     <g id="text_5">
      <!-- 20000 -->
      <g transform="translate(304.915229 334.998438) scale(0.1 -0.1)">
       <defs>
        <path id="DejaVuSans-32" d="M 1228 531 
L 3431 531 
L 3431 0 
L 469 0 
L 469 531 
Q 828 903 1448 1529 
Q 2069 2156 2228 2338 
Q 2531 2678 2651 2914 
Q 2772 3150 2772 3378 
Q 2772 3750 2511 3984 
Q 2250 4219 1831 4219 
Q 1534 4219 1204 4116 
Q 875 4013 500 3803 
L 500 4441 
Q 881 4594 1212 4672 
Q 1544 4750 1819 4750 
Q 2544 4750 2975 4387 
Q 3406 4025 3406 3419 
Q 3406 3131 3298 2873 
Q 3191 2616 2906 2266 
Q 2828 2175 2409 1742 
Q 1991 1309 1228 531 
z
" transform="scale(0.015625)"/>
       </defs>
       <use xlink:href="#DejaVuSans-32"/>
       <use xlink:href="#DejaVuSans-30" x="63.623047"/>
       <use xlink:href="#DejaVuSans-30" x="127.246094"/>
       <use xlink:href="#DejaVuSans-30" x="190.869141"/>
       <use xlink:href="#DejaVuSans-30" x="254.492188"/>
      </g>
     </g>
    </g>
    <g id="text_6">
     <!-- time -->
     <g transform="translate(203.262869 350.19625) scale(0.12 -0.12)">
      <defs>
       <path id="DejaVuSans-74" d="M 1172 4494 
L 1172 3500 
L 2356 3500 
L 2356 3053 
L 1172 3053 
L 1172 1153 
Q 1172 725 1289 603 
Q 1406 481 1766 481 
L 2356 481 
L 2356 0 
L 1766 0 
Q 1100 0 847 248 
Q 594 497 594 1153 
L 594 3053 
L 172 3053 
L 172 3500 
L 594 3500 
L 594 4494 
L 1172 4494 
z
" transform="scale(0.015625)"/>
       <path id="DejaVuSans-69" d="M 603 3500 
L 1178 3500 
L 1178 0 
L 603 0 
L 603 3500 
z
M 603 4863 
L 1178 4863 
L 1178 4134 
L 603 4134 
L 603 4863 
z
" transform="scale(0.015625)"/>
       <path id="DejaVuSans-6d" d="M 3328 2828 
Q 3544 3216 3844 3400 
Q 4144 3584 4550 3584 
Q 5097 3584 5394 3201 
Q 5691 2819 5691 2113 
L 5691 0 
L 5113 0 
L 5113 2094 
Q 5113 2597 4934 2840 
Q 4756 3084 4391 3084 
Q 3944 3084 3684 2787 
Q 3425 2491 3425 1978 
L 3425 0 
L 2847 0 
L 2847 2094 
Q 2847 2600 2669 2842 
Q 2491 3084 2119 3084 
Q 1678 3084 1418 2786 
Q 1159 2488 1159 1978 
L 1159 0 
L 581 0 
L 581 3500 
L 1159 3500 
L 1159 2956 
Q 1356 3278 1631 3431 
Q 1906 3584 2284 3584 
Q 2666 3584 2933 3390 
Q 3200 3197 3328 2828 
z
" transform="scale(0.015625)"/>
       <path id="DejaVuSans-65" d="M 3597 1894 
L 3597 1613 
L 953 1613 
Q 991 1019 1311 708 
Q 1631 397 2203 397 
Q 2534 397 2845 478 
Q 3156 559 3463 722 
L 3463 178 
Q 3153 47 2828 -22 
Q 2503 -91 2169 -91 
Q 1331 -91 842 396 
Q 353 884 353 1716 
Q 353 2575 817 3079 
Q 1281 3584 2069 3584 
Q 2775 3584 3186 3129 
Q 3597 2675 3597 1894 
z
M 3022 2063 
Q 3016 2534 2758 2815 
Q 2500 3097 2075 3097 
Q 1594 3097 1305 2825 
Q 1016 2553 972 2059 
L 3022 2063 
z
" transform="scale(0.015625)"/>
      </defs>
      <use xlink:href="#DejaVuSans-74"/>
      <use xlink:href="#DejaVuSans-69" x="39.208984"/>
      <use xlink:href="#DejaVuSans-6d" x="66.992188"/>
      <use xlink:href="#DejaVuSans-65" x="164.404297"/>
     </g>
    </g>
   </g>
   <g id="matplotlib.axis_2">
    <g id="ytick_1">
     <g id="line2d_6">
      <defs>
       <path id="m03726ef537" d="M 0 0 
L -3.5 0 
" style="stroke: #000000; stroke-width: 0.8"/>
      </defs>
      <g>
       <use xlink:href="#m03726ef537" x="90" y="307.8" style="stroke: #000000; stroke-width: 0.8"/>
      </g>
     </g>
     <g id="text_7">
      <!-- 0.000000 -->
      <g transform="translate(35.284375 311.599219) scale(0.1 -0.1)">
       <defs>
        <path id="DejaVuSans-2e" d="M 684 794 
L 1344 794 
L 1344 0 
L 684 0 
L 684 794 
z
" transform="scale(0.015625)"/>
       </defs>
       <use xlink:href="#DejaVuSans-30"/>
       <use xlink:href="#DejaVuSans-2e" x="63.623047"/>
       <use xlink:href="#DejaVuSans-30" x="95.410156"/>
       <use xlink:href="#DejaVuSans-30" x="159.033203"/>
       <use xlink:href="#DejaVuSans-30" x="222.65625"/>
       <use xlink:href="#DejaVuSans-30" x="286.279297"/>
       <use xlink:href="#DejaVuSans-30" x="349.902344"/>
       <use xlink:href="#DejaVuSans-30" x="413.525391"/>
      </g>
     </g>
    </g>
    <g id="ytick_2">
     <g id="line2d_7">
      <g>
       <use xlink:href="#m03726ef537" x="90" y="276.953796" style="stroke: #000000; stroke-width: 0.8"/>
      </g>
     </g>
     <g id="text_8">
      <!-- 0.000025 -->
      <g transform="translate(35.284375 280.753015) scale(0.1 -0.1)">
       <use xlink:href="#DejaVuSans-30"/>
       <use xlink:href="#DejaVuSans-2e" x="63.623047"/>
       <use xlink:href="#DejaVuSans-30" x="95.410156"/>
       <use xlink:href="#DejaVuSans-30" x="159.033203"/>
       <use xlink:href="#DejaVuSans-30" x="222.65625"/>
       <use xlink:href="#DejaVuSans-30" x="286.279297"/>
       <use xlink:href="#DejaVuSans-32" x="349.902344"/>
       <use xlink:href="#DejaVuSans-35" x="413.525391"/>
      </g>
     </g>
    </g>
    <g id="ytick_3">
     <g id="line2d_8">
      <g>
       <use xlink:href="#m03726ef537" x="90" y="246.107592" style="stroke: #000000; stroke-width: 0.8"/>
      </g>
     </g>
     <g id="text_9">
      <!-- 0.000050 -->
      <g transform="translate(35.284375 249.90681) scale(0.1 -0.1)">
       <use xlink:href="#DejaVuSans-30"/>
       <use xlink:href="#DejaVuSans-2e" x="63.623047"/>
       <use xlink:href="#DejaVuSans-30" x="95.410156"/>
       <use xlink:href="#DejaVuSans-30" x="159.033203"/>
       <use xlink:href="#DejaVuSans-30" x="222.65625"/>
       <use xlink:href="#DejaVuSans-30" x="286.279297"/>
       <use xlink:href="#DejaVuSans-35" x="349.902344"/>
       <use xlink:href="#DejaVuSans-30" x="413.525391"/>
      </g>
     </g>
    </g>
    <g id="ytick_4">
     <g id="line2d_9">
      <g>
       <use xlink:href="#m03726ef537" x="90" y="215.261387" style="stroke: #000000; stroke-width: 0.8"/>
      </g>
     </g>
     <g id="text_10">
      <!-- 0.000075 -->
      <g transform="translate(35.284375 219.060606) scale(0.1 -0.1)">
       <defs>
        <path id="DejaVuSans-37" d="M 525 4666 
L 3525 4666 
L 3525 4397 
L 1831 0 
L 1172 0 
L 2766 4134 
L 525 4134 
L 525 4666 
z
" transform="scale(0.015625)"/>
       </defs>
       <use xlink:href="#DejaVuSans-30"/>
       <use xlink:href="#DejaVuSans-2e" x="63.623047"/>
       <use xlink:href="#DejaVuSans-30" x="95.410156"/>
       <use xlink:href="#DejaVuSans-30" x="159.033203"/>
       <use xlink:href="#DejaVuSans-30" x="222.65625"/>
       <use xlink:href="#DejaVuSans-30" x="286.279297"/>
       <use xlink:href="#DejaVuSans-37" x="349.902344"/>
       <use xlink:href="#DejaVuSans-35" x="413.525391"/>
      </g>
     </g>
    </g>
    <g id="ytick_5">
     <g id="line2d_10">
      <g>
       <use xlink:href="#m03726ef537" x="90" y="184.415183" style="stroke: #000000; stroke-width: 0.8"/>
      </g>
     </g>
     <g id="text_11">
      <!-- 0.000100 -->
      <g transform="translate(35.284375 188.214402) scale(0.1 -0.1)">
       <use xlink:href="#DejaVuSans-30"/>
       <use xlink:href="#DejaVuSans-2e" x="63.623047"/>
       <use xlink:href="#DejaVuSans-30" x="95.410156"/>
       <use xlink:href="#DejaVuSans-30" x="159.033203"/>
       <use xlink:href="#DejaVuSans-30" x="222.65625"/>
       <use xlink:href="#DejaVuSans-31" x="286.279297"/>
       <use xlink:href="#DejaVuSans-30" x="349.902344"/>
       <use xlink:href="#DejaVuSans-30" x="413.525391"/>
      </g>
     </g>
    </g>
    <g id="ytick_6">
     <g id="line2d_11">
      <g>
       <use xlink:href="#m03726ef537" x="90" y="153.568979" style="stroke: #000000; stroke-width: 0.8"/>
      </g>
     </g>
     <g id="text_12">
      <!-- 0.000125 -->
      <g transform="translate(35.284375 157.368198) scale(0.1 -0.1)">
       <use xlink:href="#DejaVuSans-30"/>
       <use xlink:href="#DejaVuSans-2e" x="63.623047"/>
       <use xlink:href="#DejaVuSans-30" x="95.410156"/>
       <use xlink:href="#DejaVuSans-30" x="159.033203"/>
       <use xlink:href="#DejaVuSans-30" x="222.65625"/>
       <use xlink:href="#DejaVuSans-31" x="286.279297"/>
       <use xlink:href="#DejaVuSans-32" x="349.902344"/>
       <use xlink:href="#DejaVuSans-35" x="413.525391"/>
      </g>
     </g>
    </g>
    <g id="ytick_7">
     <g id="line2d_12">
      <g>
       <use xlink:href="#m03726ef537" x="90" y="122.722775" style="stroke: #000000; stroke-width: 0.8"/>
      </g>
     </g>
     <g id="text_13">
      <!-- 0.000150 -->
      <g transform="translate(35.284375 126.521993) scale(0.1 -0.1)">
       <use xlink:href="#DejaVuSans-30"/>
       <use xlink:href="#DejaVuSans-2e" x="63.623047"/>
       <use xlink:href="#DejaVuSans-30" x="95.410156"/>
       <use xlink:href="#DejaVuSans-30" x="159.033203"/>
       <use xlink:href="#DejaVuSans-30" x="222.65625"/>
       <use xlink:href="#DejaVuSans-31" x="286.279297"/>
       <use xlink:href="#DejaVuSans-35" x="349.902344"/>
       <use xlink:href="#DejaVuSans-30" x="413.525391"/>
      </g>
     </g>
    </g>
    <g id="ytick_8">
     <g id="line2d_13">
      <g>
       <use xlink:href="#m03726ef537" x="90" y="91.87657" style="stroke: #000000; stroke-width: 0.8"/>
      </g>
     </g>
     <g id="text_14">
      <!-- 0.000175 -->
      <g transform="translate(35.284375 95.675789) scale(0.1 -0.1)">
       <use xlink:href="#DejaVuSans-30"/>
       <use xlink:href="#DejaVuSans-2e" x="63.623047"/>
       <use xlink:href="#DejaVuSans-30" x="95.410156"/>
       <use xlink:href="#DejaVuSans-30" x="159.033203"/>
       <use xlink:href="#DejaVuSans-30" x="222.65625"/>
       <use xlink:href="#DejaVuSans-31" x="286.279297"/>
       <use xlink:href="#DejaVuSans-37" x="349.902344"/>
       <use xlink:href="#DejaVuSans-35" x="413.525391"/>
      </g>
     </g>
    </g>
    <g id="ytick_9">
     <g id="line2d_14">
      <g>
       <use xlink:href="#m03726ef537" x="90" y="61.030366" style="stroke: #000000; stroke-width: 0.8"/>
      </g>
     </g>
     <g id="text_15">
      <!-- 0.000200 -->
      <g transform="translate(35.284375 64.829585) scale(0.1 -0.1)">
       <use xlink:href="#DejaVuSans-30"/>
       <use xlink:href="#DejaVuSans-2e" x="63.623047"/>
       <use xlink:href="#DejaVuSans-30" x="95.410156"/>
       <use xlink:href="#DejaVuSans-30" x="159.033203"/>
       <use xlink:href="#DejaVuSans-30" x="222.65625"/>
       <use xlink:href="#DejaVuSans-32" x="286.279297"/>
       <use xlink:href="#DejaVuSans-30" x="349.902344"/>
       <use xlink:href="#DejaVuSans-30" x="413.525391"/>
      </g>
     </g>
    </g>
    <g id="text_16">
     <!-- [Cve_d3g] -->
     <g transform="translate(28.455 212.350312) rotate(-90) scale(0.12 -0.12)">
      <defs>
       <path id="DejaVuSans-5b" d="M 550 4863 
L 1875 4863 
L 1875 4416 
L 1125 4416 
L 1125 -397 
L 1875 -397 
L 1875 -844 
L 550 -844 
L 550 4863 
z
" transform="scale(0.015625)"/>
       <path id="DejaVuSans-43" d="M 4122 4306 
L 4122 3641 
Q 3803 3938 3442 4084 
Q 3081 4231 2675 4231 
Q 1875 4231 1450 3742 
Q 1025 3253 1025 2328 
Q 1025 1406 1450 917 
Q 1875 428 2675 428 
Q 3081 428 3442 575 
Q 3803 722 4122 1019 
L 4122 359 
Q 3791 134 3420 21 
Q 3050 -91 2638 -91 
Q 1578 -91 968 557 
Q 359 1206 359 2328 
Q 359 3453 968 4101 
Q 1578 4750 2638 4750 
Q 3056 4750 3426 4639 
Q 3797 4528 4122 4306 
z
" transform="scale(0.015625)"/>
       <path id="DejaVuSans-76" d="M 191 3500 
L 800 3500 
L 1894 563 
L 2988 3500 
L 3597 3500 
L 2284 0 
L 1503 0 
L 191 3500 
z
" transform="scale(0.015625)"/>
       <path id="DejaVuSans-5f" d="M 3263 -1063 
L 3263 -1509 
L -63 -1509 
L -63 -1063 
L 3263 -1063 
z
" transform="scale(0.015625)"/>
       <path id="DejaVuSans-64" d="M 2906 2969 
L 2906 4863 
L 3481 4863 
L 3481 0 
L 2906 0 
L 2906 525 
Q 2725 213 2448 61 
Q 2172 -91 1784 -91 
Q 1150 -91 751 415 
Q 353 922 353 1747 
Q 353 2572 751 3078 
Q 1150 3584 1784 3584 
Q 2172 3584 2448 3432 
Q 2725 3281 2906 2969 
z
M 947 1747 
Q 947 1113 1208 752 
Q 1469 391 1925 391 
Q 2381 391 2643 752 
Q 2906 1113 2906 1747 
Q 2906 2381 2643 2742 
Q 2381 3103 1925 3103 
Q 1469 3103 1208 2742 
Q 947 2381 947 1747 
z
" transform="scale(0.015625)"/>
       <path id="DejaVuSans-33" d="M 2597 2516 
Q 3050 2419 3304 2112 
Q 3559 1806 3559 1356 
Q 3559 666 3084 287 
Q 2609 -91 1734 -91 
Q 1441 -91 1130 -33 
Q 819 25 488 141 
L 488 750 
Q 750 597 1062 519 
Q 1375 441 1716 441 
Q 2309 441 2620 675 
Q 2931 909 2931 1356 
Q 2931 1769 2642 2001 
Q 2353 2234 1838 2234 
L 1294 2234 
L 1294 2753 
L 1863 2753 
Q 2328 2753 2575 2939 
Q 2822 3125 2822 3475 
Q 2822 3834 2567 4026 
Q 2313 4219 1838 4219 
Q 1578 4219 1281 4162 
Q 984 4106 628 3988 
L 628 4550 
Q 988 4650 1302 4700 
Q 1616 4750 1894 4750 
Q 2613 4750 3031 4423 
Q 3450 4097 3450 3541 
Q 3450 3153 3228 2886 
Q 3006 2619 2597 2516 
z
" transform="scale(0.015625)"/>
       <path id="DejaVuSans-67" d="M 2906 1791 
Q 2906 2416 2648 2759 
Q 2391 3103 1925 3103 
Q 1463 3103 1205 2759 
Q 947 2416 947 1791 
Q 947 1169 1205 825 
Q 1463 481 1925 481 
Q 2391 481 2648 825 
Q 2906 1169 2906 1791 
z
M 3481 434 
Q 3481 -459 3084 -895 
Q 2688 -1331 1869 -1331 
Q 1566 -1331 1297 -1286 
Q 1028 -1241 775 -1147 
L 775 -588 
Q 1028 -725 1275 -790 
Q 1522 -856 1778 -856 
Q 2344 -856 2625 -561 
Q 2906 -266 2906 331 
L 2906 616 
Q 2728 306 2450 153 
Q 2172 0 1784 0 
Q 1141 0 747 490 
Q 353 981 353 1791 
Q 353 2603 747 3093 
Q 1141 3584 1784 3584 
Q 2172 3584 2450 3431 
Q 2728 3278 2906 2969 
L 2906 3500 
L 3481 3500 
L 3481 434 
z
" transform="scale(0.015625)"/>
       <path id="DejaVuSans-5d" d="M 1947 4863 
L 1947 -844 
L 622 -844 
L 622 -397 
L 1369 -397 
L 1369 4416 
L 622 4416 
L 622 4863 
L 1947 4863 
z
" transform="scale(0.015625)"/>
      </defs>
      <use xlink:href="#DejaVuSans-5b"/>
      <use xlink:href="#DejaVuSans-43" x="39.013672"/>
      <use xlink:href="#DejaVuSans-76" x="108.837891"/>
      <use xlink:href="#DejaVuSans-65" x="168.017578"/>
      <use xlink:href="#DejaVuSans-5f" x="229.541016"/>
      <use xlink:href="#DejaVuSans-64" x="279.541016"/>
      <use xlink:href="#DejaVuSans-33" x="343.017578"/>
      <use xlink:href="#DejaVuSans-67" x="406.640625"/>
      <use xlink:href="#DejaVuSans-5d" x="470.117188"/>
     </g>
    </g>
   </g>
   <g id="LineCollection_1">
    <path d="M 111.136364 306.241639 
L 111.136364 299.69698 
" clip-path="url(#p46dc31d601)" style="fill: none; stroke: #000000; stroke-width: 1.5"/>
    <path d="M 111.321133 271.960754 
L 111.321133 210.985233 
" clip-path="url(#p46dc31d601)" style="fill: none; stroke: #000000; stroke-width: 1.5"/>
    <path d="M 111.635856 142.637816 
L 111.635856 55.8 
" clip-path="url(#p46dc31d601)" style="fill: none; stroke: #000000; stroke-width: 1.5"/>
    <path d="M 111.950578 153.761584 
L 111.950578 69.433098 
" clip-path="url(#p46dc31d601)" style="fill: none; stroke: #000000; stroke-width: 1.5"/>
    <path d="M 112.265301 183.493861 
L 112.265301 112.685552 
" clip-path="url(#p46dc31d601)" style="fill: none; stroke: #000000; stroke-width: 1.5"/>
    <path d="M 113.524191 258.784576 
L 113.524191 221.177159 
" clip-path="url(#p46dc31d601)" style="fill: none; stroke: #000000; stroke-width: 1.5"/>
    <path d="M 114.783082 279.358694 
L 114.783082 261.85163 
" clip-path="url(#p46dc31d601)" style="fill: none; stroke: #000000; stroke-width: 1.5"/>
    <path d="M 116.041972 285.935004 
L 116.041972 271.423507 
" clip-path="url(#p46dc31d601)" style="fill: none; stroke: #000000; stroke-width: 1.5"/>
    <path d="M 117.300863 292.768515 
L 117.300863 282.033088 
" clip-path="url(#p46dc31d601)" style="fill: none; stroke: #000000; stroke-width: 1.5"/>
    <path d="M 118.559753 299.715201 
L 118.559753 285.502281 
" clip-path="url(#p46dc31d601)" style="fill: none; stroke: #000000; stroke-width: 1.5"/>
    <path d="M 122.336424 302.572596 
L 122.336424 298.118523 
" clip-path="url(#p46dc31d601)" style="fill: none; stroke: #000000; stroke-width: 1.5"/>
    <path d="M 126.113096 301.486646 
L 126.113096 297.450316 
" clip-path="url(#p46dc31d601)" style="fill: none; stroke: #000000; stroke-width: 1.5"/>
    <path d="M 307.393315 300.797488 
L 307.393315 296.487087 
" clip-path="url(#p46dc31d601)" style="fill: none; stroke: #000000; stroke-width: 1.5"/>
    <path d="M 307.535082 297.505172 
L 307.535082 292.524015 
" clip-path="url(#p46dc31d601)" style="fill: none; stroke: #000000; stroke-width: 1.5"/>
    <path d="M 307.708038 260.660931 
L 307.708038 200.791109 
" clip-path="url(#p46dc31d601)" style="fill: none; stroke: #000000; stroke-width: 1.5"/>
    <path d="M 308.02276 150.296257 
L 308.02276 64.070674 
" clip-path="url(#p46dc31d601)" style="fill: none; stroke: #000000; stroke-width: 1.5"/>
    <path d="M 308.337483 164.003574 
L 308.337483 72.069904 
" clip-path="url(#p46dc31d601)" style="fill: none; stroke: #000000; stroke-width: 1.5"/>
    <path d="M 308.652205 195.218275 
L 308.652205 123.241165 
" clip-path="url(#p46dc31d601)" style="fill: none; stroke: #000000; stroke-width: 1.5"/>
    <path d="M 309.911096 254.181847 
L 309.911096 221.177159 
" clip-path="url(#p46dc31d601)" style="fill: none; stroke: #000000; stroke-width: 1.5"/>
    <path d="M 311.169986 271.194597 
L 311.169986 247.791588 
" clip-path="url(#p46dc31d601)" style="fill: none; stroke: #000000; stroke-width: 1.5"/>
    <path d="M 312.428877 274.194273 
L 312.428877 253.508246 
" clip-path="url(#p46dc31d601)" style="fill: none; stroke: #000000; stroke-width: 1.5"/>
    <path d="M 313.687767 289.320507 
L 313.687767 268.038004 
" clip-path="url(#p46dc31d601)" style="fill: none; stroke: #000000; stroke-width: 1.5"/>
    <path d="M 314.946658 294.855041 
L 314.946658 279.946562 
" clip-path="url(#p46dc31d601)" style="fill: none; stroke: #000000; stroke-width: 1.5"/>
    <path d="M 318.723329 300.071199 
L 318.723329 295.840059 
" clip-path="url(#p46dc31d601)" style="fill: none; stroke: #000000; stroke-width: 1.5"/>
    <path d="M 322.5 300.175975 
L 322.5 296.487087 
" clip-path="url(#p46dc31d601)" style="fill: none; stroke: #000000; stroke-width: 1.5"/>
   </g>
   <g id="line2d_15">
    <path d="M 111.006411 307.8 
L 111.053314 307.691492 
L 111.112468 306.256074 
L 111.224688 297.569256 
L 112.000644 222.957565 
L 112.169319 221.179654 
L 112.253657 221.644641 
L 112.422332 224.491761 
L 112.766368 234.787903 
L 113.935007 271.578182 
L 114.584251 284.299374 
L 115.16857 291.780367 
L 115.75289 296.690343 
L 116.337209 299.8938 
L 116.921529 301.982766 
L 117.473836 303.286959 
L 118.158687 304.324912 
L 118.843538 304.960915 
L 119.626224 305.395309 
L 120.701021 305.712379 
L 122.1479 305.899548 
L 125.148427 306.014606 
L 126.160206 305.925403 
L 126.218829 304.506136 
L 126.34087 294.762507 
L 127.071256 222.158705 
L 127.284421 219.439341 
L 127.391003 220.24098 
L 127.606174 224.669323 
L 128.149117 242.777205 
L 128.980615 268.351062 
L 129.649231 281.908948 
L 130.23427 289.62731 
L 130.819308 294.696028 
L 131.404347 298.003694 
L 131.989385 300.161089 
L 132.574424 301.571499 
L 133.24304 302.600511 
L 133.911655 303.240447 
L 134.747425 303.716186 
L 135.833925 304.04164 
L 137.421887 304.249473 
L 140.514234 304.382104 
L 141.264563 304.308553 
L 141.320383 303.079517 
L 141.440027 293.959888 
L 142.214036 219.577024 
L 142.371587 217.800671 
L 142.450362 218.118058 
L 142.607913 220.507763 
L 142.944507 230.219168 
L 144.138128 267.986352 
L 144.79462 280.918378 
L 145.391431 288.553955 
L 145.988242 293.523367 
L 146.585053 296.739399 
L 147.181864 298.82113 
L 147.778674 300.172817 
L 148.435166 301.124084 
L 149.151339 301.765375 
L 149.986874 302.205983 
L 151.061134 302.510173 
L 152.673397 302.717838 
L 155.988928 302.87364 
L 156.369387 302.8071 
L 156.428984 301.489622 
L 156.54989 292.098745 
L 157.286016 218.983278 
L 157.494334 216.302705 
L 157.598493 217.03844 
L 157.7743 220.374916 
L 158.199769 233.885503 
L 159.129107 263.600235 
L 159.792527 277.658944 
L 160.373019 285.72668 
L 160.953511 291.053066 
L 161.534003 294.544912 
L 162.114495 296.832749 
L 162.694987 298.335749 
L 163.358406 299.438972 
L 164.021826 300.130694 
L 164.8511 300.651299 
L 165.84623 300.995765 
L 167.338923 301.244575 
L 170.075529 301.426282 
L 171.477324 301.396009 
L 171.534557 300.131887 
L 171.648302 291.594016 
L 172.445386 216.28226 
L 172.572638 214.915311 
L 172.620363 214.958113 
L 172.763541 216.503463 
L 173.049895 223.786092 
L 174.601254 270.699752 
L 175.18469 280.661257 
L 175.768126 287.279728 
L 176.351561 291.621278 
L 176.934997 294.460404 
L 177.518433 296.319961 
L 178.174798 297.663225 
L 178.831163 298.508108 
L 179.560457 299.091252 
L 180.435611 299.503242 
L 181.602482 299.796936 
L 183.498648 300.01543 
L 186.577392 300.137841 
L 186.626418 299.347361 
L 186.728253 292.974246 
L 187.026851 254.176796 
L 187.374846 221.448695 
L 187.632161 213.862256 
L 187.705679 213.615369 
L 187.742439 213.737624 
L 187.889475 215.557153 
L 188.187575 223.487854 
L 189.660209 268.421416 
L 190.258734 278.929487 
L 190.857259 285.848317 
L 191.455783 290.340199 
L 192.054308 293.246943 
L 192.652833 295.131537 
L 193.251358 296.359322 
L 193.935386 297.25492 
L 194.704918 297.86848 
L 195.645456 298.298321 
L 196.928009 298.601377 
L 198.980094 298.822811 
L 201.686477 298.921859 
L 201.740652 297.900785 
L 201.847097 290.59794 
L 202.684145 213.329829 
L 202.810069 212.416358 
L 202.852044 212.557493 
L 202.977968 214.036912 
L 203.271791 221.57454 
L 204.797698 267.886279 
L 205.442887 278.818843 
L 206.023556 285.210791 
L 206.604225 289.412603 
L 207.184895 292.168301 
L 207.765564 293.97962 
L 208.410752 295.281211 
L 209.055941 296.10948 
L 209.765648 296.684607 
L 210.668911 297.119517 
L 211.894769 297.434605 
L 213.830334 297.671287 
L 216.791451 297.813334 
L 216.839654 297.030831 
L 216.93957 290.845488 
L 217.225241 253.84555 
L 217.590056 219.038136 
L 217.825918 211.741655 
L 217.893308 211.315862 
L 217.960697 211.458141 
L 218.079387 212.837444 
L 218.33589 219.140776 
L 220.013728 268.990662 
L 220.662333 279.180305 
L 221.229862 284.970385 
L 221.797391 288.81052 
L 222.36492 291.354458 
L 223.013525 293.234601 
L 223.66213 294.420992 
L 224.310735 295.177213 
L 225.040415 295.713591 
L 226.013322 296.132204 
L 227.310531 296.426722 
L 229.580648 296.673743 
L 231.901551 296.761826 
L 231.95759 295.623683 
L 232.076993 286.738415 
L 232.853067 212.071327 
L 233.004566 210.281916 
L 233.05015 210.346067 
L 233.186905 211.825724 
L 233.460413 218.664976 
L 235.102396 267.622265 
L 235.718171 277.52446 
L 236.333947 283.939148 
L 236.949722 288.049353 
L 237.565498 290.680073 
L 238.181273 292.370364 
L 238.797048 293.464052 
L 239.481243 294.24123 
L 240.233858 294.771858 
L 241.191731 295.169036 
L 242.56012 295.470388 
L 244.954803 295.727072 
L 247.010674 295.789468 
L 247.06832 294.513076 
L 247.190832 285.003919 
L 247.926512 211.995569 
L 248.129759 209.32792 
L 248.22476 209.912157 
L 248.414764 213.424304 
L 248.867303 227.913864 
L 249.810219 257.737373 
L 250.463007 271.278534 
L 251.043264 279.193 
L 251.62352 284.422602 
L 252.203776 287.857909 
L 252.784032 290.116084 
L 253.364289 291.606913 
L 254.017077 292.696138 
L 254.742397 293.452775 
L 255.54025 293.958775 
L 256.555698 294.331744 
L 258.078871 294.625281 
L 260.90762 294.898356 
L 262.119915 294.881095 
L 262.17493 293.627509 
L 262.301411 283.682777 
L 263.038323 210.963343 
L 263.242001 208.451347 
L 263.337378 209.095754 
L 263.528133 212.708522 
L 263.982646 227.34127 
L 264.931674 257.233228 
L 265.588693 270.718517 
L 266.17271 278.571323 
L 266.756727 283.745036 
L 267.340744 287.135013 
L 267.924761 289.35855 
L 268.508778 290.823926 
L 269.165797 291.893184 
L 269.895818 292.6356 
L 270.698842 293.132663 
L 271.720872 293.500735 
L 273.253916 293.794349 
L 276.174002 294.082323 
L 277.224414 294.076356 
L 277.279801 292.876744 
L 277.389538 284.867814 
L 278.207183 208.715163 
L 278.33631 207.623706 
L 278.43363 208.163947 
L 278.62827 211.729533 
L 279.066208 225.705994 
L 280.045539 256.602832 
L 280.648204 269.125569 
L 281.250868 277.453316 
L 281.853533 282.871657 
L 282.456198 286.375402 
L 283.058863 288.643812 
L 283.661528 290.120274 
L 284.339526 291.184684 
L 285.017524 291.857279 
L 285.846188 292.364981 
L 286.900851 292.73734 
L 288.482846 293.034376 
L 291.571503 293.340263 
L 292.332562 293.302373 
L 292.38825 292.045404 
L 292.51371 282.219479 
L 293.238918 209.763131 
L 293.419104 206.897076 
L 293.464613 206.89563 
L 293.555632 207.578537 
L 293.783177 212.224708 
L 294.341437 230.93723 
L 295.125752 255.184432 
L 295.767463 268.587751 
L 296.337874 276.486145 
L 296.908284 281.746543 
L 297.478695 285.229497 
L 298.049105 287.537189 
L 298.690817 289.225063 
L 299.332529 290.302504 
L 300.045542 291.059989 
L 300.829856 291.574151 
L 301.828075 291.960859 
L 303.325402 292.27505 
L 306.106153 292.58169 
L 307.437238 292.610569 
L 307.490942 291.491311 
L 307.608317 282.830411 
L 308.411797 207.415333 
L 308.538398 206.16859 
L 308.580598 206.222657 
L 308.707198 207.502075 
L 308.960399 213.541166 
L 310.786277 266.37324 
L 311.36677 274.893943 
L 311.947262 280.538417 
L 312.527755 284.250325 
L 313.108248 286.691923 
L 313.75324 288.446858 
L 314.398231 289.564497 
L 315.107722 290.342376 
L 315.881713 290.868359 
L 316.9137 291.280808 
L 318.397181 291.600825 
L 321.107042 291.912577 
L 323.129445 292.086239 
L 323.129445 292.086239 
" clip-path="url(#p46dc31d601)" style="fill: none; stroke: #0000ff; stroke-width: 1.5; stroke-linecap: square"/>
   </g>
   <g id="line2d_16">
    <path d="M 111.136364 302.969309 
L 111.321133 241.472994 
L 111.635856 99.218908 
L 111.950578 111.597341 
L 112.265301 148.089706 
L 113.524191 239.980867 
L 114.783082 270.605162 
L 116.041972 278.679256 
L 117.300863 287.400802 
L 118.559753 292.608741 
L 122.336424 300.34556 
L 126.113096 299.468481 
L 307.393315 298.642287 
L 307.535082 295.014593 
L 307.708038 230.72602 
L 308.02276 107.183465 
L 308.337483 118.036739 
L 308.652205 159.22972 
L 309.911096 237.679503 
L 311.169986 259.493092 
L 312.428877 263.851259 
L 313.687767 278.679256 
L 314.946658 287.400802 
L 318.723329 297.955629 
L 322.5 298.331531 
" clip-path="url(#p46dc31d601)" style="fill: none; stroke: #000000; stroke-width: 1.5; stroke-linecap: square"/>
    <defs>
     <path id="m19d250843d" d="M -5 5 
L 5 5 
L 5 -5 
L -5 -5 
z
" style="stroke: #000000; stroke-linejoin: miter"/>
    </defs>
    <g clip-path="url(#p46dc31d601)">
     <use xlink:href="#m19d250843d" x="111.136364" y="302.969309" style="stroke: #000000; stroke-linejoin: miter"/>
     <use xlink:href="#m19d250843d" x="111.321133" y="241.472994" style="stroke: #000000; stroke-linejoin: miter"/>
     <use xlink:href="#m19d250843d" x="111.635856" y="99.218908" style="stroke: #000000; stroke-linejoin: miter"/>
     <use xlink:href="#m19d250843d" x="111.950578" y="111.597341" style="stroke: #000000; stroke-linejoin: miter"/>
     <use xlink:href="#m19d250843d" x="112.265301" y="148.089706" style="stroke: #000000; stroke-linejoin: miter"/>
     <use xlink:href="#m19d250843d" x="113.524191" y="239.980867" style="stroke: #000000; stroke-linejoin: miter"/>
     <use xlink:href="#m19d250843d" x="114.783082" y="270.605162" style="stroke: #000000; stroke-linejoin: miter"/>
     <use xlink:href="#m19d250843d" x="116.041972" y="278.679256" style="stroke: #000000; stroke-linejoin: miter"/>
     <use xlink:href="#m19d250843d" x="117.300863" y="287.400802" style="stroke: #000000; stroke-linejoin: miter"/>
     <use xlink:href="#m19d250843d" x="118.559753" y="292.608741" style="stroke: #000000; stroke-linejoin: miter"/>
     <use xlink:href="#m19d250843d" x="122.336424" y="300.34556" style="stroke: #000000; stroke-linejoin: miter"/>
     <use xlink:href="#m19d250843d" x="126.113096" y="299.468481" style="stroke: #000000; stroke-linejoin: miter"/>
     <use xlink:href="#m19d250843d" x="307.393315" y="298.642287" style="stroke: #000000; stroke-linejoin: miter"/>
     <use xlink:href="#m19d250843d" x="307.535082" y="295.014593" style="stroke: #000000; stroke-linejoin: miter"/>
     <use xlink:href="#m19d250843d" x="307.708038" y="230.72602" style="stroke: #000000; stroke-linejoin: miter"/>
     <use xlink:href="#m19d250843d" x="308.02276" y="107.183465" style="stroke: #000000; stroke-linejoin: miter"/>
     <use xlink:href="#m19d250843d" x="308.337483" y="118.036739" style="stroke: #000000; stroke-linejoin: miter"/>
     <use xlink:href="#m19d250843d" x="308.652205" y="159.22972" style="stroke: #000000; stroke-linejoin: miter"/>
     <use xlink:href="#m19d250843d" x="309.911096" y="237.679503" style="stroke: #000000; stroke-linejoin: miter"/>
     <use xlink:href="#m19d250843d" x="311.169986" y="259.493092" style="stroke: #000000; stroke-linejoin: miter"/>
     <use xlink:href="#m19d250843d" x="312.428877" y="263.851259" style="stroke: #000000; stroke-linejoin: miter"/>
     <use xlink:href="#m19d250843d" x="313.687767" y="278.679256" style="stroke: #000000; stroke-linejoin: miter"/>
     <use xlink:href="#m19d250843d" x="314.946658" y="287.400802" style="stroke: #000000; stroke-linejoin: miter"/>
     <use xlink:href="#m19d250843d" x="318.723329" y="297.955629" style="stroke: #000000; stroke-linejoin: miter"/>
     <use xlink:href="#m19d250843d" x="322.5" y="298.331531" style="stroke: #000000; stroke-linejoin: miter"/>
    </g>
   </g>
   <g id="patch_3">
    <path d="M 90 320.4 
L 90 43.2 
" style="fill: none; stroke: #000000; stroke-width: 0.8; stroke-linejoin: miter; stroke-linecap: square"/>
   </g>
   <g id="patch_4">
    <path d="M 343.636364 320.4 
L 343.636364 43.2 
" style="fill: none; stroke: #000000; stroke-width: 0.8; stroke-linejoin: miter; stroke-linecap: square"/>
   </g>
   <g id="patch_5">
    <path d="M 90 320.4 
L 343.636364 320.4 
" style="fill: none; stroke: #000000; stroke-width: 0.8; stroke-linejoin: miter; stroke-linecap: square"/>
   </g>
   <g id="patch_6">
    <path d="M 90 43.2 
L 343.636364 43.2 
" style="fill: none; stroke: #000000; stroke-width: 0.8; stroke-linejoin: miter; stroke-linecap: square"/>
   </g>
   <g id="text_17">
    <!-- Kasichayanula2011a fm_dap2.5_dapagliflozin 3-o-glucuronide -->
    <g transform="translate(-0.634631 37.2) scale(0.14 -0.14)">
     <defs>
      <path id="DejaVuSans-4b" d="M 628 4666 
L 1259 4666 
L 1259 2694 
L 3353 4666 
L 4166 4666 
L 1850 2491 
L 4331 0 
L 3500 0 
L 1259 2247 
L 1259 0 
L 628 0 
L 628 4666 
z
" transform="scale(0.015625)"/>
      <path id="DejaVuSans-61" d="M 2194 1759 
Q 1497 1759 1228 1600 
Q 959 1441 959 1056 
Q 959 750 1161 570 
Q 1363 391 1709 391 
Q 2188 391 2477 730 
Q 2766 1069 2766 1631 
L 2766 1759 
L 2194 1759 
z
M 3341 1997 
L 3341 0 
L 2766 0 
L 2766 531 
Q 2569 213 2275 61 
Q 1981 -91 1556 -91 
Q 1019 -91 701 211 
Q 384 513 384 1019 
Q 384 1609 779 1909 
Q 1175 2209 1959 2209 
L 2766 2209 
L 2766 2266 
Q 2766 2663 2505 2880 
Q 2244 3097 1772 3097 
Q 1472 3097 1187 3025 
Q 903 2953 641 2809 
L 641 3341 
Q 956 3463 1253 3523 
Q 1550 3584 1831 3584 
Q 2591 3584 2966 3190 
Q 3341 2797 3341 1997 
z
" transform="scale(0.015625)"/>
      <path id="DejaVuSans-73" d="M 2834 3397 
L 2834 2853 
Q 2591 2978 2328 3040 
Q 2066 3103 1784 3103 
Q 1356 3103 1142 2972 
Q 928 2841 928 2578 
Q 928 2378 1081 2264 
Q 1234 2150 1697 2047 
L 1894 2003 
Q 2506 1872 2764 1633 
Q 3022 1394 3022 966 
Q 3022 478 2636 193 
Q 2250 -91 1575 -91 
Q 1294 -91 989 -36 
Q 684 19 347 128 
L 347 722 
Q 666 556 975 473 
Q 1284 391 1588 391 
Q 1994 391 2212 530 
Q 2431 669 2431 922 
Q 2431 1156 2273 1281 
Q 2116 1406 1581 1522 
L 1381 1569 
Q 847 1681 609 1914 
Q 372 2147 372 2553 
Q 372 3047 722 3315 
Q 1072 3584 1716 3584 
Q 2034 3584 2315 3537 
Q 2597 3491 2834 3397 
z
" transform="scale(0.015625)"/>
      <path id="DejaVuSans-63" d="M 3122 3366 
L 3122 2828 
Q 2878 2963 2633 3030 
Q 2388 3097 2138 3097 
Q 1578 3097 1268 2742 
Q 959 2388 959 1747 
Q 959 1106 1268 751 
Q 1578 397 2138 397 
Q 2388 397 2633 464 
Q 2878 531 3122 666 
L 3122 134 
Q 2881 22 2623 -34 
Q 2366 -91 2075 -91 
Q 1284 -91 818 406 
Q 353 903 353 1747 
Q 353 2603 823 3093 
Q 1294 3584 2113 3584 
Q 2378 3584 2631 3529 
Q 2884 3475 3122 3366 
z
" transform="scale(0.015625)"/>
      <path id="DejaVuSans-68" d="M 3513 2113 
L 3513 0 
L 2938 0 
L 2938 2094 
Q 2938 2591 2744 2837 
Q 2550 3084 2163 3084 
Q 1697 3084 1428 2787 
Q 1159 2491 1159 1978 
L 1159 0 
L 581 0 
L 581 4863 
L 1159 4863 
L 1159 2956 
Q 1366 3272 1645 3428 
Q 1925 3584 2291 3584 
Q 2894 3584 3203 3211 
Q 3513 2838 3513 2113 
z
" transform="scale(0.015625)"/>
      <path id="DejaVuSans-79" d="M 2059 -325 
Q 1816 -950 1584 -1140 
Q 1353 -1331 966 -1331 
L 506 -1331 
L 506 -850 
L 844 -850 
Q 1081 -850 1212 -737 
Q 1344 -625 1503 -206 
L 1606 56 
L 191 3500 
L 800 3500 
L 1894 763 
L 2988 3500 
L 3597 3500 
L 2059 -325 
z
" transform="scale(0.015625)"/>
      <path id="DejaVuSans-6e" d="M 3513 2113 
L 3513 0 
L 2938 0 
L 2938 2094 
Q 2938 2591 2744 2837 
Q 2550 3084 2163 3084 
Q 1697 3084 1428 2787 
Q 1159 2491 1159 1978 
L 1159 0 
L 581 0 
L 581 3500 
L 1159 3500 
L 1159 2956 
Q 1366 3272 1645 3428 
Q 1925 3584 2291 3584 
Q 2894 3584 3203 3211 
Q 3513 2838 3513 2113 
z
" transform="scale(0.015625)"/>
      <path id="DejaVuSans-75" d="M 544 1381 
L 544 3500 
L 1119 3500 
L 1119 1403 
Q 1119 906 1312 657 
Q 1506 409 1894 409 
Q 2359 409 2629 706 
Q 2900 1003 2900 1516 
L 2900 3500 
L 3475 3500 
L 3475 0 
L 2900 0 
L 2900 538 
Q 2691 219 2414 64 
Q 2138 -91 1772 -91 
Q 1169 -91 856 284 
Q 544 659 544 1381 
z
M 1991 3584 
L 1991 3584 
z
" transform="scale(0.015625)"/>
      <path id="DejaVuSans-6c" d="M 603 4863 
L 1178 4863 
L 1178 0 
L 603 0 
L 603 4863 
z
" transform="scale(0.015625)"/>
      <path id="DejaVuSans-20" transform="scale(0.015625)"/>
      <path id="DejaVuSans-66" d="M 2375 4863 
L 2375 4384 
L 1825 4384 
Q 1516 4384 1395 4259 
Q 1275 4134 1275 3809 
L 1275 3500 
L 2222 3500 
L 2222 3053 
L 1275 3053 
L 1275 0 
L 697 0 
L 697 3053 
L 147 3053 
L 147 3500 
L 697 3500 
L 697 3744 
Q 697 4328 969 4595 
Q 1241 4863 1831 4863 
L 2375 4863 
z
" transform="scale(0.015625)"/>
      <path id="DejaVuSans-70" d="M 1159 525 
L 1159 -1331 
L 581 -1331 
L 581 3500 
L 1159 3500 
L 1159 2969 
Q 1341 3281 1617 3432 
Q 1894 3584 2278 3584 
Q 2916 3584 3314 3078 
Q 3713 2572 3713 1747 
Q 3713 922 3314 415 
Q 2916 -91 2278 -91 
Q 1894 -91 1617 61 
Q 1341 213 1159 525 
z
M 3116 1747 
Q 3116 2381 2855 2742 
Q 2594 3103 2138 3103 
Q 1681 3103 1420 2742 
Q 1159 2381 1159 1747 
Q 1159 1113 1420 752 
Q 1681 391 2138 391 
Q 2594 391 2855 752 
Q 3116 1113 3116 1747 
z
" transform="scale(0.015625)"/>
      <path id="DejaVuSans-6f" d="M 1959 3097 
Q 1497 3097 1228 2736 
Q 959 2375 959 1747 
Q 959 1119 1226 758 
Q 1494 397 1959 397 
Q 2419 397 2687 759 
Q 2956 1122 2956 1747 
Q 2956 2369 2687 2733 
Q 2419 3097 1959 3097 
z
M 1959 3584 
Q 2709 3584 3137 3096 
Q 3566 2609 3566 1747 
Q 3566 888 3137 398 
Q 2709 -91 1959 -91 
Q 1206 -91 779 398 
Q 353 888 353 1747 
Q 353 2609 779 3096 
Q 1206 3584 1959 3584 
z
" transform="scale(0.015625)"/>
      <path id="DejaVuSans-7a" d="M 353 3500 
L 3084 3500 
L 3084 2975 
L 922 459 
L 3084 459 
L 3084 0 
L 275 0 
L 275 525 
L 2438 3041 
L 353 3041 
L 353 3500 
z
" transform="scale(0.015625)"/>
      <path id="DejaVuSans-2d" d="M 313 2009 
L 1997 2009 
L 1997 1497 
L 313 1497 
L 313 2009 
z
" transform="scale(0.015625)"/>
      <path id="DejaVuSans-72" d="M 2631 2963 
Q 2534 3019 2420 3045 
Q 2306 3072 2169 3072 
Q 1681 3072 1420 2755 
Q 1159 2438 1159 1844 
L 1159 0 
L 581 0 
L 581 3500 
L 1159 3500 
L 1159 2956 
Q 1341 3275 1631 3429 
Q 1922 3584 2338 3584 
Q 2397 3584 2469 3576 
Q 2541 3569 2628 3553 
L 2631 2963 
z
" transform="scale(0.015625)"/>
     </defs>
     <use xlink:href="#DejaVuSans-4b"/>
     <use xlink:href="#DejaVuSans-61" x="63.826172"/>
     <use xlink:href="#DejaVuSans-73" x="125.105469"/>
     <use xlink:href="#DejaVuSans-69" x="177.205078"/>
     <use xlink:href="#DejaVuSans-63" x="204.988281"/>
     <use xlink:href="#DejaVuSans-68" x="259.96875"/>
     <use xlink:href="#DejaVuSans-61" x="323.347656"/>
     <use xlink:href="#DejaVuSans-79" x="384.626953"/>
     <use xlink:href="#DejaVuSans-61" x="443.806641"/>
     <use xlink:href="#DejaVuSans-6e" x="505.085938"/>
     <use xlink:href="#DejaVuSans-75" x="568.464844"/>
     <use xlink:href="#DejaVuSans-6c" x="631.84375"/>
     <use xlink:href="#DejaVuSans-61" x="659.626953"/>
     <use xlink:href="#DejaVuSans-32" x="720.90625"/>
     <use xlink:href="#DejaVuSans-30" x="784.529297"/>
     <use xlink:href="#DejaVuSans-31" x="848.152344"/>
     <use xlink:href="#DejaVuSans-31" x="911.775391"/>
     <use xlink:href="#DejaVuSans-61" x="975.398438"/>
     <use xlink:href="#DejaVuSans-20" x="1036.677734"/>
     <use xlink:href="#DejaVuSans-66" x="1068.464844"/>
     <use xlink:href="#DejaVuSans-6d" x="1103.669922"/>
     <use xlink:href="#DejaVuSans-5f" x="1201.082031"/>
     <use xlink:href="#DejaVuSans-64" x="1251.082031"/>
     <use xlink:href="#DejaVuSans-61" x="1314.558594"/>
     <use xlink:href="#DejaVuSans-70" x="1375.837891"/>
     <use xlink:href="#DejaVuSans-32" x="1439.314453"/>
     <use xlink:href="#DejaVuSans-2e" x="1502.9375"/>
     <use xlink:href="#DejaVuSans-35" x="1534.724609"/>
     <use xlink:href="#DejaVuSans-5f" x="1598.347656"/>
     <use xlink:href="#DejaVuSans-64" x="1648.347656"/>
     <use xlink:href="#DejaVuSans-61" x="1711.824219"/>
     <use xlink:href="#DejaVuSans-70" x="1773.103516"/>
     <use xlink:href="#DejaVuSans-61" x="1836.580078"/>
     <use xlink:href="#DejaVuSans-67" x="1897.859375"/>
     <use xlink:href="#DejaVuSans-6c" x="1961.335938"/>
     <use xlink:href="#DejaVuSans-69" x="1989.119141"/>
     <use xlink:href="#DejaVuSans-66" x="2016.902344"/>
     <use xlink:href="#DejaVuSans-6c" x="2052.107422"/>
     <use xlink:href="#DejaVuSans-6f" x="2079.890625"/>
     <use xlink:href="#DejaVuSans-7a" x="2141.072266"/>
     <use xlink:href="#DejaVuSans-69" x="2193.5625"/>
     <use xlink:href="#DejaVuSans-6e" x="2221.345703"/>
     <use xlink:href="#DejaVuSans-20" x="2284.724609"/>
     <use xlink:href="#DejaVuSans-33" x="2316.511719"/>
     <use xlink:href="#DejaVuSans-2d" x="2380.134766"/>
     <use xlink:href="#DejaVuSans-6f" x="2418.09375"/>
     <use xlink:href="#DejaVuSans-2d" x="2481.150391"/>
     <use xlink:href="#DejaVuSans-67" x="2517.234375"/>
     <use xlink:href="#DejaVuSans-6c" x="2580.710938"/>
     <use xlink:href="#DejaVuSans-75" x="2608.494141"/>
     <use xlink:href="#DejaVuSans-63" x="2671.873047"/>
     <use xlink:href="#DejaVuSans-75" x="2726.853516"/>
     <use xlink:href="#DejaVuSans-72" x="2790.232422"/>
     <use xlink:href="#DejaVuSans-6f" x="2829.095703"/>
     <use xlink:href="#DejaVuSans-6e" x="2890.277344"/>
     <use xlink:href="#DejaVuSans-69" x="2953.65625"/>
     <use xlink:href="#DejaVuSans-64" x="2981.439453"/>
     <use xlink:href="#DejaVuSans-65" x="3044.916016"/>
    </g>
   </g>
   <g id="legend_1">
    <g id="patch_7">
     <path d="M 200.586364 80.834375 
L 336.636364 80.834375 
Q 338.636364 80.834375 338.636364 78.834375 
L 338.636364 50.2 
Q 338.636364 48.2 336.636364 48.2 
L 200.586364 48.2 
Q 198.586364 48.2 198.586364 50.2 
L 198.586364 78.834375 
Q 198.586364 80.834375 200.586364 80.834375 
z
" style="fill: #ffffff; opacity: 0.8; stroke: #cccccc; stroke-linejoin: miter"/>
    </g>
    <g id="line2d_17">
     <path d="M 202.586364 56.298437 
L 212.586364 56.298437 
L 222.586364 56.298437 
" style="fill: none; stroke: #0000ff; stroke-width: 1.5; stroke-linecap: square"/>
    </g>
    <g id="text_18">
     <!-- observable -->
     <g transform="translate(230.586364 59.798437) scale(0.1 -0.1)">
      <defs>
       <path id="DejaVuSans-62" d="M 3116 1747 
Q 3116 2381 2855 2742 
Q 2594 3103 2138 3103 
Q 1681 3103 1420 2742 
Q 1159 2381 1159 1747 
Q 1159 1113 1420 752 
Q 1681 391 2138 391 
Q 2594 391 2855 752 
Q 3116 1113 3116 1747 
z
M 1159 2969 
Q 1341 3281 1617 3432 
Q 1894 3584 2278 3584 
Q 2916 3584 3314 3078 
Q 3713 2572 3713 1747 
Q 3713 922 3314 415 
Q 2916 -91 2278 -91 
Q 1894 -91 1617 61 
Q 1341 213 1159 525 
L 1159 0 
L 581 0 
L 581 4863 
L 1159 4863 
L 1159 2969 
z
" transform="scale(0.015625)"/>
      </defs>
      <use xlink:href="#DejaVuSans-6f"/>
      <use xlink:href="#DejaVuSans-62" x="61.181641"/>
      <use xlink:href="#DejaVuSans-73" x="124.658203"/>
      <use xlink:href="#DejaVuSans-65" x="176.757812"/>
      <use xlink:href="#DejaVuSans-72" x="238.28125"/>
      <use xlink:href="#DejaVuSans-76" x="279.394531"/>
      <use xlink:href="#DejaVuSans-61" x="338.574219"/>
      <use xlink:href="#DejaVuSans-62" x="399.853516"/>
      <use xlink:href="#DejaVuSans-6c" x="463.330078"/>
      <use xlink:href="#DejaVuSans-65" x="491.113281"/>
     </g>
    </g>
    <g id="LineCollection_2">
     <path d="M 212.586364 75.976562 
L 212.586364 65.976562 
" style="fill: none; stroke: #000000; stroke-width: 1.5"/>
    </g>
    <g id="line2d_18">
     <path d="M 202.586364 70.976562 
L 222.586364 70.976562 
" style="fill: none; stroke: #000000; stroke-width: 1.5; stroke-linecap: square"/>
    </g>
    <g id="line2d_19">
     <g>
      <use xlink:href="#m19d250843d" x="212.586364" y="70.976562" style="stroke: #000000; stroke-linejoin: miter"/>
     </g>
    </g>
    <g id="text_19">
     <!-- reference_data ± SD -->
     <g transform="translate(230.586364 74.476562) scale(0.1 -0.1)">
      <defs>
       <path id="DejaVuSans-b1" d="M 2944 4013 
L 2944 2803 
L 4684 2803 
L 4684 2272 
L 2944 2272 
L 2944 1063 
L 2419 1063 
L 2419 2272 
L 678 2272 
L 678 2803 
L 2419 2803 
L 2419 4013 
L 2944 4013 
z
M 678 531 
L 4684 531 
L 4684 0 
L 678 0 
L 678 531 
z
" transform="scale(0.015625)"/>
       <path id="DejaVuSans-53" d="M 3425 4513 
L 3425 3897 
Q 3066 4069 2747 4153 
Q 2428 4238 2131 4238 
Q 1616 4238 1336 4038 
Q 1056 3838 1056 3469 
Q 1056 3159 1242 3001 
Q 1428 2844 1947 2747 
L 2328 2669 
Q 3034 2534 3370 2195 
Q 3706 1856 3706 1288 
Q 3706 609 3251 259 
Q 2797 -91 1919 -91 
Q 1588 -91 1214 -16 
Q 841 59 441 206 
L 441 856 
Q 825 641 1194 531 
Q 1563 422 1919 422 
Q 2459 422 2753 634 
Q 3047 847 3047 1241 
Q 3047 1584 2836 1778 
Q 2625 1972 2144 2069 
L 1759 2144 
Q 1053 2284 737 2584 
Q 422 2884 422 3419 
Q 422 4038 858 4394 
Q 1294 4750 2059 4750 
Q 2388 4750 2728 4690 
Q 3069 4631 3425 4513 
z
" transform="scale(0.015625)"/>
       <path id="DejaVuSans-44" d="M 1259 4147 
L 1259 519 
L 2022 519 
Q 2988 519 3436 956 
Q 3884 1394 3884 2338 
Q 3884 3275 3436 3711 
Q 2988 4147 2022 4147 
L 1259 4147 
z
M 628 4666 
L 1925 4666 
Q 3281 4666 3915 4102 
Q 4550 3538 4550 2338 
Q 4550 1131 3912 565 
Q 3275 0 1925 0 
L 628 0 
L 628 4666 
z
" transform="scale(0.015625)"/>
      </defs>
      <use xlink:href="#DejaVuSans-72"/>
      <use xlink:href="#DejaVuSans-65" x="38.863281"/>
      <use xlink:href="#DejaVuSans-66" x="100.386719"/>
      <use xlink:href="#DejaVuSans-65" x="135.591797"/>
      <use xlink:href="#DejaVuSans-72" x="197.115234"/>
      <use xlink:href="#DejaVuSans-65" x="235.978516"/>
      <use xlink:href="#DejaVuSans-6e" x="297.501953"/>
      <use xlink:href="#DejaVuSans-63" x="360.880859"/>
      <use xlink:href="#DejaVuSans-65" x="415.861328"/>
      <use xlink:href="#DejaVuSans-5f" x="477.384766"/>
      <use xlink:href="#DejaVuSans-64" x="527.384766"/>
      <use xlink:href="#DejaVuSans-61" x="590.861328"/>
      <use xlink:href="#DejaVuSans-74" x="652.140625"/>
      <use xlink:href="#DejaVuSans-61" x="691.349609"/>
      <use xlink:href="#DejaVuSans-20" x="752.628906"/>
      <use xlink:href="#DejaVuSans-b1" x="784.416016"/>
      <use xlink:href="#DejaVuSans-20" x="868.205078"/>
      <use xlink:href="#DejaVuSans-53" x="899.992188"/>
      <use xlink:href="#DejaVuSans-44" x="963.46875"/>
     </g>
    </g>
   </g>
  </g>
  <g id="axes_2">
   <g id="patch_8">
    <path d="M 394.363636 320.4 
L 648 320.4 
L 648 43.2 
L 394.363636 43.2 
z
" style="fill: #ffffff"/>
   </g>
   <g id="matplotlib.axis_3">
    <g id="xtick_6">
     <g id="line2d_20">
      <g>
       <use xlink:href="#m00e3d9709b" x="415.370047" y="320.4" style="stroke: #000000; stroke-width: 0.8"/>
      </g>
     </g>
     <g id="text_20">
      <!-- 0 -->
      <g transform="translate(412.188797 334.998438) scale(0.1 -0.1)">
       <use xlink:href="#DejaVuSans-30"/>
      </g>
     </g>
    </g>
    <g id="xtick_7">
     <g id="line2d_21">
      <g>
       <use xlink:href="#m00e3d9709b" x="467.823814" y="320.4" style="stroke: #000000; stroke-width: 0.8"/>
      </g>
     </g>
     <g id="text_21">
      <!-- 5000 -->
      <g transform="translate(455.098814 334.998438) scale(0.1 -0.1)">
       <use xlink:href="#DejaVuSans-35"/>
       <use xlink:href="#DejaVuSans-30" x="63.623047"/>
       <use xlink:href="#DejaVuSans-30" x="127.246094"/>
       <use xlink:href="#DejaVuSans-30" x="190.869141"/>
      </g>
     </g>
    </g>
    <g id="xtick_8">
     <g id="line2d_22">
      <g>
       <use xlink:href="#m00e3d9709b" x="520.277581" y="320.4" style="stroke: #000000; stroke-width: 0.8"/>
      </g>
     </g>
     <g id="text_22">
      <!-- 10000 -->
      <g transform="translate(504.371331 334.998438) scale(0.1 -0.1)">
       <use xlink:href="#DejaVuSans-31"/>
       <use xlink:href="#DejaVuSans-30" x="63.623047"/>
       <use xlink:href="#DejaVuSans-30" x="127.246094"/>
       <use xlink:href="#DejaVuSans-30" x="190.869141"/>
       <use xlink:href="#DejaVuSans-30" x="254.492188"/>
      </g>
     </g>
    </g>
    <g id="xtick_9">
     <g id="line2d_23">
      <g>
       <use xlink:href="#m00e3d9709b" x="572.731349" y="320.4" style="stroke: #000000; stroke-width: 0.8"/>
      </g>
     </g>
     <g id="text_23">
      <!-- 15000 -->
      <g transform="translate(556.825099 334.998438) scale(0.1 -0.1)">
       <use xlink:href="#DejaVuSans-31"/>
       <use xlink:href="#DejaVuSans-35" x="63.623047"/>
       <use xlink:href="#DejaVuSans-30" x="127.246094"/>
       <use xlink:href="#DejaVuSans-30" x="190.869141"/>
       <use xlink:href="#DejaVuSans-30" x="254.492188"/>
      </g>
     </g>
    </g>
    <g id="xtick_10">
     <g id="line2d_24">
      <g>
       <use xlink:href="#m00e3d9709b" x="625.185116" y="320.4" style="stroke: #000000; stroke-width: 0.8"/>
      </g>
     </g>
     <g id="text_24">
      <!-- 20000 -->
      <g transform="translate(609.278866 334.998438) scale(0.1 -0.1)">
       <use xlink:href="#DejaVuSans-32"/>
       <use xlink:href="#DejaVuSans-30" x="63.623047"/>
       <use xlink:href="#DejaVuSans-30" x="127.246094"/>
       <use xlink:href="#DejaVuSans-30" x="190.869141"/>
       <use xlink:href="#DejaVuSans-30" x="254.492188"/>
      </g>
     </g>
    </g>
    <g id="text_25">
     <!-- time -->
     <g transform="translate(507.626506 350.19625) scale(0.12 -0.12)">
      <use xlink:href="#DejaVuSans-74"/>
      <use xlink:href="#DejaVuSans-69" x="39.208984"/>
      <use xlink:href="#DejaVuSans-6d" x="66.992188"/>
      <use xlink:href="#DejaVuSans-65" x="164.404297"/>
     </g>
    </g>
   </g>
   <g id="matplotlib.axis_4">
    <g id="ytick_10">
     <g id="line2d_25">
      <g>
       <use xlink:href="#m03726ef537" x="394.363636" y="272.411964" style="stroke: #000000; stroke-width: 0.8"/>
      </g>
     </g>
     <g id="text_26">
      <!-- $\mathdefault{10^{-5}}$ -->
      <g transform="translate(363.863636 276.211183) scale(0.1 -0.1)">
       <defs>
        <path id="DejaVuSans-2212" d="M 678 2272 
L 4684 2272 
L 4684 1741 
L 678 1741 
L 678 2272 
z
" transform="scale(0.015625)"/>
       </defs>
       <use xlink:href="#DejaVuSans-31" transform="translate(0 0.684375)"/>
       <use xlink:href="#DejaVuSans-30" transform="translate(63.623047 0.684375)"/>
       <use xlink:href="#DejaVuSans-2212" transform="translate(128.203125 38.965625) scale(0.7)"/>
       <use xlink:href="#DejaVuSans-35" transform="translate(186.855469 38.965625) scale(0.7)"/>
      </g>
     </g>
    </g>
    <g id="ytick_11">
     <g id="line2d_26">
      <g>
       <use xlink:href="#m03726ef537" x="394.363636" y="220.819206" style="stroke: #000000; stroke-width: 0.8"/>
      </g>
     </g>
     <g id="text_27">
      <!-- $\mathdefault{10^{-4}}$ -->
      <g transform="translate(363.863636 224.618425) scale(0.1 -0.1)">
       <defs>
        <path id="DejaVuSans-34" d="M 2419 4116 
L 825 1625 
L 2419 1625 
L 2419 4116 
z
M 2253 4666 
L 3047 4666 
L 3047 1625 
L 3713 1625 
L 3713 1100 
L 3047 1100 
L 3047 0 
L 2419 0 
L 2419 1100 
L 313 1100 
L 313 1709 
L 2253 4666 
z
" transform="scale(0.015625)"/>
       </defs>
       <use xlink:href="#DejaVuSans-31" transform="translate(0 0.684375)"/>
       <use xlink:href="#DejaVuSans-30" transform="translate(63.623047 0.684375)"/>
       <use xlink:href="#DejaVuSans-2212" transform="translate(128.203125 38.965625) scale(0.7)"/>
       <use xlink:href="#DejaVuSans-34" transform="translate(186.855469 38.965625) scale(0.7)"/>
      </g>
     </g>
    </g>
    <g id="ytick_12">
     <g id="line2d_27">
      <g>
       <use xlink:href="#m03726ef537" x="394.363636" y="169.226448" style="stroke: #000000; stroke-width: 0.8"/>
      </g>
     </g>
     <g id="text_28">
      <!-- $\mathdefault{10^{-3}}$ -->
      <g transform="translate(363.863636 173.025667) scale(0.1 -0.1)">
       <use xlink:href="#DejaVuSans-31" transform="translate(0 0.765625)"/>
       <use xlink:href="#DejaVuSans-30" transform="translate(63.623047 0.765625)"/>
       <use xlink:href="#DejaVuSans-2212" transform="translate(128.203125 39.046875) scale(0.7)"/>
       <use xlink:href="#DejaVuSans-33" transform="translate(186.855469 39.046875) scale(0.7)"/>
      </g>
     </g>
    </g>
    <g id="ytick_13">
     <g id="line2d_28">
      <g>
       <use xlink:href="#m03726ef537" x="394.363636" y="117.63369" style="stroke: #000000; stroke-width: 0.8"/>
      </g>
     </g>
     <g id="text_29">
      <!-- $\mathdefault{10^{-2}}$ -->
      <g transform="translate(363.863636 121.432909) scale(0.1 -0.1)">
       <use xlink:href="#DejaVuSans-31" transform="translate(0 0.765625)"/>
       <use xlink:href="#DejaVuSans-30" transform="translate(63.623047 0.765625)"/>
       <use xlink:href="#DejaVuSans-2212" transform="translate(128.203125 39.046875) scale(0.7)"/>
       <use xlink:href="#DejaVuSans-32" transform="translate(186.855469 39.046875) scale(0.7)"/>
      </g>
     </g>
    </g>
    <g id="ytick_14">
     <g id="line2d_29">
      <g>
       <use xlink:href="#m03726ef537" x="394.363636" y="66.040932" style="stroke: #000000; stroke-width: 0.8"/>
      </g>
     </g>
     <g id="text_30">
      <!-- $\mathdefault{10^{-1}}$ -->
      <g transform="translate(363.863636 69.840151) scale(0.1 -0.1)">
       <use xlink:href="#DejaVuSans-31" transform="translate(0 0.684375)"/>
       <use xlink:href="#DejaVuSans-30" transform="translate(63.623047 0.684375)"/>
       <use xlink:href="#DejaVuSans-2212" transform="translate(128.203125 38.965625) scale(0.7)"/>
       <use xlink:href="#DejaVuSans-31" transform="translate(186.855469 38.965625) scale(0.7)"/>
      </g>
     </g>
    </g>
    <g id="ytick_15">
     <g id="line2d_30">
      <defs>
       <path id="mb0b80a86a9" d="M 0 0 
L -2 0 
" style="stroke: #000000; stroke-width: 0.6"/>
      </defs>
      <g>
       <use xlink:href="#mb0b80a86a9" x="394.363636" y="308.473755" style="stroke: #000000; stroke-width: 0.6"/>
      </g>
     </g>
    </g>
    <g id="ytick_16">
     <g id="line2d_31">
      <g>
       <use xlink:href="#mb0b80a86a9" x="394.363636" y="299.388721" style="stroke: #000000; stroke-width: 0.6"/>
      </g>
     </g>
    </g>
    <g id="ytick_17">
     <g id="line2d_32">
      <g>
       <use xlink:href="#mb0b80a86a9" x="394.363636" y="292.942787" style="stroke: #000000; stroke-width: 0.6"/>
      </g>
     </g>
    </g>
    <g id="ytick_18">
     <g id="line2d_33">
      <g>
       <use xlink:href="#mb0b80a86a9" x="394.363636" y="287.942932" style="stroke: #000000; stroke-width: 0.6"/>
      </g>
     </g>
    </g>
    <g id="ytick_19">
     <g id="line2d_34">
      <g>
       <use xlink:href="#mb0b80a86a9" x="394.363636" y="283.857753" style="stroke: #000000; stroke-width: 0.6"/>
      </g>
     </g>
    </g>
    <g id="ytick_20">
     <g id="line2d_35">
      <g>
       <use xlink:href="#mb0b80a86a9" x="394.363636" y="280.403784" style="stroke: #000000; stroke-width: 0.6"/>
      </g>
     </g>
    </g>
    <g id="ytick_21">
     <g id="line2d_36">
      <g>
       <use xlink:href="#mb0b80a86a9" x="394.363636" y="277.411819" style="stroke: #000000; stroke-width: 0.6"/>
      </g>
     </g>
    </g>
    <g id="ytick_22">
     <g id="line2d_37">
      <g>
       <use xlink:href="#mb0b80a86a9" x="394.363636" y="274.77272" style="stroke: #000000; stroke-width: 0.6"/>
      </g>
     </g>
    </g>
    <g id="ytick_23">
     <g id="line2d_38">
      <g>
       <use xlink:href="#mb0b80a86a9" x="394.363636" y="256.880997" style="stroke: #000000; stroke-width: 0.6"/>
      </g>
     </g>
    </g>
    <g id="ytick_24">
     <g id="line2d_39">
      <g>
       <use xlink:href="#mb0b80a86a9" x="394.363636" y="247.795963" style="stroke: #000000; stroke-width: 0.6"/>
      </g>
     </g>
    </g>
    <g id="ytick_25">
     <g id="line2d_40">
      <g>
       <use xlink:href="#mb0b80a86a9" x="394.363636" y="241.350029" style="stroke: #000000; stroke-width: 0.6"/>
      </g>
     </g>
    </g>
    <g id="ytick_26">
     <g id="line2d_41">
      <g>
       <use xlink:href="#mb0b80a86a9" x="394.363636" y="236.350174" style="stroke: #000000; stroke-width: 0.6"/>
      </g>
     </g>
    </g>
    <g id="ytick_27">
     <g id="line2d_42">
      <g>
       <use xlink:href="#mb0b80a86a9" x="394.363636" y="232.264995" style="stroke: #000000; stroke-width: 0.6"/>
      </g>
     </g>
    </g>
    <g id="ytick_28">
     <g id="line2d_43">
      <g>
       <use xlink:href="#mb0b80a86a9" x="394.363636" y="228.811026" style="stroke: #000000; stroke-width: 0.6"/>
      </g>
     </g>
    </g>
    <g id="ytick_29">
     <g id="line2d_44">
      <g>
       <use xlink:href="#mb0b80a86a9" x="394.363636" y="225.819061" style="stroke: #000000; stroke-width: 0.6"/>
      </g>
     </g>
    </g>
    <g id="ytick_30">
     <g id="line2d_45">
      <g>
       <use xlink:href="#mb0b80a86a9" x="394.363636" y="223.179961" style="stroke: #000000; stroke-width: 0.6"/>
      </g>
     </g>
    </g>
    <g id="ytick_31">
     <g id="line2d_46">
      <g>
       <use xlink:href="#mb0b80a86a9" x="394.363636" y="205.288239" style="stroke: #000000; stroke-width: 0.6"/>
      </g>
     </g>
    </g>
    <g id="ytick_32">
     <g id="line2d_47">
      <g>
       <use xlink:href="#mb0b80a86a9" x="394.363636" y="196.203205" style="stroke: #000000; stroke-width: 0.6"/>
      </g>
     </g>
    </g>
    <g id="ytick_33">
     <g id="line2d_48">
      <g>
       <use xlink:href="#mb0b80a86a9" x="394.363636" y="189.757271" style="stroke: #000000; stroke-width: 0.6"/>
      </g>
     </g>
    </g>
    <g id="ytick_34">
     <g id="line2d_49">
      <g>
       <use xlink:href="#mb0b80a86a9" x="394.363636" y="184.757416" style="stroke: #000000; stroke-width: 0.6"/>
      </g>
     </g>
    </g>
    <g id="ytick_35">
     <g id="line2d_50">
      <g>
       <use xlink:href="#mb0b80a86a9" x="394.363636" y="180.672237" style="stroke: #000000; stroke-width: 0.6"/>
      </g>
     </g>
    </g>
    <g id="ytick_36">
     <g id="line2d_51">
      <g>
       <use xlink:href="#mb0b80a86a9" x="394.363636" y="177.218268" style="stroke: #000000; stroke-width: 0.6"/>
      </g>
     </g>
    </g>
    <g id="ytick_37">
     <g id="line2d_52">
      <g>
       <use xlink:href="#mb0b80a86a9" x="394.363636" y="174.226303" style="stroke: #000000; stroke-width: 0.6"/>
      </g>
     </g>
    </g>
    <g id="ytick_38">
     <g id="line2d_53">
      <g>
       <use xlink:href="#mb0b80a86a9" x="394.363636" y="171.587203" style="stroke: #000000; stroke-width: 0.6"/>
      </g>
     </g>
    </g>
    <g id="ytick_39">
     <g id="line2d_54">
      <g>
       <use xlink:href="#mb0b80a86a9" x="394.363636" y="153.69548" style="stroke: #000000; stroke-width: 0.6"/>
      </g>
     </g>
    </g>
    <g id="ytick_40">
     <g id="line2d_55">
      <g>
       <use xlink:href="#mb0b80a86a9" x="394.363636" y="144.610447" style="stroke: #000000; stroke-width: 0.6"/>
      </g>
     </g>
    </g>
    <g id="ytick_41">
     <g id="line2d_56">
      <g>
       <use xlink:href="#mb0b80a86a9" x="394.363636" y="138.164513" style="stroke: #000000; stroke-width: 0.6"/>
      </g>
     </g>
    </g>
    <g id="ytick_42">
     <g id="line2d_57">
      <g>
       <use xlink:href="#mb0b80a86a9" x="394.363636" y="133.164658" style="stroke: #000000; stroke-width: 0.6"/>
      </g>
     </g>
    </g>
    <g id="ytick_43">
     <g id="line2d_58">
      <g>
       <use xlink:href="#mb0b80a86a9" x="394.363636" y="129.079479" style="stroke: #000000; stroke-width: 0.6"/>
      </g>
     </g>
    </g>
    <g id="ytick_44">
     <g id="line2d_59">
      <g>
       <use xlink:href="#mb0b80a86a9" x="394.363636" y="125.625509" style="stroke: #000000; stroke-width: 0.6"/>
      </g>
     </g>
    </g>
    <g id="ytick_45">
     <g id="line2d_60">
      <g>
       <use xlink:href="#mb0b80a86a9" x="394.363636" y="122.633545" style="stroke: #000000; stroke-width: 0.6"/>
      </g>
     </g>
    </g>
    <g id="ytick_46">
     <g id="line2d_61">
      <g>
       <use xlink:href="#mb0b80a86a9" x="394.363636" y="119.994445" style="stroke: #000000; stroke-width: 0.6"/>
      </g>
     </g>
    </g>
    <g id="ytick_47">
     <g id="line2d_62">
      <g>
       <use xlink:href="#mb0b80a86a9" x="394.363636" y="102.102722" style="stroke: #000000; stroke-width: 0.6"/>
      </g>
     </g>
    </g>
    <g id="ytick_48">
     <g id="line2d_63">
      <g>
       <use xlink:href="#mb0b80a86a9" x="394.363636" y="93.017689" style="stroke: #000000; stroke-width: 0.6"/>
      </g>
     </g>
    </g>
    <g id="ytick_49">
     <g id="line2d_64">
      <g>
       <use xlink:href="#mb0b80a86a9" x="394.363636" y="86.571755" style="stroke: #000000; stroke-width: 0.6"/>
      </g>
     </g>
    </g>
    <g id="ytick_50">
     <g id="line2d_65">
      <g>
       <use xlink:href="#mb0b80a86a9" x="394.363636" y="81.5719" style="stroke: #000000; stroke-width: 0.6"/>
      </g>
     </g>
    </g>
    <g id="ytick_51">
     <g id="line2d_66">
      <g>
       <use xlink:href="#mb0b80a86a9" x="394.363636" y="77.486721" style="stroke: #000000; stroke-width: 0.6"/>
      </g>
     </g>
    </g>
    <g id="ytick_52">
     <g id="line2d_67">
      <g>
       <use xlink:href="#mb0b80a86a9" x="394.363636" y="74.032751" style="stroke: #000000; stroke-width: 0.6"/>
      </g>
     </g>
    </g>
    <g id="ytick_53">
     <g id="line2d_68">
      <g>
       <use xlink:href="#mb0b80a86a9" x="394.363636" y="71.040787" style="stroke: #000000; stroke-width: 0.6"/>
      </g>
     </g>
    </g>
    <g id="ytick_54">
     <g id="line2d_69">
      <g>
       <use xlink:href="#mb0b80a86a9" x="394.363636" y="68.401687" style="stroke: #000000; stroke-width: 0.6"/>
      </g>
     </g>
    </g>
    <g id="ytick_55">
     <g id="line2d_70">
      <g>
       <use xlink:href="#mb0b80a86a9" x="394.363636" y="50.509964" style="stroke: #000000; stroke-width: 0.6"/>
      </g>
     </g>
    </g>
    <g id="text_31">
     <!-- [Cve_d3g] -->
     <g transform="translate(357.034261 212.350312) rotate(-90) scale(0.12 -0.12)">
      <use xlink:href="#DejaVuSans-5b"/>
      <use xlink:href="#DejaVuSans-43" x="39.013672"/>
      <use xlink:href="#DejaVuSans-76" x="108.837891"/>
      <use xlink:href="#DejaVuSans-65" x="168.017578"/>
      <use xlink:href="#DejaVuSans-5f" x="229.541016"/>
      <use xlink:href="#DejaVuSans-64" x="279.541016"/>
      <use xlink:href="#DejaVuSans-33" x="343.017578"/>
      <use xlink:href="#DejaVuSans-67" x="406.640625"/>
      <use xlink:href="#DejaVuSans-5d" x="470.117188"/>
     </g>
    </g>
   </g>
   <g id="LineCollection_3">
    <path d="M 415.5 318.772884 
L 415.5 281.833566 
" clip-path="url(#peebd184a09)" style="fill: none; stroke: #000000; stroke-width: 1.5"/>
    <path d="M 415.68477 248.519506 
L 415.68477 226.252962 
" clip-path="url(#peebd184a09)" style="fill: none; stroke: #000000; stroke-width: 1.5"/>
    <path d="M 415.999492 214.28504 
L 415.999492 204.818289 
" clip-path="url(#peebd184a09)" style="fill: none; stroke: #000000; stroke-width: 1.5"/>
    <path d="M 416.314215 215.84735 
L 416.314215 206.064491 
" clip-path="url(#peebd184a09)" style="fill: none; stroke: #000000; stroke-width: 1.5"/>
    <path d="M 416.628937 220.652518 
L 416.628937 210.550818 
" clip-path="url(#peebd184a09)" style="fill: none; stroke: #000000; stroke-width: 1.5"/>
    <path d="M 417.887828 241.504237 
L 417.887828 228.745365 
" clip-path="url(#peebd184a09)" style="fill: none; stroke: #000000; stroke-width: 1.5"/>
    <path d="M 419.146718 253.6999 
L 419.146718 242.952067 
" clip-path="url(#peebd184a09)" style="fill: none; stroke: #000000; stroke-width: 1.5"/>
    <path d="M 420.405609 259.5918 
L 420.405609 248.186115 
" clip-path="url(#peebd184a09)" style="fill: none; stroke: #000000; stroke-width: 1.5"/>
    <path d="M 421.664499 267.988393 
L 421.664499 255.912567 
" clip-path="url(#peebd184a09)" style="fill: none; stroke: #000000; stroke-width: 1.5"/>
    <path d="M 422.923389 281.884007 
L 422.923389 259.152691 
" clip-path="url(#peebd184a09)" style="fill: none; stroke: #000000; stroke-width: 1.5"/>
    <path d="M 426.700061 291.654809 
L 426.700061 277.84572 
" clip-path="url(#peebd184a09)" style="fill: none; stroke: #000000; stroke-width: 1.5"/>
    <path d="M 430.476732 287.425537 
L 430.476732 276.350278 
" clip-path="url(#peebd184a09)" style="fill: none; stroke: #000000; stroke-width: 1.5"/>
    <path d="M 611.756951 285.104188 
L 611.756951 274.356355 
" clip-path="url(#peebd184a09)" style="fill: none; stroke: #000000; stroke-width: 1.5"/>
    <path d="M 611.898718 276.469354 
L 611.898718 267.626864 
" clip-path="url(#peebd184a09)" style="fill: none; stroke: #000000; stroke-width: 1.5"/>
    <path d="M 612.071674 242.378825 
L 612.071674 224.009798 
" clip-path="url(#peebd184a09)" style="fill: none; stroke: #000000; stroke-width: 1.5"/>
    <path d="M 612.386397 215.34887 
L 612.386397 205.56601 
" clip-path="url(#peebd184a09)" style="fill: none; stroke: #000000; stroke-width: 1.5"/>
    <path d="M 612.701119 217.388991 
L 612.701119 206.313731 
" clip-path="url(#peebd184a09)" style="fill: none; stroke: #000000; stroke-width: 1.5"/>
    <path d="M 613.015842 222.872279 
L 613.015842 211.79702 
" clip-path="url(#peebd184a09)" style="fill: none; stroke: #000000; stroke-width: 1.5"/>
    <path d="M 614.274732 239.493199 
L 614.274732 228.745365 
" clip-path="url(#peebd184a09)" style="fill: none; stroke: #000000; stroke-width: 1.5"/>
    <path d="M 615.533623 248.045558 
L 615.533623 236.970298 
" clip-path="url(#peebd184a09)" style="fill: none; stroke: #000000; stroke-width: 1.5"/>
    <path d="M 616.792513 249.961295 
L 616.792513 239.213461 
" clip-path="url(#peebd184a09)" style="fill: none; stroke: #000000; stroke-width: 1.5"/>
    <path d="M 618.051403 263.361133 
L 618.051403 246.192192 
" clip-path="url(#peebd184a09)" style="fill: none; stroke: #000000; stroke-width: 1.5"/>
    <path d="M 619.310294 271.336825 
L 619.310294 254.167884 
" clip-path="url(#peebd184a09)" style="fill: none; stroke: #000000; stroke-width: 1.5"/>
    <path d="M 623.086965 282.893012 
L 623.086965 273.110153 
" clip-path="url(#peebd184a09)" style="fill: none; stroke: #000000; stroke-width: 1.5"/>
    <path d="M 626.863636 283.198844 
L 626.863636 274.356355 
" clip-path="url(#peebd184a09)" style="fill: none; stroke: #000000; stroke-width: 1.5"/>
   </g>
   <g id="line2d_71">
    <path d="M 415.428645 361 
L 415.606559 272.538033 
L 415.844946 243.707587 
L 416.111267 232.670134 
L 416.36428 229.210696 
L 416.532955 228.746011 
L 416.659462 228.996735 
L 416.870306 230.197226 
L 417.259853 234.015921 
L 418.038945 244.464179 
L 420.960543 285.541288 
L 421.935308 295.866358 
L 422.81583 302.902101 
L 423.598517 307.369787 
L 424.283368 310.110353 
L 424.9084 311.869987 
L 425.533431 313.104447 
L 426.25687 314.071621 
L 427.020868 314.736609 
L 428.001411 315.267369 
L 429.512063 315.725512 
L 430.493124 315.969531 
L 430.503731 315.828024 
L 430.54128 312.172543 
L 431.046692 237.709601 
L 431.328311 230.140511 
L 431.577002 228.345921 
L 431.648057 228.300299 
L 431.683584 228.334939 
L 431.825694 228.791374 
L 432.078399 230.535899 
L 432.567047 235.840511 
L 433.678559 251.105476 
L 435.266521 272.047913 
L 436.269445 282.41979 
L 437.105214 288.854127 
L 437.857407 292.996297 
L 438.526022 295.581689 
L 439.194638 297.375278 
L 439.863254 298.595255 
L 440.615446 299.501113 
L 441.451216 300.138724 
L 442.454139 300.606681 
L 443.874947 300.99306 
L 445.603606 301.267671 
L 445.607365 301.241653 
L 445.639802 299.967726 
L 445.732928 283.842084 
L 446.020435 244.607014 
L 446.290588 232.46192 
L 446.538285 228.604357 
L 446.735223 227.888573 
L 446.813998 227.96773 
L 446.971549 228.572881 
L 447.248462 230.648457 
L 447.785592 236.65578 
L 450.829327 273.800909 
L 451.664862 280.34364 
L 452.381035 284.390769 
L 453.097208 287.227242 
L 453.7537 289.009785 
L 454.469873 290.317489 
L 455.186046 291.174277 
L 456.021581 291.813386 
L 457.037033 292.286177 
L 458.470776 292.673005 
L 460.710564 293.01803 
L 460.73958 292.447726 
L 460.810838 284.634185 
L 461.172114 240.937848 
L 461.441335 230.996691 
L 461.684372 227.955608 
L 461.857971 227.518705 
L 461.962129 227.699605 
L 462.137936 228.538807 
L 462.510222 231.739252 
L 463.243961 240.570886 
L 465.068365 263.024752 
L 465.980567 271.473449 
L 466.726914 276.576609 
L 467.473261 280.201328 
L 468.13668 282.424306 
L 468.8001 283.949594 
L 469.463519 284.981444 
L 470.209866 285.747785 
L 471.03914 286.291092 
L 472.117197 286.722682 
L 473.692818 287.089034 
L 475.821887 287.378124 
L 475.824271 287.363056 
L 475.862422 286.218718 
L 475.963941 273.66438 
L 476.282331 240.121699 
L 476.554519 230.468899 
L 476.809022 227.513699 
L 476.984 227.191828 
L 477.127177 227.567922 
L 477.365806 229.042448 
L 477.798019 233.277352 
L 479.03782 248.650568 
L 480.204691 261.733589 
L 481.079845 269.159474 
L 481.809139 273.656192 
L 482.538434 276.816021 
L 483.194799 278.766003 
L 483.851164 280.099612 
L 484.580459 281.082991 
L 485.382683 281.773298 
L 486.330766 282.275958 
L 487.570567 282.665136 
L 489.612592 283.036671 
L 490.931725 283.180249 
L 490.938456 283.120064 
L 490.985924 281.202084 
L 491.152576 260.117413 
L 491.437402 237.124983 
L 491.701724 229.377609 
L 491.959038 227.024012 
L 492.069316 226.870092 
L 492.106075 226.899195 
L 492.253112 227.336869 
L 492.495066 228.885185 
L 493.000374 233.949505 
L 495.648413 263.275134 
L 496.417945 268.713151 
L 497.101973 272.193302 
L 497.786001 274.630616 
L 498.470029 276.284911 
L 499.154058 277.389011 
L 499.923589 278.196484 
L 500.778625 278.75949 
L 501.89017 279.199469 
L 503.514738 279.568658 
L 506.038491 279.898072 
L 506.076086 279.065081 
L 506.173994 269.741453 
L 506.51702 237.966804 
L 506.796145 229.266638 
L 507.047782 226.802265 
L 507.173706 226.586648 
L 507.21568 226.619827 
L 507.383579 227.159124 
L 507.677402 229.203225 
L 508.258071 235.295944 
L 510.322673 258.288117 
L 511.161418 264.790804 
L 511.871125 268.743843 
L 512.580832 271.503457 
L 513.290539 273.358602 
L 514.000246 274.579536 
L 514.709954 275.378715 
L 515.548698 275.98218 
L 516.580999 276.433329 
L 518.064932 276.809266 
L 520.74697 277.211752 
L 521.149738 277.200363 
L 521.152413 277.177805 
L 521.197136 275.819439 
L 521.331443 261.85654 
L 521.653353 236.156721 
L 521.919997 228.692578 
L 522.15586 226.534858 
L 522.290639 226.330902 
L 522.324333 226.362678 
L 522.443023 226.685784 
L 522.699526 228.224717 
L 523.161231 232.636256 
L 525.674574 259.271723 
L 526.48533 264.697556 
L 527.21501 268.099528 
L 527.863615 270.186184 
L 528.51222 271.621206 
L 529.2419 272.693378 
L 529.97158 273.387782 
L 530.863412 273.924152 
L 531.99847 274.333202 
L 533.701057 274.69021 
L 536.25445 275.003867 
L 536.294601 274.152633 
L 536.401811 264.893086 
L 536.764232 235.608405 
L 537.06588 227.867905 
L 537.277033 226.245383 
L 537.413787 226.105522 
L 537.550541 226.448331 
L 537.824049 228.104792 
L 538.302901 232.701386 
L 540.629164 257.095943 
L 541.381778 262.275093 
L 542.065973 265.65988 
L 542.750168 268.01806 
L 543.434363 269.611431 
L 544.118558 270.671408 
L 544.871172 271.431587 
L 545.760625 271.993427 
L 546.855337 272.408394 
L 548.497405 272.770232 
L 551.358866 273.145611 
L 551.399238 272.424765 
L 551.49766 264.845078 
L 551.885208 234.689103 
L 552.165551 227.724499 
L 552.414745 225.944709 
L 552.493395 225.872645 
L 552.540896 225.912032 
L 552.683399 226.335852 
L 552.968404 228.165475 
L 553.521067 233.623693 
L 555.479432 254.188669 
L 556.277284 259.990109 
L 557.002605 263.747724 
L 557.655393 266.107607 
L 558.308181 267.735606 
L 558.96097 268.84034 
L 559.68629 269.653507 
L 560.484142 270.22749 
L 561.499591 270.677273 
L 562.950232 271.051376 
L 565.561385 271.449235 
L 566.473377 271.491981 
L 566.476769 271.462536 
L 566.527848 269.926271 
L 566.678132 256.042734 
L 566.99639 234.215954 
L 567.277169 227.442305 
L 567.52675 225.733127 
L 567.605637 225.674071 
L 567.653326 225.720081 
L 567.796392 226.159381 
L 568.082525 228.004221 
L 568.638291 233.457643 
L 570.536346 253.088029 
L 571.33937 258.837826 
L 572.069391 262.541229 
L 572.72641 264.854779 
L 573.383429 266.443568 
L 574.040448 267.517645 
L 574.77047 268.306025 
L 575.646495 268.900969 
L 576.741527 269.344176 
L 578.274572 269.703306 
L 581.159616 270.115325 
L 581.58132 270.094242 
L 581.584685 270.064468 
L 581.637776 268.462788 
L 581.80652 253.215745 
L 582.118875 233.356626 
L 582.409411 226.934933 
L 582.635383 225.545413 
L 582.748607 225.520258 
L 582.894586 225.935303 
L 583.186545 227.77988 
L 583.731177 233.05106 
L 585.614505 252.24696 
L 586.443169 258.040248 
L 587.1965 261.708067 
L 587.874498 263.959818 
L 588.552496 265.481409 
L 589.230494 266.495228 
L 589.983825 267.230353 
L 590.887822 267.780376 
L 592.017819 268.190119 
L 593.75048 268.553461 
L 596.679238 268.92627 
L 596.717623 268.377013 
L 596.814543 262.143922 
L 597.216161 233.459637 
L 597.513387 226.785128 
L 597.737232 225.385152 
L 597.82825 225.325924 
L 597.873759 225.378283 
L 598.055795 226.017916 
L 598.374359 228.263544 
L 599.06158 235.236947 
L 600.487606 249.758323 
L 601.271921 255.664767 
L 601.984934 259.553871 
L 602.697947 262.251566 
L 603.339659 263.904309 
L 604.052672 265.133491 
L 604.765685 265.933963 
L 605.621301 266.542747 
L 606.69082 266.998432 
L 608.188148 267.366249 
L 610.968899 267.774708 
L 611.797557 267.785681 
L 611.84954 266.40651 
L 612.006062 253.387655 
L 612.327945 233.049872 
L 612.606633 226.776093 
L 612.859834 225.201695 
L 612.944234 225.176982 
L 612.986434 225.232922 
L 613.155235 225.821404 
L 613.472935 228.017989 
L 614.182426 235.15029 
L 615.601408 249.365047 
L 616.439897 255.456198 
L 617.149388 259.112024 
L 617.858879 261.633246 
L 618.503871 263.186543 
L 619.213362 264.327771 
L 619.922853 265.07273 
L 620.761342 265.635478 
L 621.857829 266.078626 
L 623.405809 266.439723 
L 626.345447 266.85707 
L 627.493082 266.993775 
L 627.493082 266.993775 
" clip-path="url(#peebd184a09)" style="fill: none; stroke: #0000ff; stroke-width: 1.5; stroke-linecap: square"/>
   </g>
   <g id="line2d_72">
    <path d="M 415.5 293.423243 
L 415.68477 234.727134 
L 415.999492 209.055376 
L 416.314215 210.426198 
L 416.628937 215.037145 
L 417.887828 234.228654 
L 419.146718 247.687634 
L 420.405609 253.170922 
L 421.664499 261.146615 
L 422.923389 267.751485 
L 426.700061 283.702869 
L 430.476732 281.210465 
L 611.756951 279.091922 
L 611.898718 271.61471 
L 612.071674 231.362389 
L 612.386397 209.927717 
L 612.701119 211.173919 
L 613.015842 216.657207 
L 614.274732 233.480933 
L 615.533623 241.830485 
L 616.792513 243.949028 
L 618.051403 253.170922 
L 619.310294 261.146615 
L 623.086965 277.471859 
L 626.863636 278.344201 
" clip-path="url(#peebd184a09)" style="fill: none; stroke: #000000; stroke-width: 1.5; stroke-linecap: square"/>
    <g clip-path="url(#peebd184a09)">
     <use xlink:href="#m19d250843d" x="415.5" y="293.423243" style="stroke: #000000; stroke-linejoin: miter"/>
     <use xlink:href="#m19d250843d" x="415.68477" y="234.727134" style="stroke: #000000; stroke-linejoin: miter"/>
     <use xlink:href="#m19d250843d" x="415.999492" y="209.055376" style="stroke: #000000; stroke-linejoin: miter"/>
     <use xlink:href="#m19d250843d" x="416.314215" y="210.426198" style="stroke: #000000; stroke-linejoin: miter"/>
     <use xlink:href="#m19d250843d" x="416.628937" y="215.037145" style="stroke: #000000; stroke-linejoin: miter"/>
     <use xlink:href="#m19d250843d" x="417.887828" y="234.228654" style="stroke: #000000; stroke-linejoin: miter"/>
     <use xlink:href="#m19d250843d" x="419.146718" y="247.687634" style="stroke: #000000; stroke-linejoin: miter"/>
     <use xlink:href="#m19d250843d" x="420.405609" y="253.170922" style="stroke: #000000; stroke-linejoin: miter"/>
     <use xlink:href="#m19d250843d" x="421.664499" y="261.146615" style="stroke: #000000; stroke-linejoin: miter"/>
     <use xlink:href="#m19d250843d" x="422.923389" y="267.751485" style="stroke: #000000; stroke-linejoin: miter"/>
     <use xlink:href="#m19d250843d" x="426.700061" y="283.702869" style="stroke: #000000; stroke-linejoin: miter"/>
     <use xlink:href="#m19d250843d" x="430.476732" y="281.210465" style="stroke: #000000; stroke-linejoin: miter"/>
     <use xlink:href="#m19d250843d" x="611.756951" y="279.091922" style="stroke: #000000; stroke-linejoin: miter"/>
     <use xlink:href="#m19d250843d" x="611.898718" y="271.61471" style="stroke: #000000; stroke-linejoin: miter"/>
     <use xlink:href="#m19d250843d" x="612.071674" y="231.362389" style="stroke: #000000; stroke-linejoin: miter"/>
     <use xlink:href="#m19d250843d" x="612.386397" y="209.927717" style="stroke: #000000; stroke-linejoin: miter"/>
     <use xlink:href="#m19d250843d" x="612.701119" y="211.173919" style="stroke: #000000; stroke-linejoin: miter"/>
     <use xlink:href="#m19d250843d" x="613.015842" y="216.657207" style="stroke: #000000; stroke-linejoin: miter"/>
     <use xlink:href="#m19d250843d" x="614.274732" y="233.480933" style="stroke: #000000; stroke-linejoin: miter"/>
     <use xlink:href="#m19d250843d" x="615.533623" y="241.830485" style="stroke: #000000; stroke-linejoin: miter"/>
     <use xlink:href="#m19d250843d" x="616.792513" y="243.949028" style="stroke: #000000; stroke-linejoin: miter"/>
     <use xlink:href="#m19d250843d" x="618.051403" y="253.170922" style="stroke: #000000; stroke-linejoin: miter"/>
     <use xlink:href="#m19d250843d" x="619.310294" y="261.146615" style="stroke: #000000; stroke-linejoin: miter"/>
     <use xlink:href="#m19d250843d" x="623.086965" y="277.471859" style="stroke: #000000; stroke-linejoin: miter"/>
     <use xlink:href="#m19d250843d" x="626.863636" y="278.344201" style="stroke: #000000; stroke-linejoin: miter"/>
    </g>
   </g>
   <g id="patch_9">
    <path d="M 394.363636 320.4 
L 394.363636 43.2 
" style="fill: none; stroke: #000000; stroke-width: 0.8; stroke-linejoin: miter; stroke-linecap: square"/>
   </g>
   <g id="patch_10">
    <path d="M 648 320.4 
L 648 43.2 
" style="fill: none; stroke: #000000; stroke-width: 0.8; stroke-linejoin: miter; stroke-linecap: square"/>
   </g>
   <g id="patch_11">
    <path d="M 394.363636 320.4 
L 648 320.4 
" style="fill: none; stroke: #000000; stroke-width: 0.8; stroke-linejoin: miter; stroke-linecap: square"/>
   </g>
   <g id="patch_12">
    <path d="M 394.363636 43.2 
L 648 43.2 
" style="fill: none; stroke: #000000; stroke-width: 0.8; stroke-linejoin: miter; stroke-linecap: square"/>
   </g>
   <g id="text_32">
    <!-- Kasichayanula2011a fm_dap2.5_dapagliflozin 3-o-glucuronide -->
    <g transform="translate(303.729006 37.2) scale(0.14 -0.14)">
     <use xlink:href="#DejaVuSans-4b"/>
     <use xlink:href="#DejaVuSans-61" x="63.826172"/>
     <use xlink:href="#DejaVuSans-73" x="125.105469"/>
     <use xlink:href="#DejaVuSans-69" x="177.205078"/>
     <use xlink:href="#DejaVuSans-63" x="204.988281"/>
     <use xlink:href="#DejaVuSans-68" x="259.96875"/>
     <use xlink:href="#DejaVuSans-61" x="323.347656"/>
     <use xlink:href="#DejaVuSans-79" x="384.626953"/>
     <use xlink:href="#DejaVuSans-61" x="443.806641"/>
     <use xlink:href="#DejaVuSans-6e" x="505.085938"/>
     <use xlink:href="#DejaVuSans-75" x="568.464844"/>
     <use xlink:href="#DejaVuSans-6c" x="631.84375"/>
     <use xlink:href="#DejaVuSans-61" x="659.626953"/>
     <use xlink:href="#DejaVuSans-32" x="720.90625"/>
     <use xlink:href="#DejaVuSans-30" x="784.529297"/>
     <use xlink:href="#DejaVuSans-31" x="848.152344"/>
     <use xlink:href="#DejaVuSans-31" x="911.775391"/>
     <use xlink:href="#DejaVuSans-61" x="975.398438"/>
     <use xlink:href="#DejaVuSans-20" x="1036.677734"/>
     <use xlink:href="#DejaVuSans-66" x="1068.464844"/>
     <use xlink:href="#DejaVuSans-6d" x="1103.669922"/>
     <use xlink:href="#DejaVuSans-5f" x="1201.082031"/>
     <use xlink:href="#DejaVuSans-64" x="1251.082031"/>
     <use xlink:href="#DejaVuSans-61" x="1314.558594"/>
     <use xlink:href="#DejaVuSans-70" x="1375.837891"/>
     <use xlink:href="#DejaVuSans-32" x="1439.314453"/>
     <use xlink:href="#DejaVuSans-2e" x="1502.9375"/>
     <use xlink:href="#DejaVuSans-35" x="1534.724609"/>
     <use xlink:href="#DejaVuSans-5f" x="1598.347656"/>
     <use xlink:href="#DejaVuSans-64" x="1648.347656"/>
     <use xlink:href="#DejaVuSans-61" x="1711.824219"/>
     <use xlink:href="#DejaVuSans-70" x="1773.103516"/>
     <use xlink:href="#DejaVuSans-61" x="1836.580078"/>
     <use xlink:href="#DejaVuSans-67" x="1897.859375"/>
     <use xlink:href="#DejaVuSans-6c" x="1961.335938"/>
     <use xlink:href="#DejaVuSans-69" x="1989.119141"/>
     <use xlink:href="#DejaVuSans-66" x="2016.902344"/>
     <use xlink:href="#DejaVuSans-6c" x="2052.107422"/>
     <use xlink:href="#DejaVuSans-6f" x="2079.890625"/>
     <use xlink:href="#DejaVuSans-7a" x="2141.072266"/>
     <use xlink:href="#DejaVuSans-69" x="2193.5625"/>
     <use xlink:href="#DejaVuSans-6e" x="2221.345703"/>
     <use xlink:href="#DejaVuSans-20" x="2284.724609"/>
     <use xlink:href="#DejaVuSans-33" x="2316.511719"/>
     <use xlink:href="#DejaVuSans-2d" x="2380.134766"/>
     <use xlink:href="#DejaVuSans-6f" x="2418.09375"/>
     <use xlink:href="#DejaVuSans-2d" x="2481.150391"/>
     <use xlink:href="#DejaVuSans-67" x="2517.234375"/>
     <use xlink:href="#DejaVuSans-6c" x="2580.710938"/>
     <use xlink:href="#DejaVuSans-75" x="2608.494141"/>
     <use xlink:href="#DejaVuSans-63" x="2671.873047"/>
     <use xlink:href="#DejaVuSans-75" x="2726.853516"/>
     <use xlink:href="#DejaVuSans-72" x="2790.232422"/>
     <use xlink:href="#DejaVuSans-6f" x="2829.095703"/>
     <use xlink:href="#DejaVuSans-6e" x="2890.277344"/>
     <use xlink:href="#DejaVuSans-69" x="2953.65625"/>
     <use xlink:href="#DejaVuSans-64" x="2981.439453"/>
     <use xlink:href="#DejaVuSans-65" x="3044.916016"/>
    </g>
   </g>
   <g id="legend_2">
    <g id="patch_13">
     <path d="M 504.95 80.834375 
L 641 80.834375 
Q 643 80.834375 643 78.834375 
L 643 50.2 
Q 643 48.2 641 48.2 
L 504.95 48.2 
Q 502.95 48.2 502.95 50.2 
L 502.95 78.834375 
Q 502.95 80.834375 504.95 80.834375 
z
" style="fill: #ffffff; opacity: 0.8; stroke: #cccccc; stroke-linejoin: miter"/>
    </g>
    <g id="line2d_73">
     <path d="M 506.95 56.298437 
L 516.95 56.298437 
L 526.95 56.298437 
" style="fill: none; stroke: #0000ff; stroke-width: 1.5; stroke-linecap: square"/>
    </g>
    <g id="text_33">
     <!-- observable -->
     <g transform="translate(534.95 59.798437) scale(0.1 -0.1)">
      <use xlink:href="#DejaVuSans-6f"/>
      <use xlink:href="#DejaVuSans-62" x="61.181641"/>
      <use xlink:href="#DejaVuSans-73" x="124.658203"/>
      <use xlink:href="#DejaVuSans-65" x="176.757812"/>
      <use xlink:href="#DejaVuSans-72" x="238.28125"/>
      <use xlink:href="#DejaVuSans-76" x="279.394531"/>
      <use xlink:href="#DejaVuSans-61" x="338.574219"/>
      <use xlink:href="#DejaVuSans-62" x="399.853516"/>
      <use xlink:href="#DejaVuSans-6c" x="463.330078"/>
      <use xlink:href="#DejaVuSans-65" x="491.113281"/>
     </g>
    </g>
    <g id="LineCollection_4">
     <path d="M 516.95 75.976562 
L 516.95 65.976562 
" style="fill: none; stroke: #000000; stroke-width: 1.5"/>
    </g>
    <g id="line2d_74">
     <path d="M 506.95 70.976562 
L 526.95 70.976562 
" style="fill: none; stroke: #000000; stroke-width: 1.5; stroke-linecap: square"/>
    </g>
    <g id="line2d_75">
     <g>
      <use xlink:href="#m19d250843d" x="516.95" y="70.976562" style="stroke: #000000; stroke-linejoin: miter"/>
     </g>
    </g>
    <g id="text_34">
     <!-- reference_data ± SD -->
     <g transform="translate(534.95 74.476562) scale(0.1 -0.1)">
      <use xlink:href="#DejaVuSans-72"/>
      <use xlink:href="#DejaVuSans-65" x="38.863281"/>
      <use xlink:href="#DejaVuSans-66" x="100.386719"/>
      <use xlink:href="#DejaVuSans-65" x="135.591797"/>
      <use xlink:href="#DejaVuSans-72" x="197.115234"/>
      <use xlink:href="#DejaVuSans-65" x="235.978516"/>
      <use xlink:href="#DejaVuSans-6e" x="297.501953"/>
      <use xlink:href="#DejaVuSans-63" x="360.880859"/>
      <use xlink:href="#DejaVuSans-65" x="415.861328"/>
      <use xlink:href="#DejaVuSans-5f" x="477.384766"/>
      <use xlink:href="#DejaVuSans-64" x="527.384766"/>
      <use xlink:href="#DejaVuSans-61" x="590.861328"/>
      <use xlink:href="#DejaVuSans-74" x="652.140625"/>
      <use xlink:href="#DejaVuSans-61" x="691.349609"/>
      <use xlink:href="#DejaVuSans-20" x="752.628906"/>
      <use xlink:href="#DejaVuSans-b1" x="784.416016"/>
      <use xlink:href="#DejaVuSans-20" x="868.205078"/>
      <use xlink:href="#DejaVuSans-53" x="899.992188"/>
      <use xlink:href="#DejaVuSans-44" x="963.46875"/>
     </g>
    </g>
   </g>
  </g>
 </g>
 <defs>
  <clipPath id="p46dc31d601">
   <rect x="90" y="43.2" width="253.636364" height="277.2"/>
  </clipPath>
  <clipPath id="peebd184a09">
   <rect x="394.363636" y="43.2" width="253.636364" height="277.2"/>
  </clipPath>
 </defs>
</svg>
