<?xml version="1.0" encoding="utf-8" standalone="no"?>
<!DOCTYPE svg PUBLIC "-//W3C//DTD SVG 1.1//EN"
  "http://www.w3.org/Graphics/SVG/1.1/DTD/svg11.dtd">
<svg xmlns:xlink="http://www.w3.org/1999/xlink" width="720pt" height="360pt" viewBox="0 0 720 360" xmlns="http://www.w3.org/2000/svg" version="1.1">
 <metadata>
  <rdf:RDF xmlns:dc="http://purl.org/dc/elements/1.1/" xmlns:cc="http://creativecommons.org/ns#" xmlns:rdf="http://www.w3.org/1999/02/22-rdf-syntax-ns#">
   <cc:Work>
    <dc:type rdf:resource="http://purl.org/dc/dcmitype/StillImage"/>
    <dc:date>2024-12-16T16:48:57.376663</dc:date>
    <dc:format>image/svg+xml</dc:format>
    <dc:creator>
     <cc:Agent>
      <dc:title>Matplotlib v3.9.1, https://matplotlib.org/</dc:title>
     </cc:Agent>
    </dc:creator>
   </cc:Work>
  </rdf:RDF>
 </metadata>
 <defs>
  <style type="text/css">*{stroke-linejoin: round; stroke-linecap: butt}</style>
 </defs>
 <g id="figure_1">
  <g id="patch_1">
   <path d="M 0 360 
L 720 360 
L 720 0 
L 0 0 
z
" style="fill: #ffffff"/>
  </g>
  <g id="axes_1">
   <g id="patch_2">
    <path d="M 90 320.4 
L 343.636364 320.4 
L 343.636364 43.2 
L 90 43.2 
z
" style="fill: #ffffff"/>
   </g>
   <g id="matplotlib.axis_1">
    <g id="xtick_1">
     <g id="line2d_1">
      <defs>
       <path id="m240e873bca" d="M 0 0 
L 0 3.5 
" style="stroke: #000000; stroke-width: 0.8"/>
      </defs>
      <g>
       <use xlink:href="#m240e873bca" x="111.006411" y="320.4" style="stroke: #000000; stroke-width: 0.8"/>
      </g>
     </g>
     <g id="text_1">
      <!-- 0 -->
      <g transform="translate(107.825161 334.998438) scale(0.1 -0.1)">
       <defs>
        <path id="DejaVuSans-30" d="M 2034 4250 
Q 1547 4250 1301 3770 
Q 1056 3291 1056 2328 
Q 1056 1369 1301 889 
Q 1547 409 2034 409 
Q 2525 409 2770 889 
Q 3016 1369 3016 2328 
Q 3016 3291 2770 3770 
Q 2525 4250 2034 4250 
z
M 2034 4750 
Q 2819 4750 3233 4129 
Q 3647 3509 3647 2328 
Q 3647 1150 3233 529 
Q 2819 -91 2034 -91 
Q 1250 -91 836 529 
Q 422 1150 422 2328 
Q 422 3509 836 4129 
Q 1250 4750 2034 4750 
z
" transform="scale(0.015625)"/>
       </defs>
       <use xlink:href="#DejaVuSans-30"/>
      </g>
     </g>
    </g>
    <g id="xtick_2">
     <g id="line2d_2">
      <g>
       <use xlink:href="#m240e873bca" x="163.460178" y="320.4" style="stroke: #000000; stroke-width: 0.8"/>
      </g>
     </g>
     <g id="text_2">
      <!-- 5000 -->
      <g transform="translate(150.735178 334.998438) scale(0.1 -0.1)">
       <defs>
        <path id="DejaVuSans-35" d="M 691 4666 
L 3169 4666 
L 3169 4134 
L 1269 4134 
L 1269 2991 
Q 1406 3038 1543 3061 
Q 1681 3084 1819 3084 
Q 2600 3084 3056 2656 
Q 3513 2228 3513 1497 
Q 3513 744 3044 326 
Q 2575 -91 1722 -91 
Q 1428 -91 1123 -41 
Q 819 9 494 109 
L 494 744 
Q 775 591 1075 516 
Q 1375 441 1709 441 
Q 2250 441 2565 725 
Q 2881 1009 2881 1497 
Q 2881 1984 2565 2268 
Q 2250 2553 1709 2553 
Q 1456 2553 1204 2497 
Q 953 2441 691 2322 
L 691 4666 
z
" transform="scale(0.015625)"/>
       </defs>
       <use xlink:href="#DejaVuSans-35"/>
       <use xlink:href="#DejaVuSans-30" x="63.623047"/>
       <use xlink:href="#DejaVuSans-30" x="127.246094"/>
       <use xlink:href="#DejaVuSans-30" x="190.869141"/>
      </g>
     </g>
    </g>
    <g id="xtick_3">
     <g id="line2d_3">
      <g>
       <use xlink:href="#m240e873bca" x="215.913945" y="320.4" style="stroke: #000000; stroke-width: 0.8"/>
      </g>
     </g>
     <g id="text_3">
      <!-- 10000 -->
      <g transform="translate(200.007695 334.998438) scale(0.1 -0.1)">
       <defs>
        <path id="DejaVuSans-31" d="M 794 531 
L 1825 531 
L 1825 4091 
L 703 3866 
L 703 4441 
L 1819 4666 
L 2450 4666 
L 2450 531 
L 3481 531 
L 3481 0 
L 794 0 
L 794 531 
z
" transform="scale(0.015625)"/>
       </defs>
       <use xlink:href="#DejaVuSans-31"/>
       <use xlink:href="#DejaVuSans-30" x="63.623047"/>
       <use xlink:href="#DejaVuSans-30" x="127.246094"/>
       <use xlink:href="#DejaVuSans-30" x="190.869141"/>
       <use xlink:href="#DejaVuSans-30" x="254.492188"/>
      </g>
     </g>
    </g>
    <g id="xtick_4">
     <g id="line2d_4">
      <g>
       <use xlink:href="#m240e873bca" x="268.367712" y="320.4" style="stroke: #000000; stroke-width: 0.8"/>
      </g>
     </g>
     <g id="text_4">
      <!-- 15000 -->
      <g transform="translate(252.461462 334.998438) scale(0.1 -0.1)">
       <use xlink:href="#DejaVuSans-31"/>
       <use xlink:href="#DejaVuSans-35" x="63.623047"/>
       <use xlink:href="#DejaVuSans-30" x="127.246094"/>
       <use xlink:href="#DejaVuSans-30" x="190.869141"/>
       <use xlink:href="#DejaVuSans-30" x="254.492188"/>
      </g>
     </g>
    </g>
    <g id="xtick_5">
     <g id="line2d_5">
      <g>
       <use xlink:href="#m240e873bca" x="320.821479" y="320.4" style="stroke: #000000; stroke-width: 0.8"/>
      </g>
     </g>
     <g id="text_5">
      <!-- 20000 -->
      <g transform="translate(304.915229 334.998438) scale(0.1 -0.1)">
       <defs>
        <path id="DejaVuSans-32" d="M 1228 531 
L 3431 531 
L 3431 0 
L 469 0 
L 469 531 
Q 828 903 1448 1529 
Q 2069 2156 2228 2338 
Q 2531 2678 2651 2914 
Q 2772 3150 2772 3378 
Q 2772 3750 2511 3984 
Q 2250 4219 1831 4219 
Q 1534 4219 1204 4116 
Q 875 4013 500 3803 
L 500 4441 
Q 881 4594 1212 4672 
Q 1544 4750 1819 4750 
Q 2544 4750 2975 4387 
Q 3406 4025 3406 3419 
Q 3406 3131 3298 2873 
Q 3191 2616 2906 2266 
Q 2828 2175 2409 1742 
Q 1991 1309 1228 531 
z
" transform="scale(0.015625)"/>
       </defs>
       <use xlink:href="#DejaVuSans-32"/>
       <use xlink:href="#DejaVuSans-30" x="63.623047"/>
       <use xlink:href="#DejaVuSans-30" x="127.246094"/>
       <use xlink:href="#DejaVuSans-30" x="190.869141"/>
       <use xlink:href="#DejaVuSans-30" x="254.492188"/>
      </g>
     </g>
    </g>
    <g id="text_6">
     <!-- time -->
     <g transform="translate(203.262869 350.19625) scale(0.12 -0.12)">
      <defs>
       <path id="DejaVuSans-74" d="M 1172 4494 
L 1172 3500 
L 2356 3500 
L 2356 3053 
L 1172 3053 
L 1172 1153 
Q 1172 725 1289 603 
Q 1406 481 1766 481 
L 2356 481 
L 2356 0 
L 1766 0 
Q 1100 0 847 248 
Q 594 497 594 1153 
L 594 3053 
L 172 3053 
L 172 3500 
L 594 3500 
L 594 4494 
L 1172 4494 
z
" transform="scale(0.015625)"/>
       <path id="DejaVuSans-69" d="M 603 3500 
L 1178 3500 
L 1178 0 
L 603 0 
L 603 3500 
z
M 603 4863 
L 1178 4863 
L 1178 4134 
L 603 4134 
L 603 4863 
z
" transform="scale(0.015625)"/>
       <path id="DejaVuSans-6d" d="M 3328 2828 
Q 3544 3216 3844 3400 
Q 4144 3584 4550 3584 
Q 5097 3584 5394 3201 
Q 5691 2819 5691 2113 
L 5691 0 
L 5113 0 
L 5113 2094 
Q 5113 2597 4934 2840 
Q 4756 3084 4391 3084 
Q 3944 3084 3684 2787 
Q 3425 2491 3425 1978 
L 3425 0 
L 2847 0 
L 2847 2094 
Q 2847 2600 2669 2842 
Q 2491 3084 2119 3084 
Q 1678 3084 1418 2786 
Q 1159 2488 1159 1978 
L 1159 0 
L 581 0 
L 581 3500 
L 1159 3500 
L 1159 2956 
Q 1356 3278 1631 3431 
Q 1906 3584 2284 3584 
Q 2666 3584 2933 3390 
Q 3200 3197 3328 2828 
z
" transform="scale(0.015625)"/>
       <path id="DejaVuSans-65" d="M 3597 1894 
L 3597 1613 
L 953 1613 
Q 991 1019 1311 708 
Q 1631 397 2203 397 
Q 2534 397 2845 478 
Q 3156 559 3463 722 
L 3463 178 
Q 3153 47 2828 -22 
Q 2503 -91 2169 -91 
Q 1331 -91 842 396 
Q 353 884 353 1716 
Q 353 2575 817 3079 
Q 1281 3584 2069 3584 
Q 2775 3584 3186 3129 
Q 3597 2675 3597 1894 
z
M 3022 2063 
Q 3016 2534 2758 2815 
Q 2500 3097 2075 3097 
Q 1594 3097 1305 2825 
Q 1016 2553 972 2059 
L 3022 2063 
z
" transform="scale(0.015625)"/>
      </defs>
      <use xlink:href="#DejaVuSans-74"/>
      <use xlink:href="#DejaVuSans-69" x="39.208984"/>
      <use xlink:href="#DejaVuSans-6d" x="66.992188"/>
      <use xlink:href="#DejaVuSans-65" x="164.404297"/>
     </g>
    </g>
   </g>
   <g id="matplotlib.axis_2">
    <g id="ytick_1">
     <g id="line2d_6">
      <defs>
       <path id="m6a115965bc" d="M 0 0 
L -3.5 0 
" style="stroke: #000000; stroke-width: 0.8"/>
      </defs>
      <g>
       <use xlink:href="#m6a115965bc" x="90" y="307.8" style="stroke: #000000; stroke-width: 0.8"/>
      </g>
     </g>
     <g id="text_7">
      <!-- 0.00000 -->
      <g transform="translate(41.646875 311.599219) scale(0.1 -0.1)">
       <defs>
        <path id="DejaVuSans-2e" d="M 684 794 
L 1344 794 
L 1344 0 
L 684 0 
L 684 794 
z
" transform="scale(0.015625)"/>
       </defs>
       <use xlink:href="#DejaVuSans-30"/>
       <use xlink:href="#DejaVuSans-2e" x="63.623047"/>
       <use xlink:href="#DejaVuSans-30" x="95.410156"/>
       <use xlink:href="#DejaVuSans-30" x="159.033203"/>
       <use xlink:href="#DejaVuSans-30" x="222.65625"/>
       <use xlink:href="#DejaVuSans-30" x="286.279297"/>
       <use xlink:href="#DejaVuSans-30" x="349.902344"/>
      </g>
     </g>
    </g>
    <g id="ytick_2">
     <g id="line2d_7">
      <g>
       <use xlink:href="#m6a115965bc" x="90" y="273.651329" style="stroke: #000000; stroke-width: 0.8"/>
      </g>
     </g>
     <g id="text_8">
      <!-- 0.00002 -->
      <g transform="translate(41.646875 277.450548) scale(0.1 -0.1)">
       <use xlink:href="#DejaVuSans-30"/>
       <use xlink:href="#DejaVuSans-2e" x="63.623047"/>
       <use xlink:href="#DejaVuSans-30" x="95.410156"/>
       <use xlink:href="#DejaVuSans-30" x="159.033203"/>
       <use xlink:href="#DejaVuSans-30" x="222.65625"/>
       <use xlink:href="#DejaVuSans-30" x="286.279297"/>
       <use xlink:href="#DejaVuSans-32" x="349.902344"/>
      </g>
     </g>
    </g>
    <g id="ytick_3">
     <g id="line2d_8">
      <g>
       <use xlink:href="#m6a115965bc" x="90" y="239.502658" style="stroke: #000000; stroke-width: 0.8"/>
      </g>
     </g>
     <g id="text_9">
      <!-- 0.00004 -->
      <g transform="translate(41.646875 243.301877) scale(0.1 -0.1)">
       <defs>
        <path id="DejaVuSans-34" d="M 2419 4116 
L 825 1625 
L 2419 1625 
L 2419 4116 
z
M 2253 4666 
L 3047 4666 
L 3047 1625 
L 3713 1625 
L 3713 1100 
L 3047 1100 
L 3047 0 
L 2419 0 
L 2419 1100 
L 313 1100 
L 313 1709 
L 2253 4666 
z
" transform="scale(0.015625)"/>
       </defs>
       <use xlink:href="#DejaVuSans-30"/>
       <use xlink:href="#DejaVuSans-2e" x="63.623047"/>
       <use xlink:href="#DejaVuSans-30" x="95.410156"/>
       <use xlink:href="#DejaVuSans-30" x="159.033203"/>
       <use xlink:href="#DejaVuSans-30" x="222.65625"/>
       <use xlink:href="#DejaVuSans-30" x="286.279297"/>
       <use xlink:href="#DejaVuSans-34" x="349.902344"/>
      </g>
     </g>
    </g>
    <g id="ytick_4">
     <g id="line2d_9">
      <g>
       <use xlink:href="#m6a115965bc" x="90" y="205.353987" style="stroke: #000000; stroke-width: 0.8"/>
      </g>
     </g>
     <g id="text_10">
      <!-- 0.00006 -->
      <g transform="translate(41.646875 209.153205) scale(0.1 -0.1)">
       <defs>
        <path id="DejaVuSans-36" d="M 2113 2584 
Q 1688 2584 1439 2293 
Q 1191 2003 1191 1497 
Q 1191 994 1439 701 
Q 1688 409 2113 409 
Q 2538 409 2786 701 
Q 3034 994 3034 1497 
Q 3034 2003 2786 2293 
Q 2538 2584 2113 2584 
z
M 3366 4563 
L 3366 3988 
Q 3128 4100 2886 4159 
Q 2644 4219 2406 4219 
Q 1781 4219 1451 3797 
Q 1122 3375 1075 2522 
Q 1259 2794 1537 2939 
Q 1816 3084 2150 3084 
Q 2853 3084 3261 2657 
Q 3669 2231 3669 1497 
Q 3669 778 3244 343 
Q 2819 -91 2113 -91 
Q 1303 -91 875 529 
Q 447 1150 447 2328 
Q 447 3434 972 4092 
Q 1497 4750 2381 4750 
Q 2619 4750 2861 4703 
Q 3103 4656 3366 4563 
z
" transform="scale(0.015625)"/>
       </defs>
       <use xlink:href="#DejaVuSans-30"/>
       <use xlink:href="#DejaVuSans-2e" x="63.623047"/>
       <use xlink:href="#DejaVuSans-30" x="95.410156"/>
       <use xlink:href="#DejaVuSans-30" x="159.033203"/>
       <use xlink:href="#DejaVuSans-30" x="222.65625"/>
       <use xlink:href="#DejaVuSans-30" x="286.279297"/>
       <use xlink:href="#DejaVuSans-36" x="349.902344"/>
      </g>
     </g>
    </g>
    <g id="ytick_5">
     <g id="line2d_10">
      <g>
       <use xlink:href="#m6a115965bc" x="90" y="171.205316" style="stroke: #000000; stroke-width: 0.8"/>
      </g>
     </g>
     <g id="text_11">
      <!-- 0.00008 -->
      <g transform="translate(41.646875 175.004534) scale(0.1 -0.1)">
       <defs>
        <path id="DejaVuSans-38" d="M 2034 2216 
Q 1584 2216 1326 1975 
Q 1069 1734 1069 1313 
Q 1069 891 1326 650 
Q 1584 409 2034 409 
Q 2484 409 2743 651 
Q 3003 894 3003 1313 
Q 3003 1734 2745 1975 
Q 2488 2216 2034 2216 
z
M 1403 2484 
Q 997 2584 770 2862 
Q 544 3141 544 3541 
Q 544 4100 942 4425 
Q 1341 4750 2034 4750 
Q 2731 4750 3128 4425 
Q 3525 4100 3525 3541 
Q 3525 3141 3298 2862 
Q 3072 2584 2669 2484 
Q 3125 2378 3379 2068 
Q 3634 1759 3634 1313 
Q 3634 634 3220 271 
Q 2806 -91 2034 -91 
Q 1263 -91 848 271 
Q 434 634 434 1313 
Q 434 1759 690 2068 
Q 947 2378 1403 2484 
z
M 1172 3481 
Q 1172 3119 1398 2916 
Q 1625 2713 2034 2713 
Q 2441 2713 2670 2916 
Q 2900 3119 2900 3481 
Q 2900 3844 2670 4047 
Q 2441 4250 2034 4250 
Q 1625 4250 1398 4047 
Q 1172 3844 1172 3481 
z
" transform="scale(0.015625)"/>
       </defs>
       <use xlink:href="#DejaVuSans-30"/>
       <use xlink:href="#DejaVuSans-2e" x="63.623047"/>
       <use xlink:href="#DejaVuSans-30" x="95.410156"/>
       <use xlink:href="#DejaVuSans-30" x="159.033203"/>
       <use xlink:href="#DejaVuSans-30" x="222.65625"/>
       <use xlink:href="#DejaVuSans-30" x="286.279297"/>
       <use xlink:href="#DejaVuSans-38" x="349.902344"/>
      </g>
     </g>
    </g>
    <g id="ytick_6">
     <g id="line2d_11">
      <g>
       <use xlink:href="#m6a115965bc" x="90" y="137.056644" style="stroke: #000000; stroke-width: 0.8"/>
      </g>
     </g>
     <g id="text_12">
      <!-- 0.00010 -->
      <g transform="translate(41.646875 140.855863) scale(0.1 -0.1)">
       <use xlink:href="#DejaVuSans-30"/>
       <use xlink:href="#DejaVuSans-2e" x="63.623047"/>
       <use xlink:href="#DejaVuSans-30" x="95.410156"/>
       <use xlink:href="#DejaVuSans-30" x="159.033203"/>
       <use xlink:href="#DejaVuSans-30" x="222.65625"/>
       <use xlink:href="#DejaVuSans-31" x="286.279297"/>
       <use xlink:href="#DejaVuSans-30" x="349.902344"/>
      </g>
     </g>
    </g>
    <g id="ytick_7">
     <g id="line2d_12">
      <g>
       <use xlink:href="#m6a115965bc" x="90" y="102.907973" style="stroke: #000000; stroke-width: 0.8"/>
      </g>
     </g>
     <g id="text_13">
      <!-- 0.00012 -->
      <g transform="translate(41.646875 106.707192) scale(0.1 -0.1)">
       <use xlink:href="#DejaVuSans-30"/>
       <use xlink:href="#DejaVuSans-2e" x="63.623047"/>
       <use xlink:href="#DejaVuSans-30" x="95.410156"/>
       <use xlink:href="#DejaVuSans-30" x="159.033203"/>
       <use xlink:href="#DejaVuSans-30" x="222.65625"/>
       <use xlink:href="#DejaVuSans-31" x="286.279297"/>
       <use xlink:href="#DejaVuSans-32" x="349.902344"/>
      </g>
     </g>
    </g>
    <g id="ytick_8">
     <g id="line2d_13">
      <g>
       <use xlink:href="#m6a115965bc" x="90" y="68.759302" style="stroke: #000000; stroke-width: 0.8"/>
      </g>
     </g>
     <g id="text_14">
      <!-- 0.00014 -->
      <g transform="translate(41.646875 72.558521) scale(0.1 -0.1)">
       <use xlink:href="#DejaVuSans-30"/>
       <use xlink:href="#DejaVuSans-2e" x="63.623047"/>
       <use xlink:href="#DejaVuSans-30" x="95.410156"/>
       <use xlink:href="#DejaVuSans-30" x="159.033203"/>
       <use xlink:href="#DejaVuSans-30" x="222.65625"/>
       <use xlink:href="#DejaVuSans-31" x="286.279297"/>
       <use xlink:href="#DejaVuSans-34" x="349.902344"/>
      </g>
     </g>
    </g>
    <g id="text_15">
     <!-- [Cve_dap] -->
     <g transform="translate(34.8175 212.209687) rotate(-90) scale(0.12 -0.12)">
      <defs>
       <path id="DejaVuSans-5b" d="M 550 4863 
L 1875 4863 
L 1875 4416 
L 1125 4416 
L 1125 -397 
L 1875 -397 
L 1875 -844 
L 550 -844 
L 550 4863 
z
" transform="scale(0.015625)"/>
       <path id="DejaVuSans-43" d="M 4122 4306 
L 4122 3641 
Q 3803 3938 3442 4084 
Q 3081 4231 2675 4231 
Q 1875 4231 1450 3742 
Q 1025 3253 1025 2328 
Q 1025 1406 1450 917 
Q 1875 428 2675 428 
Q 3081 428 3442 575 
Q 3803 722 4122 1019 
L 4122 359 
Q 3791 134 3420 21 
Q 3050 -91 2638 -91 
Q 1578 -91 968 557 
Q 359 1206 359 2328 
Q 359 3453 968 4101 
Q 1578 4750 2638 4750 
Q 3056 4750 3426 4639 
Q 3797 4528 4122 4306 
z
" transform="scale(0.015625)"/>
       <path id="DejaVuSans-76" d="M 191 3500 
L 800 3500 
L 1894 563 
L 2988 3500 
L 3597 3500 
L 2284 0 
L 1503 0 
L 191 3500 
z
" transform="scale(0.015625)"/>
       <path id="DejaVuSans-5f" d="M 3263 -1063 
L 3263 -1509 
L -63 -1509 
L -63 -1063 
L 3263 -1063 
z
" transform="scale(0.015625)"/>
       <path id="DejaVuSans-64" d="M 2906 2969 
L 2906 4863 
L 3481 4863 
L 3481 0 
L 2906 0 
L 2906 525 
Q 2725 213 2448 61 
Q 2172 -91 1784 -91 
Q 1150 -91 751 415 
Q 353 922 353 1747 
Q 353 2572 751 3078 
Q 1150 3584 1784 3584 
Q 2172 3584 2448 3432 
Q 2725 3281 2906 2969 
z
M 947 1747 
Q 947 1113 1208 752 
Q 1469 391 1925 391 
Q 2381 391 2643 752 
Q 2906 1113 2906 1747 
Q 2906 2381 2643 2742 
Q 2381 3103 1925 3103 
Q 1469 3103 1208 2742 
Q 947 2381 947 1747 
z
" transform="scale(0.015625)"/>
       <path id="DejaVuSans-61" d="M 2194 1759 
Q 1497 1759 1228 1600 
Q 959 1441 959 1056 
Q 959 750 1161 570 
Q 1363 391 1709 391 
Q 2188 391 2477 730 
Q 2766 1069 2766 1631 
L 2766 1759 
L 2194 1759 
z
M 3341 1997 
L 3341 0 
L 2766 0 
L 2766 531 
Q 2569 213 2275 61 
Q 1981 -91 1556 -91 
Q 1019 -91 701 211 
Q 384 513 384 1019 
Q 384 1609 779 1909 
Q 1175 2209 1959 2209 
L 2766 2209 
L 2766 2266 
Q 2766 2663 2505 2880 
Q 2244 3097 1772 3097 
Q 1472 3097 1187 3025 
Q 903 2953 641 2809 
L 641 3341 
Q 956 3463 1253 3523 
Q 1550 3584 1831 3584 
Q 2591 3584 2966 3190 
Q 3341 2797 3341 1997 
z
" transform="scale(0.015625)"/>
       <path id="DejaVuSans-70" d="M 1159 525 
L 1159 -1331 
L 581 -1331 
L 581 3500 
L 1159 3500 
L 1159 2969 
Q 1341 3281 1617 3432 
Q 1894 3584 2278 3584 
Q 2916 3584 3314 3078 
Q 3713 2572 3713 1747 
Q 3713 922 3314 415 
Q 2916 -91 2278 -91 
Q 1894 -91 1617 61 
Q 1341 213 1159 525 
z
M 3116 1747 
Q 3116 2381 2855 2742 
Q 2594 3103 2138 3103 
Q 1681 3103 1420 2742 
Q 1159 2381 1159 1747 
Q 1159 1113 1420 752 
Q 1681 391 2138 391 
Q 2594 391 2855 752 
Q 3116 1113 3116 1747 
z
" transform="scale(0.015625)"/>
       <path id="DejaVuSans-5d" d="M 1947 4863 
L 1947 -844 
L 622 -844 
L 622 -397 
L 1369 -397 
L 1369 4416 
L 622 4416 
L 622 4863 
L 1947 4863 
z
" transform="scale(0.015625)"/>
      </defs>
      <use xlink:href="#DejaVuSans-5b"/>
      <use xlink:href="#DejaVuSans-43" x="39.013672"/>
      <use xlink:href="#DejaVuSans-76" x="108.837891"/>
      <use xlink:href="#DejaVuSans-65" x="168.017578"/>
      <use xlink:href="#DejaVuSans-5f" x="229.541016"/>
      <use xlink:href="#DejaVuSans-64" x="279.541016"/>
      <use xlink:href="#DejaVuSans-61" x="343.017578"/>
      <use xlink:href="#DejaVuSans-70" x="404.296875"/>
      <use xlink:href="#DejaVuSans-5d" x="467.773438"/>
     </g>
    </g>
   </g>
   <g id="LineCollection_1">
    <path d="M 111.136364 296.894985 
L 111.136364 232.986291 
" clip-path="url(#pb5d9e20c4e)" style="fill: none; stroke: #000000; stroke-width: 1.5"/>
    <path d="M 111.321133 208.674108 
L 111.321133 69.45448 
" clip-path="url(#pb5d9e20c4e)" style="fill: none; stroke: #000000; stroke-width: 1.5"/>
    <path d="M 111.635856 190.277347 
L 111.635856 106.136943 
" clip-path="url(#pb5d9e20c4e)" style="fill: none; stroke: #000000; stroke-width: 1.5"/>
    <path d="M 111.950578 238.063558 
L 111.950578 174.265314 
" clip-path="url(#pb5d9e20c4e)" style="fill: none; stroke: #000000; stroke-width: 1.5"/>
    <path d="M 112.265301 255.871947 
L 112.265301 206.72905 
" clip-path="url(#pb5d9e20c4e)" style="fill: none; stroke: #000000; stroke-width: 1.5"/>
    <path d="M 113.524191 282.186728 
L 113.524191 262.485285 
" clip-path="url(#pb5d9e20c4e)" style="fill: none; stroke: #000000; stroke-width: 1.5"/>
    <path d="M 114.783082 291.828525 
L 114.783082 279.101965 
" clip-path="url(#pb5d9e20c4e)" style="fill: none; stroke: #000000; stroke-width: 1.5"/>
    <path d="M 116.041972 295.93399 
L 116.041972 283.518724 
" clip-path="url(#pb5d9e20c4e)" style="fill: none; stroke: #000000; stroke-width: 1.5"/>
    <path d="M 117.300863 298.869292 
L 117.300863 290.417581 
" clip-path="url(#pb5d9e20c4e)" style="fill: none; stroke: #000000; stroke-width: 1.5"/>
    <path d="M 118.559753 300.771133 
L 118.559753 293.416911 
" clip-path="url(#pb5d9e20c4e)" style="fill: none; stroke: #000000; stroke-width: 1.5"/>
    <path d="M 122.336424 302.192196 
L 122.336424 300.510615 
" clip-path="url(#pb5d9e20c4e)" style="fill: none; stroke: #000000; stroke-width: 1.5"/>
    <path d="M 126.113096 303.162881 
L 126.113096 299.467883 
" clip-path="url(#pb5d9e20c4e)" style="fill: none; stroke: #000000; stroke-width: 1.5"/>
    <path d="M 307.535082 295.33608 
L 307.535082 218.387026 
" clip-path="url(#pb5d9e20c4e)" style="fill: none; stroke: #000000; stroke-width: 1.5"/>
    <path d="M 307.708038 167.553056 
L 307.708038 55.8 
" clip-path="url(#pb5d9e20c4e)" style="fill: none; stroke: #000000; stroke-width: 1.5"/>
    <path d="M 308.02276 182.128821 
L 308.02276 101.592828 
" clip-path="url(#pb5d9e20c4e)" style="fill: none; stroke: #000000; stroke-width: 1.5"/>
    <path d="M 308.337483 224.361154 
L 308.337483 160.180926 
" clip-path="url(#pb5d9e20c4e)" style="fill: none; stroke: #000000; stroke-width: 1.5"/>
    <path d="M 308.652205 248.068008 
L 308.652205 202.122827 
" clip-path="url(#pb5d9e20c4e)" style="fill: none; stroke: #000000; stroke-width: 1.5"/>
    <path d="M 309.911096 274.430677 
L 309.911096 250.539893 
" clip-path="url(#pb5d9e20c4e)" style="fill: none; stroke: #000000; stroke-width: 1.5"/>
    <path d="M 311.169986 283.639459 
L 311.169986 268.156249 
" clip-path="url(#pb5d9e20c4e)" style="fill: none; stroke: #000000; stroke-width: 1.5"/>
    <path d="M 312.428877 287.302973 
L 312.428877 271.536889 
" clip-path="url(#pb5d9e20c4e)" style="fill: none; stroke: #000000; stroke-width: 1.5"/>
    <path d="M 313.687767 299.746519 
L 313.687767 276.774191 
" clip-path="url(#pb5d9e20c4e)" style="fill: none; stroke: #000000; stroke-width: 1.5"/>
    <path d="M 314.946658 299.896821 
L 314.946658 287.255723 
" clip-path="url(#pb5d9e20c4e)" style="fill: none; stroke: #000000; stroke-width: 1.5"/>
    <path d="M 318.723329 300.851802 
L 318.723329 297.89726 
" clip-path="url(#pb5d9e20c4e)" style="fill: none; stroke: #000000; stroke-width: 1.5"/>
    <path d="M 322.5 301.527472 
L 322.5 298.485866 
" clip-path="url(#pb5d9e20c4e)" style="fill: none; stroke: #000000; stroke-width: 1.5"/>
   </g>
   <g id="line2d_14">
    <path d="M 111.006411 307.8 
L 111.014116 307.722291 
L 111.047373 303.088587 
L 111.242923 228.284138 
L 111.48131 186.200274 
L 111.565367 184.133453 
L 111.621405 184.865742 
L 111.789799 193.022403 
L 112.961141 265.090642 
L 113.480536 281.022236 
L 113.999931 290.782125 
L 114.519326 296.744217 
L 115.038721 300.383653 
L 115.558117 302.604893 
L 116.077512 303.960831 
L 116.661831 304.866772 
L 117.246151 305.38788 
L 117.963015 305.736694 
L 118.941373 305.95692 
L 120.701021 306.083604 
L 126.117329 306.144922 
L 126.135871 304.891186 
L 126.212564 281.110729 
L 126.546147 187.476809 
L 126.683056 182.527754 
L 126.705874 182.774625 
L 126.822565 187.001549 
L 127.213366 214.854767 
L 127.823351 252.857216 
L 128.312 271.922988 
L 128.813461 284.247683 
L 129.314923 291.915079 
L 129.816385 296.678969 
L 130.317846 299.638192 
L 130.819308 301.476906 
L 131.404347 302.763514 
L 131.989385 303.504267 
L 132.658001 303.976733 
L 133.493771 304.274683 
L 134.747425 304.457879 
L 137.421887 304.56656 
L 141.227585 304.553314 
L 141.258762 300.392557 
L 141.440027 230.649876 
L 141.673164 184.357987 
L 141.774679 180.979999 
L 141.825437 181.494007 
L 141.97771 188.255415 
L 143.302593 266.632406 
L 143.839723 281.137756 
L 144.376853 289.868758 
L 144.913982 295.114923 
L 145.451112 298.266831 
L 145.988242 300.161756 
L 146.525372 301.302722 
L 147.122182 302.048973 
L 147.778674 302.508906 
L 148.61421 302.809225 
L 149.867512 302.999508 
L 152.583788 303.128071 
L 156.334249 303.140926 
L 156.366039 298.841697 
L 156.54989 228.130176 
L 156.786754 182.485206 
L 156.895373 179.592885 
L 156.917096 179.812498 
L 157.008259 182.709777 
L 157.320736 203.870549 
L 157.987034 247.487636 
L 158.465688 267.123845 
L 158.963252 280.089857 
L 159.460817 288.191466 
L 159.958381 293.246919 
L 160.455946 296.401596 
L 160.953511 298.371576 
L 161.534003 299.758553 
L 162.114495 300.563719 
L 162.777914 301.083338 
L 163.607189 301.417938 
L 164.8511 301.634194 
L 167.338923 301.780861 
L 171.440794 301.836384 
L 171.472556 297.57276 
L 171.648302 229.735753 
L 171.898367 180.873102 
L 172.000005 178.278672 
L 172.031818 178.642003 
L 172.15907 183.662159 
L 172.620363 217.045964 
L 173.193072 250.997646 
L 173.726101 270.50144 
L 174.236607 281.94792 
L 174.747113 289.009329 
L 175.257619 293.362858 
L 175.768126 296.048211 
L 176.278632 297.706828 
L 176.862067 298.844545 
L 177.445503 299.506152 
L 178.101868 299.930516 
L 178.977022 300.223146 
L 180.362681 300.420614 
L 183.644507 300.591457 
L 186.547446 300.626452 
L 186.548399 300.597403 
L 186.582535 295.562882 
L 187.097222 177.054966 
L 187.144136 177.544804 
L 187.264569 182.389494 
L 187.742439 216.950069 
L 188.299866 249.802433 
L 188.805174 268.513926 
L 189.318195 280.310774 
L 189.831216 287.572824 
L 190.344238 292.040574 
L 190.857259 294.79091 
L 191.37028 296.486698 
L 191.883301 297.535306 
L 192.481826 298.268665 
L 193.165854 298.738661 
L 194.020889 299.042369 
L 195.388946 299.255282 
L 198.467073 299.440099 
L 201.652933 299.532649 
L 201.654591 299.49043 
L 201.686477 295.109788 
L 201.883838 219.808025 
L 202.11662 178.26014 
L 202.209209 175.938838 
L 202.237121 176.18036 
L 202.348772 180.071573 
L 202.684145 203.562938 
L 203.313765 244.212101 
L 203.829916 264.933226 
L 204.346066 277.740876 
L 204.862217 285.605452 
L 205.378368 290.43064 
L 205.894518 293.392911 
L 206.410669 295.214575 
L 206.991338 296.444519 
L 207.572008 297.16362 
L 208.217196 297.624111 
L 209.055941 297.942676 
L 210.346317 298.165478 
L 213.120627 298.359636 
L 216.759284 298.496752 
L 216.760957 298.457315 
L 216.791451 294.464927 
L 216.958395 229.988173 
L 217.203749 178.47534 
L 217.311209 174.895317 
L 217.354193 175.319586 
L 217.488972 180.857721 
L 218.079387 223.331844 
L 218.643693 253.35196 
L 219.121897 269.230566 
L 219.689426 280.797607 
L 220.256955 287.560404 
L 220.824484 291.514897 
L 221.392013 293.831249 
L 221.959542 295.192855 
L 222.527072 295.99829 
L 223.175676 296.530922 
L 223.986432 296.887395 
L 225.202566 297.136433 
L 227.553758 297.336002 
L 231.865403 297.54325 
L 231.867674 297.493063 
L 231.898192 293.489054 
L 232.064054 229.406278 
L 232.303493 178.0358 
L 232.430761 173.971464 
L 232.460925 174.359918 
L 232.611749 180.850132 
L 234.007684 261.814829 
L 234.55504 275.677081 
L 235.102396 283.944776 
L 235.649752 288.871947 
L 236.197108 291.811515 
L 236.744464 293.569803 
L 237.29182 294.626448 
L 237.907595 295.326529 
L 238.59179 295.764783 
L 239.481243 296.064007 
L 240.918053 296.28537 
L 244.475866 296.534326 
L 246.972588 296.642637 
L 246.975064 296.579343 
L 247.007169 292.060484 
L 247.230427 208.712197 
L 247.461945 174.182492 
L 247.521572 173.048355 
L 247.58387 173.838301 
L 247.739616 181.278787 
L 248.939835 254.791808 
L 249.447559 270.203152 
L 249.955283 279.758413 
L 250.463007 285.671189 
L 250.970732 289.331449 
L 251.478456 291.600928 
L 251.98618 293.012304 
L 252.566436 293.990258 
L 253.219225 294.621631 
L 253.944545 295.008371 
L 254.959993 295.284056 
L 256.773294 295.50339 
L 262.077991 295.833021 
L 262.099946 294.020169 
L 262.199643 259.43064 
L 262.492411 178.497239 
L 262.632753 172.218192 
L 262.663951 172.465514 
L 262.788742 177.050403 
L 263.194312 206.159608 
L 263.814266 244.106651 
L 264.347657 263.980712 
L 264.858671 275.653934 
L 265.369686 282.858056 
L 265.880701 287.303285 
L 266.391716 290.049636 
L 266.902731 291.750822 
L 267.486748 292.923943 
L 268.070765 293.612859 
L 268.727784 294.062664 
L 269.60381 294.384833 
L 270.99085 294.624896 
L 274.202944 294.886572 
L 277.18493 295.063133 
L 277.18858 294.978761 
L 277.221049 290.341834 
L 277.734673 171.457403 
L 277.787521 172.014961 
L 277.94893 179.431527 
L 279.216875 255.568475 
L 279.744206 270.525156 
L 280.271538 279.624827 
L 280.79887 285.153765 
L 281.326201 288.51621 
L 281.853533 290.565962 
L 282.380865 291.820867 
L 282.98353 292.678138 
L 283.661528 293.225478 
L 284.490192 293.58394 
L 285.695521 293.83865 
L 288.181514 294.082796 
L 292.29146 294.353417 
L 292.294526 294.290368 
L 292.326066 290.028027 
L 292.51371 218.034368 
L 292.744384 173.822727 
L 292.852525 170.756788 
L 292.882248 171.070693 
L 293.001138 175.524884 
L 293.373595 202.131769 
L 294.010723 241.838251 
L 294.555341 262.354956 
L 295.05445 273.880611 
L 295.55356 281.075702 
L 296.052669 285.566776 
L 296.551778 288.373707 
L 297.122188 290.323711 
L 297.692599 291.473741 
L 298.263009 292.159081 
L 298.976022 292.650748 
L 299.902939 292.983571 
L 301.328966 293.226516 
L 304.82273 293.52574 
L 307.398325 293.691651 
L 307.401427 293.624448 
L 307.43392 289.091351 
L 307.653795 206.736279 
L 307.880702 171.547122 
L 307.964309 170.123807 
L 307.992178 170.470943 
L 308.131522 176.194279 
L 308.707198 217.722253 
L 309.238297 246.66333 
L 309.75429 264.261019 
L 310.270284 275.10578 
L 310.786277 281.768081 
L 311.302271 285.862393 
L 311.818264 288.383205 
L 312.334258 289.940671 
L 312.91475 291.000717 
L 313.495243 291.629245 
L 314.204734 292.072031 
L 315.172222 292.388125 
L 316.784701 292.63651 
L 321.204239 293.003046 
L 323.129445 293.14616 
L 323.129445 293.14616 
" clip-path="url(#pb5d9e20c4e)" style="fill: none; stroke: #0000ff; stroke-width: 1.5; stroke-linecap: square"/>
   </g>
   <g id="line2d_15">
    <path d="M 111.136364 264.940638 
L 111.321133 139.064294 
L 111.635856 148.207145 
L 111.950578 206.164436 
L 112.265301 231.300498 
L 113.524191 272.336007 
L 114.783082 285.465245 
L 116.041972 289.726357 
L 117.300863 294.643436 
L 118.559753 297.094022 
L 122.336424 301.351406 
L 126.113096 301.315382 
L 307.535082 256.861553 
L 307.708038 111.676528 
L 308.02276 141.860825 
L 308.337483 192.27104 
L 308.652205 225.095418 
L 309.911096 262.485285 
L 311.169986 275.897854 
L 312.428877 279.419931 
L 313.687767 288.260355 
L 314.946658 293.576272 
L 318.723329 299.374531 
L 322.5 300.006669 
" clip-path="url(#pb5d9e20c4e)" style="fill: none; stroke: #000000; stroke-width: 1.5; stroke-linecap: square"/>
    <defs>
     <path id="m43931ffabe" d="M -5 5 
L 5 5 
L 5 -5 
L -5 -5 
z
" style="stroke: #000000; stroke-linejoin: miter"/>
    </defs>
    <g clip-path="url(#pb5d9e20c4e)">
     <use xlink:href="#m43931ffabe" x="111.136364" y="264.940638" style="stroke: #000000; stroke-linejoin: miter"/>
     <use xlink:href="#m43931ffabe" x="111.321133" y="139.064294" style="stroke: #000000; stroke-linejoin: miter"/>
     <use xlink:href="#m43931ffabe" x="111.635856" y="148.207145" style="stroke: #000000; stroke-linejoin: miter"/>
     <use xlink:href="#m43931ffabe" x="111.950578" y="206.164436" style="stroke: #000000; stroke-linejoin: miter"/>
     <use xlink:href="#m43931ffabe" x="112.265301" y="231.300498" style="stroke: #000000; stroke-linejoin: miter"/>
     <use xlink:href="#m43931ffabe" x="113.524191" y="272.336007" style="stroke: #000000; stroke-linejoin: miter"/>
     <use xlink:href="#m43931ffabe" x="114.783082" y="285.465245" style="stroke: #000000; stroke-linejoin: miter"/>
     <use xlink:href="#m43931ffabe" x="116.041972" y="289.726357" style="stroke: #000000; stroke-linejoin: miter"/>
     <use xlink:href="#m43931ffabe" x="117.300863" y="294.643436" style="stroke: #000000; stroke-linejoin: miter"/>
     <use xlink:href="#m43931ffabe" x="118.559753" y="297.094022" style="stroke: #000000; stroke-linejoin: miter"/>
     <use xlink:href="#m43931ffabe" x="122.336424" y="301.351406" style="stroke: #000000; stroke-linejoin: miter"/>
     <use xlink:href="#m43931ffabe" x="126.113096" y="301.315382" style="stroke: #000000; stroke-linejoin: miter"/>
     <use xlink:href="#m43931ffabe" x="307.535082" y="256.861553" style="stroke: #000000; stroke-linejoin: miter"/>
     <use xlink:href="#m43931ffabe" x="307.708038" y="111.676528" style="stroke: #000000; stroke-linejoin: miter"/>
     <use xlink:href="#m43931ffabe" x="308.02276" y="141.860825" style="stroke: #000000; stroke-linejoin: miter"/>
     <use xlink:href="#m43931ffabe" x="308.337483" y="192.27104" style="stroke: #000000; stroke-linejoin: miter"/>
     <use xlink:href="#m43931ffabe" x="308.652205" y="225.095418" style="stroke: #000000; stroke-linejoin: miter"/>
     <use xlink:href="#m43931ffabe" x="309.911096" y="262.485285" style="stroke: #000000; stroke-linejoin: miter"/>
     <use xlink:href="#m43931ffabe" x="311.169986" y="275.897854" style="stroke: #000000; stroke-linejoin: miter"/>
     <use xlink:href="#m43931ffabe" x="312.428877" y="279.419931" style="stroke: #000000; stroke-linejoin: miter"/>
     <use xlink:href="#m43931ffabe" x="313.687767" y="288.260355" style="stroke: #000000; stroke-linejoin: miter"/>
     <use xlink:href="#m43931ffabe" x="314.946658" y="293.576272" style="stroke: #000000; stroke-linejoin: miter"/>
     <use xlink:href="#m43931ffabe" x="318.723329" y="299.374531" style="stroke: #000000; stroke-linejoin: miter"/>
     <use xlink:href="#m43931ffabe" x="322.5" y="300.006669" style="stroke: #000000; stroke-linejoin: miter"/>
    </g>
   </g>
   <g id="patch_3">
    <path d="M 90 320.4 
L 90 43.2 
" style="fill: none; stroke: #000000; stroke-width: 0.8; stroke-linejoin: miter; stroke-linecap: square"/>
   </g>
   <g id="patch_4">
    <path d="M 343.636364 320.4 
L 343.636364 43.2 
" style="fill: none; stroke: #000000; stroke-width: 0.8; stroke-linejoin: miter; stroke-linecap: square"/>
   </g>
   <g id="patch_5">
    <path d="M 90 320.4 
L 343.636364 320.4 
" style="fill: none; stroke: #000000; stroke-width: 0.8; stroke-linejoin: miter; stroke-linecap: square"/>
   </g>
   <g id="patch_6">
    <path d="M 90 43.2 
L 343.636364 43.2 
" style="fill: none; stroke: #000000; stroke-width: 0.8; stroke-linejoin: miter; stroke-linecap: square"/>
   </g>
   <g id="text_16">
    <!-- Kasichayanula2011a fm_dap2.5_dapagliflozin -->
    <g transform="translate(56.885682 37.2) scale(0.14 -0.14)">
     <defs>
      <path id="DejaVuSans-4b" d="M 628 4666 
L 1259 4666 
L 1259 2694 
L 3353 4666 
L 4166 4666 
L 1850 2491 
L 4331 0 
L 3500 0 
L 1259 2247 
L 1259 0 
L 628 0 
L 628 4666 
z
" transform="scale(0.015625)"/>
      <path id="DejaVuSans-73" d="M 2834 3397 
L 2834 2853 
Q 2591 2978 2328 3040 
Q 2066 3103 1784 3103 
Q 1356 3103 1142 2972 
Q 928 2841 928 2578 
Q 928 2378 1081 2264 
Q 1234 2150 1697 2047 
L 1894 2003 
Q 2506 1872 2764 1633 
Q 3022 1394 3022 966 
Q 3022 478 2636 193 
Q 2250 -91 1575 -91 
Q 1294 -91 989 -36 
Q 684 19 347 128 
L 347 722 
Q 666 556 975 473 
Q 1284 391 1588 391 
Q 1994 391 2212 530 
Q 2431 669 2431 922 
Q 2431 1156 2273 1281 
Q 2116 1406 1581 1522 
L 1381 1569 
Q 847 1681 609 1914 
Q 372 2147 372 2553 
Q 372 3047 722 3315 
Q 1072 3584 1716 3584 
Q 2034 3584 2315 3537 
Q 2597 3491 2834 3397 
z
" transform="scale(0.015625)"/>
      <path id="DejaVuSans-63" d="M 3122 3366 
L 3122 2828 
Q 2878 2963 2633 3030 
Q 2388 3097 2138 3097 
Q 1578 3097 1268 2742 
Q 959 2388 959 1747 
Q 959 1106 1268 751 
Q 1578 397 2138 397 
Q 2388 397 2633 464 
Q 2878 531 3122 666 
L 3122 134 
Q 2881 22 2623 -34 
Q 2366 -91 2075 -91 
Q 1284 -91 818 406 
Q 353 903 353 1747 
Q 353 2603 823 3093 
Q 1294 3584 2113 3584 
Q 2378 3584 2631 3529 
Q 2884 3475 3122 3366 
z
" transform="scale(0.015625)"/>
      <path id="DejaVuSans-68" d="M 3513 2113 
L 3513 0 
L 2938 0 
L 2938 2094 
Q 2938 2591 2744 2837 
Q 2550 3084 2163 3084 
Q 1697 3084 1428 2787 
Q 1159 2491 1159 1978 
L 1159 0 
L 581 0 
L 581 4863 
L 1159 4863 
L 1159 2956 
Q 1366 3272 1645 3428 
Q 1925 3584 2291 3584 
Q 2894 3584 3203 3211 
Q 3513 2838 3513 2113 
z
" transform="scale(0.015625)"/>
      <path id="DejaVuSans-79" d="M 2059 -325 
Q 1816 -950 1584 -1140 
Q 1353 -1331 966 -1331 
L 506 -1331 
L 506 -850 
L 844 -850 
Q 1081 -850 1212 -737 
Q 1344 -625 1503 -206 
L 1606 56 
L 191 3500 
L 800 3500 
L 1894 763 
L 2988 3500 
L 3597 3500 
L 2059 -325 
z
" transform="scale(0.015625)"/>
      <path id="DejaVuSans-6e" d="M 3513 2113 
L 3513 0 
L 2938 0 
L 2938 2094 
Q 2938 2591 2744 2837 
Q 2550 3084 2163 3084 
Q 1697 3084 1428 2787 
Q 1159 2491 1159 1978 
L 1159 0 
L 581 0 
L 581 3500 
L 1159 3500 
L 1159 2956 
Q 1366 3272 1645 3428 
Q 1925 3584 2291 3584 
Q 2894 3584 3203 3211 
Q 3513 2838 3513 2113 
z
" transform="scale(0.015625)"/>
      <path id="DejaVuSans-75" d="M 544 1381 
L 544 3500 
L 1119 3500 
L 1119 1403 
Q 1119 906 1312 657 
Q 1506 409 1894 409 
Q 2359 409 2629 706 
Q 2900 1003 2900 1516 
L 2900 3500 
L 3475 3500 
L 3475 0 
L 2900 0 
L 2900 538 
Q 2691 219 2414 64 
Q 2138 -91 1772 -91 
Q 1169 -91 856 284 
Q 544 659 544 1381 
z
M 1991 3584 
L 1991 3584 
z
" transform="scale(0.015625)"/>
      <path id="DejaVuSans-6c" d="M 603 4863 
L 1178 4863 
L 1178 0 
L 603 0 
L 603 4863 
z
" transform="scale(0.015625)"/>
      <path id="DejaVuSans-20" transform="scale(0.015625)"/>
      <path id="DejaVuSans-66" d="M 2375 4863 
L 2375 4384 
L 1825 4384 
Q 1516 4384 1395 4259 
Q 1275 4134 1275 3809 
L 1275 3500 
L 2222 3500 
L 2222 3053 
L 1275 3053 
L 1275 0 
L 697 0 
L 697 3053 
L 147 3053 
L 147 3500 
L 697 3500 
L 697 3744 
Q 697 4328 969 4595 
Q 1241 4863 1831 4863 
L 2375 4863 
z
" transform="scale(0.015625)"/>
      <path id="DejaVuSans-67" d="M 2906 1791 
Q 2906 2416 2648 2759 
Q 2391 3103 1925 3103 
Q 1463 3103 1205 2759 
Q 947 2416 947 1791 
Q 947 1169 1205 825 
Q 1463 481 1925 481 
Q 2391 481 2648 825 
Q 2906 1169 2906 1791 
z
M 3481 434 
Q 3481 -459 3084 -895 
Q 2688 -1331 1869 -1331 
Q 1566 -1331 1297 -1286 
Q 1028 -1241 775 -1147 
L 775 -588 
Q 1028 -725 1275 -790 
Q 1522 -856 1778 -856 
Q 2344 -856 2625 -561 
Q 2906 -266 2906 331 
L 2906 616 
Q 2728 306 2450 153 
Q 2172 0 1784 0 
Q 1141 0 747 490 
Q 353 981 353 1791 
Q 353 2603 747 3093 
Q 1141 3584 1784 3584 
Q 2172 3584 2450 3431 
Q 2728 3278 2906 2969 
L 2906 3500 
L 3481 3500 
L 3481 434 
z
" transform="scale(0.015625)"/>
      <path id="DejaVuSans-6f" d="M 1959 3097 
Q 1497 3097 1228 2736 
Q 959 2375 959 1747 
Q 959 1119 1226 758 
Q 1494 397 1959 397 
Q 2419 397 2687 759 
Q 2956 1122 2956 1747 
Q 2956 2369 2687 2733 
Q 2419 3097 1959 3097 
z
M 1959 3584 
Q 2709 3584 3137 3096 
Q 3566 2609 3566 1747 
Q 3566 888 3137 398 
Q 2709 -91 1959 -91 
Q 1206 -91 779 398 
Q 353 888 353 1747 
Q 353 2609 779 3096 
Q 1206 3584 1959 3584 
z
" transform="scale(0.015625)"/>
      <path id="DejaVuSans-7a" d="M 353 3500 
L 3084 3500 
L 3084 2975 
L 922 459 
L 3084 459 
L 3084 0 
L 275 0 
L 275 525 
L 2438 3041 
L 353 3041 
L 353 3500 
z
" transform="scale(0.015625)"/>
     </defs>
     <use xlink:href="#DejaVuSans-4b"/>
     <use xlink:href="#DejaVuSans-61" x="63.826172"/>
     <use xlink:href="#DejaVuSans-73" x="125.105469"/>
     <use xlink:href="#DejaVuSans-69" x="177.205078"/>
     <use xlink:href="#DejaVuSans-63" x="204.988281"/>
     <use xlink:href="#DejaVuSans-68" x="259.96875"/>
     <use xlink:href="#DejaVuSans-61" x="323.347656"/>
     <use xlink:href="#DejaVuSans-79" x="384.626953"/>
     <use xlink:href="#DejaVuSans-61" x="443.806641"/>
     <use xlink:href="#DejaVuSans-6e" x="505.085938"/>
     <use xlink:href="#DejaVuSans-75" x="568.464844"/>
     <use xlink:href="#DejaVuSans-6c" x="631.84375"/>
     <use xlink:href="#DejaVuSans-61" x="659.626953"/>
     <use xlink:href="#DejaVuSans-32" x="720.90625"/>
     <use xlink:href="#DejaVuSans-30" x="784.529297"/>
     <use xlink:href="#DejaVuSans-31" x="848.152344"/>
     <use xlink:href="#DejaVuSans-31" x="911.775391"/>
     <use xlink:href="#DejaVuSans-61" x="975.398438"/>
     <use xlink:href="#DejaVuSans-20" x="1036.677734"/>
     <use xlink:href="#DejaVuSans-66" x="1068.464844"/>
     <use xlink:href="#DejaVuSans-6d" x="1103.669922"/>
     <use xlink:href="#DejaVuSans-5f" x="1201.082031"/>
     <use xlink:href="#DejaVuSans-64" x="1251.082031"/>
     <use xlink:href="#DejaVuSans-61" x="1314.558594"/>
     <use xlink:href="#DejaVuSans-70" x="1375.837891"/>
     <use xlink:href="#DejaVuSans-32" x="1439.314453"/>
     <use xlink:href="#DejaVuSans-2e" x="1502.9375"/>
     <use xlink:href="#DejaVuSans-35" x="1534.724609"/>
     <use xlink:href="#DejaVuSans-5f" x="1598.347656"/>
     <use xlink:href="#DejaVuSans-64" x="1648.347656"/>
     <use xlink:href="#DejaVuSans-61" x="1711.824219"/>
     <use xlink:href="#DejaVuSans-70" x="1773.103516"/>
     <use xlink:href="#DejaVuSans-61" x="1836.580078"/>
     <use xlink:href="#DejaVuSans-67" x="1897.859375"/>
     <use xlink:href="#DejaVuSans-6c" x="1961.335938"/>
     <use xlink:href="#DejaVuSans-69" x="1989.119141"/>
     <use xlink:href="#DejaVuSans-66" x="2016.902344"/>
     <use xlink:href="#DejaVuSans-6c" x="2052.107422"/>
     <use xlink:href="#DejaVuSans-6f" x="2079.890625"/>
     <use xlink:href="#DejaVuSans-7a" x="2141.072266"/>
     <use xlink:href="#DejaVuSans-69" x="2193.5625"/>
     <use xlink:href="#DejaVuSans-6e" x="2221.345703"/>
    </g>
   </g>
   <g id="legend_1">
    <g id="patch_7">
     <path d="M 200.586364 80.834375 
L 336.636364 80.834375 
Q 338.636364 80.834375 338.636364 78.834375 
L 338.636364 50.2 
Q 338.636364 48.2 336.636364 48.2 
L 200.586364 48.2 
Q 198.586364 48.2 198.586364 50.2 
L 198.586364 78.834375 
Q 198.586364 80.834375 200.586364 80.834375 
z
" style="fill: #ffffff; opacity: 0.8; stroke: #cccccc; stroke-linejoin: miter"/>
    </g>
    <g id="line2d_16">
     <path d="M 202.586364 56.298437 
L 212.586364 56.298437 
L 222.586364 56.298437 
" style="fill: none; stroke: #0000ff; stroke-width: 1.5; stroke-linecap: square"/>
    </g>
    <g id="text_17">
     <!-- observable -->
     <g transform="translate(230.586364 59.798437) scale(0.1 -0.1)">
      <defs>
       <path id="DejaVuSans-62" d="M 3116 1747 
Q 3116 2381 2855 2742 
Q 2594 3103 2138 3103 
Q 1681 3103 1420 2742 
Q 1159 2381 1159 1747 
Q 1159 1113 1420 752 
Q 1681 391 2138 391 
Q 2594 391 2855 752 
Q 3116 1113 3116 1747 
z
M 1159 2969 
Q 1341 3281 1617 3432 
Q 1894 3584 2278 3584 
Q 2916 3584 3314 3078 
Q 3713 2572 3713 1747 
Q 3713 922 3314 415 
Q 2916 -91 2278 -91 
Q 1894 -91 1617 61 
Q 1341 213 1159 525 
L 1159 0 
L 581 0 
L 581 4863 
L 1159 4863 
L 1159 2969 
z
" transform="scale(0.015625)"/>
       <path id="DejaVuSans-72" d="M 2631 2963 
Q 2534 3019 2420 3045 
Q 2306 3072 2169 3072 
Q 1681 3072 1420 2755 
Q 1159 2438 1159 1844 
L 1159 0 
L 581 0 
L 581 3500 
L 1159 3500 
L 1159 2956 
Q 1341 3275 1631 3429 
Q 1922 3584 2338 3584 
Q 2397 3584 2469 3576 
Q 2541 3569 2628 3553 
L 2631 2963 
z
" transform="scale(0.015625)"/>
      </defs>
      <use xlink:href="#DejaVuSans-6f"/>
      <use xlink:href="#DejaVuSans-62" x="61.181641"/>
      <use xlink:href="#DejaVuSans-73" x="124.658203"/>
      <use xlink:href="#DejaVuSans-65" x="176.757812"/>
      <use xlink:href="#DejaVuSans-72" x="238.28125"/>
      <use xlink:href="#DejaVuSans-76" x="279.394531"/>
      <use xlink:href="#DejaVuSans-61" x="338.574219"/>
      <use xlink:href="#DejaVuSans-62" x="399.853516"/>
      <use xlink:href="#DejaVuSans-6c" x="463.330078"/>
      <use xlink:href="#DejaVuSans-65" x="491.113281"/>
     </g>
    </g>
    <g id="LineCollection_2">
     <path d="M 212.586364 75.976562 
L 212.586364 65.976562 
" style="fill: none; stroke: #000000; stroke-width: 1.5"/>
    </g>
    <g id="line2d_17">
     <path d="M 202.586364 70.976562 
L 222.586364 70.976562 
" style="fill: none; stroke: #000000; stroke-width: 1.5; stroke-linecap: square"/>
    </g>
    <g id="line2d_18">
     <g>
      <use xlink:href="#m43931ffabe" x="212.586364" y="70.976562" style="stroke: #000000; stroke-linejoin: miter"/>
     </g>
    </g>
    <g id="text_18">
     <!-- reference_data ± SD -->
     <g transform="translate(230.586364 74.476562) scale(0.1 -0.1)">
      <defs>
       <path id="DejaVuSans-b1" d="M 2944 4013 
L 2944 2803 
L 4684 2803 
L 4684 2272 
L 2944 2272 
L 2944 1063 
L 2419 1063 
L 2419 2272 
L 678 2272 
L 678 2803 
L 2419 2803 
L 2419 4013 
L 2944 4013 
z
M 678 531 
L 4684 531 
L 4684 0 
L 678 0 
L 678 531 
z
" transform="scale(0.015625)"/>
       <path id="DejaVuSans-53" d="M 3425 4513 
L 3425 3897 
Q 3066 4069 2747 4153 
Q 2428 4238 2131 4238 
Q 1616 4238 1336 4038 
Q 1056 3838 1056 3469 
Q 1056 3159 1242 3001 
Q 1428 2844 1947 2747 
L 2328 2669 
Q 3034 2534 3370 2195 
Q 3706 1856 3706 1288 
Q 3706 609 3251 259 
Q 2797 -91 1919 -91 
Q 1588 -91 1214 -16 
Q 841 59 441 206 
L 441 856 
Q 825 641 1194 531 
Q 1563 422 1919 422 
Q 2459 422 2753 634 
Q 3047 847 3047 1241 
Q 3047 1584 2836 1778 
Q 2625 1972 2144 2069 
L 1759 2144 
Q 1053 2284 737 2584 
Q 422 2884 422 3419 
Q 422 4038 858 4394 
Q 1294 4750 2059 4750 
Q 2388 4750 2728 4690 
Q 3069 4631 3425 4513 
z
" transform="scale(0.015625)"/>
       <path id="DejaVuSans-44" d="M 1259 4147 
L 1259 519 
L 2022 519 
Q 2988 519 3436 956 
Q 3884 1394 3884 2338 
Q 3884 3275 3436 3711 
Q 2988 4147 2022 4147 
L 1259 4147 
z
M 628 4666 
L 1925 4666 
Q 3281 4666 3915 4102 
Q 4550 3538 4550 2338 
Q 4550 1131 3912 565 
Q 3275 0 1925 0 
L 628 0 
L 628 4666 
z
" transform="scale(0.015625)"/>
      </defs>
      <use xlink:href="#DejaVuSans-72"/>
      <use xlink:href="#DejaVuSans-65" x="38.863281"/>
      <use xlink:href="#DejaVuSans-66" x="100.386719"/>
      <use xlink:href="#DejaVuSans-65" x="135.591797"/>
      <use xlink:href="#DejaVuSans-72" x="197.115234"/>
      <use xlink:href="#DejaVuSans-65" x="235.978516"/>
      <use xlink:href="#DejaVuSans-6e" x="297.501953"/>
      <use xlink:href="#DejaVuSans-63" x="360.880859"/>
      <use xlink:href="#DejaVuSans-65" x="415.861328"/>
      <use xlink:href="#DejaVuSans-5f" x="477.384766"/>
      <use xlink:href="#DejaVuSans-64" x="527.384766"/>
      <use xlink:href="#DejaVuSans-61" x="590.861328"/>
      <use xlink:href="#DejaVuSans-74" x="652.140625"/>
      <use xlink:href="#DejaVuSans-61" x="691.349609"/>
      <use xlink:href="#DejaVuSans-20" x="752.628906"/>
      <use xlink:href="#DejaVuSans-b1" x="784.416016"/>
      <use xlink:href="#DejaVuSans-20" x="868.205078"/>
      <use xlink:href="#DejaVuSans-53" x="899.992188"/>
      <use xlink:href="#DejaVuSans-44" x="963.46875"/>
     </g>
    </g>
   </g>
  </g>
  <g id="axes_2">
   <g id="patch_8">
    <path d="M 394.363636 320.4 
L 648 320.4 
L 648 43.2 
L 394.363636 43.2 
z
" style="fill: #ffffff"/>
   </g>
   <g id="matplotlib.axis_3">
    <g id="xtick_6">
     <g id="line2d_19">
      <g>
       <use xlink:href="#m240e873bca" x="415.370047" y="320.4" style="stroke: #000000; stroke-width: 0.8"/>
      </g>
     </g>
     <g id="text_19">
      <!-- 0 -->
      <g transform="translate(412.188797 334.998438) scale(0.1 -0.1)">
       <use xlink:href="#DejaVuSans-30"/>
      </g>
     </g>
    </g>
    <g id="xtick_7">
     <g id="line2d_20">
      <g>
       <use xlink:href="#m240e873bca" x="467.823814" y="320.4" style="stroke: #000000; stroke-width: 0.8"/>
      </g>
     </g>
     <g id="text_20">
      <!-- 5000 -->
      <g transform="translate(455.098814 334.998438) scale(0.1 -0.1)">
       <use xlink:href="#DejaVuSans-35"/>
       <use xlink:href="#DejaVuSans-30" x="63.623047"/>
       <use xlink:href="#DejaVuSans-30" x="127.246094"/>
       <use xlink:href="#DejaVuSans-30" x="190.869141"/>
      </g>
     </g>
    </g>
    <g id="xtick_8">
     <g id="line2d_21">
      <g>
       <use xlink:href="#m240e873bca" x="520.277581" y="320.4" style="stroke: #000000; stroke-width: 0.8"/>
      </g>
     </g>
     <g id="text_21">
      <!-- 10000 -->
      <g transform="translate(504.371331 334.998438) scale(0.1 -0.1)">
       <use xlink:href="#DejaVuSans-31"/>
       <use xlink:href="#DejaVuSans-30" x="63.623047"/>
       <use xlink:href="#DejaVuSans-30" x="127.246094"/>
       <use xlink:href="#DejaVuSans-30" x="190.869141"/>
       <use xlink:href="#DejaVuSans-30" x="254.492188"/>
      </g>
     </g>
    </g>
    <g id="xtick_9">
     <g id="line2d_22">
      <g>
       <use xlink:href="#m240e873bca" x="572.731349" y="320.4" style="stroke: #000000; stroke-width: 0.8"/>
      </g>
     </g>
     <g id="text_22">
      <!-- 15000 -->
      <g transform="translate(556.825099 334.998438) scale(0.1 -0.1)">
       <use xlink:href="#DejaVuSans-31"/>
       <use xlink:href="#DejaVuSans-35" x="63.623047"/>
       <use xlink:href="#DejaVuSans-30" x="127.246094"/>
       <use xlink:href="#DejaVuSans-30" x="190.869141"/>
       <use xlink:href="#DejaVuSans-30" x="254.492188"/>
      </g>
     </g>
    </g>
    <g id="xtick_10">
     <g id="line2d_23">
      <g>
       <use xlink:href="#m240e873bca" x="625.185116" y="320.4" style="stroke: #000000; stroke-width: 0.8"/>
      </g>
     </g>
     <g id="text_23">
      <!-- 20000 -->
      <g transform="translate(609.278866 334.998438) scale(0.1 -0.1)">
       <use xlink:href="#DejaVuSans-32"/>
       <use xlink:href="#DejaVuSans-30" x="63.623047"/>
       <use xlink:href="#DejaVuSans-30" x="127.246094"/>
       <use xlink:href="#DejaVuSans-30" x="190.869141"/>
       <use xlink:href="#DejaVuSans-30" x="254.492188"/>
      </g>
     </g>
    </g>
    <g id="text_24">
     <!-- time -->
     <g transform="translate(507.626506 350.19625) scale(0.12 -0.12)">
      <use xlink:href="#DejaVuSans-74"/>
      <use xlink:href="#DejaVuSans-69" x="39.208984"/>
      <use xlink:href="#DejaVuSans-6d" x="66.992188"/>
      <use xlink:href="#DejaVuSans-65" x="164.404297"/>
     </g>
    </g>
   </g>
   <g id="matplotlib.axis_4">
    <g id="ytick_9">
     <g id="line2d_24">
      <g>
       <use xlink:href="#m6a115965bc" x="394.363636" y="257.178404" style="stroke: #000000; stroke-width: 0.8"/>
      </g>
     </g>
     <g id="text_25">
      <!-- $\mathdefault{10^{-5}}$ -->
      <g transform="translate(363.863636 260.977623) scale(0.1 -0.1)">
       <defs>
        <path id="DejaVuSans-2212" d="M 678 2272 
L 4684 2272 
L 4684 1741 
L 678 1741 
L 678 2272 
z
" transform="scale(0.015625)"/>
       </defs>
       <use xlink:href="#DejaVuSans-31" transform="translate(0 0.684375)"/>
       <use xlink:href="#DejaVuSans-30" transform="translate(63.623047 0.684375)"/>
       <use xlink:href="#DejaVuSans-2212" transform="translate(128.203125 38.965625) scale(0.7)"/>
       <use xlink:href="#DejaVuSans-35" transform="translate(186.855469 38.965625) scale(0.7)"/>
      </g>
     </g>
    </g>
    <g id="ytick_10">
     <g id="line2d_25">
      <g>
       <use xlink:href="#m6a115965bc" x="394.363636" y="190.330829" style="stroke: #000000; stroke-width: 0.8"/>
      </g>
     </g>
     <g id="text_26">
      <!-- $\mathdefault{10^{-4}}$ -->
      <g transform="translate(363.863636 194.130048) scale(0.1 -0.1)">
       <use xlink:href="#DejaVuSans-31" transform="translate(0 0.684375)"/>
       <use xlink:href="#DejaVuSans-30" transform="translate(63.623047 0.684375)"/>
       <use xlink:href="#DejaVuSans-2212" transform="translate(128.203125 38.965625) scale(0.7)"/>
       <use xlink:href="#DejaVuSans-34" transform="translate(186.855469 38.965625) scale(0.7)"/>
      </g>
     </g>
    </g>
    <g id="ytick_11">
     <g id="line2d_26">
      <g>
       <use xlink:href="#m6a115965bc" x="394.363636" y="123.483254" style="stroke: #000000; stroke-width: 0.8"/>
      </g>
     </g>
     <g id="text_27">
      <!-- $\mathdefault{10^{-3}}$ -->
      <g transform="translate(363.863636 127.282473) scale(0.1 -0.1)">
       <defs>
        <path id="DejaVuSans-33" d="M 2597 2516 
Q 3050 2419 3304 2112 
Q 3559 1806 3559 1356 
Q 3559 666 3084 287 
Q 2609 -91 1734 -91 
Q 1441 -91 1130 -33 
Q 819 25 488 141 
L 488 750 
Q 750 597 1062 519 
Q 1375 441 1716 441 
Q 2309 441 2620 675 
Q 2931 909 2931 1356 
Q 2931 1769 2642 2001 
Q 2353 2234 1838 2234 
L 1294 2234 
L 1294 2753 
L 1863 2753 
Q 2328 2753 2575 2939 
Q 2822 3125 2822 3475 
Q 2822 3834 2567 4026 
Q 2313 4219 1838 4219 
Q 1578 4219 1281 4162 
Q 984 4106 628 3988 
L 628 4550 
Q 988 4650 1302 4700 
Q 1616 4750 1894 4750 
Q 2613 4750 3031 4423 
Q 3450 4097 3450 3541 
Q 3450 3153 3228 2886 
Q 3006 2619 2597 2516 
z
" transform="scale(0.015625)"/>
       </defs>
       <use xlink:href="#DejaVuSans-31" transform="translate(0 0.765625)"/>
       <use xlink:href="#DejaVuSans-30" transform="translate(63.623047 0.765625)"/>
       <use xlink:href="#DejaVuSans-2212" transform="translate(128.203125 39.046875) scale(0.7)"/>
       <use xlink:href="#DejaVuSans-33" transform="translate(186.855469 39.046875) scale(0.7)"/>
      </g>
     </g>
    </g>
    <g id="ytick_12">
     <g id="line2d_27">
      <g>
       <use xlink:href="#m6a115965bc" x="394.363636" y="56.635679" style="stroke: #000000; stroke-width: 0.8"/>
      </g>
     </g>
     <g id="text_28">
      <!-- $\mathdefault{10^{-2}}$ -->
      <g transform="translate(363.863636 60.434898) scale(0.1 -0.1)">
       <use xlink:href="#DejaVuSans-31" transform="translate(0 0.765625)"/>
       <use xlink:href="#DejaVuSans-30" transform="translate(63.623047 0.765625)"/>
       <use xlink:href="#DejaVuSans-2212" transform="translate(128.203125 39.046875) scale(0.7)"/>
       <use xlink:href="#DejaVuSans-32" transform="translate(186.855469 39.046875) scale(0.7)"/>
      </g>
     </g>
    </g>
    <g id="ytick_13">
     <g id="line2d_28">
      <defs>
       <path id="mb1ebf014e6" d="M 0 0 
L -2 0 
" style="stroke: #000000; stroke-width: 0.6"/>
      </defs>
      <g>
       <use xlink:href="#mb1ebf014e6" x="394.363636" y="303.902854" style="stroke: #000000; stroke-width: 0.6"/>
      </g>
     </g>
    </g>
    <g id="ytick_14">
     <g id="line2d_29">
      <g>
       <use xlink:href="#mb1ebf014e6" x="394.363636" y="292.131581" style="stroke: #000000; stroke-width: 0.6"/>
      </g>
     </g>
    </g>
    <g id="ytick_15">
     <g id="line2d_30">
      <g>
       <use xlink:href="#mb1ebf014e6" x="394.363636" y="283.779729" style="stroke: #000000; stroke-width: 0.6"/>
      </g>
     </g>
    </g>
    <g id="ytick_16">
     <g id="line2d_31">
      <g>
       <use xlink:href="#mb1ebf014e6" x="394.363636" y="277.30153" style="stroke: #000000; stroke-width: 0.6"/>
      </g>
     </g>
    </g>
    <g id="ytick_17">
     <g id="line2d_32">
      <g>
       <use xlink:href="#mb1ebf014e6" x="394.363636" y="272.008455" style="stroke: #000000; stroke-width: 0.6"/>
      </g>
     </g>
    </g>
    <g id="ytick_18">
     <g id="line2d_33">
      <g>
       <use xlink:href="#mb1ebf014e6" x="394.363636" y="267.533225" style="stroke: #000000; stroke-width: 0.6"/>
      </g>
     </g>
    </g>
    <g id="ytick_19">
     <g id="line2d_34">
      <g>
       <use xlink:href="#mb1ebf014e6" x="394.363636" y="263.656604" style="stroke: #000000; stroke-width: 0.6"/>
      </g>
     </g>
    </g>
    <g id="ytick_20">
     <g id="line2d_35">
      <g>
       <use xlink:href="#mb1ebf014e6" x="394.363636" y="260.237182" style="stroke: #000000; stroke-width: 0.6"/>
      </g>
     </g>
    </g>
    <g id="ytick_21">
     <g id="line2d_36">
      <g>
       <use xlink:href="#mb1ebf014e6" x="394.363636" y="237.055279" style="stroke: #000000; stroke-width: 0.6"/>
      </g>
     </g>
    </g>
    <g id="ytick_22">
     <g id="line2d_37">
      <g>
       <use xlink:href="#mb1ebf014e6" x="394.363636" y="225.284006" style="stroke: #000000; stroke-width: 0.6"/>
      </g>
     </g>
    </g>
    <g id="ytick_23">
     <g id="line2d_38">
      <g>
       <use xlink:href="#mb1ebf014e6" x="394.363636" y="216.932154" style="stroke: #000000; stroke-width: 0.6"/>
      </g>
     </g>
    </g>
    <g id="ytick_24">
     <g id="line2d_39">
      <g>
       <use xlink:href="#mb1ebf014e6" x="394.363636" y="210.453955" style="stroke: #000000; stroke-width: 0.6"/>
      </g>
     </g>
    </g>
    <g id="ytick_25">
     <g id="line2d_40">
      <g>
       <use xlink:href="#mb1ebf014e6" x="394.363636" y="205.16088" style="stroke: #000000; stroke-width: 0.6"/>
      </g>
     </g>
    </g>
    <g id="ytick_26">
     <g id="line2d_41">
      <g>
       <use xlink:href="#mb1ebf014e6" x="394.363636" y="200.68565" style="stroke: #000000; stroke-width: 0.6"/>
      </g>
     </g>
    </g>
    <g id="ytick_27">
     <g id="line2d_42">
      <g>
       <use xlink:href="#mb1ebf014e6" x="394.363636" y="196.809029" style="stroke: #000000; stroke-width: 0.6"/>
      </g>
     </g>
    </g>
    <g id="ytick_28">
     <g id="line2d_43">
      <g>
       <use xlink:href="#mb1ebf014e6" x="394.363636" y="193.389607" style="stroke: #000000; stroke-width: 0.6"/>
      </g>
     </g>
    </g>
    <g id="ytick_29">
     <g id="line2d_44">
      <g>
       <use xlink:href="#mb1ebf014e6" x="394.363636" y="170.207704" style="stroke: #000000; stroke-width: 0.6"/>
      </g>
     </g>
    </g>
    <g id="ytick_30">
     <g id="line2d_45">
      <g>
       <use xlink:href="#mb1ebf014e6" x="394.363636" y="158.436431" style="stroke: #000000; stroke-width: 0.6"/>
      </g>
     </g>
    </g>
    <g id="ytick_31">
     <g id="line2d_46">
      <g>
       <use xlink:href="#mb1ebf014e6" x="394.363636" y="150.084579" style="stroke: #000000; stroke-width: 0.6"/>
      </g>
     </g>
    </g>
    <g id="ytick_32">
     <g id="line2d_47">
      <g>
       <use xlink:href="#mb1ebf014e6" x="394.363636" y="143.60638" style="stroke: #000000; stroke-width: 0.6"/>
      </g>
     </g>
    </g>
    <g id="ytick_33">
     <g id="line2d_48">
      <g>
       <use xlink:href="#mb1ebf014e6" x="394.363636" y="138.313305" style="stroke: #000000; stroke-width: 0.6"/>
      </g>
     </g>
    </g>
    <g id="ytick_34">
     <g id="line2d_49">
      <g>
       <use xlink:href="#mb1ebf014e6" x="394.363636" y="133.838075" style="stroke: #000000; stroke-width: 0.6"/>
      </g>
     </g>
    </g>
    <g id="ytick_35">
     <g id="line2d_50">
      <g>
       <use xlink:href="#mb1ebf014e6" x="394.363636" y="129.961454" style="stroke: #000000; stroke-width: 0.6"/>
      </g>
     </g>
    </g>
    <g id="ytick_36">
     <g id="line2d_51">
      <g>
       <use xlink:href="#mb1ebf014e6" x="394.363636" y="126.542032" style="stroke: #000000; stroke-width: 0.6"/>
      </g>
     </g>
    </g>
    <g id="ytick_37">
     <g id="line2d_52">
      <g>
       <use xlink:href="#mb1ebf014e6" x="394.363636" y="103.360129" style="stroke: #000000; stroke-width: 0.6"/>
      </g>
     </g>
    </g>
    <g id="ytick_38">
     <g id="line2d_53">
      <g>
       <use xlink:href="#mb1ebf014e6" x="394.363636" y="91.588855" style="stroke: #000000; stroke-width: 0.6"/>
      </g>
     </g>
    </g>
    <g id="ytick_39">
     <g id="line2d_54">
      <g>
       <use xlink:href="#mb1ebf014e6" x="394.363636" y="83.237004" style="stroke: #000000; stroke-width: 0.6"/>
      </g>
     </g>
    </g>
    <g id="ytick_40">
     <g id="line2d_55">
      <g>
       <use xlink:href="#mb1ebf014e6" x="394.363636" y="76.758805" style="stroke: #000000; stroke-width: 0.6"/>
      </g>
     </g>
    </g>
    <g id="ytick_41">
     <g id="line2d_56">
      <g>
       <use xlink:href="#mb1ebf014e6" x="394.363636" y="71.46573" style="stroke: #000000; stroke-width: 0.6"/>
      </g>
     </g>
    </g>
    <g id="ytick_42">
     <g id="line2d_57">
      <g>
       <use xlink:href="#mb1ebf014e6" x="394.363636" y="66.9905" style="stroke: #000000; stroke-width: 0.6"/>
      </g>
     </g>
    </g>
    <g id="ytick_43">
     <g id="line2d_58">
      <g>
       <use xlink:href="#mb1ebf014e6" x="394.363636" y="63.113879" style="stroke: #000000; stroke-width: 0.6"/>
      </g>
     </g>
    </g>
    <g id="ytick_44">
     <g id="line2d_59">
      <g>
       <use xlink:href="#mb1ebf014e6" x="394.363636" y="59.694457" style="stroke: #000000; stroke-width: 0.6"/>
      </g>
     </g>
    </g>
    <g id="text_29">
     <!-- [Cve_dap] -->
     <g transform="translate(357.034261 212.209687) rotate(-90) scale(0.12 -0.12)">
      <use xlink:href="#DejaVuSans-5b"/>
      <use xlink:href="#DejaVuSans-43" x="39.013672"/>
      <use xlink:href="#DejaVuSans-76" x="108.837891"/>
      <use xlink:href="#DejaVuSans-65" x="168.017578"/>
      <use xlink:href="#DejaVuSans-5f" x="229.541016"/>
      <use xlink:href="#DejaVuSans-64" x="279.541016"/>
      <use xlink:href="#DejaVuSans-61" x="343.017578"/>
      <use xlink:href="#DejaVuSans-70" x="404.296875"/>
      <use xlink:href="#DejaVuSans-5d" x="467.773438"/>
     </g>
    </g>
   </g>
   <g id="LineCollection_3">
    <path d="M 415.5 270.1948 
L 415.5 214.286502 
" clip-path="url(#p8b7aa14208)" style="fill: none; stroke: #000000; stroke-width: 1.5"/>
    <path d="M 415.68477 206.117332 
L 415.68477 180.647077 
" clip-path="url(#p8b7aa14208)" style="fill: none; stroke: #000000; stroke-width: 1.5"/>
    <path d="M 415.999492 201.174992 
L 415.999492 185.498917 
" clip-path="url(#p8b7aa14208)" style="fill: none; stroke: #000000; stroke-width: 1.5"/>
    <path d="M 416.314215 216.326783 
L 416.314215 197.46679 
" clip-path="url(#p8b7aa14208)" style="fill: none; stroke: #000000; stroke-width: 1.5"/>
    <path d="M 416.628937 224.887133 
L 416.628937 205.55319 
" clip-path="url(#p8b7aa14208)" style="fill: none; stroke: #000000; stroke-width: 1.5"/>
    <path d="M 417.887828 245.405126 
L 417.887828 228.842022 
" clip-path="url(#p8b7aa14208)" style="fill: none; stroke: #000000; stroke-width: 1.5"/>
    <path d="M 419.146718 259.116903 
L 419.146718 242.103719 
" clip-path="url(#p8b7aa14208)" style="fill: none; stroke: #000000; stroke-width: 1.5"/>
    <path d="M 420.405609 267.742935 
L 420.405609 246.955559 
" clip-path="url(#p8b7aa14208)" style="fill: none; stroke: #000000; stroke-width: 1.5"/>
    <path d="M 421.664499 275.993183 
L 421.664499 256.659239 
" clip-path="url(#p8b7aa14208)" style="fill: none; stroke: #000000; stroke-width: 1.5"/>
    <path d="M 422.923389 282.945368 
L 422.923389 262.157991 
" clip-path="url(#p8b7aa14208)" style="fill: none; stroke: #000000; stroke-width: 1.5"/>
    <path d="M 426.700061 289.502615 
L 426.700061 281.888808 
" clip-path="url(#p8b7aa14208)" style="fill: none; stroke: #000000; stroke-width: 1.5"/>
    <path d="M 430.476732 295.02052 
L 430.476732 278.007336 
" clip-path="url(#p8b7aa14208)" style="fill: none; stroke: #000000; stroke-width: 1.5"/>
    <path d="M 611.898718 266.315742 
L 611.898718 209.111206 
" clip-path="url(#p8b7aa14208)" style="fill: none; stroke: #000000; stroke-width: 1.5"/>
    <path d="M 612.071674 196.042982 
L 612.071674 179.029797 
" clip-path="url(#p8b7aa14208)" style="fill: none; stroke: #000000; stroke-width: 1.5"/>
    <path d="M 612.386397 199.228785 
L 612.386397 184.852005 
" clip-path="url(#p8b7aa14208)" style="fill: none; stroke: #000000; stroke-width: 1.5"/>
    <path d="M 612.701119 211.118789 
L 612.701119 194.555685 
" clip-path="url(#p8b7aa14208)" style="fill: none; stroke: #000000; stroke-width: 1.5"/>
    <path d="M 613.015842 220.822469 
L 613.015842 204.259366 
" clip-path="url(#p8b7aa14208)" style="fill: none; stroke: #000000; stroke-width: 1.5"/>
    <path d="M 614.274732 237.725521 
L 614.274732 222.049446 
" clip-path="url(#p8b7aa14208)" style="fill: none; stroke: #000000; stroke-width: 1.5"/>
    <path d="M 615.533623 247.100274 
L 615.533623 232.723494 
" clip-path="url(#p8b7aa14208)" style="fill: none; stroke: #000000; stroke-width: 1.5"/>
    <path d="M 616.792513 251.874246 
L 616.792513 235.311143 
" clip-path="url(#p8b7aa14208)" style="fill: none; stroke: #000000; stroke-width: 1.5"/>
    <path d="M 618.051403 278.994792 
L 618.051403 239.839527 
" clip-path="url(#p8b7aa14208)" style="fill: none; stroke: #000000; stroke-width: 1.5"/>
    <path d="M 619.310294 279.541724 
L 619.310294 251.807399 
" clip-path="url(#p8b7aa14208)" style="fill: none; stroke: #000000; stroke-width: 1.5"/>
    <path d="M 623.086965 283.280485 
L 623.086965 272.993768 
" clip-path="url(#p8b7aa14208)" style="fill: none; stroke: #000000; stroke-width: 1.5"/>
    <path d="M 626.863636 286.250495 
L 626.863636 274.772776 
" clip-path="url(#p8b7aa14208)" style="fill: none; stroke: #000000; stroke-width: 1.5"/>
   </g>
   <g id="line2d_60">
    <path d="M 415.385365 361 
L 415.521564 227.694586 
L 415.715969 203.84177 
L 415.900984 199.744289 
L 415.929003 199.695612 
L 415.957022 199.740959 
L 416.069098 200.642765 
L 416.36428 206.044346 
L 417.259853 228.851856 
L 419.14266 275.728264 
L 420.116526 295.209668 
L 420.895619 306.771376 
L 421.544863 313.461449 
L 422.130979 317.515938 
L 422.717995 320.152039 
L 423.30501 321.80662 
L 423.892025 322.830856 
L 424.439626 323.434016 
L 425.220915 323.956579 
L 426.25687 324.34311 
L 428.001411 324.712401 
L 430.477796 325.162925 
L 430.480247 325.034277 
L 430.499507 308.559312 
L 430.675186 217.197474 
L 430.886965 201.037046 
L 431.046692 199.321089 
L 431.115146 199.64332 
L 431.292783 202.00189 
L 431.754639 212.287071 
L 434.096444 267.988188 
L 434.932214 282.515724 
L 435.600829 290.952156 
L 436.269445 296.687801 
L 436.854483 299.931777 
L 437.439522 301.998781 
L 438.024561 303.285891 
L 438.609599 304.08422 
L 439.278215 304.642293 
L 440.113985 305.052586 
L 441.367639 305.402698 
L 444.042101 305.861013 
L 445.584829 306.095171 
L 445.587229 306.010231 
L 445.607365 295.305373 
L 445.803663 213.393723 
L 446.00407 200.403323 
L 446.138315 198.964599 
L 446.163694 198.989768 
L 446.26521 199.692 
L 446.498897 203.488376 
L 447.188781 219.848823 
L 448.740489 255.756787 
L 449.635705 271.539793 
L 450.351878 280.531625 
L 451.00837 286.06391 
L 451.605181 289.308347 
L 452.201992 291.353589 
L 452.798803 292.613992 
L 453.395613 293.388828 
L 454.111786 293.947466 
L 455.007003 294.348641 
L 456.40977 294.703303 
L 459.725302 295.239382 
L 460.69165 295.382467 
L 460.694529 295.288573 
L 460.715827 286.293921 
L 460.927834 210.75541 
L 461.128667 199.682248 
L 461.259009 198.648786 
L 461.280733 198.698558 
L 461.371896 199.363304 
L 461.614933 203.301344 
L 462.350671 220.541753 
L 463.658598 249.955471 
L 464.487873 264.359608 
L 465.23422 273.606418 
L 465.897639 279.038202 
L 466.478131 282.10108 
L 467.058623 284.052954 
L 467.639115 285.27139 
L 468.219607 286.030412 
L 468.883027 286.56431 
L 469.795229 286.989898 
L 471.204995 287.353716 
L 474.439165 287.880036 
L 475.79854 288.084993 
L 475.80155 287.994442 
L 475.824271 279.7447 
L 476.038925 209.830643 
L 476.241676 199.260497 
L 476.363641 198.352707 
L 476.395454 198.43426 
L 476.522706 199.585183 
L 476.840835 205.451502 
L 479.329538 257.88224 
L 480.058832 267.27021 
L 480.715198 272.958519 
L 481.298633 276.250188 
L 481.882069 278.353432 
L 482.465505 279.665767 
L 483.04894 280.480671 
L 483.705305 281.043475 
L 484.580459 281.480218 
L 485.893189 281.843385 
L 488.664509 282.312822 
L 490.905393 282.654877 
L 490.908547 282.56431 
L 490.933313 274.319603 
L 491.152576 208.716894 
L 491.367031 198.687998 
L 491.460859 198.079707 
L 491.507773 198.188679 
L 491.628205 199.289066 
L 491.959038 205.357944 
L 494.194853 252.258994 
L 494.964385 262.492134 
L 495.562909 267.92822 
L 496.161434 271.553016 
L 496.759959 273.855481 
L 497.358483 275.277772 
L 497.957008 276.1499 
L 498.641036 276.750817 
L 499.496072 277.184696 
L 500.778625 277.547374 
L 503.429234 278.00273 
L 506.012104 278.392422 
L 506.01555 278.298231 
L 506.040437 270.848862 
L 506.271968 207.169453 
L 506.480257 198.348554 
L 506.572845 197.832926 
L 506.600758 197.88615 
L 506.712408 198.757384 
L 506.963832 202.922399 
L 507.999996 226.270355 
L 509.032297 246.453647 
L 509.806523 257.449738 
L 510.451711 263.743124 
L 511.032381 267.522736 
L 511.61305 269.973463 
L 512.193719 271.515372 
L 512.774389 272.474608 
L 513.419577 273.12722 
L 514.193803 273.589768 
L 515.290623 273.960379 
L 517.290707 274.350775 
L 521.118737 274.927093 
L 521.121729 274.865439 
L 521.144388 269.33248 
L 521.402887 204.910021 
L 521.610369 197.869384 
L 521.674845 197.604081 
L 521.717829 197.696907 
L 521.852608 198.93662 
L 522.189555 205.115816 
L 524.215213 246.474126 
L 524.944894 256.092338 
L 525.593498 261.903106 
L 526.161028 265.259172 
L 526.728557 267.438981 
L 527.296086 268.819841 
L 527.863615 269.688059 
L 528.51222 270.300204 
L 529.322976 270.749933 
L 530.458034 271.10605 
L 532.647075 271.512274 
L 536.225768 272.053148 
L 536.22904 271.974048 
L 536.25445 265.577136 
L 536.505328 204.95257 
L 536.70597 197.762979 
L 536.794397 197.402974 
L 536.824562 197.487365 
L 536.975385 198.934885 
L 537.322617 205.409417 
L 539.123935 242.29168 
L 539.876549 252.685523 
L 540.492325 258.563896 
L 541.1081 262.468247 
L 541.655456 264.708177 
L 542.202812 266.154107 
L 542.818587 267.167566 
L 543.502782 267.837674 
L 544.323816 268.300535 
L 545.486947 268.666588 
L 547.676371 269.072027 
L 551.332268 269.626802 
L 551.335399 269.565772 
L 551.358866 264.487757 
L 551.62046 204.098151 
L 551.825581 197.448789 
L 551.885208 197.203411 
L 551.947507 197.374102 
L 552.103253 199.033078 
L 552.493395 206.537127 
L 554.101323 239.321546 
L 554.826644 249.650414 
L 555.479432 256.123166 
L 556.059688 259.964484 
L 556.639945 262.460432 
L 557.220201 264.032834 
L 557.800457 265.011524 
L 558.453245 265.683496 
L 559.251098 266.162771 
L 560.339078 266.530047 
L 562.297443 266.913962 
L 566.439043 267.538763 
L 566.441628 267.496948 
L 566.463582 263.401908 
L 566.743559 202.814277 
L 566.936243 197.238323 
L 566.99639 197.025105 
L 567.027587 197.078112 
L 567.152378 198.078694 
L 567.464355 203.434753 
L 569.441314 242.173034 
L 570.171336 251.158954 
L 570.828355 256.538427 
L 571.412372 259.625196 
L 571.996389 261.587546 
L 572.580406 262.809194 
L 573.164423 263.568185 
L 573.894444 264.138542 
L 574.77047 264.531825 
L 576.15751 264.885335 
L 579.369604 265.407519 
L 581.546181 265.730455 
L 581.549479 265.654594 
L 581.575738 259.977256 
L 581.833193 203.709621 
L 582.03661 197.124387 
L 582.098309 196.862656 
L 582.151157 196.981621 
L 582.312566 198.612271 
L 582.699947 205.923682 
L 584.183176 235.780369 
L 584.936507 246.477651 
L 585.614505 253.07247 
L 586.21717 256.908124 
L 586.819834 259.348403 
L 587.422499 260.854061 
L 588.025164 261.774142 
L 588.703162 262.396995 
L 589.531826 262.838586 
L 590.737156 263.19899 
L 593.147815 263.629003 
L 596.652535 264.151796 
L 596.65663 264.058578 
L 596.686454 257.235846 
L 596.94015 203.500154 
L 597.14723 196.940207 
L 597.216161 196.713856 
L 597.245884 196.780431 
L 597.364774 197.74193 
L 597.662 202.729297 
L 599.631991 240.41435 
L 600.345004 248.842989 
L 600.986716 253.889939 
L 601.557126 256.801478 
L 602.127536 258.66824 
L 602.697947 259.842659 
L 603.339659 260.651312 
L 604.052672 261.183051 
L 604.979589 261.580206 
L 606.476916 261.940763 
L 610.255886 262.536985 
L 611.759275 262.759688 
L 611.763512 262.662633 
L 611.789634 257.342467 
L 612.05154 203.012235 
L 612.244339 196.881767 
L 612.327945 196.580073 
L 612.355814 196.653365 
L 612.495158 197.889221 
L 612.817634 203.543597 
L 614.569421 237.371189 
L 615.278912 246.324512 
L 615.923904 251.833834 
L 616.504396 255.073735 
L 617.084889 257.147595 
L 617.665382 258.444595 
L 618.245874 259.252047 
L 618.955365 259.847853 
L 619.858354 260.278691 
L 621.212837 260.637352 
L 624.179799 261.128877 
L 627.493082 261.616574 
L 627.493082 261.616574 
" clip-path="url(#p8b7aa14208)" style="fill: none; stroke: #0000ff; stroke-width: 1.5; stroke-linecap: square"/>
   </g>
   <g id="line2d_61">
    <path d="M 415.5 230.459302 
L 415.68477 190.674213 
L 415.999492 192.291493 
L 416.314215 205.391462 
L 416.628937 213.63959 
L 417.887828 235.958055 
L 419.146718 249.381479 
L 420.405609 255.527143 
L 421.664499 264.745639 
L 422.923389 270.729575 
L 426.700061 285.446824 
L 430.476732 285.285096 
L 611.898718 225.445734 
L 612.071674 186.307557 
L 612.386397 191.159397 
L 612.701119 201.671718 
L 613.015842 211.375398 
L 614.274732 228.842022 
L 615.533623 239.030887 
L 616.792513 242.427175 
L 618.051403 253.262951 
L 619.310294 262.481447 
L 623.086965 277.68388 
L 626.863636 279.948072 
" clip-path="url(#p8b7aa14208)" style="fill: none; stroke: #000000; stroke-width: 1.5; stroke-linecap: square"/>
    <g clip-path="url(#p8b7aa14208)">
     <use xlink:href="#m43931ffabe" x="415.5" y="230.459302" style="stroke: #000000; stroke-linejoin: miter"/>
     <use xlink:href="#m43931ffabe" x="415.68477" y="190.674213" style="stroke: #000000; stroke-linejoin: miter"/>
     <use xlink:href="#m43931ffabe" x="415.999492" y="192.291493" style="stroke: #000000; stroke-linejoin: miter"/>
     <use xlink:href="#m43931ffabe" x="416.314215" y="205.391462" style="stroke: #000000; stroke-linejoin: miter"/>
     <use xlink:href="#m43931ffabe" x="416.628937" y="213.63959" style="stroke: #000000; stroke-linejoin: miter"/>
     <use xlink:href="#m43931ffabe" x="417.887828" y="235.958055" style="stroke: #000000; stroke-linejoin: miter"/>
     <use xlink:href="#m43931ffabe" x="419.146718" y="249.381479" style="stroke: #000000; stroke-linejoin: miter"/>
     <use xlink:href="#m43931ffabe" x="420.405609" y="255.527143" style="stroke: #000000; stroke-linejoin: miter"/>
     <use xlink:href="#m43931ffabe" x="421.664499" y="264.745639" style="stroke: #000000; stroke-linejoin: miter"/>
     <use xlink:href="#m43931ffabe" x="422.923389" y="270.729575" style="stroke: #000000; stroke-linejoin: miter"/>
     <use xlink:href="#m43931ffabe" x="426.700061" y="285.446824" style="stroke: #000000; stroke-linejoin: miter"/>
     <use xlink:href="#m43931ffabe" x="430.476732" y="285.285096" style="stroke: #000000; stroke-linejoin: miter"/>
     <use xlink:href="#m43931ffabe" x="611.898718" y="225.445734" style="stroke: #000000; stroke-linejoin: miter"/>
     <use xlink:href="#m43931ffabe" x="612.071674" y="186.307557" style="stroke: #000000; stroke-linejoin: miter"/>
     <use xlink:href="#m43931ffabe" x="612.386397" y="191.159397" style="stroke: #000000; stroke-linejoin: miter"/>
     <use xlink:href="#m43931ffabe" x="612.701119" y="201.671718" style="stroke: #000000; stroke-linejoin: miter"/>
     <use xlink:href="#m43931ffabe" x="613.015842" y="211.375398" style="stroke: #000000; stroke-linejoin: miter"/>
     <use xlink:href="#m43931ffabe" x="614.274732" y="228.842022" style="stroke: #000000; stroke-linejoin: miter"/>
     <use xlink:href="#m43931ffabe" x="615.533623" y="239.030887" style="stroke: #000000; stroke-linejoin: miter"/>
     <use xlink:href="#m43931ffabe" x="616.792513" y="242.427175" style="stroke: #000000; stroke-linejoin: miter"/>
     <use xlink:href="#m43931ffabe" x="618.051403" y="253.262951" style="stroke: #000000; stroke-linejoin: miter"/>
     <use xlink:href="#m43931ffabe" x="619.310294" y="262.481447" style="stroke: #000000; stroke-linejoin: miter"/>
     <use xlink:href="#m43931ffabe" x="623.086965" y="277.68388" style="stroke: #000000; stroke-linejoin: miter"/>
     <use xlink:href="#m43931ffabe" x="626.863636" y="279.948072" style="stroke: #000000; stroke-linejoin: miter"/>
    </g>
   </g>
   <g id="patch_9">
    <path d="M 394.363636 320.4 
L 394.363636 43.2 
" style="fill: none; stroke: #000000; stroke-width: 0.8; stroke-linejoin: miter; stroke-linecap: square"/>
   </g>
   <g id="patch_10">
    <path d="M 648 320.4 
L 648 43.2 
" style="fill: none; stroke: #000000; stroke-width: 0.8; stroke-linejoin: miter; stroke-linecap: square"/>
   </g>
   <g id="patch_11">
    <path d="M 394.363636 320.4 
L 648 320.4 
" style="fill: none; stroke: #000000; stroke-width: 0.8; stroke-linejoin: miter; stroke-linecap: square"/>
   </g>
   <g id="patch_12">
    <path d="M 394.363636 43.2 
L 648 43.2 
" style="fill: none; stroke: #000000; stroke-width: 0.8; stroke-linejoin: miter; stroke-linecap: square"/>
   </g>
   <g id="text_30">
    <!-- Kasichayanula2011a fm_dap2.5_dapagliflozin -->
    <g transform="translate(361.249318 37.2) scale(0.14 -0.14)">
     <use xlink:href="#DejaVuSans-4b"/>
     <use xlink:href="#DejaVuSans-61" x="63.826172"/>
     <use xlink:href="#DejaVuSans-73" x="125.105469"/>
     <use xlink:href="#DejaVuSans-69" x="177.205078"/>
     <use xlink:href="#DejaVuSans-63" x="204.988281"/>
     <use xlink:href="#DejaVuSans-68" x="259.96875"/>
     <use xlink:href="#DejaVuSans-61" x="323.347656"/>
     <use xlink:href="#DejaVuSans-79" x="384.626953"/>
     <use xlink:href="#DejaVuSans-61" x="443.806641"/>
     <use xlink:href="#DejaVuSans-6e" x="505.085938"/>
     <use xlink:href="#DejaVuSans-75" x="568.464844"/>
     <use xlink:href="#DejaVuSans-6c" x="631.84375"/>
     <use xlink:href="#DejaVuSans-61" x="659.626953"/>
     <use xlink:href="#DejaVuSans-32" x="720.90625"/>
     <use xlink:href="#DejaVuSans-30" x="784.529297"/>
     <use xlink:href="#DejaVuSans-31" x="848.152344"/>
     <use xlink:href="#DejaVuSans-31" x="911.775391"/>
     <use xlink:href="#DejaVuSans-61" x="975.398438"/>
     <use xlink:href="#DejaVuSans-20" x="1036.677734"/>
     <use xlink:href="#DejaVuSans-66" x="1068.464844"/>
     <use xlink:href="#DejaVuSans-6d" x="1103.669922"/>
     <use xlink:href="#DejaVuSans-5f" x="1201.082031"/>
     <use xlink:href="#DejaVuSans-64" x="1251.082031"/>
     <use xlink:href="#DejaVuSans-61" x="1314.558594"/>
     <use xlink:href="#DejaVuSans-70" x="1375.837891"/>
     <use xlink:href="#DejaVuSans-32" x="1439.314453"/>
     <use xlink:href="#DejaVuSans-2e" x="1502.9375"/>
     <use xlink:href="#DejaVuSans-35" x="1534.724609"/>
     <use xlink:href="#DejaVuSans-5f" x="1598.347656"/>
     <use xlink:href="#DejaVuSans-64" x="1648.347656"/>
     <use xlink:href="#DejaVuSans-61" x="1711.824219"/>
     <use xlink:href="#DejaVuSans-70" x="1773.103516"/>
     <use xlink:href="#DejaVuSans-61" x="1836.580078"/>
     <use xlink:href="#DejaVuSans-67" x="1897.859375"/>
     <use xlink:href="#DejaVuSans-6c" x="1961.335938"/>
     <use xlink:href="#DejaVuSans-69" x="1989.119141"/>
     <use xlink:href="#DejaVuSans-66" x="2016.902344"/>
     <use xlink:href="#DejaVuSans-6c" x="2052.107422"/>
     <use xlink:href="#DejaVuSans-6f" x="2079.890625"/>
     <use xlink:href="#DejaVuSans-7a" x="2141.072266"/>
     <use xlink:href="#DejaVuSans-69" x="2193.5625"/>
     <use xlink:href="#DejaVuSans-6e" x="2221.345703"/>
    </g>
   </g>
   <g id="legend_2">
    <g id="patch_13">
     <path d="M 504.95 80.834375 
L 641 80.834375 
Q 643 80.834375 643 78.834375 
L 643 50.2 
Q 643 48.2 641 48.2 
L 504.95 48.2 
Q 502.95 48.2 502.95 50.2 
L 502.95 78.834375 
Q 502.95 80.834375 504.95 80.834375 
z
" style="fill: #ffffff; opacity: 0.8; stroke: #cccccc; stroke-linejoin: miter"/>
    </g>
    <g id="line2d_62">
     <path d="M 506.95 56.298437 
L 516.95 56.298437 
L 526.95 56.298437 
" style="fill: none; stroke: #0000ff; stroke-width: 1.5; stroke-linecap: square"/>
    </g>
    <g id="text_31">
     <!-- observable -->
     <g transform="translate(534.95 59.798437) scale(0.1 -0.1)">
      <use xlink:href="#DejaVuSans-6f"/>
      <use xlink:href="#DejaVuSans-62" x="61.181641"/>
      <use xlink:href="#DejaVuSans-73" x="124.658203"/>
      <use xlink:href="#DejaVuSans-65" x="176.757812"/>
      <use xlink:href="#DejaVuSans-72" x="238.28125"/>
      <use xlink:href="#DejaVuSans-76" x="279.394531"/>
      <use xlink:href="#DejaVuSans-61" x="338.574219"/>
      <use xlink:href="#DejaVuSans-62" x="399.853516"/>
      <use xlink:href="#DejaVuSans-6c" x="463.330078"/>
      <use xlink:href="#DejaVuSans-65" x="491.113281"/>
     </g>
    </g>
    <g id="LineCollection_4">
     <path d="M 516.95 75.976562 
L 516.95 65.976562 
" style="fill: none; stroke: #000000; stroke-width: 1.5"/>
    </g>
    <g id="line2d_63">
     <path d="M 506.95 70.976562 
L 526.95 70.976562 
" style="fill: none; stroke: #000000; stroke-width: 1.5; stroke-linecap: square"/>
    </g>
    <g id="line2d_64">
     <g>
      <use xlink:href="#m43931ffabe" x="516.95" y="70.976562" style="stroke: #000000; stroke-linejoin: miter"/>
     </g>
    </g>
    <g id="text_32">
     <!-- reference_data ± SD -->
     <g transform="translate(534.95 74.476562) scale(0.1 -0.1)">
      <use xlink:href="#DejaVuSans-72"/>
      <use xlink:href="#DejaVuSans-65" x="38.863281"/>
      <use xlink:href="#DejaVuSans-66" x="100.386719"/>
      <use xlink:href="#DejaVuSans-65" x="135.591797"/>
      <use xlink:href="#DejaVuSans-72" x="197.115234"/>
      <use xlink:href="#DejaVuSans-65" x="235.978516"/>
      <use xlink:href="#DejaVuSans-6e" x="297.501953"/>
      <use xlink:href="#DejaVuSans-63" x="360.880859"/>
      <use xlink:href="#DejaVuSans-65" x="415.861328"/>
      <use xlink:href="#DejaVuSans-5f" x="477.384766"/>
      <use xlink:href="#DejaVuSans-64" x="527.384766"/>
      <use xlink:href="#DejaVuSans-61" x="590.861328"/>
      <use xlink:href="#DejaVuSans-74" x="652.140625"/>
      <use xlink:href="#DejaVuSans-61" x="691.349609"/>
      <use xlink:href="#DejaVuSans-20" x="752.628906"/>
      <use xlink:href="#DejaVuSans-b1" x="784.416016"/>
      <use xlink:href="#DejaVuSans-20" x="868.205078"/>
      <use xlink:href="#DejaVuSans-53" x="899.992188"/>
      <use xlink:href="#DejaVuSans-44" x="963.46875"/>
     </g>
    </g>
   </g>
  </g>
 </g>
 <defs>
  <clipPath id="pb5d9e20c4e">
   <rect x="90" y="43.2" width="253.636364" height="277.2"/>
  </clipPath>
  <clipPath id="p8b7aa14208">
   <rect x="394.363636" y="43.2" width="253.636364" height="277.2"/>
  </clipPath>
 </defs>
</svg>
