<?xml version="1.0" encoding="utf-8" standalone="no"?>
<!DOCTYPE svg PUBLIC "-//W3C//DTD SVG 1.1//EN"
  "http://www.w3.org/Graphics/SVG/1.1/DTD/svg11.dtd">
<svg xmlns:xlink="http://www.w3.org/1999/xlink" width="720pt" height="360pt" viewBox="0 0 720 360" xmlns="http://www.w3.org/2000/svg" version="1.1">
 <metadata>
  <rdf:RDF xmlns:dc="http://purl.org/dc/elements/1.1/" xmlns:cc="http://creativecommons.org/ns#" xmlns:rdf="http://www.w3.org/1999/02/22-rdf-syntax-ns#">
   <cc:Work>
    <dc:type rdf:resource="http://purl.org/dc/dcmitype/StillImage"/>
    <dc:date>2024-12-16T16:48:58.251356</dc:date>
    <dc:format>image/svg+xml</dc:format>
    <dc:creator>
     <cc:Agent>
      <dc:title>Matplotlib v3.9.1, https://matplotlib.org/</dc:title>
     </cc:Agent>
    </dc:creator>
   </cc:Work>
  </rdf:RDF>
 </metadata>
 <defs>
  <style type="text/css">*{stroke-linejoin: round; stroke-linecap: butt}</style>
 </defs>
 <g id="figure_1">
  <g id="patch_1">
   <path d="M 0 360 
L 720 360 
L 720 0 
L 0 0 
z
" style="fill: #ffffff"/>
  </g>
  <g id="axes_1">
   <g id="patch_2">
    <path d="M 90 320.4 
L 343.636364 320.4 
L 343.636364 43.2 
L 90 43.2 
z
" style="fill: #ffffff"/>
   </g>
   <g id="matplotlib.axis_1">
    <g id="xtick_1">
     <g id="line2d_1">
      <defs>
       <path id="m0b386babb5" d="M 0 0 
L 0 3.5 
" style="stroke: #000000; stroke-width: 0.8"/>
      </defs>
      <g>
       <use xlink:href="#m0b386babb5" x="111.006411" y="320.4" style="stroke: #000000; stroke-width: 0.8"/>
      </g>
     </g>
     <g id="text_1">
      <!-- 0 -->
      <g transform="translate(107.825161 334.998438) scale(0.1 -0.1)">
       <defs>
        <path id="DejaVuSans-30" d="M 2034 4250 
Q 1547 4250 1301 3770 
Q 1056 3291 1056 2328 
Q 1056 1369 1301 889 
Q 1547 409 2034 409 
Q 2525 409 2770 889 
Q 3016 1369 3016 2328 
Q 3016 3291 2770 3770 
Q 2525 4250 2034 4250 
z
M 2034 4750 
Q 2819 4750 3233 4129 
Q 3647 3509 3647 2328 
Q 3647 1150 3233 529 
Q 2819 -91 2034 -91 
Q 1250 -91 836 529 
Q 422 1150 422 2328 
Q 422 3509 836 4129 
Q 1250 4750 2034 4750 
z
" transform="scale(0.015625)"/>
       </defs>
       <use xlink:href="#DejaVuSans-30"/>
      </g>
     </g>
    </g>
    <g id="xtick_2">
     <g id="line2d_2">
      <g>
       <use xlink:href="#m0b386babb5" x="163.460178" y="320.4" style="stroke: #000000; stroke-width: 0.8"/>
      </g>
     </g>
     <g id="text_2">
      <!-- 5000 -->
      <g transform="translate(150.735178 334.998438) scale(0.1 -0.1)">
       <defs>
        <path id="DejaVuSans-35" d="M 691 4666 
L 3169 4666 
L 3169 4134 
L 1269 4134 
L 1269 2991 
Q 1406 3038 1543 3061 
Q 1681 3084 1819 3084 
Q 2600 3084 3056 2656 
Q 3513 2228 3513 1497 
Q 3513 744 3044 326 
Q 2575 -91 1722 -91 
Q 1428 -91 1123 -41 
Q 819 9 494 109 
L 494 744 
Q 775 591 1075 516 
Q 1375 441 1709 441 
Q 2250 441 2565 725 
Q 2881 1009 2881 1497 
Q 2881 1984 2565 2268 
Q 2250 2553 1709 2553 
Q 1456 2553 1204 2497 
Q 953 2441 691 2322 
L 691 4666 
z
" transform="scale(0.015625)"/>
       </defs>
       <use xlink:href="#DejaVuSans-35"/>
       <use xlink:href="#DejaVuSans-30" x="63.623047"/>
       <use xlink:href="#DejaVuSans-30" x="127.246094"/>
       <use xlink:href="#DejaVuSans-30" x="190.869141"/>
      </g>
     </g>
    </g>
    <g id="xtick_3">
     <g id="line2d_3">
      <g>
       <use xlink:href="#m0b386babb5" x="215.913945" y="320.4" style="stroke: #000000; stroke-width: 0.8"/>
      </g>
     </g>
     <g id="text_3">
      <!-- 10000 -->
      <g transform="translate(200.007695 334.998438) scale(0.1 -0.1)">
       <defs>
        <path id="DejaVuSans-31" d="M 794 531 
L 1825 531 
L 1825 4091 
L 703 3866 
L 703 4441 
L 1819 4666 
L 2450 4666 
L 2450 531 
L 3481 531 
L 3481 0 
L 794 0 
L 794 531 
z
" transform="scale(0.015625)"/>
       </defs>
       <use xlink:href="#DejaVuSans-31"/>
       <use xlink:href="#DejaVuSans-30" x="63.623047"/>
       <use xlink:href="#DejaVuSans-30" x="127.246094"/>
       <use xlink:href="#DejaVuSans-30" x="190.869141"/>
       <use xlink:href="#DejaVuSans-30" x="254.492188"/>
      </g>
     </g>
    </g>
    <g id="xtick_4">
     <g id="line2d_4">
      <g>
       <use xlink:href="#m0b386babb5" x="268.367712" y="320.4" style="stroke: #000000; stroke-width: 0.8"/>
      </g>
     </g>
     <g id="text_4">
      <!-- 15000 -->
      <g transform="translate(252.461462 334.998438) scale(0.1 -0.1)">
       <use xlink:href="#DejaVuSans-31"/>
       <use xlink:href="#DejaVuSans-35" x="63.623047"/>
       <use xlink:href="#DejaVuSans-30" x="127.246094"/>
       <use xlink:href="#DejaVuSans-30" x="190.869141"/>
       <use xlink:href="#DejaVuSans-30" x="254.492188"/>
      </g>
     </g>
    </g>
    <g id="xtick_5">
     <g id="line2d_5">
      <g>
       <use xlink:href="#m0b386babb5" x="320.821479" y="320.4" style="stroke: #000000; stroke-width: 0.8"/>
      </g>
     </g>
     <g id="text_5">
      <!-- 20000 -->
      <g transform="translate(304.915229 334.998438) scale(0.1 -0.1)">
       <defs>
        <path id="DejaVuSans-32" d="M 1228 531 
L 3431 531 
L 3431 0 
L 469 0 
L 469 531 
Q 828 903 1448 1529 
Q 2069 2156 2228 2338 
Q 2531 2678 2651 2914 
Q 2772 3150 2772 3378 
Q 2772 3750 2511 3984 
Q 2250 4219 1831 4219 
Q 1534 4219 1204 4116 
Q 875 4013 500 3803 
L 500 4441 
Q 881 4594 1212 4672 
Q 1544 4750 1819 4750 
Q 2544 4750 2975 4387 
Q 3406 4025 3406 3419 
Q 3406 3131 3298 2873 
Q 3191 2616 2906 2266 
Q 2828 2175 2409 1742 
Q 1991 1309 1228 531 
z
" transform="scale(0.015625)"/>
       </defs>
       <use xlink:href="#DejaVuSans-32"/>
       <use xlink:href="#DejaVuSans-30" x="63.623047"/>
       <use xlink:href="#DejaVuSans-30" x="127.246094"/>
       <use xlink:href="#DejaVuSans-30" x="190.869141"/>
       <use xlink:href="#DejaVuSans-30" x="254.492188"/>
      </g>
     </g>
    </g>
    <g id="text_6">
     <!-- time -->
     <g transform="translate(203.262869 350.19625) scale(0.12 -0.12)">
      <defs>
       <path id="DejaVuSans-74" d="M 1172 4494 
L 1172 3500 
L 2356 3500 
L 2356 3053 
L 1172 3053 
L 1172 1153 
Q 1172 725 1289 603 
Q 1406 481 1766 481 
L 2356 481 
L 2356 0 
L 1766 0 
Q 1100 0 847 248 
Q 594 497 594 1153 
L 594 3053 
L 172 3053 
L 172 3500 
L 594 3500 
L 594 4494 
L 1172 4494 
z
" transform="scale(0.015625)"/>
       <path id="DejaVuSans-69" d="M 603 3500 
L 1178 3500 
L 1178 0 
L 603 0 
L 603 3500 
z
M 603 4863 
L 1178 4863 
L 1178 4134 
L 603 4134 
L 603 4863 
z
" transform="scale(0.015625)"/>
       <path id="DejaVuSans-6d" d="M 3328 2828 
Q 3544 3216 3844 3400 
Q 4144 3584 4550 3584 
Q 5097 3584 5394 3201 
Q 5691 2819 5691 2113 
L 5691 0 
L 5113 0 
L 5113 2094 
Q 5113 2597 4934 2840 
Q 4756 3084 4391 3084 
Q 3944 3084 3684 2787 
Q 3425 2491 3425 1978 
L 3425 0 
L 2847 0 
L 2847 2094 
Q 2847 2600 2669 2842 
Q 2491 3084 2119 3084 
Q 1678 3084 1418 2786 
Q 1159 2488 1159 1978 
L 1159 0 
L 581 0 
L 581 3500 
L 1159 3500 
L 1159 2956 
Q 1356 3278 1631 3431 
Q 1906 3584 2284 3584 
Q 2666 3584 2933 3390 
Q 3200 3197 3328 2828 
z
" transform="scale(0.015625)"/>
       <path id="DejaVuSans-65" d="M 3597 1894 
L 3597 1613 
L 953 1613 
Q 991 1019 1311 708 
Q 1631 397 2203 397 
Q 2534 397 2845 478 
Q 3156 559 3463 722 
L 3463 178 
Q 3153 47 2828 -22 
Q 2503 -91 2169 -91 
Q 1331 -91 842 396 
Q 353 884 353 1716 
Q 353 2575 817 3079 
Q 1281 3584 2069 3584 
Q 2775 3584 3186 3129 
Q 3597 2675 3597 1894 
z
M 3022 2063 
Q 3016 2534 2758 2815 
Q 2500 3097 2075 3097 
Q 1594 3097 1305 2825 
Q 1016 2553 972 2059 
L 3022 2063 
z
" transform="scale(0.015625)"/>
      </defs>
      <use xlink:href="#DejaVuSans-74"/>
      <use xlink:href="#DejaVuSans-69" x="39.208984"/>
      <use xlink:href="#DejaVuSans-6d" x="66.992188"/>
      <use xlink:href="#DejaVuSans-65" x="164.404297"/>
     </g>
    </g>
   </g>
   <g id="matplotlib.axis_2">
    <g id="ytick_1">
     <g id="line2d_6">
      <defs>
       <path id="m2bf590759a" d="M 0 0 
L -3.5 0 
" style="stroke: #000000; stroke-width: 0.8"/>
      </defs>
      <g>
       <use xlink:href="#m2bf590759a" x="90" y="305.79201" style="stroke: #000000; stroke-width: 0.8"/>
      </g>
     </g>
     <g id="text_7">
      <!-- 0.0000 -->
      <g transform="translate(48.009375 309.591229) scale(0.1 -0.1)">
       <defs>
        <path id="DejaVuSans-2e" d="M 684 794 
L 1344 794 
L 1344 0 
L 684 0 
L 684 794 
z
" transform="scale(0.015625)"/>
       </defs>
       <use xlink:href="#DejaVuSans-30"/>
       <use xlink:href="#DejaVuSans-2e" x="63.623047"/>
       <use xlink:href="#DejaVuSans-30" x="95.410156"/>
       <use xlink:href="#DejaVuSans-30" x="159.033203"/>
       <use xlink:href="#DejaVuSans-30" x="222.65625"/>
       <use xlink:href="#DejaVuSans-30" x="286.279297"/>
      </g>
     </g>
    </g>
    <g id="ytick_2">
     <g id="line2d_7">
      <g>
       <use xlink:href="#m2bf590759a" x="90" y="253.089066" style="stroke: #000000; stroke-width: 0.8"/>
      </g>
     </g>
     <g id="text_8">
      <!-- 0.0002 -->
      <g transform="translate(48.009375 256.888284) scale(0.1 -0.1)">
       <use xlink:href="#DejaVuSans-30"/>
       <use xlink:href="#DejaVuSans-2e" x="63.623047"/>
       <use xlink:href="#DejaVuSans-30" x="95.410156"/>
       <use xlink:href="#DejaVuSans-30" x="159.033203"/>
       <use xlink:href="#DejaVuSans-30" x="222.65625"/>
       <use xlink:href="#DejaVuSans-32" x="286.279297"/>
      </g>
     </g>
    </g>
    <g id="ytick_3">
     <g id="line2d_8">
      <g>
       <use xlink:href="#m2bf590759a" x="90" y="200.386121" style="stroke: #000000; stroke-width: 0.8"/>
      </g>
     </g>
     <g id="text_9">
      <!-- 0.0004 -->
      <g transform="translate(48.009375 204.18534) scale(0.1 -0.1)">
       <defs>
        <path id="DejaVuSans-34" d="M 2419 4116 
L 825 1625 
L 2419 1625 
L 2419 4116 
z
M 2253 4666 
L 3047 4666 
L 3047 1625 
L 3713 1625 
L 3713 1100 
L 3047 1100 
L 3047 0 
L 2419 0 
L 2419 1100 
L 313 1100 
L 313 1709 
L 2253 4666 
z
" transform="scale(0.015625)"/>
       </defs>
       <use xlink:href="#DejaVuSans-30"/>
       <use xlink:href="#DejaVuSans-2e" x="63.623047"/>
       <use xlink:href="#DejaVuSans-30" x="95.410156"/>
       <use xlink:href="#DejaVuSans-30" x="159.033203"/>
       <use xlink:href="#DejaVuSans-30" x="222.65625"/>
       <use xlink:href="#DejaVuSans-34" x="286.279297"/>
      </g>
     </g>
    </g>
    <g id="ytick_4">
     <g id="line2d_9">
      <g>
       <use xlink:href="#m2bf590759a" x="90" y="147.683177" style="stroke: #000000; stroke-width: 0.8"/>
      </g>
     </g>
     <g id="text_10">
      <!-- 0.0006 -->
      <g transform="translate(48.009375 151.482395) scale(0.1 -0.1)">
       <defs>
        <path id="DejaVuSans-36" d="M 2113 2584 
Q 1688 2584 1439 2293 
Q 1191 2003 1191 1497 
Q 1191 994 1439 701 
Q 1688 409 2113 409 
Q 2538 409 2786 701 
Q 3034 994 3034 1497 
Q 3034 2003 2786 2293 
Q 2538 2584 2113 2584 
z
M 3366 4563 
L 3366 3988 
Q 3128 4100 2886 4159 
Q 2644 4219 2406 4219 
Q 1781 4219 1451 3797 
Q 1122 3375 1075 2522 
Q 1259 2794 1537 2939 
Q 1816 3084 2150 3084 
Q 2853 3084 3261 2657 
Q 3669 2231 3669 1497 
Q 3669 778 3244 343 
Q 2819 -91 2113 -91 
Q 1303 -91 875 529 
Q 447 1150 447 2328 
Q 447 3434 972 4092 
Q 1497 4750 2381 4750 
Q 2619 4750 2861 4703 
Q 3103 4656 3366 4563 
z
" transform="scale(0.015625)"/>
       </defs>
       <use xlink:href="#DejaVuSans-30"/>
       <use xlink:href="#DejaVuSans-2e" x="63.623047"/>
       <use xlink:href="#DejaVuSans-30" x="95.410156"/>
       <use xlink:href="#DejaVuSans-30" x="159.033203"/>
       <use xlink:href="#DejaVuSans-30" x="222.65625"/>
       <use xlink:href="#DejaVuSans-36" x="286.279297"/>
      </g>
     </g>
    </g>
    <g id="ytick_5">
     <g id="line2d_10">
      <g>
       <use xlink:href="#m2bf590759a" x="90" y="94.980232" style="stroke: #000000; stroke-width: 0.8"/>
      </g>
     </g>
     <g id="text_11">
      <!-- 0.0008 -->
      <g transform="translate(48.009375 98.779451) scale(0.1 -0.1)">
       <defs>
        <path id="DejaVuSans-38" d="M 2034 2216 
Q 1584 2216 1326 1975 
Q 1069 1734 1069 1313 
Q 1069 891 1326 650 
Q 1584 409 2034 409 
Q 2484 409 2743 651 
Q 3003 894 3003 1313 
Q 3003 1734 2745 1975 
Q 2488 2216 2034 2216 
z
M 1403 2484 
Q 997 2584 770 2862 
Q 544 3141 544 3541 
Q 544 4100 942 4425 
Q 1341 4750 2034 4750 
Q 2731 4750 3128 4425 
Q 3525 4100 3525 3541 
Q 3525 3141 3298 2862 
Q 3072 2584 2669 2484 
Q 3125 2378 3379 2068 
Q 3634 1759 3634 1313 
Q 3634 634 3220 271 
Q 2806 -91 2034 -91 
Q 1263 -91 848 271 
Q 434 634 434 1313 
Q 434 1759 690 2068 
Q 947 2378 1403 2484 
z
M 1172 3481 
Q 1172 3119 1398 2916 
Q 1625 2713 2034 2713 
Q 2441 2713 2670 2916 
Q 2900 3119 2900 3481 
Q 2900 3844 2670 4047 
Q 2441 4250 2034 4250 
Q 1625 4250 1398 4047 
Q 1172 3844 1172 3481 
z
" transform="scale(0.015625)"/>
       </defs>
       <use xlink:href="#DejaVuSans-30"/>
       <use xlink:href="#DejaVuSans-2e" x="63.623047"/>
       <use xlink:href="#DejaVuSans-30" x="95.410156"/>
       <use xlink:href="#DejaVuSans-30" x="159.033203"/>
       <use xlink:href="#DejaVuSans-30" x="222.65625"/>
       <use xlink:href="#DejaVuSans-38" x="286.279297"/>
      </g>
     </g>
    </g>
    <g id="text_12">
     <!-- [Cve_dap] -->
     <g transform="translate(41.18 212.209687) rotate(-90) scale(0.12 -0.12)">
      <defs>
       <path id="DejaVuSans-5b" d="M 550 4863 
L 1875 4863 
L 1875 4416 
L 1125 4416 
L 1125 -397 
L 1875 -397 
L 1875 -844 
L 550 -844 
L 550 4863 
z
" transform="scale(0.015625)"/>
       <path id="DejaVuSans-43" d="M 4122 4306 
L 4122 3641 
Q 3803 3938 3442 4084 
Q 3081 4231 2675 4231 
Q 1875 4231 1450 3742 
Q 1025 3253 1025 2328 
Q 1025 1406 1450 917 
Q 1875 428 2675 428 
Q 3081 428 3442 575 
Q 3803 722 4122 1019 
L 4122 359 
Q 3791 134 3420 21 
Q 3050 -91 2638 -91 
Q 1578 -91 968 557 
Q 359 1206 359 2328 
Q 359 3453 968 4101 
Q 1578 4750 2638 4750 
Q 3056 4750 3426 4639 
Q 3797 4528 4122 4306 
z
" transform="scale(0.015625)"/>
       <path id="DejaVuSans-76" d="M 191 3500 
L 800 3500 
L 1894 563 
L 2988 3500 
L 3597 3500 
L 2284 0 
L 1503 0 
L 191 3500 
z
" transform="scale(0.015625)"/>
       <path id="DejaVuSans-5f" d="M 3263 -1063 
L 3263 -1509 
L -63 -1509 
L -63 -1063 
L 3263 -1063 
z
" transform="scale(0.015625)"/>
       <path id="DejaVuSans-64" d="M 2906 2969 
L 2906 4863 
L 3481 4863 
L 3481 0 
L 2906 0 
L 2906 525 
Q 2725 213 2448 61 
Q 2172 -91 1784 -91 
Q 1150 -91 751 415 
Q 353 922 353 1747 
Q 353 2572 751 3078 
Q 1150 3584 1784 3584 
Q 2172 3584 2448 3432 
Q 2725 3281 2906 2969 
z
M 947 1747 
Q 947 1113 1208 752 
Q 1469 391 1925 391 
Q 2381 391 2643 752 
Q 2906 1113 2906 1747 
Q 2906 2381 2643 2742 
Q 2381 3103 1925 3103 
Q 1469 3103 1208 2742 
Q 947 2381 947 1747 
z
" transform="scale(0.015625)"/>
       <path id="DejaVuSans-61" d="M 2194 1759 
Q 1497 1759 1228 1600 
Q 959 1441 959 1056 
Q 959 750 1161 570 
Q 1363 391 1709 391 
Q 2188 391 2477 730 
Q 2766 1069 2766 1631 
L 2766 1759 
L 2194 1759 
z
M 3341 1997 
L 3341 0 
L 2766 0 
L 2766 531 
Q 2569 213 2275 61 
Q 1981 -91 1556 -91 
Q 1019 -91 701 211 
Q 384 513 384 1019 
Q 384 1609 779 1909 
Q 1175 2209 1959 2209 
L 2766 2209 
L 2766 2266 
Q 2766 2663 2505 2880 
Q 2244 3097 1772 3097 
Q 1472 3097 1187 3025 
Q 903 2953 641 2809 
L 641 3341 
Q 956 3463 1253 3523 
Q 1550 3584 1831 3584 
Q 2591 3584 2966 3190 
Q 3341 2797 3341 1997 
z
" transform="scale(0.015625)"/>
       <path id="DejaVuSans-70" d="M 1159 525 
L 1159 -1331 
L 581 -1331 
L 581 3500 
L 1159 3500 
L 1159 2969 
Q 1341 3281 1617 3432 
Q 1894 3584 2278 3584 
Q 2916 3584 3314 3078 
Q 3713 2572 3713 1747 
Q 3713 922 3314 415 
Q 2916 -91 2278 -91 
Q 1894 -91 1617 61 
Q 1341 213 1159 525 
z
M 3116 1747 
Q 3116 2381 2855 2742 
Q 2594 3103 2138 3103 
Q 1681 3103 1420 2742 
Q 1159 2381 1159 1747 
Q 1159 1113 1420 752 
Q 1681 391 2138 391 
Q 2594 391 2855 752 
Q 3116 1113 3116 1747 
z
" transform="scale(0.015625)"/>
       <path id="DejaVuSans-5d" d="M 1947 4863 
L 1947 -844 
L 622 -844 
L 622 -397 
L 1369 -397 
L 1369 4416 
L 622 4416 
L 622 4863 
L 1947 4863 
z
" transform="scale(0.015625)"/>
      </defs>
      <use xlink:href="#DejaVuSans-5b"/>
      <use xlink:href="#DejaVuSans-43" x="39.013672"/>
      <use xlink:href="#DejaVuSans-76" x="108.837891"/>
      <use xlink:href="#DejaVuSans-65" x="168.017578"/>
      <use xlink:href="#DejaVuSans-5f" x="229.541016"/>
      <use xlink:href="#DejaVuSans-64" x="279.541016"/>
      <use xlink:href="#DejaVuSans-61" x="343.017578"/>
      <use xlink:href="#DejaVuSans-70" x="404.296875"/>
      <use xlink:href="#DejaVuSans-5d" x="467.773438"/>
     </g>
    </g>
   </g>
   <g id="LineCollection_1">
    <path d="M 111.136364 303.88637 
L 111.136364 243.692608 
" clip-path="url(#pdbfa9e9d33)" style="fill: none; stroke: #000000; stroke-width: 1.5"/>
    <path d="M 111.321133 243.207268 
L 111.321133 77.118188 
" clip-path="url(#pdbfa9e9d33)" style="fill: none; stroke: #000000; stroke-width: 1.5"/>
    <path d="M 111.635856 173.517461 
L 111.635856 91.905107 
" clip-path="url(#pdbfa9e9d33)" style="fill: none; stroke: #000000; stroke-width: 1.5"/>
    <path d="M 111.950578 206.923372 
L 111.950578 152.675189 
" clip-path="url(#pdbfa9e9d33)" style="fill: none; stroke: #000000; stroke-width: 1.5"/>
    <path d="M 112.265301 229.465065 
L 112.265301 192.453437 
" clip-path="url(#pdbfa9e9d33)" style="fill: none; stroke: #000000; stroke-width: 1.5"/>
    <path d="M 113.524191 273.012962 
L 113.524191 236.373623 
" clip-path="url(#pdbfa9e9d33)" style="fill: none; stroke: #000000; stroke-width: 1.5"/>
    <path d="M 114.783082 284.293419 
L 114.783082 267.756942 
" clip-path="url(#pdbfa9e9d33)" style="fill: none; stroke: #000000; stroke-width: 1.5"/>
    <path d="M 116.041972 286.968435 
L 116.041972 275.354438 
" clip-path="url(#pdbfa9e9d33)" style="fill: none; stroke: #000000; stroke-width: 1.5"/>
    <path d="M 117.300863 295.254631 
L 117.300863 287.149397 
" clip-path="url(#pdbfa9e9d33)" style="fill: none; stroke: #000000; stroke-width: 1.5"/>
    <path d="M 118.559753 295.825593 
L 118.559753 288.159537 
" clip-path="url(#pdbfa9e9d33)" style="fill: none; stroke: #000000; stroke-width: 1.5"/>
    <path d="M 122.336424 300.035019 
L 122.336424 295.913298 
" clip-path="url(#pdbfa9e9d33)" style="fill: none; stroke: #000000; stroke-width: 1.5"/>
    <path d="M 126.113096 301.167937 
L 126.113096 298.31492 
" clip-path="url(#pdbfa9e9d33)" style="fill: none; stroke: #000000; stroke-width: 1.5"/>
    <path d="M 307.393315 298.755227 
L 307.393315 294.245725 
" clip-path="url(#pdbfa9e9d33)" style="fill: none; stroke: #000000; stroke-width: 1.5"/>
    <path d="M 307.535082 307.8 
L 307.535082 257.192062 
" clip-path="url(#pdbfa9e9d33)" style="fill: none; stroke: #000000; stroke-width: 1.5"/>
    <path d="M 307.708038 273.912863 
L 307.708038 87.085549 
" clip-path="url(#pdbfa9e9d33)" style="fill: none; stroke: #000000; stroke-width: 1.5"/>
    <path d="M 308.02276 183.623485 
L 308.02276 55.8 
" clip-path="url(#pdbfa9e9d33)" style="fill: none; stroke: #000000; stroke-width: 1.5"/>
    <path d="M 308.337483 175.36164 
L 308.337483 138.400826 
" clip-path="url(#pdbfa9e9d33)" style="fill: none; stroke: #000000; stroke-width: 1.5"/>
    <path d="M 308.652205 206.126653 
L 308.652205 176.240566 
" clip-path="url(#pdbfa9e9d33)" style="fill: none; stroke: #000000; stroke-width: 1.5"/>
    <path d="M 309.911096 260.752563 
L 309.911096 227.322612 
" clip-path="url(#pdbfa9e9d33)" style="fill: none; stroke: #000000; stroke-width: 1.5"/>
    <path d="M 311.169986 278.352745 
L 311.169986 253.249989 
" clip-path="url(#pdbfa9e9d33)" style="fill: none; stroke: #000000; stroke-width: 1.5"/>
    <path d="M 312.428877 283.226157 
L 312.428877 263.274161 
" clip-path="url(#pdbfa9e9d33)" style="fill: none; stroke: #000000; stroke-width: 1.5"/>
    <path d="M 313.687767 291.459501 
L 313.687767 280.038919 
" clip-path="url(#pdbfa9e9d33)" style="fill: none; stroke: #000000; stroke-width: 1.5"/>
    <path d="M 314.946658 295.095103 
L 314.946658 285.637245 
" clip-path="url(#pdbfa9e9d33)" style="fill: none; stroke: #000000; stroke-width: 1.5"/>
    <path d="M 318.723329 299.667932 
L 318.723329 292.594051 
" clip-path="url(#pdbfa9e9d33)" style="fill: none; stroke: #000000; stroke-width: 1.5"/>
    <path d="M 322.5 300.409634 
L 322.5 293.985551 
" clip-path="url(#pdbfa9e9d33)" style="fill: none; stroke: #000000; stroke-width: 1.5"/>
   </g>
   <g id="line2d_11">
    <path d="M 111.006411 305.79201 
L 111.014008 305.699713 
L 111.044588 300.78269 
L 111.211928 220.991717 
L 111.464491 156.858258 
L 111.573321 153.087941 
L 111.600529 153.436199 
L 111.736568 160.019499 
L 112.273385 207.893281 
L 112.834734 246.63592 
L 113.336474 268.187063 
L 113.838213 281.635607 
L 114.339953 289.993544 
L 114.841692 295.182563 
L 115.343432 298.403205 
L 115.845172 300.402242 
L 116.409628 301.761131 
L 116.974085 302.556997 
L 117.60126 303.062285 
L 118.385582 303.391351 
L 119.51591 303.593421 
L 121.59367 303.699755 
L 126.120026 303.690811 
L 126.14875 299.43898 
L 126.29168 231.788305 
L 126.540389 157.8423 
L 126.686964 151.11171 
L 126.77713 153.962138 
L 127.017573 172.614572 
L 127.841246 238.992907 
L 128.36253 263.359738 
L 128.86347 277.860557 
L 129.364411 286.884106 
L 129.865351 292.493068 
L 130.366292 295.97898 
L 130.867232 298.146142 
L 131.439736 299.640233 
L 132.012239 300.510837 
L 132.656305 301.06677 
L 133.443498 301.42067 
L 134.516941 301.636019 
L 136.520703 301.768991 
L 141.225932 301.828518 
L 141.252436 298.312917 
L 141.376635 240.906615 
L 141.64211 156.546134 
L 141.776533 149.165083 
L 141.801978 149.328642 
L 141.90376 153.163649 
L 142.176841 175.653032 
L 142.886529 233.415238 
L 143.424082 259.822261 
L 143.961635 275.809337 
L 144.499189 285.421667 
L 145.036742 291.194459 
L 145.574296 294.661684 
L 146.111849 296.745901 
L 146.649402 298.00099 
L 147.246684 298.822332 
L 147.903693 299.329262 
L 148.739888 299.661443 
L 149.934451 299.867959 
L 152.323797 300.010136 
L 156.333155 300.070057 
L 156.333718 300.05347 
L 156.362466 295.72031 
L 156.510192 225.638184 
L 156.750788 154.566624 
L 156.893072 147.441649 
L 156.916787 147.718735 
L 157.024869 152.283282 
L 157.357328 180.886706 
L 157.989037 231.424447 
L 158.496117 256.760842 
L 159.034935 273.313645 
L 159.546294 282.864315 
L 160.057653 288.746268 
L 160.569013 292.369373 
L 161.080372 294.60315 
L 161.591732 295.98289 
L 162.188317 296.944857 
L 162.784903 297.49935 
L 163.551943 297.888492 
L 164.574661 298.135221 
L 166.449646 298.31068 
L 171.437931 298.494248 
L 171.458926 296.429583 
L 171.552406 257.306506 
L 171.853307 153.455058 
L 171.987788 145.815797 
L 172.010202 145.911608 
L 172.090271 148.390249 
L 172.336968 167.330102 
L 173.118762 231.242382 
L 173.604226 255.217265 
L 174.107192 270.893924 
L 174.610158 280.639027 
L 175.113125 286.690329 
L 175.616091 290.448843 
L 176.119057 292.785741 
L 176.622024 294.241695 
L 177.208818 295.266547 
L 177.795612 295.863797 
L 178.550061 296.288501 
L 179.555994 296.562928 
L 181.232548 296.752382 
L 186.429867 297.013473 
L 186.54555 296.980381 
L 186.547452 296.928295 
L 186.577463 292.166411 
L 186.73822 215.52366 
L 186.989952 148.784567 
L 187.099381 144.316682 
L 187.143153 144.894878 
L 187.27161 151.388495 
L 187.804471 198.973376 
L 188.345811 236.728168 
L 188.894911 260.348617 
L 189.400946 273.59313 
L 189.90698 281.798465 
L 190.413015 286.880232 
L 190.91905 290.029794 
L 191.425084 291.985107 
L 191.931119 293.202643 
L 192.521492 294.060612 
L 193.196205 294.615369 
L 194.039596 294.977649 
L 195.220343 295.213768 
L 197.581838 295.412272 
L 201.651407 295.609039 
L 201.653767 295.553905 
L 201.681762 291.420834 
L 201.835905 218.403263 
L 202.095338 147.517821 
L 202.207018 142.933902 
L 202.251689 143.558855 
L 202.381322 150.220223 
L 202.953573 201.163994 
L 203.517357 238.807915 
L 204.01502 259.417139 
L 204.523503 272.547685 
L 205.031987 280.664654 
L 205.540471 285.681442 
L 206.048955 288.785019 
L 206.557439 290.708863 
L 207.065923 291.905603 
L 207.659155 292.748796 
L 208.337133 293.294949 
L 209.184606 293.65392 
L 210.455816 293.903728 
L 213.082983 294.126546 
L 216.758069 294.324238 
L 216.760923 294.25317 
L 216.791468 289.31799 
L 216.957755 210.001338 
L 217.193463 147.05328 
L 217.308291 141.655024 
L 217.354223 142.173316 
L 217.473719 147.947211 
L 217.915108 187.27958 
L 218.509639 231.30028 
L 219.015221 254.504538 
L 219.529357 269.15223 
L 220.043492 278.162483 
L 220.557627 283.702578 
L 221.071763 287.112096 
L 221.585898 289.214739 
L 222.100033 290.516181 
L 222.699858 291.42855 
L 223.299682 291.960798 
L 224.070885 292.344037 
L 225.184845 292.6175 
L 227.241386 292.842805 
L 231.863938 293.141167 
L 231.866243 293.100138 
L 231.89311 289.453127 
L 232.020603 230.202004 
L 232.274708 148.774415 
L 232.408535 140.492316 
L 232.453145 140.812244 
L 232.580852 146.787174 
L 233.037599 187.515763 
L 233.645719 231.780404 
L 234.192987 255.7957 
L 234.699615 269.340456 
L 235.206243 277.73126 
L 235.712871 282.928619 
L 236.219499 286.151543 
L 236.726126 288.154761 
L 237.232754 289.404876 
L 237.82382 290.289486 
L 238.499324 290.866339 
L 239.343703 291.249969 
L 240.525835 291.511037 
L 242.890098 291.754545 
L 246.970958 292.034318 
L 246.973453 291.983164 
L 247.001699 287.870076 
L 247.143008 221.153798 
L 247.405661 144.878613 
L 247.529645 139.364612 
L 247.554442 139.612484 
L 247.653629 143.542476 
L 247.958342 169.145675 
L 248.629925 223.454519 
L 249.159197 249.654764 
L 249.68847 265.653925 
L 250.217742 275.36024 
L 250.747014 281.24573 
L 251.276286 284.818535 
L 251.805558 286.992981 
L 252.33483 288.322387 
L 252.922911 289.21049 
L 253.569799 289.776338 
L 254.334303 290.148309 
L 255.451655 290.425398 
L 257.540959 290.67175 
L 262.077397 291.01543 
L 262.079733 290.972389 
L 262.10637 287.355867 
L 262.235817 227.13342 
L 262.490802 146.305287 
L 262.626421 138.349293 
L 262.649025 138.427607 
L 262.729738 140.89175 
L 262.978288 159.983629 
L 263.767728 224.353595 
L 264.259498 248.397944 
L 264.770091 264.054377 
L 265.280684 273.7234 
L 265.791277 279.691467 
L 266.30187 283.379043 
L 266.812463 285.662888 
L 267.323056 287.083169 
L 267.918748 288.084666 
L 268.51444 288.673432 
L 269.28033 289.102103 
L 270.301516 289.397321 
L 272.088592 289.647859 
L 277.183766 290.068367 
L 277.184372 290.06144 
L 277.203389 288.406811 
L 277.289009 254.214082 
L 277.60465 144.48382 
L 277.736978 137.391924 
L 277.759033 137.516604 
L 277.838611 140.049799 
L 278.08689 159.214351 
L 278.885406 224.074145 
L 279.395725 248.582659 
L 279.900655 263.680256 
L 280.405584 273.054146 
L 280.910514 278.87208 
L 281.415443 282.487181 
L 281.920373 284.739053 
L 282.425302 286.147746 
L 283.014387 287.147587 
L 283.603471 287.739757 
L 284.360866 288.17464 
L 285.370725 288.477505 
L 287.137979 288.737897 
L 292.290163 289.19474 
L 292.291012 289.185785 
L 292.309994 287.544074 
L 292.389601 256.491363 
L 292.709376 143.841563 
L 292.855806 136.550232 
L 292.94602 139.211226 
L 293.18659 157.695552 
L 293.976246 222.246597 
L 294.502749 247.728551 
L 295.052279 263.843008 
L 295.60181 273.435997 
L 296.15134 279.146038 
L 296.700871 282.550949 
L 297.250401 284.588798 
L 297.799931 285.816357 
L 298.418153 286.634252 
L 299.105066 287.152527 
L 299.998053 287.516027 
L 301.371879 287.793814 
L 304.462987 288.124419 
L 307.397438 288.373363 
L 307.400663 288.304774 
L 307.430674 283.609318 
L 307.596605 204.623296 
L 307.849612 139.632418 
L 307.963078 135.740254 
L 307.992496 136.183435 
L 308.139583 143.826069 
L 309.537867 244.141829 
L 310.093775 261.533531 
L 310.649683 271.828237 
L 311.205591 277.919532 
L 311.761499 281.530079 
L 312.317406 283.678204 
L 312.873314 284.964727 
L 313.429222 285.743809 
L 314.054618 286.269891 
L 314.88848 286.662853 
L 316.069784 286.949123 
L 318.432392 287.245689 
L 323.129445 287.687475 
L 323.129445 287.687475 
" clip-path="url(#pdbfa9e9d33)" style="fill: none; stroke: #0000ff; stroke-width: 1.5; stroke-linecap: square"/>
   </g>
   <g id="line2d_12">
    <path d="M 111.136364 273.789489 
L 111.321133 160.162728 
L 111.635856 132.711284 
L 111.950578 179.799281 
L 112.265301 210.959251 
L 113.524191 254.693293 
L 114.783082 276.02518 
L 116.041972 281.161437 
L 117.300863 291.202014 
L 118.559753 291.992565 
L 122.336424 297.974158 
L 126.113096 299.741429 
L 307.393315 296.500476 
L 307.535082 282.496031 
L 307.708038 180.499206 
L 308.02276 119.711742 
L 308.337483 156.881233 
L 308.652205 191.18361 
L 309.911096 244.037588 
L 311.169986 265.801367 
L 312.428877 273.250159 
L 313.687767 285.74921 
L 314.946658 290.366174 
L 318.723329 296.130992 
L 322.5 297.197592 
" clip-path="url(#pdbfa9e9d33)" style="fill: none; stroke: #000000; stroke-width: 1.5; stroke-linecap: square"/>
    <defs>
     <path id="mcb0c6eaf11" d="M -5 5 
L 5 5 
L 5 -5 
L -5 -5 
z
" style="stroke: #000000; stroke-linejoin: miter"/>
    </defs>
    <g clip-path="url(#pdbfa9e9d33)">
     <use xlink:href="#mcb0c6eaf11" x="111.136364" y="273.789489" style="stroke: #000000; stroke-linejoin: miter"/>
     <use xlink:href="#mcb0c6eaf11" x="111.321133" y="160.162728" style="stroke: #000000; stroke-linejoin: miter"/>
     <use xlink:href="#mcb0c6eaf11" x="111.635856" y="132.711284" style="stroke: #000000; stroke-linejoin: miter"/>
     <use xlink:href="#mcb0c6eaf11" x="111.950578" y="179.799281" style="stroke: #000000; stroke-linejoin: miter"/>
     <use xlink:href="#mcb0c6eaf11" x="112.265301" y="210.959251" style="stroke: #000000; stroke-linejoin: miter"/>
     <use xlink:href="#mcb0c6eaf11" x="113.524191" y="254.693293" style="stroke: #000000; stroke-linejoin: miter"/>
     <use xlink:href="#mcb0c6eaf11" x="114.783082" y="276.02518" style="stroke: #000000; stroke-linejoin: miter"/>
     <use xlink:href="#mcb0c6eaf11" x="116.041972" y="281.161437" style="stroke: #000000; stroke-linejoin: miter"/>
     <use xlink:href="#mcb0c6eaf11" x="117.300863" y="291.202014" style="stroke: #000000; stroke-linejoin: miter"/>
     <use xlink:href="#mcb0c6eaf11" x="118.559753" y="291.992565" style="stroke: #000000; stroke-linejoin: miter"/>
     <use xlink:href="#mcb0c6eaf11" x="122.336424" y="297.974158" style="stroke: #000000; stroke-linejoin: miter"/>
     <use xlink:href="#mcb0c6eaf11" x="126.113096" y="299.741429" style="stroke: #000000; stroke-linejoin: miter"/>
     <use xlink:href="#mcb0c6eaf11" x="307.393315" y="296.500476" style="stroke: #000000; stroke-linejoin: miter"/>
     <use xlink:href="#mcb0c6eaf11" x="307.535082" y="282.496031" style="stroke: #000000; stroke-linejoin: miter"/>
     <use xlink:href="#mcb0c6eaf11" x="307.708038" y="180.499206" style="stroke: #000000; stroke-linejoin: miter"/>
     <use xlink:href="#mcb0c6eaf11" x="308.02276" y="119.711742" style="stroke: #000000; stroke-linejoin: miter"/>
     <use xlink:href="#mcb0c6eaf11" x="308.337483" y="156.881233" style="stroke: #000000; stroke-linejoin: miter"/>
     <use xlink:href="#mcb0c6eaf11" x="308.652205" y="191.18361" style="stroke: #000000; stroke-linejoin: miter"/>
     <use xlink:href="#mcb0c6eaf11" x="309.911096" y="244.037588" style="stroke: #000000; stroke-linejoin: miter"/>
     <use xlink:href="#mcb0c6eaf11" x="311.169986" y="265.801367" style="stroke: #000000; stroke-linejoin: miter"/>
     <use xlink:href="#mcb0c6eaf11" x="312.428877" y="273.250159" style="stroke: #000000; stroke-linejoin: miter"/>
     <use xlink:href="#mcb0c6eaf11" x="313.687767" y="285.74921" style="stroke: #000000; stroke-linejoin: miter"/>
     <use xlink:href="#mcb0c6eaf11" x="314.946658" y="290.366174" style="stroke: #000000; stroke-linejoin: miter"/>
     <use xlink:href="#mcb0c6eaf11" x="318.723329" y="296.130992" style="stroke: #000000; stroke-linejoin: miter"/>
     <use xlink:href="#mcb0c6eaf11" x="322.5" y="297.197592" style="stroke: #000000; stroke-linejoin: miter"/>
    </g>
   </g>
   <g id="patch_3">
    <path d="M 90 320.4 
L 90 43.2 
" style="fill: none; stroke: #000000; stroke-width: 0.8; stroke-linejoin: miter; stroke-linecap: square"/>
   </g>
   <g id="patch_4">
    <path d="M 343.636364 320.4 
L 343.636364 43.2 
" style="fill: none; stroke: #000000; stroke-width: 0.8; stroke-linejoin: miter; stroke-linecap: square"/>
   </g>
   <g id="patch_5">
    <path d="M 90 320.4 
L 343.636364 320.4 
" style="fill: none; stroke: #000000; stroke-width: 0.8; stroke-linejoin: miter; stroke-linecap: square"/>
   </g>
   <g id="patch_6">
    <path d="M 90 43.2 
L 343.636364 43.2 
" style="fill: none; stroke: #000000; stroke-width: 0.8; stroke-linejoin: miter; stroke-linecap: square"/>
   </g>
   <g id="text_13">
    <!-- Kasichayanula2011a fm_dap20_dapagliflozin -->
    <g transform="translate(59.110369 37.2) scale(0.14 -0.14)">
     <defs>
      <path id="DejaVuSans-4b" d="M 628 4666 
L 1259 4666 
L 1259 2694 
L 3353 4666 
L 4166 4666 
L 1850 2491 
L 4331 0 
L 3500 0 
L 1259 2247 
L 1259 0 
L 628 0 
L 628 4666 
z
" transform="scale(0.015625)"/>
      <path id="DejaVuSans-73" d="M 2834 3397 
L 2834 2853 
Q 2591 2978 2328 3040 
Q 2066 3103 1784 3103 
Q 1356 3103 1142 2972 
Q 928 2841 928 2578 
Q 928 2378 1081 2264 
Q 1234 2150 1697 2047 
L 1894 2003 
Q 2506 1872 2764 1633 
Q 3022 1394 3022 966 
Q 3022 478 2636 193 
Q 2250 -91 1575 -91 
Q 1294 -91 989 -36 
Q 684 19 347 128 
L 347 722 
Q 666 556 975 473 
Q 1284 391 1588 391 
Q 1994 391 2212 530 
Q 2431 669 2431 922 
Q 2431 1156 2273 1281 
Q 2116 1406 1581 1522 
L 1381 1569 
Q 847 1681 609 1914 
Q 372 2147 372 2553 
Q 372 3047 722 3315 
Q 1072 3584 1716 3584 
Q 2034 3584 2315 3537 
Q 2597 3491 2834 3397 
z
" transform="scale(0.015625)"/>
      <path id="DejaVuSans-63" d="M 3122 3366 
L 3122 2828 
Q 2878 2963 2633 3030 
Q 2388 3097 2138 3097 
Q 1578 3097 1268 2742 
Q 959 2388 959 1747 
Q 959 1106 1268 751 
Q 1578 397 2138 397 
Q 2388 397 2633 464 
Q 2878 531 3122 666 
L 3122 134 
Q 2881 22 2623 -34 
Q 2366 -91 2075 -91 
Q 1284 -91 818 406 
Q 353 903 353 1747 
Q 353 2603 823 3093 
Q 1294 3584 2113 3584 
Q 2378 3584 2631 3529 
Q 2884 3475 3122 3366 
z
" transform="scale(0.015625)"/>
      <path id="DejaVuSans-68" d="M 3513 2113 
L 3513 0 
L 2938 0 
L 2938 2094 
Q 2938 2591 2744 2837 
Q 2550 3084 2163 3084 
Q 1697 3084 1428 2787 
Q 1159 2491 1159 1978 
L 1159 0 
L 581 0 
L 581 4863 
L 1159 4863 
L 1159 2956 
Q 1366 3272 1645 3428 
Q 1925 3584 2291 3584 
Q 2894 3584 3203 3211 
Q 3513 2838 3513 2113 
z
" transform="scale(0.015625)"/>
      <path id="DejaVuSans-79" d="M 2059 -325 
Q 1816 -950 1584 -1140 
Q 1353 -1331 966 -1331 
L 506 -1331 
L 506 -850 
L 844 -850 
Q 1081 -850 1212 -737 
Q 1344 -625 1503 -206 
L 1606 56 
L 191 3500 
L 800 3500 
L 1894 763 
L 2988 3500 
L 3597 3500 
L 2059 -325 
z
" transform="scale(0.015625)"/>
      <path id="DejaVuSans-6e" d="M 3513 2113 
L 3513 0 
L 2938 0 
L 2938 2094 
Q 2938 2591 2744 2837 
Q 2550 3084 2163 3084 
Q 1697 3084 1428 2787 
Q 1159 2491 1159 1978 
L 1159 0 
L 581 0 
L 581 3500 
L 1159 3500 
L 1159 2956 
Q 1366 3272 1645 3428 
Q 1925 3584 2291 3584 
Q 2894 3584 3203 3211 
Q 3513 2838 3513 2113 
z
" transform="scale(0.015625)"/>
      <path id="DejaVuSans-75" d="M 544 1381 
L 544 3500 
L 1119 3500 
L 1119 1403 
Q 1119 906 1312 657 
Q 1506 409 1894 409 
Q 2359 409 2629 706 
Q 2900 1003 2900 1516 
L 2900 3500 
L 3475 3500 
L 3475 0 
L 2900 0 
L 2900 538 
Q 2691 219 2414 64 
Q 2138 -91 1772 -91 
Q 1169 -91 856 284 
Q 544 659 544 1381 
z
M 1991 3584 
L 1991 3584 
z
" transform="scale(0.015625)"/>
      <path id="DejaVuSans-6c" d="M 603 4863 
L 1178 4863 
L 1178 0 
L 603 0 
L 603 4863 
z
" transform="scale(0.015625)"/>
      <path id="DejaVuSans-20" transform="scale(0.015625)"/>
      <path id="DejaVuSans-66" d="M 2375 4863 
L 2375 4384 
L 1825 4384 
Q 1516 4384 1395 4259 
Q 1275 4134 1275 3809 
L 1275 3500 
L 2222 3500 
L 2222 3053 
L 1275 3053 
L 1275 0 
L 697 0 
L 697 3053 
L 147 3053 
L 147 3500 
L 697 3500 
L 697 3744 
Q 697 4328 969 4595 
Q 1241 4863 1831 4863 
L 2375 4863 
z
" transform="scale(0.015625)"/>
      <path id="DejaVuSans-67" d="M 2906 1791 
Q 2906 2416 2648 2759 
Q 2391 3103 1925 3103 
Q 1463 3103 1205 2759 
Q 947 2416 947 1791 
Q 947 1169 1205 825 
Q 1463 481 1925 481 
Q 2391 481 2648 825 
Q 2906 1169 2906 1791 
z
M 3481 434 
Q 3481 -459 3084 -895 
Q 2688 -1331 1869 -1331 
Q 1566 -1331 1297 -1286 
Q 1028 -1241 775 -1147 
L 775 -588 
Q 1028 -725 1275 -790 
Q 1522 -856 1778 -856 
Q 2344 -856 2625 -561 
Q 2906 -266 2906 331 
L 2906 616 
Q 2728 306 2450 153 
Q 2172 0 1784 0 
Q 1141 0 747 490 
Q 353 981 353 1791 
Q 353 2603 747 3093 
Q 1141 3584 1784 3584 
Q 2172 3584 2450 3431 
Q 2728 3278 2906 2969 
L 2906 3500 
L 3481 3500 
L 3481 434 
z
" transform="scale(0.015625)"/>
      <path id="DejaVuSans-6f" d="M 1959 3097 
Q 1497 3097 1228 2736 
Q 959 2375 959 1747 
Q 959 1119 1226 758 
Q 1494 397 1959 397 
Q 2419 397 2687 759 
Q 2956 1122 2956 1747 
Q 2956 2369 2687 2733 
Q 2419 3097 1959 3097 
z
M 1959 3584 
Q 2709 3584 3137 3096 
Q 3566 2609 3566 1747 
Q 3566 888 3137 398 
Q 2709 -91 1959 -91 
Q 1206 -91 779 398 
Q 353 888 353 1747 
Q 353 2609 779 3096 
Q 1206 3584 1959 3584 
z
" transform="scale(0.015625)"/>
      <path id="DejaVuSans-7a" d="M 353 3500 
L 3084 3500 
L 3084 2975 
L 922 459 
L 3084 459 
L 3084 0 
L 275 0 
L 275 525 
L 2438 3041 
L 353 3041 
L 353 3500 
z
" transform="scale(0.015625)"/>
     </defs>
     <use xlink:href="#DejaVuSans-4b"/>
     <use xlink:href="#DejaVuSans-61" x="63.826172"/>
     <use xlink:href="#DejaVuSans-73" x="125.105469"/>
     <use xlink:href="#DejaVuSans-69" x="177.205078"/>
     <use xlink:href="#DejaVuSans-63" x="204.988281"/>
     <use xlink:href="#DejaVuSans-68" x="259.96875"/>
     <use xlink:href="#DejaVuSans-61" x="323.347656"/>
     <use xlink:href="#DejaVuSans-79" x="384.626953"/>
     <use xlink:href="#DejaVuSans-61" x="443.806641"/>
     <use xlink:href="#DejaVuSans-6e" x="505.085938"/>
     <use xlink:href="#DejaVuSans-75" x="568.464844"/>
     <use xlink:href="#DejaVuSans-6c" x="631.84375"/>
     <use xlink:href="#DejaVuSans-61" x="659.626953"/>
     <use xlink:href="#DejaVuSans-32" x="720.90625"/>
     <use xlink:href="#DejaVuSans-30" x="784.529297"/>
     <use xlink:href="#DejaVuSans-31" x="848.152344"/>
     <use xlink:href="#DejaVuSans-31" x="911.775391"/>
     <use xlink:href="#DejaVuSans-61" x="975.398438"/>
     <use xlink:href="#DejaVuSans-20" x="1036.677734"/>
     <use xlink:href="#DejaVuSans-66" x="1068.464844"/>
     <use xlink:href="#DejaVuSans-6d" x="1103.669922"/>
     <use xlink:href="#DejaVuSans-5f" x="1201.082031"/>
     <use xlink:href="#DejaVuSans-64" x="1251.082031"/>
     <use xlink:href="#DejaVuSans-61" x="1314.558594"/>
     <use xlink:href="#DejaVuSans-70" x="1375.837891"/>
     <use xlink:href="#DejaVuSans-32" x="1439.314453"/>
     <use xlink:href="#DejaVuSans-30" x="1502.9375"/>
     <use xlink:href="#DejaVuSans-5f" x="1566.560547"/>
     <use xlink:href="#DejaVuSans-64" x="1616.560547"/>
     <use xlink:href="#DejaVuSans-61" x="1680.037109"/>
     <use xlink:href="#DejaVuSans-70" x="1741.316406"/>
     <use xlink:href="#DejaVuSans-61" x="1804.792969"/>
     <use xlink:href="#DejaVuSans-67" x="1866.072266"/>
     <use xlink:href="#DejaVuSans-6c" x="1929.548828"/>
     <use xlink:href="#DejaVuSans-69" x="1957.332031"/>
     <use xlink:href="#DejaVuSans-66" x="1985.115234"/>
     <use xlink:href="#DejaVuSans-6c" x="2020.320312"/>
     <use xlink:href="#DejaVuSans-6f" x="2048.103516"/>
     <use xlink:href="#DejaVuSans-7a" x="2109.285156"/>
     <use xlink:href="#DejaVuSans-69" x="2161.775391"/>
     <use xlink:href="#DejaVuSans-6e" x="2189.558594"/>
    </g>
   </g>
   <g id="legend_1">
    <g id="patch_7">
     <path d="M 200.586364 80.834375 
L 336.636364 80.834375 
Q 338.636364 80.834375 338.636364 78.834375 
L 338.636364 50.2 
Q 338.636364 48.2 336.636364 48.2 
L 200.586364 48.2 
Q 198.586364 48.2 198.586364 50.2 
L 198.586364 78.834375 
Q 198.586364 80.834375 200.586364 80.834375 
z
" style="fill: #ffffff; opacity: 0.8; stroke: #cccccc; stroke-linejoin: miter"/>
    </g>
    <g id="line2d_13">
     <path d="M 202.586364 56.298437 
L 212.586364 56.298437 
L 222.586364 56.298437 
" style="fill: none; stroke: #0000ff; stroke-width: 1.5; stroke-linecap: square"/>
    </g>
    <g id="text_14">
     <!-- observable -->
     <g transform="translate(230.586364 59.798437) scale(0.1 -0.1)">
      <defs>
       <path id="DejaVuSans-62" d="M 3116 1747 
Q 3116 2381 2855 2742 
Q 2594 3103 2138 3103 
Q 1681 3103 1420 2742 
Q 1159 2381 1159 1747 
Q 1159 1113 1420 752 
Q 1681 391 2138 391 
Q 2594 391 2855 752 
Q 3116 1113 3116 1747 
z
M 1159 2969 
Q 1341 3281 1617 3432 
Q 1894 3584 2278 3584 
Q 2916 3584 3314 3078 
Q 3713 2572 3713 1747 
Q 3713 922 3314 415 
Q 2916 -91 2278 -91 
Q 1894 -91 1617 61 
Q 1341 213 1159 525 
L 1159 0 
L 581 0 
L 581 4863 
L 1159 4863 
L 1159 2969 
z
" transform="scale(0.015625)"/>
       <path id="DejaVuSans-72" d="M 2631 2963 
Q 2534 3019 2420 3045 
Q 2306 3072 2169 3072 
Q 1681 3072 1420 2755 
Q 1159 2438 1159 1844 
L 1159 0 
L 581 0 
L 581 3500 
L 1159 3500 
L 1159 2956 
Q 1341 3275 1631 3429 
Q 1922 3584 2338 3584 
Q 2397 3584 2469 3576 
Q 2541 3569 2628 3553 
L 2631 2963 
z
" transform="scale(0.015625)"/>
      </defs>
      <use xlink:href="#DejaVuSans-6f"/>
      <use xlink:href="#DejaVuSans-62" x="61.181641"/>
      <use xlink:href="#DejaVuSans-73" x="124.658203"/>
      <use xlink:href="#DejaVuSans-65" x="176.757812"/>
      <use xlink:href="#DejaVuSans-72" x="238.28125"/>
      <use xlink:href="#DejaVuSans-76" x="279.394531"/>
      <use xlink:href="#DejaVuSans-61" x="338.574219"/>
      <use xlink:href="#DejaVuSans-62" x="399.853516"/>
      <use xlink:href="#DejaVuSans-6c" x="463.330078"/>
      <use xlink:href="#DejaVuSans-65" x="491.113281"/>
     </g>
    </g>
    <g id="LineCollection_2">
     <path d="M 212.586364 75.976562 
L 212.586364 65.976562 
" style="fill: none; stroke: #000000; stroke-width: 1.5"/>
    </g>
    <g id="line2d_14">
     <path d="M 202.586364 70.976562 
L 222.586364 70.976562 
" style="fill: none; stroke: #000000; stroke-width: 1.5; stroke-linecap: square"/>
    </g>
    <g id="line2d_15">
     <g>
      <use xlink:href="#mcb0c6eaf11" x="212.586364" y="70.976562" style="stroke: #000000; stroke-linejoin: miter"/>
     </g>
    </g>
    <g id="text_15">
     <!-- reference_data ± SD -->
     <g transform="translate(230.586364 74.476562) scale(0.1 -0.1)">
      <defs>
       <path id="DejaVuSans-b1" d="M 2944 4013 
L 2944 2803 
L 4684 2803 
L 4684 2272 
L 2944 2272 
L 2944 1063 
L 2419 1063 
L 2419 2272 
L 678 2272 
L 678 2803 
L 2419 2803 
L 2419 4013 
L 2944 4013 
z
M 678 531 
L 4684 531 
L 4684 0 
L 678 0 
L 678 531 
z
" transform="scale(0.015625)"/>
       <path id="DejaVuSans-53" d="M 3425 4513 
L 3425 3897 
Q 3066 4069 2747 4153 
Q 2428 4238 2131 4238 
Q 1616 4238 1336 4038 
Q 1056 3838 1056 3469 
Q 1056 3159 1242 3001 
Q 1428 2844 1947 2747 
L 2328 2669 
Q 3034 2534 3370 2195 
Q 3706 1856 3706 1288 
Q 3706 609 3251 259 
Q 2797 -91 1919 -91 
Q 1588 -91 1214 -16 
Q 841 59 441 206 
L 441 856 
Q 825 641 1194 531 
Q 1563 422 1919 422 
Q 2459 422 2753 634 
Q 3047 847 3047 1241 
Q 3047 1584 2836 1778 
Q 2625 1972 2144 2069 
L 1759 2144 
Q 1053 2284 737 2584 
Q 422 2884 422 3419 
Q 422 4038 858 4394 
Q 1294 4750 2059 4750 
Q 2388 4750 2728 4690 
Q 3069 4631 3425 4513 
z
" transform="scale(0.015625)"/>
       <path id="DejaVuSans-44" d="M 1259 4147 
L 1259 519 
L 2022 519 
Q 2988 519 3436 956 
Q 3884 1394 3884 2338 
Q 3884 3275 3436 3711 
Q 2988 4147 2022 4147 
L 1259 4147 
z
M 628 4666 
L 1925 4666 
Q 3281 4666 3915 4102 
Q 4550 3538 4550 2338 
Q 4550 1131 3912 565 
Q 3275 0 1925 0 
L 628 0 
L 628 4666 
z
" transform="scale(0.015625)"/>
      </defs>
      <use xlink:href="#DejaVuSans-72"/>
      <use xlink:href="#DejaVuSans-65" x="38.863281"/>
      <use xlink:href="#DejaVuSans-66" x="100.386719"/>
      <use xlink:href="#DejaVuSans-65" x="135.591797"/>
      <use xlink:href="#DejaVuSans-72" x="197.115234"/>
      <use xlink:href="#DejaVuSans-65" x="235.978516"/>
      <use xlink:href="#DejaVuSans-6e" x="297.501953"/>
      <use xlink:href="#DejaVuSans-63" x="360.880859"/>
      <use xlink:href="#DejaVuSans-65" x="415.861328"/>
      <use xlink:href="#DejaVuSans-5f" x="477.384766"/>
      <use xlink:href="#DejaVuSans-64" x="527.384766"/>
      <use xlink:href="#DejaVuSans-61" x="590.861328"/>
      <use xlink:href="#DejaVuSans-74" x="652.140625"/>
      <use xlink:href="#DejaVuSans-61" x="691.349609"/>
      <use xlink:href="#DejaVuSans-20" x="752.628906"/>
      <use xlink:href="#DejaVuSans-b1" x="784.416016"/>
      <use xlink:href="#DejaVuSans-20" x="868.205078"/>
      <use xlink:href="#DejaVuSans-53" x="899.992188"/>
      <use xlink:href="#DejaVuSans-44" x="963.46875"/>
     </g>
    </g>
   </g>
  </g>
  <g id="axes_2">
   <g id="patch_8">
    <path d="M 394.363636 320.4 
L 648 320.4 
L 648 43.2 
L 394.363636 43.2 
z
" style="fill: #ffffff"/>
   </g>
   <g id="matplotlib.axis_3">
    <g id="xtick_6">
     <g id="line2d_16">
      <g>
       <use xlink:href="#m0b386babb5" x="415.370047" y="320.4" style="stroke: #000000; stroke-width: 0.8"/>
      </g>
     </g>
     <g id="text_16">
      <!-- 0 -->
      <g transform="translate(412.188797 334.998438) scale(0.1 -0.1)">
       <use xlink:href="#DejaVuSans-30"/>
      </g>
     </g>
    </g>
    <g id="xtick_7">
     <g id="line2d_17">
      <g>
       <use xlink:href="#m0b386babb5" x="467.823814" y="320.4" style="stroke: #000000; stroke-width: 0.8"/>
      </g>
     </g>
     <g id="text_17">
      <!-- 5000 -->
      <g transform="translate(455.098814 334.998438) scale(0.1 -0.1)">
       <use xlink:href="#DejaVuSans-35"/>
       <use xlink:href="#DejaVuSans-30" x="63.623047"/>
       <use xlink:href="#DejaVuSans-30" x="127.246094"/>
       <use xlink:href="#DejaVuSans-30" x="190.869141"/>
      </g>
     </g>
    </g>
    <g id="xtick_8">
     <g id="line2d_18">
      <g>
       <use xlink:href="#m0b386babb5" x="520.277581" y="320.4" style="stroke: #000000; stroke-width: 0.8"/>
      </g>
     </g>
     <g id="text_18">
      <!-- 10000 -->
      <g transform="translate(504.371331 334.998438) scale(0.1 -0.1)">
       <use xlink:href="#DejaVuSans-31"/>
       <use xlink:href="#DejaVuSans-30" x="63.623047"/>
       <use xlink:href="#DejaVuSans-30" x="127.246094"/>
       <use xlink:href="#DejaVuSans-30" x="190.869141"/>
       <use xlink:href="#DejaVuSans-30" x="254.492188"/>
      </g>
     </g>
    </g>
    <g id="xtick_9">
     <g id="line2d_19">
      <g>
       <use xlink:href="#m0b386babb5" x="572.731349" y="320.4" style="stroke: #000000; stroke-width: 0.8"/>
      </g>
     </g>
     <g id="text_19">
      <!-- 15000 -->
      <g transform="translate(556.825099 334.998438) scale(0.1 -0.1)">
       <use xlink:href="#DejaVuSans-31"/>
       <use xlink:href="#DejaVuSans-35" x="63.623047"/>
       <use xlink:href="#DejaVuSans-30" x="127.246094"/>
       <use xlink:href="#DejaVuSans-30" x="190.869141"/>
       <use xlink:href="#DejaVuSans-30" x="254.492188"/>
      </g>
     </g>
    </g>
    <g id="xtick_10">
     <g id="line2d_20">
      <g>
       <use xlink:href="#m0b386babb5" x="625.185116" y="320.4" style="stroke: #000000; stroke-width: 0.8"/>
      </g>
     </g>
     <g id="text_20">
      <!-- 20000 -->
      <g transform="translate(609.278866 334.998438) scale(0.1 -0.1)">
       <use xlink:href="#DejaVuSans-32"/>
       <use xlink:href="#DejaVuSans-30" x="63.623047"/>
       <use xlink:href="#DejaVuSans-30" x="127.246094"/>
       <use xlink:href="#DejaVuSans-30" x="190.869141"/>
       <use xlink:href="#DejaVuSans-30" x="254.492188"/>
      </g>
     </g>
    </g>
    <g id="text_21">
     <!-- time -->
     <g transform="translate(507.626506 350.19625) scale(0.12 -0.12)">
      <use xlink:href="#DejaVuSans-74"/>
      <use xlink:href="#DejaVuSans-69" x="39.208984"/>
      <use xlink:href="#DejaVuSans-6d" x="66.992188"/>
      <use xlink:href="#DejaVuSans-65" x="164.404297"/>
     </g>
    </g>
   </g>
   <g id="matplotlib.axis_4">
    <g id="ytick_6">
     <g id="line2d_21">
      <g>
       <use xlink:href="#m2bf590759a" x="394.363636" y="310.129063" style="stroke: #000000; stroke-width: 0.8"/>
      </g>
     </g>
     <g id="text_22">
      <!-- $\mathdefault{10^{-5}}$ -->
      <g transform="translate(363.863636 313.928282) scale(0.1 -0.1)">
       <defs>
        <path id="DejaVuSans-2212" d="M 678 2272 
L 4684 2272 
L 4684 1741 
L 678 1741 
L 678 2272 
z
" transform="scale(0.015625)"/>
       </defs>
       <use xlink:href="#DejaVuSans-31" transform="translate(0 0.684375)"/>
       <use xlink:href="#DejaVuSans-30" transform="translate(63.623047 0.684375)"/>
       <use xlink:href="#DejaVuSans-2212" transform="translate(128.203125 38.965625) scale(0.7)"/>
       <use xlink:href="#DejaVuSans-35" transform="translate(186.855469 38.965625) scale(0.7)"/>
      </g>
     </g>
    </g>
    <g id="ytick_7">
     <g id="line2d_22">
      <g>
       <use xlink:href="#m2bf590759a" x="394.363636" y="246.68378" style="stroke: #000000; stroke-width: 0.8"/>
      </g>
     </g>
     <g id="text_23">
      <!-- $\mathdefault{10^{-4}}$ -->
      <g transform="translate(363.863636 250.482999) scale(0.1 -0.1)">
       <use xlink:href="#DejaVuSans-31" transform="translate(0 0.684375)"/>
       <use xlink:href="#DejaVuSans-30" transform="translate(63.623047 0.684375)"/>
       <use xlink:href="#DejaVuSans-2212" transform="translate(128.203125 38.965625) scale(0.7)"/>
       <use xlink:href="#DejaVuSans-34" transform="translate(186.855469 38.965625) scale(0.7)"/>
      </g>
     </g>
    </g>
    <g id="ytick_8">
     <g id="line2d_23">
      <g>
       <use xlink:href="#m2bf590759a" x="394.363636" y="183.238497" style="stroke: #000000; stroke-width: 0.8"/>
      </g>
     </g>
     <g id="text_24">
      <!-- $\mathdefault{10^{-3}}$ -->
      <g transform="translate(363.863636 187.037716) scale(0.1 -0.1)">
       <defs>
        <path id="DejaVuSans-33" d="M 2597 2516 
Q 3050 2419 3304 2112 
Q 3559 1806 3559 1356 
Q 3559 666 3084 287 
Q 2609 -91 1734 -91 
Q 1441 -91 1130 -33 
Q 819 25 488 141 
L 488 750 
Q 750 597 1062 519 
Q 1375 441 1716 441 
Q 2309 441 2620 675 
Q 2931 909 2931 1356 
Q 2931 1769 2642 2001 
Q 2353 2234 1838 2234 
L 1294 2234 
L 1294 2753 
L 1863 2753 
Q 2328 2753 2575 2939 
Q 2822 3125 2822 3475 
Q 2822 3834 2567 4026 
Q 2313 4219 1838 4219 
Q 1578 4219 1281 4162 
Q 984 4106 628 3988 
L 628 4550 
Q 988 4650 1302 4700 
Q 1616 4750 1894 4750 
Q 2613 4750 3031 4423 
Q 3450 4097 3450 3541 
Q 3450 3153 3228 2886 
Q 3006 2619 2597 2516 
z
" transform="scale(0.015625)"/>
       </defs>
       <use xlink:href="#DejaVuSans-31" transform="translate(0 0.765625)"/>
       <use xlink:href="#DejaVuSans-30" transform="translate(63.623047 0.765625)"/>
       <use xlink:href="#DejaVuSans-2212" transform="translate(128.203125 39.046875) scale(0.7)"/>
       <use xlink:href="#DejaVuSans-33" transform="translate(186.855469 39.046875) scale(0.7)"/>
      </g>
     </g>
    </g>
    <g id="ytick_9">
     <g id="line2d_24">
      <g>
       <use xlink:href="#m2bf590759a" x="394.363636" y="119.793215" style="stroke: #000000; stroke-width: 0.8"/>
      </g>
     </g>
     <g id="text_25">
      <!-- $\mathdefault{10^{-2}}$ -->
      <g transform="translate(363.863636 123.592433) scale(0.1 -0.1)">
       <use xlink:href="#DejaVuSans-31" transform="translate(0 0.765625)"/>
       <use xlink:href="#DejaVuSans-30" transform="translate(63.623047 0.765625)"/>
       <use xlink:href="#DejaVuSans-2212" transform="translate(128.203125 39.046875) scale(0.7)"/>
       <use xlink:href="#DejaVuSans-32" transform="translate(186.855469 39.046875) scale(0.7)"/>
      </g>
     </g>
    </g>
    <g id="ytick_10">
     <g id="line2d_25">
      <g>
       <use xlink:href="#m2bf590759a" x="394.363636" y="56.347932" style="stroke: #000000; stroke-width: 0.8"/>
      </g>
     </g>
     <g id="text_26">
      <!-- $\mathdefault{10^{-1}}$ -->
      <g transform="translate(363.863636 60.14715) scale(0.1 -0.1)">
       <use xlink:href="#DejaVuSans-31" transform="translate(0 0.684375)"/>
       <use xlink:href="#DejaVuSans-30" transform="translate(63.623047 0.684375)"/>
       <use xlink:href="#DejaVuSans-2212" transform="translate(128.203125 38.965625) scale(0.7)"/>
       <use xlink:href="#DejaVuSans-31" transform="translate(186.855469 38.965625) scale(0.7)"/>
      </g>
     </g>
    </g>
    <g id="ytick_11">
     <g id="line2d_26">
      <defs>
       <path id="m80bb82bcbc" d="M 0 0 
L -2 0 
" style="stroke: #000000; stroke-width: 0.6"/>
      </defs>
      <g>
       <use xlink:href="#m80bb82bcbc" x="394.363636" y="319.956862" style="stroke: #000000; stroke-width: 0.6"/>
      </g>
     </g>
    </g>
    <g id="ytick_12">
     <g id="line2d_27">
      <g>
       <use xlink:href="#m80bb82bcbc" x="394.363636" y="316.277546" style="stroke: #000000; stroke-width: 0.6"/>
      </g>
     </g>
    </g>
    <g id="ytick_13">
     <g id="line2d_28">
      <g>
       <use xlink:href="#m80bb82bcbc" x="394.363636" y="313.03216" style="stroke: #000000; stroke-width: 0.6"/>
      </g>
     </g>
    </g>
    <g id="ytick_14">
     <g id="line2d_29">
      <g>
       <use xlink:href="#m80bb82bcbc" x="394.363636" y="291.03013" style="stroke: #000000; stroke-width: 0.6"/>
      </g>
     </g>
    </g>
    <g id="ytick_15">
     <g id="line2d_30">
      <g>
       <use xlink:href="#m80bb82bcbc" x="394.363636" y="279.85797" style="stroke: #000000; stroke-width: 0.6"/>
      </g>
     </g>
    </g>
    <g id="ytick_16">
     <g id="line2d_31">
      <g>
       <use xlink:href="#m80bb82bcbc" x="394.363636" y="271.931197" style="stroke: #000000; stroke-width: 0.6"/>
      </g>
     </g>
    </g>
    <g id="ytick_17">
     <g id="line2d_32">
      <g>
       <use xlink:href="#m80bb82bcbc" x="394.363636" y="265.782713" style="stroke: #000000; stroke-width: 0.6"/>
      </g>
     </g>
    </g>
    <g id="ytick_18">
     <g id="line2d_33">
      <g>
       <use xlink:href="#m80bb82bcbc" x="394.363636" y="260.759037" style="stroke: #000000; stroke-width: 0.6"/>
      </g>
     </g>
    </g>
    <g id="ytick_19">
     <g id="line2d_34">
      <g>
       <use xlink:href="#m80bb82bcbc" x="394.363636" y="256.511579" style="stroke: #000000; stroke-width: 0.6"/>
      </g>
     </g>
    </g>
    <g id="ytick_20">
     <g id="line2d_35">
      <g>
       <use xlink:href="#m80bb82bcbc" x="394.363636" y="252.832263" style="stroke: #000000; stroke-width: 0.6"/>
      </g>
     </g>
    </g>
    <g id="ytick_21">
     <g id="line2d_36">
      <g>
       <use xlink:href="#m80bb82bcbc" x="394.363636" y="249.586877" style="stroke: #000000; stroke-width: 0.6"/>
      </g>
     </g>
    </g>
    <g id="ytick_22">
     <g id="line2d_37">
      <g>
       <use xlink:href="#m80bb82bcbc" x="394.363636" y="227.584847" style="stroke: #000000; stroke-width: 0.6"/>
      </g>
     </g>
    </g>
    <g id="ytick_23">
     <g id="line2d_38">
      <g>
       <use xlink:href="#m80bb82bcbc" x="394.363636" y="216.412687" style="stroke: #000000; stroke-width: 0.6"/>
      </g>
     </g>
    </g>
    <g id="ytick_24">
     <g id="line2d_39">
      <g>
       <use xlink:href="#m80bb82bcbc" x="394.363636" y="208.485914" style="stroke: #000000; stroke-width: 0.6"/>
      </g>
     </g>
    </g>
    <g id="ytick_25">
     <g id="line2d_40">
      <g>
       <use xlink:href="#m80bb82bcbc" x="394.363636" y="202.337431" style="stroke: #000000; stroke-width: 0.6"/>
      </g>
     </g>
    </g>
    <g id="ytick_26">
     <g id="line2d_41">
      <g>
       <use xlink:href="#m80bb82bcbc" x="394.363636" y="197.313754" style="stroke: #000000; stroke-width: 0.6"/>
      </g>
     </g>
    </g>
    <g id="ytick_27">
     <g id="line2d_42">
      <g>
       <use xlink:href="#m80bb82bcbc" x="394.363636" y="193.066296" style="stroke: #000000; stroke-width: 0.6"/>
      </g>
     </g>
    </g>
    <g id="ytick_28">
     <g id="line2d_43">
      <g>
       <use xlink:href="#m80bb82bcbc" x="394.363636" y="189.386981" style="stroke: #000000; stroke-width: 0.6"/>
      </g>
     </g>
    </g>
    <g id="ytick_29">
     <g id="line2d_44">
      <g>
       <use xlink:href="#m80bb82bcbc" x="394.363636" y="186.141594" style="stroke: #000000; stroke-width: 0.6"/>
      </g>
     </g>
    </g>
    <g id="ytick_30">
     <g id="line2d_45">
      <g>
       <use xlink:href="#m80bb82bcbc" x="394.363636" y="164.139564" style="stroke: #000000; stroke-width: 0.6"/>
      </g>
     </g>
    </g>
    <g id="ytick_31">
     <g id="line2d_46">
      <g>
       <use xlink:href="#m80bb82bcbc" x="394.363636" y="152.967404" style="stroke: #000000; stroke-width: 0.6"/>
      </g>
     </g>
    </g>
    <g id="ytick_32">
     <g id="line2d_47">
      <g>
       <use xlink:href="#m80bb82bcbc" x="394.363636" y="145.040631" style="stroke: #000000; stroke-width: 0.6"/>
      </g>
     </g>
    </g>
    <g id="ytick_33">
     <g id="line2d_48">
      <g>
       <use xlink:href="#m80bb82bcbc" x="394.363636" y="138.892148" style="stroke: #000000; stroke-width: 0.6"/>
      </g>
     </g>
    </g>
    <g id="ytick_34">
     <g id="line2d_49">
      <g>
       <use xlink:href="#m80bb82bcbc" x="394.363636" y="133.868471" style="stroke: #000000; stroke-width: 0.6"/>
      </g>
     </g>
    </g>
    <g id="ytick_35">
     <g id="line2d_50">
      <g>
       <use xlink:href="#m80bb82bcbc" x="394.363636" y="129.621013" style="stroke: #000000; stroke-width: 0.6"/>
      </g>
     </g>
    </g>
    <g id="ytick_36">
     <g id="line2d_51">
      <g>
       <use xlink:href="#m80bb82bcbc" x="394.363636" y="125.941698" style="stroke: #000000; stroke-width: 0.6"/>
      </g>
     </g>
    </g>
    <g id="ytick_37">
     <g id="line2d_52">
      <g>
       <use xlink:href="#m80bb82bcbc" x="394.363636" y="122.696311" style="stroke: #000000; stroke-width: 0.6"/>
      </g>
     </g>
    </g>
    <g id="ytick_38">
     <g id="line2d_53">
      <g>
       <use xlink:href="#m80bb82bcbc" x="394.363636" y="100.694281" style="stroke: #000000; stroke-width: 0.6"/>
      </g>
     </g>
    </g>
    <g id="ytick_39">
     <g id="line2d_54">
      <g>
       <use xlink:href="#m80bb82bcbc" x="394.363636" y="89.522122" style="stroke: #000000; stroke-width: 0.6"/>
      </g>
     </g>
    </g>
    <g id="ytick_40">
     <g id="line2d_55">
      <g>
       <use xlink:href="#m80bb82bcbc" x="394.363636" y="81.595348" style="stroke: #000000; stroke-width: 0.6"/>
      </g>
     </g>
    </g>
    <g id="ytick_41">
     <g id="line2d_56">
      <g>
       <use xlink:href="#m80bb82bcbc" x="394.363636" y="75.446865" style="stroke: #000000; stroke-width: 0.6"/>
      </g>
     </g>
    </g>
    <g id="ytick_42">
     <g id="line2d_57">
      <g>
       <use xlink:href="#m80bb82bcbc" x="394.363636" y="70.423188" style="stroke: #000000; stroke-width: 0.6"/>
      </g>
     </g>
    </g>
    <g id="ytick_43">
     <g id="line2d_58">
      <g>
       <use xlink:href="#m80bb82bcbc" x="394.363636" y="66.17573" style="stroke: #000000; stroke-width: 0.6"/>
      </g>
     </g>
    </g>
    <g id="ytick_44">
     <g id="line2d_59">
      <g>
       <use xlink:href="#m80bb82bcbc" x="394.363636" y="62.496415" style="stroke: #000000; stroke-width: 0.6"/>
      </g>
     </g>
    </g>
    <g id="ytick_45">
     <g id="line2d_60">
      <g>
       <use xlink:href="#m80bb82bcbc" x="394.363636" y="59.251029" style="stroke: #000000; stroke-width: 0.6"/>
      </g>
     </g>
    </g>
    <g id="text_27">
     <!-- [Cve_dap] -->
     <g transform="translate(357.034261 212.209687) rotate(-90) scale(0.12 -0.12)">
      <use xlink:href="#DejaVuSans-5b"/>
      <use xlink:href="#DejaVuSans-43" x="39.013672"/>
      <use xlink:href="#DejaVuSans-76" x="108.837891"/>
      <use xlink:href="#DejaVuSans-65" x="168.017578"/>
      <use xlink:href="#DejaVuSans-5f" x="229.541016"/>
      <use xlink:href="#DejaVuSans-64" x="279.541016"/>
      <use xlink:href="#DejaVuSans-61" x="343.017578"/>
      <use xlink:href="#DejaVuSans-70" x="404.296875"/>
      <use xlink:href="#DejaVuSans-5d" x="467.773438"/>
     </g>
    </g>
   </g>
   <g id="LineCollection_3">
    <path d="M 415.5 319.059874 
L 415.5 223.06421 
" clip-path="url(#padfd9d42fd)" style="fill: none; stroke: #000000; stroke-width: 1.5"/>
    <path d="M 415.68477 222.849698 
L 415.68477 187.145993 
" clip-path="url(#padfd9d42fd)" style="fill: none; stroke: #000000; stroke-width: 1.5"/>
    <path d="M 415.999492 202.229485 
L 415.999492 188.987953 
" clip-path="url(#padfd9d42fd)" style="fill: none; stroke: #000000; stroke-width: 1.5"/>
    <path d="M 416.314215 210.250094 
L 416.314215 198.197752 
" clip-path="url(#padfd9d42fd)" style="fill: none; stroke: #000000; stroke-width: 1.5"/>
    <path d="M 416.628937 217.380117 
L 416.628937 206.486571 
" clip-path="url(#padfd9d42fd)" style="fill: none; stroke: #000000; stroke-width: 1.5"/>
    <path d="M 417.887828 240.66971 
L 417.887828 219.994276 
" clip-path="url(#padfd9d42fd)" style="fill: none; stroke: #000000; stroke-width: 1.5"/>
    <path d="M 419.146718 252.292018 
L 419.146718 236.571915 
" clip-path="url(#padfd9d42fd)" style="fill: none; stroke: #000000; stroke-width: 1.5"/>
    <path d="M 420.405609 255.953313 
L 420.405609 242.711781 
" clip-path="url(#padfd9d42fd)" style="fill: none; stroke: #000000; stroke-width: 1.5"/>
    <path d="M 421.664499 271.93959 
L 421.664499 256.219486 
" clip-path="url(#padfd9d42fd)" style="fill: none; stroke: #000000; stroke-width: 1.5"/>
    <path d="M 422.923389 273.474556 
L 422.923389 257.754453 
" clip-path="url(#padfd9d42fd)" style="fill: none; stroke: #000000; stroke-width: 1.5"/>
    <path d="M 426.700061 288.596326 
L 426.700061 273.718105 
" clip-path="url(#padfd9d42fd)" style="fill: none; stroke: #000000; stroke-width: 1.5"/>
    <path d="M 430.476732 294.634469 
L 430.476732 281.392937 
" clip-path="url(#padfd9d42fd)" style="fill: none; stroke: #000000; stroke-width: 1.5"/>
    <path d="M 611.756951 283.065253 
L 611.756951 269.420198 
" clip-path="url(#padfd9d42fd)" style="fill: none; stroke: #000000; stroke-width: 1.5"/>
    <path d="M 611.898718 361 
L 611.898718 229.818062 
" clip-path="url(#padfd9d42fd)" style="fill: none; stroke: #000000; stroke-width: 1.5"/>
    <path d="M 612.071674 241.43674 
L 612.071674 188.373966 
" clip-path="url(#padfd9d42fd)" style="fill: none; stroke: #000000; stroke-width: 1.5"/>
    <path d="M 612.386397 204.419423 
L 612.386397 184.690046 
" clip-path="url(#padfd9d42fd)" style="fill: none; stroke: #000000; stroke-width: 1.5"/>
    <path d="M 612.701119 202.616346 
L 612.701119 195.741805 
" clip-path="url(#padfd9d42fd)" style="fill: none; stroke: #000000; stroke-width: 1.5"/>
    <path d="M 613.015842 210.028944 
L 613.015842 202.802651 
" clip-path="url(#padfd9d42fd)" style="fill: none; stroke: #000000; stroke-width: 1.5"/>
    <path d="M 614.274732 231.91447 
L 614.274732 216.61735 
" clip-path="url(#padfd9d42fd)" style="fill: none; stroke: #000000; stroke-width: 1.5"/>
    <path d="M 615.533623 245.5692 
L 615.533623 227.669109 
" clip-path="url(#padfd9d42fd)" style="fill: none; stroke: #000000; stroke-width: 1.5"/>
    <path d="M 616.792513 250.957018 
L 616.792513 233.501982 
" clip-path="url(#padfd9d42fd)" style="fill: none; stroke: #000000; stroke-width: 1.5"/>
    <path d="M 618.051403 263.463958 
L 618.051403 247.316681 
" clip-path="url(#padfd9d42fd)" style="fill: none; stroke: #000000; stroke-width: 1.5"/>
    <path d="M 619.310294 271.52557 
L 619.310294 254.070533 
" clip-path="url(#padfd9d42fd)" style="fill: none; stroke: #000000; stroke-width: 1.5"/>
    <path d="M 623.086965 286.893129 
L 623.086965 265.736279 
" clip-path="url(#padfd9d42fd)" style="fill: none; stroke: #000000; stroke-width: 1.5"/>
    <path d="M 626.863636 290.450295 
L 626.863636 268.806212 
" clip-path="url(#padfd9d42fd)" style="fill: none; stroke: #000000; stroke-width: 1.5"/>
   </g>
   <g id="line2d_61">
    <path d="M 415.383381 361 
L 415.515401 226.416672 
L 415.71968 202.036737 
L 415.90975 198.290082 
L 415.936958 198.272128 
L 415.964166 198.33504 
L 416.100204 199.552135 
L 416.430553 205.732178 
L 417.574675 233.783123 
L 419.268046 273.058516 
L 420.208808 290.412477 
L 420.961417 300.649596 
L 421.588592 306.586802 
L 422.215766 310.52583 
L 422.749218 312.696975 
L 423.314382 314.18326 
L 423.879546 315.119717 
L 424.538905 315.788333 
L 425.246275 316.216328 
L 426.383925 316.604068 
L 428.319842 316.972609 
L 430.477847 317.315529 
L 430.480121 317.207581 
L 430.498826 302.420949 
L 430.672348 215.326493 
L 430.884606 199.603553 
L 431.0506 197.917825 
L 431.140766 198.430322 
L 431.351154 201.478302 
L 431.929165 214.378522 
L 433.871173 258.720545 
L 434.801491 274.978535 
L 435.51712 284.015138 
L 436.161187 289.584104 
L 436.73369 292.858427 
L 437.306193 294.979526 
L 437.878697 296.318288 
L 438.4512 297.156505 
L 439.095267 297.737709 
L 439.954022 298.18701 
L 441.170592 298.536982 
L 443.603731 298.949907 
L 445.58485 299.232481 
L 445.587185 299.155101 
L 445.6052 290.769578 
L 445.804958 211.111562 
L 446.005746 198.903299 
L 446.140169 197.573227 
L 446.165615 197.602015 
L 446.267397 198.285792 
L 446.501128 201.90829 
L 447.190437 217.432065 
L 448.743369 251.526326 
L 449.639291 266.499126 
L 450.356029 275.021273 
L 451.013039 280.259695 
L 451.61032 283.329279 
L 452.207602 285.263024 
L 452.804883 286.454124 
L 453.402165 287.186143 
L 454.118902 287.713902 
L 455.074553 288.111901 
L 456.597805 288.461569 
L 460.541483 289.050293 
L 460.691761 289.072337 
L 460.694542 288.98323 
L 460.716005 280.333246 
L 460.92451 209.128068 
L 461.138138 198.091109 
L 461.256709 197.271695 
L 461.280423 197.319952 
L 461.388505 198.127317 
L 461.647085 202.311011 
L 462.5217 221.981191 
L 463.739477 247.466998 
L 464.591743 261.060711 
L 465.273555 268.780833 
L 465.870141 273.393874 
L 466.466727 276.42562 
L 467.063313 278.335131 
L 467.659899 279.51168 
L 468.256485 280.235313 
L 468.938298 280.738555 
L 469.87579 281.136489 
L 471.324642 281.47801 
L 474.904157 282.020577 
L 475.798665 282.147823 
L 475.801567 282.061835 
L 475.825957 273.258458 
L 476.046872 207.109986 
L 476.261771 197.55439 
L 476.351425 196.990229 
L 476.396252 197.073003 
L 476.524393 198.182364 
L 476.841574 203.743628 
L 479.309106 253.19143 
L 480.063555 262.444301 
L 480.734177 267.918896 
L 481.320971 271.013235 
L 481.907765 272.982858 
L 482.494559 274.207778 
L 483.081353 274.966528 
L 483.751975 275.496266 
L 484.67408 275.914214 
L 486.099151 276.266797 
L 489.368432 276.772013 
L 490.905394 276.991482 
L 490.908553 276.905315 
L 490.933324 269.079832 
L 491.150017 207.07764 
L 491.353589 197.506367 
L 491.463017 196.733227 
L 491.506789 196.832067 
L 491.635247 197.967174 
L 491.954963 203.555135 
L 494.186278 248.020924 
L 494.94533 257.663129 
L 495.620042 263.41392 
L 496.210416 266.67771 
L 496.80079 268.757232 
L 497.391163 270.048722 
L 497.981537 270.846058 
L 498.65625 271.399791 
L 499.499641 271.803183 
L 500.764727 272.143216 
L 503.463578 272.583183 
L 506.012232 272.94701 
L 506.015554 272.858356 
L 506.040471 265.776626 
L 506.267246 205.770823 
L 506.48131 196.976711 
L 506.570654 196.498276 
L 506.615326 196.604215 
L 506.744959 197.759476 
L 507.06685 203.361013 
L 509.226129 245.596298 
L 509.988855 255.002122 
L 510.666834 260.550553 
L 511.260065 263.672451 
L 511.853296 265.649414 
L 512.446528 266.872292 
L 513.039759 267.626005 
L 513.717737 268.150067 
L 514.649958 268.562641 
L 516.090663 268.912045 
L 519.480556 269.431453 
L 521.11903 269.664061 
L 521.122888 269.553435 
L 521.14974 262.087934 
L 521.382052 204.785468 
L 521.580065 196.855171 
L 521.671928 196.282748 
L 521.717859 196.369892 
L 521.837355 197.359806 
L 522.131615 202.248384 
L 524.407128 245.378802 
L 525.092642 253.248405 
L 525.692467 257.958201 
L 526.292291 261.053511 
L 526.892116 263.000624 
L 527.49194 264.197756 
L 528.091765 264.932052 
L 528.777278 265.441118 
L 529.71986 265.842207 
L 531.176577 266.185314 
L 534.775524 266.730306 
L 536.225786 266.929342 
L 536.229111 266.851357 
L 536.254725 260.677382 
L 536.497607 203.823082 
L 536.705258 196.43989 
L 536.794476 196.090362 
L 536.839086 196.236897 
L 537.014758 198.090666 
L 537.43637 206.048999 
L 538.978814 236.392222 
L 539.738755 247.005326 
L 540.414259 253.536428 
L 541.005325 257.325857 
L 541.596391 259.772661 
L 542.187456 261.30173 
L 542.778522 262.245144 
L 543.454026 262.894977 
L 544.298405 263.358973 
L 545.480537 263.715205 
L 547.760362 264.113985 
L 551.332589 264.623342 
L 551.335426 264.566429 
L 551.358989 259.707562 
L 551.622911 202.288215 
L 551.818891 196.18982 
L 551.893281 195.900911 
L 551.942875 196.038533 
L 552.093443 197.501451 
L 552.474335 204.364583 
L 554.110914 236.019885 
L 554.875418 246.214596 
L 555.522306 252.135186 
L 556.110387 255.709214 
L 556.698467 258.010118 
L 557.286547 259.447737 
L 557.874627 260.336701 
L 558.521515 260.934114 
L 559.344828 261.37806 
L 560.520988 261.730187 
L 562.787795 262.126303 
L 566.439392 262.646128 
L 566.442488 262.58073 
L 566.467868 257.292839 
L 566.727485 202.212181 
L 566.922248 196.049642 
L 566.990058 195.733324 
L 567.035264 195.807762 
L 567.164389 196.870093 
L 567.483953 202.194781 
L 569.389024 237.841285 
L 570.069815 246.109335 
L 570.750606 251.716004 
L 571.346297 254.868421 
L 571.941989 256.861974 
L 572.537681 258.092907 
L 573.133373 258.850105 
L 573.814164 259.375559 
L 574.750251 259.788483 
L 576.196931 260.137975 
L 579.685984 260.670699 
L 581.546202 260.926212 
L 581.549534 260.852295 
L 581.578188 254.614505 
L 581.831492 202.190081 
L 582.034451 195.843717 
L 582.100615 195.57623 
L 582.144724 195.662349 
L 582.273184 196.73314 
L 582.592401 202.032948 
L 584.432601 236.25209 
L 585.189995 245.300926 
L 585.863235 250.609756 
L 586.452319 253.590727 
L 587.041404 255.479469 
L 587.630488 256.650645 
L 588.219573 257.375328 
L 588.976967 257.929332 
L 589.902671 258.31044 
L 591.41746 258.658424 
L 595.288587 259.237291 
L 596.652951 259.430678 
L 596.656604 259.346 
L 596.686377 252.899915 
L 596.93127 202.473638 
L 597.131191 195.789816 
L 597.219442 195.438854 
L 597.249513 195.511966 
L 597.369798 196.467302 
L 597.670511 201.304727 
L 599.62199 236.773015 
L 600.308903 244.572679 
L 600.927124 249.333364 
L 601.545346 252.412398 
L 602.094876 254.148728 
L 602.713098 255.367283 
L 603.33132 256.10397 
L 604.086924 256.634553 
L 605.048602 257.014005 
L 606.628502 257.362192 
L 610.956682 257.999047 
L 611.759728 258.107797 
L 611.763523 258.018274 
L 611.789682 252.956993 
L 612.055642 201.167244 
L 612.249669 195.551067 
L 612.326715 195.307298 
L 612.356132 195.379201 
L 612.50322 196.649637 
L 612.857552 202.694063 
L 614.457411 232.396435 
L 615.221785 241.942602 
L 615.847181 247.23111 
L 616.472577 250.681205 
L 617.028485 252.631645 
L 617.584393 253.877462 
L 618.209789 254.74449 
L 618.904674 255.31665 
L 619.808024 255.739455 
L 621.128305 256.080511 
L 624.046821 256.5447 
L 627.493082 257.026473 
L 627.493082 257.026473 
" clip-path="url(#padfd9d42fd)" style="fill: none; stroke: #0000ff; stroke-width: 1.5; stroke-linecap: square"/>
   </g>
   <g id="line2d_62">
    <path d="M 415.5 241.330311 
L 415.68477 199.579222 
L 415.999492 194.820826 
L 416.314215 203.570135 
L 416.628937 211.398464 
L 417.887828 228.436592 
L 419.146718 243.325768 
L 420.405609 248.544654 
L 421.664499 262.973339 
L 422.923389 264.508306 
L 426.700061 280.164964 
L 430.476732 287.22581 
L 611.756951 275.406568 
L 611.898718 250.07962 
L 612.071674 203.723631 
L 612.386397 192.825369 
L 612.701119 198.965235 
L 613.015842 206.179578 
L 614.274732 223.217706 
L 615.533623 235.190445 
L 616.792513 240.869821 
L 618.051403 254.22403 
L 619.310294 261.438373 
L 623.086965 274.332091 
L 626.863636 277.555521 
" clip-path="url(#padfd9d42fd)" style="fill: none; stroke: #000000; stroke-width: 1.5; stroke-linecap: square"/>
    <g clip-path="url(#padfd9d42fd)">
     <use xlink:href="#mcb0c6eaf11" x="415.5" y="241.330311" style="stroke: #000000; stroke-linejoin: miter"/>
     <use xlink:href="#mcb0c6eaf11" x="415.68477" y="199.579222" style="stroke: #000000; stroke-linejoin: miter"/>
     <use xlink:href="#mcb0c6eaf11" x="415.999492" y="194.820826" style="stroke: #000000; stroke-linejoin: miter"/>
     <use xlink:href="#mcb0c6eaf11" x="416.314215" y="203.570135" style="stroke: #000000; stroke-linejoin: miter"/>
     <use xlink:href="#mcb0c6eaf11" x="416.628937" y="211.398464" style="stroke: #000000; stroke-linejoin: miter"/>
     <use xlink:href="#mcb0c6eaf11" x="417.887828" y="228.436592" style="stroke: #000000; stroke-linejoin: miter"/>
     <use xlink:href="#mcb0c6eaf11" x="419.146718" y="243.325768" style="stroke: #000000; stroke-linejoin: miter"/>
     <use xlink:href="#mcb0c6eaf11" x="420.405609" y="248.544654" style="stroke: #000000; stroke-linejoin: miter"/>
     <use xlink:href="#mcb0c6eaf11" x="421.664499" y="262.973339" style="stroke: #000000; stroke-linejoin: miter"/>
     <use xlink:href="#mcb0c6eaf11" x="422.923389" y="264.508306" style="stroke: #000000; stroke-linejoin: miter"/>
     <use xlink:href="#mcb0c6eaf11" x="426.700061" y="280.164964" style="stroke: #000000; stroke-linejoin: miter"/>
     <use xlink:href="#mcb0c6eaf11" x="430.476732" y="287.22581" style="stroke: #000000; stroke-linejoin: miter"/>
     <use xlink:href="#mcb0c6eaf11" x="611.756951" y="275.406568" style="stroke: #000000; stroke-linejoin: miter"/>
     <use xlink:href="#mcb0c6eaf11" x="611.898718" y="250.07962" style="stroke: #000000; stroke-linejoin: miter"/>
     <use xlink:href="#mcb0c6eaf11" x="612.071674" y="203.723631" style="stroke: #000000; stroke-linejoin: miter"/>
     <use xlink:href="#mcb0c6eaf11" x="612.386397" y="192.825369" style="stroke: #000000; stroke-linejoin: miter"/>
     <use xlink:href="#mcb0c6eaf11" x="612.701119" y="198.965235" style="stroke: #000000; stroke-linejoin: miter"/>
     <use xlink:href="#mcb0c6eaf11" x="613.015842" y="206.179578" style="stroke: #000000; stroke-linejoin: miter"/>
     <use xlink:href="#mcb0c6eaf11" x="614.274732" y="223.217706" style="stroke: #000000; stroke-linejoin: miter"/>
     <use xlink:href="#mcb0c6eaf11" x="615.533623" y="235.190445" style="stroke: #000000; stroke-linejoin: miter"/>
     <use xlink:href="#mcb0c6eaf11" x="616.792513" y="240.869821" style="stroke: #000000; stroke-linejoin: miter"/>
     <use xlink:href="#mcb0c6eaf11" x="618.051403" y="254.22403" style="stroke: #000000; stroke-linejoin: miter"/>
     <use xlink:href="#mcb0c6eaf11" x="619.310294" y="261.438373" style="stroke: #000000; stroke-linejoin: miter"/>
     <use xlink:href="#mcb0c6eaf11" x="623.086965" y="274.332091" style="stroke: #000000; stroke-linejoin: miter"/>
     <use xlink:href="#mcb0c6eaf11" x="626.863636" y="277.555521" style="stroke: #000000; stroke-linejoin: miter"/>
    </g>
   </g>
   <g id="patch_9">
    <path d="M 394.363636 320.4 
L 394.363636 43.2 
" style="fill: none; stroke: #000000; stroke-width: 0.8; stroke-linejoin: miter; stroke-linecap: square"/>
   </g>
   <g id="patch_10">
    <path d="M 648 320.4 
L 648 43.2 
" style="fill: none; stroke: #000000; stroke-width: 0.8; stroke-linejoin: miter; stroke-linecap: square"/>
   </g>
   <g id="patch_11">
    <path d="M 394.363636 320.4 
L 648 320.4 
" style="fill: none; stroke: #000000; stroke-width: 0.8; stroke-linejoin: miter; stroke-linecap: square"/>
   </g>
   <g id="patch_12">
    <path d="M 394.363636 43.2 
L 648 43.2 
" style="fill: none; stroke: #000000; stroke-width: 0.8; stroke-linejoin: miter; stroke-linecap: square"/>
   </g>
   <g id="text_28">
    <!-- Kasichayanula2011a fm_dap20_dapagliflozin -->
    <g transform="translate(363.474006 37.2) scale(0.14 -0.14)">
     <use xlink:href="#DejaVuSans-4b"/>
     <use xlink:href="#DejaVuSans-61" x="63.826172"/>
     <use xlink:href="#DejaVuSans-73" x="125.105469"/>
     <use xlink:href="#DejaVuSans-69" x="177.205078"/>
     <use xlink:href="#DejaVuSans-63" x="204.988281"/>
     <use xlink:href="#DejaVuSans-68" x="259.96875"/>
     <use xlink:href="#DejaVuSans-61" x="323.347656"/>
     <use xlink:href="#DejaVuSans-79" x="384.626953"/>
     <use xlink:href="#DejaVuSans-61" x="443.806641"/>
     <use xlink:href="#DejaVuSans-6e" x="505.085938"/>
     <use xlink:href="#DejaVuSans-75" x="568.464844"/>
     <use xlink:href="#DejaVuSans-6c" x="631.84375"/>
     <use xlink:href="#DejaVuSans-61" x="659.626953"/>
     <use xlink:href="#DejaVuSans-32" x="720.90625"/>
     <use xlink:href="#DejaVuSans-30" x="784.529297"/>
     <use xlink:href="#DejaVuSans-31" x="848.152344"/>
     <use xlink:href="#DejaVuSans-31" x="911.775391"/>
     <use xlink:href="#DejaVuSans-61" x="975.398438"/>
     <use xlink:href="#DejaVuSans-20" x="1036.677734"/>
     <use xlink:href="#DejaVuSans-66" x="1068.464844"/>
     <use xlink:href="#DejaVuSans-6d" x="1103.669922"/>
     <use xlink:href="#DejaVuSans-5f" x="1201.082031"/>
     <use xlink:href="#DejaVuSans-64" x="1251.082031"/>
     <use xlink:href="#DejaVuSans-61" x="1314.558594"/>
     <use xlink:href="#DejaVuSans-70" x="1375.837891"/>
     <use xlink:href="#DejaVuSans-32" x="1439.314453"/>
     <use xlink:href="#DejaVuSans-30" x="1502.9375"/>
     <use xlink:href="#DejaVuSans-5f" x="1566.560547"/>
     <use xlink:href="#DejaVuSans-64" x="1616.560547"/>
     <use xlink:href="#DejaVuSans-61" x="1680.037109"/>
     <use xlink:href="#DejaVuSans-70" x="1741.316406"/>
     <use xlink:href="#DejaVuSans-61" x="1804.792969"/>
     <use xlink:href="#DejaVuSans-67" x="1866.072266"/>
     <use xlink:href="#DejaVuSans-6c" x="1929.548828"/>
     <use xlink:href="#DejaVuSans-69" x="1957.332031"/>
     <use xlink:href="#DejaVuSans-66" x="1985.115234"/>
     <use xlink:href="#DejaVuSans-6c" x="2020.320312"/>
     <use xlink:href="#DejaVuSans-6f" x="2048.103516"/>
     <use xlink:href="#DejaVuSans-7a" x="2109.285156"/>
     <use xlink:href="#DejaVuSans-69" x="2161.775391"/>
     <use xlink:href="#DejaVuSans-6e" x="2189.558594"/>
    </g>
   </g>
   <g id="legend_2">
    <g id="patch_13">
     <path d="M 504.95 80.834375 
L 641 80.834375 
Q 643 80.834375 643 78.834375 
L 643 50.2 
Q 643 48.2 641 48.2 
L 504.95 48.2 
Q 502.95 48.2 502.95 50.2 
L 502.95 78.834375 
Q 502.95 80.834375 504.95 80.834375 
z
" style="fill: #ffffff; opacity: 0.8; stroke: #cccccc; stroke-linejoin: miter"/>
    </g>
    <g id="line2d_63">
     <path d="M 506.95 56.298437 
L 516.95 56.298437 
L 526.95 56.298437 
" style="fill: none; stroke: #0000ff; stroke-width: 1.5; stroke-linecap: square"/>
    </g>
    <g id="text_29">
     <!-- observable -->
     <g transform="translate(534.95 59.798437) scale(0.1 -0.1)">
      <use xlink:href="#DejaVuSans-6f"/>
      <use xlink:href="#DejaVuSans-62" x="61.181641"/>
      <use xlink:href="#DejaVuSans-73" x="124.658203"/>
      <use xlink:href="#DejaVuSans-65" x="176.757812"/>
      <use xlink:href="#DejaVuSans-72" x="238.28125"/>
      <use xlink:href="#DejaVuSans-76" x="279.394531"/>
      <use xlink:href="#DejaVuSans-61" x="338.574219"/>
      <use xlink:href="#DejaVuSans-62" x="399.853516"/>
      <use xlink:href="#DejaVuSans-6c" x="463.330078"/>
      <use xlink:href="#DejaVuSans-65" x="491.113281"/>
     </g>
    </g>
    <g id="LineCollection_4">
     <path d="M 516.95 75.976562 
L 516.95 65.976562 
" style="fill: none; stroke: #000000; stroke-width: 1.5"/>
    </g>
    <g id="line2d_64">
     <path d="M 506.95 70.976562 
L 526.95 70.976562 
" style="fill: none; stroke: #000000; stroke-width: 1.5; stroke-linecap: square"/>
    </g>
    <g id="line2d_65">
     <g>
      <use xlink:href="#mcb0c6eaf11" x="516.95" y="70.976562" style="stroke: #000000; stroke-linejoin: miter"/>
     </g>
    </g>
    <g id="text_30">
     <!-- reference_data ± SD -->
     <g transform="translate(534.95 74.476562) scale(0.1 -0.1)">
      <use xlink:href="#DejaVuSans-72"/>
      <use xlink:href="#DejaVuSans-65" x="38.863281"/>
      <use xlink:href="#DejaVuSans-66" x="100.386719"/>
      <use xlink:href="#DejaVuSans-65" x="135.591797"/>
      <use xlink:href="#DejaVuSans-72" x="197.115234"/>
      <use xlink:href="#DejaVuSans-65" x="235.978516"/>
      <use xlink:href="#DejaVuSans-6e" x="297.501953"/>
      <use xlink:href="#DejaVuSans-63" x="360.880859"/>
      <use xlink:href="#DejaVuSans-65" x="415.861328"/>
      <use xlink:href="#DejaVuSans-5f" x="477.384766"/>
      <use xlink:href="#DejaVuSans-64" x="527.384766"/>
      <use xlink:href="#DejaVuSans-61" x="590.861328"/>
      <use xlink:href="#DejaVuSans-74" x="652.140625"/>
      <use xlink:href="#DejaVuSans-61" x="691.349609"/>
      <use xlink:href="#DejaVuSans-20" x="752.628906"/>
      <use xlink:href="#DejaVuSans-b1" x="784.416016"/>
      <use xlink:href="#DejaVuSans-20" x="868.205078"/>
      <use xlink:href="#DejaVuSans-53" x="899.992188"/>
      <use xlink:href="#DejaVuSans-44" x="963.46875"/>
     </g>
    </g>
   </g>
  </g>
 </g>
 <defs>
  <clipPath id="pdbfa9e9d33">
   <rect x="90" y="43.2" width="253.636364" height="277.2"/>
  </clipPath>
  <clipPath id="padfd9d42fd">
   <rect x="394.363636" y="43.2" width="253.636364" height="277.2"/>
  </clipPath>
 </defs>
</svg>
