<?xml version="1.0" encoding="utf-8" standalone="no"?>
<!DOCTYPE svg PUBLIC "-//W3C//DTD SVG 1.1//EN"
  "http://www.w3.org/Graphics/SVG/1.1/DTD/svg11.dtd">
<svg xmlns:xlink="http://www.w3.org/1999/xlink" width="720pt" height="360pt" viewBox="0 0 720 360" xmlns="http://www.w3.org/2000/svg" version="1.1">
 <metadata>
  <rdf:RDF xmlns:dc="http://purl.org/dc/elements/1.1/" xmlns:cc="http://creativecommons.org/ns#" xmlns:rdf="http://www.w3.org/1999/02/22-rdf-syntax-ns#">
   <cc:Work>
    <dc:type rdf:resource="http://purl.org/dc/dcmitype/StillImage"/>
    <dc:date>2024-12-16T16:48:58.049216</dc:date>
    <dc:format>image/svg+xml</dc:format>
    <dc:creator>
     <cc:Agent>
      <dc:title>Matplotlib v3.9.1, https://matplotlib.org/</dc:title>
     </cc:Agent>
    </dc:creator>
   </cc:Work>
  </rdf:RDF>
 </metadata>
 <defs>
  <style type="text/css">*{stroke-linejoin: round; stroke-linecap: butt}</style>
 </defs>
 <g id="figure_1">
  <g id="patch_1">
   <path d="M 0 360 
L 720 360 
L 720 0 
L 0 0 
z
" style="fill: #ffffff"/>
  </g>
  <g id="axes_1">
   <g id="patch_2">
    <path d="M 90 320.4 
L 343.636364 320.4 
L 343.636364 43.2 
L 90 43.2 
z
" style="fill: #ffffff"/>
   </g>
   <g id="matplotlib.axis_1">
    <g id="xtick_1">
     <g id="line2d_1">
      <defs>
       <path id="mce0bc5570c" d="M 0 0 
L 0 3.5 
" style="stroke: #000000; stroke-width: 0.8"/>
      </defs>
      <g>
       <use xlink:href="#mce0bc5570c" x="110.994589" y="320.4" style="stroke: #000000; stroke-width: 0.8"/>
      </g>
     </g>
     <g id="text_1">
      <!-- 0 -->
      <g transform="translate(107.813339 334.998438) scale(0.1 -0.1)">
       <defs>
        <path id="DejaVuSans-30" d="M 2034 4250 
Q 1547 4250 1301 3770 
Q 1056 3291 1056 2328 
Q 1056 1369 1301 889 
Q 1547 409 2034 409 
Q 2525 409 2770 889 
Q 3016 1369 3016 2328 
Q 3016 3291 2770 3770 
Q 2525 4250 2034 4250 
z
M 2034 4750 
Q 2819 4750 3233 4129 
Q 3647 3509 3647 2328 
Q 3647 1150 3233 529 
Q 2819 -91 2034 -91 
Q 1250 -91 836 529 
Q 422 1150 422 2328 
Q 422 3509 836 4129 
Q 1250 4750 2034 4750 
z
" transform="scale(0.015625)"/>
       </defs>
       <use xlink:href="#DejaVuSans-30"/>
      </g>
     </g>
    </g>
    <g id="xtick_2">
     <g id="line2d_2">
      <g>
       <use xlink:href="#mce0bc5570c" x="163.451288" y="320.4" style="stroke: #000000; stroke-width: 0.8"/>
      </g>
     </g>
     <g id="text_2">
      <!-- 5000 -->
      <g transform="translate(150.726288 334.998438) scale(0.1 -0.1)">
       <defs>
        <path id="DejaVuSans-35" d="M 691 4666 
L 3169 4666 
L 3169 4134 
L 1269 4134 
L 1269 2991 
Q 1406 3038 1543 3061 
Q 1681 3084 1819 3084 
Q 2600 3084 3056 2656 
Q 3513 2228 3513 1497 
Q 3513 744 3044 326 
Q 2575 -91 1722 -91 
Q 1428 -91 1123 -41 
Q 819 9 494 109 
L 494 744 
Q 775 591 1075 516 
Q 1375 441 1709 441 
Q 2250 441 2565 725 
Q 2881 1009 2881 1497 
Q 2881 1984 2565 2268 
Q 2250 2553 1709 2553 
Q 1456 2553 1204 2497 
Q 953 2441 691 2322 
L 691 4666 
z
" transform="scale(0.015625)"/>
       </defs>
       <use xlink:href="#DejaVuSans-35"/>
       <use xlink:href="#DejaVuSans-30" x="63.623047"/>
       <use xlink:href="#DejaVuSans-30" x="127.246094"/>
       <use xlink:href="#DejaVuSans-30" x="190.869141"/>
      </g>
     </g>
    </g>
    <g id="xtick_3">
     <g id="line2d_3">
      <g>
       <use xlink:href="#mce0bc5570c" x="215.907987" y="320.4" style="stroke: #000000; stroke-width: 0.8"/>
      </g>
     </g>
     <g id="text_3">
      <!-- 10000 -->
      <g transform="translate(200.001737 334.998438) scale(0.1 -0.1)">
       <defs>
        <path id="DejaVuSans-31" d="M 794 531 
L 1825 531 
L 1825 4091 
L 703 3866 
L 703 4441 
L 1819 4666 
L 2450 4666 
L 2450 531 
L 3481 531 
L 3481 0 
L 794 0 
L 794 531 
z
" transform="scale(0.015625)"/>
       </defs>
       <use xlink:href="#DejaVuSans-31"/>
       <use xlink:href="#DejaVuSans-30" x="63.623047"/>
       <use xlink:href="#DejaVuSans-30" x="127.246094"/>
       <use xlink:href="#DejaVuSans-30" x="190.869141"/>
       <use xlink:href="#DejaVuSans-30" x="254.492188"/>
      </g>
     </g>
    </g>
    <g id="xtick_4">
     <g id="line2d_4">
      <g>
       <use xlink:href="#mce0bc5570c" x="268.364686" y="320.4" style="stroke: #000000; stroke-width: 0.8"/>
      </g>
     </g>
     <g id="text_4">
      <!-- 15000 -->
      <g transform="translate(252.458436 334.998438) scale(0.1 -0.1)">
       <use xlink:href="#DejaVuSans-31"/>
       <use xlink:href="#DejaVuSans-35" x="63.623047"/>
       <use xlink:href="#DejaVuSans-30" x="127.246094"/>
       <use xlink:href="#DejaVuSans-30" x="190.869141"/>
       <use xlink:href="#DejaVuSans-30" x="254.492188"/>
      </g>
     </g>
    </g>
    <g id="xtick_5">
     <g id="line2d_5">
      <g>
       <use xlink:href="#mce0bc5570c" x="320.821386" y="320.4" style="stroke: #000000; stroke-width: 0.8"/>
      </g>
     </g>
     <g id="text_5">
      <!-- 20000 -->
      <g transform="translate(304.915136 334.998438) scale(0.1 -0.1)">
       <defs>
        <path id="DejaVuSans-32" d="M 1228 531 
L 3431 531 
L 3431 0 
L 469 0 
L 469 531 
Q 828 903 1448 1529 
Q 2069 2156 2228 2338 
Q 2531 2678 2651 2914 
Q 2772 3150 2772 3378 
Q 2772 3750 2511 3984 
Q 2250 4219 1831 4219 
Q 1534 4219 1204 4116 
Q 875 4013 500 3803 
L 500 4441 
Q 881 4594 1212 4672 
Q 1544 4750 1819 4750 
Q 2544 4750 2975 4387 
Q 3406 4025 3406 3419 
Q 3406 3131 3298 2873 
Q 3191 2616 2906 2266 
Q 2828 2175 2409 1742 
Q 1991 1309 1228 531 
z
" transform="scale(0.015625)"/>
       </defs>
       <use xlink:href="#DejaVuSans-32"/>
       <use xlink:href="#DejaVuSans-30" x="63.623047"/>
       <use xlink:href="#DejaVuSans-30" x="127.246094"/>
       <use xlink:href="#DejaVuSans-30" x="190.869141"/>
       <use xlink:href="#DejaVuSans-30" x="254.492188"/>
      </g>
     </g>
    </g>
    <g id="text_6">
     <!-- time -->
     <g transform="translate(203.262869 350.19625) scale(0.12 -0.12)">
      <defs>
       <path id="DejaVuSans-74" d="M 1172 4494 
L 1172 3500 
L 2356 3500 
L 2356 3053 
L 1172 3053 
L 1172 1153 
Q 1172 725 1289 603 
Q 1406 481 1766 481 
L 2356 481 
L 2356 0 
L 1766 0 
Q 1100 0 847 248 
Q 594 497 594 1153 
L 594 3053 
L 172 3053 
L 172 3500 
L 594 3500 
L 594 4494 
L 1172 4494 
z
" transform="scale(0.015625)"/>
       <path id="DejaVuSans-69" d="M 603 3500 
L 1178 3500 
L 1178 0 
L 603 0 
L 603 3500 
z
M 603 4863 
L 1178 4863 
L 1178 4134 
L 603 4134 
L 603 4863 
z
" transform="scale(0.015625)"/>
       <path id="DejaVuSans-6d" d="M 3328 2828 
Q 3544 3216 3844 3400 
Q 4144 3584 4550 3584 
Q 5097 3584 5394 3201 
Q 5691 2819 5691 2113 
L 5691 0 
L 5113 0 
L 5113 2094 
Q 5113 2597 4934 2840 
Q 4756 3084 4391 3084 
Q 3944 3084 3684 2787 
Q 3425 2491 3425 1978 
L 3425 0 
L 2847 0 
L 2847 2094 
Q 2847 2600 2669 2842 
Q 2491 3084 2119 3084 
Q 1678 3084 1418 2786 
Q 1159 2488 1159 1978 
L 1159 0 
L 581 0 
L 581 3500 
L 1159 3500 
L 1159 2956 
Q 1356 3278 1631 3431 
Q 1906 3584 2284 3584 
Q 2666 3584 2933 3390 
Q 3200 3197 3328 2828 
z
" transform="scale(0.015625)"/>
       <path id="DejaVuSans-65" d="M 3597 1894 
L 3597 1613 
L 953 1613 
Q 991 1019 1311 708 
Q 1631 397 2203 397 
Q 2534 397 2845 478 
Q 3156 559 3463 722 
L 3463 178 
Q 3153 47 2828 -22 
Q 2503 -91 2169 -91 
Q 1331 -91 842 396 
Q 353 884 353 1716 
Q 353 2575 817 3079 
Q 1281 3584 2069 3584 
Q 2775 3584 3186 3129 
Q 3597 2675 3597 1894 
z
M 3022 2063 
Q 3016 2534 2758 2815 
Q 2500 3097 2075 3097 
Q 1594 3097 1305 2825 
Q 1016 2553 972 2059 
L 3022 2063 
z
" transform="scale(0.015625)"/>
      </defs>
      <use xlink:href="#DejaVuSans-74"/>
      <use xlink:href="#DejaVuSans-69" x="39.208984"/>
      <use xlink:href="#DejaVuSans-6d" x="66.992188"/>
      <use xlink:href="#DejaVuSans-65" x="164.404297"/>
     </g>
    </g>
   </g>
   <g id="matplotlib.axis_2">
    <g id="ytick_1">
     <g id="line2d_6">
      <defs>
       <path id="m76744cb491" d="M 0 0 
L -3.5 0 
" style="stroke: #000000; stroke-width: 0.8"/>
      </defs>
      <g>
       <use xlink:href="#m76744cb491" x="90" y="305.125112" style="stroke: #000000; stroke-width: 0.8"/>
      </g>
     </g>
     <g id="text_7">
      <!-- 0.0000 -->
      <g transform="translate(48.009375 308.92433) scale(0.1 -0.1)">
       <defs>
        <path id="DejaVuSans-2e" d="M 684 794 
L 1344 794 
L 1344 0 
L 684 0 
L 684 794 
z
" transform="scale(0.015625)"/>
       </defs>
       <use xlink:href="#DejaVuSans-30"/>
       <use xlink:href="#DejaVuSans-2e" x="63.623047"/>
       <use xlink:href="#DejaVuSans-30" x="95.410156"/>
       <use xlink:href="#DejaVuSans-30" x="159.033203"/>
       <use xlink:href="#DejaVuSans-30" x="222.65625"/>
       <use xlink:href="#DejaVuSans-30" x="286.279297"/>
      </g>
     </g>
    </g>
    <g id="ytick_2">
     <g id="line2d_7">
      <g>
       <use xlink:href="#m76744cb491" x="90" y="272.994643" style="stroke: #000000; stroke-width: 0.8"/>
      </g>
     </g>
     <g id="text_8">
      <!-- 0.0001 -->
      <g transform="translate(48.009375 276.793862) scale(0.1 -0.1)">
       <use xlink:href="#DejaVuSans-30"/>
       <use xlink:href="#DejaVuSans-2e" x="63.623047"/>
       <use xlink:href="#DejaVuSans-30" x="95.410156"/>
       <use xlink:href="#DejaVuSans-30" x="159.033203"/>
       <use xlink:href="#DejaVuSans-30" x="222.65625"/>
       <use xlink:href="#DejaVuSans-31" x="286.279297"/>
      </g>
     </g>
    </g>
    <g id="ytick_3">
     <g id="line2d_8">
      <g>
       <use xlink:href="#m76744cb491" x="90" y="240.864175" style="stroke: #000000; stroke-width: 0.8"/>
      </g>
     </g>
     <g id="text_9">
      <!-- 0.0002 -->
      <g transform="translate(48.009375 244.663393) scale(0.1 -0.1)">
       <use xlink:href="#DejaVuSans-30"/>
       <use xlink:href="#DejaVuSans-2e" x="63.623047"/>
       <use xlink:href="#DejaVuSans-30" x="95.410156"/>
       <use xlink:href="#DejaVuSans-30" x="159.033203"/>
       <use xlink:href="#DejaVuSans-30" x="222.65625"/>
       <use xlink:href="#DejaVuSans-32" x="286.279297"/>
      </g>
     </g>
    </g>
    <g id="ytick_4">
     <g id="line2d_9">
      <g>
       <use xlink:href="#m76744cb491" x="90" y="208.733706" style="stroke: #000000; stroke-width: 0.8"/>
      </g>
     </g>
     <g id="text_10">
      <!-- 0.0003 -->
      <g transform="translate(48.009375 212.532925) scale(0.1 -0.1)">
       <defs>
        <path id="DejaVuSans-33" d="M 2597 2516 
Q 3050 2419 3304 2112 
Q 3559 1806 3559 1356 
Q 3559 666 3084 287 
Q 2609 -91 1734 -91 
Q 1441 -91 1130 -33 
Q 819 25 488 141 
L 488 750 
Q 750 597 1062 519 
Q 1375 441 1716 441 
Q 2309 441 2620 675 
Q 2931 909 2931 1356 
Q 2931 1769 2642 2001 
Q 2353 2234 1838 2234 
L 1294 2234 
L 1294 2753 
L 1863 2753 
Q 2328 2753 2575 2939 
Q 2822 3125 2822 3475 
Q 2822 3834 2567 4026 
Q 2313 4219 1838 4219 
Q 1578 4219 1281 4162 
Q 984 4106 628 3988 
L 628 4550 
Q 988 4650 1302 4700 
Q 1616 4750 1894 4750 
Q 2613 4750 3031 4423 
Q 3450 4097 3450 3541 
Q 3450 3153 3228 2886 
Q 3006 2619 2597 2516 
z
" transform="scale(0.015625)"/>
       </defs>
       <use xlink:href="#DejaVuSans-30"/>
       <use xlink:href="#DejaVuSans-2e" x="63.623047"/>
       <use xlink:href="#DejaVuSans-30" x="95.410156"/>
       <use xlink:href="#DejaVuSans-30" x="159.033203"/>
       <use xlink:href="#DejaVuSans-30" x="222.65625"/>
       <use xlink:href="#DejaVuSans-33" x="286.279297"/>
      </g>
     </g>
    </g>
    <g id="ytick_5">
     <g id="line2d_10">
      <g>
       <use xlink:href="#m76744cb491" x="90" y="176.603238" style="stroke: #000000; stroke-width: 0.8"/>
      </g>
     </g>
     <g id="text_11">
      <!-- 0.0004 -->
      <g transform="translate(48.009375 180.402457) scale(0.1 -0.1)">
       <defs>
        <path id="DejaVuSans-34" d="M 2419 4116 
L 825 1625 
L 2419 1625 
L 2419 4116 
z
M 2253 4666 
L 3047 4666 
L 3047 1625 
L 3713 1625 
L 3713 1100 
L 3047 1100 
L 3047 0 
L 2419 0 
L 2419 1100 
L 313 1100 
L 313 1709 
L 2253 4666 
z
" transform="scale(0.015625)"/>
       </defs>
       <use xlink:href="#DejaVuSans-30"/>
       <use xlink:href="#DejaVuSans-2e" x="63.623047"/>
       <use xlink:href="#DejaVuSans-30" x="95.410156"/>
       <use xlink:href="#DejaVuSans-30" x="159.033203"/>
       <use xlink:href="#DejaVuSans-30" x="222.65625"/>
       <use xlink:href="#DejaVuSans-34" x="286.279297"/>
      </g>
     </g>
    </g>
    <g id="ytick_6">
     <g id="line2d_11">
      <g>
       <use xlink:href="#m76744cb491" x="90" y="144.472769" style="stroke: #000000; stroke-width: 0.8"/>
      </g>
     </g>
     <g id="text_12">
      <!-- 0.0005 -->
      <g transform="translate(48.009375 148.271988) scale(0.1 -0.1)">
       <use xlink:href="#DejaVuSans-30"/>
       <use xlink:href="#DejaVuSans-2e" x="63.623047"/>
       <use xlink:href="#DejaVuSans-30" x="95.410156"/>
       <use xlink:href="#DejaVuSans-30" x="159.033203"/>
       <use xlink:href="#DejaVuSans-30" x="222.65625"/>
       <use xlink:href="#DejaVuSans-35" x="286.279297"/>
      </g>
     </g>
    </g>
    <g id="ytick_7">
     <g id="line2d_12">
      <g>
       <use xlink:href="#m76744cb491" x="90" y="112.342301" style="stroke: #000000; stroke-width: 0.8"/>
      </g>
     </g>
     <g id="text_13">
      <!-- 0.0006 -->
      <g transform="translate(48.009375 116.14152) scale(0.1 -0.1)">
       <defs>
        <path id="DejaVuSans-36" d="M 2113 2584 
Q 1688 2584 1439 2293 
Q 1191 2003 1191 1497 
Q 1191 994 1439 701 
Q 1688 409 2113 409 
Q 2538 409 2786 701 
Q 3034 994 3034 1497 
Q 3034 2003 2786 2293 
Q 2538 2584 2113 2584 
z
M 3366 4563 
L 3366 3988 
Q 3128 4100 2886 4159 
Q 2644 4219 2406 4219 
Q 1781 4219 1451 3797 
Q 1122 3375 1075 2522 
Q 1259 2794 1537 2939 
Q 1816 3084 2150 3084 
Q 2853 3084 3261 2657 
Q 3669 2231 3669 1497 
Q 3669 778 3244 343 
Q 2819 -91 2113 -91 
Q 1303 -91 875 529 
Q 447 1150 447 2328 
Q 447 3434 972 4092 
Q 1497 4750 2381 4750 
Q 2619 4750 2861 4703 
Q 3103 4656 3366 4563 
z
" transform="scale(0.015625)"/>
       </defs>
       <use xlink:href="#DejaVuSans-30"/>
       <use xlink:href="#DejaVuSans-2e" x="63.623047"/>
       <use xlink:href="#DejaVuSans-30" x="95.410156"/>
       <use xlink:href="#DejaVuSans-30" x="159.033203"/>
       <use xlink:href="#DejaVuSans-30" x="222.65625"/>
       <use xlink:href="#DejaVuSans-36" x="286.279297"/>
      </g>
     </g>
    </g>
    <g id="ytick_8">
     <g id="line2d_13">
      <g>
       <use xlink:href="#m76744cb491" x="90" y="80.211833" style="stroke: #000000; stroke-width: 0.8"/>
      </g>
     </g>
     <g id="text_14">
      <!-- 0.0007 -->
      <g transform="translate(48.009375 84.011051) scale(0.1 -0.1)">
       <defs>
        <path id="DejaVuSans-37" d="M 525 4666 
L 3525 4666 
L 3525 4397 
L 1831 0 
L 1172 0 
L 2766 4134 
L 525 4134 
L 525 4666 
z
" transform="scale(0.015625)"/>
       </defs>
       <use xlink:href="#DejaVuSans-30"/>
       <use xlink:href="#DejaVuSans-2e" x="63.623047"/>
       <use xlink:href="#DejaVuSans-30" x="95.410156"/>
       <use xlink:href="#DejaVuSans-30" x="159.033203"/>
       <use xlink:href="#DejaVuSans-30" x="222.65625"/>
       <use xlink:href="#DejaVuSans-37" x="286.279297"/>
      </g>
     </g>
    </g>
    <g id="ytick_9">
     <g id="line2d_14">
      <g>
       <use xlink:href="#m76744cb491" x="90" y="48.081364" style="stroke: #000000; stroke-width: 0.8"/>
      </g>
     </g>
     <g id="text_15">
      <!-- 0.0008 -->
      <g transform="translate(48.009375 51.880583) scale(0.1 -0.1)">
       <defs>
        <path id="DejaVuSans-38" d="M 2034 2216 
Q 1584 2216 1326 1975 
Q 1069 1734 1069 1313 
Q 1069 891 1326 650 
Q 1584 409 2034 409 
Q 2484 409 2743 651 
Q 3003 894 3003 1313 
Q 3003 1734 2745 1975 
Q 2488 2216 2034 2216 
z
M 1403 2484 
Q 997 2584 770 2862 
Q 544 3141 544 3541 
Q 544 4100 942 4425 
Q 1341 4750 2034 4750 
Q 2731 4750 3128 4425 
Q 3525 4100 3525 3541 
Q 3525 3141 3298 2862 
Q 3072 2584 2669 2484 
Q 3125 2378 3379 2068 
Q 3634 1759 3634 1313 
Q 3634 634 3220 271 
Q 2806 -91 2034 -91 
Q 1263 -91 848 271 
Q 434 634 434 1313 
Q 434 1759 690 2068 
Q 947 2378 1403 2484 
z
M 1172 3481 
Q 1172 3119 1398 2916 
Q 1625 2713 2034 2713 
Q 2441 2713 2670 2916 
Q 2900 3119 2900 3481 
Q 2900 3844 2670 4047 
Q 2441 4250 2034 4250 
Q 1625 4250 1398 4047 
Q 1172 3844 1172 3481 
z
" transform="scale(0.015625)"/>
       </defs>
       <use xlink:href="#DejaVuSans-30"/>
       <use xlink:href="#DejaVuSans-2e" x="63.623047"/>
       <use xlink:href="#DejaVuSans-30" x="95.410156"/>
       <use xlink:href="#DejaVuSans-30" x="159.033203"/>
       <use xlink:href="#DejaVuSans-30" x="222.65625"/>
       <use xlink:href="#DejaVuSans-38" x="286.279297"/>
      </g>
     </g>
    </g>
    <g id="text_16">
     <!-- [Cve_d3g] -->
     <g transform="translate(41.18 212.350312) rotate(-90) scale(0.12 -0.12)">
      <defs>
       <path id="DejaVuSans-5b" d="M 550 4863 
L 1875 4863 
L 1875 4416 
L 1125 4416 
L 1125 -397 
L 1875 -397 
L 1875 -844 
L 550 -844 
L 550 4863 
z
" transform="scale(0.015625)"/>
       <path id="DejaVuSans-43" d="M 4122 4306 
L 4122 3641 
Q 3803 3938 3442 4084 
Q 3081 4231 2675 4231 
Q 1875 4231 1450 3742 
Q 1025 3253 1025 2328 
Q 1025 1406 1450 917 
Q 1875 428 2675 428 
Q 3081 428 3442 575 
Q 3803 722 4122 1019 
L 4122 359 
Q 3791 134 3420 21 
Q 3050 -91 2638 -91 
Q 1578 -91 968 557 
Q 359 1206 359 2328 
Q 359 3453 968 4101 
Q 1578 4750 2638 4750 
Q 3056 4750 3426 4639 
Q 3797 4528 4122 4306 
z
" transform="scale(0.015625)"/>
       <path id="DejaVuSans-76" d="M 191 3500 
L 800 3500 
L 1894 563 
L 2988 3500 
L 3597 3500 
L 2284 0 
L 1503 0 
L 191 3500 
z
" transform="scale(0.015625)"/>
       <path id="DejaVuSans-5f" d="M 3263 -1063 
L 3263 -1509 
L -63 -1509 
L -63 -1063 
L 3263 -1063 
z
" transform="scale(0.015625)"/>
       <path id="DejaVuSans-64" d="M 2906 2969 
L 2906 4863 
L 3481 4863 
L 3481 0 
L 2906 0 
L 2906 525 
Q 2725 213 2448 61 
Q 2172 -91 1784 -91 
Q 1150 -91 751 415 
Q 353 922 353 1747 
Q 353 2572 751 3078 
Q 1150 3584 1784 3584 
Q 2172 3584 2448 3432 
Q 2725 3281 2906 2969 
z
M 947 1747 
Q 947 1113 1208 752 
Q 1469 391 1925 391 
Q 2381 391 2643 752 
Q 2906 1113 2906 1747 
Q 2906 2381 2643 2742 
Q 2381 3103 1925 3103 
Q 1469 3103 1208 2742 
Q 947 2381 947 1747 
z
" transform="scale(0.015625)"/>
       <path id="DejaVuSans-67" d="M 2906 1791 
Q 2906 2416 2648 2759 
Q 2391 3103 1925 3103 
Q 1463 3103 1205 2759 
Q 947 2416 947 1791 
Q 947 1169 1205 825 
Q 1463 481 1925 481 
Q 2391 481 2648 825 
Q 2906 1169 2906 1791 
z
M 3481 434 
Q 3481 -459 3084 -895 
Q 2688 -1331 1869 -1331 
Q 1566 -1331 1297 -1286 
Q 1028 -1241 775 -1147 
L 775 -588 
Q 1028 -725 1275 -790 
Q 1522 -856 1778 -856 
Q 2344 -856 2625 -561 
Q 2906 -266 2906 331 
L 2906 616 
Q 2728 306 2450 153 
Q 2172 0 1784 0 
Q 1141 0 747 490 
Q 353 981 353 1791 
Q 353 2603 747 3093 
Q 1141 3584 1784 3584 
Q 2172 3584 2450 3431 
Q 2728 3278 2906 2969 
L 2906 3500 
L 3481 3500 
L 3481 434 
z
" transform="scale(0.015625)"/>
       <path id="DejaVuSans-5d" d="M 1947 4863 
L 1947 -844 
L 622 -844 
L 622 -397 
L 1369 -397 
L 1369 4416 
L 622 4416 
L 622 4863 
L 1947 4863 
z
" transform="scale(0.015625)"/>
      </defs>
      <use xlink:href="#DejaVuSans-5b"/>
      <use xlink:href="#DejaVuSans-43" x="39.013672"/>
      <use xlink:href="#DejaVuSans-76" x="108.837891"/>
      <use xlink:href="#DejaVuSans-65" x="168.017578"/>
      <use xlink:href="#DejaVuSans-5f" x="229.541016"/>
      <use xlink:href="#DejaVuSans-64" x="279.541016"/>
      <use xlink:href="#DejaVuSans-33" x="343.017578"/>
      <use xlink:href="#DejaVuSans-67" x="406.640625"/>
      <use xlink:href="#DejaVuSans-5d" x="470.117188"/>
     </g>
    </g>
   </g>
   <g id="LineCollection_1">
    <path d="M 111.136364 304.31867 
L 111.136364 301.445109 
" clip-path="url(#p269e7fb4eb)" style="fill: none; stroke: #000000; stroke-width: 1.5"/>
    <path d="M 111.309329 276.941403 
L 111.309329 218.463088 
" clip-path="url(#p269e7fb4eb)" style="fill: none; stroke: #000000; stroke-width: 1.5"/>
    <path d="M 111.624069 153.035665 
L 111.624069 55.8 
" clip-path="url(#p269e7fb4eb)" style="fill: none; stroke: #000000; stroke-width: 1.5"/>
    <path d="M 111.938809 153.523449 
L 111.938809 77.028581 
" clip-path="url(#p269e7fb4eb)" style="fill: none; stroke: #000000; stroke-width: 1.5"/>
    <path d="M 112.25355 191.644508 
L 112.25355 116.328987 
" clip-path="url(#p269e7fb4eb)" style="fill: none; stroke: #000000; stroke-width: 1.5"/>
    <path d="M 113.51251 261.249823 
L 113.51251 227.58621 
" clip-path="url(#p269e7fb4eb)" style="fill: none; stroke: #000000; stroke-width: 1.5"/>
    <path d="M 114.771471 279.69967 
L 114.771471 253.172593 
" clip-path="url(#p269e7fb4eb)" style="fill: none; stroke: #000000; stroke-width: 1.5"/>
    <path d="M 116.030432 287.074363 
L 116.030432 248.337455 
" clip-path="url(#p269e7fb4eb)" style="fill: none; stroke: #000000; stroke-width: 1.5"/>
    <path d="M 117.289393 289.553681 
L 117.289393 272.199112 
" clip-path="url(#p269e7fb4eb)" style="fill: none; stroke: #000000; stroke-width: 1.5"/>
    <path d="M 118.548353 292.253429 
L 118.548353 284.02415 
" clip-path="url(#p269e7fb4eb)" style="fill: none; stroke: #000000; stroke-width: 1.5"/>
    <path d="M 122.325236 299.311165 
L 122.325236 292.615348 
" clip-path="url(#p269e7fb4eb)" style="fill: none; stroke: #000000; stroke-width: 1.5"/>
    <path d="M 126.102118 301.321758 
L 126.102118 293.159761 
" clip-path="url(#p269e7fb4eb)" style="fill: none; stroke: #000000; stroke-width: 1.5"/>
    <path d="M 307.392471 299.754298 
L 307.392471 292.475417 
" clip-path="url(#p269e7fb4eb)" style="fill: none; stroke: #000000; stroke-width: 1.5"/>
    <path d="M 307.534245 298.319487 
L 307.534245 291.451084 
" clip-path="url(#p269e7fb4eb)" style="fill: none; stroke: #000000; stroke-width: 1.5"/>
    <path d="M 307.707211 307.8 
L 307.707211 193.817599 
" clip-path="url(#p269e7fb4eb)" style="fill: none; stroke: #000000; stroke-width: 1.5"/>
    <path d="M 308.021951 209.351068 
L 308.021951 79.551776 
" clip-path="url(#p269e7fb4eb)" style="fill: none; stroke: #000000; stroke-width: 1.5"/>
    <path d="M 308.336691 173.052552 
L 308.336691 91.755203 
" clip-path="url(#p269e7fb4eb)" style="fill: none; stroke: #000000; stroke-width: 1.5"/>
    <path d="M 308.651431 187.422388 
L 308.651431 130.47187 
" clip-path="url(#p269e7fb4eb)" style="fill: none; stroke: #000000; stroke-width: 1.5"/>
    <path d="M 309.910392 254.180817 
L 309.910392 220.369788 
" clip-path="url(#p269e7fb4eb)" style="fill: none; stroke: #000000; stroke-width: 1.5"/>
    <path d="M 311.169353 274.246146 
L 311.169353 240.94595 
" clip-path="url(#p269e7fb4eb)" style="fill: none; stroke: #000000; stroke-width: 1.5"/>
    <path d="M 312.428314 278.61981 
L 312.428314 234.972897 
" clip-path="url(#p269e7fb4eb)" style="fill: none; stroke: #000000; stroke-width: 1.5"/>
    <path d="M 313.687275 286.731707 
L 313.687275 262.599548 
" clip-path="url(#p269e7fb4eb)" style="fill: none; stroke: #000000; stroke-width: 1.5"/>
    <path d="M 314.946235 295.5916 
L 314.946235 272.923535 
" clip-path="url(#p269e7fb4eb)" style="fill: none; stroke: #000000; stroke-width: 1.5"/>
    <path d="M 318.723118 299.122375 
L 318.723118 290.987071 
" clip-path="url(#p269e7fb4eb)" style="fill: none; stroke: #000000; stroke-width: 1.5"/>
    <path d="M 322.5 300.5413 
L 322.5 290.011275 
" clip-path="url(#p269e7fb4eb)" style="fill: none; stroke: #000000; stroke-width: 1.5"/>
   </g>
   <g id="line2d_15">
    <path d="M 110.994589 305.125112 
L 111.04025 305.022581 
L 111.099916 303.549367 
L 111.226705 292.873699 
L 111.960372 217.540352 
L 112.133768 214.934623 
L 112.18109 214.973078 
L 112.323055 216.543224 
L 112.606985 224.005899 
L 114.213398 274.025394 
L 114.78931 283.922398 
L 115.365222 290.516415 
L 115.941134 294.857601 
L 116.517046 297.70602 
L 117.092958 299.57606 
L 117.740859 300.927684 
L 118.38876 301.77557 
L 119.145676 302.378494 
L 120.017789 302.77259 
L 121.218116 303.043173 
L 123.033802 303.202195 
L 126.138719 303.237844 
L 126.186167 302.48524 
L 126.28381 296.410446 
L 126.558414 259.637542 
L 126.92157 222.175916 
L 127.145777 213.95176 
L 127.272187 213.100927 
L 127.356461 213.650279 
L 127.567145 217.77777 
L 128.054738 234.320066 
L 128.948067 263.473056 
L 129.586159 277.266347 
L 130.160442 285.480987 
L 130.734725 290.923902 
L 131.309008 294.50527 
L 131.883291 296.859555 
L 132.521383 298.546089 
L 133.159475 299.611253 
L 133.861376 300.340252 
L 134.627087 300.817404 
L 135.584225 301.151351 
L 136.988028 301.383837 
L 139.476587 301.531774 
L 141.252962 301.495501 
L 141.308795 300.262863 
L 141.429123 290.795822 
L 142.205255 213.218788 
L 142.387943 211.4274 
L 142.480234 212.150264 
L 142.710961 217.087289 
L 143.250167 235.881225 
L 144.042855 261.45932 
L 144.691417 275.554162 
L 145.267917 283.812351 
L 145.844417 289.277105 
L 146.420917 292.868648 
L 146.997417 295.227465 
L 147.573917 296.780328 
L 148.222479 297.907951 
L 148.871042 298.620551 
L 149.663729 299.151221 
L 150.600542 299.503759 
L 151.969729 299.75719 
L 154.347791 299.929794 
L 156.360557 299.918339 
L 156.41513 298.73333 
L 156.536549 289.232336 
L 157.289162 212.268778 
L 157.493684 209.855741 
L 157.58836 210.591538 
L 157.82505 215.710244 
L 158.372406 234.861664 
L 159.164367 260.273636 
L 159.812335 274.236906 
L 160.388307 282.415833 
L 160.964279 287.830245 
L 161.540251 291.391356 
L 162.116223 293.732661 
L 162.692195 295.276198 
L 163.340163 296.399362 
L 163.988131 297.111348 
L 164.780093 297.644234 
L 165.716047 298.001613 
L 167.08398 298.264019 
L 169.459864 298.453784 
L 171.469034 298.451817 
L 171.523087 297.257591 
L 171.641778 288.032609 
L 172.406773 210.540548 
L 172.584544 208.379714 
L 172.655653 208.712754 
L 172.797871 210.875741 
L 173.123811 220.414937 
L 174.370658 261.352941 
L 174.960165 273.488853 
L 175.549672 281.592946 
L 176.139179 286.902346 
L 176.728686 290.360739 
L 177.318192 292.614244 
L 177.907699 294.087845 
L 178.581421 295.165331 
L 179.255143 295.83918 
L 180.097296 296.346331 
L 181.107879 296.683948 
L 182.623754 296.933819 
L 185.487073 297.136653 
L 186.577627 297.089633 
L 186.637781 295.607481 
L 186.762853 285.124589 
L 187.472598 210.458267 
L 187.684811 207.03377 
L 187.755549 207.304841 
L 187.897024 209.358314 
L 188.22197 218.74768 
L 189.551654 261.796761 
L 190.14124 273.363358 
L 190.730827 281.060709 
L 191.320413 286.098438 
L 191.909999 289.380366 
L 192.499585 291.52077 
L 193.089172 292.922514 
L 193.762984 293.949895 
L 194.436797 294.594821 
L 195.279063 295.083262 
L 196.374009 295.431995 
L 197.974314 295.681047 
L 201.174925 295.906715 
L 201.686402 295.824575 
L 201.742553 294.471375 
L 201.870386 283.870706 
L 202.606023 208.386634 
L 202.781388 205.79862 
L 202.816461 205.813239 
L 202.92168 206.691499 
L 203.153393 211.840115 
L 203.799658 234.645428 
L 204.556296 258.048321 
L 205.144791 270.409717 
L 205.733287 278.685653 
L 206.321782 284.117277 
L 206.910278 287.660898 
L 207.498774 289.973955 
L 208.087269 291.489781 
L 208.759836 292.601599 
L 209.432402 293.300241 
L 210.27311 293.830218 
L 211.28196 294.188393 
L 212.795234 294.462324 
L 215.653641 294.702849 
L 216.790888 294.688361 
L 216.847199 293.42964 
L 216.964258 284.279354 
L 217.726862 206.857993 
L 217.915716 204.642889 
L 217.991257 205.089555 
L 218.180112 208.505152 
L 218.566109 220.962714 
L 219.553079 254.019092 
L 220.163051 267.689717 
L 220.773023 276.761491 
L 221.382995 282.63488 
L 221.992967 286.409548 
L 222.602938 288.836368 
L 223.21291 290.403583 
L 223.822882 291.422968 
L 224.519993 292.167607 
L 225.304242 292.681263 
L 226.349908 293.072048 
L 227.831268 293.355551 
L 230.532572 293.605519 
L 231.89991 293.601394 
L 231.957472 292.242029 
L 232.070387 283.360765 
L 232.857642 205.210729 
L 232.997977 203.573534 
L 233.033061 203.595244 
L 233.138312 204.49212 
L 233.331338 208.577093 
L 233.857811 226.697638 
L 234.712237 254.32793 
L 235.37813 268.524741 
L 235.960788 276.635534 
L 236.543445 281.98183 
L 237.126102 285.486663 
L 237.708759 287.786294 
L 238.291416 289.301756 
L 238.95731 290.420594 
L 239.623203 291.129321 
L 240.455571 291.672712 
L 241.454411 292.046064 
L 242.952672 292.339961 
L 245.699484 292.606168 
L 247.006602 292.611102 
L 247.062391 291.352489 
L 247.177512 282.409878 
L 247.944733 204.721438 
L 248.134454 202.589927 
L 248.248286 203.536079 
L 248.438007 207.564639 
L 248.963631 225.647956 
L 249.839689 253.862989 
L 250.452948 266.984536 
L 251.066207 275.635393 
L 251.679466 281.21635 
L 252.292725 284.795782 
L 252.905984 287.094808 
L 253.519243 288.57951 
L 254.132501 289.546401 
L 254.833369 290.254885 
L 255.621845 290.746862 
L 256.673146 291.126609 
L 258.250097 291.423509 
L 261.228783 291.708937 
L 262.116614 291.665333 
L 262.173576 290.275937 
L 262.298124 279.995475 
L 263.037689 204.204341 
L 263.213699 201.661608 
L 263.2489 201.68688 
L 263.354506 202.598293 
L 263.548154 206.717373 
L 264.076307 224.922023 
L 264.934493 252.620888 
L 265.603432 266.809278 
L 266.188753 274.896791 
L 266.774074 280.218306 
L 267.359395 283.701933 
L 267.944715 285.985358 
L 268.530036 287.489459 
L 269.198975 288.600313 
L 269.867913 289.305205 
L 270.704086 289.847989 
L 271.707493 290.224656 
L 273.212604 290.528125 
L 276.055592 290.824389 
L 277.22199 290.826019 
L 277.279496 289.487055 
L 277.393085 280.571855 
L 278.154084 203.101757 
L 278.331486 200.801481 
L 278.402447 201.088874 
L 278.56214 203.554428 
L 278.934903 214.923329 
L 280.065442 252.381701 
L 280.654823 265.003338 
L 281.244204 273.465978 
L 281.833585 279.024429 
L 282.422966 282.653811 
L 283.012347 285.026093 
L 283.601728 286.584385 
L 284.275307 287.732132 
L 284.948885 288.458628 
L 285.790858 289.016999 
L 286.801225 289.404282 
L 288.316777 289.717366 
L 291.095287 290.019788 
L 292.33084 290.023674 
L 292.391576 288.499683 
L 292.522022 277.300547 
L 293.224056 203.47452 
L 293.41713 200.04886 
L 293.455744 200.02876 
L 293.532974 200.514585 
L 293.726048 204.101175 
L 294.115231 216.779225 
L 295.167453 251.459325 
L 295.781853 264.564351 
L 296.396254 273.197198 
L 297.010655 278.763961 
L 297.625055 282.334044 
L 298.239456 284.628078 
L 298.853857 286.111268 
L 299.468258 287.079271 
L 300.17043 287.791342 
L 300.960374 288.289374 
L 302.013632 288.679255 
L 303.59352 288.993641 
L 306.577752 289.314566 
L 307.436361 289.304631 
L 307.490363 288.128699 
L 307.608335 279.025503 
L 308.406173 200.690381 
L 308.540814 199.287241 
L 308.585695 199.371078 
L 308.720337 200.914099 
L 308.98962 207.914969 
L 310.657099 259.493908 
L 311.284169 269.810655 
L 311.911239 276.439018 
L 312.538308 280.65535 
L 313.165378 283.337712 
L 313.792448 285.053447 
L 314.419518 286.160918 
L 315.116262 286.948377 
L 315.88268 287.489232 
L 316.858122 287.900994 
L 318.251611 288.227487 
L 320.75989 288.543145 
L 323.12948 288.757791 
L 323.12948 288.757791 
" clip-path="url(#p269e7fb4eb)" style="fill: none; stroke: #0000ff; stroke-width: 1.5; stroke-linecap: square"/>
   </g>
   <g id="line2d_16">
    <path d="M 111.136364 302.881889 
L 111.309329 247.702246 
L 111.624069 104.417832 
L 111.938809 115.276015 
L 112.25355 153.986747 
L 113.51251 244.418016 
L 114.771471 266.436132 
L 116.030432 267.705909 
L 117.289393 280.876397 
L 118.548353 288.138789 
L 122.325236 295.963257 
L 126.102118 297.240759 
L 307.392471 296.114857 
L 307.534245 294.885285 
L 307.707211 250.8088 
L 308.021951 144.451422 
L 308.336691 132.403878 
L 308.651431 158.947129 
L 309.910392 237.275302 
L 311.169353 257.596048 
L 312.428314 256.796353 
L 313.687275 274.665627 
L 314.946235 284.257568 
L 318.723118 295.054723 
L 322.5 295.276287 
" clip-path="url(#p269e7fb4eb)" style="fill: none; stroke: #000000; stroke-width: 1.5; stroke-linecap: square"/>
    <defs>
     <path id="m355d14cc98" d="M -5 5 
L 5 5 
L 5 -5 
L -5 -5 
z
" style="stroke: #000000; stroke-linejoin: miter"/>
    </defs>
    <g clip-path="url(#p269e7fb4eb)">
     <use xlink:href="#m355d14cc98" x="111.136364" y="302.881889" style="stroke: #000000; stroke-linejoin: miter"/>
     <use xlink:href="#m355d14cc98" x="111.309329" y="247.702246" style="stroke: #000000; stroke-linejoin: miter"/>
     <use xlink:href="#m355d14cc98" x="111.624069" y="104.417832" style="stroke: #000000; stroke-linejoin: miter"/>
     <use xlink:href="#m355d14cc98" x="111.938809" y="115.276015" style="stroke: #000000; stroke-linejoin: miter"/>
     <use xlink:href="#m355d14cc98" x="112.25355" y="153.986747" style="stroke: #000000; stroke-linejoin: miter"/>
     <use xlink:href="#m355d14cc98" x="113.51251" y="244.418016" style="stroke: #000000; stroke-linejoin: miter"/>
     <use xlink:href="#m355d14cc98" x="114.771471" y="266.436132" style="stroke: #000000; stroke-linejoin: miter"/>
     <use xlink:href="#m355d14cc98" x="116.030432" y="267.705909" style="stroke: #000000; stroke-linejoin: miter"/>
     <use xlink:href="#m355d14cc98" x="117.289393" y="280.876397" style="stroke: #000000; stroke-linejoin: miter"/>
     <use xlink:href="#m355d14cc98" x="118.548353" y="288.138789" style="stroke: #000000; stroke-linejoin: miter"/>
     <use xlink:href="#m355d14cc98" x="122.325236" y="295.963257" style="stroke: #000000; stroke-linejoin: miter"/>
     <use xlink:href="#m355d14cc98" x="126.102118" y="297.240759" style="stroke: #000000; stroke-linejoin: miter"/>
     <use xlink:href="#m355d14cc98" x="307.392471" y="296.114857" style="stroke: #000000; stroke-linejoin: miter"/>
     <use xlink:href="#m355d14cc98" x="307.534245" y="294.885285" style="stroke: #000000; stroke-linejoin: miter"/>
     <use xlink:href="#m355d14cc98" x="307.707211" y="250.8088" style="stroke: #000000; stroke-linejoin: miter"/>
     <use xlink:href="#m355d14cc98" x="308.021951" y="144.451422" style="stroke: #000000; stroke-linejoin: miter"/>
     <use xlink:href="#m355d14cc98" x="308.336691" y="132.403878" style="stroke: #000000; stroke-linejoin: miter"/>
     <use xlink:href="#m355d14cc98" x="308.651431" y="158.947129" style="stroke: #000000; stroke-linejoin: miter"/>
     <use xlink:href="#m355d14cc98" x="309.910392" y="237.275302" style="stroke: #000000; stroke-linejoin: miter"/>
     <use xlink:href="#m355d14cc98" x="311.169353" y="257.596048" style="stroke: #000000; stroke-linejoin: miter"/>
     <use xlink:href="#m355d14cc98" x="312.428314" y="256.796353" style="stroke: #000000; stroke-linejoin: miter"/>
     <use xlink:href="#m355d14cc98" x="313.687275" y="274.665627" style="stroke: #000000; stroke-linejoin: miter"/>
     <use xlink:href="#m355d14cc98" x="314.946235" y="284.257568" style="stroke: #000000; stroke-linejoin: miter"/>
     <use xlink:href="#m355d14cc98" x="318.723118" y="295.054723" style="stroke: #000000; stroke-linejoin: miter"/>
     <use xlink:href="#m355d14cc98" x="322.5" y="295.276287" style="stroke: #000000; stroke-linejoin: miter"/>
    </g>
   </g>
   <g id="patch_3">
    <path d="M 90 320.4 
L 90 43.2 
" style="fill: none; stroke: #000000; stroke-width: 0.8; stroke-linejoin: miter; stroke-linecap: square"/>
   </g>
   <g id="patch_4">
    <path d="M 343.636364 320.4 
L 343.636364 43.2 
" style="fill: none; stroke: #000000; stroke-width: 0.8; stroke-linejoin: miter; stroke-linecap: square"/>
   </g>
   <g id="patch_5">
    <path d="M 90 320.4 
L 343.636364 320.4 
" style="fill: none; stroke: #000000; stroke-width: 0.8; stroke-linejoin: miter; stroke-linecap: square"/>
   </g>
   <g id="patch_6">
    <path d="M 90 43.2 
L 343.636364 43.2 
" style="fill: none; stroke: #000000; stroke-width: 0.8; stroke-linejoin: miter; stroke-linecap: square"/>
   </g>
   <g id="text_17">
    <!-- Kasichayanula2011a fm_dap10_dapagliflozin 3-o-glucuronide -->
    <g transform="translate(1.590057 37.2) scale(0.14 -0.14)">
     <defs>
      <path id="DejaVuSans-4b" d="M 628 4666 
L 1259 4666 
L 1259 2694 
L 3353 4666 
L 4166 4666 
L 1850 2491 
L 4331 0 
L 3500 0 
L 1259 2247 
L 1259 0 
L 628 0 
L 628 4666 
z
" transform="scale(0.015625)"/>
      <path id="DejaVuSans-61" d="M 2194 1759 
Q 1497 1759 1228 1600 
Q 959 1441 959 1056 
Q 959 750 1161 570 
Q 1363 391 1709 391 
Q 2188 391 2477 730 
Q 2766 1069 2766 1631 
L 2766 1759 
L 2194 1759 
z
M 3341 1997 
L 3341 0 
L 2766 0 
L 2766 531 
Q 2569 213 2275 61 
Q 1981 -91 1556 -91 
Q 1019 -91 701 211 
Q 384 513 384 1019 
Q 384 1609 779 1909 
Q 1175 2209 1959 2209 
L 2766 2209 
L 2766 2266 
Q 2766 2663 2505 2880 
Q 2244 3097 1772 3097 
Q 1472 3097 1187 3025 
Q 903 2953 641 2809 
L 641 3341 
Q 956 3463 1253 3523 
Q 1550 3584 1831 3584 
Q 2591 3584 2966 3190 
Q 3341 2797 3341 1997 
z
" transform="scale(0.015625)"/>
      <path id="DejaVuSans-73" d="M 2834 3397 
L 2834 2853 
Q 2591 2978 2328 3040 
Q 2066 3103 1784 3103 
Q 1356 3103 1142 2972 
Q 928 2841 928 2578 
Q 928 2378 1081 2264 
Q 1234 2150 1697 2047 
L 1894 2003 
Q 2506 1872 2764 1633 
Q 3022 1394 3022 966 
Q 3022 478 2636 193 
Q 2250 -91 1575 -91 
Q 1294 -91 989 -36 
Q 684 19 347 128 
L 347 722 
Q 666 556 975 473 
Q 1284 391 1588 391 
Q 1994 391 2212 530 
Q 2431 669 2431 922 
Q 2431 1156 2273 1281 
Q 2116 1406 1581 1522 
L 1381 1569 
Q 847 1681 609 1914 
Q 372 2147 372 2553 
Q 372 3047 722 3315 
Q 1072 3584 1716 3584 
Q 2034 3584 2315 3537 
Q 2597 3491 2834 3397 
z
" transform="scale(0.015625)"/>
      <path id="DejaVuSans-63" d="M 3122 3366 
L 3122 2828 
Q 2878 2963 2633 3030 
Q 2388 3097 2138 3097 
Q 1578 3097 1268 2742 
Q 959 2388 959 1747 
Q 959 1106 1268 751 
Q 1578 397 2138 397 
Q 2388 397 2633 464 
Q 2878 531 3122 666 
L 3122 134 
Q 2881 22 2623 -34 
Q 2366 -91 2075 -91 
Q 1284 -91 818 406 
Q 353 903 353 1747 
Q 353 2603 823 3093 
Q 1294 3584 2113 3584 
Q 2378 3584 2631 3529 
Q 2884 3475 3122 3366 
z
" transform="scale(0.015625)"/>
      <path id="DejaVuSans-68" d="M 3513 2113 
L 3513 0 
L 2938 0 
L 2938 2094 
Q 2938 2591 2744 2837 
Q 2550 3084 2163 3084 
Q 1697 3084 1428 2787 
Q 1159 2491 1159 1978 
L 1159 0 
L 581 0 
L 581 4863 
L 1159 4863 
L 1159 2956 
Q 1366 3272 1645 3428 
Q 1925 3584 2291 3584 
Q 2894 3584 3203 3211 
Q 3513 2838 3513 2113 
z
" transform="scale(0.015625)"/>
      <path id="DejaVuSans-79" d="M 2059 -325 
Q 1816 -950 1584 -1140 
Q 1353 -1331 966 -1331 
L 506 -1331 
L 506 -850 
L 844 -850 
Q 1081 -850 1212 -737 
Q 1344 -625 1503 -206 
L 1606 56 
L 191 3500 
L 800 3500 
L 1894 763 
L 2988 3500 
L 3597 3500 
L 2059 -325 
z
" transform="scale(0.015625)"/>
      <path id="DejaVuSans-6e" d="M 3513 2113 
L 3513 0 
L 2938 0 
L 2938 2094 
Q 2938 2591 2744 2837 
Q 2550 3084 2163 3084 
Q 1697 3084 1428 2787 
Q 1159 2491 1159 1978 
L 1159 0 
L 581 0 
L 581 3500 
L 1159 3500 
L 1159 2956 
Q 1366 3272 1645 3428 
Q 1925 3584 2291 3584 
Q 2894 3584 3203 3211 
Q 3513 2838 3513 2113 
z
" transform="scale(0.015625)"/>
      <path id="DejaVuSans-75" d="M 544 1381 
L 544 3500 
L 1119 3500 
L 1119 1403 
Q 1119 906 1312 657 
Q 1506 409 1894 409 
Q 2359 409 2629 706 
Q 2900 1003 2900 1516 
L 2900 3500 
L 3475 3500 
L 3475 0 
L 2900 0 
L 2900 538 
Q 2691 219 2414 64 
Q 2138 -91 1772 -91 
Q 1169 -91 856 284 
Q 544 659 544 1381 
z
M 1991 3584 
L 1991 3584 
z
" transform="scale(0.015625)"/>
      <path id="DejaVuSans-6c" d="M 603 4863 
L 1178 4863 
L 1178 0 
L 603 0 
L 603 4863 
z
" transform="scale(0.015625)"/>
      <path id="DejaVuSans-20" transform="scale(0.015625)"/>
      <path id="DejaVuSans-66" d="M 2375 4863 
L 2375 4384 
L 1825 4384 
Q 1516 4384 1395 4259 
Q 1275 4134 1275 3809 
L 1275 3500 
L 2222 3500 
L 2222 3053 
L 1275 3053 
L 1275 0 
L 697 0 
L 697 3053 
L 147 3053 
L 147 3500 
L 697 3500 
L 697 3744 
Q 697 4328 969 4595 
Q 1241 4863 1831 4863 
L 2375 4863 
z
" transform="scale(0.015625)"/>
      <path id="DejaVuSans-70" d="M 1159 525 
L 1159 -1331 
L 581 -1331 
L 581 3500 
L 1159 3500 
L 1159 2969 
Q 1341 3281 1617 3432 
Q 1894 3584 2278 3584 
Q 2916 3584 3314 3078 
Q 3713 2572 3713 1747 
Q 3713 922 3314 415 
Q 2916 -91 2278 -91 
Q 1894 -91 1617 61 
Q 1341 213 1159 525 
z
M 3116 1747 
Q 3116 2381 2855 2742 
Q 2594 3103 2138 3103 
Q 1681 3103 1420 2742 
Q 1159 2381 1159 1747 
Q 1159 1113 1420 752 
Q 1681 391 2138 391 
Q 2594 391 2855 752 
Q 3116 1113 3116 1747 
z
" transform="scale(0.015625)"/>
      <path id="DejaVuSans-6f" d="M 1959 3097 
Q 1497 3097 1228 2736 
Q 959 2375 959 1747 
Q 959 1119 1226 758 
Q 1494 397 1959 397 
Q 2419 397 2687 759 
Q 2956 1122 2956 1747 
Q 2956 2369 2687 2733 
Q 2419 3097 1959 3097 
z
M 1959 3584 
Q 2709 3584 3137 3096 
Q 3566 2609 3566 1747 
Q 3566 888 3137 398 
Q 2709 -91 1959 -91 
Q 1206 -91 779 398 
Q 353 888 353 1747 
Q 353 2609 779 3096 
Q 1206 3584 1959 3584 
z
" transform="scale(0.015625)"/>
      <path id="DejaVuSans-7a" d="M 353 3500 
L 3084 3500 
L 3084 2975 
L 922 459 
L 3084 459 
L 3084 0 
L 275 0 
L 275 525 
L 2438 3041 
L 353 3041 
L 353 3500 
z
" transform="scale(0.015625)"/>
      <path id="DejaVuSans-2d" d="M 313 2009 
L 1997 2009 
L 1997 1497 
L 313 1497 
L 313 2009 
z
" transform="scale(0.015625)"/>
      <path id="DejaVuSans-72" d="M 2631 2963 
Q 2534 3019 2420 3045 
Q 2306 3072 2169 3072 
Q 1681 3072 1420 2755 
Q 1159 2438 1159 1844 
L 1159 0 
L 581 0 
L 581 3500 
L 1159 3500 
L 1159 2956 
Q 1341 3275 1631 3429 
Q 1922 3584 2338 3584 
Q 2397 3584 2469 3576 
Q 2541 3569 2628 3553 
L 2631 2963 
z
" transform="scale(0.015625)"/>
     </defs>
     <use xlink:href="#DejaVuSans-4b"/>
     <use xlink:href="#DejaVuSans-61" x="63.826172"/>
     <use xlink:href="#DejaVuSans-73" x="125.105469"/>
     <use xlink:href="#DejaVuSans-69" x="177.205078"/>
     <use xlink:href="#DejaVuSans-63" x="204.988281"/>
     <use xlink:href="#DejaVuSans-68" x="259.96875"/>
     <use xlink:href="#DejaVuSans-61" x="323.347656"/>
     <use xlink:href="#DejaVuSans-79" x="384.626953"/>
     <use xlink:href="#DejaVuSans-61" x="443.806641"/>
     <use xlink:href="#DejaVuSans-6e" x="505.085938"/>
     <use xlink:href="#DejaVuSans-75" x="568.464844"/>
     <use xlink:href="#DejaVuSans-6c" x="631.84375"/>
     <use xlink:href="#DejaVuSans-61" x="659.626953"/>
     <use xlink:href="#DejaVuSans-32" x="720.90625"/>
     <use xlink:href="#DejaVuSans-30" x="784.529297"/>
     <use xlink:href="#DejaVuSans-31" x="848.152344"/>
     <use xlink:href="#DejaVuSans-31" x="911.775391"/>
     <use xlink:href="#DejaVuSans-61" x="975.398438"/>
     <use xlink:href="#DejaVuSans-20" x="1036.677734"/>
     <use xlink:href="#DejaVuSans-66" x="1068.464844"/>
     <use xlink:href="#DejaVuSans-6d" x="1103.669922"/>
     <use xlink:href="#DejaVuSans-5f" x="1201.082031"/>
     <use xlink:href="#DejaVuSans-64" x="1251.082031"/>
     <use xlink:href="#DejaVuSans-61" x="1314.558594"/>
     <use xlink:href="#DejaVuSans-70" x="1375.837891"/>
     <use xlink:href="#DejaVuSans-31" x="1439.314453"/>
     <use xlink:href="#DejaVuSans-30" x="1502.9375"/>
     <use xlink:href="#DejaVuSans-5f" x="1566.560547"/>
     <use xlink:href="#DejaVuSans-64" x="1616.560547"/>
     <use xlink:href="#DejaVuSans-61" x="1680.037109"/>
     <use xlink:href="#DejaVuSans-70" x="1741.316406"/>
     <use xlink:href="#DejaVuSans-61" x="1804.792969"/>
     <use xlink:href="#DejaVuSans-67" x="1866.072266"/>
     <use xlink:href="#DejaVuSans-6c" x="1929.548828"/>
     <use xlink:href="#DejaVuSans-69" x="1957.332031"/>
     <use xlink:href="#DejaVuSans-66" x="1985.115234"/>
     <use xlink:href="#DejaVuSans-6c" x="2020.320312"/>
     <use xlink:href="#DejaVuSans-6f" x="2048.103516"/>
     <use xlink:href="#DejaVuSans-7a" x="2109.285156"/>
     <use xlink:href="#DejaVuSans-69" x="2161.775391"/>
     <use xlink:href="#DejaVuSans-6e" x="2189.558594"/>
     <use xlink:href="#DejaVuSans-20" x="2252.9375"/>
     <use xlink:href="#DejaVuSans-33" x="2284.724609"/>
     <use xlink:href="#DejaVuSans-2d" x="2348.347656"/>
     <use xlink:href="#DejaVuSans-6f" x="2386.306641"/>
     <use xlink:href="#DejaVuSans-2d" x="2449.363281"/>
     <use xlink:href="#DejaVuSans-67" x="2485.447266"/>
     <use xlink:href="#DejaVuSans-6c" x="2548.923828"/>
     <use xlink:href="#DejaVuSans-75" x="2576.707031"/>
     <use xlink:href="#DejaVuSans-63" x="2640.085938"/>
     <use xlink:href="#DejaVuSans-75" x="2695.066406"/>
     <use xlink:href="#DejaVuSans-72" x="2758.445312"/>
     <use xlink:href="#DejaVuSans-6f" x="2797.308594"/>
     <use xlink:href="#DejaVuSans-6e" x="2858.490234"/>
     <use xlink:href="#DejaVuSans-69" x="2921.869141"/>
     <use xlink:href="#DejaVuSans-64" x="2949.652344"/>
     <use xlink:href="#DejaVuSans-65" x="3013.128906"/>
    </g>
   </g>
   <g id="legend_1">
    <g id="patch_7">
     <path d="M 200.586364 80.834375 
L 336.636364 80.834375 
Q 338.636364 80.834375 338.636364 78.834375 
L 338.636364 50.2 
Q 338.636364 48.2 336.636364 48.2 
L 200.586364 48.2 
Q 198.586364 48.2 198.586364 50.2 
L 198.586364 78.834375 
Q 198.586364 80.834375 200.586364 80.834375 
z
" style="fill: #ffffff; opacity: 0.8; stroke: #cccccc; stroke-linejoin: miter"/>
    </g>
    <g id="line2d_17">
     <path d="M 202.586364 56.298437 
L 212.586364 56.298437 
L 222.586364 56.298437 
" style="fill: none; stroke: #0000ff; stroke-width: 1.5; stroke-linecap: square"/>
    </g>
    <g id="text_18">
     <!-- observable -->
     <g transform="translate(230.586364 59.798437) scale(0.1 -0.1)">
      <defs>
       <path id="DejaVuSans-62" d="M 3116 1747 
Q 3116 2381 2855 2742 
Q 2594 3103 2138 3103 
Q 1681 3103 1420 2742 
Q 1159 2381 1159 1747 
Q 1159 1113 1420 752 
Q 1681 391 2138 391 
Q 2594 391 2855 752 
Q 3116 1113 3116 1747 
z
M 1159 2969 
Q 1341 3281 1617 3432 
Q 1894 3584 2278 3584 
Q 2916 3584 3314 3078 
Q 3713 2572 3713 1747 
Q 3713 922 3314 415 
Q 2916 -91 2278 -91 
Q 1894 -91 1617 61 
Q 1341 213 1159 525 
L 1159 0 
L 581 0 
L 581 4863 
L 1159 4863 
L 1159 2969 
z
" transform="scale(0.015625)"/>
      </defs>
      <use xlink:href="#DejaVuSans-6f"/>
      <use xlink:href="#DejaVuSans-62" x="61.181641"/>
      <use xlink:href="#DejaVuSans-73" x="124.658203"/>
      <use xlink:href="#DejaVuSans-65" x="176.757812"/>
      <use xlink:href="#DejaVuSans-72" x="238.28125"/>
      <use xlink:href="#DejaVuSans-76" x="279.394531"/>
      <use xlink:href="#DejaVuSans-61" x="338.574219"/>
      <use xlink:href="#DejaVuSans-62" x="399.853516"/>
      <use xlink:href="#DejaVuSans-6c" x="463.330078"/>
      <use xlink:href="#DejaVuSans-65" x="491.113281"/>
     </g>
    </g>
    <g id="LineCollection_2">
     <path d="M 212.586364 75.976562 
L 212.586364 65.976562 
" style="fill: none; stroke: #000000; stroke-width: 1.5"/>
    </g>
    <g id="line2d_18">
     <path d="M 202.586364 70.976562 
L 222.586364 70.976562 
" style="fill: none; stroke: #000000; stroke-width: 1.5; stroke-linecap: square"/>
    </g>
    <g id="line2d_19">
     <g>
      <use xlink:href="#m355d14cc98" x="212.586364" y="70.976562" style="stroke: #000000; stroke-linejoin: miter"/>
     </g>
    </g>
    <g id="text_19">
     <!-- reference_data ± SD -->
     <g transform="translate(230.586364 74.476562) scale(0.1 -0.1)">
      <defs>
       <path id="DejaVuSans-b1" d="M 2944 4013 
L 2944 2803 
L 4684 2803 
L 4684 2272 
L 2944 2272 
L 2944 1063 
L 2419 1063 
L 2419 2272 
L 678 2272 
L 678 2803 
L 2419 2803 
L 2419 4013 
L 2944 4013 
z
M 678 531 
L 4684 531 
L 4684 0 
L 678 0 
L 678 531 
z
" transform="scale(0.015625)"/>
       <path id="DejaVuSans-53" d="M 3425 4513 
L 3425 3897 
Q 3066 4069 2747 4153 
Q 2428 4238 2131 4238 
Q 1616 4238 1336 4038 
Q 1056 3838 1056 3469 
Q 1056 3159 1242 3001 
Q 1428 2844 1947 2747 
L 2328 2669 
Q 3034 2534 3370 2195 
Q 3706 1856 3706 1288 
Q 3706 609 3251 259 
Q 2797 -91 1919 -91 
Q 1588 -91 1214 -16 
Q 841 59 441 206 
L 441 856 
Q 825 641 1194 531 
Q 1563 422 1919 422 
Q 2459 422 2753 634 
Q 3047 847 3047 1241 
Q 3047 1584 2836 1778 
Q 2625 1972 2144 2069 
L 1759 2144 
Q 1053 2284 737 2584 
Q 422 2884 422 3419 
Q 422 4038 858 4394 
Q 1294 4750 2059 4750 
Q 2388 4750 2728 4690 
Q 3069 4631 3425 4513 
z
" transform="scale(0.015625)"/>
       <path id="DejaVuSans-44" d="M 1259 4147 
L 1259 519 
L 2022 519 
Q 2988 519 3436 956 
Q 3884 1394 3884 2338 
Q 3884 3275 3436 3711 
Q 2988 4147 2022 4147 
L 1259 4147 
z
M 628 4666 
L 1925 4666 
Q 3281 4666 3915 4102 
Q 4550 3538 4550 2338 
Q 4550 1131 3912 565 
Q 3275 0 1925 0 
L 628 0 
L 628 4666 
z
" transform="scale(0.015625)"/>
      </defs>
      <use xlink:href="#DejaVuSans-72"/>
      <use xlink:href="#DejaVuSans-65" x="38.863281"/>
      <use xlink:href="#DejaVuSans-66" x="100.386719"/>
      <use xlink:href="#DejaVuSans-65" x="135.591797"/>
      <use xlink:href="#DejaVuSans-72" x="197.115234"/>
      <use xlink:href="#DejaVuSans-65" x="235.978516"/>
      <use xlink:href="#DejaVuSans-6e" x="297.501953"/>
      <use xlink:href="#DejaVuSans-63" x="360.880859"/>
      <use xlink:href="#DejaVuSans-65" x="415.861328"/>
      <use xlink:href="#DejaVuSans-5f" x="477.384766"/>
      <use xlink:href="#DejaVuSans-64" x="527.384766"/>
      <use xlink:href="#DejaVuSans-61" x="590.861328"/>
      <use xlink:href="#DejaVuSans-74" x="652.140625"/>
      <use xlink:href="#DejaVuSans-61" x="691.349609"/>
      <use xlink:href="#DejaVuSans-20" x="752.628906"/>
      <use xlink:href="#DejaVuSans-b1" x="784.416016"/>
      <use xlink:href="#DejaVuSans-20" x="868.205078"/>
      <use xlink:href="#DejaVuSans-53" x="899.992188"/>
      <use xlink:href="#DejaVuSans-44" x="963.46875"/>
     </g>
    </g>
   </g>
  </g>
  <g id="axes_2">
   <g id="patch_8">
    <path d="M 394.363636 320.4 
L 648 320.4 
L 648 43.2 
L 394.363636 43.2 
z
" style="fill: #ffffff"/>
   </g>
   <g id="matplotlib.axis_3">
    <g id="xtick_6">
     <g id="line2d_20">
      <g>
       <use xlink:href="#mce0bc5570c" x="415.358225" y="320.4" style="stroke: #000000; stroke-width: 0.8"/>
      </g>
     </g>
     <g id="text_20">
      <!-- 0 -->
      <g transform="translate(412.176975 334.998438) scale(0.1 -0.1)">
       <use xlink:href="#DejaVuSans-30"/>
      </g>
     </g>
    </g>
    <g id="xtick_7">
     <g id="line2d_21">
      <g>
       <use xlink:href="#mce0bc5570c" x="467.814924" y="320.4" style="stroke: #000000; stroke-width: 0.8"/>
      </g>
     </g>
     <g id="text_21">
      <!-- 5000 -->
      <g transform="translate(455.089924 334.998438) scale(0.1 -0.1)">
       <use xlink:href="#DejaVuSans-35"/>
       <use xlink:href="#DejaVuSans-30" x="63.623047"/>
       <use xlink:href="#DejaVuSans-30" x="127.246094"/>
       <use xlink:href="#DejaVuSans-30" x="190.869141"/>
      </g>
     </g>
    </g>
    <g id="xtick_8">
     <g id="line2d_22">
      <g>
       <use xlink:href="#mce0bc5570c" x="520.271624" y="320.4" style="stroke: #000000; stroke-width: 0.8"/>
      </g>
     </g>
     <g id="text_22">
      <!-- 10000 -->
      <g transform="translate(504.365374 334.998438) scale(0.1 -0.1)">
       <use xlink:href="#DejaVuSans-31"/>
       <use xlink:href="#DejaVuSans-30" x="63.623047"/>
       <use xlink:href="#DejaVuSans-30" x="127.246094"/>
       <use xlink:href="#DejaVuSans-30" x="190.869141"/>
       <use xlink:href="#DejaVuSans-30" x="254.492188"/>
      </g>
     </g>
    </g>
    <g id="xtick_9">
     <g id="line2d_23">
      <g>
       <use xlink:href="#mce0bc5570c" x="572.728323" y="320.4" style="stroke: #000000; stroke-width: 0.8"/>
      </g>
     </g>
     <g id="text_23">
      <!-- 15000 -->
      <g transform="translate(556.822073 334.998438) scale(0.1 -0.1)">
       <use xlink:href="#DejaVuSans-31"/>
       <use xlink:href="#DejaVuSans-35" x="63.623047"/>
       <use xlink:href="#DejaVuSans-30" x="127.246094"/>
       <use xlink:href="#DejaVuSans-30" x="190.869141"/>
       <use xlink:href="#DejaVuSans-30" x="254.492188"/>
      </g>
     </g>
    </g>
    <g id="xtick_10">
     <g id="line2d_24">
      <g>
       <use xlink:href="#mce0bc5570c" x="625.185022" y="320.4" style="stroke: #000000; stroke-width: 0.8"/>
      </g>
     </g>
     <g id="text_24">
      <!-- 20000 -->
      <g transform="translate(609.278772 334.998438) scale(0.1 -0.1)">
       <use xlink:href="#DejaVuSans-32"/>
       <use xlink:href="#DejaVuSans-30" x="63.623047"/>
       <use xlink:href="#DejaVuSans-30" x="127.246094"/>
       <use xlink:href="#DejaVuSans-30" x="190.869141"/>
       <use xlink:href="#DejaVuSans-30" x="254.492188"/>
      </g>
     </g>
    </g>
    <g id="text_25">
     <!-- time -->
     <g transform="translate(507.626506 350.19625) scale(0.12 -0.12)">
      <use xlink:href="#DejaVuSans-74"/>
      <use xlink:href="#DejaVuSans-69" x="39.208984"/>
      <use xlink:href="#DejaVuSans-6d" x="66.992188"/>
      <use xlink:href="#DejaVuSans-65" x="164.404297"/>
     </g>
    </g>
   </g>
   <g id="matplotlib.axis_4">
    <g id="ytick_10">
     <g id="line2d_25">
      <g>
       <use xlink:href="#m76744cb491" x="394.363636" y="288.519436" style="stroke: #000000; stroke-width: 0.8"/>
      </g>
     </g>
     <g id="text_26">
      <!-- $\mathdefault{10^{-5}}$ -->
      <g transform="translate(363.863636 292.318655) scale(0.1 -0.1)">
       <defs>
        <path id="DejaVuSans-2212" d="M 678 2272 
L 4684 2272 
L 4684 1741 
L 678 1741 
L 678 2272 
z
" transform="scale(0.015625)"/>
       </defs>
       <use xlink:href="#DejaVuSans-31" transform="translate(0 0.684375)"/>
       <use xlink:href="#DejaVuSans-30" transform="translate(63.623047 0.684375)"/>
       <use xlink:href="#DejaVuSans-2212" transform="translate(128.203125 38.965625) scale(0.7)"/>
       <use xlink:href="#DejaVuSans-35" transform="translate(186.855469 38.965625) scale(0.7)"/>
      </g>
     </g>
    </g>
    <g id="ytick_11">
     <g id="line2d_26">
      <g>
       <use xlink:href="#m76744cb491" x="394.363636" y="241.561916" style="stroke: #000000; stroke-width: 0.8"/>
      </g>
     </g>
     <g id="text_27">
      <!-- $\mathdefault{10^{-4}}$ -->
      <g transform="translate(363.863636 245.361135) scale(0.1 -0.1)">
       <use xlink:href="#DejaVuSans-31" transform="translate(0 0.684375)"/>
       <use xlink:href="#DejaVuSans-30" transform="translate(63.623047 0.684375)"/>
       <use xlink:href="#DejaVuSans-2212" transform="translate(128.203125 38.965625) scale(0.7)"/>
       <use xlink:href="#DejaVuSans-34" transform="translate(186.855469 38.965625) scale(0.7)"/>
      </g>
     </g>
    </g>
    <g id="ytick_12">
     <g id="line2d_27">
      <g>
       <use xlink:href="#m76744cb491" x="394.363636" y="194.604396" style="stroke: #000000; stroke-width: 0.8"/>
      </g>
     </g>
     <g id="text_28">
      <!-- $\mathdefault{10^{-3}}$ -->
      <g transform="translate(363.863636 198.403615) scale(0.1 -0.1)">
       <use xlink:href="#DejaVuSans-31" transform="translate(0 0.765625)"/>
       <use xlink:href="#DejaVuSans-30" transform="translate(63.623047 0.765625)"/>
       <use xlink:href="#DejaVuSans-2212" transform="translate(128.203125 39.046875) scale(0.7)"/>
       <use xlink:href="#DejaVuSans-33" transform="translate(186.855469 39.046875) scale(0.7)"/>
      </g>
     </g>
    </g>
    <g id="ytick_13">
     <g id="line2d_28">
      <g>
       <use xlink:href="#m76744cb491" x="394.363636" y="147.646876" style="stroke: #000000; stroke-width: 0.8"/>
      </g>
     </g>
     <g id="text_29">
      <!-- $\mathdefault{10^{-2}}$ -->
      <g transform="translate(363.863636 151.446095) scale(0.1 -0.1)">
       <use xlink:href="#DejaVuSans-31" transform="translate(0 0.765625)"/>
       <use xlink:href="#DejaVuSans-30" transform="translate(63.623047 0.765625)"/>
       <use xlink:href="#DejaVuSans-2212" transform="translate(128.203125 39.046875) scale(0.7)"/>
       <use xlink:href="#DejaVuSans-32" transform="translate(186.855469 39.046875) scale(0.7)"/>
      </g>
     </g>
    </g>
    <g id="ytick_14">
     <g id="line2d_29">
      <g>
       <use xlink:href="#m76744cb491" x="394.363636" y="100.689356" style="stroke: #000000; stroke-width: 0.8"/>
      </g>
     </g>
     <g id="text_30">
      <!-- $\mathdefault{10^{-1}}$ -->
      <g transform="translate(363.863636 104.488575) scale(0.1 -0.1)">
       <use xlink:href="#DejaVuSans-31" transform="translate(0 0.684375)"/>
       <use xlink:href="#DejaVuSans-30" transform="translate(63.623047 0.684375)"/>
       <use xlink:href="#DejaVuSans-2212" transform="translate(128.203125 38.965625) scale(0.7)"/>
       <use xlink:href="#DejaVuSans-31" transform="translate(186.855469 38.965625) scale(0.7)"/>
      </g>
     </g>
    </g>
    <g id="ytick_15">
     <g id="line2d_30">
      <g>
       <use xlink:href="#m76744cb491" x="394.363636" y="53.731836" style="stroke: #000000; stroke-width: 0.8"/>
      </g>
     </g>
     <g id="text_31">
      <!-- $\mathdefault{10^{0}}$ -->
      <g transform="translate(369.763636 57.531055) scale(0.1 -0.1)">
       <use xlink:href="#DejaVuSans-31" transform="translate(0 0.765625)"/>
       <use xlink:href="#DejaVuSans-30" transform="translate(63.623047 0.765625)"/>
       <use xlink:href="#DejaVuSans-30" transform="translate(128.203125 39.046875) scale(0.7)"/>
      </g>
     </g>
    </g>
    <g id="ytick_16">
     <g id="line2d_31">
      <defs>
       <path id="m723a1d3e3a" d="M 0 0 
L -2 0 
" style="stroke: #000000; stroke-width: 0.6"/>
      </defs>
      <g>
       <use xlink:href="#m723a1d3e3a" x="394.363636" y="313.072525" style="stroke: #000000; stroke-width: 0.6"/>
      </g>
     </g>
    </g>
    <g id="ytick_17">
     <g id="line2d_32">
      <g>
       <use xlink:href="#m723a1d3e3a" x="394.363636" y="307.205712" style="stroke: #000000; stroke-width: 0.6"/>
      </g>
     </g>
    </g>
    <g id="ytick_18">
     <g id="line2d_33">
      <g>
       <use xlink:href="#m723a1d3e3a" x="394.363636" y="302.655058" style="stroke: #000000; stroke-width: 0.6"/>
      </g>
     </g>
    </g>
    <g id="ytick_19">
     <g id="line2d_34">
      <g>
       <use xlink:href="#m723a1d3e3a" x="394.363636" y="298.936903" style="stroke: #000000; stroke-width: 0.6"/>
      </g>
     </g>
    </g>
    <g id="ytick_20">
     <g id="line2d_35">
      <g>
       <use xlink:href="#m723a1d3e3a" x="394.363636" y="295.793248" style="stroke: #000000; stroke-width: 0.6"/>
      </g>
     </g>
    </g>
    <g id="ytick_21">
     <g id="line2d_36">
      <g>
       <use xlink:href="#m723a1d3e3a" x="394.363636" y="293.07009" style="stroke: #000000; stroke-width: 0.6"/>
      </g>
     </g>
    </g>
    <g id="ytick_22">
     <g id="line2d_37">
      <g>
       <use xlink:href="#m723a1d3e3a" x="394.363636" y="290.668094" style="stroke: #000000; stroke-width: 0.6"/>
      </g>
     </g>
    </g>
    <g id="ytick_23">
     <g id="line2d_38">
      <g>
       <use xlink:href="#m723a1d3e3a" x="394.363636" y="274.383814" style="stroke: #000000; stroke-width: 0.6"/>
      </g>
     </g>
    </g>
    <g id="ytick_24">
     <g id="line2d_39">
      <g>
       <use xlink:href="#m723a1d3e3a" x="394.363636" y="266.115005" style="stroke: #000000; stroke-width: 0.6"/>
      </g>
     </g>
    </g>
    <g id="ytick_25">
     <g id="line2d_40">
      <g>
       <use xlink:href="#m723a1d3e3a" x="394.363636" y="260.248192" style="stroke: #000000; stroke-width: 0.6"/>
      </g>
     </g>
    </g>
    <g id="ytick_26">
     <g id="line2d_41">
      <g>
       <use xlink:href="#m723a1d3e3a" x="394.363636" y="255.697538" style="stroke: #000000; stroke-width: 0.6"/>
      </g>
     </g>
    </g>
    <g id="ytick_27">
     <g id="line2d_42">
      <g>
       <use xlink:href="#m723a1d3e3a" x="394.363636" y="251.979383" style="stroke: #000000; stroke-width: 0.6"/>
      </g>
     </g>
    </g>
    <g id="ytick_28">
     <g id="line2d_43">
      <g>
       <use xlink:href="#m723a1d3e3a" x="394.363636" y="248.835728" style="stroke: #000000; stroke-width: 0.6"/>
      </g>
     </g>
    </g>
    <g id="ytick_29">
     <g id="line2d_44">
      <g>
       <use xlink:href="#m723a1d3e3a" x="394.363636" y="246.11257" style="stroke: #000000; stroke-width: 0.6"/>
      </g>
     </g>
    </g>
    <g id="ytick_30">
     <g id="line2d_45">
      <g>
       <use xlink:href="#m723a1d3e3a" x="394.363636" y="243.710574" style="stroke: #000000; stroke-width: 0.6"/>
      </g>
     </g>
    </g>
    <g id="ytick_31">
     <g id="line2d_46">
      <g>
       <use xlink:href="#m723a1d3e3a" x="394.363636" y="227.426294" style="stroke: #000000; stroke-width: 0.6"/>
      </g>
     </g>
    </g>
    <g id="ytick_32">
     <g id="line2d_47">
      <g>
       <use xlink:href="#m723a1d3e3a" x="394.363636" y="219.157485" style="stroke: #000000; stroke-width: 0.6"/>
      </g>
     </g>
    </g>
    <g id="ytick_33">
     <g id="line2d_48">
      <g>
       <use xlink:href="#m723a1d3e3a" x="394.363636" y="213.290672" style="stroke: #000000; stroke-width: 0.6"/>
      </g>
     </g>
    </g>
    <g id="ytick_34">
     <g id="line2d_49">
      <g>
       <use xlink:href="#m723a1d3e3a" x="394.363636" y="208.740018" style="stroke: #000000; stroke-width: 0.6"/>
      </g>
     </g>
    </g>
    <g id="ytick_35">
     <g id="line2d_50">
      <g>
       <use xlink:href="#m723a1d3e3a" x="394.363636" y="205.021863" style="stroke: #000000; stroke-width: 0.6"/>
      </g>
     </g>
    </g>
    <g id="ytick_36">
     <g id="line2d_51">
      <g>
       <use xlink:href="#m723a1d3e3a" x="394.363636" y="201.878208" style="stroke: #000000; stroke-width: 0.6"/>
      </g>
     </g>
    </g>
    <g id="ytick_37">
     <g id="line2d_52">
      <g>
       <use xlink:href="#m723a1d3e3a" x="394.363636" y="199.15505" style="stroke: #000000; stroke-width: 0.6"/>
      </g>
     </g>
    </g>
    <g id="ytick_38">
     <g id="line2d_53">
      <g>
       <use xlink:href="#m723a1d3e3a" x="394.363636" y="196.753054" style="stroke: #000000; stroke-width: 0.6"/>
      </g>
     </g>
    </g>
    <g id="ytick_39">
     <g id="line2d_54">
      <g>
       <use xlink:href="#m723a1d3e3a" x="394.363636" y="180.468774" style="stroke: #000000; stroke-width: 0.6"/>
      </g>
     </g>
    </g>
    <g id="ytick_40">
     <g id="line2d_55">
      <g>
       <use xlink:href="#m723a1d3e3a" x="394.363636" y="172.199965" style="stroke: #000000; stroke-width: 0.6"/>
      </g>
     </g>
    </g>
    <g id="ytick_41">
     <g id="line2d_56">
      <g>
       <use xlink:href="#m723a1d3e3a" x="394.363636" y="166.333152" style="stroke: #000000; stroke-width: 0.6"/>
      </g>
     </g>
    </g>
    <g id="ytick_42">
     <g id="line2d_57">
      <g>
       <use xlink:href="#m723a1d3e3a" x="394.363636" y="161.782498" style="stroke: #000000; stroke-width: 0.6"/>
      </g>
     </g>
    </g>
    <g id="ytick_43">
     <g id="line2d_58">
      <g>
       <use xlink:href="#m723a1d3e3a" x="394.363636" y="158.064343" style="stroke: #000000; stroke-width: 0.6"/>
      </g>
     </g>
    </g>
    <g id="ytick_44">
     <g id="line2d_59">
      <g>
       <use xlink:href="#m723a1d3e3a" x="394.363636" y="154.920688" style="stroke: #000000; stroke-width: 0.6"/>
      </g>
     </g>
    </g>
    <g id="ytick_45">
     <g id="line2d_60">
      <g>
       <use xlink:href="#m723a1d3e3a" x="394.363636" y="152.19753" style="stroke: #000000; stroke-width: 0.6"/>
      </g>
     </g>
    </g>
    <g id="ytick_46">
     <g id="line2d_61">
      <g>
       <use xlink:href="#m723a1d3e3a" x="394.363636" y="149.795534" style="stroke: #000000; stroke-width: 0.6"/>
      </g>
     </g>
    </g>
    <g id="ytick_47">
     <g id="line2d_62">
      <g>
       <use xlink:href="#m723a1d3e3a" x="394.363636" y="133.511254" style="stroke: #000000; stroke-width: 0.6"/>
      </g>
     </g>
    </g>
    <g id="ytick_48">
     <g id="line2d_63">
      <g>
       <use xlink:href="#m723a1d3e3a" x="394.363636" y="125.242445" style="stroke: #000000; stroke-width: 0.6"/>
      </g>
     </g>
    </g>
    <g id="ytick_49">
     <g id="line2d_64">
      <g>
       <use xlink:href="#m723a1d3e3a" x="394.363636" y="119.375632" style="stroke: #000000; stroke-width: 0.6"/>
      </g>
     </g>
    </g>
    <g id="ytick_50">
     <g id="line2d_65">
      <g>
       <use xlink:href="#m723a1d3e3a" x="394.363636" y="114.824978" style="stroke: #000000; stroke-width: 0.6"/>
      </g>
     </g>
    </g>
    <g id="ytick_51">
     <g id="line2d_66">
      <g>
       <use xlink:href="#m723a1d3e3a" x="394.363636" y="111.106823" style="stroke: #000000; stroke-width: 0.6"/>
      </g>
     </g>
    </g>
    <g id="ytick_52">
     <g id="line2d_67">
      <g>
       <use xlink:href="#m723a1d3e3a" x="394.363636" y="107.963168" style="stroke: #000000; stroke-width: 0.6"/>
      </g>
     </g>
    </g>
    <g id="ytick_53">
     <g id="line2d_68">
      <g>
       <use xlink:href="#m723a1d3e3a" x="394.363636" y="105.24001" style="stroke: #000000; stroke-width: 0.6"/>
      </g>
     </g>
    </g>
    <g id="ytick_54">
     <g id="line2d_69">
      <g>
       <use xlink:href="#m723a1d3e3a" x="394.363636" y="102.838014" style="stroke: #000000; stroke-width: 0.6"/>
      </g>
     </g>
    </g>
    <g id="ytick_55">
     <g id="line2d_70">
      <g>
       <use xlink:href="#m723a1d3e3a" x="394.363636" y="86.553734" style="stroke: #000000; stroke-width: 0.6"/>
      </g>
     </g>
    </g>
    <g id="ytick_56">
     <g id="line2d_71">
      <g>
       <use xlink:href="#m723a1d3e3a" x="394.363636" y="78.284925" style="stroke: #000000; stroke-width: 0.6"/>
      </g>
     </g>
    </g>
    <g id="ytick_57">
     <g id="line2d_72">
      <g>
       <use xlink:href="#m723a1d3e3a" x="394.363636" y="72.418112" style="stroke: #000000; stroke-width: 0.6"/>
      </g>
     </g>
    </g>
    <g id="ytick_58">
     <g id="line2d_73">
      <g>
       <use xlink:href="#m723a1d3e3a" x="394.363636" y="67.867458" style="stroke: #000000; stroke-width: 0.6"/>
      </g>
     </g>
    </g>
    <g id="ytick_59">
     <g id="line2d_74">
      <g>
       <use xlink:href="#m723a1d3e3a" x="394.363636" y="64.149303" style="stroke: #000000; stroke-width: 0.6"/>
      </g>
     </g>
    </g>
    <g id="ytick_60">
     <g id="line2d_75">
      <g>
       <use xlink:href="#m723a1d3e3a" x="394.363636" y="61.005648" style="stroke: #000000; stroke-width: 0.6"/>
      </g>
     </g>
    </g>
    <g id="ytick_61">
     <g id="line2d_76">
      <g>
       <use xlink:href="#m723a1d3e3a" x="394.363636" y="58.28249" style="stroke: #000000; stroke-width: 0.6"/>
      </g>
     </g>
    </g>
    <g id="ytick_62">
     <g id="line2d_77">
      <g>
       <use xlink:href="#m723a1d3e3a" x="394.363636" y="55.880494" style="stroke: #000000; stroke-width: 0.6"/>
      </g>
     </g>
    </g>
    <g id="text_32">
     <!-- [Cve_d3g] -->
     <g transform="translate(357.034261 212.350312) rotate(-90) scale(0.12 -0.12)">
      <use xlink:href="#DejaVuSans-5b"/>
      <use xlink:href="#DejaVuSans-43" x="39.013672"/>
      <use xlink:href="#DejaVuSans-76" x="108.837891"/>
      <use xlink:href="#DejaVuSans-65" x="168.017578"/>
      <use xlink:href="#DejaVuSans-5f" x="229.541016"/>
      <use xlink:href="#DejaVuSans-64" x="279.541016"/>
      <use xlink:href="#DejaVuSans-33" x="343.017578"/>
      <use xlink:href="#DejaVuSans-67" x="406.640625"/>
      <use xlink:href="#DejaVuSans-5d" x="470.117188"/>
     </g>
    </g>
   </g>
   <g id="LineCollection_3">
    <path d="M 415.5 316.710105 
L 415.5 285.752178 
" clip-path="url(#p10beb79bf2)" style="fill: none; stroke: #000000; stroke-width: 1.5"/>
    <path d="M 415.672965 244.234688 
L 415.672965 221.327368 
" clip-path="url(#p10beb79bf2)" style="fill: none; stroke: #000000; stroke-width: 1.5"/>
    <path d="M 415.987706 209.857043 
L 415.987706 199.776816 
" clip-path="url(#p10beb79bf2)" style="fill: none; stroke: #000000; stroke-width: 1.5"/>
    <path d="M 416.302446 209.922554 
L 416.302446 201.591599 
" clip-path="url(#p10beb79bf2)" style="fill: none; stroke: #000000; stroke-width: 1.5"/>
    <path d="M 416.617186 215.82898 
L 416.617186 205.448014 
" clip-path="url(#p10beb79bf2)" style="fill: none; stroke: #000000; stroke-width: 1.5"/>
    <path d="M 417.876147 235.208426 
L 417.876147 223.595847 
" clip-path="url(#p10beb79bf2)" style="fill: none; stroke: #000000; stroke-width: 1.5"/>
    <path d="M 419.135107 246.33508 
L 419.135107 231.762373 
" clip-path="url(#p10beb79bf2)" style="fill: none; stroke: #000000; stroke-width: 1.5"/>
    <path d="M 420.394068 253.321105 
L 420.394068 229.947589 
" clip-path="url(#p10beb79bf2)" style="fill: none; stroke: #000000; stroke-width: 1.5"/>
    <path d="M 421.653029 256.334214 
L 421.653029 241.063137 
" clip-path="url(#p10beb79bf2)" style="fill: none; stroke: #000000; stroke-width: 1.5"/>
    <path d="M 422.91199 260.217282 
L 422.91199 250.137054 
" clip-path="url(#p10beb79bf2)" style="fill: none; stroke: #000000; stroke-width: 1.5"/>
    <path d="M 426.688872 276.425342 
L 426.688872 260.798907 
" clip-path="url(#p10beb79bf2)" style="fill: none; stroke: #000000; stroke-width: 1.5"/>
    <path d="M 430.465755 285.079814 
L 430.465755 261.706298 
" clip-path="url(#p10beb79bf2)" style="fill: none; stroke: #000000; stroke-width: 1.5"/>
    <path d="M 611.756107 278.042132 
L 611.756107 260.572059 
" clip-path="url(#p10beb79bf2)" style="fill: none; stroke: #000000; stroke-width: 1.5"/>
    <path d="M 611.897882 273.213588 
L 611.897882 258.984123 
" clip-path="url(#p10beb79bf2)" style="fill: none; stroke: #000000; stroke-width: 1.5"/>
    <path d="M 612.070847 361 
L 612.070847 216.22329 
" clip-path="url(#p10beb79bf2)" style="fill: none; stroke: #000000; stroke-width: 1.5"/>
    <path d="M 612.385587 219.28852 
L 612.385587 201.818447 
" clip-path="url(#p10beb79bf2)" style="fill: none; stroke: #000000; stroke-width: 1.5"/>
    <path d="M 612.700328 212.734904 
L 612.700328 202.952686 
" clip-path="url(#p10beb79bf2)" style="fill: none; stroke: #000000; stroke-width: 1.5"/>
    <path d="M 613.015068 215.084005 
L 613.015068 207.035949 
" clip-path="url(#p10beb79bf2)" style="fill: none; stroke: #000000; stroke-width: 1.5"/>
    <path d="M 614.274029 232.16203 
L 614.274029 221.781064 
" clip-path="url(#p10beb79bf2)" style="fill: none; stroke: #000000; stroke-width: 1.5"/>
    <path d="M 615.532989 242.372136 
L 615.532989 227.452262 
" clip-path="url(#p10beb79bf2)" style="fill: none; stroke: #000000; stroke-width: 1.5"/>
    <path d="M 616.79195 245.486828 
L 616.79195 225.637479 
" clip-path="url(#p10beb79bf2)" style="fill: none; stroke: #000000; stroke-width: 1.5"/>
    <path d="M 618.050911 252.937607 
L 618.050911 235.845635 
" clip-path="url(#p10beb79bf2)" style="fill: none; stroke: #000000; stroke-width: 1.5"/>
    <path d="M 619.309872 266.339717 
L 619.309872 241.516833 
" clip-path="url(#p10beb79bf2)" style="fill: none; stroke: #000000; stroke-width: 1.5"/>
    <path d="M 623.086754 275.773652 
L 623.086754 258.30358 
" clip-path="url(#p10beb79bf2)" style="fill: none; stroke: #000000; stroke-width: 1.5"/>
    <path d="M 626.863636 281.273435 
L 626.863636 256.942492 
" clip-path="url(#p10beb79bf2)" style="fill: none; stroke: #000000; stroke-width: 1.5"/>
   </g>
   <g id="line2d_78">
    <path d="M 415.402546 361 
L 415.565043 266.635462 
L 415.801943 236.165277 
L 416.072564 224.686103 
L 416.324009 221.111377 
L 416.497404 220.513504 
L 416.592048 220.590167 
L 416.781335 221.344564 
L 417.137254 224.17805 
L 417.785155 231.664156 
L 421.384606 276.678488 
L 422.320463 284.724831 
L 423.112342 289.765 
L 423.836355 293.070692 
L 424.49044 295.178784 
L 425.144525 296.650982 
L 425.745858 297.594096 
L 426.566389 298.448487 
L 427.397438 298.988929 
L 428.403112 299.392884 
L 430.14221 299.78578 
L 430.483895 299.832674 
L 430.491789 299.734065 
L 430.529306 296.556629 
L 431.033326 228.767486 
L 431.313193 221.833265 
L 431.55155 220.17278 
L 431.635823 220.103038 
L 431.67796 220.142383 
L 431.846507 220.696805 
L 432.163137 222.940058 
L 432.73742 229.078704 
L 435.99169 267.084642 
L 436.82121 273.48738 
L 437.586921 277.812407 
L 438.288822 280.612818 
L 438.990723 282.540373 
L 439.692625 283.832923 
L 440.394526 284.68957 
L 441.224046 285.339779 
L 442.181184 285.79941 
L 443.521177 286.17424 
L 445.591641 286.496967 
L 445.616599 286.033368 
L 445.681018 278.597171 
L 446.039003 233.159898 
L 446.327834 222.892763 
L 446.599024 219.986059 
L 446.75158 219.735501 
L 446.890016 220.042149 
L 447.120743 221.323171 
L 447.541741 225.134419 
L 448.550616 237.08794 
L 450.063928 254.534807 
L 451.000741 262.955738 
L 451.793428 268.264865 
L 452.514053 271.732374 
L 453.234678 274.136305 
L 453.955303 275.744983 
L 454.675928 276.800843 
L 455.468615 277.545687 
L 456.333365 278.053118 
L 457.486365 278.45763 
L 459.215865 278.801872 
L 460.706714 278.964257 
L 460.710746 278.928534 
L 460.752159 277.206527 
L 460.887012 257.863122 
L 461.164507 231.518673 
L 461.432741 222.547083 
L 461.684235 219.744256 
L 461.85732 219.396265 
L 461.999334 219.705572 
L 462.236024 221.013261 
L 462.664046 224.848799 
L 463.743993 237.331333 
L 465.111926 252.205472 
L 465.975884 259.420142 
L 466.767845 264.291028 
L 467.48781 267.413603 
L 468.207775 269.548523 
L 468.92774 270.964183 
L 469.647705 271.889501 
L 470.439666 272.542877 
L 471.37562 273.020132 
L 472.671557 273.405009 
L 474.759455 273.754456 
L 475.817453 273.839698 
L 475.822526 273.789918 
L 475.867015 271.983598 
L 476.040142 250.011474 
L 476.324703 228.482495 
L 476.592637 221.310841 
L 476.841518 219.233876 
L 476.948181 219.082729 
L 476.983735 219.10262 
L 477.125953 219.464901 
L 477.3788 220.933926 
L 477.867711 225.443477 
L 480.755461 255.081855 
L 481.513398 259.921232 
L 482.271336 263.352812 
L 482.945058 265.447671 
L 483.61878 266.876321 
L 484.292502 267.836095 
L 485.050439 268.543608 
L 485.976807 269.07977 
L 487.155821 269.478993 
L 488.924341 269.818758 
L 490.925723 270.029151 
L 490.928313 270.009068 
L 490.970185 268.739976 
L 491.102542 254.178148 
L 491.408959 229.04931 
L 491.69476 221.076699 
L 491.942341 218.971048 
L 492.083816 218.814023 
L 492.225291 219.146948 
L 492.477291 220.561068 
L 492.964709 224.952695 
L 495.684049 252.247296 
L 496.442089 257.045578 
L 497.200128 260.439478 
L 497.873941 262.50616 
L 498.547754 263.912796 
L 499.221567 264.85642 
L 499.979606 265.551465 
L 500.906099 266.078229 
L 502.085271 266.471142 
L 503.938256 266.819456 
L 506.035601 267.026789 
L 506.081402 265.736711 
L 506.214356 252.250596 
L 506.530048 228.035306 
L 506.794294 220.908959 
L 507.039806 218.745183 
L 507.180098 218.548781 
L 507.285317 218.729932 
L 507.517029 219.825527 
L 507.947873 223.375689 
L 509.004003 234.686939 
L 510.180994 246.263177 
L 511.021702 252.491787 
L 511.778339 256.527402 
L 512.450906 259.041918 
L 513.123472 260.776507 
L 513.796038 261.947146 
L 514.552676 262.808334 
L 515.393384 263.408214 
L 516.402233 263.843719 
L 517.831437 264.199499 
L 520.353561 264.562411 
L 521.146488 264.58387 
L 521.149166 264.558835 
L 521.197794 262.997446 
L 521.3591 247.056935 
L 521.666213 226.529061 
L 521.939415 220.119105 
L 522.16604 218.44745 
L 522.279352 218.309859 
L 522.317123 218.339101 
L 522.468206 218.754337 
L 522.755632 220.486892 
L 523.336009 225.886072 
L 525.310937 245.556929 
L 526.095186 251.096163 
L 526.792297 254.692246 
L 527.489408 257.224774 
L 528.186518 258.942235 
L 528.883629 260.081759 
L 529.58074 260.832771 
L 530.452128 261.428297 
L 531.497794 261.855013 
L 532.979154 262.202279 
L 535.767596 262.583561 
L 536.256823 262.551009 
L 536.309239 260.922533 
L 536.476314 245.232035 
L 536.791742 225.562265 
L 537.080943 219.484041 
L 537.326529 218.121592 
L 537.431781 218.132162 
L 537.589679 218.592361 
L 537.905564 220.572784 
L 538.493216 226.086585 
L 540.324424 244.014556 
L 541.156791 249.794241 
L 541.905922 253.49134 
L 542.571815 255.77609 
L 543.237709 257.345888 
L 543.903603 258.404768 
L 544.652734 259.18598 
L 545.485101 259.733865 
L 546.567178 260.161864 
L 548.148676 260.515609 
L 551.145198 260.908985 
L 551.366726 260.830965 
L 551.420065 259.176303 
L 551.598546 243.132635 
L 551.906791 225.023242 
L 552.194537 219.20791 
L 552.422202 217.940159 
L 552.536035 217.929565 
L 552.687811 218.350436 
L 552.976852 220.073944 
L 553.560878 225.391093 
L 555.429843 243.310916 
L 556.218319 248.630195 
L 556.919186 252.041976 
L 557.620054 254.419485 
L 558.320921 256.018151 
L 559.021788 257.072641 
L 559.810264 257.833694 
L 560.686348 258.356985 
L 561.825258 258.760677 
L 563.577426 259.110475 
L 566.464562 259.438398 
L 566.503753 258.800821 
L 566.604277 252.035309 
L 566.982006 225.887774 
L 567.260517 219.486146 
L 567.506931 217.801013 
L 567.612537 217.718577 
L 567.647739 217.752624 
L 567.80616 218.209319 
L 568.123052 220.163826 
L 568.712809 225.575196 
L 570.385154 241.512672 
L 571.221327 247.246345 
L 571.973883 250.899874 
L 572.642821 253.147495 
L 573.311759 254.68539 
L 573.980697 255.719076 
L 574.733253 256.479622 
L 575.569426 257.012215 
L 576.65645 257.428625 
L 578.245179 257.774843 
L 581.339018 258.17458 
L 581.582265 258.105959 
L 581.637205 256.55424 
L 581.813958 241.917136 
L 582.118881 224.624804 
L 582.411279 218.817946 
L 582.624162 217.612886 
L 582.730603 217.558597 
L 582.766083 217.601016 
L 582.925776 218.090138 
L 583.245288 220.088957 
L 583.839698 225.524012 
L 585.439446 240.571281 
L 586.281419 246.289162 
L 587.039195 249.916066 
L 587.712773 252.136675 
L 588.386351 253.649496 
L 589.05993 254.662462 
L 589.817705 255.405467 
L 590.659678 255.924768 
L 591.754243 256.330933 
L 593.438189 256.684084 
L 596.672547 257.087636 
L 596.707214 256.768691 
L 596.787199 252.928097 
L 597.279115 222.849144 
L 597.549077 218.373003 
L 597.780766 217.398163 
L 597.89661 217.488752 
L 598.089684 218.20021 
L 598.420439 220.450367 
L 599.180003 227.615684 
L 600.496576 239.715025 
L 601.28652 245.099615 
L 601.988692 248.565742 
L 602.690864 250.982669 
L 603.393036 252.606468 
L 604.095209 253.675743 
L 604.885152 254.44577 
L 605.762868 254.973857 
L 606.903898 255.380075 
L 608.659328 255.731021 
L 611.785818 256.098412 
L 611.828518 255.493052 
L 611.924127 249.877491 
L 612.327458 224.418613 
L 612.622359 218.54423 
L 612.85957 217.284348 
L 612.949331 217.26704 
L 613.083973 217.566785 
L 613.353257 218.984998 
L 613.83627 222.997802 
L 615.856828 241.162006 
L 616.623247 245.792828 
L 617.319991 248.781439 
L 618.016735 250.835741 
L 618.71348 252.20619 
L 619.410224 253.108161 
L 620.176642 253.749935 
L 621.08241 254.222514 
L 622.336549 254.606197 
L 624.357108 254.954022 
L 627.493117 255.317627 
L 627.493117 255.317627 
" clip-path="url(#p10beb79bf2)" style="fill: none; stroke: #0000ff; stroke-width: 1.5; stroke-linecap: square"/>
   </g>
   <g id="line2d_79">
    <path d="M 415.5 295.846911 
L 415.672965 229.720741 
L 415.987706 204.20035 
L 416.302446 205.33459 
L 416.617186 209.984972 
L 417.876147 228.586502 
L 419.135107 237.773843 
L 420.394068 238.454386 
L 421.653029 247.301455 
L 422.91199 254.560589 
L 426.688872 267.150649 
L 430.465755 270.213096 
L 611.756107 267.49092 
L 611.897882 264.882169 
L 612.070847 230.854981 
L 612.385587 208.737308 
L 612.700328 207.262797 
L 613.015068 210.665516 
L 614.274029 226.318022 
L 615.532989 233.577156 
L 616.79195 233.236884 
L 618.050911 242.651073 
L 619.309872 250.363902 
L 623.086754 265.222441 
L 626.863636 265.676137 
" clip-path="url(#p10beb79bf2)" style="fill: none; stroke: #000000; stroke-width: 1.5; stroke-linecap: square"/>
    <g clip-path="url(#p10beb79bf2)">
     <use xlink:href="#m355d14cc98" x="415.5" y="295.846911" style="stroke: #000000; stroke-linejoin: miter"/>
     <use xlink:href="#m355d14cc98" x="415.672965" y="229.720741" style="stroke: #000000; stroke-linejoin: miter"/>
     <use xlink:href="#m355d14cc98" x="415.987706" y="204.20035" style="stroke: #000000; stroke-linejoin: miter"/>
     <use xlink:href="#m355d14cc98" x="416.302446" y="205.33459" style="stroke: #000000; stroke-linejoin: miter"/>
     <use xlink:href="#m355d14cc98" x="416.617186" y="209.984972" style="stroke: #000000; stroke-linejoin: miter"/>
     <use xlink:href="#m355d14cc98" x="417.876147" y="228.586502" style="stroke: #000000; stroke-linejoin: miter"/>
     <use xlink:href="#m355d14cc98" x="419.135107" y="237.773843" style="stroke: #000000; stroke-linejoin: miter"/>
     <use xlink:href="#m355d14cc98" x="420.394068" y="238.454386" style="stroke: #000000; stroke-linejoin: miter"/>
     <use xlink:href="#m355d14cc98" x="421.653029" y="247.301455" style="stroke: #000000; stroke-linejoin: miter"/>
     <use xlink:href="#m355d14cc98" x="422.91199" y="254.560589" style="stroke: #000000; stroke-linejoin: miter"/>
     <use xlink:href="#m355d14cc98" x="426.688872" y="267.150649" style="stroke: #000000; stroke-linejoin: miter"/>
     <use xlink:href="#m355d14cc98" x="430.465755" y="270.213096" style="stroke: #000000; stroke-linejoin: miter"/>
     <use xlink:href="#m355d14cc98" x="611.756107" y="267.49092" style="stroke: #000000; stroke-linejoin: miter"/>
     <use xlink:href="#m355d14cc98" x="611.897882" y="264.882169" style="stroke: #000000; stroke-linejoin: miter"/>
     <use xlink:href="#m355d14cc98" x="612.070847" y="230.854981" style="stroke: #000000; stroke-linejoin: miter"/>
     <use xlink:href="#m355d14cc98" x="612.385587" y="208.737308" style="stroke: #000000; stroke-linejoin: miter"/>
     <use xlink:href="#m355d14cc98" x="612.700328" y="207.262797" style="stroke: #000000; stroke-linejoin: miter"/>
     <use xlink:href="#m355d14cc98" x="613.015068" y="210.665516" style="stroke: #000000; stroke-linejoin: miter"/>
     <use xlink:href="#m355d14cc98" x="614.274029" y="226.318022" style="stroke: #000000; stroke-linejoin: miter"/>
     <use xlink:href="#m355d14cc98" x="615.532989" y="233.577156" style="stroke: #000000; stroke-linejoin: miter"/>
     <use xlink:href="#m355d14cc98" x="616.79195" y="233.236884" style="stroke: #000000; stroke-linejoin: miter"/>
     <use xlink:href="#m355d14cc98" x="618.050911" y="242.651073" style="stroke: #000000; stroke-linejoin: miter"/>
     <use xlink:href="#m355d14cc98" x="619.309872" y="250.363902" style="stroke: #000000; stroke-linejoin: miter"/>
     <use xlink:href="#m355d14cc98" x="623.086754" y="265.222441" style="stroke: #000000; stroke-linejoin: miter"/>
     <use xlink:href="#m355d14cc98" x="626.863636" y="265.676137" style="stroke: #000000; stroke-linejoin: miter"/>
    </g>
   </g>
   <g id="patch_9">
    <path d="M 394.363636 320.4 
L 394.363636 43.2 
" style="fill: none; stroke: #000000; stroke-width: 0.8; stroke-linejoin: miter; stroke-linecap: square"/>
   </g>
   <g id="patch_10">
    <path d="M 648 320.4 
L 648 43.2 
" style="fill: none; stroke: #000000; stroke-width: 0.8; stroke-linejoin: miter; stroke-linecap: square"/>
   </g>
   <g id="patch_11">
    <path d="M 394.363636 320.4 
L 648 320.4 
" style="fill: none; stroke: #000000; stroke-width: 0.8; stroke-linejoin: miter; stroke-linecap: square"/>
   </g>
   <g id="patch_12">
    <path d="M 394.363636 43.2 
L 648 43.2 
" style="fill: none; stroke: #000000; stroke-width: 0.8; stroke-linejoin: miter; stroke-linecap: square"/>
   </g>
   <g id="text_33">
    <!-- Kasichayanula2011a fm_dap10_dapagliflozin 3-o-glucuronide -->
    <g transform="translate(305.953693 37.2) scale(0.14 -0.14)">
     <use xlink:href="#DejaVuSans-4b"/>
     <use xlink:href="#DejaVuSans-61" x="63.826172"/>
     <use xlink:href="#DejaVuSans-73" x="125.105469"/>
     <use xlink:href="#DejaVuSans-69" x="177.205078"/>
     <use xlink:href="#DejaVuSans-63" x="204.988281"/>
     <use xlink:href="#DejaVuSans-68" x="259.96875"/>
     <use xlink:href="#DejaVuSans-61" x="323.347656"/>
     <use xlink:href="#DejaVuSans-79" x="384.626953"/>
     <use xlink:href="#DejaVuSans-61" x="443.806641"/>
     <use xlink:href="#DejaVuSans-6e" x="505.085938"/>
     <use xlink:href="#DejaVuSans-75" x="568.464844"/>
     <use xlink:href="#DejaVuSans-6c" x="631.84375"/>
     <use xlink:href="#DejaVuSans-61" x="659.626953"/>
     <use xlink:href="#DejaVuSans-32" x="720.90625"/>
     <use xlink:href="#DejaVuSans-30" x="784.529297"/>
     <use xlink:href="#DejaVuSans-31" x="848.152344"/>
     <use xlink:href="#DejaVuSans-31" x="911.775391"/>
     <use xlink:href="#DejaVuSans-61" x="975.398438"/>
     <use xlink:href="#DejaVuSans-20" x="1036.677734"/>
     <use xlink:href="#DejaVuSans-66" x="1068.464844"/>
     <use xlink:href="#DejaVuSans-6d" x="1103.669922"/>
     <use xlink:href="#DejaVuSans-5f" x="1201.082031"/>
     <use xlink:href="#DejaVuSans-64" x="1251.082031"/>
     <use xlink:href="#DejaVuSans-61" x="1314.558594"/>
     <use xlink:href="#DejaVuSans-70" x="1375.837891"/>
     <use xlink:href="#DejaVuSans-31" x="1439.314453"/>
     <use xlink:href="#DejaVuSans-30" x="1502.9375"/>
     <use xlink:href="#DejaVuSans-5f" x="1566.560547"/>
     <use xlink:href="#DejaVuSans-64" x="1616.560547"/>
     <use xlink:href="#DejaVuSans-61" x="1680.037109"/>
     <use xlink:href="#DejaVuSans-70" x="1741.316406"/>
     <use xlink:href="#DejaVuSans-61" x="1804.792969"/>
     <use xlink:href="#DejaVuSans-67" x="1866.072266"/>
     <use xlink:href="#DejaVuSans-6c" x="1929.548828"/>
     <use xlink:href="#DejaVuSans-69" x="1957.332031"/>
     <use xlink:href="#DejaVuSans-66" x="1985.115234"/>
     <use xlink:href="#DejaVuSans-6c" x="2020.320312"/>
     <use xlink:href="#DejaVuSans-6f" x="2048.103516"/>
     <use xlink:href="#DejaVuSans-7a" x="2109.285156"/>
     <use xlink:href="#DejaVuSans-69" x="2161.775391"/>
     <use xlink:href="#DejaVuSans-6e" x="2189.558594"/>
     <use xlink:href="#DejaVuSans-20" x="2252.9375"/>
     <use xlink:href="#DejaVuSans-33" x="2284.724609"/>
     <use xlink:href="#DejaVuSans-2d" x="2348.347656"/>
     <use xlink:href="#DejaVuSans-6f" x="2386.306641"/>
     <use xlink:href="#DejaVuSans-2d" x="2449.363281"/>
     <use xlink:href="#DejaVuSans-67" x="2485.447266"/>
     <use xlink:href="#DejaVuSans-6c" x="2548.923828"/>
     <use xlink:href="#DejaVuSans-75" x="2576.707031"/>
     <use xlink:href="#DejaVuSans-63" x="2640.085938"/>
     <use xlink:href="#DejaVuSans-75" x="2695.066406"/>
     <use xlink:href="#DejaVuSans-72" x="2758.445312"/>
     <use xlink:href="#DejaVuSans-6f" x="2797.308594"/>
     <use xlink:href="#DejaVuSans-6e" x="2858.490234"/>
     <use xlink:href="#DejaVuSans-69" x="2921.869141"/>
     <use xlink:href="#DejaVuSans-64" x="2949.652344"/>
     <use xlink:href="#DejaVuSans-65" x="3013.128906"/>
    </g>
   </g>
   <g id="legend_2">
    <g id="patch_13">
     <path d="M 504.95 80.834375 
L 641 80.834375 
Q 643 80.834375 643 78.834375 
L 643 50.2 
Q 643 48.2 641 48.2 
L 504.95 48.2 
Q 502.95 48.2 502.95 50.2 
L 502.95 78.834375 
Q 502.95 80.834375 504.95 80.834375 
z
" style="fill: #ffffff; opacity: 0.8; stroke: #cccccc; stroke-linejoin: miter"/>
    </g>
    <g id="line2d_80">
     <path d="M 506.95 56.298437 
L 516.95 56.298437 
L 526.95 56.298437 
" style="fill: none; stroke: #0000ff; stroke-width: 1.5; stroke-linecap: square"/>
    </g>
    <g id="text_34">
     <!-- observable -->
     <g transform="translate(534.95 59.798437) scale(0.1 -0.1)">
      <use xlink:href="#DejaVuSans-6f"/>
      <use xlink:href="#DejaVuSans-62" x="61.181641"/>
      <use xlink:href="#DejaVuSans-73" x="124.658203"/>
      <use xlink:href="#DejaVuSans-65" x="176.757812"/>
      <use xlink:href="#DejaVuSans-72" x="238.28125"/>
      <use xlink:href="#DejaVuSans-76" x="279.394531"/>
      <use xlink:href="#DejaVuSans-61" x="338.574219"/>
      <use xlink:href="#DejaVuSans-62" x="399.853516"/>
      <use xlink:href="#DejaVuSans-6c" x="463.330078"/>
      <use xlink:href="#DejaVuSans-65" x="491.113281"/>
     </g>
    </g>
    <g id="LineCollection_4">
     <path d="M 516.95 75.976562 
L 516.95 65.976562 
" style="fill: none; stroke: #000000; stroke-width: 1.5"/>
    </g>
    <g id="line2d_81">
     <path d="M 506.95 70.976562 
L 526.95 70.976562 
" style="fill: none; stroke: #000000; stroke-width: 1.5; stroke-linecap: square"/>
    </g>
    <g id="line2d_82">
     <g>
      <use xlink:href="#m355d14cc98" x="516.95" y="70.976562" style="stroke: #000000; stroke-linejoin: miter"/>
     </g>
    </g>
    <g id="text_35">
     <!-- reference_data ± SD -->
     <g transform="translate(534.95 74.476562) scale(0.1 -0.1)">
      <use xlink:href="#DejaVuSans-72"/>
      <use xlink:href="#DejaVuSans-65" x="38.863281"/>
      <use xlink:href="#DejaVuSans-66" x="100.386719"/>
      <use xlink:href="#DejaVuSans-65" x="135.591797"/>
      <use xlink:href="#DejaVuSans-72" x="197.115234"/>
      <use xlink:href="#DejaVuSans-65" x="235.978516"/>
      <use xlink:href="#DejaVuSans-6e" x="297.501953"/>
      <use xlink:href="#DejaVuSans-63" x="360.880859"/>
      <use xlink:href="#DejaVuSans-65" x="415.861328"/>
      <use xlink:href="#DejaVuSans-5f" x="477.384766"/>
      <use xlink:href="#DejaVuSans-64" x="527.384766"/>
      <use xlink:href="#DejaVuSans-61" x="590.861328"/>
      <use xlink:href="#DejaVuSans-74" x="652.140625"/>
      <use xlink:href="#DejaVuSans-61" x="691.349609"/>
      <use xlink:href="#DejaVuSans-20" x="752.628906"/>
      <use xlink:href="#DejaVuSans-b1" x="784.416016"/>
      <use xlink:href="#DejaVuSans-20" x="868.205078"/>
      <use xlink:href="#DejaVuSans-53" x="899.992188"/>
      <use xlink:href="#DejaVuSans-44" x="963.46875"/>
     </g>
    </g>
   </g>
  </g>
 </g>
 <defs>
  <clipPath id="p269e7fb4eb">
   <rect x="90" y="43.2" width="253.636364" height="277.2"/>
  </clipPath>
  <clipPath id="p10beb79bf2">
   <rect x="394.363636" y="43.2" width="253.636364" height="277.2"/>
  </clipPath>
 </defs>
</svg>
