<?xml version="1.0" encoding="utf-8" standalone="no"?>
<!DOCTYPE svg PUBLIC "-//W3C//DTD SVG 1.1//EN"
  "http://www.w3.org/Graphics/SVG/1.1/DTD/svg11.dtd">
<svg xmlns:xlink="http://www.w3.org/1999/xlink" width="477.712625pt" height="683.737812pt" viewBox="0 0 477.712625 683.737812" xmlns="http://www.w3.org/2000/svg" version="1.1">
 <metadata>
  <rdf:RDF xmlns:dc="http://purl.org/dc/elements/1.1/" xmlns:cc="http://creativecommons.org/ns#" xmlns:rdf="http://www.w3.org/1999/02/22-rdf-syntax-ns#">
   <cc:Work>
    <dc:type rdf:resource="http://purl.org/dc/dcmitype/StillImage"/>
    <dc:date>2025-03-19T16:41:16.113407</dc:date>
    <dc:format>image/svg+xml</dc:format>
    <dc:creator>
     <cc:Agent>
      <dc:title>Matplotlib v3.9.1, https://matplotlib.org/</dc:title>
     </cc:Agent>
    </dc:creator>
   </cc:Work>
  </rdf:RDF>
 </metadata>
 <defs>
  <style type="text/css">*{stroke-linejoin: round; stroke-linecap: butt}</style>
 </defs>
 <g id="figure_1">
  <g id="patch_1">
   <path d="M 0 683.737812 
L 477.712625 683.737812 
L 477.712625 0 
L 0 0 
z
" style="fill: #ffffff"/>
  </g>
  <g id="axes_1">
   <g id="patch_2">
    <path d="M 79.912625 320.243478 
L 470.512625 320.243478 
L 470.512625 79.2 
L 79.912625 79.2 
z
" style="fill: #ffffff"/>
   </g>
   <g id="matplotlib.axis_1">
    <g id="xtick_1">
     <g id="line2d_1">
      <defs>
       <path id="m4a823e19b9" d="M 0 0 
L 0 3.5 
" style="stroke: #000000; stroke-width: 0.8"/>
      </defs>
      <g>
       <use xlink:href="#m4a823e19b9" x="97.66717" y="320.243478" style="stroke: #000000; stroke-width: 0.8"/>
      </g>
     </g>
     <g id="text_1">
      <!-- 0 -->
      <g transform="translate(92.895295 338.641135) scale(0.15 -0.15)">
       <defs>
        <path id="DejaVuSans-30" d="M 2034 4250 
Q 1547 4250 1301 3770 
Q 1056 3291 1056 2328 
Q 1056 1369 1301 889 
Q 1547 409 2034 409 
Q 2525 409 2770 889 
Q 3016 1369 3016 2328 
Q 3016 3291 2770 3770 
Q 2525 4250 2034 4250 
z
M 2034 4750 
Q 2819 4750 3233 4129 
Q 3647 3509 3647 2328 
Q 3647 1150 3233 529 
Q 2819 -91 2034 -91 
Q 1250 -91 836 529 
Q 422 1150 422 2328 
Q 422 3509 836 4129 
Q 1250 4750 2034 4750 
z
" transform="scale(0.015625)"/>
       </defs>
       <use xlink:href="#DejaVuSans-30"/>
      </g>
     </g>
    </g>
    <g id="xtick_2">
     <g id="line2d_2">
      <g>
       <use xlink:href="#m4a823e19b9" x="186.439898" y="320.243478" style="stroke: #000000; stroke-width: 0.8"/>
      </g>
     </g>
     <g id="text_2">
      <!-- 20 -->
      <g transform="translate(176.896148 338.641135) scale(0.15 -0.15)">
       <defs>
        <path id="DejaVuSans-32" d="M 1228 531 
L 3431 531 
L 3431 0 
L 469 0 
L 469 531 
Q 828 903 1448 1529 
Q 2069 2156 2228 2338 
Q 2531 2678 2651 2914 
Q 2772 3150 2772 3378 
Q 2772 3750 2511 3984 
Q 2250 4219 1831 4219 
Q 1534 4219 1204 4116 
Q 875 4013 500 3803 
L 500 4441 
Q 881 4594 1212 4672 
Q 1544 4750 1819 4750 
Q 2544 4750 2975 4387 
Q 3406 4025 3406 3419 
Q 3406 3131 3298 2873 
Q 3191 2616 2906 2266 
Q 2828 2175 2409 1742 
Q 1991 1309 1228 531 
z
" transform="scale(0.015625)"/>
       </defs>
       <use xlink:href="#DejaVuSans-32"/>
       <use xlink:href="#DejaVuSans-30" x="63.623047"/>
      </g>
     </g>
    </g>
    <g id="xtick_3">
     <g id="line2d_3">
      <g>
       <use xlink:href="#m4a823e19b9" x="275.212625" y="320.243478" style="stroke: #000000; stroke-width: 0.8"/>
      </g>
     </g>
     <g id="text_3">
      <!-- 40 -->
      <g transform="translate(265.668875 338.641135) scale(0.15 -0.15)">
       <defs>
        <path id="DejaVuSans-34" d="M 2419 4116 
L 825 1625 
L 2419 1625 
L 2419 4116 
z
M 2253 4666 
L 3047 4666 
L 3047 1625 
L 3713 1625 
L 3713 1100 
L 3047 1100 
L 3047 0 
L 2419 0 
L 2419 1100 
L 313 1100 
L 313 1709 
L 2253 4666 
z
" transform="scale(0.015625)"/>
       </defs>
       <use xlink:href="#DejaVuSans-34"/>
       <use xlink:href="#DejaVuSans-30" x="63.623047"/>
      </g>
     </g>
    </g>
    <g id="xtick_4">
     <g id="line2d_4">
      <g>
       <use xlink:href="#m4a823e19b9" x="363.985352" y="320.243478" style="stroke: #000000; stroke-width: 0.8"/>
      </g>
     </g>
     <g id="text_4">
      <!-- 60 -->
      <g transform="translate(354.441602 338.641135) scale(0.15 -0.15)">
       <defs>
        <path id="DejaVuSans-36" d="M 2113 2584 
Q 1688 2584 1439 2293 
Q 1191 2003 1191 1497 
Q 1191 994 1439 701 
Q 1688 409 2113 409 
Q 2538 409 2786 701 
Q 3034 994 3034 1497 
Q 3034 2003 2786 2293 
Q 2538 2584 2113 2584 
z
M 3366 4563 
L 3366 3988 
Q 3128 4100 2886 4159 
Q 2644 4219 2406 4219 
Q 1781 4219 1451 3797 
Q 1122 3375 1075 2522 
Q 1259 2794 1537 2939 
Q 1816 3084 2150 3084 
Q 2853 3084 3261 2657 
Q 3669 2231 3669 1497 
Q 3669 778 3244 343 
Q 2819 -91 2113 -91 
Q 1303 -91 875 529 
Q 447 1150 447 2328 
Q 447 3434 972 4092 
Q 1497 4750 2381 4750 
Q 2619 4750 2861 4703 
Q 3103 4656 3366 4563 
z
" transform="scale(0.015625)"/>
       </defs>
       <use xlink:href="#DejaVuSans-36"/>
       <use xlink:href="#DejaVuSans-30" x="63.623047"/>
      </g>
     </g>
    </g>
    <g id="xtick_5">
     <g id="line2d_5">
      <g>
       <use xlink:href="#m4a823e19b9" x="452.75808" y="320.243478" style="stroke: #000000; stroke-width: 0.8"/>
      </g>
     </g>
     <g id="text_5">
      <!-- 80 -->
      <g transform="translate(443.21433 338.641135) scale(0.15 -0.15)">
       <defs>
        <path id="DejaVuSans-38" d="M 2034 2216 
Q 1584 2216 1326 1975 
Q 1069 1734 1069 1313 
Q 1069 891 1326 650 
Q 1584 409 2034 409 
Q 2484 409 2743 651 
Q 3003 894 3003 1313 
Q 3003 1734 2745 1975 
Q 2488 2216 2034 2216 
z
M 1403 2484 
Q 997 2584 770 2862 
Q 544 3141 544 3541 
Q 544 4100 942 4425 
Q 1341 4750 2034 4750 
Q 2731 4750 3128 4425 
Q 3525 4100 3525 3541 
Q 3525 3141 3298 2862 
Q 3072 2584 2669 2484 
Q 3125 2378 3379 2068 
Q 3634 1759 3634 1313 
Q 3634 634 3220 271 
Q 2806 -91 2034 -91 
Q 1263 -91 848 271 
Q 434 634 434 1313 
Q 434 1759 690 2068 
Q 947 2378 1403 2484 
z
M 1172 3481 
Q 1172 3119 1398 2916 
Q 1625 2713 2034 2713 
Q 2441 2713 2670 2916 
Q 2900 3119 2900 3481 
Q 2900 3844 2670 4047 
Q 2441 4250 2034 4250 
Q 1625 4250 1398 4047 
Q 1172 3844 1172 3481 
z
" transform="scale(0.015625)"/>
       </defs>
       <use xlink:href="#DejaVuSans-38"/>
       <use xlink:href="#DejaVuSans-30" x="63.623047"/>
      </g>
     </g>
    </g>
    <g id="text_6">
     <!-- time [hr] -->
     <g transform="translate(230.138094 359.437853) scale(0.18 -0.18)">
      <defs>
       <path id="DejaVuSans-Bold-74" d="M 1759 4494 
L 1759 3500 
L 2913 3500 
L 2913 2700 
L 1759 2700 
L 1759 1216 
Q 1759 972 1856 886 
Q 1953 800 2241 800 
L 2816 800 
L 2816 0 
L 1856 0 
Q 1194 0 917 276 
Q 641 553 641 1216 
L 641 2700 
L 84 2700 
L 84 3500 
L 641 3500 
L 641 4494 
L 1759 4494 
z
" transform="scale(0.015625)"/>
       <path id="DejaVuSans-Bold-69" d="M 538 3500 
L 1656 3500 
L 1656 0 
L 538 0 
L 538 3500 
z
M 538 4863 
L 1656 4863 
L 1656 3950 
L 538 3950 
L 538 4863 
z
" transform="scale(0.015625)"/>
       <path id="DejaVuSans-Bold-6d" d="M 3781 2919 
Q 3994 3244 4286 3414 
Q 4578 3584 4928 3584 
Q 5531 3584 5847 3212 
Q 6163 2841 6163 2131 
L 6163 0 
L 5038 0 
L 5038 1825 
Q 5041 1866 5042 1909 
Q 5044 1953 5044 2034 
Q 5044 2406 4934 2573 
Q 4825 2741 4581 2741 
Q 4263 2741 4089 2478 
Q 3916 2216 3909 1719 
L 3909 0 
L 2784 0 
L 2784 1825 
Q 2784 2406 2684 2573 
Q 2584 2741 2328 2741 
Q 2006 2741 1831 2477 
Q 1656 2213 1656 1722 
L 1656 0 
L 531 0 
L 531 3500 
L 1656 3500 
L 1656 2988 
Q 1863 3284 2130 3434 
Q 2397 3584 2719 3584 
Q 3081 3584 3359 3409 
Q 3638 3234 3781 2919 
z
" transform="scale(0.015625)"/>
       <path id="DejaVuSans-Bold-65" d="M 4031 1759 
L 4031 1441 
L 1416 1441 
Q 1456 1047 1700 850 
Q 1944 653 2381 653 
Q 2734 653 3104 758 
Q 3475 863 3866 1075 
L 3866 213 
Q 3469 63 3072 -14 
Q 2675 -91 2278 -91 
Q 1328 -91 801 392 
Q 275 875 275 1747 
Q 275 2603 792 3093 
Q 1309 3584 2216 3584 
Q 3041 3584 3536 3087 
Q 4031 2591 4031 1759 
z
M 2881 2131 
Q 2881 2450 2695 2645 
Q 2509 2841 2209 2841 
Q 1884 2841 1681 2658 
Q 1478 2475 1428 2131 
L 2881 2131 
z
" transform="scale(0.015625)"/>
       <path id="DejaVuSans-Bold-20" transform="scale(0.015625)"/>
       <path id="DejaVuSans-Bold-5b" d="M 550 4863 
L 2491 4863 
L 2491 4159 
L 1613 4159 
L 1613 -141 
L 2491 -141 
L 2491 -844 
L 550 -844 
L 550 4863 
z
" transform="scale(0.015625)"/>
       <path id="DejaVuSans-Bold-68" d="M 4056 2131 
L 4056 0 
L 2931 0 
L 2931 347 
L 2931 1625 
Q 2931 2084 2911 2256 
Q 2891 2428 2841 2509 
Q 2775 2619 2662 2680 
Q 2550 2741 2406 2741 
Q 2056 2741 1856 2470 
Q 1656 2200 1656 1722 
L 1656 0 
L 538 0 
L 538 4863 
L 1656 4863 
L 1656 2988 
Q 1909 3294 2193 3439 
Q 2478 3584 2822 3584 
Q 3428 3584 3742 3212 
Q 4056 2841 4056 2131 
z
" transform="scale(0.015625)"/>
       <path id="DejaVuSans-Bold-72" d="M 3138 2547 
Q 2991 2616 2845 2648 
Q 2700 2681 2553 2681 
Q 2122 2681 1889 2404 
Q 1656 2128 1656 1613 
L 1656 0 
L 538 0 
L 538 3500 
L 1656 3500 
L 1656 2925 
Q 1872 3269 2151 3426 
Q 2431 3584 2822 3584 
Q 2878 3584 2943 3579 
Q 3009 3575 3134 3559 
L 3138 2547 
z
" transform="scale(0.015625)"/>
       <path id="DejaVuSans-Bold-5d" d="M 2375 -844 
L 434 -844 
L 434 -141 
L 1313 -141 
L 1313 4159 
L 434 4159 
L 434 4863 
L 2375 4863 
L 2375 -844 
z
" transform="scale(0.015625)"/>
      </defs>
      <use xlink:href="#DejaVuSans-Bold-74"/>
      <use xlink:href="#DejaVuSans-Bold-69" x="47.802734"/>
      <use xlink:href="#DejaVuSans-Bold-6d" x="82.080078"/>
      <use xlink:href="#DejaVuSans-Bold-65" x="186.279297"/>
      <use xlink:href="#DejaVuSans-Bold-20" x="254.101562"/>
      <use xlink:href="#DejaVuSans-Bold-5b" x="288.916016"/>
      <use xlink:href="#DejaVuSans-Bold-68" x="334.619141"/>
      <use xlink:href="#DejaVuSans-Bold-72" x="405.810547"/>
      <use xlink:href="#DejaVuSans-Bold-5d" x="455.126953"/>
     </g>
    </g>
   </g>
   <g id="matplotlib.axis_2">
    <g id="ytick_1">
     <g id="line2d_6">
      <defs>
       <path id="m223d089af2" d="M 0 0 
L -3.5 0 
" style="stroke: #000000; stroke-width: 0.8"/>
      </defs>
      <g>
       <use xlink:href="#m223d089af2" x="79.912625" y="297.185071" style="stroke: #000000; stroke-width: 0.8"/>
      </g>
     </g>
     <g id="text_7">
      <!-- 0.0 -->
      <g transform="translate(49.057938 302.883899) scale(0.15 -0.15)">
       <defs>
        <path id="DejaVuSans-2e" d="M 684 794 
L 1344 794 
L 1344 0 
L 684 0 
L 684 794 
z
" transform="scale(0.015625)"/>
       </defs>
       <use xlink:href="#DejaVuSans-30"/>
       <use xlink:href="#DejaVuSans-2e" x="63.623047"/>
       <use xlink:href="#DejaVuSans-30" x="95.410156"/>
      </g>
     </g>
    </g>
    <g id="ytick_2">
     <g id="line2d_7">
      <g>
       <use xlink:href="#m223d089af2" x="79.912625" y="241.393767" style="stroke: #000000; stroke-width: 0.8"/>
      </g>
     </g>
     <g id="text_8">
      <!-- 0.1 -->
      <g transform="translate(49.057938 247.092595) scale(0.15 -0.15)">
       <defs>
        <path id="DejaVuSans-31" d="M 794 531 
L 1825 531 
L 1825 4091 
L 703 3866 
L 703 4441 
L 1819 4666 
L 2450 4666 
L 2450 531 
L 3481 531 
L 3481 0 
L 794 0 
L 794 531 
z
" transform="scale(0.015625)"/>
       </defs>
       <use xlink:href="#DejaVuSans-30"/>
       <use xlink:href="#DejaVuSans-2e" x="63.623047"/>
       <use xlink:href="#DejaVuSans-31" x="95.410156"/>
      </g>
     </g>
    </g>
    <g id="ytick_3">
     <g id="line2d_8">
      <g>
       <use xlink:href="#m223d089af2" x="79.912625" y="185.602463" style="stroke: #000000; stroke-width: 0.8"/>
      </g>
     </g>
     <g id="text_9">
      <!-- 0.2 -->
      <g transform="translate(49.057938 191.301292) scale(0.15 -0.15)">
       <use xlink:href="#DejaVuSans-30"/>
       <use xlink:href="#DejaVuSans-2e" x="63.623047"/>
       <use xlink:href="#DejaVuSans-32" x="95.410156"/>
      </g>
     </g>
    </g>
    <g id="ytick_4">
     <g id="line2d_9">
      <g>
       <use xlink:href="#m223d089af2" x="79.912625" y="129.81116" style="stroke: #000000; stroke-width: 0.8"/>
      </g>
     </g>
     <g id="text_10">
      <!-- 0.3 -->
      <g transform="translate(49.057938 135.509988) scale(0.15 -0.15)">
       <defs>
        <path id="DejaVuSans-33" d="M 2597 2516 
Q 3050 2419 3304 2112 
Q 3559 1806 3559 1356 
Q 3559 666 3084 287 
Q 2609 -91 1734 -91 
Q 1441 -91 1130 -33 
Q 819 25 488 141 
L 488 750 
Q 750 597 1062 519 
Q 1375 441 1716 441 
Q 2309 441 2620 675 
Q 2931 909 2931 1356 
Q 2931 1769 2642 2001 
Q 2353 2234 1838 2234 
L 1294 2234 
L 1294 2753 
L 1863 2753 
Q 2328 2753 2575 2939 
Q 2822 3125 2822 3475 
Q 2822 3834 2567 4026 
Q 2313 4219 1838 4219 
Q 1578 4219 1281 4162 
Q 984 4106 628 3988 
L 628 4550 
Q 988 4650 1302 4700 
Q 1616 4750 1894 4750 
Q 2613 4750 3031 4423 
Q 3450 4097 3450 3541 
Q 3450 3153 3228 2886 
Q 3006 2619 2597 2516 
z
" transform="scale(0.015625)"/>
       </defs>
       <use xlink:href="#DejaVuSans-30"/>
       <use xlink:href="#DejaVuSans-2e" x="63.623047"/>
       <use xlink:href="#DejaVuSans-33" x="95.410156"/>
      </g>
     </g>
    </g>
    <g id="text_11">
     <!-- dapagliflozin plasma [µM] -->
     <g transform="translate(41.173875 331.760177) rotate(-90) scale(0.18 -0.18)">
      <defs>
       <path id="DejaVuSans-Bold-64" d="M 2919 2988 
L 2919 4863 
L 4044 4863 
L 4044 0 
L 2919 0 
L 2919 506 
Q 2688 197 2409 53 
Q 2131 -91 1766 -91 
Q 1119 -91 703 423 
Q 288 938 288 1747 
Q 288 2556 703 3070 
Q 1119 3584 1766 3584 
Q 2128 3584 2408 3439 
Q 2688 3294 2919 2988 
z
M 2181 722 
Q 2541 722 2730 984 
Q 2919 1247 2919 1747 
Q 2919 2247 2730 2509 
Q 2541 2772 2181 2772 
Q 1825 2772 1636 2509 
Q 1447 2247 1447 1747 
Q 1447 1247 1636 984 
Q 1825 722 2181 722 
z
" transform="scale(0.015625)"/>
       <path id="DejaVuSans-Bold-61" d="M 2106 1575 
Q 1756 1575 1579 1456 
Q 1403 1338 1403 1106 
Q 1403 894 1545 773 
Q 1688 653 1941 653 
Q 2256 653 2472 879 
Q 2688 1106 2688 1447 
L 2688 1575 
L 2106 1575 
z
M 3816 1997 
L 3816 0 
L 2688 0 
L 2688 519 
Q 2463 200 2181 54 
Q 1900 -91 1497 -91 
Q 953 -91 614 226 
Q 275 544 275 1050 
Q 275 1666 698 1953 
Q 1122 2241 2028 2241 
L 2688 2241 
L 2688 2328 
Q 2688 2594 2478 2717 
Q 2269 2841 1825 2841 
Q 1466 2841 1156 2769 
Q 847 2697 581 2553 
L 581 3406 
Q 941 3494 1303 3539 
Q 1666 3584 2028 3584 
Q 2975 3584 3395 3211 
Q 3816 2838 3816 1997 
z
" transform="scale(0.015625)"/>
       <path id="DejaVuSans-Bold-70" d="M 1656 506 
L 1656 -1331 
L 538 -1331 
L 538 3500 
L 1656 3500 
L 1656 2988 
Q 1888 3294 2169 3439 
Q 2450 3584 2816 3584 
Q 3463 3584 3878 3070 
Q 4294 2556 4294 1747 
Q 4294 938 3878 423 
Q 3463 -91 2816 -91 
Q 2450 -91 2169 54 
Q 1888 200 1656 506 
z
M 2400 2772 
Q 2041 2772 1848 2508 
Q 1656 2244 1656 1747 
Q 1656 1250 1848 986 
Q 2041 722 2400 722 
Q 2759 722 2948 984 
Q 3138 1247 3138 1747 
Q 3138 2247 2948 2509 
Q 2759 2772 2400 2772 
z
" transform="scale(0.015625)"/>
       <path id="DejaVuSans-Bold-67" d="M 2919 594 
Q 2688 288 2409 144 
Q 2131 0 1766 0 
Q 1125 0 706 504 
Q 288 1009 288 1791 
Q 288 2575 706 3076 
Q 1125 3578 1766 3578 
Q 2131 3578 2409 3434 
Q 2688 3291 2919 2981 
L 2919 3500 
L 4044 3500 
L 4044 353 
Q 4044 -491 3511 -936 
Q 2978 -1381 1966 -1381 
Q 1638 -1381 1331 -1331 
Q 1025 -1281 716 -1178 
L 716 -306 
Q 1009 -475 1290 -558 
Q 1572 -641 1856 -641 
Q 2406 -641 2662 -400 
Q 2919 -159 2919 353 
L 2919 594 
z
M 2181 2772 
Q 1834 2772 1640 2515 
Q 1447 2259 1447 1791 
Q 1447 1309 1634 1061 
Q 1822 813 2181 813 
Q 2531 813 2725 1069 
Q 2919 1325 2919 1791 
Q 2919 2259 2725 2515 
Q 2531 2772 2181 2772 
z
" transform="scale(0.015625)"/>
       <path id="DejaVuSans-Bold-6c" d="M 538 4863 
L 1656 4863 
L 1656 0 
L 538 0 
L 538 4863 
z
" transform="scale(0.015625)"/>
       <path id="DejaVuSans-Bold-66" d="M 2841 4863 
L 2841 4128 
L 2222 4128 
Q 1984 4128 1890 4042 
Q 1797 3956 1797 3744 
L 1797 3500 
L 2753 3500 
L 2753 2700 
L 1797 2700 
L 1797 0 
L 678 0 
L 678 2700 
L 122 2700 
L 122 3500 
L 678 3500 
L 678 3744 
Q 678 4316 997 4589 
Q 1316 4863 1984 4863 
L 2841 4863 
z
" transform="scale(0.015625)"/>
       <path id="DejaVuSans-Bold-6f" d="M 2203 2784 
Q 1831 2784 1636 2517 
Q 1441 2250 1441 1747 
Q 1441 1244 1636 976 
Q 1831 709 2203 709 
Q 2569 709 2762 976 
Q 2956 1244 2956 1747 
Q 2956 2250 2762 2517 
Q 2569 2784 2203 2784 
z
M 2203 3584 
Q 3106 3584 3614 3096 
Q 4122 2609 4122 1747 
Q 4122 884 3614 396 
Q 3106 -91 2203 -91 
Q 1297 -91 786 396 
Q 275 884 275 1747 
Q 275 2609 786 3096 
Q 1297 3584 2203 3584 
z
" transform="scale(0.015625)"/>
       <path id="DejaVuSans-Bold-7a" d="M 366 3500 
L 3419 3500 
L 3419 2719 
L 1575 800 
L 3419 800 
L 3419 0 
L 288 0 
L 288 781 
L 2131 2700 
L 366 2700 
L 366 3500 
z
" transform="scale(0.015625)"/>
       <path id="DejaVuSans-Bold-6e" d="M 4056 2131 
L 4056 0 
L 2931 0 
L 2931 347 
L 2931 1631 
Q 2931 2084 2911 2256 
Q 2891 2428 2841 2509 
Q 2775 2619 2662 2680 
Q 2550 2741 2406 2741 
Q 2056 2741 1856 2470 
Q 1656 2200 1656 1722 
L 1656 0 
L 538 0 
L 538 3500 
L 1656 3500 
L 1656 2988 
Q 1909 3294 2193 3439 
Q 2478 3584 2822 3584 
Q 3428 3584 3742 3212 
Q 4056 2841 4056 2131 
z
" transform="scale(0.015625)"/>
       <path id="DejaVuSans-Bold-73" d="M 3272 3391 
L 3272 2541 
Q 2913 2691 2578 2766 
Q 2244 2841 1947 2841 
Q 1628 2841 1473 2761 
Q 1319 2681 1319 2516 
Q 1319 2381 1436 2309 
Q 1553 2238 1856 2203 
L 2053 2175 
Q 2913 2066 3209 1816 
Q 3506 1566 3506 1031 
Q 3506 472 3093 190 
Q 2681 -91 1863 -91 
Q 1516 -91 1145 -36 
Q 775 19 384 128 
L 384 978 
Q 719 816 1070 734 
Q 1422 653 1784 653 
Q 2113 653 2278 743 
Q 2444 834 2444 1013 
Q 2444 1163 2330 1236 
Q 2216 1309 1875 1350 
L 1678 1375 
Q 931 1469 631 1722 
Q 331 1975 331 2491 
Q 331 3047 712 3315 
Q 1094 3584 1881 3584 
Q 2191 3584 2531 3537 
Q 2872 3491 3272 3391 
z
" transform="scale(0.015625)"/>
       <path id="DejaVuSans-Bold-b5" d="M 544 -1338 
L 544 3500 
L 1672 3500 
L 1672 1466 
Q 1672 1103 1828 926 
Q 1984 750 2303 750 
Q 2625 750 2781 926 
Q 2938 1103 2938 1466 
L 2938 3500 
L 4063 3500 
L 4063 1159 
Q 4063 938 4114 850 
Q 4166 763 4288 763 
Q 4344 763 4395 778 
Q 4447 794 4506 831 
L 4506 50 
Q 4341 -22 4195 -56 
Q 4050 -91 3909 -91 
Q 3631 -91 3454 26 
Q 3278 144 3169 403 
Q 3022 156 2811 32 
Q 2600 -91 2322 -91 
Q 2091 -91 1928 -17 
Q 1766 56 1672 206 
L 1672 -1338 
L 544 -1338 
z
" transform="scale(0.015625)"/>
       <path id="DejaVuSans-Bold-4d" d="M 588 4666 
L 2119 4666 
L 3181 2169 
L 4250 4666 
L 5778 4666 
L 5778 0 
L 4641 0 
L 4641 3413 
L 3566 897 
L 2803 897 
L 1728 3413 
L 1728 0 
L 588 0 
L 588 4666 
z
" transform="scale(0.015625)"/>
      </defs>
      <use xlink:href="#DejaVuSans-Bold-64"/>
      <use xlink:href="#DejaVuSans-Bold-61" x="71.582031"/>
      <use xlink:href="#DejaVuSans-Bold-70" x="139.0625"/>
      <use xlink:href="#DejaVuSans-Bold-61" x="210.644531"/>
      <use xlink:href="#DejaVuSans-Bold-67" x="278.125"/>
      <use xlink:href="#DejaVuSans-Bold-6c" x="349.707031"/>
      <use xlink:href="#DejaVuSans-Bold-69" x="383.984375"/>
      <use xlink:href="#DejaVuSans-Bold-66" x="418.261719"/>
      <use xlink:href="#DejaVuSans-Bold-6c" x="461.767578"/>
      <use xlink:href="#DejaVuSans-Bold-6f" x="496.044922"/>
      <use xlink:href="#DejaVuSans-Bold-7a" x="564.746094"/>
      <use xlink:href="#DejaVuSans-Bold-69" x="622.949219"/>
      <use xlink:href="#DejaVuSans-Bold-6e" x="657.226562"/>
      <use xlink:href="#DejaVuSans-Bold-20" x="728.417969"/>
      <use xlink:href="#DejaVuSans-Bold-70" x="763.232422"/>
      <use xlink:href="#DejaVuSans-Bold-6c" x="834.814453"/>
      <use xlink:href="#DejaVuSans-Bold-61" x="869.091797"/>
      <use xlink:href="#DejaVuSans-Bold-73" x="936.572266"/>
      <use xlink:href="#DejaVuSans-Bold-6d" x="996.09375"/>
      <use xlink:href="#DejaVuSans-Bold-61" x="1100.292969"/>
      <use xlink:href="#DejaVuSans-Bold-20" x="1167.773438"/>
      <use xlink:href="#DejaVuSans-Bold-5b" x="1202.587891"/>
      <use xlink:href="#DejaVuSans-Bold-b5" x="1248.291016"/>
      <use xlink:href="#DejaVuSans-Bold-4d" x="1321.875"/>
      <use xlink:href="#DejaVuSans-Bold-5d" x="1421.386719"/>
     </g>
    </g>
   </g>
   <g id="LineCollection_1">
    <path clip-path="url(#p811eec06ba)" style="fill: none; stroke: #000000"/>
    <path d="M 99.664557 215.262201 
L 99.664557 91.773875 
" clip-path="url(#p811eec06ba)" style="fill: none; stroke: #000000"/>
    <path d="M 102.105807 171.675315 
L 102.105807 90.156522 
" clip-path="url(#p811eec06ba)" style="fill: none; stroke: #000000"/>
    <path d="M 103.884716 205.571167 
L 103.884716 150.686885 
" clip-path="url(#p811eec06ba)" style="fill: none; stroke: #000000"/>
    <path d="M 106.544443 230.185295 
L 106.544443 182.564971 
" clip-path="url(#p811eec06ba)" style="fill: none; stroke: #000000"/>
    <path d="M 108.54183 242.288751 
L 108.54183 209.196341 
" clip-path="url(#p811eec06ba)" style="fill: none; stroke: #000000"/>
    <path d="M 110.98308 251.56681 
L 110.98308 227.354665 
" clip-path="url(#p811eec06ba)" style="fill: none; stroke: #000000"/>
    <path d="M 112.980466 258.828151 
L 112.980466 234.614959 
" clip-path="url(#p811eec06ba)" style="fill: none; stroke: #000000"/>
    <path d="M 115.421716 263.264619 
L 115.421716 241.472746 
" clip-path="url(#p811eec06ba)" style="fill: none; stroke: #000000"/>
    <path d="M 119.860352 272.944138 
L 119.860352 256.80201 
" clip-path="url(#p811eec06ba)" style="fill: none; stroke: #000000"/>
    <path d="M 124.298989 278.588125 
L 124.298989 264.868363 
" clip-path="url(#p811eec06ba)" style="fill: none; stroke: #000000"/>
    <path d="M 133.176261 283.419249 
L 133.176261 272.927912 
" clip-path="url(#p811eec06ba)" style="fill: none; stroke: #000000"/>
    <path d="M 150.930807 289.853593 
L 150.930807 282.590682 
" clip-path="url(#p811eec06ba)" style="fill: none; stroke: #000000"/>
    <path d="M 168.685352 293.059512 
L 168.685352 287.410814 
" clip-path="url(#p811eec06ba)" style="fill: none; stroke: #000000"/>
    <path d="M 204.194443 293.822128 
L 204.194443 291.400809 
" clip-path="url(#p811eec06ba)" style="fill: none; stroke: #000000"/>
    <path d="M 257.45808 294.56119 
L 257.45808 293.755131 
" clip-path="url(#p811eec06ba)" style="fill: none; stroke: #000000"/>
    <path d="M 310.721716 296.108406 
L 310.721716 293.688134 
" clip-path="url(#p811eec06ba)" style="fill: none; stroke: #000000"/>
   </g>
   <g id="LineCollection_2">
    <path clip-path="url(#p811eec06ba)" style="fill: none; stroke: #d62728"/>
    <path d="M 99.664557 298.394161 
L 99.664557 266.915964 
" clip-path="url(#p811eec06ba)" style="fill: none; stroke: #d62728"/>
    <path d="M 102.105807 309.286957 
L 102.105807 184.991524 
" clip-path="url(#p811eec06ba)" style="fill: none; stroke: #d62728"/>
    <path d="M 103.884716 260.453355 
L 103.884716 141.406208 
" clip-path="url(#p811eec06ba)" style="fill: none; stroke: #d62728"/>
    <path d="M 106.544443 230.588848 
L 106.544443 153.912693 
" clip-path="url(#p811eec06ba)" style="fill: none; stroke: #d62728"/>
    <path d="M 108.54183 233.41058 
L 108.54183 172.473523 
" clip-path="url(#p811eec06ba)" style="fill: none; stroke: #d62728"/>
    <path d="M 110.98308 236.232835 
L 110.98308 196.683575 
" clip-path="url(#p811eec06ba)" style="fill: none; stroke: #d62728"/>
    <path d="M 112.980466 238.246938 
L 112.980466 212.419533 
" clip-path="url(#p811eec06ba)" style="fill: none; stroke: #d62728"/>
    <path d="M 115.421716 247.930121 
L 115.421716 220.487456 
" clip-path="url(#p811eec06ba)" style="fill: none; stroke: #d62728"/>
    <path d="M 119.860352 263.258861 
L 119.860352 233.395925 
" clip-path="url(#p811eec06ba)" style="fill: none; stroke: #d62728"/>
    <path d="M 124.298989 272.132321 
L 124.298989 253.164274 
" clip-path="url(#p811eec06ba)" style="fill: none; stroke: #d62728"/>
    <path d="M 133.176261 282.209636 
L 133.176261 262.030929 
" clip-path="url(#p811eec06ba)" style="fill: none; stroke: #d62728"/>
    <path d="M 150.930807 287.029244 
L 150.930807 280.572393 
" clip-path="url(#p811eec06ba)" style="fill: none; stroke: #d62728"/>
    <path d="M 168.685352 290.639763 
L 168.685352 287.006214 
" clip-path="url(#p811eec06ba)" style="fill: none; stroke: #d62728"/>
    <path d="M 204.194443 293.015545 
L 204.194443 290.190149 
" clip-path="url(#p811eec06ba)" style="fill: none; stroke: #d62728"/>
    <path d="M 257.45808 295.36882 
L 257.45808 292.948548 
" clip-path="url(#p811eec06ba)" style="fill: none; stroke: #d62728"/>
    <path d="M 310.721716 295.301823 
L 310.721716 293.68761 
" clip-path="url(#p811eec06ba)" style="fill: none; stroke: #d62728"/>
    <path d="M 417.248989 295.570858 
L 417.248989 294.763229 
" clip-path="url(#p811eec06ba)" style="fill: none; stroke: #d62728"/>
   </g>
   <g id="line2d_10">
    <path d="M 97.66717 297.185071 
L 98.377352 263.774597 
L 99.087534 209.411533 
L 99.797716 168.987368 
L 100.507898 146.069223 
L 101.21808 136.651387 
L 101.928261 136.170959 
L 102.638443 141.113602 
L 103.348625 149.087154 
L 107.609716 205.835493 
L 109.03008 220.962473 
L 110.450443 233.684474 
L 111.870807 244.285164 
L 113.29117 253.07925 
L 114.711534 260.358797 
L 116.131898 266.378023 
L 117.552261 271.35224 
L 118.972625 275.461538 
L 120.392989 278.855654 
L 121.813352 281.658717 
L 123.233716 283.973471 
L 124.65408 285.884888 
L 126.074443 287.463205 
L 127.494807 288.766464 
L 128.91517 289.842613 
L 131.045716 291.115727 
L 133.176261 292.07119 
L 135.306807 292.788421 
L 138.147534 293.474907 
L 141.698443 294.035812 
L 145.959534 294.437118 
L 151.640989 294.717552 
L 160.16317 294.891608 
L 178.627898 294.988619 
L 314.982807 295.197846 
L 452.75808 295.383974 
L 452.75808 295.383974 
" clip-path="url(#p811eec06ba)" style="fill: none; stroke: #000000; stroke-width: 2; stroke-linecap: square"/>
   </g>
   <g id="line2d_11">
    <path d="M 97.66717 297.185071 
L 99.664557 153.518038 
L 102.105807 130.915918 
L 103.884716 178.129026 
L 106.544443 206.375133 
L 108.54183 225.742546 
L 110.98308 239.460738 
L 112.980466 246.721555 
L 115.421716 252.368683 
L 119.860352 264.873074 
L 124.298989 271.728244 
L 133.176261 278.173581 
L 150.930807 286.222138 
L 168.685352 290.235163 
L 204.194443 292.611468 
L 257.45808 294.158161 
L 310.721716 294.89827 
" clip-path="url(#p811eec06ba)" style="fill: none; stroke-dasharray: 3.7,1.6; stroke-dashoffset: 0; stroke: #000000"/>
    <defs>
     <path id="m19d0869358" d="M -3 3 
L 3 3 
L 3 -3 
L -3 -3 
z
" style="stroke: #000000; stroke-linejoin: miter"/>
    </defs>
    <g clip-path="url(#p811eec06ba)">
     <use xlink:href="#m19d0869358" x="97.66717" y="297.185071" style="stroke: #000000; stroke-linejoin: miter"/>
     <use xlink:href="#m19d0869358" x="99.664557" y="153.518038" style="stroke: #000000; stroke-linejoin: miter"/>
     <use xlink:href="#m19d0869358" x="102.105807" y="130.915918" style="stroke: #000000; stroke-linejoin: miter"/>
     <use xlink:href="#m19d0869358" x="103.884716" y="178.129026" style="stroke: #000000; stroke-linejoin: miter"/>
     <use xlink:href="#m19d0869358" x="106.544443" y="206.375133" style="stroke: #000000; stroke-linejoin: miter"/>
     <use xlink:href="#m19d0869358" x="108.54183" y="225.742546" style="stroke: #000000; stroke-linejoin: miter"/>
     <use xlink:href="#m19d0869358" x="110.98308" y="239.460738" style="stroke: #000000; stroke-linejoin: miter"/>
     <use xlink:href="#m19d0869358" x="112.980466" y="246.721555" style="stroke: #000000; stroke-linejoin: miter"/>
     <use xlink:href="#m19d0869358" x="115.421716" y="252.368683" style="stroke: #000000; stroke-linejoin: miter"/>
     <use xlink:href="#m19d0869358" x="119.860352" y="264.873074" style="stroke: #000000; stroke-linejoin: miter"/>
     <use xlink:href="#m19d0869358" x="124.298989" y="271.728244" style="stroke: #000000; stroke-linejoin: miter"/>
     <use xlink:href="#m19d0869358" x="133.176261" y="278.173581" style="stroke: #000000; stroke-linejoin: miter"/>
     <use xlink:href="#m19d0869358" x="150.930807" y="286.222138" style="stroke: #000000; stroke-linejoin: miter"/>
     <use xlink:href="#m19d0869358" x="168.685352" y="290.235163" style="stroke: #000000; stroke-linejoin: miter"/>
     <use xlink:href="#m19d0869358" x="204.194443" y="292.611468" style="stroke: #000000; stroke-linejoin: miter"/>
     <use xlink:href="#m19d0869358" x="257.45808" y="294.158161" style="stroke: #000000; stroke-linejoin: miter"/>
     <use xlink:href="#m19d0869358" x="310.721716" y="294.89827" style="stroke: #000000; stroke-linejoin: miter"/>
    </g>
   </g>
   <g id="line2d_12">
    <path d="M 97.66717 297.185071 
L 98.377352 286.040537 
L 99.797716 242.921226 
L 100.507898 225.200284 
L 101.21808 211.518938 
L 101.928261 201.524556 
L 102.638443 194.674873 
L 103.348625 190.430289 
L 104.058807 188.308575 
L 104.768989 187.894939 
L 105.47917 188.838313 
L 106.189352 190.844022 
L 106.899534 193.666106 
L 108.319898 200.977609 
L 110.450443 214.003894 
L 113.29117 231.617377 
L 115.421716 243.502987 
L 117.552261 253.765691 
L 118.972625 259.670304 
L 120.392989 264.856199 
L 121.813352 269.372912 
L 123.233716 273.279806 
L 124.65408 276.639864 
L 126.074443 279.515661 
L 127.494807 281.966858 
L 128.91517 284.048765 
L 130.335534 285.811622 
L 131.755898 287.300369 
L 133.176261 288.554728 
L 135.306807 290.071587 
L 137.437352 291.236769 
L 139.567898 292.128992 
L 141.698443 292.810457 
L 144.53917 293.473855 
L 148.09008 294.025756 
L 152.35117 294.427545 
L 158.032625 294.712854 
L 166.554807 294.892404 
L 184.309352 294.990988 
L 304.33008 295.17766 
L 452.75808 295.37946 
L 452.75808 295.37946 
" clip-path="url(#p811eec06ba)" style="fill: none; stroke: #d62728; stroke-width: 2; stroke-linecap: square"/>
   </g>
   <g id="line2d_13">
    <path d="M 97.66717 297.185071 
L 99.664557 282.655062 
L 102.105807 247.13924 
L 103.884716 200.929782 
L 106.544443 192.250771 
L 108.54183 202.942052 
L 110.98308 216.458205 
L 112.980466 225.333235 
L 115.421716 234.208788 
L 119.860352 248.327393 
L 124.298989 262.648297 
L 133.176261 272.120282 
L 150.930807 283.800818 
L 168.685352 288.822988 
L 204.194443 291.602847 
L 257.45808 294.158684 
L 310.721716 294.494717 
L 417.248989 295.167044 
" clip-path="url(#p811eec06ba)" style="fill: none; stroke-dasharray: 3.7,1.6; stroke-dashoffset: 0; stroke: #d62728"/>
    <defs>
     <path id="m30f2b711b9" d="M -3 3 
L 3 3 
L 3 -3 
L -3 -3 
z
" style="stroke: #000000; stroke-linejoin: miter"/>
    </defs>
    <g clip-path="url(#p811eec06ba)">
     <use xlink:href="#m30f2b711b9" x="97.66717" y="297.185071" style="fill: #d62728; stroke: #000000; stroke-linejoin: miter"/>
     <use xlink:href="#m30f2b711b9" x="99.664557" y="282.655062" style="fill: #d62728; stroke: #000000; stroke-linejoin: miter"/>
     <use xlink:href="#m30f2b711b9" x="102.105807" y="247.13924" style="fill: #d62728; stroke: #000000; stroke-linejoin: miter"/>
     <use xlink:href="#m30f2b711b9" x="103.884716" y="200.929782" style="fill: #d62728; stroke: #000000; stroke-linejoin: miter"/>
     <use xlink:href="#m30f2b711b9" x="106.544443" y="192.250771" style="fill: #d62728; stroke: #000000; stroke-linejoin: miter"/>
     <use xlink:href="#m30f2b711b9" x="108.54183" y="202.942052" style="fill: #d62728; stroke: #000000; stroke-linejoin: miter"/>
     <use xlink:href="#m30f2b711b9" x="110.98308" y="216.458205" style="fill: #d62728; stroke: #000000; stroke-linejoin: miter"/>
     <use xlink:href="#m30f2b711b9" x="112.980466" y="225.333235" style="fill: #d62728; stroke: #000000; stroke-linejoin: miter"/>
     <use xlink:href="#m30f2b711b9" x="115.421716" y="234.208788" style="fill: #d62728; stroke: #000000; stroke-linejoin: miter"/>
     <use xlink:href="#m30f2b711b9" x="119.860352" y="248.327393" style="fill: #d62728; stroke: #000000; stroke-linejoin: miter"/>
     <use xlink:href="#m30f2b711b9" x="124.298989" y="262.648297" style="fill: #d62728; stroke: #000000; stroke-linejoin: miter"/>
     <use xlink:href="#m30f2b711b9" x="133.176261" y="272.120282" style="fill: #d62728; stroke: #000000; stroke-linejoin: miter"/>
     <use xlink:href="#m30f2b711b9" x="150.930807" y="283.800818" style="fill: #d62728; stroke: #000000; stroke-linejoin: miter"/>
     <use xlink:href="#m30f2b711b9" x="168.685352" y="288.822988" style="fill: #d62728; stroke: #000000; stroke-linejoin: miter"/>
     <use xlink:href="#m30f2b711b9" x="204.194443" y="291.602847" style="fill: #d62728; stroke: #000000; stroke-linejoin: miter"/>
     <use xlink:href="#m30f2b711b9" x="257.45808" y="294.158684" style="fill: #d62728; stroke: #000000; stroke-linejoin: miter"/>
     <use xlink:href="#m30f2b711b9" x="310.721716" y="294.494717" style="fill: #d62728; stroke: #000000; stroke-linejoin: miter"/>
     <use xlink:href="#m30f2b711b9" x="417.248989" y="295.167044" style="fill: #d62728; stroke: #000000; stroke-linejoin: miter"/>
    </g>
   </g>
   <g id="patch_3">
    <path d="M 79.912625 320.243478 
L 79.912625 79.2 
" style="fill: none; stroke: #000000; stroke-width: 0.8; stroke-linejoin: miter; stroke-linecap: square"/>
   </g>
   <g id="patch_4">
    <path d="M 470.512625 320.243478 
L 470.512625 79.2 
" style="fill: none; stroke: #000000; stroke-width: 0.8; stroke-linejoin: miter; stroke-linecap: square"/>
   </g>
   <g id="patch_5">
    <path d="M 79.912625 320.243478 
L 470.512625 320.243478 
" style="fill: none; stroke: #000000; stroke-width: 0.8; stroke-linejoin: miter; stroke-linecap: square"/>
   </g>
   <g id="patch_6">
    <path d="M 79.912625 79.2 
L 470.512625 79.2 
" style="fill: none; stroke: #000000; stroke-width: 0.8; stroke-linejoin: miter; stroke-linecap: square"/>
   </g>
   <g id="legend_1">
    <g id="patch_7">
     <path d="M 301.261063 146.46875 
L 463.512625 146.46875 
Q 465.512625 146.46875 465.512625 144.46875 
L 465.512625 86.2 
Q 465.512625 84.2 463.512625 84.2 
L 301.261063 84.2 
Q 299.261063 84.2 299.261063 86.2 
L 299.261063 144.46875 
Q 299.261063 146.46875 301.261063 146.46875 
z
" style="fill: #ffffff; opacity: 0.8; stroke: #cccccc; stroke-linejoin: miter"/>
    </g>
    <g id="line2d_14">
     <path d="M 303.261063 92.298437 
L 323.261063 92.298437 
" style="fill: none; stroke: #000000; stroke-width: 2; stroke-linecap: square"/>
    </g>
    <g id="line2d_15"/>
    <g id="text_12">
     <!-- dap (fasted) -->
     <g transform="translate(331.261063 95.798437) scale(0.1 -0.1)">
      <defs>
       <path id="DejaVuSans-64" d="M 2906 2969 
L 2906 4863 
L 3481 4863 
L 3481 0 
L 2906 0 
L 2906 525 
Q 2725 213 2448 61 
Q 2172 -91 1784 -91 
Q 1150 -91 751 415 
Q 353 922 353 1747 
Q 353 2572 751 3078 
Q 1150 3584 1784 3584 
Q 2172 3584 2448 3432 
Q 2725 3281 2906 2969 
z
M 947 1747 
Q 947 1113 1208 752 
Q 1469 391 1925 391 
Q 2381 391 2643 752 
Q 2906 1113 2906 1747 
Q 2906 2381 2643 2742 
Q 2381 3103 1925 3103 
Q 1469 3103 1208 2742 
Q 947 2381 947 1747 
z
" transform="scale(0.015625)"/>
       <path id="DejaVuSans-61" d="M 2194 1759 
Q 1497 1759 1228 1600 
Q 959 1441 959 1056 
Q 959 750 1161 570 
Q 1363 391 1709 391 
Q 2188 391 2477 730 
Q 2766 1069 2766 1631 
L 2766 1759 
L 2194 1759 
z
M 3341 1997 
L 3341 0 
L 2766 0 
L 2766 531 
Q 2569 213 2275 61 
Q 1981 -91 1556 -91 
Q 1019 -91 701 211 
Q 384 513 384 1019 
Q 384 1609 779 1909 
Q 1175 2209 1959 2209 
L 2766 2209 
L 2766 2266 
Q 2766 2663 2505 2880 
Q 2244 3097 1772 3097 
Q 1472 3097 1187 3025 
Q 903 2953 641 2809 
L 641 3341 
Q 956 3463 1253 3523 
Q 1550 3584 1831 3584 
Q 2591 3584 2966 3190 
Q 3341 2797 3341 1997 
z
" transform="scale(0.015625)"/>
       <path id="DejaVuSans-70" d="M 1159 525 
L 1159 -1331 
L 581 -1331 
L 581 3500 
L 1159 3500 
L 1159 2969 
Q 1341 3281 1617 3432 
Q 1894 3584 2278 3584 
Q 2916 3584 3314 3078 
Q 3713 2572 3713 1747 
Q 3713 922 3314 415 
Q 2916 -91 2278 -91 
Q 1894 -91 1617 61 
Q 1341 213 1159 525 
z
M 3116 1747 
Q 3116 2381 2855 2742 
Q 2594 3103 2138 3103 
Q 1681 3103 1420 2742 
Q 1159 2381 1159 1747 
Q 1159 1113 1420 752 
Q 1681 391 2138 391 
Q 2594 391 2855 752 
Q 3116 1113 3116 1747 
z
" transform="scale(0.015625)"/>
       <path id="DejaVuSans-20" transform="scale(0.015625)"/>
       <path id="DejaVuSans-28" d="M 1984 4856 
Q 1566 4138 1362 3434 
Q 1159 2731 1159 2009 
Q 1159 1288 1364 580 
Q 1569 -128 1984 -844 
L 1484 -844 
Q 1016 -109 783 600 
Q 550 1309 550 2009 
Q 550 2706 781 3412 
Q 1013 4119 1484 4856 
L 1984 4856 
z
" transform="scale(0.015625)"/>
       <path id="DejaVuSans-66" d="M 2375 4863 
L 2375 4384 
L 1825 4384 
Q 1516 4384 1395 4259 
Q 1275 4134 1275 3809 
L 1275 3500 
L 2222 3500 
L 2222 3053 
L 1275 3053 
L 1275 0 
L 697 0 
L 697 3053 
L 147 3053 
L 147 3500 
L 697 3500 
L 697 3744 
Q 697 4328 969 4595 
Q 1241 4863 1831 4863 
L 2375 4863 
z
" transform="scale(0.015625)"/>
       <path id="DejaVuSans-73" d="M 2834 3397 
L 2834 2853 
Q 2591 2978 2328 3040 
Q 2066 3103 1784 3103 
Q 1356 3103 1142 2972 
Q 928 2841 928 2578 
Q 928 2378 1081 2264 
Q 1234 2150 1697 2047 
L 1894 2003 
Q 2506 1872 2764 1633 
Q 3022 1394 3022 966 
Q 3022 478 2636 193 
Q 2250 -91 1575 -91 
Q 1294 -91 989 -36 
Q 684 19 347 128 
L 347 722 
Q 666 556 975 473 
Q 1284 391 1588 391 
Q 1994 391 2212 530 
Q 2431 669 2431 922 
Q 2431 1156 2273 1281 
Q 2116 1406 1581 1522 
L 1381 1569 
Q 847 1681 609 1914 
Q 372 2147 372 2553 
Q 372 3047 722 3315 
Q 1072 3584 1716 3584 
Q 2034 3584 2315 3537 
Q 2597 3491 2834 3397 
z
" transform="scale(0.015625)"/>
       <path id="DejaVuSans-74" d="M 1172 4494 
L 1172 3500 
L 2356 3500 
L 2356 3053 
L 1172 3053 
L 1172 1153 
Q 1172 725 1289 603 
Q 1406 481 1766 481 
L 2356 481 
L 2356 0 
L 1766 0 
Q 1100 0 847 248 
Q 594 497 594 1153 
L 594 3053 
L 172 3053 
L 172 3500 
L 594 3500 
L 594 4494 
L 1172 4494 
z
" transform="scale(0.015625)"/>
       <path id="DejaVuSans-65" d="M 3597 1894 
L 3597 1613 
L 953 1613 
Q 991 1019 1311 708 
Q 1631 397 2203 397 
Q 2534 397 2845 478 
Q 3156 559 3463 722 
L 3463 178 
Q 3153 47 2828 -22 
Q 2503 -91 2169 -91 
Q 1331 -91 842 396 
Q 353 884 353 1716 
Q 353 2575 817 3079 
Q 1281 3584 2069 3584 
Q 2775 3584 3186 3129 
Q 3597 2675 3597 1894 
z
M 3022 2063 
Q 3016 2534 2758 2815 
Q 2500 3097 2075 3097 
Q 1594 3097 1305 2825 
Q 1016 2553 972 2059 
L 3022 2063 
z
" transform="scale(0.015625)"/>
       <path id="DejaVuSans-29" d="M 513 4856 
L 1013 4856 
Q 1481 4119 1714 3412 
Q 1947 2706 1947 2009 
Q 1947 1309 1714 600 
Q 1481 -109 1013 -844 
L 513 -844 
Q 928 -128 1133 580 
Q 1338 1288 1338 2009 
Q 1338 2731 1133 3434 
Q 928 4138 513 4856 
z
" transform="scale(0.015625)"/>
      </defs>
      <use xlink:href="#DejaVuSans-64"/>
      <use xlink:href="#DejaVuSans-61" x="63.476562"/>
      <use xlink:href="#DejaVuSans-70" x="124.755859"/>
      <use xlink:href="#DejaVuSans-20" x="188.232422"/>
      <use xlink:href="#DejaVuSans-28" x="220.019531"/>
      <use xlink:href="#DejaVuSans-66" x="259.033203"/>
      <use xlink:href="#DejaVuSans-61" x="294.238281"/>
      <use xlink:href="#DejaVuSans-73" x="355.517578"/>
      <use xlink:href="#DejaVuSans-74" x="407.617188"/>
      <use xlink:href="#DejaVuSans-65" x="446.826172"/>
      <use xlink:href="#DejaVuSans-64" x="508.349609"/>
      <use xlink:href="#DejaVuSans-29" x="571.826172"/>
     </g>
    </g>
    <g id="LineCollection_3">
     <path d="M 313.261063 111.976562 
L 313.261063 101.976562 
" style="fill: none; stroke: #000000"/>
    </g>
    <g id="line2d_16">
     <path d="M 303.261063 106.976562 
L 323.261063 106.976562 
" style="fill: none; stroke-dasharray: 3.7,1.6; stroke-dashoffset: 0; stroke: #000000"/>
    </g>
    <g id="line2d_17">
     <g>
      <use xlink:href="#m19d0869358" x="313.261063" y="106.976562" style="stroke: #000000; stroke-linejoin: miter"/>
     </g>
    </g>
    <g id="text_13">
     <!-- fasted_DAP10±SD (n=14) -->
     <g transform="translate(331.261063 110.476562) scale(0.1 -0.1)">
      <defs>
       <path id="DejaVuSans-5f" d="M 3263 -1063 
L 3263 -1509 
L -63 -1509 
L -63 -1063 
L 3263 -1063 
z
" transform="scale(0.015625)"/>
       <path id="DejaVuSans-44" d="M 1259 4147 
L 1259 519 
L 2022 519 
Q 2988 519 3436 956 
Q 3884 1394 3884 2338 
Q 3884 3275 3436 3711 
Q 2988 4147 2022 4147 
L 1259 4147 
z
M 628 4666 
L 1925 4666 
Q 3281 4666 3915 4102 
Q 4550 3538 4550 2338 
Q 4550 1131 3912 565 
Q 3275 0 1925 0 
L 628 0 
L 628 4666 
z
" transform="scale(0.015625)"/>
       <path id="DejaVuSans-41" d="M 2188 4044 
L 1331 1722 
L 3047 1722 
L 2188 4044 
z
M 1831 4666 
L 2547 4666 
L 4325 0 
L 3669 0 
L 3244 1197 
L 1141 1197 
L 716 0 
L 50 0 
L 1831 4666 
z
" transform="scale(0.015625)"/>
       <path id="DejaVuSans-50" d="M 1259 4147 
L 1259 2394 
L 2053 2394 
Q 2494 2394 2734 2622 
Q 2975 2850 2975 3272 
Q 2975 3691 2734 3919 
Q 2494 4147 2053 4147 
L 1259 4147 
z
M 628 4666 
L 2053 4666 
Q 2838 4666 3239 4311 
Q 3641 3956 3641 3272 
Q 3641 2581 3239 2228 
Q 2838 1875 2053 1875 
L 1259 1875 
L 1259 0 
L 628 0 
L 628 4666 
z
" transform="scale(0.015625)"/>
       <path id="DejaVuSans-b1" d="M 2944 4013 
L 2944 2803 
L 4684 2803 
L 4684 2272 
L 2944 2272 
L 2944 1063 
L 2419 1063 
L 2419 2272 
L 678 2272 
L 678 2803 
L 2419 2803 
L 2419 4013 
L 2944 4013 
z
M 678 531 
L 4684 531 
L 4684 0 
L 678 0 
L 678 531 
z
" transform="scale(0.015625)"/>
       <path id="DejaVuSans-53" d="M 3425 4513 
L 3425 3897 
Q 3066 4069 2747 4153 
Q 2428 4238 2131 4238 
Q 1616 4238 1336 4038 
Q 1056 3838 1056 3469 
Q 1056 3159 1242 3001 
Q 1428 2844 1947 2747 
L 2328 2669 
Q 3034 2534 3370 2195 
Q 3706 1856 3706 1288 
Q 3706 609 3251 259 
Q 2797 -91 1919 -91 
Q 1588 -91 1214 -16 
Q 841 59 441 206 
L 441 856 
Q 825 641 1194 531 
Q 1563 422 1919 422 
Q 2459 422 2753 634 
Q 3047 847 3047 1241 
Q 3047 1584 2836 1778 
Q 2625 1972 2144 2069 
L 1759 2144 
Q 1053 2284 737 2584 
Q 422 2884 422 3419 
Q 422 4038 858 4394 
Q 1294 4750 2059 4750 
Q 2388 4750 2728 4690 
Q 3069 4631 3425 4513 
z
" transform="scale(0.015625)"/>
       <path id="DejaVuSans-6e" d="M 3513 2113 
L 3513 0 
L 2938 0 
L 2938 2094 
Q 2938 2591 2744 2837 
Q 2550 3084 2163 3084 
Q 1697 3084 1428 2787 
Q 1159 2491 1159 1978 
L 1159 0 
L 581 0 
L 581 3500 
L 1159 3500 
L 1159 2956 
Q 1366 3272 1645 3428 
Q 1925 3584 2291 3584 
Q 2894 3584 3203 3211 
Q 3513 2838 3513 2113 
z
" transform="scale(0.015625)"/>
       <path id="DejaVuSans-3d" d="M 678 2906 
L 4684 2906 
L 4684 2381 
L 678 2381 
L 678 2906 
z
M 678 1631 
L 4684 1631 
L 4684 1100 
L 678 1100 
L 678 1631 
z
" transform="scale(0.015625)"/>
      </defs>
      <use xlink:href="#DejaVuSans-66"/>
      <use xlink:href="#DejaVuSans-61" x="35.205078"/>
      <use xlink:href="#DejaVuSans-73" x="96.484375"/>
      <use xlink:href="#DejaVuSans-74" x="148.583984"/>
      <use xlink:href="#DejaVuSans-65" x="187.792969"/>
      <use xlink:href="#DejaVuSans-64" x="249.316406"/>
      <use xlink:href="#DejaVuSans-5f" x="312.792969"/>
      <use xlink:href="#DejaVuSans-44" x="362.792969"/>
      <use xlink:href="#DejaVuSans-41" x="438.044922"/>
      <use xlink:href="#DejaVuSans-50" x="506.453125"/>
      <use xlink:href="#DejaVuSans-31" x="566.755859"/>
      <use xlink:href="#DejaVuSans-30" x="630.378906"/>
      <use xlink:href="#DejaVuSans-b1" x="694.001953"/>
      <use xlink:href="#DejaVuSans-53" x="777.791016"/>
      <use xlink:href="#DejaVuSans-44" x="841.267578"/>
      <use xlink:href="#DejaVuSans-20" x="918.269531"/>
      <use xlink:href="#DejaVuSans-28" x="950.056641"/>
      <use xlink:href="#DejaVuSans-6e" x="989.070312"/>
      <use xlink:href="#DejaVuSans-3d" x="1052.449219"/>
      <use xlink:href="#DejaVuSans-31" x="1136.238281"/>
      <use xlink:href="#DejaVuSans-34" x="1199.861328"/>
      <use xlink:href="#DejaVuSans-29" x="1263.484375"/>
     </g>
    </g>
    <g id="line2d_18">
     <path d="M 303.261063 121.932812 
L 323.261063 121.932812 
" style="fill: none; stroke: #d62728; stroke-width: 2; stroke-linecap: square"/>
    </g>
    <g id="line2d_19"/>
    <g id="text_14">
     <!-- dap (fed) -->
     <g transform="translate(331.261063 125.432812) scale(0.1 -0.1)">
      <use xlink:href="#DejaVuSans-64"/>
      <use xlink:href="#DejaVuSans-61" x="63.476562"/>
      <use xlink:href="#DejaVuSans-70" x="124.755859"/>
      <use xlink:href="#DejaVuSans-20" x="188.232422"/>
      <use xlink:href="#DejaVuSans-28" x="220.019531"/>
      <use xlink:href="#DejaVuSans-66" x="259.033203"/>
      <use xlink:href="#DejaVuSans-65" x="294.238281"/>
      <use xlink:href="#DejaVuSans-64" x="355.761719"/>
      <use xlink:href="#DejaVuSans-29" x="419.238281"/>
     </g>
    </g>
    <g id="LineCollection_4">
     <path d="M 313.261063 141.610937 
L 313.261063 131.610937 
" style="fill: none; stroke: #d62728"/>
    </g>
    <g id="line2d_20">
     <path d="M 303.261063 136.610937 
L 323.261063 136.610937 
" style="fill: none; stroke-dasharray: 3.7,1.6; stroke-dashoffset: 0; stroke: #d62728"/>
    </g>
    <g id="line2d_21">
     <g>
      <use xlink:href="#m30f2b711b9" x="313.261063" y="136.610937" style="fill: #d62728; stroke: #000000; stroke-linejoin: miter"/>
     </g>
    </g>
    <g id="text_15">
     <!-- fed_DAP10±SD (n=14) -->
     <g transform="translate(331.261063 140.110937) scale(0.1 -0.1)">
      <use xlink:href="#DejaVuSans-66"/>
      <use xlink:href="#DejaVuSans-65" x="35.205078"/>
      <use xlink:href="#DejaVuSans-64" x="96.728516"/>
      <use xlink:href="#DejaVuSans-5f" x="160.205078"/>
      <use xlink:href="#DejaVuSans-44" x="210.205078"/>
      <use xlink:href="#DejaVuSans-41" x="285.457031"/>
      <use xlink:href="#DejaVuSans-50" x="353.865234"/>
      <use xlink:href="#DejaVuSans-31" x="414.167969"/>
      <use xlink:href="#DejaVuSans-30" x="477.791016"/>
      <use xlink:href="#DejaVuSans-b1" x="541.414062"/>
      <use xlink:href="#DejaVuSans-53" x="625.203125"/>
      <use xlink:href="#DejaVuSans-44" x="688.679688"/>
      <use xlink:href="#DejaVuSans-20" x="765.681641"/>
      <use xlink:href="#DejaVuSans-28" x="797.46875"/>
      <use xlink:href="#DejaVuSans-6e" x="836.482422"/>
      <use xlink:href="#DejaVuSans-3d" x="899.861328"/>
      <use xlink:href="#DejaVuSans-31" x="983.650391"/>
      <use xlink:href="#DejaVuSans-34" x="1047.273438"/>
      <use xlink:href="#DejaVuSans-29" x="1110.896484"/>
     </g>
    </g>
   </g>
  </g>
  <g id="axes_2">
   <g id="patch_8">
    <path d="M 79.912625 633.6 
L 470.512625 633.6 
L 470.512625 392.556522 
L 79.912625 392.556522 
z
" style="fill: #ffffff"/>
   </g>
   <g id="matplotlib.axis_3">
    <g id="xtick_6">
     <g id="line2d_22">
      <g>
       <use xlink:href="#m4a823e19b9" x="97.66717" y="633.6" style="stroke: #000000; stroke-width: 0.8"/>
      </g>
     </g>
     <g id="text_16">
      <!-- 0 -->
      <g transform="translate(92.895295 651.997656) scale(0.15 -0.15)">
       <use xlink:href="#DejaVuSans-30"/>
      </g>
     </g>
    </g>
    <g id="xtick_7">
     <g id="line2d_23">
      <g>
       <use xlink:href="#m4a823e19b9" x="186.439898" y="633.6" style="stroke: #000000; stroke-width: 0.8"/>
      </g>
     </g>
     <g id="text_17">
      <!-- 20 -->
      <g transform="translate(176.896148 651.997656) scale(0.15 -0.15)">
       <use xlink:href="#DejaVuSans-32"/>
       <use xlink:href="#DejaVuSans-30" x="63.623047"/>
      </g>
     </g>
    </g>
    <g id="xtick_8">
     <g id="line2d_24">
      <g>
       <use xlink:href="#m4a823e19b9" x="275.212625" y="633.6" style="stroke: #000000; stroke-width: 0.8"/>
      </g>
     </g>
     <g id="text_18">
      <!-- 40 -->
      <g transform="translate(265.668875 651.997656) scale(0.15 -0.15)">
       <use xlink:href="#DejaVuSans-34"/>
       <use xlink:href="#DejaVuSans-30" x="63.623047"/>
      </g>
     </g>
    </g>
    <g id="xtick_9">
     <g id="line2d_25">
      <g>
       <use xlink:href="#m4a823e19b9" x="363.985352" y="633.6" style="stroke: #000000; stroke-width: 0.8"/>
      </g>
     </g>
     <g id="text_19">
      <!-- 60 -->
      <g transform="translate(354.441602 651.997656) scale(0.15 -0.15)">
       <use xlink:href="#DejaVuSans-36"/>
       <use xlink:href="#DejaVuSans-30" x="63.623047"/>
      </g>
     </g>
    </g>
    <g id="xtick_10">
     <g id="line2d_26">
      <g>
       <use xlink:href="#m4a823e19b9" x="452.75808" y="633.6" style="stroke: #000000; stroke-width: 0.8"/>
      </g>
     </g>
     <g id="text_20">
      <!-- 80 -->
      <g transform="translate(443.21433 651.997656) scale(0.15 -0.15)">
       <use xlink:href="#DejaVuSans-38"/>
       <use xlink:href="#DejaVuSans-30" x="63.623047"/>
      </g>
     </g>
    </g>
    <g id="text_21">
     <!-- time [hr] -->
     <g transform="translate(230.138094 672.794375) scale(0.18 -0.18)">
      <use xlink:href="#DejaVuSans-Bold-74"/>
      <use xlink:href="#DejaVuSans-Bold-69" x="47.802734"/>
      <use xlink:href="#DejaVuSans-Bold-6d" x="82.080078"/>
      <use xlink:href="#DejaVuSans-Bold-65" x="186.279297"/>
      <use xlink:href="#DejaVuSans-Bold-20" x="254.101562"/>
      <use xlink:href="#DejaVuSans-Bold-5b" x="288.916016"/>
      <use xlink:href="#DejaVuSans-Bold-68" x="334.619141"/>
      <use xlink:href="#DejaVuSans-Bold-72" x="405.810547"/>
      <use xlink:href="#DejaVuSans-Bold-5d" x="455.126953"/>
     </g>
    </g>
   </g>
   <g id="matplotlib.axis_4">
    <g id="ytick_5">
     <g id="line2d_27">
      <g>
       <use xlink:href="#m223d089af2" x="79.912625" y="620.378564" style="stroke: #000000; stroke-width: 0.8"/>
      </g>
     </g>
     <g id="text_22">
      <!-- 0.0 -->
      <g transform="translate(49.057938 626.077392) scale(0.15 -0.15)">
       <use xlink:href="#DejaVuSans-30"/>
       <use xlink:href="#DejaVuSans-2e" x="63.623047"/>
       <use xlink:href="#DejaVuSans-30" x="95.410156"/>
      </g>
     </g>
    </g>
    <g id="ytick_6">
     <g id="line2d_28">
      <g>
       <use xlink:href="#m223d089af2" x="79.912625" y="575.771082" style="stroke: #000000; stroke-width: 0.8"/>
      </g>
     </g>
     <g id="text_23">
      <!-- 0.1 -->
      <g transform="translate(49.057938 581.46991) scale(0.15 -0.15)">
       <use xlink:href="#DejaVuSans-30"/>
       <use xlink:href="#DejaVuSans-2e" x="63.623047"/>
       <use xlink:href="#DejaVuSans-31" x="95.410156"/>
      </g>
     </g>
    </g>
    <g id="ytick_7">
     <g id="line2d_29">
      <g>
       <use xlink:href="#m223d089af2" x="79.912625" y="531.1636" style="stroke: #000000; stroke-width: 0.8"/>
      </g>
     </g>
     <g id="text_24">
      <!-- 0.2 -->
      <g transform="translate(49.057938 536.862428) scale(0.15 -0.15)">
       <use xlink:href="#DejaVuSans-30"/>
       <use xlink:href="#DejaVuSans-2e" x="63.623047"/>
       <use xlink:href="#DejaVuSans-32" x="95.410156"/>
      </g>
     </g>
    </g>
    <g id="ytick_8">
     <g id="line2d_30">
      <g>
       <use xlink:href="#m223d089af2" x="79.912625" y="486.556117" style="stroke: #000000; stroke-width: 0.8"/>
      </g>
     </g>
     <g id="text_25">
      <!-- 0.3 -->
      <g transform="translate(49.057938 492.254945) scale(0.15 -0.15)">
       <use xlink:href="#DejaVuSans-30"/>
       <use xlink:href="#DejaVuSans-2e" x="63.623047"/>
       <use xlink:href="#DejaVuSans-33" x="95.410156"/>
      </g>
     </g>
    </g>
    <g id="ytick_9">
     <g id="line2d_31">
      <g>
       <use xlink:href="#m223d089af2" x="79.912625" y="441.948635" style="stroke: #000000; stroke-width: 0.8"/>
      </g>
     </g>
     <g id="text_26">
      <!-- 0.4 -->
      <g transform="translate(49.057938 447.647463) scale(0.15 -0.15)">
       <use xlink:href="#DejaVuSans-30"/>
       <use xlink:href="#DejaVuSans-2e" x="63.623047"/>
       <use xlink:href="#DejaVuSans-34" x="95.410156"/>
      </g>
     </g>
    </g>
    <g id="ytick_10">
     <g id="line2d_32">
      <g>
       <use xlink:href="#m223d089af2" x="79.912625" y="397.341153" style="stroke: #000000; stroke-width: 0.8"/>
      </g>
     </g>
     <g id="text_27">
      <!-- 0.5 -->
      <g transform="translate(49.057938 403.039981) scale(0.15 -0.15)">
       <defs>
        <path id="DejaVuSans-35" d="M 691 4666 
L 3169 4666 
L 3169 4134 
L 1269 4134 
L 1269 2991 
Q 1406 3038 1543 3061 
Q 1681 3084 1819 3084 
Q 2600 3084 3056 2656 
Q 3513 2228 3513 1497 
Q 3513 744 3044 326 
Q 2575 -91 1722 -91 
Q 1428 -91 1123 -41 
Q 819 9 494 109 
L 494 744 
Q 775 591 1075 516 
Q 1375 441 1709 441 
Q 2250 441 2565 725 
Q 2881 1009 2881 1497 
Q 2881 1984 2565 2268 
Q 2250 2553 1709 2553 
Q 1456 2553 1204 2497 
Q 953 2441 691 2322 
L 691 4666 
z
" transform="scale(0.015625)"/>
       </defs>
       <use xlink:href="#DejaVuSans-30"/>
       <use xlink:href="#DejaVuSans-2e" x="63.623047"/>
       <use xlink:href="#DejaVuSans-35" x="95.410156"/>
      </g>
     </g>
    </g>
    <g id="text_28">
     <!-- dapagliflozin-3-o- -->
     <g transform="translate(20.877188 602.286542) rotate(-90) scale(0.18 -0.18)">
      <defs>
       <path id="DejaVuSans-Bold-2d" d="M 347 2297 
L 2309 2297 
L 2309 1388 
L 347 1388 
L 347 2297 
z
" transform="scale(0.015625)"/>
       <path id="DejaVuSans-Bold-33" d="M 2981 2516 
Q 3453 2394 3698 2092 
Q 3944 1791 3944 1325 
Q 3944 631 3412 270 
Q 2881 -91 1863 -91 
Q 1503 -91 1142 -33 
Q 781 25 428 141 
L 428 1069 
Q 766 900 1098 814 
Q 1431 728 1753 728 
Q 2231 728 2486 893 
Q 2741 1059 2741 1369 
Q 2741 1688 2480 1852 
Q 2219 2016 1709 2016 
L 1228 2016 
L 1228 2791 
L 1734 2791 
Q 2188 2791 2409 2933 
Q 2631 3075 2631 3366 
Q 2631 3634 2415 3781 
Q 2200 3928 1806 3928 
Q 1516 3928 1219 3862 
Q 922 3797 628 3669 
L 628 4550 
Q 984 4650 1334 4700 
Q 1684 4750 2022 4750 
Q 2931 4750 3382 4451 
Q 3834 4153 3834 3553 
Q 3834 3144 3618 2883 
Q 3403 2622 2981 2516 
z
" transform="scale(0.015625)"/>
      </defs>
      <use xlink:href="#DejaVuSans-Bold-64"/>
      <use xlink:href="#DejaVuSans-Bold-61" x="71.582031"/>
      <use xlink:href="#DejaVuSans-Bold-70" x="139.0625"/>
      <use xlink:href="#DejaVuSans-Bold-61" x="210.644531"/>
      <use xlink:href="#DejaVuSans-Bold-67" x="278.125"/>
      <use xlink:href="#DejaVuSans-Bold-6c" x="349.707031"/>
      <use xlink:href="#DejaVuSans-Bold-69" x="383.984375"/>
      <use xlink:href="#DejaVuSans-Bold-66" x="418.261719"/>
      <use xlink:href="#DejaVuSans-Bold-6c" x="461.767578"/>
      <use xlink:href="#DejaVuSans-Bold-6f" x="496.044922"/>
      <use xlink:href="#DejaVuSans-Bold-7a" x="564.746094"/>
      <use xlink:href="#DejaVuSans-Bold-69" x="622.949219"/>
      <use xlink:href="#DejaVuSans-Bold-6e" x="657.226562"/>
      <use xlink:href="#DejaVuSans-Bold-2d" x="728.417969"/>
      <use xlink:href="#DejaVuSans-Bold-33" x="769.921875"/>
      <use xlink:href="#DejaVuSans-Bold-2d" x="839.501953"/>
      <use xlink:href="#DejaVuSans-Bold-6f" x="881.005859"/>
      <use xlink:href="#DejaVuSans-Bold-2d" x="949.707031"/>
     </g>
     <!-- glucuronide plasma [µM] -->
     <g transform="translate(41.173875 639.895292) rotate(-90) scale(0.18 -0.18)">
      <defs>
       <path id="DejaVuSans-Bold-75" d="M 500 1363 
L 500 3500 
L 1625 3500 
L 1625 3150 
Q 1625 2866 1622 2436 
Q 1619 2006 1619 1863 
Q 1619 1441 1641 1255 
Q 1663 1069 1716 984 
Q 1784 875 1895 815 
Q 2006 756 2150 756 
Q 2500 756 2700 1025 
Q 2900 1294 2900 1772 
L 2900 3500 
L 4019 3500 
L 4019 0 
L 2900 0 
L 2900 506 
Q 2647 200 2364 54 
Q 2081 -91 1741 -91 
Q 1134 -91 817 281 
Q 500 653 500 1363 
z
" transform="scale(0.015625)"/>
       <path id="DejaVuSans-Bold-63" d="M 3366 3391 
L 3366 2478 
Q 3138 2634 2908 2709 
Q 2678 2784 2431 2784 
Q 1963 2784 1702 2511 
Q 1441 2238 1441 1747 
Q 1441 1256 1702 982 
Q 1963 709 2431 709 
Q 2694 709 2930 787 
Q 3166 866 3366 1019 
L 3366 103 
Q 3103 6 2833 -42 
Q 2563 -91 2291 -91 
Q 1344 -91 809 395 
Q 275 881 275 1747 
Q 275 2613 809 3098 
Q 1344 3584 2291 3584 
Q 2566 3584 2833 3536 
Q 3100 3488 3366 3391 
z
" transform="scale(0.015625)"/>
      </defs>
      <use xlink:href="#DejaVuSans-Bold-67"/>
      <use xlink:href="#DejaVuSans-Bold-6c" x="71.582031"/>
      <use xlink:href="#DejaVuSans-Bold-75" x="105.859375"/>
      <use xlink:href="#DejaVuSans-Bold-63" x="177.050781"/>
      <use xlink:href="#DejaVuSans-Bold-75" x="236.328125"/>
      <use xlink:href="#DejaVuSans-Bold-72" x="307.519531"/>
      <use xlink:href="#DejaVuSans-Bold-6f" x="356.835938"/>
      <use xlink:href="#DejaVuSans-Bold-6e" x="425.537109"/>
      <use xlink:href="#DejaVuSans-Bold-69" x="496.728516"/>
      <use xlink:href="#DejaVuSans-Bold-64" x="531.005859"/>
      <use xlink:href="#DejaVuSans-Bold-65" x="602.587891"/>
      <use xlink:href="#DejaVuSans-Bold-20" x="670.410156"/>
      <use xlink:href="#DejaVuSans-Bold-70" x="705.224609"/>
      <use xlink:href="#DejaVuSans-Bold-6c" x="776.806641"/>
      <use xlink:href="#DejaVuSans-Bold-61" x="811.083984"/>
      <use xlink:href="#DejaVuSans-Bold-73" x="878.564453"/>
      <use xlink:href="#DejaVuSans-Bold-6d" x="938.085938"/>
      <use xlink:href="#DejaVuSans-Bold-61" x="1042.285156"/>
      <use xlink:href="#DejaVuSans-Bold-20" x="1109.765625"/>
      <use xlink:href="#DejaVuSans-Bold-5b" x="1144.580078"/>
      <use xlink:href="#DejaVuSans-Bold-b5" x="1190.283203"/>
      <use xlink:href="#DejaVuSans-Bold-4d" x="1263.867188"/>
      <use xlink:href="#DejaVuSans-Bold-5d" x="1363.378906"/>
     </g>
    </g>
   </g>
   <g id="LineCollection_5">
    <path clip-path="url(#p9f3d4005ba)" style="fill: none; stroke: #000000"/>
    <path d="M 99.664557 611.885137 
L 99.664557 549.6 
" clip-path="url(#p9f3d4005ba)" style="fill: none; stroke: #000000"/>
    <path d="M 102.105807 514.493832 
L 102.105807 411.440243 
" clip-path="url(#p9f3d4005ba)" style="fill: none; stroke: #000000"/>
    <path d="M 104.103193 495.808291 
L 104.103193 403.513043 
" clip-path="url(#p9f3d4005ba)" style="fill: none; stroke: #000000"/>
    <path d="M 106.544443 519.589889 
L 106.544443 433.523155 
" clip-path="url(#p9f3d4005ba)" style="fill: none; stroke: #000000"/>
    <path d="M 108.54183 541.672801 
L 108.54183 473.159151 
" clip-path="url(#p9f3d4005ba)" style="fill: none; stroke: #000000"/>
    <path d="M 110.98308 558.659656 
L 110.98308 504.301719 
" clip-path="url(#p9f3d4005ba)" style="fill: none; stroke: #000000"/>
    <path d="M 112.980466 570.550455 
L 112.980466 526.384631 
" clip-path="url(#p9f3d4005ba)" style="fill: none; stroke: #000000"/>
    <path d="M 115.421716 577.911426 
L 115.421716 539.407887 
" clip-path="url(#p9f3d4005ba)" style="fill: none; stroke: #000000"/>
    <path d="M 119.860352 595.46451 
L 119.860352 567.719312 
" clip-path="url(#p9f3d4005ba)" style="fill: none; stroke: #000000"/>
    <path d="M 124.298989 600.560566 
L 124.298989 581.875025 
" clip-path="url(#p9f3d4005ba)" style="fill: none; stroke: #000000"/>
    <path d="M 133.176261 607.355308 
L 133.176261 598.295652 
" clip-path="url(#p9f3d4005ba)" style="fill: none; stroke: #000000"/>
    <path d="M 150.930807 613.583822 
L 150.930807 605.656623 
" clip-path="url(#p9f3d4005ba)" style="fill: none; stroke: #000000"/>
    <path d="M 168.685352 616.414965 
L 168.685352 610.752679 
" clip-path="url(#p9f3d4005ba)" style="fill: none; stroke: #000000"/>
    <path d="M 204.194443 617.547422 
L 204.194443 614.150051 
" clip-path="url(#p9f3d4005ba)" style="fill: none; stroke: #000000"/>
    <path d="M 257.45808 619.246107 
L 257.45808 616.981193 
" clip-path="url(#p9f3d4005ba)" style="fill: none; stroke: #000000"/>
    <path d="M 310.721716 619.812336 
L 310.721716 617.547422 
" clip-path="url(#p9f3d4005ba)" style="fill: none; stroke: #000000"/>
    <path d="M 417.248989 619.246107 
L 417.248989 618.11365 
" clip-path="url(#p9f3d4005ba)" style="fill: none; stroke: #000000"/>
   </g>
   <g id="LineCollection_6">
    <path clip-path="url(#p9f3d4005ba)" style="fill: none; stroke: #d62728"/>
    <path d="M 99.664557 618.11365 
L 99.664557 609.053994 
" clip-path="url(#p9f3d4005ba)" style="fill: none; stroke: #d62728"/>
    <path d="M 102.105807 622.643478 
L 102.105807 575.080283 
" clip-path="url(#p9f3d4005ba)" style="fill: none; stroke: #d62728"/>
    <path d="M 104.103193 606.78908 
L 104.103193 523.553488 
" clip-path="url(#p9f3d4005ba)" style="fill: none; stroke: #d62728"/>
    <path d="M 106.544443 584.706168 
L 106.544443 492.41092 
" clip-path="url(#p9f3d4005ba)" style="fill: none; stroke: #d62728"/>
    <path d="M 108.54183 575.080283 
L 108.54183 485.616178 
" clip-path="url(#p9f3d4005ba)" style="fill: none; stroke: #d62728"/>
    <path d="M 110.98308 572.815369 
L 110.98308 491.278463 
" clip-path="url(#p9f3d4005ba)" style="fill: none; stroke: #d62728"/>
    <path d="M 112.980466 572.249141 
L 112.980466 508.265319 
" clip-path="url(#p9f3d4005ba)" style="fill: none; stroke: #d62728"/>
    <path d="M 115.421716 573.947826 
L 115.421716 525.818402 
" clip-path="url(#p9f3d4005ba)" style="fill: none; stroke: #d62728"/>
    <path d="M 119.860352 585.838625 
L 119.860352 547.901314 
" clip-path="url(#p9f3d4005ba)" style="fill: none; stroke: #d62728"/>
    <path d="M 124.298989 594.898281 
L 124.298989 569.984226 
" clip-path="url(#p9f3d4005ba)" style="fill: none; stroke: #d62728"/>
    <path d="M 133.176261 608.487765 
L 133.176261 588.669767 
" clip-path="url(#p9f3d4005ba)" style="fill: none; stroke: #d62728"/>
    <path d="M 150.930807 610.186451 
L 150.930807 604.524166 
" clip-path="url(#p9f3d4005ba)" style="fill: none; stroke: #d62728"/>
    <path d="M 168.685352 614.150051 
L 168.685352 610.186451 
" clip-path="url(#p9f3d4005ba)" style="fill: none; stroke: #d62728"/>
    <path d="M 204.194443 615.848736 
L 204.194443 613.583822 
" clip-path="url(#p9f3d4005ba)" style="fill: none; stroke: #d62728"/>
    <path d="M 257.45808 618.11365 
L 257.45808 616.981193 
" clip-path="url(#p9f3d4005ba)" style="fill: none; stroke: #d62728"/>
    <path d="M 310.721716 618.679879 
L 310.721716 617.547422 
" clip-path="url(#p9f3d4005ba)" style="fill: none; stroke: #d62728"/>
    <path d="M 417.248989 619.246107 
L 417.248989 618.11365 
" clip-path="url(#p9f3d4005ba)" style="fill: none; stroke: #d62728"/>
   </g>
   <g id="line2d_33">
    <path d="M 97.66717 620.378564 
L 98.377352 618.46086 
L 99.087534 608.12268 
L 99.797716 590.704349 
L 101.21808 550.728518 
L 101.928261 533.440637 
L 102.638443 519.451495 
L 103.348625 508.9338 
L 104.058807 501.680799 
L 104.768989 497.303654 
L 105.47917 495.35003 
L 106.189352 495.370413 
L 106.899534 496.951926 
L 107.609716 499.732825 
L 108.319898 503.406051 
L 109.740261 512.458113 
L 115.421716 551.948549 
L 117.552261 564.115785 
L 118.972625 571.134479 
L 120.392989 577.32094 
L 121.813352 582.739014 
L 123.233716 587.462232 
L 124.65408 591.565964 
L 126.074443 595.122901 
L 127.494807 598.200647 
L 128.91517 600.860609 
L 130.335534 603.157689 
L 131.755898 605.140425 
L 133.176261 606.85139 
L 135.306807 608.988137 
L 137.437352 610.701087 
L 139.567898 612.074955 
L 141.698443 613.177628 
L 143.828989 614.063387 
L 146.669716 614.980602 
L 149.510443 615.667641 
L 153.061352 616.29083 
L 157.322443 616.798064 
L 163.003898 617.214757 
L 170.105716 617.498129 
L 181.468625 617.69808 
L 204.194443 617.817794 
L 327.055898 618.041645 
L 452.75808 618.242193 
L 452.75808 618.242193 
" clip-path="url(#p9f3d4005ba)" style="fill: none; stroke: #000000; stroke-width: 2; stroke-linecap: square"/>
   </g>
   <g id="line2d_34">
    <path d="M 97.66717 620.378564 
L 99.664557 580.742568 
L 102.105807 462.967037 
L 104.103193 449.660667 
L 106.544443 476.556522 
L 108.54183 507.415976 
L 110.98308 531.480688 
L 112.980466 548.467543 
L 115.421716 558.659656 
L 119.860352 581.591911 
L 124.298989 591.217796 
L 133.176261 602.82548 
L 150.930807 609.620222 
L 168.685352 613.583822 
L 204.194443 615.848736 
L 257.45808 618.11365 
L 310.721716 618.679879 
L 417.248989 618.679879 
" clip-path="url(#p9f3d4005ba)" style="fill: none; stroke-dasharray: 3.7,1.6; stroke-dashoffset: 0; stroke: #000000"/>
    <g clip-path="url(#p9f3d4005ba)">
     <use xlink:href="#m19d0869358" x="97.66717" y="620.378564" style="stroke: #000000; stroke-linejoin: miter"/>
     <use xlink:href="#m19d0869358" x="99.664557" y="580.742568" style="stroke: #000000; stroke-linejoin: miter"/>
     <use xlink:href="#m19d0869358" x="102.105807" y="462.967037" style="stroke: #000000; stroke-linejoin: miter"/>
     <use xlink:href="#m19d0869358" x="104.103193" y="449.660667" style="stroke: #000000; stroke-linejoin: miter"/>
     <use xlink:href="#m19d0869358" x="106.544443" y="476.556522" style="stroke: #000000; stroke-linejoin: miter"/>
     <use xlink:href="#m19d0869358" x="108.54183" y="507.415976" style="stroke: #000000; stroke-linejoin: miter"/>
     <use xlink:href="#m19d0869358" x="110.98308" y="531.480688" style="stroke: #000000; stroke-linejoin: miter"/>
     <use xlink:href="#m19d0869358" x="112.980466" y="548.467543" style="stroke: #000000; stroke-linejoin: miter"/>
     <use xlink:href="#m19d0869358" x="115.421716" y="558.659656" style="stroke: #000000; stroke-linejoin: miter"/>
     <use xlink:href="#m19d0869358" x="119.860352" y="581.591911" style="stroke: #000000; stroke-linejoin: miter"/>
     <use xlink:href="#m19d0869358" x="124.298989" y="591.217796" style="stroke: #000000; stroke-linejoin: miter"/>
     <use xlink:href="#m19d0869358" x="133.176261" y="602.82548" style="stroke: #000000; stroke-linejoin: miter"/>
     <use xlink:href="#m19d0869358" x="150.930807" y="609.620222" style="stroke: #000000; stroke-linejoin: miter"/>
     <use xlink:href="#m19d0869358" x="168.685352" y="613.583822" style="stroke: #000000; stroke-linejoin: miter"/>
     <use xlink:href="#m19d0869358" x="204.194443" y="615.848736" style="stroke: #000000; stroke-linejoin: miter"/>
     <use xlink:href="#m19d0869358" x="257.45808" y="618.11365" style="stroke: #000000; stroke-linejoin: miter"/>
     <use xlink:href="#m19d0869358" x="310.721716" y="618.679879" style="stroke: #000000; stroke-linejoin: miter"/>
     <use xlink:href="#m19d0869358" x="417.248989" y="618.679879" style="stroke: #000000; stroke-linejoin: miter"/>
    </g>
   </g>
   <g id="line2d_35">
    <path d="M 97.66717 620.378564 
L 98.377352 619.759131 
L 99.087534 616.072545 
L 99.797716 609.030229 
L 101.21808 588.955815 
L 103.348625 557.336579 
L 104.768989 540.827096 
L 105.47917 534.449092 
L 106.189352 529.336752 
L 106.899534 525.438976 
L 107.609716 522.675121 
L 108.319898 520.946823 
L 109.03008 520.146682 
L 109.740261 520.164526 
L 110.450443 520.891822 
L 111.160625 522.224673 
L 111.870807 524.065761 
L 113.29117 528.922545 
L 114.711534 534.845441 
L 117.552261 548.064979 
L 120.392989 561.153058 
L 122.523534 570.094742 
L 124.65408 578.027885 
L 126.784625 584.897496 
L 128.91517 590.741979 
L 130.335534 594.111126 
L 131.755898 597.095533 
L 133.176261 599.729047 
L 134.596625 602.045514 
L 136.72717 604.996884 
L 138.857716 607.410543 
L 140.988261 609.37724 
L 143.118807 610.975352 
L 145.249352 612.271349 
L 147.379898 613.320853 
L 150.220625 614.415205 
L 153.061352 615.239523 
L 156.612261 615.989995 
L 160.16317 616.517037 
L 165.134443 617.003568 
L 171.52608 617.36517 
L 180.048261 617.605739 
L 194.96208 617.764376 
L 234.732261 617.875352 
L 452.75808 618.236839 
L 452.75808 618.236839 
" clip-path="url(#p9f3d4005ba)" style="fill: none; stroke: #d62728; stroke-width: 2; stroke-linecap: square"/>
   </g>
   <g id="line2d_36">
    <path d="M 97.66717 618.11365 
L 99.664557 613.583822 
L 102.105807 598.861881 
L 104.103193 565.171284 
L 106.544443 538.558544 
L 108.54183 530.348231 
L 110.98308 532.046916 
L 112.980466 540.25723 
L 115.421716 549.883114 
L 119.860352 566.86997 
L 124.298989 582.441254 
L 133.176261 598.578766 
L 150.930807 607.355308 
L 168.685352 612.168251 
L 204.194443 614.716279 
L 257.45808 617.547422 
L 310.721716 618.11365 
L 417.248989 618.679879 
" clip-path="url(#p9f3d4005ba)" style="fill: none; stroke-dasharray: 3.7,1.6; stroke-dashoffset: 0; stroke: #d62728"/>
    <g clip-path="url(#p9f3d4005ba)">
     <use xlink:href="#m30f2b711b9" x="97.66717" y="618.11365" style="fill: #d62728; stroke: #000000; stroke-linejoin: miter"/>
     <use xlink:href="#m30f2b711b9" x="99.664557" y="613.583822" style="fill: #d62728; stroke: #000000; stroke-linejoin: miter"/>
     <use xlink:href="#m30f2b711b9" x="102.105807" y="598.861881" style="fill: #d62728; stroke: #000000; stroke-linejoin: miter"/>
     <use xlink:href="#m30f2b711b9" x="104.103193" y="565.171284" style="fill: #d62728; stroke: #000000; stroke-linejoin: miter"/>
     <use xlink:href="#m30f2b711b9" x="106.544443" y="538.558544" style="fill: #d62728; stroke: #000000; stroke-linejoin: miter"/>
     <use xlink:href="#m30f2b711b9" x="108.54183" y="530.348231" style="fill: #d62728; stroke: #000000; stroke-linejoin: miter"/>
     <use xlink:href="#m30f2b711b9" x="110.98308" y="532.046916" style="fill: #d62728; stroke: #000000; stroke-linejoin: miter"/>
     <use xlink:href="#m30f2b711b9" x="112.980466" y="540.25723" style="fill: #d62728; stroke: #000000; stroke-linejoin: miter"/>
     <use xlink:href="#m30f2b711b9" x="115.421716" y="549.883114" style="fill: #d62728; stroke: #000000; stroke-linejoin: miter"/>
     <use xlink:href="#m30f2b711b9" x="119.860352" y="566.86997" style="fill: #d62728; stroke: #000000; stroke-linejoin: miter"/>
     <use xlink:href="#m30f2b711b9" x="124.298989" y="582.441254" style="fill: #d62728; stroke: #000000; stroke-linejoin: miter"/>
     <use xlink:href="#m30f2b711b9" x="133.176261" y="598.578766" style="fill: #d62728; stroke: #000000; stroke-linejoin: miter"/>
     <use xlink:href="#m30f2b711b9" x="150.930807" y="607.355308" style="fill: #d62728; stroke: #000000; stroke-linejoin: miter"/>
     <use xlink:href="#m30f2b711b9" x="168.685352" y="612.168251" style="fill: #d62728; stroke: #000000; stroke-linejoin: miter"/>
     <use xlink:href="#m30f2b711b9" x="204.194443" y="614.716279" style="fill: #d62728; stroke: #000000; stroke-linejoin: miter"/>
     <use xlink:href="#m30f2b711b9" x="257.45808" y="617.547422" style="fill: #d62728; stroke: #000000; stroke-linejoin: miter"/>
     <use xlink:href="#m30f2b711b9" x="310.721716" y="618.11365" style="fill: #d62728; stroke: #000000; stroke-linejoin: miter"/>
     <use xlink:href="#m30f2b711b9" x="417.248989" y="618.679879" style="fill: #d62728; stroke: #000000; stroke-linejoin: miter"/>
    </g>
   </g>
   <g id="patch_9">
    <path d="M 79.912625 633.6 
L 79.912625 392.556522 
" style="fill: none; stroke: #000000; stroke-width: 0.8; stroke-linejoin: miter; stroke-linecap: square"/>
   </g>
   <g id="patch_10">
    <path d="M 470.512625 633.6 
L 470.512625 392.556522 
" style="fill: none; stroke: #000000; stroke-width: 0.8; stroke-linejoin: miter; stroke-linecap: square"/>
   </g>
   <g id="patch_11">
    <path d="M 79.912625 633.6 
L 470.512625 633.6 
" style="fill: none; stroke: #000000; stroke-width: 0.8; stroke-linejoin: miter; stroke-linecap: square"/>
   </g>
   <g id="patch_12">
    <path d="M 79.912625 392.556522 
L 470.512625 392.556522 
" style="fill: none; stroke: #000000; stroke-width: 0.8; stroke-linejoin: miter; stroke-linecap: square"/>
   </g>
   <g id="legend_2">
    <g id="patch_13">
     <path d="M 301.261063 459.825272 
L 463.512625 459.825272 
Q 465.512625 459.825272 465.512625 457.825272 
L 465.512625 399.556522 
Q 465.512625 397.556522 463.512625 397.556522 
L 301.261063 397.556522 
Q 299.261063 397.556522 299.261063 399.556522 
L 299.261063 457.825272 
Q 299.261063 459.825272 301.261063 459.825272 
z
" style="fill: #ffffff; opacity: 0.8; stroke: #cccccc; stroke-linejoin: miter"/>
    </g>
    <g id="line2d_37">
     <path d="M 303.261063 405.654959 
L 323.261063 405.654959 
" style="fill: none; stroke: #000000; stroke-width: 2; stroke-linecap: square"/>
    </g>
    <g id="line2d_38"/>
    <g id="text_29">
     <!-- dap (fasted) -->
     <g transform="translate(331.261063 409.154959) scale(0.1 -0.1)">
      <use xlink:href="#DejaVuSans-64"/>
      <use xlink:href="#DejaVuSans-61" x="63.476562"/>
      <use xlink:href="#DejaVuSans-70" x="124.755859"/>
      <use xlink:href="#DejaVuSans-20" x="188.232422"/>
      <use xlink:href="#DejaVuSans-28" x="220.019531"/>
      <use xlink:href="#DejaVuSans-66" x="259.033203"/>
      <use xlink:href="#DejaVuSans-61" x="294.238281"/>
      <use xlink:href="#DejaVuSans-73" x="355.517578"/>
      <use xlink:href="#DejaVuSans-74" x="407.617188"/>
      <use xlink:href="#DejaVuSans-65" x="446.826172"/>
      <use xlink:href="#DejaVuSans-64" x="508.349609"/>
      <use xlink:href="#DejaVuSans-29" x="571.826172"/>
     </g>
    </g>
    <g id="LineCollection_7">
     <path d="M 313.261063 425.333084 
L 313.261063 415.333084 
" style="fill: none; stroke: #000000"/>
    </g>
    <g id="line2d_39">
     <path d="M 303.261063 420.333084 
L 323.261063 420.333084 
" style="fill: none; stroke-dasharray: 3.7,1.6; stroke-dashoffset: 0; stroke: #000000"/>
    </g>
    <g id="line2d_40">
     <g>
      <use xlink:href="#m19d0869358" x="313.261063" y="420.333084" style="stroke: #000000; stroke-linejoin: miter"/>
     </g>
    </g>
    <g id="text_30">
     <!-- fasted_DAP10±SD (n=14) -->
     <g transform="translate(331.261063 423.833084) scale(0.1 -0.1)">
      <use xlink:href="#DejaVuSans-66"/>
      <use xlink:href="#DejaVuSans-61" x="35.205078"/>
      <use xlink:href="#DejaVuSans-73" x="96.484375"/>
      <use xlink:href="#DejaVuSans-74" x="148.583984"/>
      <use xlink:href="#DejaVuSans-65" x="187.792969"/>
      <use xlink:href="#DejaVuSans-64" x="249.316406"/>
      <use xlink:href="#DejaVuSans-5f" x="312.792969"/>
      <use xlink:href="#DejaVuSans-44" x="362.792969"/>
      <use xlink:href="#DejaVuSans-41" x="438.044922"/>
      <use xlink:href="#DejaVuSans-50" x="506.453125"/>
      <use xlink:href="#DejaVuSans-31" x="566.755859"/>
      <use xlink:href="#DejaVuSans-30" x="630.378906"/>
      <use xlink:href="#DejaVuSans-b1" x="694.001953"/>
      <use xlink:href="#DejaVuSans-53" x="777.791016"/>
      <use xlink:href="#DejaVuSans-44" x="841.267578"/>
      <use xlink:href="#DejaVuSans-20" x="918.269531"/>
      <use xlink:href="#DejaVuSans-28" x="950.056641"/>
      <use xlink:href="#DejaVuSans-6e" x="989.070312"/>
      <use xlink:href="#DejaVuSans-3d" x="1052.449219"/>
      <use xlink:href="#DejaVuSans-31" x="1136.238281"/>
      <use xlink:href="#DejaVuSans-34" x="1199.861328"/>
      <use xlink:href="#DejaVuSans-29" x="1263.484375"/>
     </g>
    </g>
    <g id="line2d_41">
     <path d="M 303.261063 435.289334 
L 323.261063 435.289334 
" style="fill: none; stroke: #d62728; stroke-width: 2; stroke-linecap: square"/>
    </g>
    <g id="line2d_42"/>
    <g id="text_31">
     <!-- dap (fed) -->
     <g transform="translate(331.261063 438.789334) scale(0.1 -0.1)">
      <use xlink:href="#DejaVuSans-64"/>
      <use xlink:href="#DejaVuSans-61" x="63.476562"/>
      <use xlink:href="#DejaVuSans-70" x="124.755859"/>
      <use xlink:href="#DejaVuSans-20" x="188.232422"/>
      <use xlink:href="#DejaVuSans-28" x="220.019531"/>
      <use xlink:href="#DejaVuSans-66" x="259.033203"/>
      <use xlink:href="#DejaVuSans-65" x="294.238281"/>
      <use xlink:href="#DejaVuSans-64" x="355.761719"/>
      <use xlink:href="#DejaVuSans-29" x="419.238281"/>
     </g>
    </g>
    <g id="LineCollection_8">
     <path d="M 313.261063 454.967459 
L 313.261063 444.967459 
" style="fill: none; stroke: #d62728"/>
    </g>
    <g id="line2d_43">
     <path d="M 303.261063 449.967459 
L 323.261063 449.967459 
" style="fill: none; stroke-dasharray: 3.7,1.6; stroke-dashoffset: 0; stroke: #d62728"/>
    </g>
    <g id="line2d_44">
     <g>
      <use xlink:href="#m30f2b711b9" x="313.261063" y="449.967459" style="fill: #d62728; stroke: #000000; stroke-linejoin: miter"/>
     </g>
    </g>
    <g id="text_32">
     <!-- fed_DAP10±SD (n=14) -->
     <g transform="translate(331.261063 453.467459) scale(0.1 -0.1)">
      <use xlink:href="#DejaVuSans-66"/>
      <use xlink:href="#DejaVuSans-65" x="35.205078"/>
      <use xlink:href="#DejaVuSans-64" x="96.728516"/>
      <use xlink:href="#DejaVuSans-5f" x="160.205078"/>
      <use xlink:href="#DejaVuSans-44" x="210.205078"/>
      <use xlink:href="#DejaVuSans-41" x="285.457031"/>
      <use xlink:href="#DejaVuSans-50" x="353.865234"/>
      <use xlink:href="#DejaVuSans-31" x="414.167969"/>
      <use xlink:href="#DejaVuSans-30" x="477.791016"/>
      <use xlink:href="#DejaVuSans-b1" x="541.414062"/>
      <use xlink:href="#DejaVuSans-53" x="625.203125"/>
      <use xlink:href="#DejaVuSans-44" x="688.679688"/>
      <use xlink:href="#DejaVuSans-20" x="765.681641"/>
      <use xlink:href="#DejaVuSans-28" x="797.46875"/>
      <use xlink:href="#DejaVuSans-6e" x="836.482422"/>
      <use xlink:href="#DejaVuSans-3d" x="899.861328"/>
      <use xlink:href="#DejaVuSans-31" x="983.650391"/>
      <use xlink:href="#DejaVuSans-34" x="1047.273438"/>
      <use xlink:href="#DejaVuSans-29" x="1110.896484"/>
     </g>
    </g>
   </g>
  </g>
  <g id="text_33">
   <!-- Kasichayanula2011b -->
   <g transform="translate(123.875516 26.196094) scale(0.25 -0.25)">
    <defs>
     <path id="DejaVuSans-Bold-4b" d="M 588 4666 
L 1791 4666 
L 1791 2963 
L 3525 4666 
L 4922 4666 
L 2675 2456 
L 5153 0 
L 3647 0 
L 1791 1838 
L 1791 0 
L 588 0 
L 588 4666 
z
" transform="scale(0.015625)"/>
     <path id="DejaVuSans-Bold-79" d="M 78 3500 
L 1197 3500 
L 2138 1125 
L 2938 3500 
L 4056 3500 
L 2584 -331 
Q 2363 -916 2067 -1148 
Q 1772 -1381 1288 -1381 
L 641 -1381 
L 641 -647 
L 991 -647 
Q 1275 -647 1404 -556 
Q 1534 -466 1606 -231 
L 1638 -134 
L 78 3500 
z
" transform="scale(0.015625)"/>
     <path id="DejaVuSans-Bold-32" d="M 1844 884 
L 3897 884 
L 3897 0 
L 506 0 
L 506 884 
L 2209 2388 
Q 2438 2594 2547 2791 
Q 2656 2988 2656 3200 
Q 2656 3528 2436 3728 
Q 2216 3928 1850 3928 
Q 1569 3928 1234 3808 
Q 900 3688 519 3450 
L 519 4475 
Q 925 4609 1322 4679 
Q 1719 4750 2100 4750 
Q 2938 4750 3402 4381 
Q 3866 4013 3866 3353 
Q 3866 2972 3669 2642 
Q 3472 2313 2841 1759 
L 1844 884 
z
" transform="scale(0.015625)"/>
     <path id="DejaVuSans-Bold-30" d="M 2944 2338 
Q 2944 3213 2780 3570 
Q 2616 3928 2228 3928 
Q 1841 3928 1675 3570 
Q 1509 3213 1509 2338 
Q 1509 1453 1675 1090 
Q 1841 728 2228 728 
Q 2613 728 2778 1090 
Q 2944 1453 2944 2338 
z
M 4147 2328 
Q 4147 1169 3647 539 
Q 3147 -91 2228 -91 
Q 1306 -91 806 539 
Q 306 1169 306 2328 
Q 306 3491 806 4120 
Q 1306 4750 2228 4750 
Q 3147 4750 3647 4120 
Q 4147 3491 4147 2328 
z
" transform="scale(0.015625)"/>
     <path id="DejaVuSans-Bold-31" d="M 750 831 
L 1813 831 
L 1813 3847 
L 722 3622 
L 722 4441 
L 1806 4666 
L 2950 4666 
L 2950 831 
L 4013 831 
L 4013 0 
L 750 0 
L 750 831 
z
" transform="scale(0.015625)"/>
     <path id="DejaVuSans-Bold-62" d="M 2400 722 
Q 2759 722 2948 984 
Q 3138 1247 3138 1747 
Q 3138 2247 2948 2509 
Q 2759 2772 2400 2772 
Q 2041 2772 1848 2508 
Q 1656 2244 1656 1747 
Q 1656 1250 1848 986 
Q 2041 722 2400 722 
z
M 1656 2988 
Q 1888 3294 2169 3439 
Q 2450 3584 2816 3584 
Q 3463 3584 3878 3070 
Q 4294 2556 4294 1747 
Q 4294 938 3878 423 
Q 3463 -91 2816 -91 
Q 2450 -91 2169 54 
Q 1888 200 1656 506 
L 1656 0 
L 538 0 
L 538 4863 
L 1656 4863 
L 1656 2988 
z
" transform="scale(0.015625)"/>
    </defs>
    <use xlink:href="#DejaVuSans-Bold-4b"/>
    <use xlink:href="#DejaVuSans-Bold-61" x="77.490234"/>
    <use xlink:href="#DejaVuSans-Bold-73" x="144.970703"/>
    <use xlink:href="#DejaVuSans-Bold-69" x="204.492188"/>
    <use xlink:href="#DejaVuSans-Bold-63" x="238.769531"/>
    <use xlink:href="#DejaVuSans-Bold-68" x="298.046875"/>
    <use xlink:href="#DejaVuSans-Bold-61" x="369.238281"/>
    <use xlink:href="#DejaVuSans-Bold-79" x="433.59375"/>
    <use xlink:href="#DejaVuSans-Bold-61" x="498.779297"/>
    <use xlink:href="#DejaVuSans-Bold-6e" x="566.259766"/>
    <use xlink:href="#DejaVuSans-Bold-75" x="637.451172"/>
    <use xlink:href="#DejaVuSans-Bold-6c" x="708.642578"/>
    <use xlink:href="#DejaVuSans-Bold-61" x="742.919922"/>
    <use xlink:href="#DejaVuSans-Bold-32" x="810.400391"/>
    <use xlink:href="#DejaVuSans-Bold-30" x="879.980469"/>
    <use xlink:href="#DejaVuSans-Bold-31" x="949.560547"/>
    <use xlink:href="#DejaVuSans-Bold-31" x="1019.140625"/>
    <use xlink:href="#DejaVuSans-Bold-62" x="1088.720703"/>
   </g>
  </g>
 </g>
 <defs>
  <clipPath id="p811eec06ba">
   <rect x="79.912625" y="79.2" width="390.6" height="241.043478"/>
  </clipPath>
  <clipPath id="p9f3d4005ba">
   <rect x="79.912625" y="392.556522" width="390.6" height="241.043478"/>
  </clipPath>
 </defs>
</svg>
