<?xml version="1.0" encoding="utf-8" standalone="no"?>
<!DOCTYPE svg PUBLIC "-//W3C//DTD SVG 1.1//EN"
  "http://www.w3.org/Graphics/SVG/1.1/DTD/svg11.dtd">
<svg xmlns:xlink="http://www.w3.org/1999/xlink" width="877.735438pt" height="370.537812pt" viewBox="0 0 877.735438 370.537812" xmlns="http://www.w3.org/2000/svg" version="1.1">
 <metadata>
  <rdf:RDF xmlns:dc="http://purl.org/dc/elements/1.1/" xmlns:cc="http://creativecommons.org/ns#" xmlns:rdf="http://www.w3.org/1999/02/22-rdf-syntax-ns#">
   <cc:Work>
    <dc:type rdf:resource="http://purl.org/dc/dcmitype/StillImage"/>
    <dc:date>2025-06-10T17:07:33.125877</dc:date>
    <dc:format>image/svg+xml</dc:format>
    <dc:creator>
     <cc:Agent>
      <dc:title>Matplotlib v3.9.1, https://matplotlib.org/</dc:title>
     </cc:Agent>
    </dc:creator>
   </cc:Work>
  </rdf:RDF>
 </metadata>
 <defs>
  <style type="text/css">*{stroke-linejoin: round; stroke-linecap: butt}</style>
 </defs>
 <g id="figure_1">
  <g id="patch_1">
   <path d="M 0 370.537812 
L 877.735438 370.537812 
L 877.735438 0 
L 0 0 
z
" style="fill: #ffffff"/>
  </g>
  <g id="axes_1">
   <g id="patch_2">
    <path d="M 89.335438 320.4 
L 428.987611 320.4 
L 428.987611 43.2 
L 89.335438 43.2 
z
" style="fill: #ffffff"/>
   </g>
   <g id="matplotlib.axis_1">
    <g id="xtick_1">
     <g id="line2d_1">
      <defs>
       <path id="m2ce814df8f" d="M 0 0 
L 0 3.5 
" style="stroke: #000000; stroke-width: 0.8"/>
      </defs>
      <g>
       <use xlink:href="#m2ce814df8f" x="104.774173" y="320.4" style="stroke: #000000; stroke-width: 0.8"/>
      </g>
     </g>
     <g id="text_1">
      <!-- 0 -->
      <g transform="translate(100.002298 338.797656) scale(0.15 -0.15)">
       <defs>
        <path id="DejaVuSans-30" d="M 2034 4250 
Q 1547 4250 1301 3770 
Q 1056 3291 1056 2328 
Q 1056 1369 1301 889 
Q 1547 409 2034 409 
Q 2525 409 2770 889 
Q 3016 1369 3016 2328 
Q 3016 3291 2770 3770 
Q 2525 4250 2034 4250 
z
M 2034 4750 
Q 2819 4750 3233 4129 
Q 3647 3509 3647 2328 
Q 3647 1150 3233 529 
Q 2819 -91 2034 -91 
Q 1250 -91 836 529 
Q 422 1150 422 2328 
Q 422 3509 836 4129 
Q 1250 4750 2034 4750 
z
" transform="scale(0.015625)"/>
       </defs>
       <use xlink:href="#DejaVuSans-30"/>
      </g>
     </g>
    </g>
    <g id="xtick_2">
     <g id="line2d_2">
      <g>
       <use xlink:href="#m2ce814df8f" x="181.967849" y="320.4" style="stroke: #000000; stroke-width: 0.8"/>
      </g>
     </g>
     <g id="text_2">
      <!-- 20 -->
      <g transform="translate(172.424099 338.797656) scale(0.15 -0.15)">
       <defs>
        <path id="DejaVuSans-32" d="M 1228 531 
L 3431 531 
L 3431 0 
L 469 0 
L 469 531 
Q 828 903 1448 1529 
Q 2069 2156 2228 2338 
Q 2531 2678 2651 2914 
Q 2772 3150 2772 3378 
Q 2772 3750 2511 3984 
Q 2250 4219 1831 4219 
Q 1534 4219 1204 4116 
Q 875 4013 500 3803 
L 500 4441 
Q 881 4594 1212 4672 
Q 1544 4750 1819 4750 
Q 2544 4750 2975 4387 
Q 3406 4025 3406 3419 
Q 3406 3131 3298 2873 
Q 3191 2616 2906 2266 
Q 2828 2175 2409 1742 
Q 1991 1309 1228 531 
z
" transform="scale(0.015625)"/>
       </defs>
       <use xlink:href="#DejaVuSans-32"/>
       <use xlink:href="#DejaVuSans-30" x="63.623047"/>
      </g>
     </g>
    </g>
    <g id="xtick_3">
     <g id="line2d_3">
      <g>
       <use xlink:href="#m2ce814df8f" x="259.161524" y="320.4" style="stroke: #000000; stroke-width: 0.8"/>
      </g>
     </g>
     <g id="text_3">
      <!-- 40 -->
      <g transform="translate(249.617774 338.797656) scale(0.15 -0.15)">
       <defs>
        <path id="DejaVuSans-34" d="M 2419 4116 
L 825 1625 
L 2419 1625 
L 2419 4116 
z
M 2253 4666 
L 3047 4666 
L 3047 1625 
L 3713 1625 
L 3713 1100 
L 3047 1100 
L 3047 0 
L 2419 0 
L 2419 1100 
L 313 1100 
L 313 1709 
L 2253 4666 
z
" transform="scale(0.015625)"/>
       </defs>
       <use xlink:href="#DejaVuSans-34"/>
       <use xlink:href="#DejaVuSans-30" x="63.623047"/>
      </g>
     </g>
    </g>
    <g id="xtick_4">
     <g id="line2d_4">
      <g>
       <use xlink:href="#m2ce814df8f" x="336.3552" y="320.4" style="stroke: #000000; stroke-width: 0.8"/>
      </g>
     </g>
     <g id="text_4">
      <!-- 60 -->
      <g transform="translate(326.81145 338.797656) scale(0.15 -0.15)">
       <defs>
        <path id="DejaVuSans-36" d="M 2113 2584 
Q 1688 2584 1439 2293 
Q 1191 2003 1191 1497 
Q 1191 994 1439 701 
Q 1688 409 2113 409 
Q 2538 409 2786 701 
Q 3034 994 3034 1497 
Q 3034 2003 2786 2293 
Q 2538 2584 2113 2584 
z
M 3366 4563 
L 3366 3988 
Q 3128 4100 2886 4159 
Q 2644 4219 2406 4219 
Q 1781 4219 1451 3797 
Q 1122 3375 1075 2522 
Q 1259 2794 1537 2939 
Q 1816 3084 2150 3084 
Q 2853 3084 3261 2657 
Q 3669 2231 3669 1497 
Q 3669 778 3244 343 
Q 2819 -91 2113 -91 
Q 1303 -91 875 529 
Q 447 1150 447 2328 
Q 447 3434 972 4092 
Q 1497 4750 2381 4750 
Q 2619 4750 2861 4703 
Q 3103 4656 3366 4563 
z
" transform="scale(0.015625)"/>
       </defs>
       <use xlink:href="#DejaVuSans-36"/>
       <use xlink:href="#DejaVuSans-30" x="63.623047"/>
      </g>
     </g>
    </g>
    <g id="xtick_5">
     <g id="line2d_5">
      <g>
       <use xlink:href="#m2ce814df8f" x="413.548876" y="320.4" style="stroke: #000000; stroke-width: 0.8"/>
      </g>
     </g>
     <g id="text_5">
      <!-- 80 -->
      <g transform="translate(404.005126 338.797656) scale(0.15 -0.15)">
       <defs>
        <path id="DejaVuSans-38" d="M 2034 2216 
Q 1584 2216 1326 1975 
Q 1069 1734 1069 1313 
Q 1069 891 1326 650 
Q 1584 409 2034 409 
Q 2484 409 2743 651 
Q 3003 894 3003 1313 
Q 3003 1734 2745 1975 
Q 2488 2216 2034 2216 
z
M 1403 2484 
Q 997 2584 770 2862 
Q 544 3141 544 3541 
Q 544 4100 942 4425 
Q 1341 4750 2034 4750 
Q 2731 4750 3128 4425 
Q 3525 4100 3525 3541 
Q 3525 3141 3298 2862 
Q 3072 2584 2669 2484 
Q 3125 2378 3379 2068 
Q 3634 1759 3634 1313 
Q 3634 634 3220 271 
Q 2806 -91 2034 -91 
Q 1263 -91 848 271 
Q 434 634 434 1313 
Q 434 1759 690 2068 
Q 947 2378 1403 2484 
z
M 1172 3481 
Q 1172 3119 1398 2916 
Q 1625 2713 2034 2713 
Q 2441 2713 2670 2916 
Q 2900 3119 2900 3481 
Q 2900 3844 2670 4047 
Q 2441 4250 2034 4250 
Q 1625 4250 1398 4047 
Q 1172 3844 1172 3481 
z
" transform="scale(0.015625)"/>
       </defs>
       <use xlink:href="#DejaVuSans-38"/>
       <use xlink:href="#DejaVuSans-30" x="63.623047"/>
      </g>
     </g>
    </g>
    <g id="text_6">
     <!-- time [hr] -->
     <g transform="translate(214.086993 359.594375) scale(0.18 -0.18)">
      <defs>
       <path id="DejaVuSans-Bold-74" d="M 1759 4494 
L 1759 3500 
L 2913 3500 
L 2913 2700 
L 1759 2700 
L 1759 1216 
Q 1759 972 1856 886 
Q 1953 800 2241 800 
L 2816 800 
L 2816 0 
L 1856 0 
Q 1194 0 917 276 
Q 641 553 641 1216 
L 641 2700 
L 84 2700 
L 84 3500 
L 641 3500 
L 641 4494 
L 1759 4494 
z
" transform="scale(0.015625)"/>
       <path id="DejaVuSans-Bold-69" d="M 538 3500 
L 1656 3500 
L 1656 0 
L 538 0 
L 538 3500 
z
M 538 4863 
L 1656 4863 
L 1656 3950 
L 538 3950 
L 538 4863 
z
" transform="scale(0.015625)"/>
       <path id="DejaVuSans-Bold-6d" d="M 3781 2919 
Q 3994 3244 4286 3414 
Q 4578 3584 4928 3584 
Q 5531 3584 5847 3212 
Q 6163 2841 6163 2131 
L 6163 0 
L 5038 0 
L 5038 1825 
Q 5041 1866 5042 1909 
Q 5044 1953 5044 2034 
Q 5044 2406 4934 2573 
Q 4825 2741 4581 2741 
Q 4263 2741 4089 2478 
Q 3916 2216 3909 1719 
L 3909 0 
L 2784 0 
L 2784 1825 
Q 2784 2406 2684 2573 
Q 2584 2741 2328 2741 
Q 2006 2741 1831 2477 
Q 1656 2213 1656 1722 
L 1656 0 
L 531 0 
L 531 3500 
L 1656 3500 
L 1656 2988 
Q 1863 3284 2130 3434 
Q 2397 3584 2719 3584 
Q 3081 3584 3359 3409 
Q 3638 3234 3781 2919 
z
" transform="scale(0.015625)"/>
       <path id="DejaVuSans-Bold-65" d="M 4031 1759 
L 4031 1441 
L 1416 1441 
Q 1456 1047 1700 850 
Q 1944 653 2381 653 
Q 2734 653 3104 758 
Q 3475 863 3866 1075 
L 3866 213 
Q 3469 63 3072 -14 
Q 2675 -91 2278 -91 
Q 1328 -91 801 392 
Q 275 875 275 1747 
Q 275 2603 792 3093 
Q 1309 3584 2216 3584 
Q 3041 3584 3536 3087 
Q 4031 2591 4031 1759 
z
M 2881 2131 
Q 2881 2450 2695 2645 
Q 2509 2841 2209 2841 
Q 1884 2841 1681 2658 
Q 1478 2475 1428 2131 
L 2881 2131 
z
" transform="scale(0.015625)"/>
       <path id="DejaVuSans-Bold-20" transform="scale(0.015625)"/>
       <path id="DejaVuSans-Bold-5b" d="M 550 4863 
L 2491 4863 
L 2491 4159 
L 1613 4159 
L 1613 -141 
L 2491 -141 
L 2491 -844 
L 550 -844 
L 550 4863 
z
" transform="scale(0.015625)"/>
       <path id="DejaVuSans-Bold-68" d="M 4056 2131 
L 4056 0 
L 2931 0 
L 2931 347 
L 2931 1625 
Q 2931 2084 2911 2256 
Q 2891 2428 2841 2509 
Q 2775 2619 2662 2680 
Q 2550 2741 2406 2741 
Q 2056 2741 1856 2470 
Q 1656 2200 1656 1722 
L 1656 0 
L 538 0 
L 538 4863 
L 1656 4863 
L 1656 2988 
Q 1909 3294 2193 3439 
Q 2478 3584 2822 3584 
Q 3428 3584 3742 3212 
Q 4056 2841 4056 2131 
z
" transform="scale(0.015625)"/>
       <path id="DejaVuSans-Bold-72" d="M 3138 2547 
Q 2991 2616 2845 2648 
Q 2700 2681 2553 2681 
Q 2122 2681 1889 2404 
Q 1656 2128 1656 1613 
L 1656 0 
L 538 0 
L 538 3500 
L 1656 3500 
L 1656 2925 
Q 1872 3269 2151 3426 
Q 2431 3584 2822 3584 
Q 2878 3584 2943 3579 
Q 3009 3575 3134 3559 
L 3138 2547 
z
" transform="scale(0.015625)"/>
       <path id="DejaVuSans-Bold-5d" d="M 2375 -844 
L 434 -844 
L 434 -141 
L 1313 -141 
L 1313 4159 
L 434 4159 
L 434 4863 
L 2375 4863 
L 2375 -844 
z
" transform="scale(0.015625)"/>
      </defs>
      <use xlink:href="#DejaVuSans-Bold-74"/>
      <use xlink:href="#DejaVuSans-Bold-69" x="47.802734"/>
      <use xlink:href="#DejaVuSans-Bold-6d" x="82.080078"/>
      <use xlink:href="#DejaVuSans-Bold-65" x="186.279297"/>
      <use xlink:href="#DejaVuSans-Bold-20" x="254.101562"/>
      <use xlink:href="#DejaVuSans-Bold-5b" x="288.916016"/>
      <use xlink:href="#DejaVuSans-Bold-68" x="334.619141"/>
      <use xlink:href="#DejaVuSans-Bold-72" x="405.810547"/>
      <use xlink:href="#DejaVuSans-Bold-5d" x="455.126953"/>
     </g>
    </g>
   </g>
   <g id="matplotlib.axis_2">
    <g id="ytick_1">
     <g id="line2d_6">
      <defs>
       <path id="mac458991c6" d="M 0 0 
L -3.5 0 
" style="stroke: #000000; stroke-width: 0.8"/>
      </defs>
      <g>
       <use xlink:href="#mac458991c6" x="89.335438" y="293.882832" style="stroke: #000000; stroke-width: 0.8"/>
      </g>
     </g>
     <g id="text_7">
      <!-- 0.00 -->
      <g transform="translate(48.937 299.58166) scale(0.15 -0.15)">
       <defs>
        <path id="DejaVuSans-2e" d="M 684 794 
L 1344 794 
L 1344 0 
L 684 0 
L 684 794 
z
" transform="scale(0.015625)"/>
       </defs>
       <use xlink:href="#DejaVuSans-30"/>
       <use xlink:href="#DejaVuSans-2e" x="63.623047"/>
       <use xlink:href="#DejaVuSans-30" x="95.410156"/>
       <use xlink:href="#DejaVuSans-30" x="159.033203"/>
      </g>
     </g>
    </g>
    <g id="ytick_2">
     <g id="line2d_7">
      <g>
       <use xlink:href="#mac458991c6" x="89.335438" y="261.802832" style="stroke: #000000; stroke-width: 0.8"/>
      </g>
     </g>
     <g id="text_8">
      <!-- 0.05 -->
      <g transform="translate(48.937 267.50166) scale(0.15 -0.15)">
       <defs>
        <path id="DejaVuSans-35" d="M 691 4666 
L 3169 4666 
L 3169 4134 
L 1269 4134 
L 1269 2991 
Q 1406 3038 1543 3061 
Q 1681 3084 1819 3084 
Q 2600 3084 3056 2656 
Q 3513 2228 3513 1497 
Q 3513 744 3044 326 
Q 2575 -91 1722 -91 
Q 1428 -91 1123 -41 
Q 819 9 494 109 
L 494 744 
Q 775 591 1075 516 
Q 1375 441 1709 441 
Q 2250 441 2565 725 
Q 2881 1009 2881 1497 
Q 2881 1984 2565 2268 
Q 2250 2553 1709 2553 
Q 1456 2553 1204 2497 
Q 953 2441 691 2322 
L 691 4666 
z
" transform="scale(0.015625)"/>
       </defs>
       <use xlink:href="#DejaVuSans-30"/>
       <use xlink:href="#DejaVuSans-2e" x="63.623047"/>
       <use xlink:href="#DejaVuSans-30" x="95.410156"/>
       <use xlink:href="#DejaVuSans-35" x="159.033203"/>
      </g>
     </g>
    </g>
    <g id="ytick_3">
     <g id="line2d_8">
      <g>
       <use xlink:href="#mac458991c6" x="89.335438" y="229.722832" style="stroke: #000000; stroke-width: 0.8"/>
      </g>
     </g>
     <g id="text_9">
      <!-- 0.10 -->
      <g transform="translate(48.937 235.421661) scale(0.15 -0.15)">
       <defs>
        <path id="DejaVuSans-31" d="M 794 531 
L 1825 531 
L 1825 4091 
L 703 3866 
L 703 4441 
L 1819 4666 
L 2450 4666 
L 2450 531 
L 3481 531 
L 3481 0 
L 794 0 
L 794 531 
z
" transform="scale(0.015625)"/>
       </defs>
       <use xlink:href="#DejaVuSans-30"/>
       <use xlink:href="#DejaVuSans-2e" x="63.623047"/>
       <use xlink:href="#DejaVuSans-31" x="95.410156"/>
       <use xlink:href="#DejaVuSans-30" x="159.033203"/>
      </g>
     </g>
    </g>
    <g id="ytick_4">
     <g id="line2d_9">
      <g>
       <use xlink:href="#mac458991c6" x="89.335438" y="197.642833" style="stroke: #000000; stroke-width: 0.8"/>
      </g>
     </g>
     <g id="text_10">
      <!-- 0.15 -->
      <g transform="translate(48.937 203.341661) scale(0.15 -0.15)">
       <use xlink:href="#DejaVuSans-30"/>
       <use xlink:href="#DejaVuSans-2e" x="63.623047"/>
       <use xlink:href="#DejaVuSans-31" x="95.410156"/>
       <use xlink:href="#DejaVuSans-35" x="159.033203"/>
      </g>
     </g>
    </g>
    <g id="ytick_5">
     <g id="line2d_10">
      <g>
       <use xlink:href="#mac458991c6" x="89.335438" y="165.562833" style="stroke: #000000; stroke-width: 0.8"/>
      </g>
     </g>
     <g id="text_11">
      <!-- 0.20 -->
      <g transform="translate(48.937 171.261661) scale(0.15 -0.15)">
       <use xlink:href="#DejaVuSans-30"/>
       <use xlink:href="#DejaVuSans-2e" x="63.623047"/>
       <use xlink:href="#DejaVuSans-32" x="95.410156"/>
       <use xlink:href="#DejaVuSans-30" x="159.033203"/>
      </g>
     </g>
    </g>
    <g id="ytick_6">
     <g id="line2d_11">
      <g>
       <use xlink:href="#mac458991c6" x="89.335438" y="133.482833" style="stroke: #000000; stroke-width: 0.8"/>
      </g>
     </g>
     <g id="text_12">
      <!-- 0.25 -->
      <g transform="translate(48.937 139.181661) scale(0.15 -0.15)">
       <use xlink:href="#DejaVuSans-30"/>
       <use xlink:href="#DejaVuSans-2e" x="63.623047"/>
       <use xlink:href="#DejaVuSans-32" x="95.410156"/>
       <use xlink:href="#DejaVuSans-35" x="159.033203"/>
      </g>
     </g>
    </g>
    <g id="ytick_7">
     <g id="line2d_12">
      <g>
       <use xlink:href="#mac458991c6" x="89.335438" y="101.402834" style="stroke: #000000; stroke-width: 0.8"/>
      </g>
     </g>
     <g id="text_13">
      <!-- 0.30 -->
      <g transform="translate(48.937 107.101662) scale(0.15 -0.15)">
       <defs>
        <path id="DejaVuSans-33" d="M 2597 2516 
Q 3050 2419 3304 2112 
Q 3559 1806 3559 1356 
Q 3559 666 3084 287 
Q 2609 -91 1734 -91 
Q 1441 -91 1130 -33 
Q 819 25 488 141 
L 488 750 
Q 750 597 1062 519 
Q 1375 441 1716 441 
Q 2309 441 2620 675 
Q 2931 909 2931 1356 
Q 2931 1769 2642 2001 
Q 2353 2234 1838 2234 
L 1294 2234 
L 1294 2753 
L 1863 2753 
Q 2328 2753 2575 2939 
Q 2822 3125 2822 3475 
Q 2822 3834 2567 4026 
Q 2313 4219 1838 4219 
Q 1578 4219 1281 4162 
Q 984 4106 628 3988 
L 628 4550 
Q 988 4650 1302 4700 
Q 1616 4750 1894 4750 
Q 2613 4750 3031 4423 
Q 3450 4097 3450 3541 
Q 3450 3153 3228 2886 
Q 3006 2619 2597 2516 
z
" transform="scale(0.015625)"/>
       </defs>
       <use xlink:href="#DejaVuSans-30"/>
       <use xlink:href="#DejaVuSans-2e" x="63.623047"/>
       <use xlink:href="#DejaVuSans-33" x="95.410156"/>
       <use xlink:href="#DejaVuSans-30" x="159.033203"/>
      </g>
     </g>
    </g>
    <g id="ytick_8">
     <g id="line2d_13">
      <g>
       <use xlink:href="#mac458991c6" x="89.335438" y="69.322834" style="stroke: #000000; stroke-width: 0.8"/>
      </g>
     </g>
     <g id="text_14">
      <!-- 0.35 -->
      <g transform="translate(48.937 75.021662) scale(0.15 -0.15)">
       <use xlink:href="#DejaVuSans-30"/>
       <use xlink:href="#DejaVuSans-2e" x="63.623047"/>
       <use xlink:href="#DejaVuSans-33" x="95.410156"/>
       <use xlink:href="#DejaVuSans-35" x="159.033203"/>
      </g>
     </g>
    </g>
    <g id="text_15">
     <!-- dapagliflozin -->
     <g transform="translate(20.877188 247.357969) rotate(-90) scale(0.18 -0.18)">
      <defs>
       <path id="DejaVuSans-Bold-64" d="M 2919 2988 
L 2919 4863 
L 4044 4863 
L 4044 0 
L 2919 0 
L 2919 506 
Q 2688 197 2409 53 
Q 2131 -91 1766 -91 
Q 1119 -91 703 423 
Q 288 938 288 1747 
Q 288 2556 703 3070 
Q 1119 3584 1766 3584 
Q 2128 3584 2408 3439 
Q 2688 3294 2919 2988 
z
M 2181 722 
Q 2541 722 2730 984 
Q 2919 1247 2919 1747 
Q 2919 2247 2730 2509 
Q 2541 2772 2181 2772 
Q 1825 2772 1636 2509 
Q 1447 2247 1447 1747 
Q 1447 1247 1636 984 
Q 1825 722 2181 722 
z
" transform="scale(0.015625)"/>
       <path id="DejaVuSans-Bold-61" d="M 2106 1575 
Q 1756 1575 1579 1456 
Q 1403 1338 1403 1106 
Q 1403 894 1545 773 
Q 1688 653 1941 653 
Q 2256 653 2472 879 
Q 2688 1106 2688 1447 
L 2688 1575 
L 2106 1575 
z
M 3816 1997 
L 3816 0 
L 2688 0 
L 2688 519 
Q 2463 200 2181 54 
Q 1900 -91 1497 -91 
Q 953 -91 614 226 
Q 275 544 275 1050 
Q 275 1666 698 1953 
Q 1122 2241 2028 2241 
L 2688 2241 
L 2688 2328 
Q 2688 2594 2478 2717 
Q 2269 2841 1825 2841 
Q 1466 2841 1156 2769 
Q 847 2697 581 2553 
L 581 3406 
Q 941 3494 1303 3539 
Q 1666 3584 2028 3584 
Q 2975 3584 3395 3211 
Q 3816 2838 3816 1997 
z
" transform="scale(0.015625)"/>
       <path id="DejaVuSans-Bold-70" d="M 1656 506 
L 1656 -1331 
L 538 -1331 
L 538 3500 
L 1656 3500 
L 1656 2988 
Q 1888 3294 2169 3439 
Q 2450 3584 2816 3584 
Q 3463 3584 3878 3070 
Q 4294 2556 4294 1747 
Q 4294 938 3878 423 
Q 3463 -91 2816 -91 
Q 2450 -91 2169 54 
Q 1888 200 1656 506 
z
M 2400 2772 
Q 2041 2772 1848 2508 
Q 1656 2244 1656 1747 
Q 1656 1250 1848 986 
Q 2041 722 2400 722 
Q 2759 722 2948 984 
Q 3138 1247 3138 1747 
Q 3138 2247 2948 2509 
Q 2759 2772 2400 2772 
z
" transform="scale(0.015625)"/>
       <path id="DejaVuSans-Bold-67" d="M 2919 594 
Q 2688 288 2409 144 
Q 2131 0 1766 0 
Q 1125 0 706 504 
Q 288 1009 288 1791 
Q 288 2575 706 3076 
Q 1125 3578 1766 3578 
Q 2131 3578 2409 3434 
Q 2688 3291 2919 2981 
L 2919 3500 
L 4044 3500 
L 4044 353 
Q 4044 -491 3511 -936 
Q 2978 -1381 1966 -1381 
Q 1638 -1381 1331 -1331 
Q 1025 -1281 716 -1178 
L 716 -306 
Q 1009 -475 1290 -558 
Q 1572 -641 1856 -641 
Q 2406 -641 2662 -400 
Q 2919 -159 2919 353 
L 2919 594 
z
M 2181 2772 
Q 1834 2772 1640 2515 
Q 1447 2259 1447 1791 
Q 1447 1309 1634 1061 
Q 1822 813 2181 813 
Q 2531 813 2725 1069 
Q 2919 1325 2919 1791 
Q 2919 2259 2725 2515 
Q 2531 2772 2181 2772 
z
" transform="scale(0.015625)"/>
       <path id="DejaVuSans-Bold-6c" d="M 538 4863 
L 1656 4863 
L 1656 0 
L 538 0 
L 538 4863 
z
" transform="scale(0.015625)"/>
       <path id="DejaVuSans-Bold-66" d="M 2841 4863 
L 2841 4128 
L 2222 4128 
Q 1984 4128 1890 4042 
Q 1797 3956 1797 3744 
L 1797 3500 
L 2753 3500 
L 2753 2700 
L 1797 2700 
L 1797 0 
L 678 0 
L 678 2700 
L 122 2700 
L 122 3500 
L 678 3500 
L 678 3744 
Q 678 4316 997 4589 
Q 1316 4863 1984 4863 
L 2841 4863 
z
" transform="scale(0.015625)"/>
       <path id="DejaVuSans-Bold-6f" d="M 2203 2784 
Q 1831 2784 1636 2517 
Q 1441 2250 1441 1747 
Q 1441 1244 1636 976 
Q 1831 709 2203 709 
Q 2569 709 2762 976 
Q 2956 1244 2956 1747 
Q 2956 2250 2762 2517 
Q 2569 2784 2203 2784 
z
M 2203 3584 
Q 3106 3584 3614 3096 
Q 4122 2609 4122 1747 
Q 4122 884 3614 396 
Q 3106 -91 2203 -91 
Q 1297 -91 786 396 
Q 275 884 275 1747 
Q 275 2609 786 3096 
Q 1297 3584 2203 3584 
z
" transform="scale(0.015625)"/>
       <path id="DejaVuSans-Bold-7a" d="M 366 3500 
L 3419 3500 
L 3419 2719 
L 1575 800 
L 3419 800 
L 3419 0 
L 288 0 
L 288 781 
L 2131 2700 
L 366 2700 
L 366 3500 
z
" transform="scale(0.015625)"/>
       <path id="DejaVuSans-Bold-6e" d="M 4056 2131 
L 4056 0 
L 2931 0 
L 2931 347 
L 2931 1631 
Q 2931 2084 2911 2256 
Q 2891 2428 2841 2509 
Q 2775 2619 2662 2680 
Q 2550 2741 2406 2741 
Q 2056 2741 1856 2470 
Q 1656 2200 1656 1722 
L 1656 0 
L 538 0 
L 538 3500 
L 1656 3500 
L 1656 2988 
Q 1909 3294 2193 3439 
Q 2478 3584 2822 3584 
Q 3428 3584 3742 3212 
Q 4056 2841 4056 2131 
z
" transform="scale(0.015625)"/>
      </defs>
      <use xlink:href="#DejaVuSans-Bold-64"/>
      <use xlink:href="#DejaVuSans-Bold-61" x="71.582031"/>
      <use xlink:href="#DejaVuSans-Bold-70" x="139.0625"/>
      <use xlink:href="#DejaVuSans-Bold-61" x="210.644531"/>
      <use xlink:href="#DejaVuSans-Bold-67" x="278.125"/>
      <use xlink:href="#DejaVuSans-Bold-6c" x="349.707031"/>
      <use xlink:href="#DejaVuSans-Bold-69" x="383.984375"/>
      <use xlink:href="#DejaVuSans-Bold-66" x="418.261719"/>
      <use xlink:href="#DejaVuSans-Bold-6c" x="461.767578"/>
      <use xlink:href="#DejaVuSans-Bold-6f" x="496.044922"/>
      <use xlink:href="#DejaVuSans-Bold-7a" x="564.746094"/>
      <use xlink:href="#DejaVuSans-Bold-69" x="622.949219"/>
      <use xlink:href="#DejaVuSans-Bold-6e" x="657.226562"/>
     </g>
     <!-- plasma [µM] -->
     <g transform="translate(41.173875 245.147344) rotate(-90) scale(0.18 -0.18)">
      <defs>
       <path id="DejaVuSans-Bold-73" d="M 3272 3391 
L 3272 2541 
Q 2913 2691 2578 2766 
Q 2244 2841 1947 2841 
Q 1628 2841 1473 2761 
Q 1319 2681 1319 2516 
Q 1319 2381 1436 2309 
Q 1553 2238 1856 2203 
L 2053 2175 
Q 2913 2066 3209 1816 
Q 3506 1566 3506 1031 
Q 3506 472 3093 190 
Q 2681 -91 1863 -91 
Q 1516 -91 1145 -36 
Q 775 19 384 128 
L 384 978 
Q 719 816 1070 734 
Q 1422 653 1784 653 
Q 2113 653 2278 743 
Q 2444 834 2444 1013 
Q 2444 1163 2330 1236 
Q 2216 1309 1875 1350 
L 1678 1375 
Q 931 1469 631 1722 
Q 331 1975 331 2491 
Q 331 3047 712 3315 
Q 1094 3584 1881 3584 
Q 2191 3584 2531 3537 
Q 2872 3491 3272 3391 
z
" transform="scale(0.015625)"/>
       <path id="DejaVuSans-Bold-b5" d="M 544 -1338 
L 544 3500 
L 1672 3500 
L 1672 1466 
Q 1672 1103 1828 926 
Q 1984 750 2303 750 
Q 2625 750 2781 926 
Q 2938 1103 2938 1466 
L 2938 3500 
L 4063 3500 
L 4063 1159 
Q 4063 938 4114 850 
Q 4166 763 4288 763 
Q 4344 763 4395 778 
Q 4447 794 4506 831 
L 4506 50 
Q 4341 -22 4195 -56 
Q 4050 -91 3909 -91 
Q 3631 -91 3454 26 
Q 3278 144 3169 403 
Q 3022 156 2811 32 
Q 2600 -91 2322 -91 
Q 2091 -91 1928 -17 
Q 1766 56 1672 206 
L 1672 -1338 
L 544 -1338 
z
" transform="scale(0.015625)"/>
       <path id="DejaVuSans-Bold-4d" d="M 588 4666 
L 2119 4666 
L 3181 2169 
L 4250 4666 
L 5778 4666 
L 5778 0 
L 4641 0 
L 4641 3413 
L 3566 897 
L 2803 897 
L 1728 3413 
L 1728 0 
L 588 0 
L 588 4666 
z
" transform="scale(0.015625)"/>
      </defs>
      <use xlink:href="#DejaVuSans-Bold-70"/>
      <use xlink:href="#DejaVuSans-Bold-6c" x="71.582031"/>
      <use xlink:href="#DejaVuSans-Bold-61" x="105.859375"/>
      <use xlink:href="#DejaVuSans-Bold-73" x="173.339844"/>
      <use xlink:href="#DejaVuSans-Bold-6d" x="232.861328"/>
      <use xlink:href="#DejaVuSans-Bold-61" x="337.060547"/>
      <use xlink:href="#DejaVuSans-Bold-20" x="404.541016"/>
      <use xlink:href="#DejaVuSans-Bold-5b" x="439.355469"/>
      <use xlink:href="#DejaVuSans-Bold-b5" x="485.058594"/>
      <use xlink:href="#DejaVuSans-Bold-4d" x="558.642578"/>
      <use xlink:href="#DejaVuSans-Bold-5d" x="658.154297"/>
     </g>
    </g>
   </g>
   <g id="LineCollection_1">
    <path clip-path="url(#pca45decdb5)" style="fill: none; stroke: #000000"/>
    <path d="M 106.51103 199.671531 
L 106.51103 57.659956 
" clip-path="url(#pca45decdb5)" style="fill: none; stroke: #000000"/>
    <path d="M 108.633856 149.546612 
L 108.633856 55.8 
" clip-path="url(#pca45decdb5)" style="fill: none; stroke: #000000"/>
    <path d="M 110.180734 188.526842 
L 110.180734 125.409917 
" clip-path="url(#pca45decdb5)" style="fill: none; stroke: #000000"/>
    <path d="M 112.49354 216.833089 
L 112.49354 162.069716 
" clip-path="url(#pca45decdb5)" style="fill: none; stroke: #000000"/>
    <path d="M 114.230398 230.752063 
L 114.230398 192.695792 
" clip-path="url(#pca45decdb5)" style="fill: none; stroke: #000000"/>
    <path d="M 116.353224 241.421832 
L 116.353224 213.577865 
" clip-path="url(#pca45decdb5)" style="fill: none; stroke: #000000"/>
    <path d="M 118.090082 249.772373 
L 118.090082 221.927203 
" clip-path="url(#pca45decdb5)" style="fill: none; stroke: #000000"/>
    <path d="M 120.212908 254.874312 
L 120.212908 229.813658 
" clip-path="url(#pca45decdb5)" style="fill: none; stroke: #000000"/>
    <path d="M 124.072592 266.005759 
L 124.072592 247.442312 
" clip-path="url(#pca45decdb5)" style="fill: none; stroke: #000000"/>
    <path d="M 127.932275 272.496344 
L 127.932275 256.718618 
" clip-path="url(#pca45decdb5)" style="fill: none; stroke: #000000"/>
    <path d="M 135.651643 278.052136 
L 135.651643 265.987099 
" clip-path="url(#pca45decdb5)" style="fill: none; stroke: #000000"/>
    <path d="M 151.090378 285.451632 
L 151.090378 277.099285 
" clip-path="url(#pca45decdb5)" style="fill: none; stroke: #000000"/>
    <path d="M 166.529113 289.138439 
L 166.529113 282.642436 
" clip-path="url(#pca45decdb5)" style="fill: none; stroke: #000000"/>
    <path d="M 197.406584 290.015447 
L 197.406584 287.23093 
" clip-path="url(#pca45decdb5)" style="fill: none; stroke: #000000"/>
    <path d="M 243.722789 290.865369 
L 243.722789 289.9384 
" clip-path="url(#pca45decdb5)" style="fill: none; stroke: #000000"/>
    <path d="M 290.038995 292.644667 
L 290.038995 289.861354 
" clip-path="url(#pca45decdb5)" style="fill: none; stroke: #000000"/>
   </g>
   <g id="LineCollection_2">
    <path clip-path="url(#pca45decdb5)" style="fill: none; stroke: #d62728"/>
    <path d="M 106.51103 295.273285 
L 106.51103 259.073359 
" clip-path="url(#pca45decdb5)" style="fill: none; stroke: #d62728"/>
    <path d="M 108.633856 307.8 
L 108.633856 164.860252 
" clip-path="url(#pca45decdb5)" style="fill: none; stroke: #d62728"/>
    <path d="M 110.180734 251.641359 
L 110.180734 114.737139 
" clip-path="url(#pca45decdb5)" style="fill: none; stroke: #d62728"/>
    <path d="M 112.49354 217.297175 
L 112.49354 129.119597 
" clip-path="url(#pca45decdb5)" style="fill: none; stroke: #d62728"/>
    <path d="M 114.230398 220.542167 
L 114.230398 150.464552 
" clip-path="url(#pca45decdb5)" style="fill: none; stroke: #d62728"/>
    <path d="M 116.353224 223.787761 
L 116.353224 178.306111 
" clip-path="url(#pca45decdb5)" style="fill: none; stroke: #d62728"/>
    <path d="M 118.090082 226.103978 
L 118.090082 196.402463 
" clip-path="url(#pca45decdb5)" style="fill: none; stroke: #d62728"/>
    <path d="M 120.212908 237.239639 
L 120.212908 205.680575 
" clip-path="url(#pca45decdb5)" style="fill: none; stroke: #d62728"/>
    <path d="M 124.072592 254.867691 
L 124.072592 220.525313 
" clip-path="url(#pca45decdb5)" style="fill: none; stroke: #d62728"/>
    <path d="M 127.932275 265.072169 
L 127.932275 243.258915 
" clip-path="url(#pca45decdb5)" style="fill: none; stroke: #d62728"/>
    <path d="M 135.651643 276.661081 
L 135.651643 253.455568 
" clip-path="url(#pca45decdb5)" style="fill: none; stroke: #d62728"/>
    <path d="M 151.090378 282.203631 
L 151.090378 274.778252 
" clip-path="url(#pca45decdb5)" style="fill: none; stroke: #d62728"/>
    <path d="M 166.529113 286.355727 
L 166.529113 282.177146 
" clip-path="url(#pca45decdb5)" style="fill: none; stroke: #d62728"/>
    <path d="M 197.406584 289.087877 
L 197.406584 285.838671 
" clip-path="url(#pca45decdb5)" style="fill: none; stroke: #d62728"/>
    <path d="M 243.722789 291.794143 
L 243.722789 289.01083 
" clip-path="url(#pca45decdb5)" style="fill: none; stroke: #d62728"/>
    <path d="M 290.038995 291.717096 
L 290.038995 289.860752 
" clip-path="url(#pca45decdb5)" style="fill: none; stroke: #d62728"/>
    <path d="M 382.671406 292.026487 
L 382.671406 291.097713 
" clip-path="url(#pca45decdb5)" style="fill: none; stroke: #d62728"/>
   </g>
   <g id="line2d_14">
    <path d="M 104.774173 293.882832 
L 105.391722 255.623228 
L 106.009271 193.790012 
L 106.626821 148.454709 
L 107.24437 123.327934 
L 107.86192 113.379931 
L 108.479469 113.153146 
L 109.097019 118.606582 
L 110.332117 137.059242 
L 112.802315 177.598721 
L 114.037414 195.088897 
L 115.272513 210.264684 
L 116.507611 223.277447 
L 117.74271 234.357527 
L 118.977809 243.745888 
L 120.212908 251.670475 
L 121.448007 258.338281 
L 122.683105 263.933315 
L 123.918204 268.616971 
L 125.153303 272.529443 
L 126.388402 275.791594 
L 127.623501 278.506985 
L 128.8586 280.76389 
L 130.093698 282.637228 
L 131.328797 284.190337 
L 132.563896 285.476591 
L 134.416544 287.001703 
L 136.269192 288.147483 
L 138.121841 289.007008 
L 139.974489 289.651056 
L 142.444687 290.26534 
L 145.532434 290.76417 
L 149.23773 291.117855 
L 154.795675 291.381844 
L 163.441366 291.532178 
L 186.290694 291.625799 
L 413.548876 292.084877 
L 413.548876 292.084877 
" clip-path="url(#pca45decdb5)" style="fill: none; stroke: #000000; stroke-width: 2; stroke-linecap: square"/>
   </g>
   <g id="line2d_15">
    <path d="M 104.774173 293.882832 
L 106.51103 128.665744 
L 108.633856 102.673306 
L 110.180734 156.96838 
L 112.49354 189.451403 
L 114.230398 211.723928 
L 116.353224 227.499848 
L 118.090082 235.849788 
L 120.212908 242.343985 
L 124.072592 256.724035 
L 127.932275 264.607481 
L 135.651643 272.019618 
L 151.090378 281.275458 
L 166.529113 285.890437 
L 197.406584 288.623189 
L 243.722789 290.401885 
L 290.038995 291.25301 
" clip-path="url(#pca45decdb5)" style="fill: none; stroke-dasharray: 3.7,1.6; stroke-dashoffset: 0; stroke: #000000"/>
    <defs>
     <path id="m665126820a" d="M -3 3 
L 3 3 
L 3 -3 
L -3 -3 
z
" style="stroke: #000000; stroke-linejoin: miter"/>
    </defs>
    <g clip-path="url(#pca45decdb5)">
     <use xlink:href="#m665126820a" x="104.774173" y="293.882832" style="stroke: #000000; stroke-linejoin: miter"/>
     <use xlink:href="#m665126820a" x="106.51103" y="128.665744" style="stroke: #000000; stroke-linejoin: miter"/>
     <use xlink:href="#m665126820a" x="108.633856" y="102.673306" style="stroke: #000000; stroke-linejoin: miter"/>
     <use xlink:href="#m665126820a" x="110.180734" y="156.96838" style="stroke: #000000; stroke-linejoin: miter"/>
     <use xlink:href="#m665126820a" x="112.49354" y="189.451403" style="stroke: #000000; stroke-linejoin: miter"/>
     <use xlink:href="#m665126820a" x="114.230398" y="211.723928" style="stroke: #000000; stroke-linejoin: miter"/>
     <use xlink:href="#m665126820a" x="116.353224" y="227.499848" style="stroke: #000000; stroke-linejoin: miter"/>
     <use xlink:href="#m665126820a" x="118.090082" y="235.849788" style="stroke: #000000; stroke-linejoin: miter"/>
     <use xlink:href="#m665126820a" x="120.212908" y="242.343985" style="stroke: #000000; stroke-linejoin: miter"/>
     <use xlink:href="#m665126820a" x="124.072592" y="256.724035" style="stroke: #000000; stroke-linejoin: miter"/>
     <use xlink:href="#m665126820a" x="127.932275" y="264.607481" style="stroke: #000000; stroke-linejoin: miter"/>
     <use xlink:href="#m665126820a" x="135.651643" y="272.019618" style="stroke: #000000; stroke-linejoin: miter"/>
     <use xlink:href="#m665126820a" x="151.090378" y="281.275458" style="stroke: #000000; stroke-linejoin: miter"/>
     <use xlink:href="#m665126820a" x="166.529113" y="285.890437" style="stroke: #000000; stroke-linejoin: miter"/>
     <use xlink:href="#m665126820a" x="197.406584" y="288.623189" style="stroke: #000000; stroke-linejoin: miter"/>
     <use xlink:href="#m665126820a" x="243.722789" y="290.401885" style="stroke: #000000; stroke-linejoin: miter"/>
     <use xlink:href="#m665126820a" x="290.038995" y="291.25301" style="stroke: #000000; stroke-linejoin: miter"/>
    </g>
   </g>
   <g id="line2d_16">
    <path d="M 104.774173 293.882832 
L 105.391722 280.843333 
L 107.24437 207.022412 
L 107.86192 190.191069 
L 108.479469 177.954101 
L 109.097019 169.662912 
L 109.714568 164.641461 
L 110.332117 162.274998 
L 110.949667 162.031867 
L 111.567216 163.462303 
L 112.184766 166.190122 
L 112.802315 169.902956 
L 114.037414 179.298385 
L 116.507611 201.281694 
L 118.977809 222.480397 
L 120.830457 236.254558 
L 122.683105 247.876017 
L 123.918204 254.454982 
L 125.153303 260.167933 
L 126.388402 265.091915 
L 127.623501 269.309598 
L 128.8586 272.903451 
L 130.093698 275.952156 
L 131.328797 278.528557 
L 132.563896 280.698656 
L 133.798995 282.521297 
L 135.034094 284.048284 
L 136.269192 285.324775 
L 138.121841 286.853709 
L 139.974489 288.01473 
L 141.827137 288.893706 
L 143.679785 289.557532 
L 146.149983 290.195547 
L 149.23773 290.717853 
L 152.943026 291.091012 
L 157.883422 291.350522 
L 165.911564 291.518356 
L 184.438046 291.61424 
L 366.615121 291.993909 
L 413.548876 292.080398 
L 413.548876 292.080398 
" clip-path="url(#pca45decdb5)" style="fill: none; stroke: #d62728; stroke-width: 2; stroke-linecap: square"/>
   </g>
   <g id="line2d_17">
    <path d="M 104.774173 293.882832 
L 106.51103 277.173322 
L 108.633856 236.330126 
L 110.180734 183.189249 
L 112.49354 173.208386 
L 114.230398 185.50336 
L 116.353224 201.046936 
L 118.090082 211.25322 
L 120.212908 221.460107 
L 124.072592 237.696502 
L 127.932275 254.165542 
L 135.651643 265.058325 
L 151.090378 278.490941 
L 166.529113 284.266437 
L 197.406584 287.463274 
L 243.722789 290.402487 
L 290.038995 290.788924 
L 382.671406 291.5621 
" clip-path="url(#pca45decdb5)" style="fill: none; stroke-dasharray: 3.7,1.6; stroke-dashoffset: 0; stroke: #d62728"/>
    <defs>
     <path id="m3bc8c6e95d" d="M -3 3 
L 3 3 
L 3 -3 
L -3 -3 
z
" style="stroke: #000000; stroke-linejoin: miter"/>
    </defs>
    <g clip-path="url(#pca45decdb5)">
     <use xlink:href="#m3bc8c6e95d" x="104.774173" y="293.882832" style="fill: #d62728; stroke: #000000; stroke-linejoin: miter"/>
     <use xlink:href="#m3bc8c6e95d" x="106.51103" y="277.173322" style="fill: #d62728; stroke: #000000; stroke-linejoin: miter"/>
     <use xlink:href="#m3bc8c6e95d" x="108.633856" y="236.330126" style="fill: #d62728; stroke: #000000; stroke-linejoin: miter"/>
     <use xlink:href="#m3bc8c6e95d" x="110.180734" y="183.189249" style="fill: #d62728; stroke: #000000; stroke-linejoin: miter"/>
     <use xlink:href="#m3bc8c6e95d" x="112.49354" y="173.208386" style="fill: #d62728; stroke: #000000; stroke-linejoin: miter"/>
     <use xlink:href="#m3bc8c6e95d" x="114.230398" y="185.50336" style="fill: #d62728; stroke: #000000; stroke-linejoin: miter"/>
     <use xlink:href="#m3bc8c6e95d" x="116.353224" y="201.046936" style="fill: #d62728; stroke: #000000; stroke-linejoin: miter"/>
     <use xlink:href="#m3bc8c6e95d" x="118.090082" y="211.25322" style="fill: #d62728; stroke: #000000; stroke-linejoin: miter"/>
     <use xlink:href="#m3bc8c6e95d" x="120.212908" y="221.460107" style="fill: #d62728; stroke: #000000; stroke-linejoin: miter"/>
     <use xlink:href="#m3bc8c6e95d" x="124.072592" y="237.696502" style="fill: #d62728; stroke: #000000; stroke-linejoin: miter"/>
     <use xlink:href="#m3bc8c6e95d" x="127.932275" y="254.165542" style="fill: #d62728; stroke: #000000; stroke-linejoin: miter"/>
     <use xlink:href="#m3bc8c6e95d" x="135.651643" y="265.058325" style="fill: #d62728; stroke: #000000; stroke-linejoin: miter"/>
     <use xlink:href="#m3bc8c6e95d" x="151.090378" y="278.490941" style="fill: #d62728; stroke: #000000; stroke-linejoin: miter"/>
     <use xlink:href="#m3bc8c6e95d" x="166.529113" y="284.266437" style="fill: #d62728; stroke: #000000; stroke-linejoin: miter"/>
     <use xlink:href="#m3bc8c6e95d" x="197.406584" y="287.463274" style="fill: #d62728; stroke: #000000; stroke-linejoin: miter"/>
     <use xlink:href="#m3bc8c6e95d" x="243.722789" y="290.402487" style="fill: #d62728; stroke: #000000; stroke-linejoin: miter"/>
     <use xlink:href="#m3bc8c6e95d" x="290.038995" y="290.788924" style="fill: #d62728; stroke: #000000; stroke-linejoin: miter"/>
     <use xlink:href="#m3bc8c6e95d" x="382.671406" y="291.5621" style="fill: #d62728; stroke: #000000; stroke-linejoin: miter"/>
    </g>
   </g>
   <g id="patch_3">
    <path d="M 89.335438 320.4 
L 89.335438 43.2 
" style="fill: none; stroke: #000000; stroke-width: 0.8; stroke-linejoin: miter; stroke-linecap: square"/>
   </g>
   <g id="patch_4">
    <path d="M 428.987611 320.4 
L 428.987611 43.2 
" style="fill: none; stroke: #000000; stroke-width: 0.8; stroke-linejoin: miter; stroke-linecap: square"/>
   </g>
   <g id="patch_5">
    <path d="M 89.335438 320.4 
L 428.987611 320.4 
" style="fill: none; stroke: #000000; stroke-width: 0.8; stroke-linejoin: miter; stroke-linecap: square"/>
   </g>
   <g id="patch_6">
    <path d="M 89.335438 43.2 
L 428.987611 43.2 
" style="fill: none; stroke: #000000; stroke-width: 0.8; stroke-linejoin: miter; stroke-linecap: square"/>
   </g>
   <g id="legend_1">
    <g id="patch_7">
     <path d="M 259.736049 110.46875 
L 421.987611 110.46875 
Q 423.987611 110.46875 423.987611 108.46875 
L 423.987611 50.2 
Q 423.987611 48.2 421.987611 48.2 
L 259.736049 48.2 
Q 257.736049 48.2 257.736049 50.2 
L 257.736049 108.46875 
Q 257.736049 110.46875 259.736049 110.46875 
z
" style="fill: #ffffff; opacity: 0.8; stroke: #cccccc; stroke-linejoin: miter"/>
    </g>
    <g id="line2d_18">
     <path d="M 261.736049 56.298437 
L 281.736049 56.298437 
" style="fill: none; stroke: #000000; stroke-width: 2; stroke-linecap: square"/>
    </g>
    <g id="line2d_19"/>
    <g id="text_16">
     <!-- dap (fasted) -->
     <g transform="translate(289.736049 59.798437) scale(0.1 -0.1)">
      <defs>
       <path id="DejaVuSans-64" d="M 2906 2969 
L 2906 4863 
L 3481 4863 
L 3481 0 
L 2906 0 
L 2906 525 
Q 2725 213 2448 61 
Q 2172 -91 1784 -91 
Q 1150 -91 751 415 
Q 353 922 353 1747 
Q 353 2572 751 3078 
Q 1150 3584 1784 3584 
Q 2172 3584 2448 3432 
Q 2725 3281 2906 2969 
z
M 947 1747 
Q 947 1113 1208 752 
Q 1469 391 1925 391 
Q 2381 391 2643 752 
Q 2906 1113 2906 1747 
Q 2906 2381 2643 2742 
Q 2381 3103 1925 3103 
Q 1469 3103 1208 2742 
Q 947 2381 947 1747 
z
" transform="scale(0.015625)"/>
       <path id="DejaVuSans-61" d="M 2194 1759 
Q 1497 1759 1228 1600 
Q 959 1441 959 1056 
Q 959 750 1161 570 
Q 1363 391 1709 391 
Q 2188 391 2477 730 
Q 2766 1069 2766 1631 
L 2766 1759 
L 2194 1759 
z
M 3341 1997 
L 3341 0 
L 2766 0 
L 2766 531 
Q 2569 213 2275 61 
Q 1981 -91 1556 -91 
Q 1019 -91 701 211 
Q 384 513 384 1019 
Q 384 1609 779 1909 
Q 1175 2209 1959 2209 
L 2766 2209 
L 2766 2266 
Q 2766 2663 2505 2880 
Q 2244 3097 1772 3097 
Q 1472 3097 1187 3025 
Q 903 2953 641 2809 
L 641 3341 
Q 956 3463 1253 3523 
Q 1550 3584 1831 3584 
Q 2591 3584 2966 3190 
Q 3341 2797 3341 1997 
z
" transform="scale(0.015625)"/>
       <path id="DejaVuSans-70" d="M 1159 525 
L 1159 -1331 
L 581 -1331 
L 581 3500 
L 1159 3500 
L 1159 2969 
Q 1341 3281 1617 3432 
Q 1894 3584 2278 3584 
Q 2916 3584 3314 3078 
Q 3713 2572 3713 1747 
Q 3713 922 3314 415 
Q 2916 -91 2278 -91 
Q 1894 -91 1617 61 
Q 1341 213 1159 525 
z
M 3116 1747 
Q 3116 2381 2855 2742 
Q 2594 3103 2138 3103 
Q 1681 3103 1420 2742 
Q 1159 2381 1159 1747 
Q 1159 1113 1420 752 
Q 1681 391 2138 391 
Q 2594 391 2855 752 
Q 3116 1113 3116 1747 
z
" transform="scale(0.015625)"/>
       <path id="DejaVuSans-20" transform="scale(0.015625)"/>
       <path id="DejaVuSans-28" d="M 1984 4856 
Q 1566 4138 1362 3434 
Q 1159 2731 1159 2009 
Q 1159 1288 1364 580 
Q 1569 -128 1984 -844 
L 1484 -844 
Q 1016 -109 783 600 
Q 550 1309 550 2009 
Q 550 2706 781 3412 
Q 1013 4119 1484 4856 
L 1984 4856 
z
" transform="scale(0.015625)"/>
       <path id="DejaVuSans-66" d="M 2375 4863 
L 2375 4384 
L 1825 4384 
Q 1516 4384 1395 4259 
Q 1275 4134 1275 3809 
L 1275 3500 
L 2222 3500 
L 2222 3053 
L 1275 3053 
L 1275 0 
L 697 0 
L 697 3053 
L 147 3053 
L 147 3500 
L 697 3500 
L 697 3744 
Q 697 4328 969 4595 
Q 1241 4863 1831 4863 
L 2375 4863 
z
" transform="scale(0.015625)"/>
       <path id="DejaVuSans-73" d="M 2834 3397 
L 2834 2853 
Q 2591 2978 2328 3040 
Q 2066 3103 1784 3103 
Q 1356 3103 1142 2972 
Q 928 2841 928 2578 
Q 928 2378 1081 2264 
Q 1234 2150 1697 2047 
L 1894 2003 
Q 2506 1872 2764 1633 
Q 3022 1394 3022 966 
Q 3022 478 2636 193 
Q 2250 -91 1575 -91 
Q 1294 -91 989 -36 
Q 684 19 347 128 
L 347 722 
Q 666 556 975 473 
Q 1284 391 1588 391 
Q 1994 391 2212 530 
Q 2431 669 2431 922 
Q 2431 1156 2273 1281 
Q 2116 1406 1581 1522 
L 1381 1569 
Q 847 1681 609 1914 
Q 372 2147 372 2553 
Q 372 3047 722 3315 
Q 1072 3584 1716 3584 
Q 2034 3584 2315 3537 
Q 2597 3491 2834 3397 
z
" transform="scale(0.015625)"/>
       <path id="DejaVuSans-74" d="M 1172 4494 
L 1172 3500 
L 2356 3500 
L 2356 3053 
L 1172 3053 
L 1172 1153 
Q 1172 725 1289 603 
Q 1406 481 1766 481 
L 2356 481 
L 2356 0 
L 1766 0 
Q 1100 0 847 248 
Q 594 497 594 1153 
L 594 3053 
L 172 3053 
L 172 3500 
L 594 3500 
L 594 4494 
L 1172 4494 
z
" transform="scale(0.015625)"/>
       <path id="DejaVuSans-65" d="M 3597 1894 
L 3597 1613 
L 953 1613 
Q 991 1019 1311 708 
Q 1631 397 2203 397 
Q 2534 397 2845 478 
Q 3156 559 3463 722 
L 3463 178 
Q 3153 47 2828 -22 
Q 2503 -91 2169 -91 
Q 1331 -91 842 396 
Q 353 884 353 1716 
Q 353 2575 817 3079 
Q 1281 3584 2069 3584 
Q 2775 3584 3186 3129 
Q 3597 2675 3597 1894 
z
M 3022 2063 
Q 3016 2534 2758 2815 
Q 2500 3097 2075 3097 
Q 1594 3097 1305 2825 
Q 1016 2553 972 2059 
L 3022 2063 
z
" transform="scale(0.015625)"/>
       <path id="DejaVuSans-29" d="M 513 4856 
L 1013 4856 
Q 1481 4119 1714 3412 
Q 1947 2706 1947 2009 
Q 1947 1309 1714 600 
Q 1481 -109 1013 -844 
L 513 -844 
Q 928 -128 1133 580 
Q 1338 1288 1338 2009 
Q 1338 2731 1133 3434 
Q 928 4138 513 4856 
z
" transform="scale(0.015625)"/>
      </defs>
      <use xlink:href="#DejaVuSans-64"/>
      <use xlink:href="#DejaVuSans-61" x="63.476562"/>
      <use xlink:href="#DejaVuSans-70" x="124.755859"/>
      <use xlink:href="#DejaVuSans-20" x="188.232422"/>
      <use xlink:href="#DejaVuSans-28" x="220.019531"/>
      <use xlink:href="#DejaVuSans-66" x="259.033203"/>
      <use xlink:href="#DejaVuSans-61" x="294.238281"/>
      <use xlink:href="#DejaVuSans-73" x="355.517578"/>
      <use xlink:href="#DejaVuSans-74" x="407.617188"/>
      <use xlink:href="#DejaVuSans-65" x="446.826172"/>
      <use xlink:href="#DejaVuSans-64" x="508.349609"/>
      <use xlink:href="#DejaVuSans-29" x="571.826172"/>
     </g>
    </g>
    <g id="LineCollection_3">
     <path d="M 271.736049 75.976562 
L 271.736049 65.976562 
" style="fill: none; stroke: #000000"/>
    </g>
    <g id="line2d_20">
     <path d="M 261.736049 70.976562 
L 281.736049 70.976562 
" style="fill: none; stroke-dasharray: 3.7,1.6; stroke-dashoffset: 0; stroke: #000000"/>
    </g>
    <g id="line2d_21">
     <g>
      <use xlink:href="#m665126820a" x="271.736049" y="70.976562" style="stroke: #000000; stroke-linejoin: miter"/>
     </g>
    </g>
    <g id="text_17">
     <!-- fasted_DAP10±SD (n=14) -->
     <g transform="translate(289.736049 74.476562) scale(0.1 -0.1)">
      <defs>
       <path id="DejaVuSans-5f" d="M 3263 -1063 
L 3263 -1509 
L -63 -1509 
L -63 -1063 
L 3263 -1063 
z
" transform="scale(0.015625)"/>
       <path id="DejaVuSans-44" d="M 1259 4147 
L 1259 519 
L 2022 519 
Q 2988 519 3436 956 
Q 3884 1394 3884 2338 
Q 3884 3275 3436 3711 
Q 2988 4147 2022 4147 
L 1259 4147 
z
M 628 4666 
L 1925 4666 
Q 3281 4666 3915 4102 
Q 4550 3538 4550 2338 
Q 4550 1131 3912 565 
Q 3275 0 1925 0 
L 628 0 
L 628 4666 
z
" transform="scale(0.015625)"/>
       <path id="DejaVuSans-41" d="M 2188 4044 
L 1331 1722 
L 3047 1722 
L 2188 4044 
z
M 1831 4666 
L 2547 4666 
L 4325 0 
L 3669 0 
L 3244 1197 
L 1141 1197 
L 716 0 
L 50 0 
L 1831 4666 
z
" transform="scale(0.015625)"/>
       <path id="DejaVuSans-50" d="M 1259 4147 
L 1259 2394 
L 2053 2394 
Q 2494 2394 2734 2622 
Q 2975 2850 2975 3272 
Q 2975 3691 2734 3919 
Q 2494 4147 2053 4147 
L 1259 4147 
z
M 628 4666 
L 2053 4666 
Q 2838 4666 3239 4311 
Q 3641 3956 3641 3272 
Q 3641 2581 3239 2228 
Q 2838 1875 2053 1875 
L 1259 1875 
L 1259 0 
L 628 0 
L 628 4666 
z
" transform="scale(0.015625)"/>
       <path id="DejaVuSans-b1" d="M 2944 4013 
L 2944 2803 
L 4684 2803 
L 4684 2272 
L 2944 2272 
L 2944 1063 
L 2419 1063 
L 2419 2272 
L 678 2272 
L 678 2803 
L 2419 2803 
L 2419 4013 
L 2944 4013 
z
M 678 531 
L 4684 531 
L 4684 0 
L 678 0 
L 678 531 
z
" transform="scale(0.015625)"/>
       <path id="DejaVuSans-53" d="M 3425 4513 
L 3425 3897 
Q 3066 4069 2747 4153 
Q 2428 4238 2131 4238 
Q 1616 4238 1336 4038 
Q 1056 3838 1056 3469 
Q 1056 3159 1242 3001 
Q 1428 2844 1947 2747 
L 2328 2669 
Q 3034 2534 3370 2195 
Q 3706 1856 3706 1288 
Q 3706 609 3251 259 
Q 2797 -91 1919 -91 
Q 1588 -91 1214 -16 
Q 841 59 441 206 
L 441 856 
Q 825 641 1194 531 
Q 1563 422 1919 422 
Q 2459 422 2753 634 
Q 3047 847 3047 1241 
Q 3047 1584 2836 1778 
Q 2625 1972 2144 2069 
L 1759 2144 
Q 1053 2284 737 2584 
Q 422 2884 422 3419 
Q 422 4038 858 4394 
Q 1294 4750 2059 4750 
Q 2388 4750 2728 4690 
Q 3069 4631 3425 4513 
z
" transform="scale(0.015625)"/>
       <path id="DejaVuSans-6e" d="M 3513 2113 
L 3513 0 
L 2938 0 
L 2938 2094 
Q 2938 2591 2744 2837 
Q 2550 3084 2163 3084 
Q 1697 3084 1428 2787 
Q 1159 2491 1159 1978 
L 1159 0 
L 581 0 
L 581 3500 
L 1159 3500 
L 1159 2956 
Q 1366 3272 1645 3428 
Q 1925 3584 2291 3584 
Q 2894 3584 3203 3211 
Q 3513 2838 3513 2113 
z
" transform="scale(0.015625)"/>
       <path id="DejaVuSans-3d" d="M 678 2906 
L 4684 2906 
L 4684 2381 
L 678 2381 
L 678 2906 
z
M 678 1631 
L 4684 1631 
L 4684 1100 
L 678 1100 
L 678 1631 
z
" transform="scale(0.015625)"/>
      </defs>
      <use xlink:href="#DejaVuSans-66"/>
      <use xlink:href="#DejaVuSans-61" x="35.205078"/>
      <use xlink:href="#DejaVuSans-73" x="96.484375"/>
      <use xlink:href="#DejaVuSans-74" x="148.583984"/>
      <use xlink:href="#DejaVuSans-65" x="187.792969"/>
      <use xlink:href="#DejaVuSans-64" x="249.316406"/>
      <use xlink:href="#DejaVuSans-5f" x="312.792969"/>
      <use xlink:href="#DejaVuSans-44" x="362.792969"/>
      <use xlink:href="#DejaVuSans-41" x="438.044922"/>
      <use xlink:href="#DejaVuSans-50" x="506.453125"/>
      <use xlink:href="#DejaVuSans-31" x="566.755859"/>
      <use xlink:href="#DejaVuSans-30" x="630.378906"/>
      <use xlink:href="#DejaVuSans-b1" x="694.001953"/>
      <use xlink:href="#DejaVuSans-53" x="777.791016"/>
      <use xlink:href="#DejaVuSans-44" x="841.267578"/>
      <use xlink:href="#DejaVuSans-20" x="918.269531"/>
      <use xlink:href="#DejaVuSans-28" x="950.056641"/>
      <use xlink:href="#DejaVuSans-6e" x="989.070312"/>
      <use xlink:href="#DejaVuSans-3d" x="1052.449219"/>
      <use xlink:href="#DejaVuSans-31" x="1136.238281"/>
      <use xlink:href="#DejaVuSans-34" x="1199.861328"/>
      <use xlink:href="#DejaVuSans-29" x="1263.484375"/>
     </g>
    </g>
    <g id="line2d_22">
     <path d="M 261.736049 85.932812 
L 281.736049 85.932812 
" style="fill: none; stroke: #d62728; stroke-width: 2; stroke-linecap: square"/>
    </g>
    <g id="line2d_23"/>
    <g id="text_18">
     <!-- dap (fed) -->
     <g transform="translate(289.736049 89.432812) scale(0.1 -0.1)">
      <use xlink:href="#DejaVuSans-64"/>
      <use xlink:href="#DejaVuSans-61" x="63.476562"/>
      <use xlink:href="#DejaVuSans-70" x="124.755859"/>
      <use xlink:href="#DejaVuSans-20" x="188.232422"/>
      <use xlink:href="#DejaVuSans-28" x="220.019531"/>
      <use xlink:href="#DejaVuSans-66" x="259.033203"/>
      <use xlink:href="#DejaVuSans-65" x="294.238281"/>
      <use xlink:href="#DejaVuSans-64" x="355.761719"/>
      <use xlink:href="#DejaVuSans-29" x="419.238281"/>
     </g>
    </g>
    <g id="LineCollection_4">
     <path d="M 271.736049 105.610937 
L 271.736049 95.610937 
" style="fill: none; stroke: #d62728"/>
    </g>
    <g id="line2d_24">
     <path d="M 261.736049 100.610937 
L 281.736049 100.610937 
" style="fill: none; stroke-dasharray: 3.7,1.6; stroke-dashoffset: 0; stroke: #d62728"/>
    </g>
    <g id="line2d_25">
     <g>
      <use xlink:href="#m3bc8c6e95d" x="271.736049" y="100.610937" style="fill: #d62728; stroke: #000000; stroke-linejoin: miter"/>
     </g>
    </g>
    <g id="text_19">
     <!-- fed_DAP10±SD (n=14) -->
     <g transform="translate(289.736049 104.110937) scale(0.1 -0.1)">
      <use xlink:href="#DejaVuSans-66"/>
      <use xlink:href="#DejaVuSans-65" x="35.205078"/>
      <use xlink:href="#DejaVuSans-64" x="96.728516"/>
      <use xlink:href="#DejaVuSans-5f" x="160.205078"/>
      <use xlink:href="#DejaVuSans-44" x="210.205078"/>
      <use xlink:href="#DejaVuSans-41" x="285.457031"/>
      <use xlink:href="#DejaVuSans-50" x="353.865234"/>
      <use xlink:href="#DejaVuSans-31" x="414.167969"/>
      <use xlink:href="#DejaVuSans-30" x="477.791016"/>
      <use xlink:href="#DejaVuSans-b1" x="541.414062"/>
      <use xlink:href="#DejaVuSans-53" x="625.203125"/>
      <use xlink:href="#DejaVuSans-44" x="688.679688"/>
      <use xlink:href="#DejaVuSans-20" x="765.681641"/>
      <use xlink:href="#DejaVuSans-28" x="797.46875"/>
      <use xlink:href="#DejaVuSans-6e" x="836.482422"/>
      <use xlink:href="#DejaVuSans-3d" x="899.861328"/>
      <use xlink:href="#DejaVuSans-31" x="983.650391"/>
      <use xlink:href="#DejaVuSans-34" x="1047.273438"/>
      <use xlink:href="#DejaVuSans-29" x="1110.896484"/>
     </g>
    </g>
   </g>
  </g>
  <g id="axes_2">
   <g id="patch_8">
    <path d="M 530.883264 320.4 
L 870.535438 320.4 
L 870.535438 43.2 
L 530.883264 43.2 
z
" style="fill: #ffffff"/>
   </g>
   <g id="matplotlib.axis_3">
    <g id="xtick_6">
     <g id="line2d_26">
      <g>
       <use xlink:href="#m2ce814df8f" x="546.321999" y="320.4" style="stroke: #000000; stroke-width: 0.8"/>
      </g>
     </g>
     <g id="text_20">
      <!-- 0 -->
      <g transform="translate(541.550124 338.797656) scale(0.15 -0.15)">
       <use xlink:href="#DejaVuSans-30"/>
      </g>
     </g>
    </g>
    <g id="xtick_7">
     <g id="line2d_27">
      <g>
       <use xlink:href="#m2ce814df8f" x="623.515675" y="320.4" style="stroke: #000000; stroke-width: 0.8"/>
      </g>
     </g>
     <g id="text_21">
      <!-- 20 -->
      <g transform="translate(613.971925 338.797656) scale(0.15 -0.15)">
       <use xlink:href="#DejaVuSans-32"/>
       <use xlink:href="#DejaVuSans-30" x="63.623047"/>
      </g>
     </g>
    </g>
    <g id="xtick_8">
     <g id="line2d_28">
      <g>
       <use xlink:href="#m2ce814df8f" x="700.709351" y="320.4" style="stroke: #000000; stroke-width: 0.8"/>
      </g>
     </g>
     <g id="text_22">
      <!-- 40 -->
      <g transform="translate(691.165601 338.797656) scale(0.15 -0.15)">
       <use xlink:href="#DejaVuSans-34"/>
       <use xlink:href="#DejaVuSans-30" x="63.623047"/>
      </g>
     </g>
    </g>
    <g id="xtick_9">
     <g id="line2d_29">
      <g>
       <use xlink:href="#m2ce814df8f" x="777.903026" y="320.4" style="stroke: #000000; stroke-width: 0.8"/>
      </g>
     </g>
     <g id="text_23">
      <!-- 60 -->
      <g transform="translate(768.359276 338.797656) scale(0.15 -0.15)">
       <use xlink:href="#DejaVuSans-36"/>
       <use xlink:href="#DejaVuSans-30" x="63.623047"/>
      </g>
     </g>
    </g>
    <g id="xtick_10">
     <g id="line2d_30">
      <g>
       <use xlink:href="#m2ce814df8f" x="855.096702" y="320.4" style="stroke: #000000; stroke-width: 0.8"/>
      </g>
     </g>
     <g id="text_24">
      <!-- 80 -->
      <g transform="translate(845.552952 338.797656) scale(0.15 -0.15)">
       <use xlink:href="#DejaVuSans-38"/>
       <use xlink:href="#DejaVuSans-30" x="63.623047"/>
      </g>
     </g>
    </g>
    <g id="text_25">
     <!-- time [hr] -->
     <g transform="translate(655.634819 359.594375) scale(0.18 -0.18)">
      <use xlink:href="#DejaVuSans-Bold-74"/>
      <use xlink:href="#DejaVuSans-Bold-69" x="47.802734"/>
      <use xlink:href="#DejaVuSans-Bold-6d" x="82.080078"/>
      <use xlink:href="#DejaVuSans-Bold-65" x="186.279297"/>
      <use xlink:href="#DejaVuSans-Bold-20" x="254.101562"/>
      <use xlink:href="#DejaVuSans-Bold-5b" x="288.916016"/>
      <use xlink:href="#DejaVuSans-Bold-68" x="334.619141"/>
      <use xlink:href="#DejaVuSans-Bold-72" x="405.810547"/>
      <use xlink:href="#DejaVuSans-Bold-5d" x="455.126953"/>
     </g>
    </g>
   </g>
   <g id="matplotlib.axis_4">
    <g id="ytick_9">
     <g id="line2d_31">
      <g>
       <use xlink:href="#mac458991c6" x="530.883264" y="305.195349" style="stroke: #000000; stroke-width: 0.8"/>
      </g>
     </g>
     <g id="text_26">
      <!-- 0.0 -->
      <g transform="translate(500.028576 310.894177) scale(0.15 -0.15)">
       <use xlink:href="#DejaVuSans-30"/>
       <use xlink:href="#DejaVuSans-2e" x="63.623047"/>
       <use xlink:href="#DejaVuSans-30" x="95.410156"/>
      </g>
     </g>
    </g>
    <g id="ytick_10">
     <g id="line2d_32">
      <g>
       <use xlink:href="#mac458991c6" x="530.883264" y="253.896744" style="stroke: #000000; stroke-width: 0.8"/>
      </g>
     </g>
     <g id="text_27">
      <!-- 0.1 -->
      <g transform="translate(500.028576 259.595572) scale(0.15 -0.15)">
       <use xlink:href="#DejaVuSans-30"/>
       <use xlink:href="#DejaVuSans-2e" x="63.623047"/>
       <use xlink:href="#DejaVuSans-31" x="95.410156"/>
      </g>
     </g>
    </g>
    <g id="ytick_11">
     <g id="line2d_33">
      <g>
       <use xlink:href="#mac458991c6" x="530.883264" y="202.59814" style="stroke: #000000; stroke-width: 0.8"/>
      </g>
     </g>
     <g id="text_28">
      <!-- 0.2 -->
      <g transform="translate(500.028576 208.296968) scale(0.15 -0.15)">
       <use xlink:href="#DejaVuSans-30"/>
       <use xlink:href="#DejaVuSans-2e" x="63.623047"/>
       <use xlink:href="#DejaVuSans-32" x="95.410156"/>
      </g>
     </g>
    </g>
    <g id="ytick_12">
     <g id="line2d_34">
      <g>
       <use xlink:href="#mac458991c6" x="530.883264" y="151.299535" style="stroke: #000000; stroke-width: 0.8"/>
      </g>
     </g>
     <g id="text_29">
      <!-- 0.3 -->
      <g transform="translate(500.028576 156.998363) scale(0.15 -0.15)">
       <use xlink:href="#DejaVuSans-30"/>
       <use xlink:href="#DejaVuSans-2e" x="63.623047"/>
       <use xlink:href="#DejaVuSans-33" x="95.410156"/>
      </g>
     </g>
    </g>
    <g id="ytick_13">
     <g id="line2d_35">
      <g>
       <use xlink:href="#mac458991c6" x="530.883264" y="100.00093" style="stroke: #000000; stroke-width: 0.8"/>
      </g>
     </g>
     <g id="text_30">
      <!-- 0.4 -->
      <g transform="translate(500.028576 105.699758) scale(0.15 -0.15)">
       <use xlink:href="#DejaVuSans-30"/>
       <use xlink:href="#DejaVuSans-2e" x="63.623047"/>
       <use xlink:href="#DejaVuSans-34" x="95.410156"/>
      </g>
     </g>
    </g>
    <g id="ytick_14">
     <g id="line2d_36">
      <g>
       <use xlink:href="#mac458991c6" x="530.883264" y="48.702326" style="stroke: #000000; stroke-width: 0.8"/>
      </g>
     </g>
     <g id="text_31">
      <!-- 0.5 -->
      <g transform="translate(500.028576 54.401154) scale(0.15 -0.15)">
       <use xlink:href="#DejaVuSans-30"/>
       <use xlink:href="#DejaVuSans-2e" x="63.623047"/>
       <use xlink:href="#DejaVuSans-35" x="95.410156"/>
      </g>
     </g>
    </g>
    <g id="text_32">
     <!-- dapagliflozin-3-O- -->
     <g transform="translate(471.847826 272.645156) rotate(-90) scale(0.18 -0.18)">
      <defs>
       <path id="DejaVuSans-Bold-2d" d="M 347 2297 
L 2309 2297 
L 2309 1388 
L 347 1388 
L 347 2297 
z
" transform="scale(0.015625)"/>
       <path id="DejaVuSans-Bold-33" d="M 2981 2516 
Q 3453 2394 3698 2092 
Q 3944 1791 3944 1325 
Q 3944 631 3412 270 
Q 2881 -91 1863 -91 
Q 1503 -91 1142 -33 
Q 781 25 428 141 
L 428 1069 
Q 766 900 1098 814 
Q 1431 728 1753 728 
Q 2231 728 2486 893 
Q 2741 1059 2741 1369 
Q 2741 1688 2480 1852 
Q 2219 2016 1709 2016 
L 1228 2016 
L 1228 2791 
L 1734 2791 
Q 2188 2791 2409 2933 
Q 2631 3075 2631 3366 
Q 2631 3634 2415 3781 
Q 2200 3928 1806 3928 
Q 1516 3928 1219 3862 
Q 922 3797 628 3669 
L 628 4550 
Q 984 4650 1334 4700 
Q 1684 4750 2022 4750 
Q 2931 4750 3382 4451 
Q 3834 4153 3834 3553 
Q 3834 3144 3618 2883 
Q 3403 2622 2981 2516 
z
" transform="scale(0.015625)"/>
       <path id="DejaVuSans-Bold-4f" d="M 2719 3878 
Q 2169 3878 1866 3472 
Q 1563 3066 1563 2328 
Q 1563 1594 1866 1187 
Q 2169 781 2719 781 
Q 3272 781 3575 1187 
Q 3878 1594 3878 2328 
Q 3878 3066 3575 3472 
Q 3272 3878 2719 3878 
z
M 2719 4750 
Q 3844 4750 4481 4106 
Q 5119 3463 5119 2328 
Q 5119 1197 4481 553 
Q 3844 -91 2719 -91 
Q 1597 -91 958 553 
Q 319 1197 319 2328 
Q 319 3463 958 4106 
Q 1597 4750 2719 4750 
z
" transform="scale(0.015625)"/>
      </defs>
      <use xlink:href="#DejaVuSans-Bold-64"/>
      <use xlink:href="#DejaVuSans-Bold-61" x="71.582031"/>
      <use xlink:href="#DejaVuSans-Bold-70" x="139.0625"/>
      <use xlink:href="#DejaVuSans-Bold-61" x="210.644531"/>
      <use xlink:href="#DejaVuSans-Bold-67" x="278.125"/>
      <use xlink:href="#DejaVuSans-Bold-6c" x="349.707031"/>
      <use xlink:href="#DejaVuSans-Bold-69" x="383.984375"/>
      <use xlink:href="#DejaVuSans-Bold-66" x="418.261719"/>
      <use xlink:href="#DejaVuSans-Bold-6c" x="461.767578"/>
      <use xlink:href="#DejaVuSans-Bold-6f" x="496.044922"/>
      <use xlink:href="#DejaVuSans-Bold-7a" x="564.746094"/>
      <use xlink:href="#DejaVuSans-Bold-69" x="622.949219"/>
      <use xlink:href="#DejaVuSans-Bold-6e" x="657.226562"/>
      <use xlink:href="#DejaVuSans-Bold-2d" x="728.417969"/>
      <use xlink:href="#DejaVuSans-Bold-33" x="769.921875"/>
      <use xlink:href="#DejaVuSans-Bold-2d" x="839.501953"/>
      <use xlink:href="#DejaVuSans-Bold-4f" x="881.005859"/>
      <use xlink:href="#DejaVuSans-Bold-2d" x="967.890625"/>
     </g>
     <!-- glucuronide plasma [µM] -->
     <g transform="translate(492.144514 308.617031) rotate(-90) scale(0.18 -0.18)">
      <defs>
       <path id="DejaVuSans-Bold-75" d="M 500 1363 
L 500 3500 
L 1625 3500 
L 1625 3150 
Q 1625 2866 1622 2436 
Q 1619 2006 1619 1863 
Q 1619 1441 1641 1255 
Q 1663 1069 1716 984 
Q 1784 875 1895 815 
Q 2006 756 2150 756 
Q 2500 756 2700 1025 
Q 2900 1294 2900 1772 
L 2900 3500 
L 4019 3500 
L 4019 0 
L 2900 0 
L 2900 506 
Q 2647 200 2364 54 
Q 2081 -91 1741 -91 
Q 1134 -91 817 281 
Q 500 653 500 1363 
z
" transform="scale(0.015625)"/>
       <path id="DejaVuSans-Bold-63" d="M 3366 3391 
L 3366 2478 
Q 3138 2634 2908 2709 
Q 2678 2784 2431 2784 
Q 1963 2784 1702 2511 
Q 1441 2238 1441 1747 
Q 1441 1256 1702 982 
Q 1963 709 2431 709 
Q 2694 709 2930 787 
Q 3166 866 3366 1019 
L 3366 103 
Q 3103 6 2833 -42 
Q 2563 -91 2291 -91 
Q 1344 -91 809 395 
Q 275 881 275 1747 
Q 275 2613 809 3098 
Q 1344 3584 2291 3584 
Q 2566 3584 2833 3536 
Q 3100 3488 3366 3391 
z
" transform="scale(0.015625)"/>
      </defs>
      <use xlink:href="#DejaVuSans-Bold-67"/>
      <use xlink:href="#DejaVuSans-Bold-6c" x="71.582031"/>
      <use xlink:href="#DejaVuSans-Bold-75" x="105.859375"/>
      <use xlink:href="#DejaVuSans-Bold-63" x="177.050781"/>
      <use xlink:href="#DejaVuSans-Bold-75" x="236.328125"/>
      <use xlink:href="#DejaVuSans-Bold-72" x="307.519531"/>
      <use xlink:href="#DejaVuSans-Bold-6f" x="356.835938"/>
      <use xlink:href="#DejaVuSans-Bold-6e" x="425.537109"/>
      <use xlink:href="#DejaVuSans-Bold-69" x="496.728516"/>
      <use xlink:href="#DejaVuSans-Bold-64" x="531.005859"/>
      <use xlink:href="#DejaVuSans-Bold-65" x="602.587891"/>
      <use xlink:href="#DejaVuSans-Bold-20" x="670.410156"/>
      <use xlink:href="#DejaVuSans-Bold-70" x="705.224609"/>
      <use xlink:href="#DejaVuSans-Bold-6c" x="776.806641"/>
      <use xlink:href="#DejaVuSans-Bold-61" x="811.083984"/>
      <use xlink:href="#DejaVuSans-Bold-73" x="878.564453"/>
      <use xlink:href="#DejaVuSans-Bold-6d" x="938.085938"/>
      <use xlink:href="#DejaVuSans-Bold-61" x="1042.285156"/>
      <use xlink:href="#DejaVuSans-Bold-20" x="1109.765625"/>
      <use xlink:href="#DejaVuSans-Bold-5b" x="1144.580078"/>
      <use xlink:href="#DejaVuSans-Bold-b5" x="1190.283203"/>
      <use xlink:href="#DejaVuSans-Bold-4d" x="1263.867188"/>
      <use xlink:href="#DejaVuSans-Bold-5d" x="1363.378906"/>
     </g>
    </g>
   </g>
   <g id="LineCollection_5">
    <path clip-path="url(#p11d705a67a)" style="fill: none; stroke: #000000"/>
    <path d="M 548.058856 295.427907 
L 548.058856 223.8 
" clip-path="url(#p11d705a67a)" style="fill: none; stroke: #000000"/>
    <path d="M 550.181683 183.427907 
L 550.181683 64.916279 
" clip-path="url(#p11d705a67a)" style="fill: none; stroke: #000000"/>
    <path d="M 551.91854 161.939535 
L 551.91854 55.8 
" clip-path="url(#p11d705a67a)" style="fill: none; stroke: #000000"/>
    <path d="M 554.041366 189.288372 
L 554.041366 90.311628 
" clip-path="url(#p11d705a67a)" style="fill: none; stroke: #000000"/>
    <path d="M 555.778224 214.683721 
L 555.778224 135.893023 
" clip-path="url(#p11d705a67a)" style="fill: none; stroke: #000000"/>
    <path d="M 557.90105 234.218605 
L 557.90105 171.706977 
" clip-path="url(#p11d705a67a)" style="fill: none; stroke: #000000"/>
    <path d="M 559.637908 247.893023 
L 559.637908 197.102326 
" clip-path="url(#p11d705a67a)" style="fill: none; stroke: #000000"/>
    <path d="M 561.760734 256.35814 
L 561.760734 212.07907 
" clip-path="url(#p11d705a67a)" style="fill: none; stroke: #000000"/>
    <path d="M 565.620418 276.544186 
L 565.620418 244.637209 
" clip-path="url(#p11d705a67a)" style="fill: none; stroke: #000000"/>
    <path d="M 569.480102 282.404651 
L 569.480102 260.916279 
" clip-path="url(#p11d705a67a)" style="fill: none; stroke: #000000"/>
    <path d="M 577.199469 290.218605 
L 577.199469 279.8 
" clip-path="url(#p11d705a67a)" style="fill: none; stroke: #000000"/>
    <path d="M 592.638204 297.381395 
L 592.638204 288.265116 
" clip-path="url(#p11d705a67a)" style="fill: none; stroke: #000000"/>
    <path d="M 608.076939 300.637209 
L 608.076939 294.125581 
" clip-path="url(#p11d705a67a)" style="fill: none; stroke: #000000"/>
    <path d="M 638.95441 301.939535 
L 638.95441 298.032558 
" clip-path="url(#p11d705a67a)" style="fill: none; stroke: #000000"/>
    <path d="M 685.270615 303.893023 
L 685.270615 301.288372 
" clip-path="url(#p11d705a67a)" style="fill: none; stroke: #000000"/>
    <path d="M 731.586821 304.544186 
L 731.586821 301.939535 
" clip-path="url(#p11d705a67a)" style="fill: none; stroke: #000000"/>
    <path d="M 824.219232 303.893023 
L 824.219232 302.590698 
" clip-path="url(#p11d705a67a)" style="fill: none; stroke: #000000"/>
   </g>
   <g id="LineCollection_6">
    <path clip-path="url(#p11d705a67a)" style="fill: none; stroke: #d62728"/>
    <path d="M 548.058856 302.590698 
L 548.058856 292.172093 
" clip-path="url(#p11d705a67a)" style="fill: none; stroke: #d62728"/>
    <path d="M 550.181683 307.8 
L 550.181683 253.102326 
" clip-path="url(#p11d705a67a)" style="fill: none; stroke: #d62728"/>
    <path d="M 551.91854 289.567442 
L 551.91854 193.846512 
" clip-path="url(#p11d705a67a)" style="fill: none; stroke: #d62728"/>
    <path d="M 554.041366 264.172093 
L 554.041366 158.032558 
" clip-path="url(#p11d705a67a)" style="fill: none; stroke: #d62728"/>
    <path d="M 555.778224 253.102326 
L 555.778224 150.218605 
" clip-path="url(#p11d705a67a)" style="fill: none; stroke: #d62728"/>
    <path d="M 557.90105 250.497674 
L 557.90105 156.730233 
" clip-path="url(#p11d705a67a)" style="fill: none; stroke: #d62728"/>
    <path d="M 559.637908 249.846512 
L 559.637908 176.265116 
" clip-path="url(#p11d705a67a)" style="fill: none; stroke: #d62728"/>
    <path d="M 561.760734 251.8 
L 561.760734 196.451163 
" clip-path="url(#p11d705a67a)" style="fill: none; stroke: #d62728"/>
    <path d="M 565.620418 265.474419 
L 565.620418 221.846512 
" clip-path="url(#p11d705a67a)" style="fill: none; stroke: #d62728"/>
    <path d="M 569.480102 275.893023 
L 569.480102 247.24186 
" clip-path="url(#p11d705a67a)" style="fill: none; stroke: #d62728"/>
    <path d="M 577.199469 291.52093 
L 577.199469 268.730233 
" clip-path="url(#p11d705a67a)" style="fill: none; stroke: #d62728"/>
    <path d="M 592.638204 293.474419 
L 592.638204 286.962791 
" clip-path="url(#p11d705a67a)" style="fill: none; stroke: #d62728"/>
    <path d="M 608.076939 298.032558 
L 608.076939 293.474419 
" clip-path="url(#p11d705a67a)" style="fill: none; stroke: #d62728"/>
    <path d="M 638.95441 299.986047 
L 638.95441 297.381395 
" clip-path="url(#p11d705a67a)" style="fill: none; stroke: #d62728"/>
    <path d="M 685.270615 302.590698 
L 685.270615 301.288372 
" clip-path="url(#p11d705a67a)" style="fill: none; stroke: #d62728"/>
    <path d="M 731.586821 303.24186 
L 731.586821 301.939535 
" clip-path="url(#p11d705a67a)" style="fill: none; stroke: #d62728"/>
    <path d="M 824.219232 303.893023 
L 824.219232 302.590698 
" clip-path="url(#p11d705a67a)" style="fill: none; stroke: #d62728"/>
   </g>
   <g id="line2d_37">
    <path d="M 546.321999 305.195349 
L 546.939548 302.025005 
L 547.557098 288.01845 
L 548.792196 241.130829 
L 550.027295 196.945936 
L 550.644845 180.581559 
L 551.262394 168.418891 
L 551.879943 160.148311 
L 552.497493 155.279915 
L 553.115042 153.272012 
L 553.732592 153.598975 
L 554.350141 155.783392 
L 554.96769 159.408225 
L 556.202789 169.616703 
L 558.055438 188.613254 
L 561.143185 220.605646 
L 562.995833 237.164075 
L 564.848481 251.118617 
L 566.08358 258.998925 
L 567.318679 265.825052 
L 568.553777 271.692701 
L 569.788876 276.704738 
L 571.023975 280.963536 
L 572.259074 284.566378 
L 573.494173 287.602912 
L 574.729271 290.153972 
L 575.96437 292.291271 
L 577.199469 294.077649 
L 578.434568 295.567627 
L 579.669667 296.80814 
L 581.522315 298.287309 
L 583.374963 299.40508 
L 585.227611 300.247718 
L 587.08026 300.881746 
L 589.550457 301.488918 
L 592.638204 301.984105 
L 596.343501 302.336728 
L 601.901445 302.601177 
L 610.547137 302.752786 
L 633.396465 302.84878 
L 855.096702 303.315639 
L 855.096702 303.315639 
" clip-path="url(#p11d705a67a)" style="fill: none; stroke: #000000; stroke-width: 2; stroke-linecap: square"/>
   </g>
   <g id="line2d_38">
    <path d="M 546.321999 305.195349 
L 548.058856 259.613953 
L 550.181683 124.172093 
L 551.91854 108.869767 
L 554.041366 139.8 
L 555.778224 175.288372 
L 557.90105 202.962791 
L 559.637908 222.497674 
L 561.760734 234.218605 
L 565.620418 260.590698 
L 569.480102 271.660465 
L 577.199469 285.009302 
L 592.638204 292.823256 
L 608.076939 297.381395 
L 638.95441 299.986047 
L 685.270615 302.590698 
L 731.586821 303.24186 
L 824.219232 303.24186 
" clip-path="url(#p11d705a67a)" style="fill: none; stroke-dasharray: 3.7,1.6; stroke-dashoffset: 0; stroke: #000000"/>
    <g clip-path="url(#p11d705a67a)">
     <use xlink:href="#m665126820a" x="546.321999" y="305.195349" style="stroke: #000000; stroke-linejoin: miter"/>
     <use xlink:href="#m665126820a" x="548.058856" y="259.613953" style="stroke: #000000; stroke-linejoin: miter"/>
     <use xlink:href="#m665126820a" x="550.181683" y="124.172093" style="stroke: #000000; stroke-linejoin: miter"/>
     <use xlink:href="#m665126820a" x="551.91854" y="108.869767" style="stroke: #000000; stroke-linejoin: miter"/>
     <use xlink:href="#m665126820a" x="554.041366" y="139.8" style="stroke: #000000; stroke-linejoin: miter"/>
     <use xlink:href="#m665126820a" x="555.778224" y="175.288372" style="stroke: #000000; stroke-linejoin: miter"/>
     <use xlink:href="#m665126820a" x="557.90105" y="202.962791" style="stroke: #000000; stroke-linejoin: miter"/>
     <use xlink:href="#m665126820a" x="559.637908" y="222.497674" style="stroke: #000000; stroke-linejoin: miter"/>
     <use xlink:href="#m665126820a" x="561.760734" y="234.218605" style="stroke: #000000; stroke-linejoin: miter"/>
     <use xlink:href="#m665126820a" x="565.620418" y="260.590698" style="stroke: #000000; stroke-linejoin: miter"/>
     <use xlink:href="#m665126820a" x="569.480102" y="271.660465" style="stroke: #000000; stroke-linejoin: miter"/>
     <use xlink:href="#m665126820a" x="577.199469" y="285.009302" style="stroke: #000000; stroke-linejoin: miter"/>
     <use xlink:href="#m665126820a" x="592.638204" y="292.823256" style="stroke: #000000; stroke-linejoin: miter"/>
     <use xlink:href="#m665126820a" x="608.076939" y="297.381395" style="stroke: #000000; stroke-linejoin: miter"/>
     <use xlink:href="#m665126820a" x="638.95441" y="299.986047" style="stroke: #000000; stroke-linejoin: miter"/>
     <use xlink:href="#m665126820a" x="685.270615" y="302.590698" style="stroke: #000000; stroke-linejoin: miter"/>
     <use xlink:href="#m665126820a" x="731.586821" y="303.24186" style="stroke: #000000; stroke-linejoin: miter"/>
     <use xlink:href="#m665126820a" x="824.219232" y="303.24186" style="stroke: #000000; stroke-linejoin: miter"/>
    </g>
   </g>
   <g id="line2d_39">
    <path d="M 546.321999 305.195349 
L 546.939548 304.14701 
L 547.557098 298.914285 
L 548.174647 289.377365 
L 549.409746 262.733852 
L 551.262394 221.47286 
L 552.497493 200.502887 
L 553.115042 192.644107 
L 553.732592 186.543842 
L 554.350141 182.121946 
L 554.96769 179.257242 
L 555.58524 177.804091 
L 556.202789 177.604675 
L 556.820339 178.497931 
L 557.437888 180.325871 
L 558.055438 182.937905 
L 559.290536 189.964489 
L 560.525635 198.600673 
L 566.701129 244.876142 
L 568.553777 256.164371 
L 570.406426 265.715954 
L 571.641524 271.153242 
L 572.876623 275.900254 
L 574.111722 280.015142 
L 575.346821 283.560261 
L 576.58192 286.598311 
L 577.817019 289.189782 
L 579.052117 291.391359 
L 580.287216 293.25503 
L 581.522315 294.827684 
L 582.757414 296.15106 
L 584.610062 297.747842 
L 586.46271 298.970089 
L 588.315358 299.901901 
L 590.168007 300.609944 
L 592.638204 301.294584 
L 595.725951 301.858702 
L 599.431248 302.264234 
L 604.371643 302.547758 
L 611.782236 302.723572 
L 627.838521 302.825761 
L 751.965951 303.106541 
L 855.096702 303.310956 
L 855.096702 303.310956 
" clip-path="url(#p11d705a67a)" style="fill: none; stroke: #d62728; stroke-width: 2; stroke-linecap: square"/>
   </g>
   <g id="line2d_40">
    <path d="M 546.321999 302.590698 
L 548.058856 297.381395 
L 550.181683 280.451163 
L 551.91854 241.706977 
L 554.041366 211.102326 
L 555.778224 201.660465 
L 557.90105 203.613953 
L 559.637908 213.055814 
L 561.760734 224.125581 
L 565.620418 243.660465 
L 569.480102 261.567442 
L 577.199469 280.125581 
L 592.638204 290.218605 
L 608.076939 295.753488 
L 638.95441 298.683721 
L 685.270615 301.939535 
L 731.586821 302.590698 
L 824.219232 303.24186 
" clip-path="url(#p11d705a67a)" style="fill: none; stroke-dasharray: 3.7,1.6; stroke-dashoffset: 0; stroke: #d62728"/>
    <g clip-path="url(#p11d705a67a)">
     <use xlink:href="#m3bc8c6e95d" x="546.321999" y="302.590698" style="fill: #d62728; stroke: #000000; stroke-linejoin: miter"/>
     <use xlink:href="#m3bc8c6e95d" x="548.058856" y="297.381395" style="fill: #d62728; stroke: #000000; stroke-linejoin: miter"/>
     <use xlink:href="#m3bc8c6e95d" x="550.181683" y="280.451163" style="fill: #d62728; stroke: #000000; stroke-linejoin: miter"/>
     <use xlink:href="#m3bc8c6e95d" x="551.91854" y="241.706977" style="fill: #d62728; stroke: #000000; stroke-linejoin: miter"/>
     <use xlink:href="#m3bc8c6e95d" x="554.041366" y="211.102326" style="fill: #d62728; stroke: #000000; stroke-linejoin: miter"/>
     <use xlink:href="#m3bc8c6e95d" x="555.778224" y="201.660465" style="fill: #d62728; stroke: #000000; stroke-linejoin: miter"/>
     <use xlink:href="#m3bc8c6e95d" x="557.90105" y="203.613953" style="fill: #d62728; stroke: #000000; stroke-linejoin: miter"/>
     <use xlink:href="#m3bc8c6e95d" x="559.637908" y="213.055814" style="fill: #d62728; stroke: #000000; stroke-linejoin: miter"/>
     <use xlink:href="#m3bc8c6e95d" x="561.760734" y="224.125581" style="fill: #d62728; stroke: #000000; stroke-linejoin: miter"/>
     <use xlink:href="#m3bc8c6e95d" x="565.620418" y="243.660465" style="fill: #d62728; stroke: #000000; stroke-linejoin: miter"/>
     <use xlink:href="#m3bc8c6e95d" x="569.480102" y="261.567442" style="fill: #d62728; stroke: #000000; stroke-linejoin: miter"/>
     <use xlink:href="#m3bc8c6e95d" x="577.199469" y="280.125581" style="fill: #d62728; stroke: #000000; stroke-linejoin: miter"/>
     <use xlink:href="#m3bc8c6e95d" x="592.638204" y="290.218605" style="fill: #d62728; stroke: #000000; stroke-linejoin: miter"/>
     <use xlink:href="#m3bc8c6e95d" x="608.076939" y="295.753488" style="fill: #d62728; stroke: #000000; stroke-linejoin: miter"/>
     <use xlink:href="#m3bc8c6e95d" x="638.95441" y="298.683721" style="fill: #d62728; stroke: #000000; stroke-linejoin: miter"/>
     <use xlink:href="#m3bc8c6e95d" x="685.270615" y="301.939535" style="fill: #d62728; stroke: #000000; stroke-linejoin: miter"/>
     <use xlink:href="#m3bc8c6e95d" x="731.586821" y="302.590698" style="fill: #d62728; stroke: #000000; stroke-linejoin: miter"/>
     <use xlink:href="#m3bc8c6e95d" x="824.219232" y="303.24186" style="fill: #d62728; stroke: #000000; stroke-linejoin: miter"/>
    </g>
   </g>
   <g id="patch_9">
    <path d="M 530.883264 320.4 
L 530.883264 43.2 
" style="fill: none; stroke: #000000; stroke-width: 0.8; stroke-linejoin: miter; stroke-linecap: square"/>
   </g>
   <g id="patch_10">
    <path d="M 870.535438 320.4 
L 870.535438 43.2 
" style="fill: none; stroke: #000000; stroke-width: 0.8; stroke-linejoin: miter; stroke-linecap: square"/>
   </g>
   <g id="patch_11">
    <path d="M 530.883264 320.4 
L 870.535438 320.4 
" style="fill: none; stroke: #000000; stroke-width: 0.8; stroke-linejoin: miter; stroke-linecap: square"/>
   </g>
   <g id="patch_12">
    <path d="M 530.883264 43.2 
L 870.535438 43.2 
" style="fill: none; stroke: #000000; stroke-width: 0.8; stroke-linejoin: miter; stroke-linecap: square"/>
   </g>
   <g id="legend_2">
    <g id="patch_13">
     <path d="M 701.283875 110.46875 
L 863.535438 110.46875 
Q 865.535438 110.46875 865.535438 108.46875 
L 865.535438 50.2 
Q 865.535438 48.2 863.535438 48.2 
L 701.283875 48.2 
Q 699.283875 48.2 699.283875 50.2 
L 699.283875 108.46875 
Q 699.283875 110.46875 701.283875 110.46875 
z
" style="fill: #ffffff; opacity: 0.8; stroke: #cccccc; stroke-linejoin: miter"/>
    </g>
    <g id="line2d_41">
     <path d="M 703.283875 56.298437 
L 723.283875 56.298437 
" style="fill: none; stroke: #000000; stroke-width: 2; stroke-linecap: square"/>
    </g>
    <g id="line2d_42"/>
    <g id="text_33">
     <!-- dap (fasted) -->
     <g transform="translate(731.283875 59.798437) scale(0.1 -0.1)">
      <use xlink:href="#DejaVuSans-64"/>
      <use xlink:href="#DejaVuSans-61" x="63.476562"/>
      <use xlink:href="#DejaVuSans-70" x="124.755859"/>
      <use xlink:href="#DejaVuSans-20" x="188.232422"/>
      <use xlink:href="#DejaVuSans-28" x="220.019531"/>
      <use xlink:href="#DejaVuSans-66" x="259.033203"/>
      <use xlink:href="#DejaVuSans-61" x="294.238281"/>
      <use xlink:href="#DejaVuSans-73" x="355.517578"/>
      <use xlink:href="#DejaVuSans-74" x="407.617188"/>
      <use xlink:href="#DejaVuSans-65" x="446.826172"/>
      <use xlink:href="#DejaVuSans-64" x="508.349609"/>
      <use xlink:href="#DejaVuSans-29" x="571.826172"/>
     </g>
    </g>
    <g id="LineCollection_7">
     <path d="M 713.283875 75.976562 
L 713.283875 65.976562 
" style="fill: none; stroke: #000000"/>
    </g>
    <g id="line2d_43">
     <path d="M 703.283875 70.976562 
L 723.283875 70.976562 
" style="fill: none; stroke-dasharray: 3.7,1.6; stroke-dashoffset: 0; stroke: #000000"/>
    </g>
    <g id="line2d_44">
     <g>
      <use xlink:href="#m665126820a" x="713.283875" y="70.976562" style="stroke: #000000; stroke-linejoin: miter"/>
     </g>
    </g>
    <g id="text_34">
     <!-- fasted_DAP10±SD (n=14) -->
     <g transform="translate(731.283875 74.476562) scale(0.1 -0.1)">
      <use xlink:href="#DejaVuSans-66"/>
      <use xlink:href="#DejaVuSans-61" x="35.205078"/>
      <use xlink:href="#DejaVuSans-73" x="96.484375"/>
      <use xlink:href="#DejaVuSans-74" x="148.583984"/>
      <use xlink:href="#DejaVuSans-65" x="187.792969"/>
      <use xlink:href="#DejaVuSans-64" x="249.316406"/>
      <use xlink:href="#DejaVuSans-5f" x="312.792969"/>
      <use xlink:href="#DejaVuSans-44" x="362.792969"/>
      <use xlink:href="#DejaVuSans-41" x="438.044922"/>
      <use xlink:href="#DejaVuSans-50" x="506.453125"/>
      <use xlink:href="#DejaVuSans-31" x="566.755859"/>
      <use xlink:href="#DejaVuSans-30" x="630.378906"/>
      <use xlink:href="#DejaVuSans-b1" x="694.001953"/>
      <use xlink:href="#DejaVuSans-53" x="777.791016"/>
      <use xlink:href="#DejaVuSans-44" x="841.267578"/>
      <use xlink:href="#DejaVuSans-20" x="918.269531"/>
      <use xlink:href="#DejaVuSans-28" x="950.056641"/>
      <use xlink:href="#DejaVuSans-6e" x="989.070312"/>
      <use xlink:href="#DejaVuSans-3d" x="1052.449219"/>
      <use xlink:href="#DejaVuSans-31" x="1136.238281"/>
      <use xlink:href="#DejaVuSans-34" x="1199.861328"/>
      <use xlink:href="#DejaVuSans-29" x="1263.484375"/>
     </g>
    </g>
    <g id="line2d_45">
     <path d="M 703.283875 85.932812 
L 723.283875 85.932812 
" style="fill: none; stroke: #d62728; stroke-width: 2; stroke-linecap: square"/>
    </g>
    <g id="line2d_46"/>
    <g id="text_35">
     <!-- dap (fed) -->
     <g transform="translate(731.283875 89.432812) scale(0.1 -0.1)">
      <use xlink:href="#DejaVuSans-64"/>
      <use xlink:href="#DejaVuSans-61" x="63.476562"/>
      <use xlink:href="#DejaVuSans-70" x="124.755859"/>
      <use xlink:href="#DejaVuSans-20" x="188.232422"/>
      <use xlink:href="#DejaVuSans-28" x="220.019531"/>
      <use xlink:href="#DejaVuSans-66" x="259.033203"/>
      <use xlink:href="#DejaVuSans-65" x="294.238281"/>
      <use xlink:href="#DejaVuSans-64" x="355.761719"/>
      <use xlink:href="#DejaVuSans-29" x="419.238281"/>
     </g>
    </g>
    <g id="LineCollection_8">
     <path d="M 713.283875 105.610937 
L 713.283875 95.610937 
" style="fill: none; stroke: #d62728"/>
    </g>
    <g id="line2d_47">
     <path d="M 703.283875 100.610937 
L 723.283875 100.610937 
" style="fill: none; stroke-dasharray: 3.7,1.6; stroke-dashoffset: 0; stroke: #d62728"/>
    </g>
    <g id="line2d_48">
     <g>
      <use xlink:href="#m3bc8c6e95d" x="713.283875" y="100.610937" style="fill: #d62728; stroke: #000000; stroke-linejoin: miter"/>
     </g>
    </g>
    <g id="text_36">
     <!-- fed_DAP10±SD (n=14) -->
     <g transform="translate(731.283875 104.110937) scale(0.1 -0.1)">
      <use xlink:href="#DejaVuSans-66"/>
      <use xlink:href="#DejaVuSans-65" x="35.205078"/>
      <use xlink:href="#DejaVuSans-64" x="96.728516"/>
      <use xlink:href="#DejaVuSans-5f" x="160.205078"/>
      <use xlink:href="#DejaVuSans-44" x="210.205078"/>
      <use xlink:href="#DejaVuSans-41" x="285.457031"/>
      <use xlink:href="#DejaVuSans-50" x="353.865234"/>
      <use xlink:href="#DejaVuSans-31" x="414.167969"/>
      <use xlink:href="#DejaVuSans-30" x="477.791016"/>
      <use xlink:href="#DejaVuSans-b1" x="541.414062"/>
      <use xlink:href="#DejaVuSans-53" x="625.203125"/>
      <use xlink:href="#DejaVuSans-44" x="688.679688"/>
      <use xlink:href="#DejaVuSans-20" x="765.681641"/>
      <use xlink:href="#DejaVuSans-28" x="797.46875"/>
      <use xlink:href="#DejaVuSans-6e" x="836.482422"/>
      <use xlink:href="#DejaVuSans-3d" x="899.861328"/>
      <use xlink:href="#DejaVuSans-31" x="983.650391"/>
      <use xlink:href="#DejaVuSans-34" x="1047.273438"/>
      <use xlink:href="#DejaVuSans-29" x="1110.896484"/>
     </g>
    </g>
   </g>
  </g>
  <g id="text_37">
   <!-- Kasichayanula2011b -->
   <g transform="translate(322.298328 26.196094) scale(0.25 -0.25)">
    <defs>
     <path id="DejaVuSans-Bold-4b" d="M 588 4666 
L 1791 4666 
L 1791 2963 
L 3525 4666 
L 4922 4666 
L 2675 2456 
L 5153 0 
L 3647 0 
L 1791 1838 
L 1791 0 
L 588 0 
L 588 4666 
z
" transform="scale(0.015625)"/>
     <path id="DejaVuSans-Bold-79" d="M 78 3500 
L 1197 3500 
L 2138 1125 
L 2938 3500 
L 4056 3500 
L 2584 -331 
Q 2363 -916 2067 -1148 
Q 1772 -1381 1288 -1381 
L 641 -1381 
L 641 -647 
L 991 -647 
Q 1275 -647 1404 -556 
Q 1534 -466 1606 -231 
L 1638 -134 
L 78 3500 
z
" transform="scale(0.015625)"/>
     <path id="DejaVuSans-Bold-32" d="M 1844 884 
L 3897 884 
L 3897 0 
L 506 0 
L 506 884 
L 2209 2388 
Q 2438 2594 2547 2791 
Q 2656 2988 2656 3200 
Q 2656 3528 2436 3728 
Q 2216 3928 1850 3928 
Q 1569 3928 1234 3808 
Q 900 3688 519 3450 
L 519 4475 
Q 925 4609 1322 4679 
Q 1719 4750 2100 4750 
Q 2938 4750 3402 4381 
Q 3866 4013 3866 3353 
Q 3866 2972 3669 2642 
Q 3472 2313 2841 1759 
L 1844 884 
z
" transform="scale(0.015625)"/>
     <path id="DejaVuSans-Bold-30" d="M 2944 2338 
Q 2944 3213 2780 3570 
Q 2616 3928 2228 3928 
Q 1841 3928 1675 3570 
Q 1509 3213 1509 2338 
Q 1509 1453 1675 1090 
Q 1841 728 2228 728 
Q 2613 728 2778 1090 
Q 2944 1453 2944 2338 
z
M 4147 2328 
Q 4147 1169 3647 539 
Q 3147 -91 2228 -91 
Q 1306 -91 806 539 
Q 306 1169 306 2328 
Q 306 3491 806 4120 
Q 1306 4750 2228 4750 
Q 3147 4750 3647 4120 
Q 4147 3491 4147 2328 
z
" transform="scale(0.015625)"/>
     <path id="DejaVuSans-Bold-31" d="M 750 831 
L 1813 831 
L 1813 3847 
L 722 3622 
L 722 4441 
L 1806 4666 
L 2950 4666 
L 2950 831 
L 4013 831 
L 4013 0 
L 750 0 
L 750 831 
z
" transform="scale(0.015625)"/>
     <path id="DejaVuSans-Bold-62" d="M 2400 722 
Q 2759 722 2948 984 
Q 3138 1247 3138 1747 
Q 3138 2247 2948 2509 
Q 2759 2772 2400 2772 
Q 2041 2772 1848 2508 
Q 1656 2244 1656 1747 
Q 1656 1250 1848 986 
Q 2041 722 2400 722 
z
M 1656 2988 
Q 1888 3294 2169 3439 
Q 2450 3584 2816 3584 
Q 3463 3584 3878 3070 
Q 4294 2556 4294 1747 
Q 4294 938 3878 423 
Q 3463 -91 2816 -91 
Q 2450 -91 2169 54 
Q 1888 200 1656 506 
L 1656 0 
L 538 0 
L 538 4863 
L 1656 4863 
L 1656 2988 
z
" transform="scale(0.015625)"/>
    </defs>
    <use xlink:href="#DejaVuSans-Bold-4b"/>
    <use xlink:href="#DejaVuSans-Bold-61" x="77.490234"/>
    <use xlink:href="#DejaVuSans-Bold-73" x="144.970703"/>
    <use xlink:href="#DejaVuSans-Bold-69" x="204.492188"/>
    <use xlink:href="#DejaVuSans-Bold-63" x="238.769531"/>
    <use xlink:href="#DejaVuSans-Bold-68" x="298.046875"/>
    <use xlink:href="#DejaVuSans-Bold-61" x="369.238281"/>
    <use xlink:href="#DejaVuSans-Bold-79" x="433.59375"/>
    <use xlink:href="#DejaVuSans-Bold-61" x="498.779297"/>
    <use xlink:href="#DejaVuSans-Bold-6e" x="566.259766"/>
    <use xlink:href="#DejaVuSans-Bold-75" x="637.451172"/>
    <use xlink:href="#DejaVuSans-Bold-6c" x="708.642578"/>
    <use xlink:href="#DejaVuSans-Bold-61" x="742.919922"/>
    <use xlink:href="#DejaVuSans-Bold-32" x="810.400391"/>
    <use xlink:href="#DejaVuSans-Bold-30" x="879.980469"/>
    <use xlink:href="#DejaVuSans-Bold-31" x="949.560547"/>
    <use xlink:href="#DejaVuSans-Bold-31" x="1019.140625"/>
    <use xlink:href="#DejaVuSans-Bold-62" x="1088.720703"/>
   </g>
  </g>
 </g>
 <defs>
  <clipPath id="pca45decdb5">
   <rect x="89.335438" y="43.2" width="339.652174" height="277.2"/>
  </clipPath>
  <clipPath id="p11d705a67a">
   <rect x="530.883264" y="43.2" width="339.652174" height="277.2"/>
  </clipPath>
 </defs>
</svg>
