<?xml version="1.0" encoding="utf-8" standalone="no"?>
<!DOCTYPE svg PUBLIC "-//W3C//DTD SVG 1.1//EN"
  "http://www.w3.org/Graphics/SVG/1.1/DTD/svg11.dtd">
<svg xmlns:xlink="http://www.w3.org/1999/xlink" width="872.39952pt" height="440.39952pt" viewBox="0 0 872.39952 440.39952" xmlns="http://www.w3.org/2000/svg" version="1.1">
 <metadata>
  <rdf:RDF xmlns:dc="http://purl.org/dc/elements/1.1/" xmlns:cc="http://creativecommons.org/ns#" xmlns:rdf="http://www.w3.org/1999/02/22-rdf-syntax-ns#">
   <cc:Work>
    <dc:type rdf:resource="http://purl.org/dc/dcmitype/StillImage"/>
    <dc:date>2025-03-19T16:43:21.858495</dc:date>
    <dc:format>image/svg+xml</dc:format>
    <dc:creator>
     <cc:Agent>
      <dc:title>Matplotlib v3.9.1, https://matplotlib.org/</dc:title>
     </cc:Agent>
    </dc:creator>
   </cc:Work>
  </rdf:RDF>
 </metadata>
 <defs>
  <style type="text/css">*{stroke-linejoin: round; stroke-linecap: butt}</style>
 </defs>
 <g id="figure_1">
  <g id="patch_1">
   <path d="M 0 440.39952 
L 872.39952 440.39952 
L 872.39952 0 
L 0 0 
z
" style="fill: #ffffff"/>
  </g>
  <g id="axes_1">
   <g id="patch_2">
    <path d="M 42.378125 393.047957 
L 419.952416 393.047957 
L 419.952416 37.395792 
L 42.378125 37.395792 
z
" style="fill: #ffffff"/>
   </g>
   <g id="matplotlib.axis_1">
    <g id="xtick_1">
     <g id="line2d_1">
      <defs>
       <path id="me51f7fcbcd" d="M 0 0 
L 0 3.5 
" style="stroke: #000000; stroke-width: 0.8"/>
      </defs>
      <g>
       <use xlink:href="#me51f7fcbcd" x="59.540593" y="393.047957" style="stroke: #000000; stroke-width: 0.8"/>
      </g>
     </g>
     <g id="text_1">
      <!-- $\mathdefault{10^{-1}}$ -->
      <g transform="translate(41.915593 411.445614) scale(0.15 -0.15)">
       <defs>
        <path id="DejaVuSans-31" d="M 794 531 
L 1825 531 
L 1825 4091 
L 703 3866 
L 703 4441 
L 1819 4666 
L 2450 4666 
L 2450 531 
L 3481 531 
L 3481 0 
L 794 0 
L 794 531 
z
" transform="scale(0.015625)"/>
        <path id="DejaVuSans-30" d="M 2034 4250 
Q 1547 4250 1301 3770 
Q 1056 3291 1056 2328 
Q 1056 1369 1301 889 
Q 1547 409 2034 409 
Q 2525 409 2770 889 
Q 3016 1369 3016 2328 
Q 3016 3291 2770 3770 
Q 2525 4250 2034 4250 
z
M 2034 4750 
Q 2819 4750 3233 4129 
Q 3647 3509 3647 2328 
Q 3647 1150 3233 529 
Q 2819 -91 2034 -91 
Q 1250 -91 836 529 
Q 422 1150 422 2328 
Q 422 3509 836 4129 
Q 1250 4750 2034 4750 
z
" transform="scale(0.015625)"/>
        <path id="DejaVuSans-2212" d="M 678 2272 
L 4684 2272 
L 4684 1741 
L 678 1741 
L 678 2272 
z
" transform="scale(0.015625)"/>
       </defs>
       <use xlink:href="#DejaVuSans-31" transform="translate(0 0.684375)"/>
       <use xlink:href="#DejaVuSans-30" transform="translate(63.623047 0.684375)"/>
       <use xlink:href="#DejaVuSans-2212" transform="translate(128.203125 38.965625) scale(0.7)"/>
       <use xlink:href="#DejaVuSans-31" transform="translate(186.855469 38.965625) scale(0.7)"/>
      </g>
     </g>
    </g>
    <g id="xtick_2">
     <g id="line2d_2">
      <g>
       <use xlink:href="#me51f7fcbcd" x="231.165271" y="393.047957" style="stroke: #000000; stroke-width: 0.8"/>
      </g>
     </g>
     <g id="text_2">
      <!-- $\mathdefault{10^{0}}$ -->
      <g transform="translate(217.965271 411.445614) scale(0.15 -0.15)">
       <use xlink:href="#DejaVuSans-31" transform="translate(0 0.765625)"/>
       <use xlink:href="#DejaVuSans-30" transform="translate(63.623047 0.765625)"/>
       <use xlink:href="#DejaVuSans-30" transform="translate(128.203125 39.046875) scale(0.7)"/>
      </g>
     </g>
    </g>
    <g id="xtick_3">
     <g id="line2d_3">
      <g>
       <use xlink:href="#me51f7fcbcd" x="402.789948" y="393.047957" style="stroke: #000000; stroke-width: 0.8"/>
      </g>
     </g>
     <g id="text_3">
      <!-- $\mathdefault{10^{1}}$ -->
      <g transform="translate(389.589948 411.445614) scale(0.15 -0.15)">
       <use xlink:href="#DejaVuSans-31" transform="translate(0 0.684375)"/>
       <use xlink:href="#DejaVuSans-30" transform="translate(63.623047 0.684375)"/>
       <use xlink:href="#DejaVuSans-31" transform="translate(128.203125 38.965625) scale(0.7)"/>
      </g>
     </g>
    </g>
    <g id="xtick_4">
     <g id="line2d_4">
      <defs>
       <path id="m32d8141d03" d="M 0 0 
L 0 2 
" style="stroke: #000000; stroke-width: 0.6"/>
      </defs>
      <g>
       <use xlink:href="#m32d8141d03" x="42.908443" y="393.047957" style="stroke: #000000; stroke-width: 0.6"/>
      </g>
     </g>
    </g>
    <g id="xtick_5">
     <g id="line2d_5">
      <g>
       <use xlink:href="#m32d8141d03" x="51.687478" y="393.047957" style="stroke: #000000; stroke-width: 0.6"/>
      </g>
     </g>
    </g>
    <g id="xtick_6">
     <g id="line2d_6">
      <g>
       <use xlink:href="#m32d8141d03" x="111.204769" y="393.047957" style="stroke: #000000; stroke-width: 0.6"/>
      </g>
     </g>
    </g>
    <g id="xtick_7">
     <g id="line2d_7">
      <g>
       <use xlink:href="#m32d8141d03" x="141.426374" y="393.047957" style="stroke: #000000; stroke-width: 0.6"/>
      </g>
     </g>
    </g>
    <g id="xtick_8">
     <g id="line2d_8">
      <g>
       <use xlink:href="#m32d8141d03" x="162.868945" y="393.047957" style="stroke: #000000; stroke-width: 0.6"/>
      </g>
     </g>
    </g>
    <g id="xtick_9">
     <g id="line2d_9">
      <g>
       <use xlink:href="#m32d8141d03" x="179.501095" y="393.047957" style="stroke: #000000; stroke-width: 0.6"/>
      </g>
     </g>
    </g>
    <g id="xtick_10">
     <g id="line2d_10">
      <g>
       <use xlink:href="#m32d8141d03" x="193.09055" y="393.047957" style="stroke: #000000; stroke-width: 0.6"/>
      </g>
     </g>
    </g>
    <g id="xtick_11">
     <g id="line2d_11">
      <g>
       <use xlink:href="#m32d8141d03" x="204.580272" y="393.047957" style="stroke: #000000; stroke-width: 0.6"/>
      </g>
     </g>
    </g>
    <g id="xtick_12">
     <g id="line2d_12">
      <g>
       <use xlink:href="#m32d8141d03" x="214.533121" y="393.047957" style="stroke: #000000; stroke-width: 0.6"/>
      </g>
     </g>
    </g>
    <g id="xtick_13">
     <g id="line2d_13">
      <g>
       <use xlink:href="#m32d8141d03" x="223.312156" y="393.047957" style="stroke: #000000; stroke-width: 0.6"/>
      </g>
     </g>
    </g>
    <g id="xtick_14">
     <g id="line2d_14">
      <g>
       <use xlink:href="#m32d8141d03" x="282.829447" y="393.047957" style="stroke: #000000; stroke-width: 0.6"/>
      </g>
     </g>
    </g>
    <g id="xtick_15">
     <g id="line2d_15">
      <g>
       <use xlink:href="#m32d8141d03" x="313.051052" y="393.047957" style="stroke: #000000; stroke-width: 0.6"/>
      </g>
     </g>
    </g>
    <g id="xtick_16">
     <g id="line2d_16">
      <g>
       <use xlink:href="#m32d8141d03" x="334.493623" y="393.047957" style="stroke: #000000; stroke-width: 0.6"/>
      </g>
     </g>
    </g>
    <g id="xtick_17">
     <g id="line2d_17">
      <g>
       <use xlink:href="#m32d8141d03" x="351.125772" y="393.047957" style="stroke: #000000; stroke-width: 0.6"/>
      </g>
     </g>
    </g>
    <g id="xtick_18">
     <g id="line2d_18">
      <g>
       <use xlink:href="#m32d8141d03" x="364.715228" y="393.047957" style="stroke: #000000; stroke-width: 0.6"/>
      </g>
     </g>
    </g>
    <g id="xtick_19">
     <g id="line2d_19">
      <g>
       <use xlink:href="#m32d8141d03" x="376.204949" y="393.047957" style="stroke: #000000; stroke-width: 0.6"/>
      </g>
     </g>
    </g>
    <g id="xtick_20">
     <g id="line2d_20">
      <g>
       <use xlink:href="#m32d8141d03" x="386.157799" y="393.047957" style="stroke: #000000; stroke-width: 0.6"/>
      </g>
     </g>
    </g>
    <g id="xtick_21">
     <g id="line2d_21">
      <g>
       <use xlink:href="#m32d8141d03" x="394.936834" y="393.047957" style="stroke: #000000; stroke-width: 0.6"/>
      </g>
     </g>
    </g>
    <g id="text_4">
     <!-- absorption activity [-] -->
     <g transform="translate(138.617614 429.962801) scale(0.15 -0.15)">
      <defs>
       <path id="DejaVuSans-Bold-61" d="M 2106 1575 
Q 1756 1575 1579 1456 
Q 1403 1338 1403 1106 
Q 1403 894 1545 773 
Q 1688 653 1941 653 
Q 2256 653 2472 879 
Q 2688 1106 2688 1447 
L 2688 1575 
L 2106 1575 
z
M 3816 1997 
L 3816 0 
L 2688 0 
L 2688 519 
Q 2463 200 2181 54 
Q 1900 -91 1497 -91 
Q 953 -91 614 226 
Q 275 544 275 1050 
Q 275 1666 698 1953 
Q 1122 2241 2028 2241 
L 2688 2241 
L 2688 2328 
Q 2688 2594 2478 2717 
Q 2269 2841 1825 2841 
Q 1466 2841 1156 2769 
Q 847 2697 581 2553 
L 581 3406 
Q 941 3494 1303 3539 
Q 1666 3584 2028 3584 
Q 2975 3584 3395 3211 
Q 3816 2838 3816 1997 
z
" transform="scale(0.015625)"/>
       <path id="DejaVuSans-Bold-62" d="M 2400 722 
Q 2759 722 2948 984 
Q 3138 1247 3138 1747 
Q 3138 2247 2948 2509 
Q 2759 2772 2400 2772 
Q 2041 2772 1848 2508 
Q 1656 2244 1656 1747 
Q 1656 1250 1848 986 
Q 2041 722 2400 722 
z
M 1656 2988 
Q 1888 3294 2169 3439 
Q 2450 3584 2816 3584 
Q 3463 3584 3878 3070 
Q 4294 2556 4294 1747 
Q 4294 938 3878 423 
Q 3463 -91 2816 -91 
Q 2450 -91 2169 54 
Q 1888 200 1656 506 
L 1656 0 
L 538 0 
L 538 4863 
L 1656 4863 
L 1656 2988 
z
" transform="scale(0.015625)"/>
       <path id="DejaVuSans-Bold-73" d="M 3272 3391 
L 3272 2541 
Q 2913 2691 2578 2766 
Q 2244 2841 1947 2841 
Q 1628 2841 1473 2761 
Q 1319 2681 1319 2516 
Q 1319 2381 1436 2309 
Q 1553 2238 1856 2203 
L 2053 2175 
Q 2913 2066 3209 1816 
Q 3506 1566 3506 1031 
Q 3506 472 3093 190 
Q 2681 -91 1863 -91 
Q 1516 -91 1145 -36 
Q 775 19 384 128 
L 384 978 
Q 719 816 1070 734 
Q 1422 653 1784 653 
Q 2113 653 2278 743 
Q 2444 834 2444 1013 
Q 2444 1163 2330 1236 
Q 2216 1309 1875 1350 
L 1678 1375 
Q 931 1469 631 1722 
Q 331 1975 331 2491 
Q 331 3047 712 3315 
Q 1094 3584 1881 3584 
Q 2191 3584 2531 3537 
Q 2872 3491 3272 3391 
z
" transform="scale(0.015625)"/>
       <path id="DejaVuSans-Bold-6f" d="M 2203 2784 
Q 1831 2784 1636 2517 
Q 1441 2250 1441 1747 
Q 1441 1244 1636 976 
Q 1831 709 2203 709 
Q 2569 709 2762 976 
Q 2956 1244 2956 1747 
Q 2956 2250 2762 2517 
Q 2569 2784 2203 2784 
z
M 2203 3584 
Q 3106 3584 3614 3096 
Q 4122 2609 4122 1747 
Q 4122 884 3614 396 
Q 3106 -91 2203 -91 
Q 1297 -91 786 396 
Q 275 884 275 1747 
Q 275 2609 786 3096 
Q 1297 3584 2203 3584 
z
" transform="scale(0.015625)"/>
       <path id="DejaVuSans-Bold-72" d="M 3138 2547 
Q 2991 2616 2845 2648 
Q 2700 2681 2553 2681 
Q 2122 2681 1889 2404 
Q 1656 2128 1656 1613 
L 1656 0 
L 538 0 
L 538 3500 
L 1656 3500 
L 1656 2925 
Q 1872 3269 2151 3426 
Q 2431 3584 2822 3584 
Q 2878 3584 2943 3579 
Q 3009 3575 3134 3559 
L 3138 2547 
z
" transform="scale(0.015625)"/>
       <path id="DejaVuSans-Bold-70" d="M 1656 506 
L 1656 -1331 
L 538 -1331 
L 538 3500 
L 1656 3500 
L 1656 2988 
Q 1888 3294 2169 3439 
Q 2450 3584 2816 3584 
Q 3463 3584 3878 3070 
Q 4294 2556 4294 1747 
Q 4294 938 3878 423 
Q 3463 -91 2816 -91 
Q 2450 -91 2169 54 
Q 1888 200 1656 506 
z
M 2400 2772 
Q 2041 2772 1848 2508 
Q 1656 2244 1656 1747 
Q 1656 1250 1848 986 
Q 2041 722 2400 722 
Q 2759 722 2948 984 
Q 3138 1247 3138 1747 
Q 3138 2247 2948 2509 
Q 2759 2772 2400 2772 
z
" transform="scale(0.015625)"/>
       <path id="DejaVuSans-Bold-74" d="M 1759 4494 
L 1759 3500 
L 2913 3500 
L 2913 2700 
L 1759 2700 
L 1759 1216 
Q 1759 972 1856 886 
Q 1953 800 2241 800 
L 2816 800 
L 2816 0 
L 1856 0 
Q 1194 0 917 276 
Q 641 553 641 1216 
L 641 2700 
L 84 2700 
L 84 3500 
L 641 3500 
L 641 4494 
L 1759 4494 
z
" transform="scale(0.015625)"/>
       <path id="DejaVuSans-Bold-69" d="M 538 3500 
L 1656 3500 
L 1656 0 
L 538 0 
L 538 3500 
z
M 538 4863 
L 1656 4863 
L 1656 3950 
L 538 3950 
L 538 4863 
z
" transform="scale(0.015625)"/>
       <path id="DejaVuSans-Bold-6e" d="M 4056 2131 
L 4056 0 
L 2931 0 
L 2931 347 
L 2931 1631 
Q 2931 2084 2911 2256 
Q 2891 2428 2841 2509 
Q 2775 2619 2662 2680 
Q 2550 2741 2406 2741 
Q 2056 2741 1856 2470 
Q 1656 2200 1656 1722 
L 1656 0 
L 538 0 
L 538 3500 
L 1656 3500 
L 1656 2988 
Q 1909 3294 2193 3439 
Q 2478 3584 2822 3584 
Q 3428 3584 3742 3212 
Q 4056 2841 4056 2131 
z
" transform="scale(0.015625)"/>
       <path id="DejaVuSans-Bold-20" transform="scale(0.015625)"/>
       <path id="DejaVuSans-Bold-63" d="M 3366 3391 
L 3366 2478 
Q 3138 2634 2908 2709 
Q 2678 2784 2431 2784 
Q 1963 2784 1702 2511 
Q 1441 2238 1441 1747 
Q 1441 1256 1702 982 
Q 1963 709 2431 709 
Q 2694 709 2930 787 
Q 3166 866 3366 1019 
L 3366 103 
Q 3103 6 2833 -42 
Q 2563 -91 2291 -91 
Q 1344 -91 809 395 
Q 275 881 275 1747 
Q 275 2613 809 3098 
Q 1344 3584 2291 3584 
Q 2566 3584 2833 3536 
Q 3100 3488 3366 3391 
z
" transform="scale(0.015625)"/>
       <path id="DejaVuSans-Bold-76" d="M 97 3500 
L 1216 3500 
L 2088 1081 
L 2956 3500 
L 4078 3500 
L 2700 0 
L 1472 0 
L 97 3500 
z
" transform="scale(0.015625)"/>
       <path id="DejaVuSans-Bold-79" d="M 78 3500 
L 1197 3500 
L 2138 1125 
L 2938 3500 
L 4056 3500 
L 2584 -331 
Q 2363 -916 2067 -1148 
Q 1772 -1381 1288 -1381 
L 641 -1381 
L 641 -647 
L 991 -647 
Q 1275 -647 1404 -556 
Q 1534 -466 1606 -231 
L 1638 -134 
L 78 3500 
z
" transform="scale(0.015625)"/>
       <path id="DejaVuSans-Bold-5b" d="M 550 4863 
L 2491 4863 
L 2491 4159 
L 1613 4159 
L 1613 -141 
L 2491 -141 
L 2491 -844 
L 550 -844 
L 550 4863 
z
" transform="scale(0.015625)"/>
       <path id="DejaVuSans-Bold-2d" d="M 347 2297 
L 2309 2297 
L 2309 1388 
L 347 1388 
L 347 2297 
z
" transform="scale(0.015625)"/>
       <path id="DejaVuSans-Bold-5d" d="M 2375 -844 
L 434 -844 
L 434 -141 
L 1313 -141 
L 1313 4159 
L 434 4159 
L 434 4863 
L 2375 4863 
L 2375 -844 
z
" transform="scale(0.015625)"/>
      </defs>
      <use xlink:href="#DejaVuSans-Bold-61"/>
      <use xlink:href="#DejaVuSans-Bold-62" x="67.480469"/>
      <use xlink:href="#DejaVuSans-Bold-73" x="139.0625"/>
      <use xlink:href="#DejaVuSans-Bold-6f" x="198.583984"/>
      <use xlink:href="#DejaVuSans-Bold-72" x="267.285156"/>
      <use xlink:href="#DejaVuSans-Bold-70" x="316.601562"/>
      <use xlink:href="#DejaVuSans-Bold-74" x="388.183594"/>
      <use xlink:href="#DejaVuSans-Bold-69" x="435.986328"/>
      <use xlink:href="#DejaVuSans-Bold-6f" x="470.263672"/>
      <use xlink:href="#DejaVuSans-Bold-6e" x="538.964844"/>
      <use xlink:href="#DejaVuSans-Bold-20" x="610.15625"/>
      <use xlink:href="#DejaVuSans-Bold-61" x="644.970703"/>
      <use xlink:href="#DejaVuSans-Bold-63" x="712.451172"/>
      <use xlink:href="#DejaVuSans-Bold-74" x="771.728516"/>
      <use xlink:href="#DejaVuSans-Bold-69" x="819.53125"/>
      <use xlink:href="#DejaVuSans-Bold-76" x="853.808594"/>
      <use xlink:href="#DejaVuSans-Bold-69" x="918.994141"/>
      <use xlink:href="#DejaVuSans-Bold-74" x="953.271484"/>
      <use xlink:href="#DejaVuSans-Bold-79" x="1001.074219"/>
      <use xlink:href="#DejaVuSans-Bold-20" x="1066.259766"/>
      <use xlink:href="#DejaVuSans-Bold-5b" x="1101.074219"/>
      <use xlink:href="#DejaVuSans-Bold-2d" x="1146.777344"/>
      <use xlink:href="#DejaVuSans-Bold-5d" x="1188.28125"/>
     </g>
    </g>
   </g>
   <g id="matplotlib.axis_2">
    <g id="ytick_1">
     <g id="line2d_22">
      <defs>
       <path id="me7f37915e5" d="M 0 0 
L -3.5 0 
" style="stroke: #000000; stroke-width: 0.8"/>
      </defs>
      <g>
       <use xlink:href="#me7f37915e5" x="42.378125" y="393.047957" style="stroke: #000000; stroke-width: 0.8"/>
      </g>
     </g>
     <g id="text_5">
      <!-- 0 -->
      <g transform="translate(25.834375 398.746786) scale(0.15 -0.15)">
       <use xlink:href="#DejaVuSans-30"/>
      </g>
     </g>
    </g>
    <g id="ytick_2">
     <g id="line2d_23">
      <g>
       <use xlink:href="#me7f37915e5" x="42.378125" y="326.125233" style="stroke: #000000; stroke-width: 0.8"/>
      </g>
     </g>
     <g id="text_6">
      <!-- 1 -->
      <g transform="translate(25.834375 331.824061) scale(0.15 -0.15)">
       <use xlink:href="#DejaVuSans-31"/>
      </g>
     </g>
    </g>
    <g id="ytick_3">
     <g id="line2d_24">
      <g>
       <use xlink:href="#me7f37915e5" x="42.378125" y="259.202509" style="stroke: #000000; stroke-width: 0.8"/>
      </g>
     </g>
     <g id="text_7">
      <!-- 2 -->
      <g transform="translate(25.834375 264.901337) scale(0.15 -0.15)">
       <defs>
        <path id="DejaVuSans-32" d="M 1228 531 
L 3431 531 
L 3431 0 
L 469 0 
L 469 531 
Q 828 903 1448 1529 
Q 2069 2156 2228 2338 
Q 2531 2678 2651 2914 
Q 2772 3150 2772 3378 
Q 2772 3750 2511 3984 
Q 2250 4219 1831 4219 
Q 1534 4219 1204 4116 
Q 875 4013 500 3803 
L 500 4441 
Q 881 4594 1212 4672 
Q 1544 4750 1819 4750 
Q 2544 4750 2975 4387 
Q 3406 4025 3406 3419 
Q 3406 3131 3298 2873 
Q 3191 2616 2906 2266 
Q 2828 2175 2409 1742 
Q 1991 1309 1228 531 
z
" transform="scale(0.015625)"/>
       </defs>
       <use xlink:href="#DejaVuSans-32"/>
      </g>
     </g>
    </g>
    <g id="ytick_4">
     <g id="line2d_25">
      <g>
       <use xlink:href="#me7f37915e5" x="42.378125" y="192.279784" style="stroke: #000000; stroke-width: 0.8"/>
      </g>
     </g>
     <g id="text_8">
      <!-- 3 -->
      <g transform="translate(25.834375 197.978612) scale(0.15 -0.15)">
       <defs>
        <path id="DejaVuSans-33" d="M 2597 2516 
Q 3050 2419 3304 2112 
Q 3559 1806 3559 1356 
Q 3559 666 3084 287 
Q 2609 -91 1734 -91 
Q 1441 -91 1130 -33 
Q 819 25 488 141 
L 488 750 
Q 750 597 1062 519 
Q 1375 441 1716 441 
Q 2309 441 2620 675 
Q 2931 909 2931 1356 
Q 2931 1769 2642 2001 
Q 2353 2234 1838 2234 
L 1294 2234 
L 1294 2753 
L 1863 2753 
Q 2328 2753 2575 2939 
Q 2822 3125 2822 3475 
Q 2822 3834 2567 4026 
Q 2313 4219 1838 4219 
Q 1578 4219 1281 4162 
Q 984 4106 628 3988 
L 628 4550 
Q 988 4650 1302 4700 
Q 1616 4750 1894 4750 
Q 2613 4750 3031 4423 
Q 3450 4097 3450 3541 
Q 3450 3153 3228 2886 
Q 3006 2619 2597 2516 
z
" transform="scale(0.015625)"/>
       </defs>
       <use xlink:href="#DejaVuSans-33"/>
      </g>
     </g>
    </g>
    <g id="ytick_5">
     <g id="line2d_26">
      <g>
       <use xlink:href="#me7f37915e5" x="42.378125" y="125.35706" style="stroke: #000000; stroke-width: 0.8"/>
      </g>
     </g>
     <g id="text_9">
      <!-- 4 -->
      <g transform="translate(25.834375 131.055888) scale(0.15 -0.15)">
       <defs>
        <path id="DejaVuSans-34" d="M 2419 4116 
L 825 1625 
L 2419 1625 
L 2419 4116 
z
M 2253 4666 
L 3047 4666 
L 3047 1625 
L 3713 1625 
L 3713 1100 
L 3047 1100 
L 3047 0 
L 2419 0 
L 2419 1100 
L 313 1100 
L 313 1709 
L 2253 4666 
z
" transform="scale(0.015625)"/>
       </defs>
       <use xlink:href="#DejaVuSans-34"/>
      </g>
     </g>
    </g>
    <g id="ytick_6">
     <g id="line2d_27">
      <g>
       <use xlink:href="#me7f37915e5" x="42.378125" y="58.434335" style="stroke: #000000; stroke-width: 0.8"/>
      </g>
     </g>
     <g id="text_10">
      <!-- 5 -->
      <g transform="translate(25.834375 64.133163) scale(0.15 -0.15)">
       <defs>
        <path id="DejaVuSans-35" d="M 691 4666 
L 3169 4666 
L 3169 4134 
L 1269 4134 
L 1269 2991 
Q 1406 3038 1543 3061 
Q 1681 3084 1819 3084 
Q 2600 3084 3056 2656 
Q 3513 2228 3513 1497 
Q 3513 744 3044 326 
Q 2575 -91 1722 -91 
Q 1428 -91 1123 -41 
Q 819 9 494 109 
L 494 744 
Q 775 591 1075 516 
Q 1375 441 1709 441 
Q 2250 441 2565 725 
Q 2881 1009 2881 1497 
Q 2881 1984 2565 2268 
Q 2250 2553 1709 2553 
Q 1456 2553 1204 2497 
Q 953 2441 691 2322 
L 691 4666 
z
" transform="scale(0.015625)"/>
       </defs>
       <use xlink:href="#DejaVuSans-35"/>
      </g>
     </g>
    </g>
    <g id="text_11">
     <!-- AUC (d3g) [µmole/l*hr] -->
     <g transform="translate(18.597656 311.689453) rotate(-90) scale(0.15 -0.15)">
      <defs>
       <path id="DejaVuSans-Bold-41" d="M 3419 850 
L 1538 850 
L 1241 0 
L 31 0 
L 1759 4666 
L 3194 4666 
L 4922 0 
L 3713 0 
L 3419 850 
z
M 1838 1716 
L 3116 1716 
L 2478 3572 
L 1838 1716 
z
" transform="scale(0.015625)"/>
       <path id="DejaVuSans-Bold-55" d="M 588 4666 
L 1791 4666 
L 1791 1869 
Q 1791 1291 1980 1042 
Q 2169 794 2597 794 
Q 3028 794 3217 1042 
Q 3406 1291 3406 1869 
L 3406 4666 
L 4609 4666 
L 4609 1869 
Q 4609 878 4112 393 
Q 3616 -91 2597 -91 
Q 1581 -91 1084 393 
Q 588 878 588 1869 
L 588 4666 
z
" transform="scale(0.015625)"/>
       <path id="DejaVuSans-Bold-43" d="M 4288 256 
Q 3956 84 3597 -3 
Q 3238 -91 2847 -91 
Q 1681 -91 1000 561 
Q 319 1213 319 2328 
Q 319 3447 1000 4098 
Q 1681 4750 2847 4750 
Q 3238 4750 3597 4662 
Q 3956 4575 4288 4403 
L 4288 3438 
Q 3953 3666 3628 3772 
Q 3303 3878 2944 3878 
Q 2300 3878 1931 3465 
Q 1563 3053 1563 2328 
Q 1563 1606 1931 1193 
Q 2300 781 2944 781 
Q 3303 781 3628 887 
Q 3953 994 4288 1222 
L 4288 256 
z
" transform="scale(0.015625)"/>
       <path id="DejaVuSans-Bold-28" d="M 2413 -844 
L 1484 -844 
Q 1006 -72 778 623 
Q 550 1319 550 2003 
Q 550 2688 779 3389 
Q 1009 4091 1484 4856 
L 2413 4856 
Q 2013 4116 1813 3408 
Q 1613 2700 1613 2009 
Q 1613 1319 1811 609 
Q 2009 -100 2413 -844 
z
" transform="scale(0.015625)"/>
       <path id="DejaVuSans-Bold-64" d="M 2919 2988 
L 2919 4863 
L 4044 4863 
L 4044 0 
L 2919 0 
L 2919 506 
Q 2688 197 2409 53 
Q 2131 -91 1766 -91 
Q 1119 -91 703 423 
Q 288 938 288 1747 
Q 288 2556 703 3070 
Q 1119 3584 1766 3584 
Q 2128 3584 2408 3439 
Q 2688 3294 2919 2988 
z
M 2181 722 
Q 2541 722 2730 984 
Q 2919 1247 2919 1747 
Q 2919 2247 2730 2509 
Q 2541 2772 2181 2772 
Q 1825 2772 1636 2509 
Q 1447 2247 1447 1747 
Q 1447 1247 1636 984 
Q 1825 722 2181 722 
z
" transform="scale(0.015625)"/>
       <path id="DejaVuSans-Bold-33" d="M 2981 2516 
Q 3453 2394 3698 2092 
Q 3944 1791 3944 1325 
Q 3944 631 3412 270 
Q 2881 -91 1863 -91 
Q 1503 -91 1142 -33 
Q 781 25 428 141 
L 428 1069 
Q 766 900 1098 814 
Q 1431 728 1753 728 
Q 2231 728 2486 893 
Q 2741 1059 2741 1369 
Q 2741 1688 2480 1852 
Q 2219 2016 1709 2016 
L 1228 2016 
L 1228 2791 
L 1734 2791 
Q 2188 2791 2409 2933 
Q 2631 3075 2631 3366 
Q 2631 3634 2415 3781 
Q 2200 3928 1806 3928 
Q 1516 3928 1219 3862 
Q 922 3797 628 3669 
L 628 4550 
Q 984 4650 1334 4700 
Q 1684 4750 2022 4750 
Q 2931 4750 3382 4451 
Q 3834 4153 3834 3553 
Q 3834 3144 3618 2883 
Q 3403 2622 2981 2516 
z
" transform="scale(0.015625)"/>
       <path id="DejaVuSans-Bold-67" d="M 2919 594 
Q 2688 288 2409 144 
Q 2131 0 1766 0 
Q 1125 0 706 504 
Q 288 1009 288 1791 
Q 288 2575 706 3076 
Q 1125 3578 1766 3578 
Q 2131 3578 2409 3434 
Q 2688 3291 2919 2981 
L 2919 3500 
L 4044 3500 
L 4044 353 
Q 4044 -491 3511 -936 
Q 2978 -1381 1966 -1381 
Q 1638 -1381 1331 -1331 
Q 1025 -1281 716 -1178 
L 716 -306 
Q 1009 -475 1290 -558 
Q 1572 -641 1856 -641 
Q 2406 -641 2662 -400 
Q 2919 -159 2919 353 
L 2919 594 
z
M 2181 2772 
Q 1834 2772 1640 2515 
Q 1447 2259 1447 1791 
Q 1447 1309 1634 1061 
Q 1822 813 2181 813 
Q 2531 813 2725 1069 
Q 2919 1325 2919 1791 
Q 2919 2259 2725 2515 
Q 2531 2772 2181 2772 
z
" transform="scale(0.015625)"/>
       <path id="DejaVuSans-Bold-29" d="M 513 -844 
Q 913 -100 1113 609 
Q 1313 1319 1313 2009 
Q 1313 2700 1113 3408 
Q 913 4116 513 4856 
L 1441 4856 
Q 1916 4091 2145 3389 
Q 2375 2688 2375 2003 
Q 2375 1319 2147 623 
Q 1919 -72 1441 -844 
L 513 -844 
z
" transform="scale(0.015625)"/>
       <path id="DejaVuSans-Bold-b5" d="M 544 -1338 
L 544 3500 
L 1672 3500 
L 1672 1466 
Q 1672 1103 1828 926 
Q 1984 750 2303 750 
Q 2625 750 2781 926 
Q 2938 1103 2938 1466 
L 2938 3500 
L 4063 3500 
L 4063 1159 
Q 4063 938 4114 850 
Q 4166 763 4288 763 
Q 4344 763 4395 778 
Q 4447 794 4506 831 
L 4506 50 
Q 4341 -22 4195 -56 
Q 4050 -91 3909 -91 
Q 3631 -91 3454 26 
Q 3278 144 3169 403 
Q 3022 156 2811 32 
Q 2600 -91 2322 -91 
Q 2091 -91 1928 -17 
Q 1766 56 1672 206 
L 1672 -1338 
L 544 -1338 
z
" transform="scale(0.015625)"/>
       <path id="DejaVuSans-Bold-6d" d="M 3781 2919 
Q 3994 3244 4286 3414 
Q 4578 3584 4928 3584 
Q 5531 3584 5847 3212 
Q 6163 2841 6163 2131 
L 6163 0 
L 5038 0 
L 5038 1825 
Q 5041 1866 5042 1909 
Q 5044 1953 5044 2034 
Q 5044 2406 4934 2573 
Q 4825 2741 4581 2741 
Q 4263 2741 4089 2478 
Q 3916 2216 3909 1719 
L 3909 0 
L 2784 0 
L 2784 1825 
Q 2784 2406 2684 2573 
Q 2584 2741 2328 2741 
Q 2006 2741 1831 2477 
Q 1656 2213 1656 1722 
L 1656 0 
L 531 0 
L 531 3500 
L 1656 3500 
L 1656 2988 
Q 1863 3284 2130 3434 
Q 2397 3584 2719 3584 
Q 3081 3584 3359 3409 
Q 3638 3234 3781 2919 
z
" transform="scale(0.015625)"/>
       <path id="DejaVuSans-Bold-6c" d="M 538 4863 
L 1656 4863 
L 1656 0 
L 538 0 
L 538 4863 
z
" transform="scale(0.015625)"/>
       <path id="DejaVuSans-Bold-65" d="M 4031 1759 
L 4031 1441 
L 1416 1441 
Q 1456 1047 1700 850 
Q 1944 653 2381 653 
Q 2734 653 3104 758 
Q 3475 863 3866 1075 
L 3866 213 
Q 3469 63 3072 -14 
Q 2675 -91 2278 -91 
Q 1328 -91 801 392 
Q 275 875 275 1747 
Q 275 2603 792 3093 
Q 1309 3584 2216 3584 
Q 3041 3584 3536 3087 
Q 4031 2591 4031 1759 
z
M 2881 2131 
Q 2881 2450 2695 2645 
Q 2509 2841 2209 2841 
Q 1884 2841 1681 2658 
Q 1478 2475 1428 2131 
L 2881 2131 
z
" transform="scale(0.015625)"/>
       <path id="DejaVuSans-Bold-2f" d="M 1644 4666 
L 2338 4666 
L 691 -594 
L 0 -594 
L 1644 4666 
z
" transform="scale(0.015625)"/>
       <path id="DejaVuSans-Bold-2a" d="M 3219 3803 
L 2188 3263 
L 3219 2719 
L 2981 2278 
L 1941 2853 
L 1941 1778 
L 1409 1778 
L 1409 2853 
L 366 2278 
L 128 2719 
L 1172 3263 
L 128 3803 
L 366 4244 
L 1409 3675 
L 1409 4750 
L 1941 4750 
L 1941 3675 
L 2981 4244 
L 3219 3803 
z
" transform="scale(0.015625)"/>
       <path id="DejaVuSans-Bold-68" d="M 4056 2131 
L 4056 0 
L 2931 0 
L 2931 347 
L 2931 1625 
Q 2931 2084 2911 2256 
Q 2891 2428 2841 2509 
Q 2775 2619 2662 2680 
Q 2550 2741 2406 2741 
Q 2056 2741 1856 2470 
Q 1656 2200 1656 1722 
L 1656 0 
L 538 0 
L 538 4863 
L 1656 4863 
L 1656 2988 
Q 1909 3294 2193 3439 
Q 2478 3584 2822 3584 
Q 3428 3584 3742 3212 
Q 4056 2841 4056 2131 
z
" transform="scale(0.015625)"/>
      </defs>
      <use xlink:href="#DejaVuSans-Bold-41"/>
      <use xlink:href="#DejaVuSans-Bold-55" x="74.267578"/>
      <use xlink:href="#DejaVuSans-Bold-43" x="155.46875"/>
      <use xlink:href="#DejaVuSans-Bold-20" x="228.857422"/>
      <use xlink:href="#DejaVuSans-Bold-28" x="263.671875"/>
      <use xlink:href="#DejaVuSans-Bold-64" x="309.375"/>
      <use xlink:href="#DejaVuSans-Bold-33" x="380.957031"/>
      <use xlink:href="#DejaVuSans-Bold-67" x="450.537109"/>
      <use xlink:href="#DejaVuSans-Bold-29" x="522.119141"/>
      <use xlink:href="#DejaVuSans-Bold-20" x="567.822266"/>
      <use xlink:href="#DejaVuSans-Bold-5b" x="602.636719"/>
      <use xlink:href="#DejaVuSans-Bold-b5" x="648.339844"/>
      <use xlink:href="#DejaVuSans-Bold-6d" x="721.923828"/>
      <use xlink:href="#DejaVuSans-Bold-6f" x="826.123047"/>
      <use xlink:href="#DejaVuSans-Bold-6c" x="894.824219"/>
      <use xlink:href="#DejaVuSans-Bold-65" x="929.101562"/>
      <use xlink:href="#DejaVuSans-Bold-2f" x="996.923828"/>
      <use xlink:href="#DejaVuSans-Bold-6c" x="1033.447266"/>
      <use xlink:href="#DejaVuSans-Bold-2a" x="1067.724609"/>
      <use xlink:href="#DejaVuSans-Bold-68" x="1120.019531"/>
      <use xlink:href="#DejaVuSans-Bold-72" x="1191.210938"/>
      <use xlink:href="#DejaVuSans-Bold-5d" x="1240.527344"/>
     </g>
    </g>
   </g>
   <g id="line2d_28">
    <path d="M 231.165271 393.047957 
L 231.165271 37.395792 
" clip-path="url(#p28d9f733c9)" style="fill: none; stroke-dasharray: 5.55,2.4; stroke-dashoffset: 0; stroke: #808080; stroke-width: 1.5"/>
   </g>
   <g id="line2d_29">
    <path d="M 59.540593 327.137053 
L 97.67941 325.769797 
L 135.818227 324.926279 
L 173.957045 324.547966 
L 212.095862 324.414395 
L 231.165271 324.399901 
L 250.234679 324.425586 
L 288.373497 324.483242 
L 326.512314 324.459721 
L 364.651131 324.476448 
L 402.789948 324.441745 
" clip-path="url(#p28d9f733c9)" style="fill: none; stroke: #000000; stroke-width: 1.5; stroke-linecap: square"/>
    <defs>
     <path id="m11a2e543bc" d="M 0 3 
C 0.795609 3 1.55874 2.683901 2.12132 2.12132 
C 2.683901 1.55874 3 0.795609 3 0 
C 3 -0.795609 2.683901 -1.55874 2.12132 -2.12132 
C 1.55874 -2.683901 0.795609 -3 0 -3 
C -0.795609 -3 -1.55874 -2.683901 -2.12132 -2.12132 
C -2.683901 -1.55874 -3 -0.795609 -3 0 
C -3 0.795609 -2.683901 1.55874 -2.12132 2.12132 
C -1.55874 2.683901 -0.795609 3 0 3 
z
" style="stroke: #000000"/>
    </defs>
    <g clip-path="url(#p28d9f733c9)">
     <use xlink:href="#m11a2e543bc" x="59.540593" y="327.137053" style="stroke: #000000"/>
     <use xlink:href="#m11a2e543bc" x="97.67941" y="325.769797" style="stroke: #000000"/>
     <use xlink:href="#m11a2e543bc" x="135.818227" y="324.926279" style="stroke: #000000"/>
     <use xlink:href="#m11a2e543bc" x="173.957045" y="324.547966" style="stroke: #000000"/>
     <use xlink:href="#m11a2e543bc" x="212.095862" y="324.414395" style="stroke: #000000"/>
     <use xlink:href="#m11a2e543bc" x="231.165271" y="324.399901" style="stroke: #000000"/>
     <use xlink:href="#m11a2e543bc" x="250.234679" y="324.425586" style="stroke: #000000"/>
     <use xlink:href="#m11a2e543bc" x="288.373497" y="324.483242" style="stroke: #000000"/>
     <use xlink:href="#m11a2e543bc" x="326.512314" y="324.459721" style="stroke: #000000"/>
     <use xlink:href="#m11a2e543bc" x="364.651131" y="324.476448" style="stroke: #000000"/>
     <use xlink:href="#m11a2e543bc" x="402.789948" y="324.441745" style="stroke: #000000"/>
    </g>
   </g>
   <g id="line2d_30">
    <path d="M 59.540593 297.05017 
L 97.67941 295.35857 
L 135.818227 294.308734 
L 173.957045 293.934043 
L 212.095862 293.767271 
L 231.165271 293.746916 
L 250.234679 293.776022 
L 288.373497 293.842825 
L 326.512314 293.81105 
L 364.651131 293.829819 
L 402.789948 293.785984 
" clip-path="url(#p28d9f733c9)" style="fill: none; stroke: #66c2a4; stroke-width: 1.5; stroke-linecap: square"/>
    <defs>
     <path id="m49d3b63256" d="M 0 3 
C 0.795609 3 1.55874 2.683901 2.12132 2.12132 
C 2.683901 1.55874 3 0.795609 3 0 
C 3 -0.795609 2.683901 -1.55874 2.12132 -2.12132 
C 1.55874 -2.683901 0.795609 -3 0 -3 
C -0.795609 -3 -1.55874 -2.683901 -2.12132 -2.12132 
C -2.683901 -1.55874 -3 -0.795609 -3 0 
C -3 0.795609 -2.683901 1.55874 -2.12132 2.12132 
C -1.55874 2.683901 -0.795609 3 0 3 
z
" style="stroke: #000000"/>
    </defs>
    <g clip-path="url(#p28d9f733c9)">
     <use xlink:href="#m49d3b63256" x="59.540593" y="297.05017" style="fill: #66c2a4; stroke: #000000"/>
     <use xlink:href="#m49d3b63256" x="97.67941" y="295.35857" style="fill: #66c2a4; stroke: #000000"/>
     <use xlink:href="#m49d3b63256" x="135.818227" y="294.308734" style="fill: #66c2a4; stroke: #000000"/>
     <use xlink:href="#m49d3b63256" x="173.957045" y="293.934043" style="fill: #66c2a4; stroke: #000000"/>
     <use xlink:href="#m49d3b63256" x="212.095862" y="293.767271" style="fill: #66c2a4; stroke: #000000"/>
     <use xlink:href="#m49d3b63256" x="231.165271" y="293.746916" style="fill: #66c2a4; stroke: #000000"/>
     <use xlink:href="#m49d3b63256" x="250.234679" y="293.776022" style="fill: #66c2a4; stroke: #000000"/>
     <use xlink:href="#m49d3b63256" x="288.373497" y="293.842825" style="fill: #66c2a4; stroke: #000000"/>
     <use xlink:href="#m49d3b63256" x="326.512314" y="293.81105" style="fill: #66c2a4; stroke: #000000"/>
     <use xlink:href="#m49d3b63256" x="364.651131" y="293.829819" style="fill: #66c2a4; stroke: #000000"/>
     <use xlink:href="#m49d3b63256" x="402.789948" y="293.785984" style="fill: #66c2a4; stroke: #000000"/>
    </g>
   </g>
   <g id="line2d_31">
    <path d="M 59.540593 189.384956 
L 97.67941 187.197452 
L 135.818227 186.137378 
L 173.957045 185.857728 
L 212.095862 185.717619 
L 231.165271 185.785115 
L 250.234679 185.688868 
L 288.373497 185.743633 
L 326.512314 185.687684 
L 364.651131 185.586667 
L 402.789948 185.639866 
" clip-path="url(#p28d9f733c9)" style="fill: none; stroke: #2ca25f; stroke-width: 1.5; stroke-linecap: square"/>
    <defs>
     <path id="mf91447a64a" d="M 0 3 
C 0.795609 3 1.55874 2.683901 2.12132 2.12132 
C 2.683901 1.55874 3 0.795609 3 0 
C 3 -0.795609 2.683901 -1.55874 2.12132 -2.12132 
C 1.55874 -2.683901 0.795609 -3 0 -3 
C -0.795609 -3 -1.55874 -2.683901 -2.12132 -2.12132 
C -2.683901 -1.55874 -3 -0.795609 -3 0 
C -3 0.795609 -2.683901 1.55874 -2.12132 2.12132 
C -1.55874 2.683901 -0.795609 3 0 3 
z
" style="stroke: #000000"/>
    </defs>
    <g clip-path="url(#p28d9f733c9)">
     <use xlink:href="#mf91447a64a" x="59.540593" y="189.384956" style="fill: #2ca25f; stroke: #000000"/>
     <use xlink:href="#mf91447a64a" x="97.67941" y="187.197452" style="fill: #2ca25f; stroke: #000000"/>
     <use xlink:href="#mf91447a64a" x="135.818227" y="186.137378" style="fill: #2ca25f; stroke: #000000"/>
     <use xlink:href="#mf91447a64a" x="173.957045" y="185.857728" style="fill: #2ca25f; stroke: #000000"/>
     <use xlink:href="#mf91447a64a" x="212.095862" y="185.717619" style="fill: #2ca25f; stroke: #000000"/>
     <use xlink:href="#mf91447a64a" x="231.165271" y="185.785115" style="fill: #2ca25f; stroke: #000000"/>
     <use xlink:href="#mf91447a64a" x="250.234679" y="185.688868" style="fill: #2ca25f; stroke: #000000"/>
     <use xlink:href="#mf91447a64a" x="288.373497" y="185.743633" style="fill: #2ca25f; stroke: #000000"/>
     <use xlink:href="#mf91447a64a" x="326.512314" y="185.687684" style="fill: #2ca25f; stroke: #000000"/>
     <use xlink:href="#mf91447a64a" x="364.651131" y="185.586667" style="fill: #2ca25f; stroke: #000000"/>
     <use xlink:href="#mf91447a64a" x="402.789948" y="185.639866" style="fill: #2ca25f; stroke: #000000"/>
    </g>
   </g>
   <g id="line2d_32">
    <path d="M 59.540593 58.278432 
L 97.67941 56.120651 
L 135.818227 55.077435 
L 173.957045 54.757385 
L 212.095862 54.620861 
L 231.165271 54.647446 
L 250.234679 54.520906 
L 288.373497 54.418526 
L 326.512314 54.447811 
L 364.651131 54.33161 
L 402.789948 54.373982 
" clip-path="url(#p28d9f733c9)" style="fill: none; stroke: #006d2c; stroke-width: 1.5; stroke-linecap: square"/>
    <defs>
     <path id="m79607cc26e" d="M 0 3 
C 0.795609 3 1.55874 2.683901 2.12132 2.12132 
C 2.683901 1.55874 3 0.795609 3 0 
C 3 -0.795609 2.683901 -1.55874 2.12132 -2.12132 
C 1.55874 -2.683901 0.795609 -3 0 -3 
C -0.795609 -3 -1.55874 -2.683901 -2.12132 -2.12132 
C -2.683901 -1.55874 -3 -0.795609 -3 0 
C -3 0.795609 -2.683901 1.55874 -2.12132 2.12132 
C -1.55874 2.683901 -0.795609 3 0 3 
z
" style="stroke: #000000"/>
    </defs>
    <g clip-path="url(#p28d9f733c9)">
     <use xlink:href="#m79607cc26e" x="59.540593" y="58.278432" style="fill: #006d2c; stroke: #000000"/>
     <use xlink:href="#m79607cc26e" x="97.67941" y="56.120651" style="fill: #006d2c; stroke: #000000"/>
     <use xlink:href="#m79607cc26e" x="135.818227" y="55.077435" style="fill: #006d2c; stroke: #000000"/>
     <use xlink:href="#m79607cc26e" x="173.957045" y="54.757385" style="fill: #006d2c; stroke: #000000"/>
     <use xlink:href="#m79607cc26e" x="212.095862" y="54.620861" style="fill: #006d2c; stroke: #000000"/>
     <use xlink:href="#m79607cc26e" x="231.165271" y="54.647446" style="fill: #006d2c; stroke: #000000"/>
     <use xlink:href="#m79607cc26e" x="250.234679" y="54.520906" style="fill: #006d2c; stroke: #000000"/>
     <use xlink:href="#m79607cc26e" x="288.373497" y="54.418526" style="fill: #006d2c; stroke: #000000"/>
     <use xlink:href="#m79607cc26e" x="326.512314" y="54.447811" style="fill: #006d2c; stroke: #000000"/>
     <use xlink:href="#m79607cc26e" x="364.651131" y="54.33161" style="fill: #006d2c; stroke: #000000"/>
     <use xlink:href="#m79607cc26e" x="402.789948" y="54.373982" style="fill: #006d2c; stroke: #000000"/>
    </g>
   </g>
   <g id="patch_3">
    <path d="M 42.378125 393.047957 
L 42.378125 37.395793 
" style="fill: none; stroke: #000000; stroke-width: 0.8; stroke-linejoin: miter; stroke-linecap: square"/>
   </g>
   <g id="patch_4">
    <path d="M 419.952416 393.047957 
L 419.952416 37.395793 
" style="fill: none; stroke: #000000; stroke-width: 0.8; stroke-linejoin: miter; stroke-linecap: square"/>
   </g>
   <g id="patch_5">
    <path d="M 42.378125 393.047957 
L 419.952416 393.047957 
" style="fill: none; stroke: #000000; stroke-width: 0.8; stroke-linejoin: miter; stroke-linecap: square"/>
   </g>
   <g id="patch_6">
    <path d="M 42.378125 37.395792 
L 419.952416 37.395792 
" style="fill: none; stroke: #000000; stroke-width: 0.8; stroke-linejoin: miter; stroke-linecap: square"/>
   </g>
  </g>
  <g id="axes_2">
   <g id="patch_7">
    <path d="M 487.625229 393.047957 
L 865.19952 393.047957 
L 865.19952 37.395792 
L 487.625229 37.395792 
z
" style="fill: #ffffff"/>
   </g>
   <g id="matplotlib.axis_3">
    <g id="xtick_22">
     <g id="line2d_33">
      <g>
       <use xlink:href="#me51f7fcbcd" x="504.787697" y="393.047957" style="stroke: #000000; stroke-width: 0.8"/>
      </g>
     </g>
     <g id="text_12">
      <!-- $\mathdefault{10^{-1}}$ -->
      <g transform="translate(487.162697 411.445614) scale(0.15 -0.15)">
       <use xlink:href="#DejaVuSans-31" transform="translate(0 0.684375)"/>
       <use xlink:href="#DejaVuSans-30" transform="translate(63.623047 0.684375)"/>
       <use xlink:href="#DejaVuSans-2212" transform="translate(128.203125 38.965625) scale(0.7)"/>
       <use xlink:href="#DejaVuSans-31" transform="translate(186.855469 38.965625) scale(0.7)"/>
      </g>
     </g>
    </g>
    <g id="xtick_23">
     <g id="line2d_34">
      <g>
       <use xlink:href="#me51f7fcbcd" x="676.412374" y="393.047957" style="stroke: #000000; stroke-width: 0.8"/>
      </g>
     </g>
     <g id="text_13">
      <!-- $\mathdefault{10^{0}}$ -->
      <g transform="translate(663.212374 411.445614) scale(0.15 -0.15)">
       <use xlink:href="#DejaVuSans-31" transform="translate(0 0.765625)"/>
       <use xlink:href="#DejaVuSans-30" transform="translate(63.623047 0.765625)"/>
       <use xlink:href="#DejaVuSans-30" transform="translate(128.203125 39.046875) scale(0.7)"/>
      </g>
     </g>
    </g>
    <g id="xtick_24">
     <g id="line2d_35">
      <g>
       <use xlink:href="#me51f7fcbcd" x="848.037052" y="393.047957" style="stroke: #000000; stroke-width: 0.8"/>
      </g>
     </g>
     <g id="text_14">
      <!-- $\mathdefault{10^{1}}$ -->
      <g transform="translate(834.837052 411.445614) scale(0.15 -0.15)">
       <use xlink:href="#DejaVuSans-31" transform="translate(0 0.684375)"/>
       <use xlink:href="#DejaVuSans-30" transform="translate(63.623047 0.684375)"/>
       <use xlink:href="#DejaVuSans-31" transform="translate(128.203125 38.965625) scale(0.7)"/>
      </g>
     </g>
    </g>
    <g id="xtick_25">
     <g id="line2d_36">
      <g>
       <use xlink:href="#m32d8141d03" x="488.155547" y="393.047957" style="stroke: #000000; stroke-width: 0.6"/>
      </g>
     </g>
    </g>
    <g id="xtick_26">
     <g id="line2d_37">
      <g>
       <use xlink:href="#m32d8141d03" x="496.934582" y="393.047957" style="stroke: #000000; stroke-width: 0.6"/>
      </g>
     </g>
    </g>
    <g id="xtick_27">
     <g id="line2d_38">
      <g>
       <use xlink:href="#m32d8141d03" x="556.451873" y="393.047957" style="stroke: #000000; stroke-width: 0.6"/>
      </g>
     </g>
    </g>
    <g id="xtick_28">
     <g id="line2d_39">
      <g>
       <use xlink:href="#m32d8141d03" x="586.673478" y="393.047957" style="stroke: #000000; stroke-width: 0.6"/>
      </g>
     </g>
    </g>
    <g id="xtick_29">
     <g id="line2d_40">
      <g>
       <use xlink:href="#m32d8141d03" x="608.116049" y="393.047957" style="stroke: #000000; stroke-width: 0.6"/>
      </g>
     </g>
    </g>
    <g id="xtick_30">
     <g id="line2d_41">
      <g>
       <use xlink:href="#m32d8141d03" x="624.748198" y="393.047957" style="stroke: #000000; stroke-width: 0.6"/>
      </g>
     </g>
    </g>
    <g id="xtick_31">
     <g id="line2d_42">
      <g>
       <use xlink:href="#m32d8141d03" x="638.337654" y="393.047957" style="stroke: #000000; stroke-width: 0.6"/>
      </g>
     </g>
    </g>
    <g id="xtick_32">
     <g id="line2d_43">
      <g>
       <use xlink:href="#m32d8141d03" x="649.827375" y="393.047957" style="stroke: #000000; stroke-width: 0.6"/>
      </g>
     </g>
    </g>
    <g id="xtick_33">
     <g id="line2d_44">
      <g>
       <use xlink:href="#m32d8141d03" x="659.780225" y="393.047957" style="stroke: #000000; stroke-width: 0.6"/>
      </g>
     </g>
    </g>
    <g id="xtick_34">
     <g id="line2d_45">
      <g>
       <use xlink:href="#m32d8141d03" x="668.55926" y="393.047957" style="stroke: #000000; stroke-width: 0.6"/>
      </g>
     </g>
    </g>
    <g id="xtick_35">
     <g id="line2d_46">
      <g>
       <use xlink:href="#m32d8141d03" x="728.07655" y="393.047957" style="stroke: #000000; stroke-width: 0.6"/>
      </g>
     </g>
    </g>
    <g id="xtick_36">
     <g id="line2d_47">
      <g>
       <use xlink:href="#m32d8141d03" x="758.298156" y="393.047957" style="stroke: #000000; stroke-width: 0.6"/>
      </g>
     </g>
    </g>
    <g id="xtick_37">
     <g id="line2d_48">
      <g>
       <use xlink:href="#m32d8141d03" x="779.740726" y="393.047957" style="stroke: #000000; stroke-width: 0.6"/>
      </g>
     </g>
    </g>
    <g id="xtick_38">
     <g id="line2d_49">
      <g>
       <use xlink:href="#m32d8141d03" x="796.372876" y="393.047957" style="stroke: #000000; stroke-width: 0.6"/>
      </g>
     </g>
    </g>
    <g id="xtick_39">
     <g id="line2d_50">
      <g>
       <use xlink:href="#m32d8141d03" x="809.962332" y="393.047957" style="stroke: #000000; stroke-width: 0.6"/>
      </g>
     </g>
    </g>
    <g id="xtick_40">
     <g id="line2d_51">
      <g>
       <use xlink:href="#m32d8141d03" x="821.452053" y="393.047957" style="stroke: #000000; stroke-width: 0.6"/>
      </g>
     </g>
    </g>
    <g id="xtick_41">
     <g id="line2d_52">
      <g>
       <use xlink:href="#m32d8141d03" x="831.404902" y="393.047957" style="stroke: #000000; stroke-width: 0.6"/>
      </g>
     </g>
    </g>
    <g id="xtick_42">
     <g id="line2d_53">
      <g>
       <use xlink:href="#m32d8141d03" x="840.183938" y="393.047957" style="stroke: #000000; stroke-width: 0.6"/>
      </g>
     </g>
    </g>
    <g id="text_15">
     <!-- absorption activity [-] -->
     <g transform="translate(583.864718 429.962801) scale(0.15 -0.15)">
      <use xlink:href="#DejaVuSans-Bold-61"/>
      <use xlink:href="#DejaVuSans-Bold-62" x="67.480469"/>
      <use xlink:href="#DejaVuSans-Bold-73" x="139.0625"/>
      <use xlink:href="#DejaVuSans-Bold-6f" x="198.583984"/>
      <use xlink:href="#DejaVuSans-Bold-72" x="267.285156"/>
      <use xlink:href="#DejaVuSans-Bold-70" x="316.601562"/>
      <use xlink:href="#DejaVuSans-Bold-74" x="388.183594"/>
      <use xlink:href="#DejaVuSans-Bold-69" x="435.986328"/>
      <use xlink:href="#DejaVuSans-Bold-6f" x="470.263672"/>
      <use xlink:href="#DejaVuSans-Bold-6e" x="538.964844"/>
      <use xlink:href="#DejaVuSans-Bold-20" x="610.15625"/>
      <use xlink:href="#DejaVuSans-Bold-61" x="644.970703"/>
      <use xlink:href="#DejaVuSans-Bold-63" x="712.451172"/>
      <use xlink:href="#DejaVuSans-Bold-74" x="771.728516"/>
      <use xlink:href="#DejaVuSans-Bold-69" x="819.53125"/>
      <use xlink:href="#DejaVuSans-Bold-76" x="853.808594"/>
      <use xlink:href="#DejaVuSans-Bold-69" x="918.994141"/>
      <use xlink:href="#DejaVuSans-Bold-74" x="953.271484"/>
      <use xlink:href="#DejaVuSans-Bold-79" x="1001.074219"/>
      <use xlink:href="#DejaVuSans-Bold-20" x="1066.259766"/>
      <use xlink:href="#DejaVuSans-Bold-5b" x="1101.074219"/>
      <use xlink:href="#DejaVuSans-Bold-2d" x="1146.777344"/>
      <use xlink:href="#DejaVuSans-Bold-5d" x="1188.28125"/>
     </g>
    </g>
   </g>
   <g id="matplotlib.axis_4">
    <g id="ytick_7">
     <g id="line2d_54">
      <g>
       <use xlink:href="#me7f37915e5" x="487.625229" y="393.047957" style="stroke: #000000; stroke-width: 0.8"/>
      </g>
     </g>
     <g id="text_16">
      <!-- 0.00 -->
      <g transform="translate(447.226791 398.746786) scale(0.15 -0.15)">
       <defs>
        <path id="DejaVuSans-2e" d="M 684 794 
L 1344 794 
L 1344 0 
L 684 0 
L 684 794 
z
" transform="scale(0.015625)"/>
       </defs>
       <use xlink:href="#DejaVuSans-30"/>
       <use xlink:href="#DejaVuSans-2e" x="63.623047"/>
       <use xlink:href="#DejaVuSans-30" x="95.410156"/>
       <use xlink:href="#DejaVuSans-30" x="159.033203"/>
      </g>
     </g>
    </g>
    <g id="ytick_8">
     <g id="line2d_55">
      <g>
       <use xlink:href="#me7f37915e5" x="487.625229" y="340.230844" style="stroke: #000000; stroke-width: 0.8"/>
      </g>
     </g>
     <g id="text_17">
      <!-- 0.05 -->
      <g transform="translate(447.226791 345.929672) scale(0.15 -0.15)">
       <use xlink:href="#DejaVuSans-30"/>
       <use xlink:href="#DejaVuSans-2e" x="63.623047"/>
       <use xlink:href="#DejaVuSans-30" x="95.410156"/>
       <use xlink:href="#DejaVuSans-35" x="159.033203"/>
      </g>
     </g>
    </g>
    <g id="ytick_9">
     <g id="line2d_56">
      <g>
       <use xlink:href="#me7f37915e5" x="487.625229" y="287.41373" style="stroke: #000000; stroke-width: 0.8"/>
      </g>
     </g>
     <g id="text_18">
      <!-- 0.10 -->
      <g transform="translate(447.226791 293.112558) scale(0.15 -0.15)">
       <use xlink:href="#DejaVuSans-30"/>
       <use xlink:href="#DejaVuSans-2e" x="63.623047"/>
       <use xlink:href="#DejaVuSans-31" x="95.410156"/>
       <use xlink:href="#DejaVuSans-30" x="159.033203"/>
      </g>
     </g>
    </g>
    <g id="ytick_10">
     <g id="line2d_57">
      <g>
       <use xlink:href="#me7f37915e5" x="487.625229" y="234.596616" style="stroke: #000000; stroke-width: 0.8"/>
      </g>
     </g>
     <g id="text_19">
      <!-- 0.15 -->
      <g transform="translate(447.226791 240.295444) scale(0.15 -0.15)">
       <use xlink:href="#DejaVuSans-30"/>
       <use xlink:href="#DejaVuSans-2e" x="63.623047"/>
       <use xlink:href="#DejaVuSans-31" x="95.410156"/>
       <use xlink:href="#DejaVuSans-35" x="159.033203"/>
      </g>
     </g>
    </g>
    <g id="ytick_11">
     <g id="line2d_58">
      <g>
       <use xlink:href="#me7f37915e5" x="487.625229" y="181.779502" style="stroke: #000000; stroke-width: 0.8"/>
      </g>
     </g>
     <g id="text_20">
      <!-- 0.20 -->
      <g transform="translate(447.226791 187.47833) scale(0.15 -0.15)">
       <use xlink:href="#DejaVuSans-30"/>
       <use xlink:href="#DejaVuSans-2e" x="63.623047"/>
       <use xlink:href="#DejaVuSans-32" x="95.410156"/>
       <use xlink:href="#DejaVuSans-30" x="159.033203"/>
      </g>
     </g>
    </g>
    <g id="ytick_12">
     <g id="line2d_59">
      <g>
       <use xlink:href="#me7f37915e5" x="487.625229" y="128.962388" style="stroke: #000000; stroke-width: 0.8"/>
      </g>
     </g>
     <g id="text_21">
      <!-- 0.25 -->
      <g transform="translate(447.226791 134.661217) scale(0.15 -0.15)">
       <use xlink:href="#DejaVuSans-30"/>
       <use xlink:href="#DejaVuSans-2e" x="63.623047"/>
       <use xlink:href="#DejaVuSans-32" x="95.410156"/>
       <use xlink:href="#DejaVuSans-35" x="159.033203"/>
      </g>
     </g>
    </g>
    <g id="ytick_13">
     <g id="line2d_60">
      <g>
       <use xlink:href="#me7f37915e5" x="487.625229" y="76.145275" style="stroke: #000000; stroke-width: 0.8"/>
      </g>
     </g>
     <g id="text_22">
      <!-- 0.30 -->
      <g transform="translate(447.226791 81.844103) scale(0.15 -0.15)">
       <use xlink:href="#DejaVuSans-30"/>
       <use xlink:href="#DejaVuSans-2e" x="63.623047"/>
       <use xlink:href="#DejaVuSans-33" x="95.410156"/>
       <use xlink:href="#DejaVuSans-30" x="159.033203"/>
      </g>
     </g>
    </g>
    <g id="text_23">
     <!-- Cmax (d3g) [µmole/l] -->
     <g transform="translate(439.990072 304.783594) rotate(-90) scale(0.15 -0.15)">
      <defs>
       <path id="DejaVuSans-Bold-78" d="M 1422 1791 
L 159 3500 
L 1344 3500 
L 2059 2463 
L 2784 3500 
L 3969 3500 
L 2706 1797 
L 4031 0 
L 2847 0 
L 2059 1106 
L 1281 0 
L 97 0 
L 1422 1791 
z
" transform="scale(0.015625)"/>
      </defs>
      <use xlink:href="#DejaVuSans-Bold-43"/>
      <use xlink:href="#DejaVuSans-Bold-6d" x="73.388672"/>
      <use xlink:href="#DejaVuSans-Bold-61" x="177.587891"/>
      <use xlink:href="#DejaVuSans-Bold-78" x="245.068359"/>
      <use xlink:href="#DejaVuSans-Bold-20" x="309.570312"/>
      <use xlink:href="#DejaVuSans-Bold-28" x="344.384766"/>
      <use xlink:href="#DejaVuSans-Bold-64" x="390.087891"/>
      <use xlink:href="#DejaVuSans-Bold-33" x="461.669922"/>
      <use xlink:href="#DejaVuSans-Bold-67" x="531.25"/>
      <use xlink:href="#DejaVuSans-Bold-29" x="602.832031"/>
      <use xlink:href="#DejaVuSans-Bold-20" x="648.535156"/>
      <use xlink:href="#DejaVuSans-Bold-5b" x="683.349609"/>
      <use xlink:href="#DejaVuSans-Bold-b5" x="729.052734"/>
      <use xlink:href="#DejaVuSans-Bold-6d" x="802.636719"/>
      <use xlink:href="#DejaVuSans-Bold-6f" x="906.835938"/>
      <use xlink:href="#DejaVuSans-Bold-6c" x="975.537109"/>
      <use xlink:href="#DejaVuSans-Bold-65" x="1009.814453"/>
      <use xlink:href="#DejaVuSans-Bold-2f" x="1077.636719"/>
      <use xlink:href="#DejaVuSans-Bold-6c" x="1114.160156"/>
      <use xlink:href="#DejaVuSans-Bold-5d" x="1148.4375"/>
     </g>
    </g>
   </g>
   <g id="line2d_61">
    <path d="M 676.412374 393.047957 
L 676.412374 37.395792 
" clip-path="url(#pb837edc03f)" style="fill: none; stroke-dasharray: 5.55,2.4; stroke-dashoffset: 0; stroke: #808080; stroke-width: 1.5"/>
   </g>
   <g id="line2d_62">
    <path d="M 504.787697 317.845033 
L 542.926514 297.027887 
L 581.065331 276.976921 
L 619.204148 260.246318 
L 657.342966 248.579842 
L 676.412374 244.759523 
L 695.481783 242.077729 
L 733.6206 239.342592 
L 771.759418 238.339162 
L 809.898235 238.046179 
L 848.037052 237.906647 
" clip-path="url(#pb837edc03f)" style="fill: none; stroke: #000000; stroke-width: 1.5; stroke-linecap: square"/>
    <g clip-path="url(#pb837edc03f)">
     <use xlink:href="#m11a2e543bc" x="504.787697" y="317.845033" style="stroke: #000000"/>
     <use xlink:href="#m11a2e543bc" x="542.926514" y="297.027887" style="stroke: #000000"/>
     <use xlink:href="#m11a2e543bc" x="581.065331" y="276.976921" style="stroke: #000000"/>
     <use xlink:href="#m11a2e543bc" x="619.204148" y="260.246318" style="stroke: #000000"/>
     <use xlink:href="#m11a2e543bc" x="657.342966" y="248.579842" style="stroke: #000000"/>
     <use xlink:href="#m11a2e543bc" x="676.412374" y="244.759523" style="stroke: #000000"/>
     <use xlink:href="#m11a2e543bc" x="695.481783" y="242.077729" style="stroke: #000000"/>
     <use xlink:href="#m11a2e543bc" x="733.6206" y="239.342592" style="stroke: #000000"/>
     <use xlink:href="#m11a2e543bc" x="771.759418" y="238.339162" style="stroke: #000000"/>
     <use xlink:href="#m11a2e543bc" x="809.898235" y="238.046179" style="stroke: #000000"/>
     <use xlink:href="#m11a2e543bc" x="848.037052" y="237.906647" style="stroke: #000000"/>
    </g>
   </g>
   <g id="line2d_63">
    <path d="M 504.787697 290.736504 
L 542.926514 264.625981 
L 581.065331 240.560132 
L 619.204148 221.591658 
L 657.342966 209.238799 
L 676.412374 205.480073 
L 695.481783 202.960211 
L 733.6206 200.528182 
L 771.759418 199.673895 
L 809.898235 199.426427 
L 848.037052 199.300153 
" clip-path="url(#pb837edc03f)" style="fill: none; stroke: #66c2a4; stroke-width: 1.5; stroke-linecap: square"/>
    <g clip-path="url(#pb837edc03f)">
     <use xlink:href="#m49d3b63256" x="504.787697" y="290.736504" style="fill: #66c2a4; stroke: #000000"/>
     <use xlink:href="#m49d3b63256" x="542.926514" y="264.625981" style="fill: #66c2a4; stroke: #000000"/>
     <use xlink:href="#m49d3b63256" x="581.065331" y="240.560132" style="fill: #66c2a4; stroke: #000000"/>
     <use xlink:href="#m49d3b63256" x="619.204148" y="221.591658" style="fill: #66c2a4; stroke: #000000"/>
     <use xlink:href="#m49d3b63256" x="657.342966" y="209.238799" style="fill: #66c2a4; stroke: #000000"/>
     <use xlink:href="#m49d3b63256" x="676.412374" y="205.480073" style="fill: #66c2a4; stroke: #000000"/>
     <use xlink:href="#m49d3b63256" x="695.481783" y="202.960211" style="fill: #66c2a4; stroke: #000000"/>
     <use xlink:href="#m49d3b63256" x="733.6206" y="200.528182" style="fill: #66c2a4; stroke: #000000"/>
     <use xlink:href="#m49d3b63256" x="771.759418" y="199.673895" style="fill: #66c2a4; stroke: #000000"/>
     <use xlink:href="#m49d3b63256" x="809.898235" y="199.426427" style="fill: #66c2a4; stroke: #000000"/>
     <use xlink:href="#m49d3b63256" x="848.037052" y="199.300153" style="fill: #66c2a4; stroke: #000000"/>
    </g>
   </g>
   <g id="line2d_64">
    <path d="M 504.787697 217.839596 
L 542.926514 182.086883 
L 581.065331 152.321639 
L 619.204148 131.579758 
L 657.342966 120.079163 
L 676.412374 117.064102 
L 695.481783 115.213442 
L 733.6206 113.557059 
L 771.759418 112.990301 
L 809.898235 112.818552 
L 848.037052 112.735672 
" clip-path="url(#pb837edc03f)" style="fill: none; stroke: #2ca25f; stroke-width: 1.5; stroke-linecap: square"/>
    <g clip-path="url(#pb837edc03f)">
     <use xlink:href="#mf91447a64a" x="504.787697" y="217.839596" style="fill: #2ca25f; stroke: #000000"/>
     <use xlink:href="#mf91447a64a" x="542.926514" y="182.086883" style="fill: #2ca25f; stroke: #000000"/>
     <use xlink:href="#mf91447a64a" x="581.065331" y="152.321639" style="fill: #2ca25f; stroke: #000000"/>
     <use xlink:href="#mf91447a64a" x="619.204148" y="131.579758" style="fill: #2ca25f; stroke: #000000"/>
     <use xlink:href="#mf91447a64a" x="657.342966" y="120.079163" style="fill: #2ca25f; stroke: #000000"/>
     <use xlink:href="#mf91447a64a" x="676.412374" y="117.064102" style="fill: #2ca25f; stroke: #000000"/>
     <use xlink:href="#mf91447a64a" x="695.481783" y="115.213442" style="fill: #2ca25f; stroke: #000000"/>
     <use xlink:href="#mf91447a64a" x="733.6206" y="113.557059" style="fill: #2ca25f; stroke: #000000"/>
     <use xlink:href="#mf91447a64a" x="771.759418" y="112.990301" style="fill: #2ca25f; stroke: #000000"/>
     <use xlink:href="#mf91447a64a" x="809.898235" y="112.818552" style="fill: #2ca25f; stroke: #000000"/>
     <use xlink:href="#mf91447a64a" x="848.037052" y="112.735672" style="fill: #2ca25f; stroke: #000000"/>
    </g>
   </g>
   <g id="line2d_65">
    <path d="M 504.787697 158.797541 
L 542.926514 119.433677 
L 581.065331 88.919224 
L 619.204148 69.430432 
L 657.342966 59.765382 
L 676.412374 57.461226 
L 695.481783 56.104236 
L 733.6206 54.917014 
L 771.759418 54.516994 
L 809.898235 54.381552 
L 848.037052 54.33161 
" clip-path="url(#pb837edc03f)" style="fill: none; stroke: #006d2c; stroke-width: 1.5; stroke-linecap: square"/>
    <g clip-path="url(#pb837edc03f)">
     <use xlink:href="#m79607cc26e" x="504.787697" y="158.797541" style="fill: #006d2c; stroke: #000000"/>
     <use xlink:href="#m79607cc26e" x="542.926514" y="119.433677" style="fill: #006d2c; stroke: #000000"/>
     <use xlink:href="#m79607cc26e" x="581.065331" y="88.919224" style="fill: #006d2c; stroke: #000000"/>
     <use xlink:href="#m79607cc26e" x="619.204148" y="69.430432" style="fill: #006d2c; stroke: #000000"/>
     <use xlink:href="#m79607cc26e" x="657.342966" y="59.765382" style="fill: #006d2c; stroke: #000000"/>
     <use xlink:href="#m79607cc26e" x="676.412374" y="57.461226" style="fill: #006d2c; stroke: #000000"/>
     <use xlink:href="#m79607cc26e" x="695.481783" y="56.104236" style="fill: #006d2c; stroke: #000000"/>
     <use xlink:href="#m79607cc26e" x="733.6206" y="54.917014" style="fill: #006d2c; stroke: #000000"/>
     <use xlink:href="#m79607cc26e" x="771.759418" y="54.516994" style="fill: #006d2c; stroke: #000000"/>
     <use xlink:href="#m79607cc26e" x="809.898235" y="54.381552" style="fill: #006d2c; stroke: #000000"/>
     <use xlink:href="#m79607cc26e" x="848.037052" y="54.33161" style="fill: #006d2c; stroke: #000000"/>
    </g>
   </g>
   <g id="patch_8">
    <path d="M 487.625229 393.047957 
L 487.625229 37.395792 
" style="fill: none; stroke: #000000; stroke-width: 0.8; stroke-linejoin: miter; stroke-linecap: square"/>
   </g>
   <g id="patch_9">
    <path d="M 865.19952 393.047957 
L 865.19952 37.395792 
" style="fill: none; stroke: #000000; stroke-width: 0.8; stroke-linejoin: miter; stroke-linecap: square"/>
   </g>
   <g id="patch_10">
    <path d="M 487.625229 393.047957 
L 865.19952 393.047957 
" style="fill: none; stroke: #000000; stroke-width: 0.8; stroke-linejoin: miter; stroke-linecap: square"/>
   </g>
   <g id="patch_11">
    <path d="M 487.625229 37.395792 
L 865.19952 37.395792 
" style="fill: none; stroke: #000000; stroke-width: 0.8; stroke-linejoin: miter; stroke-linecap: square"/>
   </g>
  </g>
  <g id="text_24">
   <!-- Pharmacokinetic parameters d3g -->
   <g transform="translate(227.959526 26.196094) scale(0.25 -0.25)">
    <defs>
     <path id="DejaVuSans-50" d="M 1259 4147 
L 1259 2394 
L 2053 2394 
Q 2494 2394 2734 2622 
Q 2975 2850 2975 3272 
Q 2975 3691 2734 3919 
Q 2494 4147 2053 4147 
L 1259 4147 
z
M 628 4666 
L 2053 4666 
Q 2838 4666 3239 4311 
Q 3641 3956 3641 3272 
Q 3641 2581 3239 2228 
Q 2838 1875 2053 1875 
L 1259 1875 
L 1259 0 
L 628 0 
L 628 4666 
z
" transform="scale(0.015625)"/>
     <path id="DejaVuSans-68" d="M 3513 2113 
L 3513 0 
L 2938 0 
L 2938 2094 
Q 2938 2591 2744 2837 
Q 2550 3084 2163 3084 
Q 1697 3084 1428 2787 
Q 1159 2491 1159 1978 
L 1159 0 
L 581 0 
L 581 4863 
L 1159 4863 
L 1159 2956 
Q 1366 3272 1645 3428 
Q 1925 3584 2291 3584 
Q 2894 3584 3203 3211 
Q 3513 2838 3513 2113 
z
" transform="scale(0.015625)"/>
     <path id="DejaVuSans-61" d="M 2194 1759 
Q 1497 1759 1228 1600 
Q 959 1441 959 1056 
Q 959 750 1161 570 
Q 1363 391 1709 391 
Q 2188 391 2477 730 
Q 2766 1069 2766 1631 
L 2766 1759 
L 2194 1759 
z
M 3341 1997 
L 3341 0 
L 2766 0 
L 2766 531 
Q 2569 213 2275 61 
Q 1981 -91 1556 -91 
Q 1019 -91 701 211 
Q 384 513 384 1019 
Q 384 1609 779 1909 
Q 1175 2209 1959 2209 
L 2766 2209 
L 2766 2266 
Q 2766 2663 2505 2880 
Q 2244 3097 1772 3097 
Q 1472 3097 1187 3025 
Q 903 2953 641 2809 
L 641 3341 
Q 956 3463 1253 3523 
Q 1550 3584 1831 3584 
Q 2591 3584 2966 3190 
Q 3341 2797 3341 1997 
z
" transform="scale(0.015625)"/>
     <path id="DejaVuSans-72" d="M 2631 2963 
Q 2534 3019 2420 3045 
Q 2306 3072 2169 3072 
Q 1681 3072 1420 2755 
Q 1159 2438 1159 1844 
L 1159 0 
L 581 0 
L 581 3500 
L 1159 3500 
L 1159 2956 
Q 1341 3275 1631 3429 
Q 1922 3584 2338 3584 
Q 2397 3584 2469 3576 
Q 2541 3569 2628 3553 
L 2631 2963 
z
" transform="scale(0.015625)"/>
     <path id="DejaVuSans-6d" d="M 3328 2828 
Q 3544 3216 3844 3400 
Q 4144 3584 4550 3584 
Q 5097 3584 5394 3201 
Q 5691 2819 5691 2113 
L 5691 0 
L 5113 0 
L 5113 2094 
Q 5113 2597 4934 2840 
Q 4756 3084 4391 3084 
Q 3944 3084 3684 2787 
Q 3425 2491 3425 1978 
L 3425 0 
L 2847 0 
L 2847 2094 
Q 2847 2600 2669 2842 
Q 2491 3084 2119 3084 
Q 1678 3084 1418 2786 
Q 1159 2488 1159 1978 
L 1159 0 
L 581 0 
L 581 3500 
L 1159 3500 
L 1159 2956 
Q 1356 3278 1631 3431 
Q 1906 3584 2284 3584 
Q 2666 3584 2933 3390 
Q 3200 3197 3328 2828 
z
" transform="scale(0.015625)"/>
     <path id="DejaVuSans-63" d="M 3122 3366 
L 3122 2828 
Q 2878 2963 2633 3030 
Q 2388 3097 2138 3097 
Q 1578 3097 1268 2742 
Q 959 2388 959 1747 
Q 959 1106 1268 751 
Q 1578 397 2138 397 
Q 2388 397 2633 464 
Q 2878 531 3122 666 
L 3122 134 
Q 2881 22 2623 -34 
Q 2366 -91 2075 -91 
Q 1284 -91 818 406 
Q 353 903 353 1747 
Q 353 2603 823 3093 
Q 1294 3584 2113 3584 
Q 2378 3584 2631 3529 
Q 2884 3475 3122 3366 
z
" transform="scale(0.015625)"/>
     <path id="DejaVuSans-6f" d="M 1959 3097 
Q 1497 3097 1228 2736 
Q 959 2375 959 1747 
Q 959 1119 1226 758 
Q 1494 397 1959 397 
Q 2419 397 2687 759 
Q 2956 1122 2956 1747 
Q 2956 2369 2687 2733 
Q 2419 3097 1959 3097 
z
M 1959 3584 
Q 2709 3584 3137 3096 
Q 3566 2609 3566 1747 
Q 3566 888 3137 398 
Q 2709 -91 1959 -91 
Q 1206 -91 779 398 
Q 353 888 353 1747 
Q 353 2609 779 3096 
Q 1206 3584 1959 3584 
z
" transform="scale(0.015625)"/>
     <path id="DejaVuSans-6b" d="M 581 4863 
L 1159 4863 
L 1159 1991 
L 2875 3500 
L 3609 3500 
L 1753 1863 
L 3688 0 
L 2938 0 
L 1159 1709 
L 1159 0 
L 581 0 
L 581 4863 
z
" transform="scale(0.015625)"/>
     <path id="DejaVuSans-69" d="M 603 3500 
L 1178 3500 
L 1178 0 
L 603 0 
L 603 3500 
z
M 603 4863 
L 1178 4863 
L 1178 4134 
L 603 4134 
L 603 4863 
z
" transform="scale(0.015625)"/>
     <path id="DejaVuSans-6e" d="M 3513 2113 
L 3513 0 
L 2938 0 
L 2938 2094 
Q 2938 2591 2744 2837 
Q 2550 3084 2163 3084 
Q 1697 3084 1428 2787 
Q 1159 2491 1159 1978 
L 1159 0 
L 581 0 
L 581 3500 
L 1159 3500 
L 1159 2956 
Q 1366 3272 1645 3428 
Q 1925 3584 2291 3584 
Q 2894 3584 3203 3211 
Q 3513 2838 3513 2113 
z
" transform="scale(0.015625)"/>
     <path id="DejaVuSans-65" d="M 3597 1894 
L 3597 1613 
L 953 1613 
Q 991 1019 1311 708 
Q 1631 397 2203 397 
Q 2534 397 2845 478 
Q 3156 559 3463 722 
L 3463 178 
Q 3153 47 2828 -22 
Q 2503 -91 2169 -91 
Q 1331 -91 842 396 
Q 353 884 353 1716 
Q 353 2575 817 3079 
Q 1281 3584 2069 3584 
Q 2775 3584 3186 3129 
Q 3597 2675 3597 1894 
z
M 3022 2063 
Q 3016 2534 2758 2815 
Q 2500 3097 2075 3097 
Q 1594 3097 1305 2825 
Q 1016 2553 972 2059 
L 3022 2063 
z
" transform="scale(0.015625)"/>
     <path id="DejaVuSans-74" d="M 1172 4494 
L 1172 3500 
L 2356 3500 
L 2356 3053 
L 1172 3053 
L 1172 1153 
Q 1172 725 1289 603 
Q 1406 481 1766 481 
L 2356 481 
L 2356 0 
L 1766 0 
Q 1100 0 847 248 
Q 594 497 594 1153 
L 594 3053 
L 172 3053 
L 172 3500 
L 594 3500 
L 594 4494 
L 1172 4494 
z
" transform="scale(0.015625)"/>
     <path id="DejaVuSans-20" transform="scale(0.015625)"/>
     <path id="DejaVuSans-70" d="M 1159 525 
L 1159 -1331 
L 581 -1331 
L 581 3500 
L 1159 3500 
L 1159 2969 
Q 1341 3281 1617 3432 
Q 1894 3584 2278 3584 
Q 2916 3584 3314 3078 
Q 3713 2572 3713 1747 
Q 3713 922 3314 415 
Q 2916 -91 2278 -91 
Q 1894 -91 1617 61 
Q 1341 213 1159 525 
z
M 3116 1747 
Q 3116 2381 2855 2742 
Q 2594 3103 2138 3103 
Q 1681 3103 1420 2742 
Q 1159 2381 1159 1747 
Q 1159 1113 1420 752 
Q 1681 391 2138 391 
Q 2594 391 2855 752 
Q 3116 1113 3116 1747 
z
" transform="scale(0.015625)"/>
     <path id="DejaVuSans-73" d="M 2834 3397 
L 2834 2853 
Q 2591 2978 2328 3040 
Q 2066 3103 1784 3103 
Q 1356 3103 1142 2972 
Q 928 2841 928 2578 
Q 928 2378 1081 2264 
Q 1234 2150 1697 2047 
L 1894 2003 
Q 2506 1872 2764 1633 
Q 3022 1394 3022 966 
Q 3022 478 2636 193 
Q 2250 -91 1575 -91 
Q 1294 -91 989 -36 
Q 684 19 347 128 
L 347 722 
Q 666 556 975 473 
Q 1284 391 1588 391 
Q 1994 391 2212 530 
Q 2431 669 2431 922 
Q 2431 1156 2273 1281 
Q 2116 1406 1581 1522 
L 1381 1569 
Q 847 1681 609 1914 
Q 372 2147 372 2553 
Q 372 3047 722 3315 
Q 1072 3584 1716 3584 
Q 2034 3584 2315 3537 
Q 2597 3491 2834 3397 
z
" transform="scale(0.015625)"/>
     <path id="DejaVuSans-64" d="M 2906 2969 
L 2906 4863 
L 3481 4863 
L 3481 0 
L 2906 0 
L 2906 525 
Q 2725 213 2448 61 
Q 2172 -91 1784 -91 
Q 1150 -91 751 415 
Q 353 922 353 1747 
Q 353 2572 751 3078 
Q 1150 3584 1784 3584 
Q 2172 3584 2448 3432 
Q 2725 3281 2906 2969 
z
M 947 1747 
Q 947 1113 1208 752 
Q 1469 391 1925 391 
Q 2381 391 2643 752 
Q 2906 1113 2906 1747 
Q 2906 2381 2643 2742 
Q 2381 3103 1925 3103 
Q 1469 3103 1208 2742 
Q 947 2381 947 1747 
z
" transform="scale(0.015625)"/>
     <path id="DejaVuSans-67" d="M 2906 1791 
Q 2906 2416 2648 2759 
Q 2391 3103 1925 3103 
Q 1463 3103 1205 2759 
Q 947 2416 947 1791 
Q 947 1169 1205 825 
Q 1463 481 1925 481 
Q 2391 481 2648 825 
Q 2906 1169 2906 1791 
z
M 3481 434 
Q 3481 -459 3084 -895 
Q 2688 -1331 1869 -1331 
Q 1566 -1331 1297 -1286 
Q 1028 -1241 775 -1147 
L 775 -588 
Q 1028 -725 1275 -790 
Q 1522 -856 1778 -856 
Q 2344 -856 2625 -561 
Q 2906 -266 2906 331 
L 2906 616 
Q 2728 306 2450 153 
Q 2172 0 1784 0 
Q 1141 0 747 490 
Q 353 981 353 1791 
Q 353 2603 747 3093 
Q 1141 3584 1784 3584 
Q 2172 3584 2450 3431 
Q 2728 3278 2906 2969 
L 2906 3500 
L 3481 3500 
L 3481 434 
z
" transform="scale(0.015625)"/>
    </defs>
    <use xlink:href="#DejaVuSans-50"/>
    <use xlink:href="#DejaVuSans-68" x="60.302734"/>
    <use xlink:href="#DejaVuSans-61" x="123.681641"/>
    <use xlink:href="#DejaVuSans-72" x="184.960938"/>
    <use xlink:href="#DejaVuSans-6d" x="224.324219"/>
    <use xlink:href="#DejaVuSans-61" x="321.736328"/>
    <use xlink:href="#DejaVuSans-63" x="383.015625"/>
    <use xlink:href="#DejaVuSans-6f" x="437.996094"/>
    <use xlink:href="#DejaVuSans-6b" x="499.177734"/>
    <use xlink:href="#DejaVuSans-69" x="557.087891"/>
    <use xlink:href="#DejaVuSans-6e" x="584.871094"/>
    <use xlink:href="#DejaVuSans-65" x="648.25"/>
    <use xlink:href="#DejaVuSans-74" x="709.773438"/>
    <use xlink:href="#DejaVuSans-69" x="748.982422"/>
    <use xlink:href="#DejaVuSans-63" x="776.765625"/>
    <use xlink:href="#DejaVuSans-20" x="831.746094"/>
    <use xlink:href="#DejaVuSans-70" x="863.533203"/>
    <use xlink:href="#DejaVuSans-61" x="927.009766"/>
    <use xlink:href="#DejaVuSans-72" x="988.289062"/>
    <use xlink:href="#DejaVuSans-61" x="1029.402344"/>
    <use xlink:href="#DejaVuSans-6d" x="1090.681641"/>
    <use xlink:href="#DejaVuSans-65" x="1188.09375"/>
    <use xlink:href="#DejaVuSans-74" x="1249.617188"/>
    <use xlink:href="#DejaVuSans-65" x="1288.826172"/>
    <use xlink:href="#DejaVuSans-72" x="1350.349609"/>
    <use xlink:href="#DejaVuSans-73" x="1391.462891"/>
    <use xlink:href="#DejaVuSans-20" x="1443.5625"/>
    <use xlink:href="#DejaVuSans-64" x="1475.349609"/>
    <use xlink:href="#DejaVuSans-33" x="1538.826172"/>
    <use xlink:href="#DejaVuSans-67" x="1602.449219"/>
   </g>
  </g>
 </g>
 <defs>
  <clipPath id="p28d9f733c9">
   <rect x="42.378125" y="37.395792" width="377.574291" height="355.652165"/>
  </clipPath>
  <clipPath id="pb837edc03f">
   <rect x="487.625229" y="37.395792" width="377.574291" height="355.652165"/>
  </clipPath>
 </defs>
</svg>
