<?xml version="1.0" encoding="utf-8" standalone="no"?>
<!DOCTYPE svg PUBLIC "-//W3C//DTD SVG 1.1//EN"
  "http://www.w3.org/Graphics/SVG/1.1/DTD/svg11.dtd">
<svg xmlns:xlink="http://www.w3.org/1999/xlink" width="872.399523pt" height="440.39952pt" viewBox="0 0 872.399523 440.39952" xmlns="http://www.w3.org/2000/svg" version="1.1">
 <metadata>
  <rdf:RDF xmlns:dc="http://purl.org/dc/elements/1.1/" xmlns:cc="http://creativecommons.org/ns#" xmlns:rdf="http://www.w3.org/1999/02/22-rdf-syntax-ns#">
   <cc:Work>
    <dc:type rdf:resource="http://purl.org/dc/dcmitype/StillImage"/>
    <dc:date>2025-03-19T16:43:20.878971</dc:date>
    <dc:format>image/svg+xml</dc:format>
    <dc:creator>
     <cc:Agent>
      <dc:title>Matplotlib v3.9.1, https://matplotlib.org/</dc:title>
     </cc:Agent>
    </dc:creator>
   </cc:Work>
  </rdf:RDF>
 </metadata>
 <defs>
  <style type="text/css">*{stroke-linejoin: round; stroke-linecap: butt}</style>
 </defs>
 <g id="figure_1">
  <g id="patch_1">
   <path d="M 0 440.39952 
L 872.399523 440.39952 
L 872.399523 0 
L 0 0 
z
" style="fill: #ffffff"/>
  </g>
  <g id="axes_1">
   <g id="patch_2">
    <path d="M 42.378125 393.047957 
L 407.432204 393.047957 
L 407.432204 37.395792 
L 42.378125 37.395792 
z
" style="fill: #ffffff"/>
   </g>
   <g id="matplotlib.axis_1">
    <g id="xtick_1">
     <g id="line2d_1">
      <defs>
       <path id="m7fa2096d9f" d="M 0 0 
L 0 3.5 
" style="stroke: #000000; stroke-width: 0.8"/>
      </defs>
      <g>
       <use xlink:href="#m7fa2096d9f" x="58.971492" y="393.047957" style="stroke: #000000; stroke-width: 0.8"/>
      </g>
     </g>
     <g id="text_1">
      <!-- $\mathdefault{10^{-1}}$ -->
      <g transform="translate(41.346492 411.445614) scale(0.15 -0.15)">
       <defs>
        <path id="DejaVuSans-31" d="M 794 531 
L 1825 531 
L 1825 4091 
L 703 3866 
L 703 4441 
L 1819 4666 
L 2450 4666 
L 2450 531 
L 3481 531 
L 3481 0 
L 794 0 
L 794 531 
z
" transform="scale(0.015625)"/>
        <path id="DejaVuSans-30" d="M 2034 4250 
Q 1547 4250 1301 3770 
Q 1056 3291 1056 2328 
Q 1056 1369 1301 889 
Q 1547 409 2034 409 
Q 2525 409 2770 889 
Q 3016 1369 3016 2328 
Q 3016 3291 2770 3770 
Q 2525 4250 2034 4250 
z
M 2034 4750 
Q 2819 4750 3233 4129 
Q 3647 3509 3647 2328 
Q 3647 1150 3233 529 
Q 2819 -91 2034 -91 
Q 1250 -91 836 529 
Q 422 1150 422 2328 
Q 422 3509 836 4129 
Q 1250 4750 2034 4750 
z
" transform="scale(0.015625)"/>
        <path id="DejaVuSans-2212" d="M 678 2272 
L 4684 2272 
L 4684 1741 
L 678 1741 
L 678 2272 
z
" transform="scale(0.015625)"/>
       </defs>
       <use xlink:href="#DejaVuSans-31" transform="translate(0 0.684375)"/>
       <use xlink:href="#DejaVuSans-30" transform="translate(63.623047 0.684375)"/>
       <use xlink:href="#DejaVuSans-2212" transform="translate(128.203125 38.965625) scale(0.7)"/>
       <use xlink:href="#DejaVuSans-31" transform="translate(186.855469 38.965625) scale(0.7)"/>
      </g>
     </g>
    </g>
    <g id="xtick_2">
     <g id="line2d_2">
      <g>
       <use xlink:href="#m7fa2096d9f" x="406.752419" y="393.047957" style="stroke: #000000; stroke-width: 0.8"/>
      </g>
     </g>
     <g id="text_2">
      <!-- $\mathdefault{10^{0}}$ -->
      <g transform="translate(393.552419 411.445614) scale(0.15 -0.15)">
       <use xlink:href="#DejaVuSans-31" transform="translate(0 0.765625)"/>
       <use xlink:href="#DejaVuSans-30" transform="translate(63.623047 0.765625)"/>
       <use xlink:href="#DejaVuSans-30" transform="translate(128.203125 39.046875) scale(0.7)"/>
      </g>
     </g>
    </g>
    <g id="xtick_3">
     <g id="line2d_3">
      <defs>
       <path id="mba418887ff" d="M 0 0 
L 0 2 
" style="stroke: #000000; stroke-width: 0.6"/>
      </defs>
      <g>
       <use xlink:href="#mba418887ff" x="43.05791" y="393.047957" style="stroke: #000000; stroke-width: 0.6"/>
      </g>
     </g>
    </g>
    <g id="xtick_4">
     <g id="line2d_4">
      <g>
       <use xlink:href="#mba418887ff" x="163.663983" y="393.047957" style="stroke: #000000; stroke-width: 0.6"/>
      </g>
     </g>
    </g>
    <g id="xtick_5">
     <g id="line2d_5">
      <g>
       <use xlink:href="#mba418887ff" x="224.905164" y="393.047957" style="stroke: #000000; stroke-width: 0.6"/>
      </g>
     </g>
    </g>
    <g id="xtick_6">
     <g id="line2d_6">
      <g>
       <use xlink:href="#mba418887ff" x="268.356474" y="393.047957" style="stroke: #000000; stroke-width: 0.6"/>
      </g>
     </g>
    </g>
    <g id="xtick_7">
     <g id="line2d_7">
      <g>
       <use xlink:href="#mba418887ff" x="302.059928" y="393.047957" style="stroke: #000000; stroke-width: 0.6"/>
      </g>
     </g>
    </g>
    <g id="xtick_8">
     <g id="line2d_8">
      <g>
       <use xlink:href="#mba418887ff" x="329.597655" y="393.047957" style="stroke: #000000; stroke-width: 0.6"/>
      </g>
     </g>
    </g>
    <g id="xtick_9">
     <g id="line2d_9">
      <g>
       <use xlink:href="#mba418887ff" x="352.880472" y="393.047957" style="stroke: #000000; stroke-width: 0.6"/>
      </g>
     </g>
    </g>
    <g id="xtick_10">
     <g id="line2d_10">
      <g>
       <use xlink:href="#mba418887ff" x="373.048965" y="393.047957" style="stroke: #000000; stroke-width: 0.6"/>
      </g>
     </g>
    </g>
    <g id="xtick_11">
     <g id="line2d_11">
      <g>
       <use xlink:href="#mba418887ff" x="390.838836" y="393.047957" style="stroke: #000000; stroke-width: 0.6"/>
      </g>
     </g>
    </g>
    <g id="text_3">
     <!-- Cirrhosis degree [-] -->
     <g transform="translate(142.556336 429.962801) scale(0.15 -0.15)">
      <defs>
       <path id="DejaVuSans-Bold-43" d="M 4288 256 
Q 3956 84 3597 -3 
Q 3238 -91 2847 -91 
Q 1681 -91 1000 561 
Q 319 1213 319 2328 
Q 319 3447 1000 4098 
Q 1681 4750 2847 4750 
Q 3238 4750 3597 4662 
Q 3956 4575 4288 4403 
L 4288 3438 
Q 3953 3666 3628 3772 
Q 3303 3878 2944 3878 
Q 2300 3878 1931 3465 
Q 1563 3053 1563 2328 
Q 1563 1606 1931 1193 
Q 2300 781 2944 781 
Q 3303 781 3628 887 
Q 3953 994 4288 1222 
L 4288 256 
z
" transform="scale(0.015625)"/>
       <path id="DejaVuSans-Bold-69" d="M 538 3500 
L 1656 3500 
L 1656 0 
L 538 0 
L 538 3500 
z
M 538 4863 
L 1656 4863 
L 1656 3950 
L 538 3950 
L 538 4863 
z
" transform="scale(0.015625)"/>
       <path id="DejaVuSans-Bold-72" d="M 3138 2547 
Q 2991 2616 2845 2648 
Q 2700 2681 2553 2681 
Q 2122 2681 1889 2404 
Q 1656 2128 1656 1613 
L 1656 0 
L 538 0 
L 538 3500 
L 1656 3500 
L 1656 2925 
Q 1872 3269 2151 3426 
Q 2431 3584 2822 3584 
Q 2878 3584 2943 3579 
Q 3009 3575 3134 3559 
L 3138 2547 
z
" transform="scale(0.015625)"/>
       <path id="DejaVuSans-Bold-68" d="M 4056 2131 
L 4056 0 
L 2931 0 
L 2931 347 
L 2931 1625 
Q 2931 2084 2911 2256 
Q 2891 2428 2841 2509 
Q 2775 2619 2662 2680 
Q 2550 2741 2406 2741 
Q 2056 2741 1856 2470 
Q 1656 2200 1656 1722 
L 1656 0 
L 538 0 
L 538 4863 
L 1656 4863 
L 1656 2988 
Q 1909 3294 2193 3439 
Q 2478 3584 2822 3584 
Q 3428 3584 3742 3212 
Q 4056 2841 4056 2131 
z
" transform="scale(0.015625)"/>
       <path id="DejaVuSans-Bold-6f" d="M 2203 2784 
Q 1831 2784 1636 2517 
Q 1441 2250 1441 1747 
Q 1441 1244 1636 976 
Q 1831 709 2203 709 
Q 2569 709 2762 976 
Q 2956 1244 2956 1747 
Q 2956 2250 2762 2517 
Q 2569 2784 2203 2784 
z
M 2203 3584 
Q 3106 3584 3614 3096 
Q 4122 2609 4122 1747 
Q 4122 884 3614 396 
Q 3106 -91 2203 -91 
Q 1297 -91 786 396 
Q 275 884 275 1747 
Q 275 2609 786 3096 
Q 1297 3584 2203 3584 
z
" transform="scale(0.015625)"/>
       <path id="DejaVuSans-Bold-73" d="M 3272 3391 
L 3272 2541 
Q 2913 2691 2578 2766 
Q 2244 2841 1947 2841 
Q 1628 2841 1473 2761 
Q 1319 2681 1319 2516 
Q 1319 2381 1436 2309 
Q 1553 2238 1856 2203 
L 2053 2175 
Q 2913 2066 3209 1816 
Q 3506 1566 3506 1031 
Q 3506 472 3093 190 
Q 2681 -91 1863 -91 
Q 1516 -91 1145 -36 
Q 775 19 384 128 
L 384 978 
Q 719 816 1070 734 
Q 1422 653 1784 653 
Q 2113 653 2278 743 
Q 2444 834 2444 1013 
Q 2444 1163 2330 1236 
Q 2216 1309 1875 1350 
L 1678 1375 
Q 931 1469 631 1722 
Q 331 1975 331 2491 
Q 331 3047 712 3315 
Q 1094 3584 1881 3584 
Q 2191 3584 2531 3537 
Q 2872 3491 3272 3391 
z
" transform="scale(0.015625)"/>
       <path id="DejaVuSans-Bold-20" transform="scale(0.015625)"/>
       <path id="DejaVuSans-Bold-64" d="M 2919 2988 
L 2919 4863 
L 4044 4863 
L 4044 0 
L 2919 0 
L 2919 506 
Q 2688 197 2409 53 
Q 2131 -91 1766 -91 
Q 1119 -91 703 423 
Q 288 938 288 1747 
Q 288 2556 703 3070 
Q 1119 3584 1766 3584 
Q 2128 3584 2408 3439 
Q 2688 3294 2919 2988 
z
M 2181 722 
Q 2541 722 2730 984 
Q 2919 1247 2919 1747 
Q 2919 2247 2730 2509 
Q 2541 2772 2181 2772 
Q 1825 2772 1636 2509 
Q 1447 2247 1447 1747 
Q 1447 1247 1636 984 
Q 1825 722 2181 722 
z
" transform="scale(0.015625)"/>
       <path id="DejaVuSans-Bold-65" d="M 4031 1759 
L 4031 1441 
L 1416 1441 
Q 1456 1047 1700 850 
Q 1944 653 2381 653 
Q 2734 653 3104 758 
Q 3475 863 3866 1075 
L 3866 213 
Q 3469 63 3072 -14 
Q 2675 -91 2278 -91 
Q 1328 -91 801 392 
Q 275 875 275 1747 
Q 275 2603 792 3093 
Q 1309 3584 2216 3584 
Q 3041 3584 3536 3087 
Q 4031 2591 4031 1759 
z
M 2881 2131 
Q 2881 2450 2695 2645 
Q 2509 2841 2209 2841 
Q 1884 2841 1681 2658 
Q 1478 2475 1428 2131 
L 2881 2131 
z
" transform="scale(0.015625)"/>
       <path id="DejaVuSans-Bold-67" d="M 2919 594 
Q 2688 288 2409 144 
Q 2131 0 1766 0 
Q 1125 0 706 504 
Q 288 1009 288 1791 
Q 288 2575 706 3076 
Q 1125 3578 1766 3578 
Q 2131 3578 2409 3434 
Q 2688 3291 2919 2981 
L 2919 3500 
L 4044 3500 
L 4044 353 
Q 4044 -491 3511 -936 
Q 2978 -1381 1966 -1381 
Q 1638 -1381 1331 -1331 
Q 1025 -1281 716 -1178 
L 716 -306 
Q 1009 -475 1290 -558 
Q 1572 -641 1856 -641 
Q 2406 -641 2662 -400 
Q 2919 -159 2919 353 
L 2919 594 
z
M 2181 2772 
Q 1834 2772 1640 2515 
Q 1447 2259 1447 1791 
Q 1447 1309 1634 1061 
Q 1822 813 2181 813 
Q 2531 813 2725 1069 
Q 2919 1325 2919 1791 
Q 2919 2259 2725 2515 
Q 2531 2772 2181 2772 
z
" transform="scale(0.015625)"/>
       <path id="DejaVuSans-Bold-5b" d="M 550 4863 
L 2491 4863 
L 2491 4159 
L 1613 4159 
L 1613 -141 
L 2491 -141 
L 2491 -844 
L 550 -844 
L 550 4863 
z
" transform="scale(0.015625)"/>
       <path id="DejaVuSans-Bold-2d" d="M 347 2297 
L 2309 2297 
L 2309 1388 
L 347 1388 
L 347 2297 
z
" transform="scale(0.015625)"/>
       <path id="DejaVuSans-Bold-5d" d="M 2375 -844 
L 434 -844 
L 434 -141 
L 1313 -141 
L 1313 4159 
L 434 4159 
L 434 4863 
L 2375 4863 
L 2375 -844 
z
" transform="scale(0.015625)"/>
      </defs>
      <use xlink:href="#DejaVuSans-Bold-43"/>
      <use xlink:href="#DejaVuSans-Bold-69" x="73.388672"/>
      <use xlink:href="#DejaVuSans-Bold-72" x="107.666016"/>
      <use xlink:href="#DejaVuSans-Bold-72" x="156.982422"/>
      <use xlink:href="#DejaVuSans-Bold-68" x="206.298828"/>
      <use xlink:href="#DejaVuSans-Bold-6f" x="277.490234"/>
      <use xlink:href="#DejaVuSans-Bold-73" x="346.191406"/>
      <use xlink:href="#DejaVuSans-Bold-69" x="405.712891"/>
      <use xlink:href="#DejaVuSans-Bold-73" x="439.990234"/>
      <use xlink:href="#DejaVuSans-Bold-20" x="499.511719"/>
      <use xlink:href="#DejaVuSans-Bold-64" x="534.326172"/>
      <use xlink:href="#DejaVuSans-Bold-65" x="605.908203"/>
      <use xlink:href="#DejaVuSans-Bold-67" x="673.730469"/>
      <use xlink:href="#DejaVuSans-Bold-72" x="745.3125"/>
      <use xlink:href="#DejaVuSans-Bold-65" x="794.628906"/>
      <use xlink:href="#DejaVuSans-Bold-65" x="862.451172"/>
      <use xlink:href="#DejaVuSans-Bold-20" x="930.273438"/>
      <use xlink:href="#DejaVuSans-Bold-5b" x="965.087891"/>
      <use xlink:href="#DejaVuSans-Bold-2d" x="1010.791016"/>
      <use xlink:href="#DejaVuSans-Bold-5d" x="1052.294922"/>
     </g>
    </g>
   </g>
   <g id="matplotlib.axis_2">
    <g id="ytick_1">
     <g id="line2d_12">
      <defs>
       <path id="mb8ddf436d5" d="M 0 0 
L -3.5 0 
" style="stroke: #000000; stroke-width: 0.8"/>
      </defs>
      <g>
       <use xlink:href="#mb8ddf436d5" x="42.378125" y="393.047957" style="stroke: #000000; stroke-width: 0.8"/>
      </g>
     </g>
     <g id="text_4">
      <!-- 0 -->
      <g transform="translate(25.834375 398.746786) scale(0.15 -0.15)">
       <use xlink:href="#DejaVuSans-30"/>
      </g>
     </g>
    </g>
    <g id="ytick_2">
     <g id="line2d_13">
      <g>
       <use xlink:href="#mb8ddf436d5" x="42.378125" y="326.43444" style="stroke: #000000; stroke-width: 0.8"/>
      </g>
     </g>
     <g id="text_5">
      <!-- 1 -->
      <g transform="translate(25.834375 332.133268) scale(0.15 -0.15)">
       <use xlink:href="#DejaVuSans-31"/>
      </g>
     </g>
    </g>
    <g id="ytick_3">
     <g id="line2d_14">
      <g>
       <use xlink:href="#mb8ddf436d5" x="42.378125" y="259.820922" style="stroke: #000000; stroke-width: 0.8"/>
      </g>
     </g>
     <g id="text_6">
      <!-- 2 -->
      <g transform="translate(25.834375 265.51975) scale(0.15 -0.15)">
       <defs>
        <path id="DejaVuSans-32" d="M 1228 531 
L 3431 531 
L 3431 0 
L 469 0 
L 469 531 
Q 828 903 1448 1529 
Q 2069 2156 2228 2338 
Q 2531 2678 2651 2914 
Q 2772 3150 2772 3378 
Q 2772 3750 2511 3984 
Q 2250 4219 1831 4219 
Q 1534 4219 1204 4116 
Q 875 4013 500 3803 
L 500 4441 
Q 881 4594 1212 4672 
Q 1544 4750 1819 4750 
Q 2544 4750 2975 4387 
Q 3406 4025 3406 3419 
Q 3406 3131 3298 2873 
Q 3191 2616 2906 2266 
Q 2828 2175 2409 1742 
Q 1991 1309 1228 531 
z
" transform="scale(0.015625)"/>
       </defs>
       <use xlink:href="#DejaVuSans-32"/>
      </g>
     </g>
    </g>
    <g id="ytick_4">
     <g id="line2d_15">
      <g>
       <use xlink:href="#mb8ddf436d5" x="42.378125" y="193.207404" style="stroke: #000000; stroke-width: 0.8"/>
      </g>
     </g>
     <g id="text_7">
      <!-- 3 -->
      <g transform="translate(25.834375 198.906232) scale(0.15 -0.15)">
       <defs>
        <path id="DejaVuSans-33" d="M 2597 2516 
Q 3050 2419 3304 2112 
Q 3559 1806 3559 1356 
Q 3559 666 3084 287 
Q 2609 -91 1734 -91 
Q 1441 -91 1130 -33 
Q 819 25 488 141 
L 488 750 
Q 750 597 1062 519 
Q 1375 441 1716 441 
Q 2309 441 2620 675 
Q 2931 909 2931 1356 
Q 2931 1769 2642 2001 
Q 2353 2234 1838 2234 
L 1294 2234 
L 1294 2753 
L 1863 2753 
Q 2328 2753 2575 2939 
Q 2822 3125 2822 3475 
Q 2822 3834 2567 4026 
Q 2313 4219 1838 4219 
Q 1578 4219 1281 4162 
Q 984 4106 628 3988 
L 628 4550 
Q 988 4650 1302 4700 
Q 1616 4750 1894 4750 
Q 2613 4750 3031 4423 
Q 3450 4097 3450 3541 
Q 3450 3153 3228 2886 
Q 3006 2619 2597 2516 
z
" transform="scale(0.015625)"/>
       </defs>
       <use xlink:href="#DejaVuSans-33"/>
      </g>
     </g>
    </g>
    <g id="ytick_5">
     <g id="line2d_16">
      <g>
       <use xlink:href="#mb8ddf436d5" x="42.378125" y="126.593886" style="stroke: #000000; stroke-width: 0.8"/>
      </g>
     </g>
     <g id="text_8">
      <!-- 4 -->
      <g transform="translate(25.834375 132.292714) scale(0.15 -0.15)">
       <defs>
        <path id="DejaVuSans-34" d="M 2419 4116 
L 825 1625 
L 2419 1625 
L 2419 4116 
z
M 2253 4666 
L 3047 4666 
L 3047 1625 
L 3713 1625 
L 3713 1100 
L 3047 1100 
L 3047 0 
L 2419 0 
L 2419 1100 
L 313 1100 
L 313 1709 
L 2253 4666 
z
" transform="scale(0.015625)"/>
       </defs>
       <use xlink:href="#DejaVuSans-34"/>
      </g>
     </g>
    </g>
    <g id="ytick_6">
     <g id="line2d_17">
      <g>
       <use xlink:href="#mb8ddf436d5" x="42.378125" y="59.980368" style="stroke: #000000; stroke-width: 0.8"/>
      </g>
     </g>
     <g id="text_9">
      <!-- 5 -->
      <g transform="translate(25.834375 65.679196) scale(0.15 -0.15)">
       <defs>
        <path id="DejaVuSans-35" d="M 691 4666 
L 3169 4666 
L 3169 4134 
L 1269 4134 
L 1269 2991 
Q 1406 3038 1543 3061 
Q 1681 3084 1819 3084 
Q 2600 3084 3056 2656 
Q 3513 2228 3513 1497 
Q 3513 744 3044 326 
Q 2575 -91 1722 -91 
Q 1428 -91 1123 -41 
Q 819 9 494 109 
L 494 744 
Q 775 591 1075 516 
Q 1375 441 1709 441 
Q 2250 441 2565 725 
Q 2881 1009 2881 1497 
Q 2881 1984 2565 2268 
Q 2250 2553 1709 2553 
Q 1456 2553 1204 2497 
Q 953 2441 691 2322 
L 691 4666 
z
" transform="scale(0.015625)"/>
       </defs>
       <use xlink:href="#DejaVuSans-35"/>
      </g>
     </g>
    </g>
    <g id="text_10">
     <!-- AUC (d3g) [µmole/l*hr] -->
     <g transform="translate(18.597656 311.689453) rotate(-90) scale(0.15 -0.15)">
      <defs>
       <path id="DejaVuSans-Bold-41" d="M 3419 850 
L 1538 850 
L 1241 0 
L 31 0 
L 1759 4666 
L 3194 4666 
L 4922 0 
L 3713 0 
L 3419 850 
z
M 1838 1716 
L 3116 1716 
L 2478 3572 
L 1838 1716 
z
" transform="scale(0.015625)"/>
       <path id="DejaVuSans-Bold-55" d="M 588 4666 
L 1791 4666 
L 1791 1869 
Q 1791 1291 1980 1042 
Q 2169 794 2597 794 
Q 3028 794 3217 1042 
Q 3406 1291 3406 1869 
L 3406 4666 
L 4609 4666 
L 4609 1869 
Q 4609 878 4112 393 
Q 3616 -91 2597 -91 
Q 1581 -91 1084 393 
Q 588 878 588 1869 
L 588 4666 
z
" transform="scale(0.015625)"/>
       <path id="DejaVuSans-Bold-28" d="M 2413 -844 
L 1484 -844 
Q 1006 -72 778 623 
Q 550 1319 550 2003 
Q 550 2688 779 3389 
Q 1009 4091 1484 4856 
L 2413 4856 
Q 2013 4116 1813 3408 
Q 1613 2700 1613 2009 
Q 1613 1319 1811 609 
Q 2009 -100 2413 -844 
z
" transform="scale(0.015625)"/>
       <path id="DejaVuSans-Bold-33" d="M 2981 2516 
Q 3453 2394 3698 2092 
Q 3944 1791 3944 1325 
Q 3944 631 3412 270 
Q 2881 -91 1863 -91 
Q 1503 -91 1142 -33 
Q 781 25 428 141 
L 428 1069 
Q 766 900 1098 814 
Q 1431 728 1753 728 
Q 2231 728 2486 893 
Q 2741 1059 2741 1369 
Q 2741 1688 2480 1852 
Q 2219 2016 1709 2016 
L 1228 2016 
L 1228 2791 
L 1734 2791 
Q 2188 2791 2409 2933 
Q 2631 3075 2631 3366 
Q 2631 3634 2415 3781 
Q 2200 3928 1806 3928 
Q 1516 3928 1219 3862 
Q 922 3797 628 3669 
L 628 4550 
Q 984 4650 1334 4700 
Q 1684 4750 2022 4750 
Q 2931 4750 3382 4451 
Q 3834 4153 3834 3553 
Q 3834 3144 3618 2883 
Q 3403 2622 2981 2516 
z
" transform="scale(0.015625)"/>
       <path id="DejaVuSans-Bold-29" d="M 513 -844 
Q 913 -100 1113 609 
Q 1313 1319 1313 2009 
Q 1313 2700 1113 3408 
Q 913 4116 513 4856 
L 1441 4856 
Q 1916 4091 2145 3389 
Q 2375 2688 2375 2003 
Q 2375 1319 2147 623 
Q 1919 -72 1441 -844 
L 513 -844 
z
" transform="scale(0.015625)"/>
       <path id="DejaVuSans-Bold-b5" d="M 544 -1338 
L 544 3500 
L 1672 3500 
L 1672 1466 
Q 1672 1103 1828 926 
Q 1984 750 2303 750 
Q 2625 750 2781 926 
Q 2938 1103 2938 1466 
L 2938 3500 
L 4063 3500 
L 4063 1159 
Q 4063 938 4114 850 
Q 4166 763 4288 763 
Q 4344 763 4395 778 
Q 4447 794 4506 831 
L 4506 50 
Q 4341 -22 4195 -56 
Q 4050 -91 3909 -91 
Q 3631 -91 3454 26 
Q 3278 144 3169 403 
Q 3022 156 2811 32 
Q 2600 -91 2322 -91 
Q 2091 -91 1928 -17 
Q 1766 56 1672 206 
L 1672 -1338 
L 544 -1338 
z
" transform="scale(0.015625)"/>
       <path id="DejaVuSans-Bold-6d" d="M 3781 2919 
Q 3994 3244 4286 3414 
Q 4578 3584 4928 3584 
Q 5531 3584 5847 3212 
Q 6163 2841 6163 2131 
L 6163 0 
L 5038 0 
L 5038 1825 
Q 5041 1866 5042 1909 
Q 5044 1953 5044 2034 
Q 5044 2406 4934 2573 
Q 4825 2741 4581 2741 
Q 4263 2741 4089 2478 
Q 3916 2216 3909 1719 
L 3909 0 
L 2784 0 
L 2784 1825 
Q 2784 2406 2684 2573 
Q 2584 2741 2328 2741 
Q 2006 2741 1831 2477 
Q 1656 2213 1656 1722 
L 1656 0 
L 531 0 
L 531 3500 
L 1656 3500 
L 1656 2988 
Q 1863 3284 2130 3434 
Q 2397 3584 2719 3584 
Q 3081 3584 3359 3409 
Q 3638 3234 3781 2919 
z
" transform="scale(0.015625)"/>
       <path id="DejaVuSans-Bold-6c" d="M 538 4863 
L 1656 4863 
L 1656 0 
L 538 0 
L 538 4863 
z
" transform="scale(0.015625)"/>
       <path id="DejaVuSans-Bold-2f" d="M 1644 4666 
L 2338 4666 
L 691 -594 
L 0 -594 
L 1644 4666 
z
" transform="scale(0.015625)"/>
       <path id="DejaVuSans-Bold-2a" d="M 3219 3803 
L 2188 3263 
L 3219 2719 
L 2981 2278 
L 1941 2853 
L 1941 1778 
L 1409 1778 
L 1409 2853 
L 366 2278 
L 128 2719 
L 1172 3263 
L 128 3803 
L 366 4244 
L 1409 3675 
L 1409 4750 
L 1941 4750 
L 1941 3675 
L 2981 4244 
L 3219 3803 
z
" transform="scale(0.015625)"/>
      </defs>
      <use xlink:href="#DejaVuSans-Bold-41"/>
      <use xlink:href="#DejaVuSans-Bold-55" x="74.267578"/>
      <use xlink:href="#DejaVuSans-Bold-43" x="155.46875"/>
      <use xlink:href="#DejaVuSans-Bold-20" x="228.857422"/>
      <use xlink:href="#DejaVuSans-Bold-28" x="263.671875"/>
      <use xlink:href="#DejaVuSans-Bold-64" x="309.375"/>
      <use xlink:href="#DejaVuSans-Bold-33" x="380.957031"/>
      <use xlink:href="#DejaVuSans-Bold-67" x="450.537109"/>
      <use xlink:href="#DejaVuSans-Bold-29" x="522.119141"/>
      <use xlink:href="#DejaVuSans-Bold-20" x="567.822266"/>
      <use xlink:href="#DejaVuSans-Bold-5b" x="602.636719"/>
      <use xlink:href="#DejaVuSans-Bold-b5" x="648.339844"/>
      <use xlink:href="#DejaVuSans-Bold-6d" x="721.923828"/>
      <use xlink:href="#DejaVuSans-Bold-6f" x="826.123047"/>
      <use xlink:href="#DejaVuSans-Bold-6c" x="894.824219"/>
      <use xlink:href="#DejaVuSans-Bold-65" x="929.101562"/>
      <use xlink:href="#DejaVuSans-Bold-2f" x="996.923828"/>
      <use xlink:href="#DejaVuSans-Bold-6c" x="1033.447266"/>
      <use xlink:href="#DejaVuSans-Bold-2a" x="1067.724609"/>
      <use xlink:href="#DejaVuSans-Bold-68" x="1120.019531"/>
      <use xlink:href="#DejaVuSans-Bold-72" x="1191.210938"/>
      <use xlink:href="#DejaVuSans-Bold-5d" x="1240.527344"/>
     </g>
    </g>
   </g>
   <g id="line2d_18">
    <path clip-path="url(#p85d3d589bb)" style="fill: none; stroke-dasharray: 5.55,2.4; stroke-dashoffset: 0; stroke: #808080; stroke-width: 1.5"/>
   </g>
   <g id="line2d_19">
    <path d="M -1 324.687953 
L 58.971492 324.687948 
L 163.663983 324.734119 
L 224.905164 324.700097 
L 268.356474 324.662419 
L 302.059928 324.620803 
L 329.597655 324.574933 
L 352.880472 324.524453 
L 373.048965 324.468964 
L 390.838836 324.408012 
" clip-path="url(#p85d3d589bb)" style="fill: none; stroke: #000000; stroke-width: 1.5; stroke-linecap: square"/>
    <defs>
     <path id="med21505395" d="M 0 3 
C 0.795609 3 1.55874 2.683901 2.12132 2.12132 
C 2.683901 1.55874 3 0.795609 3 0 
C 3 -0.795609 2.683901 -1.55874 2.12132 -2.12132 
C 1.55874 -2.683901 0.795609 -3 0 -3 
C -0.795609 -3 -1.55874 -2.683901 -2.12132 -2.12132 
C -2.683901 -1.55874 -3 -0.795609 -3 0 
C -3 0.795609 -2.683901 1.55874 -2.12132 2.12132 
C -1.55874 2.683901 -0.795609 3 0 3 
z
" style="stroke: #000000"/>
    </defs>
    <g clip-path="url(#p85d3d589bb)">
     <use xlink:href="#med21505395" x="-1" y="324.687953" style="stroke: #000000"/>
     <use xlink:href="#med21505395" x="58.971492" y="324.687948" style="stroke: #000000"/>
     <use xlink:href="#med21505395" x="163.663983" y="324.734119" style="stroke: #000000"/>
     <use xlink:href="#med21505395" x="224.905164" y="324.700097" style="stroke: #000000"/>
     <use xlink:href="#med21505395" x="268.356474" y="324.662419" style="stroke: #000000"/>
     <use xlink:href="#med21505395" x="302.059928" y="324.620803" style="stroke: #000000"/>
     <use xlink:href="#med21505395" x="329.597655" y="324.574933" style="stroke: #000000"/>
     <use xlink:href="#med21505395" x="352.880472" y="324.524453" style="stroke: #000000"/>
     <use xlink:href="#med21505395" x="373.048965" y="324.468964" style="stroke: #000000"/>
     <use xlink:href="#med21505395" x="390.838836" y="324.408012" style="stroke: #000000"/>
    </g>
   </g>
   <g id="line2d_20">
    <path d="M -1 294.145482 
L 58.971492 294.145471 
L 163.663983 294.176719 
L 224.905164 294.106636 
L 268.356474 294.02964 
L 302.059928 293.945098 
L 329.597655 293.85229 
L 352.880472 293.750383 
L 373.048965 293.638413 
L 390.838836 293.515251 
" clip-path="url(#p85d3d589bb)" style="fill: none; stroke: #66c2a4; stroke-width: 1.5; stroke-linecap: square"/>
    <defs>
     <path id="m44ef95d3fa" d="M 0 3 
C 0.795609 3 1.55874 2.683901 2.12132 2.12132 
C 2.683901 1.55874 3 0.795609 3 0 
C 3 -0.795609 2.683901 -1.55874 2.12132 -2.12132 
C 1.55874 -2.683901 0.795609 -3 0 -3 
C -0.795609 -3 -1.55874 -2.683901 -2.12132 -2.12132 
C -2.683901 -1.55874 -3 -0.795609 -3 0 
C -3 0.795609 -2.683901 1.55874 -2.12132 2.12132 
C -1.55874 2.683901 -0.795609 3 0 3 
z
" style="stroke: #000000"/>
    </defs>
    <g clip-path="url(#p85d3d589bb)">
     <use xlink:href="#m44ef95d3fa" x="-1" y="294.145482" style="fill: #66c2a4; stroke: #000000"/>
     <use xlink:href="#m44ef95d3fa" x="58.971492" y="294.145471" style="fill: #66c2a4; stroke: #000000"/>
     <use xlink:href="#m44ef95d3fa" x="163.663983" y="294.176719" style="fill: #66c2a4; stroke: #000000"/>
     <use xlink:href="#m44ef95d3fa" x="224.905164" y="294.106636" style="fill: #66c2a4; stroke: #000000"/>
     <use xlink:href="#m44ef95d3fa" x="268.356474" y="294.02964" style="fill: #66c2a4; stroke: #000000"/>
     <use xlink:href="#m44ef95d3fa" x="302.059928" y="293.945098" style="fill: #66c2a4; stroke: #000000"/>
     <use xlink:href="#m44ef95d3fa" x="329.597655" y="293.85229" style="fill: #66c2a4; stroke: #000000"/>
     <use xlink:href="#m44ef95d3fa" x="352.880472" y="293.750383" style="fill: #66c2a4; stroke: #000000"/>
     <use xlink:href="#m44ef95d3fa" x="373.048965" y="293.638413" style="fill: #66c2a4; stroke: #000000"/>
     <use xlink:href="#m44ef95d3fa" x="390.838836" y="293.515251" style="fill: #66c2a4; stroke: #000000"/>
    </g>
   </g>
   <g id="line2d_21">
    <path d="M -1 186.627371 
L 58.971492 186.627351 
L 163.663983 186.498898 
L 224.905164 186.232039 
L 268.356474 186.069603 
L 302.059928 185.889733 
L 329.597655 185.690586 
L 352.880472 185.470006 
L 373.048965 185.225448 
L 390.838836 184.953876 
" clip-path="url(#p85d3d589bb)" style="fill: none; stroke: #2ca25f; stroke-width: 1.5; stroke-linecap: square"/>
    <defs>
     <path id="mafd2c34a17" d="M 0 3 
C 0.795609 3 1.55874 2.683901 2.12132 2.12132 
C 2.683901 1.55874 3 0.795609 3 0 
C 3 -0.795609 2.683901 -1.55874 2.12132 -2.12132 
C 1.55874 -2.683901 0.795609 -3 0 -3 
C -0.795609 -3 -1.55874 -2.683901 -2.12132 -2.12132 
C -2.683901 -1.55874 -3 -0.795609 -3 0 
C -3 0.795609 -2.683901 1.55874 -2.12132 2.12132 
C -1.55874 2.683901 -0.795609 3 0 3 
z
" style="stroke: #000000"/>
    </defs>
    <g clip-path="url(#p85d3d589bb)">
     <use xlink:href="#mafd2c34a17" x="-1" y="186.627371" style="fill: #2ca25f; stroke: #000000"/>
     <use xlink:href="#mafd2c34a17" x="58.971492" y="186.627351" style="fill: #2ca25f; stroke: #000000"/>
     <use xlink:href="#mafd2c34a17" x="163.663983" y="186.498898" style="fill: #2ca25f; stroke: #000000"/>
     <use xlink:href="#mafd2c34a17" x="224.905164" y="186.232039" style="fill: #2ca25f; stroke: #000000"/>
     <use xlink:href="#mafd2c34a17" x="268.356474" y="186.069603" style="fill: #2ca25f; stroke: #000000"/>
     <use xlink:href="#mafd2c34a17" x="302.059928" y="185.889733" style="fill: #2ca25f; stroke: #000000"/>
     <use xlink:href="#mafd2c34a17" x="329.597655" y="185.690586" style="fill: #2ca25f; stroke: #000000"/>
     <use xlink:href="#mafd2c34a17" x="352.880472" y="185.470006" style="fill: #2ca25f; stroke: #000000"/>
     <use xlink:href="#mafd2c34a17" x="373.048965" y="185.225448" style="fill: #2ca25f; stroke: #000000"/>
     <use xlink:href="#mafd2c34a17" x="390.838836" y="184.953876" style="fill: #2ca25f; stroke: #000000"/>
    </g>
   </g>
   <g id="line2d_22">
    <path d="M -1 55.989834 
L 58.971492 55.989796 
L 163.663983 55.862632 
L 224.905164 55.716566 
L 268.356474 55.549942 
L 302.059928 55.360876 
L 329.597655 55.14721 
L 352.880472 54.906454 
L 373.048965 54.635717 
L 390.838836 54.33161 
" clip-path="url(#p85d3d589bb)" style="fill: none; stroke: #006d2c; stroke-width: 1.5; stroke-linecap: square"/>
    <defs>
     <path id="mefd4989aa8" d="M 0 3 
C 0.795609 3 1.55874 2.683901 2.12132 2.12132 
C 2.683901 1.55874 3 0.795609 3 0 
C 3 -0.795609 2.683901 -1.55874 2.12132 -2.12132 
C 1.55874 -2.683901 0.795609 -3 0 -3 
C -0.795609 -3 -1.55874 -2.683901 -2.12132 -2.12132 
C -2.683901 -1.55874 -3 -0.795609 -3 0 
C -3 0.795609 -2.683901 1.55874 -2.12132 2.12132 
C -1.55874 2.683901 -0.795609 3 0 3 
z
" style="stroke: #000000"/>
    </defs>
    <g clip-path="url(#p85d3d589bb)">
     <use xlink:href="#mefd4989aa8" x="-1" y="55.989834" style="fill: #006d2c; stroke: #000000"/>
     <use xlink:href="#mefd4989aa8" x="58.971492" y="55.989796" style="fill: #006d2c; stroke: #000000"/>
     <use xlink:href="#mefd4989aa8" x="163.663983" y="55.862632" style="fill: #006d2c; stroke: #000000"/>
     <use xlink:href="#mefd4989aa8" x="224.905164" y="55.716566" style="fill: #006d2c; stroke: #000000"/>
     <use xlink:href="#mefd4989aa8" x="268.356474" y="55.549942" style="fill: #006d2c; stroke: #000000"/>
     <use xlink:href="#mefd4989aa8" x="302.059928" y="55.360876" style="fill: #006d2c; stroke: #000000"/>
     <use xlink:href="#mefd4989aa8" x="329.597655" y="55.14721" style="fill: #006d2c; stroke: #000000"/>
     <use xlink:href="#mefd4989aa8" x="352.880472" y="54.906454" style="fill: #006d2c; stroke: #000000"/>
     <use xlink:href="#mefd4989aa8" x="373.048965" y="54.635717" style="fill: #006d2c; stroke: #000000"/>
     <use xlink:href="#mefd4989aa8" x="390.838836" y="54.33161" style="fill: #006d2c; stroke: #000000"/>
    </g>
   </g>
   <g id="patch_3">
    <path d="M 42.378125 393.047957 
L 42.378125 37.395792 
" style="fill: none; stroke: #000000; stroke-width: 0.8; stroke-linejoin: miter; stroke-linecap: square"/>
   </g>
   <g id="patch_4">
    <path d="M 407.432204 393.047957 
L 407.432204 37.395792 
" style="fill: none; stroke: #000000; stroke-width: 0.8; stroke-linejoin: miter; stroke-linecap: square"/>
   </g>
   <g id="patch_5">
    <path d="M 42.378125 393.047957 
L 407.432204 393.047957 
" style="fill: none; stroke: #000000; stroke-width: 0.8; stroke-linejoin: miter; stroke-linecap: square"/>
   </g>
   <g id="patch_6">
    <path d="M 42.378125 37.395792 
L 407.432204 37.395792 
" style="fill: none; stroke: #000000; stroke-width: 0.8; stroke-linejoin: miter; stroke-linecap: square"/>
   </g>
  </g>
  <g id="axes_2">
   <g id="patch_7">
    <path d="M 487.625229 393.047957 
L 852.679307 393.047957 
L 852.679307 37.395792 
L 487.625229 37.395792 
z
" style="fill: #ffffff"/>
   </g>
   <g id="matplotlib.axis_3">
    <g id="xtick_12">
     <g id="line2d_23">
      <g>
       <use xlink:href="#m7fa2096d9f" x="504.218596" y="393.047957" style="stroke: #000000; stroke-width: 0.8"/>
      </g>
     </g>
     <g id="text_11">
      <!-- $\mathdefault{10^{-1}}$ -->
      <g transform="translate(486.593596 411.445614) scale(0.15 -0.15)">
       <use xlink:href="#DejaVuSans-31" transform="translate(0 0.684375)"/>
       <use xlink:href="#DejaVuSans-30" transform="translate(63.623047 0.684375)"/>
       <use xlink:href="#DejaVuSans-2212" transform="translate(128.203125 38.965625) scale(0.7)"/>
       <use xlink:href="#DejaVuSans-31" transform="translate(186.855469 38.965625) scale(0.7)"/>
      </g>
     </g>
    </g>
    <g id="xtick_13">
     <g id="line2d_24">
      <g>
       <use xlink:href="#m7fa2096d9f" x="851.999523" y="393.047957" style="stroke: #000000; stroke-width: 0.8"/>
      </g>
     </g>
     <g id="text_12">
      <!-- $\mathdefault{10^{0}}$ -->
      <g transform="translate(838.799523 411.445614) scale(0.15 -0.15)">
       <use xlink:href="#DejaVuSans-31" transform="translate(0 0.765625)"/>
       <use xlink:href="#DejaVuSans-30" transform="translate(63.623047 0.765625)"/>
       <use xlink:href="#DejaVuSans-30" transform="translate(128.203125 39.046875) scale(0.7)"/>
      </g>
     </g>
    </g>
    <g id="xtick_14">
     <g id="line2d_25">
      <g>
       <use xlink:href="#mba418887ff" x="488.305013" y="393.047957" style="stroke: #000000; stroke-width: 0.6"/>
      </g>
     </g>
    </g>
    <g id="xtick_15">
     <g id="line2d_26">
      <g>
       <use xlink:href="#mba418887ff" x="608.911087" y="393.047957" style="stroke: #000000; stroke-width: 0.6"/>
      </g>
     </g>
    </g>
    <g id="xtick_16">
     <g id="line2d_27">
      <g>
       <use xlink:href="#mba418887ff" x="670.152268" y="393.047957" style="stroke: #000000; stroke-width: 0.6"/>
      </g>
     </g>
    </g>
    <g id="xtick_17">
     <g id="line2d_28">
      <g>
       <use xlink:href="#mba418887ff" x="713.603578" y="393.047957" style="stroke: #000000; stroke-width: 0.6"/>
      </g>
     </g>
    </g>
    <g id="xtick_18">
     <g id="line2d_29">
      <g>
       <use xlink:href="#mba418887ff" x="747.307032" y="393.047957" style="stroke: #000000; stroke-width: 0.6"/>
      </g>
     </g>
    </g>
    <g id="xtick_19">
     <g id="line2d_30">
      <g>
       <use xlink:href="#mba418887ff" x="774.844759" y="393.047957" style="stroke: #000000; stroke-width: 0.6"/>
      </g>
     </g>
    </g>
    <g id="xtick_20">
     <g id="line2d_31">
      <g>
       <use xlink:href="#mba418887ff" x="798.127576" y="393.047957" style="stroke: #000000; stroke-width: 0.6"/>
      </g>
     </g>
    </g>
    <g id="xtick_21">
     <g id="line2d_32">
      <g>
       <use xlink:href="#mba418887ff" x="818.296069" y="393.047957" style="stroke: #000000; stroke-width: 0.6"/>
      </g>
     </g>
    </g>
    <g id="xtick_22">
     <g id="line2d_33">
      <g>
       <use xlink:href="#mba418887ff" x="836.08594" y="393.047957" style="stroke: #000000; stroke-width: 0.6"/>
      </g>
     </g>
    </g>
    <g id="text_13">
     <!-- Cirrhosis degree [-] -->
     <g transform="translate(587.80344 429.962801) scale(0.15 -0.15)">
      <use xlink:href="#DejaVuSans-Bold-43"/>
      <use xlink:href="#DejaVuSans-Bold-69" x="73.388672"/>
      <use xlink:href="#DejaVuSans-Bold-72" x="107.666016"/>
      <use xlink:href="#DejaVuSans-Bold-72" x="156.982422"/>
      <use xlink:href="#DejaVuSans-Bold-68" x="206.298828"/>
      <use xlink:href="#DejaVuSans-Bold-6f" x="277.490234"/>
      <use xlink:href="#DejaVuSans-Bold-73" x="346.191406"/>
      <use xlink:href="#DejaVuSans-Bold-69" x="405.712891"/>
      <use xlink:href="#DejaVuSans-Bold-73" x="439.990234"/>
      <use xlink:href="#DejaVuSans-Bold-20" x="499.511719"/>
      <use xlink:href="#DejaVuSans-Bold-64" x="534.326172"/>
      <use xlink:href="#DejaVuSans-Bold-65" x="605.908203"/>
      <use xlink:href="#DejaVuSans-Bold-67" x="673.730469"/>
      <use xlink:href="#DejaVuSans-Bold-72" x="745.3125"/>
      <use xlink:href="#DejaVuSans-Bold-65" x="794.628906"/>
      <use xlink:href="#DejaVuSans-Bold-65" x="862.451172"/>
      <use xlink:href="#DejaVuSans-Bold-20" x="930.273438"/>
      <use xlink:href="#DejaVuSans-Bold-5b" x="965.087891"/>
      <use xlink:href="#DejaVuSans-Bold-2d" x="1010.791016"/>
      <use xlink:href="#DejaVuSans-Bold-5d" x="1052.294922"/>
     </g>
    </g>
   </g>
   <g id="matplotlib.axis_4">
    <g id="ytick_7">
     <g id="line2d_34">
      <g>
       <use xlink:href="#mb8ddf436d5" x="487.625229" y="393.047957" style="stroke: #000000; stroke-width: 0.8"/>
      </g>
     </g>
     <g id="text_14">
      <!-- 0.00 -->
      <g transform="translate(447.226791 398.746786) scale(0.15 -0.15)">
       <defs>
        <path id="DejaVuSans-2e" d="M 684 794 
L 1344 794 
L 1344 0 
L 684 0 
L 684 794 
z
" transform="scale(0.015625)"/>
       </defs>
       <use xlink:href="#DejaVuSans-30"/>
       <use xlink:href="#DejaVuSans-2e" x="63.623047"/>
       <use xlink:href="#DejaVuSans-30" x="95.410156"/>
       <use xlink:href="#DejaVuSans-30" x="159.033203"/>
      </g>
     </g>
    </g>
    <g id="ytick_8">
     <g id="line2d_35">
      <g>
       <use xlink:href="#mb8ddf436d5" x="487.625229" y="345.30139" style="stroke: #000000; stroke-width: 0.8"/>
      </g>
     </g>
     <g id="text_15">
      <!-- 0.05 -->
      <g transform="translate(447.226791 351.000218) scale(0.15 -0.15)">
       <use xlink:href="#DejaVuSans-30"/>
       <use xlink:href="#DejaVuSans-2e" x="63.623047"/>
       <use xlink:href="#DejaVuSans-30" x="95.410156"/>
       <use xlink:href="#DejaVuSans-35" x="159.033203"/>
      </g>
     </g>
    </g>
    <g id="ytick_9">
     <g id="line2d_36">
      <g>
       <use xlink:href="#mb8ddf436d5" x="487.625229" y="297.554823" style="stroke: #000000; stroke-width: 0.8"/>
      </g>
     </g>
     <g id="text_16">
      <!-- 0.10 -->
      <g transform="translate(447.226791 303.253651) scale(0.15 -0.15)">
       <use xlink:href="#DejaVuSans-30"/>
       <use xlink:href="#DejaVuSans-2e" x="63.623047"/>
       <use xlink:href="#DejaVuSans-31" x="95.410156"/>
       <use xlink:href="#DejaVuSans-30" x="159.033203"/>
      </g>
     </g>
    </g>
    <g id="ytick_10">
     <g id="line2d_37">
      <g>
       <use xlink:href="#mb8ddf436d5" x="487.625229" y="249.808256" style="stroke: #000000; stroke-width: 0.8"/>
      </g>
     </g>
     <g id="text_17">
      <!-- 0.15 -->
      <g transform="translate(447.226791 255.507084) scale(0.15 -0.15)">
       <use xlink:href="#DejaVuSans-30"/>
       <use xlink:href="#DejaVuSans-2e" x="63.623047"/>
       <use xlink:href="#DejaVuSans-31" x="95.410156"/>
       <use xlink:href="#DejaVuSans-35" x="159.033203"/>
      </g>
     </g>
    </g>
    <g id="ytick_11">
     <g id="line2d_38">
      <g>
       <use xlink:href="#mb8ddf436d5" x="487.625229" y="202.061688" style="stroke: #000000; stroke-width: 0.8"/>
      </g>
     </g>
     <g id="text_18">
      <!-- 0.20 -->
      <g transform="translate(447.226791 207.760517) scale(0.15 -0.15)">
       <use xlink:href="#DejaVuSans-30"/>
       <use xlink:href="#DejaVuSans-2e" x="63.623047"/>
       <use xlink:href="#DejaVuSans-32" x="95.410156"/>
       <use xlink:href="#DejaVuSans-30" x="159.033203"/>
      </g>
     </g>
    </g>
    <g id="ytick_12">
     <g id="line2d_39">
      <g>
       <use xlink:href="#mb8ddf436d5" x="487.625229" y="154.315121" style="stroke: #000000; stroke-width: 0.8"/>
      </g>
     </g>
     <g id="text_19">
      <!-- 0.25 -->
      <g transform="translate(447.226791 160.013949) scale(0.15 -0.15)">
       <use xlink:href="#DejaVuSans-30"/>
       <use xlink:href="#DejaVuSans-2e" x="63.623047"/>
       <use xlink:href="#DejaVuSans-32" x="95.410156"/>
       <use xlink:href="#DejaVuSans-35" x="159.033203"/>
      </g>
     </g>
    </g>
    <g id="ytick_13">
     <g id="line2d_40">
      <g>
       <use xlink:href="#mb8ddf436d5" x="487.625229" y="106.568554" style="stroke: #000000; stroke-width: 0.8"/>
      </g>
     </g>
     <g id="text_20">
      <!-- 0.30 -->
      <g transform="translate(447.226791 112.267382) scale(0.15 -0.15)">
       <use xlink:href="#DejaVuSans-30"/>
       <use xlink:href="#DejaVuSans-2e" x="63.623047"/>
       <use xlink:href="#DejaVuSans-33" x="95.410156"/>
       <use xlink:href="#DejaVuSans-30" x="159.033203"/>
      </g>
     </g>
    </g>
    <g id="ytick_14">
     <g id="line2d_41">
      <g>
       <use xlink:href="#mb8ddf436d5" x="487.625229" y="58.821987" style="stroke: #000000; stroke-width: 0.8"/>
      </g>
     </g>
     <g id="text_21">
      <!-- 0.35 -->
      <g transform="translate(447.226791 64.520815) scale(0.15 -0.15)">
       <use xlink:href="#DejaVuSans-30"/>
       <use xlink:href="#DejaVuSans-2e" x="63.623047"/>
       <use xlink:href="#DejaVuSans-33" x="95.410156"/>
       <use xlink:href="#DejaVuSans-35" x="159.033203"/>
      </g>
     </g>
    </g>
    <g id="text_22">
     <!-- Cmax (d3g) [µmole/l] -->
     <g transform="translate(439.990072 304.783594) rotate(-90) scale(0.15 -0.15)">
      <defs>
       <path id="DejaVuSans-Bold-61" d="M 2106 1575 
Q 1756 1575 1579 1456 
Q 1403 1338 1403 1106 
Q 1403 894 1545 773 
Q 1688 653 1941 653 
Q 2256 653 2472 879 
Q 2688 1106 2688 1447 
L 2688 1575 
L 2106 1575 
z
M 3816 1997 
L 3816 0 
L 2688 0 
L 2688 519 
Q 2463 200 2181 54 
Q 1900 -91 1497 -91 
Q 953 -91 614 226 
Q 275 544 275 1050 
Q 275 1666 698 1953 
Q 1122 2241 2028 2241 
L 2688 2241 
L 2688 2328 
Q 2688 2594 2478 2717 
Q 2269 2841 1825 2841 
Q 1466 2841 1156 2769 
Q 847 2697 581 2553 
L 581 3406 
Q 941 3494 1303 3539 
Q 1666 3584 2028 3584 
Q 2975 3584 3395 3211 
Q 3816 2838 3816 1997 
z
" transform="scale(0.015625)"/>
       <path id="DejaVuSans-Bold-78" d="M 1422 1791 
L 159 3500 
L 1344 3500 
L 2059 2463 
L 2784 3500 
L 3969 3500 
L 2706 1797 
L 4031 0 
L 2847 0 
L 2059 1106 
L 1281 0 
L 97 0 
L 1422 1791 
z
" transform="scale(0.015625)"/>
      </defs>
      <use xlink:href="#DejaVuSans-Bold-43"/>
      <use xlink:href="#DejaVuSans-Bold-6d" x="73.388672"/>
      <use xlink:href="#DejaVuSans-Bold-61" x="177.587891"/>
      <use xlink:href="#DejaVuSans-Bold-78" x="245.068359"/>
      <use xlink:href="#DejaVuSans-Bold-20" x="309.570312"/>
      <use xlink:href="#DejaVuSans-Bold-28" x="344.384766"/>
      <use xlink:href="#DejaVuSans-Bold-64" x="390.087891"/>
      <use xlink:href="#DejaVuSans-Bold-33" x="461.669922"/>
      <use xlink:href="#DejaVuSans-Bold-67" x="531.25"/>
      <use xlink:href="#DejaVuSans-Bold-29" x="602.832031"/>
      <use xlink:href="#DejaVuSans-Bold-20" x="648.535156"/>
      <use xlink:href="#DejaVuSans-Bold-5b" x="683.349609"/>
      <use xlink:href="#DejaVuSans-Bold-b5" x="729.052734"/>
      <use xlink:href="#DejaVuSans-Bold-6d" x="802.636719"/>
      <use xlink:href="#DejaVuSans-Bold-6f" x="906.835938"/>
      <use xlink:href="#DejaVuSans-Bold-6c" x="975.537109"/>
      <use xlink:href="#DejaVuSans-Bold-65" x="1009.814453"/>
      <use xlink:href="#DejaVuSans-Bold-2f" x="1077.636719"/>
      <use xlink:href="#DejaVuSans-Bold-6c" x="1114.160156"/>
      <use xlink:href="#DejaVuSans-Bold-5d" x="1148.4375"/>
     </g>
    </g>
   </g>
   <g id="line2d_42">
    <path clip-path="url(#p9f4244f943)" style="fill: none; stroke-dasharray: 5.55,2.4; stroke-dashoffset: 0; stroke: #808080; stroke-width: 1.5"/>
   </g>
   <g id="line2d_43">
    <path d="M -1 258.125164 
L 504.218596 258.123896 
L 608.911087 257.23072 
L 670.152268 256.32076 
L 713.603578 255.40214 
L 747.307032 254.47472 
L 774.844759 253.538357 
L 798.127576 252.592907 
L 818.296069 251.638233 
L 836.08594 250.674266 
" clip-path="url(#p9f4244f943)" style="fill: none; stroke: #000000; stroke-width: 1.5; stroke-linecap: square"/>
    <g clip-path="url(#p9f4244f943)">
     <use xlink:href="#med21505395" x="-1" y="258.125164" style="stroke: #000000"/>
     <use xlink:href="#med21505395" x="504.218596" y="258.123896" style="stroke: #000000"/>
     <use xlink:href="#med21505395" x="608.911087" y="257.23072" style="stroke: #000000"/>
     <use xlink:href="#med21505395" x="670.152268" y="256.32076" style="stroke: #000000"/>
     <use xlink:href="#med21505395" x="713.603578" y="255.40214" style="stroke: #000000"/>
     <use xlink:href="#med21505395" x="747.307032" y="254.47472" style="stroke: #000000"/>
     <use xlink:href="#med21505395" x="774.844759" y="253.538357" style="stroke: #000000"/>
     <use xlink:href="#med21505395" x="798.127576" y="252.592907" style="stroke: #000000"/>
     <use xlink:href="#med21505395" x="818.296069" y="251.638233" style="stroke: #000000"/>
     <use xlink:href="#med21505395" x="836.08594" y="250.674266" style="stroke: #000000"/>
    </g>
   </g>
   <g id="line2d_44">
    <path d="M -1 222.207805 
L 504.218596 222.205942 
L 608.911087 220.894741 
L 670.152268 219.565289 
L 713.603578 218.218737 
L 747.307032 216.854735 
L 774.844759 215.472925 
L 798.127576 214.072943 
L 818.296069 212.654427 
L 836.08594 211.217078 
" clip-path="url(#p9f4244f943)" style="fill: none; stroke: #66c2a4; stroke-width: 1.5; stroke-linecap: square"/>
    <g clip-path="url(#p9f4244f943)">
     <use xlink:href="#m44ef95d3fa" x="-1" y="222.207805" style="fill: #66c2a4; stroke: #000000"/>
     <use xlink:href="#m44ef95d3fa" x="504.218596" y="222.205942" style="fill: #66c2a4; stroke: #000000"/>
     <use xlink:href="#m44ef95d3fa" x="608.911087" y="220.894741" style="fill: #66c2a4; stroke: #000000"/>
     <use xlink:href="#m44ef95d3fa" x="670.152268" y="219.565289" style="fill: #66c2a4; stroke: #000000"/>
     <use xlink:href="#m44ef95d3fa" x="713.603578" y="218.218737" style="fill: #66c2a4; stroke: #000000"/>
     <use xlink:href="#m44ef95d3fa" x="747.307032" y="216.854735" style="fill: #66c2a4; stroke: #000000"/>
     <use xlink:href="#m44ef95d3fa" x="774.844759" y="215.472925" style="fill: #66c2a4; stroke: #000000"/>
     <use xlink:href="#m44ef95d3fa" x="798.127576" y="214.072943" style="fill: #66c2a4; stroke: #000000"/>
     <use xlink:href="#m44ef95d3fa" x="818.296069" y="212.654427" style="fill: #66c2a4; stroke: #000000"/>
     <use xlink:href="#m44ef95d3fa" x="836.08594" y="211.217078" style="fill: #66c2a4; stroke: #000000"/>
    </g>
   </g>
   <g id="line2d_45">
    <path d="M -1 141.061888 
L 504.218596 141.058252 
L 608.911087 138.511039 
L 670.152268 135.916007 
L 713.603578 133.269601 
L 747.307032 130.572369 
L 774.844759 127.822926 
L 798.127576 125.019843 
L 818.296069 122.161657 
L 836.08594 119.246922 
" clip-path="url(#p9f4244f943)" style="fill: none; stroke: #2ca25f; stroke-width: 1.5; stroke-linecap: square"/>
    <g clip-path="url(#p9f4244f943)">
     <use xlink:href="#mafd2c34a17" x="-1" y="141.061888" style="fill: #2ca25f; stroke: #000000"/>
     <use xlink:href="#mafd2c34a17" x="504.218596" y="141.058252" style="fill: #2ca25f; stroke: #000000"/>
     <use xlink:href="#mafd2c34a17" x="608.911087" y="138.511039" style="fill: #2ca25f; stroke: #000000"/>
     <use xlink:href="#mafd2c34a17" x="670.152268" y="135.916007" style="fill: #2ca25f; stroke: #000000"/>
     <use xlink:href="#mafd2c34a17" x="713.603578" y="133.269601" style="fill: #2ca25f; stroke: #000000"/>
     <use xlink:href="#mafd2c34a17" x="747.307032" y="130.572369" style="fill: #2ca25f; stroke: #000000"/>
     <use xlink:href="#mafd2c34a17" x="774.844759" y="127.822926" style="fill: #2ca25f; stroke: #000000"/>
     <use xlink:href="#mafd2c34a17" x="798.127576" y="125.019843" style="fill: #2ca25f; stroke: #000000"/>
     <use xlink:href="#mafd2c34a17" x="818.296069" y="122.161657" style="fill: #2ca25f; stroke: #000000"/>
     <use xlink:href="#mafd2c34a17" x="836.08594" y="119.246922" style="fill: #2ca25f; stroke: #000000"/>
    </g>
   </g>
   <g id="line2d_46">
    <path d="M -1 86.103668 
L 504.218596 86.098463 
L 608.911087 82.436123 
L 670.152268 78.691024 
L 713.603578 74.860592 
L 747.307032 70.942158 
L 774.844759 66.932956 
L 798.127576 62.830118 
L 818.296069 58.630676 
L 836.08594 54.33161 
" clip-path="url(#p9f4244f943)" style="fill: none; stroke: #006d2c; stroke-width: 1.5; stroke-linecap: square"/>
    <g clip-path="url(#p9f4244f943)">
     <use xlink:href="#mefd4989aa8" x="-1" y="86.103668" style="fill: #006d2c; stroke: #000000"/>
     <use xlink:href="#mefd4989aa8" x="504.218596" y="86.098463" style="fill: #006d2c; stroke: #000000"/>
     <use xlink:href="#mefd4989aa8" x="608.911087" y="82.436123" style="fill: #006d2c; stroke: #000000"/>
     <use xlink:href="#mefd4989aa8" x="670.152268" y="78.691024" style="fill: #006d2c; stroke: #000000"/>
     <use xlink:href="#mefd4989aa8" x="713.603578" y="74.860592" style="fill: #006d2c; stroke: #000000"/>
     <use xlink:href="#mefd4989aa8" x="747.307032" y="70.942158" style="fill: #006d2c; stroke: #000000"/>
     <use xlink:href="#mefd4989aa8" x="774.844759" y="66.932956" style="fill: #006d2c; stroke: #000000"/>
     <use xlink:href="#mefd4989aa8" x="798.127576" y="62.830118" style="fill: #006d2c; stroke: #000000"/>
     <use xlink:href="#mefd4989aa8" x="818.296069" y="58.630676" style="fill: #006d2c; stroke: #000000"/>
     <use xlink:href="#mefd4989aa8" x="836.08594" y="54.33161" style="fill: #006d2c; stroke: #000000"/>
    </g>
   </g>
   <g id="patch_8">
    <path d="M 487.625229 393.047957 
L 487.625229 37.395793 
" style="fill: none; stroke: #000000; stroke-width: 0.8; stroke-linejoin: miter; stroke-linecap: square"/>
   </g>
   <g id="patch_9">
    <path d="M 852.679307 393.047957 
L 852.679307 37.395793 
" style="fill: none; stroke: #000000; stroke-width: 0.8; stroke-linejoin: miter; stroke-linecap: square"/>
   </g>
   <g id="patch_10">
    <path d="M 487.625229 393.047957 
L 852.679307 393.047957 
" style="fill: none; stroke: #000000; stroke-width: 0.8; stroke-linejoin: miter; stroke-linecap: square"/>
   </g>
   <g id="patch_11">
    <path d="M 487.625229 37.395792 
L 852.679307 37.395792 
" style="fill: none; stroke: #000000; stroke-width: 0.8; stroke-linejoin: miter; stroke-linecap: square"/>
   </g>
  </g>
  <g id="text_23">
   <!-- Pharmacokinetic parameters d3g -->
   <g transform="translate(227.959526 26.196094) scale(0.25 -0.25)">
    <defs>
     <path id="DejaVuSans-50" d="M 1259 4147 
L 1259 2394 
L 2053 2394 
Q 2494 2394 2734 2622 
Q 2975 2850 2975 3272 
Q 2975 3691 2734 3919 
Q 2494 4147 2053 4147 
L 1259 4147 
z
M 628 4666 
L 2053 4666 
Q 2838 4666 3239 4311 
Q 3641 3956 3641 3272 
Q 3641 2581 3239 2228 
Q 2838 1875 2053 1875 
L 1259 1875 
L 1259 0 
L 628 0 
L 628 4666 
z
" transform="scale(0.015625)"/>
     <path id="DejaVuSans-68" d="M 3513 2113 
L 3513 0 
L 2938 0 
L 2938 2094 
Q 2938 2591 2744 2837 
Q 2550 3084 2163 3084 
Q 1697 3084 1428 2787 
Q 1159 2491 1159 1978 
L 1159 0 
L 581 0 
L 581 4863 
L 1159 4863 
L 1159 2956 
Q 1366 3272 1645 3428 
Q 1925 3584 2291 3584 
Q 2894 3584 3203 3211 
Q 3513 2838 3513 2113 
z
" transform="scale(0.015625)"/>
     <path id="DejaVuSans-61" d="M 2194 1759 
Q 1497 1759 1228 1600 
Q 959 1441 959 1056 
Q 959 750 1161 570 
Q 1363 391 1709 391 
Q 2188 391 2477 730 
Q 2766 1069 2766 1631 
L 2766 1759 
L 2194 1759 
z
M 3341 1997 
L 3341 0 
L 2766 0 
L 2766 531 
Q 2569 213 2275 61 
Q 1981 -91 1556 -91 
Q 1019 -91 701 211 
Q 384 513 384 1019 
Q 384 1609 779 1909 
Q 1175 2209 1959 2209 
L 2766 2209 
L 2766 2266 
Q 2766 2663 2505 2880 
Q 2244 3097 1772 3097 
Q 1472 3097 1187 3025 
Q 903 2953 641 2809 
L 641 3341 
Q 956 3463 1253 3523 
Q 1550 3584 1831 3584 
Q 2591 3584 2966 3190 
Q 3341 2797 3341 1997 
z
" transform="scale(0.015625)"/>
     <path id="DejaVuSans-72" d="M 2631 2963 
Q 2534 3019 2420 3045 
Q 2306 3072 2169 3072 
Q 1681 3072 1420 2755 
Q 1159 2438 1159 1844 
L 1159 0 
L 581 0 
L 581 3500 
L 1159 3500 
L 1159 2956 
Q 1341 3275 1631 3429 
Q 1922 3584 2338 3584 
Q 2397 3584 2469 3576 
Q 2541 3569 2628 3553 
L 2631 2963 
z
" transform="scale(0.015625)"/>
     <path id="DejaVuSans-6d" d="M 3328 2828 
Q 3544 3216 3844 3400 
Q 4144 3584 4550 3584 
Q 5097 3584 5394 3201 
Q 5691 2819 5691 2113 
L 5691 0 
L 5113 0 
L 5113 2094 
Q 5113 2597 4934 2840 
Q 4756 3084 4391 3084 
Q 3944 3084 3684 2787 
Q 3425 2491 3425 1978 
L 3425 0 
L 2847 0 
L 2847 2094 
Q 2847 2600 2669 2842 
Q 2491 3084 2119 3084 
Q 1678 3084 1418 2786 
Q 1159 2488 1159 1978 
L 1159 0 
L 581 0 
L 581 3500 
L 1159 3500 
L 1159 2956 
Q 1356 3278 1631 3431 
Q 1906 3584 2284 3584 
Q 2666 3584 2933 3390 
Q 3200 3197 3328 2828 
z
" transform="scale(0.015625)"/>
     <path id="DejaVuSans-63" d="M 3122 3366 
L 3122 2828 
Q 2878 2963 2633 3030 
Q 2388 3097 2138 3097 
Q 1578 3097 1268 2742 
Q 959 2388 959 1747 
Q 959 1106 1268 751 
Q 1578 397 2138 397 
Q 2388 397 2633 464 
Q 2878 531 3122 666 
L 3122 134 
Q 2881 22 2623 -34 
Q 2366 -91 2075 -91 
Q 1284 -91 818 406 
Q 353 903 353 1747 
Q 353 2603 823 3093 
Q 1294 3584 2113 3584 
Q 2378 3584 2631 3529 
Q 2884 3475 3122 3366 
z
" transform="scale(0.015625)"/>
     <path id="DejaVuSans-6f" d="M 1959 3097 
Q 1497 3097 1228 2736 
Q 959 2375 959 1747 
Q 959 1119 1226 758 
Q 1494 397 1959 397 
Q 2419 397 2687 759 
Q 2956 1122 2956 1747 
Q 2956 2369 2687 2733 
Q 2419 3097 1959 3097 
z
M 1959 3584 
Q 2709 3584 3137 3096 
Q 3566 2609 3566 1747 
Q 3566 888 3137 398 
Q 2709 -91 1959 -91 
Q 1206 -91 779 398 
Q 353 888 353 1747 
Q 353 2609 779 3096 
Q 1206 3584 1959 3584 
z
" transform="scale(0.015625)"/>
     <path id="DejaVuSans-6b" d="M 581 4863 
L 1159 4863 
L 1159 1991 
L 2875 3500 
L 3609 3500 
L 1753 1863 
L 3688 0 
L 2938 0 
L 1159 1709 
L 1159 0 
L 581 0 
L 581 4863 
z
" transform="scale(0.015625)"/>
     <path id="DejaVuSans-69" d="M 603 3500 
L 1178 3500 
L 1178 0 
L 603 0 
L 603 3500 
z
M 603 4863 
L 1178 4863 
L 1178 4134 
L 603 4134 
L 603 4863 
z
" transform="scale(0.015625)"/>
     <path id="DejaVuSans-6e" d="M 3513 2113 
L 3513 0 
L 2938 0 
L 2938 2094 
Q 2938 2591 2744 2837 
Q 2550 3084 2163 3084 
Q 1697 3084 1428 2787 
Q 1159 2491 1159 1978 
L 1159 0 
L 581 0 
L 581 3500 
L 1159 3500 
L 1159 2956 
Q 1366 3272 1645 3428 
Q 1925 3584 2291 3584 
Q 2894 3584 3203 3211 
Q 3513 2838 3513 2113 
z
" transform="scale(0.015625)"/>
     <path id="DejaVuSans-65" d="M 3597 1894 
L 3597 1613 
L 953 1613 
Q 991 1019 1311 708 
Q 1631 397 2203 397 
Q 2534 397 2845 478 
Q 3156 559 3463 722 
L 3463 178 
Q 3153 47 2828 -22 
Q 2503 -91 2169 -91 
Q 1331 -91 842 396 
Q 353 884 353 1716 
Q 353 2575 817 3079 
Q 1281 3584 2069 3584 
Q 2775 3584 3186 3129 
Q 3597 2675 3597 1894 
z
M 3022 2063 
Q 3016 2534 2758 2815 
Q 2500 3097 2075 3097 
Q 1594 3097 1305 2825 
Q 1016 2553 972 2059 
L 3022 2063 
z
" transform="scale(0.015625)"/>
     <path id="DejaVuSans-74" d="M 1172 4494 
L 1172 3500 
L 2356 3500 
L 2356 3053 
L 1172 3053 
L 1172 1153 
Q 1172 725 1289 603 
Q 1406 481 1766 481 
L 2356 481 
L 2356 0 
L 1766 0 
Q 1100 0 847 248 
Q 594 497 594 1153 
L 594 3053 
L 172 3053 
L 172 3500 
L 594 3500 
L 594 4494 
L 1172 4494 
z
" transform="scale(0.015625)"/>
     <path id="DejaVuSans-20" transform="scale(0.015625)"/>
     <path id="DejaVuSans-70" d="M 1159 525 
L 1159 -1331 
L 581 -1331 
L 581 3500 
L 1159 3500 
L 1159 2969 
Q 1341 3281 1617 3432 
Q 1894 3584 2278 3584 
Q 2916 3584 3314 3078 
Q 3713 2572 3713 1747 
Q 3713 922 3314 415 
Q 2916 -91 2278 -91 
Q 1894 -91 1617 61 
Q 1341 213 1159 525 
z
M 3116 1747 
Q 3116 2381 2855 2742 
Q 2594 3103 2138 3103 
Q 1681 3103 1420 2742 
Q 1159 2381 1159 1747 
Q 1159 1113 1420 752 
Q 1681 391 2138 391 
Q 2594 391 2855 752 
Q 3116 1113 3116 1747 
z
" transform="scale(0.015625)"/>
     <path id="DejaVuSans-73" d="M 2834 3397 
L 2834 2853 
Q 2591 2978 2328 3040 
Q 2066 3103 1784 3103 
Q 1356 3103 1142 2972 
Q 928 2841 928 2578 
Q 928 2378 1081 2264 
Q 1234 2150 1697 2047 
L 1894 2003 
Q 2506 1872 2764 1633 
Q 3022 1394 3022 966 
Q 3022 478 2636 193 
Q 2250 -91 1575 -91 
Q 1294 -91 989 -36 
Q 684 19 347 128 
L 347 722 
Q 666 556 975 473 
Q 1284 391 1588 391 
Q 1994 391 2212 530 
Q 2431 669 2431 922 
Q 2431 1156 2273 1281 
Q 2116 1406 1581 1522 
L 1381 1569 
Q 847 1681 609 1914 
Q 372 2147 372 2553 
Q 372 3047 722 3315 
Q 1072 3584 1716 3584 
Q 2034 3584 2315 3537 
Q 2597 3491 2834 3397 
z
" transform="scale(0.015625)"/>
     <path id="DejaVuSans-64" d="M 2906 2969 
L 2906 4863 
L 3481 4863 
L 3481 0 
L 2906 0 
L 2906 525 
Q 2725 213 2448 61 
Q 2172 -91 1784 -91 
Q 1150 -91 751 415 
Q 353 922 353 1747 
Q 353 2572 751 3078 
Q 1150 3584 1784 3584 
Q 2172 3584 2448 3432 
Q 2725 3281 2906 2969 
z
M 947 1747 
Q 947 1113 1208 752 
Q 1469 391 1925 391 
Q 2381 391 2643 752 
Q 2906 1113 2906 1747 
Q 2906 2381 2643 2742 
Q 2381 3103 1925 3103 
Q 1469 3103 1208 2742 
Q 947 2381 947 1747 
z
" transform="scale(0.015625)"/>
     <path id="DejaVuSans-67" d="M 2906 1791 
Q 2906 2416 2648 2759 
Q 2391 3103 1925 3103 
Q 1463 3103 1205 2759 
Q 947 2416 947 1791 
Q 947 1169 1205 825 
Q 1463 481 1925 481 
Q 2391 481 2648 825 
Q 2906 1169 2906 1791 
z
M 3481 434 
Q 3481 -459 3084 -895 
Q 2688 -1331 1869 -1331 
Q 1566 -1331 1297 -1286 
Q 1028 -1241 775 -1147 
L 775 -588 
Q 1028 -725 1275 -790 
Q 1522 -856 1778 -856 
Q 2344 -856 2625 -561 
Q 2906 -266 2906 331 
L 2906 616 
Q 2728 306 2450 153 
Q 2172 0 1784 0 
Q 1141 0 747 490 
Q 353 981 353 1791 
Q 353 2603 747 3093 
Q 1141 3584 1784 3584 
Q 2172 3584 2450 3431 
Q 2728 3278 2906 2969 
L 2906 3500 
L 3481 3500 
L 3481 434 
z
" transform="scale(0.015625)"/>
    </defs>
    <use xlink:href="#DejaVuSans-50"/>
    <use xlink:href="#DejaVuSans-68" x="60.302734"/>
    <use xlink:href="#DejaVuSans-61" x="123.681641"/>
    <use xlink:href="#DejaVuSans-72" x="184.960938"/>
    <use xlink:href="#DejaVuSans-6d" x="224.324219"/>
    <use xlink:href="#DejaVuSans-61" x="321.736328"/>
    <use xlink:href="#DejaVuSans-63" x="383.015625"/>
    <use xlink:href="#DejaVuSans-6f" x="437.996094"/>
    <use xlink:href="#DejaVuSans-6b" x="499.177734"/>
    <use xlink:href="#DejaVuSans-69" x="557.087891"/>
    <use xlink:href="#DejaVuSans-6e" x="584.871094"/>
    <use xlink:href="#DejaVuSans-65" x="648.25"/>
    <use xlink:href="#DejaVuSans-74" x="709.773438"/>
    <use xlink:href="#DejaVuSans-69" x="748.982422"/>
    <use xlink:href="#DejaVuSans-63" x="776.765625"/>
    <use xlink:href="#DejaVuSans-20" x="831.746094"/>
    <use xlink:href="#DejaVuSans-70" x="863.533203"/>
    <use xlink:href="#DejaVuSans-61" x="927.009766"/>
    <use xlink:href="#DejaVuSans-72" x="988.289062"/>
    <use xlink:href="#DejaVuSans-61" x="1029.402344"/>
    <use xlink:href="#DejaVuSans-6d" x="1090.681641"/>
    <use xlink:href="#DejaVuSans-65" x="1188.09375"/>
    <use xlink:href="#DejaVuSans-74" x="1249.617188"/>
    <use xlink:href="#DejaVuSans-65" x="1288.826172"/>
    <use xlink:href="#DejaVuSans-72" x="1350.349609"/>
    <use xlink:href="#DejaVuSans-73" x="1391.462891"/>
    <use xlink:href="#DejaVuSans-20" x="1443.5625"/>
    <use xlink:href="#DejaVuSans-64" x="1475.349609"/>
    <use xlink:href="#DejaVuSans-33" x="1538.826172"/>
    <use xlink:href="#DejaVuSans-67" x="1602.449219"/>
   </g>
  </g>
 </g>
 <defs>
  <clipPath id="p85d3d589bb">
   <rect x="42.378125" y="37.395792" width="365.054079" height="355.652165"/>
  </clipPath>
  <clipPath id="p9f4244f943">
   <rect x="487.625229" y="37.395792" width="365.054079" height="355.652165"/>
  </clipPath>
 </defs>
</svg>
