<?xml version="1.0" encoding="utf-8" standalone="no"?>
<!DOCTYPE svg PUBLIC "-//W3C//DTD SVG 1.1//EN"
  "http://www.w3.org/Graphics/SVG/1.1/DTD/svg11.dtd">
<svg xmlns:xlink="http://www.w3.org/1999/xlink" width="490.741687pt" height="370.537812pt" viewBox="0 0 490.741687 370.537812" xmlns="http://www.w3.org/2000/svg" version="1.1">
 <metadata>
  <rdf:RDF xmlns:dc="http://purl.org/dc/elements/1.1/" xmlns:cc="http://creativecommons.org/ns#" xmlns:rdf="http://www.w3.org/1999/02/22-rdf-syntax-ns#">
   <cc:Work>
    <dc:type rdf:resource="http://purl.org/dc/dcmitype/StillImage"/>
    <dc:date>2025-12-21T21:51:20.032557</dc:date>
    <dc:format>image/svg+xml</dc:format>
    <dc:creator>
     <cc:Agent>
      <dc:title>Matplotlib v3.10.7, https://matplotlib.org/</dc:title>
     </cc:Agent>
    </dc:creator>
   </cc:Work>
  </rdf:RDF>
 </metadata>
 <defs>
  <style type="text/css">*{stroke-linejoin: round; stroke-linecap: butt}</style>
 </defs>
 <g id="figure_1">
  <g id="patch_1">
   <path d="M 0 370.537812 
L 490.741687 370.537812 
L 490.741687 0 
L 0 0 
z
" style="fill: #ffffff"/>
  </g>
  <g id="axes_1">
   <g id="patch_2">
    <path d="M 79.791687 320.4 
L 470.391687 320.4 
L 470.391687 43.2 
L 79.791687 43.2 
z
" style="fill: #ffffff"/>
   </g>
   <g id="matplotlib.axis_1">
    <g id="xtick_1">
     <g id="line2d_1">
      <defs>
       <path id="mc0f67f23d2" d="M 0 0 
L 0 3.5 
" style="stroke: #000000; stroke-width: 0.8"/>
      </defs>
      <g>
       <use xlink:href="#mc0f67f23d2" x="123.191688" y="320.4" style="stroke: #000000; stroke-width: 0.8"/>
      </g>
     </g>
     <g id="text_1">
      <!-- 0 -->
      <g transform="translate(118.419813 338.797656) scale(0.15 -0.15)">
       <defs>
        <path id="DejaVuSans-30" d="M 2034 4250 
Q 1547 4250 1301 3770 
Q 1056 3291 1056 2328 
Q 1056 1369 1301 889 
Q 1547 409 2034 409 
Q 2525 409 2770 889 
Q 3016 1369 3016 2328 
Q 3016 3291 2770 3770 
Q 2525 4250 2034 4250 
z
M 2034 4750 
Q 2819 4750 3233 4129 
Q 3647 3509 3647 2328 
Q 3647 1150 3233 529 
Q 2819 -91 2034 -91 
Q 1250 -91 836 529 
Q 422 1150 422 2328 
Q 422 3509 836 4129 
Q 1250 4750 2034 4750 
z
" transform="scale(0.015625)"/>
       </defs>
       <use xlink:href="#DejaVuSans-30"/>
      </g>
     </g>
    </g>
    <g id="xtick_2">
     <g id="line2d_2">
      <g>
       <use xlink:href="#mc0f67f23d2" x="195.525021" y="320.4" style="stroke: #000000; stroke-width: 0.8"/>
      </g>
     </g>
     <g id="text_2">
      <!-- 5 -->
      <g transform="translate(190.753146 338.797656) scale(0.15 -0.15)">
       <defs>
        <path id="DejaVuSans-35" d="M 691 4666 
L 3169 4666 
L 3169 4134 
L 1269 4134 
L 1269 2991 
Q 1406 3038 1543 3061 
Q 1681 3084 1819 3084 
Q 2600 3084 3056 2656 
Q 3513 2228 3513 1497 
Q 3513 744 3044 326 
Q 2575 -91 1722 -91 
Q 1428 -91 1123 -41 
Q 819 9 494 109 
L 494 744 
Q 775 591 1075 516 
Q 1375 441 1709 441 
Q 2250 441 2565 725 
Q 2881 1009 2881 1497 
Q 2881 1984 2565 2268 
Q 2250 2553 1709 2553 
Q 1456 2553 1204 2497 
Q 953 2441 691 2322 
L 691 4666 
z
" transform="scale(0.015625)"/>
       </defs>
       <use xlink:href="#DejaVuSans-35"/>
      </g>
     </g>
    </g>
    <g id="xtick_3">
     <g id="line2d_3">
      <g>
       <use xlink:href="#mc0f67f23d2" x="267.858354" y="320.4" style="stroke: #000000; stroke-width: 0.8"/>
      </g>
     </g>
     <g id="text_3">
      <!-- 10 -->
      <g transform="translate(258.314604 338.797656) scale(0.15 -0.15)">
       <defs>
        <path id="DejaVuSans-31" d="M 794 531 
L 1825 531 
L 1825 4091 
L 703 3866 
L 703 4441 
L 1819 4666 
L 2450 4666 
L 2450 531 
L 3481 531 
L 3481 0 
L 794 0 
L 794 531 
z
" transform="scale(0.015625)"/>
       </defs>
       <use xlink:href="#DejaVuSans-31"/>
       <use xlink:href="#DejaVuSans-30" transform="translate(63.623047 0)"/>
      </g>
     </g>
    </g>
    <g id="xtick_4">
     <g id="line2d_4">
      <g>
       <use xlink:href="#mc0f67f23d2" x="340.191688" y="320.4" style="stroke: #000000; stroke-width: 0.8"/>
      </g>
     </g>
     <g id="text_4">
      <!-- 15 -->
      <g transform="translate(330.647938 338.797656) scale(0.15 -0.15)">
       <use xlink:href="#DejaVuSans-31"/>
       <use xlink:href="#DejaVuSans-35" transform="translate(63.623047 0)"/>
      </g>
     </g>
    </g>
    <g id="xtick_5">
     <g id="line2d_5">
      <g>
       <use xlink:href="#mc0f67f23d2" x="412.525021" y="320.4" style="stroke: #000000; stroke-width: 0.8"/>
      </g>
     </g>
     <g id="text_5">
      <!-- 20 -->
      <g transform="translate(402.981271 338.797656) scale(0.15 -0.15)">
       <defs>
        <path id="DejaVuSans-32" d="M 1228 531 
L 3431 531 
L 3431 0 
L 469 0 
L 469 531 
Q 828 903 1448 1529 
Q 2069 2156 2228 2338 
Q 2531 2678 2651 2914 
Q 2772 3150 2772 3378 
Q 2772 3750 2511 3984 
Q 2250 4219 1831 4219 
Q 1534 4219 1204 4116 
Q 875 4013 500 3803 
L 500 4441 
Q 881 4594 1212 4672 
Q 1544 4750 1819 4750 
Q 2544 4750 2975 4387 
Q 3406 4025 3406 3419 
Q 3406 3131 3298 2873 
Q 3191 2616 2906 2266 
Q 2828 2175 2409 1742 
Q 1991 1309 1228 531 
z
" transform="scale(0.015625)"/>
       </defs>
       <use xlink:href="#DejaVuSans-32"/>
       <use xlink:href="#DejaVuSans-30" transform="translate(63.623047 0)"/>
      </g>
     </g>
    </g>
    <g id="text_6">
     <!-- time [hr] -->
     <g transform="translate(230.017156 359.594375) scale(0.18 -0.18)">
      <defs>
       <path id="DejaVuSans-Bold-74" d="M 1759 4494 
L 1759 3500 
L 2913 3500 
L 2913 2700 
L 1759 2700 
L 1759 1216 
Q 1759 972 1856 886 
Q 1953 800 2241 800 
L 2816 800 
L 2816 0 
L 1856 0 
Q 1194 0 917 276 
Q 641 553 641 1216 
L 641 2700 
L 84 2700 
L 84 3500 
L 641 3500 
L 641 4494 
L 1759 4494 
z
" transform="scale(0.015625)"/>
       <path id="DejaVuSans-Bold-69" d="M 538 3500 
L 1656 3500 
L 1656 0 
L 538 0 
L 538 3500 
z
M 538 4863 
L 1656 4863 
L 1656 3950 
L 538 3950 
L 538 4863 
z
" transform="scale(0.015625)"/>
       <path id="DejaVuSans-Bold-6d" d="M 3781 2919 
Q 3994 3244 4286 3414 
Q 4578 3584 4928 3584 
Q 5531 3584 5847 3212 
Q 6163 2841 6163 2131 
L 6163 0 
L 5038 0 
L 5038 1825 
Q 5041 1866 5042 1909 
Q 5044 1953 5044 2034 
Q 5044 2406 4934 2573 
Q 4825 2741 4581 2741 
Q 4263 2741 4089 2478 
Q 3916 2216 3909 1719 
L 3909 0 
L 2784 0 
L 2784 1825 
Q 2784 2406 2684 2573 
Q 2584 2741 2328 2741 
Q 2006 2741 1831 2477 
Q 1656 2213 1656 1722 
L 1656 0 
L 531 0 
L 531 3500 
L 1656 3500 
L 1656 2988 
Q 1863 3284 2130 3434 
Q 2397 3584 2719 3584 
Q 3081 3584 3359 3409 
Q 3638 3234 3781 2919 
z
" transform="scale(0.015625)"/>
       <path id="DejaVuSans-Bold-65" d="M 4031 1759 
L 4031 1441 
L 1416 1441 
Q 1456 1047 1700 850 
Q 1944 653 2381 653 
Q 2734 653 3104 758 
Q 3475 863 3866 1075 
L 3866 213 
Q 3469 63 3072 -14 
Q 2675 -91 2278 -91 
Q 1328 -91 801 392 
Q 275 875 275 1747 
Q 275 2603 792 3093 
Q 1309 3584 2216 3584 
Q 3041 3584 3536 3087 
Q 4031 2591 4031 1759 
z
M 2881 2131 
Q 2881 2450 2695 2645 
Q 2509 2841 2209 2841 
Q 1884 2841 1681 2658 
Q 1478 2475 1428 2131 
L 2881 2131 
z
" transform="scale(0.015625)"/>
       <path id="DejaVuSans-Bold-20" transform="scale(0.015625)"/>
       <path id="DejaVuSans-Bold-5b" d="M 550 4863 
L 2491 4863 
L 2491 4159 
L 1613 4159 
L 1613 -141 
L 2491 -141 
L 2491 -844 
L 550 -844 
L 550 4863 
z
" transform="scale(0.015625)"/>
       <path id="DejaVuSans-Bold-68" d="M 4056 2131 
L 4056 0 
L 2931 0 
L 2931 347 
L 2931 1625 
Q 2931 2084 2911 2256 
Q 2891 2428 2841 2509 
Q 2775 2619 2662 2680 
Q 2550 2741 2406 2741 
Q 2056 2741 1856 2470 
Q 1656 2200 1656 1722 
L 1656 0 
L 538 0 
L 538 4863 
L 1656 4863 
L 1656 2988 
Q 1909 3294 2193 3439 
Q 2478 3584 2822 3584 
Q 3428 3584 3742 3212 
Q 4056 2841 4056 2131 
z
" transform="scale(0.015625)"/>
       <path id="DejaVuSans-Bold-72" d="M 3138 2547 
Q 2991 2616 2845 2648 
Q 2700 2681 2553 2681 
Q 2122 2681 1889 2404 
Q 1656 2128 1656 1613 
L 1656 0 
L 538 0 
L 538 3500 
L 1656 3500 
L 1656 2925 
Q 1872 3269 2151 3426 
Q 2431 3584 2822 3584 
Q 2878 3584 2943 3579 
Q 3009 3575 3134 3559 
L 3138 2547 
z
" transform="scale(0.015625)"/>
       <path id="DejaVuSans-Bold-5d" d="M 2375 -844 
L 434 -844 
L 434 -141 
L 1313 -141 
L 1313 4159 
L 434 4159 
L 434 4863 
L 2375 4863 
L 2375 -844 
z
" transform="scale(0.015625)"/>
      </defs>
      <use xlink:href="#DejaVuSans-Bold-74"/>
      <use xlink:href="#DejaVuSans-Bold-69" transform="translate(47.802734 0)"/>
      <use xlink:href="#DejaVuSans-Bold-6d" transform="translate(82.080078 0)"/>
      <use xlink:href="#DejaVuSans-Bold-65" transform="translate(186.279297 0)"/>
      <use xlink:href="#DejaVuSans-Bold-20" transform="translate(254.101562 0)"/>
      <use xlink:href="#DejaVuSans-Bold-5b" transform="translate(288.916016 0)"/>
      <use xlink:href="#DejaVuSans-Bold-68" transform="translate(334.619141 0)"/>
      <use xlink:href="#DejaVuSans-Bold-72" transform="translate(405.810547 0)"/>
      <use xlink:href="#DejaVuSans-Bold-5d" transform="translate(455.126953 0)"/>
     </g>
    </g>
   </g>
   <g id="matplotlib.axis_2">
    <g id="ytick_1">
     <g id="line2d_6">
      <defs>
       <path id="m0baadb23b1" d="M 0 0 
L -3.5 0 
" style="stroke: #000000; stroke-width: 0.8"/>
      </defs>
      <g>
       <use xlink:href="#m0baadb23b1" x="79.791687" y="307.8" style="stroke: #000000; stroke-width: 0.8"/>
      </g>
     </g>
     <g id="text_7">
      <!-- 0.0 -->
      <g transform="translate(48.937 313.498828) scale(0.15 -0.15)">
       <defs>
        <path id="DejaVuSans-2e" d="M 684 794 
L 1344 794 
L 1344 0 
L 684 0 
L 684 794 
z
" transform="scale(0.015625)"/>
       </defs>
       <use xlink:href="#DejaVuSans-30"/>
       <use xlink:href="#DejaVuSans-2e" transform="translate(63.623047 0)"/>
       <use xlink:href="#DejaVuSans-30" transform="translate(95.410156 0)"/>
      </g>
     </g>
    </g>
    <g id="ytick_2">
     <g id="line2d_7">
      <g>
       <use xlink:href="#m0baadb23b1" x="79.791687" y="252.835047" style="stroke: #000000; stroke-width: 0.8"/>
      </g>
     </g>
     <g id="text_8">
      <!-- 0.1 -->
      <g transform="translate(48.937 258.533875) scale(0.15 -0.15)">
       <use xlink:href="#DejaVuSans-30"/>
       <use xlink:href="#DejaVuSans-2e" transform="translate(63.623047 0)"/>
       <use xlink:href="#DejaVuSans-31" transform="translate(95.410156 0)"/>
      </g>
     </g>
    </g>
    <g id="ytick_3">
     <g id="line2d_8">
      <g>
       <use xlink:href="#m0baadb23b1" x="79.791687" y="197.870095" style="stroke: #000000; stroke-width: 0.8"/>
      </g>
     </g>
     <g id="text_9">
      <!-- 0.2 -->
      <g transform="translate(48.937 203.568923) scale(0.15 -0.15)">
       <use xlink:href="#DejaVuSans-30"/>
       <use xlink:href="#DejaVuSans-2e" transform="translate(63.623047 0)"/>
       <use xlink:href="#DejaVuSans-32" transform="translate(95.410156 0)"/>
      </g>
     </g>
    </g>
    <g id="ytick_4">
     <g id="line2d_9">
      <g>
       <use xlink:href="#m0baadb23b1" x="79.791687" y="142.905142" style="stroke: #000000; stroke-width: 0.8"/>
      </g>
     </g>
     <g id="text_10">
      <!-- 0.3 -->
      <g transform="translate(48.937 148.60397) scale(0.15 -0.15)">
       <defs>
        <path id="DejaVuSans-33" d="M 2597 2516 
Q 3050 2419 3304 2112 
Q 3559 1806 3559 1356 
Q 3559 666 3084 287 
Q 2609 -91 1734 -91 
Q 1441 -91 1130 -33 
Q 819 25 488 141 
L 488 750 
Q 750 597 1062 519 
Q 1375 441 1716 441 
Q 2309 441 2620 675 
Q 2931 909 2931 1356 
Q 2931 1769 2642 2001 
Q 2353 2234 1838 2234 
L 1294 2234 
L 1294 2753 
L 1863 2753 
Q 2328 2753 2575 2939 
Q 2822 3125 2822 3475 
Q 2822 3834 2567 4026 
Q 2313 4219 1838 4219 
Q 1578 4219 1281 4162 
Q 984 4106 628 3988 
L 628 4550 
Q 988 4650 1302 4700 
Q 1616 4750 1894 4750 
Q 2613 4750 3031 4423 
Q 3450 4097 3450 3541 
Q 3450 3153 3228 2886 
Q 3006 2619 2597 2516 
z
" transform="scale(0.015625)"/>
       </defs>
       <use xlink:href="#DejaVuSans-30"/>
       <use xlink:href="#DejaVuSans-2e" transform="translate(63.623047 0)"/>
       <use xlink:href="#DejaVuSans-33" transform="translate(95.410156 0)"/>
      </g>
     </g>
    </g>
    <g id="ytick_5">
     <g id="line2d_10">
      <g>
       <use xlink:href="#m0baadb23b1" x="79.791687" y="87.940189" style="stroke: #000000; stroke-width: 0.8"/>
      </g>
     </g>
     <g id="text_11">
      <!-- 0.4 -->
      <g transform="translate(48.937 93.639017) scale(0.15 -0.15)">
       <defs>
        <path id="DejaVuSans-34" d="M 2419 4116 
L 825 1625 
L 2419 1625 
L 2419 4116 
z
M 2253 4666 
L 3047 4666 
L 3047 1625 
L 3713 1625 
L 3713 1100 
L 3047 1100 
L 3047 0 
L 2419 0 
L 2419 1100 
L 313 1100 
L 313 1709 
L 2253 4666 
z
" transform="scale(0.015625)"/>
       </defs>
       <use xlink:href="#DejaVuSans-30"/>
       <use xlink:href="#DejaVuSans-2e" transform="translate(63.623047 0)"/>
       <use xlink:href="#DejaVuSans-34" transform="translate(95.410156 0)"/>
      </g>
     </g>
    </g>
    <g id="text_12">
     <!-- dapagliflozin -->
     <g transform="translate(20.877187 247.357969) rotate(-90) scale(0.18 -0.18)">
      <defs>
       <path id="DejaVuSans-Bold-64" d="M 2919 2988 
L 2919 4863 
L 4044 4863 
L 4044 0 
L 2919 0 
L 2919 506 
Q 2688 197 2409 53 
Q 2131 -91 1766 -91 
Q 1119 -91 703 423 
Q 288 938 288 1747 
Q 288 2556 703 3070 
Q 1119 3584 1766 3584 
Q 2128 3584 2408 3439 
Q 2688 3294 2919 2988 
z
M 2181 722 
Q 2541 722 2730 984 
Q 2919 1247 2919 1747 
Q 2919 2247 2730 2509 
Q 2541 2772 2181 2772 
Q 1825 2772 1636 2509 
Q 1447 2247 1447 1747 
Q 1447 1247 1636 984 
Q 1825 722 2181 722 
z
" transform="scale(0.015625)"/>
       <path id="DejaVuSans-Bold-61" d="M 2106 1575 
Q 1756 1575 1579 1456 
Q 1403 1338 1403 1106 
Q 1403 894 1545 773 
Q 1688 653 1941 653 
Q 2256 653 2472 879 
Q 2688 1106 2688 1447 
L 2688 1575 
L 2106 1575 
z
M 3816 1997 
L 3816 0 
L 2688 0 
L 2688 519 
Q 2463 200 2181 54 
Q 1900 -91 1497 -91 
Q 953 -91 614 226 
Q 275 544 275 1050 
Q 275 1666 698 1953 
Q 1122 2241 2028 2241 
L 2688 2241 
L 2688 2328 
Q 2688 2594 2478 2717 
Q 2269 2841 1825 2841 
Q 1466 2841 1156 2769 
Q 847 2697 581 2553 
L 581 3406 
Q 941 3494 1303 3539 
Q 1666 3584 2028 3584 
Q 2975 3584 3395 3211 
Q 3816 2838 3816 1997 
z
" transform="scale(0.015625)"/>
       <path id="DejaVuSans-Bold-70" d="M 1656 506 
L 1656 -1331 
L 538 -1331 
L 538 3500 
L 1656 3500 
L 1656 2988 
Q 1888 3294 2169 3439 
Q 2450 3584 2816 3584 
Q 3463 3584 3878 3070 
Q 4294 2556 4294 1747 
Q 4294 938 3878 423 
Q 3463 -91 2816 -91 
Q 2450 -91 2169 54 
Q 1888 200 1656 506 
z
M 2400 2772 
Q 2041 2772 1848 2508 
Q 1656 2244 1656 1747 
Q 1656 1250 1848 986 
Q 2041 722 2400 722 
Q 2759 722 2948 984 
Q 3138 1247 3138 1747 
Q 3138 2247 2948 2509 
Q 2759 2772 2400 2772 
z
" transform="scale(0.015625)"/>
       <path id="DejaVuSans-Bold-67" d="M 2919 594 
Q 2688 288 2409 144 
Q 2131 0 1766 0 
Q 1125 0 706 504 
Q 288 1009 288 1791 
Q 288 2575 706 3076 
Q 1125 3578 1766 3578 
Q 2131 3578 2409 3434 
Q 2688 3291 2919 2981 
L 2919 3500 
L 4044 3500 
L 4044 353 
Q 4044 -491 3511 -936 
Q 2978 -1381 1966 -1381 
Q 1638 -1381 1331 -1331 
Q 1025 -1281 716 -1178 
L 716 -306 
Q 1009 -475 1290 -558 
Q 1572 -641 1856 -641 
Q 2406 -641 2662 -400 
Q 2919 -159 2919 353 
L 2919 594 
z
M 2181 2772 
Q 1834 2772 1640 2515 
Q 1447 2259 1447 1791 
Q 1447 1309 1634 1061 
Q 1822 813 2181 813 
Q 2531 813 2725 1069 
Q 2919 1325 2919 1791 
Q 2919 2259 2725 2515 
Q 2531 2772 2181 2772 
z
" transform="scale(0.015625)"/>
       <path id="DejaVuSans-Bold-6c" d="M 538 4863 
L 1656 4863 
L 1656 0 
L 538 0 
L 538 4863 
z
" transform="scale(0.015625)"/>
       <path id="DejaVuSans-Bold-66" d="M 2841 4863 
L 2841 4128 
L 2222 4128 
Q 1984 4128 1890 4042 
Q 1797 3956 1797 3744 
L 1797 3500 
L 2753 3500 
L 2753 2700 
L 1797 2700 
L 1797 0 
L 678 0 
L 678 2700 
L 122 2700 
L 122 3500 
L 678 3500 
L 678 3744 
Q 678 4316 997 4589 
Q 1316 4863 1984 4863 
L 2841 4863 
z
" transform="scale(0.015625)"/>
       <path id="DejaVuSans-Bold-6f" d="M 2203 2784 
Q 1831 2784 1636 2517 
Q 1441 2250 1441 1747 
Q 1441 1244 1636 976 
Q 1831 709 2203 709 
Q 2569 709 2762 976 
Q 2956 1244 2956 1747 
Q 2956 2250 2762 2517 
Q 2569 2784 2203 2784 
z
M 2203 3584 
Q 3106 3584 3614 3096 
Q 4122 2609 4122 1747 
Q 4122 884 3614 396 
Q 3106 -91 2203 -91 
Q 1297 -91 786 396 
Q 275 884 275 1747 
Q 275 2609 786 3096 
Q 1297 3584 2203 3584 
z
" transform="scale(0.015625)"/>
       <path id="DejaVuSans-Bold-7a" d="M 366 3500 
L 3419 3500 
L 3419 2719 
L 1575 800 
L 3419 800 
L 3419 0 
L 288 0 
L 288 781 
L 2131 2700 
L 366 2700 
L 366 3500 
z
" transform="scale(0.015625)"/>
       <path id="DejaVuSans-Bold-6e" d="M 4056 2131 
L 4056 0 
L 2931 0 
L 2931 347 
L 2931 1631 
Q 2931 2084 2911 2256 
Q 2891 2428 2841 2509 
Q 2775 2619 2662 2680 
Q 2550 2741 2406 2741 
Q 2056 2741 1856 2470 
Q 1656 2200 1656 1722 
L 1656 0 
L 538 0 
L 538 3500 
L 1656 3500 
L 1656 2988 
Q 1909 3294 2193 3439 
Q 2478 3584 2822 3584 
Q 3428 3584 3742 3212 
Q 4056 2841 4056 2131 
z
" transform="scale(0.015625)"/>
      </defs>
      <use xlink:href="#DejaVuSans-Bold-64"/>
      <use xlink:href="#DejaVuSans-Bold-61" transform="translate(71.582031 0)"/>
      <use xlink:href="#DejaVuSans-Bold-70" transform="translate(139.0625 0)"/>
      <use xlink:href="#DejaVuSans-Bold-61" transform="translate(210.644531 0)"/>
      <use xlink:href="#DejaVuSans-Bold-67" transform="translate(278.125 0)"/>
      <use xlink:href="#DejaVuSans-Bold-6c" transform="translate(349.707031 0)"/>
      <use xlink:href="#DejaVuSans-Bold-69" transform="translate(383.984375 0)"/>
      <use xlink:href="#DejaVuSans-Bold-66" transform="translate(418.261719 0)"/>
      <use xlink:href="#DejaVuSans-Bold-6c" transform="translate(461.767578 0)"/>
      <use xlink:href="#DejaVuSans-Bold-6f" transform="translate(496.044922 0)"/>
      <use xlink:href="#DejaVuSans-Bold-7a" transform="translate(564.746094 0)"/>
      <use xlink:href="#DejaVuSans-Bold-69" transform="translate(622.949219 0)"/>
      <use xlink:href="#DejaVuSans-Bold-6e" transform="translate(657.226562 0)"/>
     </g>
     <!-- plasma [µM] -->
     <g transform="translate(41.173875 245.147344) rotate(-90) scale(0.18 -0.18)">
      <defs>
       <path id="DejaVuSans-Bold-73" d="M 3272 3391 
L 3272 2541 
Q 2913 2691 2578 2766 
Q 2244 2841 1947 2841 
Q 1628 2841 1473 2761 
Q 1319 2681 1319 2516 
Q 1319 2381 1436 2309 
Q 1553 2238 1856 2203 
L 2053 2175 
Q 2913 2066 3209 1816 
Q 3506 1566 3506 1031 
Q 3506 472 3093 190 
Q 2681 -91 1863 -91 
Q 1516 -91 1145 -36 
Q 775 19 384 128 
L 384 978 
Q 719 816 1070 734 
Q 1422 653 1784 653 
Q 2113 653 2278 743 
Q 2444 834 2444 1013 
Q 2444 1163 2330 1236 
Q 2216 1309 1875 1350 
L 1678 1375 
Q 931 1469 631 1722 
Q 331 1975 331 2491 
Q 331 3047 712 3315 
Q 1094 3584 1881 3584 
Q 2191 3584 2531 3537 
Q 2872 3491 3272 3391 
z
" transform="scale(0.015625)"/>
       <path id="DejaVuSans-Bold-b5" d="M 544 -1338 
L 544 3500 
L 1672 3500 
L 1672 1466 
Q 1672 1103 1828 926 
Q 1984 750 2303 750 
Q 2625 750 2781 926 
Q 2938 1103 2938 1466 
L 2938 3500 
L 4063 3500 
L 4063 1159 
Q 4063 938 4114 850 
Q 4166 763 4288 763 
Q 4344 763 4395 778 
Q 4447 794 4506 831 
L 4506 50 
Q 4341 -22 4195 -56 
Q 4050 -91 3909 -91 
Q 3631 -91 3454 26 
Q 3278 144 3169 403 
Q 3022 156 2811 32 
Q 2600 -91 2322 -91 
Q 2091 -91 1928 -17 
Q 1766 56 1672 206 
L 1672 -1338 
L 544 -1338 
z
" transform="scale(0.015625)"/>
       <path id="DejaVuSans-Bold-4d" d="M 588 4666 
L 2119 4666 
L 3181 2169 
L 4250 4666 
L 5778 4666 
L 5778 0 
L 4641 0 
L 4641 3413 
L 3566 897 
L 2803 897 
L 1728 3413 
L 1728 0 
L 588 0 
L 588 4666 
z
" transform="scale(0.015625)"/>
      </defs>
      <use xlink:href="#DejaVuSans-Bold-70"/>
      <use xlink:href="#DejaVuSans-Bold-6c" transform="translate(71.582031 0)"/>
      <use xlink:href="#DejaVuSans-Bold-61" transform="translate(105.859375 0)"/>
      <use xlink:href="#DejaVuSans-Bold-73" transform="translate(173.339844 0)"/>
      <use xlink:href="#DejaVuSans-Bold-6d" transform="translate(232.861328 0)"/>
      <use xlink:href="#DejaVuSans-Bold-61" transform="translate(337.060547 0)"/>
      <use xlink:href="#DejaVuSans-Bold-20" transform="translate(404.541016 0)"/>
      <use xlink:href="#DejaVuSans-Bold-5b" transform="translate(439.355469 0)"/>
      <use xlink:href="#DejaVuSans-Bold-b5" transform="translate(485.058594 0)"/>
      <use xlink:href="#DejaVuSans-Bold-4d" transform="translate(558.642578 0)"/>
      <use xlink:href="#DejaVuSans-Bold-5d" transform="translate(658.154297 0)"/>
     </g>
    </g>
   </g>
   <g id="line2d_11">
    <path d="M 79.444487 295.431522 
L 123.191688 295.575658 
L 123.191688 295.575658 
L 123.886088 292.443881 
L 124.580488 282.342271 
L 125.969288 251.940895 
L 128.052488 205.145741 
L 129.441287 180.728797 
L 130.135687 171.009866 
L 130.830087 162.887389 
L 131.524487 156.252361 
L 132.218887 150.973285 
L 132.913287 146.910007 
L 133.607687 143.922703 
L 134.302087 141.877474 
L 134.996488 140.649598 
L 135.690888 140.125183 
L 136.385288 140.201762 
L 137.079688 140.7882 
L 137.774088 141.804169 
L 138.468488 143.179389 
L 139.857288 146.771333 
L 141.246087 151.168464 
L 143.329287 158.657906 
L 153.050887 195.248753 
L 155.828487 204.547649 
L 158.606088 213.126612 
L 161.383688 220.9923 
L 164.161288 228.174016 
L 166.938887 234.711653 
L 169.716487 240.649368 
L 172.494088 246.03225 
L 175.271687 250.904539 
L 178.049287 255.308691 
L 180.826887 259.284894 
L 183.604488 262.870838 
L 186.382087 266.101641 
L 189.159687 269.009851 
L 191.937287 271.625517 
L 194.714888 273.976281 
L 197.492487 276.087497 
L 200.964488 278.424793 
L 204.436487 280.464784 
L 207.908487 282.243838 
L 211.380488 283.794213 
L 215.546887 285.392744 
L 219.713287 286.745908 
L 224.574087 288.06345 
L 229.434888 289.146691 
L 234.990088 290.150414 
L 241.239688 291.040498 
L 248.183687 291.798791 
L 256.516488 292.469268 
L 266.238088 293.01659 
L 278.042888 293.45526 
L 294.014087 293.812546 
L 317.623687 294.092251 
L 360.676487 294.340098 
L 470.391687 294.744235 
L 470.391687 294.744235 
" clip-path="url(#p2f2fd8138f)" style="fill: none; stroke: #000000; stroke-width: 2; stroke-linecap: square"/>
   </g>
   <g id="line2d_12">
    <path d="M 123.191688 297.774684 
L 130.425021 281.597468 
L 137.658354 100.686076 
L 144.891687 97.724051 
L 152.125021 158.787342 
L 159.358354 174.508861 
L 166.591688 195.926582 
L 171.41391 215.749367 
L 181.058354 223.496203 
" clip-path="url(#p2f2fd8138f)" style="fill: none; stroke-dasharray: 3.7,1.6; stroke-dashoffset: 0; stroke: #000000"/>
    <defs>
     <path id="mda8ffbf9e5" d="M 0 3 
C 0.795609 3 1.55874 2.683901 2.12132 2.12132 
C 2.683901 1.55874 3 0.795609 3 0 
C 3 -0.795609 2.683901 -1.55874 2.12132 -2.12132 
C 1.55874 -2.683901 0.795609 -3 0 -3 
C -0.795609 -3 -1.55874 -2.683901 -2.12132 -2.12132 
C -2.683901 -1.55874 -3 -0.795609 -3 0 
C -3 0.795609 -2.683901 1.55874 -2.12132 2.12132 
C -1.55874 2.683901 -0.795609 3 0 3 
z
" style="stroke: #000000"/>
    </defs>
    <g clip-path="url(#p2f2fd8138f)">
     <use xlink:href="#mda8ffbf9e5" x="123.191688" y="297.774684" style="stroke: #000000"/>
     <use xlink:href="#mda8ffbf9e5" x="130.425021" y="281.597468" style="stroke: #000000"/>
     <use xlink:href="#mda8ffbf9e5" x="137.658354" y="100.686076" style="stroke: #000000"/>
     <use xlink:href="#mda8ffbf9e5" x="144.891687" y="97.724051" style="stroke: #000000"/>
     <use xlink:href="#mda8ffbf9e5" x="152.125021" y="158.787342" style="stroke: #000000"/>
     <use xlink:href="#mda8ffbf9e5" x="159.358354" y="174.508861" style="stroke: #000000"/>
     <use xlink:href="#mda8ffbf9e5" x="166.591688" y="195.926582" style="stroke: #000000"/>
     <use xlink:href="#mda8ffbf9e5" x="171.41391" y="215.749367" style="stroke: #000000"/>
     <use xlink:href="#mda8ffbf9e5" x="181.058354" y="223.496203" style="stroke: #000000"/>
    </g>
   </g>
   <g id="line2d_13">
    <path d="M 123.191688 293.217722 
L 130.425021 262.002532 
L 137.658354 200.255696 
L 144.891687 210.964557 
L 152.125021 218.255696 
L 159.358354 240.356962 
L 166.591688 244.458228 
L 171.41391 256.762025 
L 181.058354 258.58481 
" clip-path="url(#p2f2fd8138f)" style="fill: none; stroke-dasharray: 3.7,1.6; stroke-dashoffset: 0; stroke: #000000"/>
    <defs>
     <path id="m0651c877bf" d="M -3 3 
L 3 3 
L 3 -3 
L -3 -3 
z
" style="stroke: #000000; stroke-linejoin: miter"/>
    </defs>
    <g clip-path="url(#p2f2fd8138f)">
     <use xlink:href="#m0651c877bf" x="123.191688" y="293.217722" style="stroke: #000000; stroke-linejoin: miter"/>
     <use xlink:href="#m0651c877bf" x="130.425021" y="262.002532" style="stroke: #000000; stroke-linejoin: miter"/>
     <use xlink:href="#m0651c877bf" x="137.658354" y="200.255696" style="stroke: #000000; stroke-linejoin: miter"/>
     <use xlink:href="#m0651c877bf" x="144.891687" y="210.964557" style="stroke: #000000; stroke-linejoin: miter"/>
     <use xlink:href="#m0651c877bf" x="152.125021" y="218.255696" style="stroke: #000000; stroke-linejoin: miter"/>
     <use xlink:href="#m0651c877bf" x="159.358354" y="240.356962" style="stroke: #000000; stroke-linejoin: miter"/>
     <use xlink:href="#m0651c877bf" x="166.591688" y="244.458228" style="stroke: #000000; stroke-linejoin: miter"/>
     <use xlink:href="#m0651c877bf" x="171.41391" y="256.762025" style="stroke: #000000; stroke-linejoin: miter"/>
     <use xlink:href="#m0651c877bf" x="181.058354" y="258.58481" style="stroke: #000000; stroke-linejoin: miter"/>
    </g>
   </g>
   <g id="line2d_14">
    <path d="M 123.191688 300.053165 
L 130.425021 207.318987 
L 137.658354 125.977215 
L 144.891687 199.572152 
L 152.125021 231.243038 
L 159.358354 253.116456 
L 166.591688 269.065823 
L 171.41391 269.065823 
L 181.058354 273.167089 
" clip-path="url(#p2f2fd8138f)" style="fill: none; stroke-dasharray: 3.7,1.6; stroke-dashoffset: 0; stroke: #000000"/>
    <defs>
     <path id="m5752eacd47" d="M -0 4.242641 
L 4.242641 0 
L 0 -4.242641 
L -4.242641 -0 
z
" style="stroke: #000000; stroke-linejoin: miter"/>
    </defs>
    <g clip-path="url(#p2f2fd8138f)">
     <use xlink:href="#m5752eacd47" x="123.191688" y="300.053165" style="stroke: #000000; stroke-linejoin: miter"/>
     <use xlink:href="#m5752eacd47" x="130.425021" y="207.318987" style="stroke: #000000; stroke-linejoin: miter"/>
     <use xlink:href="#m5752eacd47" x="137.658354" y="125.977215" style="stroke: #000000; stroke-linejoin: miter"/>
     <use xlink:href="#m5752eacd47" x="144.891687" y="199.572152" style="stroke: #000000; stroke-linejoin: miter"/>
     <use xlink:href="#m5752eacd47" x="152.125021" y="231.243038" style="stroke: #000000; stroke-linejoin: miter"/>
     <use xlink:href="#m5752eacd47" x="159.358354" y="253.116456" style="stroke: #000000; stroke-linejoin: miter"/>
     <use xlink:href="#m5752eacd47" x="166.591688" y="269.065823" style="stroke: #000000; stroke-linejoin: miter"/>
     <use xlink:href="#m5752eacd47" x="171.41391" y="269.065823" style="stroke: #000000; stroke-linejoin: miter"/>
     <use xlink:href="#m5752eacd47" x="181.058354" y="273.167089" style="stroke: #000000; stroke-linejoin: miter"/>
    </g>
   </g>
   <g id="line2d_15">
    <path d="M 123.191688 295.040506 
L 130.425021 174.736709 
L 137.658354 121.648101 
L 144.891687 158.331646 
L 152.125021 209.825316 
L 159.358354 228.281013 
L 166.591688 238.534177 
L 171.41391 249.01519 
L 181.058354 254.255696 
" clip-path="url(#p2f2fd8138f)" style="fill: none; stroke-dasharray: 3.7,1.6; stroke-dashoffset: 0; stroke: #000000"/>
    <defs>
     <path id="m95e4d537a9" d="M 0 -3 
L -3 3 
L 3 3 
z
" style="stroke: #000000; stroke-linejoin: miter"/>
    </defs>
    <g clip-path="url(#p2f2fd8138f)">
     <use xlink:href="#m95e4d537a9" x="123.191688" y="295.040506" style="stroke: #000000; stroke-linejoin: miter"/>
     <use xlink:href="#m95e4d537a9" x="130.425021" y="174.736709" style="stroke: #000000; stroke-linejoin: miter"/>
     <use xlink:href="#m95e4d537a9" x="137.658354" y="121.648101" style="stroke: #000000; stroke-linejoin: miter"/>
     <use xlink:href="#m95e4d537a9" x="144.891687" y="158.331646" style="stroke: #000000; stroke-linejoin: miter"/>
     <use xlink:href="#m95e4d537a9" x="152.125021" y="209.825316" style="stroke: #000000; stroke-linejoin: miter"/>
     <use xlink:href="#m95e4d537a9" x="159.358354" y="228.281013" style="stroke: #000000; stroke-linejoin: miter"/>
     <use xlink:href="#m95e4d537a9" x="166.591688" y="238.534177" style="stroke: #000000; stroke-linejoin: miter"/>
     <use xlink:href="#m95e4d537a9" x="171.41391" y="249.01519" style="stroke: #000000; stroke-linejoin: miter"/>
     <use xlink:href="#m95e4d537a9" x="181.058354" y="254.255696" style="stroke: #000000; stroke-linejoin: miter"/>
    </g>
   </g>
   <g id="line2d_16">
    <path d="M 123.191688 295.040506 
L 130.425021 135.546835 
L 137.658354 172.002532 
L 144.891687 222.129114 
L 152.125021 250.837975 
L 159.358354 253.116456 
L 166.591688 256.762025 
L 171.41391 263.141772 
L 181.058354 271.8 
" clip-path="url(#p2f2fd8138f)" style="fill: none; stroke-dasharray: 3.7,1.6; stroke-dashoffset: 0; stroke: #000000"/>
    <defs>
     <path id="mf98f3898e1" d="M -0 3 
L 3 -3 
L -3 -3 
z
" style="stroke: #000000; stroke-linejoin: miter"/>
    </defs>
    <g clip-path="url(#p2f2fd8138f)">
     <use xlink:href="#mf98f3898e1" x="123.191688" y="295.040506" style="stroke: #000000; stroke-linejoin: miter"/>
     <use xlink:href="#mf98f3898e1" x="130.425021" y="135.546835" style="stroke: #000000; stroke-linejoin: miter"/>
     <use xlink:href="#mf98f3898e1" x="137.658354" y="172.002532" style="stroke: #000000; stroke-linejoin: miter"/>
     <use xlink:href="#mf98f3898e1" x="144.891687" y="222.129114" style="stroke: #000000; stroke-linejoin: miter"/>
     <use xlink:href="#mf98f3898e1" x="152.125021" y="250.837975" style="stroke: #000000; stroke-linejoin: miter"/>
     <use xlink:href="#mf98f3898e1" x="159.358354" y="253.116456" style="stroke: #000000; stroke-linejoin: miter"/>
     <use xlink:href="#mf98f3898e1" x="166.591688" y="256.762025" style="stroke: #000000; stroke-linejoin: miter"/>
     <use xlink:href="#mf98f3898e1" x="171.41391" y="263.141772" style="stroke: #000000; stroke-linejoin: miter"/>
     <use xlink:href="#mf98f3898e1" x="181.058354" y="271.8" style="stroke: #000000; stroke-linejoin: miter"/>
    </g>
   </g>
   <g id="line2d_17">
    <path d="M 123.191688 275.217722 
L 130.425021 82.913924 
L 137.658354 55.8 
L 144.891687 143.749367 
L 152.125021 186.58481 
L 159.358354 210.053165 
L 166.591688 215.293671 
L 171.41391 229.875949 
L 181.058354 235.8 
" clip-path="url(#p2f2fd8138f)" style="fill: none; stroke-dasharray: 3.7,1.6; stroke-dashoffset: 0; stroke: #000000"/>
    <defs>
     <path id="m42078beaf7" d="M -3 -0 
L 3 3 
L 3 -3 
z
" style="stroke: #000000; stroke-linejoin: miter"/>
    </defs>
    <g clip-path="url(#p2f2fd8138f)">
     <use xlink:href="#m42078beaf7" x="123.191688" y="275.217722" style="stroke: #000000; stroke-linejoin: miter"/>
     <use xlink:href="#m42078beaf7" x="130.425021" y="82.913924" style="stroke: #000000; stroke-linejoin: miter"/>
     <use xlink:href="#m42078beaf7" x="137.658354" y="55.8" style="stroke: #000000; stroke-linejoin: miter"/>
     <use xlink:href="#m42078beaf7" x="144.891687" y="143.749367" style="stroke: #000000; stroke-linejoin: miter"/>
     <use xlink:href="#m42078beaf7" x="152.125021" y="186.58481" style="stroke: #000000; stroke-linejoin: miter"/>
     <use xlink:href="#m42078beaf7" x="159.358354" y="210.053165" style="stroke: #000000; stroke-linejoin: miter"/>
     <use xlink:href="#m42078beaf7" x="166.591688" y="215.293671" style="stroke: #000000; stroke-linejoin: miter"/>
     <use xlink:href="#m42078beaf7" x="171.41391" y="229.875949" style="stroke: #000000; stroke-linejoin: miter"/>
     <use xlink:href="#m42078beaf7" x="181.058354" y="235.8" style="stroke: #000000; stroke-linejoin: miter"/>
    </g>
   </g>
   <g id="patch_3">
    <path d="M 79.791687 320.4 
L 79.791687 43.2 
" style="fill: none; stroke: #000000; stroke-width: 0.8; stroke-linejoin: miter; stroke-linecap: square"/>
   </g>
   <g id="patch_4">
    <path d="M 470.391687 320.4 
L 470.391687 43.2 
" style="fill: none; stroke: #000000; stroke-width: 0.8; stroke-linejoin: miter; stroke-linecap: square"/>
   </g>
   <g id="patch_5">
    <path d="M 79.791687 320.4 
L 470.391687 320.4 
" style="fill: none; stroke: #000000; stroke-width: 0.8; stroke-linejoin: miter; stroke-linecap: square"/>
   </g>
   <g id="patch_6">
    <path d="M 79.791687 43.2 
L 470.391687 43.2 
" style="fill: none; stroke: #000000; stroke-width: 0.8; stroke-linejoin: miter; stroke-linecap: square"/>
   </g>
   <g id="legend_1">
    <g id="patch_7">
     <path d="M 326.566688 153.946875 
L 463.391688 153.946875 
Q 465.391688 153.946875 465.391688 151.946875 
L 465.391688 50.2 
Q 465.391688 48.2 463.391688 48.2 
L 326.566688 48.2 
Q 324.566688 48.2 324.566688 50.2 
L 324.566688 151.946875 
Q 324.566688 153.946875 326.566688 153.946875 
z
" style="fill: #ffffff; opacity: 0.8; stroke: #cccccc; stroke-linejoin: miter"/>
    </g>
    <g id="line2d_18">
     <path d="M 328.566688 56.298437 
L 348.566688 56.298437 
" style="fill: none; stroke: #000000; stroke-width: 2; stroke-linecap: square"/>
    </g>
    <g id="line2d_19"/>
    <g id="text_13">
     <!-- 10 mg PO -->
     <g transform="translate(356.566688 59.798437) scale(0.1 -0.1)">
      <defs>
       <path id="DejaVuSans-20" transform="scale(0.015625)"/>
       <path id="DejaVuSans-6d" d="M 3328 2828 
Q 3544 3216 3844 3400 
Q 4144 3584 4550 3584 
Q 5097 3584 5394 3201 
Q 5691 2819 5691 2113 
L 5691 0 
L 5113 0 
L 5113 2094 
Q 5113 2597 4934 2840 
Q 4756 3084 4391 3084 
Q 3944 3084 3684 2787 
Q 3425 2491 3425 1978 
L 3425 0 
L 2847 0 
L 2847 2094 
Q 2847 2600 2669 2842 
Q 2491 3084 2119 3084 
Q 1678 3084 1418 2786 
Q 1159 2488 1159 1978 
L 1159 0 
L 581 0 
L 581 3500 
L 1159 3500 
L 1159 2956 
Q 1356 3278 1631 3431 
Q 1906 3584 2284 3584 
Q 2666 3584 2933 3390 
Q 3200 3197 3328 2828 
z
" transform="scale(0.015625)"/>
       <path id="DejaVuSans-67" d="M 2906 1791 
Q 2906 2416 2648 2759 
Q 2391 3103 1925 3103 
Q 1463 3103 1205 2759 
Q 947 2416 947 1791 
Q 947 1169 1205 825 
Q 1463 481 1925 481 
Q 2391 481 2648 825 
Q 2906 1169 2906 1791 
z
M 3481 434 
Q 3481 -459 3084 -895 
Q 2688 -1331 1869 -1331 
Q 1566 -1331 1297 -1286 
Q 1028 -1241 775 -1147 
L 775 -588 
Q 1028 -725 1275 -790 
Q 1522 -856 1778 -856 
Q 2344 -856 2625 -561 
Q 2906 -266 2906 331 
L 2906 616 
Q 2728 306 2450 153 
Q 2172 0 1784 0 
Q 1141 0 747 490 
Q 353 981 353 1791 
Q 353 2603 747 3093 
Q 1141 3584 1784 3584 
Q 2172 3584 2450 3431 
Q 2728 3278 2906 2969 
L 2906 3500 
L 3481 3500 
L 3481 434 
z
" transform="scale(0.015625)"/>
       <path id="DejaVuSans-50" d="M 1259 4147 
L 1259 2394 
L 2053 2394 
Q 2494 2394 2734 2622 
Q 2975 2850 2975 3272 
Q 2975 3691 2734 3919 
Q 2494 4147 2053 4147 
L 1259 4147 
z
M 628 4666 
L 2053 4666 
Q 2838 4666 3239 4311 
Q 3641 3956 3641 3272 
Q 3641 2581 3239 2228 
Q 2838 1875 2053 1875 
L 1259 1875 
L 1259 0 
L 628 0 
L 628 4666 
z
" transform="scale(0.015625)"/>
       <path id="DejaVuSans-4f" d="M 2522 4238 
Q 1834 4238 1429 3725 
Q 1025 3213 1025 2328 
Q 1025 1447 1429 934 
Q 1834 422 2522 422 
Q 3209 422 3611 934 
Q 4013 1447 4013 2328 
Q 4013 3213 3611 3725 
Q 3209 4238 2522 4238 
z
M 2522 4750 
Q 3503 4750 4090 4092 
Q 4678 3434 4678 2328 
Q 4678 1225 4090 567 
Q 3503 -91 2522 -91 
Q 1538 -91 948 565 
Q 359 1222 359 2328 
Q 359 3434 948 4092 
Q 1538 4750 2522 4750 
z
" transform="scale(0.015625)"/>
      </defs>
      <use xlink:href="#DejaVuSans-31"/>
      <use xlink:href="#DejaVuSans-30" transform="translate(63.623047 0)"/>
      <use xlink:href="#DejaVuSans-20" transform="translate(127.246094 0)"/>
      <use xlink:href="#DejaVuSans-6d" transform="translate(159.033203 0)"/>
      <use xlink:href="#DejaVuSans-67" transform="translate(256.445312 0)"/>
      <use xlink:href="#DejaVuSans-20" transform="translate(319.921875 0)"/>
      <use xlink:href="#DejaVuSans-50" transform="translate(351.708984 0)"/>
      <use xlink:href="#DejaVuSans-4f" transform="translate(412.011719 0)"/>
     </g>
    </g>
    <g id="line2d_20">
     <path d="M 328.566688 70.976562 
L 348.566688 70.976562 
" style="fill: none; stroke-dasharray: 3.7,1.6; stroke-dashoffset: 0; stroke: #000000"/>
    </g>
    <g id="line2d_21">
     <g>
      <use xlink:href="#mda8ffbf9e5" x="338.566688" y="70.976562" style="stroke: #000000"/>
     </g>
    </g>
    <g id="text_14">
     <!-- 10 mg PO (S1) (n=1) -->
     <g transform="translate(356.566688 74.476562) scale(0.1 -0.1)">
      <defs>
       <path id="DejaVuSans-28" d="M 1984 4856 
Q 1566 4138 1362 3434 
Q 1159 2731 1159 2009 
Q 1159 1288 1364 580 
Q 1569 -128 1984 -844 
L 1484 -844 
Q 1016 -109 783 600 
Q 550 1309 550 2009 
Q 550 2706 781 3412 
Q 1013 4119 1484 4856 
L 1984 4856 
z
" transform="scale(0.015625)"/>
       <path id="DejaVuSans-53" d="M 3425 4513 
L 3425 3897 
Q 3066 4069 2747 4153 
Q 2428 4238 2131 4238 
Q 1616 4238 1336 4038 
Q 1056 3838 1056 3469 
Q 1056 3159 1242 3001 
Q 1428 2844 1947 2747 
L 2328 2669 
Q 3034 2534 3370 2195 
Q 3706 1856 3706 1288 
Q 3706 609 3251 259 
Q 2797 -91 1919 -91 
Q 1588 -91 1214 -16 
Q 841 59 441 206 
L 441 856 
Q 825 641 1194 531 
Q 1563 422 1919 422 
Q 2459 422 2753 634 
Q 3047 847 3047 1241 
Q 3047 1584 2836 1778 
Q 2625 1972 2144 2069 
L 1759 2144 
Q 1053 2284 737 2584 
Q 422 2884 422 3419 
Q 422 4038 858 4394 
Q 1294 4750 2059 4750 
Q 2388 4750 2728 4690 
Q 3069 4631 3425 4513 
z
" transform="scale(0.015625)"/>
       <path id="DejaVuSans-29" d="M 513 4856 
L 1013 4856 
Q 1481 4119 1714 3412 
Q 1947 2706 1947 2009 
Q 1947 1309 1714 600 
Q 1481 -109 1013 -844 
L 513 -844 
Q 928 -128 1133 580 
Q 1338 1288 1338 2009 
Q 1338 2731 1133 3434 
Q 928 4138 513 4856 
z
" transform="scale(0.015625)"/>
       <path id="DejaVuSans-6e" d="M 3513 2113 
L 3513 0 
L 2938 0 
L 2938 2094 
Q 2938 2591 2744 2837 
Q 2550 3084 2163 3084 
Q 1697 3084 1428 2787 
Q 1159 2491 1159 1978 
L 1159 0 
L 581 0 
L 581 3500 
L 1159 3500 
L 1159 2956 
Q 1366 3272 1645 3428 
Q 1925 3584 2291 3584 
Q 2894 3584 3203 3211 
Q 3513 2838 3513 2113 
z
" transform="scale(0.015625)"/>
       <path id="DejaVuSans-3d" d="M 678 2906 
L 4684 2906 
L 4684 2381 
L 678 2381 
L 678 2906 
z
M 678 1631 
L 4684 1631 
L 4684 1100 
L 678 1100 
L 678 1631 
z
" transform="scale(0.015625)"/>
      </defs>
      <use xlink:href="#DejaVuSans-31"/>
      <use xlink:href="#DejaVuSans-30" transform="translate(63.623047 0)"/>
      <use xlink:href="#DejaVuSans-20" transform="translate(127.246094 0)"/>
      <use xlink:href="#DejaVuSans-6d" transform="translate(159.033203 0)"/>
      <use xlink:href="#DejaVuSans-67" transform="translate(256.445312 0)"/>
      <use xlink:href="#DejaVuSans-20" transform="translate(319.921875 0)"/>
      <use xlink:href="#DejaVuSans-50" transform="translate(351.708984 0)"/>
      <use xlink:href="#DejaVuSans-4f" transform="translate(412.011719 0)"/>
      <use xlink:href="#DejaVuSans-20" transform="translate(490.722656 0)"/>
      <use xlink:href="#DejaVuSans-28" transform="translate(522.509766 0)"/>
      <use xlink:href="#DejaVuSans-53" transform="translate(561.523438 0)"/>
      <use xlink:href="#DejaVuSans-31" transform="translate(625 0)"/>
      <use xlink:href="#DejaVuSans-29" transform="translate(688.623047 0)"/>
      <use xlink:href="#DejaVuSans-20" transform="translate(727.636719 0)"/>
      <use xlink:href="#DejaVuSans-28" transform="translate(759.423828 0)"/>
      <use xlink:href="#DejaVuSans-6e" transform="translate(798.4375 0)"/>
      <use xlink:href="#DejaVuSans-3d" transform="translate(861.816406 0)"/>
      <use xlink:href="#DejaVuSans-31" transform="translate(945.605469 0)"/>
      <use xlink:href="#DejaVuSans-29" transform="translate(1009.228516 0)"/>
     </g>
    </g>
    <g id="line2d_22">
     <path d="M 328.566688 85.654687 
L 348.566688 85.654687 
" style="fill: none; stroke-dasharray: 3.7,1.6; stroke-dashoffset: 0; stroke: #000000"/>
    </g>
    <g id="line2d_23">
     <g>
      <use xlink:href="#m0651c877bf" x="338.566688" y="85.654687" style="stroke: #000000; stroke-linejoin: miter"/>
     </g>
    </g>
    <g id="text_15">
     <!-- 10 mg PO (S2) (n=1) -->
     <g transform="translate(356.566688 89.154687) scale(0.1 -0.1)">
      <use xlink:href="#DejaVuSans-31"/>
      <use xlink:href="#DejaVuSans-30" transform="translate(63.623047 0)"/>
      <use xlink:href="#DejaVuSans-20" transform="translate(127.246094 0)"/>
      <use xlink:href="#DejaVuSans-6d" transform="translate(159.033203 0)"/>
      <use xlink:href="#DejaVuSans-67" transform="translate(256.445312 0)"/>
      <use xlink:href="#DejaVuSans-20" transform="translate(319.921875 0)"/>
      <use xlink:href="#DejaVuSans-50" transform="translate(351.708984 0)"/>
      <use xlink:href="#DejaVuSans-4f" transform="translate(412.011719 0)"/>
      <use xlink:href="#DejaVuSans-20" transform="translate(490.722656 0)"/>
      <use xlink:href="#DejaVuSans-28" transform="translate(522.509766 0)"/>
      <use xlink:href="#DejaVuSans-53" transform="translate(561.523438 0)"/>
      <use xlink:href="#DejaVuSans-32" transform="translate(625 0)"/>
      <use xlink:href="#DejaVuSans-29" transform="translate(688.623047 0)"/>
      <use xlink:href="#DejaVuSans-20" transform="translate(727.636719 0)"/>
      <use xlink:href="#DejaVuSans-28" transform="translate(759.423828 0)"/>
      <use xlink:href="#DejaVuSans-6e" transform="translate(798.4375 0)"/>
      <use xlink:href="#DejaVuSans-3d" transform="translate(861.816406 0)"/>
      <use xlink:href="#DejaVuSans-31" transform="translate(945.605469 0)"/>
      <use xlink:href="#DejaVuSans-29" transform="translate(1009.228516 0)"/>
     </g>
    </g>
    <g id="line2d_24">
     <path d="M 328.566688 100.332812 
L 348.566688 100.332812 
" style="fill: none; stroke-dasharray: 3.7,1.6; stroke-dashoffset: 0; stroke: #000000"/>
    </g>
    <g id="line2d_25">
     <g>
      <use xlink:href="#m5752eacd47" x="338.566688" y="100.332812" style="stroke: #000000; stroke-linejoin: miter"/>
     </g>
    </g>
    <g id="text_16">
     <!-- 10 mg PO (S3) (n=1) -->
     <g transform="translate(356.566688 103.832812) scale(0.1 -0.1)">
      <use xlink:href="#DejaVuSans-31"/>
      <use xlink:href="#DejaVuSans-30" transform="translate(63.623047 0)"/>
      <use xlink:href="#DejaVuSans-20" transform="translate(127.246094 0)"/>
      <use xlink:href="#DejaVuSans-6d" transform="translate(159.033203 0)"/>
      <use xlink:href="#DejaVuSans-67" transform="translate(256.445312 0)"/>
      <use xlink:href="#DejaVuSans-20" transform="translate(319.921875 0)"/>
      <use xlink:href="#DejaVuSans-50" transform="translate(351.708984 0)"/>
      <use xlink:href="#DejaVuSans-4f" transform="translate(412.011719 0)"/>
      <use xlink:href="#DejaVuSans-20" transform="translate(490.722656 0)"/>
      <use xlink:href="#DejaVuSans-28" transform="translate(522.509766 0)"/>
      <use xlink:href="#DejaVuSans-53" transform="translate(561.523438 0)"/>
      <use xlink:href="#DejaVuSans-33" transform="translate(625 0)"/>
      <use xlink:href="#DejaVuSans-29" transform="translate(688.623047 0)"/>
      <use xlink:href="#DejaVuSans-20" transform="translate(727.636719 0)"/>
      <use xlink:href="#DejaVuSans-28" transform="translate(759.423828 0)"/>
      <use xlink:href="#DejaVuSans-6e" transform="translate(798.4375 0)"/>
      <use xlink:href="#DejaVuSans-3d" transform="translate(861.816406 0)"/>
      <use xlink:href="#DejaVuSans-31" transform="translate(945.605469 0)"/>
      <use xlink:href="#DejaVuSans-29" transform="translate(1009.228516 0)"/>
     </g>
    </g>
    <g id="line2d_26">
     <path d="M 328.566688 115.010937 
L 348.566688 115.010937 
" style="fill: none; stroke-dasharray: 3.7,1.6; stroke-dashoffset: 0; stroke: #000000"/>
    </g>
    <g id="line2d_27">
     <g>
      <use xlink:href="#m95e4d537a9" x="338.566688" y="115.010937" style="stroke: #000000; stroke-linejoin: miter"/>
     </g>
    </g>
    <g id="text_17">
     <!-- 10 mg PO (S4) (n=1) -->
     <g transform="translate(356.566688 118.510937) scale(0.1 -0.1)">
      <use xlink:href="#DejaVuSans-31"/>
      <use xlink:href="#DejaVuSans-30" transform="translate(63.623047 0)"/>
      <use xlink:href="#DejaVuSans-20" transform="translate(127.246094 0)"/>
      <use xlink:href="#DejaVuSans-6d" transform="translate(159.033203 0)"/>
      <use xlink:href="#DejaVuSans-67" transform="translate(256.445312 0)"/>
      <use xlink:href="#DejaVuSans-20" transform="translate(319.921875 0)"/>
      <use xlink:href="#DejaVuSans-50" transform="translate(351.708984 0)"/>
      <use xlink:href="#DejaVuSans-4f" transform="translate(412.011719 0)"/>
      <use xlink:href="#DejaVuSans-20" transform="translate(490.722656 0)"/>
      <use xlink:href="#DejaVuSans-28" transform="translate(522.509766 0)"/>
      <use xlink:href="#DejaVuSans-53" transform="translate(561.523438 0)"/>
      <use xlink:href="#DejaVuSans-34" transform="translate(625 0)"/>
      <use xlink:href="#DejaVuSans-29" transform="translate(688.623047 0)"/>
      <use xlink:href="#DejaVuSans-20" transform="translate(727.636719 0)"/>
      <use xlink:href="#DejaVuSans-28" transform="translate(759.423828 0)"/>
      <use xlink:href="#DejaVuSans-6e" transform="translate(798.4375 0)"/>
      <use xlink:href="#DejaVuSans-3d" transform="translate(861.816406 0)"/>
      <use xlink:href="#DejaVuSans-31" transform="translate(945.605469 0)"/>
      <use xlink:href="#DejaVuSans-29" transform="translate(1009.228516 0)"/>
     </g>
    </g>
    <g id="line2d_28">
     <path d="M 328.566688 129.689062 
L 348.566688 129.689062 
" style="fill: none; stroke-dasharray: 3.7,1.6; stroke-dashoffset: 0; stroke: #000000"/>
    </g>
    <g id="line2d_29">
     <g>
      <use xlink:href="#mf98f3898e1" x="338.566688" y="129.689062" style="stroke: #000000; stroke-linejoin: miter"/>
     </g>
    </g>
    <g id="text_18">
     <!-- 10 mg PO (S5) (n=1) -->
     <g transform="translate(356.566688 133.189062) scale(0.1 -0.1)">
      <use xlink:href="#DejaVuSans-31"/>
      <use xlink:href="#DejaVuSans-30" transform="translate(63.623047 0)"/>
      <use xlink:href="#DejaVuSans-20" transform="translate(127.246094 0)"/>
      <use xlink:href="#DejaVuSans-6d" transform="translate(159.033203 0)"/>
      <use xlink:href="#DejaVuSans-67" transform="translate(256.445312 0)"/>
      <use xlink:href="#DejaVuSans-20" transform="translate(319.921875 0)"/>
      <use xlink:href="#DejaVuSans-50" transform="translate(351.708984 0)"/>
      <use xlink:href="#DejaVuSans-4f" transform="translate(412.011719 0)"/>
      <use xlink:href="#DejaVuSans-20" transform="translate(490.722656 0)"/>
      <use xlink:href="#DejaVuSans-28" transform="translate(522.509766 0)"/>
      <use xlink:href="#DejaVuSans-53" transform="translate(561.523438 0)"/>
      <use xlink:href="#DejaVuSans-35" transform="translate(625 0)"/>
      <use xlink:href="#DejaVuSans-29" transform="translate(688.623047 0)"/>
      <use xlink:href="#DejaVuSans-20" transform="translate(727.636719 0)"/>
      <use xlink:href="#DejaVuSans-28" transform="translate(759.423828 0)"/>
      <use xlink:href="#DejaVuSans-6e" transform="translate(798.4375 0)"/>
      <use xlink:href="#DejaVuSans-3d" transform="translate(861.816406 0)"/>
      <use xlink:href="#DejaVuSans-31" transform="translate(945.605469 0)"/>
      <use xlink:href="#DejaVuSans-29" transform="translate(1009.228516 0)"/>
     </g>
    </g>
    <g id="line2d_30">
     <path d="M 328.566688 144.367187 
L 348.566688 144.367187 
" style="fill: none; stroke-dasharray: 3.7,1.6; stroke-dashoffset: 0; stroke: #000000"/>
    </g>
    <g id="line2d_31">
     <g>
      <use xlink:href="#m42078beaf7" x="338.566688" y="144.367187" style="stroke: #000000; stroke-linejoin: miter"/>
     </g>
    </g>
    <g id="text_19">
     <!-- 10 mg PO (S6) (n=1) -->
     <g transform="translate(356.566688 147.867187) scale(0.1 -0.1)">
      <defs>
       <path id="DejaVuSans-36" d="M 2113 2584 
Q 1688 2584 1439 2293 
Q 1191 2003 1191 1497 
Q 1191 994 1439 701 
Q 1688 409 2113 409 
Q 2538 409 2786 701 
Q 3034 994 3034 1497 
Q 3034 2003 2786 2293 
Q 2538 2584 2113 2584 
z
M 3366 4563 
L 3366 3988 
Q 3128 4100 2886 4159 
Q 2644 4219 2406 4219 
Q 1781 4219 1451 3797 
Q 1122 3375 1075 2522 
Q 1259 2794 1537 2939 
Q 1816 3084 2150 3084 
Q 2853 3084 3261 2657 
Q 3669 2231 3669 1497 
Q 3669 778 3244 343 
Q 2819 -91 2113 -91 
Q 1303 -91 875 529 
Q 447 1150 447 2328 
Q 447 3434 972 4092 
Q 1497 4750 2381 4750 
Q 2619 4750 2861 4703 
Q 3103 4656 3366 4563 
z
" transform="scale(0.015625)"/>
      </defs>
      <use xlink:href="#DejaVuSans-31"/>
      <use xlink:href="#DejaVuSans-30" transform="translate(63.623047 0)"/>
      <use xlink:href="#DejaVuSans-20" transform="translate(127.246094 0)"/>
      <use xlink:href="#DejaVuSans-6d" transform="translate(159.033203 0)"/>
      <use xlink:href="#DejaVuSans-67" transform="translate(256.445312 0)"/>
      <use xlink:href="#DejaVuSans-20" transform="translate(319.921875 0)"/>
      <use xlink:href="#DejaVuSans-50" transform="translate(351.708984 0)"/>
      <use xlink:href="#DejaVuSans-4f" transform="translate(412.011719 0)"/>
      <use xlink:href="#DejaVuSans-20" transform="translate(490.722656 0)"/>
      <use xlink:href="#DejaVuSans-28" transform="translate(522.509766 0)"/>
      <use xlink:href="#DejaVuSans-53" transform="translate(561.523438 0)"/>
      <use xlink:href="#DejaVuSans-36" transform="translate(625 0)"/>
      <use xlink:href="#DejaVuSans-29" transform="translate(688.623047 0)"/>
      <use xlink:href="#DejaVuSans-20" transform="translate(727.636719 0)"/>
      <use xlink:href="#DejaVuSans-28" transform="translate(759.423828 0)"/>
      <use xlink:href="#DejaVuSans-6e" transform="translate(798.4375 0)"/>
      <use xlink:href="#DejaVuSans-3d" transform="translate(861.816406 0)"/>
      <use xlink:href="#DejaVuSans-31" transform="translate(945.605469 0)"/>
      <use xlink:href="#DejaVuSans-29" transform="translate(1009.228516 0)"/>
     </g>
    </g>
   </g>
  </g>
  <g id="text_20">
   <!-- vanderAartvanderBeek2020 (Healthy) -->
   <g transform="translate(54.041687 22.396875) scale(0.2 -0.2)">
    <defs>
     <path id="DejaVuSans-Bold-76" d="M 97 3500 
L 1216 3500 
L 2088 1081 
L 2956 3500 
L 4078 3500 
L 2700 0 
L 1472 0 
L 97 3500 
z
" transform="scale(0.015625)"/>
     <path id="DejaVuSans-Bold-41" d="M 3419 850 
L 1538 850 
L 1241 0 
L 31 0 
L 1759 4666 
L 3194 4666 
L 4922 0 
L 3713 0 
L 3419 850 
z
M 1838 1716 
L 3116 1716 
L 2478 3572 
L 1838 1716 
z
" transform="scale(0.015625)"/>
     <path id="DejaVuSans-Bold-42" d="M 2456 2859 
Q 2741 2859 2887 2984 
Q 3034 3109 3034 3353 
Q 3034 3594 2887 3720 
Q 2741 3847 2456 3847 
L 1791 3847 
L 1791 2859 
L 2456 2859 
z
M 2497 819 
Q 2859 819 3042 972 
Q 3225 1125 3225 1434 
Q 3225 1738 3044 1889 
Q 2863 2041 2497 2041 
L 1791 2041 
L 1791 819 
L 2497 819 
z
M 3616 2497 
Q 4003 2384 4215 2081 
Q 4428 1778 4428 1338 
Q 4428 663 3972 331 
Q 3516 0 2584 0 
L 588 0 
L 588 4666 
L 2394 4666 
Q 3366 4666 3802 4372 
Q 4238 4078 4238 3431 
Q 4238 3091 4078 2852 
Q 3919 2613 3616 2497 
z
" transform="scale(0.015625)"/>
     <path id="DejaVuSans-Bold-6b" d="M 538 4863 
L 1656 4863 
L 1656 2216 
L 2944 3500 
L 4244 3500 
L 2534 1894 
L 4378 0 
L 3022 0 
L 1656 1459 
L 1656 0 
L 538 0 
L 538 4863 
z
" transform="scale(0.015625)"/>
     <path id="DejaVuSans-Bold-32" d="M 1844 884 
L 3897 884 
L 3897 0 
L 506 0 
L 506 884 
L 2209 2388 
Q 2438 2594 2547 2791 
Q 2656 2988 2656 3200 
Q 2656 3528 2436 3728 
Q 2216 3928 1850 3928 
Q 1569 3928 1234 3808 
Q 900 3688 519 3450 
L 519 4475 
Q 925 4609 1322 4679 
Q 1719 4750 2100 4750 
Q 2938 4750 3402 4381 
Q 3866 4013 3866 3353 
Q 3866 2972 3669 2642 
Q 3472 2313 2841 1759 
L 1844 884 
z
" transform="scale(0.015625)"/>
     <path id="DejaVuSans-Bold-30" d="M 2944 2338 
Q 2944 3213 2780 3570 
Q 2616 3928 2228 3928 
Q 1841 3928 1675 3570 
Q 1509 3213 1509 2338 
Q 1509 1453 1675 1090 
Q 1841 728 2228 728 
Q 2613 728 2778 1090 
Q 2944 1453 2944 2338 
z
M 4147 2328 
Q 4147 1169 3647 539 
Q 3147 -91 2228 -91 
Q 1306 -91 806 539 
Q 306 1169 306 2328 
Q 306 3491 806 4120 
Q 1306 4750 2228 4750 
Q 3147 4750 3647 4120 
Q 4147 3491 4147 2328 
z
" transform="scale(0.015625)"/>
     <path id="DejaVuSans-Bold-28" d="M 2413 -844 
L 1484 -844 
Q 1006 -72 778 623 
Q 550 1319 550 2003 
Q 550 2688 779 3389 
Q 1009 4091 1484 4856 
L 2413 4856 
Q 2013 4116 1813 3408 
Q 1613 2700 1613 2009 
Q 1613 1319 1811 609 
Q 2009 -100 2413 -844 
z
" transform="scale(0.015625)"/>
     <path id="DejaVuSans-Bold-48" d="M 588 4666 
L 1791 4666 
L 1791 2888 
L 3566 2888 
L 3566 4666 
L 4769 4666 
L 4769 0 
L 3566 0 
L 3566 1978 
L 1791 1978 
L 1791 0 
L 588 0 
L 588 4666 
z
" transform="scale(0.015625)"/>
     <path id="DejaVuSans-Bold-79" d="M 78 3500 
L 1197 3500 
L 2138 1125 
L 2938 3500 
L 4056 3500 
L 2584 -331 
Q 2363 -916 2067 -1148 
Q 1772 -1381 1288 -1381 
L 641 -1381 
L 641 -647 
L 991 -647 
Q 1275 -647 1404 -556 
Q 1534 -466 1606 -231 
L 1638 -134 
L 78 3500 
z
" transform="scale(0.015625)"/>
     <path id="DejaVuSans-Bold-29" d="M 513 -844 
Q 913 -100 1113 609 
Q 1313 1319 1313 2009 
Q 1313 2700 1113 3408 
Q 913 4116 513 4856 
L 1441 4856 
Q 1916 4091 2145 3389 
Q 2375 2688 2375 2003 
Q 2375 1319 2147 623 
Q 1919 -72 1441 -844 
L 513 -844 
z
" transform="scale(0.015625)"/>
    </defs>
    <use xlink:href="#DejaVuSans-Bold-76"/>
    <use xlink:href="#DejaVuSans-Bold-61" transform="translate(65.185547 0)"/>
    <use xlink:href="#DejaVuSans-Bold-6e" transform="translate(132.666016 0)"/>
    <use xlink:href="#DejaVuSans-Bold-64" transform="translate(203.857422 0)"/>
    <use xlink:href="#DejaVuSans-Bold-65" transform="translate(275.439453 0)"/>
    <use xlink:href="#DejaVuSans-Bold-72" transform="translate(343.261719 0)"/>
    <use xlink:href="#DejaVuSans-Bold-41" transform="translate(392.578125 0)"/>
    <use xlink:href="#DejaVuSans-Bold-61" transform="translate(469.970703 0)"/>
    <use xlink:href="#DejaVuSans-Bold-72" transform="translate(537.451172 0)"/>
    <use xlink:href="#DejaVuSans-Bold-74" transform="translate(586.767578 0)"/>
    <use xlink:href="#DejaVuSans-Bold-76" transform="translate(634.570312 0)"/>
    <use xlink:href="#DejaVuSans-Bold-61" transform="translate(699.755859 0)"/>
    <use xlink:href="#DejaVuSans-Bold-6e" transform="translate(767.236328 0)"/>
    <use xlink:href="#DejaVuSans-Bold-64" transform="translate(838.427734 0)"/>
    <use xlink:href="#DejaVuSans-Bold-65" transform="translate(910.009766 0)"/>
    <use xlink:href="#DejaVuSans-Bold-72" transform="translate(977.832031 0)"/>
    <use xlink:href="#DejaVuSans-Bold-42" transform="translate(1027.148438 0)"/>
    <use xlink:href="#DejaVuSans-Bold-65" transform="translate(1103.369141 0)"/>
    <use xlink:href="#DejaVuSans-Bold-65" transform="translate(1171.191406 0)"/>
    <use xlink:href="#DejaVuSans-Bold-6b" transform="translate(1239.013672 0)"/>
    <use xlink:href="#DejaVuSans-Bold-32" transform="translate(1305.517578 0)"/>
    <use xlink:href="#DejaVuSans-Bold-30" transform="translate(1375.097656 0)"/>
    <use xlink:href="#DejaVuSans-Bold-32" transform="translate(1444.677734 0)"/>
    <use xlink:href="#DejaVuSans-Bold-30" transform="translate(1514.257812 0)"/>
    <use xlink:href="#DejaVuSans-Bold-20" transform="translate(1583.837891 0)"/>
    <use xlink:href="#DejaVuSans-Bold-28" transform="translate(1618.652344 0)"/>
    <use xlink:href="#DejaVuSans-Bold-48" transform="translate(1664.355469 0)"/>
    <use xlink:href="#DejaVuSans-Bold-65" transform="translate(1748.046875 0)"/>
    <use xlink:href="#DejaVuSans-Bold-61" transform="translate(1815.869141 0)"/>
    <use xlink:href="#DejaVuSans-Bold-6c" transform="translate(1883.349609 0)"/>
    <use xlink:href="#DejaVuSans-Bold-74" transform="translate(1917.626953 0)"/>
    <use xlink:href="#DejaVuSans-Bold-68" transform="translate(1965.429688 0)"/>
    <use xlink:href="#DejaVuSans-Bold-79" transform="translate(2036.621094 0)"/>
    <use xlink:href="#DejaVuSans-Bold-29" transform="translate(2101.806641 0)"/>
   </g>
  </g>
 </g>
 <defs>
  <clipPath id="p2f2fd8138f">
   <rect x="79.791687" y="43.2" width="390.6" height="277.2"/>
  </clipPath>
 </defs>
</svg>
