<?xml version="1.0" encoding="utf-8" standalone="no"?>
<!DOCTYPE svg PUBLIC "-//W3C//DTD SVG 1.1//EN"
  "http://www.w3.org/Graphics/SVG/1.1/DTD/svg11.dtd">
<svg xmlns:xlink="http://www.w3.org/1999/xlink" width="457.415937pt" height="370.537812pt" viewBox="0 0 457.415937 370.537812" xmlns="http://www.w3.org/2000/svg" version="1.1">
 <metadata>
  <rdf:RDF xmlns:dc="http://purl.org/dc/elements/1.1/" xmlns:cc="http://creativecommons.org/ns#" xmlns:rdf="http://www.w3.org/1999/02/22-rdf-syntax-ns#">
   <cc:Work>
    <dc:type rdf:resource="http://purl.org/dc/dcmitype/StillImage"/>
    <dc:date>2025-03-19T16:41:44.949059</dc:date>
    <dc:format>image/svg+xml</dc:format>
    <dc:creator>
     <cc:Agent>
      <dc:title>Matplotlib v3.9.1, https://matplotlib.org/</dc:title>
     </cc:Agent>
    </dc:creator>
   </cc:Work>
  </rdf:RDF>
 </metadata>
 <defs>
  <style type="text/css">*{stroke-linejoin: round; stroke-linecap: butt}</style>
 </defs>
 <g id="figure_1">
  <g id="patch_1">
   <path d="M 0 370.537812 
L 457.415937 370.537812 
L 457.415937 0 
L 0 0 
z
" style="fill: #ffffff"/>
  </g>
  <g id="axes_1">
   <g id="patch_2">
    <path d="M 59.615938 320.4 
L 450.215937 320.4 
L 450.215937 43.2 
L 59.615938 43.2 
z
" style="fill: #ffffff"/>
   </g>
   <g id="matplotlib.axis_1">
    <g id="xtick_1">
     <g id="line2d_1">
      <defs>
       <path id="mbbe1717fe6" d="M 0 0 
L 0 3.5 
" style="stroke: #000000; stroke-width: 0.8"/>
      </defs>
      <g>
       <use xlink:href="#mbbe1717fe6" x="103.015938" y="320.4" style="stroke: #000000; stroke-width: 0.8"/>
      </g>
     </g>
     <g id="text_1">
      <!-- 0 -->
      <g transform="translate(98.244063 338.797656) scale(0.15 -0.15)">
       <defs>
        <path id="DejaVuSans-30" d="M 2034 4250 
Q 1547 4250 1301 3770 
Q 1056 3291 1056 2328 
Q 1056 1369 1301 889 
Q 1547 409 2034 409 
Q 2525 409 2770 889 
Q 3016 1369 3016 2328 
Q 3016 3291 2770 3770 
Q 2525 4250 2034 4250 
z
M 2034 4750 
Q 2819 4750 3233 4129 
Q 3647 3509 3647 2328 
Q 3647 1150 3233 529 
Q 2819 -91 2034 -91 
Q 1250 -91 836 529 
Q 422 1150 422 2328 
Q 422 3509 836 4129 
Q 1250 4750 2034 4750 
z
" transform="scale(0.015625)"/>
       </defs>
       <use xlink:href="#DejaVuSans-30"/>
      </g>
     </g>
    </g>
    <g id="xtick_2">
     <g id="line2d_2">
      <g>
       <use xlink:href="#mbbe1717fe6" x="175.349271" y="320.4" style="stroke: #000000; stroke-width: 0.8"/>
      </g>
     </g>
     <g id="text_2">
      <!-- 5 -->
      <g transform="translate(170.577396 338.797656) scale(0.15 -0.15)">
       <defs>
        <path id="DejaVuSans-35" d="M 691 4666 
L 3169 4666 
L 3169 4134 
L 1269 4134 
L 1269 2991 
Q 1406 3038 1543 3061 
Q 1681 3084 1819 3084 
Q 2600 3084 3056 2656 
Q 3513 2228 3513 1497 
Q 3513 744 3044 326 
Q 2575 -91 1722 -91 
Q 1428 -91 1123 -41 
Q 819 9 494 109 
L 494 744 
Q 775 591 1075 516 
Q 1375 441 1709 441 
Q 2250 441 2565 725 
Q 2881 1009 2881 1497 
Q 2881 1984 2565 2268 
Q 2250 2553 1709 2553 
Q 1456 2553 1204 2497 
Q 953 2441 691 2322 
L 691 4666 
z
" transform="scale(0.015625)"/>
       </defs>
       <use xlink:href="#DejaVuSans-35"/>
      </g>
     </g>
    </g>
    <g id="xtick_3">
     <g id="line2d_3">
      <g>
       <use xlink:href="#mbbe1717fe6" x="247.682604" y="320.4" style="stroke: #000000; stroke-width: 0.8"/>
      </g>
     </g>
     <g id="text_3">
      <!-- 10 -->
      <g transform="translate(238.138854 338.797656) scale(0.15 -0.15)">
       <defs>
        <path id="DejaVuSans-31" d="M 794 531 
L 1825 531 
L 1825 4091 
L 703 3866 
L 703 4441 
L 1819 4666 
L 2450 4666 
L 2450 531 
L 3481 531 
L 3481 0 
L 794 0 
L 794 531 
z
" transform="scale(0.015625)"/>
       </defs>
       <use xlink:href="#DejaVuSans-31"/>
       <use xlink:href="#DejaVuSans-30" x="63.623047"/>
      </g>
     </g>
    </g>
    <g id="xtick_4">
     <g id="line2d_4">
      <g>
       <use xlink:href="#mbbe1717fe6" x="320.015938" y="320.4" style="stroke: #000000; stroke-width: 0.8"/>
      </g>
     </g>
     <g id="text_4">
      <!-- 15 -->
      <g transform="translate(310.472188 338.797656) scale(0.15 -0.15)">
       <use xlink:href="#DejaVuSans-31"/>
       <use xlink:href="#DejaVuSans-35" x="63.623047"/>
      </g>
     </g>
    </g>
    <g id="xtick_5">
     <g id="line2d_5">
      <g>
       <use xlink:href="#mbbe1717fe6" x="392.349271" y="320.4" style="stroke: #000000; stroke-width: 0.8"/>
      </g>
     </g>
     <g id="text_5">
      <!-- 20 -->
      <g transform="translate(382.805521 338.797656) scale(0.15 -0.15)">
       <defs>
        <path id="DejaVuSans-32" d="M 1228 531 
L 3431 531 
L 3431 0 
L 469 0 
L 469 531 
Q 828 903 1448 1529 
Q 2069 2156 2228 2338 
Q 2531 2678 2651 2914 
Q 2772 3150 2772 3378 
Q 2772 3750 2511 3984 
Q 2250 4219 1831 4219 
Q 1534 4219 1204 4116 
Q 875 4013 500 3803 
L 500 4441 
Q 881 4594 1212 4672 
Q 1544 4750 1819 4750 
Q 2544 4750 2975 4387 
Q 3406 4025 3406 3419 
Q 3406 3131 3298 2873 
Q 3191 2616 2906 2266 
Q 2828 2175 2409 1742 
Q 1991 1309 1228 531 
z
" transform="scale(0.015625)"/>
       </defs>
       <use xlink:href="#DejaVuSans-32"/>
       <use xlink:href="#DejaVuSans-30" x="63.623047"/>
      </g>
     </g>
    </g>
    <g id="text_6">
     <!-- time [hr] -->
     <g transform="translate(209.841406 359.594375) scale(0.18 -0.18)">
      <defs>
       <path id="DejaVuSans-Bold-74" d="M 1759 4494 
L 1759 3500 
L 2913 3500 
L 2913 2700 
L 1759 2700 
L 1759 1216 
Q 1759 972 1856 886 
Q 1953 800 2241 800 
L 2816 800 
L 2816 0 
L 1856 0 
Q 1194 0 917 276 
Q 641 553 641 1216 
L 641 2700 
L 84 2700 
L 84 3500 
L 641 3500 
L 641 4494 
L 1759 4494 
z
" transform="scale(0.015625)"/>
       <path id="DejaVuSans-Bold-69" d="M 538 3500 
L 1656 3500 
L 1656 0 
L 538 0 
L 538 3500 
z
M 538 4863 
L 1656 4863 
L 1656 3950 
L 538 3950 
L 538 4863 
z
" transform="scale(0.015625)"/>
       <path id="DejaVuSans-Bold-6d" d="M 3781 2919 
Q 3994 3244 4286 3414 
Q 4578 3584 4928 3584 
Q 5531 3584 5847 3212 
Q 6163 2841 6163 2131 
L 6163 0 
L 5038 0 
L 5038 1825 
Q 5041 1866 5042 1909 
Q 5044 1953 5044 2034 
Q 5044 2406 4934 2573 
Q 4825 2741 4581 2741 
Q 4263 2741 4089 2478 
Q 3916 2216 3909 1719 
L 3909 0 
L 2784 0 
L 2784 1825 
Q 2784 2406 2684 2573 
Q 2584 2741 2328 2741 
Q 2006 2741 1831 2477 
Q 1656 2213 1656 1722 
L 1656 0 
L 531 0 
L 531 3500 
L 1656 3500 
L 1656 2988 
Q 1863 3284 2130 3434 
Q 2397 3584 2719 3584 
Q 3081 3584 3359 3409 
Q 3638 3234 3781 2919 
z
" transform="scale(0.015625)"/>
       <path id="DejaVuSans-Bold-65" d="M 4031 1759 
L 4031 1441 
L 1416 1441 
Q 1456 1047 1700 850 
Q 1944 653 2381 653 
Q 2734 653 3104 758 
Q 3475 863 3866 1075 
L 3866 213 
Q 3469 63 3072 -14 
Q 2675 -91 2278 -91 
Q 1328 -91 801 392 
Q 275 875 275 1747 
Q 275 2603 792 3093 
Q 1309 3584 2216 3584 
Q 3041 3584 3536 3087 
Q 4031 2591 4031 1759 
z
M 2881 2131 
Q 2881 2450 2695 2645 
Q 2509 2841 2209 2841 
Q 1884 2841 1681 2658 
Q 1478 2475 1428 2131 
L 2881 2131 
z
" transform="scale(0.015625)"/>
       <path id="DejaVuSans-Bold-20" transform="scale(0.015625)"/>
       <path id="DejaVuSans-Bold-5b" d="M 550 4863 
L 2491 4863 
L 2491 4159 
L 1613 4159 
L 1613 -141 
L 2491 -141 
L 2491 -844 
L 550 -844 
L 550 4863 
z
" transform="scale(0.015625)"/>
       <path id="DejaVuSans-Bold-68" d="M 4056 2131 
L 4056 0 
L 2931 0 
L 2931 347 
L 2931 1625 
Q 2931 2084 2911 2256 
Q 2891 2428 2841 2509 
Q 2775 2619 2662 2680 
Q 2550 2741 2406 2741 
Q 2056 2741 1856 2470 
Q 1656 2200 1656 1722 
L 1656 0 
L 538 0 
L 538 4863 
L 1656 4863 
L 1656 2988 
Q 1909 3294 2193 3439 
Q 2478 3584 2822 3584 
Q 3428 3584 3742 3212 
Q 4056 2841 4056 2131 
z
" transform="scale(0.015625)"/>
       <path id="DejaVuSans-Bold-72" d="M 3138 2547 
Q 2991 2616 2845 2648 
Q 2700 2681 2553 2681 
Q 2122 2681 1889 2404 
Q 1656 2128 1656 1613 
L 1656 0 
L 538 0 
L 538 3500 
L 1656 3500 
L 1656 2925 
Q 1872 3269 2151 3426 
Q 2431 3584 2822 3584 
Q 2878 3584 2943 3579 
Q 3009 3575 3134 3559 
L 3138 2547 
z
" transform="scale(0.015625)"/>
       <path id="DejaVuSans-Bold-5d" d="M 2375 -844 
L 434 -844 
L 434 -141 
L 1313 -141 
L 1313 4159 
L 434 4159 
L 434 4863 
L 2375 4863 
L 2375 -844 
z
" transform="scale(0.015625)"/>
      </defs>
      <use xlink:href="#DejaVuSans-Bold-74"/>
      <use xlink:href="#DejaVuSans-Bold-69" x="47.802734"/>
      <use xlink:href="#DejaVuSans-Bold-6d" x="82.080078"/>
      <use xlink:href="#DejaVuSans-Bold-65" x="186.279297"/>
      <use xlink:href="#DejaVuSans-Bold-20" x="254.101562"/>
      <use xlink:href="#DejaVuSans-Bold-5b" x="288.916016"/>
      <use xlink:href="#DejaVuSans-Bold-68" x="334.619141"/>
      <use xlink:href="#DejaVuSans-Bold-72" x="405.810547"/>
      <use xlink:href="#DejaVuSans-Bold-5d" x="455.126953"/>
     </g>
    </g>
   </g>
   <g id="matplotlib.axis_2">
    <g id="ytick_1">
     <g id="line2d_6">
      <defs>
       <path id="m4fcbf6f6d9" d="M 0 0 
L -3.5 0 
" style="stroke: #000000; stroke-width: 0.8"/>
      </defs>
      <g>
       <use xlink:href="#m4fcbf6f6d9" x="59.615938" y="307.8" style="stroke: #000000; stroke-width: 0.8"/>
      </g>
     </g>
     <g id="text_7">
      <!-- 0.0 -->
      <g transform="translate(28.76125 313.498828) scale(0.15 -0.15)">
       <defs>
        <path id="DejaVuSans-2e" d="M 684 794 
L 1344 794 
L 1344 0 
L 684 0 
L 684 794 
z
" transform="scale(0.015625)"/>
       </defs>
       <use xlink:href="#DejaVuSans-30"/>
       <use xlink:href="#DejaVuSans-2e" x="63.623047"/>
       <use xlink:href="#DejaVuSans-30" x="95.410156"/>
      </g>
     </g>
    </g>
    <g id="ytick_2">
     <g id="line2d_7">
      <g>
       <use xlink:href="#m4fcbf6f6d9" x="59.615938" y="252.835047" style="stroke: #000000; stroke-width: 0.8"/>
      </g>
     </g>
     <g id="text_8">
      <!-- 0.1 -->
      <g transform="translate(28.76125 258.533875) scale(0.15 -0.15)">
       <use xlink:href="#DejaVuSans-30"/>
       <use xlink:href="#DejaVuSans-2e" x="63.623047"/>
       <use xlink:href="#DejaVuSans-31" x="95.410156"/>
      </g>
     </g>
    </g>
    <g id="ytick_3">
     <g id="line2d_8">
      <g>
       <use xlink:href="#m4fcbf6f6d9" x="59.615938" y="197.870095" style="stroke: #000000; stroke-width: 0.8"/>
      </g>
     </g>
     <g id="text_9">
      <!-- 0.2 -->
      <g transform="translate(28.76125 203.568923) scale(0.15 -0.15)">
       <use xlink:href="#DejaVuSans-30"/>
       <use xlink:href="#DejaVuSans-2e" x="63.623047"/>
       <use xlink:href="#DejaVuSans-32" x="95.410156"/>
      </g>
     </g>
    </g>
    <g id="ytick_4">
     <g id="line2d_9">
      <g>
       <use xlink:href="#m4fcbf6f6d9" x="59.615938" y="142.905142" style="stroke: #000000; stroke-width: 0.8"/>
      </g>
     </g>
     <g id="text_10">
      <!-- 0.3 -->
      <g transform="translate(28.76125 148.60397) scale(0.15 -0.15)">
       <defs>
        <path id="DejaVuSans-33" d="M 2597 2516 
Q 3050 2419 3304 2112 
Q 3559 1806 3559 1356 
Q 3559 666 3084 287 
Q 2609 -91 1734 -91 
Q 1441 -91 1130 -33 
Q 819 25 488 141 
L 488 750 
Q 750 597 1062 519 
Q 1375 441 1716 441 
Q 2309 441 2620 675 
Q 2931 909 2931 1356 
Q 2931 1769 2642 2001 
Q 2353 2234 1838 2234 
L 1294 2234 
L 1294 2753 
L 1863 2753 
Q 2328 2753 2575 2939 
Q 2822 3125 2822 3475 
Q 2822 3834 2567 4026 
Q 2313 4219 1838 4219 
Q 1578 4219 1281 4162 
Q 984 4106 628 3988 
L 628 4550 
Q 988 4650 1302 4700 
Q 1616 4750 1894 4750 
Q 2613 4750 3031 4423 
Q 3450 4097 3450 3541 
Q 3450 3153 3228 2886 
Q 3006 2619 2597 2516 
z
" transform="scale(0.015625)"/>
       </defs>
       <use xlink:href="#DejaVuSans-30"/>
       <use xlink:href="#DejaVuSans-2e" x="63.623047"/>
       <use xlink:href="#DejaVuSans-33" x="95.410156"/>
      </g>
     </g>
    </g>
    <g id="ytick_5">
     <g id="line2d_10">
      <g>
       <use xlink:href="#m4fcbf6f6d9" x="59.615938" y="87.940189" style="stroke: #000000; stroke-width: 0.8"/>
      </g>
     </g>
     <g id="text_11">
      <!-- 0.4 -->
      <g transform="translate(28.76125 93.639017) scale(0.15 -0.15)">
       <defs>
        <path id="DejaVuSans-34" d="M 2419 4116 
L 825 1625 
L 2419 1625 
L 2419 4116 
z
M 2253 4666 
L 3047 4666 
L 3047 1625 
L 3713 1625 
L 3713 1100 
L 3047 1100 
L 3047 0 
L 2419 0 
L 2419 1100 
L 313 1100 
L 313 1709 
L 2253 4666 
z
" transform="scale(0.015625)"/>
       </defs>
       <use xlink:href="#DejaVuSans-30"/>
       <use xlink:href="#DejaVuSans-2e" x="63.623047"/>
       <use xlink:href="#DejaVuSans-34" x="95.410156"/>
      </g>
     </g>
    </g>
    <g id="text_12">
     <!-- dapagliflozin plasma [µM] -->
     <g transform="translate(20.877187 313.838437) rotate(-90) scale(0.18 -0.18)">
      <defs>
       <path id="DejaVuSans-Bold-64" d="M 2919 2988 
L 2919 4863 
L 4044 4863 
L 4044 0 
L 2919 0 
L 2919 506 
Q 2688 197 2409 53 
Q 2131 -91 1766 -91 
Q 1119 -91 703 423 
Q 288 938 288 1747 
Q 288 2556 703 3070 
Q 1119 3584 1766 3584 
Q 2128 3584 2408 3439 
Q 2688 3294 2919 2988 
z
M 2181 722 
Q 2541 722 2730 984 
Q 2919 1247 2919 1747 
Q 2919 2247 2730 2509 
Q 2541 2772 2181 2772 
Q 1825 2772 1636 2509 
Q 1447 2247 1447 1747 
Q 1447 1247 1636 984 
Q 1825 722 2181 722 
z
" transform="scale(0.015625)"/>
       <path id="DejaVuSans-Bold-61" d="M 2106 1575 
Q 1756 1575 1579 1456 
Q 1403 1338 1403 1106 
Q 1403 894 1545 773 
Q 1688 653 1941 653 
Q 2256 653 2472 879 
Q 2688 1106 2688 1447 
L 2688 1575 
L 2106 1575 
z
M 3816 1997 
L 3816 0 
L 2688 0 
L 2688 519 
Q 2463 200 2181 54 
Q 1900 -91 1497 -91 
Q 953 -91 614 226 
Q 275 544 275 1050 
Q 275 1666 698 1953 
Q 1122 2241 2028 2241 
L 2688 2241 
L 2688 2328 
Q 2688 2594 2478 2717 
Q 2269 2841 1825 2841 
Q 1466 2841 1156 2769 
Q 847 2697 581 2553 
L 581 3406 
Q 941 3494 1303 3539 
Q 1666 3584 2028 3584 
Q 2975 3584 3395 3211 
Q 3816 2838 3816 1997 
z
" transform="scale(0.015625)"/>
       <path id="DejaVuSans-Bold-70" d="M 1656 506 
L 1656 -1331 
L 538 -1331 
L 538 3500 
L 1656 3500 
L 1656 2988 
Q 1888 3294 2169 3439 
Q 2450 3584 2816 3584 
Q 3463 3584 3878 3070 
Q 4294 2556 4294 1747 
Q 4294 938 3878 423 
Q 3463 -91 2816 -91 
Q 2450 -91 2169 54 
Q 1888 200 1656 506 
z
M 2400 2772 
Q 2041 2772 1848 2508 
Q 1656 2244 1656 1747 
Q 1656 1250 1848 986 
Q 2041 722 2400 722 
Q 2759 722 2948 984 
Q 3138 1247 3138 1747 
Q 3138 2247 2948 2509 
Q 2759 2772 2400 2772 
z
" transform="scale(0.015625)"/>
       <path id="DejaVuSans-Bold-67" d="M 2919 594 
Q 2688 288 2409 144 
Q 2131 0 1766 0 
Q 1125 0 706 504 
Q 288 1009 288 1791 
Q 288 2575 706 3076 
Q 1125 3578 1766 3578 
Q 2131 3578 2409 3434 
Q 2688 3291 2919 2981 
L 2919 3500 
L 4044 3500 
L 4044 353 
Q 4044 -491 3511 -936 
Q 2978 -1381 1966 -1381 
Q 1638 -1381 1331 -1331 
Q 1025 -1281 716 -1178 
L 716 -306 
Q 1009 -475 1290 -558 
Q 1572 -641 1856 -641 
Q 2406 -641 2662 -400 
Q 2919 -159 2919 353 
L 2919 594 
z
M 2181 2772 
Q 1834 2772 1640 2515 
Q 1447 2259 1447 1791 
Q 1447 1309 1634 1061 
Q 1822 813 2181 813 
Q 2531 813 2725 1069 
Q 2919 1325 2919 1791 
Q 2919 2259 2725 2515 
Q 2531 2772 2181 2772 
z
" transform="scale(0.015625)"/>
       <path id="DejaVuSans-Bold-6c" d="M 538 4863 
L 1656 4863 
L 1656 0 
L 538 0 
L 538 4863 
z
" transform="scale(0.015625)"/>
       <path id="DejaVuSans-Bold-66" d="M 2841 4863 
L 2841 4128 
L 2222 4128 
Q 1984 4128 1890 4042 
Q 1797 3956 1797 3744 
L 1797 3500 
L 2753 3500 
L 2753 2700 
L 1797 2700 
L 1797 0 
L 678 0 
L 678 2700 
L 122 2700 
L 122 3500 
L 678 3500 
L 678 3744 
Q 678 4316 997 4589 
Q 1316 4863 1984 4863 
L 2841 4863 
z
" transform="scale(0.015625)"/>
       <path id="DejaVuSans-Bold-6f" d="M 2203 2784 
Q 1831 2784 1636 2517 
Q 1441 2250 1441 1747 
Q 1441 1244 1636 976 
Q 1831 709 2203 709 
Q 2569 709 2762 976 
Q 2956 1244 2956 1747 
Q 2956 2250 2762 2517 
Q 2569 2784 2203 2784 
z
M 2203 3584 
Q 3106 3584 3614 3096 
Q 4122 2609 4122 1747 
Q 4122 884 3614 396 
Q 3106 -91 2203 -91 
Q 1297 -91 786 396 
Q 275 884 275 1747 
Q 275 2609 786 3096 
Q 1297 3584 2203 3584 
z
" transform="scale(0.015625)"/>
       <path id="DejaVuSans-Bold-7a" d="M 366 3500 
L 3419 3500 
L 3419 2719 
L 1575 800 
L 3419 800 
L 3419 0 
L 288 0 
L 288 781 
L 2131 2700 
L 366 2700 
L 366 3500 
z
" transform="scale(0.015625)"/>
       <path id="DejaVuSans-Bold-6e" d="M 4056 2131 
L 4056 0 
L 2931 0 
L 2931 347 
L 2931 1631 
Q 2931 2084 2911 2256 
Q 2891 2428 2841 2509 
Q 2775 2619 2662 2680 
Q 2550 2741 2406 2741 
Q 2056 2741 1856 2470 
Q 1656 2200 1656 1722 
L 1656 0 
L 538 0 
L 538 3500 
L 1656 3500 
L 1656 2988 
Q 1909 3294 2193 3439 
Q 2478 3584 2822 3584 
Q 3428 3584 3742 3212 
Q 4056 2841 4056 2131 
z
" transform="scale(0.015625)"/>
       <path id="DejaVuSans-Bold-73" d="M 3272 3391 
L 3272 2541 
Q 2913 2691 2578 2766 
Q 2244 2841 1947 2841 
Q 1628 2841 1473 2761 
Q 1319 2681 1319 2516 
Q 1319 2381 1436 2309 
Q 1553 2238 1856 2203 
L 2053 2175 
Q 2913 2066 3209 1816 
Q 3506 1566 3506 1031 
Q 3506 472 3093 190 
Q 2681 -91 1863 -91 
Q 1516 -91 1145 -36 
Q 775 19 384 128 
L 384 978 
Q 719 816 1070 734 
Q 1422 653 1784 653 
Q 2113 653 2278 743 
Q 2444 834 2444 1013 
Q 2444 1163 2330 1236 
Q 2216 1309 1875 1350 
L 1678 1375 
Q 931 1469 631 1722 
Q 331 1975 331 2491 
Q 331 3047 712 3315 
Q 1094 3584 1881 3584 
Q 2191 3584 2531 3537 
Q 2872 3491 3272 3391 
z
" transform="scale(0.015625)"/>
       <path id="DejaVuSans-Bold-b5" d="M 544 -1338 
L 544 3500 
L 1672 3500 
L 1672 1466 
Q 1672 1103 1828 926 
Q 1984 750 2303 750 
Q 2625 750 2781 926 
Q 2938 1103 2938 1466 
L 2938 3500 
L 4063 3500 
L 4063 1159 
Q 4063 938 4114 850 
Q 4166 763 4288 763 
Q 4344 763 4395 778 
Q 4447 794 4506 831 
L 4506 50 
Q 4341 -22 4195 -56 
Q 4050 -91 3909 -91 
Q 3631 -91 3454 26 
Q 3278 144 3169 403 
Q 3022 156 2811 32 
Q 2600 -91 2322 -91 
Q 2091 -91 1928 -17 
Q 1766 56 1672 206 
L 1672 -1338 
L 544 -1338 
z
" transform="scale(0.015625)"/>
       <path id="DejaVuSans-Bold-4d" d="M 588 4666 
L 2119 4666 
L 3181 2169 
L 4250 4666 
L 5778 4666 
L 5778 0 
L 4641 0 
L 4641 3413 
L 3566 897 
L 2803 897 
L 1728 3413 
L 1728 0 
L 588 0 
L 588 4666 
z
" transform="scale(0.015625)"/>
      </defs>
      <use xlink:href="#DejaVuSans-Bold-64"/>
      <use xlink:href="#DejaVuSans-Bold-61" x="71.582031"/>
      <use xlink:href="#DejaVuSans-Bold-70" x="139.0625"/>
      <use xlink:href="#DejaVuSans-Bold-61" x="210.644531"/>
      <use xlink:href="#DejaVuSans-Bold-67" x="278.125"/>
      <use xlink:href="#DejaVuSans-Bold-6c" x="349.707031"/>
      <use xlink:href="#DejaVuSans-Bold-69" x="383.984375"/>
      <use xlink:href="#DejaVuSans-Bold-66" x="418.261719"/>
      <use xlink:href="#DejaVuSans-Bold-6c" x="461.767578"/>
      <use xlink:href="#DejaVuSans-Bold-6f" x="496.044922"/>
      <use xlink:href="#DejaVuSans-Bold-7a" x="564.746094"/>
      <use xlink:href="#DejaVuSans-Bold-69" x="622.949219"/>
      <use xlink:href="#DejaVuSans-Bold-6e" x="657.226562"/>
      <use xlink:href="#DejaVuSans-Bold-20" x="728.417969"/>
      <use xlink:href="#DejaVuSans-Bold-70" x="763.232422"/>
      <use xlink:href="#DejaVuSans-Bold-6c" x="834.814453"/>
      <use xlink:href="#DejaVuSans-Bold-61" x="869.091797"/>
      <use xlink:href="#DejaVuSans-Bold-73" x="936.572266"/>
      <use xlink:href="#DejaVuSans-Bold-6d" x="996.09375"/>
      <use xlink:href="#DejaVuSans-Bold-61" x="1100.292969"/>
      <use xlink:href="#DejaVuSans-Bold-20" x="1167.773438"/>
      <use xlink:href="#DejaVuSans-Bold-5b" x="1202.587891"/>
      <use xlink:href="#DejaVuSans-Bold-b5" x="1248.291016"/>
      <use xlink:href="#DejaVuSans-Bold-4d" x="1321.875"/>
      <use xlink:href="#DejaVuSans-Bold-5d" x="1421.386719"/>
     </g>
    </g>
   </g>
   <g id="line2d_11">
    <path d="M 59.268737 293.209224 
L 103.015938 293.348615 
L 103.015938 293.348615 
L 103.710338 290.221777 
L 104.404738 280.081596 
L 105.793538 249.469959 
L 107.876738 202.022963 
L 109.265538 176.977329 
L 110.654338 158.440255 
L 111.348738 151.462119 
L 112.043138 145.857871 
L 112.737538 141.496663 
L 113.431938 138.246194 
L 114.126338 135.978222 
L 114.820738 134.571863 
L 115.515138 133.915386 
L 116.209538 133.906998 
L 116.903938 134.454971 
L 117.598338 135.477349 
L 118.292738 136.901404 
L 119.681538 140.705628 
L 121.070338 145.443394 
L 123.153537 153.616815 
L 132.875137 193.894244 
L 135.652738 203.980074 
L 138.430338 213.167481 
L 141.207938 221.472802 
L 143.985538 228.944882 
L 146.763137 235.646963 
L 149.540738 241.646753 
L 152.318338 247.011151 
L 155.095937 251.803582 
L 157.873537 256.08279 
L 160.651138 259.902438 
L 163.428738 263.311131 
L 166.206337 266.352658 
L 168.983937 269.066335 
L 171.761538 271.487387 
L 174.539138 273.647325 
L 177.316737 275.574314 
L 180.788738 277.693531 
L 184.260738 279.531165 
L 187.732737 281.124767 
L 191.899137 282.760508 
L 196.065538 284.139659 
L 200.231938 285.302781 
L 205.092737 286.431992 
L 210.647938 287.476606 
L 216.897537 288.402337 
L 223.841538 289.191418 
L 232.174338 289.890496 
L 241.895938 290.463277 
L 253.700737 290.924842 
L 268.977538 291.290761 
L 291.198337 291.581347 
L 329.390337 291.826289 
L 443.271937 292.245653 
L 450.215937 292.269232 
L 450.215937 292.269232 
" clip-path="url(#p654179fde9)" style="fill: none; stroke: #000000; stroke-width: 2; stroke-linecap: square"/>
   </g>
   <g id="line2d_12">
    <path d="M 103.015938 297.774684 
L 110.249271 281.597468 
L 117.482604 100.686076 
L 124.715938 97.724051 
L 131.949271 158.787342 
L 139.182604 174.508861 
L 146.415938 195.926582 
L 151.23816 215.749367 
L 160.882604 223.496203 
" clip-path="url(#p654179fde9)" style="fill: none; stroke-dasharray: 3.7,1.6; stroke-dashoffset: 0; stroke: #1f77b4"/>
    <defs>
     <path id="md12e26da68" d="M -3 3 
L 3 3 
L 3 -3 
L -3 -3 
z
" style="stroke: #000000; stroke-linejoin: miter"/>
    </defs>
    <g clip-path="url(#p654179fde9)">
     <use xlink:href="#md12e26da68" x="103.015938" y="297.774684" style="fill: #1f77b4; stroke: #000000; stroke-linejoin: miter"/>
     <use xlink:href="#md12e26da68" x="110.249271" y="281.597468" style="fill: #1f77b4; stroke: #000000; stroke-linejoin: miter"/>
     <use xlink:href="#md12e26da68" x="117.482604" y="100.686076" style="fill: #1f77b4; stroke: #000000; stroke-linejoin: miter"/>
     <use xlink:href="#md12e26da68" x="124.715938" y="97.724051" style="fill: #1f77b4; stroke: #000000; stroke-linejoin: miter"/>
     <use xlink:href="#md12e26da68" x="131.949271" y="158.787342" style="fill: #1f77b4; stroke: #000000; stroke-linejoin: miter"/>
     <use xlink:href="#md12e26da68" x="139.182604" y="174.508861" style="fill: #1f77b4; stroke: #000000; stroke-linejoin: miter"/>
     <use xlink:href="#md12e26da68" x="146.415938" y="195.926582" style="fill: #1f77b4; stroke: #000000; stroke-linejoin: miter"/>
     <use xlink:href="#md12e26da68" x="151.23816" y="215.749367" style="fill: #1f77b4; stroke: #000000; stroke-linejoin: miter"/>
     <use xlink:href="#md12e26da68" x="160.882604" y="223.496203" style="fill: #1f77b4; stroke: #000000; stroke-linejoin: miter"/>
    </g>
   </g>
   <g id="line2d_13">
    <path d="M 103.015938 293.217722 
L 110.249271 262.002532 
L 117.482604 200.255696 
L 124.715938 210.964557 
L 131.949271 218.255696 
L 139.182604 240.356962 
L 146.415938 244.458228 
L 151.23816 256.762025 
L 160.882604 258.58481 
" clip-path="url(#p654179fde9)" style="fill: none; stroke-dasharray: 3.7,1.6; stroke-dashoffset: 0; stroke: #ff7f0e"/>
    <defs>
     <path id="meb86aded93" d="M -3 3 
L 3 3 
L 3 -3 
L -3 -3 
z
" style="stroke: #000000; stroke-linejoin: miter"/>
    </defs>
    <g clip-path="url(#p654179fde9)">
     <use xlink:href="#meb86aded93" x="103.015938" y="293.217722" style="fill: #ff7f0e; stroke: #000000; stroke-linejoin: miter"/>
     <use xlink:href="#meb86aded93" x="110.249271" y="262.002532" style="fill: #ff7f0e; stroke: #000000; stroke-linejoin: miter"/>
     <use xlink:href="#meb86aded93" x="117.482604" y="200.255696" style="fill: #ff7f0e; stroke: #000000; stroke-linejoin: miter"/>
     <use xlink:href="#meb86aded93" x="124.715938" y="210.964557" style="fill: #ff7f0e; stroke: #000000; stroke-linejoin: miter"/>
     <use xlink:href="#meb86aded93" x="131.949271" y="218.255696" style="fill: #ff7f0e; stroke: #000000; stroke-linejoin: miter"/>
     <use xlink:href="#meb86aded93" x="139.182604" y="240.356962" style="fill: #ff7f0e; stroke: #000000; stroke-linejoin: miter"/>
     <use xlink:href="#meb86aded93" x="146.415938" y="244.458228" style="fill: #ff7f0e; stroke: #000000; stroke-linejoin: miter"/>
     <use xlink:href="#meb86aded93" x="151.23816" y="256.762025" style="fill: #ff7f0e; stroke: #000000; stroke-linejoin: miter"/>
     <use xlink:href="#meb86aded93" x="160.882604" y="258.58481" style="fill: #ff7f0e; stroke: #000000; stroke-linejoin: miter"/>
    </g>
   </g>
   <g id="line2d_14">
    <path d="M 103.015938 300.053165 
L 110.249271 207.318987 
L 117.482604 125.977215 
L 124.715938 199.572152 
L 131.949271 231.243038 
L 139.182604 253.116456 
L 146.415938 269.065823 
L 151.23816 269.065823 
L 160.882604 273.167089 
" clip-path="url(#p654179fde9)" style="fill: none; stroke-dasharray: 3.7,1.6; stroke-dashoffset: 0; stroke: #2ca02c"/>
    <defs>
     <path id="m92d2a19345" d="M -3 3 
L 3 3 
L 3 -3 
L -3 -3 
z
" style="stroke: #000000; stroke-linejoin: miter"/>
    </defs>
    <g clip-path="url(#p654179fde9)">
     <use xlink:href="#m92d2a19345" x="103.015938" y="300.053165" style="fill: #2ca02c; stroke: #000000; stroke-linejoin: miter"/>
     <use xlink:href="#m92d2a19345" x="110.249271" y="207.318987" style="fill: #2ca02c; stroke: #000000; stroke-linejoin: miter"/>
     <use xlink:href="#m92d2a19345" x="117.482604" y="125.977215" style="fill: #2ca02c; stroke: #000000; stroke-linejoin: miter"/>
     <use xlink:href="#m92d2a19345" x="124.715938" y="199.572152" style="fill: #2ca02c; stroke: #000000; stroke-linejoin: miter"/>
     <use xlink:href="#m92d2a19345" x="131.949271" y="231.243038" style="fill: #2ca02c; stroke: #000000; stroke-linejoin: miter"/>
     <use xlink:href="#m92d2a19345" x="139.182604" y="253.116456" style="fill: #2ca02c; stroke: #000000; stroke-linejoin: miter"/>
     <use xlink:href="#m92d2a19345" x="146.415938" y="269.065823" style="fill: #2ca02c; stroke: #000000; stroke-linejoin: miter"/>
     <use xlink:href="#m92d2a19345" x="151.23816" y="269.065823" style="fill: #2ca02c; stroke: #000000; stroke-linejoin: miter"/>
     <use xlink:href="#m92d2a19345" x="160.882604" y="273.167089" style="fill: #2ca02c; stroke: #000000; stroke-linejoin: miter"/>
    </g>
   </g>
   <g id="line2d_15">
    <path d="M 103.015938 295.040506 
L 110.249271 174.736709 
L 117.482604 121.648101 
L 124.715938 158.331646 
L 131.949271 209.825316 
L 139.182604 228.281013 
L 146.415938 238.534177 
L 151.23816 249.01519 
L 160.882604 254.255696 
" clip-path="url(#p654179fde9)" style="fill: none; stroke-dasharray: 3.7,1.6; stroke-dashoffset: 0; stroke: #d62728"/>
    <defs>
     <path id="m6fb8cab495" d="M -3 3 
L 3 3 
L 3 -3 
L -3 -3 
z
" style="stroke: #000000; stroke-linejoin: miter"/>
    </defs>
    <g clip-path="url(#p654179fde9)">
     <use xlink:href="#m6fb8cab495" x="103.015938" y="295.040506" style="fill: #d62728; stroke: #000000; stroke-linejoin: miter"/>
     <use xlink:href="#m6fb8cab495" x="110.249271" y="174.736709" style="fill: #d62728; stroke: #000000; stroke-linejoin: miter"/>
     <use xlink:href="#m6fb8cab495" x="117.482604" y="121.648101" style="fill: #d62728; stroke: #000000; stroke-linejoin: miter"/>
     <use xlink:href="#m6fb8cab495" x="124.715938" y="158.331646" style="fill: #d62728; stroke: #000000; stroke-linejoin: miter"/>
     <use xlink:href="#m6fb8cab495" x="131.949271" y="209.825316" style="fill: #d62728; stroke: #000000; stroke-linejoin: miter"/>
     <use xlink:href="#m6fb8cab495" x="139.182604" y="228.281013" style="fill: #d62728; stroke: #000000; stroke-linejoin: miter"/>
     <use xlink:href="#m6fb8cab495" x="146.415938" y="238.534177" style="fill: #d62728; stroke: #000000; stroke-linejoin: miter"/>
     <use xlink:href="#m6fb8cab495" x="151.23816" y="249.01519" style="fill: #d62728; stroke: #000000; stroke-linejoin: miter"/>
     <use xlink:href="#m6fb8cab495" x="160.882604" y="254.255696" style="fill: #d62728; stroke: #000000; stroke-linejoin: miter"/>
    </g>
   </g>
   <g id="line2d_16">
    <path d="M 103.015938 295.040506 
L 110.249271 135.546835 
L 117.482604 172.002532 
L 124.715938 222.129114 
L 131.949271 250.837975 
L 139.182604 253.116456 
L 146.415938 256.762025 
L 151.23816 263.141772 
L 160.882604 271.8 
" clip-path="url(#p654179fde9)" style="fill: none; stroke-dasharray: 3.7,1.6; stroke-dashoffset: 0; stroke: #9467bd"/>
    <defs>
     <path id="m436f75da50" d="M -3 3 
L 3 3 
L 3 -3 
L -3 -3 
z
" style="stroke: #000000; stroke-linejoin: miter"/>
    </defs>
    <g clip-path="url(#p654179fde9)">
     <use xlink:href="#m436f75da50" x="103.015938" y="295.040506" style="fill: #9467bd; stroke: #000000; stroke-linejoin: miter"/>
     <use xlink:href="#m436f75da50" x="110.249271" y="135.546835" style="fill: #9467bd; stroke: #000000; stroke-linejoin: miter"/>
     <use xlink:href="#m436f75da50" x="117.482604" y="172.002532" style="fill: #9467bd; stroke: #000000; stroke-linejoin: miter"/>
     <use xlink:href="#m436f75da50" x="124.715938" y="222.129114" style="fill: #9467bd; stroke: #000000; stroke-linejoin: miter"/>
     <use xlink:href="#m436f75da50" x="131.949271" y="250.837975" style="fill: #9467bd; stroke: #000000; stroke-linejoin: miter"/>
     <use xlink:href="#m436f75da50" x="139.182604" y="253.116456" style="fill: #9467bd; stroke: #000000; stroke-linejoin: miter"/>
     <use xlink:href="#m436f75da50" x="146.415938" y="256.762025" style="fill: #9467bd; stroke: #000000; stroke-linejoin: miter"/>
     <use xlink:href="#m436f75da50" x="151.23816" y="263.141772" style="fill: #9467bd; stroke: #000000; stroke-linejoin: miter"/>
     <use xlink:href="#m436f75da50" x="160.882604" y="271.8" style="fill: #9467bd; stroke: #000000; stroke-linejoin: miter"/>
    </g>
   </g>
   <g id="line2d_17">
    <path d="M 103.015938 275.217722 
L 110.249271 82.913924 
L 117.482604 55.8 
L 124.715938 143.749367 
L 131.949271 186.58481 
L 139.182604 210.053165 
L 146.415938 215.293671 
L 151.23816 229.875949 
L 160.882604 235.8 
" clip-path="url(#p654179fde9)" style="fill: none; stroke-dasharray: 3.7,1.6; stroke-dashoffset: 0; stroke: #8c564b"/>
    <defs>
     <path id="m35268af123" d="M -3 3 
L 3 3 
L 3 -3 
L -3 -3 
z
" style="stroke: #000000; stroke-linejoin: miter"/>
    </defs>
    <g clip-path="url(#p654179fde9)">
     <use xlink:href="#m35268af123" x="103.015938" y="275.217722" style="fill: #8c564b; stroke: #000000; stroke-linejoin: miter"/>
     <use xlink:href="#m35268af123" x="110.249271" y="82.913924" style="fill: #8c564b; stroke: #000000; stroke-linejoin: miter"/>
     <use xlink:href="#m35268af123" x="117.482604" y="55.8" style="fill: #8c564b; stroke: #000000; stroke-linejoin: miter"/>
     <use xlink:href="#m35268af123" x="124.715938" y="143.749367" style="fill: #8c564b; stroke: #000000; stroke-linejoin: miter"/>
     <use xlink:href="#m35268af123" x="131.949271" y="186.58481" style="fill: #8c564b; stroke: #000000; stroke-linejoin: miter"/>
     <use xlink:href="#m35268af123" x="139.182604" y="210.053165" style="fill: #8c564b; stroke: #000000; stroke-linejoin: miter"/>
     <use xlink:href="#m35268af123" x="146.415938" y="215.293671" style="fill: #8c564b; stroke: #000000; stroke-linejoin: miter"/>
     <use xlink:href="#m35268af123" x="151.23816" y="229.875949" style="fill: #8c564b; stroke: #000000; stroke-linejoin: miter"/>
     <use xlink:href="#m35268af123" x="160.882604" y="235.8" style="fill: #8c564b; stroke: #000000; stroke-linejoin: miter"/>
    </g>
   </g>
   <g id="patch_3">
    <path d="M 59.615938 320.4 
L 59.615938 43.2 
" style="fill: none; stroke: #000000; stroke-width: 0.8; stroke-linejoin: miter; stroke-linecap: square"/>
   </g>
   <g id="patch_4">
    <path d="M 450.215937 320.4 
L 450.215937 43.2 
" style="fill: none; stroke: #000000; stroke-width: 0.8; stroke-linejoin: miter; stroke-linecap: square"/>
   </g>
   <g id="patch_5">
    <path d="M 59.615938 320.4 
L 450.215937 320.4 
" style="fill: none; stroke: #000000; stroke-width: 0.8; stroke-linejoin: miter; stroke-linecap: square"/>
   </g>
   <g id="patch_6">
    <path d="M 59.615938 43.2 
L 450.215937 43.2 
" style="fill: none; stroke: #000000; stroke-width: 0.8; stroke-linejoin: miter; stroke-linecap: square"/>
   </g>
   <g id="legend_1">
    <g id="patch_7">
     <path d="M 366.444062 153.946875 
L 443.215937 153.946875 
Q 445.215937 153.946875 445.215937 151.946875 
L 445.215937 50.2 
Q 445.215937 48.2 443.215937 48.2 
L 366.444062 48.2 
Q 364.444062 48.2 364.444062 50.2 
L 364.444062 151.946875 
Q 364.444062 153.946875 366.444062 153.946875 
z
" style="fill: #ffffff; opacity: 0.8; stroke: #cccccc; stroke-linejoin: miter"/>
    </g>
    <g id="line2d_18">
     <path d="M 368.444062 56.298437 
L 388.444062 56.298437 
" style="fill: none; stroke: #000000; stroke-width: 2; stroke-linecap: square"/>
    </g>
    <g id="line2d_19"/>
    <g id="text_13">
     <!-- dap -->
     <g transform="translate(396.444062 59.798437) scale(0.1 -0.1)">
      <defs>
       <path id="DejaVuSans-64" d="M 2906 2969 
L 2906 4863 
L 3481 4863 
L 3481 0 
L 2906 0 
L 2906 525 
Q 2725 213 2448 61 
Q 2172 -91 1784 -91 
Q 1150 -91 751 415 
Q 353 922 353 1747 
Q 353 2572 751 3078 
Q 1150 3584 1784 3584 
Q 2172 3584 2448 3432 
Q 2725 3281 2906 2969 
z
M 947 1747 
Q 947 1113 1208 752 
Q 1469 391 1925 391 
Q 2381 391 2643 752 
Q 2906 1113 2906 1747 
Q 2906 2381 2643 2742 
Q 2381 3103 1925 3103 
Q 1469 3103 1208 2742 
Q 947 2381 947 1747 
z
" transform="scale(0.015625)"/>
       <path id="DejaVuSans-61" d="M 2194 1759 
Q 1497 1759 1228 1600 
Q 959 1441 959 1056 
Q 959 750 1161 570 
Q 1363 391 1709 391 
Q 2188 391 2477 730 
Q 2766 1069 2766 1631 
L 2766 1759 
L 2194 1759 
z
M 3341 1997 
L 3341 0 
L 2766 0 
L 2766 531 
Q 2569 213 2275 61 
Q 1981 -91 1556 -91 
Q 1019 -91 701 211 
Q 384 513 384 1019 
Q 384 1609 779 1909 
Q 1175 2209 1959 2209 
L 2766 2209 
L 2766 2266 
Q 2766 2663 2505 2880 
Q 2244 3097 1772 3097 
Q 1472 3097 1187 3025 
Q 903 2953 641 2809 
L 641 3341 
Q 956 3463 1253 3523 
Q 1550 3584 1831 3584 
Q 2591 3584 2966 3190 
Q 3341 2797 3341 1997 
z
" transform="scale(0.015625)"/>
       <path id="DejaVuSans-70" d="M 1159 525 
L 1159 -1331 
L 581 -1331 
L 581 3500 
L 1159 3500 
L 1159 2969 
Q 1341 3281 1617 3432 
Q 1894 3584 2278 3584 
Q 2916 3584 3314 3078 
Q 3713 2572 3713 1747 
Q 3713 922 3314 415 
Q 2916 -91 2278 -91 
Q 1894 -91 1617 61 
Q 1341 213 1159 525 
z
M 3116 1747 
Q 3116 2381 2855 2742 
Q 2594 3103 2138 3103 
Q 1681 3103 1420 2742 
Q 1159 2381 1159 1747 
Q 1159 1113 1420 752 
Q 1681 391 2138 391 
Q 2594 391 2855 752 
Q 3116 1113 3116 1747 
z
" transform="scale(0.015625)"/>
      </defs>
      <use xlink:href="#DejaVuSans-64"/>
      <use xlink:href="#DejaVuSans-61" x="63.476562"/>
      <use xlink:href="#DejaVuSans-70" x="124.755859"/>
     </g>
    </g>
    <g id="line2d_20">
     <path d="M 368.444062 70.976562 
L 388.444062 70.976562 
" style="fill: none; stroke-dasharray: 3.7,1.6; stroke-dashoffset: 0; stroke: #1f77b4"/>
    </g>
    <g id="line2d_21">
     <g>
      <use xlink:href="#md12e26da68" x="378.444062" y="70.976562" style="fill: #1f77b4; stroke: #000000; stroke-linejoin: miter"/>
     </g>
    </g>
    <g id="text_14">
     <!-- S1 (n=1) -->
     <g transform="translate(396.444062 74.476562) scale(0.1 -0.1)">
      <defs>
       <path id="DejaVuSans-53" d="M 3425 4513 
L 3425 3897 
Q 3066 4069 2747 4153 
Q 2428 4238 2131 4238 
Q 1616 4238 1336 4038 
Q 1056 3838 1056 3469 
Q 1056 3159 1242 3001 
Q 1428 2844 1947 2747 
L 2328 2669 
Q 3034 2534 3370 2195 
Q 3706 1856 3706 1288 
Q 3706 609 3251 259 
Q 2797 -91 1919 -91 
Q 1588 -91 1214 -16 
Q 841 59 441 206 
L 441 856 
Q 825 641 1194 531 
Q 1563 422 1919 422 
Q 2459 422 2753 634 
Q 3047 847 3047 1241 
Q 3047 1584 2836 1778 
Q 2625 1972 2144 2069 
L 1759 2144 
Q 1053 2284 737 2584 
Q 422 2884 422 3419 
Q 422 4038 858 4394 
Q 1294 4750 2059 4750 
Q 2388 4750 2728 4690 
Q 3069 4631 3425 4513 
z
" transform="scale(0.015625)"/>
       <path id="DejaVuSans-20" transform="scale(0.015625)"/>
       <path id="DejaVuSans-28" d="M 1984 4856 
Q 1566 4138 1362 3434 
Q 1159 2731 1159 2009 
Q 1159 1288 1364 580 
Q 1569 -128 1984 -844 
L 1484 -844 
Q 1016 -109 783 600 
Q 550 1309 550 2009 
Q 550 2706 781 3412 
Q 1013 4119 1484 4856 
L 1984 4856 
z
" transform="scale(0.015625)"/>
       <path id="DejaVuSans-6e" d="M 3513 2113 
L 3513 0 
L 2938 0 
L 2938 2094 
Q 2938 2591 2744 2837 
Q 2550 3084 2163 3084 
Q 1697 3084 1428 2787 
Q 1159 2491 1159 1978 
L 1159 0 
L 581 0 
L 581 3500 
L 1159 3500 
L 1159 2956 
Q 1366 3272 1645 3428 
Q 1925 3584 2291 3584 
Q 2894 3584 3203 3211 
Q 3513 2838 3513 2113 
z
" transform="scale(0.015625)"/>
       <path id="DejaVuSans-3d" d="M 678 2906 
L 4684 2906 
L 4684 2381 
L 678 2381 
L 678 2906 
z
M 678 1631 
L 4684 1631 
L 4684 1100 
L 678 1100 
L 678 1631 
z
" transform="scale(0.015625)"/>
       <path id="DejaVuSans-29" d="M 513 4856 
L 1013 4856 
Q 1481 4119 1714 3412 
Q 1947 2706 1947 2009 
Q 1947 1309 1714 600 
Q 1481 -109 1013 -844 
L 513 -844 
Q 928 -128 1133 580 
Q 1338 1288 1338 2009 
Q 1338 2731 1133 3434 
Q 928 4138 513 4856 
z
" transform="scale(0.015625)"/>
      </defs>
      <use xlink:href="#DejaVuSans-53"/>
      <use xlink:href="#DejaVuSans-31" x="63.476562"/>
      <use xlink:href="#DejaVuSans-20" x="127.099609"/>
      <use xlink:href="#DejaVuSans-28" x="158.886719"/>
      <use xlink:href="#DejaVuSans-6e" x="197.900391"/>
      <use xlink:href="#DejaVuSans-3d" x="261.279297"/>
      <use xlink:href="#DejaVuSans-31" x="345.068359"/>
      <use xlink:href="#DejaVuSans-29" x="408.691406"/>
     </g>
    </g>
    <g id="line2d_22">
     <path d="M 368.444062 85.654687 
L 388.444062 85.654687 
" style="fill: none; stroke-dasharray: 3.7,1.6; stroke-dashoffset: 0; stroke: #ff7f0e"/>
    </g>
    <g id="line2d_23">
     <g>
      <use xlink:href="#meb86aded93" x="378.444062" y="85.654687" style="fill: #ff7f0e; stroke: #000000; stroke-linejoin: miter"/>
     </g>
    </g>
    <g id="text_15">
     <!-- S2 (n=1) -->
     <g transform="translate(396.444062 89.154687) scale(0.1 -0.1)">
      <use xlink:href="#DejaVuSans-53"/>
      <use xlink:href="#DejaVuSans-32" x="63.476562"/>
      <use xlink:href="#DejaVuSans-20" x="127.099609"/>
      <use xlink:href="#DejaVuSans-28" x="158.886719"/>
      <use xlink:href="#DejaVuSans-6e" x="197.900391"/>
      <use xlink:href="#DejaVuSans-3d" x="261.279297"/>
      <use xlink:href="#DejaVuSans-31" x="345.068359"/>
      <use xlink:href="#DejaVuSans-29" x="408.691406"/>
     </g>
    </g>
    <g id="line2d_24">
     <path d="M 368.444062 100.332812 
L 388.444062 100.332812 
" style="fill: none; stroke-dasharray: 3.7,1.6; stroke-dashoffset: 0; stroke: #2ca02c"/>
    </g>
    <g id="line2d_25">
     <g>
      <use xlink:href="#m92d2a19345" x="378.444062" y="100.332812" style="fill: #2ca02c; stroke: #000000; stroke-linejoin: miter"/>
     </g>
    </g>
    <g id="text_16">
     <!-- S3 (n=1) -->
     <g transform="translate(396.444062 103.832812) scale(0.1 -0.1)">
      <use xlink:href="#DejaVuSans-53"/>
      <use xlink:href="#DejaVuSans-33" x="63.476562"/>
      <use xlink:href="#DejaVuSans-20" x="127.099609"/>
      <use xlink:href="#DejaVuSans-28" x="158.886719"/>
      <use xlink:href="#DejaVuSans-6e" x="197.900391"/>
      <use xlink:href="#DejaVuSans-3d" x="261.279297"/>
      <use xlink:href="#DejaVuSans-31" x="345.068359"/>
      <use xlink:href="#DejaVuSans-29" x="408.691406"/>
     </g>
    </g>
    <g id="line2d_26">
     <path d="M 368.444062 115.010937 
L 388.444062 115.010937 
" style="fill: none; stroke-dasharray: 3.7,1.6; stroke-dashoffset: 0; stroke: #d62728"/>
    </g>
    <g id="line2d_27">
     <g>
      <use xlink:href="#m6fb8cab495" x="378.444062" y="115.010937" style="fill: #d62728; stroke: #000000; stroke-linejoin: miter"/>
     </g>
    </g>
    <g id="text_17">
     <!-- S4 (n=1) -->
     <g transform="translate(396.444062 118.510937) scale(0.1 -0.1)">
      <use xlink:href="#DejaVuSans-53"/>
      <use xlink:href="#DejaVuSans-34" x="63.476562"/>
      <use xlink:href="#DejaVuSans-20" x="127.099609"/>
      <use xlink:href="#DejaVuSans-28" x="158.886719"/>
      <use xlink:href="#DejaVuSans-6e" x="197.900391"/>
      <use xlink:href="#DejaVuSans-3d" x="261.279297"/>
      <use xlink:href="#DejaVuSans-31" x="345.068359"/>
      <use xlink:href="#DejaVuSans-29" x="408.691406"/>
     </g>
    </g>
    <g id="line2d_28">
     <path d="M 368.444062 129.689062 
L 388.444062 129.689062 
" style="fill: none; stroke-dasharray: 3.7,1.6; stroke-dashoffset: 0; stroke: #9467bd"/>
    </g>
    <g id="line2d_29">
     <g>
      <use xlink:href="#m436f75da50" x="378.444062" y="129.689062" style="fill: #9467bd; stroke: #000000; stroke-linejoin: miter"/>
     </g>
    </g>
    <g id="text_18">
     <!-- S5 (n=1) -->
     <g transform="translate(396.444062 133.189062) scale(0.1 -0.1)">
      <use xlink:href="#DejaVuSans-53"/>
      <use xlink:href="#DejaVuSans-35" x="63.476562"/>
      <use xlink:href="#DejaVuSans-20" x="127.099609"/>
      <use xlink:href="#DejaVuSans-28" x="158.886719"/>
      <use xlink:href="#DejaVuSans-6e" x="197.900391"/>
      <use xlink:href="#DejaVuSans-3d" x="261.279297"/>
      <use xlink:href="#DejaVuSans-31" x="345.068359"/>
      <use xlink:href="#DejaVuSans-29" x="408.691406"/>
     </g>
    </g>
    <g id="line2d_30">
     <path d="M 368.444062 144.367187 
L 388.444062 144.367187 
" style="fill: none; stroke-dasharray: 3.7,1.6; stroke-dashoffset: 0; stroke: #8c564b"/>
    </g>
    <g id="line2d_31">
     <g>
      <use xlink:href="#m35268af123" x="378.444062" y="144.367187" style="fill: #8c564b; stroke: #000000; stroke-linejoin: miter"/>
     </g>
    </g>
    <g id="text_19">
     <!-- S6 (n=1) -->
     <g transform="translate(396.444062 147.867187) scale(0.1 -0.1)">
      <defs>
       <path id="DejaVuSans-36" d="M 2113 2584 
Q 1688 2584 1439 2293 
Q 1191 2003 1191 1497 
Q 1191 994 1439 701 
Q 1688 409 2113 409 
Q 2538 409 2786 701 
Q 3034 994 3034 1497 
Q 3034 2003 2786 2293 
Q 2538 2584 2113 2584 
z
M 3366 4563 
L 3366 3988 
Q 3128 4100 2886 4159 
Q 2644 4219 2406 4219 
Q 1781 4219 1451 3797 
Q 1122 3375 1075 2522 
Q 1259 2794 1537 2939 
Q 1816 3084 2150 3084 
Q 2853 3084 3261 2657 
Q 3669 2231 3669 1497 
Q 3669 778 3244 343 
Q 2819 -91 2113 -91 
Q 1303 -91 875 529 
Q 447 1150 447 2328 
Q 447 3434 972 4092 
Q 1497 4750 2381 4750 
Q 2619 4750 2861 4703 
Q 3103 4656 3366 4563 
z
" transform="scale(0.015625)"/>
      </defs>
      <use xlink:href="#DejaVuSans-53"/>
      <use xlink:href="#DejaVuSans-36" x="63.476562"/>
      <use xlink:href="#DejaVuSans-20" x="127.099609"/>
      <use xlink:href="#DejaVuSans-28" x="158.886719"/>
      <use xlink:href="#DejaVuSans-6e" x="197.900391"/>
      <use xlink:href="#DejaVuSans-3d" x="261.279297"/>
      <use xlink:href="#DejaVuSans-31" x="345.068359"/>
      <use xlink:href="#DejaVuSans-29" x="408.691406"/>
     </g>
    </g>
   </g>
  </g>
  <g id="text_20">
   <!-- vanderAartvanderBeek2020 -->
   <g transform="translate(50.637422 26.196094) scale(0.25 -0.25)">
    <defs>
     <path id="DejaVuSans-Bold-76" d="M 97 3500 
L 1216 3500 
L 2088 1081 
L 2956 3500 
L 4078 3500 
L 2700 0 
L 1472 0 
L 97 3500 
z
" transform="scale(0.015625)"/>
     <path id="DejaVuSans-Bold-41" d="M 3419 850 
L 1538 850 
L 1241 0 
L 31 0 
L 1759 4666 
L 3194 4666 
L 4922 0 
L 3713 0 
L 3419 850 
z
M 1838 1716 
L 3116 1716 
L 2478 3572 
L 1838 1716 
z
" transform="scale(0.015625)"/>
     <path id="DejaVuSans-Bold-42" d="M 2456 2859 
Q 2741 2859 2887 2984 
Q 3034 3109 3034 3353 
Q 3034 3594 2887 3720 
Q 2741 3847 2456 3847 
L 1791 3847 
L 1791 2859 
L 2456 2859 
z
M 2497 819 
Q 2859 819 3042 972 
Q 3225 1125 3225 1434 
Q 3225 1738 3044 1889 
Q 2863 2041 2497 2041 
L 1791 2041 
L 1791 819 
L 2497 819 
z
M 3616 2497 
Q 4003 2384 4215 2081 
Q 4428 1778 4428 1338 
Q 4428 663 3972 331 
Q 3516 0 2584 0 
L 588 0 
L 588 4666 
L 2394 4666 
Q 3366 4666 3802 4372 
Q 4238 4078 4238 3431 
Q 4238 3091 4078 2852 
Q 3919 2613 3616 2497 
z
" transform="scale(0.015625)"/>
     <path id="DejaVuSans-Bold-6b" d="M 538 4863 
L 1656 4863 
L 1656 2216 
L 2944 3500 
L 4244 3500 
L 2534 1894 
L 4378 0 
L 3022 0 
L 1656 1459 
L 1656 0 
L 538 0 
L 538 4863 
z
" transform="scale(0.015625)"/>
     <path id="DejaVuSans-Bold-32" d="M 1844 884 
L 3897 884 
L 3897 0 
L 506 0 
L 506 884 
L 2209 2388 
Q 2438 2594 2547 2791 
Q 2656 2988 2656 3200 
Q 2656 3528 2436 3728 
Q 2216 3928 1850 3928 
Q 1569 3928 1234 3808 
Q 900 3688 519 3450 
L 519 4475 
Q 925 4609 1322 4679 
Q 1719 4750 2100 4750 
Q 2938 4750 3402 4381 
Q 3866 4013 3866 3353 
Q 3866 2972 3669 2642 
Q 3472 2313 2841 1759 
L 1844 884 
z
" transform="scale(0.015625)"/>
     <path id="DejaVuSans-Bold-30" d="M 2944 2338 
Q 2944 3213 2780 3570 
Q 2616 3928 2228 3928 
Q 1841 3928 1675 3570 
Q 1509 3213 1509 2338 
Q 1509 1453 1675 1090 
Q 1841 728 2228 728 
Q 2613 728 2778 1090 
Q 2944 1453 2944 2338 
z
M 4147 2328 
Q 4147 1169 3647 539 
Q 3147 -91 2228 -91 
Q 1306 -91 806 539 
Q 306 1169 306 2328 
Q 306 3491 806 4120 
Q 1306 4750 2228 4750 
Q 3147 4750 3647 4120 
Q 4147 3491 4147 2328 
z
" transform="scale(0.015625)"/>
    </defs>
    <use xlink:href="#DejaVuSans-Bold-76"/>
    <use xlink:href="#DejaVuSans-Bold-61" x="65.185547"/>
    <use xlink:href="#DejaVuSans-Bold-6e" x="132.666016"/>
    <use xlink:href="#DejaVuSans-Bold-64" x="203.857422"/>
    <use xlink:href="#DejaVuSans-Bold-65" x="275.439453"/>
    <use xlink:href="#DejaVuSans-Bold-72" x="343.261719"/>
    <use xlink:href="#DejaVuSans-Bold-41" x="392.578125"/>
    <use xlink:href="#DejaVuSans-Bold-61" x="469.970703"/>
    <use xlink:href="#DejaVuSans-Bold-72" x="537.451172"/>
    <use xlink:href="#DejaVuSans-Bold-74" x="586.767578"/>
    <use xlink:href="#DejaVuSans-Bold-76" x="634.570312"/>
    <use xlink:href="#DejaVuSans-Bold-61" x="699.755859"/>
    <use xlink:href="#DejaVuSans-Bold-6e" x="767.236328"/>
    <use xlink:href="#DejaVuSans-Bold-64" x="838.427734"/>
    <use xlink:href="#DejaVuSans-Bold-65" x="910.009766"/>
    <use xlink:href="#DejaVuSans-Bold-72" x="977.832031"/>
    <use xlink:href="#DejaVuSans-Bold-42" x="1027.148438"/>
    <use xlink:href="#DejaVuSans-Bold-65" x="1103.369141"/>
    <use xlink:href="#DejaVuSans-Bold-65" x="1171.191406"/>
    <use xlink:href="#DejaVuSans-Bold-6b" x="1239.013672"/>
    <use xlink:href="#DejaVuSans-Bold-32" x="1305.517578"/>
    <use xlink:href="#DejaVuSans-Bold-30" x="1375.097656"/>
    <use xlink:href="#DejaVuSans-Bold-32" x="1444.677734"/>
    <use xlink:href="#DejaVuSans-Bold-30" x="1514.257812"/>
   </g>
  </g>
 </g>
 <defs>
  <clipPath id="p654179fde9">
   <rect x="59.615938" y="43.2" width="390.6" height="277.2"/>
  </clipPath>
 </defs>
</svg>
