<?xml version="1.0" encoding="utf-8" standalone="no"?>
<!DOCTYPE svg PUBLIC "-//W3C//DTD SVG 1.1//EN"
  "http://www.w3.org/Graphics/SVG/1.1/DTD/svg11.dtd">
<svg xmlns:xlink="http://www.w3.org/1999/xlink" width="720pt" height="360pt" viewBox="0 0 720 360" xmlns="http://www.w3.org/2000/svg" version="1.1">
 <metadata>
  <rdf:RDF xmlns:dc="http://purl.org/dc/elements/1.1/" xmlns:cc="http://creativecommons.org/ns#" xmlns:rdf="http://www.w3.org/1999/02/22-rdf-syntax-ns#">
   <cc:Work>
    <dc:type rdf:resource="http://purl.org/dc/dcmitype/StillImage"/>
    <dc:date>2025-05-22T23:22:32.855724</dc:date>
    <dc:format>image/svg+xml</dc:format>
    <dc:creator>
     <cc:Agent>
      <dc:title>Matplotlib v3.9.0, https://matplotlib.org/</dc:title>
     </cc:Agent>
    </dc:creator>
   </cc:Work>
  </rdf:RDF>
 </metadata>
 <defs>
  <style type="text/css">*{stroke-linejoin: round; stroke-linecap: butt}</style>
 </defs>
 <g id="figure_1">
  <g id="patch_1">
   <path d="M 0 360 
L 720 360 
L 720 0 
L 0 0 
z
" style="fill: #ffffff"/>
  </g>
  <g id="axes_1">
   <g id="patch_2">
    <path d="M 90 320.4 
L 343.636364 320.4 
L 343.636364 43.2 
L 90 43.2 
z
" style="fill: #ffffff"/>
   </g>
   <g id="matplotlib.axis_1">
    <g id="xtick_1">
     <g id="line2d_1">
      <defs>
       <path id="m97cc0fca18" d="M 0 0 
L 0 3.5 
" style="stroke: #000000; stroke-width: 0.8"/>
      </defs>
      <g>
       <use xlink:href="#m97cc0fca18" x="110.821366" y="320.4" style="stroke: #000000; stroke-width: 0.8"/>
      </g>
     </g>
     <g id="text_1">
      <!-- 0 -->
      <g transform="translate(107.640116 334.998438) scale(0.1 -0.1)">
       <defs>
        <path id="DejaVuSans-30" d="M 2034 4250 
Q 1547 4250 1301 3770 
Q 1056 3291 1056 2328 
Q 1056 1369 1301 889 
Q 1547 409 2034 409 
Q 2525 409 2770 889 
Q 3016 1369 3016 2328 
Q 3016 3291 2770 3770 
Q 2525 4250 2034 4250 
z
M 2034 4750 
Q 2819 4750 3233 4129 
Q 3647 3509 3647 2328 
Q 3647 1150 3233 529 
Q 2819 -91 2034 -91 
Q 1250 -91 836 529 
Q 422 1150 422 2328 
Q 422 3509 836 4129 
Q 1250 4750 2034 4750 
z
" transform="scale(0.015625)"/>
       </defs>
       <use xlink:href="#DejaVuSans-30"/>
      </g>
     </g>
    </g>
    <g id="xtick_2">
     <g id="line2d_2">
      <g>
       <use xlink:href="#m97cc0fca18" x="163.321027" y="320.4" style="stroke: #000000; stroke-width: 0.8"/>
      </g>
     </g>
     <g id="text_2">
      <!-- 5000 -->
      <g transform="translate(150.596027 334.998438) scale(0.1 -0.1)">
       <defs>
        <path id="DejaVuSans-35" d="M 691 4666 
L 3169 4666 
L 3169 4134 
L 1269 4134 
L 1269 2991 
Q 1406 3038 1543 3061 
Q 1681 3084 1819 3084 
Q 2600 3084 3056 2656 
Q 3513 2228 3513 1497 
Q 3513 744 3044 326 
Q 2575 -91 1722 -91 
Q 1428 -91 1123 -41 
Q 819 9 494 109 
L 494 744 
Q 775 591 1075 516 
Q 1375 441 1709 441 
Q 2250 441 2565 725 
Q 2881 1009 2881 1497 
Q 2881 1984 2565 2268 
Q 2250 2553 1709 2553 
Q 1456 2553 1204 2497 
Q 953 2441 691 2322 
L 691 4666 
z
" transform="scale(0.015625)"/>
       </defs>
       <use xlink:href="#DejaVuSans-35"/>
       <use xlink:href="#DejaVuSans-30" x="63.623047"/>
       <use xlink:href="#DejaVuSans-30" x="127.246094"/>
       <use xlink:href="#DejaVuSans-30" x="190.869141"/>
      </g>
     </g>
    </g>
    <g id="xtick_3">
     <g id="line2d_3">
      <g>
       <use xlink:href="#m97cc0fca18" x="215.820688" y="320.4" style="stroke: #000000; stroke-width: 0.8"/>
      </g>
     </g>
     <g id="text_3">
      <!-- 10000 -->
      <g transform="translate(199.914438 334.998438) scale(0.1 -0.1)">
       <defs>
        <path id="DejaVuSans-31" d="M 794 531 
L 1825 531 
L 1825 4091 
L 703 3866 
L 703 4441 
L 1819 4666 
L 2450 4666 
L 2450 531 
L 3481 531 
L 3481 0 
L 794 0 
L 794 531 
z
" transform="scale(0.015625)"/>
       </defs>
       <use xlink:href="#DejaVuSans-31"/>
       <use xlink:href="#DejaVuSans-30" x="63.623047"/>
       <use xlink:href="#DejaVuSans-30" x="127.246094"/>
       <use xlink:href="#DejaVuSans-30" x="190.869141"/>
       <use xlink:href="#DejaVuSans-30" x="254.492188"/>
      </g>
     </g>
    </g>
    <g id="xtick_4">
     <g id="line2d_4">
      <g>
       <use xlink:href="#m97cc0fca18" x="268.32035" y="320.4" style="stroke: #000000; stroke-width: 0.8"/>
      </g>
     </g>
     <g id="text_4">
      <!-- 15000 -->
      <g transform="translate(252.4141 334.998438) scale(0.1 -0.1)">
       <use xlink:href="#DejaVuSans-31"/>
       <use xlink:href="#DejaVuSans-35" x="63.623047"/>
       <use xlink:href="#DejaVuSans-30" x="127.246094"/>
       <use xlink:href="#DejaVuSans-30" x="190.869141"/>
       <use xlink:href="#DejaVuSans-30" x="254.492188"/>
      </g>
     </g>
    </g>
    <g id="xtick_5">
     <g id="line2d_5">
      <g>
       <use xlink:href="#m97cc0fca18" x="320.820011" y="320.4" style="stroke: #000000; stroke-width: 0.8"/>
      </g>
     </g>
     <g id="text_5">
      <!-- 20000 -->
      <g transform="translate(304.913761 334.998438) scale(0.1 -0.1)">
       <defs>
        <path id="DejaVuSans-32" d="M 1228 531 
L 3431 531 
L 3431 0 
L 469 0 
L 469 531 
Q 828 903 1448 1529 
Q 2069 2156 2228 2338 
Q 2531 2678 2651 2914 
Q 2772 3150 2772 3378 
Q 2772 3750 2511 3984 
Q 2250 4219 1831 4219 
Q 1534 4219 1204 4116 
Q 875 4013 500 3803 
L 500 4441 
Q 881 4594 1212 4672 
Q 1544 4750 1819 4750 
Q 2544 4750 2975 4387 
Q 3406 4025 3406 3419 
Q 3406 3131 3298 2873 
Q 3191 2616 2906 2266 
Q 2828 2175 2409 1742 
Q 1991 1309 1228 531 
z
" transform="scale(0.015625)"/>
       </defs>
       <use xlink:href="#DejaVuSans-32"/>
       <use xlink:href="#DejaVuSans-30" x="63.623047"/>
       <use xlink:href="#DejaVuSans-30" x="127.246094"/>
       <use xlink:href="#DejaVuSans-30" x="190.869141"/>
       <use xlink:href="#DejaVuSans-30" x="254.492188"/>
      </g>
     </g>
    </g>
    <g id="text_6">
     <!-- time -->
     <g transform="translate(203.262869 350.19625) scale(0.12 -0.12)">
      <defs>
       <path id="DejaVuSans-74" d="M 1172 4494 
L 1172 3500 
L 2356 3500 
L 2356 3053 
L 1172 3053 
L 1172 1153 
Q 1172 725 1289 603 
Q 1406 481 1766 481 
L 2356 481 
L 2356 0 
L 1766 0 
Q 1100 0 847 248 
Q 594 497 594 1153 
L 594 3053 
L 172 3053 
L 172 3500 
L 594 3500 
L 594 4494 
L 1172 4494 
z
" transform="scale(0.015625)"/>
       <path id="DejaVuSans-69" d="M 603 3500 
L 1178 3500 
L 1178 0 
L 603 0 
L 603 3500 
z
M 603 4863 
L 1178 4863 
L 1178 4134 
L 603 4134 
L 603 4863 
z
" transform="scale(0.015625)"/>
       <path id="DejaVuSans-6d" d="M 3328 2828 
Q 3544 3216 3844 3400 
Q 4144 3584 4550 3584 
Q 5097 3584 5394 3201 
Q 5691 2819 5691 2113 
L 5691 0 
L 5113 0 
L 5113 2094 
Q 5113 2597 4934 2840 
Q 4756 3084 4391 3084 
Q 3944 3084 3684 2787 
Q 3425 2491 3425 1978 
L 3425 0 
L 2847 0 
L 2847 2094 
Q 2847 2600 2669 2842 
Q 2491 3084 2119 3084 
Q 1678 3084 1418 2786 
Q 1159 2488 1159 1978 
L 1159 0 
L 581 0 
L 581 3500 
L 1159 3500 
L 1159 2956 
Q 1356 3278 1631 3431 
Q 1906 3584 2284 3584 
Q 2666 3584 2933 3390 
Q 3200 3197 3328 2828 
z
" transform="scale(0.015625)"/>
       <path id="DejaVuSans-65" d="M 3597 1894 
L 3597 1613 
L 953 1613 
Q 991 1019 1311 708 
Q 1631 397 2203 397 
Q 2534 397 2845 478 
Q 3156 559 3463 722 
L 3463 178 
Q 3153 47 2828 -22 
Q 2503 -91 2169 -91 
Q 1331 -91 842 396 
Q 353 884 353 1716 
Q 353 2575 817 3079 
Q 1281 3584 2069 3584 
Q 2775 3584 3186 3129 
Q 3597 2675 3597 1894 
z
M 3022 2063 
Q 3016 2534 2758 2815 
Q 2500 3097 2075 3097 
Q 1594 3097 1305 2825 
Q 1016 2553 972 2059 
L 3022 2063 
z
" transform="scale(0.015625)"/>
      </defs>
      <use xlink:href="#DejaVuSans-74"/>
      <use xlink:href="#DejaVuSans-69" x="39.208984"/>
      <use xlink:href="#DejaVuSans-6d" x="66.992188"/>
      <use xlink:href="#DejaVuSans-65" x="164.404297"/>
     </g>
    </g>
   </g>
   <g id="matplotlib.axis_2">
    <g id="ytick_1">
     <g id="line2d_6">
      <defs>
       <path id="m2fe754b662" d="M 0 0 
L -3.5 0 
" style="stroke: #000000; stroke-width: 0.8"/>
      </defs>
      <g>
       <use xlink:href="#m2fe754b662" x="90" y="307.8" style="stroke: #000000; stroke-width: 0.8"/>
      </g>
     </g>
     <g id="text_7">
      <!-- 0.0000 -->
      <g transform="translate(48.009375 311.599219) scale(0.1 -0.1)">
       <defs>
        <path id="DejaVuSans-2e" d="M 684 794 
L 1344 794 
L 1344 0 
L 684 0 
L 684 794 
z
" transform="scale(0.015625)"/>
       </defs>
       <use xlink:href="#DejaVuSans-30"/>
       <use xlink:href="#DejaVuSans-2e" x="63.623047"/>
       <use xlink:href="#DejaVuSans-30" x="95.410156"/>
       <use xlink:href="#DejaVuSans-30" x="159.033203"/>
       <use xlink:href="#DejaVuSans-30" x="222.65625"/>
       <use xlink:href="#DejaVuSans-30" x="286.279297"/>
      </g>
     </g>
    </g>
    <g id="ytick_2">
     <g id="line2d_7">
      <g>
       <use xlink:href="#m2fe754b662" x="90" y="260.389689" style="stroke: #000000; stroke-width: 0.8"/>
      </g>
     </g>
     <g id="text_8">
      <!-- 0.0002 -->
      <g transform="translate(48.009375 264.188908) scale(0.1 -0.1)">
       <use xlink:href="#DejaVuSans-30"/>
       <use xlink:href="#DejaVuSans-2e" x="63.623047"/>
       <use xlink:href="#DejaVuSans-30" x="95.410156"/>
       <use xlink:href="#DejaVuSans-30" x="159.033203"/>
       <use xlink:href="#DejaVuSans-30" x="222.65625"/>
       <use xlink:href="#DejaVuSans-32" x="286.279297"/>
      </g>
     </g>
    </g>
    <g id="ytick_3">
     <g id="line2d_8">
      <g>
       <use xlink:href="#m2fe754b662" x="90" y="212.979379" style="stroke: #000000; stroke-width: 0.8"/>
      </g>
     </g>
     <g id="text_9">
      <!-- 0.0004 -->
      <g transform="translate(48.009375 216.778597) scale(0.1 -0.1)">
       <defs>
        <path id="DejaVuSans-34" d="M 2419 4116 
L 825 1625 
L 2419 1625 
L 2419 4116 
z
M 2253 4666 
L 3047 4666 
L 3047 1625 
L 3713 1625 
L 3713 1100 
L 3047 1100 
L 3047 0 
L 2419 0 
L 2419 1100 
L 313 1100 
L 313 1709 
L 2253 4666 
z
" transform="scale(0.015625)"/>
       </defs>
       <use xlink:href="#DejaVuSans-30"/>
       <use xlink:href="#DejaVuSans-2e" x="63.623047"/>
       <use xlink:href="#DejaVuSans-30" x="95.410156"/>
       <use xlink:href="#DejaVuSans-30" x="159.033203"/>
       <use xlink:href="#DejaVuSans-30" x="222.65625"/>
       <use xlink:href="#DejaVuSans-34" x="286.279297"/>
      </g>
     </g>
    </g>
    <g id="ytick_4">
     <g id="line2d_9">
      <g>
       <use xlink:href="#m2fe754b662" x="90" y="165.569068" style="stroke: #000000; stroke-width: 0.8"/>
      </g>
     </g>
     <g id="text_10">
      <!-- 0.0006 -->
      <g transform="translate(48.009375 169.368287) scale(0.1 -0.1)">
       <defs>
        <path id="DejaVuSans-36" d="M 2113 2584 
Q 1688 2584 1439 2293 
Q 1191 2003 1191 1497 
Q 1191 994 1439 701 
Q 1688 409 2113 409 
Q 2538 409 2786 701 
Q 3034 994 3034 1497 
Q 3034 2003 2786 2293 
Q 2538 2584 2113 2584 
z
M 3366 4563 
L 3366 3988 
Q 3128 4100 2886 4159 
Q 2644 4219 2406 4219 
Q 1781 4219 1451 3797 
Q 1122 3375 1075 2522 
Q 1259 2794 1537 2939 
Q 1816 3084 2150 3084 
Q 2853 3084 3261 2657 
Q 3669 2231 3669 1497 
Q 3669 778 3244 343 
Q 2819 -91 2113 -91 
Q 1303 -91 875 529 
Q 447 1150 447 2328 
Q 447 3434 972 4092 
Q 1497 4750 2381 4750 
Q 2619 4750 2861 4703 
Q 3103 4656 3366 4563 
z
" transform="scale(0.015625)"/>
       </defs>
       <use xlink:href="#DejaVuSans-30"/>
       <use xlink:href="#DejaVuSans-2e" x="63.623047"/>
       <use xlink:href="#DejaVuSans-30" x="95.410156"/>
       <use xlink:href="#DejaVuSans-30" x="159.033203"/>
       <use xlink:href="#DejaVuSans-30" x="222.65625"/>
       <use xlink:href="#DejaVuSans-36" x="286.279297"/>
      </g>
     </g>
    </g>
    <g id="ytick_5">
     <g id="line2d_10">
      <g>
       <use xlink:href="#m2fe754b662" x="90" y="118.158757" style="stroke: #000000; stroke-width: 0.8"/>
      </g>
     </g>
     <g id="text_11">
      <!-- 0.0008 -->
      <g transform="translate(48.009375 121.957976) scale(0.1 -0.1)">
       <defs>
        <path id="DejaVuSans-38" d="M 2034 2216 
Q 1584 2216 1326 1975 
Q 1069 1734 1069 1313 
Q 1069 891 1326 650 
Q 1584 409 2034 409 
Q 2484 409 2743 651 
Q 3003 894 3003 1313 
Q 3003 1734 2745 1975 
Q 2488 2216 2034 2216 
z
M 1403 2484 
Q 997 2584 770 2862 
Q 544 3141 544 3541 
Q 544 4100 942 4425 
Q 1341 4750 2034 4750 
Q 2731 4750 3128 4425 
Q 3525 4100 3525 3541 
Q 3525 3141 3298 2862 
Q 3072 2584 2669 2484 
Q 3125 2378 3379 2068 
Q 3634 1759 3634 1313 
Q 3634 634 3220 271 
Q 2806 -91 2034 -91 
Q 1263 -91 848 271 
Q 434 634 434 1313 
Q 434 1759 690 2068 
Q 947 2378 1403 2484 
z
M 1172 3481 
Q 1172 3119 1398 2916 
Q 1625 2713 2034 2713 
Q 2441 2713 2670 2916 
Q 2900 3119 2900 3481 
Q 2900 3844 2670 4047 
Q 2441 4250 2034 4250 
Q 1625 4250 1398 4047 
Q 1172 3844 1172 3481 
z
" transform="scale(0.015625)"/>
       </defs>
       <use xlink:href="#DejaVuSans-30"/>
       <use xlink:href="#DejaVuSans-2e" x="63.623047"/>
       <use xlink:href="#DejaVuSans-30" x="95.410156"/>
       <use xlink:href="#DejaVuSans-30" x="159.033203"/>
       <use xlink:href="#DejaVuSans-30" x="222.65625"/>
       <use xlink:href="#DejaVuSans-38" x="286.279297"/>
      </g>
     </g>
    </g>
    <g id="ytick_6">
     <g id="line2d_11">
      <g>
       <use xlink:href="#m2fe754b662" x="90" y="70.748446" style="stroke: #000000; stroke-width: 0.8"/>
      </g>
     </g>
     <g id="text_12">
      <!-- 0.0010 -->
      <g transform="translate(48.009375 74.547665) scale(0.1 -0.1)">
       <use xlink:href="#DejaVuSans-30"/>
       <use xlink:href="#DejaVuSans-2e" x="63.623047"/>
       <use xlink:href="#DejaVuSans-30" x="95.410156"/>
       <use xlink:href="#DejaVuSans-30" x="159.033203"/>
       <use xlink:href="#DejaVuSans-31" x="222.65625"/>
       <use xlink:href="#DejaVuSans-30" x="286.279297"/>
      </g>
     </g>
    </g>
    <g id="text_13">
     <!-- [Cve_dap] -->
     <g transform="translate(41.18 212.209687) rotate(-90) scale(0.12 -0.12)">
      <defs>
       <path id="DejaVuSans-5b" d="M 550 4863 
L 1875 4863 
L 1875 4416 
L 1125 4416 
L 1125 -397 
L 1875 -397 
L 1875 -844 
L 550 -844 
L 550 4863 
z
" transform="scale(0.015625)"/>
       <path id="DejaVuSans-43" d="M 4122 4306 
L 4122 3641 
Q 3803 3938 3442 4084 
Q 3081 4231 2675 4231 
Q 1875 4231 1450 3742 
Q 1025 3253 1025 2328 
Q 1025 1406 1450 917 
Q 1875 428 2675 428 
Q 3081 428 3442 575 
Q 3803 722 4122 1019 
L 4122 359 
Q 3791 134 3420 21 
Q 3050 -91 2638 -91 
Q 1578 -91 968 557 
Q 359 1206 359 2328 
Q 359 3453 968 4101 
Q 1578 4750 2638 4750 
Q 3056 4750 3426 4639 
Q 3797 4528 4122 4306 
z
" transform="scale(0.015625)"/>
       <path id="DejaVuSans-76" d="M 191 3500 
L 800 3500 
L 1894 563 
L 2988 3500 
L 3597 3500 
L 2284 0 
L 1503 0 
L 191 3500 
z
" transform="scale(0.015625)"/>
       <path id="DejaVuSans-5f" d="M 3263 -1063 
L 3263 -1509 
L -63 -1509 
L -63 -1063 
L 3263 -1063 
z
" transform="scale(0.015625)"/>
       <path id="DejaVuSans-64" d="M 2906 2969 
L 2906 4863 
L 3481 4863 
L 3481 0 
L 2906 0 
L 2906 525 
Q 2725 213 2448 61 
Q 2172 -91 1784 -91 
Q 1150 -91 751 415 
Q 353 922 353 1747 
Q 353 2572 751 3078 
Q 1150 3584 1784 3584 
Q 2172 3584 2448 3432 
Q 2725 3281 2906 2969 
z
M 947 1747 
Q 947 1113 1208 752 
Q 1469 391 1925 391 
Q 2381 391 2643 752 
Q 2906 1113 2906 1747 
Q 2906 2381 2643 2742 
Q 2381 3103 1925 3103 
Q 1469 3103 1208 2742 
Q 947 2381 947 1747 
z
" transform="scale(0.015625)"/>
       <path id="DejaVuSans-61" d="M 2194 1759 
Q 1497 1759 1228 1600 
Q 959 1441 959 1056 
Q 959 750 1161 570 
Q 1363 391 1709 391 
Q 2188 391 2477 730 
Q 2766 1069 2766 1631 
L 2766 1759 
L 2194 1759 
z
M 3341 1997 
L 3341 0 
L 2766 0 
L 2766 531 
Q 2569 213 2275 61 
Q 1981 -91 1556 -91 
Q 1019 -91 701 211 
Q 384 513 384 1019 
Q 384 1609 779 1909 
Q 1175 2209 1959 2209 
L 2766 2209 
L 2766 2266 
Q 2766 2663 2505 2880 
Q 2244 3097 1772 3097 
Q 1472 3097 1187 3025 
Q 903 2953 641 2809 
L 641 3341 
Q 956 3463 1253 3523 
Q 1550 3584 1831 3584 
Q 2591 3584 2966 3190 
Q 3341 2797 3341 1997 
z
" transform="scale(0.015625)"/>
       <path id="DejaVuSans-70" d="M 1159 525 
L 1159 -1331 
L 581 -1331 
L 581 3500 
L 1159 3500 
L 1159 2969 
Q 1341 3281 1617 3432 
Q 1894 3584 2278 3584 
Q 2916 3584 3314 3078 
Q 3713 2572 3713 1747 
Q 3713 922 3314 415 
Q 2916 -91 2278 -91 
Q 1894 -91 1617 61 
Q 1341 213 1159 525 
z
M 3116 1747 
Q 3116 2381 2855 2742 
Q 2594 3103 2138 3103 
Q 1681 3103 1420 2742 
Q 1159 2381 1159 1747 
Q 1159 1113 1420 752 
Q 1681 391 2138 391 
Q 2594 391 2855 752 
Q 3116 1113 3116 1747 
z
" transform="scale(0.015625)"/>
       <path id="DejaVuSans-5d" d="M 1947 4863 
L 1947 -844 
L 622 -844 
L 622 -397 
L 1369 -397 
L 1369 4416 
L 622 4416 
L 622 4863 
L 1947 4863 
z
" transform="scale(0.015625)"/>
      </defs>
      <use xlink:href="#DejaVuSans-5b"/>
      <use xlink:href="#DejaVuSans-43" x="39.013672"/>
      <use xlink:href="#DejaVuSans-76" x="108.837891"/>
      <use xlink:href="#DejaVuSans-65" x="168.017578"/>
      <use xlink:href="#DejaVuSans-5f" x="229.541016"/>
      <use xlink:href="#DejaVuSans-64" x="279.541016"/>
      <use xlink:href="#DejaVuSans-61" x="343.017578"/>
      <use xlink:href="#DejaVuSans-70" x="404.296875"/>
      <use xlink:href="#DejaVuSans-5d" x="467.773438"/>
     </g>
    </g>
   </g>
   <g id="LineCollection_1">
    <path d="M 111.136364 303.246915 
L 111.136364 223.915411 
" clip-path="url(#pcad2e20a7f)" style="fill: none; stroke: #000000; stroke-width: 1.5"/>
    <path d="M 111.451362 196.473774 
L 111.451362 100.862574 
" clip-path="url(#pcad2e20a7f)" style="fill: none; stroke: #000000; stroke-width: 1.5"/>
    <path d="M 112.081358 215.169258 
L 112.081358 163.596335 
" clip-path="url(#pcad2e20a7f)" style="fill: none; stroke: #000000; stroke-width: 1.5"/>
    <path d="M 113.341349 274.165453 
L 113.341349 242.226206 
" clip-path="url(#pcad2e20a7f)" style="fill: none; stroke: #000000; stroke-width: 1.5"/>
    <path d="M 114.601341 287.614134 
L 114.601341 264.301209 
" clip-path="url(#pcad2e20a7f)" style="fill: none; stroke: #000000; stroke-width: 1.5"/>
    <path d="M 115.861333 292.998939 
L 115.861333 277.48801 
" clip-path="url(#pcad2e20a7f)" style="fill: none; stroke: #000000; stroke-width: 1.5"/>
    <path d="M 118.381317 300.010669 
L 118.381317 291.014667 
" clip-path="url(#pcad2e20a7f)" style="fill: none; stroke: #000000; stroke-width: 1.5"/>
    <path d="M 122.161293 303.549859 
L 122.161293 299.095878 
" clip-path="url(#pcad2e20a7f)" style="fill: none; stroke: #000000; stroke-width: 1.5"/>
    <path d="M 125.941268 305.161574 
L 125.941268 298.505084 
" clip-path="url(#pcad2e20a7f)" style="fill: none; stroke: #000000; stroke-width: 1.5"/>
    <path d="M 307.380098 302.548706 
L 307.380098 294.461463 
" clip-path="url(#pcad2e20a7f)" style="fill: none; stroke: #000000; stroke-width: 1.5"/>
    <path d="M 307.695096 290.830291 
L 307.695096 203.957819 
" clip-path="url(#pcad2e20a7f)" style="fill: none; stroke: #000000; stroke-width: 1.5"/>
    <path d="M 308.010093 230.912557 
L 308.010093 55.8 
" clip-path="url(#pcad2e20a7f)" style="fill: none; stroke: #000000; stroke-width: 1.5"/>
    <path d="M 308.640089 205.556165 
L 308.640089 126.332839 
" clip-path="url(#pcad2e20a7f)" style="fill: none; stroke: #000000; stroke-width: 1.5"/>
    <path d="M 309.900081 257.547795 
L 309.900081 222.52685 
" clip-path="url(#pcad2e20a7f)" style="fill: none; stroke: #000000; stroke-width: 1.5"/>
    <path d="M 311.160073 275.0077 
L 311.160073 252.154627 
" clip-path="url(#pcad2e20a7f)" style="fill: none; stroke: #000000; stroke-width: 1.5"/>
    <path d="M 312.420065 283.928659 
L 312.420065 269.023705 
" clip-path="url(#pcad2e20a7f)" style="fill: none; stroke: #000000; stroke-width: 1.5"/>
    <path d="M 314.940049 294.820683 
L 314.940049 281.21887 
" clip-path="url(#pcad2e20a7f)" style="fill: none; stroke: #000000; stroke-width: 1.5"/>
    <path d="M 318.720024 301.469576 
L 318.720024 290.736816 
" clip-path="url(#pcad2e20a7f)" style="fill: none; stroke: #000000; stroke-width: 1.5"/>
    <path d="M 322.5 303.035367 
L 322.5 291.014667 
" clip-path="url(#pcad2e20a7f)" style="fill: none; stroke: #000000; stroke-width: 1.5"/>
   </g>
   <g id="line2d_12">
    <path d="M 110.821366 307.8 
L 110.828845 307.698988 
L 110.860972 301.72035 
L 111.047016 203.562736 
L 111.277802 143.970308 
L 111.379977 140.072765 
L 111.408117 140.381216 
L 111.52068 145.43708 
L 111.886711 178.055319 
L 112.521154 229.6479 
L 113.099047 259.841664 
L 113.688654 278.786671 
L 114.27826 290.085148 
L 114.769598 295.838784 
L 115.260937 299.493255 
L 115.752275 301.799285 
L 116.243614 303.247361 
L 116.83322 304.289086 
L 117.422826 304.881235 
L 118.1107 305.257904 
L 119.086259 305.505697 
L 120.755537 305.64465 
L 125.943403 305.737557 
L 125.953388 305.369673 
L 125.999965 292.264067 
L 126.447771 138.881416 
L 126.491095 138.024307 
L 126.534418 138.461545 
L 126.657953 144.559484 
L 127.133362 187.857387 
L 127.754487 234.682137 
L 128.314666 261.569805 
L 128.822921 277.113134 
L 129.331176 287.06292 
L 129.83943 293.351902 
L 130.347685 297.290085 
L 130.855939 299.739451 
L 131.364194 301.255699 
L 131.957158 302.308403 
L 132.550121 302.907971 
L 133.227794 303.286246 
L 134.159594 303.538896 
L 135.769067 303.700035 
L 140.512777 303.846791 
L 141.068479 303.766678 
L 141.098497 298.5037 
L 141.256798 214.489632 
L 141.510886 140.642673 
L 141.604708 136.187567 
L 141.656191 136.632013 
L 141.784899 143.186604 
L 142.261627 186.751906 
L 142.901975 234.451979 
L 143.405684 258.614248 
L 143.946363 275.353076 
L 144.487043 285.77006 
L 145.027722 292.162239 
L 145.568401 296.045587 
L 146.109081 298.388564 
L 146.64976 299.796358 
L 147.190439 300.641218 
L 147.821232 301.211949 
L 148.542137 301.563285 
L 149.623496 301.80881 
L 151.605986 301.972468 
L 156.186404 302.110378 
L 156.187059 302.094996 
L 156.211845 298.636166 
L 156.319181 245.004897 
L 156.601501 142.176407 
L 156.724994 134.476141 
L 156.752151 134.513652 
L 156.833622 137.090089 
L 157.078034 156.30919 
L 157.893778 224.888632 
L 158.480281 255.138694 
L 159.001617 272.055222 
L 159.555629 283.305479 
L 160.044535 289.501528 
L 160.533441 293.457008 
L 161.022346 295.967249 
L 161.609033 297.793337 
L 162.19572 298.845238 
L 162.782407 299.453197 
L 163.466875 299.851309 
L 164.444686 300.132538 
L 166.106966 300.325737 
L 171.191585 300.581417 
L 171.306523 300.547313 
L 171.308569 300.484996 
L 171.338343 295.220579 
L 171.495886 211.595638 
L 171.737868 138.670936 
L 171.866702 132.914108 
L 171.895165 133.350309 
L 172.037483 140.862177 
L 173.557422 251.851419 
L 174.105349 270.104467 
L 174.653276 281.425563 
L 175.132713 287.655353 
L 175.647298 291.900548 
L 176.161884 294.533145 
L 176.676469 296.159808 
L 177.191055 297.164254 
L 177.808557 297.879144 
L 178.528977 298.335243 
L 179.455231 298.62832 
L 180.998987 298.83961 
L 185.321506 299.106937 
L 186.425885 299.135729 
L 186.428011 299.079121 
L 186.457636 293.984171 
L 186.615141 210.512764 
L 186.869254 136.084307 
L 186.970277 131.47043 
L 187.021783 132.100828 
L 187.17829 141.049852 
L 188.516802 243.292831 
L 189.104439 265.383739 
L 189.618621 277.373571 
L 190.132803 284.95231 
L 190.646985 289.694738 
L 191.161167 292.642095 
L 191.675348 294.46667 
L 192.18953 295.595239 
L 192.777167 296.371008 
L 193.438258 296.867435 
L 194.246258 297.191698 
L 195.494985 297.429485 
L 198.212804 297.659921 
L 201.54536 297.847451 
L 201.547708 297.790408 
L 201.576687 292.944263 
L 201.724716 214.712358 
L 201.970942 136.71443 
L 202.085203 130.206118 
L 202.130907 130.548748 
L 202.235739 135.260267 
L 202.598492 167.453232 
L 203.270765 221.76148 
L 203.852194 251.40781 
L 204.436951 269.731665 
L 204.938171 279.470175 
L 205.439392 285.672338 
L 205.940612 289.590005 
L 206.441833 292.051577 
L 206.943053 293.594446 
L 207.52781 294.684214 
L 208.112568 295.321185 
L 208.780862 295.739775 
L 209.699766 296.043014 
L 211.203427 296.2738 
L 215.296727 296.593464 
L 216.664998 296.670899 
L 216.667934 296.598702 
L 216.698049 291.322534 
L 216.86384 203.447997 
L 217.104091 134.098838 
L 217.212475 128.992865 
L 217.255829 129.484793 
L 217.380255 135.745522 
L 217.859748 179.501676 
L 218.445688 224.024171 
L 218.989449 250.929024 
L 219.53321 267.99631 
L 220.076971 278.602259 
L 220.620732 285.102795 
L 221.164493 289.050346 
L 221.708254 291.434509 
L 222.252015 292.872128 
L 222.795776 293.741589 
L 223.417217 294.329284 
L 224.194018 294.733371 
L 225.28154 295.014783 
L 227.301224 295.258572 
L 231.784127 295.601982 
L 231.786611 295.558399 
L 231.811663 292.023375 
L 231.929235 232.314618 
L 232.196485 136.249317 
L 232.326024 127.945859 
L 232.369204 128.264799 
L 232.492844 134.160517 
L 232.935061 174.335886 
L 233.551275 222.078086 
L 234.107994 249.812311 
L 234.697513 268.007104 
L 235.202816 277.635915 
L 235.708118 283.745323 
L 236.21342 287.59106 
L 236.718723 290.000248 
L 237.224025 291.506994 
L 237.813544 292.570328 
L 238.403064 293.192957 
L 239.161017 293.642149 
L 240.171622 293.946624 
L 241.94018 294.200014 
L 246.903951 294.618511 
L 246.90477 294.608963 
L 246.923344 292.852613 
L 247.007364 255.802906 
L 247.328294 133.755423 
L 247.464286 126.956059 
L 247.490018 127.302012 
L 247.618681 133.593041 
L 248.059712 173.79775 
L 248.68699 222.07425 
L 249.279707 250.833476 
L 249.8142 266.963801 
L 250.348693 277.058961 
L 250.924451 283.663194 
L 251.392698 286.978433 
L 251.960083 289.475043 
L 252.40559 290.695403 
L 252.953328 291.648631 
L 253.555174 292.273482 
L 254.257328 292.691028 
L 255.260406 293.004819 
L 256.965638 293.264512 
L 262.023582 293.728138 
L 262.024166 293.722636 
L 262.041432 292.276109 
L 262.11701 260.776119 
L 262.436414 134.359119 
L 262.576679 126.041749 
L 262.600056 126.232948 
L 262.706225 130.565297 
L 263.030556 158.774454 
L 263.735345 216.703327 
L 264.315204 246.66246 
L 264.898732 265.234305 
L 265.482259 276.384754 
L 265.982426 282.236233 
L 266.482592 285.937442 
L 266.982759 288.268754 
L 267.566287 289.921016 
L 268.149814 290.888008 
L 268.816703 291.522073 
L 269.566953 291.91633 
L 270.650647 292.213168 
L 272.734674 292.497422 
L 277.143626 292.908983 
L 277.146176 292.867186 
L 277.17189 289.194281 
L 277.294037 226.671451 
L 277.565335 132.38271 
L 277.709328 125.288113 
L 277.801212 128.319805 
L 278.046234 147.968482 
L 278.8843 217.745578 
L 279.451469 246.511863 
L 280.018638 264.430414 
L 280.585807 275.343839 
L 281.152976 281.894846 
L 281.720145 285.791118 
L 282.287313 288.097942 
L 282.854482 289.464414 
L 283.421651 290.279513 
L 284.059716 290.82014 
L 284.839574 291.191762 
L 286.044808 291.488487 
L 288.4556 291.795945 
L 292.263568 292.164329 
L 292.266858 292.101004 
L 292.294719 287.649718 
L 292.440907 210.768042 
L 292.700721 129.885186 
L 292.825959 124.519896 
L 292.856428 125.006165 
L 293.008775 133.392665 
L 294.419014 239.304151 
L 294.983169 259.625121 
L 295.547323 272.098985 
L 296.111478 279.633866 
L 296.675632 284.138258 
L 297.239787 286.815778 
L 297.803941 288.406088 
L 298.368096 289.355571 
L 299.00277 289.984183 
L 299.778482 290.413142 
L 300.836272 290.719954 
L 302.810812 291.015148 
L 307.383593 291.487603 
L 307.386214 291.441232 
L 307.412852 287.466756 
L 307.537954 222.887878 
L 307.809863 130.399271 
L 307.939936 123.816376 
L 307.964542 124.080838 
L 308.087571 129.733147 
L 308.502167 167.221263 
L 309.163244 218.770676 
L 309.682999 244.780331 
L 310.20726 261.753112 
L 310.73152 272.501524 
L 311.255781 279.220738 
L 311.780041 283.385457 
L 312.304302 285.954675 
L 312.828563 287.538408 
L 313.352823 288.518589 
L 313.964461 289.209155 
L 314.663475 289.663322 
L 315.624619 290.001707 
L 317.284778 290.299359 
L 322.177877 290.842817 
L 323.129996 290.941436 
L 323.129996 290.941436 
" clip-path="url(#pcad2e20a7f)" style="fill: none; stroke: #0000ff; stroke-width: 1.5; stroke-linecap: square"/>
   </g>
   <g id="line2d_13">
    <path d="M 111.136364 263.581163 
L 111.451362 148.668174 
L 112.081358 189.382796 
L 113.341349 258.19583 
L 114.601341 275.957671 
L 115.861333 285.243475 
L 118.381317 295.512668 
L 122.161293 301.322868 
L 125.941268 301.833329 
L 307.380098 298.505084 
L 307.695096 247.394055 
L 308.010093 143.356279 
L 308.640089 165.944502 
L 309.900081 240.037322 
L 311.160073 263.581163 
L 312.420065 276.476182 
L 314.940049 288.019776 
L 318.720024 296.103196 
L 322.5 297.025017 
" clip-path="url(#pcad2e20a7f)" style="fill: none; stroke: #000000; stroke-width: 1.5; stroke-linecap: square"/>
    <defs>
     <path id="m806fb5c810" d="M -5 5 
L 5 5 
L 5 -5 
L -5 -5 
z
" style="stroke: #000000; stroke-linejoin: miter"/>
    </defs>
    <g clip-path="url(#pcad2e20a7f)">
     <use xlink:href="#m806fb5c810" x="111.136364" y="263.581163" style="stroke: #000000; stroke-linejoin: miter"/>
     <use xlink:href="#m806fb5c810" x="111.451362" y="148.668174" style="stroke: #000000; stroke-linejoin: miter"/>
     <use xlink:href="#m806fb5c810" x="112.081358" y="189.382796" style="stroke: #000000; stroke-linejoin: miter"/>
     <use xlink:href="#m806fb5c810" x="113.341349" y="258.19583" style="stroke: #000000; stroke-linejoin: miter"/>
     <use xlink:href="#m806fb5c810" x="114.601341" y="275.957671" style="stroke: #000000; stroke-linejoin: miter"/>
     <use xlink:href="#m806fb5c810" x="115.861333" y="285.243475" style="stroke: #000000; stroke-linejoin: miter"/>
     <use xlink:href="#m806fb5c810" x="118.381317" y="295.512668" style="stroke: #000000; stroke-linejoin: miter"/>
     <use xlink:href="#m806fb5c810" x="122.161293" y="301.322868" style="stroke: #000000; stroke-linejoin: miter"/>
     <use xlink:href="#m806fb5c810" x="125.941268" y="301.833329" style="stroke: #000000; stroke-linejoin: miter"/>
     <use xlink:href="#m806fb5c810" x="307.380098" y="298.505084" style="stroke: #000000; stroke-linejoin: miter"/>
     <use xlink:href="#m806fb5c810" x="307.695096" y="247.394055" style="stroke: #000000; stroke-linejoin: miter"/>
     <use xlink:href="#m806fb5c810" x="308.010093" y="143.356279" style="stroke: #000000; stroke-linejoin: miter"/>
     <use xlink:href="#m806fb5c810" x="308.640089" y="165.944502" style="stroke: #000000; stroke-linejoin: miter"/>
     <use xlink:href="#m806fb5c810" x="309.900081" y="240.037322" style="stroke: #000000; stroke-linejoin: miter"/>
     <use xlink:href="#m806fb5c810" x="311.160073" y="263.581163" style="stroke: #000000; stroke-linejoin: miter"/>
     <use xlink:href="#m806fb5c810" x="312.420065" y="276.476182" style="stroke: #000000; stroke-linejoin: miter"/>
     <use xlink:href="#m806fb5c810" x="314.940049" y="288.019776" style="stroke: #000000; stroke-linejoin: miter"/>
     <use xlink:href="#m806fb5c810" x="318.720024" y="296.103196" style="stroke: #000000; stroke-linejoin: miter"/>
     <use xlink:href="#m806fb5c810" x="322.5" y="297.025017" style="stroke: #000000; stroke-linejoin: miter"/>
    </g>
   </g>
   <g id="patch_3">
    <path d="M 90 320.4 
L 90 43.2 
" style="fill: none; stroke: #000000; stroke-width: 0.8; stroke-linejoin: miter; stroke-linecap: square"/>
   </g>
   <g id="patch_4">
    <path d="M 343.636364 320.4 
L 343.636364 43.2 
" style="fill: none; stroke: #000000; stroke-width: 0.8; stroke-linejoin: miter; stroke-linecap: square"/>
   </g>
   <g id="patch_5">
    <path d="M 90 320.4 
L 343.636364 320.4 
" style="fill: none; stroke: #000000; stroke-width: 0.8; stroke-linejoin: miter; stroke-linecap: square"/>
   </g>
   <g id="patch_6">
    <path d="M 90 43.2 
L 343.636364 43.2 
" style="fill: none; stroke: #000000; stroke-width: 0.8; stroke-linejoin: miter; stroke-linecap: square"/>
   </g>
   <g id="text_14">
    <!-- FDAMB102003 fm_dap25_dapagliflozin -->
    <g transform="translate(80.031619 37.2) scale(0.14 -0.14)">
     <defs>
      <path id="DejaVuSans-46" d="M 628 4666 
L 3309 4666 
L 3309 4134 
L 1259 4134 
L 1259 2759 
L 3109 2759 
L 3109 2228 
L 1259 2228 
L 1259 0 
L 628 0 
L 628 4666 
z
" transform="scale(0.015625)"/>
      <path id="DejaVuSans-44" d="M 1259 4147 
L 1259 519 
L 2022 519 
Q 2988 519 3436 956 
Q 3884 1394 3884 2338 
Q 3884 3275 3436 3711 
Q 2988 4147 2022 4147 
L 1259 4147 
z
M 628 4666 
L 1925 4666 
Q 3281 4666 3915 4102 
Q 4550 3538 4550 2338 
Q 4550 1131 3912 565 
Q 3275 0 1925 0 
L 628 0 
L 628 4666 
z
" transform="scale(0.015625)"/>
      <path id="DejaVuSans-41" d="M 2188 4044 
L 1331 1722 
L 3047 1722 
L 2188 4044 
z
M 1831 4666 
L 2547 4666 
L 4325 0 
L 3669 0 
L 3244 1197 
L 1141 1197 
L 716 0 
L 50 0 
L 1831 4666 
z
" transform="scale(0.015625)"/>
      <path id="DejaVuSans-4d" d="M 628 4666 
L 1569 4666 
L 2759 1491 
L 3956 4666 
L 4897 4666 
L 4897 0 
L 4281 0 
L 4281 4097 
L 3078 897 
L 2444 897 
L 1241 4097 
L 1241 0 
L 628 0 
L 628 4666 
z
" transform="scale(0.015625)"/>
      <path id="DejaVuSans-42" d="M 1259 2228 
L 1259 519 
L 2272 519 
Q 2781 519 3026 730 
Q 3272 941 3272 1375 
Q 3272 1813 3026 2020 
Q 2781 2228 2272 2228 
L 1259 2228 
z
M 1259 4147 
L 1259 2741 
L 2194 2741 
Q 2656 2741 2882 2914 
Q 3109 3088 3109 3444 
Q 3109 3797 2882 3972 
Q 2656 4147 2194 4147 
L 1259 4147 
z
M 628 4666 
L 2241 4666 
Q 2963 4666 3353 4366 
Q 3744 4066 3744 3513 
Q 3744 3084 3544 2831 
Q 3344 2578 2956 2516 
Q 3422 2416 3680 2098 
Q 3938 1781 3938 1306 
Q 3938 681 3513 340 
Q 3088 0 2303 0 
L 628 0 
L 628 4666 
z
" transform="scale(0.015625)"/>
      <path id="DejaVuSans-33" d="M 2597 2516 
Q 3050 2419 3304 2112 
Q 3559 1806 3559 1356 
Q 3559 666 3084 287 
Q 2609 -91 1734 -91 
Q 1441 -91 1130 -33 
Q 819 25 488 141 
L 488 750 
Q 750 597 1062 519 
Q 1375 441 1716 441 
Q 2309 441 2620 675 
Q 2931 909 2931 1356 
Q 2931 1769 2642 2001 
Q 2353 2234 1838 2234 
L 1294 2234 
L 1294 2753 
L 1863 2753 
Q 2328 2753 2575 2939 
Q 2822 3125 2822 3475 
Q 2822 3834 2567 4026 
Q 2313 4219 1838 4219 
Q 1578 4219 1281 4162 
Q 984 4106 628 3988 
L 628 4550 
Q 988 4650 1302 4700 
Q 1616 4750 1894 4750 
Q 2613 4750 3031 4423 
Q 3450 4097 3450 3541 
Q 3450 3153 3228 2886 
Q 3006 2619 2597 2516 
z
" transform="scale(0.015625)"/>
      <path id="DejaVuSans-20" transform="scale(0.015625)"/>
      <path id="DejaVuSans-66" d="M 2375 4863 
L 2375 4384 
L 1825 4384 
Q 1516 4384 1395 4259 
Q 1275 4134 1275 3809 
L 1275 3500 
L 2222 3500 
L 2222 3053 
L 1275 3053 
L 1275 0 
L 697 0 
L 697 3053 
L 147 3053 
L 147 3500 
L 697 3500 
L 697 3744 
Q 697 4328 969 4595 
Q 1241 4863 1831 4863 
L 2375 4863 
z
" transform="scale(0.015625)"/>
      <path id="DejaVuSans-67" d="M 2906 1791 
Q 2906 2416 2648 2759 
Q 2391 3103 1925 3103 
Q 1463 3103 1205 2759 
Q 947 2416 947 1791 
Q 947 1169 1205 825 
Q 1463 481 1925 481 
Q 2391 481 2648 825 
Q 2906 1169 2906 1791 
z
M 3481 434 
Q 3481 -459 3084 -895 
Q 2688 -1331 1869 -1331 
Q 1566 -1331 1297 -1286 
Q 1028 -1241 775 -1147 
L 775 -588 
Q 1028 -725 1275 -790 
Q 1522 -856 1778 -856 
Q 2344 -856 2625 -561 
Q 2906 -266 2906 331 
L 2906 616 
Q 2728 306 2450 153 
Q 2172 0 1784 0 
Q 1141 0 747 490 
Q 353 981 353 1791 
Q 353 2603 747 3093 
Q 1141 3584 1784 3584 
Q 2172 3584 2450 3431 
Q 2728 3278 2906 2969 
L 2906 3500 
L 3481 3500 
L 3481 434 
z
" transform="scale(0.015625)"/>
      <path id="DejaVuSans-6c" d="M 603 4863 
L 1178 4863 
L 1178 0 
L 603 0 
L 603 4863 
z
" transform="scale(0.015625)"/>
      <path id="DejaVuSans-6f" d="M 1959 3097 
Q 1497 3097 1228 2736 
Q 959 2375 959 1747 
Q 959 1119 1226 758 
Q 1494 397 1959 397 
Q 2419 397 2687 759 
Q 2956 1122 2956 1747 
Q 2956 2369 2687 2733 
Q 2419 3097 1959 3097 
z
M 1959 3584 
Q 2709 3584 3137 3096 
Q 3566 2609 3566 1747 
Q 3566 888 3137 398 
Q 2709 -91 1959 -91 
Q 1206 -91 779 398 
Q 353 888 353 1747 
Q 353 2609 779 3096 
Q 1206 3584 1959 3584 
z
" transform="scale(0.015625)"/>
      <path id="DejaVuSans-7a" d="M 353 3500 
L 3084 3500 
L 3084 2975 
L 922 459 
L 3084 459 
L 3084 0 
L 275 0 
L 275 525 
L 2438 3041 
L 353 3041 
L 353 3500 
z
" transform="scale(0.015625)"/>
      <path id="DejaVuSans-6e" d="M 3513 2113 
L 3513 0 
L 2938 0 
L 2938 2094 
Q 2938 2591 2744 2837 
Q 2550 3084 2163 3084 
Q 1697 3084 1428 2787 
Q 1159 2491 1159 1978 
L 1159 0 
L 581 0 
L 581 3500 
L 1159 3500 
L 1159 2956 
Q 1366 3272 1645 3428 
Q 1925 3584 2291 3584 
Q 2894 3584 3203 3211 
Q 3513 2838 3513 2113 
z
" transform="scale(0.015625)"/>
     </defs>
     <use xlink:href="#DejaVuSans-46"/>
     <use xlink:href="#DejaVuSans-44" x="57.519531"/>
     <use xlink:href="#DejaVuSans-41" x="132.771484"/>
     <use xlink:href="#DejaVuSans-4d" x="201.179688"/>
     <use xlink:href="#DejaVuSans-42" x="287.458984"/>
     <use xlink:href="#DejaVuSans-31" x="356.0625"/>
     <use xlink:href="#DejaVuSans-30" x="419.685547"/>
     <use xlink:href="#DejaVuSans-32" x="483.308594"/>
     <use xlink:href="#DejaVuSans-30" x="546.931641"/>
     <use xlink:href="#DejaVuSans-30" x="610.554688"/>
     <use xlink:href="#DejaVuSans-33" x="674.177734"/>
     <use xlink:href="#DejaVuSans-20" x="737.800781"/>
     <use xlink:href="#DejaVuSans-66" x="769.587891"/>
     <use xlink:href="#DejaVuSans-6d" x="804.792969"/>
     <use xlink:href="#DejaVuSans-5f" x="902.205078"/>
     <use xlink:href="#DejaVuSans-64" x="952.205078"/>
     <use xlink:href="#DejaVuSans-61" x="1015.681641"/>
     <use xlink:href="#DejaVuSans-70" x="1076.960938"/>
     <use xlink:href="#DejaVuSans-32" x="1140.4375"/>
     <use xlink:href="#DejaVuSans-35" x="1204.060547"/>
     <use xlink:href="#DejaVuSans-5f" x="1267.683594"/>
     <use xlink:href="#DejaVuSans-64" x="1317.683594"/>
     <use xlink:href="#DejaVuSans-61" x="1381.160156"/>
     <use xlink:href="#DejaVuSans-70" x="1442.439453"/>
     <use xlink:href="#DejaVuSans-61" x="1505.916016"/>
     <use xlink:href="#DejaVuSans-67" x="1567.195312"/>
     <use xlink:href="#DejaVuSans-6c" x="1630.671875"/>
     <use xlink:href="#DejaVuSans-69" x="1658.455078"/>
     <use xlink:href="#DejaVuSans-66" x="1686.238281"/>
     <use xlink:href="#DejaVuSans-6c" x="1721.443359"/>
     <use xlink:href="#DejaVuSans-6f" x="1749.226562"/>
     <use xlink:href="#DejaVuSans-7a" x="1810.408203"/>
     <use xlink:href="#DejaVuSans-69" x="1862.898438"/>
     <use xlink:href="#DejaVuSans-6e" x="1890.681641"/>
    </g>
   </g>
   <g id="legend_1">
    <g id="patch_7">
     <path d="M 200.586364 80.834375 
L 336.636364 80.834375 
Q 338.636364 80.834375 338.636364 78.834375 
L 338.636364 50.2 
Q 338.636364 48.2 336.636364 48.2 
L 200.586364 48.2 
Q 198.586364 48.2 198.586364 50.2 
L 198.586364 78.834375 
Q 198.586364 80.834375 200.586364 80.834375 
z
" style="fill: #ffffff; opacity: 0.8; stroke: #cccccc; stroke-linejoin: miter"/>
    </g>
    <g id="line2d_14">
     <path d="M 202.586364 56.298437 
L 212.586364 56.298437 
L 222.586364 56.298437 
" style="fill: none; stroke: #0000ff; stroke-width: 1.5; stroke-linecap: square"/>
    </g>
    <g id="text_15">
     <!-- observable -->
     <g transform="translate(230.586364 59.798437) scale(0.1 -0.1)">
      <defs>
       <path id="DejaVuSans-62" d="M 3116 1747 
Q 3116 2381 2855 2742 
Q 2594 3103 2138 3103 
Q 1681 3103 1420 2742 
Q 1159 2381 1159 1747 
Q 1159 1113 1420 752 
Q 1681 391 2138 391 
Q 2594 391 2855 752 
Q 3116 1113 3116 1747 
z
M 1159 2969 
Q 1341 3281 1617 3432 
Q 1894 3584 2278 3584 
Q 2916 3584 3314 3078 
Q 3713 2572 3713 1747 
Q 3713 922 3314 415 
Q 2916 -91 2278 -91 
Q 1894 -91 1617 61 
Q 1341 213 1159 525 
L 1159 0 
L 581 0 
L 581 4863 
L 1159 4863 
L 1159 2969 
z
" transform="scale(0.015625)"/>
       <path id="DejaVuSans-73" d="M 2834 3397 
L 2834 2853 
Q 2591 2978 2328 3040 
Q 2066 3103 1784 3103 
Q 1356 3103 1142 2972 
Q 928 2841 928 2578 
Q 928 2378 1081 2264 
Q 1234 2150 1697 2047 
L 1894 2003 
Q 2506 1872 2764 1633 
Q 3022 1394 3022 966 
Q 3022 478 2636 193 
Q 2250 -91 1575 -91 
Q 1294 -91 989 -36 
Q 684 19 347 128 
L 347 722 
Q 666 556 975 473 
Q 1284 391 1588 391 
Q 1994 391 2212 530 
Q 2431 669 2431 922 
Q 2431 1156 2273 1281 
Q 2116 1406 1581 1522 
L 1381 1569 
Q 847 1681 609 1914 
Q 372 2147 372 2553 
Q 372 3047 722 3315 
Q 1072 3584 1716 3584 
Q 2034 3584 2315 3537 
Q 2597 3491 2834 3397 
z
" transform="scale(0.015625)"/>
       <path id="DejaVuSans-72" d="M 2631 2963 
Q 2534 3019 2420 3045 
Q 2306 3072 2169 3072 
Q 1681 3072 1420 2755 
Q 1159 2438 1159 1844 
L 1159 0 
L 581 0 
L 581 3500 
L 1159 3500 
L 1159 2956 
Q 1341 3275 1631 3429 
Q 1922 3584 2338 3584 
Q 2397 3584 2469 3576 
Q 2541 3569 2628 3553 
L 2631 2963 
z
" transform="scale(0.015625)"/>
      </defs>
      <use xlink:href="#DejaVuSans-6f"/>
      <use xlink:href="#DejaVuSans-62" x="61.181641"/>
      <use xlink:href="#DejaVuSans-73" x="124.658203"/>
      <use xlink:href="#DejaVuSans-65" x="176.757812"/>
      <use xlink:href="#DejaVuSans-72" x="238.28125"/>
      <use xlink:href="#DejaVuSans-76" x="279.394531"/>
      <use xlink:href="#DejaVuSans-61" x="338.574219"/>
      <use xlink:href="#DejaVuSans-62" x="399.853516"/>
      <use xlink:href="#DejaVuSans-6c" x="463.330078"/>
      <use xlink:href="#DejaVuSans-65" x="491.113281"/>
     </g>
    </g>
    <g id="LineCollection_2">
     <path d="M 212.586364 75.976562 
L 212.586364 65.976562 
" style="fill: none; stroke: #000000; stroke-width: 1.5"/>
    </g>
    <g id="line2d_15">
     <path d="M 202.586364 70.976562 
L 222.586364 70.976562 
" style="fill: none; stroke: #000000; stroke-width: 1.5; stroke-linecap: square"/>
    </g>
    <g id="line2d_16">
     <g>
      <use xlink:href="#m806fb5c810" x="212.586364" y="70.976562" style="stroke: #000000; stroke-linejoin: miter"/>
     </g>
    </g>
    <g id="text_16">
     <!-- reference_data ± SD -->
     <g transform="translate(230.586364 74.476562) scale(0.1 -0.1)">
      <defs>
       <path id="DejaVuSans-63" d="M 3122 3366 
L 3122 2828 
Q 2878 2963 2633 3030 
Q 2388 3097 2138 3097 
Q 1578 3097 1268 2742 
Q 959 2388 959 1747 
Q 959 1106 1268 751 
Q 1578 397 2138 397 
Q 2388 397 2633 464 
Q 2878 531 3122 666 
L 3122 134 
Q 2881 22 2623 -34 
Q 2366 -91 2075 -91 
Q 1284 -91 818 406 
Q 353 903 353 1747 
Q 353 2603 823 3093 
Q 1294 3584 2113 3584 
Q 2378 3584 2631 3529 
Q 2884 3475 3122 3366 
z
" transform="scale(0.015625)"/>
       <path id="DejaVuSans-b1" d="M 2944 4013 
L 2944 2803 
L 4684 2803 
L 4684 2272 
L 2944 2272 
L 2944 1063 
L 2419 1063 
L 2419 2272 
L 678 2272 
L 678 2803 
L 2419 2803 
L 2419 4013 
L 2944 4013 
z
M 678 531 
L 4684 531 
L 4684 0 
L 678 0 
L 678 531 
z
" transform="scale(0.015625)"/>
       <path id="DejaVuSans-53" d="M 3425 4513 
L 3425 3897 
Q 3066 4069 2747 4153 
Q 2428 4238 2131 4238 
Q 1616 4238 1336 4038 
Q 1056 3838 1056 3469 
Q 1056 3159 1242 3001 
Q 1428 2844 1947 2747 
L 2328 2669 
Q 3034 2534 3370 2195 
Q 3706 1856 3706 1288 
Q 3706 609 3251 259 
Q 2797 -91 1919 -91 
Q 1588 -91 1214 -16 
Q 841 59 441 206 
L 441 856 
Q 825 641 1194 531 
Q 1563 422 1919 422 
Q 2459 422 2753 634 
Q 3047 847 3047 1241 
Q 3047 1584 2836 1778 
Q 2625 1972 2144 2069 
L 1759 2144 
Q 1053 2284 737 2584 
Q 422 2884 422 3419 
Q 422 4038 858 4394 
Q 1294 4750 2059 4750 
Q 2388 4750 2728 4690 
Q 3069 4631 3425 4513 
z
" transform="scale(0.015625)"/>
      </defs>
      <use xlink:href="#DejaVuSans-72"/>
      <use xlink:href="#DejaVuSans-65" x="38.863281"/>
      <use xlink:href="#DejaVuSans-66" x="100.386719"/>
      <use xlink:href="#DejaVuSans-65" x="135.591797"/>
      <use xlink:href="#DejaVuSans-72" x="197.115234"/>
      <use xlink:href="#DejaVuSans-65" x="235.978516"/>
      <use xlink:href="#DejaVuSans-6e" x="297.501953"/>
      <use xlink:href="#DejaVuSans-63" x="360.880859"/>
      <use xlink:href="#DejaVuSans-65" x="415.861328"/>
      <use xlink:href="#DejaVuSans-5f" x="477.384766"/>
      <use xlink:href="#DejaVuSans-64" x="527.384766"/>
      <use xlink:href="#DejaVuSans-61" x="590.861328"/>
      <use xlink:href="#DejaVuSans-74" x="652.140625"/>
      <use xlink:href="#DejaVuSans-61" x="691.349609"/>
      <use xlink:href="#DejaVuSans-20" x="752.628906"/>
      <use xlink:href="#DejaVuSans-b1" x="784.416016"/>
      <use xlink:href="#DejaVuSans-20" x="868.205078"/>
      <use xlink:href="#DejaVuSans-53" x="899.992188"/>
      <use xlink:href="#DejaVuSans-44" x="963.46875"/>
     </g>
    </g>
   </g>
  </g>
  <g id="axes_2">
   <g id="patch_8">
    <path d="M 394.363636 320.4 
L 648 320.4 
L 648 43.2 
L 394.363636 43.2 
z
" style="fill: #ffffff"/>
   </g>
   <g id="matplotlib.axis_3">
    <g id="xtick_6">
     <g id="line2d_17">
      <g>
       <use xlink:href="#m97cc0fca18" x="415.185002" y="320.4" style="stroke: #000000; stroke-width: 0.8"/>
      </g>
     </g>
     <g id="text_17">
      <!-- 0 -->
      <g transform="translate(412.003752 334.998438) scale(0.1 -0.1)">
       <use xlink:href="#DejaVuSans-30"/>
      </g>
     </g>
    </g>
    <g id="xtick_7">
     <g id="line2d_18">
      <g>
       <use xlink:href="#m97cc0fca18" x="467.684663" y="320.4" style="stroke: #000000; stroke-width: 0.8"/>
      </g>
     </g>
     <g id="text_18">
      <!-- 5000 -->
      <g transform="translate(454.959663 334.998438) scale(0.1 -0.1)">
       <use xlink:href="#DejaVuSans-35"/>
       <use xlink:href="#DejaVuSans-30" x="63.623047"/>
       <use xlink:href="#DejaVuSans-30" x="127.246094"/>
       <use xlink:href="#DejaVuSans-30" x="190.869141"/>
      </g>
     </g>
    </g>
    <g id="xtick_8">
     <g id="line2d_19">
      <g>
       <use xlink:href="#m97cc0fca18" x="520.184325" y="320.4" style="stroke: #000000; stroke-width: 0.8"/>
      </g>
     </g>
     <g id="text_19">
      <!-- 10000 -->
      <g transform="translate(504.278075 334.998438) scale(0.1 -0.1)">
       <use xlink:href="#DejaVuSans-31"/>
       <use xlink:href="#DejaVuSans-30" x="63.623047"/>
       <use xlink:href="#DejaVuSans-30" x="127.246094"/>
       <use xlink:href="#DejaVuSans-30" x="190.869141"/>
       <use xlink:href="#DejaVuSans-30" x="254.492188"/>
      </g>
     </g>
    </g>
    <g id="xtick_9">
     <g id="line2d_20">
      <g>
       <use xlink:href="#m97cc0fca18" x="572.683986" y="320.4" style="stroke: #000000; stroke-width: 0.8"/>
      </g>
     </g>
     <g id="text_20">
      <!-- 15000 -->
      <g transform="translate(556.777736 334.998438) scale(0.1 -0.1)">
       <use xlink:href="#DejaVuSans-31"/>
       <use xlink:href="#DejaVuSans-35" x="63.623047"/>
       <use xlink:href="#DejaVuSans-30" x="127.246094"/>
       <use xlink:href="#DejaVuSans-30" x="190.869141"/>
       <use xlink:href="#DejaVuSans-30" x="254.492188"/>
      </g>
     </g>
    </g>
    <g id="xtick_10">
     <g id="line2d_21">
      <g>
       <use xlink:href="#m97cc0fca18" x="625.183647" y="320.4" style="stroke: #000000; stroke-width: 0.8"/>
      </g>
     </g>
     <g id="text_21">
      <!-- 20000 -->
      <g transform="translate(609.277397 334.998438) scale(0.1 -0.1)">
       <use xlink:href="#DejaVuSans-32"/>
       <use xlink:href="#DejaVuSans-30" x="63.623047"/>
       <use xlink:href="#DejaVuSans-30" x="127.246094"/>
       <use xlink:href="#DejaVuSans-30" x="190.869141"/>
       <use xlink:href="#DejaVuSans-30" x="254.492188"/>
      </g>
     </g>
    </g>
    <g id="text_22">
     <!-- time -->
     <g transform="translate(507.626506 350.19625) scale(0.12 -0.12)">
      <use xlink:href="#DejaVuSans-74"/>
      <use xlink:href="#DejaVuSans-69" x="39.208984"/>
      <use xlink:href="#DejaVuSans-6d" x="66.992188"/>
      <use xlink:href="#DejaVuSans-65" x="164.404297"/>
     </g>
    </g>
   </g>
   <g id="matplotlib.axis_4">
    <g id="ytick_7">
     <g id="line2d_22">
      <g>
       <use xlink:href="#m2fe754b662" x="394.363636" y="312.678921" style="stroke: #000000; stroke-width: 0.8"/>
      </g>
     </g>
     <g id="text_23">
      <!-- $\mathdefault{10^{-5}}$ -->
      <g transform="translate(363.863636 316.47814) scale(0.1 -0.1)">
       <defs>
        <path id="DejaVuSans-2212" d="M 678 2272 
L 4684 2272 
L 4684 1741 
L 678 1741 
L 678 2272 
z
" transform="scale(0.015625)"/>
       </defs>
       <use xlink:href="#DejaVuSans-31" transform="translate(0 0.684375)"/>
       <use xlink:href="#DejaVuSans-30" transform="translate(63.623047 0.684375)"/>
       <use xlink:href="#DejaVuSans-2212" transform="translate(128.203125 38.965625) scale(0.7)"/>
       <use xlink:href="#DejaVuSans-35" transform="translate(186.855469 38.965625) scale(0.7)"/>
      </g>
     </g>
    </g>
    <g id="ytick_8">
     <g id="line2d_23">
      <g>
       <use xlink:href="#m2fe754b662" x="394.363636" y="249.385918" style="stroke: #000000; stroke-width: 0.8"/>
      </g>
     </g>
     <g id="text_24">
      <!-- $\mathdefault{10^{-4}}$ -->
      <g transform="translate(363.863636 253.185137) scale(0.1 -0.1)">
       <use xlink:href="#DejaVuSans-31" transform="translate(0 0.684375)"/>
       <use xlink:href="#DejaVuSans-30" transform="translate(63.623047 0.684375)"/>
       <use xlink:href="#DejaVuSans-2212" transform="translate(128.203125 38.965625) scale(0.7)"/>
       <use xlink:href="#DejaVuSans-34" transform="translate(186.855469 38.965625) scale(0.7)"/>
      </g>
     </g>
    </g>
    <g id="ytick_9">
     <g id="line2d_24">
      <g>
       <use xlink:href="#m2fe754b662" x="394.363636" y="186.092915" style="stroke: #000000; stroke-width: 0.8"/>
      </g>
     </g>
     <g id="text_25">
      <!-- $\mathdefault{10^{-3}}$ -->
      <g transform="translate(363.863636 189.892134) scale(0.1 -0.1)">
       <use xlink:href="#DejaVuSans-31" transform="translate(0 0.765625)"/>
       <use xlink:href="#DejaVuSans-30" transform="translate(63.623047 0.765625)"/>
       <use xlink:href="#DejaVuSans-2212" transform="translate(128.203125 39.046875) scale(0.7)"/>
       <use xlink:href="#DejaVuSans-33" transform="translate(186.855469 39.046875) scale(0.7)"/>
      </g>
     </g>
    </g>
    <g id="ytick_10">
     <g id="line2d_25">
      <g>
       <use xlink:href="#m2fe754b662" x="394.363636" y="122.799913" style="stroke: #000000; stroke-width: 0.8"/>
      </g>
     </g>
     <g id="text_26">
      <!-- $\mathdefault{10^{-2}}$ -->
      <g transform="translate(363.863636 126.599132) scale(0.1 -0.1)">
       <use xlink:href="#DejaVuSans-31" transform="translate(0 0.765625)"/>
       <use xlink:href="#DejaVuSans-30" transform="translate(63.623047 0.765625)"/>
       <use xlink:href="#DejaVuSans-2212" transform="translate(128.203125 39.046875) scale(0.7)"/>
       <use xlink:href="#DejaVuSans-32" transform="translate(186.855469 39.046875) scale(0.7)"/>
      </g>
     </g>
    </g>
    <g id="ytick_11">
     <g id="line2d_26">
      <g>
       <use xlink:href="#m2fe754b662" x="394.363636" y="59.50691" style="stroke: #000000; stroke-width: 0.8"/>
      </g>
     </g>
     <g id="text_27">
      <!-- $\mathdefault{10^{-1}}$ -->
      <g transform="translate(363.863636 63.306129) scale(0.1 -0.1)">
       <use xlink:href="#DejaVuSans-31" transform="translate(0 0.684375)"/>
       <use xlink:href="#DejaVuSans-30" transform="translate(63.623047 0.684375)"/>
       <use xlink:href="#DejaVuSans-2212" transform="translate(128.203125 38.965625) scale(0.7)"/>
       <use xlink:href="#DejaVuSans-31" transform="translate(186.855469 38.965625) scale(0.7)"/>
      </g>
     </g>
    </g>
    <g id="ytick_12">
     <g id="line2d_27">
      <defs>
       <path id="mffcde6849a" d="M 0 0 
L -2 0 
" style="stroke: #000000; stroke-width: 0.6"/>
      </defs>
      <g>
       <use xlink:href="#mffcde6849a" x="394.363636" y="318.812647" style="stroke: #000000; stroke-width: 0.6"/>
      </g>
     </g>
    </g>
    <g id="ytick_13">
     <g id="line2d_28">
      <g>
       <use xlink:href="#mffcde6849a" x="394.363636" y="315.57505" style="stroke: #000000; stroke-width: 0.6"/>
      </g>
     </g>
    </g>
    <g id="ytick_14">
     <g id="line2d_29">
      <g>
       <use xlink:href="#mffcde6849a" x="394.363636" y="293.625828" style="stroke: #000000; stroke-width: 0.6"/>
      </g>
     </g>
    </g>
    <g id="ytick_15">
     <g id="line2d_30">
      <g>
       <use xlink:href="#mffcde6849a" x="394.363636" y="282.480484" style="stroke: #000000; stroke-width: 0.6"/>
      </g>
     </g>
    </g>
    <g id="ytick_16">
     <g id="line2d_31">
      <g>
       <use xlink:href="#mffcde6849a" x="394.363636" y="274.572736" style="stroke: #000000; stroke-width: 0.6"/>
      </g>
     </g>
    </g>
    <g id="ytick_17">
     <g id="line2d_32">
      <g>
       <use xlink:href="#mffcde6849a" x="394.363636" y="268.43901" style="stroke: #000000; stroke-width: 0.6"/>
      </g>
     </g>
    </g>
    <g id="ytick_18">
     <g id="line2d_33">
      <g>
       <use xlink:href="#mffcde6849a" x="394.363636" y="263.427392" style="stroke: #000000; stroke-width: 0.6"/>
      </g>
     </g>
    </g>
    <g id="ytick_19">
     <g id="line2d_34">
      <g>
       <use xlink:href="#mffcde6849a" x="394.363636" y="259.190128" style="stroke: #000000; stroke-width: 0.6"/>
      </g>
     </g>
    </g>
    <g id="ytick_20">
     <g id="line2d_35">
      <g>
       <use xlink:href="#mffcde6849a" x="394.363636" y="255.519644" style="stroke: #000000; stroke-width: 0.6"/>
      </g>
     </g>
    </g>
    <g id="ytick_21">
     <g id="line2d_36">
      <g>
       <use xlink:href="#mffcde6849a" x="394.363636" y="252.282047" style="stroke: #000000; stroke-width: 0.6"/>
      </g>
     </g>
    </g>
    <g id="ytick_22">
     <g id="line2d_37">
      <g>
       <use xlink:href="#mffcde6849a" x="394.363636" y="230.332826" style="stroke: #000000; stroke-width: 0.6"/>
      </g>
     </g>
    </g>
    <g id="ytick_23">
     <g id="line2d_38">
      <g>
       <use xlink:href="#mffcde6849a" x="394.363636" y="219.187481" style="stroke: #000000; stroke-width: 0.6"/>
      </g>
     </g>
    </g>
    <g id="ytick_24">
     <g id="line2d_39">
      <g>
       <use xlink:href="#mffcde6849a" x="394.363636" y="211.279734" style="stroke: #000000; stroke-width: 0.6"/>
      </g>
     </g>
    </g>
    <g id="ytick_25">
     <g id="line2d_40">
      <g>
       <use xlink:href="#mffcde6849a" x="394.363636" y="205.146008" style="stroke: #000000; stroke-width: 0.6"/>
      </g>
     </g>
    </g>
    <g id="ytick_26">
     <g id="line2d_41">
      <g>
       <use xlink:href="#mffcde6849a" x="394.363636" y="200.134389" style="stroke: #000000; stroke-width: 0.6"/>
      </g>
     </g>
    </g>
    <g id="ytick_27">
     <g id="line2d_42">
      <g>
       <use xlink:href="#mffcde6849a" x="394.363636" y="195.897126" style="stroke: #000000; stroke-width: 0.6"/>
      </g>
     </g>
    </g>
    <g id="ytick_28">
     <g id="line2d_43">
      <g>
       <use xlink:href="#mffcde6849a" x="394.363636" y="192.226641" style="stroke: #000000; stroke-width: 0.6"/>
      </g>
     </g>
    </g>
    <g id="ytick_29">
     <g id="line2d_44">
      <g>
       <use xlink:href="#mffcde6849a" x="394.363636" y="188.989044" style="stroke: #000000; stroke-width: 0.6"/>
      </g>
     </g>
    </g>
    <g id="ytick_30">
     <g id="line2d_45">
      <g>
       <use xlink:href="#mffcde6849a" x="394.363636" y="167.039823" style="stroke: #000000; stroke-width: 0.6"/>
      </g>
     </g>
    </g>
    <g id="ytick_31">
     <g id="line2d_46">
      <g>
       <use xlink:href="#mffcde6849a" x="394.363636" y="155.894479" style="stroke: #000000; stroke-width: 0.6"/>
      </g>
     </g>
    </g>
    <g id="ytick_32">
     <g id="line2d_47">
      <g>
       <use xlink:href="#mffcde6849a" x="394.363636" y="147.986731" style="stroke: #000000; stroke-width: 0.6"/>
      </g>
     </g>
    </g>
    <g id="ytick_33">
     <g id="line2d_48">
      <g>
       <use xlink:href="#mffcde6849a" x="394.363636" y="141.853005" style="stroke: #000000; stroke-width: 0.6"/>
      </g>
     </g>
    </g>
    <g id="ytick_34">
     <g id="line2d_49">
      <g>
       <use xlink:href="#mffcde6849a" x="394.363636" y="136.841386" style="stroke: #000000; stroke-width: 0.6"/>
      </g>
     </g>
    </g>
    <g id="ytick_35">
     <g id="line2d_50">
      <g>
       <use xlink:href="#mffcde6849a" x="394.363636" y="132.604123" style="stroke: #000000; stroke-width: 0.6"/>
      </g>
     </g>
    </g>
    <g id="ytick_36">
     <g id="line2d_51">
      <g>
       <use xlink:href="#mffcde6849a" x="394.363636" y="128.933639" style="stroke: #000000; stroke-width: 0.6"/>
      </g>
     </g>
    </g>
    <g id="ytick_37">
     <g id="line2d_52">
      <g>
       <use xlink:href="#mffcde6849a" x="394.363636" y="125.696042" style="stroke: #000000; stroke-width: 0.6"/>
      </g>
     </g>
    </g>
    <g id="ytick_38">
     <g id="line2d_53">
      <g>
       <use xlink:href="#mffcde6849a" x="394.363636" y="103.746821" style="stroke: #000000; stroke-width: 0.6"/>
      </g>
     </g>
    </g>
    <g id="ytick_39">
     <g id="line2d_54">
      <g>
       <use xlink:href="#mffcde6849a" x="394.363636" y="92.601476" style="stroke: #000000; stroke-width: 0.6"/>
      </g>
     </g>
    </g>
    <g id="ytick_40">
     <g id="line2d_55">
      <g>
       <use xlink:href="#mffcde6849a" x="394.363636" y="84.693728" style="stroke: #000000; stroke-width: 0.6"/>
      </g>
     </g>
    </g>
    <g id="ytick_41">
     <g id="line2d_56">
      <g>
       <use xlink:href="#mffcde6849a" x="394.363636" y="78.560002" style="stroke: #000000; stroke-width: 0.6"/>
      </g>
     </g>
    </g>
    <g id="ytick_42">
     <g id="line2d_57">
      <g>
       <use xlink:href="#mffcde6849a" x="394.363636" y="73.548384" style="stroke: #000000; stroke-width: 0.6"/>
      </g>
     </g>
    </g>
    <g id="ytick_43">
     <g id="line2d_58">
      <g>
       <use xlink:href="#mffcde6849a" x="394.363636" y="69.31112" style="stroke: #000000; stroke-width: 0.6"/>
      </g>
     </g>
    </g>
    <g id="ytick_44">
     <g id="line2d_59">
      <g>
       <use xlink:href="#mffcde6849a" x="394.363636" y="65.640636" style="stroke: #000000; stroke-width: 0.6"/>
      </g>
     </g>
    </g>
    <g id="ytick_45">
     <g id="line2d_60">
      <g>
       <use xlink:href="#mffcde6849a" x="394.363636" y="62.403039" style="stroke: #000000; stroke-width: 0.6"/>
      </g>
     </g>
    </g>
    <g id="text_28">
     <!-- [Cve_dap] -->
     <g transform="translate(357.034261 212.209687) rotate(-90) scale(0.12 -0.12)">
      <use xlink:href="#DejaVuSans-5b"/>
      <use xlink:href="#DejaVuSans-43" x="39.013672"/>
      <use xlink:href="#DejaVuSans-76" x="108.837891"/>
      <use xlink:href="#DejaVuSans-65" x="168.017578"/>
      <use xlink:href="#DejaVuSans-5f" x="229.541016"/>
      <use xlink:href="#DejaVuSans-64" x="279.541016"/>
      <use xlink:href="#DejaVuSans-61" x="343.017578"/>
      <use xlink:href="#DejaVuSans-70" x="404.296875"/>
      <use xlink:href="#DejaVuSans-5d" x="467.773438"/>
     </g>
    </g>
   </g>
   <g id="LineCollection_3">
    <path d="M 415.5 294.737701 
L 415.5 214.648226 
" clip-path="url(#p64571a347b)" style="fill: none; stroke: #000000; stroke-width: 1.5"/>
    <path d="M 415.814998 206.868547 
L 415.814998 189.827441 
" clip-path="url(#p64571a347b)" style="fill: none; stroke: #000000; stroke-width: 1.5"/>
    <path d="M 416.444994 211.922009 
L 416.444994 199.755755 
" clip-path="url(#p64571a347b)" style="fill: none; stroke: #000000; stroke-width: 1.5"/>
    <path d="M 417.704986 239.769004 
L 417.704986 221.417531 
" clip-path="url(#p64571a347b)" style="fill: none; stroke: #000000; stroke-width: 1.5"/>
    <path d="M 418.964978 253.80348 
L 418.964978 232.699706 
" clip-path="url(#p64571a347b)" style="fill: none; stroke: #000000; stroke-width: 1.5"/>
    <path d="M 420.22497 262.3325 
L 420.22497 242.628021 
" clip-path="url(#p64571a347b)" style="fill: none; stroke: #000000; stroke-width: 1.5"/>
    <path d="M 422.744953 279.978127 
L 422.744953 258.874353 
" clip-path="url(#p64571a347b)" style="fill: none; stroke: #000000; stroke-width: 1.5"/>
    <path d="M 426.524929 296.630312 
L 426.524929 276.925833 
" clip-path="url(#p64571a347b)" style="fill: none; stroke: #000000; stroke-width: 1.5"/>
    <path d="M 430.304904 309.735661 
L 430.304904 275.120685 
" clip-path="url(#p64571a347b)" style="fill: none; stroke: #000000; stroke-width: 1.5"/>
    <path d="M 611.743734 290.816027 
L 611.743734 265.192371 
" clip-path="url(#p64571a347b)" style="fill: none; stroke: #000000; stroke-width: 1.5"/>
    <path d="M 612.058732 258.574062 
L 612.058732 208.781495 
" clip-path="url(#p64571a347b)" style="fill: none; stroke: #000000; stroke-width: 1.5"/>
    <path d="M 612.37373 217.042396 
L 612.37373 184.411997 
" clip-path="url(#p64571a347b)" style="fill: none; stroke: #000000; stroke-width: 1.5"/>
    <path d="M 613.003726 209.207879 
L 613.003726 193.437737 
" clip-path="url(#p64571a347b)" style="fill: none; stroke: #000000; stroke-width: 1.5"/>
    <path d="M 614.263718 228.732632 
L 614.263718 214.196939 
" clip-path="url(#p64571a347b)" style="fill: none; stroke: #000000; stroke-width: 1.5"/>
    <path d="M 615.52371 240.466094 
L 615.52371 225.930401 
" clip-path="url(#p64571a347b)" style="fill: none; stroke: #000000; stroke-width: 1.5"/>
    <path d="M 616.783701 249.193887 
L 616.783701 235.858715 
" clip-path="url(#p64571a347b)" style="fill: none; stroke: #000000; stroke-width: 1.5"/>
    <path d="M 619.303685 265.942796 
L 619.303685 246.238317 
" clip-path="url(#p64571a347b)" style="fill: none; stroke: #000000; stroke-width: 1.5"/>
    <path d="M 623.083661 285.678761 
L 623.083661 258.423066 
" clip-path="url(#p64571a347b)" style="fill: none; stroke: #000000; stroke-width: 1.5"/>
    <path d="M 626.863636 293.489328 
L 626.863636 258.874353 
" clip-path="url(#p64571a347b)" style="fill: none; stroke: #000000; stroke-width: 1.5"/>
   </g>
   <g id="line2d_61">
    <path d="M 415.197598 361 
L 415.327909 223.877816 
L 415.534922 199.15498 
L 415.715473 195.636689 
L 415.743613 195.602007 
L 415.771754 195.652603 
L 415.884316 196.495497 
L 416.165858 200.993091 
L 417.01191 219.51751 
L 419.821108 281.932441 
L 420.705518 296.081574 
L 421.393392 303.791238 
L 421.982998 308.250355 
L 422.572604 311.154234 
L 423.16804 312.981147 
L 423.713465 314.020785 
L 424.328463 314.748272 
L 425.031317 315.247845 
L 426.045937 315.66216 
L 427.777638 316.069625 
L 430.305836 316.531127 
L 430.307892 316.448495 
L 430.323816 304.511353 
L 430.502849 211.919956 
L 430.703099 197.097021 
L 430.854731 195.268331 
L 430.876393 195.280507 
L 430.953674 195.66948 
L 431.157421 198.3013 
L 431.702722 209.216204 
L 434.541903 268.978679 
L 435.304285 280.100863 
L 435.981958 287.060795 
L 436.574921 291.122261 
L 437.167885 293.738717 
L 437.760849 295.36187 
L 438.353812 296.354226 
L 439.031485 297.032775 
L 439.793867 297.480559 
L 440.895085 297.856369 
L 443.012813 298.297676 
L 445.426053 298.719999 
L 445.428421 298.640962 
L 445.44625 289.710039 
L 445.642464 208.640608 
L 445.857926 195.978289 
L 445.968344 194.972548 
L 446.019827 195.043828 
L 446.148535 196.117111 
L 446.470629 201.461222 
L 447.589094 225.40986 
L 449.030906 254.69659 
L 449.932038 268.667616 
L 450.652943 276.436546 
L 451.283736 280.917512 
L 451.824415 283.419444 
L 452.365094 285.046975 
L 452.995887 286.22134 
L 453.626679 286.922163 
L 454.347585 287.40162 
L 455.33883 287.786669 
L 457.141095 288.199652 
L 460.546062 288.795394 
L 460.54836 288.739057 
L 460.56662 281.914017 
L 460.786482 205.46321 
L 460.999727 195.337949 
L 461.08863 194.69978 
L 461.142944 194.783522 
L 461.278729 195.957838 
L 461.622203 201.730663 
L 464.701515 260.686438 
L 465.385983 268.48503 
L 465.972669 273.092535 
L 466.559356 276.145488 
L 467.146043 278.078071 
L 467.73273 279.272812 
L 468.319417 280.01044 
L 469.003885 280.535638 
L 469.981696 280.967418 
L 471.546195 281.360998 
L 475.666027 282.101413 
L 475.667618 282.07881 
L 475.681957 278.820608 
L 475.952439 201.221586 
L 476.155435 194.693184 
L 476.230338 194.453163 
L 476.258802 194.521809 
L 476.401119 195.731684 
L 476.743603 201.44399 
L 479.599266 255.284176 
L 480.319686 263.52777 
L 480.937189 268.315509 
L 481.554691 271.41662 
L 482.172194 273.32926 
L 482.789696 274.481656 
L 483.407199 275.177878 
L 484.127619 275.666661 
L 485.15679 276.069479 
L 486.90638 276.471698 
L 490.78609 277.150313 
L 490.788602 277.09825 
L 490.808995 271.203372 
L 491.04543 203.00428 
L 491.253095 194.686301 
L 491.333913 194.227184 
L 491.385419 194.325632 
L 491.541927 195.762604 
L 491.917545 202.201263 
L 494.422985 249.361037 
L 495.15753 258.339579 
L 495.818621 263.843059 
L 496.406258 267.034149 
L 496.993894 269.065343 
L 497.58153 270.324391 
L 498.169167 271.101584 
L 498.903712 271.682843 
L 499.858622 272.110795 
L 501.327713 272.489798 
L 505.294259 273.196452 
L 505.906221 273.305281 
L 505.909868 273.19601 
L 505.936341 264.379914 
L 506.152205 203.899289 
L 506.35743 194.681874 
L 506.471691 194.032021 
L 506.494544 194.083878 
L 506.599376 194.824418 
L 506.889578 199.16811 
L 507.96522 220.628652 
L 509.134734 241.917239 
L 509.970102 253.223726 
L 510.638396 259.437228 
L 511.223153 263.058336 
L 511.80791 265.400758 
L 512.392667 266.866178 
L 512.977424 267.772458 
L 513.645718 268.40114 
L 514.481086 268.858881 
L 515.734137 269.247757 
L 518.323776 269.75075 
L 521.026154 270.217026 
L 521.029559 270.130669 
L 521.053413 263.460889 
L 521.283732 202.605406 
L 521.489404 194.338264 
L 521.576112 193.843648 
L 521.619466 193.919375 
L 521.743891 194.901835 
L 522.086386 200.352965 
L 524.673648 246.829914 
L 525.372769 254.496777 
L 525.99421 259.118608 
L 526.615651 262.097995 
L 527.159412 263.747515 
L 527.780853 264.921321 
L 528.402295 265.629195 
L 529.179096 266.151491 
L 530.188938 266.539335 
L 531.975581 266.946342 
L 536.146099 267.67086 
L 536.14826 267.636848 
L 536.167725 263.698163 
L 536.438804 199.799181 
L 536.646481 193.836018 
L 536.71125 193.685215 
L 536.75443 193.818505 
L 536.924514 195.485331 
L 537.366731 203.193538 
L 539.313801 239.119406 
L 540.071754 248.983582 
L 540.745491 255.069032 
L 541.33501 258.59232 
L 541.92453 260.858827 
L 542.514049 262.270469 
L 543.103568 263.141038 
L 543.777305 263.744635 
L 544.619475 264.185713 
L 545.882731 264.564991 
L 548.577677 265.081043 
L 551.266048 265.536041 
L 551.269225 265.469448 
L 551.293672 259.550384 
L 551.543152 200.656793 
L 551.750725 193.800267 
L 551.827922 193.532302 
L 551.853655 193.584936 
L 551.982317 194.560083 
L 552.306478 199.596242 
L 554.801411 243.39273 
L 555.52068 251.051318 
L 556.093417 255.203702 
L 556.63079 257.83603 
L 557.216656 259.693866 
L 557.818503 260.871472 
L 558.420349 261.592716 
L 559.122504 262.10336 
L 560.125581 262.523391 
L 561.730505 262.912661 
L 566.385924 263.733728 
L 566.387218 263.721228 
L 566.403537 261.454025 
L 566.737749 196.50527 
L 566.916938 193.419694 
L 566.940315 193.393679 
L 566.98707 193.500006 
L 567.105898 194.46102 
L 567.430229 199.498099 
L 569.845896 241.645332 
L 570.512784 248.890199 
L 571.179673 253.795323 
L 571.763201 256.553457 
L 572.346728 258.302451 
L 572.930256 259.389301 
L 573.597145 260.139486 
L 574.347395 260.634001 
L 575.347728 261.016541 
L 577.181672 261.432362 
L 581.505869 262.179704 
L 581.508538 262.137127 
L 581.53035 257.934939 
L 581.809779 198.618847 
L 582.004548 193.436181 
L 582.072965 193.27994 
L 582.103592 193.362537 
L 582.256731 194.697526 
L 582.640228 200.997472 
L 584.665859 236.978757 
L 585.445716 246.2694 
L 586.083781 251.42679 
L 586.65095 254.470322 
L 587.218119 256.446127 
L 587.785288 257.696076 
L 588.423353 258.557625 
L 589.132314 259.123766 
L 590.053963 259.547766 
L 591.471886 259.924508 
L 595.05417 260.571007 
L 596.625928 260.837546 
L 596.629675 260.75357 
L 596.655332 255.002143 
L 596.901939 200.242891 
L 597.102265 193.499901 
L 597.189595 193.164483 
L 597.220064 193.23751 
L 597.341942 194.175837 
L 597.677104 199.33312 
L 599.981479 239.041553 
L 600.686672 246.636295 
L 601.321346 251.251847 
L 601.8855 253.939293 
L 602.449655 255.672568 
L 603.013809 256.76815 
L 603.648483 257.527094 
L 604.353676 258.032092 
L 605.340947 258.441856 
L 606.962891 258.83387 
L 611.745875 259.673983 
L 611.746705 259.667098 
L 611.76117 258.159521 
L 612.157675 194.373767 
L 612.303572 193.059173 
L 612.328178 193.098713 
L 612.451207 193.957686 
L 612.752732 198.423654 
L 615.182533 239.515331 
L 615.881548 246.585584 
L 616.493185 250.737478 
L 617.104822 253.411903 
L 617.71646 255.063554 
L 618.328097 256.066095 
L 619.027111 256.74595 
L 619.813502 257.191484 
L 620.9494 257.565322 
L 623.221196 258.026937 
L 627.493632 258.75469 
L 627.493632 258.75469 
" clip-path="url(#p64571a347b)" style="fill: none; stroke: #0000ff; stroke-width: 1.5; stroke-linecap: square"/>
   </g>
   <g id="line2d_62">
    <path d="M 415.5 232.248419 
L 415.814998 197.048033 
L 416.444994 205.171199 
L 417.704986 229.08941 
L 418.964978 241.27416 
L 420.22497 250.751187 
L 422.744953 267.448806 
L 426.524929 285.048999 
L 430.304904 287.305434 
L 611.743734 275.120685 
L 612.058732 223.673966 
L 612.37373 196.145459 
L 613.003726 200.207042 
L 614.263718 220.514957 
L 615.52371 232.248419 
L 616.783701 241.725447 
L 619.303685 254.361483 
L 623.083661 268.802667 
L 626.863636 271.059102 
" clip-path="url(#p64571a347b)" style="fill: none; stroke: #000000; stroke-width: 1.5; stroke-linecap: square"/>
    <g clip-path="url(#p64571a347b)">
     <use xlink:href="#m806fb5c810" x="415.5" y="232.248419" style="stroke: #000000; stroke-linejoin: miter"/>
     <use xlink:href="#m806fb5c810" x="415.814998" y="197.048033" style="stroke: #000000; stroke-linejoin: miter"/>
     <use xlink:href="#m806fb5c810" x="416.444994" y="205.171199" style="stroke: #000000; stroke-linejoin: miter"/>
     <use xlink:href="#m806fb5c810" x="417.704986" y="229.08941" style="stroke: #000000; stroke-linejoin: miter"/>
     <use xlink:href="#m806fb5c810" x="418.964978" y="241.27416" style="stroke: #000000; stroke-linejoin: miter"/>
     <use xlink:href="#m806fb5c810" x="420.22497" y="250.751187" style="stroke: #000000; stroke-linejoin: miter"/>
     <use xlink:href="#m806fb5c810" x="422.744953" y="267.448806" style="stroke: #000000; stroke-linejoin: miter"/>
     <use xlink:href="#m806fb5c810" x="426.524929" y="285.048999" style="stroke: #000000; stroke-linejoin: miter"/>
     <use xlink:href="#m806fb5c810" x="430.304904" y="287.305434" style="stroke: #000000; stroke-linejoin: miter"/>
     <use xlink:href="#m806fb5c810" x="611.743734" y="275.120685" style="stroke: #000000; stroke-linejoin: miter"/>
     <use xlink:href="#m806fb5c810" x="612.058732" y="223.673966" style="stroke: #000000; stroke-linejoin: miter"/>
     <use xlink:href="#m806fb5c810" x="612.37373" y="196.145459" style="stroke: #000000; stroke-linejoin: miter"/>
     <use xlink:href="#m806fb5c810" x="613.003726" y="200.207042" style="stroke: #000000; stroke-linejoin: miter"/>
     <use xlink:href="#m806fb5c810" x="614.263718" y="220.514957" style="stroke: #000000; stroke-linejoin: miter"/>
     <use xlink:href="#m806fb5c810" x="615.52371" y="232.248419" style="stroke: #000000; stroke-linejoin: miter"/>
     <use xlink:href="#m806fb5c810" x="616.783701" y="241.725447" style="stroke: #000000; stroke-linejoin: miter"/>
     <use xlink:href="#m806fb5c810" x="619.303685" y="254.361483" style="stroke: #000000; stroke-linejoin: miter"/>
     <use xlink:href="#m806fb5c810" x="623.083661" y="268.802667" style="stroke: #000000; stroke-linejoin: miter"/>
     <use xlink:href="#m806fb5c810" x="626.863636" y="271.059102" style="stroke: #000000; stroke-linejoin: miter"/>
    </g>
   </g>
   <g id="patch_9">
    <path d="M 394.363636 320.4 
L 394.363636 43.2 
" style="fill: none; stroke: #000000; stroke-width: 0.8; stroke-linejoin: miter; stroke-linecap: square"/>
   </g>
   <g id="patch_10">
    <path d="M 648 320.4 
L 648 43.2 
" style="fill: none; stroke: #000000; stroke-width: 0.8; stroke-linejoin: miter; stroke-linecap: square"/>
   </g>
   <g id="patch_11">
    <path d="M 394.363636 320.4 
L 648 320.4 
" style="fill: none; stroke: #000000; stroke-width: 0.8; stroke-linejoin: miter; stroke-linecap: square"/>
   </g>
   <g id="patch_12">
    <path d="M 394.363636 43.2 
L 648 43.2 
" style="fill: none; stroke: #000000; stroke-width: 0.8; stroke-linejoin: miter; stroke-linecap: square"/>
   </g>
   <g id="text_29">
    <!-- FDAMB102003 fm_dap25_dapagliflozin -->
    <g transform="translate(384.395256 37.2) scale(0.14 -0.14)">
     <use xlink:href="#DejaVuSans-46"/>
     <use xlink:href="#DejaVuSans-44" x="57.519531"/>
     <use xlink:href="#DejaVuSans-41" x="132.771484"/>
     <use xlink:href="#DejaVuSans-4d" x="201.179688"/>
     <use xlink:href="#DejaVuSans-42" x="287.458984"/>
     <use xlink:href="#DejaVuSans-31" x="356.0625"/>
     <use xlink:href="#DejaVuSans-30" x="419.685547"/>
     <use xlink:href="#DejaVuSans-32" x="483.308594"/>
     <use xlink:href="#DejaVuSans-30" x="546.931641"/>
     <use xlink:href="#DejaVuSans-30" x="610.554688"/>
     <use xlink:href="#DejaVuSans-33" x="674.177734"/>
     <use xlink:href="#DejaVuSans-20" x="737.800781"/>
     <use xlink:href="#DejaVuSans-66" x="769.587891"/>
     <use xlink:href="#DejaVuSans-6d" x="804.792969"/>
     <use xlink:href="#DejaVuSans-5f" x="902.205078"/>
     <use xlink:href="#DejaVuSans-64" x="952.205078"/>
     <use xlink:href="#DejaVuSans-61" x="1015.681641"/>
     <use xlink:href="#DejaVuSans-70" x="1076.960938"/>
     <use xlink:href="#DejaVuSans-32" x="1140.4375"/>
     <use xlink:href="#DejaVuSans-35" x="1204.060547"/>
     <use xlink:href="#DejaVuSans-5f" x="1267.683594"/>
     <use xlink:href="#DejaVuSans-64" x="1317.683594"/>
     <use xlink:href="#DejaVuSans-61" x="1381.160156"/>
     <use xlink:href="#DejaVuSans-70" x="1442.439453"/>
     <use xlink:href="#DejaVuSans-61" x="1505.916016"/>
     <use xlink:href="#DejaVuSans-67" x="1567.195312"/>
     <use xlink:href="#DejaVuSans-6c" x="1630.671875"/>
     <use xlink:href="#DejaVuSans-69" x="1658.455078"/>
     <use xlink:href="#DejaVuSans-66" x="1686.238281"/>
     <use xlink:href="#DejaVuSans-6c" x="1721.443359"/>
     <use xlink:href="#DejaVuSans-6f" x="1749.226562"/>
     <use xlink:href="#DejaVuSans-7a" x="1810.408203"/>
     <use xlink:href="#DejaVuSans-69" x="1862.898438"/>
     <use xlink:href="#DejaVuSans-6e" x="1890.681641"/>
    </g>
   </g>
   <g id="legend_2">
    <g id="patch_13">
     <path d="M 504.95 80.834375 
L 641 80.834375 
Q 643 80.834375 643 78.834375 
L 643 50.2 
Q 643 48.2 641 48.2 
L 504.95 48.2 
Q 502.95 48.2 502.95 50.2 
L 502.95 78.834375 
Q 502.95 80.834375 504.95 80.834375 
z
" style="fill: #ffffff; opacity: 0.8; stroke: #cccccc; stroke-linejoin: miter"/>
    </g>
    <g id="line2d_63">
     <path d="M 506.95 56.298437 
L 516.95 56.298437 
L 526.95 56.298437 
" style="fill: none; stroke: #0000ff; stroke-width: 1.5; stroke-linecap: square"/>
    </g>
    <g id="text_30">
     <!-- observable -->
     <g transform="translate(534.95 59.798437) scale(0.1 -0.1)">
      <use xlink:href="#DejaVuSans-6f"/>
      <use xlink:href="#DejaVuSans-62" x="61.181641"/>
      <use xlink:href="#DejaVuSans-73" x="124.658203"/>
      <use xlink:href="#DejaVuSans-65" x="176.757812"/>
      <use xlink:href="#DejaVuSans-72" x="238.28125"/>
      <use xlink:href="#DejaVuSans-76" x="279.394531"/>
      <use xlink:href="#DejaVuSans-61" x="338.574219"/>
      <use xlink:href="#DejaVuSans-62" x="399.853516"/>
      <use xlink:href="#DejaVuSans-6c" x="463.330078"/>
      <use xlink:href="#DejaVuSans-65" x="491.113281"/>
     </g>
    </g>
    <g id="LineCollection_4">
     <path d="M 516.95 75.976562 
L 516.95 65.976562 
" style="fill: none; stroke: #000000; stroke-width: 1.5"/>
    </g>
    <g id="line2d_64">
     <path d="M 506.95 70.976562 
L 526.95 70.976562 
" style="fill: none; stroke: #000000; stroke-width: 1.5; stroke-linecap: square"/>
    </g>
    <g id="line2d_65">
     <g>
      <use xlink:href="#m806fb5c810" x="516.95" y="70.976562" style="stroke: #000000; stroke-linejoin: miter"/>
     </g>
    </g>
    <g id="text_31">
     <!-- reference_data ± SD -->
     <g transform="translate(534.95 74.476562) scale(0.1 -0.1)">
      <use xlink:href="#DejaVuSans-72"/>
      <use xlink:href="#DejaVuSans-65" x="38.863281"/>
      <use xlink:href="#DejaVuSans-66" x="100.386719"/>
      <use xlink:href="#DejaVuSans-65" x="135.591797"/>
      <use xlink:href="#DejaVuSans-72" x="197.115234"/>
      <use xlink:href="#DejaVuSans-65" x="235.978516"/>
      <use xlink:href="#DejaVuSans-6e" x="297.501953"/>
      <use xlink:href="#DejaVuSans-63" x="360.880859"/>
      <use xlink:href="#DejaVuSans-65" x="415.861328"/>
      <use xlink:href="#DejaVuSans-5f" x="477.384766"/>
      <use xlink:href="#DejaVuSans-64" x="527.384766"/>
      <use xlink:href="#DejaVuSans-61" x="590.861328"/>
      <use xlink:href="#DejaVuSans-74" x="652.140625"/>
      <use xlink:href="#DejaVuSans-61" x="691.349609"/>
      <use xlink:href="#DejaVuSans-20" x="752.628906"/>
      <use xlink:href="#DejaVuSans-b1" x="784.416016"/>
      <use xlink:href="#DejaVuSans-20" x="868.205078"/>
      <use xlink:href="#DejaVuSans-53" x="899.992188"/>
      <use xlink:href="#DejaVuSans-44" x="963.46875"/>
     </g>
    </g>
   </g>
  </g>
 </g>
 <defs>
  <clipPath id="pcad2e20a7f">
   <rect x="90" y="43.2" width="253.636364" height="277.2"/>
  </clipPath>
  <clipPath id="p64571a347b">
   <rect x="394.363636" y="43.2" width="253.636364" height="277.2"/>
  </clipPath>
 </defs>
</svg>
