<?xml version="1.0" encoding="utf-8" standalone="no"?>
<!DOCTYPE svg PUBLIC "-//W3C//DTD SVG 1.1//EN"
  "http://www.w3.org/Graphics/SVG/1.1/DTD/svg11.dtd">
<svg xmlns:xlink="http://www.w3.org/1999/xlink" width="720pt" height="360pt" viewBox="0 0 720 360" xmlns="http://www.w3.org/2000/svg" version="1.1">
 <metadata>
  <rdf:RDF xmlns:dc="http://purl.org/dc/elements/1.1/" xmlns:cc="http://creativecommons.org/ns#" xmlns:rdf="http://www.w3.org/1999/02/22-rdf-syntax-ns#">
   <cc:Work>
    <dc:type rdf:resource="http://purl.org/dc/dcmitype/StillImage"/>
    <dc:date>2025-05-22T23:22:32.686165</dc:date>
    <dc:format>image/svg+xml</dc:format>
    <dc:creator>
     <cc:Agent>
      <dc:title>Matplotlib v3.9.0, https://matplotlib.org/</dc:title>
     </cc:Agent>
    </dc:creator>
   </cc:Work>
  </rdf:RDF>
 </metadata>
 <defs>
  <style type="text/css">*{stroke-linejoin: round; stroke-linecap: butt}</style>
 </defs>
 <g id="figure_1">
  <g id="patch_1">
   <path d="M 0 360 
L 720 360 
L 720 0 
L 0 0 
z
" style="fill: #ffffff"/>
  </g>
  <g id="axes_1">
   <g id="patch_2">
    <path d="M 90 320.4 
L 343.636364 320.4 
L 343.636364 43.2 
L 90 43.2 
z
" style="fill: #ffffff"/>
   </g>
   <g id="matplotlib.axis_1">
    <g id="xtick_1">
     <g id="line2d_1">
      <defs>
       <path id="m1da3dbe605" d="M 0 0 
L 0 3.5 
" style="stroke: #000000; stroke-width: 0.8"/>
      </defs>
      <g>
       <use xlink:href="#m1da3dbe605" x="110.821366" y="320.4" style="stroke: #000000; stroke-width: 0.8"/>
      </g>
     </g>
     <g id="text_1">
      <!-- 0 -->
      <g transform="translate(107.640116 334.998438) scale(0.1 -0.1)">
       <defs>
        <path id="DejaVuSans-30" d="M 2034 4250 
Q 1547 4250 1301 3770 
Q 1056 3291 1056 2328 
Q 1056 1369 1301 889 
Q 1547 409 2034 409 
Q 2525 409 2770 889 
Q 3016 1369 3016 2328 
Q 3016 3291 2770 3770 
Q 2525 4250 2034 4250 
z
M 2034 4750 
Q 2819 4750 3233 4129 
Q 3647 3509 3647 2328 
Q 3647 1150 3233 529 
Q 2819 -91 2034 -91 
Q 1250 -91 836 529 
Q 422 1150 422 2328 
Q 422 3509 836 4129 
Q 1250 4750 2034 4750 
z
" transform="scale(0.015625)"/>
       </defs>
       <use xlink:href="#DejaVuSans-30"/>
      </g>
     </g>
    </g>
    <g id="xtick_2">
     <g id="line2d_2">
      <g>
       <use xlink:href="#m1da3dbe605" x="163.321027" y="320.4" style="stroke: #000000; stroke-width: 0.8"/>
      </g>
     </g>
     <g id="text_2">
      <!-- 5000 -->
      <g transform="translate(150.596027 334.998438) scale(0.1 -0.1)">
       <defs>
        <path id="DejaVuSans-35" d="M 691 4666 
L 3169 4666 
L 3169 4134 
L 1269 4134 
L 1269 2991 
Q 1406 3038 1543 3061 
Q 1681 3084 1819 3084 
Q 2600 3084 3056 2656 
Q 3513 2228 3513 1497 
Q 3513 744 3044 326 
Q 2575 -91 1722 -91 
Q 1428 -91 1123 -41 
Q 819 9 494 109 
L 494 744 
Q 775 591 1075 516 
Q 1375 441 1709 441 
Q 2250 441 2565 725 
Q 2881 1009 2881 1497 
Q 2881 1984 2565 2268 
Q 2250 2553 1709 2553 
Q 1456 2553 1204 2497 
Q 953 2441 691 2322 
L 691 4666 
z
" transform="scale(0.015625)"/>
       </defs>
       <use xlink:href="#DejaVuSans-35"/>
       <use xlink:href="#DejaVuSans-30" x="63.623047"/>
       <use xlink:href="#DejaVuSans-30" x="127.246094"/>
       <use xlink:href="#DejaVuSans-30" x="190.869141"/>
      </g>
     </g>
    </g>
    <g id="xtick_3">
     <g id="line2d_3">
      <g>
       <use xlink:href="#m1da3dbe605" x="215.820688" y="320.4" style="stroke: #000000; stroke-width: 0.8"/>
      </g>
     </g>
     <g id="text_3">
      <!-- 10000 -->
      <g transform="translate(199.914438 334.998438) scale(0.1 -0.1)">
       <defs>
        <path id="DejaVuSans-31" d="M 794 531 
L 1825 531 
L 1825 4091 
L 703 3866 
L 703 4441 
L 1819 4666 
L 2450 4666 
L 2450 531 
L 3481 531 
L 3481 0 
L 794 0 
L 794 531 
z
" transform="scale(0.015625)"/>
       </defs>
       <use xlink:href="#DejaVuSans-31"/>
       <use xlink:href="#DejaVuSans-30" x="63.623047"/>
       <use xlink:href="#DejaVuSans-30" x="127.246094"/>
       <use xlink:href="#DejaVuSans-30" x="190.869141"/>
       <use xlink:href="#DejaVuSans-30" x="254.492188"/>
      </g>
     </g>
    </g>
    <g id="xtick_4">
     <g id="line2d_4">
      <g>
       <use xlink:href="#m1da3dbe605" x="268.32035" y="320.4" style="stroke: #000000; stroke-width: 0.8"/>
      </g>
     </g>
     <g id="text_4">
      <!-- 15000 -->
      <g transform="translate(252.4141 334.998438) scale(0.1 -0.1)">
       <use xlink:href="#DejaVuSans-31"/>
       <use xlink:href="#DejaVuSans-35" x="63.623047"/>
       <use xlink:href="#DejaVuSans-30" x="127.246094"/>
       <use xlink:href="#DejaVuSans-30" x="190.869141"/>
       <use xlink:href="#DejaVuSans-30" x="254.492188"/>
      </g>
     </g>
    </g>
    <g id="xtick_5">
     <g id="line2d_5">
      <g>
       <use xlink:href="#m1da3dbe605" x="320.820011" y="320.4" style="stroke: #000000; stroke-width: 0.8"/>
      </g>
     </g>
     <g id="text_5">
      <!-- 20000 -->
      <g transform="translate(304.913761 334.998438) scale(0.1 -0.1)">
       <defs>
        <path id="DejaVuSans-32" d="M 1228 531 
L 3431 531 
L 3431 0 
L 469 0 
L 469 531 
Q 828 903 1448 1529 
Q 2069 2156 2228 2338 
Q 2531 2678 2651 2914 
Q 2772 3150 2772 3378 
Q 2772 3750 2511 3984 
Q 2250 4219 1831 4219 
Q 1534 4219 1204 4116 
Q 875 4013 500 3803 
L 500 4441 
Q 881 4594 1212 4672 
Q 1544 4750 1819 4750 
Q 2544 4750 2975 4387 
Q 3406 4025 3406 3419 
Q 3406 3131 3298 2873 
Q 3191 2616 2906 2266 
Q 2828 2175 2409 1742 
Q 1991 1309 1228 531 
z
" transform="scale(0.015625)"/>
       </defs>
       <use xlink:href="#DejaVuSans-32"/>
       <use xlink:href="#DejaVuSans-30" x="63.623047"/>
       <use xlink:href="#DejaVuSans-30" x="127.246094"/>
       <use xlink:href="#DejaVuSans-30" x="190.869141"/>
       <use xlink:href="#DejaVuSans-30" x="254.492188"/>
      </g>
     </g>
    </g>
    <g id="text_6">
     <!-- time -->
     <g transform="translate(203.262869 350.19625) scale(0.12 -0.12)">
      <defs>
       <path id="DejaVuSans-74" d="M 1172 4494 
L 1172 3500 
L 2356 3500 
L 2356 3053 
L 1172 3053 
L 1172 1153 
Q 1172 725 1289 603 
Q 1406 481 1766 481 
L 2356 481 
L 2356 0 
L 1766 0 
Q 1100 0 847 248 
Q 594 497 594 1153 
L 594 3053 
L 172 3053 
L 172 3500 
L 594 3500 
L 594 4494 
L 1172 4494 
z
" transform="scale(0.015625)"/>
       <path id="DejaVuSans-69" d="M 603 3500 
L 1178 3500 
L 1178 0 
L 603 0 
L 603 3500 
z
M 603 4863 
L 1178 4863 
L 1178 4134 
L 603 4134 
L 603 4863 
z
" transform="scale(0.015625)"/>
       <path id="DejaVuSans-6d" d="M 3328 2828 
Q 3544 3216 3844 3400 
Q 4144 3584 4550 3584 
Q 5097 3584 5394 3201 
Q 5691 2819 5691 2113 
L 5691 0 
L 5113 0 
L 5113 2094 
Q 5113 2597 4934 2840 
Q 4756 3084 4391 3084 
Q 3944 3084 3684 2787 
Q 3425 2491 3425 1978 
L 3425 0 
L 2847 0 
L 2847 2094 
Q 2847 2600 2669 2842 
Q 2491 3084 2119 3084 
Q 1678 3084 1418 2786 
Q 1159 2488 1159 1978 
L 1159 0 
L 581 0 
L 581 3500 
L 1159 3500 
L 1159 2956 
Q 1356 3278 1631 3431 
Q 1906 3584 2284 3584 
Q 2666 3584 2933 3390 
Q 3200 3197 3328 2828 
z
" transform="scale(0.015625)"/>
       <path id="DejaVuSans-65" d="M 3597 1894 
L 3597 1613 
L 953 1613 
Q 991 1019 1311 708 
Q 1631 397 2203 397 
Q 2534 397 2845 478 
Q 3156 559 3463 722 
L 3463 178 
Q 3153 47 2828 -22 
Q 2503 -91 2169 -91 
Q 1331 -91 842 396 
Q 353 884 353 1716 
Q 353 2575 817 3079 
Q 1281 3584 2069 3584 
Q 2775 3584 3186 3129 
Q 3597 2675 3597 1894 
z
M 3022 2063 
Q 3016 2534 2758 2815 
Q 2500 3097 2075 3097 
Q 1594 3097 1305 2825 
Q 1016 2553 972 2059 
L 3022 2063 
z
" transform="scale(0.015625)"/>
      </defs>
      <use xlink:href="#DejaVuSans-74"/>
      <use xlink:href="#DejaVuSans-69" x="39.208984"/>
      <use xlink:href="#DejaVuSans-6d" x="66.992188"/>
      <use xlink:href="#DejaVuSans-65" x="164.404297"/>
     </g>
    </g>
   </g>
   <g id="matplotlib.axis_2">
    <g id="ytick_1">
     <g id="line2d_6">
      <defs>
       <path id="m0c6662209f" d="M 0 0 
L -3.5 0 
" style="stroke: #000000; stroke-width: 0.8"/>
      </defs>
      <g>
       <use xlink:href="#m0c6662209f" x="90" y="307.8" style="stroke: #000000; stroke-width: 0.8"/>
      </g>
     </g>
     <g id="text_7">
      <!-- 0.00000 -->
      <g transform="translate(41.646875 311.599219) scale(0.1 -0.1)">
       <defs>
        <path id="DejaVuSans-2e" d="M 684 794 
L 1344 794 
L 1344 0 
L 684 0 
L 684 794 
z
" transform="scale(0.015625)"/>
       </defs>
       <use xlink:href="#DejaVuSans-30"/>
       <use xlink:href="#DejaVuSans-2e" x="63.623047"/>
       <use xlink:href="#DejaVuSans-30" x="95.410156"/>
       <use xlink:href="#DejaVuSans-30" x="159.033203"/>
       <use xlink:href="#DejaVuSans-30" x="222.65625"/>
       <use xlink:href="#DejaVuSans-30" x="286.279297"/>
       <use xlink:href="#DejaVuSans-30" x="349.902344"/>
      </g>
     </g>
    </g>
    <g id="ytick_2">
     <g id="line2d_7">
      <g>
       <use xlink:href="#m0c6662209f" x="90" y="254.997539" style="stroke: #000000; stroke-width: 0.8"/>
      </g>
     </g>
     <g id="text_8">
      <!-- 0.00005 -->
      <g transform="translate(41.646875 258.796758) scale(0.1 -0.1)">
       <use xlink:href="#DejaVuSans-30"/>
       <use xlink:href="#DejaVuSans-2e" x="63.623047"/>
       <use xlink:href="#DejaVuSans-30" x="95.410156"/>
       <use xlink:href="#DejaVuSans-30" x="159.033203"/>
       <use xlink:href="#DejaVuSans-30" x="222.65625"/>
       <use xlink:href="#DejaVuSans-30" x="286.279297"/>
       <use xlink:href="#DejaVuSans-35" x="349.902344"/>
      </g>
     </g>
    </g>
    <g id="ytick_3">
     <g id="line2d_8">
      <g>
       <use xlink:href="#m0c6662209f" x="90" y="202.195078" style="stroke: #000000; stroke-width: 0.8"/>
      </g>
     </g>
     <g id="text_9">
      <!-- 0.00010 -->
      <g transform="translate(41.646875 205.994297) scale(0.1 -0.1)">
       <use xlink:href="#DejaVuSans-30"/>
       <use xlink:href="#DejaVuSans-2e" x="63.623047"/>
       <use xlink:href="#DejaVuSans-30" x="95.410156"/>
       <use xlink:href="#DejaVuSans-30" x="159.033203"/>
       <use xlink:href="#DejaVuSans-30" x="222.65625"/>
       <use xlink:href="#DejaVuSans-31" x="286.279297"/>
       <use xlink:href="#DejaVuSans-30" x="349.902344"/>
      </g>
     </g>
    </g>
    <g id="ytick_4">
     <g id="line2d_9">
      <g>
       <use xlink:href="#m0c6662209f" x="90" y="149.392617" style="stroke: #000000; stroke-width: 0.8"/>
      </g>
     </g>
     <g id="text_10">
      <!-- 0.00015 -->
      <g transform="translate(41.646875 153.191836) scale(0.1 -0.1)">
       <use xlink:href="#DejaVuSans-30"/>
       <use xlink:href="#DejaVuSans-2e" x="63.623047"/>
       <use xlink:href="#DejaVuSans-30" x="95.410156"/>
       <use xlink:href="#DejaVuSans-30" x="159.033203"/>
       <use xlink:href="#DejaVuSans-30" x="222.65625"/>
       <use xlink:href="#DejaVuSans-31" x="286.279297"/>
       <use xlink:href="#DejaVuSans-35" x="349.902344"/>
      </g>
     </g>
    </g>
    <g id="ytick_5">
     <g id="line2d_10">
      <g>
       <use xlink:href="#m0c6662209f" x="90" y="96.590156" style="stroke: #000000; stroke-width: 0.8"/>
      </g>
     </g>
     <g id="text_11">
      <!-- 0.00020 -->
      <g transform="translate(41.646875 100.389374) scale(0.1 -0.1)">
       <use xlink:href="#DejaVuSans-30"/>
       <use xlink:href="#DejaVuSans-2e" x="63.623047"/>
       <use xlink:href="#DejaVuSans-30" x="95.410156"/>
       <use xlink:href="#DejaVuSans-30" x="159.033203"/>
       <use xlink:href="#DejaVuSans-30" x="222.65625"/>
       <use xlink:href="#DejaVuSans-32" x="286.279297"/>
       <use xlink:href="#DejaVuSans-30" x="349.902344"/>
      </g>
     </g>
    </g>
    <g id="ytick_6">
     <g id="line2d_11">
      <g>
       <use xlink:href="#m0c6662209f" x="90" y="43.787695" style="stroke: #000000; stroke-width: 0.8"/>
      </g>
     </g>
     <g id="text_12">
      <!-- 0.00025 -->
      <g transform="translate(41.646875 47.586913) scale(0.1 -0.1)">
       <use xlink:href="#DejaVuSans-30"/>
       <use xlink:href="#DejaVuSans-2e" x="63.623047"/>
       <use xlink:href="#DejaVuSans-30" x="95.410156"/>
       <use xlink:href="#DejaVuSans-30" x="159.033203"/>
       <use xlink:href="#DejaVuSans-30" x="222.65625"/>
       <use xlink:href="#DejaVuSans-32" x="286.279297"/>
       <use xlink:href="#DejaVuSans-35" x="349.902344"/>
      </g>
     </g>
    </g>
    <g id="text_13">
     <!-- [Cve_dap] -->
     <g transform="translate(34.8175 212.209687) rotate(-90) scale(0.12 -0.12)">
      <defs>
       <path id="DejaVuSans-5b" d="M 550 4863 
L 1875 4863 
L 1875 4416 
L 1125 4416 
L 1125 -397 
L 1875 -397 
L 1875 -844 
L 550 -844 
L 550 4863 
z
" transform="scale(0.015625)"/>
       <path id="DejaVuSans-43" d="M 4122 4306 
L 4122 3641 
Q 3803 3938 3442 4084 
Q 3081 4231 2675 4231 
Q 1875 4231 1450 3742 
Q 1025 3253 1025 2328 
Q 1025 1406 1450 917 
Q 1875 428 2675 428 
Q 3081 428 3442 575 
Q 3803 722 4122 1019 
L 4122 359 
Q 3791 134 3420 21 
Q 3050 -91 2638 -91 
Q 1578 -91 968 557 
Q 359 1206 359 2328 
Q 359 3453 968 4101 
Q 1578 4750 2638 4750 
Q 3056 4750 3426 4639 
Q 3797 4528 4122 4306 
z
" transform="scale(0.015625)"/>
       <path id="DejaVuSans-76" d="M 191 3500 
L 800 3500 
L 1894 563 
L 2988 3500 
L 3597 3500 
L 2284 0 
L 1503 0 
L 191 3500 
z
" transform="scale(0.015625)"/>
       <path id="DejaVuSans-5f" d="M 3263 -1063 
L 3263 -1509 
L -63 -1509 
L -63 -1063 
L 3263 -1063 
z
" transform="scale(0.015625)"/>
       <path id="DejaVuSans-64" d="M 2906 2969 
L 2906 4863 
L 3481 4863 
L 3481 0 
L 2906 0 
L 2906 525 
Q 2725 213 2448 61 
Q 2172 -91 1784 -91 
Q 1150 -91 751 415 
Q 353 922 353 1747 
Q 353 2572 751 3078 
Q 1150 3584 1784 3584 
Q 2172 3584 2448 3432 
Q 2725 3281 2906 2969 
z
M 947 1747 
Q 947 1113 1208 752 
Q 1469 391 1925 391 
Q 2381 391 2643 752 
Q 2906 1113 2906 1747 
Q 2906 2381 2643 2742 
Q 2381 3103 1925 3103 
Q 1469 3103 1208 2742 
Q 947 2381 947 1747 
z
" transform="scale(0.015625)"/>
       <path id="DejaVuSans-61" d="M 2194 1759 
Q 1497 1759 1228 1600 
Q 959 1441 959 1056 
Q 959 750 1161 570 
Q 1363 391 1709 391 
Q 2188 391 2477 730 
Q 2766 1069 2766 1631 
L 2766 1759 
L 2194 1759 
z
M 3341 1997 
L 3341 0 
L 2766 0 
L 2766 531 
Q 2569 213 2275 61 
Q 1981 -91 1556 -91 
Q 1019 -91 701 211 
Q 384 513 384 1019 
Q 384 1609 779 1909 
Q 1175 2209 1959 2209 
L 2766 2209 
L 2766 2266 
Q 2766 2663 2505 2880 
Q 2244 3097 1772 3097 
Q 1472 3097 1187 3025 
Q 903 2953 641 2809 
L 641 3341 
Q 956 3463 1253 3523 
Q 1550 3584 1831 3584 
Q 2591 3584 2966 3190 
Q 3341 2797 3341 1997 
z
" transform="scale(0.015625)"/>
       <path id="DejaVuSans-70" d="M 1159 525 
L 1159 -1331 
L 581 -1331 
L 581 3500 
L 1159 3500 
L 1159 2969 
Q 1341 3281 1617 3432 
Q 1894 3584 2278 3584 
Q 2916 3584 3314 3078 
Q 3713 2572 3713 1747 
Q 3713 922 3314 415 
Q 2916 -91 2278 -91 
Q 1894 -91 1617 61 
Q 1341 213 1159 525 
z
M 3116 1747 
Q 3116 2381 2855 2742 
Q 2594 3103 2138 3103 
Q 1681 3103 1420 2742 
Q 1159 2381 1159 1747 
Q 1159 1113 1420 752 
Q 1681 391 2138 391 
Q 2594 391 2855 752 
Q 3116 1113 3116 1747 
z
" transform="scale(0.015625)"/>
       <path id="DejaVuSans-5d" d="M 1947 4863 
L 1947 -844 
L 622 -844 
L 622 -397 
L 1369 -397 
L 1369 4416 
L 622 4416 
L 622 4863 
L 1947 4863 
z
" transform="scale(0.015625)"/>
      </defs>
      <use xlink:href="#DejaVuSans-5b"/>
      <use xlink:href="#DejaVuSans-43" x="39.013672"/>
      <use xlink:href="#DejaVuSans-76" x="108.837891"/>
      <use xlink:href="#DejaVuSans-65" x="168.017578"/>
      <use xlink:href="#DejaVuSans-5f" x="229.541016"/>
      <use xlink:href="#DejaVuSans-64" x="279.541016"/>
      <use xlink:href="#DejaVuSans-61" x="343.017578"/>
      <use xlink:href="#DejaVuSans-70" x="404.296875"/>
      <use xlink:href="#DejaVuSans-5d" x="467.773438"/>
     </g>
    </g>
   </g>
   <g id="LineCollection_1">
    <path d="M 111.136364 303.183623 
L 111.136364 183.404355 
" clip-path="url(#pab108190fe)" style="fill: none; stroke: #000000; stroke-width: 1.5"/>
    <path d="M 111.451362 225.468407 
L 111.451362 55.8 
" clip-path="url(#pab108190fe)" style="fill: none; stroke: #000000; stroke-width: 1.5"/>
    <path d="M 112.081358 230.474316 
L 112.081358 187.422609 
" clip-path="url(#pab108190fe)" style="fill: none; stroke: #000000; stroke-width: 1.5"/>
    <path d="M 113.341349 275.401239 
L 113.341349 250.297158 
" clip-path="url(#pab108190fe)" style="fill: none; stroke: #000000; stroke-width: 1.5"/>
    <path d="M 114.601341 287.942051 
L 114.601341 270.887289 
" clip-path="url(#pab108190fe)" style="fill: none; stroke: #000000; stroke-width: 1.5"/>
    <path d="M 115.861333 293.782511 
L 115.861333 275.957671 
" clip-path="url(#pab108190fe)" style="fill: none; stroke: #000000; stroke-width: 1.5"/>
    <path d="M 118.381317 300.505767 
L 118.381317 292.08156 
" clip-path="url(#pab108190fe)" style="fill: none; stroke: #000000; stroke-width: 1.5"/>
    <path d="M 122.161293 306.230337 
L 122.161293 298.194816 
" clip-path="url(#pab108190fe)" style="fill: none; stroke: #000000; stroke-width: 1.5"/>
    <path d="M 125.941268 305.434843 
L 125.941268 298.80533 
" clip-path="url(#pab108190fe)" style="fill: none; stroke: #000000; stroke-width: 1.5"/>
    <path d="M 307.380098 306.920656 
L 307.380098 284.10468 
" clip-path="url(#pab108190fe)" style="fill: none; stroke: #000000; stroke-width: 1.5"/>
    <path d="M 307.695096 270.76737 
L 307.695096 161.209298 
" clip-path="url(#pab108190fe)" style="fill: none; stroke: #000000; stroke-width: 1.5"/>
    <path d="M 308.010093 230.912557 
L 308.010093 55.8 
" clip-path="url(#pab108190fe)" style="fill: none; stroke: #000000; stroke-width: 1.5"/>
    <path d="M 308.640089 209.860068 
L 308.640089 172.762062 
" clip-path="url(#pab108190fe)" style="fill: none; stroke: #000000; stroke-width: 1.5"/>
    <path d="M 309.900081 266.084154 
L 309.900081 240.037322 
" clip-path="url(#pab108190fe)" style="fill: none; stroke: #000000; stroke-width: 1.5"/>
    <path d="M 311.160073 279.817342 
L 311.160073 261.34872 
" clip-path="url(#pab108190fe)" style="fill: none; stroke: #000000; stroke-width: 1.5"/>
    <path d="M 312.420065 287.089806 
L 312.420065 268.381832 
" clip-path="url(#pab108190fe)" style="fill: none; stroke: #000000; stroke-width: 1.5"/>
    <path d="M 314.940049 297.9067 
L 314.940049 287.021147 
" clip-path="url(#pab108190fe)" style="fill: none; stroke: #000000; stroke-width: 1.5"/>
    <path d="M 318.720024 303.796563 
L 318.720024 294.678663 
" clip-path="url(#pab108190fe)" style="fill: none; stroke: #000000; stroke-width: 1.5"/>
    <path d="M 322.5 303.328316 
L 322.5 296.103196 
" clip-path="url(#pab108190fe)" style="fill: none; stroke: #000000; stroke-width: 1.5"/>
   </g>
   <g id="line2d_12">
    <path d="M 110.821366 307.8 
L 110.828771 307.712495 
L 110.85984 302.706481 
L 111.030005 222.25925 
L 111.278543 161.817087 
L 111.371889 158.413645 
L 111.418563 158.893902 
L 111.563327 165.884851 
L 113.031178 262.54255 
L 113.556166 278.877385 
L 114.081155 289.228288 
L 114.606143 295.690239 
L 115.131131 299.680463 
L 115.65612 302.124422 
L 116.181108 303.612378 
L 116.706097 304.51454 
L 117.318584 305.127353 
L 118.018568 305.502568 
L 118.981047 305.74114 
L 120.559236 305.872725 
L 125.509905 305.958948 
L 125.948909 305.870497 
L 125.979075 301.059662 
L 126.133602 227.880342 
L 126.382485 161.324451 
L 126.500768 156.584828 
L 126.531276 156.91835 
L 126.653309 162.129236 
L 127.049915 194.084813 
L 127.701058 239.780914 
L 128.26383 264.88045 
L 128.826603 280.548821 
L 129.389375 290.111455 
L 129.952147 295.85882 
L 130.514919 299.275592 
L 131.077691 301.291374 
L 131.640463 302.474869 
L 132.203236 303.168308 
L 132.836354 303.612487 
L 133.680513 303.913301 
L 134.94675 304.096632 
L 137.760611 304.216834 
L 141.068336 304.21244 
L 141.0978 299.708082 
L 141.250296 227.721298 
L 141.501998 159.690877 
L 141.615305 154.911102 
L 141.660627 155.449992 
L 141.777033 160.698315 
L 142.239072 198.162263 
L 142.852489 239.850346 
L 143.37365 262.874876 
L 143.950777 278.996329 
L 144.527905 288.713924 
L 145.022585 293.830365 
L 145.517266 297.07329 
L 146.011946 299.11668 
L 146.589073 300.560771 
L 147.166201 301.398104 
L 147.825775 301.935288 
L 148.650242 302.277358 
L 149.804497 302.48578 
L 152.195453 302.634537 
L 156.187367 302.712658 
L 156.187937 302.697196 
L 156.216014 298.628693 
L 156.35851 231.831078 
L 156.601818 160.240497 
L 156.730845 153.399953 
L 156.773854 153.785314 
L 156.897215 159.19768 
L 157.338596 194.975874 
L 157.952007 237.231327 
L 158.501969 261.66859 
L 159.083911 277.781806 
L 159.665853 287.451625 
L 160.164661 292.521983 
L 160.663468 295.724182 
L 161.162275 297.735326 
L 161.744217 299.152581 
L 162.326159 299.972841 
L 162.991236 300.49939 
L 163.822581 300.836954 
L 165.0696 301.057454 
L 167.646771 301.225922 
L 171.306479 301.33924 
L 171.308036 301.300129 
L 171.336082 297.194877 
L 171.488131 225.745035 
L 171.738095 157.131527 
L 171.866395 152.035504 
L 171.887779 152.286596 
L 172.010156 157.384479 
L 172.414132 189.904042 
L 173.057285 235.04683 
L 173.603883 259.659698 
L 174.182256 275.951549 
L 174.760629 285.767906 
L 175.256377 290.935032 
L 175.752125 294.210294 
L 176.247873 296.275275 
L 176.826246 297.737017 
L 177.404619 298.587761 
L 178.065616 299.137823 
L 178.891863 299.49449 
L 180.048609 299.722514 
L 182.444725 299.91138 
L 186.425802 300.084714 
L 186.428297 300.023751 
L 186.4596 294.949818 
L 186.638138 210.809488 
L 186.867445 155.008442 
L 186.980007 150.748336 
L 187.025031 151.39882 
L 187.152022 157.510582 
L 187.76159 206.770172 
L 188.311657 240.889801 
L 188.864196 263.138824 
L 189.416736 277.074399 
L 189.969275 285.634283 
L 190.521814 290.822928 
L 191.074353 293.940118 
L 191.626892 295.803041 
L 192.179432 296.914735 
L 192.731971 297.580191 
L 193.442378 298.06527 
L 194.310654 298.36797 
L 195.731469 298.589173 
L 199.204573 298.826067 
L 201.545918 298.926128 
L 201.548648 298.853199 
L 201.580859 293.404328 
L 201.776445 202.022355 
L 202.006042 152.416614 
L 202.104131 149.612164 
L 202.131053 149.937733 
L 202.265662 155.954741 
L 202.737979 194.434219 
L 203.328458 234.374911 
L 203.850552 257.517596 
L 204.405349 273.208052 
L 204.960146 282.866437 
L 205.514942 288.726195 
L 206.069739 292.246831 
L 206.624536 294.349809 
L 207.179332 295.603608 
L 207.734129 296.353227 
L 208.381392 296.861501 
L 209.213587 297.208939 
L 210.415647 297.446021 
L 213.004698 297.672647 
L 216.665478 297.879752 
L 216.668039 297.818815 
L 216.696455 293.549861 
L 216.847914 222.24112 
L 217.09192 154.252512 
L 217.207049 148.566592 
L 217.23816 148.686934 
L 217.331495 151.787438 
L 217.6115 172.61375 
L 218.355251 228.096359 
L 218.929149 254.988061 
L 219.503046 271.67992 
L 220.076943 281.794247 
L 220.579103 287.235195 
L 221.081263 290.669352 
L 221.583423 292.82607 
L 222.15732 294.324379 
L 222.731217 295.20482 
L 223.376852 295.775339 
L 224.16596 296.151756 
L 225.313755 296.416881 
L 227.537606 296.647616 
L 231.784868 296.926942 
L 231.787064 296.884682 
L 231.813262 293.370796 
L 231.94007 234.985773 
L 232.215152 152.959787 
L 232.343866 147.606429 
L 232.365318 147.834799 
L 232.454396 150.983813 
L 232.758711 173.997367 
L 233.489948 228.003625 
L 234.011056 252.62224 
L 234.597267 270.15254 
L 235.099735 279.484454 
L 235.602202 285.432667 
L 236.104669 289.191884 
L 236.607136 291.554876 
L 237.109603 293.036732 
L 237.695814 294.084442 
L 238.282026 294.6981 
L 239.035726 295.139473 
L 240.04066 295.435176 
L 241.799295 295.673034 
L 246.904578 296.052899 
L 246.922798 294.573386 
L 247.004102 263.151887 
L 247.314298 154.376577 
L 247.458143 146.715126 
L 247.478692 146.865964 
L 247.574552 150.123833 
L 247.86213 171.713538 
L 248.586248 225.763427 
L 249.118989 251.301175 
L 249.65173 267.742423 
L 250.184471 278.099285 
L 250.717212 284.530687 
L 251.249953 288.486057 
L 251.782694 290.904467 
L 252.315435 292.38007 
L 252.848176 293.282504 
L 253.457023 293.898987 
L 254.218081 294.327048 
L 255.283563 294.626663 
L 257.186209 294.875117 
L 262.024177 295.259498 
L 262.025937 295.233373 
L 262.04924 292.564592 
L 262.153368 247.051992 
L 262.434588 153.534545 
L 262.5683 145.934378 
L 262.590586 145.985384 
L 262.657442 147.646772 
L 262.870859 161.587383 
L 263.815567 231.135165 
L 264.360166 254.936166 
L 264.93301 270.624518 
L 265.505854 280.121595 
L 266.078697 285.78788 
L 266.651541 289.137695 
L 267.224385 291.109259 
L 267.797229 292.270468 
L 268.370073 292.959442 
L 269.024752 293.419621 
L 269.924935 293.75981 
L 271.316127 294.015045 
L 274.75319 294.345733 
L 277.144459 294.531795 
L 277.148193 294.443479 
L 277.181101 288.781445 
L 277.698389 145.200505 
L 277.741705 145.786254 
L 277.876149 152.281336 
L 279.360079 249.850531 
L 279.945555 267.532662 
L 280.447392 276.957272 
L 280.949229 282.972031 
L 281.451066 286.778782 
L 281.952902 289.175937 
L 282.454739 290.682773 
L 283.040215 291.75195 
L 283.625692 292.381805 
L 284.378447 292.839441 
L 285.38212 293.152643 
L 287.138549 293.416608 
L 292.264058 293.875461 
L 292.264552 293.86973 
L 292.283919 292.161545 
L 292.364258 260.743624 
L 292.681788 151.285781 
L 292.826087 144.574558 
L 292.917579 147.137391 
L 293.161559 164.422813 
L 293.997619 226.579406 
L 294.563003 252.271668 
L 295.128388 268.307136 
L 295.693772 278.092966 
L 296.259157 283.978891 
L 296.824541 287.48679 
L 297.389926 289.568105 
L 297.95531 290.803781 
L 298.520695 291.542662 
L 299.156752 292.034133 
L 300.004829 292.395404 
L 301.276944 292.667714 
L 304.034144 292.977003 
L 307.384115 293.271335 
L 307.387911 293.184479 
L 307.416006 288.896019 
L 307.578667 212.316457 
L 307.825392 148.310787 
L 307.939648 143.945588 
L 307.964254 144.179046 
L 308.087287 149.206709 
L 308.502514 182.642353 
L 309.164507 228.587276 
L 309.68483 251.746292 
L 310.209613 266.84965 
L 310.734396 276.409343 
L 311.25918 282.382342 
L 311.783963 286.082617 
L 312.308746 288.364157 
L 312.833529 289.769882 
L 313.445776 290.748485 
L 314.058023 291.315876 
L 314.845198 291.725197 
L 315.982228 292.026704 
L 318.168825 292.316845 
L 323.129996 292.789823 
L 323.129996 292.789823 
" clip-path="url(#pab108190fe)" style="fill: none; stroke: #0000ff; stroke-width: 1.5; stroke-linecap: square"/>
   </g>
   <g id="line2d_13">
    <path d="M 111.136364 243.293989 
L 111.451362 140.634204 
L 112.081358 208.948463 
L 113.341349 262.849199 
L 114.601341 279.41467 
L 115.861333 284.870091 
L 118.381317 296.293663 
L 122.161293 302.212576 
L 125.941268 302.120087 
L 307.380098 295.512668 
L 307.695096 215.988334 
L 308.010093 143.356279 
L 308.640089 191.311065 
L 309.900081 253.060738 
L 311.160073 270.583031 
L 312.420065 277.735819 
L 314.940049 292.463923 
L 318.720024 299.237613 
L 322.5 299.715756 
" clip-path="url(#pab108190fe)" style="fill: none; stroke: #000000; stroke-width: 1.5; stroke-linecap: square"/>
    <defs>
     <path id="m18b86954b9" d="M -5 5 
L 5 5 
L 5 -5 
L -5 -5 
z
" style="stroke: #000000; stroke-linejoin: miter"/>
    </defs>
    <g clip-path="url(#pab108190fe)">
     <use xlink:href="#m18b86954b9" x="111.136364" y="243.293989" style="stroke: #000000; stroke-linejoin: miter"/>
     <use xlink:href="#m18b86954b9" x="111.451362" y="140.634204" style="stroke: #000000; stroke-linejoin: miter"/>
     <use xlink:href="#m18b86954b9" x="112.081358" y="208.948463" style="stroke: #000000; stroke-linejoin: miter"/>
     <use xlink:href="#m18b86954b9" x="113.341349" y="262.849199" style="stroke: #000000; stroke-linejoin: miter"/>
     <use xlink:href="#m18b86954b9" x="114.601341" y="279.41467" style="stroke: #000000; stroke-linejoin: miter"/>
     <use xlink:href="#m18b86954b9" x="115.861333" y="284.870091" style="stroke: #000000; stroke-linejoin: miter"/>
     <use xlink:href="#m18b86954b9" x="118.381317" y="296.293663" style="stroke: #000000; stroke-linejoin: miter"/>
     <use xlink:href="#m18b86954b9" x="122.161293" y="302.212576" style="stroke: #000000; stroke-linejoin: miter"/>
     <use xlink:href="#m18b86954b9" x="125.941268" y="302.120087" style="stroke: #000000; stroke-linejoin: miter"/>
     <use xlink:href="#m18b86954b9" x="307.380098" y="295.512668" style="stroke: #000000; stroke-linejoin: miter"/>
     <use xlink:href="#m18b86954b9" x="307.695096" y="215.988334" style="stroke: #000000; stroke-linejoin: miter"/>
     <use xlink:href="#m18b86954b9" x="308.010093" y="143.356279" style="stroke: #000000; stroke-linejoin: miter"/>
     <use xlink:href="#m18b86954b9" x="308.640089" y="191.311065" style="stroke: #000000; stroke-linejoin: miter"/>
     <use xlink:href="#m18b86954b9" x="309.900081" y="253.060738" style="stroke: #000000; stroke-linejoin: miter"/>
     <use xlink:href="#m18b86954b9" x="311.160073" y="270.583031" style="stroke: #000000; stroke-linejoin: miter"/>
     <use xlink:href="#m18b86954b9" x="312.420065" y="277.735819" style="stroke: #000000; stroke-linejoin: miter"/>
     <use xlink:href="#m18b86954b9" x="314.940049" y="292.463923" style="stroke: #000000; stroke-linejoin: miter"/>
     <use xlink:href="#m18b86954b9" x="318.720024" y="299.237613" style="stroke: #000000; stroke-linejoin: miter"/>
     <use xlink:href="#m18b86954b9" x="322.5" y="299.715756" style="stroke: #000000; stroke-linejoin: miter"/>
    </g>
   </g>
   <g id="patch_3">
    <path d="M 90 320.4 
L 90 43.2 
" style="fill: none; stroke: #000000; stroke-width: 0.8; stroke-linejoin: miter; stroke-linecap: square"/>
   </g>
   <g id="patch_4">
    <path d="M 343.636364 320.4 
L 343.636364 43.2 
" style="fill: none; stroke: #000000; stroke-width: 0.8; stroke-linejoin: miter; stroke-linecap: square"/>
   </g>
   <g id="patch_5">
    <path d="M 90 320.4 
L 343.636364 320.4 
" style="fill: none; stroke: #000000; stroke-width: 0.8; stroke-linejoin: miter; stroke-linecap: square"/>
   </g>
   <g id="patch_6">
    <path d="M 90 43.2 
L 343.636364 43.2 
" style="fill: none; stroke: #000000; stroke-width: 0.8; stroke-linejoin: miter; stroke-linecap: square"/>
   </g>
   <g id="text_14">
    <!-- FDAMB102003 fm_dap5_dapagliflozin -->
    <g transform="translate(84.485369 37.2) scale(0.14 -0.14)">
     <defs>
      <path id="DejaVuSans-46" d="M 628 4666 
L 3309 4666 
L 3309 4134 
L 1259 4134 
L 1259 2759 
L 3109 2759 
L 3109 2228 
L 1259 2228 
L 1259 0 
L 628 0 
L 628 4666 
z
" transform="scale(0.015625)"/>
      <path id="DejaVuSans-44" d="M 1259 4147 
L 1259 519 
L 2022 519 
Q 2988 519 3436 956 
Q 3884 1394 3884 2338 
Q 3884 3275 3436 3711 
Q 2988 4147 2022 4147 
L 1259 4147 
z
M 628 4666 
L 1925 4666 
Q 3281 4666 3915 4102 
Q 4550 3538 4550 2338 
Q 4550 1131 3912 565 
Q 3275 0 1925 0 
L 628 0 
L 628 4666 
z
" transform="scale(0.015625)"/>
      <path id="DejaVuSans-41" d="M 2188 4044 
L 1331 1722 
L 3047 1722 
L 2188 4044 
z
M 1831 4666 
L 2547 4666 
L 4325 0 
L 3669 0 
L 3244 1197 
L 1141 1197 
L 716 0 
L 50 0 
L 1831 4666 
z
" transform="scale(0.015625)"/>
      <path id="DejaVuSans-4d" d="M 628 4666 
L 1569 4666 
L 2759 1491 
L 3956 4666 
L 4897 4666 
L 4897 0 
L 4281 0 
L 4281 4097 
L 3078 897 
L 2444 897 
L 1241 4097 
L 1241 0 
L 628 0 
L 628 4666 
z
" transform="scale(0.015625)"/>
      <path id="DejaVuSans-42" d="M 1259 2228 
L 1259 519 
L 2272 519 
Q 2781 519 3026 730 
Q 3272 941 3272 1375 
Q 3272 1813 3026 2020 
Q 2781 2228 2272 2228 
L 1259 2228 
z
M 1259 4147 
L 1259 2741 
L 2194 2741 
Q 2656 2741 2882 2914 
Q 3109 3088 3109 3444 
Q 3109 3797 2882 3972 
Q 2656 4147 2194 4147 
L 1259 4147 
z
M 628 4666 
L 2241 4666 
Q 2963 4666 3353 4366 
Q 3744 4066 3744 3513 
Q 3744 3084 3544 2831 
Q 3344 2578 2956 2516 
Q 3422 2416 3680 2098 
Q 3938 1781 3938 1306 
Q 3938 681 3513 340 
Q 3088 0 2303 0 
L 628 0 
L 628 4666 
z
" transform="scale(0.015625)"/>
      <path id="DejaVuSans-33" d="M 2597 2516 
Q 3050 2419 3304 2112 
Q 3559 1806 3559 1356 
Q 3559 666 3084 287 
Q 2609 -91 1734 -91 
Q 1441 -91 1130 -33 
Q 819 25 488 141 
L 488 750 
Q 750 597 1062 519 
Q 1375 441 1716 441 
Q 2309 441 2620 675 
Q 2931 909 2931 1356 
Q 2931 1769 2642 2001 
Q 2353 2234 1838 2234 
L 1294 2234 
L 1294 2753 
L 1863 2753 
Q 2328 2753 2575 2939 
Q 2822 3125 2822 3475 
Q 2822 3834 2567 4026 
Q 2313 4219 1838 4219 
Q 1578 4219 1281 4162 
Q 984 4106 628 3988 
L 628 4550 
Q 988 4650 1302 4700 
Q 1616 4750 1894 4750 
Q 2613 4750 3031 4423 
Q 3450 4097 3450 3541 
Q 3450 3153 3228 2886 
Q 3006 2619 2597 2516 
z
" transform="scale(0.015625)"/>
      <path id="DejaVuSans-20" transform="scale(0.015625)"/>
      <path id="DejaVuSans-66" d="M 2375 4863 
L 2375 4384 
L 1825 4384 
Q 1516 4384 1395 4259 
Q 1275 4134 1275 3809 
L 1275 3500 
L 2222 3500 
L 2222 3053 
L 1275 3053 
L 1275 0 
L 697 0 
L 697 3053 
L 147 3053 
L 147 3500 
L 697 3500 
L 697 3744 
Q 697 4328 969 4595 
Q 1241 4863 1831 4863 
L 2375 4863 
z
" transform="scale(0.015625)"/>
      <path id="DejaVuSans-67" d="M 2906 1791 
Q 2906 2416 2648 2759 
Q 2391 3103 1925 3103 
Q 1463 3103 1205 2759 
Q 947 2416 947 1791 
Q 947 1169 1205 825 
Q 1463 481 1925 481 
Q 2391 481 2648 825 
Q 2906 1169 2906 1791 
z
M 3481 434 
Q 3481 -459 3084 -895 
Q 2688 -1331 1869 -1331 
Q 1566 -1331 1297 -1286 
Q 1028 -1241 775 -1147 
L 775 -588 
Q 1028 -725 1275 -790 
Q 1522 -856 1778 -856 
Q 2344 -856 2625 -561 
Q 2906 -266 2906 331 
L 2906 616 
Q 2728 306 2450 153 
Q 2172 0 1784 0 
Q 1141 0 747 490 
Q 353 981 353 1791 
Q 353 2603 747 3093 
Q 1141 3584 1784 3584 
Q 2172 3584 2450 3431 
Q 2728 3278 2906 2969 
L 2906 3500 
L 3481 3500 
L 3481 434 
z
" transform="scale(0.015625)"/>
      <path id="DejaVuSans-6c" d="M 603 4863 
L 1178 4863 
L 1178 0 
L 603 0 
L 603 4863 
z
" transform="scale(0.015625)"/>
      <path id="DejaVuSans-6f" d="M 1959 3097 
Q 1497 3097 1228 2736 
Q 959 2375 959 1747 
Q 959 1119 1226 758 
Q 1494 397 1959 397 
Q 2419 397 2687 759 
Q 2956 1122 2956 1747 
Q 2956 2369 2687 2733 
Q 2419 3097 1959 3097 
z
M 1959 3584 
Q 2709 3584 3137 3096 
Q 3566 2609 3566 1747 
Q 3566 888 3137 398 
Q 2709 -91 1959 -91 
Q 1206 -91 779 398 
Q 353 888 353 1747 
Q 353 2609 779 3096 
Q 1206 3584 1959 3584 
z
" transform="scale(0.015625)"/>
      <path id="DejaVuSans-7a" d="M 353 3500 
L 3084 3500 
L 3084 2975 
L 922 459 
L 3084 459 
L 3084 0 
L 275 0 
L 275 525 
L 2438 3041 
L 353 3041 
L 353 3500 
z
" transform="scale(0.015625)"/>
      <path id="DejaVuSans-6e" d="M 3513 2113 
L 3513 0 
L 2938 0 
L 2938 2094 
Q 2938 2591 2744 2837 
Q 2550 3084 2163 3084 
Q 1697 3084 1428 2787 
Q 1159 2491 1159 1978 
L 1159 0 
L 581 0 
L 581 3500 
L 1159 3500 
L 1159 2956 
Q 1366 3272 1645 3428 
Q 1925 3584 2291 3584 
Q 2894 3584 3203 3211 
Q 3513 2838 3513 2113 
z
" transform="scale(0.015625)"/>
     </defs>
     <use xlink:href="#DejaVuSans-46"/>
     <use xlink:href="#DejaVuSans-44" x="57.519531"/>
     <use xlink:href="#DejaVuSans-41" x="132.771484"/>
     <use xlink:href="#DejaVuSans-4d" x="201.179688"/>
     <use xlink:href="#DejaVuSans-42" x="287.458984"/>
     <use xlink:href="#DejaVuSans-31" x="356.0625"/>
     <use xlink:href="#DejaVuSans-30" x="419.685547"/>
     <use xlink:href="#DejaVuSans-32" x="483.308594"/>
     <use xlink:href="#DejaVuSans-30" x="546.931641"/>
     <use xlink:href="#DejaVuSans-30" x="610.554688"/>
     <use xlink:href="#DejaVuSans-33" x="674.177734"/>
     <use xlink:href="#DejaVuSans-20" x="737.800781"/>
     <use xlink:href="#DejaVuSans-66" x="769.587891"/>
     <use xlink:href="#DejaVuSans-6d" x="804.792969"/>
     <use xlink:href="#DejaVuSans-5f" x="902.205078"/>
     <use xlink:href="#DejaVuSans-64" x="952.205078"/>
     <use xlink:href="#DejaVuSans-61" x="1015.681641"/>
     <use xlink:href="#DejaVuSans-70" x="1076.960938"/>
     <use xlink:href="#DejaVuSans-35" x="1140.4375"/>
     <use xlink:href="#DejaVuSans-5f" x="1204.060547"/>
     <use xlink:href="#DejaVuSans-64" x="1254.060547"/>
     <use xlink:href="#DejaVuSans-61" x="1317.537109"/>
     <use xlink:href="#DejaVuSans-70" x="1378.816406"/>
     <use xlink:href="#DejaVuSans-61" x="1442.292969"/>
     <use xlink:href="#DejaVuSans-67" x="1503.572266"/>
     <use xlink:href="#DejaVuSans-6c" x="1567.048828"/>
     <use xlink:href="#DejaVuSans-69" x="1594.832031"/>
     <use xlink:href="#DejaVuSans-66" x="1622.615234"/>
     <use xlink:href="#DejaVuSans-6c" x="1657.820312"/>
     <use xlink:href="#DejaVuSans-6f" x="1685.603516"/>
     <use xlink:href="#DejaVuSans-7a" x="1746.785156"/>
     <use xlink:href="#DejaVuSans-69" x="1799.275391"/>
     <use xlink:href="#DejaVuSans-6e" x="1827.058594"/>
    </g>
   </g>
   <g id="legend_1">
    <g id="patch_7">
     <path d="M 200.586364 80.834375 
L 336.636364 80.834375 
Q 338.636364 80.834375 338.636364 78.834375 
L 338.636364 50.2 
Q 338.636364 48.2 336.636364 48.2 
L 200.586364 48.2 
Q 198.586364 48.2 198.586364 50.2 
L 198.586364 78.834375 
Q 198.586364 80.834375 200.586364 80.834375 
z
" style="fill: #ffffff; opacity: 0.8; stroke: #cccccc; stroke-linejoin: miter"/>
    </g>
    <g id="line2d_14">
     <path d="M 202.586364 56.298437 
L 212.586364 56.298437 
L 222.586364 56.298437 
" style="fill: none; stroke: #0000ff; stroke-width: 1.5; stroke-linecap: square"/>
    </g>
    <g id="text_15">
     <!-- observable -->
     <g transform="translate(230.586364 59.798437) scale(0.1 -0.1)">
      <defs>
       <path id="DejaVuSans-62" d="M 3116 1747 
Q 3116 2381 2855 2742 
Q 2594 3103 2138 3103 
Q 1681 3103 1420 2742 
Q 1159 2381 1159 1747 
Q 1159 1113 1420 752 
Q 1681 391 2138 391 
Q 2594 391 2855 752 
Q 3116 1113 3116 1747 
z
M 1159 2969 
Q 1341 3281 1617 3432 
Q 1894 3584 2278 3584 
Q 2916 3584 3314 3078 
Q 3713 2572 3713 1747 
Q 3713 922 3314 415 
Q 2916 -91 2278 -91 
Q 1894 -91 1617 61 
Q 1341 213 1159 525 
L 1159 0 
L 581 0 
L 581 4863 
L 1159 4863 
L 1159 2969 
z
" transform="scale(0.015625)"/>
       <path id="DejaVuSans-73" d="M 2834 3397 
L 2834 2853 
Q 2591 2978 2328 3040 
Q 2066 3103 1784 3103 
Q 1356 3103 1142 2972 
Q 928 2841 928 2578 
Q 928 2378 1081 2264 
Q 1234 2150 1697 2047 
L 1894 2003 
Q 2506 1872 2764 1633 
Q 3022 1394 3022 966 
Q 3022 478 2636 193 
Q 2250 -91 1575 -91 
Q 1294 -91 989 -36 
Q 684 19 347 128 
L 347 722 
Q 666 556 975 473 
Q 1284 391 1588 391 
Q 1994 391 2212 530 
Q 2431 669 2431 922 
Q 2431 1156 2273 1281 
Q 2116 1406 1581 1522 
L 1381 1569 
Q 847 1681 609 1914 
Q 372 2147 372 2553 
Q 372 3047 722 3315 
Q 1072 3584 1716 3584 
Q 2034 3584 2315 3537 
Q 2597 3491 2834 3397 
z
" transform="scale(0.015625)"/>
       <path id="DejaVuSans-72" d="M 2631 2963 
Q 2534 3019 2420 3045 
Q 2306 3072 2169 3072 
Q 1681 3072 1420 2755 
Q 1159 2438 1159 1844 
L 1159 0 
L 581 0 
L 581 3500 
L 1159 3500 
L 1159 2956 
Q 1341 3275 1631 3429 
Q 1922 3584 2338 3584 
Q 2397 3584 2469 3576 
Q 2541 3569 2628 3553 
L 2631 2963 
z
" transform="scale(0.015625)"/>
      </defs>
      <use xlink:href="#DejaVuSans-6f"/>
      <use xlink:href="#DejaVuSans-62" x="61.181641"/>
      <use xlink:href="#DejaVuSans-73" x="124.658203"/>
      <use xlink:href="#DejaVuSans-65" x="176.757812"/>
      <use xlink:href="#DejaVuSans-72" x="238.28125"/>
      <use xlink:href="#DejaVuSans-76" x="279.394531"/>
      <use xlink:href="#DejaVuSans-61" x="338.574219"/>
      <use xlink:href="#DejaVuSans-62" x="399.853516"/>
      <use xlink:href="#DejaVuSans-6c" x="463.330078"/>
      <use xlink:href="#DejaVuSans-65" x="491.113281"/>
     </g>
    </g>
    <g id="LineCollection_2">
     <path d="M 212.586364 75.976562 
L 212.586364 65.976562 
" style="fill: none; stroke: #000000; stroke-width: 1.5"/>
    </g>
    <g id="line2d_15">
     <path d="M 202.586364 70.976562 
L 222.586364 70.976562 
" style="fill: none; stroke: #000000; stroke-width: 1.5; stroke-linecap: square"/>
    </g>
    <g id="line2d_16">
     <g>
      <use xlink:href="#m18b86954b9" x="212.586364" y="70.976562" style="stroke: #000000; stroke-linejoin: miter"/>
     </g>
    </g>
    <g id="text_16">
     <!-- reference_data ± SD -->
     <g transform="translate(230.586364 74.476562) scale(0.1 -0.1)">
      <defs>
       <path id="DejaVuSans-63" d="M 3122 3366 
L 3122 2828 
Q 2878 2963 2633 3030 
Q 2388 3097 2138 3097 
Q 1578 3097 1268 2742 
Q 959 2388 959 1747 
Q 959 1106 1268 751 
Q 1578 397 2138 397 
Q 2388 397 2633 464 
Q 2878 531 3122 666 
L 3122 134 
Q 2881 22 2623 -34 
Q 2366 -91 2075 -91 
Q 1284 -91 818 406 
Q 353 903 353 1747 
Q 353 2603 823 3093 
Q 1294 3584 2113 3584 
Q 2378 3584 2631 3529 
Q 2884 3475 3122 3366 
z
" transform="scale(0.015625)"/>
       <path id="DejaVuSans-b1" d="M 2944 4013 
L 2944 2803 
L 4684 2803 
L 4684 2272 
L 2944 2272 
L 2944 1063 
L 2419 1063 
L 2419 2272 
L 678 2272 
L 678 2803 
L 2419 2803 
L 2419 4013 
L 2944 4013 
z
M 678 531 
L 4684 531 
L 4684 0 
L 678 0 
L 678 531 
z
" transform="scale(0.015625)"/>
       <path id="DejaVuSans-53" d="M 3425 4513 
L 3425 3897 
Q 3066 4069 2747 4153 
Q 2428 4238 2131 4238 
Q 1616 4238 1336 4038 
Q 1056 3838 1056 3469 
Q 1056 3159 1242 3001 
Q 1428 2844 1947 2747 
L 2328 2669 
Q 3034 2534 3370 2195 
Q 3706 1856 3706 1288 
Q 3706 609 3251 259 
Q 2797 -91 1919 -91 
Q 1588 -91 1214 -16 
Q 841 59 441 206 
L 441 856 
Q 825 641 1194 531 
Q 1563 422 1919 422 
Q 2459 422 2753 634 
Q 3047 847 3047 1241 
Q 3047 1584 2836 1778 
Q 2625 1972 2144 2069 
L 1759 2144 
Q 1053 2284 737 2584 
Q 422 2884 422 3419 
Q 422 4038 858 4394 
Q 1294 4750 2059 4750 
Q 2388 4750 2728 4690 
Q 3069 4631 3425 4513 
z
" transform="scale(0.015625)"/>
      </defs>
      <use xlink:href="#DejaVuSans-72"/>
      <use xlink:href="#DejaVuSans-65" x="38.863281"/>
      <use xlink:href="#DejaVuSans-66" x="100.386719"/>
      <use xlink:href="#DejaVuSans-65" x="135.591797"/>
      <use xlink:href="#DejaVuSans-72" x="197.115234"/>
      <use xlink:href="#DejaVuSans-65" x="235.978516"/>
      <use xlink:href="#DejaVuSans-6e" x="297.501953"/>
      <use xlink:href="#DejaVuSans-63" x="360.880859"/>
      <use xlink:href="#DejaVuSans-65" x="415.861328"/>
      <use xlink:href="#DejaVuSans-5f" x="477.384766"/>
      <use xlink:href="#DejaVuSans-64" x="527.384766"/>
      <use xlink:href="#DejaVuSans-61" x="590.861328"/>
      <use xlink:href="#DejaVuSans-74" x="652.140625"/>
      <use xlink:href="#DejaVuSans-61" x="691.349609"/>
      <use xlink:href="#DejaVuSans-20" x="752.628906"/>
      <use xlink:href="#DejaVuSans-b1" x="784.416016"/>
      <use xlink:href="#DejaVuSans-20" x="868.205078"/>
      <use xlink:href="#DejaVuSans-53" x="899.992188"/>
      <use xlink:href="#DejaVuSans-44" x="963.46875"/>
     </g>
    </g>
   </g>
  </g>
  <g id="axes_2">
   <g id="patch_8">
    <path d="M 394.363636 320.4 
L 648 320.4 
L 648 43.2 
L 394.363636 43.2 
z
" style="fill: #ffffff"/>
   </g>
   <g id="matplotlib.axis_3">
    <g id="xtick_6">
     <g id="line2d_17">
      <g>
       <use xlink:href="#m1da3dbe605" x="415.185002" y="320.4" style="stroke: #000000; stroke-width: 0.8"/>
      </g>
     </g>
     <g id="text_17">
      <!-- 0 -->
      <g transform="translate(412.003752 334.998438) scale(0.1 -0.1)">
       <use xlink:href="#DejaVuSans-30"/>
      </g>
     </g>
    </g>
    <g id="xtick_7">
     <g id="line2d_18">
      <g>
       <use xlink:href="#m1da3dbe605" x="467.684663" y="320.4" style="stroke: #000000; stroke-width: 0.8"/>
      </g>
     </g>
     <g id="text_18">
      <!-- 5000 -->
      <g transform="translate(454.959663 334.998438) scale(0.1 -0.1)">
       <use xlink:href="#DejaVuSans-35"/>
       <use xlink:href="#DejaVuSans-30" x="63.623047"/>
       <use xlink:href="#DejaVuSans-30" x="127.246094"/>
       <use xlink:href="#DejaVuSans-30" x="190.869141"/>
      </g>
     </g>
    </g>
    <g id="xtick_8">
     <g id="line2d_19">
      <g>
       <use xlink:href="#m1da3dbe605" x="520.184325" y="320.4" style="stroke: #000000; stroke-width: 0.8"/>
      </g>
     </g>
     <g id="text_19">
      <!-- 10000 -->
      <g transform="translate(504.278075 334.998438) scale(0.1 -0.1)">
       <use xlink:href="#DejaVuSans-31"/>
       <use xlink:href="#DejaVuSans-30" x="63.623047"/>
       <use xlink:href="#DejaVuSans-30" x="127.246094"/>
       <use xlink:href="#DejaVuSans-30" x="190.869141"/>
       <use xlink:href="#DejaVuSans-30" x="254.492188"/>
      </g>
     </g>
    </g>
    <g id="xtick_9">
     <g id="line2d_20">
      <g>
       <use xlink:href="#m1da3dbe605" x="572.683986" y="320.4" style="stroke: #000000; stroke-width: 0.8"/>
      </g>
     </g>
     <g id="text_20">
      <!-- 15000 -->
      <g transform="translate(556.777736 334.998438) scale(0.1 -0.1)">
       <use xlink:href="#DejaVuSans-31"/>
       <use xlink:href="#DejaVuSans-35" x="63.623047"/>
       <use xlink:href="#DejaVuSans-30" x="127.246094"/>
       <use xlink:href="#DejaVuSans-30" x="190.869141"/>
       <use xlink:href="#DejaVuSans-30" x="254.492188"/>
      </g>
     </g>
    </g>
    <g id="xtick_10">
     <g id="line2d_21">
      <g>
       <use xlink:href="#m1da3dbe605" x="625.183647" y="320.4" style="stroke: #000000; stroke-width: 0.8"/>
      </g>
     </g>
     <g id="text_21">
      <!-- 20000 -->
      <g transform="translate(609.277397 334.998438) scale(0.1 -0.1)">
       <use xlink:href="#DejaVuSans-32"/>
       <use xlink:href="#DejaVuSans-30" x="63.623047"/>
       <use xlink:href="#DejaVuSans-30" x="127.246094"/>
       <use xlink:href="#DejaVuSans-30" x="190.869141"/>
       <use xlink:href="#DejaVuSans-30" x="254.492188"/>
      </g>
     </g>
    </g>
    <g id="text_22">
     <!-- time -->
     <g transform="translate(507.626506 350.19625) scale(0.12 -0.12)">
      <use xlink:href="#DejaVuSans-74"/>
      <use xlink:href="#DejaVuSans-69" x="39.208984"/>
      <use xlink:href="#DejaVuSans-6d" x="66.992188"/>
      <use xlink:href="#DejaVuSans-65" x="164.404297"/>
     </g>
    </g>
   </g>
   <g id="matplotlib.axis_4">
    <g id="ytick_7">
     <g id="line2d_22">
      <g>
       <use xlink:href="#m0c6662209f" x="394.363636" y="268.305121" style="stroke: #000000; stroke-width: 0.8"/>
      </g>
     </g>
     <g id="text_23">
      <!-- $\mathdefault{10^{-5}}$ -->
      <g transform="translate(363.863636 272.104339) scale(0.1 -0.1)">
       <defs>
        <path id="DejaVuSans-2212" d="M 678 2272 
L 4684 2272 
L 4684 1741 
L 678 1741 
L 678 2272 
z
" transform="scale(0.015625)"/>
       </defs>
       <use xlink:href="#DejaVuSans-31" transform="translate(0 0.684375)"/>
       <use xlink:href="#DejaVuSans-30" transform="translate(63.623047 0.684375)"/>
       <use xlink:href="#DejaVuSans-2212" transform="translate(128.203125 38.965625) scale(0.7)"/>
       <use xlink:href="#DejaVuSans-35" transform="translate(186.855469 38.965625) scale(0.7)"/>
      </g>
     </g>
    </g>
    <g id="ytick_8">
     <g id="line2d_23">
      <g>
       <use xlink:href="#m0c6662209f" x="394.363636" y="203.133677" style="stroke: #000000; stroke-width: 0.8"/>
      </g>
     </g>
     <g id="text_24">
      <!-- $\mathdefault{10^{-4}}$ -->
      <g transform="translate(363.863636 206.932895) scale(0.1 -0.1)">
       <defs>
        <path id="DejaVuSans-34" d="M 2419 4116 
L 825 1625 
L 2419 1625 
L 2419 4116 
z
M 2253 4666 
L 3047 4666 
L 3047 1625 
L 3713 1625 
L 3713 1100 
L 3047 1100 
L 3047 0 
L 2419 0 
L 2419 1100 
L 313 1100 
L 313 1709 
L 2253 4666 
z
" transform="scale(0.015625)"/>
       </defs>
       <use xlink:href="#DejaVuSans-31" transform="translate(0 0.684375)"/>
       <use xlink:href="#DejaVuSans-30" transform="translate(63.623047 0.684375)"/>
       <use xlink:href="#DejaVuSans-2212" transform="translate(128.203125 38.965625) scale(0.7)"/>
       <use xlink:href="#DejaVuSans-34" transform="translate(186.855469 38.965625) scale(0.7)"/>
      </g>
     </g>
    </g>
    <g id="ytick_9">
     <g id="line2d_24">
      <g>
       <use xlink:href="#m0c6662209f" x="394.363636" y="137.962233" style="stroke: #000000; stroke-width: 0.8"/>
      </g>
     </g>
     <g id="text_25">
      <!-- $\mathdefault{10^{-3}}$ -->
      <g transform="translate(363.863636 141.761452) scale(0.1 -0.1)">
       <use xlink:href="#DejaVuSans-31" transform="translate(0 0.765625)"/>
       <use xlink:href="#DejaVuSans-30" transform="translate(63.623047 0.765625)"/>
       <use xlink:href="#DejaVuSans-2212" transform="translate(128.203125 39.046875) scale(0.7)"/>
       <use xlink:href="#DejaVuSans-33" transform="translate(186.855469 39.046875) scale(0.7)"/>
      </g>
     </g>
    </g>
    <g id="ytick_10">
     <g id="line2d_25">
      <g>
       <use xlink:href="#m0c6662209f" x="394.363636" y="72.790789" style="stroke: #000000; stroke-width: 0.8"/>
      </g>
     </g>
     <g id="text_26">
      <!-- $\mathdefault{10^{-2}}$ -->
      <g transform="translate(363.863636 76.590008) scale(0.1 -0.1)">
       <use xlink:href="#DejaVuSans-31" transform="translate(0 0.765625)"/>
       <use xlink:href="#DejaVuSans-30" transform="translate(63.623047 0.765625)"/>
       <use xlink:href="#DejaVuSans-2212" transform="translate(128.203125 39.046875) scale(0.7)"/>
       <use xlink:href="#DejaVuSans-32" transform="translate(186.855469 39.046875) scale(0.7)"/>
      </g>
     </g>
    </g>
    <g id="ytick_11">
     <g id="line2d_26">
      <defs>
       <path id="m4dff02d4ce" d="M 0 0 
L -2 0 
" style="stroke: #000000; stroke-width: 0.6"/>
      </defs>
      <g>
       <use xlink:href="#m4dff02d4ce" x="394.363636" y="313.858005" style="stroke: #000000; stroke-width: 0.6"/>
      </g>
     </g>
    </g>
    <g id="ytick_12">
     <g id="line2d_27">
      <g>
       <use xlink:href="#m4dff02d4ce" x="394.363636" y="302.381884" style="stroke: #000000; stroke-width: 0.6"/>
      </g>
     </g>
    </g>
    <g id="ytick_13">
     <g id="line2d_28">
      <g>
       <use xlink:href="#m4dff02d4ce" x="394.363636" y="294.239446" style="stroke: #000000; stroke-width: 0.6"/>
      </g>
     </g>
    </g>
    <g id="ytick_14">
     <g id="line2d_29">
      <g>
       <use xlink:href="#m4dff02d4ce" x="394.363636" y="287.92368" style="stroke: #000000; stroke-width: 0.6"/>
      </g>
     </g>
    </g>
    <g id="ytick_15">
     <g id="line2d_30">
      <g>
       <use xlink:href="#m4dff02d4ce" x="394.363636" y="282.763324" style="stroke: #000000; stroke-width: 0.6"/>
      </g>
     </g>
    </g>
    <g id="ytick_16">
     <g id="line2d_31">
      <g>
       <use xlink:href="#m4dff02d4ce" x="394.363636" y="278.400305" style="stroke: #000000; stroke-width: 0.6"/>
      </g>
     </g>
    </g>
    <g id="ytick_17">
     <g id="line2d_32">
      <g>
       <use xlink:href="#m4dff02d4ce" x="394.363636" y="274.620886" style="stroke: #000000; stroke-width: 0.6"/>
      </g>
     </g>
    </g>
    <g id="ytick_18">
     <g id="line2d_33">
      <g>
       <use xlink:href="#m4dff02d4ce" x="394.363636" y="271.287202" style="stroke: #000000; stroke-width: 0.6"/>
      </g>
     </g>
    </g>
    <g id="ytick_19">
     <g id="line2d_34">
      <g>
       <use xlink:href="#m4dff02d4ce" x="394.363636" y="248.686561" style="stroke: #000000; stroke-width: 0.6"/>
      </g>
     </g>
    </g>
    <g id="ytick_20">
     <g id="line2d_35">
      <g>
       <use xlink:href="#m4dff02d4ce" x="394.363636" y="237.21044" style="stroke: #000000; stroke-width: 0.6"/>
      </g>
     </g>
    </g>
    <g id="ytick_21">
     <g id="line2d_36">
      <g>
       <use xlink:href="#m4dff02d4ce" x="394.363636" y="229.068002" style="stroke: #000000; stroke-width: 0.6"/>
      </g>
     </g>
    </g>
    <g id="ytick_22">
     <g id="line2d_37">
      <g>
       <use xlink:href="#m4dff02d4ce" x="394.363636" y="222.752236" style="stroke: #000000; stroke-width: 0.6"/>
      </g>
     </g>
    </g>
    <g id="ytick_23">
     <g id="line2d_38">
      <g>
       <use xlink:href="#m4dff02d4ce" x="394.363636" y="217.59188" style="stroke: #000000; stroke-width: 0.6"/>
      </g>
     </g>
    </g>
    <g id="ytick_24">
     <g id="line2d_39">
      <g>
       <use xlink:href="#m4dff02d4ce" x="394.363636" y="213.228861" style="stroke: #000000; stroke-width: 0.6"/>
      </g>
     </g>
    </g>
    <g id="ytick_25">
     <g id="line2d_40">
      <g>
       <use xlink:href="#m4dff02d4ce" x="394.363636" y="209.449442" style="stroke: #000000; stroke-width: 0.6"/>
      </g>
     </g>
    </g>
    <g id="ytick_26">
     <g id="line2d_41">
      <g>
       <use xlink:href="#m4dff02d4ce" x="394.363636" y="206.115758" style="stroke: #000000; stroke-width: 0.6"/>
      </g>
     </g>
    </g>
    <g id="ytick_27">
     <g id="line2d_42">
      <g>
       <use xlink:href="#m4dff02d4ce" x="394.363636" y="183.515117" style="stroke: #000000; stroke-width: 0.6"/>
      </g>
     </g>
    </g>
    <g id="ytick_28">
     <g id="line2d_43">
      <g>
       <use xlink:href="#m4dff02d4ce" x="394.363636" y="172.038996" style="stroke: #000000; stroke-width: 0.6"/>
      </g>
     </g>
    </g>
    <g id="ytick_29">
     <g id="line2d_44">
      <g>
       <use xlink:href="#m4dff02d4ce" x="394.363636" y="163.896558" style="stroke: #000000; stroke-width: 0.6"/>
      </g>
     </g>
    </g>
    <g id="ytick_30">
     <g id="line2d_45">
      <g>
       <use xlink:href="#m4dff02d4ce" x="394.363636" y="157.580792" style="stroke: #000000; stroke-width: 0.6"/>
      </g>
     </g>
    </g>
    <g id="ytick_31">
     <g id="line2d_46">
      <g>
       <use xlink:href="#m4dff02d4ce" x="394.363636" y="152.420436" style="stroke: #000000; stroke-width: 0.6"/>
      </g>
     </g>
    </g>
    <g id="ytick_32">
     <g id="line2d_47">
      <g>
       <use xlink:href="#m4dff02d4ce" x="394.363636" y="148.057417" style="stroke: #000000; stroke-width: 0.6"/>
      </g>
     </g>
    </g>
    <g id="ytick_33">
     <g id="line2d_48">
      <g>
       <use xlink:href="#m4dff02d4ce" x="394.363636" y="144.277998" style="stroke: #000000; stroke-width: 0.6"/>
      </g>
     </g>
    </g>
    <g id="ytick_34">
     <g id="line2d_49">
      <g>
       <use xlink:href="#m4dff02d4ce" x="394.363636" y="140.944315" style="stroke: #000000; stroke-width: 0.6"/>
      </g>
     </g>
    </g>
    <g id="ytick_35">
     <g id="line2d_50">
      <g>
       <use xlink:href="#m4dff02d4ce" x="394.363636" y="118.343673" style="stroke: #000000; stroke-width: 0.6"/>
      </g>
     </g>
    </g>
    <g id="ytick_36">
     <g id="line2d_51">
      <g>
       <use xlink:href="#m4dff02d4ce" x="394.363636" y="106.867552" style="stroke: #000000; stroke-width: 0.6"/>
      </g>
     </g>
    </g>
    <g id="ytick_37">
     <g id="line2d_52">
      <g>
       <use xlink:href="#m4dff02d4ce" x="394.363636" y="98.725114" style="stroke: #000000; stroke-width: 0.6"/>
      </g>
     </g>
    </g>
    <g id="ytick_38">
     <g id="line2d_53">
      <g>
       <use xlink:href="#m4dff02d4ce" x="394.363636" y="92.409348" style="stroke: #000000; stroke-width: 0.6"/>
      </g>
     </g>
    </g>
    <g id="ytick_39">
     <g id="line2d_54">
      <g>
       <use xlink:href="#m4dff02d4ce" x="394.363636" y="87.248992" style="stroke: #000000; stroke-width: 0.6"/>
      </g>
     </g>
    </g>
    <g id="ytick_40">
     <g id="line2d_55">
      <g>
       <use xlink:href="#m4dff02d4ce" x="394.363636" y="82.885973" style="stroke: #000000; stroke-width: 0.6"/>
      </g>
     </g>
    </g>
    <g id="ytick_41">
     <g id="line2d_56">
      <g>
       <use xlink:href="#m4dff02d4ce" x="394.363636" y="79.106554" style="stroke: #000000; stroke-width: 0.6"/>
      </g>
     </g>
    </g>
    <g id="ytick_42">
     <g id="line2d_57">
      <g>
       <use xlink:href="#m4dff02d4ce" x="394.363636" y="75.772871" style="stroke: #000000; stroke-width: 0.6"/>
      </g>
     </g>
    </g>
    <g id="ytick_43">
     <g id="line2d_58">
      <g>
       <use xlink:href="#m4dff02d4ce" x="394.363636" y="53.172229" style="stroke: #000000; stroke-width: 0.6"/>
      </g>
     </g>
    </g>
    <g id="text_27">
     <!-- [Cve_dap] -->
     <g transform="translate(357.034261 212.209687) rotate(-90) scale(0.12 -0.12)">
      <use xlink:href="#DejaVuSans-5b"/>
      <use xlink:href="#DejaVuSans-43" x="39.013672"/>
      <use xlink:href="#DejaVuSans-76" x="108.837891"/>
      <use xlink:href="#DejaVuSans-65" x="168.017578"/>
      <use xlink:href="#DejaVuSans-5f" x="229.541016"/>
      <use xlink:href="#DejaVuSans-64" x="279.541016"/>
      <use xlink:href="#DejaVuSans-61" x="343.017578"/>
      <use xlink:href="#DejaVuSans-70" x="404.296875"/>
      <use xlink:href="#DejaVuSans-5d" x="467.773438"/>
     </g>
    </g>
   </g>
   <g id="LineCollection_3">
    <path d="M 415.5 291.726625 
L 415.5 198.498618 
" clip-path="url(#p2020d7ac95)" style="fill: none; stroke: #000000; stroke-width: 1.5"/>
    <path d="M 415.814998 210.17986 
L 415.814998 178.517355 
" clip-path="url(#p2020d7ac95)" style="fill: none; stroke: #000000; stroke-width: 1.5"/>
    <path d="M 416.444994 211.955309 
L 416.444994 199.427979 
" clip-path="url(#p2020d7ac95)" style="fill: none; stroke: #000000; stroke-width: 1.5"/>
    <path d="M 417.704986 236.576779 
L 417.704986 220.338602 
" clip-path="url(#p2020d7ac95)" style="fill: none; stroke: #000000; stroke-width: 1.5"/>
    <path d="M 418.964978 250.431838 
L 418.964978 232.884977 
" clip-path="url(#p2020d7ac95)" style="fill: none; stroke: #000000; stroke-width: 1.5"/>
    <path d="M 420.22497 260.289942 
L 420.22497 237.067101 
" clip-path="url(#p2020d7ac95)" style="fill: none; stroke: #000000; stroke-width: 1.5"/>
    <path d="M 422.744953 278.778466 
L 422.744953 257.048364 
" clip-path="url(#p2020d7ac95)" style="fill: none; stroke: #000000; stroke-width: 1.5"/>
    <path d="M 426.524929 322.259116 
L 426.524929 270.98878 
" clip-path="url(#p2020d7ac95)" style="fill: none; stroke: #000000; stroke-width: 1.5"/>
    <path d="M 430.304904 310.655097 
L 430.304904 272.847502 
" clip-path="url(#p2020d7ac95)" style="fill: none; stroke: #000000; stroke-width: 1.5"/>
    <path d="M 611.743734 338.659358 
L 611.743734 245.431351 
" clip-path="url(#p2020d7ac95)" style="fill: none; stroke: #000000; stroke-width: 1.5"/>
    <path d="M 612.058732 232.793175 
L 612.058732 193.851812 
" clip-path="url(#p2020d7ac95)" style="fill: none; stroke: #000000; stroke-width: 1.5"/>
    <path d="M 612.37373 212.116175 
L 612.37373 178.517355 
" clip-path="url(#p2020d7ac95)" style="fill: none; stroke: #000000; stroke-width: 1.5"/>
    <path d="M 613.003726 205.266371 
L 613.003726 196.175215 
" clip-path="url(#p2020d7ac95)" style="fill: none; stroke: #000000; stroke-width: 1.5"/>
    <path d="M 614.263718 229.422736 
L 614.263718 215.691797 
" clip-path="url(#p2020d7ac95)" style="fill: none; stroke: #000000; stroke-width: 1.5"/>
    <path d="M 615.52371 240.724252 
L 615.52371 226.379449 
" clip-path="url(#p2020d7ac95)" style="fill: none; stroke: #000000; stroke-width: 1.5"/>
    <path d="M 616.783701 249.242473 
L 616.783701 231.026254 
" clip-path="url(#p2020d7ac95)" style="fill: none; stroke: #000000; stroke-width: 1.5"/>
    <path d="M 619.303685 270.152274 
L 619.303685 249.148795 
" clip-path="url(#p2020d7ac95)" style="fill: none; stroke: #000000; stroke-width: 1.5"/>
    <path d="M 623.083661 295.75867 
L 623.083661 262.15985 
" clip-path="url(#p2020d7ac95)" style="fill: none; stroke: #000000; stroke-width: 1.5"/>
    <path d="M 626.863636 292.627957 
L 626.863636 265.412613 
" clip-path="url(#p2020d7ac95)" style="fill: none; stroke: #000000; stroke-width: 1.5"/>
   </g>
   <g id="line2d_59">
    <path d="M 415.198082 361 
L 415.326136 222.916649 
L 415.533314 197.043573 
L 415.712189 193.362332 
L 415.735526 193.317113 
L 415.782199 193.408252 
L 415.926963 194.769274 
L 416.288874 201.395306 
L 417.482312 229.226434 
L 419.582266 277.526221 
L 420.457247 293.168933 
L 421.157231 302.325776 
L 421.769718 307.856976 
L 422.382205 311.477386 
L 422.994691 313.723302 
L 423.607178 315.077507 
L 424.219664 315.89183 
L 424.922872 316.449905 
L 425.847242 316.873839 
L 427.2397 317.247821 
L 430.305798 317.852882 
L 430.307518 317.798609 
L 430.321586 308.254625 
L 430.510317 208.968956 
L 430.726408 194.267121 
L 430.864404 192.972718 
L 430.894912 193.035214 
L 431.016945 194.029993 
L 431.322027 199.167382 
L 432.275734 220.465022 
L 434.17509 262.178311 
L 435.089595 277.463586 
L 435.79306 285.774076 
L 436.426179 290.788216 
L 436.988951 293.688092 
L 437.551723 295.546549 
L 438.114496 296.714101 
L 438.747614 297.518011 
L 439.45108 298.049509 
L 440.365584 298.45408 
L 441.913208 298.854292 
L 445.425927 299.497952 
L 445.42731 299.474373 
L 445.440138 295.030684 
L 445.678483 202.668992 
L 445.888296 193.212414 
L 445.978941 192.661161 
L 446.024264 192.761099 
L 446.140669 193.753324 
L 446.460543 199.150894 
L 447.572393 223.635338 
L 449.056434 254.633976 
L 449.880902 267.863102 
L 450.540476 275.507786 
L 451.20005 280.663997 
L 451.777177 283.557639 
L 452.354305 285.391245 
L 452.931432 286.530577 
L 453.591006 287.31698 
L 454.333027 287.834899 
L 455.322388 288.234027 
L 457.053769 288.647158 
L 460.546093 289.283448 
L 460.548403 289.223304 
L 460.567118 281.853301 
L 460.777166 204.484669 
L 460.986959 193.246438 
L 461.094481 192.382782 
L 461.13749 192.453513 
L 461.260852 193.466052 
L 461.566423 198.525739 
L 462.699337 222.96881 
L 464.02949 249.741323 
L 464.860835 262.459267 
L 465.525912 269.666191 
L 466.107854 273.961849 
L 466.689796 276.782622 
L 467.271738 278.562033 
L 467.85368 279.663952 
L 468.518756 280.423184 
L 469.266967 280.923757 
L 470.264582 281.312092 
L 472.093542 281.736831 
L 475.666139 282.374332 
L 475.668277 282.329167 
L 475.684975 277.517073 
L 475.926977 201.120213 
L 476.123114 192.73532 
L 476.230032 192.133759 
L 476.272798 192.266826 
L 476.441122 193.990214 
L 476.878762 202.083738 
L 479.289514 250.167083 
L 480.033137 260.25142 
L 480.694134 266.478726 
L 481.272507 270.099955 
L 481.85088 272.443689 
L 482.429253 273.913587 
L 483.007625 274.826123 
L 483.668623 275.462172 
L 484.49487 275.927809 
L 485.73424 276.325238 
L 488.212981 276.824298 
L 490.786173 277.285867 
L 490.789438 277.190082 
L 490.814113 268.315007 
L 491.036441 201.753563 
L 491.231081 192.679187 
L 491.343643 191.900832 
L 491.388668 192.018305 
L 491.515659 193.146528 
L 491.863921 199.049436 
L 494.569714 250.775284 
L 495.280121 259.149378 
L 495.911595 264.202028 
L 496.543068 267.447799 
L 497.095607 269.233253 
L 497.648146 270.369269 
L 498.27962 271.171044 
L 498.990027 271.70845 
L 499.937237 272.124369 
L 501.515921 272.527445 
L 505.906042 273.325122 
L 505.906641 273.320742 
L 505.91778 272.003889 
L 506.317709 193.110966 
L 506.467767 191.69681 
L 506.548533 192.05535 
L 506.736986 194.359353 
L 507.304188 205.294924 
L 509.046384 239.548605 
L 509.878579 251.572145 
L 510.525842 258.141161 
L 511.173104 262.513166 
L 511.727901 264.918186 
L 512.282698 266.463751 
L 512.837494 267.443676 
L 513.484757 268.148539 
L 514.224486 268.628325 
L 515.241613 269.014735 
L 517.090936 269.437712 
L 521.026026 270.143505 
L 521.028693 270.092492 
L 521.048651 265.338159 
L 521.310261 198.435646 
L 521.513121 191.769309 
L 521.570685 191.510348 
L 521.632908 191.64409 
L 521.788467 193.158517 
L 522.177646 199.992452 
L 524.368842 241.730346 
L 525.157951 251.835825 
L 525.803585 257.460615 
L 526.377482 260.775859 
L 526.951379 262.919544 
L 527.525277 264.267638 
L 528.099174 265.10945 
L 528.744808 265.694382 
L 529.605654 266.153623 
L 530.896922 266.546286 
L 533.694708 267.092427 
L 536.146168 267.521748 
L 536.149924 267.417677 
L 536.176898 259.470597 
L 536.408522 199.874164 
L 536.621693 191.703249 
L 536.707502 191.340192 
L 536.750407 191.462249 
L 536.919471 193.129512 
L 537.359037 200.982877 
L 539.295882 237.84706 
L 540.049582 248.032929 
L 540.719538 254.351927 
L 541.30575 258.029935 
L 541.891962 260.406864 
L 542.478173 261.89293 
L 543.064385 262.811817 
L 543.734341 263.449566 
L 544.571786 263.91475 
L 545.827953 264.311718 
L 548.424033 264.829025 
L 551.266144 265.324154 
L 551.269798 265.229736 
L 551.296139 258.095284 
L 551.529057 199.613717 
L 551.739582 191.567983 
L 551.821779 191.18315 
L 551.874282 191.3269 
L 552.034047 192.89347 
L 552.417485 199.559004 
L 554.472002 237.918984 
L 555.23306 247.615459 
L 555.918013 253.547219 
L 556.52686 256.95545 
L 557.135706 259.096679 
L 557.744553 260.404002 
L 558.3534 261.199167 
L 559.038353 261.741118 
L 559.951623 262.164535 
L 561.397634 262.554304 
L 565.126821 263.243008 
L 566.386111 263.464485 
L 566.390159 263.353276 
L 566.417527 256.014836 
L 566.650033 199.33873 
L 566.865081 191.371165 
L 566.931937 191.046299 
L 566.976507 191.111813 
L 567.092217 191.990423 
L 567.412343 196.99949 
L 569.86949 241.03368 
L 570.606003 249.027024 
L 571.260682 253.706533 
L 571.833526 256.338542 
L 572.40637 258.015408 
L 572.979214 259.065593 
L 573.633893 259.798043 
L 574.370406 260.287031 
L 575.434259 260.694808 
L 577.31646 261.123192 
L 581.505974 261.875741 
L 581.509021 261.816049 
L 581.532227 256.824825 
L 581.787907 197.820939 
L 581.997051 191.140779 
L 582.062026 190.918265 
L 582.105342 191.02041 
L 582.239785 192.178464 
L 582.609506 198.289917 
L 584.727389 236.806385 
L 585.480144 245.834605 
L 586.14926 251.233858 
L 586.734736 254.298139 
L 587.320212 256.249996 
L 587.905689 257.463668 
L 588.491165 258.216793 
L 589.160281 258.746828 
L 590.080315 259.175448 
L 591.502186 259.560601 
L 595.098682 260.227432 
L 596.625927 260.500588 
L 596.629668 260.41436 
L 596.655301 254.499473 
L 596.901888 198.096173 
L 597.102325 191.152862 
L 597.189723 190.809516 
L 597.220221 190.885532 
L 597.372708 192.219202 
L 597.754701 198.622265 
L 599.704043 234.198933 
L 600.481447 243.889697 
L 601.117505 249.31332 
L 601.753562 252.849866 
L 602.318947 254.836258 
L 602.884331 256.094256 
L 603.520389 256.963093 
L 604.227119 257.535772 
L 605.145869 257.966523 
L 606.55933 258.351397 
L 610.095456 259.008573 
L 611.745874 259.300531 
L 611.749846 259.20588 
L 611.776467 253.053665 
L 612.030731 197.33613 
L 612.229465 190.980866 
L 612.303284 190.700661 
L 612.352497 190.834679 
L 612.488671 192.061158 
L 612.86615 198.325769 
L 614.835641 233.896203 
L 615.622816 243.445384 
L 616.235063 248.505623 
L 616.84731 251.846098 
L 617.459557 253.938777 
L 618.071804 255.213736 
L 618.684051 255.988426 
L 619.383762 256.523226 
L 620.345864 256.949759 
L 621.920214 257.35326 
L 626.293407 258.145181 
L 627.493632 258.353333 
L 627.493632 258.353333 
" clip-path="url(#p2020d7ac95)" style="fill: none; stroke: #0000ff; stroke-width: 1.5; stroke-linecap: square"/>
   </g>
   <g id="line2d_60">
    <path d="M 415.5 217.085839 
L 415.814998 190.134368 
L 416.444994 205.004145 
L 417.704986 227.30881 
L 418.964978 240.319865 
L 420.22497 246.360712 
L 422.744953 265.877294 
L 426.524929 286.323237 
L 430.304904 285.858557 
L 611.743734 264.018572 
L 612.058732 207.095207 
L 612.37373 190.599049 
L 613.003726 200.35734 
L 614.263718 221.732644 
L 615.52371 232.652636 
L 616.783701 238.693483 
L 619.303685 257.745385 
L 623.083661 274.241543 
L 626.863636 275.867925 
" clip-path="url(#p2020d7ac95)" style="fill: none; stroke: #000000; stroke-width: 1.5; stroke-linecap: square"/>
    <g clip-path="url(#p2020d7ac95)">
     <use xlink:href="#m18b86954b9" x="415.5" y="217.085839" style="stroke: #000000; stroke-linejoin: miter"/>
     <use xlink:href="#m18b86954b9" x="415.814998" y="190.134368" style="stroke: #000000; stroke-linejoin: miter"/>
     <use xlink:href="#m18b86954b9" x="416.444994" y="205.004145" style="stroke: #000000; stroke-linejoin: miter"/>
     <use xlink:href="#m18b86954b9" x="417.704986" y="227.30881" style="stroke: #000000; stroke-linejoin: miter"/>
     <use xlink:href="#m18b86954b9" x="418.964978" y="240.319865" style="stroke: #000000; stroke-linejoin: miter"/>
     <use xlink:href="#m18b86954b9" x="420.22497" y="246.360712" style="stroke: #000000; stroke-linejoin: miter"/>
     <use xlink:href="#m18b86954b9" x="422.744953" y="265.877294" style="stroke: #000000; stroke-linejoin: miter"/>
     <use xlink:href="#m18b86954b9" x="426.524929" y="286.323237" style="stroke: #000000; stroke-linejoin: miter"/>
     <use xlink:href="#m18b86954b9" x="430.304904" y="285.858557" style="stroke: #000000; stroke-linejoin: miter"/>
     <use xlink:href="#m18b86954b9" x="611.743734" y="264.018572" style="stroke: #000000; stroke-linejoin: miter"/>
     <use xlink:href="#m18b86954b9" x="612.058732" y="207.095207" style="stroke: #000000; stroke-linejoin: miter"/>
     <use xlink:href="#m18b86954b9" x="612.37373" y="190.599049" style="stroke: #000000; stroke-linejoin: miter"/>
     <use xlink:href="#m18b86954b9" x="613.003726" y="200.35734" style="stroke: #000000; stroke-linejoin: miter"/>
     <use xlink:href="#m18b86954b9" x="614.263718" y="221.732644" style="stroke: #000000; stroke-linejoin: miter"/>
     <use xlink:href="#m18b86954b9" x="615.52371" y="232.652636" style="stroke: #000000; stroke-linejoin: miter"/>
     <use xlink:href="#m18b86954b9" x="616.783701" y="238.693483" style="stroke: #000000; stroke-linejoin: miter"/>
     <use xlink:href="#m18b86954b9" x="619.303685" y="257.745385" style="stroke: #000000; stroke-linejoin: miter"/>
     <use xlink:href="#m18b86954b9" x="623.083661" y="274.241543" style="stroke: #000000; stroke-linejoin: miter"/>
     <use xlink:href="#m18b86954b9" x="626.863636" y="275.867925" style="stroke: #000000; stroke-linejoin: miter"/>
    </g>
   </g>
   <g id="patch_9">
    <path d="M 394.363636 320.4 
L 394.363636 43.2 
" style="fill: none; stroke: #000000; stroke-width: 0.8; stroke-linejoin: miter; stroke-linecap: square"/>
   </g>
   <g id="patch_10">
    <path d="M 648 320.4 
L 648 43.2 
" style="fill: none; stroke: #000000; stroke-width: 0.8; stroke-linejoin: miter; stroke-linecap: square"/>
   </g>
   <g id="patch_11">
    <path d="M 394.363636 320.4 
L 648 320.4 
" style="fill: none; stroke: #000000; stroke-width: 0.8; stroke-linejoin: miter; stroke-linecap: square"/>
   </g>
   <g id="patch_12">
    <path d="M 394.363636 43.2 
L 648 43.2 
" style="fill: none; stroke: #000000; stroke-width: 0.8; stroke-linejoin: miter; stroke-linecap: square"/>
   </g>
   <g id="text_28">
    <!-- FDAMB102003 fm_dap5_dapagliflozin -->
    <g transform="translate(388.849006 37.2) scale(0.14 -0.14)">
     <use xlink:href="#DejaVuSans-46"/>
     <use xlink:href="#DejaVuSans-44" x="57.519531"/>
     <use xlink:href="#DejaVuSans-41" x="132.771484"/>
     <use xlink:href="#DejaVuSans-4d" x="201.179688"/>
     <use xlink:href="#DejaVuSans-42" x="287.458984"/>
     <use xlink:href="#DejaVuSans-31" x="356.0625"/>
     <use xlink:href="#DejaVuSans-30" x="419.685547"/>
     <use xlink:href="#DejaVuSans-32" x="483.308594"/>
     <use xlink:href="#DejaVuSans-30" x="546.931641"/>
     <use xlink:href="#DejaVuSans-30" x="610.554688"/>
     <use xlink:href="#DejaVuSans-33" x="674.177734"/>
     <use xlink:href="#DejaVuSans-20" x="737.800781"/>
     <use xlink:href="#DejaVuSans-66" x="769.587891"/>
     <use xlink:href="#DejaVuSans-6d" x="804.792969"/>
     <use xlink:href="#DejaVuSans-5f" x="902.205078"/>
     <use xlink:href="#DejaVuSans-64" x="952.205078"/>
     <use xlink:href="#DejaVuSans-61" x="1015.681641"/>
     <use xlink:href="#DejaVuSans-70" x="1076.960938"/>
     <use xlink:href="#DejaVuSans-35" x="1140.4375"/>
     <use xlink:href="#DejaVuSans-5f" x="1204.060547"/>
     <use xlink:href="#DejaVuSans-64" x="1254.060547"/>
     <use xlink:href="#DejaVuSans-61" x="1317.537109"/>
     <use xlink:href="#DejaVuSans-70" x="1378.816406"/>
     <use xlink:href="#DejaVuSans-61" x="1442.292969"/>
     <use xlink:href="#DejaVuSans-67" x="1503.572266"/>
     <use xlink:href="#DejaVuSans-6c" x="1567.048828"/>
     <use xlink:href="#DejaVuSans-69" x="1594.832031"/>
     <use xlink:href="#DejaVuSans-66" x="1622.615234"/>
     <use xlink:href="#DejaVuSans-6c" x="1657.820312"/>
     <use xlink:href="#DejaVuSans-6f" x="1685.603516"/>
     <use xlink:href="#DejaVuSans-7a" x="1746.785156"/>
     <use xlink:href="#DejaVuSans-69" x="1799.275391"/>
     <use xlink:href="#DejaVuSans-6e" x="1827.058594"/>
    </g>
   </g>
   <g id="legend_2">
    <g id="patch_13">
     <path d="M 504.95 80.834375 
L 641 80.834375 
Q 643 80.834375 643 78.834375 
L 643 50.2 
Q 643 48.2 641 48.2 
L 504.95 48.2 
Q 502.95 48.2 502.95 50.2 
L 502.95 78.834375 
Q 502.95 80.834375 504.95 80.834375 
z
" style="fill: #ffffff; opacity: 0.8; stroke: #cccccc; stroke-linejoin: miter"/>
    </g>
    <g id="line2d_61">
     <path d="M 506.95 56.298437 
L 516.95 56.298437 
L 526.95 56.298437 
" style="fill: none; stroke: #0000ff; stroke-width: 1.5; stroke-linecap: square"/>
    </g>
    <g id="text_29">
     <!-- observable -->
     <g transform="translate(534.95 59.798437) scale(0.1 -0.1)">
      <use xlink:href="#DejaVuSans-6f"/>
      <use xlink:href="#DejaVuSans-62" x="61.181641"/>
      <use xlink:href="#DejaVuSans-73" x="124.658203"/>
      <use xlink:href="#DejaVuSans-65" x="176.757812"/>
      <use xlink:href="#DejaVuSans-72" x="238.28125"/>
      <use xlink:href="#DejaVuSans-76" x="279.394531"/>
      <use xlink:href="#DejaVuSans-61" x="338.574219"/>
      <use xlink:href="#DejaVuSans-62" x="399.853516"/>
      <use xlink:href="#DejaVuSans-6c" x="463.330078"/>
      <use xlink:href="#DejaVuSans-65" x="491.113281"/>
     </g>
    </g>
    <g id="LineCollection_4">
     <path d="M 516.95 75.976562 
L 516.95 65.976562 
" style="fill: none; stroke: #000000; stroke-width: 1.5"/>
    </g>
    <g id="line2d_62">
     <path d="M 506.95 70.976562 
L 526.95 70.976562 
" style="fill: none; stroke: #000000; stroke-width: 1.5; stroke-linecap: square"/>
    </g>
    <g id="line2d_63">
     <g>
      <use xlink:href="#m18b86954b9" x="516.95" y="70.976562" style="stroke: #000000; stroke-linejoin: miter"/>
     </g>
    </g>
    <g id="text_30">
     <!-- reference_data ± SD -->
     <g transform="translate(534.95 74.476562) scale(0.1 -0.1)">
      <use xlink:href="#DejaVuSans-72"/>
      <use xlink:href="#DejaVuSans-65" x="38.863281"/>
      <use xlink:href="#DejaVuSans-66" x="100.386719"/>
      <use xlink:href="#DejaVuSans-65" x="135.591797"/>
      <use xlink:href="#DejaVuSans-72" x="197.115234"/>
      <use xlink:href="#DejaVuSans-65" x="235.978516"/>
      <use xlink:href="#DejaVuSans-6e" x="297.501953"/>
      <use xlink:href="#DejaVuSans-63" x="360.880859"/>
      <use xlink:href="#DejaVuSans-65" x="415.861328"/>
      <use xlink:href="#DejaVuSans-5f" x="477.384766"/>
      <use xlink:href="#DejaVuSans-64" x="527.384766"/>
      <use xlink:href="#DejaVuSans-61" x="590.861328"/>
      <use xlink:href="#DejaVuSans-74" x="652.140625"/>
      <use xlink:href="#DejaVuSans-61" x="691.349609"/>
      <use xlink:href="#DejaVuSans-20" x="752.628906"/>
      <use xlink:href="#DejaVuSans-b1" x="784.416016"/>
      <use xlink:href="#DejaVuSans-20" x="868.205078"/>
      <use xlink:href="#DejaVuSans-53" x="899.992188"/>
      <use xlink:href="#DejaVuSans-44" x="963.46875"/>
     </g>
    </g>
   </g>
  </g>
 </g>
 <defs>
  <clipPath id="pab108190fe">
   <rect x="90" y="43.2" width="253.636364" height="277.2"/>
  </clipPath>
  <clipPath id="p2020d7ac95">
   <rect x="394.363636" y="43.2" width="253.636364" height="277.2"/>
  </clipPath>
 </defs>
</svg>
