<?xml version="1.0" encoding="utf-8" standalone="no"?>
<!DOCTYPE svg PUBLIC "-//W3C//DTD SVG 1.1//EN"
  "http://www.w3.org/Graphics/SVG/1.1/DTD/svg11.dtd">
<svg xmlns:xlink="http://www.w3.org/1999/xlink" width="720pt" height="360pt" viewBox="0 0 720 360" xmlns="http://www.w3.org/2000/svg" version="1.1">
 <metadata>
  <rdf:RDF xmlns:dc="http://purl.org/dc/elements/1.1/" xmlns:cc="http://creativecommons.org/ns#" xmlns:rdf="http://www.w3.org/1999/02/22-rdf-syntax-ns#">
   <cc:Work>
    <dc:type rdf:resource="http://purl.org/dc/dcmitype/StillImage"/>
    <dc:date>2025-05-22T23:22:31.993583</dc:date>
    <dc:format>image/svg+xml</dc:format>
    <dc:creator>
     <cc:Agent>
      <dc:title>Matplotlib v3.9.0, https://matplotlib.org/</dc:title>
     </cc:Agent>
    </dc:creator>
   </cc:Work>
  </rdf:RDF>
 </metadata>
 <defs>
  <style type="text/css">*{stroke-linejoin: round; stroke-linecap: butt}</style>
 </defs>
 <g id="figure_1">
  <g id="patch_1">
   <path d="M 0 360 
L 720 360 
L 720 0 
L 0 0 
z
" style="fill: #ffffff"/>
  </g>
  <g id="axes_1">
   <g id="patch_2">
    <path d="M 90 320.4 
L 343.636364 320.4 
L 343.636364 43.2 
L 90 43.2 
z
" style="fill: #ffffff"/>
   </g>
   <g id="matplotlib.axis_1">
    <g id="xtick_1">
     <g id="line2d_1">
      <defs>
       <path id="m32f8d063bf" d="M 0 0 
L 0 3.5 
" style="stroke: #000000; stroke-width: 0.8"/>
      </defs>
      <g>
       <use xlink:href="#m32f8d063bf" x="111.009998" y="320.4" style="stroke: #000000; stroke-width: 0.8"/>
      </g>
     </g>
     <g id="text_1">
      <!-- 0 -->
      <g transform="translate(107.828748 334.998438) scale(0.1 -0.1)">
       <defs>
        <path id="DejaVuSans-30" d="M 2034 4250 
Q 1547 4250 1301 3770 
Q 1056 3291 1056 2328 
Q 1056 1369 1301 889 
Q 1547 409 2034 409 
Q 2525 409 2770 889 
Q 3016 1369 3016 2328 
Q 3016 3291 2770 3770 
Q 2525 4250 2034 4250 
z
M 2034 4750 
Q 2819 4750 3233 4129 
Q 3647 3509 3647 2328 
Q 3647 1150 3233 529 
Q 2819 -91 2034 -91 
Q 1250 -91 836 529 
Q 422 1150 422 2328 
Q 422 3509 836 4129 
Q 1250 4750 2034 4750 
z
" transform="scale(0.015625)"/>
       </defs>
       <use xlink:href="#DejaVuSans-30"/>
      </g>
     </g>
    </g>
    <g id="xtick_2">
     <g id="line2d_2">
      <g>
       <use xlink:href="#m32f8d063bf" x="163.462876" y="320.4" style="stroke: #000000; stroke-width: 0.8"/>
      </g>
     </g>
     <g id="text_2">
      <!-- 5000 -->
      <g transform="translate(150.737876 334.998438) scale(0.1 -0.1)">
       <defs>
        <path id="DejaVuSans-35" d="M 691 4666 
L 3169 4666 
L 3169 4134 
L 1269 4134 
L 1269 2991 
Q 1406 3038 1543 3061 
Q 1681 3084 1819 3084 
Q 2600 3084 3056 2656 
Q 3513 2228 3513 1497 
Q 3513 744 3044 326 
Q 2575 -91 1722 -91 
Q 1428 -91 1123 -41 
Q 819 9 494 109 
L 494 744 
Q 775 591 1075 516 
Q 1375 441 1709 441 
Q 2250 441 2565 725 
Q 2881 1009 2881 1497 
Q 2881 1984 2565 2268 
Q 2250 2553 1709 2553 
Q 1456 2553 1204 2497 
Q 953 2441 691 2322 
L 691 4666 
z
" transform="scale(0.015625)"/>
       </defs>
       <use xlink:href="#DejaVuSans-35"/>
       <use xlink:href="#DejaVuSans-30" x="63.623047"/>
       <use xlink:href="#DejaVuSans-30" x="127.246094"/>
       <use xlink:href="#DejaVuSans-30" x="190.869141"/>
      </g>
     </g>
    </g>
    <g id="xtick_3">
     <g id="line2d_3">
      <g>
       <use xlink:href="#m32f8d063bf" x="215.915753" y="320.4" style="stroke: #000000; stroke-width: 0.8"/>
      </g>
     </g>
     <g id="text_3">
      <!-- 10000 -->
      <g transform="translate(200.009503 334.998438) scale(0.1 -0.1)">
       <defs>
        <path id="DejaVuSans-31" d="M 794 531 
L 1825 531 
L 1825 4091 
L 703 3866 
L 703 4441 
L 1819 4666 
L 2450 4666 
L 2450 531 
L 3481 531 
L 3481 0 
L 794 0 
L 794 531 
z
" transform="scale(0.015625)"/>
       </defs>
       <use xlink:href="#DejaVuSans-31"/>
       <use xlink:href="#DejaVuSans-30" x="63.623047"/>
       <use xlink:href="#DejaVuSans-30" x="127.246094"/>
       <use xlink:href="#DejaVuSans-30" x="190.869141"/>
       <use xlink:href="#DejaVuSans-30" x="254.492188"/>
      </g>
     </g>
    </g>
    <g id="xtick_4">
     <g id="line2d_4">
      <g>
       <use xlink:href="#m32f8d063bf" x="268.368631" y="320.4" style="stroke: #000000; stroke-width: 0.8"/>
      </g>
     </g>
     <g id="text_4">
      <!-- 15000 -->
      <g transform="translate(252.462381 334.998438) scale(0.1 -0.1)">
       <use xlink:href="#DejaVuSans-31"/>
       <use xlink:href="#DejaVuSans-35" x="63.623047"/>
       <use xlink:href="#DejaVuSans-30" x="127.246094"/>
       <use xlink:href="#DejaVuSans-30" x="190.869141"/>
       <use xlink:href="#DejaVuSans-30" x="254.492188"/>
      </g>
     </g>
    </g>
    <g id="xtick_5">
     <g id="line2d_5">
      <g>
       <use xlink:href="#m32f8d063bf" x="320.821508" y="320.4" style="stroke: #000000; stroke-width: 0.8"/>
      </g>
     </g>
     <g id="text_5">
      <!-- 20000 -->
      <g transform="translate(304.915258 334.998438) scale(0.1 -0.1)">
       <defs>
        <path id="DejaVuSans-32" d="M 1228 531 
L 3431 531 
L 3431 0 
L 469 0 
L 469 531 
Q 828 903 1448 1529 
Q 2069 2156 2228 2338 
Q 2531 2678 2651 2914 
Q 2772 3150 2772 3378 
Q 2772 3750 2511 3984 
Q 2250 4219 1831 4219 
Q 1534 4219 1204 4116 
Q 875 4013 500 3803 
L 500 4441 
Q 881 4594 1212 4672 
Q 1544 4750 1819 4750 
Q 2544 4750 2975 4387 
Q 3406 4025 3406 3419 
Q 3406 3131 3298 2873 
Q 3191 2616 2906 2266 
Q 2828 2175 2409 1742 
Q 1991 1309 1228 531 
z
" transform="scale(0.015625)"/>
       </defs>
       <use xlink:href="#DejaVuSans-32"/>
       <use xlink:href="#DejaVuSans-30" x="63.623047"/>
       <use xlink:href="#DejaVuSans-30" x="127.246094"/>
       <use xlink:href="#DejaVuSans-30" x="190.869141"/>
       <use xlink:href="#DejaVuSans-30" x="254.492188"/>
      </g>
     </g>
    </g>
    <g id="text_6">
     <!-- time -->
     <g transform="translate(203.262869 350.19625) scale(0.12 -0.12)">
      <defs>
       <path id="DejaVuSans-74" d="M 1172 4494 
L 1172 3500 
L 2356 3500 
L 2356 3053 
L 1172 3053 
L 1172 1153 
Q 1172 725 1289 603 
Q 1406 481 1766 481 
L 2356 481 
L 2356 0 
L 1766 0 
Q 1100 0 847 248 
Q 594 497 594 1153 
L 594 3053 
L 172 3053 
L 172 3500 
L 594 3500 
L 594 4494 
L 1172 4494 
z
" transform="scale(0.015625)"/>
       <path id="DejaVuSans-69" d="M 603 3500 
L 1178 3500 
L 1178 0 
L 603 0 
L 603 3500 
z
M 603 4863 
L 1178 4863 
L 1178 4134 
L 603 4134 
L 603 4863 
z
" transform="scale(0.015625)"/>
       <path id="DejaVuSans-6d" d="M 3328 2828 
Q 3544 3216 3844 3400 
Q 4144 3584 4550 3584 
Q 5097 3584 5394 3201 
Q 5691 2819 5691 2113 
L 5691 0 
L 5113 0 
L 5113 2094 
Q 5113 2597 4934 2840 
Q 4756 3084 4391 3084 
Q 3944 3084 3684 2787 
Q 3425 2491 3425 1978 
L 3425 0 
L 2847 0 
L 2847 2094 
Q 2847 2600 2669 2842 
Q 2491 3084 2119 3084 
Q 1678 3084 1418 2786 
Q 1159 2488 1159 1978 
L 1159 0 
L 581 0 
L 581 3500 
L 1159 3500 
L 1159 2956 
Q 1356 3278 1631 3431 
Q 1906 3584 2284 3584 
Q 2666 3584 2933 3390 
Q 3200 3197 3328 2828 
z
" transform="scale(0.015625)"/>
       <path id="DejaVuSans-65" d="M 3597 1894 
L 3597 1613 
L 953 1613 
Q 991 1019 1311 708 
Q 1631 397 2203 397 
Q 2534 397 2845 478 
Q 3156 559 3463 722 
L 3463 178 
Q 3153 47 2828 -22 
Q 2503 -91 2169 -91 
Q 1331 -91 842 396 
Q 353 884 353 1716 
Q 353 2575 817 3079 
Q 1281 3584 2069 3584 
Q 2775 3584 3186 3129 
Q 3597 2675 3597 1894 
z
M 3022 2063 
Q 3016 2534 2758 2815 
Q 2500 3097 2075 3097 
Q 1594 3097 1305 2825 
Q 1016 2553 972 2059 
L 3022 2063 
z
" transform="scale(0.015625)"/>
      </defs>
      <use xlink:href="#DejaVuSans-74"/>
      <use xlink:href="#DejaVuSans-69" x="39.208984"/>
      <use xlink:href="#DejaVuSans-6d" x="66.992188"/>
      <use xlink:href="#DejaVuSans-65" x="164.404297"/>
     </g>
    </g>
   </g>
   <g id="matplotlib.axis_2">
    <g id="ytick_1">
     <g id="line2d_6">
      <defs>
       <path id="m59fa6d1ca5" d="M 0 0 
L -3.5 0 
" style="stroke: #000000; stroke-width: 0.8"/>
      </defs>
      <g>
       <use xlink:href="#m59fa6d1ca5" x="90" y="280.667592" style="stroke: #000000; stroke-width: 0.8"/>
      </g>
     </g>
     <g id="text_7">
      <!-- −2 -->
      <g transform="translate(68.257812 284.466811) scale(0.1 -0.1)">
       <defs>
        <path id="DejaVuSans-2212" d="M 678 2272 
L 4684 2272 
L 4684 1741 
L 678 1741 
L 678 2272 
z
" transform="scale(0.015625)"/>
       </defs>
       <use xlink:href="#DejaVuSans-2212"/>
       <use xlink:href="#DejaVuSans-32" x="83.789062"/>
      </g>
     </g>
    </g>
    <g id="ytick_2">
     <g id="line2d_7">
      <g>
       <use xlink:href="#m59fa6d1ca5" x="90" y="240.83824" style="stroke: #000000; stroke-width: 0.8"/>
      </g>
     </g>
     <g id="text_8">
      <!-- 0 -->
      <g transform="translate(76.6375 244.637459) scale(0.1 -0.1)">
       <use xlink:href="#DejaVuSans-30"/>
      </g>
     </g>
    </g>
    <g id="ytick_3">
     <g id="line2d_8">
      <g>
       <use xlink:href="#m59fa6d1ca5" x="90" y="201.008888" style="stroke: #000000; stroke-width: 0.8"/>
      </g>
     </g>
     <g id="text_9">
      <!-- 2 -->
      <g transform="translate(76.6375 204.808106) scale(0.1 -0.1)">
       <use xlink:href="#DejaVuSans-32"/>
      </g>
     </g>
    </g>
    <g id="ytick_4">
     <g id="line2d_9">
      <g>
       <use xlink:href="#m59fa6d1ca5" x="90" y="161.179536" style="stroke: #000000; stroke-width: 0.8"/>
      </g>
     </g>
     <g id="text_10">
      <!-- 4 -->
      <g transform="translate(76.6375 164.978754) scale(0.1 -0.1)">
       <defs>
        <path id="DejaVuSans-34" d="M 2419 4116 
L 825 1625 
L 2419 1625 
L 2419 4116 
z
M 2253 4666 
L 3047 4666 
L 3047 1625 
L 3713 1625 
L 3713 1100 
L 3047 1100 
L 3047 0 
L 2419 0 
L 2419 1100 
L 313 1100 
L 313 1709 
L 2253 4666 
z
" transform="scale(0.015625)"/>
       </defs>
       <use xlink:href="#DejaVuSans-34"/>
      </g>
     </g>
    </g>
    <g id="ytick_5">
     <g id="line2d_10">
      <g>
       <use xlink:href="#m59fa6d1ca5" x="90" y="121.350183" style="stroke: #000000; stroke-width: 0.8"/>
      </g>
     </g>
     <g id="text_11">
      <!-- 6 -->
      <g transform="translate(76.6375 125.149402) scale(0.1 -0.1)">
       <defs>
        <path id="DejaVuSans-36" d="M 2113 2584 
Q 1688 2584 1439 2293 
Q 1191 2003 1191 1497 
Q 1191 994 1439 701 
Q 1688 409 2113 409 
Q 2538 409 2786 701 
Q 3034 994 3034 1497 
Q 3034 2003 2786 2293 
Q 2538 2584 2113 2584 
z
M 3366 4563 
L 3366 3988 
Q 3128 4100 2886 4159 
Q 2644 4219 2406 4219 
Q 1781 4219 1451 3797 
Q 1122 3375 1075 2522 
Q 1259 2794 1537 2939 
Q 1816 3084 2150 3084 
Q 2853 3084 3261 2657 
Q 3669 2231 3669 1497 
Q 3669 778 3244 343 
Q 2819 -91 2113 -91 
Q 1303 -91 875 529 
Q 447 1150 447 2328 
Q 447 3434 972 4092 
Q 1497 4750 2381 4750 
Q 2619 4750 2861 4703 
Q 3103 4656 3366 4563 
z
" transform="scale(0.015625)"/>
       </defs>
       <use xlink:href="#DejaVuSans-36"/>
      </g>
     </g>
    </g>
    <g id="ytick_6">
     <g id="line2d_11">
      <g>
       <use xlink:href="#m59fa6d1ca5" x="90" y="81.520831" style="stroke: #000000; stroke-width: 0.8"/>
      </g>
     </g>
     <g id="text_12">
      <!-- 8 -->
      <g transform="translate(76.6375 85.32005) scale(0.1 -0.1)">
       <defs>
        <path id="DejaVuSans-38" d="M 2034 2216 
Q 1584 2216 1326 1975 
Q 1069 1734 1069 1313 
Q 1069 891 1326 650 
Q 1584 409 2034 409 
Q 2484 409 2743 651 
Q 3003 894 3003 1313 
Q 3003 1734 2745 1975 
Q 2488 2216 2034 2216 
z
M 1403 2484 
Q 997 2584 770 2862 
Q 544 3141 544 3541 
Q 544 4100 942 4425 
Q 1341 4750 2034 4750 
Q 2731 4750 3128 4425 
Q 3525 4100 3525 3541 
Q 3525 3141 3298 2862 
Q 3072 2584 2669 2484 
Q 3125 2378 3379 2068 
Q 3634 1759 3634 1313 
Q 3634 634 3220 271 
Q 2806 -91 2034 -91 
Q 1263 -91 848 271 
Q 434 634 434 1313 
Q 434 1759 690 2068 
Q 947 2378 1403 2484 
z
M 1172 3481 
Q 1172 3119 1398 2916 
Q 1625 2713 2034 2713 
Q 2441 2713 2670 2916 
Q 2900 3119 2900 3481 
Q 2900 3844 2670 4047 
Q 2441 4250 2034 4250 
Q 1625 4250 1398 4047 
Q 1172 3844 1172 3481 
z
" transform="scale(0.015625)"/>
       </defs>
       <use xlink:href="#DejaVuSans-38"/>
      </g>
     </g>
    </g>
    <g id="text_13">
     <!-- [Cve_dap] -->
     <g transform="translate(61.428438 212.209687) rotate(-90) scale(0.12 -0.12)">
      <defs>
       <path id="DejaVuSans-5b" d="M 550 4863 
L 1875 4863 
L 1875 4416 
L 1125 4416 
L 1125 -397 
L 1875 -397 
L 1875 -844 
L 550 -844 
L 550 4863 
z
" transform="scale(0.015625)"/>
       <path id="DejaVuSans-43" d="M 4122 4306 
L 4122 3641 
Q 3803 3938 3442 4084 
Q 3081 4231 2675 4231 
Q 1875 4231 1450 3742 
Q 1025 3253 1025 2328 
Q 1025 1406 1450 917 
Q 1875 428 2675 428 
Q 3081 428 3442 575 
Q 3803 722 4122 1019 
L 4122 359 
Q 3791 134 3420 21 
Q 3050 -91 2638 -91 
Q 1578 -91 968 557 
Q 359 1206 359 2328 
Q 359 3453 968 4101 
Q 1578 4750 2638 4750 
Q 3056 4750 3426 4639 
Q 3797 4528 4122 4306 
z
" transform="scale(0.015625)"/>
       <path id="DejaVuSans-76" d="M 191 3500 
L 800 3500 
L 1894 563 
L 2988 3500 
L 3597 3500 
L 2284 0 
L 1503 0 
L 191 3500 
z
" transform="scale(0.015625)"/>
       <path id="DejaVuSans-5f" d="M 3263 -1063 
L 3263 -1509 
L -63 -1509 
L -63 -1063 
L 3263 -1063 
z
" transform="scale(0.015625)"/>
       <path id="DejaVuSans-64" d="M 2906 2969 
L 2906 4863 
L 3481 4863 
L 3481 0 
L 2906 0 
L 2906 525 
Q 2725 213 2448 61 
Q 2172 -91 1784 -91 
Q 1150 -91 751 415 
Q 353 922 353 1747 
Q 353 2572 751 3078 
Q 1150 3584 1784 3584 
Q 2172 3584 2448 3432 
Q 2725 3281 2906 2969 
z
M 947 1747 
Q 947 1113 1208 752 
Q 1469 391 1925 391 
Q 2381 391 2643 752 
Q 2906 1113 2906 1747 
Q 2906 2381 2643 2742 
Q 2381 3103 1925 3103 
Q 1469 3103 1208 2742 
Q 947 2381 947 1747 
z
" transform="scale(0.015625)"/>
       <path id="DejaVuSans-61" d="M 2194 1759 
Q 1497 1759 1228 1600 
Q 959 1441 959 1056 
Q 959 750 1161 570 
Q 1363 391 1709 391 
Q 2188 391 2477 730 
Q 2766 1069 2766 1631 
L 2766 1759 
L 2194 1759 
z
M 3341 1997 
L 3341 0 
L 2766 0 
L 2766 531 
Q 2569 213 2275 61 
Q 1981 -91 1556 -91 
Q 1019 -91 701 211 
Q 384 513 384 1019 
Q 384 1609 779 1909 
Q 1175 2209 1959 2209 
L 2766 2209 
L 2766 2266 
Q 2766 2663 2505 2880 
Q 2244 3097 1772 3097 
Q 1472 3097 1187 3025 
Q 903 2953 641 2809 
L 641 3341 
Q 956 3463 1253 3523 
Q 1550 3584 1831 3584 
Q 2591 3584 2966 3190 
Q 3341 2797 3341 1997 
z
" transform="scale(0.015625)"/>
       <path id="DejaVuSans-70" d="M 1159 525 
L 1159 -1331 
L 581 -1331 
L 581 3500 
L 1159 3500 
L 1159 2969 
Q 1341 3281 1617 3432 
Q 1894 3584 2278 3584 
Q 2916 3584 3314 3078 
Q 3713 2572 3713 1747 
Q 3713 922 3314 415 
Q 2916 -91 2278 -91 
Q 1894 -91 1617 61 
Q 1341 213 1159 525 
z
M 3116 1747 
Q 3116 2381 2855 2742 
Q 2594 3103 2138 3103 
Q 1681 3103 1420 2742 
Q 1159 2381 1159 1747 
Q 1159 1113 1420 752 
Q 1681 391 2138 391 
Q 2594 391 2855 752 
Q 3116 1113 3116 1747 
z
" transform="scale(0.015625)"/>
       <path id="DejaVuSans-5d" d="M 1947 4863 
L 1947 -844 
L 622 -844 
L 622 -397 
L 1369 -397 
L 1369 4416 
L 622 4416 
L 622 4863 
L 1947 4863 
z
" transform="scale(0.015625)"/>
      </defs>
      <use xlink:href="#DejaVuSans-5b"/>
      <use xlink:href="#DejaVuSans-43" x="39.013672"/>
      <use xlink:href="#DejaVuSans-76" x="108.837891"/>
      <use xlink:href="#DejaVuSans-65" x="168.017578"/>
      <use xlink:href="#DejaVuSans-5f" x="229.541016"/>
      <use xlink:href="#DejaVuSans-64" x="279.541016"/>
      <use xlink:href="#DejaVuSans-61" x="343.017578"/>
      <use xlink:href="#DejaVuSans-70" x="404.296875"/>
      <use xlink:href="#DejaVuSans-5d" x="467.773438"/>
     </g>
    </g>
    <g id="text_14">
     <!-- 1e−5 -->
     <g transform="translate(90 40.2) scale(0.1 -0.1)">
      <use xlink:href="#DejaVuSans-31"/>
      <use xlink:href="#DejaVuSans-65" x="63.623047"/>
      <use xlink:href="#DejaVuSans-2212" x="125.146484"/>
      <use xlink:href="#DejaVuSans-35" x="208.935547"/>
     </g>
    </g>
   </g>
   <g id="LineCollection_1">
    <path d="M 111.136364 307.8 
L 111.136364 161.688312 
" clip-path="url(#pd8810274f8)" style="fill: none; stroke: #000000; stroke-width: 1.5"/>
    <path d="M 111.324716 227.159343 
L 111.324716 81.047655 
" clip-path="url(#pd8810274f8)" style="fill: none; stroke: #000000; stroke-width: 1.5"/>
    <path d="M 111.639433 159.597826 
L 111.639433 76.565557 
" clip-path="url(#pd8810274f8)" style="fill: none; stroke: #000000; stroke-width: 1.5"/>
    <path d="M 111.95415 158.707629 
L 111.95415 131.093714 
" clip-path="url(#pd8810274f8)" style="fill: none; stroke: #000000; stroke-width: 1.5"/>
    <path d="M 112.268867 188.786834 
L 112.268867 158.829113 
" clip-path="url(#pd8810274f8)" style="fill: none; stroke: #000000; stroke-width: 1.5"/>
    <path d="M 113.527736 214.691289 
L 113.527736 200.804454 
" clip-path="url(#pd8810274f8)" style="fill: none; stroke: #000000; stroke-width: 1.5"/>
    <path d="M 114.786605 219.127554 
L 114.786605 210.244093 
" clip-path="url(#pd8810274f8)" style="fill: none; stroke: #000000; stroke-width: 1.5"/>
    <path d="M 116.044184 226.84567 
L 116.044184 217.457943 
" clip-path="url(#pd8810274f8)" style="fill: none; stroke: #000000; stroke-width: 1.5"/>
    <path d="M 117.304344 229.864886 
L 117.304344 224.502746 
" clip-path="url(#pd8810274f8)" style="fill: none; stroke: #000000; stroke-width: 1.5"/>
    <path d="M 118.563213 230.973097 
L 118.563213 228.631166 
" clip-path="url(#pd8810274f8)" style="fill: none; stroke: #000000; stroke-width: 1.5"/>
    <path d="M 119.822082 232.266108 
L 119.822082 229.677779 
" clip-path="url(#pd8810274f8)" style="fill: none; stroke: #000000; stroke-width: 1.5"/>
    <path d="M 122.33982 235.600167 
L 122.33982 233.040578 
" clip-path="url(#pd8810274f8)" style="fill: none; stroke: #000000; stroke-width: 1.5"/>
    <path d="M 124.857558 234.93161 
L 124.857558 233.709136 
" clip-path="url(#pd8810274f8)" style="fill: none; stroke: #000000; stroke-width: 1.5"/>
    <path d="M 126.116427 235.674723 
L 126.116427 234.606049 
" clip-path="url(#pd8810274f8)" style="fill: none; stroke: #000000; stroke-width: 1.5"/>
    <path d="M 201.64857 233.342082 
L 201.64857 231.217758 
" clip-path="url(#pd8810274f8)" style="fill: none; stroke: #000000; stroke-width: 1.5"/>
    <path d="M 201.774457 235.564965 
L 201.774457 221.009981 
" clip-path="url(#pd8810274f8)" style="fill: none; stroke: #000000; stroke-width: 1.5"/>
    <path d="M 201.963288 243.596862 
L 201.963288 97.485174 
" clip-path="url(#pd8810274f8)" style="fill: none; stroke: #000000; stroke-width: 1.5"/>
    <path d="M 202.278005 159.739994 
L 202.278005 55.8 
" clip-path="url(#pd8810274f8)" style="fill: none; stroke: #000000; stroke-width: 1.5"/>
    <path d="M 202.592722 150.837 
L 202.592722 106.347198 
" clip-path="url(#pd8810274f8)" style="fill: none; stroke: #000000; stroke-width: 1.5"/>
    <path d="M 202.90744 185.830155 
L 202.90744 134.405135 
" clip-path="url(#pd8810274f8)" style="fill: none; stroke: #000000; stroke-width: 1.5"/>
    <path d="M 204.166309 204.778727 
L 204.166309 186.953633 
" clip-path="url(#pd8810274f8)" style="fill: none; stroke: #000000; stroke-width: 1.5"/>
    <path d="M 205.425178 212.899609 
L 205.425178 204.094533 
" clip-path="url(#pd8810274f8)" style="fill: none; stroke: #000000; stroke-width: 1.5"/>
    <path d="M 206.682756 219.193587 
L 206.682756 212.372108 
" clip-path="url(#pd8810274f8)" style="fill: none; stroke: #000000; stroke-width: 1.5"/>
    <path d="M 207.942916 226.187809 
L 207.942916 220.583696 
" clip-path="url(#pd8810274f8)" style="fill: none; stroke: #000000; stroke-width: 1.5"/>
    <path d="M 209.201785 227.439929 
L 209.201785 221.835823 
" clip-path="url(#pd8810274f8)" style="fill: none; stroke: #000000; stroke-width: 1.5"/>
    <path d="M 210.460654 229.157987 
L 210.460654 225.476865 
" clip-path="url(#pd8810274f8)" style="fill: none; stroke: #000000; stroke-width: 1.5"/>
    <path d="M 212.978392 233.975376 
L 212.978392 231.812492 
" clip-path="url(#pd8810274f8)" style="fill: none; stroke: #000000; stroke-width: 1.5"/>
    <path d="M 215.49613 234.309774 
L 215.49613 231.812492 
" clip-path="url(#pd8810274f8)" style="fill: none; stroke: #000000; stroke-width: 1.5"/>
    <path d="M 216.754999 234.608261 
L 216.754999 232.002451 
" clip-path="url(#pd8810274f8)" style="fill: none; stroke: #000000; stroke-width: 1.5"/>
    <path d="M 307.393571 234.476047 
L 307.393571 231.209955 
" clip-path="url(#pd8810274f8)" style="fill: none; stroke: #000000; stroke-width: 1.5"/>
    <path d="M 307.519458 233.099082 
L 307.519458 231.209955 
" clip-path="url(#pd8810274f8)" style="fill: none; stroke: #000000; stroke-width: 1.5"/>
    <path d="M 307.708289 219.046681 
L 307.708289 160.056025 
" clip-path="url(#pd8810274f8)" style="fill: none; stroke: #000000; stroke-width: 1.5"/>
    <path d="M 308.023006 107.821063 
L 308.023006 67.396221 
" clip-path="url(#pd8810274f8)" style="fill: none; stroke: #000000; stroke-width: 1.5"/>
    <path d="M 308.337723 154.15941 
L 308.337723 116.198492 
" clip-path="url(#pd8810274f8)" style="fill: none; stroke: #000000; stroke-width: 1.5"/>
    <path d="M 308.65244 167.012308 
L 308.65244 153.099742 
" clip-path="url(#pd8810274f8)" style="fill: none; stroke: #000000; stroke-width: 1.5"/>
    <path d="M 309.911309 205.016505 
L 309.911309 190.599617 
" clip-path="url(#pd8810274f8)" style="fill: none; stroke: #000000; stroke-width: 1.5"/>
    <path d="M 311.170178 216.761369 
L 311.170178 202.428108 
" clip-path="url(#pd8810274f8)" style="fill: none; stroke: #000000; stroke-width: 1.5"/>
    <path d="M 312.427757 221.53988 
L 312.427757 210.858871 
" clip-path="url(#pd8810274f8)" style="fill: none; stroke: #000000; stroke-width: 1.5"/>
    <path d="M 313.687917 225.461449 
L 313.687917 216.950901 
" clip-path="url(#pd8810274f8)" style="fill: none; stroke: #000000; stroke-width: 1.5"/>
    <path d="M 314.946786 227.711027 
L 314.946786 217.439139 
" clip-path="url(#pd8810274f8)" style="fill: none; stroke: #000000; stroke-width: 1.5"/>
    <path d="M 316.205655 229.046729 
L 316.205655 224.703418 
" clip-path="url(#pd8810274f8)" style="fill: none; stroke: #000000; stroke-width: 1.5"/>
    <path d="M 318.723393 233.016688 
L 318.723393 229.00142 
" clip-path="url(#pd8810274f8)" style="fill: none; stroke: #000000; stroke-width: 1.5"/>
    <path d="M 321.241131 234.333352 
L 321.241131 229.243355 
" clip-path="url(#pd8810274f8)" style="fill: none; stroke: #000000; stroke-width: 1.5"/>
    <path d="M 322.5 234.396444 
L 322.5 233.006417 
" clip-path="url(#pd8810274f8)" style="fill: none; stroke: #000000; stroke-width: 1.5"/>
   </g>
   <g id="line2d_12">
    <path d="M 111.009998 240.83824 
L 111.017797 240.742695 
L 111.050887 235.365571 
L 111.250689 147.481391 
L 111.482492 102.18511 
L 111.567595 99.98624 
L 111.595962 100.243873 
L 111.709433 104.539998 
L 112.054619 130.303081 
L 112.714207 175.535582 
L 113.264599 199.835233 
L 113.784177 214.522912 
L 114.303754 223.857308 
L 114.823332 229.705437 
L 115.342909 233.331005 
L 115.862486 235.561097 
L 116.382064 236.924919 
L 116.901641 237.755636 
L 117.525134 238.334609 
L 118.252542 238.690077 
L 119.291697 238.91471 
L 121.062144 239.032394 
L 126.121805 239.075308 
L 126.145433 236.518031 
L 126.249843 193.360078 
L 126.521557 106.48976 
L 126.668593 98.261852 
L 126.689598 98.353272 
L 126.776082 100.828305 
L 127.037995 118.65652 
L 127.826607 174.148074 
L 128.349472 197.367968 
L 128.901854 213.073056 
L 129.454235 222.772265 
L 130.006616 228.668638 
L 130.558997 232.213011 
L 131.111379 234.326593 
L 131.66376 235.580314 
L 132.216141 236.322005 
L 132.847434 236.80695 
L 133.63655 237.120783 
L 134.820225 237.319963 
L 137.266485 237.442303 
L 141.230221 237.450116 
L 141.260757 232.872108 
L 141.424554 159.748343 
L 141.675868 100.175882 
L 141.777119 96.688546 
L 141.828787 97.362475 
L 141.985878 105.16647 
L 143.323386 190.822175 
L 143.908977 209.219333 
L 144.421369 219.210629 
L 144.933761 225.528748 
L 145.446152 229.482537 
L 145.958544 231.938255 
L 146.470936 233.455831 
L 147.056527 234.491483 
L 147.642117 235.087313 
L 148.374106 235.49283 
L 149.325691 235.743147 
L 150.936065 235.904804 
L 155.913586 236.080425 
L 156.337161 235.995251 
L 156.369998 230.670854 
L 156.585326 137.289743 
L 156.807201 97.154092 
L 156.893492 95.280432 
L 156.922575 95.646808 
L 157.067995 102.147124 
L 158.587994 195.298512 
L 159.157226 211.035976 
L 159.726457 220.604127 
L 160.295688 226.32937 
L 160.793766 229.38562 
L 161.362997 231.513997 
L 161.932228 232.760432 
L 162.50146 233.490245 
L 163.141845 233.959176 
L 163.995692 234.281058 
L 165.276462 234.487527 
L 168.122619 234.653856 
L 171.442116 234.730696 
L 171.443515 234.689924 
L 171.473752 230.090376 
L 171.647074 152.925678 
L 171.882293 97.938718 
L 171.979306 93.986176 
L 172.038423 94.54755 
L 172.186215 101.602958 
L 173.575113 189.632419 
L 174.112106 206.281138 
L 174.649099 216.745442 
L 175.186546 223.224378 
L 175.690543 226.994345 
L 176.194541 229.356387 
L 176.698539 230.830448 
L 177.303337 231.886447 
L 177.908134 232.487415 
L 178.613731 232.875015 
L 179.621727 233.144961 
L 181.33532 233.330589 
L 186.546256 233.576036 
L 186.564126 232.226272 
L 186.641469 204.569237 
L 186.966292 98.815064 
L 187.106728 92.788206 
L 187.199495 95.23075 
L 187.446873 111.826758 
L 188.253839 168.769767 
L 188.834298 193.980956 
L 189.414757 209.514501 
L 189.922659 217.936369 
L 190.43056 223.266104 
L 190.938462 226.6099 
L 191.446364 228.69583 
L 191.954266 229.993344 
L 192.534725 230.887921 
L 193.187741 231.459262 
L 193.985873 231.827486 
L 195.146791 232.075249 
L 197.39607 232.270861 
L 201.653377 232.479795 
L 201.655922 232.422495 
L 201.686241 227.9053 
L 201.853259 153.448674 
L 202.083091 96.711181 
L 202.204107 91.67702 
L 202.228311 91.846742 
L 202.325124 95.042654 
L 202.617969 115.938947 
L 203.353992 167.352612 
L 203.916458 192.076678 
L 204.426797 206.418808 
L 204.937136 215.614897 
L 205.447475 221.434344 
L 205.957814 225.083231 
L 206.468153 227.357361 
L 206.978492 228.77036 
L 207.573887 229.75858 
L 208.169283 230.3297 
L 208.934791 230.733339 
L 209.955469 230.996362 
L 211.826712 231.204877 
L 216.759373 231.491306 
L 216.760316 231.477184 
L 216.782944 229.129232 
L 216.885881 187.020451 
L 217.165988 98.197277 
L 217.303293 90.696996 
L 217.333267 90.836967 
L 217.453163 95.17983 
L 217.812851 122.09675 
L 218.512187 169.133746 
L 219.059897 192.358304 
L 219.607607 207.053049 
L 220.155317 216.154544 
L 220.668942 221.441671 
L 221.183155 224.745551 
L 221.697368 226.796411 
L 222.211581 228.066905 
L 222.828637 228.972985 
L 223.445693 229.489423 
L 224.268434 229.861185 
L 225.502546 230.121064 
L 227.970769 230.349015 
L 231.866047 230.582444 
L 231.868758 230.523175 
L 231.897945 226.302638 
L 232.053318 157.108502 
L 232.296007 94.810653 
L 232.40679 89.80722 
L 232.451104 90.108302 
L 232.565948 94.631491 
L 232.953869 123.965243 
L 233.590327 166.740075 
L 234.181326 191.965924 
L 234.746905 206.842702 
L 235.312485 215.906509 
L 235.878064 221.34858 
L 236.443644 224.585145 
L 237.009223 226.500162 
L 237.574803 227.632637 
L 238.140382 228.305845 
L 238.786759 228.754668 
L 239.675527 229.082836 
L 241.049077 229.320023 
L 244.361757 229.596803 
L 246.972664 229.757105 
L 246.975449 229.692249 
L 247.007578 224.63463 
L 247.215404 133.955575 
L 247.434499 91.509805 
L 247.528658 88.97391 
L 247.575737 89.689207 
L 247.731172 97.470609 
L 249.022084 181.291399 
L 249.607837 200.452465 
L 250.193591 212.025193 
L 250.695665 218.114867 
L 251.197739 221.969186 
L 251.699813 224.394564 
L 252.201888 225.916657 
L 252.787641 226.993267 
L 253.373394 227.623852 
L 254.126506 228.077075 
L 255.130654 228.38 
L 256.804235 228.61384 
L 262.07672 229.02401 
L 262.088926 228.522345 
L 262.143183 213.689529 
L 262.527089 91.709637 
L 262.619079 88.238774 
L 262.665075 88.557475 
L 262.770443 92.598313 
L 263.134199 119.79613 
L 263.810179 165.553333 
L 264.397757 190.529839 
L 264.989381 205.889788 
L 265.496488 214.002727 
L 266.003595 219.14141 
L 266.510702 222.370996 
L 267.017809 224.391652 
L 267.524916 225.654531 
L 268.116541 226.546054 
L 268.792683 227.124313 
L 269.637861 227.506751 
L 270.821111 227.768071 
L 273.272128 228.029906 
L 277.184698 228.330896 
L 277.188089 228.262683 
L 277.217425 223.994563 
L 277.365372 158.092972 
L 277.621003 92.042953 
L 277.745295 87.559133 
L 277.766011 87.782861 
L 277.90256 93.390996 
L 278.414621 132.688643 
L 279.03863 171.076887 
L 279.581929 192.346201 
L 280.125227 205.796297 
L 280.668525 214.1399 
L 281.211823 219.250014 
L 281.755121 222.354172 
L 282.298419 224.232093 
L 282.841718 225.368577 
L 283.46263 226.134551 
L 284.161156 226.617861 
L 285.092524 226.954746 
L 286.567191 227.20959 
L 290.370278 227.561076 
L 292.291277 227.704025 
L 292.295248 227.61298 
L 292.326792 222.592977 
L 292.526472 134.882679 
L 292.752092 89.560838 
L 292.840703 86.90835 
L 292.885008 87.396289 
L 293.010989 92.889193 
L 293.530129 132.747529 
L 294.088444 167.655615 
L 294.64361 190.317033 
L 295.198777 204.536113 
L 295.753943 213.27493 
L 296.30911 218.573267 
L 296.864276 221.758152 
L 297.419442 223.664715 
L 297.974609 224.806875 
L 298.529775 225.495866 
L 299.243561 226.00634 
L 300.115965 226.337111 
L 301.543536 226.602474 
L 305.033153 226.946145 
L 307.397676 227.134026 
L 307.401652 227.043562 
L 307.433078 222.061754 
L 307.628094 136.111212 
L 307.868585 88.391674 
L 307.957255 86.362851 
L 308.00159 87.070227 
L 308.164324 95.355402 
L 309.38501 176.02792 
L 309.952246 195.73467 
L 310.519483 207.868709 
L 311.08672 215.204278 
L 311.653957 219.586444 
L 312.221194 222.186278 
L 312.788431 223.725638 
L 313.355668 224.640615 
L 314.003939 225.249574 
L 314.814277 225.663888 
L 315.948751 225.9548 
L 318.136665 226.231855 
L 323.129435 226.681518 
L 323.129435 226.681518 
" clip-path="url(#pd8810274f8)" style="fill: none; stroke: #0000ff; stroke-width: 1.5; stroke-linecap: square"/>
   </g>
   <g id="line2d_13">
    <path d="M 111.136364 234.744156 
L 111.324716 154.103499 
L 111.639433 118.081692 
L 111.95415 144.900671 
L 112.268867 173.807973 
L 113.527736 207.747872 
L 114.786605 214.685824 
L 116.044184 222.151806 
L 117.304344 227.183816 
L 118.563213 229.802132 
L 119.822082 230.971944 
L 122.33982 234.320373 
L 124.857558 234.320373 
L 126.116427 235.140386 
L 201.64857 232.27992 
L 201.774457 228.287473 
L 201.963288 170.541018 
L 202.278005 107.769997 
L 202.592722 128.592099 
L 202.90744 160.117645 
L 204.166309 195.86618 
L 205.425178 208.497071 
L 206.682756 215.782847 
L 207.942916 223.385753 
L 209.201785 224.637876 
L 210.460654 227.317426 
L 212.978392 232.893934 
L 215.49613 233.061133 
L 216.754999 233.305356 
L 307.393571 232.843001 
L 307.519458 232.154518 
L 307.708289 189.551353 
L 308.023006 87.608642 
L 308.337723 135.178951 
L 308.65244 160.056025 
L 309.911309 197.808061 
L 311.170178 209.594738 
L 312.427757 216.199375 
L 313.687917 221.206175 
L 314.946786 222.575083 
L 316.205655 226.875073 
L 318.723393 231.009054 
L 321.241131 231.788354 
L 322.5 233.701431 
" clip-path="url(#pd8810274f8)" style="fill: none; stroke: #000000; stroke-width: 1.5; stroke-linecap: square"/>
    <defs>
     <path id="meadf50d28b" d="M -5 5 
L 5 5 
L 5 -5 
L -5 -5 
z
" style="stroke: #000000; stroke-linejoin: miter"/>
    </defs>
    <g clip-path="url(#pd8810274f8)">
     <use xlink:href="#meadf50d28b" x="111.136364" y="234.744156" style="stroke: #000000; stroke-linejoin: miter"/>
     <use xlink:href="#meadf50d28b" x="111.324716" y="154.103499" style="stroke: #000000; stroke-linejoin: miter"/>
     <use xlink:href="#meadf50d28b" x="111.639433" y="118.081692" style="stroke: #000000; stroke-linejoin: miter"/>
     <use xlink:href="#meadf50d28b" x="111.95415" y="144.900671" style="stroke: #000000; stroke-linejoin: miter"/>
     <use xlink:href="#meadf50d28b" x="112.268867" y="173.807973" style="stroke: #000000; stroke-linejoin: miter"/>
     <use xlink:href="#meadf50d28b" x="113.527736" y="207.747872" style="stroke: #000000; stroke-linejoin: miter"/>
     <use xlink:href="#meadf50d28b" x="114.786605" y="214.685824" style="stroke: #000000; stroke-linejoin: miter"/>
     <use xlink:href="#meadf50d28b" x="116.044184" y="222.151806" style="stroke: #000000; stroke-linejoin: miter"/>
     <use xlink:href="#meadf50d28b" x="117.304344" y="227.183816" style="stroke: #000000; stroke-linejoin: miter"/>
     <use xlink:href="#meadf50d28b" x="118.563213" y="229.802132" style="stroke: #000000; stroke-linejoin: miter"/>
     <use xlink:href="#meadf50d28b" x="119.822082" y="230.971944" style="stroke: #000000; stroke-linejoin: miter"/>
     <use xlink:href="#meadf50d28b" x="122.33982" y="234.320373" style="stroke: #000000; stroke-linejoin: miter"/>
     <use xlink:href="#meadf50d28b" x="124.857558" y="234.320373" style="stroke: #000000; stroke-linejoin: miter"/>
     <use xlink:href="#meadf50d28b" x="126.116427" y="235.140386" style="stroke: #000000; stroke-linejoin: miter"/>
     <use xlink:href="#meadf50d28b" x="201.64857" y="232.27992" style="stroke: #000000; stroke-linejoin: miter"/>
     <use xlink:href="#meadf50d28b" x="201.774457" y="228.287473" style="stroke: #000000; stroke-linejoin: miter"/>
     <use xlink:href="#meadf50d28b" x="201.963288" y="170.541018" style="stroke: #000000; stroke-linejoin: miter"/>
     <use xlink:href="#meadf50d28b" x="202.278005" y="107.769997" style="stroke: #000000; stroke-linejoin: miter"/>
     <use xlink:href="#meadf50d28b" x="202.592722" y="128.592099" style="stroke: #000000; stroke-linejoin: miter"/>
     <use xlink:href="#meadf50d28b" x="202.90744" y="160.117645" style="stroke: #000000; stroke-linejoin: miter"/>
     <use xlink:href="#meadf50d28b" x="204.166309" y="195.86618" style="stroke: #000000; stroke-linejoin: miter"/>
     <use xlink:href="#meadf50d28b" x="205.425178" y="208.497071" style="stroke: #000000; stroke-linejoin: miter"/>
     <use xlink:href="#meadf50d28b" x="206.682756" y="215.782847" style="stroke: #000000; stroke-linejoin: miter"/>
     <use xlink:href="#meadf50d28b" x="207.942916" y="223.385753" style="stroke: #000000; stroke-linejoin: miter"/>
     <use xlink:href="#meadf50d28b" x="209.201785" y="224.637876" style="stroke: #000000; stroke-linejoin: miter"/>
     <use xlink:href="#meadf50d28b" x="210.460654" y="227.317426" style="stroke: #000000; stroke-linejoin: miter"/>
     <use xlink:href="#meadf50d28b" x="212.978392" y="232.893934" style="stroke: #000000; stroke-linejoin: miter"/>
     <use xlink:href="#meadf50d28b" x="215.49613" y="233.061133" style="stroke: #000000; stroke-linejoin: miter"/>
     <use xlink:href="#meadf50d28b" x="216.754999" y="233.305356" style="stroke: #000000; stroke-linejoin: miter"/>
     <use xlink:href="#meadf50d28b" x="307.393571" y="232.843001" style="stroke: #000000; stroke-linejoin: miter"/>
     <use xlink:href="#meadf50d28b" x="307.519458" y="232.154518" style="stroke: #000000; stroke-linejoin: miter"/>
     <use xlink:href="#meadf50d28b" x="307.708289" y="189.551353" style="stroke: #000000; stroke-linejoin: miter"/>
     <use xlink:href="#meadf50d28b" x="308.023006" y="87.608642" style="stroke: #000000; stroke-linejoin: miter"/>
     <use xlink:href="#meadf50d28b" x="308.337723" y="135.178951" style="stroke: #000000; stroke-linejoin: miter"/>
     <use xlink:href="#meadf50d28b" x="308.65244" y="160.056025" style="stroke: #000000; stroke-linejoin: miter"/>
     <use xlink:href="#meadf50d28b" x="309.911309" y="197.808061" style="stroke: #000000; stroke-linejoin: miter"/>
     <use xlink:href="#meadf50d28b" x="311.170178" y="209.594738" style="stroke: #000000; stroke-linejoin: miter"/>
     <use xlink:href="#meadf50d28b" x="312.427757" y="216.199375" style="stroke: #000000; stroke-linejoin: miter"/>
     <use xlink:href="#meadf50d28b" x="313.687917" y="221.206175" style="stroke: #000000; stroke-linejoin: miter"/>
     <use xlink:href="#meadf50d28b" x="314.946786" y="222.575083" style="stroke: #000000; stroke-linejoin: miter"/>
     <use xlink:href="#meadf50d28b" x="316.205655" y="226.875073" style="stroke: #000000; stroke-linejoin: miter"/>
     <use xlink:href="#meadf50d28b" x="318.723393" y="231.009054" style="stroke: #000000; stroke-linejoin: miter"/>
     <use xlink:href="#meadf50d28b" x="321.241131" y="231.788354" style="stroke: #000000; stroke-linejoin: miter"/>
     <use xlink:href="#meadf50d28b" x="322.5" y="233.701431" style="stroke: #000000; stroke-linejoin: miter"/>
    </g>
   </g>
   <g id="patch_3">
    <path d="M 90 320.4 
L 90 43.2 
" style="fill: none; stroke: #000000; stroke-width: 0.8; stroke-linejoin: miter; stroke-linecap: square"/>
   </g>
   <g id="patch_4">
    <path d="M 343.636364 320.4 
L 343.636364 43.2 
" style="fill: none; stroke: #000000; stroke-width: 0.8; stroke-linejoin: miter; stroke-linecap: square"/>
   </g>
   <g id="patch_5">
    <path d="M 90 320.4 
L 343.636364 320.4 
" style="fill: none; stroke: #000000; stroke-width: 0.8; stroke-linejoin: miter; stroke-linecap: square"/>
   </g>
   <g id="patch_6">
    <path d="M 90 43.2 
L 343.636364 43.2 
" style="fill: none; stroke: #000000; stroke-width: 0.8; stroke-linejoin: miter; stroke-linecap: square"/>
   </g>
   <g id="text_15">
    <!-- FDAMB102002 fm_dap2.5_dapagliflozin -->
    <g transform="translate(77.806932 26.601562) scale(0.14 -0.14)">
     <defs>
      <path id="DejaVuSans-46" d="M 628 4666 
L 3309 4666 
L 3309 4134 
L 1259 4134 
L 1259 2759 
L 3109 2759 
L 3109 2228 
L 1259 2228 
L 1259 0 
L 628 0 
L 628 4666 
z
" transform="scale(0.015625)"/>
      <path id="DejaVuSans-44" d="M 1259 4147 
L 1259 519 
L 2022 519 
Q 2988 519 3436 956 
Q 3884 1394 3884 2338 
Q 3884 3275 3436 3711 
Q 2988 4147 2022 4147 
L 1259 4147 
z
M 628 4666 
L 1925 4666 
Q 3281 4666 3915 4102 
Q 4550 3538 4550 2338 
Q 4550 1131 3912 565 
Q 3275 0 1925 0 
L 628 0 
L 628 4666 
z
" transform="scale(0.015625)"/>
      <path id="DejaVuSans-41" d="M 2188 4044 
L 1331 1722 
L 3047 1722 
L 2188 4044 
z
M 1831 4666 
L 2547 4666 
L 4325 0 
L 3669 0 
L 3244 1197 
L 1141 1197 
L 716 0 
L 50 0 
L 1831 4666 
z
" transform="scale(0.015625)"/>
      <path id="DejaVuSans-4d" d="M 628 4666 
L 1569 4666 
L 2759 1491 
L 3956 4666 
L 4897 4666 
L 4897 0 
L 4281 0 
L 4281 4097 
L 3078 897 
L 2444 897 
L 1241 4097 
L 1241 0 
L 628 0 
L 628 4666 
z
" transform="scale(0.015625)"/>
      <path id="DejaVuSans-42" d="M 1259 2228 
L 1259 519 
L 2272 519 
Q 2781 519 3026 730 
Q 3272 941 3272 1375 
Q 3272 1813 3026 2020 
Q 2781 2228 2272 2228 
L 1259 2228 
z
M 1259 4147 
L 1259 2741 
L 2194 2741 
Q 2656 2741 2882 2914 
Q 3109 3088 3109 3444 
Q 3109 3797 2882 3972 
Q 2656 4147 2194 4147 
L 1259 4147 
z
M 628 4666 
L 2241 4666 
Q 2963 4666 3353 4366 
Q 3744 4066 3744 3513 
Q 3744 3084 3544 2831 
Q 3344 2578 2956 2516 
Q 3422 2416 3680 2098 
Q 3938 1781 3938 1306 
Q 3938 681 3513 340 
Q 3088 0 2303 0 
L 628 0 
L 628 4666 
z
" transform="scale(0.015625)"/>
      <path id="DejaVuSans-20" transform="scale(0.015625)"/>
      <path id="DejaVuSans-66" d="M 2375 4863 
L 2375 4384 
L 1825 4384 
Q 1516 4384 1395 4259 
Q 1275 4134 1275 3809 
L 1275 3500 
L 2222 3500 
L 2222 3053 
L 1275 3053 
L 1275 0 
L 697 0 
L 697 3053 
L 147 3053 
L 147 3500 
L 697 3500 
L 697 3744 
Q 697 4328 969 4595 
Q 1241 4863 1831 4863 
L 2375 4863 
z
" transform="scale(0.015625)"/>
      <path id="DejaVuSans-2e" d="M 684 794 
L 1344 794 
L 1344 0 
L 684 0 
L 684 794 
z
" transform="scale(0.015625)"/>
      <path id="DejaVuSans-67" d="M 2906 1791 
Q 2906 2416 2648 2759 
Q 2391 3103 1925 3103 
Q 1463 3103 1205 2759 
Q 947 2416 947 1791 
Q 947 1169 1205 825 
Q 1463 481 1925 481 
Q 2391 481 2648 825 
Q 2906 1169 2906 1791 
z
M 3481 434 
Q 3481 -459 3084 -895 
Q 2688 -1331 1869 -1331 
Q 1566 -1331 1297 -1286 
Q 1028 -1241 775 -1147 
L 775 -588 
Q 1028 -725 1275 -790 
Q 1522 -856 1778 -856 
Q 2344 -856 2625 -561 
Q 2906 -266 2906 331 
L 2906 616 
Q 2728 306 2450 153 
Q 2172 0 1784 0 
Q 1141 0 747 490 
Q 353 981 353 1791 
Q 353 2603 747 3093 
Q 1141 3584 1784 3584 
Q 2172 3584 2450 3431 
Q 2728 3278 2906 2969 
L 2906 3500 
L 3481 3500 
L 3481 434 
z
" transform="scale(0.015625)"/>
      <path id="DejaVuSans-6c" d="M 603 4863 
L 1178 4863 
L 1178 0 
L 603 0 
L 603 4863 
z
" transform="scale(0.015625)"/>
      <path id="DejaVuSans-6f" d="M 1959 3097 
Q 1497 3097 1228 2736 
Q 959 2375 959 1747 
Q 959 1119 1226 758 
Q 1494 397 1959 397 
Q 2419 397 2687 759 
Q 2956 1122 2956 1747 
Q 2956 2369 2687 2733 
Q 2419 3097 1959 3097 
z
M 1959 3584 
Q 2709 3584 3137 3096 
Q 3566 2609 3566 1747 
Q 3566 888 3137 398 
Q 2709 -91 1959 -91 
Q 1206 -91 779 398 
Q 353 888 353 1747 
Q 353 2609 779 3096 
Q 1206 3584 1959 3584 
z
" transform="scale(0.015625)"/>
      <path id="DejaVuSans-7a" d="M 353 3500 
L 3084 3500 
L 3084 2975 
L 922 459 
L 3084 459 
L 3084 0 
L 275 0 
L 275 525 
L 2438 3041 
L 353 3041 
L 353 3500 
z
" transform="scale(0.015625)"/>
      <path id="DejaVuSans-6e" d="M 3513 2113 
L 3513 0 
L 2938 0 
L 2938 2094 
Q 2938 2591 2744 2837 
Q 2550 3084 2163 3084 
Q 1697 3084 1428 2787 
Q 1159 2491 1159 1978 
L 1159 0 
L 581 0 
L 581 3500 
L 1159 3500 
L 1159 2956 
Q 1366 3272 1645 3428 
Q 1925 3584 2291 3584 
Q 2894 3584 3203 3211 
Q 3513 2838 3513 2113 
z
" transform="scale(0.015625)"/>
     </defs>
     <use xlink:href="#DejaVuSans-46"/>
     <use xlink:href="#DejaVuSans-44" x="57.519531"/>
     <use xlink:href="#DejaVuSans-41" x="132.771484"/>
     <use xlink:href="#DejaVuSans-4d" x="201.179688"/>
     <use xlink:href="#DejaVuSans-42" x="287.458984"/>
     <use xlink:href="#DejaVuSans-31" x="356.0625"/>
     <use xlink:href="#DejaVuSans-30" x="419.685547"/>
     <use xlink:href="#DejaVuSans-32" x="483.308594"/>
     <use xlink:href="#DejaVuSans-30" x="546.931641"/>
     <use xlink:href="#DejaVuSans-30" x="610.554688"/>
     <use xlink:href="#DejaVuSans-32" x="674.177734"/>
     <use xlink:href="#DejaVuSans-20" x="737.800781"/>
     <use xlink:href="#DejaVuSans-66" x="769.587891"/>
     <use xlink:href="#DejaVuSans-6d" x="804.792969"/>
     <use xlink:href="#DejaVuSans-5f" x="902.205078"/>
     <use xlink:href="#DejaVuSans-64" x="952.205078"/>
     <use xlink:href="#DejaVuSans-61" x="1015.681641"/>
     <use xlink:href="#DejaVuSans-70" x="1076.960938"/>
     <use xlink:href="#DejaVuSans-32" x="1140.4375"/>
     <use xlink:href="#DejaVuSans-2e" x="1204.060547"/>
     <use xlink:href="#DejaVuSans-35" x="1235.847656"/>
     <use xlink:href="#DejaVuSans-5f" x="1299.470703"/>
     <use xlink:href="#DejaVuSans-64" x="1349.470703"/>
     <use xlink:href="#DejaVuSans-61" x="1412.947266"/>
     <use xlink:href="#DejaVuSans-70" x="1474.226562"/>
     <use xlink:href="#DejaVuSans-61" x="1537.703125"/>
     <use xlink:href="#DejaVuSans-67" x="1598.982422"/>
     <use xlink:href="#DejaVuSans-6c" x="1662.458984"/>
     <use xlink:href="#DejaVuSans-69" x="1690.242188"/>
     <use xlink:href="#DejaVuSans-66" x="1718.025391"/>
     <use xlink:href="#DejaVuSans-6c" x="1753.230469"/>
     <use xlink:href="#DejaVuSans-6f" x="1781.013672"/>
     <use xlink:href="#DejaVuSans-7a" x="1842.195312"/>
     <use xlink:href="#DejaVuSans-69" x="1894.685547"/>
     <use xlink:href="#DejaVuSans-6e" x="1922.46875"/>
    </g>
   </g>
   <g id="legend_1">
    <g id="patch_7">
     <path d="M 200.586364 80.834375 
L 336.636364 80.834375 
Q 338.636364 80.834375 338.636364 78.834375 
L 338.636364 50.2 
Q 338.636364 48.2 336.636364 48.2 
L 200.586364 48.2 
Q 198.586364 48.2 198.586364 50.2 
L 198.586364 78.834375 
Q 198.586364 80.834375 200.586364 80.834375 
z
" style="fill: #ffffff; opacity: 0.8; stroke: #cccccc; stroke-linejoin: miter"/>
    </g>
    <g id="line2d_14">
     <path d="M 202.586364 56.298437 
L 212.586364 56.298437 
L 222.586364 56.298437 
" style="fill: none; stroke: #0000ff; stroke-width: 1.5; stroke-linecap: square"/>
    </g>
    <g id="text_16">
     <!-- observable -->
     <g transform="translate(230.586364 59.798437) scale(0.1 -0.1)">
      <defs>
       <path id="DejaVuSans-62" d="M 3116 1747 
Q 3116 2381 2855 2742 
Q 2594 3103 2138 3103 
Q 1681 3103 1420 2742 
Q 1159 2381 1159 1747 
Q 1159 1113 1420 752 
Q 1681 391 2138 391 
Q 2594 391 2855 752 
Q 3116 1113 3116 1747 
z
M 1159 2969 
Q 1341 3281 1617 3432 
Q 1894 3584 2278 3584 
Q 2916 3584 3314 3078 
Q 3713 2572 3713 1747 
Q 3713 922 3314 415 
Q 2916 -91 2278 -91 
Q 1894 -91 1617 61 
Q 1341 213 1159 525 
L 1159 0 
L 581 0 
L 581 4863 
L 1159 4863 
L 1159 2969 
z
" transform="scale(0.015625)"/>
       <path id="DejaVuSans-73" d="M 2834 3397 
L 2834 2853 
Q 2591 2978 2328 3040 
Q 2066 3103 1784 3103 
Q 1356 3103 1142 2972 
Q 928 2841 928 2578 
Q 928 2378 1081 2264 
Q 1234 2150 1697 2047 
L 1894 2003 
Q 2506 1872 2764 1633 
Q 3022 1394 3022 966 
Q 3022 478 2636 193 
Q 2250 -91 1575 -91 
Q 1294 -91 989 -36 
Q 684 19 347 128 
L 347 722 
Q 666 556 975 473 
Q 1284 391 1588 391 
Q 1994 391 2212 530 
Q 2431 669 2431 922 
Q 2431 1156 2273 1281 
Q 2116 1406 1581 1522 
L 1381 1569 
Q 847 1681 609 1914 
Q 372 2147 372 2553 
Q 372 3047 722 3315 
Q 1072 3584 1716 3584 
Q 2034 3584 2315 3537 
Q 2597 3491 2834 3397 
z
" transform="scale(0.015625)"/>
       <path id="DejaVuSans-72" d="M 2631 2963 
Q 2534 3019 2420 3045 
Q 2306 3072 2169 3072 
Q 1681 3072 1420 2755 
Q 1159 2438 1159 1844 
L 1159 0 
L 581 0 
L 581 3500 
L 1159 3500 
L 1159 2956 
Q 1341 3275 1631 3429 
Q 1922 3584 2338 3584 
Q 2397 3584 2469 3576 
Q 2541 3569 2628 3553 
L 2631 2963 
z
" transform="scale(0.015625)"/>
      </defs>
      <use xlink:href="#DejaVuSans-6f"/>
      <use xlink:href="#DejaVuSans-62" x="61.181641"/>
      <use xlink:href="#DejaVuSans-73" x="124.658203"/>
      <use xlink:href="#DejaVuSans-65" x="176.757812"/>
      <use xlink:href="#DejaVuSans-72" x="238.28125"/>
      <use xlink:href="#DejaVuSans-76" x="279.394531"/>
      <use xlink:href="#DejaVuSans-61" x="338.574219"/>
      <use xlink:href="#DejaVuSans-62" x="399.853516"/>
      <use xlink:href="#DejaVuSans-6c" x="463.330078"/>
      <use xlink:href="#DejaVuSans-65" x="491.113281"/>
     </g>
    </g>
    <g id="LineCollection_2">
     <path d="M 212.586364 75.976562 
L 212.586364 65.976562 
" style="fill: none; stroke: #000000; stroke-width: 1.5"/>
    </g>
    <g id="line2d_15">
     <path d="M 202.586364 70.976562 
L 222.586364 70.976562 
" style="fill: none; stroke: #000000; stroke-width: 1.5; stroke-linecap: square"/>
    </g>
    <g id="line2d_16">
     <g>
      <use xlink:href="#meadf50d28b" x="212.586364" y="70.976562" style="stroke: #000000; stroke-linejoin: miter"/>
     </g>
    </g>
    <g id="text_17">
     <!-- reference_data ± SD -->
     <g transform="translate(230.586364 74.476562) scale(0.1 -0.1)">
      <defs>
       <path id="DejaVuSans-63" d="M 3122 3366 
L 3122 2828 
Q 2878 2963 2633 3030 
Q 2388 3097 2138 3097 
Q 1578 3097 1268 2742 
Q 959 2388 959 1747 
Q 959 1106 1268 751 
Q 1578 397 2138 397 
Q 2388 397 2633 464 
Q 2878 531 3122 666 
L 3122 134 
Q 2881 22 2623 -34 
Q 2366 -91 2075 -91 
Q 1284 -91 818 406 
Q 353 903 353 1747 
Q 353 2603 823 3093 
Q 1294 3584 2113 3584 
Q 2378 3584 2631 3529 
Q 2884 3475 3122 3366 
z
" transform="scale(0.015625)"/>
       <path id="DejaVuSans-b1" d="M 2944 4013 
L 2944 2803 
L 4684 2803 
L 4684 2272 
L 2944 2272 
L 2944 1063 
L 2419 1063 
L 2419 2272 
L 678 2272 
L 678 2803 
L 2419 2803 
L 2419 4013 
L 2944 4013 
z
M 678 531 
L 4684 531 
L 4684 0 
L 678 0 
L 678 531 
z
" transform="scale(0.015625)"/>
       <path id="DejaVuSans-53" d="M 3425 4513 
L 3425 3897 
Q 3066 4069 2747 4153 
Q 2428 4238 2131 4238 
Q 1616 4238 1336 4038 
Q 1056 3838 1056 3469 
Q 1056 3159 1242 3001 
Q 1428 2844 1947 2747 
L 2328 2669 
Q 3034 2534 3370 2195 
Q 3706 1856 3706 1288 
Q 3706 609 3251 259 
Q 2797 -91 1919 -91 
Q 1588 -91 1214 -16 
Q 841 59 441 206 
L 441 856 
Q 825 641 1194 531 
Q 1563 422 1919 422 
Q 2459 422 2753 634 
Q 3047 847 3047 1241 
Q 3047 1584 2836 1778 
Q 2625 1972 2144 2069 
L 1759 2144 
Q 1053 2284 737 2584 
Q 422 2884 422 3419 
Q 422 4038 858 4394 
Q 1294 4750 2059 4750 
Q 2388 4750 2728 4690 
Q 3069 4631 3425 4513 
z
" transform="scale(0.015625)"/>
      </defs>
      <use xlink:href="#DejaVuSans-72"/>
      <use xlink:href="#DejaVuSans-65" x="38.863281"/>
      <use xlink:href="#DejaVuSans-66" x="100.386719"/>
      <use xlink:href="#DejaVuSans-65" x="135.591797"/>
      <use xlink:href="#DejaVuSans-72" x="197.115234"/>
      <use xlink:href="#DejaVuSans-65" x="235.978516"/>
      <use xlink:href="#DejaVuSans-6e" x="297.501953"/>
      <use xlink:href="#DejaVuSans-63" x="360.880859"/>
      <use xlink:href="#DejaVuSans-65" x="415.861328"/>
      <use xlink:href="#DejaVuSans-5f" x="477.384766"/>
      <use xlink:href="#DejaVuSans-64" x="527.384766"/>
      <use xlink:href="#DejaVuSans-61" x="590.861328"/>
      <use xlink:href="#DejaVuSans-74" x="652.140625"/>
      <use xlink:href="#DejaVuSans-61" x="691.349609"/>
      <use xlink:href="#DejaVuSans-20" x="752.628906"/>
      <use xlink:href="#DejaVuSans-b1" x="784.416016"/>
      <use xlink:href="#DejaVuSans-20" x="868.205078"/>
      <use xlink:href="#DejaVuSans-53" x="899.992188"/>
      <use xlink:href="#DejaVuSans-44" x="963.46875"/>
     </g>
    </g>
   </g>
  </g>
  <g id="axes_2">
   <g id="patch_8">
    <path d="M 394.363636 320.4 
L 648 320.4 
L 648 43.2 
L 394.363636 43.2 
z
" style="fill: #ffffff"/>
   </g>
   <g id="matplotlib.axis_3">
    <g id="xtick_6">
     <g id="line2d_17">
      <g>
       <use xlink:href="#m32f8d063bf" x="415.373635" y="320.4" style="stroke: #000000; stroke-width: 0.8"/>
      </g>
     </g>
     <g id="text_18">
      <!-- 0 -->
      <g transform="translate(412.192385 334.998438) scale(0.1 -0.1)">
       <use xlink:href="#DejaVuSans-30"/>
      </g>
     </g>
    </g>
    <g id="xtick_7">
     <g id="line2d_18">
      <g>
       <use xlink:href="#m32f8d063bf" x="467.826512" y="320.4" style="stroke: #000000; stroke-width: 0.8"/>
      </g>
     </g>
     <g id="text_19">
      <!-- 5000 -->
      <g transform="translate(455.101512 334.998438) scale(0.1 -0.1)">
       <use xlink:href="#DejaVuSans-35"/>
       <use xlink:href="#DejaVuSans-30" x="63.623047"/>
       <use xlink:href="#DejaVuSans-30" x="127.246094"/>
       <use xlink:href="#DejaVuSans-30" x="190.869141"/>
      </g>
     </g>
    </g>
    <g id="xtick_8">
     <g id="line2d_19">
      <g>
       <use xlink:href="#m32f8d063bf" x="520.279389" y="320.4" style="stroke: #000000; stroke-width: 0.8"/>
      </g>
     </g>
     <g id="text_20">
      <!-- 10000 -->
      <g transform="translate(504.373139 334.998438) scale(0.1 -0.1)">
       <use xlink:href="#DejaVuSans-31"/>
       <use xlink:href="#DejaVuSans-30" x="63.623047"/>
       <use xlink:href="#DejaVuSans-30" x="127.246094"/>
       <use xlink:href="#DejaVuSans-30" x="190.869141"/>
       <use xlink:href="#DejaVuSans-30" x="254.492188"/>
      </g>
     </g>
    </g>
    <g id="xtick_9">
     <g id="line2d_20">
      <g>
       <use xlink:href="#m32f8d063bf" x="572.732267" y="320.4" style="stroke: #000000; stroke-width: 0.8"/>
      </g>
     </g>
     <g id="text_21">
      <!-- 15000 -->
      <g transform="translate(556.826017 334.998438) scale(0.1 -0.1)">
       <use xlink:href="#DejaVuSans-31"/>
       <use xlink:href="#DejaVuSans-35" x="63.623047"/>
       <use xlink:href="#DejaVuSans-30" x="127.246094"/>
       <use xlink:href="#DejaVuSans-30" x="190.869141"/>
       <use xlink:href="#DejaVuSans-30" x="254.492188"/>
      </g>
     </g>
    </g>
    <g id="xtick_10">
     <g id="line2d_21">
      <g>
       <use xlink:href="#m32f8d063bf" x="625.185144" y="320.4" style="stroke: #000000; stroke-width: 0.8"/>
      </g>
     </g>
     <g id="text_22">
      <!-- 20000 -->
      <g transform="translate(609.278894 334.998438) scale(0.1 -0.1)">
       <use xlink:href="#DejaVuSans-32"/>
       <use xlink:href="#DejaVuSans-30" x="63.623047"/>
       <use xlink:href="#DejaVuSans-30" x="127.246094"/>
       <use xlink:href="#DejaVuSans-30" x="190.869141"/>
       <use xlink:href="#DejaVuSans-30" x="254.492188"/>
      </g>
     </g>
    </g>
    <g id="text_23">
     <!-- time -->
     <g transform="translate(507.626506 350.19625) scale(0.12 -0.12)">
      <use xlink:href="#DejaVuSans-74"/>
      <use xlink:href="#DejaVuSans-69" x="39.208984"/>
      <use xlink:href="#DejaVuSans-6d" x="66.992188"/>
      <use xlink:href="#DejaVuSans-65" x="164.404297"/>
     </g>
    </g>
   </g>
   <g id="matplotlib.axis_4">
    <g id="ytick_7">
     <g id="line2d_22">
      <g>
       <use xlink:href="#m59fa6d1ca5" x="394.363636" y="315.845409" style="stroke: #000000; stroke-width: 0.8"/>
      </g>
     </g>
     <g id="text_24">
      <!-- $\mathdefault{10^{-6}}$ -->
      <g transform="translate(363.863636 319.644628) scale(0.1 -0.1)">
       <use xlink:href="#DejaVuSans-31" transform="translate(0 0.765625)"/>
       <use xlink:href="#DejaVuSans-30" transform="translate(63.623047 0.765625)"/>
       <use xlink:href="#DejaVuSans-2212" transform="translate(128.203125 39.046875) scale(0.7)"/>
       <use xlink:href="#DejaVuSans-36" transform="translate(186.855469 39.046875) scale(0.7)"/>
      </g>
     </g>
    </g>
    <g id="ytick_8">
     <g id="line2d_23">
      <g>
       <use xlink:href="#m59fa6d1ca5" x="394.363636" y="247.190812" style="stroke: #000000; stroke-width: 0.8"/>
      </g>
     </g>
     <g id="text_25">
      <!-- $\mathdefault{10^{-5}}$ -->
      <g transform="translate(363.863636 250.99003) scale(0.1 -0.1)">
       <use xlink:href="#DejaVuSans-31" transform="translate(0 0.684375)"/>
       <use xlink:href="#DejaVuSans-30" transform="translate(63.623047 0.684375)"/>
       <use xlink:href="#DejaVuSans-2212" transform="translate(128.203125 38.965625) scale(0.7)"/>
       <use xlink:href="#DejaVuSans-35" transform="translate(186.855469 38.965625) scale(0.7)"/>
      </g>
     </g>
    </g>
    <g id="ytick_9">
     <g id="line2d_24">
      <g>
       <use xlink:href="#m59fa6d1ca5" x="394.363636" y="178.536214" style="stroke: #000000; stroke-width: 0.8"/>
      </g>
     </g>
     <g id="text_26">
      <!-- $\mathdefault{10^{-4}}$ -->
      <g transform="translate(363.863636 182.335433) scale(0.1 -0.1)">
       <use xlink:href="#DejaVuSans-31" transform="translate(0 0.684375)"/>
       <use xlink:href="#DejaVuSans-30" transform="translate(63.623047 0.684375)"/>
       <use xlink:href="#DejaVuSans-2212" transform="translate(128.203125 38.965625) scale(0.7)"/>
       <use xlink:href="#DejaVuSans-34" transform="translate(186.855469 38.965625) scale(0.7)"/>
      </g>
     </g>
    </g>
    <g id="ytick_10">
     <g id="line2d_25">
      <g>
       <use xlink:href="#m59fa6d1ca5" x="394.363636" y="109.881617" style="stroke: #000000; stroke-width: 0.8"/>
      </g>
     </g>
     <g id="text_27">
      <!-- $\mathdefault{10^{-3}}$ -->
      <g transform="translate(363.863636 113.680836) scale(0.1 -0.1)">
       <defs>
        <path id="DejaVuSans-33" d="M 2597 2516 
Q 3050 2419 3304 2112 
Q 3559 1806 3559 1356 
Q 3559 666 3084 287 
Q 2609 -91 1734 -91 
Q 1441 -91 1130 -33 
Q 819 25 488 141 
L 488 750 
Q 750 597 1062 519 
Q 1375 441 1716 441 
Q 2309 441 2620 675 
Q 2931 909 2931 1356 
Q 2931 1769 2642 2001 
Q 2353 2234 1838 2234 
L 1294 2234 
L 1294 2753 
L 1863 2753 
Q 2328 2753 2575 2939 
Q 2822 3125 2822 3475 
Q 2822 3834 2567 4026 
Q 2313 4219 1838 4219 
Q 1578 4219 1281 4162 
Q 984 4106 628 3988 
L 628 4550 
Q 988 4650 1302 4700 
Q 1616 4750 1894 4750 
Q 2613 4750 3031 4423 
Q 3450 4097 3450 3541 
Q 3450 3153 3228 2886 
Q 3006 2619 2597 2516 
z
" transform="scale(0.015625)"/>
       </defs>
       <use xlink:href="#DejaVuSans-31" transform="translate(0 0.765625)"/>
       <use xlink:href="#DejaVuSans-30" transform="translate(63.623047 0.765625)"/>
       <use xlink:href="#DejaVuSans-2212" transform="translate(128.203125 39.046875) scale(0.7)"/>
       <use xlink:href="#DejaVuSans-33" transform="translate(186.855469 39.046875) scale(0.7)"/>
      </g>
     </g>
    </g>
    <g id="ytick_11">
     <g id="line2d_26">
      <defs>
       <path id="m993e51960d" d="M 0 0 
L -2 0 
" style="stroke: #000000; stroke-width: 0.6"/>
      </defs>
      <g>
       <use xlink:href="#m993e51960d" x="394.363636" y="318.986871" style="stroke: #000000; stroke-width: 0.6"/>
      </g>
     </g>
    </g>
    <g id="ytick_12">
     <g id="line2d_27">
      <g>
       <use xlink:href="#m993e51960d" x="394.363636" y="295.178316" style="stroke: #000000; stroke-width: 0.6"/>
      </g>
     </g>
    </g>
    <g id="ytick_13">
     <g id="line2d_28">
      <g>
       <use xlink:href="#m993e51960d" x="394.363636" y="283.088841" style="stroke: #000000; stroke-width: 0.6"/>
      </g>
     </g>
    </g>
    <g id="ytick_14">
     <g id="line2d_29">
      <g>
       <use xlink:href="#m993e51960d" x="394.363636" y="274.511223" style="stroke: #000000; stroke-width: 0.6"/>
      </g>
     </g>
    </g>
    <g id="ytick_15">
     <g id="line2d_30">
      <g>
       <use xlink:href="#m993e51960d" x="394.363636" y="267.857905" style="stroke: #000000; stroke-width: 0.6"/>
      </g>
     </g>
    </g>
    <g id="ytick_16">
     <g id="line2d_31">
      <g>
       <use xlink:href="#m993e51960d" x="394.363636" y="262.421748" style="stroke: #000000; stroke-width: 0.6"/>
      </g>
     </g>
    </g>
    <g id="ytick_17">
     <g id="line2d_32">
      <g>
       <use xlink:href="#m993e51960d" x="394.363636" y="257.825543" style="stroke: #000000; stroke-width: 0.6"/>
      </g>
     </g>
    </g>
    <g id="ytick_18">
     <g id="line2d_33">
      <g>
       <use xlink:href="#m993e51960d" x="394.363636" y="253.844129" style="stroke: #000000; stroke-width: 0.6"/>
      </g>
     </g>
    </g>
    <g id="ytick_19">
     <g id="line2d_34">
      <g>
       <use xlink:href="#m993e51960d" x="394.363636" y="250.332274" style="stroke: #000000; stroke-width: 0.6"/>
      </g>
     </g>
    </g>
    <g id="ytick_20">
     <g id="line2d_35">
      <g>
       <use xlink:href="#m993e51960d" x="394.363636" y="226.523718" style="stroke: #000000; stroke-width: 0.6"/>
      </g>
     </g>
    </g>
    <g id="ytick_21">
     <g id="line2d_36">
      <g>
       <use xlink:href="#m993e51960d" x="394.363636" y="214.434244" style="stroke: #000000; stroke-width: 0.6"/>
      </g>
     </g>
    </g>
    <g id="ytick_22">
     <g id="line2d_37">
      <g>
       <use xlink:href="#m993e51960d" x="394.363636" y="205.856625" style="stroke: #000000; stroke-width: 0.6"/>
      </g>
     </g>
    </g>
    <g id="ytick_23">
     <g id="line2d_38">
      <g>
       <use xlink:href="#m993e51960d" x="394.363636" y="199.203307" style="stroke: #000000; stroke-width: 0.6"/>
      </g>
     </g>
    </g>
    <g id="ytick_24">
     <g id="line2d_39">
      <g>
       <use xlink:href="#m993e51960d" x="394.363636" y="193.767151" style="stroke: #000000; stroke-width: 0.6"/>
      </g>
     </g>
    </g>
    <g id="ytick_25">
     <g id="line2d_40">
      <g>
       <use xlink:href="#m993e51960d" x="394.363636" y="189.170946" style="stroke: #000000; stroke-width: 0.6"/>
      </g>
     </g>
    </g>
    <g id="ytick_26">
     <g id="line2d_41">
      <g>
       <use xlink:href="#m993e51960d" x="394.363636" y="185.189532" style="stroke: #000000; stroke-width: 0.6"/>
      </g>
     </g>
    </g>
    <g id="ytick_27">
     <g id="line2d_42">
      <g>
       <use xlink:href="#m993e51960d" x="394.363636" y="181.677676" style="stroke: #000000; stroke-width: 0.6"/>
      </g>
     </g>
    </g>
    <g id="ytick_28">
     <g id="line2d_43">
      <g>
       <use xlink:href="#m993e51960d" x="394.363636" y="157.869121" style="stroke: #000000; stroke-width: 0.6"/>
      </g>
     </g>
    </g>
    <g id="ytick_29">
     <g id="line2d_44">
      <g>
       <use xlink:href="#m993e51960d" x="394.363636" y="145.779647" style="stroke: #000000; stroke-width: 0.6"/>
      </g>
     </g>
    </g>
    <g id="ytick_30">
     <g id="line2d_45">
      <g>
       <use xlink:href="#m993e51960d" x="394.363636" y="137.202028" style="stroke: #000000; stroke-width: 0.6"/>
      </g>
     </g>
    </g>
    <g id="ytick_31">
     <g id="line2d_46">
      <g>
       <use xlink:href="#m993e51960d" x="394.363636" y="130.54871" style="stroke: #000000; stroke-width: 0.6"/>
      </g>
     </g>
    </g>
    <g id="ytick_32">
     <g id="line2d_47">
      <g>
       <use xlink:href="#m993e51960d" x="394.363636" y="125.112554" style="stroke: #000000; stroke-width: 0.6"/>
      </g>
     </g>
    </g>
    <g id="ytick_33">
     <g id="line2d_48">
      <g>
       <use xlink:href="#m993e51960d" x="394.363636" y="120.516349" style="stroke: #000000; stroke-width: 0.6"/>
      </g>
     </g>
    </g>
    <g id="ytick_34">
     <g id="line2d_49">
      <g>
       <use xlink:href="#m993e51960d" x="394.363636" y="116.534935" style="stroke: #000000; stroke-width: 0.6"/>
      </g>
     </g>
    </g>
    <g id="ytick_35">
     <g id="line2d_50">
      <g>
       <use xlink:href="#m993e51960d" x="394.363636" y="113.023079" style="stroke: #000000; stroke-width: 0.6"/>
      </g>
     </g>
    </g>
    <g id="ytick_36">
     <g id="line2d_51">
      <g>
       <use xlink:href="#m993e51960d" x="394.363636" y="89.214524" style="stroke: #000000; stroke-width: 0.6"/>
      </g>
     </g>
    </g>
    <g id="ytick_37">
     <g id="line2d_52">
      <g>
       <use xlink:href="#m993e51960d" x="394.363636" y="77.125049" style="stroke: #000000; stroke-width: 0.6"/>
      </g>
     </g>
    </g>
    <g id="ytick_38">
     <g id="line2d_53">
      <g>
       <use xlink:href="#m993e51960d" x="394.363636" y="68.547431" style="stroke: #000000; stroke-width: 0.6"/>
      </g>
     </g>
    </g>
    <g id="ytick_39">
     <g id="line2d_54">
      <g>
       <use xlink:href="#m993e51960d" x="394.363636" y="61.894113" style="stroke: #000000; stroke-width: 0.6"/>
      </g>
     </g>
    </g>
    <g id="ytick_40">
     <g id="line2d_55">
      <g>
       <use xlink:href="#m993e51960d" x="394.363636" y="56.457956" style="stroke: #000000; stroke-width: 0.6"/>
      </g>
     </g>
    </g>
    <g id="ytick_41">
     <g id="line2d_56">
      <g>
       <use xlink:href="#m993e51960d" x="394.363636" y="51.861751" style="stroke: #000000; stroke-width: 0.6"/>
      </g>
     </g>
    </g>
    <g id="ytick_42">
     <g id="line2d_57">
      <g>
       <use xlink:href="#m993e51960d" x="394.363636" y="47.880338" style="stroke: #000000; stroke-width: 0.6"/>
      </g>
     </g>
    </g>
    <g id="ytick_43">
     <g id="line2d_58">
      <g>
       <use xlink:href="#m993e51960d" x="394.363636" y="44.368482" style="stroke: #000000; stroke-width: 0.6"/>
      </g>
     </g>
    </g>
    <g id="text_28">
     <!-- [Cve_dap] -->
     <g transform="translate(357.034261 212.209687) rotate(-90) scale(0.12 -0.12)">
      <use xlink:href="#DejaVuSans-5b"/>
      <use xlink:href="#DejaVuSans-43" x="39.013672"/>
      <use xlink:href="#DejaVuSans-76" x="108.837891"/>
      <use xlink:href="#DejaVuSans-65" x="168.017578"/>
      <use xlink:href="#DejaVuSans-5f" x="229.541016"/>
      <use xlink:href="#DejaVuSans-64" x="279.541016"/>
      <use xlink:href="#DejaVuSans-61" x="343.017578"/>
      <use xlink:href="#DejaVuSans-70" x="404.296875"/>
      <use xlink:href="#DejaVuSans-5d" x="467.773438"/>
     </g>
    </g>
   </g>
   <g id="LineCollection_3">
    <path d="M 415.5 361 
L 415.5 206.047672 
" clip-path="url(#p42196f3df3)" style="fill: none; stroke: #000000; stroke-width: 1.5"/>
    <path d="M 415.688352 258.389897 
L 415.688352 185.101108 
" clip-path="url(#p42196f3df3)" style="fill: none; stroke: #000000; stroke-width: 1.5"/>
    <path d="M 416.003069 205.270391 
L 416.003069 184.276281 
" clip-path="url(#p42196f3df3)" style="fill: none; stroke: #000000; stroke-width: 1.5"/>
    <path d="M 416.317786 204.945454 
L 416.317786 196.303364 
" clip-path="url(#p42196f3df3)" style="fill: none; stroke: #000000; stroke-width: 1.5"/>
    <path d="M 416.632504 218.544048 
L 416.632504 204.98959 
" clip-path="url(#p42196f3df3)" style="fill: none; stroke: #000000; stroke-width: 1.5"/>
    <path d="M 417.891373 239.072556 
L 417.891373 226.37107 
" clip-path="url(#p42196f3df3)" style="fill: none; stroke: #000000; stroke-width: 1.5"/>
    <path d="M 419.150242 244.616243 
L 419.150242 234.389126 
" clip-path="url(#p42196f3df3)" style="fill: none; stroke: #000000; stroke-width: 1.5"/>
    <path d="M 420.40782 257.713897 
L 420.40782 242.407181 
" clip-path="url(#p42196f3df3)" style="fill: none; stroke: #000000; stroke-width: 1.5"/>
    <path d="M 421.66798 264.960945 
L 421.66798 253.097921 
" clip-path="url(#p42196f3df3)" style="fill: none; stroke: #000000; stroke-width: 1.5"/>
    <path d="M 422.926849 268.135261 
L 422.926849 261.784147 
" clip-path="url(#p42196f3df3)" style="fill: none; stroke: #000000; stroke-width: 1.5"/>
    <path d="M 424.185718 272.32419 
L 424.185718 264.456832 
" clip-path="url(#p42196f3df3)" style="fill: none; stroke: #000000; stroke-width: 1.5"/>
    <path d="M 426.703456 287.010597 
L 426.703456 275.147573 
" clip-path="url(#p42196f3df3)" style="fill: none; stroke: #000000; stroke-width: 1.5"/>
    <path d="M 429.221194 283.429005 
L 429.221194 277.820258 
" clip-path="url(#p42196f3df3)" style="fill: none; stroke: #000000; stroke-width: 1.5"/>
    <path d="M 430.480063 287.438033 
L 430.480063 281.829285 
" clip-path="url(#p42196f3df3)" style="fill: none; stroke: #000000; stroke-width: 1.5"/>
    <path d="M 506.012207 276.323328 
L 506.012207 268.884046 
" clip-path="url(#p42196f3df3)" style="fill: none; stroke: #000000; stroke-width: 1.5"/>
    <path d="M 506.138094 286.810888 
L 506.138094 247.320477 
" clip-path="url(#p42196f3df3)" style="fill: none; stroke: #000000; stroke-width: 1.5"/>
    <path d="M 506.326924 361 
L 506.326924 188.337774 
" clip-path="url(#p42196f3df3)" style="fill: none; stroke: #000000; stroke-width: 1.5"/>
    <path d="M 506.641641 205.322615 
L 506.641641 180.727103 
" clip-path="url(#p42196f3df3)" style="fill: none; stroke: #000000; stroke-width: 1.5"/>
    <path d="M 506.956359 202.216884 
L 506.956359 190.240442 
" clip-path="url(#p42196f3df3)" style="fill: none; stroke: #000000; stroke-width: 1.5"/>
    <path d="M 507.271076 216.896746 
L 507.271076 197.216891 
" clip-path="url(#p42196f3df3)" style="fill: none; stroke: #000000; stroke-width: 1.5"/>
    <path d="M 508.529945 229.488457 
L 508.529945 217.512014 
" clip-path="url(#p42196f3df3)" style="fill: none; stroke: #000000; stroke-width: 1.5"/>
    <path d="M 509.788814 237.096397 
L 509.788814 228.928021 
" clip-path="url(#p42196f3df3)" style="fill: none; stroke: #000000; stroke-width: 1.5"/>
    <path d="M 511.046392 244.707068 
L 511.046392 236.538693 
" clip-path="url(#p42196f3df3)" style="fill: none; stroke: #000000; stroke-width: 1.5"/>
    <path d="M 512.306552 256.344037 
L 512.306552 246.686254 
" clip-path="url(#p42196f3df3)" style="fill: none; stroke: #000000; stroke-width: 1.5"/>
    <path d="M 513.565421 259.00786 
L 513.565421 248.588922 
" clip-path="url(#p42196f3df3)" style="fill: none; stroke: #000000; stroke-width: 1.5"/>
    <path d="M 514.82429 263.099524 
L 514.82429 254.931148 
" clip-path="url(#p42196f3df3)" style="fill: none; stroke: #000000; stroke-width: 1.5"/>
    <path d="M 517.342028 278.955089 
L 517.342028 270.786714 
" clip-path="url(#p42196f3df3)" style="fill: none; stroke: #000000; stroke-width: 1.5"/>
    <path d="M 519.859766 280.444497 
L 519.859766 270.786714 
" clip-path="url(#p42196f3df3)" style="fill: none; stroke: #000000; stroke-width: 1.5"/>
    <path d="M 521.118636 281.839874 
L 521.118636 271.420936 
" clip-path="url(#p42196f3df3)" style="fill: none; stroke: #000000; stroke-width: 1.5"/>
    <path d="M 611.757208 281.213724 
L 611.757208 268.859871 
" clip-path="url(#p42196f3df3)" style="fill: none; stroke: #000000; stroke-width: 1.5"/>
    <path d="M 611.883095 275.372118 
L 611.883095 268.859871 
" clip-path="url(#p42196f3df3)" style="fill: none; stroke: #000000; stroke-width: 1.5"/>
    <path d="M 612.071925 244.505383 
L 612.071925 205.439033 
" clip-path="url(#p42196f3df3)" style="fill: none; stroke: #000000; stroke-width: 1.5"/>
    <path d="M 612.386642 190.568998 
L 612.386642 182.656789 
" clip-path="url(#p42196f3df3)" style="fill: none; stroke: #000000; stroke-width: 1.5"/>
    <path d="M 612.701359 203.338388 
L 612.701359 192.50857 
" clip-path="url(#p42196f3df3)" style="fill: none; stroke: #000000; stroke-width: 1.5"/>
    <path d="M 613.016077 208.123896 
L 613.016077 202.976087 
" clip-path="url(#p42196f3df3)" style="fill: none; stroke: #000000; stroke-width: 1.5"/>
    <path d="M 614.274946 229.685717 
L 614.274946 219.600967 
" clip-path="url(#p42196f3df3)" style="fill: none; stroke: #000000; stroke-width: 1.5"/>
    <path d="M 615.533815 241.531833 
L 615.533815 227.605539 
" clip-path="url(#p42196f3df3)" style="fill: none; stroke: #000000; stroke-width: 1.5"/>
    <path d="M 616.791393 248.128142 
L 616.791393 234.994375 
" clip-path="url(#p42196f3df3)" style="fill: none; stroke: #000000; stroke-width: 1.5"/>
    <path d="M 618.051553 254.901241 
L 618.051553 241.767474 
" clip-path="url(#p42196f3df3)" style="fill: none; stroke: #000000; stroke-width: 1.5"/>
    <path d="M 619.310422 259.617343 
L 619.310422 242.38321 
" clip-path="url(#p42196f3df3)" style="fill: none; stroke: #000000; stroke-width: 1.5"/>
    <path d="M 620.569291 262.816859 
L 620.569291 253.466464 
" clip-path="url(#p42196f3df3)" style="fill: none; stroke: #000000; stroke-width: 1.5"/>
    <path d="M 623.087029 275.056361 
L 623.087029 262.702508 
" clip-path="url(#p42196f3df3)" style="fill: none; stroke: #000000; stroke-width: 1.5"/>
    <path d="M 625.604767 280.552377 
L 625.604767 263.318245 
" clip-path="url(#p42196f3df3)" style="fill: none; stroke: #000000; stroke-width: 1.5"/>
    <path d="M 626.863636 280.842979 
L 626.863636 275.017234 
" clip-path="url(#p42196f3df3)" style="fill: none; stroke: #000000; stroke-width: 1.5"/>
   </g>
   <g id="line2d_59">
    <path d="M 415.387494 361 
L 415.522272 217.870697 
L 415.72529 192.616574 
L 415.902864 188.902367 
L 415.931231 188.862568 
L 415.959599 188.917155 
L 416.073069 189.842459 
L 416.331561 194.257477 
L 417.145209 213.461129 
L 420.018292 282.758749 
L 420.849616 297.27384 
L 421.577024 306.221344 
L 422.200517 311.282036 
L 422.82401 314.487051 
L 423.447503 316.427416 
L 424.070995 317.58121 
L 424.694488 318.273704 
L 425.425781 318.762722 
L 426.530487 319.189294 
L 428.522448 319.650855 
L 430.480966 320.042947 
L 430.483177 319.939697 
L 430.499619 306.095857 
L 430.678222 206.489398 
L 430.885194 190.272065 
L 431.03223 188.499757 
L 431.053235 188.518881 
L 431.139718 189.041356 
L 431.368892 192.474618 
L 431.992659 206.391867 
L 434.606987 266.486062 
L 435.396103 279.447189 
L 436.106308 287.651416 
L 436.737601 292.436107 
L 437.289982 295.136205 
L 437.842363 296.869041 
L 438.394745 297.964705 
L 439.026038 298.736913 
L 439.736242 299.257195 
L 440.683182 299.666229 
L 442.261414 300.075349 
L 445.587647 300.724516 
L 445.589033 300.698404 
L 445.602975 295.156274 
L 445.827494 200.053719 
L 446.039505 188.90274 
L 446.140756 188.172541 
L 446.192424 188.312265 
L 446.349514 189.97982 
L 446.72653 197.273668 
L 449.882988 265.081724 
L 450.614976 274.5915 
L 451.273765 280.325259 
L 451.859356 283.611067 
L 452.444947 285.687169 
L 453.030537 286.969235 
L 453.616128 287.760524 
L 454.348116 288.354761 
L 455.299701 288.797127 
L 456.763678 289.19696 
L 460.694168 289.957334 
L 460.694645 289.953934 
L 460.703067 288.757671 
L 461.11363 189.222151 
L 461.257128 187.882696 
L 461.344379 188.33487 
L 461.547966 191.158586 
L 462.118427 203.273182 
L 464.232401 249.366456 
L 465.086248 262.776442 
L 465.726634 269.816597 
L 466.367019 274.518619 
L 466.93625 277.190973 
L 467.505481 278.884788 
L 468.074713 279.943248 
L 468.715098 280.6731 
L 469.497791 281.198221 
L 470.5651 281.609357 
L 472.486255 282.058888 
L 475.800767 282.697999 
L 475.803705 282.613947 
L 475.824719 274.531931 
L 476.048403 198.362681 
L 476.24593 188.432258 
L 476.342943 187.61875 
L 476.402059 187.732948 
L 476.549851 189.206783 
L 476.934498 196.413128 
L 479.550182 250.851383 
L 480.255779 260.453078 
L 480.860576 266.231775 
L 481.465374 270.08783 
L 482.070171 272.522872 
L 482.674969 274.012887 
L 483.279766 274.918241 
L 483.985363 275.549401 
L 484.89256 276.015558 
L 486.202954 276.406742 
L 489.327741 277.032016 
L 490.90735 277.32655 
L 490.910852 277.215174 
L 490.935621 267.707224 
L 491.152929 198.212804 
L 491.349991 188.224951 
L 491.470364 187.376505 
L 491.501286 187.459059 
L 491.624976 188.540562 
L 491.934199 193.878123 
L 493.488164 227.826774 
L 494.503967 246.599048 
L 495.229541 256.415595 
L 495.882558 262.500576 
L 496.463017 266.06608 
L 497.043476 268.355966 
L 497.623935 269.785642 
L 498.204394 270.672334 
L 498.857411 271.284895 
L 499.655542 271.733225 
L 500.889018 272.138086 
L 503.355969 272.657531 
L 506.013887 273.158306 
L 506.017014 273.076875 
L 506.040147 265.674545 
L 506.269323 196.919547 
L 506.470931 187.773918 
L 506.567744 187.153555 
L 506.61615 187.278999 
L 506.761971 188.714083 
L 507.128029 195.39745 
L 509.555942 244.251018 
L 510.32145 254.176733 
L 511.001902 260.060784 
L 511.597298 263.364297 
L 512.192693 265.444819 
L 512.788089 266.724016 
L 513.383484 267.509996 
L 514.063936 268.059044 
L 514.999558 268.501818 
L 516.445518 268.903176 
L 520.188004 269.628689 
L 521.120429 269.797592 
L 521.123952 269.699113 
L 521.148406 262.110463 
L 521.381254 196.141428 
L 521.588469 187.426882 
L 521.666929 186.958296 
L 521.726877 187.102363 
L 521.876747 188.621507 
L 522.266612 195.805893 
L 524.518953 240.789667 
L 525.238263 250.396462 
L 525.855319 256.148566 
L 526.472375 259.955304 
L 527.089431 262.336739 
L 527.706487 263.780732 
L 528.323543 264.651655 
L 529.043441 265.256303 
L 529.969025 265.704129 
L 531.408822 266.110018 
L 535.008314 266.811379 
L 536.226803 267.035575 
L 536.230762 266.924724 
L 536.257308 258.753092 
L 536.490451 195.654893 
L 536.703956 187.143815 
L 536.770427 186.782118 
L 536.836897 186.941949 
L 537.000116 188.67337 
L 537.423302 196.613973 
L 539.43373 236.749411 
L 540.160903 246.905991 
L 540.80728 253.2487 
L 541.453657 257.406056 
L 542.019236 259.709036 
L 542.584816 261.169398 
L 543.150395 262.087343 
L 543.796772 262.735615 
L 544.604743 263.216525 
L 545.735902 263.609234 
L 547.99822 264.103542 
L 551.333292 264.730316 
L 551.336854 264.645217 
L 551.362437 257.591732 
L 551.594678 195.628944 
L 551.798135 187.120149 
L 551.892294 186.61806 
L 551.939373 186.758829 
L 552.094808 188.334745 
L 552.492109 195.611042 
L 554.557227 236.17752 
L 555.310338 246.218115 
L 555.979771 252.308565 
L 556.565524 255.797239 
L 557.151277 258.030078 
L 557.737031 259.419994 
L 558.322784 260.280318 
L 558.992216 260.88176 
L 559.829007 261.327919 
L 561.084192 261.721254 
L 563.845601 262.28814 
L 566.439775 262.763535 
L 566.443571 262.670479 
L 566.470159 255.465917 
L 566.715709 194.227371 
L 566.913723 186.863969 
L 566.982716 186.474075 
L 567.028711 186.536411 
L 567.13408 187.338287 
L 567.425085 191.968455 
L 570.113678 241.663106 
L 570.789821 248.740173 
L 571.381445 252.895832 
L 571.97307 255.59135 
L 572.564695 257.275972 
L 573.15632 258.313641 
L 573.832462 259.028649 
L 574.593123 259.504351 
L 575.691854 259.907062 
L 577.720282 260.367215 
L 581.546251 261.088359 
L 581.549691 261.01448 
L 581.575345 254.668697 
L 581.814173 194.689978 
L 582.02607 186.668648 
L 582.108932 186.341575 
L 582.129647 186.385127 
L 582.266197 187.498151 
L 582.60757 193.280363 
L 584.876933 236.31103 
L 585.575459 244.784899 
L 586.196372 249.949757 
L 586.817284 253.306609 
L 587.360582 255.17511 
L 587.90388 256.37645 
L 588.524792 257.232375 
L 589.223319 257.810253 
L 590.154687 258.258262 
L 591.629353 258.670405 
L 595.354826 259.392969 
L 596.652723 259.63226 
L 596.656701 259.536401 
L 596.684507 252.372036 
L 596.919047 194.657593 
L 597.115728 186.733518 
L 597.204339 186.215251 
L 597.248645 186.309915 
L 597.374625 187.39685 
L 597.720718 193.260192 
L 599.879651 234.20147 
L 600.593437 243.06804 
L 601.227912 248.467297 
L 601.862388 251.957191 
L 602.417555 253.883701 
L 602.972721 255.111073 
L 603.607197 255.976983 
L 604.320982 256.556058 
L 605.272696 257.002177 
L 606.779576 257.414018 
L 610.745051 258.177125 
L 611.759206 258.36332 
L 611.762903 258.281853 
L 611.789147 252.085771 
L 612.035228 193.738206 
L 612.232221 186.503965 
L 612.320891 186.109774 
L 612.365226 186.246623 
L 612.492819 187.428551 
L 612.844235 193.457151 
L 614.964154 233.349462 
L 615.693458 242.286414 
L 616.341729 247.6622 
L 616.908966 250.74726 
L 617.476203 252.739541 
L 618.04344 253.997164 
L 618.69171 254.875524 
L 619.421015 255.457154 
L 620.312387 255.873553 
L 621.770996 256.278512 
L 625.498553 257.00107 
L 627.493071 257.366146 
L 627.493071 257.366146 
" clip-path="url(#p42196f3df3)" style="fill: none; stroke: #0000ff; stroke-width: 1.5; stroke-linecap: square"/>
   </g>
   <g id="line2d_60">
    <path d="M 415.5 282.497457 
L 415.688352 203.319162 
L 416.003069 192.962507 
L 416.317786 200.312391 
L 416.632504 211.003131 
L 417.891373 232.050526 
L 419.150242 239.066324 
L 420.40782 249.088893 
L 421.66798 258.443291 
L 422.926849 264.790918 
L 424.185718 268.131774 
L 426.703456 280.492943 
L 429.221194 280.492943 
L 430.480063 284.50197 
L 506.012207 272.37227 
L 506.138094 260.956263 
L 506.326924 209.584232 
L 506.641641 190.557554 
L 506.956359 195.631334 
L 507.271076 205.461785 
L 508.529945 222.902907 
L 509.788814 232.733357 
L 511.046392 240.344028 
L 512.306552 251.125813 
L 513.565421 253.345592 
L 514.82429 258.736484 
L 517.342028 274.592049 
L 519.859766 275.226272 
L 521.118636 276.177606 
L 611.757208 274.401498 
L 611.883095 271.938553 
L 612.071925 218.985231 
L 612.386642 186.351207 
L 612.701359 197.434461 
L 613.016077 205.439033 
L 614.274946 224.21899 
L 615.533815 233.762902 
L 616.791393 240.84387 
L 618.051553 247.616969 
L 619.310422 249.772046 
L 620.569291 257.776618 
L 623.087029 268.244135 
L 625.604767 270.70708 
L 626.863636 277.788048 
" clip-path="url(#p42196f3df3)" style="fill: none; stroke: #000000; stroke-width: 1.5; stroke-linecap: square"/>
    <g clip-path="url(#p42196f3df3)">
     <use xlink:href="#meadf50d28b" x="415.5" y="282.497457" style="stroke: #000000; stroke-linejoin: miter"/>
     <use xlink:href="#meadf50d28b" x="415.688352" y="203.319162" style="stroke: #000000; stroke-linejoin: miter"/>
     <use xlink:href="#meadf50d28b" x="416.003069" y="192.962507" style="stroke: #000000; stroke-linejoin: miter"/>
     <use xlink:href="#meadf50d28b" x="416.317786" y="200.312391" style="stroke: #000000; stroke-linejoin: miter"/>
     <use xlink:href="#meadf50d28b" x="416.632504" y="211.003131" style="stroke: #000000; stroke-linejoin: miter"/>
     <use xlink:href="#meadf50d28b" x="417.891373" y="232.050526" style="stroke: #000000; stroke-linejoin: miter"/>
     <use xlink:href="#meadf50d28b" x="419.150242" y="239.066324" style="stroke: #000000; stroke-linejoin: miter"/>
     <use xlink:href="#meadf50d28b" x="420.40782" y="249.088893" style="stroke: #000000; stroke-linejoin: miter"/>
     <use xlink:href="#meadf50d28b" x="421.66798" y="258.443291" style="stroke: #000000; stroke-linejoin: miter"/>
     <use xlink:href="#meadf50d28b" x="422.926849" y="264.790918" style="stroke: #000000; stroke-linejoin: miter"/>
     <use xlink:href="#meadf50d28b" x="424.185718" y="268.131774" style="stroke: #000000; stroke-linejoin: miter"/>
     <use xlink:href="#meadf50d28b" x="426.703456" y="280.492943" style="stroke: #000000; stroke-linejoin: miter"/>
     <use xlink:href="#meadf50d28b" x="429.221194" y="280.492943" style="stroke: #000000; stroke-linejoin: miter"/>
     <use xlink:href="#meadf50d28b" x="430.480063" y="284.50197" style="stroke: #000000; stroke-linejoin: miter"/>
     <use xlink:href="#meadf50d28b" x="506.012207" y="272.37227" style="stroke: #000000; stroke-linejoin: miter"/>
     <use xlink:href="#meadf50d28b" x="506.138094" y="260.956263" style="stroke: #000000; stroke-linejoin: miter"/>
     <use xlink:href="#meadf50d28b" x="506.326924" y="209.584232" style="stroke: #000000; stroke-linejoin: miter"/>
     <use xlink:href="#meadf50d28b" x="506.641641" y="190.557554" style="stroke: #000000; stroke-linejoin: miter"/>
     <use xlink:href="#meadf50d28b" x="506.956359" y="195.631334" style="stroke: #000000; stroke-linejoin: miter"/>
     <use xlink:href="#meadf50d28b" x="507.271076" y="205.461785" style="stroke: #000000; stroke-linejoin: miter"/>
     <use xlink:href="#meadf50d28b" x="508.529945" y="222.902907" style="stroke: #000000; stroke-linejoin: miter"/>
     <use xlink:href="#meadf50d28b" x="509.788814" y="232.733357" style="stroke: #000000; stroke-linejoin: miter"/>
     <use xlink:href="#meadf50d28b" x="511.046392" y="240.344028" style="stroke: #000000; stroke-linejoin: miter"/>
     <use xlink:href="#meadf50d28b" x="512.306552" y="251.125813" style="stroke: #000000; stroke-linejoin: miter"/>
     <use xlink:href="#meadf50d28b" x="513.565421" y="253.345592" style="stroke: #000000; stroke-linejoin: miter"/>
     <use xlink:href="#meadf50d28b" x="514.82429" y="258.736484" style="stroke: #000000; stroke-linejoin: miter"/>
     <use xlink:href="#meadf50d28b" x="517.342028" y="274.592049" style="stroke: #000000; stroke-linejoin: miter"/>
     <use xlink:href="#meadf50d28b" x="519.859766" y="275.226272" style="stroke: #000000; stroke-linejoin: miter"/>
     <use xlink:href="#meadf50d28b" x="521.118636" y="276.177606" style="stroke: #000000; stroke-linejoin: miter"/>
     <use xlink:href="#meadf50d28b" x="611.757208" y="274.401498" style="stroke: #000000; stroke-linejoin: miter"/>
     <use xlink:href="#meadf50d28b" x="611.883095" y="271.938553" style="stroke: #000000; stroke-linejoin: miter"/>
     <use xlink:href="#meadf50d28b" x="612.071925" y="218.985231" style="stroke: #000000; stroke-linejoin: miter"/>
     <use xlink:href="#meadf50d28b" x="612.386642" y="186.351207" style="stroke: #000000; stroke-linejoin: miter"/>
     <use xlink:href="#meadf50d28b" x="612.701359" y="197.434461" style="stroke: #000000; stroke-linejoin: miter"/>
     <use xlink:href="#meadf50d28b" x="613.016077" y="205.439033" style="stroke: #000000; stroke-linejoin: miter"/>
     <use xlink:href="#meadf50d28b" x="614.274946" y="224.21899" style="stroke: #000000; stroke-linejoin: miter"/>
     <use xlink:href="#meadf50d28b" x="615.533815" y="233.762902" style="stroke: #000000; stroke-linejoin: miter"/>
     <use xlink:href="#meadf50d28b" x="616.791393" y="240.84387" style="stroke: #000000; stroke-linejoin: miter"/>
     <use xlink:href="#meadf50d28b" x="618.051553" y="247.616969" style="stroke: #000000; stroke-linejoin: miter"/>
     <use xlink:href="#meadf50d28b" x="619.310422" y="249.772046" style="stroke: #000000; stroke-linejoin: miter"/>
     <use xlink:href="#meadf50d28b" x="620.569291" y="257.776618" style="stroke: #000000; stroke-linejoin: miter"/>
     <use xlink:href="#meadf50d28b" x="623.087029" y="268.244135" style="stroke: #000000; stroke-linejoin: miter"/>
     <use xlink:href="#meadf50d28b" x="625.604767" y="270.70708" style="stroke: #000000; stroke-linejoin: miter"/>
     <use xlink:href="#meadf50d28b" x="626.863636" y="277.788048" style="stroke: #000000; stroke-linejoin: miter"/>
    </g>
   </g>
   <g id="patch_9">
    <path d="M 394.363636 320.4 
L 394.363636 43.2 
" style="fill: none; stroke: #000000; stroke-width: 0.8; stroke-linejoin: miter; stroke-linecap: square"/>
   </g>
   <g id="patch_10">
    <path d="M 648 320.4 
L 648 43.2 
" style="fill: none; stroke: #000000; stroke-width: 0.8; stroke-linejoin: miter; stroke-linecap: square"/>
   </g>
   <g id="patch_11">
    <path d="M 394.363636 320.4 
L 648 320.4 
" style="fill: none; stroke: #000000; stroke-width: 0.8; stroke-linejoin: miter; stroke-linecap: square"/>
   </g>
   <g id="patch_12">
    <path d="M 394.363636 43.2 
L 648 43.2 
" style="fill: none; stroke: #000000; stroke-width: 0.8; stroke-linejoin: miter; stroke-linecap: square"/>
   </g>
   <g id="text_29">
    <!-- FDAMB102002 fm_dap2.5_dapagliflozin -->
    <g transform="translate(382.170568 37.2) scale(0.14 -0.14)">
     <use xlink:href="#DejaVuSans-46"/>
     <use xlink:href="#DejaVuSans-44" x="57.519531"/>
     <use xlink:href="#DejaVuSans-41" x="132.771484"/>
     <use xlink:href="#DejaVuSans-4d" x="201.179688"/>
     <use xlink:href="#DejaVuSans-42" x="287.458984"/>
     <use xlink:href="#DejaVuSans-31" x="356.0625"/>
     <use xlink:href="#DejaVuSans-30" x="419.685547"/>
     <use xlink:href="#DejaVuSans-32" x="483.308594"/>
     <use xlink:href="#DejaVuSans-30" x="546.931641"/>
     <use xlink:href="#DejaVuSans-30" x="610.554688"/>
     <use xlink:href="#DejaVuSans-32" x="674.177734"/>
     <use xlink:href="#DejaVuSans-20" x="737.800781"/>
     <use xlink:href="#DejaVuSans-66" x="769.587891"/>
     <use xlink:href="#DejaVuSans-6d" x="804.792969"/>
     <use xlink:href="#DejaVuSans-5f" x="902.205078"/>
     <use xlink:href="#DejaVuSans-64" x="952.205078"/>
     <use xlink:href="#DejaVuSans-61" x="1015.681641"/>
     <use xlink:href="#DejaVuSans-70" x="1076.960938"/>
     <use xlink:href="#DejaVuSans-32" x="1140.4375"/>
     <use xlink:href="#DejaVuSans-2e" x="1204.060547"/>
     <use xlink:href="#DejaVuSans-35" x="1235.847656"/>
     <use xlink:href="#DejaVuSans-5f" x="1299.470703"/>
     <use xlink:href="#DejaVuSans-64" x="1349.470703"/>
     <use xlink:href="#DejaVuSans-61" x="1412.947266"/>
     <use xlink:href="#DejaVuSans-70" x="1474.226562"/>
     <use xlink:href="#DejaVuSans-61" x="1537.703125"/>
     <use xlink:href="#DejaVuSans-67" x="1598.982422"/>
     <use xlink:href="#DejaVuSans-6c" x="1662.458984"/>
     <use xlink:href="#DejaVuSans-69" x="1690.242188"/>
     <use xlink:href="#DejaVuSans-66" x="1718.025391"/>
     <use xlink:href="#DejaVuSans-6c" x="1753.230469"/>
     <use xlink:href="#DejaVuSans-6f" x="1781.013672"/>
     <use xlink:href="#DejaVuSans-7a" x="1842.195312"/>
     <use xlink:href="#DejaVuSans-69" x="1894.685547"/>
     <use xlink:href="#DejaVuSans-6e" x="1922.46875"/>
    </g>
   </g>
   <g id="legend_2">
    <g id="patch_13">
     <path d="M 504.95 80.834375 
L 641 80.834375 
Q 643 80.834375 643 78.834375 
L 643 50.2 
Q 643 48.2 641 48.2 
L 504.95 48.2 
Q 502.95 48.2 502.95 50.2 
L 502.95 78.834375 
Q 502.95 80.834375 504.95 80.834375 
z
" style="fill: #ffffff; opacity: 0.8; stroke: #cccccc; stroke-linejoin: miter"/>
    </g>
    <g id="line2d_61">
     <path d="M 506.95 56.298437 
L 516.95 56.298437 
L 526.95 56.298437 
" style="fill: none; stroke: #0000ff; stroke-width: 1.5; stroke-linecap: square"/>
    </g>
    <g id="text_30">
     <!-- observable -->
     <g transform="translate(534.95 59.798437) scale(0.1 -0.1)">
      <use xlink:href="#DejaVuSans-6f"/>
      <use xlink:href="#DejaVuSans-62" x="61.181641"/>
      <use xlink:href="#DejaVuSans-73" x="124.658203"/>
      <use xlink:href="#DejaVuSans-65" x="176.757812"/>
      <use xlink:href="#DejaVuSans-72" x="238.28125"/>
      <use xlink:href="#DejaVuSans-76" x="279.394531"/>
      <use xlink:href="#DejaVuSans-61" x="338.574219"/>
      <use xlink:href="#DejaVuSans-62" x="399.853516"/>
      <use xlink:href="#DejaVuSans-6c" x="463.330078"/>
      <use xlink:href="#DejaVuSans-65" x="491.113281"/>
     </g>
    </g>
    <g id="LineCollection_4">
     <path d="M 516.95 75.976562 
L 516.95 65.976562 
" style="fill: none; stroke: #000000; stroke-width: 1.5"/>
    </g>
    <g id="line2d_62">
     <path d="M 506.95 70.976562 
L 526.95 70.976562 
" style="fill: none; stroke: #000000; stroke-width: 1.5; stroke-linecap: square"/>
    </g>
    <g id="line2d_63">
     <g>
      <use xlink:href="#meadf50d28b" x="516.95" y="70.976562" style="stroke: #000000; stroke-linejoin: miter"/>
     </g>
    </g>
    <g id="text_31">
     <!-- reference_data ± SD -->
     <g transform="translate(534.95 74.476562) scale(0.1 -0.1)">
      <use xlink:href="#DejaVuSans-72"/>
      <use xlink:href="#DejaVuSans-65" x="38.863281"/>
      <use xlink:href="#DejaVuSans-66" x="100.386719"/>
      <use xlink:href="#DejaVuSans-65" x="135.591797"/>
      <use xlink:href="#DejaVuSans-72" x="197.115234"/>
      <use xlink:href="#DejaVuSans-65" x="235.978516"/>
      <use xlink:href="#DejaVuSans-6e" x="297.501953"/>
      <use xlink:href="#DejaVuSans-63" x="360.880859"/>
      <use xlink:href="#DejaVuSans-65" x="415.861328"/>
      <use xlink:href="#DejaVuSans-5f" x="477.384766"/>
      <use xlink:href="#DejaVuSans-64" x="527.384766"/>
      <use xlink:href="#DejaVuSans-61" x="590.861328"/>
      <use xlink:href="#DejaVuSans-74" x="652.140625"/>
      <use xlink:href="#DejaVuSans-61" x="691.349609"/>
      <use xlink:href="#DejaVuSans-20" x="752.628906"/>
      <use xlink:href="#DejaVuSans-b1" x="784.416016"/>
      <use xlink:href="#DejaVuSans-20" x="868.205078"/>
      <use xlink:href="#DejaVuSans-53" x="899.992188"/>
      <use xlink:href="#DejaVuSans-44" x="963.46875"/>
     </g>
    </g>
   </g>
  </g>
 </g>
 <defs>
  <clipPath id="pd8810274f8">
   <rect x="90" y="43.2" width="253.636364" height="277.2"/>
  </clipPath>
  <clipPath id="p42196f3df3">
   <rect x="394.363636" y="43.2" width="253.636364" height="277.2"/>
  </clipPath>
 </defs>
</svg>
