<?xml version="1.0" encoding="utf-8" standalone="no"?>
<!DOCTYPE svg PUBLIC "-//W3C//DTD SVG 1.1//EN"
  "http://www.w3.org/Graphics/SVG/1.1/DTD/svg11.dtd">
<svg xmlns:xlink="http://www.w3.org/1999/xlink" width="720pt" height="360pt" viewBox="0 0 720 360" xmlns="http://www.w3.org/2000/svg" version="1.1">
 <metadata>
  <rdf:RDF xmlns:dc="http://purl.org/dc/elements/1.1/" xmlns:cc="http://creativecommons.org/ns#" xmlns:rdf="http://www.w3.org/1999/02/22-rdf-syntax-ns#">
   <cc:Work>
    <dc:type rdf:resource="http://purl.org/dc/dcmitype/StillImage"/>
    <dc:date>2025-05-22T23:22:37.357805</dc:date>
    <dc:format>image/svg+xml</dc:format>
    <dc:creator>
     <cc:Agent>
      <dc:title>Matplotlib v3.9.0, https://matplotlib.org/</dc:title>
     </cc:Agent>
    </dc:creator>
   </cc:Work>
  </rdf:RDF>
 </metadata>
 <defs>
  <style type="text/css">*{stroke-linejoin: round; stroke-linecap: butt}</style>
 </defs>
 <g id="figure_1">
  <g id="patch_1">
   <path d="M 0 360 
L 720 360 
L 720 0 
L 0 0 
z
" style="fill: #ffffff"/>
  </g>
  <g id="axes_1">
   <g id="patch_2">
    <path d="M 90 320.4 
L 343.636364 320.4 
L 343.636364 43.2 
L 90 43.2 
z
" style="fill: #ffffff"/>
   </g>
   <g id="matplotlib.axis_1">
    <g id="xtick_1">
     <g id="line2d_1">
      <defs>
       <path id="m538773fdbb" d="M 0 0 
L 0 3.5 
" style="stroke: #000000; stroke-width: 0.8"/>
      </defs>
      <g>
       <use xlink:href="#m538773fdbb" x="111.006411" y="320.4" style="stroke: #000000; stroke-width: 0.8"/>
      </g>
     </g>
     <g id="text_1">
      <!-- 0 -->
      <g transform="translate(107.825161 334.998438) scale(0.1 -0.1)">
       <defs>
        <path id="DejaVuSans-30" d="M 2034 4250 
Q 1547 4250 1301 3770 
Q 1056 3291 1056 2328 
Q 1056 1369 1301 889 
Q 1547 409 2034 409 
Q 2525 409 2770 889 
Q 3016 1369 3016 2328 
Q 3016 3291 2770 3770 
Q 2525 4250 2034 4250 
z
M 2034 4750 
Q 2819 4750 3233 4129 
Q 3647 3509 3647 2328 
Q 3647 1150 3233 529 
Q 2819 -91 2034 -91 
Q 1250 -91 836 529 
Q 422 1150 422 2328 
Q 422 3509 836 4129 
Q 1250 4750 2034 4750 
z
" transform="scale(0.015625)"/>
       </defs>
       <use xlink:href="#DejaVuSans-30"/>
      </g>
     </g>
    </g>
    <g id="xtick_2">
     <g id="line2d_2">
      <g>
       <use xlink:href="#m538773fdbb" x="163.460178" y="320.4" style="stroke: #000000; stroke-width: 0.8"/>
      </g>
     </g>
     <g id="text_2">
      <!-- 5000 -->
      <g transform="translate(150.735178 334.998438) scale(0.1 -0.1)">
       <defs>
        <path id="DejaVuSans-35" d="M 691 4666 
L 3169 4666 
L 3169 4134 
L 1269 4134 
L 1269 2991 
Q 1406 3038 1543 3061 
Q 1681 3084 1819 3084 
Q 2600 3084 3056 2656 
Q 3513 2228 3513 1497 
Q 3513 744 3044 326 
Q 2575 -91 1722 -91 
Q 1428 -91 1123 -41 
Q 819 9 494 109 
L 494 744 
Q 775 591 1075 516 
Q 1375 441 1709 441 
Q 2250 441 2565 725 
Q 2881 1009 2881 1497 
Q 2881 1984 2565 2268 
Q 2250 2553 1709 2553 
Q 1456 2553 1204 2497 
Q 953 2441 691 2322 
L 691 4666 
z
" transform="scale(0.015625)"/>
       </defs>
       <use xlink:href="#DejaVuSans-35"/>
       <use xlink:href="#DejaVuSans-30" x="63.623047"/>
       <use xlink:href="#DejaVuSans-30" x="127.246094"/>
       <use xlink:href="#DejaVuSans-30" x="190.869141"/>
      </g>
     </g>
    </g>
    <g id="xtick_3">
     <g id="line2d_3">
      <g>
       <use xlink:href="#m538773fdbb" x="215.913945" y="320.4" style="stroke: #000000; stroke-width: 0.8"/>
      </g>
     </g>
     <g id="text_3">
      <!-- 10000 -->
      <g transform="translate(200.007695 334.998438) scale(0.1 -0.1)">
       <defs>
        <path id="DejaVuSans-31" d="M 794 531 
L 1825 531 
L 1825 4091 
L 703 3866 
L 703 4441 
L 1819 4666 
L 2450 4666 
L 2450 531 
L 3481 531 
L 3481 0 
L 794 0 
L 794 531 
z
" transform="scale(0.015625)"/>
       </defs>
       <use xlink:href="#DejaVuSans-31"/>
       <use xlink:href="#DejaVuSans-30" x="63.623047"/>
       <use xlink:href="#DejaVuSans-30" x="127.246094"/>
       <use xlink:href="#DejaVuSans-30" x="190.869141"/>
       <use xlink:href="#DejaVuSans-30" x="254.492188"/>
      </g>
     </g>
    </g>
    <g id="xtick_4">
     <g id="line2d_4">
      <g>
       <use xlink:href="#m538773fdbb" x="268.367712" y="320.4" style="stroke: #000000; stroke-width: 0.8"/>
      </g>
     </g>
     <g id="text_4">
      <!-- 15000 -->
      <g transform="translate(252.461462 334.998438) scale(0.1 -0.1)">
       <use xlink:href="#DejaVuSans-31"/>
       <use xlink:href="#DejaVuSans-35" x="63.623047"/>
       <use xlink:href="#DejaVuSans-30" x="127.246094"/>
       <use xlink:href="#DejaVuSans-30" x="190.869141"/>
       <use xlink:href="#DejaVuSans-30" x="254.492188"/>
      </g>
     </g>
    </g>
    <g id="xtick_5">
     <g id="line2d_5">
      <g>
       <use xlink:href="#m538773fdbb" x="320.821479" y="320.4" style="stroke: #000000; stroke-width: 0.8"/>
      </g>
     </g>
     <g id="text_5">
      <!-- 20000 -->
      <g transform="translate(304.915229 334.998438) scale(0.1 -0.1)">
       <defs>
        <path id="DejaVuSans-32" d="M 1228 531 
L 3431 531 
L 3431 0 
L 469 0 
L 469 531 
Q 828 903 1448 1529 
Q 2069 2156 2228 2338 
Q 2531 2678 2651 2914 
Q 2772 3150 2772 3378 
Q 2772 3750 2511 3984 
Q 2250 4219 1831 4219 
Q 1534 4219 1204 4116 
Q 875 4013 500 3803 
L 500 4441 
Q 881 4594 1212 4672 
Q 1544 4750 1819 4750 
Q 2544 4750 2975 4387 
Q 3406 4025 3406 3419 
Q 3406 3131 3298 2873 
Q 3191 2616 2906 2266 
Q 2828 2175 2409 1742 
Q 1991 1309 1228 531 
z
" transform="scale(0.015625)"/>
       </defs>
       <use xlink:href="#DejaVuSans-32"/>
       <use xlink:href="#DejaVuSans-30" x="63.623047"/>
       <use xlink:href="#DejaVuSans-30" x="127.246094"/>
       <use xlink:href="#DejaVuSans-30" x="190.869141"/>
       <use xlink:href="#DejaVuSans-30" x="254.492188"/>
      </g>
     </g>
    </g>
    <g id="text_6">
     <!-- time -->
     <g transform="translate(203.262869 350.19625) scale(0.12 -0.12)">
      <defs>
       <path id="DejaVuSans-74" d="M 1172 4494 
L 1172 3500 
L 2356 3500 
L 2356 3053 
L 1172 3053 
L 1172 1153 
Q 1172 725 1289 603 
Q 1406 481 1766 481 
L 2356 481 
L 2356 0 
L 1766 0 
Q 1100 0 847 248 
Q 594 497 594 1153 
L 594 3053 
L 172 3053 
L 172 3500 
L 594 3500 
L 594 4494 
L 1172 4494 
z
" transform="scale(0.015625)"/>
       <path id="DejaVuSans-69" d="M 603 3500 
L 1178 3500 
L 1178 0 
L 603 0 
L 603 3500 
z
M 603 4863 
L 1178 4863 
L 1178 4134 
L 603 4134 
L 603 4863 
z
" transform="scale(0.015625)"/>
       <path id="DejaVuSans-6d" d="M 3328 2828 
Q 3544 3216 3844 3400 
Q 4144 3584 4550 3584 
Q 5097 3584 5394 3201 
Q 5691 2819 5691 2113 
L 5691 0 
L 5113 0 
L 5113 2094 
Q 5113 2597 4934 2840 
Q 4756 3084 4391 3084 
Q 3944 3084 3684 2787 
Q 3425 2491 3425 1978 
L 3425 0 
L 2847 0 
L 2847 2094 
Q 2847 2600 2669 2842 
Q 2491 3084 2119 3084 
Q 1678 3084 1418 2786 
Q 1159 2488 1159 1978 
L 1159 0 
L 581 0 
L 581 3500 
L 1159 3500 
L 1159 2956 
Q 1356 3278 1631 3431 
Q 1906 3584 2284 3584 
Q 2666 3584 2933 3390 
Q 3200 3197 3328 2828 
z
" transform="scale(0.015625)"/>
       <path id="DejaVuSans-65" d="M 3597 1894 
L 3597 1613 
L 953 1613 
Q 991 1019 1311 708 
Q 1631 397 2203 397 
Q 2534 397 2845 478 
Q 3156 559 3463 722 
L 3463 178 
Q 3153 47 2828 -22 
Q 2503 -91 2169 -91 
Q 1331 -91 842 396 
Q 353 884 353 1716 
Q 353 2575 817 3079 
Q 1281 3584 2069 3584 
Q 2775 3584 3186 3129 
Q 3597 2675 3597 1894 
z
M 3022 2063 
Q 3016 2534 2758 2815 
Q 2500 3097 2075 3097 
Q 1594 3097 1305 2825 
Q 1016 2553 972 2059 
L 3022 2063 
z
" transform="scale(0.015625)"/>
      </defs>
      <use xlink:href="#DejaVuSans-74"/>
      <use xlink:href="#DejaVuSans-69" x="39.208984"/>
      <use xlink:href="#DejaVuSans-6d" x="66.992188"/>
      <use xlink:href="#DejaVuSans-65" x="164.404297"/>
     </g>
    </g>
   </g>
   <g id="matplotlib.axis_2">
    <g id="ytick_1">
     <g id="line2d_6">
      <defs>
       <path id="m14dcf23fab" d="M 0 0 
L -3.5 0 
" style="stroke: #000000; stroke-width: 0.8"/>
      </defs>
      <g>
       <use xlink:href="#m14dcf23fab" x="90" y="307.8" style="stroke: #000000; stroke-width: 0.8"/>
      </g>
     </g>
     <g id="text_7">
      <!-- 0.000000 -->
      <g transform="translate(35.284375 311.599219) scale(0.1 -0.1)">
       <defs>
        <path id="DejaVuSans-2e" d="M 684 794 
L 1344 794 
L 1344 0 
L 684 0 
L 684 794 
z
" transform="scale(0.015625)"/>
       </defs>
       <use xlink:href="#DejaVuSans-30"/>
       <use xlink:href="#DejaVuSans-2e" x="63.623047"/>
       <use xlink:href="#DejaVuSans-30" x="95.410156"/>
       <use xlink:href="#DejaVuSans-30" x="159.033203"/>
       <use xlink:href="#DejaVuSans-30" x="222.65625"/>
       <use xlink:href="#DejaVuSans-30" x="286.279297"/>
       <use xlink:href="#DejaVuSans-30" x="349.902344"/>
       <use xlink:href="#DejaVuSans-30" x="413.525391"/>
      </g>
     </g>
    </g>
    <g id="ytick_2">
     <g id="line2d_7">
      <g>
       <use xlink:href="#m14dcf23fab" x="90" y="276.953796" style="stroke: #000000; stroke-width: 0.8"/>
      </g>
     </g>
     <g id="text_8">
      <!-- 0.000025 -->
      <g transform="translate(35.284375 280.753015) scale(0.1 -0.1)">
       <use xlink:href="#DejaVuSans-30"/>
       <use xlink:href="#DejaVuSans-2e" x="63.623047"/>
       <use xlink:href="#DejaVuSans-30" x="95.410156"/>
       <use xlink:href="#DejaVuSans-30" x="159.033203"/>
       <use xlink:href="#DejaVuSans-30" x="222.65625"/>
       <use xlink:href="#DejaVuSans-30" x="286.279297"/>
       <use xlink:href="#DejaVuSans-32" x="349.902344"/>
       <use xlink:href="#DejaVuSans-35" x="413.525391"/>
      </g>
     </g>
    </g>
    <g id="ytick_3">
     <g id="line2d_8">
      <g>
       <use xlink:href="#m14dcf23fab" x="90" y="246.107592" style="stroke: #000000; stroke-width: 0.8"/>
      </g>
     </g>
     <g id="text_9">
      <!-- 0.000050 -->
      <g transform="translate(35.284375 249.90681) scale(0.1 -0.1)">
       <use xlink:href="#DejaVuSans-30"/>
       <use xlink:href="#DejaVuSans-2e" x="63.623047"/>
       <use xlink:href="#DejaVuSans-30" x="95.410156"/>
       <use xlink:href="#DejaVuSans-30" x="159.033203"/>
       <use xlink:href="#DejaVuSans-30" x="222.65625"/>
       <use xlink:href="#DejaVuSans-30" x="286.279297"/>
       <use xlink:href="#DejaVuSans-35" x="349.902344"/>
       <use xlink:href="#DejaVuSans-30" x="413.525391"/>
      </g>
     </g>
    </g>
    <g id="ytick_4">
     <g id="line2d_9">
      <g>
       <use xlink:href="#m14dcf23fab" x="90" y="215.261387" style="stroke: #000000; stroke-width: 0.8"/>
      </g>
     </g>
     <g id="text_10">
      <!-- 0.000075 -->
      <g transform="translate(35.284375 219.060606) scale(0.1 -0.1)">
       <defs>
        <path id="DejaVuSans-37" d="M 525 4666 
L 3525 4666 
L 3525 4397 
L 1831 0 
L 1172 0 
L 2766 4134 
L 525 4134 
L 525 4666 
z
" transform="scale(0.015625)"/>
       </defs>
       <use xlink:href="#DejaVuSans-30"/>
       <use xlink:href="#DejaVuSans-2e" x="63.623047"/>
       <use xlink:href="#DejaVuSans-30" x="95.410156"/>
       <use xlink:href="#DejaVuSans-30" x="159.033203"/>
       <use xlink:href="#DejaVuSans-30" x="222.65625"/>
       <use xlink:href="#DejaVuSans-30" x="286.279297"/>
       <use xlink:href="#DejaVuSans-37" x="349.902344"/>
       <use xlink:href="#DejaVuSans-35" x="413.525391"/>
      </g>
     </g>
    </g>
    <g id="ytick_5">
     <g id="line2d_10">
      <g>
       <use xlink:href="#m14dcf23fab" x="90" y="184.415183" style="stroke: #000000; stroke-width: 0.8"/>
      </g>
     </g>
     <g id="text_11">
      <!-- 0.000100 -->
      <g transform="translate(35.284375 188.214402) scale(0.1 -0.1)">
       <use xlink:href="#DejaVuSans-30"/>
       <use xlink:href="#DejaVuSans-2e" x="63.623047"/>
       <use xlink:href="#DejaVuSans-30" x="95.410156"/>
       <use xlink:href="#DejaVuSans-30" x="159.033203"/>
       <use xlink:href="#DejaVuSans-30" x="222.65625"/>
       <use xlink:href="#DejaVuSans-31" x="286.279297"/>
       <use xlink:href="#DejaVuSans-30" x="349.902344"/>
       <use xlink:href="#DejaVuSans-30" x="413.525391"/>
      </g>
     </g>
    </g>
    <g id="ytick_6">
     <g id="line2d_11">
      <g>
       <use xlink:href="#m14dcf23fab" x="90" y="153.568979" style="stroke: #000000; stroke-width: 0.8"/>
      </g>
     </g>
     <g id="text_12">
      <!-- 0.000125 -->
      <g transform="translate(35.284375 157.368198) scale(0.1 -0.1)">
       <use xlink:href="#DejaVuSans-30"/>
       <use xlink:href="#DejaVuSans-2e" x="63.623047"/>
       <use xlink:href="#DejaVuSans-30" x="95.410156"/>
       <use xlink:href="#DejaVuSans-30" x="159.033203"/>
       <use xlink:href="#DejaVuSans-30" x="222.65625"/>
       <use xlink:href="#DejaVuSans-31" x="286.279297"/>
       <use xlink:href="#DejaVuSans-32" x="349.902344"/>
       <use xlink:href="#DejaVuSans-35" x="413.525391"/>
      </g>
     </g>
    </g>
    <g id="ytick_7">
     <g id="line2d_12">
      <g>
       <use xlink:href="#m14dcf23fab" x="90" y="122.722775" style="stroke: #000000; stroke-width: 0.8"/>
      </g>
     </g>
     <g id="text_13">
      <!-- 0.000150 -->
      <g transform="translate(35.284375 126.521993) scale(0.1 -0.1)">
       <use xlink:href="#DejaVuSans-30"/>
       <use xlink:href="#DejaVuSans-2e" x="63.623047"/>
       <use xlink:href="#DejaVuSans-30" x="95.410156"/>
       <use xlink:href="#DejaVuSans-30" x="159.033203"/>
       <use xlink:href="#DejaVuSans-30" x="222.65625"/>
       <use xlink:href="#DejaVuSans-31" x="286.279297"/>
       <use xlink:href="#DejaVuSans-35" x="349.902344"/>
       <use xlink:href="#DejaVuSans-30" x="413.525391"/>
      </g>
     </g>
    </g>
    <g id="ytick_8">
     <g id="line2d_13">
      <g>
       <use xlink:href="#m14dcf23fab" x="90" y="91.87657" style="stroke: #000000; stroke-width: 0.8"/>
      </g>
     </g>
     <g id="text_14">
      <!-- 0.000175 -->
      <g transform="translate(35.284375 95.675789) scale(0.1 -0.1)">
       <use xlink:href="#DejaVuSans-30"/>
       <use xlink:href="#DejaVuSans-2e" x="63.623047"/>
       <use xlink:href="#DejaVuSans-30" x="95.410156"/>
       <use xlink:href="#DejaVuSans-30" x="159.033203"/>
       <use xlink:href="#DejaVuSans-30" x="222.65625"/>
       <use xlink:href="#DejaVuSans-31" x="286.279297"/>
       <use xlink:href="#DejaVuSans-37" x="349.902344"/>
       <use xlink:href="#DejaVuSans-35" x="413.525391"/>
      </g>
     </g>
    </g>
    <g id="ytick_9">
     <g id="line2d_14">
      <g>
       <use xlink:href="#m14dcf23fab" x="90" y="61.030366" style="stroke: #000000; stroke-width: 0.8"/>
      </g>
     </g>
     <g id="text_15">
      <!-- 0.000200 -->
      <g transform="translate(35.284375 64.829585) scale(0.1 -0.1)">
       <use xlink:href="#DejaVuSans-30"/>
       <use xlink:href="#DejaVuSans-2e" x="63.623047"/>
       <use xlink:href="#DejaVuSans-30" x="95.410156"/>
       <use xlink:href="#DejaVuSans-30" x="159.033203"/>
       <use xlink:href="#DejaVuSans-30" x="222.65625"/>
       <use xlink:href="#DejaVuSans-32" x="286.279297"/>
       <use xlink:href="#DejaVuSans-30" x="349.902344"/>
       <use xlink:href="#DejaVuSans-30" x="413.525391"/>
      </g>
     </g>
    </g>
    <g id="text_16">
     <!-- [Cve_d3g] -->
     <g transform="translate(28.455 212.350312) rotate(-90) scale(0.12 -0.12)">
      <defs>
       <path id="DejaVuSans-5b" d="M 550 4863 
L 1875 4863 
L 1875 4416 
L 1125 4416 
L 1125 -397 
L 1875 -397 
L 1875 -844 
L 550 -844 
L 550 4863 
z
" transform="scale(0.015625)"/>
       <path id="DejaVuSans-43" d="M 4122 4306 
L 4122 3641 
Q 3803 3938 3442 4084 
Q 3081 4231 2675 4231 
Q 1875 4231 1450 3742 
Q 1025 3253 1025 2328 
Q 1025 1406 1450 917 
Q 1875 428 2675 428 
Q 3081 428 3442 575 
Q 3803 722 4122 1019 
L 4122 359 
Q 3791 134 3420 21 
Q 3050 -91 2638 -91 
Q 1578 -91 968 557 
Q 359 1206 359 2328 
Q 359 3453 968 4101 
Q 1578 4750 2638 4750 
Q 3056 4750 3426 4639 
Q 3797 4528 4122 4306 
z
" transform="scale(0.015625)"/>
       <path id="DejaVuSans-76" d="M 191 3500 
L 800 3500 
L 1894 563 
L 2988 3500 
L 3597 3500 
L 2284 0 
L 1503 0 
L 191 3500 
z
" transform="scale(0.015625)"/>
       <path id="DejaVuSans-5f" d="M 3263 -1063 
L 3263 -1509 
L -63 -1509 
L -63 -1063 
L 3263 -1063 
z
" transform="scale(0.015625)"/>
       <path id="DejaVuSans-64" d="M 2906 2969 
L 2906 4863 
L 3481 4863 
L 3481 0 
L 2906 0 
L 2906 525 
Q 2725 213 2448 61 
Q 2172 -91 1784 -91 
Q 1150 -91 751 415 
Q 353 922 353 1747 
Q 353 2572 751 3078 
Q 1150 3584 1784 3584 
Q 2172 3584 2448 3432 
Q 2725 3281 2906 2969 
z
M 947 1747 
Q 947 1113 1208 752 
Q 1469 391 1925 391 
Q 2381 391 2643 752 
Q 2906 1113 2906 1747 
Q 2906 2381 2643 2742 
Q 2381 3103 1925 3103 
Q 1469 3103 1208 2742 
Q 947 2381 947 1747 
z
" transform="scale(0.015625)"/>
       <path id="DejaVuSans-33" d="M 2597 2516 
Q 3050 2419 3304 2112 
Q 3559 1806 3559 1356 
Q 3559 666 3084 287 
Q 2609 -91 1734 -91 
Q 1441 -91 1130 -33 
Q 819 25 488 141 
L 488 750 
Q 750 597 1062 519 
Q 1375 441 1716 441 
Q 2309 441 2620 675 
Q 2931 909 2931 1356 
Q 2931 1769 2642 2001 
Q 2353 2234 1838 2234 
L 1294 2234 
L 1294 2753 
L 1863 2753 
Q 2328 2753 2575 2939 
Q 2822 3125 2822 3475 
Q 2822 3834 2567 4026 
Q 2313 4219 1838 4219 
Q 1578 4219 1281 4162 
Q 984 4106 628 3988 
L 628 4550 
Q 988 4650 1302 4700 
Q 1616 4750 1894 4750 
Q 2613 4750 3031 4423 
Q 3450 4097 3450 3541 
Q 3450 3153 3228 2886 
Q 3006 2619 2597 2516 
z
" transform="scale(0.015625)"/>
       <path id="DejaVuSans-67" d="M 2906 1791 
Q 2906 2416 2648 2759 
Q 2391 3103 1925 3103 
Q 1463 3103 1205 2759 
Q 947 2416 947 1791 
Q 947 1169 1205 825 
Q 1463 481 1925 481 
Q 2391 481 2648 825 
Q 2906 1169 2906 1791 
z
M 3481 434 
Q 3481 -459 3084 -895 
Q 2688 -1331 1869 -1331 
Q 1566 -1331 1297 -1286 
Q 1028 -1241 775 -1147 
L 775 -588 
Q 1028 -725 1275 -790 
Q 1522 -856 1778 -856 
Q 2344 -856 2625 -561 
Q 2906 -266 2906 331 
L 2906 616 
Q 2728 306 2450 153 
Q 2172 0 1784 0 
Q 1141 0 747 490 
Q 353 981 353 1791 
Q 353 2603 747 3093 
Q 1141 3584 1784 3584 
Q 2172 3584 2450 3431 
Q 2728 3278 2906 2969 
L 2906 3500 
L 3481 3500 
L 3481 434 
z
" transform="scale(0.015625)"/>
       <path id="DejaVuSans-5d" d="M 1947 4863 
L 1947 -844 
L 622 -844 
L 622 -397 
L 1369 -397 
L 1369 4416 
L 622 4416 
L 622 4863 
L 1947 4863 
z
" transform="scale(0.015625)"/>
      </defs>
      <use xlink:href="#DejaVuSans-5b"/>
      <use xlink:href="#DejaVuSans-43" x="39.013672"/>
      <use xlink:href="#DejaVuSans-76" x="108.837891"/>
      <use xlink:href="#DejaVuSans-65" x="168.017578"/>
      <use xlink:href="#DejaVuSans-5f" x="229.541016"/>
      <use xlink:href="#DejaVuSans-64" x="279.541016"/>
      <use xlink:href="#DejaVuSans-33" x="343.017578"/>
      <use xlink:href="#DejaVuSans-67" x="406.640625"/>
      <use xlink:href="#DejaVuSans-5d" x="470.117188"/>
     </g>
    </g>
   </g>
   <g id="LineCollection_1">
    <path d="M 111.136364 306.241639 
L 111.136364 299.69698 
" clip-path="url(#pd99b981ea5)" style="fill: none; stroke: #000000; stroke-width: 1.5"/>
    <path d="M 111.321133 271.960754 
L 111.321133 210.985233 
" clip-path="url(#pd99b981ea5)" style="fill: none; stroke: #000000; stroke-width: 1.5"/>
    <path d="M 111.635856 142.637816 
L 111.635856 55.8 
" clip-path="url(#pd99b981ea5)" style="fill: none; stroke: #000000; stroke-width: 1.5"/>
    <path d="M 111.950578 153.761584 
L 111.950578 69.433098 
" clip-path="url(#pd99b981ea5)" style="fill: none; stroke: #000000; stroke-width: 1.5"/>
    <path d="M 112.265301 183.493861 
L 112.265301 112.685552 
" clip-path="url(#pd99b981ea5)" style="fill: none; stroke: #000000; stroke-width: 1.5"/>
    <path d="M 113.524191 258.784576 
L 113.524191 221.177159 
" clip-path="url(#pd99b981ea5)" style="fill: none; stroke: #000000; stroke-width: 1.5"/>
    <path d="M 114.783082 279.358694 
L 114.783082 261.85163 
" clip-path="url(#pd99b981ea5)" style="fill: none; stroke: #000000; stroke-width: 1.5"/>
    <path d="M 116.041972 285.935004 
L 116.041972 271.423507 
" clip-path="url(#pd99b981ea5)" style="fill: none; stroke: #000000; stroke-width: 1.5"/>
    <path d="M 117.300863 292.768515 
L 117.300863 282.033088 
" clip-path="url(#pd99b981ea5)" style="fill: none; stroke: #000000; stroke-width: 1.5"/>
    <path d="M 118.559753 299.715201 
L 118.559753 285.502281 
" clip-path="url(#pd99b981ea5)" style="fill: none; stroke: #000000; stroke-width: 1.5"/>
    <path d="M 122.336424 302.572596 
L 122.336424 298.118523 
" clip-path="url(#pd99b981ea5)" style="fill: none; stroke: #000000; stroke-width: 1.5"/>
    <path d="M 126.113096 301.486646 
L 126.113096 297.450316 
" clip-path="url(#pd99b981ea5)" style="fill: none; stroke: #000000; stroke-width: 1.5"/>
    <path d="M 307.393315 300.797488 
L 307.393315 296.487087 
" clip-path="url(#pd99b981ea5)" style="fill: none; stroke: #000000; stroke-width: 1.5"/>
    <path d="M 307.535082 297.505172 
L 307.535082 292.524015 
" clip-path="url(#pd99b981ea5)" style="fill: none; stroke: #000000; stroke-width: 1.5"/>
    <path d="M 307.708038 260.660931 
L 307.708038 200.791109 
" clip-path="url(#pd99b981ea5)" style="fill: none; stroke: #000000; stroke-width: 1.5"/>
    <path d="M 308.02276 150.296257 
L 308.02276 64.070674 
" clip-path="url(#pd99b981ea5)" style="fill: none; stroke: #000000; stroke-width: 1.5"/>
    <path d="M 308.337483 164.003574 
L 308.337483 72.069904 
" clip-path="url(#pd99b981ea5)" style="fill: none; stroke: #000000; stroke-width: 1.5"/>
    <path d="M 308.652205 195.218275 
L 308.652205 123.241165 
" clip-path="url(#pd99b981ea5)" style="fill: none; stroke: #000000; stroke-width: 1.5"/>
    <path d="M 309.911096 254.181847 
L 309.911096 221.177159 
" clip-path="url(#pd99b981ea5)" style="fill: none; stroke: #000000; stroke-width: 1.5"/>
    <path d="M 311.169986 271.194597 
L 311.169986 247.791588 
" clip-path="url(#pd99b981ea5)" style="fill: none; stroke: #000000; stroke-width: 1.5"/>
    <path d="M 312.428877 274.194273 
L 312.428877 253.508246 
" clip-path="url(#pd99b981ea5)" style="fill: none; stroke: #000000; stroke-width: 1.5"/>
    <path d="M 313.687767 289.320507 
L 313.687767 268.038004 
" clip-path="url(#pd99b981ea5)" style="fill: none; stroke: #000000; stroke-width: 1.5"/>
    <path d="M 314.946658 294.855041 
L 314.946658 279.946562 
" clip-path="url(#pd99b981ea5)" style="fill: none; stroke: #000000; stroke-width: 1.5"/>
    <path d="M 318.723329 300.071199 
L 318.723329 295.840059 
" clip-path="url(#pd99b981ea5)" style="fill: none; stroke: #000000; stroke-width: 1.5"/>
    <path d="M 322.5 300.175975 
L 322.5 296.487087 
" clip-path="url(#pd99b981ea5)" style="fill: none; stroke: #000000; stroke-width: 1.5"/>
   </g>
   <g id="line2d_15">
    <path d="M 111.006411 307.8 
L 111.041367 307.694778 
L 111.096501 306.108618 
L 111.217138 294.4893 
L 111.947894 206.534294 
L 112.158639 202.413005 
L 112.207426 202.479702 
L 112.353786 204.413238 
L 112.628246 212.88841 
L 114.373114 278.87231 
L 114.9283 289.497642 
L 115.483485 296.146398 
L 116.038671 300.153258 
L 116.593856 302.505001 
L 117.149042 303.859213 
L 117.704227 304.628485 
L 118.338725 305.105571 
L 119.131847 305.392395 
L 120.322967 305.555161 
L 123.198323 305.646444 
L 126.146422 305.603825 
L 126.196908 304.303227 
L 126.309371 294.28463 
L 127.106124 202.681937 
L 127.269223 200.316132 
L 127.301843 200.342895 
L 127.401037 201.257505 
L 127.599425 206.01644 
L 128.007641 222.396769 
L 129.049143 264.892289 
L 129.690067 281.402086 
L 130.250876 290.425135 
L 130.811685 295.955779 
L 131.372494 299.236245 
L 131.933303 301.137964 
L 132.494112 302.223213 
L 133.054921 302.836718 
L 133.695846 303.21788 
L 134.577117 303.466061 
L 136.099313 303.619011 
L 141.066478 303.776079 
L 141.253381 303.688468 
L 141.303985 302.373167 
L 141.420644 291.782998 
L 142.206796 200.958825 
L 142.380125 198.412611 
L 142.449456 198.678672 
L 142.588907 200.904787 
L 142.903262 211.36183 
L 144.43032 271.02573 
L 144.983425 283.017283 
L 145.536531 290.642464 
L 146.089637 295.295502 
L 146.642742 298.056352 
L 147.195848 299.66325 
L 147.748954 300.587177 
L 148.302059 301.115686 
L 149.013195 301.479452 
L 150.040392 301.714009 
L 152.015769 301.872421 
L 156.355683 301.989729 
L 156.400609 301.05724 
L 156.503123 293.033599 
L 156.857379 237.868442 
L 157.196513 204.194971 
L 157.436734 196.919326 
L 157.505369 196.701764 
L 157.539686 196.840073 
L 157.677839 198.796279 
L 157.937428 206.780097 
L 159.811373 275.919676 
L 160.358071 285.477164 
L 160.904768 291.456782 
L 161.451466 295.076375 
L 161.998163 297.218541 
L 162.544861 298.467815 
L 163.091558 299.190949 
L 163.716355 299.653351 
L 164.497352 299.948719 
L 165.746946 300.152636 
L 168.792832 300.347378 
L 171.468089 300.373256 
L 171.526307 298.631528 
L 171.647196 286.725504 
L 172.371865 199.366982 
L 172.595335 195.133096 
L 172.685088 195.616818 
L 172.864595 199.215335 
L 173.225241 212.693341 
L 174.444259 262.114514 
L 175.053884 277.17087 
L 175.562097 285.235424 
L 176.070311 290.417253 
L 176.578525 293.659217 
L 177.086738 295.650382 
L 177.594952 296.858739 
L 178.103165 297.587814 
L 178.713022 298.093065 
L 179.526164 298.437721 
L 180.745876 298.662919 
L 183.591872 298.880617 
L 186.573896 298.96323 
L 186.626249 297.551256 
L 186.742503 286.831742 
L 187.519112 196.506612 
L 187.680452 193.770985 
L 187.729266 193.761853 
L 187.826896 194.665364 
L 188.022155 199.319573 
L 188.450782 216.583974 
L 189.462045 257.93892 
L 190.084361 274.257985 
L 190.628887 283.339334 
L 191.173413 289.012158 
L 191.717939 292.447673 
L 192.262465 294.485725 
L 192.806991 295.679852 
L 193.351517 296.376613 
L 193.973832 296.828497 
L 194.829516 297.145743 
L 196.151937 297.363362 
L 199.730251 297.640191 
L 201.680933 297.670904 
L 201.736171 296.105359 
L 201.855732 284.676335 
L 202.603617 195.976618 
L 202.813587 192.445108 
L 202.883577 192.780924 
L 203.024839 195.161407 
L 203.343642 205.976927 
L 204.826615 264.321722 
L 205.393493 276.860765 
L 205.960372 284.76653 
L 206.527251 289.541787 
L 207.094129 292.346367 
L 207.661008 293.964908 
L 208.227886 294.891472 
L 208.794765 295.423362 
L 209.523609 295.797201 
L 210.576384 296.057168 
L 212.681933 296.289687 
L 216.785188 296.525949 
L 216.838867 295.132464 
L 216.954571 284.549661 
L 217.751748 193.494782 
L 217.922874 191.288952 
L 217.991324 191.634323 
L 218.147232 194.388037 
L 218.459048 205.185152 
L 219.923697 262.91815 
L 220.473072 275.241376 
L 221.022448 283.141679 
L 221.571823 288.002221 
L 222.121198 290.912561 
L 222.670573 292.625537 
L 223.219949 293.625458 
L 223.769324 294.210122 
L 224.475663 294.628236 
L 225.41745 294.90698 
L 227.144057 295.143448 
L 231.885331 295.512268 
L 231.93117 294.663621 
L 232.031327 287.137377 
L 232.341359 238.787294 
L 232.686125 200.38745 
L 232.925683 190.995427 
L 233.02835 190.241352 
L 233.062573 190.33295 
L 233.14879 191.212207 
L 233.35677 196.307013 
L 233.852509 216.831752 
L 234.795566 254.926959 
L 235.424271 271.234878 
L 235.974388 280.252269 
L 236.524505 285.853083 
L 237.074622 289.227677 
L 237.624738 291.221725 
L 238.174855 292.387991 
L 238.724972 293.069841 
L 239.353677 293.516072 
L 240.218146 293.83797 
L 241.632733 294.086452 
L 245.640727 294.470424 
L 246.998676 294.508995 
L 247.053737 293.046351 
L 247.177715 281.238503 
L 247.907747 193.415989 
L 248.087816 189.431755 
L 248.133123 189.287198 
L 248.178431 189.430305 
L 248.314354 191.325696 
L 248.564532 198.90477 
L 250.426084 268.070451 
L 250.977655 277.922951 
L 251.460314 283.467138 
L 251.977496 287.246018 
L 252.494678 289.564482 
L 253.01186 290.97012 
L 253.529042 291.818973 
L 254.14966 292.410632 
L 254.873715 292.785384 
L 255.908079 293.056808 
L 258.080243 293.336112 
L 262.104106 293.650646 
L 262.157286 292.324627 
L 262.272268 281.974479 
L 263.045637 191.424284 
L 263.241492 188.42614 
L 263.332293 188.995384 
L 263.513893 192.780161 
L 263.881536 206.723132 
L 265.058116 254.680914 
L 265.681011 270.315966 
L 266.234696 279.064061 
L 266.788381 284.466518 
L 267.342066 287.706379 
L 267.89575 289.614227 
L 268.449435 290.728256 
L 269.00312 291.380365 
L 269.695226 291.839033 
L 270.594964 292.147654 
L 272.152254 292.409955 
L 277.197068 292.925592 
L 277.227536 292.66379 
L 277.295859 289.677979 
L 277.45672 269.839395 
L 278.016559 197.117055 
L 278.259069 188.207592 
L 278.363001 187.667621 
L 278.397646 187.828848 
L 278.537755 189.902572 
L 278.801418 198.166276 
L 280.566623 264.799065 
L 281.129076 275.416075 
L 281.691528 282.024838 
L 282.253981 285.994994 
L 282.816434 288.327106 
L 283.378886 289.680887 
L 283.941339 290.46612 
L 284.584142 290.976277 
L 285.387646 291.318766 
L 286.673252 291.592698 
L 289.887267 291.969819 
L 292.321018 292.121281 
L 292.374328 290.653311 
L 292.487006 280.299147 
L 293.262193 189.829437 
L 293.457281 186.938515 
L 293.535316 187.391098 
L 293.691386 190.316277 
L 294.053949 203.455951 
L 295.310852 254.414413 
L 295.864594 268.256992 
L 296.418336 277.230934 
L 296.972077 282.785468 
L 297.525819 286.122661 
L 298.079561 288.091285 
L 298.633303 289.243118 
L 299.187045 289.919158 
L 299.833077 290.373119 
L 300.75598 290.714803 
L 302.324915 290.999378 
L 307.308592 291.558882 
L 307.427774 291.471792 
L 307.482779 289.918226 
L 307.602628 278.471239 
L 308.365075 189.309083 
L 308.571949 186.304411 
L 308.658163 186.934671 
L 308.865105 191.575932 
L 309.2793 208.060901 
L 310.290158 249.766031 
L 310.912224 266.404103 
L 311.456532 275.702402 
L 312.00084 281.531901 
L 312.545148 285.077391 
L 313.089456 287.193168 
L 313.633764 288.444143 
L 314.178072 289.184776 
L 314.800139 289.677398 
L 315.65548 290.041959 
L 316.977371 290.324351 
L 320.398736 290.747055 
L 323.129445 291.048646 
L 323.129445 291.048646 
" clip-path="url(#pd99b981ea5)" style="fill: none; stroke: #0000ff; stroke-width: 1.5; stroke-linecap: square"/>
   </g>
   <g id="line2d_16">
    <path d="M 111.136364 302.969309 
L 111.321133 241.472994 
L 111.635856 99.218908 
L 111.950578 111.597341 
L 112.265301 148.089706 
L 113.524191 239.980867 
L 114.783082 270.605162 
L 116.041972 278.679256 
L 117.300863 287.400802 
L 118.559753 292.608741 
L 122.336424 300.34556 
L 126.113096 299.468481 
L 307.393315 298.642287 
L 307.535082 295.014593 
L 307.708038 230.72602 
L 308.02276 107.183465 
L 308.337483 118.036739 
L 308.652205 159.22972 
L 309.911096 237.679503 
L 311.169986 259.493092 
L 312.428877 263.851259 
L 313.687767 278.679256 
L 314.946658 287.400802 
L 318.723329 297.955629 
L 322.5 298.331531 
" clip-path="url(#pd99b981ea5)" style="fill: none; stroke: #000000; stroke-width: 1.5; stroke-linecap: square"/>
    <defs>
     <path id="m2343ca4e67" d="M -5 5 
L 5 5 
L 5 -5 
L -5 -5 
z
" style="stroke: #000000; stroke-linejoin: miter"/>
    </defs>
    <g clip-path="url(#pd99b981ea5)">
     <use xlink:href="#m2343ca4e67" x="111.136364" y="302.969309" style="stroke: #000000; stroke-linejoin: miter"/>
     <use xlink:href="#m2343ca4e67" x="111.321133" y="241.472994" style="stroke: #000000; stroke-linejoin: miter"/>
     <use xlink:href="#m2343ca4e67" x="111.635856" y="99.218908" style="stroke: #000000; stroke-linejoin: miter"/>
     <use xlink:href="#m2343ca4e67" x="111.950578" y="111.597341" style="stroke: #000000; stroke-linejoin: miter"/>
     <use xlink:href="#m2343ca4e67" x="112.265301" y="148.089706" style="stroke: #000000; stroke-linejoin: miter"/>
     <use xlink:href="#m2343ca4e67" x="113.524191" y="239.980867" style="stroke: #000000; stroke-linejoin: miter"/>
     <use xlink:href="#m2343ca4e67" x="114.783082" y="270.605162" style="stroke: #000000; stroke-linejoin: miter"/>
     <use xlink:href="#m2343ca4e67" x="116.041972" y="278.679256" style="stroke: #000000; stroke-linejoin: miter"/>
     <use xlink:href="#m2343ca4e67" x="117.300863" y="287.400802" style="stroke: #000000; stroke-linejoin: miter"/>
     <use xlink:href="#m2343ca4e67" x="118.559753" y="292.608741" style="stroke: #000000; stroke-linejoin: miter"/>
     <use xlink:href="#m2343ca4e67" x="122.336424" y="300.34556" style="stroke: #000000; stroke-linejoin: miter"/>
     <use xlink:href="#m2343ca4e67" x="126.113096" y="299.468481" style="stroke: #000000; stroke-linejoin: miter"/>
     <use xlink:href="#m2343ca4e67" x="307.393315" y="298.642287" style="stroke: #000000; stroke-linejoin: miter"/>
     <use xlink:href="#m2343ca4e67" x="307.535082" y="295.014593" style="stroke: #000000; stroke-linejoin: miter"/>
     <use xlink:href="#m2343ca4e67" x="307.708038" y="230.72602" style="stroke: #000000; stroke-linejoin: miter"/>
     <use xlink:href="#m2343ca4e67" x="308.02276" y="107.183465" style="stroke: #000000; stroke-linejoin: miter"/>
     <use xlink:href="#m2343ca4e67" x="308.337483" y="118.036739" style="stroke: #000000; stroke-linejoin: miter"/>
     <use xlink:href="#m2343ca4e67" x="308.652205" y="159.22972" style="stroke: #000000; stroke-linejoin: miter"/>
     <use xlink:href="#m2343ca4e67" x="309.911096" y="237.679503" style="stroke: #000000; stroke-linejoin: miter"/>
     <use xlink:href="#m2343ca4e67" x="311.169986" y="259.493092" style="stroke: #000000; stroke-linejoin: miter"/>
     <use xlink:href="#m2343ca4e67" x="312.428877" y="263.851259" style="stroke: #000000; stroke-linejoin: miter"/>
     <use xlink:href="#m2343ca4e67" x="313.687767" y="278.679256" style="stroke: #000000; stroke-linejoin: miter"/>
     <use xlink:href="#m2343ca4e67" x="314.946658" y="287.400802" style="stroke: #000000; stroke-linejoin: miter"/>
     <use xlink:href="#m2343ca4e67" x="318.723329" y="297.955629" style="stroke: #000000; stroke-linejoin: miter"/>
     <use xlink:href="#m2343ca4e67" x="322.5" y="298.331531" style="stroke: #000000; stroke-linejoin: miter"/>
    </g>
   </g>
   <g id="patch_3">
    <path d="M 90 320.4 
L 90 43.2 
" style="fill: none; stroke: #000000; stroke-width: 0.8; stroke-linejoin: miter; stroke-linecap: square"/>
   </g>
   <g id="patch_4">
    <path d="M 343.636364 320.4 
L 343.636364 43.2 
" style="fill: none; stroke: #000000; stroke-width: 0.8; stroke-linejoin: miter; stroke-linecap: square"/>
   </g>
   <g id="patch_5">
    <path d="M 90 320.4 
L 343.636364 320.4 
" style="fill: none; stroke: #000000; stroke-width: 0.8; stroke-linejoin: miter; stroke-linecap: square"/>
   </g>
   <g id="patch_6">
    <path d="M 90 43.2 
L 343.636364 43.2 
" style="fill: none; stroke: #000000; stroke-width: 0.8; stroke-linejoin: miter; stroke-linecap: square"/>
   </g>
   <g id="text_17">
    <!-- Kasichayanula2011a fm_dap2.5_dapagliflozin 3-o-glucuronide -->
    <g transform="translate(-0.634631 37.2) scale(0.14 -0.14)">
     <defs>
      <path id="DejaVuSans-4b" d="M 628 4666 
L 1259 4666 
L 1259 2694 
L 3353 4666 
L 4166 4666 
L 1850 2491 
L 4331 0 
L 3500 0 
L 1259 2247 
L 1259 0 
L 628 0 
L 628 4666 
z
" transform="scale(0.015625)"/>
      <path id="DejaVuSans-61" d="M 2194 1759 
Q 1497 1759 1228 1600 
Q 959 1441 959 1056 
Q 959 750 1161 570 
Q 1363 391 1709 391 
Q 2188 391 2477 730 
Q 2766 1069 2766 1631 
L 2766 1759 
L 2194 1759 
z
M 3341 1997 
L 3341 0 
L 2766 0 
L 2766 531 
Q 2569 213 2275 61 
Q 1981 -91 1556 -91 
Q 1019 -91 701 211 
Q 384 513 384 1019 
Q 384 1609 779 1909 
Q 1175 2209 1959 2209 
L 2766 2209 
L 2766 2266 
Q 2766 2663 2505 2880 
Q 2244 3097 1772 3097 
Q 1472 3097 1187 3025 
Q 903 2953 641 2809 
L 641 3341 
Q 956 3463 1253 3523 
Q 1550 3584 1831 3584 
Q 2591 3584 2966 3190 
Q 3341 2797 3341 1997 
z
" transform="scale(0.015625)"/>
      <path id="DejaVuSans-73" d="M 2834 3397 
L 2834 2853 
Q 2591 2978 2328 3040 
Q 2066 3103 1784 3103 
Q 1356 3103 1142 2972 
Q 928 2841 928 2578 
Q 928 2378 1081 2264 
Q 1234 2150 1697 2047 
L 1894 2003 
Q 2506 1872 2764 1633 
Q 3022 1394 3022 966 
Q 3022 478 2636 193 
Q 2250 -91 1575 -91 
Q 1294 -91 989 -36 
Q 684 19 347 128 
L 347 722 
Q 666 556 975 473 
Q 1284 391 1588 391 
Q 1994 391 2212 530 
Q 2431 669 2431 922 
Q 2431 1156 2273 1281 
Q 2116 1406 1581 1522 
L 1381 1569 
Q 847 1681 609 1914 
Q 372 2147 372 2553 
Q 372 3047 722 3315 
Q 1072 3584 1716 3584 
Q 2034 3584 2315 3537 
Q 2597 3491 2834 3397 
z
" transform="scale(0.015625)"/>
      <path id="DejaVuSans-63" d="M 3122 3366 
L 3122 2828 
Q 2878 2963 2633 3030 
Q 2388 3097 2138 3097 
Q 1578 3097 1268 2742 
Q 959 2388 959 1747 
Q 959 1106 1268 751 
Q 1578 397 2138 397 
Q 2388 397 2633 464 
Q 2878 531 3122 666 
L 3122 134 
Q 2881 22 2623 -34 
Q 2366 -91 2075 -91 
Q 1284 -91 818 406 
Q 353 903 353 1747 
Q 353 2603 823 3093 
Q 1294 3584 2113 3584 
Q 2378 3584 2631 3529 
Q 2884 3475 3122 3366 
z
" transform="scale(0.015625)"/>
      <path id="DejaVuSans-68" d="M 3513 2113 
L 3513 0 
L 2938 0 
L 2938 2094 
Q 2938 2591 2744 2837 
Q 2550 3084 2163 3084 
Q 1697 3084 1428 2787 
Q 1159 2491 1159 1978 
L 1159 0 
L 581 0 
L 581 4863 
L 1159 4863 
L 1159 2956 
Q 1366 3272 1645 3428 
Q 1925 3584 2291 3584 
Q 2894 3584 3203 3211 
Q 3513 2838 3513 2113 
z
" transform="scale(0.015625)"/>
      <path id="DejaVuSans-79" d="M 2059 -325 
Q 1816 -950 1584 -1140 
Q 1353 -1331 966 -1331 
L 506 -1331 
L 506 -850 
L 844 -850 
Q 1081 -850 1212 -737 
Q 1344 -625 1503 -206 
L 1606 56 
L 191 3500 
L 800 3500 
L 1894 763 
L 2988 3500 
L 3597 3500 
L 2059 -325 
z
" transform="scale(0.015625)"/>
      <path id="DejaVuSans-6e" d="M 3513 2113 
L 3513 0 
L 2938 0 
L 2938 2094 
Q 2938 2591 2744 2837 
Q 2550 3084 2163 3084 
Q 1697 3084 1428 2787 
Q 1159 2491 1159 1978 
L 1159 0 
L 581 0 
L 581 3500 
L 1159 3500 
L 1159 2956 
Q 1366 3272 1645 3428 
Q 1925 3584 2291 3584 
Q 2894 3584 3203 3211 
Q 3513 2838 3513 2113 
z
" transform="scale(0.015625)"/>
      <path id="DejaVuSans-75" d="M 544 1381 
L 544 3500 
L 1119 3500 
L 1119 1403 
Q 1119 906 1312 657 
Q 1506 409 1894 409 
Q 2359 409 2629 706 
Q 2900 1003 2900 1516 
L 2900 3500 
L 3475 3500 
L 3475 0 
L 2900 0 
L 2900 538 
Q 2691 219 2414 64 
Q 2138 -91 1772 -91 
Q 1169 -91 856 284 
Q 544 659 544 1381 
z
M 1991 3584 
L 1991 3584 
z
" transform="scale(0.015625)"/>
      <path id="DejaVuSans-6c" d="M 603 4863 
L 1178 4863 
L 1178 0 
L 603 0 
L 603 4863 
z
" transform="scale(0.015625)"/>
      <path id="DejaVuSans-20" transform="scale(0.015625)"/>
      <path id="DejaVuSans-66" d="M 2375 4863 
L 2375 4384 
L 1825 4384 
Q 1516 4384 1395 4259 
Q 1275 4134 1275 3809 
L 1275 3500 
L 2222 3500 
L 2222 3053 
L 1275 3053 
L 1275 0 
L 697 0 
L 697 3053 
L 147 3053 
L 147 3500 
L 697 3500 
L 697 3744 
Q 697 4328 969 4595 
Q 1241 4863 1831 4863 
L 2375 4863 
z
" transform="scale(0.015625)"/>
      <path id="DejaVuSans-70" d="M 1159 525 
L 1159 -1331 
L 581 -1331 
L 581 3500 
L 1159 3500 
L 1159 2969 
Q 1341 3281 1617 3432 
Q 1894 3584 2278 3584 
Q 2916 3584 3314 3078 
Q 3713 2572 3713 1747 
Q 3713 922 3314 415 
Q 2916 -91 2278 -91 
Q 1894 -91 1617 61 
Q 1341 213 1159 525 
z
M 3116 1747 
Q 3116 2381 2855 2742 
Q 2594 3103 2138 3103 
Q 1681 3103 1420 2742 
Q 1159 2381 1159 1747 
Q 1159 1113 1420 752 
Q 1681 391 2138 391 
Q 2594 391 2855 752 
Q 3116 1113 3116 1747 
z
" transform="scale(0.015625)"/>
      <path id="DejaVuSans-6f" d="M 1959 3097 
Q 1497 3097 1228 2736 
Q 959 2375 959 1747 
Q 959 1119 1226 758 
Q 1494 397 1959 397 
Q 2419 397 2687 759 
Q 2956 1122 2956 1747 
Q 2956 2369 2687 2733 
Q 2419 3097 1959 3097 
z
M 1959 3584 
Q 2709 3584 3137 3096 
Q 3566 2609 3566 1747 
Q 3566 888 3137 398 
Q 2709 -91 1959 -91 
Q 1206 -91 779 398 
Q 353 888 353 1747 
Q 353 2609 779 3096 
Q 1206 3584 1959 3584 
z
" transform="scale(0.015625)"/>
      <path id="DejaVuSans-7a" d="M 353 3500 
L 3084 3500 
L 3084 2975 
L 922 459 
L 3084 459 
L 3084 0 
L 275 0 
L 275 525 
L 2438 3041 
L 353 3041 
L 353 3500 
z
" transform="scale(0.015625)"/>
      <path id="DejaVuSans-2d" d="M 313 2009 
L 1997 2009 
L 1997 1497 
L 313 1497 
L 313 2009 
z
" transform="scale(0.015625)"/>
      <path id="DejaVuSans-72" d="M 2631 2963 
Q 2534 3019 2420 3045 
Q 2306 3072 2169 3072 
Q 1681 3072 1420 2755 
Q 1159 2438 1159 1844 
L 1159 0 
L 581 0 
L 581 3500 
L 1159 3500 
L 1159 2956 
Q 1341 3275 1631 3429 
Q 1922 3584 2338 3584 
Q 2397 3584 2469 3576 
Q 2541 3569 2628 3553 
L 2631 2963 
z
" transform="scale(0.015625)"/>
     </defs>
     <use xlink:href="#DejaVuSans-4b"/>
     <use xlink:href="#DejaVuSans-61" x="63.826172"/>
     <use xlink:href="#DejaVuSans-73" x="125.105469"/>
     <use xlink:href="#DejaVuSans-69" x="177.205078"/>
     <use xlink:href="#DejaVuSans-63" x="204.988281"/>
     <use xlink:href="#DejaVuSans-68" x="259.96875"/>
     <use xlink:href="#DejaVuSans-61" x="323.347656"/>
     <use xlink:href="#DejaVuSans-79" x="384.626953"/>
     <use xlink:href="#DejaVuSans-61" x="443.806641"/>
     <use xlink:href="#DejaVuSans-6e" x="505.085938"/>
     <use xlink:href="#DejaVuSans-75" x="568.464844"/>
     <use xlink:href="#DejaVuSans-6c" x="631.84375"/>
     <use xlink:href="#DejaVuSans-61" x="659.626953"/>
     <use xlink:href="#DejaVuSans-32" x="720.90625"/>
     <use xlink:href="#DejaVuSans-30" x="784.529297"/>
     <use xlink:href="#DejaVuSans-31" x="848.152344"/>
     <use xlink:href="#DejaVuSans-31" x="911.775391"/>
     <use xlink:href="#DejaVuSans-61" x="975.398438"/>
     <use xlink:href="#DejaVuSans-20" x="1036.677734"/>
     <use xlink:href="#DejaVuSans-66" x="1068.464844"/>
     <use xlink:href="#DejaVuSans-6d" x="1103.669922"/>
     <use xlink:href="#DejaVuSans-5f" x="1201.082031"/>
     <use xlink:href="#DejaVuSans-64" x="1251.082031"/>
     <use xlink:href="#DejaVuSans-61" x="1314.558594"/>
     <use xlink:href="#DejaVuSans-70" x="1375.837891"/>
     <use xlink:href="#DejaVuSans-32" x="1439.314453"/>
     <use xlink:href="#DejaVuSans-2e" x="1502.9375"/>
     <use xlink:href="#DejaVuSans-35" x="1534.724609"/>
     <use xlink:href="#DejaVuSans-5f" x="1598.347656"/>
     <use xlink:href="#DejaVuSans-64" x="1648.347656"/>
     <use xlink:href="#DejaVuSans-61" x="1711.824219"/>
     <use xlink:href="#DejaVuSans-70" x="1773.103516"/>
     <use xlink:href="#DejaVuSans-61" x="1836.580078"/>
     <use xlink:href="#DejaVuSans-67" x="1897.859375"/>
     <use xlink:href="#DejaVuSans-6c" x="1961.335938"/>
     <use xlink:href="#DejaVuSans-69" x="1989.119141"/>
     <use xlink:href="#DejaVuSans-66" x="2016.902344"/>
     <use xlink:href="#DejaVuSans-6c" x="2052.107422"/>
     <use xlink:href="#DejaVuSans-6f" x="2079.890625"/>
     <use xlink:href="#DejaVuSans-7a" x="2141.072266"/>
     <use xlink:href="#DejaVuSans-69" x="2193.5625"/>
     <use xlink:href="#DejaVuSans-6e" x="2221.345703"/>
     <use xlink:href="#DejaVuSans-20" x="2284.724609"/>
     <use xlink:href="#DejaVuSans-33" x="2316.511719"/>
     <use xlink:href="#DejaVuSans-2d" x="2380.134766"/>
     <use xlink:href="#DejaVuSans-6f" x="2418.09375"/>
     <use xlink:href="#DejaVuSans-2d" x="2481.150391"/>
     <use xlink:href="#DejaVuSans-67" x="2517.234375"/>
     <use xlink:href="#DejaVuSans-6c" x="2580.710938"/>
     <use xlink:href="#DejaVuSans-75" x="2608.494141"/>
     <use xlink:href="#DejaVuSans-63" x="2671.873047"/>
     <use xlink:href="#DejaVuSans-75" x="2726.853516"/>
     <use xlink:href="#DejaVuSans-72" x="2790.232422"/>
     <use xlink:href="#DejaVuSans-6f" x="2829.095703"/>
     <use xlink:href="#DejaVuSans-6e" x="2890.277344"/>
     <use xlink:href="#DejaVuSans-69" x="2953.65625"/>
     <use xlink:href="#DejaVuSans-64" x="2981.439453"/>
     <use xlink:href="#DejaVuSans-65" x="3044.916016"/>
    </g>
   </g>
   <g id="legend_1">
    <g id="patch_7">
     <path d="M 200.586364 80.834375 
L 336.636364 80.834375 
Q 338.636364 80.834375 338.636364 78.834375 
L 338.636364 50.2 
Q 338.636364 48.2 336.636364 48.2 
L 200.586364 48.2 
Q 198.586364 48.2 198.586364 50.2 
L 198.586364 78.834375 
Q 198.586364 80.834375 200.586364 80.834375 
z
" style="fill: #ffffff; opacity: 0.8; stroke: #cccccc; stroke-linejoin: miter"/>
    </g>
    <g id="line2d_17">
     <path d="M 202.586364 56.298437 
L 212.586364 56.298437 
L 222.586364 56.298437 
" style="fill: none; stroke: #0000ff; stroke-width: 1.5; stroke-linecap: square"/>
    </g>
    <g id="text_18">
     <!-- observable -->
     <g transform="translate(230.586364 59.798437) scale(0.1 -0.1)">
      <defs>
       <path id="DejaVuSans-62" d="M 3116 1747 
Q 3116 2381 2855 2742 
Q 2594 3103 2138 3103 
Q 1681 3103 1420 2742 
Q 1159 2381 1159 1747 
Q 1159 1113 1420 752 
Q 1681 391 2138 391 
Q 2594 391 2855 752 
Q 3116 1113 3116 1747 
z
M 1159 2969 
Q 1341 3281 1617 3432 
Q 1894 3584 2278 3584 
Q 2916 3584 3314 3078 
Q 3713 2572 3713 1747 
Q 3713 922 3314 415 
Q 2916 -91 2278 -91 
Q 1894 -91 1617 61 
Q 1341 213 1159 525 
L 1159 0 
L 581 0 
L 581 4863 
L 1159 4863 
L 1159 2969 
z
" transform="scale(0.015625)"/>
      </defs>
      <use xlink:href="#DejaVuSans-6f"/>
      <use xlink:href="#DejaVuSans-62" x="61.181641"/>
      <use xlink:href="#DejaVuSans-73" x="124.658203"/>
      <use xlink:href="#DejaVuSans-65" x="176.757812"/>
      <use xlink:href="#DejaVuSans-72" x="238.28125"/>
      <use xlink:href="#DejaVuSans-76" x="279.394531"/>
      <use xlink:href="#DejaVuSans-61" x="338.574219"/>
      <use xlink:href="#DejaVuSans-62" x="399.853516"/>
      <use xlink:href="#DejaVuSans-6c" x="463.330078"/>
      <use xlink:href="#DejaVuSans-65" x="491.113281"/>
     </g>
    </g>
    <g id="LineCollection_2">
     <path d="M 212.586364 75.976562 
L 212.586364 65.976562 
" style="fill: none; stroke: #000000; stroke-width: 1.5"/>
    </g>
    <g id="line2d_18">
     <path d="M 202.586364 70.976562 
L 222.586364 70.976562 
" style="fill: none; stroke: #000000; stroke-width: 1.5; stroke-linecap: square"/>
    </g>
    <g id="line2d_19">
     <g>
      <use xlink:href="#m2343ca4e67" x="212.586364" y="70.976562" style="stroke: #000000; stroke-linejoin: miter"/>
     </g>
    </g>
    <g id="text_19">
     <!-- reference_data ± SD -->
     <g transform="translate(230.586364 74.476562) scale(0.1 -0.1)">
      <defs>
       <path id="DejaVuSans-b1" d="M 2944 4013 
L 2944 2803 
L 4684 2803 
L 4684 2272 
L 2944 2272 
L 2944 1063 
L 2419 1063 
L 2419 2272 
L 678 2272 
L 678 2803 
L 2419 2803 
L 2419 4013 
L 2944 4013 
z
M 678 531 
L 4684 531 
L 4684 0 
L 678 0 
L 678 531 
z
" transform="scale(0.015625)"/>
       <path id="DejaVuSans-53" d="M 3425 4513 
L 3425 3897 
Q 3066 4069 2747 4153 
Q 2428 4238 2131 4238 
Q 1616 4238 1336 4038 
Q 1056 3838 1056 3469 
Q 1056 3159 1242 3001 
Q 1428 2844 1947 2747 
L 2328 2669 
Q 3034 2534 3370 2195 
Q 3706 1856 3706 1288 
Q 3706 609 3251 259 
Q 2797 -91 1919 -91 
Q 1588 -91 1214 -16 
Q 841 59 441 206 
L 441 856 
Q 825 641 1194 531 
Q 1563 422 1919 422 
Q 2459 422 2753 634 
Q 3047 847 3047 1241 
Q 3047 1584 2836 1778 
Q 2625 1972 2144 2069 
L 1759 2144 
Q 1053 2284 737 2584 
Q 422 2884 422 3419 
Q 422 4038 858 4394 
Q 1294 4750 2059 4750 
Q 2388 4750 2728 4690 
Q 3069 4631 3425 4513 
z
" transform="scale(0.015625)"/>
       <path id="DejaVuSans-44" d="M 1259 4147 
L 1259 519 
L 2022 519 
Q 2988 519 3436 956 
Q 3884 1394 3884 2338 
Q 3884 3275 3436 3711 
Q 2988 4147 2022 4147 
L 1259 4147 
z
M 628 4666 
L 1925 4666 
Q 3281 4666 3915 4102 
Q 4550 3538 4550 2338 
Q 4550 1131 3912 565 
Q 3275 0 1925 0 
L 628 0 
L 628 4666 
z
" transform="scale(0.015625)"/>
      </defs>
      <use xlink:href="#DejaVuSans-72"/>
      <use xlink:href="#DejaVuSans-65" x="38.863281"/>
      <use xlink:href="#DejaVuSans-66" x="100.386719"/>
      <use xlink:href="#DejaVuSans-65" x="135.591797"/>
      <use xlink:href="#DejaVuSans-72" x="197.115234"/>
      <use xlink:href="#DejaVuSans-65" x="235.978516"/>
      <use xlink:href="#DejaVuSans-6e" x="297.501953"/>
      <use xlink:href="#DejaVuSans-63" x="360.880859"/>
      <use xlink:href="#DejaVuSans-65" x="415.861328"/>
      <use xlink:href="#DejaVuSans-5f" x="477.384766"/>
      <use xlink:href="#DejaVuSans-64" x="527.384766"/>
      <use xlink:href="#DejaVuSans-61" x="590.861328"/>
      <use xlink:href="#DejaVuSans-74" x="652.140625"/>
      <use xlink:href="#DejaVuSans-61" x="691.349609"/>
      <use xlink:href="#DejaVuSans-20" x="752.628906"/>
      <use xlink:href="#DejaVuSans-b1" x="784.416016"/>
      <use xlink:href="#DejaVuSans-20" x="868.205078"/>
      <use xlink:href="#DejaVuSans-53" x="899.992188"/>
      <use xlink:href="#DejaVuSans-44" x="963.46875"/>
     </g>
    </g>
   </g>
  </g>
  <g id="axes_2">
   <g id="patch_8">
    <path d="M 394.363636 320.4 
L 648 320.4 
L 648 43.2 
L 394.363636 43.2 
z
" style="fill: #ffffff"/>
   </g>
   <g id="matplotlib.axis_3">
    <g id="xtick_6">
     <g id="line2d_20">
      <g>
       <use xlink:href="#m538773fdbb" x="415.370047" y="320.4" style="stroke: #000000; stroke-width: 0.8"/>
      </g>
     </g>
     <g id="text_20">
      <!-- 0 -->
      <g transform="translate(412.188797 334.998438) scale(0.1 -0.1)">
       <use xlink:href="#DejaVuSans-30"/>
      </g>
     </g>
    </g>
    <g id="xtick_7">
     <g id="line2d_21">
      <g>
       <use xlink:href="#m538773fdbb" x="467.823814" y="320.4" style="stroke: #000000; stroke-width: 0.8"/>
      </g>
     </g>
     <g id="text_21">
      <!-- 5000 -->
      <g transform="translate(455.098814 334.998438) scale(0.1 -0.1)">
       <use xlink:href="#DejaVuSans-35"/>
       <use xlink:href="#DejaVuSans-30" x="63.623047"/>
       <use xlink:href="#DejaVuSans-30" x="127.246094"/>
       <use xlink:href="#DejaVuSans-30" x="190.869141"/>
      </g>
     </g>
    </g>
    <g id="xtick_8">
     <g id="line2d_22">
      <g>
       <use xlink:href="#m538773fdbb" x="520.277581" y="320.4" style="stroke: #000000; stroke-width: 0.8"/>
      </g>
     </g>
     <g id="text_22">
      <!-- 10000 -->
      <g transform="translate(504.371331 334.998438) scale(0.1 -0.1)">
       <use xlink:href="#DejaVuSans-31"/>
       <use xlink:href="#DejaVuSans-30" x="63.623047"/>
       <use xlink:href="#DejaVuSans-30" x="127.246094"/>
       <use xlink:href="#DejaVuSans-30" x="190.869141"/>
       <use xlink:href="#DejaVuSans-30" x="254.492188"/>
      </g>
     </g>
    </g>
    <g id="xtick_9">
     <g id="line2d_23">
      <g>
       <use xlink:href="#m538773fdbb" x="572.731349" y="320.4" style="stroke: #000000; stroke-width: 0.8"/>
      </g>
     </g>
     <g id="text_23">
      <!-- 15000 -->
      <g transform="translate(556.825099 334.998438) scale(0.1 -0.1)">
       <use xlink:href="#DejaVuSans-31"/>
       <use xlink:href="#DejaVuSans-35" x="63.623047"/>
       <use xlink:href="#DejaVuSans-30" x="127.246094"/>
       <use xlink:href="#DejaVuSans-30" x="190.869141"/>
       <use xlink:href="#DejaVuSans-30" x="254.492188"/>
      </g>
     </g>
    </g>
    <g id="xtick_10">
     <g id="line2d_24">
      <g>
       <use xlink:href="#m538773fdbb" x="625.185116" y="320.4" style="stroke: #000000; stroke-width: 0.8"/>
      </g>
     </g>
     <g id="text_24">
      <!-- 20000 -->
      <g transform="translate(609.278866 334.998438) scale(0.1 -0.1)">
       <use xlink:href="#DejaVuSans-32"/>
       <use xlink:href="#DejaVuSans-30" x="63.623047"/>
       <use xlink:href="#DejaVuSans-30" x="127.246094"/>
       <use xlink:href="#DejaVuSans-30" x="190.869141"/>
       <use xlink:href="#DejaVuSans-30" x="254.492188"/>
      </g>
     </g>
    </g>
    <g id="text_25">
     <!-- time -->
     <g transform="translate(507.626506 350.19625) scale(0.12 -0.12)">
      <use xlink:href="#DejaVuSans-74"/>
      <use xlink:href="#DejaVuSans-69" x="39.208984"/>
      <use xlink:href="#DejaVuSans-6d" x="66.992188"/>
      <use xlink:href="#DejaVuSans-65" x="164.404297"/>
     </g>
    </g>
   </g>
   <g id="matplotlib.axis_4">
    <g id="ytick_10">
     <g id="line2d_25">
      <g>
       <use xlink:href="#m14dcf23fab" x="394.363636" y="270.8749" style="stroke: #000000; stroke-width: 0.8"/>
      </g>
     </g>
     <g id="text_26">
      <!-- $\mathdefault{10^{-5}}$ -->
      <g transform="translate(363.863636 274.674119) scale(0.1 -0.1)">
       <defs>
        <path id="DejaVuSans-2212" d="M 678 2272 
L 4684 2272 
L 4684 1741 
L 678 1741 
L 678 2272 
z
" transform="scale(0.015625)"/>
       </defs>
       <use xlink:href="#DejaVuSans-31" transform="translate(0 0.684375)"/>
       <use xlink:href="#DejaVuSans-30" transform="translate(63.623047 0.684375)"/>
       <use xlink:href="#DejaVuSans-2212" transform="translate(128.203125 38.965625) scale(0.7)"/>
       <use xlink:href="#DejaVuSans-35" transform="translate(186.855469 38.965625) scale(0.7)"/>
      </g>
     </g>
    </g>
    <g id="ytick_11">
     <g id="line2d_26">
      <g>
       <use xlink:href="#m14dcf23fab" x="394.363636" y="217.629618" style="stroke: #000000; stroke-width: 0.8"/>
      </g>
     </g>
     <g id="text_27">
      <!-- $\mathdefault{10^{-4}}$ -->
      <g transform="translate(363.863636 221.428836) scale(0.1 -0.1)">
       <defs>
        <path id="DejaVuSans-34" d="M 2419 4116 
L 825 1625 
L 2419 1625 
L 2419 4116 
z
M 2253 4666 
L 3047 4666 
L 3047 1625 
L 3713 1625 
L 3713 1100 
L 3047 1100 
L 3047 0 
L 2419 0 
L 2419 1100 
L 313 1100 
L 313 1709 
L 2253 4666 
z
" transform="scale(0.015625)"/>
       </defs>
       <use xlink:href="#DejaVuSans-31" transform="translate(0 0.684375)"/>
       <use xlink:href="#DejaVuSans-30" transform="translate(63.623047 0.684375)"/>
       <use xlink:href="#DejaVuSans-2212" transform="translate(128.203125 38.965625) scale(0.7)"/>
       <use xlink:href="#DejaVuSans-34" transform="translate(186.855469 38.965625) scale(0.7)"/>
      </g>
     </g>
    </g>
    <g id="ytick_12">
     <g id="line2d_27">
      <g>
       <use xlink:href="#m14dcf23fab" x="394.363636" y="164.384335" style="stroke: #000000; stroke-width: 0.8"/>
      </g>
     </g>
     <g id="text_28">
      <!-- $\mathdefault{10^{-3}}$ -->
      <g transform="translate(363.863636 168.183554) scale(0.1 -0.1)">
       <use xlink:href="#DejaVuSans-31" transform="translate(0 0.765625)"/>
       <use xlink:href="#DejaVuSans-30" transform="translate(63.623047 0.765625)"/>
       <use xlink:href="#DejaVuSans-2212" transform="translate(128.203125 39.046875) scale(0.7)"/>
       <use xlink:href="#DejaVuSans-33" transform="translate(186.855469 39.046875) scale(0.7)"/>
      </g>
     </g>
    </g>
    <g id="ytick_13">
     <g id="line2d_28">
      <g>
       <use xlink:href="#m14dcf23fab" x="394.363636" y="111.139053" style="stroke: #000000; stroke-width: 0.8"/>
      </g>
     </g>
     <g id="text_29">
      <!-- $\mathdefault{10^{-2}}$ -->
      <g transform="translate(363.863636 114.938272) scale(0.1 -0.1)">
       <use xlink:href="#DejaVuSans-31" transform="translate(0 0.765625)"/>
       <use xlink:href="#DejaVuSans-30" transform="translate(63.623047 0.765625)"/>
       <use xlink:href="#DejaVuSans-2212" transform="translate(128.203125 39.046875) scale(0.7)"/>
       <use xlink:href="#DejaVuSans-32" transform="translate(186.855469 39.046875) scale(0.7)"/>
      </g>
     </g>
    </g>
    <g id="ytick_14">
     <g id="line2d_29">
      <g>
       <use xlink:href="#m14dcf23fab" x="394.363636" y="57.893771" style="stroke: #000000; stroke-width: 0.8"/>
      </g>
     </g>
     <g id="text_30">
      <!-- $\mathdefault{10^{-1}}$ -->
      <g transform="translate(363.863636 61.692989) scale(0.1 -0.1)">
       <use xlink:href="#DejaVuSans-31" transform="translate(0 0.684375)"/>
       <use xlink:href="#DejaVuSans-30" transform="translate(63.623047 0.684375)"/>
       <use xlink:href="#DejaVuSans-2212" transform="translate(128.203125 38.965625) scale(0.7)"/>
       <use xlink:href="#DejaVuSans-31" transform="translate(186.855469 38.965625) scale(0.7)"/>
      </g>
     </g>
    </g>
    <g id="ytick_15">
     <g id="line2d_30">
      <defs>
       <path id="m8967ab30b6" d="M 0 0 
L -2 0 
" style="stroke: #000000; stroke-width: 0.6"/>
      </defs>
      <g>
       <use xlink:href="#m8967ab30b6" x="394.363636" y="308.091755" style="stroke: #000000; stroke-width: 0.6"/>
      </g>
     </g>
    </g>
    <g id="ytick_16">
     <g id="line2d_31">
      <g>
       <use xlink:href="#m8967ab30b6" x="394.363636" y="298.715726" style="stroke: #000000; stroke-width: 0.6"/>
      </g>
     </g>
    </g>
    <g id="ytick_17">
     <g id="line2d_32">
      <g>
       <use xlink:href="#m8967ab30b6" x="394.363636" y="292.063328" style="stroke: #000000; stroke-width: 0.6"/>
      </g>
     </g>
    </g>
    <g id="ytick_18">
     <g id="line2d_33">
      <g>
       <use xlink:href="#m8967ab30b6" x="394.363636" y="286.903327" style="stroke: #000000; stroke-width: 0.6"/>
      </g>
     </g>
    </g>
    <g id="ytick_19">
     <g id="line2d_34">
      <g>
       <use xlink:href="#m8967ab30b6" x="394.363636" y="282.687299" style="stroke: #000000; stroke-width: 0.6"/>
      </g>
     </g>
    </g>
    <g id="ytick_20">
     <g id="line2d_35">
      <g>
       <use xlink:href="#m8967ab30b6" x="394.363636" y="279.122699" style="stroke: #000000; stroke-width: 0.6"/>
      </g>
     </g>
    </g>
    <g id="ytick_21">
     <g id="line2d_36">
      <g>
       <use xlink:href="#m8967ab30b6" x="394.363636" y="276.034901" style="stroke: #000000; stroke-width: 0.6"/>
      </g>
     </g>
    </g>
    <g id="ytick_22">
     <g id="line2d_37">
      <g>
       <use xlink:href="#m8967ab30b6" x="394.363636" y="273.311271" style="stroke: #000000; stroke-width: 0.6"/>
      </g>
     </g>
    </g>
    <g id="ytick_23">
     <g id="line2d_38">
      <g>
       <use xlink:href="#m8967ab30b6" x="394.363636" y="254.846473" style="stroke: #000000; stroke-width: 0.6"/>
      </g>
     </g>
    </g>
    <g id="ytick_24">
     <g id="line2d_39">
      <g>
       <use xlink:href="#m8967ab30b6" x="394.363636" y="245.470444" style="stroke: #000000; stroke-width: 0.6"/>
      </g>
     </g>
    </g>
    <g id="ytick_25">
     <g id="line2d_40">
      <g>
       <use xlink:href="#m8967ab30b6" x="394.363636" y="238.818046" style="stroke: #000000; stroke-width: 0.6"/>
      </g>
     </g>
    </g>
    <g id="ytick_26">
     <g id="line2d_41">
      <g>
       <use xlink:href="#m8967ab30b6" x="394.363636" y="233.658045" style="stroke: #000000; stroke-width: 0.6"/>
      </g>
     </g>
    </g>
    <g id="ytick_27">
     <g id="line2d_42">
      <g>
       <use xlink:href="#m8967ab30b6" x="394.363636" y="229.442017" style="stroke: #000000; stroke-width: 0.6"/>
      </g>
     </g>
    </g>
    <g id="ytick_28">
     <g id="line2d_43">
      <g>
       <use xlink:href="#m8967ab30b6" x="394.363636" y="225.877416" style="stroke: #000000; stroke-width: 0.6"/>
      </g>
     </g>
    </g>
    <g id="ytick_29">
     <g id="line2d_44">
      <g>
       <use xlink:href="#m8967ab30b6" x="394.363636" y="222.789619" style="stroke: #000000; stroke-width: 0.6"/>
      </g>
     </g>
    </g>
    <g id="ytick_30">
     <g id="line2d_45">
      <g>
       <use xlink:href="#m8967ab30b6" x="394.363636" y="220.065988" style="stroke: #000000; stroke-width: 0.6"/>
      </g>
     </g>
    </g>
    <g id="ytick_31">
     <g id="line2d_46">
      <g>
       <use xlink:href="#m8967ab30b6" x="394.363636" y="201.601191" style="stroke: #000000; stroke-width: 0.6"/>
      </g>
     </g>
    </g>
    <g id="ytick_32">
     <g id="line2d_47">
      <g>
       <use xlink:href="#m8967ab30b6" x="394.363636" y="192.225162" style="stroke: #000000; stroke-width: 0.6"/>
      </g>
     </g>
    </g>
    <g id="ytick_33">
     <g id="line2d_48">
      <g>
       <use xlink:href="#m8967ab30b6" x="394.363636" y="185.572763" style="stroke: #000000; stroke-width: 0.6"/>
      </g>
     </g>
    </g>
    <g id="ytick_34">
     <g id="line2d_49">
      <g>
       <use xlink:href="#m8967ab30b6" x="394.363636" y="180.412762" style="stroke: #000000; stroke-width: 0.6"/>
      </g>
     </g>
    </g>
    <g id="ytick_35">
     <g id="line2d_50">
      <g>
       <use xlink:href="#m8967ab30b6" x="394.363636" y="176.196735" style="stroke: #000000; stroke-width: 0.6"/>
      </g>
     </g>
    </g>
    <g id="ytick_36">
     <g id="line2d_51">
      <g>
       <use xlink:href="#m8967ab30b6" x="394.363636" y="172.632134" style="stroke: #000000; stroke-width: 0.6"/>
      </g>
     </g>
    </g>
    <g id="ytick_37">
     <g id="line2d_52">
      <g>
       <use xlink:href="#m8967ab30b6" x="394.363636" y="169.544336" style="stroke: #000000; stroke-width: 0.6"/>
      </g>
     </g>
    </g>
    <g id="ytick_38">
     <g id="line2d_53">
      <g>
       <use xlink:href="#m8967ab30b6" x="394.363636" y="166.820706" style="stroke: #000000; stroke-width: 0.6"/>
      </g>
     </g>
    </g>
    <g id="ytick_39">
     <g id="line2d_54">
      <g>
       <use xlink:href="#m8967ab30b6" x="394.363636" y="148.355908" style="stroke: #000000; stroke-width: 0.6"/>
      </g>
     </g>
    </g>
    <g id="ytick_40">
     <g id="line2d_55">
      <g>
       <use xlink:href="#m8967ab30b6" x="394.363636" y="138.979879" style="stroke: #000000; stroke-width: 0.6"/>
      </g>
     </g>
    </g>
    <g id="ytick_41">
     <g id="line2d_56">
      <g>
       <use xlink:href="#m8967ab30b6" x="394.363636" y="132.327481" style="stroke: #000000; stroke-width: 0.6"/>
      </g>
     </g>
    </g>
    <g id="ytick_42">
     <g id="line2d_57">
      <g>
       <use xlink:href="#m8967ab30b6" x="394.363636" y="127.16748" style="stroke: #000000; stroke-width: 0.6"/>
      </g>
     </g>
    </g>
    <g id="ytick_43">
     <g id="line2d_58">
      <g>
       <use xlink:href="#m8967ab30b6" x="394.363636" y="122.951452" style="stroke: #000000; stroke-width: 0.6"/>
      </g>
     </g>
    </g>
    <g id="ytick_44">
     <g id="line2d_59">
      <g>
       <use xlink:href="#m8967ab30b6" x="394.363636" y="119.386852" style="stroke: #000000; stroke-width: 0.6"/>
      </g>
     </g>
    </g>
    <g id="ytick_45">
     <g id="line2d_60">
      <g>
       <use xlink:href="#m8967ab30b6" x="394.363636" y="116.299054" style="stroke: #000000; stroke-width: 0.6"/>
      </g>
     </g>
    </g>
    <g id="ytick_46">
     <g id="line2d_61">
      <g>
       <use xlink:href="#m8967ab30b6" x="394.363636" y="113.575423" style="stroke: #000000; stroke-width: 0.6"/>
      </g>
     </g>
    </g>
    <g id="ytick_47">
     <g id="line2d_62">
      <g>
       <use xlink:href="#m8967ab30b6" x="394.363636" y="95.110626" style="stroke: #000000; stroke-width: 0.6"/>
      </g>
     </g>
    </g>
    <g id="ytick_48">
     <g id="line2d_63">
      <g>
       <use xlink:href="#m8967ab30b6" x="394.363636" y="85.734597" style="stroke: #000000; stroke-width: 0.6"/>
      </g>
     </g>
    </g>
    <g id="ytick_49">
     <g id="line2d_64">
      <g>
       <use xlink:href="#m8967ab30b6" x="394.363636" y="79.082199" style="stroke: #000000; stroke-width: 0.6"/>
      </g>
     </g>
    </g>
    <g id="ytick_50">
     <g id="line2d_65">
      <g>
       <use xlink:href="#m8967ab30b6" x="394.363636" y="73.922198" style="stroke: #000000; stroke-width: 0.6"/>
      </g>
     </g>
    </g>
    <g id="ytick_51">
     <g id="line2d_66">
      <g>
       <use xlink:href="#m8967ab30b6" x="394.363636" y="69.70617" style="stroke: #000000; stroke-width: 0.6"/>
      </g>
     </g>
    </g>
    <g id="ytick_52">
     <g id="line2d_67">
      <g>
       <use xlink:href="#m8967ab30b6" x="394.363636" y="66.141569" style="stroke: #000000; stroke-width: 0.6"/>
      </g>
     </g>
    </g>
    <g id="ytick_53">
     <g id="line2d_68">
      <g>
       <use xlink:href="#m8967ab30b6" x="394.363636" y="63.053772" style="stroke: #000000; stroke-width: 0.6"/>
      </g>
     </g>
    </g>
    <g id="ytick_54">
     <g id="line2d_69">
      <g>
       <use xlink:href="#m8967ab30b6" x="394.363636" y="60.330141" style="stroke: #000000; stroke-width: 0.6"/>
      </g>
     </g>
    </g>
    <g id="text_31">
     <!-- [Cve_d3g] -->
     <g transform="translate(357.034261 212.350312) rotate(-90) scale(0.12 -0.12)">
      <use xlink:href="#DejaVuSans-5b"/>
      <use xlink:href="#DejaVuSans-43" x="39.013672"/>
      <use xlink:href="#DejaVuSans-76" x="108.837891"/>
      <use xlink:href="#DejaVuSans-65" x="168.017578"/>
      <use xlink:href="#DejaVuSans-5f" x="229.541016"/>
      <use xlink:href="#DejaVuSans-64" x="279.541016"/>
      <use xlink:href="#DejaVuSans-33" x="343.017578"/>
      <use xlink:href="#DejaVuSans-67" x="406.640625"/>
      <use xlink:href="#DejaVuSans-5d" x="470.117188"/>
     </g>
    </g>
   </g>
   <g id="LineCollection_3">
    <path d="M 415.5 318.720767 
L 415.5 280.598277 
" clip-path="url(#pdf1923dcb0)" style="fill: none; stroke: #000000; stroke-width: 1.5"/>
    <path d="M 415.68477 246.217162 
L 415.68477 223.237417 
" clip-path="url(#pdf1923dcb0)" style="fill: none; stroke: #000000; stroke-width: 1.5"/>
    <path d="M 415.999492 210.886161 
L 415.999492 201.116189 
" clip-path="url(#pdf1923dcb0)" style="fill: none; stroke: #000000; stroke-width: 1.5"/>
    <path d="M 416.314215 212.498512 
L 416.314215 202.402307 
" clip-path="url(#pdf1923dcb0)" style="fill: none; stroke: #000000; stroke-width: 1.5"/>
    <path d="M 416.628937 217.45759 
L 416.628937 207.032331 
" clip-path="url(#pdf1923dcb0)" style="fill: none; stroke: #000000; stroke-width: 1.5"/>
    <path d="M 417.887828 238.977193 
L 417.887828 225.809653 
" clip-path="url(#pdf1923dcb0)" style="fill: none; stroke: #000000; stroke-width: 1.5"/>
    <path d="M 419.146718 251.563485 
L 419.146718 240.471397 
" clip-path="url(#pdf1923dcb0)" style="fill: none; stroke: #000000; stroke-width: 1.5"/>
    <path d="M 420.405609 257.644104 
L 420.405609 245.873093 
" clip-path="url(#pdf1923dcb0)" style="fill: none; stroke: #000000; stroke-width: 1.5"/>
    <path d="M 421.664499 266.309641 
L 421.664499 253.847024 
" clip-path="url(#pdf1923dcb0)" style="fill: none; stroke: #000000; stroke-width: 1.5"/>
    <path d="M 422.923389 280.650333 
L 422.923389 257.19093 
" clip-path="url(#pdf1923dcb0)" style="fill: none; stroke: #000000; stroke-width: 1.5"/>
    <path d="M 426.700061 290.734096 
L 426.700061 276.482699 
" clip-path="url(#pdf1923dcb0)" style="fill: none; stroke: #000000; stroke-width: 1.5"/>
    <path d="M 430.476732 286.36936 
L 430.476732 274.939358 
" clip-path="url(#pdf1923dcb0)" style="fill: none; stroke: #000000; stroke-width: 1.5"/>
    <path d="M 611.756951 283.973657 
L 611.756951 272.881569 
" clip-path="url(#pdf1923dcb0)" style="fill: none; stroke: #000000; stroke-width: 1.5"/>
    <path d="M 611.898718 275.062249 
L 611.898718 265.936532 
" clip-path="url(#pdf1923dcb0)" style="fill: none; stroke: #000000; stroke-width: 1.5"/>
    <path d="M 612.071674 239.879795 
L 612.071674 220.922405 
" clip-path="url(#pdf1923dcb0)" style="fill: none; stroke: #000000; stroke-width: 1.5"/>
    <path d="M 612.386397 211.984065 
L 612.386397 201.887859 
" clip-path="url(#pdf1923dcb0)" style="fill: none; stroke: #000000; stroke-width: 1.5"/>
    <path d="M 612.701119 214.089532 
L 612.701119 202.65953 
" clip-path="url(#pdf1923dcb0)" style="fill: none; stroke: #000000; stroke-width: 1.5"/>
    <path d="M 613.015842 219.748451 
L 613.015842 208.318449 
" clip-path="url(#pdf1923dcb0)" style="fill: none; stroke: #000000; stroke-width: 1.5"/>
    <path d="M 614.274732 236.901741 
L 614.274732 225.809653 
" clip-path="url(#pdf1923dcb0)" style="fill: none; stroke: #000000; stroke-width: 1.5"/>
    <path d="M 615.533623 245.728033 
L 615.533623 234.298031 
" clip-path="url(#pdf1923dcb0)" style="fill: none; stroke: #000000; stroke-width: 1.5"/>
    <path d="M 616.792513 247.705132 
L 616.792513 236.613044 
" clip-path="url(#pdf1923dcb0)" style="fill: none; stroke: #000000; stroke-width: 1.5"/>
    <path d="M 618.051403 261.534169 
L 618.051403 243.815304 
" clip-path="url(#pdf1923dcb0)" style="fill: none; stroke: #000000; stroke-width: 1.5"/>
    <path d="M 619.310294 269.765323 
L 619.310294 252.046459 
" clip-path="url(#pdf1923dcb0)" style="fill: none; stroke: #000000; stroke-width: 1.5"/>
    <path d="M 623.086965 281.691657 
L 623.086965 271.595451 
" clip-path="url(#pdf1923dcb0)" style="fill: none; stroke: #000000; stroke-width: 1.5"/>
    <path d="M 626.863636 282.007285 
L 626.863636 272.881569 
" clip-path="url(#pdf1923dcb0)" style="fill: none; stroke: #000000; stroke-width: 1.5"/>
   </g>
   <g id="line2d_70">
    <path d="M 415.416239 361 
L 415.580774 269.121044 
L 415.83092 236.923231 
L 416.118375 225.102474 
L 416.375915 221.719805 
L 416.522275 221.275572 
L 416.571062 221.290212 
L 416.717423 221.718684 
L 416.991882 223.696517 
L 417.467756 229.423915 
L 418.260878 242.38237 
L 421.195429 293.584599 
L 421.909239 301.033673 
L 422.543737 305.286449 
L 423.098922 307.588802 
L 423.614595 308.91476 
L 424.210155 309.832993 
L 424.805715 310.365984 
L 425.639499 310.782416 
L 426.838953 311.103978 
L 429.832421 311.602613 
L 430.487956 311.732427 
L 430.496033 311.598113 
L 430.532345 307.408064 
L 430.984106 233.230705 
L 431.274042 223.599933 
L 431.535 221.009255 
L 431.665479 220.82575 
L 431.764673 221.023411 
L 431.963061 222.080076 
L 432.291161 225.190679 
L 432.85197 232.846375 
L 433.973588 251.876151 
L 435.335553 274.121788 
L 436.136709 283.646384 
L 436.777633 288.745946 
L 437.338442 291.620026 
L 437.899251 293.41323 
L 438.46006 294.494712 
L 439.020869 295.142167 
L 439.741909 295.621373 
L 440.703296 295.967908 
L 442.465838 296.324117 
L 445.596453 296.790535 
L 445.601719 296.74289 
L 445.634743 294.917266 
L 445.765216 268.555978 
L 446.036161 235.781559 
L 446.327773 224.174849 
L 446.605098 220.758633 
L 446.743761 220.414051 
L 446.778427 220.425428 
L 446.900151 220.716589 
L 447.109721 221.948064 
L 447.450699 225.309437 
L 448.08282 234.06178 
L 450.690318 273.23817 
L 451.322439 278.902953 
L 451.95456 282.614107 
L 452.507666 284.629976 
L 453.060771 285.869242 
L 453.613877 286.619114 
L 454.245998 287.127155 
L 455.115164 287.515906 
L 456.537436 287.857495 
L 460.646221 288.508787 
L 460.705616 288.496307 
L 460.712776 288.423148 
L 460.7542 286.023775 
L 461.42288 224.001964 
L 461.697418 220.467731 
L 461.869005 220.055183 
L 461.989557 220.2895 
L 462.197229 221.421705 
L 462.534917 224.611053 
L 463.159714 232.974585 
L 465.580803 267.870837 
L 466.2837 273.907612 
L 466.908497 277.332403 
L 467.455194 279.197481 
L 468.001892 280.351054 
L 468.626689 281.130498 
L 469.329586 281.623972 
L 470.266781 281.982829 
L 471.906874 282.330459 
L 475.814041 282.909576 
L 475.815627 282.898671 
L 475.850782 281.716128 
L 475.961684 266.332297 
L 476.264751 233.546696 
L 476.557821 223.033785 
L 476.824342 220.037078 
L 476.958971 219.730962 
L 477.003848 219.754062 
L 477.138478 220.125256 
L 477.385707 221.714704 
L 477.85977 226.827425 
L 478.740172 239.561761 
L 480.129019 259.470646 
L 480.840518 266.871614 
L 481.450375 271.231596 
L 482.060231 274.030539 
L 482.670087 275.712854 
L 483.279944 276.690226 
L 483.8898 277.257952 
L 484.702942 277.683319 
L 485.922654 278.023585 
L 488.76865 278.504428 
L 490.922701 278.808705 
L 490.929057 278.747279 
L 490.974566 276.627944 
L 491.17213 249.899232 
L 491.463266 228.542468 
L 491.753677 221.265783 
L 491.979552 219.566667 
L 492.092903 219.451222 
L 492.239347 219.809497 
L 492.483421 221.329818 
L 492.892208 225.529075 
L 493.670103 236.263363 
L 495.225891 257.832206 
L 495.925996 264.634787 
L 496.548312 268.720184 
L 497.092838 271.033831 
L 497.637364 272.499182 
L 498.18189 273.40316 
L 498.804205 274.019649 
L 499.5821 274.452941 
L 500.748941 274.800304 
L 503.238203 275.236149 
L 506.030569 275.624644 
L 506.036064 275.574947 
L 506.081514 273.701437 
L 506.252767 252.039016 
L 506.551038 228.951366 
L 506.827274 221.450679 
L 507.072238 219.349686 
L 507.177223 219.185748 
L 507.212218 219.203475 
L 507.335342 219.505782 
L 507.601011 221.138801 
L 508.056494 225.88963 
L 508.947303 238.220021 
L 510.243026 255.548406 
L 510.97187 262.453836 
L 511.619731 266.518454 
L 512.18661 268.767592 
L 512.753488 270.160377 
L 513.320367 271.002271 
L 513.968228 271.567612 
L 514.778055 271.96325 
L 516.073777 272.304961 
L 519.313084 272.837316 
L 521.138695 273.076592 
L 521.144772 273.018692 
L 521.190783 271.178714 
L 521.369104 249.963594 
L 521.662568 228.393997 
L 521.944258 221.045484 
L 522.183834 219.101612 
L 522.28651 218.955138 
L 522.320735 218.974385 
L 522.458899 219.338744 
L 522.718746 220.97817 
L 523.188583 225.891865 
L 524.208851 239.905997 
L 525.307602 254.02349 
L 526.013941 260.549228 
L 526.641799 264.434304 
L 527.191174 266.618763 
L 527.740549 267.995405 
L 528.289925 268.842333 
L 528.917782 269.420128 
L 529.702604 269.828724 
L 530.879836 270.162408 
L 533.54823 270.619699 
L 536.246595 270.989583 
L 536.25134 270.946353 
L 536.298756 269.173375 
L 536.459831 250.994611 
L 536.76812 228.129167 
L 537.049761 220.83534 
L 537.289319 218.896955 
L 537.391987 218.748149 
L 537.426209 218.766173 
L 537.564421 219.123909 
L 537.824396 220.7447 
L 538.294733 225.608191 
L 539.316379 239.415283 
L 540.416612 253.137419 
L 541.123905 259.3785 
L 541.75261 263.05265 
L 542.302727 265.103461 
L 542.852844 266.390956 
L 543.402961 267.182422 
L 544.031666 267.723893 
L 544.817547 268.110106 
L 546.074957 268.447898 
L 549.139894 268.957026 
L 551.352174 269.253934 
L 551.359513 269.19071 
L 551.409963 267.26715 
L 551.616164 244.997005 
L 551.91357 226.362618 
L 552.211748 219.942028 
L 552.451452 218.589444 
L 552.542068 218.589161 
L 552.677991 218.962432 
L 552.928168 220.518327 
L 553.410793 225.47076 
L 554.513935 240.196935 
L 555.548131 252.587145 
L 556.237696 258.389627 
L 556.858314 261.841499 
L 557.478932 263.980626 
L 557.996114 265.073848 
L 558.616733 265.8699 
L 559.340788 266.392868 
L 560.271715 266.757454 
L 561.926698 267.113035 
L 566.458175 267.788664 
L 566.495266 267.016488 
L 566.586961 259.431517 
L 566.961862 228.421668 
L 567.260136 220.489062 
L 567.514329 218.507095 
L 567.605129 218.39382 
L 567.650529 218.423693 
L 567.786729 218.800768 
L 568.03754 220.357978 
L 568.522014 225.300486 
L 569.698595 240.803759 
L 570.667543 252.00341 
L 571.359649 257.589094 
L 571.982544 260.876447 
L 572.536229 262.722073 
L 573.089914 263.871734 
L 573.712809 264.643087 
L 574.404915 265.132347 
L 575.270058 265.475798 
L 576.827348 265.821361 
L 581.562007 266.548402 
L 581.594611 266.05221 
L 581.67833 260.1606 
L 582.094265 227.130984 
L 582.380196 220.141784 
L 582.622705 218.351523 
L 582.726638 218.24735 
L 582.761282 218.278406 
L 582.901391 218.681606 
L 583.165054 220.362035 
L 583.644653 225.288032 
L 586.215865 255.086152 
L 586.858668 258.965844 
L 587.421121 261.134719 
L 587.983574 262.491313 
L 588.546026 263.319344 
L 589.188829 263.880435 
L 589.992333 264.276138 
L 591.277939 264.618933 
L 594.411604 265.136969 
L 596.674835 265.43202 
L 596.678474 265.403885 
L 596.729505 263.781746 
L 596.884621 248.700765 
L 597.199539 226.985431 
L 597.46976 220.227411 
L 597.703865 218.290537 
L 597.820917 218.10743 
L 597.859934 218.132139 
L 598.016004 218.577311 
L 598.296731 220.419039 
L 598.751585 225.107411 
L 601.243424 253.85476 
L 601.889456 257.843423 
L 602.443198 260.044992 
L 602.996939 261.437532 
L 603.550681 262.295687 
L 604.196713 262.890347 
L 605.027326 263.314683 
L 606.2271 263.645343 
L 609.0881 264.128335 
L 611.782378 264.484791 
L 611.786894 264.447543 
L 611.837017 262.85844 
L 612.003649 246.988642 
L 612.305683 226.825607 
L 612.590796 219.896412 
L 612.832148 218.101241 
L 612.935585 217.986425 
L 612.970064 218.013167 
L 613.12527 218.463462 
L 613.383948 220.123642 
L 613.876211 225.152882 
L 616.286718 252.820119 
L 616.908785 256.754439 
L 617.530851 259.264418 
L 618.075159 260.619559 
L 618.619467 261.461986 
L 619.241533 262.042013 
L 620.019116 262.455046 
L 621.185491 262.792505 
L 623.751515 263.237246 
L 627.493082 263.804555 
L 627.493082 263.804555 
" clip-path="url(#pdf1923dcb0)" style="fill: none; stroke: #0000ff; stroke-width: 1.5; stroke-linecap: square"/>
   </g>
   <g id="line2d_71">
    <path d="M 415.5 292.559174 
L 415.68477 231.983019 
L 415.999492 205.48899 
L 416.314215 206.903719 
L 416.628937 211.662356 
L 417.887828 231.468572 
L 419.146718 245.358645 
L 420.405609 251.017564 
L 421.664499 259.248719 
L 422.923389 266.065144 
L 426.700061 282.527454 
L 430.476732 279.955218 
L 611.756951 277.768817 
L 611.898718 270.05211 
L 612.071674 228.510501 
L 612.386397 206.389272 
L 612.701119 207.67539 
L 613.015842 213.334309 
L 614.274732 230.696901 
L 615.533623 239.313891 
L 616.792513 241.500292 
L 618.051403 251.017564 
L 619.310294 259.248719 
L 623.086965 276.096864 
L 626.863636 276.997147 
" clip-path="url(#pdf1923dcb0)" style="fill: none; stroke: #000000; stroke-width: 1.5; stroke-linecap: square"/>
    <g clip-path="url(#pdf1923dcb0)">
     <use xlink:href="#m2343ca4e67" x="415.5" y="292.559174" style="stroke: #000000; stroke-linejoin: miter"/>
     <use xlink:href="#m2343ca4e67" x="415.68477" y="231.983019" style="stroke: #000000; stroke-linejoin: miter"/>
     <use xlink:href="#m2343ca4e67" x="415.999492" y="205.48899" style="stroke: #000000; stroke-linejoin: miter"/>
     <use xlink:href="#m2343ca4e67" x="416.314215" y="206.903719" style="stroke: #000000; stroke-linejoin: miter"/>
     <use xlink:href="#m2343ca4e67" x="416.628937" y="211.662356" style="stroke: #000000; stroke-linejoin: miter"/>
     <use xlink:href="#m2343ca4e67" x="417.887828" y="231.468572" style="stroke: #000000; stroke-linejoin: miter"/>
     <use xlink:href="#m2343ca4e67" x="419.146718" y="245.358645" style="stroke: #000000; stroke-linejoin: miter"/>
     <use xlink:href="#m2343ca4e67" x="420.405609" y="251.017564" style="stroke: #000000; stroke-linejoin: miter"/>
     <use xlink:href="#m2343ca4e67" x="421.664499" y="259.248719" style="stroke: #000000; stroke-linejoin: miter"/>
     <use xlink:href="#m2343ca4e67" x="422.923389" y="266.065144" style="stroke: #000000; stroke-linejoin: miter"/>
     <use xlink:href="#m2343ca4e67" x="426.700061" y="282.527454" style="stroke: #000000; stroke-linejoin: miter"/>
     <use xlink:href="#m2343ca4e67" x="430.476732" y="279.955218" style="stroke: #000000; stroke-linejoin: miter"/>
     <use xlink:href="#m2343ca4e67" x="611.756951" y="277.768817" style="stroke: #000000; stroke-linejoin: miter"/>
     <use xlink:href="#m2343ca4e67" x="611.898718" y="270.05211" style="stroke: #000000; stroke-linejoin: miter"/>
     <use xlink:href="#m2343ca4e67" x="612.071674" y="228.510501" style="stroke: #000000; stroke-linejoin: miter"/>
     <use xlink:href="#m2343ca4e67" x="612.386397" y="206.389272" style="stroke: #000000; stroke-linejoin: miter"/>
     <use xlink:href="#m2343ca4e67" x="612.701119" y="207.67539" style="stroke: #000000; stroke-linejoin: miter"/>
     <use xlink:href="#m2343ca4e67" x="613.015842" y="213.334309" style="stroke: #000000; stroke-linejoin: miter"/>
     <use xlink:href="#m2343ca4e67" x="614.274732" y="230.696901" style="stroke: #000000; stroke-linejoin: miter"/>
     <use xlink:href="#m2343ca4e67" x="615.533623" y="239.313891" style="stroke: #000000; stroke-linejoin: miter"/>
     <use xlink:href="#m2343ca4e67" x="616.792513" y="241.500292" style="stroke: #000000; stroke-linejoin: miter"/>
     <use xlink:href="#m2343ca4e67" x="618.051403" y="251.017564" style="stroke: #000000; stroke-linejoin: miter"/>
     <use xlink:href="#m2343ca4e67" x="619.310294" y="259.248719" style="stroke: #000000; stroke-linejoin: miter"/>
     <use xlink:href="#m2343ca4e67" x="623.086965" y="276.096864" style="stroke: #000000; stroke-linejoin: miter"/>
     <use xlink:href="#m2343ca4e67" x="626.863636" y="276.997147" style="stroke: #000000; stroke-linejoin: miter"/>
    </g>
   </g>
   <g id="patch_9">
    <path d="M 394.363636 320.4 
L 394.363636 43.2 
" style="fill: none; stroke: #000000; stroke-width: 0.8; stroke-linejoin: miter; stroke-linecap: square"/>
   </g>
   <g id="patch_10">
    <path d="M 648 320.4 
L 648 43.2 
" style="fill: none; stroke: #000000; stroke-width: 0.8; stroke-linejoin: miter; stroke-linecap: square"/>
   </g>
   <g id="patch_11">
    <path d="M 394.363636 320.4 
L 648 320.4 
" style="fill: none; stroke: #000000; stroke-width: 0.8; stroke-linejoin: miter; stroke-linecap: square"/>
   </g>
   <g id="patch_12">
    <path d="M 394.363636 43.2 
L 648 43.2 
" style="fill: none; stroke: #000000; stroke-width: 0.8; stroke-linejoin: miter; stroke-linecap: square"/>
   </g>
   <g id="text_32">
    <!-- Kasichayanula2011a fm_dap2.5_dapagliflozin 3-o-glucuronide -->
    <g transform="translate(303.729006 37.2) scale(0.14 -0.14)">
     <use xlink:href="#DejaVuSans-4b"/>
     <use xlink:href="#DejaVuSans-61" x="63.826172"/>
     <use xlink:href="#DejaVuSans-73" x="125.105469"/>
     <use xlink:href="#DejaVuSans-69" x="177.205078"/>
     <use xlink:href="#DejaVuSans-63" x="204.988281"/>
     <use xlink:href="#DejaVuSans-68" x="259.96875"/>
     <use xlink:href="#DejaVuSans-61" x="323.347656"/>
     <use xlink:href="#DejaVuSans-79" x="384.626953"/>
     <use xlink:href="#DejaVuSans-61" x="443.806641"/>
     <use xlink:href="#DejaVuSans-6e" x="505.085938"/>
     <use xlink:href="#DejaVuSans-75" x="568.464844"/>
     <use xlink:href="#DejaVuSans-6c" x="631.84375"/>
     <use xlink:href="#DejaVuSans-61" x="659.626953"/>
     <use xlink:href="#DejaVuSans-32" x="720.90625"/>
     <use xlink:href="#DejaVuSans-30" x="784.529297"/>
     <use xlink:href="#DejaVuSans-31" x="848.152344"/>
     <use xlink:href="#DejaVuSans-31" x="911.775391"/>
     <use xlink:href="#DejaVuSans-61" x="975.398438"/>
     <use xlink:href="#DejaVuSans-20" x="1036.677734"/>
     <use xlink:href="#DejaVuSans-66" x="1068.464844"/>
     <use xlink:href="#DejaVuSans-6d" x="1103.669922"/>
     <use xlink:href="#DejaVuSans-5f" x="1201.082031"/>
     <use xlink:href="#DejaVuSans-64" x="1251.082031"/>
     <use xlink:href="#DejaVuSans-61" x="1314.558594"/>
     <use xlink:href="#DejaVuSans-70" x="1375.837891"/>
     <use xlink:href="#DejaVuSans-32" x="1439.314453"/>
     <use xlink:href="#DejaVuSans-2e" x="1502.9375"/>
     <use xlink:href="#DejaVuSans-35" x="1534.724609"/>
     <use xlink:href="#DejaVuSans-5f" x="1598.347656"/>
     <use xlink:href="#DejaVuSans-64" x="1648.347656"/>
     <use xlink:href="#DejaVuSans-61" x="1711.824219"/>
     <use xlink:href="#DejaVuSans-70" x="1773.103516"/>
     <use xlink:href="#DejaVuSans-61" x="1836.580078"/>
     <use xlink:href="#DejaVuSans-67" x="1897.859375"/>
     <use xlink:href="#DejaVuSans-6c" x="1961.335938"/>
     <use xlink:href="#DejaVuSans-69" x="1989.119141"/>
     <use xlink:href="#DejaVuSans-66" x="2016.902344"/>
     <use xlink:href="#DejaVuSans-6c" x="2052.107422"/>
     <use xlink:href="#DejaVuSans-6f" x="2079.890625"/>
     <use xlink:href="#DejaVuSans-7a" x="2141.072266"/>
     <use xlink:href="#DejaVuSans-69" x="2193.5625"/>
     <use xlink:href="#DejaVuSans-6e" x="2221.345703"/>
     <use xlink:href="#DejaVuSans-20" x="2284.724609"/>
     <use xlink:href="#DejaVuSans-33" x="2316.511719"/>
     <use xlink:href="#DejaVuSans-2d" x="2380.134766"/>
     <use xlink:href="#DejaVuSans-6f" x="2418.09375"/>
     <use xlink:href="#DejaVuSans-2d" x="2481.150391"/>
     <use xlink:href="#DejaVuSans-67" x="2517.234375"/>
     <use xlink:href="#DejaVuSans-6c" x="2580.710938"/>
     <use xlink:href="#DejaVuSans-75" x="2608.494141"/>
     <use xlink:href="#DejaVuSans-63" x="2671.873047"/>
     <use xlink:href="#DejaVuSans-75" x="2726.853516"/>
     <use xlink:href="#DejaVuSans-72" x="2790.232422"/>
     <use xlink:href="#DejaVuSans-6f" x="2829.095703"/>
     <use xlink:href="#DejaVuSans-6e" x="2890.277344"/>
     <use xlink:href="#DejaVuSans-69" x="2953.65625"/>
     <use xlink:href="#DejaVuSans-64" x="2981.439453"/>
     <use xlink:href="#DejaVuSans-65" x="3044.916016"/>
    </g>
   </g>
   <g id="legend_2">
    <g id="patch_13">
     <path d="M 504.95 80.834375 
L 641 80.834375 
Q 643 80.834375 643 78.834375 
L 643 50.2 
Q 643 48.2 641 48.2 
L 504.95 48.2 
Q 502.95 48.2 502.95 50.2 
L 502.95 78.834375 
Q 502.95 80.834375 504.95 80.834375 
z
" style="fill: #ffffff; opacity: 0.8; stroke: #cccccc; stroke-linejoin: miter"/>
    </g>
    <g id="line2d_72">
     <path d="M 506.95 56.298437 
L 516.95 56.298437 
L 526.95 56.298437 
" style="fill: none; stroke: #0000ff; stroke-width: 1.5; stroke-linecap: square"/>
    </g>
    <g id="text_33">
     <!-- observable -->
     <g transform="translate(534.95 59.798437) scale(0.1 -0.1)">
      <use xlink:href="#DejaVuSans-6f"/>
      <use xlink:href="#DejaVuSans-62" x="61.181641"/>
      <use xlink:href="#DejaVuSans-73" x="124.658203"/>
      <use xlink:href="#DejaVuSans-65" x="176.757812"/>
      <use xlink:href="#DejaVuSans-72" x="238.28125"/>
      <use xlink:href="#DejaVuSans-76" x="279.394531"/>
      <use xlink:href="#DejaVuSans-61" x="338.574219"/>
      <use xlink:href="#DejaVuSans-62" x="399.853516"/>
      <use xlink:href="#DejaVuSans-6c" x="463.330078"/>
      <use xlink:href="#DejaVuSans-65" x="491.113281"/>
     </g>
    </g>
    <g id="LineCollection_4">
     <path d="M 516.95 75.976562 
L 516.95 65.976562 
" style="fill: none; stroke: #000000; stroke-width: 1.5"/>
    </g>
    <g id="line2d_73">
     <path d="M 506.95 70.976562 
L 526.95 70.976562 
" style="fill: none; stroke: #000000; stroke-width: 1.5; stroke-linecap: square"/>
    </g>
    <g id="line2d_74">
     <g>
      <use xlink:href="#m2343ca4e67" x="516.95" y="70.976562" style="stroke: #000000; stroke-linejoin: miter"/>
     </g>
    </g>
    <g id="text_34">
     <!-- reference_data ± SD -->
     <g transform="translate(534.95 74.476562) scale(0.1 -0.1)">
      <use xlink:href="#DejaVuSans-72"/>
      <use xlink:href="#DejaVuSans-65" x="38.863281"/>
      <use xlink:href="#DejaVuSans-66" x="100.386719"/>
      <use xlink:href="#DejaVuSans-65" x="135.591797"/>
      <use xlink:href="#DejaVuSans-72" x="197.115234"/>
      <use xlink:href="#DejaVuSans-65" x="235.978516"/>
      <use xlink:href="#DejaVuSans-6e" x="297.501953"/>
      <use xlink:href="#DejaVuSans-63" x="360.880859"/>
      <use xlink:href="#DejaVuSans-65" x="415.861328"/>
      <use xlink:href="#DejaVuSans-5f" x="477.384766"/>
      <use xlink:href="#DejaVuSans-64" x="527.384766"/>
      <use xlink:href="#DejaVuSans-61" x="590.861328"/>
      <use xlink:href="#DejaVuSans-74" x="652.140625"/>
      <use xlink:href="#DejaVuSans-61" x="691.349609"/>
      <use xlink:href="#DejaVuSans-20" x="752.628906"/>
      <use xlink:href="#DejaVuSans-b1" x="784.416016"/>
      <use xlink:href="#DejaVuSans-20" x="868.205078"/>
      <use xlink:href="#DejaVuSans-53" x="899.992188"/>
      <use xlink:href="#DejaVuSans-44" x="963.46875"/>
     </g>
    </g>
   </g>
  </g>
 </g>
 <defs>
  <clipPath id="pd99b981ea5">
   <rect x="90" y="43.2" width="253.636364" height="277.2"/>
  </clipPath>
  <clipPath id="pdf1923dcb0">
   <rect x="394.363636" y="43.2" width="253.636364" height="277.2"/>
  </clipPath>
 </defs>
</svg>
