<?xml version="1.0" encoding="utf-8" standalone="no"?>
<!DOCTYPE svg PUBLIC "-//W3C//DTD SVG 1.1//EN"
  "http://www.w3.org/Graphics/SVG/1.1/DTD/svg11.dtd">
<svg xmlns:xlink="http://www.w3.org/1999/xlink" width="720pt" height="360pt" viewBox="0 0 720 360" xmlns="http://www.w3.org/2000/svg" version="1.1">
 <metadata>
  <rdf:RDF xmlns:dc="http://purl.org/dc/elements/1.1/" xmlns:cc="http://creativecommons.org/ns#" xmlns:rdf="http://www.w3.org/1999/02/22-rdf-syntax-ns#">
   <cc:Work>
    <dc:type rdf:resource="http://purl.org/dc/dcmitype/StillImage"/>
    <dc:date>2025-05-22T23:22:37.590469</dc:date>
    <dc:format>image/svg+xml</dc:format>
    <dc:creator>
     <cc:Agent>
      <dc:title>Matplotlib v3.9.0, https://matplotlib.org/</dc:title>
     </cc:Agent>
    </dc:creator>
   </cc:Work>
  </rdf:RDF>
 </metadata>
 <defs>
  <style type="text/css">*{stroke-linejoin: round; stroke-linecap: butt}</style>
 </defs>
 <g id="figure_1">
  <g id="patch_1">
   <path d="M 0 360 
L 720 360 
L 720 0 
L 0 0 
z
" style="fill: #ffffff"/>
  </g>
  <g id="axes_1">
   <g id="patch_2">
    <path d="M 90 320.4 
L 343.636364 320.4 
L 343.636364 43.2 
L 90 43.2 
z
" style="fill: #ffffff"/>
   </g>
   <g id="matplotlib.axis_1">
    <g id="xtick_1">
     <g id="line2d_1">
      <defs>
       <path id="mda22d18141" d="M 0 0 
L 0 3.5 
" style="stroke: #000000; stroke-width: 0.8"/>
      </defs>
      <g>
       <use xlink:href="#mda22d18141" x="110.994589" y="320.4" style="stroke: #000000; stroke-width: 0.8"/>
      </g>
     </g>
     <g id="text_1">
      <!-- 0 -->
      <g transform="translate(107.813339 334.998438) scale(0.1 -0.1)">
       <defs>
        <path id="DejaVuSans-30" d="M 2034 4250 
Q 1547 4250 1301 3770 
Q 1056 3291 1056 2328 
Q 1056 1369 1301 889 
Q 1547 409 2034 409 
Q 2525 409 2770 889 
Q 3016 1369 3016 2328 
Q 3016 3291 2770 3770 
Q 2525 4250 2034 4250 
z
M 2034 4750 
Q 2819 4750 3233 4129 
Q 3647 3509 3647 2328 
Q 3647 1150 3233 529 
Q 2819 -91 2034 -91 
Q 1250 -91 836 529 
Q 422 1150 422 2328 
Q 422 3509 836 4129 
Q 1250 4750 2034 4750 
z
" transform="scale(0.015625)"/>
       </defs>
       <use xlink:href="#DejaVuSans-30"/>
      </g>
     </g>
    </g>
    <g id="xtick_2">
     <g id="line2d_2">
      <g>
       <use xlink:href="#mda22d18141" x="163.451288" y="320.4" style="stroke: #000000; stroke-width: 0.8"/>
      </g>
     </g>
     <g id="text_2">
      <!-- 5000 -->
      <g transform="translate(150.726288 334.998438) scale(0.1 -0.1)">
       <defs>
        <path id="DejaVuSans-35" d="M 691 4666 
L 3169 4666 
L 3169 4134 
L 1269 4134 
L 1269 2991 
Q 1406 3038 1543 3061 
Q 1681 3084 1819 3084 
Q 2600 3084 3056 2656 
Q 3513 2228 3513 1497 
Q 3513 744 3044 326 
Q 2575 -91 1722 -91 
Q 1428 -91 1123 -41 
Q 819 9 494 109 
L 494 744 
Q 775 591 1075 516 
Q 1375 441 1709 441 
Q 2250 441 2565 725 
Q 2881 1009 2881 1497 
Q 2881 1984 2565 2268 
Q 2250 2553 1709 2553 
Q 1456 2553 1204 2497 
Q 953 2441 691 2322 
L 691 4666 
z
" transform="scale(0.015625)"/>
       </defs>
       <use xlink:href="#DejaVuSans-35"/>
       <use xlink:href="#DejaVuSans-30" x="63.623047"/>
       <use xlink:href="#DejaVuSans-30" x="127.246094"/>
       <use xlink:href="#DejaVuSans-30" x="190.869141"/>
      </g>
     </g>
    </g>
    <g id="xtick_3">
     <g id="line2d_3">
      <g>
       <use xlink:href="#mda22d18141" x="215.907987" y="320.4" style="stroke: #000000; stroke-width: 0.8"/>
      </g>
     </g>
     <g id="text_3">
      <!-- 10000 -->
      <g transform="translate(200.001737 334.998438) scale(0.1 -0.1)">
       <defs>
        <path id="DejaVuSans-31" d="M 794 531 
L 1825 531 
L 1825 4091 
L 703 3866 
L 703 4441 
L 1819 4666 
L 2450 4666 
L 2450 531 
L 3481 531 
L 3481 0 
L 794 0 
L 794 531 
z
" transform="scale(0.015625)"/>
       </defs>
       <use xlink:href="#DejaVuSans-31"/>
       <use xlink:href="#DejaVuSans-30" x="63.623047"/>
       <use xlink:href="#DejaVuSans-30" x="127.246094"/>
       <use xlink:href="#DejaVuSans-30" x="190.869141"/>
       <use xlink:href="#DejaVuSans-30" x="254.492188"/>
      </g>
     </g>
    </g>
    <g id="xtick_4">
     <g id="line2d_4">
      <g>
       <use xlink:href="#mda22d18141" x="268.364686" y="320.4" style="stroke: #000000; stroke-width: 0.8"/>
      </g>
     </g>
     <g id="text_4">
      <!-- 15000 -->
      <g transform="translate(252.458436 334.998438) scale(0.1 -0.1)">
       <use xlink:href="#DejaVuSans-31"/>
       <use xlink:href="#DejaVuSans-35" x="63.623047"/>
       <use xlink:href="#DejaVuSans-30" x="127.246094"/>
       <use xlink:href="#DejaVuSans-30" x="190.869141"/>
       <use xlink:href="#DejaVuSans-30" x="254.492188"/>
      </g>
     </g>
    </g>
    <g id="xtick_5">
     <g id="line2d_5">
      <g>
       <use xlink:href="#mda22d18141" x="320.821386" y="320.4" style="stroke: #000000; stroke-width: 0.8"/>
      </g>
     </g>
     <g id="text_5">
      <!-- 20000 -->
      <g transform="translate(304.915136 334.998438) scale(0.1 -0.1)">
       <defs>
        <path id="DejaVuSans-32" d="M 1228 531 
L 3431 531 
L 3431 0 
L 469 0 
L 469 531 
Q 828 903 1448 1529 
Q 2069 2156 2228 2338 
Q 2531 2678 2651 2914 
Q 2772 3150 2772 3378 
Q 2772 3750 2511 3984 
Q 2250 4219 1831 4219 
Q 1534 4219 1204 4116 
Q 875 4013 500 3803 
L 500 4441 
Q 881 4594 1212 4672 
Q 1544 4750 1819 4750 
Q 2544 4750 2975 4387 
Q 3406 4025 3406 3419 
Q 3406 3131 3298 2873 
Q 3191 2616 2906 2266 
Q 2828 2175 2409 1742 
Q 1991 1309 1228 531 
z
" transform="scale(0.015625)"/>
       </defs>
       <use xlink:href="#DejaVuSans-32"/>
       <use xlink:href="#DejaVuSans-30" x="63.623047"/>
       <use xlink:href="#DejaVuSans-30" x="127.246094"/>
       <use xlink:href="#DejaVuSans-30" x="190.869141"/>
       <use xlink:href="#DejaVuSans-30" x="254.492188"/>
      </g>
     </g>
    </g>
    <g id="text_6">
     <!-- time -->
     <g transform="translate(203.262869 350.19625) scale(0.12 -0.12)">
      <defs>
       <path id="DejaVuSans-74" d="M 1172 4494 
L 1172 3500 
L 2356 3500 
L 2356 3053 
L 1172 3053 
L 1172 1153 
Q 1172 725 1289 603 
Q 1406 481 1766 481 
L 2356 481 
L 2356 0 
L 1766 0 
Q 1100 0 847 248 
Q 594 497 594 1153 
L 594 3053 
L 172 3053 
L 172 3500 
L 594 3500 
L 594 4494 
L 1172 4494 
z
" transform="scale(0.015625)"/>
       <path id="DejaVuSans-69" d="M 603 3500 
L 1178 3500 
L 1178 0 
L 603 0 
L 603 3500 
z
M 603 4863 
L 1178 4863 
L 1178 4134 
L 603 4134 
L 603 4863 
z
" transform="scale(0.015625)"/>
       <path id="DejaVuSans-6d" d="M 3328 2828 
Q 3544 3216 3844 3400 
Q 4144 3584 4550 3584 
Q 5097 3584 5394 3201 
Q 5691 2819 5691 2113 
L 5691 0 
L 5113 0 
L 5113 2094 
Q 5113 2597 4934 2840 
Q 4756 3084 4391 3084 
Q 3944 3084 3684 2787 
Q 3425 2491 3425 1978 
L 3425 0 
L 2847 0 
L 2847 2094 
Q 2847 2600 2669 2842 
Q 2491 3084 2119 3084 
Q 1678 3084 1418 2786 
Q 1159 2488 1159 1978 
L 1159 0 
L 581 0 
L 581 3500 
L 1159 3500 
L 1159 2956 
Q 1356 3278 1631 3431 
Q 1906 3584 2284 3584 
Q 2666 3584 2933 3390 
Q 3200 3197 3328 2828 
z
" transform="scale(0.015625)"/>
       <path id="DejaVuSans-65" d="M 3597 1894 
L 3597 1613 
L 953 1613 
Q 991 1019 1311 708 
Q 1631 397 2203 397 
Q 2534 397 2845 478 
Q 3156 559 3463 722 
L 3463 178 
Q 3153 47 2828 -22 
Q 2503 -91 2169 -91 
Q 1331 -91 842 396 
Q 353 884 353 1716 
Q 353 2575 817 3079 
Q 1281 3584 2069 3584 
Q 2775 3584 3186 3129 
Q 3597 2675 3597 1894 
z
M 3022 2063 
Q 3016 2534 2758 2815 
Q 2500 3097 2075 3097 
Q 1594 3097 1305 2825 
Q 1016 2553 972 2059 
L 3022 2063 
z
" transform="scale(0.015625)"/>
      </defs>
      <use xlink:href="#DejaVuSans-74"/>
      <use xlink:href="#DejaVuSans-69" x="39.208984"/>
      <use xlink:href="#DejaVuSans-6d" x="66.992188"/>
      <use xlink:href="#DejaVuSans-65" x="164.404297"/>
     </g>
    </g>
   </g>
   <g id="matplotlib.axis_2">
    <g id="ytick_1">
     <g id="line2d_6">
      <defs>
       <path id="m432ee51b23" d="M 0 0 
L -3.5 0 
" style="stroke: #000000; stroke-width: 0.8"/>
      </defs>
      <g>
       <use xlink:href="#m432ee51b23" x="90" y="307.8" style="stroke: #000000; stroke-width: 0.8"/>
      </g>
     </g>
     <g id="text_7">
      <!-- 0.0000 -->
      <g transform="translate(48.009375 311.599219) scale(0.1 -0.1)">
       <defs>
        <path id="DejaVuSans-2e" d="M 684 794 
L 1344 794 
L 1344 0 
L 684 0 
L 684 794 
z
" transform="scale(0.015625)"/>
       </defs>
       <use xlink:href="#DejaVuSans-30"/>
       <use xlink:href="#DejaVuSans-2e" x="63.623047"/>
       <use xlink:href="#DejaVuSans-30" x="95.410156"/>
       <use xlink:href="#DejaVuSans-30" x="159.033203"/>
       <use xlink:href="#DejaVuSans-30" x="222.65625"/>
       <use xlink:href="#DejaVuSans-30" x="286.279297"/>
      </g>
     </g>
    </g>
    <g id="ytick_2">
     <g id="line2d_7">
      <g>
       <use xlink:href="#m432ee51b23" x="90" y="269.858193" style="stroke: #000000; stroke-width: 0.8"/>
      </g>
     </g>
     <g id="text_8">
      <!-- 0.0001 -->
      <g transform="translate(48.009375 273.657412) scale(0.1 -0.1)">
       <use xlink:href="#DejaVuSans-30"/>
       <use xlink:href="#DejaVuSans-2e" x="63.623047"/>
       <use xlink:href="#DejaVuSans-30" x="95.410156"/>
       <use xlink:href="#DejaVuSans-30" x="159.033203"/>
       <use xlink:href="#DejaVuSans-30" x="222.65625"/>
       <use xlink:href="#DejaVuSans-31" x="286.279297"/>
      </g>
     </g>
    </g>
    <g id="ytick_3">
     <g id="line2d_8">
      <g>
       <use xlink:href="#m432ee51b23" x="90" y="231.916387" style="stroke: #000000; stroke-width: 0.8"/>
      </g>
     </g>
     <g id="text_9">
      <!-- 0.0002 -->
      <g transform="translate(48.009375 235.715606) scale(0.1 -0.1)">
       <use xlink:href="#DejaVuSans-30"/>
       <use xlink:href="#DejaVuSans-2e" x="63.623047"/>
       <use xlink:href="#DejaVuSans-30" x="95.410156"/>
       <use xlink:href="#DejaVuSans-30" x="159.033203"/>
       <use xlink:href="#DejaVuSans-30" x="222.65625"/>
       <use xlink:href="#DejaVuSans-32" x="286.279297"/>
      </g>
     </g>
    </g>
    <g id="ytick_4">
     <g id="line2d_9">
      <g>
       <use xlink:href="#m432ee51b23" x="90" y="193.97458" style="stroke: #000000; stroke-width: 0.8"/>
      </g>
     </g>
     <g id="text_10">
      <!-- 0.0003 -->
      <g transform="translate(48.009375 197.773799) scale(0.1 -0.1)">
       <defs>
        <path id="DejaVuSans-33" d="M 2597 2516 
Q 3050 2419 3304 2112 
Q 3559 1806 3559 1356 
Q 3559 666 3084 287 
Q 2609 -91 1734 -91 
Q 1441 -91 1130 -33 
Q 819 25 488 141 
L 488 750 
Q 750 597 1062 519 
Q 1375 441 1716 441 
Q 2309 441 2620 675 
Q 2931 909 2931 1356 
Q 2931 1769 2642 2001 
Q 2353 2234 1838 2234 
L 1294 2234 
L 1294 2753 
L 1863 2753 
Q 2328 2753 2575 2939 
Q 2822 3125 2822 3475 
Q 2822 3834 2567 4026 
Q 2313 4219 1838 4219 
Q 1578 4219 1281 4162 
Q 984 4106 628 3988 
L 628 4550 
Q 988 4650 1302 4700 
Q 1616 4750 1894 4750 
Q 2613 4750 3031 4423 
Q 3450 4097 3450 3541 
Q 3450 3153 3228 2886 
Q 3006 2619 2597 2516 
z
" transform="scale(0.015625)"/>
       </defs>
       <use xlink:href="#DejaVuSans-30"/>
       <use xlink:href="#DejaVuSans-2e" x="63.623047"/>
       <use xlink:href="#DejaVuSans-30" x="95.410156"/>
       <use xlink:href="#DejaVuSans-30" x="159.033203"/>
       <use xlink:href="#DejaVuSans-30" x="222.65625"/>
       <use xlink:href="#DejaVuSans-33" x="286.279297"/>
      </g>
     </g>
    </g>
    <g id="ytick_5">
     <g id="line2d_10">
      <g>
       <use xlink:href="#m432ee51b23" x="90" y="156.032774" style="stroke: #000000; stroke-width: 0.8"/>
      </g>
     </g>
     <g id="text_11">
      <!-- 0.0004 -->
      <g transform="translate(48.009375 159.831992) scale(0.1 -0.1)">
       <defs>
        <path id="DejaVuSans-34" d="M 2419 4116 
L 825 1625 
L 2419 1625 
L 2419 4116 
z
M 2253 4666 
L 3047 4666 
L 3047 1625 
L 3713 1625 
L 3713 1100 
L 3047 1100 
L 3047 0 
L 2419 0 
L 2419 1100 
L 313 1100 
L 313 1709 
L 2253 4666 
z
" transform="scale(0.015625)"/>
       </defs>
       <use xlink:href="#DejaVuSans-30"/>
       <use xlink:href="#DejaVuSans-2e" x="63.623047"/>
       <use xlink:href="#DejaVuSans-30" x="95.410156"/>
       <use xlink:href="#DejaVuSans-30" x="159.033203"/>
       <use xlink:href="#DejaVuSans-30" x="222.65625"/>
       <use xlink:href="#DejaVuSans-34" x="286.279297"/>
      </g>
     </g>
    </g>
    <g id="ytick_6">
     <g id="line2d_11">
      <g>
       <use xlink:href="#m432ee51b23" x="90" y="118.090967" style="stroke: #000000; stroke-width: 0.8"/>
      </g>
     </g>
     <g id="text_12">
      <!-- 0.0005 -->
      <g transform="translate(48.009375 121.890186) scale(0.1 -0.1)">
       <use xlink:href="#DejaVuSans-30"/>
       <use xlink:href="#DejaVuSans-2e" x="63.623047"/>
       <use xlink:href="#DejaVuSans-30" x="95.410156"/>
       <use xlink:href="#DejaVuSans-30" x="159.033203"/>
       <use xlink:href="#DejaVuSans-30" x="222.65625"/>
       <use xlink:href="#DejaVuSans-35" x="286.279297"/>
      </g>
     </g>
    </g>
    <g id="ytick_7">
     <g id="line2d_12">
      <g>
       <use xlink:href="#m432ee51b23" x="90" y="80.14916" style="stroke: #000000; stroke-width: 0.8"/>
      </g>
     </g>
     <g id="text_13">
      <!-- 0.0006 -->
      <g transform="translate(48.009375 83.948379) scale(0.1 -0.1)">
       <defs>
        <path id="DejaVuSans-36" d="M 2113 2584 
Q 1688 2584 1439 2293 
Q 1191 2003 1191 1497 
Q 1191 994 1439 701 
Q 1688 409 2113 409 
Q 2538 409 2786 701 
Q 3034 994 3034 1497 
Q 3034 2003 2786 2293 
Q 2538 2584 2113 2584 
z
M 3366 4563 
L 3366 3988 
Q 3128 4100 2886 4159 
Q 2644 4219 2406 4219 
Q 1781 4219 1451 3797 
Q 1122 3375 1075 2522 
Q 1259 2794 1537 2939 
Q 1816 3084 2150 3084 
Q 2853 3084 3261 2657 
Q 3669 2231 3669 1497 
Q 3669 778 3244 343 
Q 2819 -91 2113 -91 
Q 1303 -91 875 529 
Q 447 1150 447 2328 
Q 447 3434 972 4092 
Q 1497 4750 2381 4750 
Q 2619 4750 2861 4703 
Q 3103 4656 3366 4563 
z
" transform="scale(0.015625)"/>
       </defs>
       <use xlink:href="#DejaVuSans-30"/>
       <use xlink:href="#DejaVuSans-2e" x="63.623047"/>
       <use xlink:href="#DejaVuSans-30" x="95.410156"/>
       <use xlink:href="#DejaVuSans-30" x="159.033203"/>
       <use xlink:href="#DejaVuSans-30" x="222.65625"/>
       <use xlink:href="#DejaVuSans-36" x="286.279297"/>
      </g>
     </g>
    </g>
    <g id="text_14">
     <!-- [Cve_dap] -->
     <g transform="translate(41.18 212.209687) rotate(-90) scale(0.12 -0.12)">
      <defs>
       <path id="DejaVuSans-5b" d="M 550 4863 
L 1875 4863 
L 1875 4416 
L 1125 4416 
L 1125 -397 
L 1875 -397 
L 1875 -844 
L 550 -844 
L 550 4863 
z
" transform="scale(0.015625)"/>
       <path id="DejaVuSans-43" d="M 4122 4306 
L 4122 3641 
Q 3803 3938 3442 4084 
Q 3081 4231 2675 4231 
Q 1875 4231 1450 3742 
Q 1025 3253 1025 2328 
Q 1025 1406 1450 917 
Q 1875 428 2675 428 
Q 3081 428 3442 575 
Q 3803 722 4122 1019 
L 4122 359 
Q 3791 134 3420 21 
Q 3050 -91 2638 -91 
Q 1578 -91 968 557 
Q 359 1206 359 2328 
Q 359 3453 968 4101 
Q 1578 4750 2638 4750 
Q 3056 4750 3426 4639 
Q 3797 4528 4122 4306 
z
" transform="scale(0.015625)"/>
       <path id="DejaVuSans-76" d="M 191 3500 
L 800 3500 
L 1894 563 
L 2988 3500 
L 3597 3500 
L 2284 0 
L 1503 0 
L 191 3500 
z
" transform="scale(0.015625)"/>
       <path id="DejaVuSans-5f" d="M 3263 -1063 
L 3263 -1509 
L -63 -1509 
L -63 -1063 
L 3263 -1063 
z
" transform="scale(0.015625)"/>
       <path id="DejaVuSans-64" d="M 2906 2969 
L 2906 4863 
L 3481 4863 
L 3481 0 
L 2906 0 
L 2906 525 
Q 2725 213 2448 61 
Q 2172 -91 1784 -91 
Q 1150 -91 751 415 
Q 353 922 353 1747 
Q 353 2572 751 3078 
Q 1150 3584 1784 3584 
Q 2172 3584 2448 3432 
Q 2725 3281 2906 2969 
z
M 947 1747 
Q 947 1113 1208 752 
Q 1469 391 1925 391 
Q 2381 391 2643 752 
Q 2906 1113 2906 1747 
Q 2906 2381 2643 2742 
Q 2381 3103 1925 3103 
Q 1469 3103 1208 2742 
Q 947 2381 947 1747 
z
" transform="scale(0.015625)"/>
       <path id="DejaVuSans-61" d="M 2194 1759 
Q 1497 1759 1228 1600 
Q 959 1441 959 1056 
Q 959 750 1161 570 
Q 1363 391 1709 391 
Q 2188 391 2477 730 
Q 2766 1069 2766 1631 
L 2766 1759 
L 2194 1759 
z
M 3341 1997 
L 3341 0 
L 2766 0 
L 2766 531 
Q 2569 213 2275 61 
Q 1981 -91 1556 -91 
Q 1019 -91 701 211 
Q 384 513 384 1019 
Q 384 1609 779 1909 
Q 1175 2209 1959 2209 
L 2766 2209 
L 2766 2266 
Q 2766 2663 2505 2880 
Q 2244 3097 1772 3097 
Q 1472 3097 1187 3025 
Q 903 2953 641 2809 
L 641 3341 
Q 956 3463 1253 3523 
Q 1550 3584 1831 3584 
Q 2591 3584 2966 3190 
Q 3341 2797 3341 1997 
z
" transform="scale(0.015625)"/>
       <path id="DejaVuSans-70" d="M 1159 525 
L 1159 -1331 
L 581 -1331 
L 581 3500 
L 1159 3500 
L 1159 2969 
Q 1341 3281 1617 3432 
Q 1894 3584 2278 3584 
Q 2916 3584 3314 3078 
Q 3713 2572 3713 1747 
Q 3713 922 3314 415 
Q 2916 -91 2278 -91 
Q 1894 -91 1617 61 
Q 1341 213 1159 525 
z
M 3116 1747 
Q 3116 2381 2855 2742 
Q 2594 3103 2138 3103 
Q 1681 3103 1420 2742 
Q 1159 2381 1159 1747 
Q 1159 1113 1420 752 
Q 1681 391 2138 391 
Q 2594 391 2855 752 
Q 3116 1113 3116 1747 
z
" transform="scale(0.015625)"/>
       <path id="DejaVuSans-5d" d="M 1947 4863 
L 1947 -844 
L 622 -844 
L 622 -397 
L 1369 -397 
L 1369 4416 
L 622 4416 
L 622 4863 
L 1947 4863 
z
" transform="scale(0.015625)"/>
      </defs>
      <use xlink:href="#DejaVuSans-5b"/>
      <use xlink:href="#DejaVuSans-43" x="39.013672"/>
      <use xlink:href="#DejaVuSans-76" x="108.837891"/>
      <use xlink:href="#DejaVuSans-65" x="168.017578"/>
      <use xlink:href="#DejaVuSans-5f" x="229.541016"/>
      <use xlink:href="#DejaVuSans-64" x="279.541016"/>
      <use xlink:href="#DejaVuSans-61" x="343.017578"/>
      <use xlink:href="#DejaVuSans-70" x="404.296875"/>
      <use xlink:href="#DejaVuSans-5d" x="467.773438"/>
     </g>
    </g>
   </g>
   <g id="LineCollection_1">
    <path d="M 111.136364 303.202058 
L 111.136364 248.593651 
" clip-path="url(#pe5e8fcf363)" style="fill: none; stroke: #000000; stroke-width: 1.5"/>
    <path d="M 111.309329 226.067672 
L 111.309329 55.8 
" clip-path="url(#pe5e8fcf363)" style="fill: none; stroke: #000000; stroke-width: 1.5"/>
    <path d="M 111.938809 254.68451 
L 111.938809 169.726537 
" clip-path="url(#pe5e8fcf363)" style="fill: none; stroke: #000000; stroke-width: 1.5"/>
    <path d="M 112.25355 257.047837 
L 112.25355 219.377695 
" clip-path="url(#pe5e8fcf363)" style="fill: none; stroke: #000000; stroke-width: 1.5"/>
    <path d="M 113.51251 282.694427 
L 113.51251 261.977586 
" clip-path="url(#pe5e8fcf363)" style="fill: none; stroke: #000000; stroke-width: 1.5"/>
    <path d="M 114.771471 289.980894 
L 114.771471 273.117514 
" clip-path="url(#pe5e8fcf363)" style="fill: none; stroke: #000000; stroke-width: 1.5"/>
    <path d="M 116.030432 292.122657 
L 116.030432 275.719639 
" clip-path="url(#pe5e8fcf363)" style="fill: none; stroke: #000000; stroke-width: 1.5"/>
    <path d="M 117.289393 297.538716 
L 117.289393 288.1512 
" clip-path="url(#pe5e8fcf363)" style="fill: none; stroke: #000000; stroke-width: 1.5"/>
    <path d="M 118.548353 299.723656 
L 118.548353 290.988979 
" clip-path="url(#pe5e8fcf363)" style="fill: none; stroke: #000000; stroke-width: 1.5"/>
    <path d="M 122.325236 303.340819 
L 122.325236 297.84194 
" clip-path="url(#pe5e8fcf363)" style="fill: none; stroke: #000000; stroke-width: 1.5"/>
    <path d="M 126.102118 304.424895 
L 126.102118 300.262853 
" clip-path="url(#pe5e8fcf363)" style="fill: none; stroke: #000000; stroke-width: 1.5"/>
    <path d="M 307.392471 303.013476 
L 307.392471 298.169283 
" clip-path="url(#pe5e8fcf363)" style="fill: none; stroke: #000000; stroke-width: 1.5"/>
    <path d="M 307.534245 306.219969 
L 307.534245 244.500462 
" clip-path="url(#pe5e8fcf363)" style="fill: none; stroke: #000000; stroke-width: 1.5"/>
    <path d="M 307.707211 252.821503 
L 307.707211 55.8 
" clip-path="url(#pe5e8fcf363)" style="fill: none; stroke: #000000; stroke-width: 1.5"/>
    <path d="M 308.021951 182.927984 
L 308.021951 127.398871 
" clip-path="url(#pe5e8fcf363)" style="fill: none; stroke: #000000; stroke-width: 1.5"/>
    <path d="M 308.336691 214.815543 
L 308.336691 169.726537 
" clip-path="url(#pe5e8fcf363)" style="fill: none; stroke: #000000; stroke-width: 1.5"/>
    <path d="M 308.651431 244.379633 
L 308.651431 197.30668 
" clip-path="url(#pe5e8fcf363)" style="fill: none; stroke: #000000; stroke-width: 1.5"/>
    <path d="M 309.910392 271.350228 
L 309.910392 250.539893 
" clip-path="url(#pe5e8fcf363)" style="fill: none; stroke: #000000; stroke-width: 1.5"/>
    <path d="M 311.169353 281.684654 
L 311.169353 262.987359 
" clip-path="url(#pe5e8fcf363)" style="fill: none; stroke: #000000; stroke-width: 1.5"/>
    <path d="M 312.428314 286.745552 
L 312.428314 263.974879 
" clip-path="url(#pe5e8fcf363)" style="fill: none; stroke: #000000; stroke-width: 1.5"/>
    <path d="M 313.687275 294.904427 
L 313.687275 280.95769 
" clip-path="url(#pe5e8fcf363)" style="fill: none; stroke: #000000; stroke-width: 1.5"/>
    <path d="M 314.946235 297.474973 
L 314.946235 287.025548 
" clip-path="url(#pe5e8fcf363)" style="fill: none; stroke: #000000; stroke-width: 1.5"/>
    <path d="M 318.723118 301.526052 
L 318.723118 297.034215 
" clip-path="url(#pe5e8fcf363)" style="fill: none; stroke: #000000; stroke-width: 1.5"/>
    <path d="M 322.5 303.340819 
L 322.5 297.84194 
" clip-path="url(#pe5e8fcf363)" style="fill: none; stroke: #000000; stroke-width: 1.5"/>
   </g>
   <g id="line2d_13">
    <path d="M 110.994589 307.8 
L 111.002217 307.714691 
L 111.033779 303.106896 
L 111.565009 185.129453 
L 111.597827 185.524515 
L 111.761917 192.005906 
L 113.250832 271.705214 
L 113.818013 286.007827 
L 114.385194 294.520635 
L 114.871349 298.892934 
L 115.357504 301.580536 
L 115.843659 303.213106 
L 116.329814 304.196066 
L 116.896995 304.855985 
L 117.545202 305.252913 
L 118.436486 305.498757 
L 119.894951 305.62925 
L 124.625148 305.718808 
L 126.109928 305.648925 
L 126.142627 300.709935 
L 126.655435 183.04424 
L 126.676914 183.104428 
L 126.767004 185.183986 
L 127.041447 200.661366 
L 127.919493 252.81798 
L 128.51846 274.457684 
L 129.03186 285.945005 
L 129.545261 293.084108 
L 130.058661 297.420227 
L 130.572062 300.010796 
L 131.085462 301.54032 
L 131.598863 302.436299 
L 132.19783 303.022026 
L 132.882364 303.366105 
L 133.823598 303.577771 
L 135.6205 303.711418 
L 141.215601 303.825641 
L 141.240754 301.018349 
L 141.36627 252.276159 
L 141.614513 188.114721 
L 141.775005 181.187283 
L 141.797932 181.374491 
L 141.915285 184.98676 
L 142.272775 207.186971 
L 143.012175 250.289349 
L 143.565392 270.878955 
L 144.147402 284.247294 
L 144.646269 291.181764 
L 145.145135 295.456397 
L 145.644001 298.05132 
L 146.142868 299.609708 
L 146.641734 300.53934 
L 147.223745 301.160015 
L 147.8889 301.534743 
L 148.803488 301.774815 
L 150.466376 301.934657 
L 156.321049 302.155519 
L 156.338225 301.004845 
L 156.413887 276.644522 
L 156.723936 186.223182 
L 156.872252 179.479935 
L 156.898587 179.601057 
L 157.003926 182.475264 
L 157.295705 199.746763 
L 158.08714 247.094916 
L 158.680073 269.412668 
L 159.243698 282.380716 
L 159.807322 290.083404 
L 160.370946 294.537126 
L 160.840633 296.738609 
L 161.404257 298.302429 
L 161.967881 299.176309 
L 162.531506 299.66544 
L 163.283004 300.006005 
L 164.410253 300.227415 
L 166.852624 300.404428 
L 171.430347 300.585178 
L 171.432485 300.531346 
L 171.463606 296.002584 
L 171.981306 177.937785 
L 172.024128 178.303708 
L 172.163346 183.341061 
L 172.685416 217.104625 
L 173.291466 249.95755 
L 173.849887 269.661436 
L 174.408308 281.843421 
L 174.966729 289.092676 
L 175.445375 292.831764 
L 175.924022 295.146725 
L 176.402669 296.568131 
L 176.96109 297.544997 
L 177.519511 298.096422 
L 178.237481 298.474589 
L 179.274549 298.724132 
L 181.26891 298.91461 
L 186.537094 299.191985 
L 186.538961 299.155403 
L 186.567888 295.379496 
L 186.736586 228.699636 
L 186.976425 180.091102 
L 187.089984 176.535977 
L 187.135407 176.968129 
L 187.265556 181.672706 
L 187.731113 211.681346 
L 188.383059 247.866186 
L 188.969853 268.619218 
L 189.47282 279.729093 
L 189.975786 286.703868 
L 190.478753 290.990874 
L 190.981719 293.587644 
L 191.484686 295.145993 
L 191.987652 296.077311 
L 192.574446 296.703457 
L 193.245068 297.088716 
L 194.167174 297.348494 
L 195.843728 297.551542 
L 201.644346 297.922464 
L 201.66528 296.119952 
L 201.76309 260.803009 
L 202.051021 181.558826 
L 202.193787 175.269521 
L 202.223609 175.415579 
L 202.342901 178.972535 
L 202.670953 199.12422 
L 203.443976 244.5064 
L 203.993457 264.979137 
L 204.542938 277.815803 
L 205.092418 285.555842 
L 205.641899 290.105212 
L 206.157707 292.612145 
L 206.673515 294.097452 
L 207.189324 294.975076 
L 207.808293 295.571899 
L 208.530425 295.937127 
L 209.562041 296.186818 
L 211.728436 296.417074 
L 216.751771 296.764776 
L 216.754101 296.721104 
L 216.78176 293.21789 
L 216.941454 230.072236 
L 217.189054 177.835692 
L 217.292832 174.144312 
L 217.35125 174.558547 
L 217.497295 180.106687 
L 218.073859 217.469389 
L 218.725489 250.83788 
L 219.265356 268.353727 
L 219.73774 278.190679 
L 220.245097 284.895205 
L 220.752454 288.993992 
L 221.259812 291.465606 
L 221.767169 292.944107 
L 222.274527 293.826694 
L 222.883356 294.43401 
L 223.593656 294.811186 
L 224.608371 295.073934 
L 226.6378 295.312433 
L 231.859206 295.714759 
L 231.861539 295.672307 
L 231.886589 292.748869 
L 232.013629 243.226372 
L 232.276383 178.396005 
L 232.422525 173.086699 
L 232.521446 175.277592 
L 232.785234 190.113167 
L 233.645425 241.693141 
L 234.21115 262.878892 
L 234.776876 275.983516 
L 235.342602 283.763603 
L 235.827509 287.763662 
L 236.312417 290.23301 
L 236.797325 291.746107 
L 237.363051 292.78603 
L 237.928776 293.3759 
L 238.656138 293.78699 
L 239.625953 294.056949 
L 241.484766 294.299911 
L 246.966575 294.758359 
L 246.967988 294.737633 
L 246.993211 291.975679 
L 247.112503 245.946122 
L 247.373415 178.416767 
L 247.518455 172.108858 
L 247.548373 172.282734 
L 247.668042 175.931875 
L 247.997134 196.220059 
L 248.776876 241.844492 
L 249.333204 262.359335 
L 249.889532 275.133479 
L 250.44586 282.781835 
L 250.932647 286.813768 
L 251.419434 289.299383 
L 251.906222 290.820684 
L 252.46255 291.849593 
L 253.018878 292.440008 
L 253.714288 292.848711 
L 254.687863 293.13554 
L 256.495929 293.388258 
L 262.073839 293.897286 
L 262.075883 293.866647 
L 262.102497 290.748992 
L 262.239513 236.90549 
L 262.487411 176.941611 
L 262.633 171.254502 
L 262.653798 171.39766 
L 262.755968 174.223138 
L 263.062478 192.49116 
L 263.83012 238.467892 
L 264.422579 260.976498 
L 264.930401 273.070668 
L 265.438223 280.667576 
L 265.946045 285.334319 
L 266.453867 288.158943 
L 266.961689 289.853945 
L 267.469511 290.868797 
L 268.06197 291.555234 
L 268.739067 291.984352 
L 269.670074 292.285674 
L 271.362814 292.547804 
L 277.181024 293.109337 
L 277.198573 291.942583 
L 277.278267 265.819026 
L 277.580272 177.599748 
L 277.742297 170.471129 
L 277.811736 171.620242 
L 278.029592 182.426448 
L 279.094387 244.698778 
L 279.683978 264.451377 
L 280.189342 274.949257 
L 280.694706 281.509451 
L 281.200069 285.529604 
L 281.705433 287.962222 
L 282.210797 289.424647 
L 282.71616 290.303978 
L 283.305751 290.903625 
L 284.063797 291.318219 
L 285.158752 291.610841 
L 287.348661 291.90142 
L 292.288702 292.390181 
L 292.29167 292.341081 
L 292.320044 288.692651 
L 292.480714 225.083684 
L 292.715612 174.30466 
L 292.845866 169.74595 
L 292.867575 169.879857 
L 292.960134 172.283788 
L 293.243535 188.690139 
L 294.100801 239.559072 
L 294.681755 260.768056 
L 295.262709 273.677684 
L 295.760669 280.379263 
L 296.25863 284.521731 
L 296.75659 287.050049 
L 297.254551 288.58284 
L 297.752511 289.511815 
L 298.333465 290.150015 
L 298.997413 290.557763 
L 299.993333 290.872361 
L 301.819189 291.154672 
L 307.396369 291.740501 
L 307.398264 291.713506 
L 307.423902 288.838836 
L 307.547071 241.028918 
L 307.806391 175.126848 
L 307.960816 169.123037 
L 308.045622 170.84001 
L 308.271772 182.797069 
L 309.295382 242.752602 
L 309.861946 262.131843 
L 310.428509 273.998141 
L 310.924252 280.318326 
L 311.419995 284.227366 
L 311.915738 286.616805 
L 312.411481 288.068893 
L 312.978045 289.046323 
L 313.544608 289.607273 
L 314.252813 289.999768 
L 315.315119 290.300262 
L 317.439732 290.605892 
L 323.12948 291.221821 
L 323.12948 291.221821 
" clip-path="url(#pe5e8fcf363)" style="fill: none; stroke: #0000ff; stroke-width: 1.5; stroke-linecap: square"/>
   </g>
   <g id="line2d_14">
    <path d="M 111.136364 275.897854 
L 111.309329 140.933836 
L 111.938809 212.205524 
L 112.25355 238.212766 
L 113.51251 272.336007 
L 114.771471 281.549204 
L 116.030432 283.921148 
L 117.289393 292.844958 
L 118.548353 295.356317 
L 122.325236 300.59138 
L 126.102118 302.343874 
L 307.392471 300.59138 
L 307.534245 275.360216 
L 307.707211 154.310751 
L 308.021951 155.163427 
L 308.336691 192.27104 
L 308.651431 220.843157 
L 309.910392 260.945061 
L 311.169353 272.336007 
L 312.428314 275.360216 
L 313.687275 287.931058 
L 314.946235 292.25026 
L 318.723118 299.280133 
L 322.5 300.59138 
" clip-path="url(#pe5e8fcf363)" style="fill: none; stroke: #000000; stroke-width: 1.5; stroke-linecap: square"/>
    <defs>
     <path id="mfd1cf2d2de" d="M -5 5 
L 5 5 
L 5 -5 
L -5 -5 
z
" style="stroke: #000000; stroke-linejoin: miter"/>
    </defs>
    <g clip-path="url(#pe5e8fcf363)">
     <use xlink:href="#mfd1cf2d2de" x="111.136364" y="275.897854" style="stroke: #000000; stroke-linejoin: miter"/>
     <use xlink:href="#mfd1cf2d2de" x="111.309329" y="140.933836" style="stroke: #000000; stroke-linejoin: miter"/>
     <use xlink:href="#mfd1cf2d2de" x="111.938809" y="212.205524" style="stroke: #000000; stroke-linejoin: miter"/>
     <use xlink:href="#mfd1cf2d2de" x="112.25355" y="238.212766" style="stroke: #000000; stroke-linejoin: miter"/>
     <use xlink:href="#mfd1cf2d2de" x="113.51251" y="272.336007" style="stroke: #000000; stroke-linejoin: miter"/>
     <use xlink:href="#mfd1cf2d2de" x="114.771471" y="281.549204" style="stroke: #000000; stroke-linejoin: miter"/>
     <use xlink:href="#mfd1cf2d2de" x="116.030432" y="283.921148" style="stroke: #000000; stroke-linejoin: miter"/>
     <use xlink:href="#mfd1cf2d2de" x="117.289393" y="292.844958" style="stroke: #000000; stroke-linejoin: miter"/>
     <use xlink:href="#mfd1cf2d2de" x="118.548353" y="295.356317" style="stroke: #000000; stroke-linejoin: miter"/>
     <use xlink:href="#mfd1cf2d2de" x="122.325236" y="300.59138" style="stroke: #000000; stroke-linejoin: miter"/>
     <use xlink:href="#mfd1cf2d2de" x="126.102118" y="302.343874" style="stroke: #000000; stroke-linejoin: miter"/>
     <use xlink:href="#mfd1cf2d2de" x="307.392471" y="300.59138" style="stroke: #000000; stroke-linejoin: miter"/>
     <use xlink:href="#mfd1cf2d2de" x="307.534245" y="275.360216" style="stroke: #000000; stroke-linejoin: miter"/>
     <use xlink:href="#mfd1cf2d2de" x="307.707211" y="154.310751" style="stroke: #000000; stroke-linejoin: miter"/>
     <use xlink:href="#mfd1cf2d2de" x="308.021951" y="155.163427" style="stroke: #000000; stroke-linejoin: miter"/>
     <use xlink:href="#mfd1cf2d2de" x="308.336691" y="192.27104" style="stroke: #000000; stroke-linejoin: miter"/>
     <use xlink:href="#mfd1cf2d2de" x="308.651431" y="220.843157" style="stroke: #000000; stroke-linejoin: miter"/>
     <use xlink:href="#mfd1cf2d2de" x="309.910392" y="260.945061" style="stroke: #000000; stroke-linejoin: miter"/>
     <use xlink:href="#mfd1cf2d2de" x="311.169353" y="272.336007" style="stroke: #000000; stroke-linejoin: miter"/>
     <use xlink:href="#mfd1cf2d2de" x="312.428314" y="275.360216" style="stroke: #000000; stroke-linejoin: miter"/>
     <use xlink:href="#mfd1cf2d2de" x="313.687275" y="287.931058" style="stroke: #000000; stroke-linejoin: miter"/>
     <use xlink:href="#mfd1cf2d2de" x="314.946235" y="292.25026" style="stroke: #000000; stroke-linejoin: miter"/>
     <use xlink:href="#mfd1cf2d2de" x="318.723118" y="299.280133" style="stroke: #000000; stroke-linejoin: miter"/>
     <use xlink:href="#mfd1cf2d2de" x="322.5" y="300.59138" style="stroke: #000000; stroke-linejoin: miter"/>
    </g>
   </g>
   <g id="patch_3">
    <path d="M 90 320.4 
L 90 43.2 
" style="fill: none; stroke: #000000; stroke-width: 0.8; stroke-linejoin: miter; stroke-linecap: square"/>
   </g>
   <g id="patch_4">
    <path d="M 343.636364 320.4 
L 343.636364 43.2 
" style="fill: none; stroke: #000000; stroke-width: 0.8; stroke-linejoin: miter; stroke-linecap: square"/>
   </g>
   <g id="patch_5">
    <path d="M 90 320.4 
L 343.636364 320.4 
" style="fill: none; stroke: #000000; stroke-width: 0.8; stroke-linejoin: miter; stroke-linecap: square"/>
   </g>
   <g id="patch_6">
    <path d="M 90 43.2 
L 343.636364 43.2 
" style="fill: none; stroke: #000000; stroke-width: 0.8; stroke-linejoin: miter; stroke-linecap: square"/>
   </g>
   <g id="text_15">
    <!-- Kasichayanula2011a fm_dap10_dapagliflozin -->
    <g transform="translate(59.110369 37.2) scale(0.14 -0.14)">
     <defs>
      <path id="DejaVuSans-4b" d="M 628 4666 
L 1259 4666 
L 1259 2694 
L 3353 4666 
L 4166 4666 
L 1850 2491 
L 4331 0 
L 3500 0 
L 1259 2247 
L 1259 0 
L 628 0 
L 628 4666 
z
" transform="scale(0.015625)"/>
      <path id="DejaVuSans-73" d="M 2834 3397 
L 2834 2853 
Q 2591 2978 2328 3040 
Q 2066 3103 1784 3103 
Q 1356 3103 1142 2972 
Q 928 2841 928 2578 
Q 928 2378 1081 2264 
Q 1234 2150 1697 2047 
L 1894 2003 
Q 2506 1872 2764 1633 
Q 3022 1394 3022 966 
Q 3022 478 2636 193 
Q 2250 -91 1575 -91 
Q 1294 -91 989 -36 
Q 684 19 347 128 
L 347 722 
Q 666 556 975 473 
Q 1284 391 1588 391 
Q 1994 391 2212 530 
Q 2431 669 2431 922 
Q 2431 1156 2273 1281 
Q 2116 1406 1581 1522 
L 1381 1569 
Q 847 1681 609 1914 
Q 372 2147 372 2553 
Q 372 3047 722 3315 
Q 1072 3584 1716 3584 
Q 2034 3584 2315 3537 
Q 2597 3491 2834 3397 
z
" transform="scale(0.015625)"/>
      <path id="DejaVuSans-63" d="M 3122 3366 
L 3122 2828 
Q 2878 2963 2633 3030 
Q 2388 3097 2138 3097 
Q 1578 3097 1268 2742 
Q 959 2388 959 1747 
Q 959 1106 1268 751 
Q 1578 397 2138 397 
Q 2388 397 2633 464 
Q 2878 531 3122 666 
L 3122 134 
Q 2881 22 2623 -34 
Q 2366 -91 2075 -91 
Q 1284 -91 818 406 
Q 353 903 353 1747 
Q 353 2603 823 3093 
Q 1294 3584 2113 3584 
Q 2378 3584 2631 3529 
Q 2884 3475 3122 3366 
z
" transform="scale(0.015625)"/>
      <path id="DejaVuSans-68" d="M 3513 2113 
L 3513 0 
L 2938 0 
L 2938 2094 
Q 2938 2591 2744 2837 
Q 2550 3084 2163 3084 
Q 1697 3084 1428 2787 
Q 1159 2491 1159 1978 
L 1159 0 
L 581 0 
L 581 4863 
L 1159 4863 
L 1159 2956 
Q 1366 3272 1645 3428 
Q 1925 3584 2291 3584 
Q 2894 3584 3203 3211 
Q 3513 2838 3513 2113 
z
" transform="scale(0.015625)"/>
      <path id="DejaVuSans-79" d="M 2059 -325 
Q 1816 -950 1584 -1140 
Q 1353 -1331 966 -1331 
L 506 -1331 
L 506 -850 
L 844 -850 
Q 1081 -850 1212 -737 
Q 1344 -625 1503 -206 
L 1606 56 
L 191 3500 
L 800 3500 
L 1894 763 
L 2988 3500 
L 3597 3500 
L 2059 -325 
z
" transform="scale(0.015625)"/>
      <path id="DejaVuSans-6e" d="M 3513 2113 
L 3513 0 
L 2938 0 
L 2938 2094 
Q 2938 2591 2744 2837 
Q 2550 3084 2163 3084 
Q 1697 3084 1428 2787 
Q 1159 2491 1159 1978 
L 1159 0 
L 581 0 
L 581 3500 
L 1159 3500 
L 1159 2956 
Q 1366 3272 1645 3428 
Q 1925 3584 2291 3584 
Q 2894 3584 3203 3211 
Q 3513 2838 3513 2113 
z
" transform="scale(0.015625)"/>
      <path id="DejaVuSans-75" d="M 544 1381 
L 544 3500 
L 1119 3500 
L 1119 1403 
Q 1119 906 1312 657 
Q 1506 409 1894 409 
Q 2359 409 2629 706 
Q 2900 1003 2900 1516 
L 2900 3500 
L 3475 3500 
L 3475 0 
L 2900 0 
L 2900 538 
Q 2691 219 2414 64 
Q 2138 -91 1772 -91 
Q 1169 -91 856 284 
Q 544 659 544 1381 
z
M 1991 3584 
L 1991 3584 
z
" transform="scale(0.015625)"/>
      <path id="DejaVuSans-6c" d="M 603 4863 
L 1178 4863 
L 1178 0 
L 603 0 
L 603 4863 
z
" transform="scale(0.015625)"/>
      <path id="DejaVuSans-20" transform="scale(0.015625)"/>
      <path id="DejaVuSans-66" d="M 2375 4863 
L 2375 4384 
L 1825 4384 
Q 1516 4384 1395 4259 
Q 1275 4134 1275 3809 
L 1275 3500 
L 2222 3500 
L 2222 3053 
L 1275 3053 
L 1275 0 
L 697 0 
L 697 3053 
L 147 3053 
L 147 3500 
L 697 3500 
L 697 3744 
Q 697 4328 969 4595 
Q 1241 4863 1831 4863 
L 2375 4863 
z
" transform="scale(0.015625)"/>
      <path id="DejaVuSans-67" d="M 2906 1791 
Q 2906 2416 2648 2759 
Q 2391 3103 1925 3103 
Q 1463 3103 1205 2759 
Q 947 2416 947 1791 
Q 947 1169 1205 825 
Q 1463 481 1925 481 
Q 2391 481 2648 825 
Q 2906 1169 2906 1791 
z
M 3481 434 
Q 3481 -459 3084 -895 
Q 2688 -1331 1869 -1331 
Q 1566 -1331 1297 -1286 
Q 1028 -1241 775 -1147 
L 775 -588 
Q 1028 -725 1275 -790 
Q 1522 -856 1778 -856 
Q 2344 -856 2625 -561 
Q 2906 -266 2906 331 
L 2906 616 
Q 2728 306 2450 153 
Q 2172 0 1784 0 
Q 1141 0 747 490 
Q 353 981 353 1791 
Q 353 2603 747 3093 
Q 1141 3584 1784 3584 
Q 2172 3584 2450 3431 
Q 2728 3278 2906 2969 
L 2906 3500 
L 3481 3500 
L 3481 434 
z
" transform="scale(0.015625)"/>
      <path id="DejaVuSans-6f" d="M 1959 3097 
Q 1497 3097 1228 2736 
Q 959 2375 959 1747 
Q 959 1119 1226 758 
Q 1494 397 1959 397 
Q 2419 397 2687 759 
Q 2956 1122 2956 1747 
Q 2956 2369 2687 2733 
Q 2419 3097 1959 3097 
z
M 1959 3584 
Q 2709 3584 3137 3096 
Q 3566 2609 3566 1747 
Q 3566 888 3137 398 
Q 2709 -91 1959 -91 
Q 1206 -91 779 398 
Q 353 888 353 1747 
Q 353 2609 779 3096 
Q 1206 3584 1959 3584 
z
" transform="scale(0.015625)"/>
      <path id="DejaVuSans-7a" d="M 353 3500 
L 3084 3500 
L 3084 2975 
L 922 459 
L 3084 459 
L 3084 0 
L 275 0 
L 275 525 
L 2438 3041 
L 353 3041 
L 353 3500 
z
" transform="scale(0.015625)"/>
     </defs>
     <use xlink:href="#DejaVuSans-4b"/>
     <use xlink:href="#DejaVuSans-61" x="63.826172"/>
     <use xlink:href="#DejaVuSans-73" x="125.105469"/>
     <use xlink:href="#DejaVuSans-69" x="177.205078"/>
     <use xlink:href="#DejaVuSans-63" x="204.988281"/>
     <use xlink:href="#DejaVuSans-68" x="259.96875"/>
     <use xlink:href="#DejaVuSans-61" x="323.347656"/>
     <use xlink:href="#DejaVuSans-79" x="384.626953"/>
     <use xlink:href="#DejaVuSans-61" x="443.806641"/>
     <use xlink:href="#DejaVuSans-6e" x="505.085938"/>
     <use xlink:href="#DejaVuSans-75" x="568.464844"/>
     <use xlink:href="#DejaVuSans-6c" x="631.84375"/>
     <use xlink:href="#DejaVuSans-61" x="659.626953"/>
     <use xlink:href="#DejaVuSans-32" x="720.90625"/>
     <use xlink:href="#DejaVuSans-30" x="784.529297"/>
     <use xlink:href="#DejaVuSans-31" x="848.152344"/>
     <use xlink:href="#DejaVuSans-31" x="911.775391"/>
     <use xlink:href="#DejaVuSans-61" x="975.398438"/>
     <use xlink:href="#DejaVuSans-20" x="1036.677734"/>
     <use xlink:href="#DejaVuSans-66" x="1068.464844"/>
     <use xlink:href="#DejaVuSans-6d" x="1103.669922"/>
     <use xlink:href="#DejaVuSans-5f" x="1201.082031"/>
     <use xlink:href="#DejaVuSans-64" x="1251.082031"/>
     <use xlink:href="#DejaVuSans-61" x="1314.558594"/>
     <use xlink:href="#DejaVuSans-70" x="1375.837891"/>
     <use xlink:href="#DejaVuSans-31" x="1439.314453"/>
     <use xlink:href="#DejaVuSans-30" x="1502.9375"/>
     <use xlink:href="#DejaVuSans-5f" x="1566.560547"/>
     <use xlink:href="#DejaVuSans-64" x="1616.560547"/>
     <use xlink:href="#DejaVuSans-61" x="1680.037109"/>
     <use xlink:href="#DejaVuSans-70" x="1741.316406"/>
     <use xlink:href="#DejaVuSans-61" x="1804.792969"/>
     <use xlink:href="#DejaVuSans-67" x="1866.072266"/>
     <use xlink:href="#DejaVuSans-6c" x="1929.548828"/>
     <use xlink:href="#DejaVuSans-69" x="1957.332031"/>
     <use xlink:href="#DejaVuSans-66" x="1985.115234"/>
     <use xlink:href="#DejaVuSans-6c" x="2020.320312"/>
     <use xlink:href="#DejaVuSans-6f" x="2048.103516"/>
     <use xlink:href="#DejaVuSans-7a" x="2109.285156"/>
     <use xlink:href="#DejaVuSans-69" x="2161.775391"/>
     <use xlink:href="#DejaVuSans-6e" x="2189.558594"/>
    </g>
   </g>
   <g id="legend_1">
    <g id="patch_7">
     <path d="M 200.586364 80.834375 
L 336.636364 80.834375 
Q 338.636364 80.834375 338.636364 78.834375 
L 338.636364 50.2 
Q 338.636364 48.2 336.636364 48.2 
L 200.586364 48.2 
Q 198.586364 48.2 198.586364 50.2 
L 198.586364 78.834375 
Q 198.586364 80.834375 200.586364 80.834375 
z
" style="fill: #ffffff; opacity: 0.8; stroke: #cccccc; stroke-linejoin: miter"/>
    </g>
    <g id="line2d_15">
     <path d="M 202.586364 56.298437 
L 212.586364 56.298437 
L 222.586364 56.298437 
" style="fill: none; stroke: #0000ff; stroke-width: 1.5; stroke-linecap: square"/>
    </g>
    <g id="text_16">
     <!-- observable -->
     <g transform="translate(230.586364 59.798437) scale(0.1 -0.1)">
      <defs>
       <path id="DejaVuSans-62" d="M 3116 1747 
Q 3116 2381 2855 2742 
Q 2594 3103 2138 3103 
Q 1681 3103 1420 2742 
Q 1159 2381 1159 1747 
Q 1159 1113 1420 752 
Q 1681 391 2138 391 
Q 2594 391 2855 752 
Q 3116 1113 3116 1747 
z
M 1159 2969 
Q 1341 3281 1617 3432 
Q 1894 3584 2278 3584 
Q 2916 3584 3314 3078 
Q 3713 2572 3713 1747 
Q 3713 922 3314 415 
Q 2916 -91 2278 -91 
Q 1894 -91 1617 61 
Q 1341 213 1159 525 
L 1159 0 
L 581 0 
L 581 4863 
L 1159 4863 
L 1159 2969 
z
" transform="scale(0.015625)"/>
       <path id="DejaVuSans-72" d="M 2631 2963 
Q 2534 3019 2420 3045 
Q 2306 3072 2169 3072 
Q 1681 3072 1420 2755 
Q 1159 2438 1159 1844 
L 1159 0 
L 581 0 
L 581 3500 
L 1159 3500 
L 1159 2956 
Q 1341 3275 1631 3429 
Q 1922 3584 2338 3584 
Q 2397 3584 2469 3576 
Q 2541 3569 2628 3553 
L 2631 2963 
z
" transform="scale(0.015625)"/>
      </defs>
      <use xlink:href="#DejaVuSans-6f"/>
      <use xlink:href="#DejaVuSans-62" x="61.181641"/>
      <use xlink:href="#DejaVuSans-73" x="124.658203"/>
      <use xlink:href="#DejaVuSans-65" x="176.757812"/>
      <use xlink:href="#DejaVuSans-72" x="238.28125"/>
      <use xlink:href="#DejaVuSans-76" x="279.394531"/>
      <use xlink:href="#DejaVuSans-61" x="338.574219"/>
      <use xlink:href="#DejaVuSans-62" x="399.853516"/>
      <use xlink:href="#DejaVuSans-6c" x="463.330078"/>
      <use xlink:href="#DejaVuSans-65" x="491.113281"/>
     </g>
    </g>
    <g id="LineCollection_2">
     <path d="M 212.586364 75.976562 
L 212.586364 65.976562 
" style="fill: none; stroke: #000000; stroke-width: 1.5"/>
    </g>
    <g id="line2d_16">
     <path d="M 202.586364 70.976562 
L 222.586364 70.976562 
" style="fill: none; stroke: #000000; stroke-width: 1.5; stroke-linecap: square"/>
    </g>
    <g id="line2d_17">
     <g>
      <use xlink:href="#mfd1cf2d2de" x="212.586364" y="70.976562" style="stroke: #000000; stroke-linejoin: miter"/>
     </g>
    </g>
    <g id="text_17">
     <!-- reference_data ± SD -->
     <g transform="translate(230.586364 74.476562) scale(0.1 -0.1)">
      <defs>
       <path id="DejaVuSans-b1" d="M 2944 4013 
L 2944 2803 
L 4684 2803 
L 4684 2272 
L 2944 2272 
L 2944 1063 
L 2419 1063 
L 2419 2272 
L 678 2272 
L 678 2803 
L 2419 2803 
L 2419 4013 
L 2944 4013 
z
M 678 531 
L 4684 531 
L 4684 0 
L 678 0 
L 678 531 
z
" transform="scale(0.015625)"/>
       <path id="DejaVuSans-53" d="M 3425 4513 
L 3425 3897 
Q 3066 4069 2747 4153 
Q 2428 4238 2131 4238 
Q 1616 4238 1336 4038 
Q 1056 3838 1056 3469 
Q 1056 3159 1242 3001 
Q 1428 2844 1947 2747 
L 2328 2669 
Q 3034 2534 3370 2195 
Q 3706 1856 3706 1288 
Q 3706 609 3251 259 
Q 2797 -91 1919 -91 
Q 1588 -91 1214 -16 
Q 841 59 441 206 
L 441 856 
Q 825 641 1194 531 
Q 1563 422 1919 422 
Q 2459 422 2753 634 
Q 3047 847 3047 1241 
Q 3047 1584 2836 1778 
Q 2625 1972 2144 2069 
L 1759 2144 
Q 1053 2284 737 2584 
Q 422 2884 422 3419 
Q 422 4038 858 4394 
Q 1294 4750 2059 4750 
Q 2388 4750 2728 4690 
Q 3069 4631 3425 4513 
z
" transform="scale(0.015625)"/>
       <path id="DejaVuSans-44" d="M 1259 4147 
L 1259 519 
L 2022 519 
Q 2988 519 3436 956 
Q 3884 1394 3884 2338 
Q 3884 3275 3436 3711 
Q 2988 4147 2022 4147 
L 1259 4147 
z
M 628 4666 
L 1925 4666 
Q 3281 4666 3915 4102 
Q 4550 3538 4550 2338 
Q 4550 1131 3912 565 
Q 3275 0 1925 0 
L 628 0 
L 628 4666 
z
" transform="scale(0.015625)"/>
      </defs>
      <use xlink:href="#DejaVuSans-72"/>
      <use xlink:href="#DejaVuSans-65" x="38.863281"/>
      <use xlink:href="#DejaVuSans-66" x="100.386719"/>
      <use xlink:href="#DejaVuSans-65" x="135.591797"/>
      <use xlink:href="#DejaVuSans-72" x="197.115234"/>
      <use xlink:href="#DejaVuSans-65" x="235.978516"/>
      <use xlink:href="#DejaVuSans-6e" x="297.501953"/>
      <use xlink:href="#DejaVuSans-63" x="360.880859"/>
      <use xlink:href="#DejaVuSans-65" x="415.861328"/>
      <use xlink:href="#DejaVuSans-5f" x="477.384766"/>
      <use xlink:href="#DejaVuSans-64" x="527.384766"/>
      <use xlink:href="#DejaVuSans-61" x="590.861328"/>
      <use xlink:href="#DejaVuSans-74" x="652.140625"/>
      <use xlink:href="#DejaVuSans-61" x="691.349609"/>
      <use xlink:href="#DejaVuSans-20" x="752.628906"/>
      <use xlink:href="#DejaVuSans-b1" x="784.416016"/>
      <use xlink:href="#DejaVuSans-20" x="868.205078"/>
      <use xlink:href="#DejaVuSans-53" x="899.992188"/>
      <use xlink:href="#DejaVuSans-44" x="963.46875"/>
     </g>
    </g>
   </g>
  </g>
  <g id="axes_2">
   <g id="patch_8">
    <path d="M 394.363636 320.4 
L 648 320.4 
L 648 43.2 
L 394.363636 43.2 
z
" style="fill: #ffffff"/>
   </g>
   <g id="matplotlib.axis_3">
    <g id="xtick_6">
     <g id="line2d_18">
      <g>
       <use xlink:href="#mda22d18141" x="415.358225" y="320.4" style="stroke: #000000; stroke-width: 0.8"/>
      </g>
     </g>
     <g id="text_18">
      <!-- 0 -->
      <g transform="translate(412.176975 334.998438) scale(0.1 -0.1)">
       <use xlink:href="#DejaVuSans-30"/>
      </g>
     </g>
    </g>
    <g id="xtick_7">
     <g id="line2d_19">
      <g>
       <use xlink:href="#mda22d18141" x="467.814924" y="320.4" style="stroke: #000000; stroke-width: 0.8"/>
      </g>
     </g>
     <g id="text_19">
      <!-- 5000 -->
      <g transform="translate(455.089924 334.998438) scale(0.1 -0.1)">
       <use xlink:href="#DejaVuSans-35"/>
       <use xlink:href="#DejaVuSans-30" x="63.623047"/>
       <use xlink:href="#DejaVuSans-30" x="127.246094"/>
       <use xlink:href="#DejaVuSans-30" x="190.869141"/>
      </g>
     </g>
    </g>
    <g id="xtick_8">
     <g id="line2d_20">
      <g>
       <use xlink:href="#mda22d18141" x="520.271624" y="320.4" style="stroke: #000000; stroke-width: 0.8"/>
      </g>
     </g>
     <g id="text_20">
      <!-- 10000 -->
      <g transform="translate(504.365374 334.998438) scale(0.1 -0.1)">
       <use xlink:href="#DejaVuSans-31"/>
       <use xlink:href="#DejaVuSans-30" x="63.623047"/>
       <use xlink:href="#DejaVuSans-30" x="127.246094"/>
       <use xlink:href="#DejaVuSans-30" x="190.869141"/>
       <use xlink:href="#DejaVuSans-30" x="254.492188"/>
      </g>
     </g>
    </g>
    <g id="xtick_9">
     <g id="line2d_21">
      <g>
       <use xlink:href="#mda22d18141" x="572.728323" y="320.4" style="stroke: #000000; stroke-width: 0.8"/>
      </g>
     </g>
     <g id="text_21">
      <!-- 15000 -->
      <g transform="translate(556.822073 334.998438) scale(0.1 -0.1)">
       <use xlink:href="#DejaVuSans-31"/>
       <use xlink:href="#DejaVuSans-35" x="63.623047"/>
       <use xlink:href="#DejaVuSans-30" x="127.246094"/>
       <use xlink:href="#DejaVuSans-30" x="190.869141"/>
       <use xlink:href="#DejaVuSans-30" x="254.492188"/>
      </g>
     </g>
    </g>
    <g id="xtick_10">
     <g id="line2d_22">
      <g>
       <use xlink:href="#mda22d18141" x="625.185022" y="320.4" style="stroke: #000000; stroke-width: 0.8"/>
      </g>
     </g>
     <g id="text_22">
      <!-- 20000 -->
      <g transform="translate(609.278772 334.998438) scale(0.1 -0.1)">
       <use xlink:href="#DejaVuSans-32"/>
       <use xlink:href="#DejaVuSans-30" x="63.623047"/>
       <use xlink:href="#DejaVuSans-30" x="127.246094"/>
       <use xlink:href="#DejaVuSans-30" x="190.869141"/>
       <use xlink:href="#DejaVuSans-30" x="254.492188"/>
      </g>
     </g>
    </g>
    <g id="text_23">
     <!-- time -->
     <g transform="translate(507.626506 350.19625) scale(0.12 -0.12)">
      <use xlink:href="#DejaVuSans-74"/>
      <use xlink:href="#DejaVuSans-69" x="39.208984"/>
      <use xlink:href="#DejaVuSans-6d" x="66.992188"/>
      <use xlink:href="#DejaVuSans-65" x="164.404297"/>
     </g>
    </g>
   </g>
   <g id="matplotlib.axis_4">
    <g id="ytick_8">
     <g id="line2d_23">
      <g>
       <use xlink:href="#m432ee51b23" x="394.363636" y="297.270942" style="stroke: #000000; stroke-width: 0.8"/>
      </g>
     </g>
     <g id="text_24">
      <!-- $\mathdefault{10^{-5}}$ -->
      <g transform="translate(363.863636 301.070161) scale(0.1 -0.1)">
       <defs>
        <path id="DejaVuSans-2212" d="M 678 2272 
L 4684 2272 
L 4684 1741 
L 678 1741 
L 678 2272 
z
" transform="scale(0.015625)"/>
       </defs>
       <use xlink:href="#DejaVuSans-31" transform="translate(0 0.684375)"/>
       <use xlink:href="#DejaVuSans-30" transform="translate(63.623047 0.684375)"/>
       <use xlink:href="#DejaVuSans-2212" transform="translate(128.203125 38.965625) scale(0.7)"/>
       <use xlink:href="#DejaVuSans-35" transform="translate(186.855469 38.965625) scale(0.7)"/>
      </g>
     </g>
    </g>
    <g id="ytick_9">
     <g id="line2d_24">
      <g>
       <use xlink:href="#m432ee51b23" x="394.363636" y="233.923157" style="stroke: #000000; stroke-width: 0.8"/>
      </g>
     </g>
     <g id="text_25">
      <!-- $\mathdefault{10^{-4}}$ -->
      <g transform="translate(363.863636 237.722375) scale(0.1 -0.1)">
       <use xlink:href="#DejaVuSans-31" transform="translate(0 0.684375)"/>
       <use xlink:href="#DejaVuSans-30" transform="translate(63.623047 0.684375)"/>
       <use xlink:href="#DejaVuSans-2212" transform="translate(128.203125 38.965625) scale(0.7)"/>
       <use xlink:href="#DejaVuSans-34" transform="translate(186.855469 38.965625) scale(0.7)"/>
      </g>
     </g>
    </g>
    <g id="ytick_10">
     <g id="line2d_25">
      <g>
       <use xlink:href="#m432ee51b23" x="394.363636" y="170.575371" style="stroke: #000000; stroke-width: 0.8"/>
      </g>
     </g>
     <g id="text_26">
      <!-- $\mathdefault{10^{-3}}$ -->
      <g transform="translate(363.863636 174.37459) scale(0.1 -0.1)">
       <use xlink:href="#DejaVuSans-31" transform="translate(0 0.765625)"/>
       <use xlink:href="#DejaVuSans-30" transform="translate(63.623047 0.765625)"/>
       <use xlink:href="#DejaVuSans-2212" transform="translate(128.203125 39.046875) scale(0.7)"/>
       <use xlink:href="#DejaVuSans-33" transform="translate(186.855469 39.046875) scale(0.7)"/>
      </g>
     </g>
    </g>
    <g id="ytick_11">
     <g id="line2d_26">
      <g>
       <use xlink:href="#m432ee51b23" x="394.363636" y="107.227586" style="stroke: #000000; stroke-width: 0.8"/>
      </g>
     </g>
     <g id="text_27">
      <!-- $\mathdefault{10^{-2}}$ -->
      <g transform="translate(363.863636 111.026805) scale(0.1 -0.1)">
       <use xlink:href="#DejaVuSans-31" transform="translate(0 0.765625)"/>
       <use xlink:href="#DejaVuSans-30" transform="translate(63.623047 0.765625)"/>
       <use xlink:href="#DejaVuSans-2212" transform="translate(128.203125 39.046875) scale(0.7)"/>
       <use xlink:href="#DejaVuSans-32" transform="translate(186.855469 39.046875) scale(0.7)"/>
      </g>
     </g>
    </g>
    <g id="ytick_12">
     <g id="line2d_27">
      <g>
       <use xlink:href="#m432ee51b23" x="394.363636" y="43.879801" style="stroke: #000000; stroke-width: 0.8"/>
      </g>
     </g>
     <g id="text_28">
      <!-- $\mathdefault{10^{-1}}$ -->
      <g transform="translate(363.863636 47.679019) scale(0.1 -0.1)">
       <use xlink:href="#DejaVuSans-31" transform="translate(0 0.684375)"/>
       <use xlink:href="#DejaVuSans-30" transform="translate(63.623047 0.684375)"/>
       <use xlink:href="#DejaVuSans-2212" transform="translate(128.203125 38.965625) scale(0.7)"/>
       <use xlink:href="#DejaVuSans-31" transform="translate(186.855469 38.965625) scale(0.7)"/>
      </g>
     </g>
    </g>
    <g id="ytick_13">
     <g id="line2d_28">
      <defs>
       <path id="me8b82279f5" d="M 0 0 
L -2 0 
" style="stroke: #000000; stroke-width: 0.6"/>
      </defs>
      <g>
       <use xlink:href="#me8b82279f5" x="394.363636" y="316.340525" style="stroke: #000000; stroke-width: 0.6"/>
      </g>
     </g>
    </g>
    <g id="ytick_14">
     <g id="line2d_29">
      <g>
       <use xlink:href="#me8b82279f5" x="394.363636" y="311.324569" style="stroke: #000000; stroke-width: 0.6"/>
      </g>
     </g>
    </g>
    <g id="ytick_15">
     <g id="line2d_30">
      <g>
       <use xlink:href="#me8b82279f5" x="394.363636" y="307.083638" style="stroke: #000000; stroke-width: 0.6"/>
      </g>
     </g>
    </g>
    <g id="ytick_16">
     <g id="line2d_31">
      <g>
       <use xlink:href="#me8b82279f5" x="394.363636" y="303.409977" style="stroke: #000000; stroke-width: 0.6"/>
      </g>
     </g>
    </g>
    <g id="ytick_17">
     <g id="line2d_32">
      <g>
       <use xlink:href="#me8b82279f5" x="394.363636" y="300.169578" style="stroke: #000000; stroke-width: 0.6"/>
      </g>
     </g>
    </g>
    <g id="ytick_18">
     <g id="line2d_33">
      <g>
       <use xlink:href="#me8b82279f5" x="394.363636" y="278.201358" style="stroke: #000000; stroke-width: 0.6"/>
      </g>
     </g>
    </g>
    <g id="ytick_19">
     <g id="line2d_34">
      <g>
       <use xlink:href="#me8b82279f5" x="394.363636" y="267.046367" style="stroke: #000000; stroke-width: 0.6"/>
      </g>
     </g>
    </g>
    <g id="ytick_20">
     <g id="line2d_35">
      <g>
       <use xlink:href="#me8b82279f5" x="394.363636" y="259.131775" style="stroke: #000000; stroke-width: 0.6"/>
      </g>
     </g>
    </g>
    <g id="ytick_21">
     <g id="line2d_36">
      <g>
       <use xlink:href="#me8b82279f5" x="394.363636" y="252.99274" style="stroke: #000000; stroke-width: 0.6"/>
      </g>
     </g>
    </g>
    <g id="ytick_22">
     <g id="line2d_37">
      <g>
       <use xlink:href="#me8b82279f5" x="394.363636" y="247.976784" style="stroke: #000000; stroke-width: 0.6"/>
      </g>
     </g>
    </g>
    <g id="ytick_23">
     <g id="line2d_38">
      <g>
       <use xlink:href="#me8b82279f5" x="394.363636" y="243.735853" style="stroke: #000000; stroke-width: 0.6"/>
      </g>
     </g>
    </g>
    <g id="ytick_24">
     <g id="line2d_39">
      <g>
       <use xlink:href="#me8b82279f5" x="394.363636" y="240.062191" style="stroke: #000000; stroke-width: 0.6"/>
      </g>
     </g>
    </g>
    <g id="ytick_25">
     <g id="line2d_40">
      <g>
       <use xlink:href="#me8b82279f5" x="394.363636" y="236.821792" style="stroke: #000000; stroke-width: 0.6"/>
      </g>
     </g>
    </g>
    <g id="ytick_26">
     <g id="line2d_41">
      <g>
       <use xlink:href="#me8b82279f5" x="394.363636" y="214.853573" style="stroke: #000000; stroke-width: 0.6"/>
      </g>
     </g>
    </g>
    <g id="ytick_27">
     <g id="line2d_42">
      <g>
       <use xlink:href="#me8b82279f5" x="394.363636" y="203.698582" style="stroke: #000000; stroke-width: 0.6"/>
      </g>
     </g>
    </g>
    <g id="ytick_28">
     <g id="line2d_43">
      <g>
       <use xlink:href="#me8b82279f5" x="394.363636" y="195.783989" style="stroke: #000000; stroke-width: 0.6"/>
      </g>
     </g>
    </g>
    <g id="ytick_29">
     <g id="line2d_44">
      <g>
       <use xlink:href="#me8b82279f5" x="394.363636" y="189.644955" style="stroke: #000000; stroke-width: 0.6"/>
      </g>
     </g>
    </g>
    <g id="ytick_30">
     <g id="line2d_45">
      <g>
       <use xlink:href="#me8b82279f5" x="394.363636" y="184.628998" style="stroke: #000000; stroke-width: 0.6"/>
      </g>
     </g>
    </g>
    <g id="ytick_31">
     <g id="line2d_46">
      <g>
       <use xlink:href="#me8b82279f5" x="394.363636" y="180.388067" style="stroke: #000000; stroke-width: 0.6"/>
      </g>
     </g>
    </g>
    <g id="ytick_32">
     <g id="line2d_47">
      <g>
       <use xlink:href="#me8b82279f5" x="394.363636" y="176.714406" style="stroke: #000000; stroke-width: 0.6"/>
      </g>
     </g>
    </g>
    <g id="ytick_33">
     <g id="line2d_48">
      <g>
       <use xlink:href="#me8b82279f5" x="394.363636" y="173.474007" style="stroke: #000000; stroke-width: 0.6"/>
      </g>
     </g>
    </g>
    <g id="ytick_34">
     <g id="line2d_49">
      <g>
       <use xlink:href="#me8b82279f5" x="394.363636" y="151.505788" style="stroke: #000000; stroke-width: 0.6"/>
      </g>
     </g>
    </g>
    <g id="ytick_35">
     <g id="line2d_50">
      <g>
       <use xlink:href="#me8b82279f5" x="394.363636" y="140.350796" style="stroke: #000000; stroke-width: 0.6"/>
      </g>
     </g>
    </g>
    <g id="ytick_36">
     <g id="line2d_51">
      <g>
       <use xlink:href="#me8b82279f5" x="394.363636" y="132.436204" style="stroke: #000000; stroke-width: 0.6"/>
      </g>
     </g>
    </g>
    <g id="ytick_37">
     <g id="line2d_52">
      <g>
       <use xlink:href="#me8b82279f5" x="394.363636" y="126.297169" style="stroke: #000000; stroke-width: 0.6"/>
      </g>
     </g>
    </g>
    <g id="ytick_38">
     <g id="line2d_53">
      <g>
       <use xlink:href="#me8b82279f5" x="394.363636" y="121.281213" style="stroke: #000000; stroke-width: 0.6"/>
      </g>
     </g>
    </g>
    <g id="ytick_39">
     <g id="line2d_54">
      <g>
       <use xlink:href="#me8b82279f5" x="394.363636" y="117.040282" style="stroke: #000000; stroke-width: 0.6"/>
      </g>
     </g>
    </g>
    <g id="ytick_40">
     <g id="line2d_55">
      <g>
       <use xlink:href="#me8b82279f5" x="394.363636" y="113.366621" style="stroke: #000000; stroke-width: 0.6"/>
      </g>
     </g>
    </g>
    <g id="ytick_41">
     <g id="line2d_56">
      <g>
       <use xlink:href="#me8b82279f5" x="394.363636" y="110.126222" style="stroke: #000000; stroke-width: 0.6"/>
      </g>
     </g>
    </g>
    <g id="ytick_42">
     <g id="line2d_57">
      <g>
       <use xlink:href="#me8b82279f5" x="394.363636" y="88.158002" style="stroke: #000000; stroke-width: 0.6"/>
      </g>
     </g>
    </g>
    <g id="ytick_43">
     <g id="line2d_58">
      <g>
       <use xlink:href="#me8b82279f5" x="394.363636" y="77.003011" style="stroke: #000000; stroke-width: 0.6"/>
      </g>
     </g>
    </g>
    <g id="ytick_44">
     <g id="line2d_59">
      <g>
       <use xlink:href="#me8b82279f5" x="394.363636" y="69.088419" style="stroke: #000000; stroke-width: 0.6"/>
      </g>
     </g>
    </g>
    <g id="ytick_45">
     <g id="line2d_60">
      <g>
       <use xlink:href="#me8b82279f5" x="394.363636" y="62.949384" style="stroke: #000000; stroke-width: 0.6"/>
      </g>
     </g>
    </g>
    <g id="ytick_46">
     <g id="line2d_61">
      <g>
       <use xlink:href="#me8b82279f5" x="394.363636" y="57.933427" style="stroke: #000000; stroke-width: 0.6"/>
      </g>
     </g>
    </g>
    <g id="ytick_47">
     <g id="line2d_62">
      <g>
       <use xlink:href="#me8b82279f5" x="394.363636" y="53.692497" style="stroke: #000000; stroke-width: 0.6"/>
      </g>
     </g>
    </g>
    <g id="ytick_48">
     <g id="line2d_63">
      <g>
       <use xlink:href="#me8b82279f5" x="394.363636" y="50.018835" style="stroke: #000000; stroke-width: 0.6"/>
      </g>
     </g>
    </g>
    <g id="ytick_49">
     <g id="line2d_64">
      <g>
       <use xlink:href="#me8b82279f5" x="394.363636" y="46.778436" style="stroke: #000000; stroke-width: 0.6"/>
      </g>
     </g>
    </g>
    <g id="text_29">
     <!-- [Cve_dap] -->
     <g transform="translate(357.034261 212.209687) rotate(-90) scale(0.12 -0.12)">
      <use xlink:href="#DejaVuSans-5b"/>
      <use xlink:href="#DejaVuSans-43" x="39.013672"/>
      <use xlink:href="#DejaVuSans-76" x="108.837891"/>
      <use xlink:href="#DejaVuSans-65" x="168.017578"/>
      <use xlink:href="#DejaVuSans-5f" x="229.541016"/>
      <use xlink:href="#DejaVuSans-64" x="279.541016"/>
      <use xlink:href="#DejaVuSans-61" x="343.017578"/>
      <use xlink:href="#DejaVuSans-70" x="404.296875"/>
      <use xlink:href="#DejaVuSans-5d" x="467.773438"/>
     </g>
    </g>
   </g>
   <g id="LineCollection_3">
    <path d="M 415.5 291.984853 
L 415.5 221.681179 
" clip-path="url(#p56196b0ddc)" style="fill: none; stroke: #000000; stroke-width: 1.5"/>
    <path d="M 415.672965 212.810869 
L 415.672965 181.833379 
" clip-path="url(#p56196b0ddc)" style="fill: none; stroke: #000000; stroke-width: 1.5"/>
    <path d="M 416.302446 224.667843 
L 416.302446 198.385542 
" clip-path="url(#p56196b0ddc)" style="fill: none; stroke: #000000; stroke-width: 1.5"/>
    <path d="M 416.617186 225.920016 
L 416.617186 210.646404 
" clip-path="url(#p56196b0ddc)" style="fill: none; stroke: #000000; stroke-width: 1.5"/>
    <path d="M 417.876147 245.284446 
L 417.876147 228.731175 
" clip-path="url(#p56196b0ddc)" style="fill: none; stroke: #000000; stroke-width: 1.5"/>
    <path d="M 419.135107 254.715933 
L 419.135107 236.394214 
" clip-path="url(#p56196b0ddc)" style="fill: none; stroke: #000000; stroke-width: 1.5"/>
    <path d="M 420.394068 258.238922 
L 420.394068 238.539864 
" clip-path="url(#p56196b0ddc)" style="fill: none; stroke: #000000; stroke-width: 1.5"/>
    <path d="M 421.653029 269.899395 
L 421.653029 252.026812 
" clip-path="url(#p56196b0ddc)" style="fill: none; stroke: #000000; stroke-width: 1.5"/>
    <path d="M 422.91199 276.486735 
L 422.91199 256.318114 
" clip-path="url(#p56196b0ddc)" style="fill: none; stroke: #000000; stroke-width: 1.5"/>
    <path d="M 426.688872 292.827913 
L 426.688872 270.724626 
" clip-path="url(#p56196b0ddc)" style="fill: none; stroke: #000000; stroke-width: 1.5"/>
    <path d="M 430.465755 300.490952 
L 430.465755 278.387665 
" clip-path="url(#p56196b0ddc)" style="fill: none; stroke: #000000; stroke-width: 1.5"/>
    <path d="M 611.756107 290.879008 
L 611.756107 271.644191 
" clip-path="url(#p56196b0ddc)" style="fill: none; stroke: #000000; stroke-width: 1.5"/>
    <path d="M 611.897882 321.371761 
L 611.897882 219.84205 
" clip-path="url(#p56196b0ddc)" style="fill: none; stroke: #000000; stroke-width: 1.5"/>
    <path d="M 612.070847 223.719421 
L 612.070847 181.833379 
" clip-path="url(#p56196b0ddc)" style="fill: none; stroke: #000000; stroke-width: 1.5"/>
    <path d="M 612.385587 201.150362 
L 612.385587 191.029025 
" clip-path="url(#p56196b0ddc)" style="fill: none; stroke: #000000; stroke-width: 1.5"/>
    <path d="M 612.700328 209.262348 
L 612.700328 198.385542 
" clip-path="url(#p56196b0ddc)" style="fill: none; stroke: #000000; stroke-width: 1.5"/>
    <path d="M 613.015068 219.789585 
L 613.015068 204.515973 
" clip-path="url(#p56196b0ddc)" style="fill: none; stroke: #000000; stroke-width: 1.5"/>
    <path d="M 614.274029 235.026877 
L 614.274029 222.600744 
" clip-path="url(#p56196b0ddc)" style="fill: none; stroke: #000000; stroke-width: 1.5"/>
    <path d="M 615.532989 244.199575 
L 615.532989 229.344218 
" clip-path="url(#p56196b0ddc)" style="fill: none; stroke: #000000; stroke-width: 1.5"/>
    <path d="M 616.79195 250.125882 
L 616.79195 229.957261 
" clip-path="url(#p56196b0ddc)" style="fill: none; stroke: #000000; stroke-width: 1.5"/>
    <path d="M 618.050911 263.61283 
L 618.050911 243.444209 
" clip-path="url(#p56196b0ddc)" style="fill: none; stroke: #000000; stroke-width: 1.5"/>
    <path d="M 619.309872 269.729022 
L 619.309872 250.494204 
" clip-path="url(#p56196b0ddc)" style="fill: none; stroke: #000000; stroke-width: 1.5"/>
    <path d="M 623.086754 283.434333 
L 623.086754 268.578975 
" clip-path="url(#p56196b0ddc)" style="fill: none; stroke: #000000; stroke-width: 1.5"/>
    <path d="M 626.863636 292.827913 
L 626.863636 270.724626 
" clip-path="url(#p56196b0ddc)" style="fill: none; stroke: #000000; stroke-width: 1.5"/>
   </g>
   <g id="line2d_65">
    <path d="M 415.371516 361 
L 415.502049 228.556733 
L 415.694183 205.625836 
L 415.895828 201.652661 
L 415.928646 201.639713 
L 415.961464 201.728457 
L 416.092736 202.819941 
L 416.420915 208.174287 
L 417.20934 225.55301 
L 419.883192 286.649867 
L 420.612425 297.704135 
L 421.260632 304.25047 
L 421.827812 307.848855 
L 422.394993 310.038658 
L 422.962174 311.327941 
L 423.529355 312.083698 
L 424.177562 312.587179 
L 424.988085 312.948888 
L 426.448139 313.322924 
L 430.466772 314.071117 
L 430.468119 314.041996 
L 430.480729 308.03052 
L 430.691952 213.318084 
L 430.890196 202.320902 
L 431.019071 201.175988 
L 431.06203 201.244332 
L 431.199251 202.332186 
L 431.542305 207.861682 
L 432.368696 225.666165 
L 434.251164 266.554534 
L 435.021265 278.616302 
L 435.620232 285.096045 
L 436.219199 289.310954 
L 436.7326 291.569595 
L 437.246001 292.984364 
L 437.844968 293.968497 
L 438.443935 294.538253 
L 439.214036 294.959018 
L 440.41197 295.32338 
L 443.235673 295.867669 
L 445.574641 296.285631 
L 445.577455 296.186188 
L 445.598498 286.045479 
L 445.796198 213.057567 
L 446.001077 201.830941 
L 446.138641 200.769503 
L 446.161568 200.810211 
L 446.278921 201.607729 
L 446.564914 205.794782 
L 447.321461 221.289649 
L 449.176194 259.537846 
L 449.924493 270.348248 
L 450.589648 276.747792 
L 451.171659 280.250839 
L 451.75367 282.3706 
L 452.33568 283.611233 
L 452.917691 284.335122 
L 453.582846 284.816843 
L 454.497434 285.191484 
L 456.160322 285.583366 
L 460.682241 286.397397 
L 460.684346 286.357192 
L 460.701862 281.2388 
L 460.937772 209.142097 
L 461.139556 200.970619 
L 461.235888 200.400993 
L 461.288558 200.511977 
L 461.446567 201.906188 
L 461.819446 208.043492 
L 463.04371 233.601988 
L 464.170958 254.874658 
L 464.922457 265.014719 
L 465.580019 270.82501 
L 466.143643 273.937151 
L 466.707267 275.843123 
L 467.270891 276.97833 
L 467.834516 277.65419 
L 468.492077 278.120769 
L 469.431451 278.498571 
L 471.122323 278.891254 
L 475.790046 279.724685 
L 475.792093 279.687626 
L 475.810001 275.332356 
L 476.060157 207.521052 
L 476.259298 200.493883 
L 476.344942 200.07233 
L 476.387764 200.149961 
L 476.526983 201.241522 
L 476.875029 206.652041 
L 477.9742 228.929771 
L 479.091042 249.744826 
L 479.809012 259.512329 
L 480.447207 265.364155 
L 481.005628 268.634612 
L 481.56405 270.663874 
L 482.122471 271.883868 
L 482.680892 272.613586 
L 483.319087 273.108692 
L 484.196606 273.496597 
L 485.712321 273.876552 
L 490.658336 274.764399 
L 490.897644 274.803835 
L 490.901148 274.712156 
L 490.927538 266.649504 
L 491.144438 209.003085 
L 491.340061 200.532339 
L 491.45362 199.776945 
L 491.499044 199.867669 
L 491.629192 200.875183 
L 491.951501 205.724054 
L 492.914351 224.744417 
L 494.08794 246.33086 
L 494.842389 256.321214 
L 495.429183 261.561016 
L 496.015978 264.938304 
L 496.602772 266.983608 
L 497.189566 268.182129 
L 497.77636 268.882877 
L 498.446982 269.350948 
L 499.369087 269.717774 
L 501.045642 270.107201 
L 506.00532 270.99865 
L 506.007534 270.962546 
L 506.027109 267.015552 
L 506.301796 205.063556 
L 506.508776 199.652094 
L 506.557423 199.512781 
L 506.617069 199.645833 
L 506.766183 200.934324 
L 507.125186 206.574716 
L 509.66211 251.204616 
L 510.31502 257.614002 
L 510.93399 261.469146 
L 511.449798 263.463706 
L 511.965606 264.717867 
L 512.584576 265.615826 
L 513.203546 266.135023 
L 514.028839 266.533133 
L 515.369941 266.898652 
L 519.08376 267.583033 
L 521.112924 267.940533 
L 521.11692 267.837294 
L 521.145396 260.231341 
L 521.379134 206.738054 
L 521.589975 199.604131 
L 521.656468 199.280189 
L 521.714886 199.365587 
L 521.860931 200.535697 
L 522.213436 205.92407 
L 524.710205 249.025274 
L 525.319034 254.956347 
L 525.927863 258.805548 
L 526.43522 260.820679 
L 526.942577 262.100765 
L 527.551406 263.025826 
L 528.160235 263.564161 
L 528.972007 263.976856 
L 530.291136 264.350231 
L 533.639695 264.975274 
L 536.220449 265.433739 
L 536.224438 265.340026 
L 536.250225 259.360388 
L 536.494677 205.892196 
L 536.702652 199.342072 
L 536.786162 199.063347 
L 536.819135 199.138133 
L 536.951029 200.120842 
L 537.280765 204.952586 
L 539.867874 248.315568 
L 540.514418 254.04275 
L 541.080143 257.239521 
L 541.645869 259.218921 
L 542.211595 260.406313 
L 542.77732 261.115475 
L 543.504682 261.641387 
L 544.474497 262.025877 
L 546.252492 262.431542 
L 551.328054 263.331533 
L 551.330682 263.290892 
L 551.35302 259.262479 
L 551.62347 204.323475 
L 551.832987 198.991938 
L 551.882092 198.86437 
L 551.941926 199.005251 
L 552.091514 200.285192 
L 552.451967 205.816607 
L 554.739955 244.568756 
L 555.365825 250.789271 
L 555.922153 254.457785 
L 556.478481 256.790839 
L 557.034809 258.215923 
L 557.591137 259.073654 
L 558.217007 259.645721 
L 559.051499 260.076412 
L 560.303237 260.436184 
L 563.398666 261.020557 
L 566.435645 261.565029 
L 566.440367 261.444437 
L 566.469313 254.810775 
L 566.701702 205.975775 
L 566.913443 199.005928 
L 566.996636 198.691692 
L 567.017435 198.720551 
L 567.119605 199.296419 
L 567.392058 202.797977 
L 568.193756 217.337668 
L 569.378674 237.596404 
L 570.055771 245.943855 
L 570.64823 250.956447 
L 571.240689 254.176805 
L 571.833148 256.122133 
L 572.425607 257.260769 
L 573.018066 257.927163 
L 573.779799 258.415659 
L 574.795443 258.776381 
L 576.826731 259.208875 
L 581.543231 260.041225 
L 581.546875 259.970885 
L 581.572499 255.057737 
L 581.839936 203.839583 
L 582.036494 198.726472 
L 582.105933 198.534306 
L 582.152226 198.650426 
L 582.2843 199.687186 
L 582.647393 205.052222 
L 584.889888 242.149101 
L 585.563706 248.581205 
L 586.153297 252.180318 
L 586.742888 254.389764 
L 587.332479 255.694037 
L 587.92207 256.457438 
L 588.595888 256.964352 
L 589.522388 257.355104 
L 591.122706 257.740371 
L 596.650806 258.727718 
L 596.651745 258.720309 
L 596.667834 257.104173 
L 597.035831 200.223761 
L 597.209503 198.389411 
L 597.288346 198.653094 
L 597.500896 200.885683 
L 598.033685 209.832121 
L 599.543352 235.693296 
L 600.290293 244.522993 
L 600.871247 249.096188 
L 601.4522 252.031615 
L 602.033154 253.814276 
L 602.614108 254.868197 
L 603.195062 255.49308 
L 603.942003 255.958472 
L 605.020917 256.330524 
L 607.178746 256.778639 
L 611.758374 257.592917 
L 611.762532 257.50705 
L 611.792199 251.561121 
L 612.048195 203.892858 
L 612.239646 198.540611 
L 612.324452 198.265555 
L 612.352721 198.324349 
L 612.494065 199.34844 
L 612.807618 203.791243 
L 615.146248 241.3238 
L 615.783632 247.017771 
L 616.350195 250.290453 
L 616.916759 252.330908 
L 617.483322 253.560222 
L 618.049886 254.295618 
L 618.75809 254.828872 
L 619.678756 255.213489 
L 621.307626 255.60315 
L 627.401054 256.685773 
L 627.493117 256.701829 
L 627.493117 256.701829 
" clip-path="url(#p56196b0ddc)" style="fill: none; stroke: #0000ff; stroke-width: 1.5; stroke-linecap: square"/>
   </g>
   <g id="line2d_66">
    <path d="M 415.5 238.693125 
L 415.672965 193.174676 
L 416.302446 208.500753 
L 416.617186 217.236617 
L 417.876147 235.78117 
L 419.135107 244.057252 
L 420.394068 246.662685 
L 421.653029 259.53659 
L 422.91199 264.594195 
L 426.688872 279.613751 
L 430.465755 287.276789 
L 611.756107 279.613751 
L 611.897882 238.233343 
L 612.070847 195.473588 
L 612.385587 195.626848 
L 612.700328 203.289887 
L 613.015068 211.106186 
L 614.274029 228.118132 
L 615.532989 235.78117 
L 616.79195 238.233343 
L 618.050911 251.720291 
L 619.309872 258.463765 
L 623.086754 275.015928 
L 626.863636 279.613751 
" clip-path="url(#p56196b0ddc)" style="fill: none; stroke: #000000; stroke-width: 1.5; stroke-linecap: square"/>
    <g clip-path="url(#p56196b0ddc)">
     <use xlink:href="#mfd1cf2d2de" x="415.5" y="238.693125" style="stroke: #000000; stroke-linejoin: miter"/>
     <use xlink:href="#mfd1cf2d2de" x="415.672965" y="193.174676" style="stroke: #000000; stroke-linejoin: miter"/>
     <use xlink:href="#mfd1cf2d2de" x="416.302446" y="208.500753" style="stroke: #000000; stroke-linejoin: miter"/>
     <use xlink:href="#mfd1cf2d2de" x="416.617186" y="217.236617" style="stroke: #000000; stroke-linejoin: miter"/>
     <use xlink:href="#mfd1cf2d2de" x="417.876147" y="235.78117" style="stroke: #000000; stroke-linejoin: miter"/>
     <use xlink:href="#mfd1cf2d2de" x="419.135107" y="244.057252" style="stroke: #000000; stroke-linejoin: miter"/>
     <use xlink:href="#mfd1cf2d2de" x="420.394068" y="246.662685" style="stroke: #000000; stroke-linejoin: miter"/>
     <use xlink:href="#mfd1cf2d2de" x="421.653029" y="259.53659" style="stroke: #000000; stroke-linejoin: miter"/>
     <use xlink:href="#mfd1cf2d2de" x="422.91199" y="264.594195" style="stroke: #000000; stroke-linejoin: miter"/>
     <use xlink:href="#mfd1cf2d2de" x="426.688872" y="279.613751" style="stroke: #000000; stroke-linejoin: miter"/>
     <use xlink:href="#mfd1cf2d2de" x="430.465755" y="287.276789" style="stroke: #000000; stroke-linejoin: miter"/>
     <use xlink:href="#mfd1cf2d2de" x="611.756107" y="279.613751" style="stroke: #000000; stroke-linejoin: miter"/>
     <use xlink:href="#mfd1cf2d2de" x="611.897882" y="238.233343" style="stroke: #000000; stroke-linejoin: miter"/>
     <use xlink:href="#mfd1cf2d2de" x="612.070847" y="195.473588" style="stroke: #000000; stroke-linejoin: miter"/>
     <use xlink:href="#mfd1cf2d2de" x="612.385587" y="195.626848" style="stroke: #000000; stroke-linejoin: miter"/>
     <use xlink:href="#mfd1cf2d2de" x="612.700328" y="203.289887" style="stroke: #000000; stroke-linejoin: miter"/>
     <use xlink:href="#mfd1cf2d2de" x="613.015068" y="211.106186" style="stroke: #000000; stroke-linejoin: miter"/>
     <use xlink:href="#mfd1cf2d2de" x="614.274029" y="228.118132" style="stroke: #000000; stroke-linejoin: miter"/>
     <use xlink:href="#mfd1cf2d2de" x="615.532989" y="235.78117" style="stroke: #000000; stroke-linejoin: miter"/>
     <use xlink:href="#mfd1cf2d2de" x="616.79195" y="238.233343" style="stroke: #000000; stroke-linejoin: miter"/>
     <use xlink:href="#mfd1cf2d2de" x="618.050911" y="251.720291" style="stroke: #000000; stroke-linejoin: miter"/>
     <use xlink:href="#mfd1cf2d2de" x="619.309872" y="258.463765" style="stroke: #000000; stroke-linejoin: miter"/>
     <use xlink:href="#mfd1cf2d2de" x="623.086754" y="275.015928" style="stroke: #000000; stroke-linejoin: miter"/>
     <use xlink:href="#mfd1cf2d2de" x="626.863636" y="279.613751" style="stroke: #000000; stroke-linejoin: miter"/>
    </g>
   </g>
   <g id="patch_9">
    <path d="M 394.363636 320.4 
L 394.363636 43.2 
" style="fill: none; stroke: #000000; stroke-width: 0.8; stroke-linejoin: miter; stroke-linecap: square"/>
   </g>
   <g id="patch_10">
    <path d="M 648 320.4 
L 648 43.2 
" style="fill: none; stroke: #000000; stroke-width: 0.8; stroke-linejoin: miter; stroke-linecap: square"/>
   </g>
   <g id="patch_11">
    <path d="M 394.363636 320.4 
L 648 320.4 
" style="fill: none; stroke: #000000; stroke-width: 0.8; stroke-linejoin: miter; stroke-linecap: square"/>
   </g>
   <g id="patch_12">
    <path d="M 394.363636 43.2 
L 648 43.2 
" style="fill: none; stroke: #000000; stroke-width: 0.8; stroke-linejoin: miter; stroke-linecap: square"/>
   </g>
   <g id="text_30">
    <!-- Kasichayanula2011a fm_dap10_dapagliflozin -->
    <g transform="translate(363.474006 37.2) scale(0.14 -0.14)">
     <use xlink:href="#DejaVuSans-4b"/>
     <use xlink:href="#DejaVuSans-61" x="63.826172"/>
     <use xlink:href="#DejaVuSans-73" x="125.105469"/>
     <use xlink:href="#DejaVuSans-69" x="177.205078"/>
     <use xlink:href="#DejaVuSans-63" x="204.988281"/>
     <use xlink:href="#DejaVuSans-68" x="259.96875"/>
     <use xlink:href="#DejaVuSans-61" x="323.347656"/>
     <use xlink:href="#DejaVuSans-79" x="384.626953"/>
     <use xlink:href="#DejaVuSans-61" x="443.806641"/>
     <use xlink:href="#DejaVuSans-6e" x="505.085938"/>
     <use xlink:href="#DejaVuSans-75" x="568.464844"/>
     <use xlink:href="#DejaVuSans-6c" x="631.84375"/>
     <use xlink:href="#DejaVuSans-61" x="659.626953"/>
     <use xlink:href="#DejaVuSans-32" x="720.90625"/>
     <use xlink:href="#DejaVuSans-30" x="784.529297"/>
     <use xlink:href="#DejaVuSans-31" x="848.152344"/>
     <use xlink:href="#DejaVuSans-31" x="911.775391"/>
     <use xlink:href="#DejaVuSans-61" x="975.398438"/>
     <use xlink:href="#DejaVuSans-20" x="1036.677734"/>
     <use xlink:href="#DejaVuSans-66" x="1068.464844"/>
     <use xlink:href="#DejaVuSans-6d" x="1103.669922"/>
     <use xlink:href="#DejaVuSans-5f" x="1201.082031"/>
     <use xlink:href="#DejaVuSans-64" x="1251.082031"/>
     <use xlink:href="#DejaVuSans-61" x="1314.558594"/>
     <use xlink:href="#DejaVuSans-70" x="1375.837891"/>
     <use xlink:href="#DejaVuSans-31" x="1439.314453"/>
     <use xlink:href="#DejaVuSans-30" x="1502.9375"/>
     <use xlink:href="#DejaVuSans-5f" x="1566.560547"/>
     <use xlink:href="#DejaVuSans-64" x="1616.560547"/>
     <use xlink:href="#DejaVuSans-61" x="1680.037109"/>
     <use xlink:href="#DejaVuSans-70" x="1741.316406"/>
     <use xlink:href="#DejaVuSans-61" x="1804.792969"/>
     <use xlink:href="#DejaVuSans-67" x="1866.072266"/>
     <use xlink:href="#DejaVuSans-6c" x="1929.548828"/>
     <use xlink:href="#DejaVuSans-69" x="1957.332031"/>
     <use xlink:href="#DejaVuSans-66" x="1985.115234"/>
     <use xlink:href="#DejaVuSans-6c" x="2020.320312"/>
     <use xlink:href="#DejaVuSans-6f" x="2048.103516"/>
     <use xlink:href="#DejaVuSans-7a" x="2109.285156"/>
     <use xlink:href="#DejaVuSans-69" x="2161.775391"/>
     <use xlink:href="#DejaVuSans-6e" x="2189.558594"/>
    </g>
   </g>
   <g id="legend_2">
    <g id="patch_13">
     <path d="M 504.95 80.834375 
L 641 80.834375 
Q 643 80.834375 643 78.834375 
L 643 50.2 
Q 643 48.2 641 48.2 
L 504.95 48.2 
Q 502.95 48.2 502.95 50.2 
L 502.95 78.834375 
Q 502.95 80.834375 504.95 80.834375 
z
" style="fill: #ffffff; opacity: 0.8; stroke: #cccccc; stroke-linejoin: miter"/>
    </g>
    <g id="line2d_67">
     <path d="M 506.95 56.298437 
L 516.95 56.298437 
L 526.95 56.298437 
" style="fill: none; stroke: #0000ff; stroke-width: 1.5; stroke-linecap: square"/>
    </g>
    <g id="text_31">
     <!-- observable -->
     <g transform="translate(534.95 59.798437) scale(0.1 -0.1)">
      <use xlink:href="#DejaVuSans-6f"/>
      <use xlink:href="#DejaVuSans-62" x="61.181641"/>
      <use xlink:href="#DejaVuSans-73" x="124.658203"/>
      <use xlink:href="#DejaVuSans-65" x="176.757812"/>
      <use xlink:href="#DejaVuSans-72" x="238.28125"/>
      <use xlink:href="#DejaVuSans-76" x="279.394531"/>
      <use xlink:href="#DejaVuSans-61" x="338.574219"/>
      <use xlink:href="#DejaVuSans-62" x="399.853516"/>
      <use xlink:href="#DejaVuSans-6c" x="463.330078"/>
      <use xlink:href="#DejaVuSans-65" x="491.113281"/>
     </g>
    </g>
    <g id="LineCollection_4">
     <path d="M 516.95 75.976562 
L 516.95 65.976562 
" style="fill: none; stroke: #000000; stroke-width: 1.5"/>
    </g>
    <g id="line2d_68">
     <path d="M 506.95 70.976562 
L 526.95 70.976562 
" style="fill: none; stroke: #000000; stroke-width: 1.5; stroke-linecap: square"/>
    </g>
    <g id="line2d_69">
     <g>
      <use xlink:href="#mfd1cf2d2de" x="516.95" y="70.976562" style="stroke: #000000; stroke-linejoin: miter"/>
     </g>
    </g>
    <g id="text_32">
     <!-- reference_data ± SD -->
     <g transform="translate(534.95 74.476562) scale(0.1 -0.1)">
      <use xlink:href="#DejaVuSans-72"/>
      <use xlink:href="#DejaVuSans-65" x="38.863281"/>
      <use xlink:href="#DejaVuSans-66" x="100.386719"/>
      <use xlink:href="#DejaVuSans-65" x="135.591797"/>
      <use xlink:href="#DejaVuSans-72" x="197.115234"/>
      <use xlink:href="#DejaVuSans-65" x="235.978516"/>
      <use xlink:href="#DejaVuSans-6e" x="297.501953"/>
      <use xlink:href="#DejaVuSans-63" x="360.880859"/>
      <use xlink:href="#DejaVuSans-65" x="415.861328"/>
      <use xlink:href="#DejaVuSans-5f" x="477.384766"/>
      <use xlink:href="#DejaVuSans-64" x="527.384766"/>
      <use xlink:href="#DejaVuSans-61" x="590.861328"/>
      <use xlink:href="#DejaVuSans-74" x="652.140625"/>
      <use xlink:href="#DejaVuSans-61" x="691.349609"/>
      <use xlink:href="#DejaVuSans-20" x="752.628906"/>
      <use xlink:href="#DejaVuSans-b1" x="784.416016"/>
      <use xlink:href="#DejaVuSans-20" x="868.205078"/>
      <use xlink:href="#DejaVuSans-53" x="899.992188"/>
      <use xlink:href="#DejaVuSans-44" x="963.46875"/>
     </g>
    </g>
   </g>
  </g>
 </g>
 <defs>
  <clipPath id="pe5e8fcf363">
   <rect x="90" y="43.2" width="253.636364" height="277.2"/>
  </clipPath>
  <clipPath id="p56196b0ddc">
   <rect x="394.363636" y="43.2" width="253.636364" height="277.2"/>
  </clipPath>
 </defs>
</svg>
