<?xml version="1.0" encoding="utf-8" standalone="no"?>
<!DOCTYPE svg PUBLIC "-//W3C//DTD SVG 1.1//EN"
  "http://www.w3.org/Graphics/SVG/1.1/DTD/svg11.dtd">
<svg xmlns:xlink="http://www.w3.org/1999/xlink" width="720pt" height="360pt" viewBox="0 0 720 360" xmlns="http://www.w3.org/2000/svg" version="1.1">
 <metadata>
  <rdf:RDF xmlns:dc="http://purl.org/dc/elements/1.1/" xmlns:cc="http://creativecommons.org/ns#" xmlns:rdf="http://www.w3.org/1999/02/22-rdf-syntax-ns#">
   <cc:Work>
    <dc:type rdf:resource="http://purl.org/dc/dcmitype/StillImage"/>
    <dc:date>2025-05-22T23:22:37.257817</dc:date>
    <dc:format>image/svg+xml</dc:format>
    <dc:creator>
     <cc:Agent>
      <dc:title>Matplotlib v3.9.0, https://matplotlib.org/</dc:title>
     </cc:Agent>
    </dc:creator>
   </cc:Work>
  </rdf:RDF>
 </metadata>
 <defs>
  <style type="text/css">*{stroke-linejoin: round; stroke-linecap: butt}</style>
 </defs>
 <g id="figure_1">
  <g id="patch_1">
   <path d="M 0 360 
L 720 360 
L 720 0 
L 0 0 
z
" style="fill: #ffffff"/>
  </g>
  <g id="axes_1">
   <g id="patch_2">
    <path d="M 90 320.4 
L 343.636364 320.4 
L 343.636364 43.2 
L 90 43.2 
z
" style="fill: #ffffff"/>
   </g>
   <g id="matplotlib.axis_1">
    <g id="xtick_1">
     <g id="line2d_1">
      <defs>
       <path id="m3753853b58" d="M 0 0 
L 0 3.5 
" style="stroke: #000000; stroke-width: 0.8"/>
      </defs>
      <g>
       <use xlink:href="#m3753853b58" x="111.006411" y="320.4" style="stroke: #000000; stroke-width: 0.8"/>
      </g>
     </g>
     <g id="text_1">
      <!-- 0 -->
      <g transform="translate(107.825161 334.998438) scale(0.1 -0.1)">
       <defs>
        <path id="DejaVuSans-30" d="M 2034 4250 
Q 1547 4250 1301 3770 
Q 1056 3291 1056 2328 
Q 1056 1369 1301 889 
Q 1547 409 2034 409 
Q 2525 409 2770 889 
Q 3016 1369 3016 2328 
Q 3016 3291 2770 3770 
Q 2525 4250 2034 4250 
z
M 2034 4750 
Q 2819 4750 3233 4129 
Q 3647 3509 3647 2328 
Q 3647 1150 3233 529 
Q 2819 -91 2034 -91 
Q 1250 -91 836 529 
Q 422 1150 422 2328 
Q 422 3509 836 4129 
Q 1250 4750 2034 4750 
z
" transform="scale(0.015625)"/>
       </defs>
       <use xlink:href="#DejaVuSans-30"/>
      </g>
     </g>
    </g>
    <g id="xtick_2">
     <g id="line2d_2">
      <g>
       <use xlink:href="#m3753853b58" x="163.460178" y="320.4" style="stroke: #000000; stroke-width: 0.8"/>
      </g>
     </g>
     <g id="text_2">
      <!-- 5000 -->
      <g transform="translate(150.735178 334.998438) scale(0.1 -0.1)">
       <defs>
        <path id="DejaVuSans-35" d="M 691 4666 
L 3169 4666 
L 3169 4134 
L 1269 4134 
L 1269 2991 
Q 1406 3038 1543 3061 
Q 1681 3084 1819 3084 
Q 2600 3084 3056 2656 
Q 3513 2228 3513 1497 
Q 3513 744 3044 326 
Q 2575 -91 1722 -91 
Q 1428 -91 1123 -41 
Q 819 9 494 109 
L 494 744 
Q 775 591 1075 516 
Q 1375 441 1709 441 
Q 2250 441 2565 725 
Q 2881 1009 2881 1497 
Q 2881 1984 2565 2268 
Q 2250 2553 1709 2553 
Q 1456 2553 1204 2497 
Q 953 2441 691 2322 
L 691 4666 
z
" transform="scale(0.015625)"/>
       </defs>
       <use xlink:href="#DejaVuSans-35"/>
       <use xlink:href="#DejaVuSans-30" x="63.623047"/>
       <use xlink:href="#DejaVuSans-30" x="127.246094"/>
       <use xlink:href="#DejaVuSans-30" x="190.869141"/>
      </g>
     </g>
    </g>
    <g id="xtick_3">
     <g id="line2d_3">
      <g>
       <use xlink:href="#m3753853b58" x="215.913945" y="320.4" style="stroke: #000000; stroke-width: 0.8"/>
      </g>
     </g>
     <g id="text_3">
      <!-- 10000 -->
      <g transform="translate(200.007695 334.998438) scale(0.1 -0.1)">
       <defs>
        <path id="DejaVuSans-31" d="M 794 531 
L 1825 531 
L 1825 4091 
L 703 3866 
L 703 4441 
L 1819 4666 
L 2450 4666 
L 2450 531 
L 3481 531 
L 3481 0 
L 794 0 
L 794 531 
z
" transform="scale(0.015625)"/>
       </defs>
       <use xlink:href="#DejaVuSans-31"/>
       <use xlink:href="#DejaVuSans-30" x="63.623047"/>
       <use xlink:href="#DejaVuSans-30" x="127.246094"/>
       <use xlink:href="#DejaVuSans-30" x="190.869141"/>
       <use xlink:href="#DejaVuSans-30" x="254.492188"/>
      </g>
     </g>
    </g>
    <g id="xtick_4">
     <g id="line2d_4">
      <g>
       <use xlink:href="#m3753853b58" x="268.367712" y="320.4" style="stroke: #000000; stroke-width: 0.8"/>
      </g>
     </g>
     <g id="text_4">
      <!-- 15000 -->
      <g transform="translate(252.461462 334.998438) scale(0.1 -0.1)">
       <use xlink:href="#DejaVuSans-31"/>
       <use xlink:href="#DejaVuSans-35" x="63.623047"/>
       <use xlink:href="#DejaVuSans-30" x="127.246094"/>
       <use xlink:href="#DejaVuSans-30" x="190.869141"/>
       <use xlink:href="#DejaVuSans-30" x="254.492188"/>
      </g>
     </g>
    </g>
    <g id="xtick_5">
     <g id="line2d_5">
      <g>
       <use xlink:href="#m3753853b58" x="320.821479" y="320.4" style="stroke: #000000; stroke-width: 0.8"/>
      </g>
     </g>
     <g id="text_5">
      <!-- 20000 -->
      <g transform="translate(304.915229 334.998438) scale(0.1 -0.1)">
       <defs>
        <path id="DejaVuSans-32" d="M 1228 531 
L 3431 531 
L 3431 0 
L 469 0 
L 469 531 
Q 828 903 1448 1529 
Q 2069 2156 2228 2338 
Q 2531 2678 2651 2914 
Q 2772 3150 2772 3378 
Q 2772 3750 2511 3984 
Q 2250 4219 1831 4219 
Q 1534 4219 1204 4116 
Q 875 4013 500 3803 
L 500 4441 
Q 881 4594 1212 4672 
Q 1544 4750 1819 4750 
Q 2544 4750 2975 4387 
Q 3406 4025 3406 3419 
Q 3406 3131 3298 2873 
Q 3191 2616 2906 2266 
Q 2828 2175 2409 1742 
Q 1991 1309 1228 531 
z
" transform="scale(0.015625)"/>
       </defs>
       <use xlink:href="#DejaVuSans-32"/>
       <use xlink:href="#DejaVuSans-30" x="63.623047"/>
       <use xlink:href="#DejaVuSans-30" x="127.246094"/>
       <use xlink:href="#DejaVuSans-30" x="190.869141"/>
       <use xlink:href="#DejaVuSans-30" x="254.492188"/>
      </g>
     </g>
    </g>
    <g id="text_6">
     <!-- time -->
     <g transform="translate(203.262869 350.19625) scale(0.12 -0.12)">
      <defs>
       <path id="DejaVuSans-74" d="M 1172 4494 
L 1172 3500 
L 2356 3500 
L 2356 3053 
L 1172 3053 
L 1172 1153 
Q 1172 725 1289 603 
Q 1406 481 1766 481 
L 2356 481 
L 2356 0 
L 1766 0 
Q 1100 0 847 248 
Q 594 497 594 1153 
L 594 3053 
L 172 3053 
L 172 3500 
L 594 3500 
L 594 4494 
L 1172 4494 
z
" transform="scale(0.015625)"/>
       <path id="DejaVuSans-69" d="M 603 3500 
L 1178 3500 
L 1178 0 
L 603 0 
L 603 3500 
z
M 603 4863 
L 1178 4863 
L 1178 4134 
L 603 4134 
L 603 4863 
z
" transform="scale(0.015625)"/>
       <path id="DejaVuSans-6d" d="M 3328 2828 
Q 3544 3216 3844 3400 
Q 4144 3584 4550 3584 
Q 5097 3584 5394 3201 
Q 5691 2819 5691 2113 
L 5691 0 
L 5113 0 
L 5113 2094 
Q 5113 2597 4934 2840 
Q 4756 3084 4391 3084 
Q 3944 3084 3684 2787 
Q 3425 2491 3425 1978 
L 3425 0 
L 2847 0 
L 2847 2094 
Q 2847 2600 2669 2842 
Q 2491 3084 2119 3084 
Q 1678 3084 1418 2786 
Q 1159 2488 1159 1978 
L 1159 0 
L 581 0 
L 581 3500 
L 1159 3500 
L 1159 2956 
Q 1356 3278 1631 3431 
Q 1906 3584 2284 3584 
Q 2666 3584 2933 3390 
Q 3200 3197 3328 2828 
z
" transform="scale(0.015625)"/>
       <path id="DejaVuSans-65" d="M 3597 1894 
L 3597 1613 
L 953 1613 
Q 991 1019 1311 708 
Q 1631 397 2203 397 
Q 2534 397 2845 478 
Q 3156 559 3463 722 
L 3463 178 
Q 3153 47 2828 -22 
Q 2503 -91 2169 -91 
Q 1331 -91 842 396 
Q 353 884 353 1716 
Q 353 2575 817 3079 
Q 1281 3584 2069 3584 
Q 2775 3584 3186 3129 
Q 3597 2675 3597 1894 
z
M 3022 2063 
Q 3016 2534 2758 2815 
Q 2500 3097 2075 3097 
Q 1594 3097 1305 2825 
Q 1016 2553 972 2059 
L 3022 2063 
z
" transform="scale(0.015625)"/>
      </defs>
      <use xlink:href="#DejaVuSans-74"/>
      <use xlink:href="#DejaVuSans-69" x="39.208984"/>
      <use xlink:href="#DejaVuSans-6d" x="66.992188"/>
      <use xlink:href="#DejaVuSans-65" x="164.404297"/>
     </g>
    </g>
   </g>
   <g id="matplotlib.axis_2">
    <g id="ytick_1">
     <g id="line2d_6">
      <defs>
       <path id="m293eafc655" d="M 0 0 
L -3.5 0 
" style="stroke: #000000; stroke-width: 0.8"/>
      </defs>
      <g>
       <use xlink:href="#m293eafc655" x="90" y="307.8" style="stroke: #000000; stroke-width: 0.8"/>
      </g>
     </g>
     <g id="text_7">
      <!-- 0.00000 -->
      <g transform="translate(41.646875 311.599219) scale(0.1 -0.1)">
       <defs>
        <path id="DejaVuSans-2e" d="M 684 794 
L 1344 794 
L 1344 0 
L 684 0 
L 684 794 
z
" transform="scale(0.015625)"/>
       </defs>
       <use xlink:href="#DejaVuSans-30"/>
       <use xlink:href="#DejaVuSans-2e" x="63.623047"/>
       <use xlink:href="#DejaVuSans-30" x="95.410156"/>
       <use xlink:href="#DejaVuSans-30" x="159.033203"/>
       <use xlink:href="#DejaVuSans-30" x="222.65625"/>
       <use xlink:href="#DejaVuSans-30" x="286.279297"/>
       <use xlink:href="#DejaVuSans-30" x="349.902344"/>
      </g>
     </g>
    </g>
    <g id="ytick_2">
     <g id="line2d_7">
      <g>
       <use xlink:href="#m293eafc655" x="90" y="273.651329" style="stroke: #000000; stroke-width: 0.8"/>
      </g>
     </g>
     <g id="text_8">
      <!-- 0.00002 -->
      <g transform="translate(41.646875 277.450548) scale(0.1 -0.1)">
       <use xlink:href="#DejaVuSans-30"/>
       <use xlink:href="#DejaVuSans-2e" x="63.623047"/>
       <use xlink:href="#DejaVuSans-30" x="95.410156"/>
       <use xlink:href="#DejaVuSans-30" x="159.033203"/>
       <use xlink:href="#DejaVuSans-30" x="222.65625"/>
       <use xlink:href="#DejaVuSans-30" x="286.279297"/>
       <use xlink:href="#DejaVuSans-32" x="349.902344"/>
      </g>
     </g>
    </g>
    <g id="ytick_3">
     <g id="line2d_8">
      <g>
       <use xlink:href="#m293eafc655" x="90" y="239.502658" style="stroke: #000000; stroke-width: 0.8"/>
      </g>
     </g>
     <g id="text_9">
      <!-- 0.00004 -->
      <g transform="translate(41.646875 243.301877) scale(0.1 -0.1)">
       <defs>
        <path id="DejaVuSans-34" d="M 2419 4116 
L 825 1625 
L 2419 1625 
L 2419 4116 
z
M 2253 4666 
L 3047 4666 
L 3047 1625 
L 3713 1625 
L 3713 1100 
L 3047 1100 
L 3047 0 
L 2419 0 
L 2419 1100 
L 313 1100 
L 313 1709 
L 2253 4666 
z
" transform="scale(0.015625)"/>
       </defs>
       <use xlink:href="#DejaVuSans-30"/>
       <use xlink:href="#DejaVuSans-2e" x="63.623047"/>
       <use xlink:href="#DejaVuSans-30" x="95.410156"/>
       <use xlink:href="#DejaVuSans-30" x="159.033203"/>
       <use xlink:href="#DejaVuSans-30" x="222.65625"/>
       <use xlink:href="#DejaVuSans-30" x="286.279297"/>
       <use xlink:href="#DejaVuSans-34" x="349.902344"/>
      </g>
     </g>
    </g>
    <g id="ytick_4">
     <g id="line2d_9">
      <g>
       <use xlink:href="#m293eafc655" x="90" y="205.353987" style="stroke: #000000; stroke-width: 0.8"/>
      </g>
     </g>
     <g id="text_10">
      <!-- 0.00006 -->
      <g transform="translate(41.646875 209.153205) scale(0.1 -0.1)">
       <defs>
        <path id="DejaVuSans-36" d="M 2113 2584 
Q 1688 2584 1439 2293 
Q 1191 2003 1191 1497 
Q 1191 994 1439 701 
Q 1688 409 2113 409 
Q 2538 409 2786 701 
Q 3034 994 3034 1497 
Q 3034 2003 2786 2293 
Q 2538 2584 2113 2584 
z
M 3366 4563 
L 3366 3988 
Q 3128 4100 2886 4159 
Q 2644 4219 2406 4219 
Q 1781 4219 1451 3797 
Q 1122 3375 1075 2522 
Q 1259 2794 1537 2939 
Q 1816 3084 2150 3084 
Q 2853 3084 3261 2657 
Q 3669 2231 3669 1497 
Q 3669 778 3244 343 
Q 2819 -91 2113 -91 
Q 1303 -91 875 529 
Q 447 1150 447 2328 
Q 447 3434 972 4092 
Q 1497 4750 2381 4750 
Q 2619 4750 2861 4703 
Q 3103 4656 3366 4563 
z
" transform="scale(0.015625)"/>
       </defs>
       <use xlink:href="#DejaVuSans-30"/>
       <use xlink:href="#DejaVuSans-2e" x="63.623047"/>
       <use xlink:href="#DejaVuSans-30" x="95.410156"/>
       <use xlink:href="#DejaVuSans-30" x="159.033203"/>
       <use xlink:href="#DejaVuSans-30" x="222.65625"/>
       <use xlink:href="#DejaVuSans-30" x="286.279297"/>
       <use xlink:href="#DejaVuSans-36" x="349.902344"/>
      </g>
     </g>
    </g>
    <g id="ytick_5">
     <g id="line2d_10">
      <g>
       <use xlink:href="#m293eafc655" x="90" y="171.205316" style="stroke: #000000; stroke-width: 0.8"/>
      </g>
     </g>
     <g id="text_11">
      <!-- 0.00008 -->
      <g transform="translate(41.646875 175.004534) scale(0.1 -0.1)">
       <defs>
        <path id="DejaVuSans-38" d="M 2034 2216 
Q 1584 2216 1326 1975 
Q 1069 1734 1069 1313 
Q 1069 891 1326 650 
Q 1584 409 2034 409 
Q 2484 409 2743 651 
Q 3003 894 3003 1313 
Q 3003 1734 2745 1975 
Q 2488 2216 2034 2216 
z
M 1403 2484 
Q 997 2584 770 2862 
Q 544 3141 544 3541 
Q 544 4100 942 4425 
Q 1341 4750 2034 4750 
Q 2731 4750 3128 4425 
Q 3525 4100 3525 3541 
Q 3525 3141 3298 2862 
Q 3072 2584 2669 2484 
Q 3125 2378 3379 2068 
Q 3634 1759 3634 1313 
Q 3634 634 3220 271 
Q 2806 -91 2034 -91 
Q 1263 -91 848 271 
Q 434 634 434 1313 
Q 434 1759 690 2068 
Q 947 2378 1403 2484 
z
M 1172 3481 
Q 1172 3119 1398 2916 
Q 1625 2713 2034 2713 
Q 2441 2713 2670 2916 
Q 2900 3119 2900 3481 
Q 2900 3844 2670 4047 
Q 2441 4250 2034 4250 
Q 1625 4250 1398 4047 
Q 1172 3844 1172 3481 
z
" transform="scale(0.015625)"/>
       </defs>
       <use xlink:href="#DejaVuSans-30"/>
       <use xlink:href="#DejaVuSans-2e" x="63.623047"/>
       <use xlink:href="#DejaVuSans-30" x="95.410156"/>
       <use xlink:href="#DejaVuSans-30" x="159.033203"/>
       <use xlink:href="#DejaVuSans-30" x="222.65625"/>
       <use xlink:href="#DejaVuSans-30" x="286.279297"/>
       <use xlink:href="#DejaVuSans-38" x="349.902344"/>
      </g>
     </g>
    </g>
    <g id="ytick_6">
     <g id="line2d_11">
      <g>
       <use xlink:href="#m293eafc655" x="90" y="137.056644" style="stroke: #000000; stroke-width: 0.8"/>
      </g>
     </g>
     <g id="text_12">
      <!-- 0.00010 -->
      <g transform="translate(41.646875 140.855863) scale(0.1 -0.1)">
       <use xlink:href="#DejaVuSans-30"/>
       <use xlink:href="#DejaVuSans-2e" x="63.623047"/>
       <use xlink:href="#DejaVuSans-30" x="95.410156"/>
       <use xlink:href="#DejaVuSans-30" x="159.033203"/>
       <use xlink:href="#DejaVuSans-30" x="222.65625"/>
       <use xlink:href="#DejaVuSans-31" x="286.279297"/>
       <use xlink:href="#DejaVuSans-30" x="349.902344"/>
      </g>
     </g>
    </g>
    <g id="ytick_7">
     <g id="line2d_12">
      <g>
       <use xlink:href="#m293eafc655" x="90" y="102.907973" style="stroke: #000000; stroke-width: 0.8"/>
      </g>
     </g>
     <g id="text_13">
      <!-- 0.00012 -->
      <g transform="translate(41.646875 106.707192) scale(0.1 -0.1)">
       <use xlink:href="#DejaVuSans-30"/>
       <use xlink:href="#DejaVuSans-2e" x="63.623047"/>
       <use xlink:href="#DejaVuSans-30" x="95.410156"/>
       <use xlink:href="#DejaVuSans-30" x="159.033203"/>
       <use xlink:href="#DejaVuSans-30" x="222.65625"/>
       <use xlink:href="#DejaVuSans-31" x="286.279297"/>
       <use xlink:href="#DejaVuSans-32" x="349.902344"/>
      </g>
     </g>
    </g>
    <g id="ytick_8">
     <g id="line2d_13">
      <g>
       <use xlink:href="#m293eafc655" x="90" y="68.759302" style="stroke: #000000; stroke-width: 0.8"/>
      </g>
     </g>
     <g id="text_14">
      <!-- 0.00014 -->
      <g transform="translate(41.646875 72.558521) scale(0.1 -0.1)">
       <use xlink:href="#DejaVuSans-30"/>
       <use xlink:href="#DejaVuSans-2e" x="63.623047"/>
       <use xlink:href="#DejaVuSans-30" x="95.410156"/>
       <use xlink:href="#DejaVuSans-30" x="159.033203"/>
       <use xlink:href="#DejaVuSans-30" x="222.65625"/>
       <use xlink:href="#DejaVuSans-31" x="286.279297"/>
       <use xlink:href="#DejaVuSans-34" x="349.902344"/>
      </g>
     </g>
    </g>
    <g id="text_15">
     <!-- [Cve_dap] -->
     <g transform="translate(34.8175 212.209687) rotate(-90) scale(0.12 -0.12)">
      <defs>
       <path id="DejaVuSans-5b" d="M 550 4863 
L 1875 4863 
L 1875 4416 
L 1125 4416 
L 1125 -397 
L 1875 -397 
L 1875 -844 
L 550 -844 
L 550 4863 
z
" transform="scale(0.015625)"/>
       <path id="DejaVuSans-43" d="M 4122 4306 
L 4122 3641 
Q 3803 3938 3442 4084 
Q 3081 4231 2675 4231 
Q 1875 4231 1450 3742 
Q 1025 3253 1025 2328 
Q 1025 1406 1450 917 
Q 1875 428 2675 428 
Q 3081 428 3442 575 
Q 3803 722 4122 1019 
L 4122 359 
Q 3791 134 3420 21 
Q 3050 -91 2638 -91 
Q 1578 -91 968 557 
Q 359 1206 359 2328 
Q 359 3453 968 4101 
Q 1578 4750 2638 4750 
Q 3056 4750 3426 4639 
Q 3797 4528 4122 4306 
z
" transform="scale(0.015625)"/>
       <path id="DejaVuSans-76" d="M 191 3500 
L 800 3500 
L 1894 563 
L 2988 3500 
L 3597 3500 
L 2284 0 
L 1503 0 
L 191 3500 
z
" transform="scale(0.015625)"/>
       <path id="DejaVuSans-5f" d="M 3263 -1063 
L 3263 -1509 
L -63 -1509 
L -63 -1063 
L 3263 -1063 
z
" transform="scale(0.015625)"/>
       <path id="DejaVuSans-64" d="M 2906 2969 
L 2906 4863 
L 3481 4863 
L 3481 0 
L 2906 0 
L 2906 525 
Q 2725 213 2448 61 
Q 2172 -91 1784 -91 
Q 1150 -91 751 415 
Q 353 922 353 1747 
Q 353 2572 751 3078 
Q 1150 3584 1784 3584 
Q 2172 3584 2448 3432 
Q 2725 3281 2906 2969 
z
M 947 1747 
Q 947 1113 1208 752 
Q 1469 391 1925 391 
Q 2381 391 2643 752 
Q 2906 1113 2906 1747 
Q 2906 2381 2643 2742 
Q 2381 3103 1925 3103 
Q 1469 3103 1208 2742 
Q 947 2381 947 1747 
z
" transform="scale(0.015625)"/>
       <path id="DejaVuSans-61" d="M 2194 1759 
Q 1497 1759 1228 1600 
Q 959 1441 959 1056 
Q 959 750 1161 570 
Q 1363 391 1709 391 
Q 2188 391 2477 730 
Q 2766 1069 2766 1631 
L 2766 1759 
L 2194 1759 
z
M 3341 1997 
L 3341 0 
L 2766 0 
L 2766 531 
Q 2569 213 2275 61 
Q 1981 -91 1556 -91 
Q 1019 -91 701 211 
Q 384 513 384 1019 
Q 384 1609 779 1909 
Q 1175 2209 1959 2209 
L 2766 2209 
L 2766 2266 
Q 2766 2663 2505 2880 
Q 2244 3097 1772 3097 
Q 1472 3097 1187 3025 
Q 903 2953 641 2809 
L 641 3341 
Q 956 3463 1253 3523 
Q 1550 3584 1831 3584 
Q 2591 3584 2966 3190 
Q 3341 2797 3341 1997 
z
" transform="scale(0.015625)"/>
       <path id="DejaVuSans-70" d="M 1159 525 
L 1159 -1331 
L 581 -1331 
L 581 3500 
L 1159 3500 
L 1159 2969 
Q 1341 3281 1617 3432 
Q 1894 3584 2278 3584 
Q 2916 3584 3314 3078 
Q 3713 2572 3713 1747 
Q 3713 922 3314 415 
Q 2916 -91 2278 -91 
Q 1894 -91 1617 61 
Q 1341 213 1159 525 
z
M 3116 1747 
Q 3116 2381 2855 2742 
Q 2594 3103 2138 3103 
Q 1681 3103 1420 2742 
Q 1159 2381 1159 1747 
Q 1159 1113 1420 752 
Q 1681 391 2138 391 
Q 2594 391 2855 752 
Q 3116 1113 3116 1747 
z
" transform="scale(0.015625)"/>
       <path id="DejaVuSans-5d" d="M 1947 4863 
L 1947 -844 
L 622 -844 
L 622 -397 
L 1369 -397 
L 1369 4416 
L 622 4416 
L 622 4863 
L 1947 4863 
z
" transform="scale(0.015625)"/>
      </defs>
      <use xlink:href="#DejaVuSans-5b"/>
      <use xlink:href="#DejaVuSans-43" x="39.013672"/>
      <use xlink:href="#DejaVuSans-76" x="108.837891"/>
      <use xlink:href="#DejaVuSans-65" x="168.017578"/>
      <use xlink:href="#DejaVuSans-5f" x="229.541016"/>
      <use xlink:href="#DejaVuSans-64" x="279.541016"/>
      <use xlink:href="#DejaVuSans-61" x="343.017578"/>
      <use xlink:href="#DejaVuSans-70" x="404.296875"/>
      <use xlink:href="#DejaVuSans-5d" x="467.773438"/>
     </g>
    </g>
   </g>
   <g id="LineCollection_1">
    <path d="M 111.136364 296.894985 
L 111.136364 232.986291 
" clip-path="url(#pecd1d40c17)" style="fill: none; stroke: #000000; stroke-width: 1.5"/>
    <path d="M 111.321133 208.674108 
L 111.321133 69.45448 
" clip-path="url(#pecd1d40c17)" style="fill: none; stroke: #000000; stroke-width: 1.5"/>
    <path d="M 111.635856 190.277347 
L 111.635856 106.136943 
" clip-path="url(#pecd1d40c17)" style="fill: none; stroke: #000000; stroke-width: 1.5"/>
    <path d="M 111.950578 238.063558 
L 111.950578 174.265314 
" clip-path="url(#pecd1d40c17)" style="fill: none; stroke: #000000; stroke-width: 1.5"/>
    <path d="M 112.265301 255.871947 
L 112.265301 206.72905 
" clip-path="url(#pecd1d40c17)" style="fill: none; stroke: #000000; stroke-width: 1.5"/>
    <path d="M 113.524191 282.186728 
L 113.524191 262.485285 
" clip-path="url(#pecd1d40c17)" style="fill: none; stroke: #000000; stroke-width: 1.5"/>
    <path d="M 114.783082 291.828525 
L 114.783082 279.101965 
" clip-path="url(#pecd1d40c17)" style="fill: none; stroke: #000000; stroke-width: 1.5"/>
    <path d="M 116.041972 295.93399 
L 116.041972 283.518724 
" clip-path="url(#pecd1d40c17)" style="fill: none; stroke: #000000; stroke-width: 1.5"/>
    <path d="M 117.300863 298.869292 
L 117.300863 290.417581 
" clip-path="url(#pecd1d40c17)" style="fill: none; stroke: #000000; stroke-width: 1.5"/>
    <path d="M 118.559753 300.771133 
L 118.559753 293.416911 
" clip-path="url(#pecd1d40c17)" style="fill: none; stroke: #000000; stroke-width: 1.5"/>
    <path d="M 122.336424 302.192196 
L 122.336424 300.510615 
" clip-path="url(#pecd1d40c17)" style="fill: none; stroke: #000000; stroke-width: 1.5"/>
    <path d="M 126.113096 303.162881 
L 126.113096 299.467883 
" clip-path="url(#pecd1d40c17)" style="fill: none; stroke: #000000; stroke-width: 1.5"/>
    <path d="M 307.535082 295.33608 
L 307.535082 218.387026 
" clip-path="url(#pecd1d40c17)" style="fill: none; stroke: #000000; stroke-width: 1.5"/>
    <path d="M 307.708038 167.553056 
L 307.708038 55.8 
" clip-path="url(#pecd1d40c17)" style="fill: none; stroke: #000000; stroke-width: 1.5"/>
    <path d="M 308.02276 182.128821 
L 308.02276 101.592828 
" clip-path="url(#pecd1d40c17)" style="fill: none; stroke: #000000; stroke-width: 1.5"/>
    <path d="M 308.337483 224.361154 
L 308.337483 160.180926 
" clip-path="url(#pecd1d40c17)" style="fill: none; stroke: #000000; stroke-width: 1.5"/>
    <path d="M 308.652205 248.068008 
L 308.652205 202.122827 
" clip-path="url(#pecd1d40c17)" style="fill: none; stroke: #000000; stroke-width: 1.5"/>
    <path d="M 309.911096 274.430677 
L 309.911096 250.539893 
" clip-path="url(#pecd1d40c17)" style="fill: none; stroke: #000000; stroke-width: 1.5"/>
    <path d="M 311.169986 283.639459 
L 311.169986 268.156249 
" clip-path="url(#pecd1d40c17)" style="fill: none; stroke: #000000; stroke-width: 1.5"/>
    <path d="M 312.428877 287.302973 
L 312.428877 271.536889 
" clip-path="url(#pecd1d40c17)" style="fill: none; stroke: #000000; stroke-width: 1.5"/>
    <path d="M 313.687767 299.746519 
L 313.687767 276.774191 
" clip-path="url(#pecd1d40c17)" style="fill: none; stroke: #000000; stroke-width: 1.5"/>
    <path d="M 314.946658 299.896821 
L 314.946658 287.255723 
" clip-path="url(#pecd1d40c17)" style="fill: none; stroke: #000000; stroke-width: 1.5"/>
    <path d="M 318.723329 300.851802 
L 318.723329 297.89726 
" clip-path="url(#pecd1d40c17)" style="fill: none; stroke: #000000; stroke-width: 1.5"/>
    <path d="M 322.5 301.527472 
L 322.5 298.485866 
" clip-path="url(#pecd1d40c17)" style="fill: none; stroke: #000000; stroke-width: 1.5"/>
   </g>
   <g id="line2d_14">
    <path d="M 111.006411 307.8 
L 111.014255 307.697395 
L 111.046773 302.239767 
L 111.552284 172.150839 
L 111.580683 172.229972 
L 111.694278 175.699993 
L 111.992719 195.636387 
L 112.752912 246.266581 
L 113.338501 271.001971 
L 113.85735 284.673305 
L 114.376198 293.140092 
L 114.895047 298.25741 
L 115.413895 301.296129 
L 115.932744 303.077107 
L 116.451593 304.111023 
L 116.970441 304.707435 
L 117.593059 305.0991 
L 118.423217 305.344399 
L 119.875993 305.488775 
L 124.276409 305.582483 
L 126.120831 305.513001 
L 126.153046 300.170105 
L 126.657262 169.978659 
L 126.699522 170.198977 
L 126.834123 175.212416 
L 127.271573 206.441044 
L 127.898415 246.118411 
L 128.480787 269.998907 
L 128.979964 282.851673 
L 129.479141 290.951964 
L 129.978317 295.945006 
L 130.477494 298.973595 
L 130.97667 300.789257 
L 131.475847 301.869022 
L 132.058219 302.585845 
L 132.723788 303.013591 
L 133.555749 303.264441 
L 134.970083 303.422594 
L 139.213083 303.570761 
L 141.227507 303.52967 
L 141.258663 298.488157 
L 141.775443 167.976114 
L 141.820501 168.477858 
L 141.948754 173.675715 
L 142.442134 209.159274 
L 143.047307 246.284409 
L 143.615833 268.93883 
L 144.18436 282.806157 
L 144.671668 290.054532 
L 145.158976 294.562393 
L 145.646284 297.326284 
L 146.133592 299.003927 
L 146.6209 300.015799 
L 147.189427 300.699403 
L 147.839171 301.117477 
L 148.732569 301.388709 
L 150.194494 301.558642 
L 154.90514 301.772532 
L 156.332525 301.780504 
L 156.334039 301.736948 
L 156.364635 296.887748 
L 156.579256 205.757788 
L 156.793922 168.414355 
L 156.880266 166.183873 
L 156.923438 166.611661 
L 157.060991 172.19874 
L 157.576817 209.393711 
L 158.175438 245.562697 
L 158.723852 267.209976 
L 159.272266 280.69005 
L 159.820679 288.779996 
L 160.369093 293.516844 
L 160.917506 296.244066 
L 161.46592 297.797481 
L 162.014334 298.678066 
L 162.641092 299.229772 
L 163.346196 299.549944 
L 164.443023 299.775316 
L 166.715022 299.956151 
L 171.438318 300.170908 
L 171.440281 300.123397 
L 171.469045 295.866742 
L 171.63903 221.246232 
L 171.877472 168.295819 
L 171.997367 164.586418 
L 172.029878 164.985087 
L 172.159921 170.142859 
L 172.631581 204.016757 
L 173.27827 243.765723 
L 173.825973 265.464881 
L 174.373677 278.992775 
L 174.92138 287.121331 
L 175.469083 291.887461 
L 176.016787 294.636339 
L 176.56449 296.205805 
L 177.112193 297.098579 
L 177.73814 297.661155 
L 178.44233 297.991212 
L 179.537737 298.229458 
L 181.806794 298.433677 
L 186.544396 298.70457 
L 186.547121 298.64251 
L 186.577895 293.814518 
L 187.08886 163.097443 
L 187.131186 163.417332 
L 187.268426 168.774918 
L 187.748768 203.319415 
L 188.381423 242.133984 
L 188.930473 263.943285 
L 189.479523 277.52873 
L 190.028574 285.684162 
L 190.577624 290.461851 
L 191.126674 293.215729 
L 191.675724 294.788015 
L 192.224775 295.683349 
L 192.852261 296.24938 
L 193.636618 296.609773 
L 194.813155 296.853507 
L 197.401534 297.090501 
L 201.650856 297.372354 
L 201.65427 297.291627 
L 201.686471 291.950853 
L 202.191251 161.782943 
L 202.234785 162.036518 
L 202.362132 166.737078 
L 202.784455 196.751328 
L 203.459057 239.372094 
L 204.030013 262.404211 
L 204.600968 276.498185 
L 205.090358 283.861143 
L 205.579749 288.439621 
L 206.069139 291.248861 
L 206.558529 292.958093 
L 207.04792 293.994439 
L 207.618875 294.702361 
L 208.271396 295.146004 
L 209.168611 295.451392 
L 210.636782 295.67718 
L 215.28599 296.063775 
L 216.75733 296.160263 
L 216.761149 296.069978 
L 216.791839 291.10701 
L 217.307606 160.549597 
L 217.354832 161.073054 
L 217.47435 165.826198 
L 217.908104 196.809434 
L 218.598004 239.771757 
L 219.185029 262.699243 
L 219.688193 274.937201 
L 220.191357 282.606146 
L 220.694522 287.314263 
L 221.197686 290.164745 
L 221.70085 291.876124 
L 222.204014 292.900791 
L 222.791039 293.592769 
L 223.461925 294.022875 
L 224.384393 294.319925 
L 225.977747 294.557824 
L 231.680275 295.059879 
L 231.864185 295.063329 
L 231.867895 294.972851 
L 231.901298 289.219654 
L 232.413928 159.458581 
L 232.434812 159.563798 
L 232.535092 162.454589 
L 232.835932 182.220811 
L 233.589214 232.778679 
L 234.161947 257.471745 
L 234.734681 272.676548 
L 235.225595 280.645051 
L 235.71651 285.608624 
L 236.207424 288.65765 
L 236.698339 290.514537 
L 237.189253 291.64167 
L 237.761987 292.413079 
L 238.41654 292.898466 
L 239.23473 293.214138 
L 240.625655 293.470673 
L 244.471151 293.857237 
L 246.970703 294.070863 
L 246.974403 293.98488 
L 247.007299 288.425306 
L 247.514367 158.477819 
L 247.53518 158.51921 
L 247.634193 161.134945 
L 247.898227 177.897548 
L 248.758294 235.05286 
L 249.323995 258.319837 
L 249.889697 272.658577 
L 250.455398 281.149906 
L 250.940285 285.508305 
L 251.425172 288.196067 
L 251.910059 289.842086 
L 252.475761 290.973486 
L 253.041462 291.616063 
L 253.687978 292.028837 
L 254.576937 292.326967 
L 256.193227 292.590582 
L 261.850241 293.160031 
L 262.077135 293.170596 
L 262.08077 293.092928 
L 262.108113 289.116294 
L 262.281423 213.320854 
L 262.514767 161.511333 
L 262.625294 157.568735 
L 262.65315 157.727992 
L 262.764576 161.312357 
L 263.099483 184.139375 
L 263.857436 233.774327 
L 264.427699 257.334221 
L 265.001055 271.862946 
L 265.574411 280.405665 
L 266.052208 284.664913 
L 266.530005 287.310869 
L 267.007802 288.943983 
L 267.581158 290.100336 
L 268.154514 290.753477 
L 268.82343 291.177979 
L 269.779023 291.490133 
L 271.499092 291.765005 
L 277.18348 292.358893 
L 277.184549 292.346706 
L 277.205214 290.384377 
L 277.298393 253.44913 
L 277.584469 164.2085 
L 277.720244 156.805047 
L 277.751368 156.82913 
L 277.844738 159.305352 
L 278.093727 174.86227 
L 278.958569 232.683315 
L 279.563751 257.46915 
L 280.093285 270.782362 
L 280.622819 278.938984 
L 281.152354 283.82506 
L 281.681888 286.709975 
L 282.211422 288.400644 
L 282.740956 289.391557 
L 283.346138 290.040109 
L 284.026968 290.441762 
L 285.010389 290.743315 
L 286.901583 291.035433 
L 292.290314 291.620251 
L 292.292606 291.583976 
L 292.318587 288.265133 
L 292.448563 231.811015 
L 292.699919 162.518824 
L 292.851643 156.050407 
L 292.873318 156.27427 
L 293.009836 161.415038 
L 293.453521 193.188264 
L 294.136676 235.537782 
L 294.73054 258.589279 
L 295.239566 270.819905 
L 295.748592 278.441775 
L 296.257619 283.096585 
L 296.766645 285.902419 
L 297.275671 287.58225 
L 297.784697 288.587977 
L 298.378561 289.270681 
L 299.057263 289.702138 
L 299.990478 290.013447 
L 301.687232 290.301906 
L 307.396533 290.956309 
L 307.397759 290.943875 
L 307.417233 289.216387 
L 307.503938 255.863697 
L 307.803213 162.212583 
L 307.937206 155.382195 
L 307.981871 155.637927 
L 308.110543 160.425747 
L 308.535903 190.71853 
L 309.218057 233.630316 
L 309.801291 256.839773 
L 310.301206 269.296685 
L 310.80112 277.142821 
L 311.301035 281.986132 
L 311.80095 284.9366 
L 312.300865 286.721116 
L 312.80078 287.799626 
L 313.384014 288.537927 
L 314.050567 289.007331 
L 314.967077 289.34547 
L 316.550141 289.639875 
L 321.799246 290.271145 
L 323.129445 290.422517 
L 323.129445 290.422517 
" clip-path="url(#pecd1d40c17)" style="fill: none; stroke: #0000ff; stroke-width: 1.5; stroke-linecap: square"/>
   </g>
   <g id="line2d_15">
    <path d="M 111.136364 264.940638 
L 111.321133 139.064294 
L 111.635856 148.207145 
L 111.950578 206.164436 
L 112.265301 231.300498 
L 113.524191 272.336007 
L 114.783082 285.465245 
L 116.041972 289.726357 
L 117.300863 294.643436 
L 118.559753 297.094022 
L 122.336424 301.351406 
L 126.113096 301.315382 
L 307.535082 256.861553 
L 307.708038 111.676528 
L 308.02276 141.860825 
L 308.337483 192.27104 
L 308.652205 225.095418 
L 309.911096 262.485285 
L 311.169986 275.897854 
L 312.428877 279.419931 
L 313.687767 288.260355 
L 314.946658 293.576272 
L 318.723329 299.374531 
L 322.5 300.006669 
" clip-path="url(#pecd1d40c17)" style="fill: none; stroke: #000000; stroke-width: 1.5; stroke-linecap: square"/>
    <defs>
     <path id="m5c65bdb5fb" d="M -5 5 
L 5 5 
L 5 -5 
L -5 -5 
z
" style="stroke: #000000; stroke-linejoin: miter"/>
    </defs>
    <g clip-path="url(#pecd1d40c17)">
     <use xlink:href="#m5c65bdb5fb" x="111.136364" y="264.940638" style="stroke: #000000; stroke-linejoin: miter"/>
     <use xlink:href="#m5c65bdb5fb" x="111.321133" y="139.064294" style="stroke: #000000; stroke-linejoin: miter"/>
     <use xlink:href="#m5c65bdb5fb" x="111.635856" y="148.207145" style="stroke: #000000; stroke-linejoin: miter"/>
     <use xlink:href="#m5c65bdb5fb" x="111.950578" y="206.164436" style="stroke: #000000; stroke-linejoin: miter"/>
     <use xlink:href="#m5c65bdb5fb" x="112.265301" y="231.300498" style="stroke: #000000; stroke-linejoin: miter"/>
     <use xlink:href="#m5c65bdb5fb" x="113.524191" y="272.336007" style="stroke: #000000; stroke-linejoin: miter"/>
     <use xlink:href="#m5c65bdb5fb" x="114.783082" y="285.465245" style="stroke: #000000; stroke-linejoin: miter"/>
     <use xlink:href="#m5c65bdb5fb" x="116.041972" y="289.726357" style="stroke: #000000; stroke-linejoin: miter"/>
     <use xlink:href="#m5c65bdb5fb" x="117.300863" y="294.643436" style="stroke: #000000; stroke-linejoin: miter"/>
     <use xlink:href="#m5c65bdb5fb" x="118.559753" y="297.094022" style="stroke: #000000; stroke-linejoin: miter"/>
     <use xlink:href="#m5c65bdb5fb" x="122.336424" y="301.351406" style="stroke: #000000; stroke-linejoin: miter"/>
     <use xlink:href="#m5c65bdb5fb" x="126.113096" y="301.315382" style="stroke: #000000; stroke-linejoin: miter"/>
     <use xlink:href="#m5c65bdb5fb" x="307.535082" y="256.861553" style="stroke: #000000; stroke-linejoin: miter"/>
     <use xlink:href="#m5c65bdb5fb" x="307.708038" y="111.676528" style="stroke: #000000; stroke-linejoin: miter"/>
     <use xlink:href="#m5c65bdb5fb" x="308.02276" y="141.860825" style="stroke: #000000; stroke-linejoin: miter"/>
     <use xlink:href="#m5c65bdb5fb" x="308.337483" y="192.27104" style="stroke: #000000; stroke-linejoin: miter"/>
     <use xlink:href="#m5c65bdb5fb" x="308.652205" y="225.095418" style="stroke: #000000; stroke-linejoin: miter"/>
     <use xlink:href="#m5c65bdb5fb" x="309.911096" y="262.485285" style="stroke: #000000; stroke-linejoin: miter"/>
     <use xlink:href="#m5c65bdb5fb" x="311.169986" y="275.897854" style="stroke: #000000; stroke-linejoin: miter"/>
     <use xlink:href="#m5c65bdb5fb" x="312.428877" y="279.419931" style="stroke: #000000; stroke-linejoin: miter"/>
     <use xlink:href="#m5c65bdb5fb" x="313.687767" y="288.260355" style="stroke: #000000; stroke-linejoin: miter"/>
     <use xlink:href="#m5c65bdb5fb" x="314.946658" y="293.576272" style="stroke: #000000; stroke-linejoin: miter"/>
     <use xlink:href="#m5c65bdb5fb" x="318.723329" y="299.374531" style="stroke: #000000; stroke-linejoin: miter"/>
     <use xlink:href="#m5c65bdb5fb" x="322.5" y="300.006669" style="stroke: #000000; stroke-linejoin: miter"/>
    </g>
   </g>
   <g id="patch_3">
    <path d="M 90 320.4 
L 90 43.2 
" style="fill: none; stroke: #000000; stroke-width: 0.8; stroke-linejoin: miter; stroke-linecap: square"/>
   </g>
   <g id="patch_4">
    <path d="M 343.636364 320.4 
L 343.636364 43.2 
" style="fill: none; stroke: #000000; stroke-width: 0.8; stroke-linejoin: miter; stroke-linecap: square"/>
   </g>
   <g id="patch_5">
    <path d="M 90 320.4 
L 343.636364 320.4 
" style="fill: none; stroke: #000000; stroke-width: 0.8; stroke-linejoin: miter; stroke-linecap: square"/>
   </g>
   <g id="patch_6">
    <path d="M 90 43.2 
L 343.636364 43.2 
" style="fill: none; stroke: #000000; stroke-width: 0.8; stroke-linejoin: miter; stroke-linecap: square"/>
   </g>
   <g id="text_16">
    <!-- Kasichayanula2011a fm_dap2.5_dapagliflozin -->
    <g transform="translate(56.885682 37.2) scale(0.14 -0.14)">
     <defs>
      <path id="DejaVuSans-4b" d="M 628 4666 
L 1259 4666 
L 1259 2694 
L 3353 4666 
L 4166 4666 
L 1850 2491 
L 4331 0 
L 3500 0 
L 1259 2247 
L 1259 0 
L 628 0 
L 628 4666 
z
" transform="scale(0.015625)"/>
      <path id="DejaVuSans-73" d="M 2834 3397 
L 2834 2853 
Q 2591 2978 2328 3040 
Q 2066 3103 1784 3103 
Q 1356 3103 1142 2972 
Q 928 2841 928 2578 
Q 928 2378 1081 2264 
Q 1234 2150 1697 2047 
L 1894 2003 
Q 2506 1872 2764 1633 
Q 3022 1394 3022 966 
Q 3022 478 2636 193 
Q 2250 -91 1575 -91 
Q 1294 -91 989 -36 
Q 684 19 347 128 
L 347 722 
Q 666 556 975 473 
Q 1284 391 1588 391 
Q 1994 391 2212 530 
Q 2431 669 2431 922 
Q 2431 1156 2273 1281 
Q 2116 1406 1581 1522 
L 1381 1569 
Q 847 1681 609 1914 
Q 372 2147 372 2553 
Q 372 3047 722 3315 
Q 1072 3584 1716 3584 
Q 2034 3584 2315 3537 
Q 2597 3491 2834 3397 
z
" transform="scale(0.015625)"/>
      <path id="DejaVuSans-63" d="M 3122 3366 
L 3122 2828 
Q 2878 2963 2633 3030 
Q 2388 3097 2138 3097 
Q 1578 3097 1268 2742 
Q 959 2388 959 1747 
Q 959 1106 1268 751 
Q 1578 397 2138 397 
Q 2388 397 2633 464 
Q 2878 531 3122 666 
L 3122 134 
Q 2881 22 2623 -34 
Q 2366 -91 2075 -91 
Q 1284 -91 818 406 
Q 353 903 353 1747 
Q 353 2603 823 3093 
Q 1294 3584 2113 3584 
Q 2378 3584 2631 3529 
Q 2884 3475 3122 3366 
z
" transform="scale(0.015625)"/>
      <path id="DejaVuSans-68" d="M 3513 2113 
L 3513 0 
L 2938 0 
L 2938 2094 
Q 2938 2591 2744 2837 
Q 2550 3084 2163 3084 
Q 1697 3084 1428 2787 
Q 1159 2491 1159 1978 
L 1159 0 
L 581 0 
L 581 4863 
L 1159 4863 
L 1159 2956 
Q 1366 3272 1645 3428 
Q 1925 3584 2291 3584 
Q 2894 3584 3203 3211 
Q 3513 2838 3513 2113 
z
" transform="scale(0.015625)"/>
      <path id="DejaVuSans-79" d="M 2059 -325 
Q 1816 -950 1584 -1140 
Q 1353 -1331 966 -1331 
L 506 -1331 
L 506 -850 
L 844 -850 
Q 1081 -850 1212 -737 
Q 1344 -625 1503 -206 
L 1606 56 
L 191 3500 
L 800 3500 
L 1894 763 
L 2988 3500 
L 3597 3500 
L 2059 -325 
z
" transform="scale(0.015625)"/>
      <path id="DejaVuSans-6e" d="M 3513 2113 
L 3513 0 
L 2938 0 
L 2938 2094 
Q 2938 2591 2744 2837 
Q 2550 3084 2163 3084 
Q 1697 3084 1428 2787 
Q 1159 2491 1159 1978 
L 1159 0 
L 581 0 
L 581 3500 
L 1159 3500 
L 1159 2956 
Q 1366 3272 1645 3428 
Q 1925 3584 2291 3584 
Q 2894 3584 3203 3211 
Q 3513 2838 3513 2113 
z
" transform="scale(0.015625)"/>
      <path id="DejaVuSans-75" d="M 544 1381 
L 544 3500 
L 1119 3500 
L 1119 1403 
Q 1119 906 1312 657 
Q 1506 409 1894 409 
Q 2359 409 2629 706 
Q 2900 1003 2900 1516 
L 2900 3500 
L 3475 3500 
L 3475 0 
L 2900 0 
L 2900 538 
Q 2691 219 2414 64 
Q 2138 -91 1772 -91 
Q 1169 -91 856 284 
Q 544 659 544 1381 
z
M 1991 3584 
L 1991 3584 
z
" transform="scale(0.015625)"/>
      <path id="DejaVuSans-6c" d="M 603 4863 
L 1178 4863 
L 1178 0 
L 603 0 
L 603 4863 
z
" transform="scale(0.015625)"/>
      <path id="DejaVuSans-20" transform="scale(0.015625)"/>
      <path id="DejaVuSans-66" d="M 2375 4863 
L 2375 4384 
L 1825 4384 
Q 1516 4384 1395 4259 
Q 1275 4134 1275 3809 
L 1275 3500 
L 2222 3500 
L 2222 3053 
L 1275 3053 
L 1275 0 
L 697 0 
L 697 3053 
L 147 3053 
L 147 3500 
L 697 3500 
L 697 3744 
Q 697 4328 969 4595 
Q 1241 4863 1831 4863 
L 2375 4863 
z
" transform="scale(0.015625)"/>
      <path id="DejaVuSans-67" d="M 2906 1791 
Q 2906 2416 2648 2759 
Q 2391 3103 1925 3103 
Q 1463 3103 1205 2759 
Q 947 2416 947 1791 
Q 947 1169 1205 825 
Q 1463 481 1925 481 
Q 2391 481 2648 825 
Q 2906 1169 2906 1791 
z
M 3481 434 
Q 3481 -459 3084 -895 
Q 2688 -1331 1869 -1331 
Q 1566 -1331 1297 -1286 
Q 1028 -1241 775 -1147 
L 775 -588 
Q 1028 -725 1275 -790 
Q 1522 -856 1778 -856 
Q 2344 -856 2625 -561 
Q 2906 -266 2906 331 
L 2906 616 
Q 2728 306 2450 153 
Q 2172 0 1784 0 
Q 1141 0 747 490 
Q 353 981 353 1791 
Q 353 2603 747 3093 
Q 1141 3584 1784 3584 
Q 2172 3584 2450 3431 
Q 2728 3278 2906 2969 
L 2906 3500 
L 3481 3500 
L 3481 434 
z
" transform="scale(0.015625)"/>
      <path id="DejaVuSans-6f" d="M 1959 3097 
Q 1497 3097 1228 2736 
Q 959 2375 959 1747 
Q 959 1119 1226 758 
Q 1494 397 1959 397 
Q 2419 397 2687 759 
Q 2956 1122 2956 1747 
Q 2956 2369 2687 2733 
Q 2419 3097 1959 3097 
z
M 1959 3584 
Q 2709 3584 3137 3096 
Q 3566 2609 3566 1747 
Q 3566 888 3137 398 
Q 2709 -91 1959 -91 
Q 1206 -91 779 398 
Q 353 888 353 1747 
Q 353 2609 779 3096 
Q 1206 3584 1959 3584 
z
" transform="scale(0.015625)"/>
      <path id="DejaVuSans-7a" d="M 353 3500 
L 3084 3500 
L 3084 2975 
L 922 459 
L 3084 459 
L 3084 0 
L 275 0 
L 275 525 
L 2438 3041 
L 353 3041 
L 353 3500 
z
" transform="scale(0.015625)"/>
     </defs>
     <use xlink:href="#DejaVuSans-4b"/>
     <use xlink:href="#DejaVuSans-61" x="63.826172"/>
     <use xlink:href="#DejaVuSans-73" x="125.105469"/>
     <use xlink:href="#DejaVuSans-69" x="177.205078"/>
     <use xlink:href="#DejaVuSans-63" x="204.988281"/>
     <use xlink:href="#DejaVuSans-68" x="259.96875"/>
     <use xlink:href="#DejaVuSans-61" x="323.347656"/>
     <use xlink:href="#DejaVuSans-79" x="384.626953"/>
     <use xlink:href="#DejaVuSans-61" x="443.806641"/>
     <use xlink:href="#DejaVuSans-6e" x="505.085938"/>
     <use xlink:href="#DejaVuSans-75" x="568.464844"/>
     <use xlink:href="#DejaVuSans-6c" x="631.84375"/>
     <use xlink:href="#DejaVuSans-61" x="659.626953"/>
     <use xlink:href="#DejaVuSans-32" x="720.90625"/>
     <use xlink:href="#DejaVuSans-30" x="784.529297"/>
     <use xlink:href="#DejaVuSans-31" x="848.152344"/>
     <use xlink:href="#DejaVuSans-31" x="911.775391"/>
     <use xlink:href="#DejaVuSans-61" x="975.398438"/>
     <use xlink:href="#DejaVuSans-20" x="1036.677734"/>
     <use xlink:href="#DejaVuSans-66" x="1068.464844"/>
     <use xlink:href="#DejaVuSans-6d" x="1103.669922"/>
     <use xlink:href="#DejaVuSans-5f" x="1201.082031"/>
     <use xlink:href="#DejaVuSans-64" x="1251.082031"/>
     <use xlink:href="#DejaVuSans-61" x="1314.558594"/>
     <use xlink:href="#DejaVuSans-70" x="1375.837891"/>
     <use xlink:href="#DejaVuSans-32" x="1439.314453"/>
     <use xlink:href="#DejaVuSans-2e" x="1502.9375"/>
     <use xlink:href="#DejaVuSans-35" x="1534.724609"/>
     <use xlink:href="#DejaVuSans-5f" x="1598.347656"/>
     <use xlink:href="#DejaVuSans-64" x="1648.347656"/>
     <use xlink:href="#DejaVuSans-61" x="1711.824219"/>
     <use xlink:href="#DejaVuSans-70" x="1773.103516"/>
     <use xlink:href="#DejaVuSans-61" x="1836.580078"/>
     <use xlink:href="#DejaVuSans-67" x="1897.859375"/>
     <use xlink:href="#DejaVuSans-6c" x="1961.335938"/>
     <use xlink:href="#DejaVuSans-69" x="1989.119141"/>
     <use xlink:href="#DejaVuSans-66" x="2016.902344"/>
     <use xlink:href="#DejaVuSans-6c" x="2052.107422"/>
     <use xlink:href="#DejaVuSans-6f" x="2079.890625"/>
     <use xlink:href="#DejaVuSans-7a" x="2141.072266"/>
     <use xlink:href="#DejaVuSans-69" x="2193.5625"/>
     <use xlink:href="#DejaVuSans-6e" x="2221.345703"/>
    </g>
   </g>
   <g id="legend_1">
    <g id="patch_7">
     <path d="M 200.586364 80.834375 
L 336.636364 80.834375 
Q 338.636364 80.834375 338.636364 78.834375 
L 338.636364 50.2 
Q 338.636364 48.2 336.636364 48.2 
L 200.586364 48.2 
Q 198.586364 48.2 198.586364 50.2 
L 198.586364 78.834375 
Q 198.586364 80.834375 200.586364 80.834375 
z
" style="fill: #ffffff; opacity: 0.8; stroke: #cccccc; stroke-linejoin: miter"/>
    </g>
    <g id="line2d_16">
     <path d="M 202.586364 56.298437 
L 212.586364 56.298437 
L 222.586364 56.298437 
" style="fill: none; stroke: #0000ff; stroke-width: 1.5; stroke-linecap: square"/>
    </g>
    <g id="text_17">
     <!-- observable -->
     <g transform="translate(230.586364 59.798437) scale(0.1 -0.1)">
      <defs>
       <path id="DejaVuSans-62" d="M 3116 1747 
Q 3116 2381 2855 2742 
Q 2594 3103 2138 3103 
Q 1681 3103 1420 2742 
Q 1159 2381 1159 1747 
Q 1159 1113 1420 752 
Q 1681 391 2138 391 
Q 2594 391 2855 752 
Q 3116 1113 3116 1747 
z
M 1159 2969 
Q 1341 3281 1617 3432 
Q 1894 3584 2278 3584 
Q 2916 3584 3314 3078 
Q 3713 2572 3713 1747 
Q 3713 922 3314 415 
Q 2916 -91 2278 -91 
Q 1894 -91 1617 61 
Q 1341 213 1159 525 
L 1159 0 
L 581 0 
L 581 4863 
L 1159 4863 
L 1159 2969 
z
" transform="scale(0.015625)"/>
       <path id="DejaVuSans-72" d="M 2631 2963 
Q 2534 3019 2420 3045 
Q 2306 3072 2169 3072 
Q 1681 3072 1420 2755 
Q 1159 2438 1159 1844 
L 1159 0 
L 581 0 
L 581 3500 
L 1159 3500 
L 1159 2956 
Q 1341 3275 1631 3429 
Q 1922 3584 2338 3584 
Q 2397 3584 2469 3576 
Q 2541 3569 2628 3553 
L 2631 2963 
z
" transform="scale(0.015625)"/>
      </defs>
      <use xlink:href="#DejaVuSans-6f"/>
      <use xlink:href="#DejaVuSans-62" x="61.181641"/>
      <use xlink:href="#DejaVuSans-73" x="124.658203"/>
      <use xlink:href="#DejaVuSans-65" x="176.757812"/>
      <use xlink:href="#DejaVuSans-72" x="238.28125"/>
      <use xlink:href="#DejaVuSans-76" x="279.394531"/>
      <use xlink:href="#DejaVuSans-61" x="338.574219"/>
      <use xlink:href="#DejaVuSans-62" x="399.853516"/>
      <use xlink:href="#DejaVuSans-6c" x="463.330078"/>
      <use xlink:href="#DejaVuSans-65" x="491.113281"/>
     </g>
    </g>
    <g id="LineCollection_2">
     <path d="M 212.586364 75.976562 
L 212.586364 65.976562 
" style="fill: none; stroke: #000000; stroke-width: 1.5"/>
    </g>
    <g id="line2d_17">
     <path d="M 202.586364 70.976562 
L 222.586364 70.976562 
" style="fill: none; stroke: #000000; stroke-width: 1.5; stroke-linecap: square"/>
    </g>
    <g id="line2d_18">
     <g>
      <use xlink:href="#m5c65bdb5fb" x="212.586364" y="70.976562" style="stroke: #000000; stroke-linejoin: miter"/>
     </g>
    </g>
    <g id="text_18">
     <!-- reference_data ± SD -->
     <g transform="translate(230.586364 74.476562) scale(0.1 -0.1)">
      <defs>
       <path id="DejaVuSans-b1" d="M 2944 4013 
L 2944 2803 
L 4684 2803 
L 4684 2272 
L 2944 2272 
L 2944 1063 
L 2419 1063 
L 2419 2272 
L 678 2272 
L 678 2803 
L 2419 2803 
L 2419 4013 
L 2944 4013 
z
M 678 531 
L 4684 531 
L 4684 0 
L 678 0 
L 678 531 
z
" transform="scale(0.015625)"/>
       <path id="DejaVuSans-53" d="M 3425 4513 
L 3425 3897 
Q 3066 4069 2747 4153 
Q 2428 4238 2131 4238 
Q 1616 4238 1336 4038 
Q 1056 3838 1056 3469 
Q 1056 3159 1242 3001 
Q 1428 2844 1947 2747 
L 2328 2669 
Q 3034 2534 3370 2195 
Q 3706 1856 3706 1288 
Q 3706 609 3251 259 
Q 2797 -91 1919 -91 
Q 1588 -91 1214 -16 
Q 841 59 441 206 
L 441 856 
Q 825 641 1194 531 
Q 1563 422 1919 422 
Q 2459 422 2753 634 
Q 3047 847 3047 1241 
Q 3047 1584 2836 1778 
Q 2625 1972 2144 2069 
L 1759 2144 
Q 1053 2284 737 2584 
Q 422 2884 422 3419 
Q 422 4038 858 4394 
Q 1294 4750 2059 4750 
Q 2388 4750 2728 4690 
Q 3069 4631 3425 4513 
z
" transform="scale(0.015625)"/>
       <path id="DejaVuSans-44" d="M 1259 4147 
L 1259 519 
L 2022 519 
Q 2988 519 3436 956 
Q 3884 1394 3884 2338 
Q 3884 3275 3436 3711 
Q 2988 4147 2022 4147 
L 1259 4147 
z
M 628 4666 
L 1925 4666 
Q 3281 4666 3915 4102 
Q 4550 3538 4550 2338 
Q 4550 1131 3912 565 
Q 3275 0 1925 0 
L 628 0 
L 628 4666 
z
" transform="scale(0.015625)"/>
      </defs>
      <use xlink:href="#DejaVuSans-72"/>
      <use xlink:href="#DejaVuSans-65" x="38.863281"/>
      <use xlink:href="#DejaVuSans-66" x="100.386719"/>
      <use xlink:href="#DejaVuSans-65" x="135.591797"/>
      <use xlink:href="#DejaVuSans-72" x="197.115234"/>
      <use xlink:href="#DejaVuSans-65" x="235.978516"/>
      <use xlink:href="#DejaVuSans-6e" x="297.501953"/>
      <use xlink:href="#DejaVuSans-63" x="360.880859"/>
      <use xlink:href="#DejaVuSans-65" x="415.861328"/>
      <use xlink:href="#DejaVuSans-5f" x="477.384766"/>
      <use xlink:href="#DejaVuSans-64" x="527.384766"/>
      <use xlink:href="#DejaVuSans-61" x="590.861328"/>
      <use xlink:href="#DejaVuSans-74" x="652.140625"/>
      <use xlink:href="#DejaVuSans-61" x="691.349609"/>
      <use xlink:href="#DejaVuSans-20" x="752.628906"/>
      <use xlink:href="#DejaVuSans-b1" x="784.416016"/>
      <use xlink:href="#DejaVuSans-20" x="868.205078"/>
      <use xlink:href="#DejaVuSans-53" x="899.992188"/>
      <use xlink:href="#DejaVuSans-44" x="963.46875"/>
     </g>
    </g>
   </g>
  </g>
  <g id="axes_2">
   <g id="patch_8">
    <path d="M 394.363636 320.4 
L 648 320.4 
L 648 43.2 
L 394.363636 43.2 
z
" style="fill: #ffffff"/>
   </g>
   <g id="matplotlib.axis_3">
    <g id="xtick_6">
     <g id="line2d_19">
      <g>
       <use xlink:href="#m3753853b58" x="415.370047" y="320.4" style="stroke: #000000; stroke-width: 0.8"/>
      </g>
     </g>
     <g id="text_19">
      <!-- 0 -->
      <g transform="translate(412.188797 334.998438) scale(0.1 -0.1)">
       <use xlink:href="#DejaVuSans-30"/>
      </g>
     </g>
    </g>
    <g id="xtick_7">
     <g id="line2d_20">
      <g>
       <use xlink:href="#m3753853b58" x="467.823814" y="320.4" style="stroke: #000000; stroke-width: 0.8"/>
      </g>
     </g>
     <g id="text_20">
      <!-- 5000 -->
      <g transform="translate(455.098814 334.998438) scale(0.1 -0.1)">
       <use xlink:href="#DejaVuSans-35"/>
       <use xlink:href="#DejaVuSans-30" x="63.623047"/>
       <use xlink:href="#DejaVuSans-30" x="127.246094"/>
       <use xlink:href="#DejaVuSans-30" x="190.869141"/>
      </g>
     </g>
    </g>
    <g id="xtick_8">
     <g id="line2d_21">
      <g>
       <use xlink:href="#m3753853b58" x="520.277581" y="320.4" style="stroke: #000000; stroke-width: 0.8"/>
      </g>
     </g>
     <g id="text_21">
      <!-- 10000 -->
      <g transform="translate(504.371331 334.998438) scale(0.1 -0.1)">
       <use xlink:href="#DejaVuSans-31"/>
       <use xlink:href="#DejaVuSans-30" x="63.623047"/>
       <use xlink:href="#DejaVuSans-30" x="127.246094"/>
       <use xlink:href="#DejaVuSans-30" x="190.869141"/>
       <use xlink:href="#DejaVuSans-30" x="254.492188"/>
      </g>
     </g>
    </g>
    <g id="xtick_9">
     <g id="line2d_22">
      <g>
       <use xlink:href="#m3753853b58" x="572.731349" y="320.4" style="stroke: #000000; stroke-width: 0.8"/>
      </g>
     </g>
     <g id="text_22">
      <!-- 15000 -->
      <g transform="translate(556.825099 334.998438) scale(0.1 -0.1)">
       <use xlink:href="#DejaVuSans-31"/>
       <use xlink:href="#DejaVuSans-35" x="63.623047"/>
       <use xlink:href="#DejaVuSans-30" x="127.246094"/>
       <use xlink:href="#DejaVuSans-30" x="190.869141"/>
       <use xlink:href="#DejaVuSans-30" x="254.492188"/>
      </g>
     </g>
    </g>
    <g id="xtick_10">
     <g id="line2d_23">
      <g>
       <use xlink:href="#m3753853b58" x="625.185116" y="320.4" style="stroke: #000000; stroke-width: 0.8"/>
      </g>
     </g>
     <g id="text_23">
      <!-- 20000 -->
      <g transform="translate(609.278866 334.998438) scale(0.1 -0.1)">
       <use xlink:href="#DejaVuSans-32"/>
       <use xlink:href="#DejaVuSans-30" x="63.623047"/>
       <use xlink:href="#DejaVuSans-30" x="127.246094"/>
       <use xlink:href="#DejaVuSans-30" x="190.869141"/>
       <use xlink:href="#DejaVuSans-30" x="254.492188"/>
      </g>
     </g>
    </g>
    <g id="text_24">
     <!-- time -->
     <g transform="translate(507.626506 350.19625) scale(0.12 -0.12)">
      <use xlink:href="#DejaVuSans-74"/>
      <use xlink:href="#DejaVuSans-69" x="39.208984"/>
      <use xlink:href="#DejaVuSans-6d" x="66.992188"/>
      <use xlink:href="#DejaVuSans-65" x="164.404297"/>
     </g>
    </g>
   </g>
   <g id="matplotlib.axis_4">
    <g id="ytick_9">
     <g id="line2d_24">
      <g>
       <use xlink:href="#m293eafc655" x="394.363636" y="257.295259" style="stroke: #000000; stroke-width: 0.8"/>
      </g>
     </g>
     <g id="text_25">
      <!-- $\mathdefault{10^{-5}}$ -->
      <g transform="translate(363.863636 261.094478) scale(0.1 -0.1)">
       <defs>
        <path id="DejaVuSans-2212" d="M 678 2272 
L 4684 2272 
L 4684 1741 
L 678 1741 
L 678 2272 
z
" transform="scale(0.015625)"/>
       </defs>
       <use xlink:href="#DejaVuSans-31" transform="translate(0 0.684375)"/>
       <use xlink:href="#DejaVuSans-30" transform="translate(63.623047 0.684375)"/>
       <use xlink:href="#DejaVuSans-2212" transform="translate(128.203125 38.965625) scale(0.7)"/>
       <use xlink:href="#DejaVuSans-35" transform="translate(186.855469 38.965625) scale(0.7)"/>
      </g>
     </g>
    </g>
    <g id="ytick_10">
     <g id="line2d_25">
      <g>
       <use xlink:href="#m293eafc655" x="394.363636" y="190.571241" style="stroke: #000000; stroke-width: 0.8"/>
      </g>
     </g>
     <g id="text_26">
      <!-- $\mathdefault{10^{-4}}$ -->
      <g transform="translate(363.863636 194.370459) scale(0.1 -0.1)">
       <use xlink:href="#DejaVuSans-31" transform="translate(0 0.684375)"/>
       <use xlink:href="#DejaVuSans-30" transform="translate(63.623047 0.684375)"/>
       <use xlink:href="#DejaVuSans-2212" transform="translate(128.203125 38.965625) scale(0.7)"/>
       <use xlink:href="#DejaVuSans-34" transform="translate(186.855469 38.965625) scale(0.7)"/>
      </g>
     </g>
    </g>
    <g id="ytick_11">
     <g id="line2d_26">
      <g>
       <use xlink:href="#m293eafc655" x="394.363636" y="123.847222" style="stroke: #000000; stroke-width: 0.8"/>
      </g>
     </g>
     <g id="text_27">
      <!-- $\mathdefault{10^{-3}}$ -->
      <g transform="translate(363.863636 127.646441) scale(0.1 -0.1)">
       <defs>
        <path id="DejaVuSans-33" d="M 2597 2516 
Q 3050 2419 3304 2112 
Q 3559 1806 3559 1356 
Q 3559 666 3084 287 
Q 2609 -91 1734 -91 
Q 1441 -91 1130 -33 
Q 819 25 488 141 
L 488 750 
Q 750 597 1062 519 
Q 1375 441 1716 441 
Q 2309 441 2620 675 
Q 2931 909 2931 1356 
Q 2931 1769 2642 2001 
Q 2353 2234 1838 2234 
L 1294 2234 
L 1294 2753 
L 1863 2753 
Q 2328 2753 2575 2939 
Q 2822 3125 2822 3475 
Q 2822 3834 2567 4026 
Q 2313 4219 1838 4219 
Q 1578 4219 1281 4162 
Q 984 4106 628 3988 
L 628 4550 
Q 988 4650 1302 4700 
Q 1616 4750 1894 4750 
Q 2613 4750 3031 4423 
Q 3450 4097 3450 3541 
Q 3450 3153 3228 2886 
Q 3006 2619 2597 2516 
z
" transform="scale(0.015625)"/>
       </defs>
       <use xlink:href="#DejaVuSans-31" transform="translate(0 0.765625)"/>
       <use xlink:href="#DejaVuSans-30" transform="translate(63.623047 0.765625)"/>
       <use xlink:href="#DejaVuSans-2212" transform="translate(128.203125 39.046875) scale(0.7)"/>
       <use xlink:href="#DejaVuSans-33" transform="translate(186.855469 39.046875) scale(0.7)"/>
      </g>
     </g>
    </g>
    <g id="ytick_12">
     <g id="line2d_27">
      <g>
       <use xlink:href="#m293eafc655" x="394.363636" y="57.123204" style="stroke: #000000; stroke-width: 0.8"/>
      </g>
     </g>
     <g id="text_28">
      <!-- $\mathdefault{10^{-2}}$ -->
      <g transform="translate(363.863636 60.922422) scale(0.1 -0.1)">
       <use xlink:href="#DejaVuSans-31" transform="translate(0 0.765625)"/>
       <use xlink:href="#DejaVuSans-30" transform="translate(63.623047 0.765625)"/>
       <use xlink:href="#DejaVuSans-2212" transform="translate(128.203125 39.046875) scale(0.7)"/>
       <use xlink:href="#DejaVuSans-32" transform="translate(186.855469 39.046875) scale(0.7)"/>
      </g>
     </g>
    </g>
    <g id="ytick_13">
     <g id="line2d_28">
      <defs>
       <path id="mfdd5169e02" d="M 0 0 
L -2 0 
" style="stroke: #000000; stroke-width: 0.6"/>
      </defs>
      <g>
       <use xlink:href="#mfdd5169e02" x="394.363636" y="303.933347" style="stroke: #000000; stroke-width: 0.6"/>
      </g>
     </g>
    </g>
    <g id="ytick_14">
     <g id="line2d_29">
      <g>
       <use xlink:href="#mfdd5169e02" x="394.363636" y="292.18383" style="stroke: #000000; stroke-width: 0.6"/>
      </g>
     </g>
    </g>
    <g id="ytick_15">
     <g id="line2d_30">
      <g>
       <use xlink:href="#mfdd5169e02" x="394.363636" y="283.847416" style="stroke: #000000; stroke-width: 0.6"/>
      </g>
     </g>
    </g>
    <g id="ytick_16">
     <g id="line2d_31">
      <g>
       <use xlink:href="#mfdd5169e02" x="394.363636" y="277.38119" style="stroke: #000000; stroke-width: 0.6"/>
      </g>
     </g>
    </g>
    <g id="ytick_17">
     <g id="line2d_32">
      <g>
       <use xlink:href="#mfdd5169e02" x="394.363636" y="272.097899" style="stroke: #000000; stroke-width: 0.6"/>
      </g>
     </g>
    </g>
    <g id="ytick_18">
     <g id="line2d_33">
      <g>
       <use xlink:href="#mfdd5169e02" x="394.363636" y="267.63094" style="stroke: #000000; stroke-width: 0.6"/>
      </g>
     </g>
    </g>
    <g id="ytick_19">
     <g id="line2d_34">
      <g>
       <use xlink:href="#mfdd5169e02" x="394.363636" y="263.761485" style="stroke: #000000; stroke-width: 0.6"/>
      </g>
     </g>
    </g>
    <g id="ytick_20">
     <g id="line2d_35">
      <g>
       <use xlink:href="#mfdd5169e02" x="394.363636" y="260.348383" style="stroke: #000000; stroke-width: 0.6"/>
      </g>
     </g>
    </g>
    <g id="ytick_21">
     <g id="line2d_36">
      <g>
       <use xlink:href="#mfdd5169e02" x="394.363636" y="237.209328" style="stroke: #000000; stroke-width: 0.6"/>
      </g>
     </g>
    </g>
    <g id="ytick_22">
     <g id="line2d_37">
      <g>
       <use xlink:href="#mfdd5169e02" x="394.363636" y="225.459812" style="stroke: #000000; stroke-width: 0.6"/>
      </g>
     </g>
    </g>
    <g id="ytick_23">
     <g id="line2d_38">
      <g>
       <use xlink:href="#mfdd5169e02" x="394.363636" y="217.123397" style="stroke: #000000; stroke-width: 0.6"/>
      </g>
     </g>
    </g>
    <g id="ytick_24">
     <g id="line2d_39">
      <g>
       <use xlink:href="#mfdd5169e02" x="394.363636" y="210.657172" style="stroke: #000000; stroke-width: 0.6"/>
      </g>
     </g>
    </g>
    <g id="ytick_25">
     <g id="line2d_40">
      <g>
       <use xlink:href="#mfdd5169e02" x="394.363636" y="205.373881" style="stroke: #000000; stroke-width: 0.6"/>
      </g>
     </g>
    </g>
    <g id="ytick_26">
     <g id="line2d_41">
      <g>
       <use xlink:href="#mfdd5169e02" x="394.363636" y="200.906922" style="stroke: #000000; stroke-width: 0.6"/>
      </g>
     </g>
    </g>
    <g id="ytick_27">
     <g id="line2d_42">
      <g>
       <use xlink:href="#mfdd5169e02" x="394.363636" y="197.037466" style="stroke: #000000; stroke-width: 0.6"/>
      </g>
     </g>
    </g>
    <g id="ytick_28">
     <g id="line2d_43">
      <g>
       <use xlink:href="#mfdd5169e02" x="394.363636" y="193.624364" style="stroke: #000000; stroke-width: 0.6"/>
      </g>
     </g>
    </g>
    <g id="ytick_29">
     <g id="line2d_44">
      <g>
       <use xlink:href="#mfdd5169e02" x="394.363636" y="170.48531" style="stroke: #000000; stroke-width: 0.6"/>
      </g>
     </g>
    </g>
    <g id="ytick_30">
     <g id="line2d_45">
      <g>
       <use xlink:href="#mfdd5169e02" x="394.363636" y="158.735793" style="stroke: #000000; stroke-width: 0.6"/>
      </g>
     </g>
    </g>
    <g id="ytick_31">
     <g id="line2d_46">
      <g>
       <use xlink:href="#mfdd5169e02" x="394.363636" y="150.399379" style="stroke: #000000; stroke-width: 0.6"/>
      </g>
     </g>
    </g>
    <g id="ytick_32">
     <g id="line2d_47">
      <g>
       <use xlink:href="#mfdd5169e02" x="394.363636" y="143.933153" style="stroke: #000000; stroke-width: 0.6"/>
      </g>
     </g>
    </g>
    <g id="ytick_33">
     <g id="line2d_48">
      <g>
       <use xlink:href="#mfdd5169e02" x="394.363636" y="138.649862" style="stroke: #000000; stroke-width: 0.6"/>
      </g>
     </g>
    </g>
    <g id="ytick_34">
     <g id="line2d_49">
      <g>
       <use xlink:href="#mfdd5169e02" x="394.363636" y="134.182903" style="stroke: #000000; stroke-width: 0.6"/>
      </g>
     </g>
    </g>
    <g id="ytick_35">
     <g id="line2d_50">
      <g>
       <use xlink:href="#mfdd5169e02" x="394.363636" y="130.313448" style="stroke: #000000; stroke-width: 0.6"/>
      </g>
     </g>
    </g>
    <g id="ytick_36">
     <g id="line2d_51">
      <g>
       <use xlink:href="#mfdd5169e02" x="394.363636" y="126.900346" style="stroke: #000000; stroke-width: 0.6"/>
      </g>
     </g>
    </g>
    <g id="ytick_37">
     <g id="line2d_52">
      <g>
       <use xlink:href="#mfdd5169e02" x="394.363636" y="103.761291" style="stroke: #000000; stroke-width: 0.6"/>
      </g>
     </g>
    </g>
    <g id="ytick_38">
     <g id="line2d_53">
      <g>
       <use xlink:href="#mfdd5169e02" x="394.363636" y="92.011775" style="stroke: #000000; stroke-width: 0.6"/>
      </g>
     </g>
    </g>
    <g id="ytick_39">
     <g id="line2d_54">
      <g>
       <use xlink:href="#mfdd5169e02" x="394.363636" y="83.67536" style="stroke: #000000; stroke-width: 0.6"/>
      </g>
     </g>
    </g>
    <g id="ytick_40">
     <g id="line2d_55">
      <g>
       <use xlink:href="#mfdd5169e02" x="394.363636" y="77.209135" style="stroke: #000000; stroke-width: 0.6"/>
      </g>
     </g>
    </g>
    <g id="ytick_41">
     <g id="line2d_56">
      <g>
       <use xlink:href="#mfdd5169e02" x="394.363636" y="71.925844" style="stroke: #000000; stroke-width: 0.6"/>
      </g>
     </g>
    </g>
    <g id="ytick_42">
     <g id="line2d_57">
      <g>
       <use xlink:href="#mfdd5169e02" x="394.363636" y="67.458885" style="stroke: #000000; stroke-width: 0.6"/>
      </g>
     </g>
    </g>
    <g id="ytick_43">
     <g id="line2d_58">
      <g>
       <use xlink:href="#mfdd5169e02" x="394.363636" y="63.589429" style="stroke: #000000; stroke-width: 0.6"/>
      </g>
     </g>
    </g>
    <g id="ytick_44">
     <g id="line2d_59">
      <g>
       <use xlink:href="#mfdd5169e02" x="394.363636" y="60.176327" style="stroke: #000000; stroke-width: 0.6"/>
      </g>
     </g>
    </g>
    <g id="text_29">
     <!-- [Cve_dap] -->
     <g transform="translate(357.034261 212.209687) rotate(-90) scale(0.12 -0.12)">
      <use xlink:href="#DejaVuSans-5b"/>
      <use xlink:href="#DejaVuSans-43" x="39.013672"/>
      <use xlink:href="#DejaVuSans-76" x="108.837891"/>
      <use xlink:href="#DejaVuSans-65" x="168.017578"/>
      <use xlink:href="#DejaVuSans-5f" x="229.541016"/>
      <use xlink:href="#DejaVuSans-64" x="279.541016"/>
      <use xlink:href="#DejaVuSans-61" x="343.017578"/>
      <use xlink:href="#DejaVuSans-70" x="404.296875"/>
      <use xlink:href="#DejaVuSans-5d" x="467.773438"/>
     </g>
    </g>
   </g>
   <g id="LineCollection_3">
    <path d="M 415.5 270.287596 
L 415.5 214.482635 
" clip-path="url(#p3a7ff967d7)" style="fill: none; stroke: #000000; stroke-width: 1.5"/>
    <path d="M 415.68477 206.328565 
L 415.68477 180.905387 
" clip-path="url(#p3a7ff967d7)" style="fill: none; stroke: #000000; stroke-width: 1.5"/>
    <path d="M 415.999492 201.395359 
L 415.999492 185.748259 
" clip-path="url(#p3a7ff967d7)" style="fill: none; stroke: #000000; stroke-width: 1.5"/>
    <path d="M 416.314215 216.519145 
L 416.314215 197.694011 
" clip-path="url(#p3a7ff967d7)" style="fill: none; stroke: #000000; stroke-width: 1.5"/>
    <path d="M 416.628937 225.063673 
L 416.628937 205.765465 
" clip-path="url(#p3a7ff967d7)" style="fill: none; stroke: #000000; stroke-width: 1.5"/>
    <path d="M 417.887828 245.543742 
L 417.887828 229.011252 
" clip-path="url(#p3a7ff967d7)" style="fill: none; stroke: #000000; stroke-width: 1.5"/>
    <path d="M 419.146718 259.230175 
L 419.146718 242.248436 
" clip-path="url(#p3a7ff967d7)" style="fill: none; stroke: #000000; stroke-width: 1.5"/>
    <path d="M 420.405609 267.840263 
L 420.405609 247.091309 
" clip-path="url(#p3a7ff967d7)" style="fill: none; stroke: #000000; stroke-width: 1.5"/>
    <path d="M 421.664499 276.075261 
L 421.664499 256.777053 
" clip-path="url(#p3a7ff967d7)" style="fill: none; stroke: #000000; stroke-width: 1.5"/>
    <path d="M 422.923389 283.014596 
L 422.923389 262.265642 
" clip-path="url(#p3a7ff967d7)" style="fill: none; stroke: #000000; stroke-width: 1.5"/>
    <path d="M 426.700061 289.559724 
L 426.700061 281.959989 
" clip-path="url(#p3a7ff967d7)" style="fill: none; stroke: #000000; stroke-width: 1.5"/>
    <path d="M 430.476732 295.06743 
L 430.476732 278.085691 
" clip-path="url(#p3a7ff967d7)" style="fill: none; stroke: #000000; stroke-width: 1.5"/>
    <path d="M 611.898718 266.415708 
L 611.898718 209.316905 
" clip-path="url(#p3a7ff967d7)" style="fill: none; stroke: #000000; stroke-width: 1.5"/>
    <path d="M 612.071674 196.272835 
L 612.071674 179.291096 
" clip-path="url(#p3a7ff967d7)" style="fill: none; stroke: #000000; stroke-width: 1.5"/>
    <path d="M 612.386397 199.452749 
L 612.386397 185.102543 
" clip-path="url(#p3a7ff967d7)" style="fill: none; stroke: #000000; stroke-width: 1.5"/>
    <path d="M 612.701119 211.320777 
L 612.701119 194.788288 
" clip-path="url(#p3a7ff967d7)" style="fill: none; stroke: #000000; stroke-width: 1.5"/>
    <path d="M 613.015842 221.006522 
L 613.015842 204.474032 
" clip-path="url(#p3a7ff967d7)" style="fill: none; stroke: #000000; stroke-width: 1.5"/>
    <path d="M 614.274732 237.878331 
L 614.274732 222.231231 
" clip-path="url(#p3a7ff967d7)" style="fill: none; stroke: #000000; stroke-width: 1.5"/>
    <path d="M 615.533623 247.235756 
L 615.533623 232.88555 
" clip-path="url(#p3a7ff967d7)" style="fill: none; stroke: #000000; stroke-width: 1.5"/>
    <path d="M 616.792513 252.000905 
L 616.792513 235.468415 
" clip-path="url(#p3a7ff967d7)" style="fill: none; stroke: #000000; stroke-width: 1.5"/>
    <path d="M 618.051403 279.071323 
L 618.051403 239.988429 
" clip-path="url(#p3a7ff967d7)" style="fill: none; stroke: #000000; stroke-width: 1.5"/>
    <path d="M 619.310294 279.617244 
L 619.310294 251.934181 
" clip-path="url(#p3a7ff967d7)" style="fill: none; stroke: #000000; stroke-width: 1.5"/>
    <path d="M 623.086965 283.349095 
L 623.086965 273.08139 
" clip-path="url(#p3a7ff967d7)" style="fill: none; stroke: #000000; stroke-width: 1.5"/>
    <path d="M 626.863636 286.313615 
L 626.863636 274.85711 
" clip-path="url(#p3a7ff967d7)" style="fill: none; stroke: #000000; stroke-width: 1.5"/>
   </g>
   <g id="line2d_60">
    <path d="M 415.384081 361 
L 415.51932 223.99343 
L 415.714314 200.969316 
L 415.887522 197.313208 
L 415.915921 197.238752 
L 415.972718 197.350941 
L 416.114711 198.678391 
L 416.441654 204.467509 
L 417.287059 224.413824 
L 419.777532 285.264091 
L 420.50392 297.657975 
L 421.126538 304.990382 
L 421.749156 309.646071 
L 422.268005 312.019919 
L 422.786854 313.489291 
L 423.305702 314.389265 
L 423.92832 315.031431 
L 424.654709 315.462116 
L 425.744752 315.832825 
L 428.167484 316.353545 
L 430.477702 316.827377 
L 430.480238 316.704219 
L 430.499101 301.735582 
L 430.680429 212.443714 
L 430.872988 198.603981 
L 431.042029 196.779203 
L 431.130459 197.216997 
L 431.366009 200.41438 
L 431.905979 211.685696 
L 434.757934 275.118111 
L 435.423503 284.018688 
L 436.005875 289.19059 
L 436.588248 292.435815 
L 437.170621 294.365248 
L 437.752993 295.48566 
L 438.335366 296.141324 
L 439.084131 296.626235 
L 440.16568 297.015544 
L 442.328778 297.494775 
L 445.584643 298.128419 
L 445.587139 298.051334 
L 445.605962 289.111593 
L 445.811737 208.562132 
L 446.003906 197.584288 
L 446.139079 196.36038 
L 446.161608 196.389049 
L 446.241907 196.8377 
L 446.453356 199.621969 
L 446.983191 210.343973 
L 449.441394 263.369113 
L 450.172357 273.328703 
L 450.740883 278.456172 
L 451.309409 281.739442 
L 451.877935 283.731245 
L 452.446461 284.908293 
L 453.014988 285.605616 
L 453.74595 286.123387 
L 454.720566 286.509005 
L 456.588581 286.950731 
L 460.69158 287.743078 
L 460.694114 287.675885 
L 460.71291 280.999478 
L 460.928634 206.889364 
L 461.135972 196.74176 
L 461.243902 195.991306 
L 461.287074 196.078974 
L 461.424627 197.248986 
L 461.768511 203.019781 
L 462.774109 225.157571 
L 464.105971 252.8121 
L 464.811074 263.476192 
L 465.437832 269.98565 
L 465.986246 273.68647 
L 466.53466 276.014995 
L 467.083073 277.430046 
L 467.631487 278.281921 
L 468.258246 278.860229 
L 469.041694 279.277568 
L 470.295211 279.660092 
L 473.429003 280.297377 
L 475.798376 280.755318 
L 475.801954 280.640056 
L 475.826787 271.311428 
L 476.042295 205.714113 
L 476.241108 196.426713 
L 476.361004 195.66626 
L 476.393514 195.74704 
L 476.523557 196.812943 
L 476.848665 202.089296 
L 477.798393 222.454936 
L 479.050286 247.855305 
L 479.83272 259.337304 
L 480.458666 265.459861 
L 481.00637 268.915282 
L 481.554073 271.082018 
L 482.101777 272.398598 
L 482.64948 273.193617 
L 483.275427 273.736973 
L 484.136103 274.163769 
L 485.544483 274.560022 
L 489.534894 275.346643 
L 490.905203 275.610595 
L 490.908714 275.510585 
L 490.933553 267.466996 
L 491.156768 204.575959 
L 491.367844 195.850584 
L 491.452496 195.366536 
L 491.494822 195.430668 
L 491.632063 196.526403 
L 491.975164 202.098155 
L 493.058802 225.015528 
L 494.156903 246.135463 
L 494.862825 255.972754 
L 495.490311 261.863125 
L 496.039361 265.168711 
L 496.588411 267.23455 
L 497.137461 268.488184 
L 497.686512 269.245891 
L 498.313998 269.765685 
L 499.176791 270.177585 
L 500.588635 270.566655 
L 504.824165 271.397548 
L 506.011852 271.632943 
L 506.015858 271.520642 
L 506.043001 263.078634 
L 506.27324 203.380632 
L 506.467819 195.663025 
L 506.554887 195.104485 
L 506.598421 195.154852 
L 506.725769 196.104726 
L 507.04251 201.029553 
L 508.067389 222.242757 
L 509.2093 243.810271 
L 509.943385 253.654127 
L 510.51434 258.811499 
L 511.085296 262.156208 
L 511.656251 264.205197 
L 512.227207 265.423852 
L 512.798162 266.147953 
L 513.450682 266.63939 
L 514.347898 267.029887 
L 515.979199 267.445786 
L 521.118583 268.434718 
L 521.120085 268.418833 
L 521.136048 265.955851 
L 521.4535 198.603507 
L 521.64763 194.889092 
L 521.671243 194.860749 
L 521.718468 194.963945 
L 521.837986 195.91821 
L 522.163302 200.99646 
L 523.297083 224.152843 
L 524.303411 242.37728 
L 524.974297 251.137293 
L 525.561322 256.358592 
L 526.148347 259.699899 
L 526.735372 261.715952 
L 527.322397 262.897579 
L 527.909422 263.591596 
L 528.664169 264.103475 
L 529.670497 264.485102 
L 531.599294 264.930831 
L 536.225491 265.825448 
L 536.228657 265.75984 
L 536.251918 260.462771 
L 536.508005 201.209182 
L 536.71491 194.865802 
L 536.777564 194.646836 
L 536.831875 194.778904 
L 536.999009 196.353413 
L 537.400129 203.18877 
L 539.589232 243.850024 
L 540.243784 251.292265 
L 540.816518 255.606834 
L 541.389252 258.333203 
L 541.961985 259.978316 
L 542.534719 260.953295 
L 543.189271 261.600359 
L 544.007462 262.053813 
L 545.234748 262.436745 
L 548.180235 263.04207 
L 551.332248 263.643709 
L 551.336485 263.532305 
L 551.363177 256.885577 
L 551.607678 201.447377 
L 551.815562 194.71827 
L 551.878003 194.455879 
L 551.931821 194.555698 
L 552.063838 195.636731 
L 552.393881 200.809713 
L 554.899849 245.36473 
L 555.546365 251.59709 
L 556.112066 255.097936 
L 556.677768 257.274004 
L 557.243469 258.581991 
L 557.809171 259.363456 
L 558.455687 259.893213 
L 559.344646 260.308861 
L 560.799307 260.70165 
L 565.405733 261.599929 
L 566.438996 261.795529 
L 566.442753 261.710785 
L 566.468681 255.857201 
L 566.715355 201.15647 
L 566.914946 194.605987 
L 566.98893 194.279994 
L 567.044643 194.407549 
L 567.183925 195.611758 
L 567.547317 201.453366 
L 569.842488 242.435926 
L 570.511404 249.299382 
L 571.08476 253.091544 
L 571.658116 255.45331 
L 572.231472 256.868655 
L 572.804829 257.708349 
L 573.473744 258.280313 
L 574.333778 258.696408 
L 575.767169 259.093878 
L 579.971781 259.919225 
L 581.545736 260.223232 
L 581.549788 260.128026 
L 581.577002 253.979097 
L 581.82531 200.73582 
L 582.025691 194.41187 
L 582.08388 194.133061 
L 582.146127 194.228166 
L 582.301745 195.582486 
L 582.691996 201.960627 
L 584.759512 239.217937 
L 585.440342 246.800003 
L 586.045524 251.174446 
L 586.575058 253.595846 
L 587.104593 255.11517 
L 587.634127 256.053565 
L 588.239309 256.701141 
L 588.995786 257.168394 
L 590.054855 257.540733 
L 592.24864 258.02452 
L 596.652469 258.870635 
L 596.656242 258.78984 
L 596.684462 252.608874 
L 596.936368 200.272361 
L 597.12858 194.303239 
L 597.215279 193.988596 
L 597.236954 194.031377 
L 597.373472 195.031564 
L 597.714769 200.241324 
L 600.027391 240.592974 
L 600.706093 247.271132 
L 601.299957 250.969965 
L 601.893821 253.222238 
L 602.487684 254.544202 
L 603.081548 255.316266 
L 603.76025 255.830502 
L 604.693465 256.232005 
L 606.305381 256.639598 
L 611.759013 257.698753 
L 611.760782 257.680345 
L 611.779393 255.220286 
L 612.115117 196.63229 
L 612.300843 193.861276 
L 612.345507 193.909937 
L 612.47418 194.836386 
L 612.793199 199.583698 
L 615.248076 241.27638 
L 615.83131 246.639714 
L 616.414544 250.136418 
L 616.997778 252.278263 
L 617.581012 253.546728 
L 618.164246 254.295266 
L 618.830799 254.799126 
L 619.747309 255.196194 
L 621.330373 255.600152 
L 627.162712 256.722871 
L 627.493082 256.785283 
L 627.493082 256.785283 
" clip-path="url(#p3a7ff967d7)" style="fill: none; stroke: #0000ff; stroke-width: 1.5; stroke-linecap: square"/>
   </g>
   <g id="line2d_61">
    <path d="M 415.5 230.625543 
L 415.68477 190.91399 
L 415.999492 192.528281 
L 416.314215 205.604036 
L 416.628937 213.836919 
L 417.887828 236.114131 
L 419.146718 249.512745 
L 420.405609 255.64705 
L 421.664499 264.848507 
L 422.923389 270.821383 
L 426.700061 285.511429 
L 430.476732 285.35 
L 611.898718 225.621241 
L 612.071674 186.555405 
L 612.386397 191.398277 
L 612.701119 201.891167 
L 613.015842 211.576912 
L 614.274732 229.011252 
L 615.533623 239.181284 
L 616.792513 242.571294 
L 618.051403 253.387043 
L 619.310294 262.5885 
L 623.086965 277.762833 
L 626.863636 280.02284 
" clip-path="url(#p3a7ff967d7)" style="fill: none; stroke: #000000; stroke-width: 1.5; stroke-linecap: square"/>
    <g clip-path="url(#p3a7ff967d7)">
     <use xlink:href="#m5c65bdb5fb" x="415.5" y="230.625543" style="stroke: #000000; stroke-linejoin: miter"/>
     <use xlink:href="#m5c65bdb5fb" x="415.68477" y="190.91399" style="stroke: #000000; stroke-linejoin: miter"/>
     <use xlink:href="#m5c65bdb5fb" x="415.999492" y="192.528281" style="stroke: #000000; stroke-linejoin: miter"/>
     <use xlink:href="#m5c65bdb5fb" x="416.314215" y="205.604036" style="stroke: #000000; stroke-linejoin: miter"/>
     <use xlink:href="#m5c65bdb5fb" x="416.628937" y="213.836919" style="stroke: #000000; stroke-linejoin: miter"/>
     <use xlink:href="#m5c65bdb5fb" x="417.887828" y="236.114131" style="stroke: #000000; stroke-linejoin: miter"/>
     <use xlink:href="#m5c65bdb5fb" x="419.146718" y="249.512745" style="stroke: #000000; stroke-linejoin: miter"/>
     <use xlink:href="#m5c65bdb5fb" x="420.405609" y="255.64705" style="stroke: #000000; stroke-linejoin: miter"/>
     <use xlink:href="#m5c65bdb5fb" x="421.664499" y="264.848507" style="stroke: #000000; stroke-linejoin: miter"/>
     <use xlink:href="#m5c65bdb5fb" x="422.923389" y="270.821383" style="stroke: #000000; stroke-linejoin: miter"/>
     <use xlink:href="#m5c65bdb5fb" x="426.700061" y="285.511429" style="stroke: #000000; stroke-linejoin: miter"/>
     <use xlink:href="#m5c65bdb5fb" x="430.476732" y="285.35" style="stroke: #000000; stroke-linejoin: miter"/>
     <use xlink:href="#m5c65bdb5fb" x="611.898718" y="225.621241" style="stroke: #000000; stroke-linejoin: miter"/>
     <use xlink:href="#m5c65bdb5fb" x="612.071674" y="186.555405" style="stroke: #000000; stroke-linejoin: miter"/>
     <use xlink:href="#m5c65bdb5fb" x="612.386397" y="191.398277" style="stroke: #000000; stroke-linejoin: miter"/>
     <use xlink:href="#m5c65bdb5fb" x="612.701119" y="201.891167" style="stroke: #000000; stroke-linejoin: miter"/>
     <use xlink:href="#m5c65bdb5fb" x="613.015842" y="211.576912" style="stroke: #000000; stroke-linejoin: miter"/>
     <use xlink:href="#m5c65bdb5fb" x="614.274732" y="229.011252" style="stroke: #000000; stroke-linejoin: miter"/>
     <use xlink:href="#m5c65bdb5fb" x="615.533623" y="239.181284" style="stroke: #000000; stroke-linejoin: miter"/>
     <use xlink:href="#m5c65bdb5fb" x="616.792513" y="242.571294" style="stroke: #000000; stroke-linejoin: miter"/>
     <use xlink:href="#m5c65bdb5fb" x="618.051403" y="253.387043" style="stroke: #000000; stroke-linejoin: miter"/>
     <use xlink:href="#m5c65bdb5fb" x="619.310294" y="262.5885" style="stroke: #000000; stroke-linejoin: miter"/>
     <use xlink:href="#m5c65bdb5fb" x="623.086965" y="277.762833" style="stroke: #000000; stroke-linejoin: miter"/>
     <use xlink:href="#m5c65bdb5fb" x="626.863636" y="280.02284" style="stroke: #000000; stroke-linejoin: miter"/>
    </g>
   </g>
   <g id="patch_9">
    <path d="M 394.363636 320.4 
L 394.363636 43.2 
" style="fill: none; stroke: #000000; stroke-width: 0.8; stroke-linejoin: miter; stroke-linecap: square"/>
   </g>
   <g id="patch_10">
    <path d="M 648 320.4 
L 648 43.2 
" style="fill: none; stroke: #000000; stroke-width: 0.8; stroke-linejoin: miter; stroke-linecap: square"/>
   </g>
   <g id="patch_11">
    <path d="M 394.363636 320.4 
L 648 320.4 
" style="fill: none; stroke: #000000; stroke-width: 0.8; stroke-linejoin: miter; stroke-linecap: square"/>
   </g>
   <g id="patch_12">
    <path d="M 394.363636 43.2 
L 648 43.2 
" style="fill: none; stroke: #000000; stroke-width: 0.8; stroke-linejoin: miter; stroke-linecap: square"/>
   </g>
   <g id="text_30">
    <!-- Kasichayanula2011a fm_dap2.5_dapagliflozin -->
    <g transform="translate(361.249318 37.2) scale(0.14 -0.14)">
     <use xlink:href="#DejaVuSans-4b"/>
     <use xlink:href="#DejaVuSans-61" x="63.826172"/>
     <use xlink:href="#DejaVuSans-73" x="125.105469"/>
     <use xlink:href="#DejaVuSans-69" x="177.205078"/>
     <use xlink:href="#DejaVuSans-63" x="204.988281"/>
     <use xlink:href="#DejaVuSans-68" x="259.96875"/>
     <use xlink:href="#DejaVuSans-61" x="323.347656"/>
     <use xlink:href="#DejaVuSans-79" x="384.626953"/>
     <use xlink:href="#DejaVuSans-61" x="443.806641"/>
     <use xlink:href="#DejaVuSans-6e" x="505.085938"/>
     <use xlink:href="#DejaVuSans-75" x="568.464844"/>
     <use xlink:href="#DejaVuSans-6c" x="631.84375"/>
     <use xlink:href="#DejaVuSans-61" x="659.626953"/>
     <use xlink:href="#DejaVuSans-32" x="720.90625"/>
     <use xlink:href="#DejaVuSans-30" x="784.529297"/>
     <use xlink:href="#DejaVuSans-31" x="848.152344"/>
     <use xlink:href="#DejaVuSans-31" x="911.775391"/>
     <use xlink:href="#DejaVuSans-61" x="975.398438"/>
     <use xlink:href="#DejaVuSans-20" x="1036.677734"/>
     <use xlink:href="#DejaVuSans-66" x="1068.464844"/>
     <use xlink:href="#DejaVuSans-6d" x="1103.669922"/>
     <use xlink:href="#DejaVuSans-5f" x="1201.082031"/>
     <use xlink:href="#DejaVuSans-64" x="1251.082031"/>
     <use xlink:href="#DejaVuSans-61" x="1314.558594"/>
     <use xlink:href="#DejaVuSans-70" x="1375.837891"/>
     <use xlink:href="#DejaVuSans-32" x="1439.314453"/>
     <use xlink:href="#DejaVuSans-2e" x="1502.9375"/>
     <use xlink:href="#DejaVuSans-35" x="1534.724609"/>
     <use xlink:href="#DejaVuSans-5f" x="1598.347656"/>
     <use xlink:href="#DejaVuSans-64" x="1648.347656"/>
     <use xlink:href="#DejaVuSans-61" x="1711.824219"/>
     <use xlink:href="#DejaVuSans-70" x="1773.103516"/>
     <use xlink:href="#DejaVuSans-61" x="1836.580078"/>
     <use xlink:href="#DejaVuSans-67" x="1897.859375"/>
     <use xlink:href="#DejaVuSans-6c" x="1961.335938"/>
     <use xlink:href="#DejaVuSans-69" x="1989.119141"/>
     <use xlink:href="#DejaVuSans-66" x="2016.902344"/>
     <use xlink:href="#DejaVuSans-6c" x="2052.107422"/>
     <use xlink:href="#DejaVuSans-6f" x="2079.890625"/>
     <use xlink:href="#DejaVuSans-7a" x="2141.072266"/>
     <use xlink:href="#DejaVuSans-69" x="2193.5625"/>
     <use xlink:href="#DejaVuSans-6e" x="2221.345703"/>
    </g>
   </g>
   <g id="legend_2">
    <g id="patch_13">
     <path d="M 504.95 80.834375 
L 641 80.834375 
Q 643 80.834375 643 78.834375 
L 643 50.2 
Q 643 48.2 641 48.2 
L 504.95 48.2 
Q 502.95 48.2 502.95 50.2 
L 502.95 78.834375 
Q 502.95 80.834375 504.95 80.834375 
z
" style="fill: #ffffff; opacity: 0.8; stroke: #cccccc; stroke-linejoin: miter"/>
    </g>
    <g id="line2d_62">
     <path d="M 506.95 56.298437 
L 516.95 56.298437 
L 526.95 56.298437 
" style="fill: none; stroke: #0000ff; stroke-width: 1.5; stroke-linecap: square"/>
    </g>
    <g id="text_31">
     <!-- observable -->
     <g transform="translate(534.95 59.798437) scale(0.1 -0.1)">
      <use xlink:href="#DejaVuSans-6f"/>
      <use xlink:href="#DejaVuSans-62" x="61.181641"/>
      <use xlink:href="#DejaVuSans-73" x="124.658203"/>
      <use xlink:href="#DejaVuSans-65" x="176.757812"/>
      <use xlink:href="#DejaVuSans-72" x="238.28125"/>
      <use xlink:href="#DejaVuSans-76" x="279.394531"/>
      <use xlink:href="#DejaVuSans-61" x="338.574219"/>
      <use xlink:href="#DejaVuSans-62" x="399.853516"/>
      <use xlink:href="#DejaVuSans-6c" x="463.330078"/>
      <use xlink:href="#DejaVuSans-65" x="491.113281"/>
     </g>
    </g>
    <g id="LineCollection_4">
     <path d="M 516.95 75.976562 
L 516.95 65.976562 
" style="fill: none; stroke: #000000; stroke-width: 1.5"/>
    </g>
    <g id="line2d_63">
     <path d="M 506.95 70.976562 
L 526.95 70.976562 
" style="fill: none; stroke: #000000; stroke-width: 1.5; stroke-linecap: square"/>
    </g>
    <g id="line2d_64">
     <g>
      <use xlink:href="#m5c65bdb5fb" x="516.95" y="70.976562" style="stroke: #000000; stroke-linejoin: miter"/>
     </g>
    </g>
    <g id="text_32">
     <!-- reference_data ± SD -->
     <g transform="translate(534.95 74.476562) scale(0.1 -0.1)">
      <use xlink:href="#DejaVuSans-72"/>
      <use xlink:href="#DejaVuSans-65" x="38.863281"/>
      <use xlink:href="#DejaVuSans-66" x="100.386719"/>
      <use xlink:href="#DejaVuSans-65" x="135.591797"/>
      <use xlink:href="#DejaVuSans-72" x="197.115234"/>
      <use xlink:href="#DejaVuSans-65" x="235.978516"/>
      <use xlink:href="#DejaVuSans-6e" x="297.501953"/>
      <use xlink:href="#DejaVuSans-63" x="360.880859"/>
      <use xlink:href="#DejaVuSans-65" x="415.861328"/>
      <use xlink:href="#DejaVuSans-5f" x="477.384766"/>
      <use xlink:href="#DejaVuSans-64" x="527.384766"/>
      <use xlink:href="#DejaVuSans-61" x="590.861328"/>
      <use xlink:href="#DejaVuSans-74" x="652.140625"/>
      <use xlink:href="#DejaVuSans-61" x="691.349609"/>
      <use xlink:href="#DejaVuSans-20" x="752.628906"/>
      <use xlink:href="#DejaVuSans-b1" x="784.416016"/>
      <use xlink:href="#DejaVuSans-20" x="868.205078"/>
      <use xlink:href="#DejaVuSans-53" x="899.992188"/>
      <use xlink:href="#DejaVuSans-44" x="963.46875"/>
     </g>
    </g>
   </g>
  </g>
 </g>
 <defs>
  <clipPath id="pecd1d40c17">
   <rect x="90" y="43.2" width="253.636364" height="277.2"/>
  </clipPath>
  <clipPath id="p3a7ff967d7">
   <rect x="394.363636" y="43.2" width="253.636364" height="277.2"/>
  </clipPath>
 </defs>
</svg>
