<?xml version="1.0" encoding="utf-8" standalone="no"?>
<!DOCTYPE svg PUBLIC "-//W3C//DTD SVG 1.1//EN"
  "http://www.w3.org/Graphics/SVG/1.1/DTD/svg11.dtd">
<svg xmlns:xlink="http://www.w3.org/1999/xlink" width="457.51605pt" height="370.537812pt" viewBox="0 0 457.51605 370.537812" xmlns="http://www.w3.org/2000/svg" version="1.1">
 <metadata>
  <rdf:RDF xmlns:dc="http://purl.org/dc/elements/1.1/" xmlns:cc="http://creativecommons.org/ns#" xmlns:rdf="http://www.w3.org/1999/02/22-rdf-syntax-ns#">
   <cc:Work>
    <dc:type rdf:resource="http://purl.org/dc/dcmitype/StillImage"/>
    <dc:date>2025-03-19T16:41:38.323611</dc:date>
    <dc:format>image/svg+xml</dc:format>
    <dc:creator>
     <cc:Agent>
      <dc:title>Matplotlib v3.9.1, https://matplotlib.org/</dc:title>
     </cc:Agent>
    </dc:creator>
   </cc:Work>
  </rdf:RDF>
 </metadata>
 <defs>
  <style type="text/css">*{stroke-linejoin: round; stroke-linecap: butt}</style>
 </defs>
 <g id="figure_1">
  <g id="patch_1">
   <path d="M 0 370.537812 
L 457.51605 370.537812 
L 457.51605 0 
L 0 0 
z
" style="fill: #ffffff"/>
  </g>
  <g id="axes_1">
   <g id="patch_2">
    <path d="M 54.84875 320.4 
L 445.44875 320.4 
L 445.44875 43.2 
L 54.84875 43.2 
z
" style="fill: #ffffff"/>
   </g>
   <g id="matplotlib.axis_1">
    <g id="xtick_1">
     <g id="line2d_1">
      <defs>
       <path id="m06899e5658" d="M 0 0 
L 0 3.5 
" style="stroke: #000000; stroke-width: 0.8"/>
      </defs>
      <g>
       <use xlink:href="#m06899e5658" x="72.603295" y="320.4" style="stroke: #000000; stroke-width: 0.8"/>
      </g>
     </g>
     <g id="text_1">
      <!-- 0 -->
      <g transform="translate(67.83142 338.797656) scale(0.15 -0.15)">
       <defs>
        <path id="DejaVuSans-30" d="M 2034 4250 
Q 1547 4250 1301 3770 
Q 1056 3291 1056 2328 
Q 1056 1369 1301 889 
Q 1547 409 2034 409 
Q 2525 409 2770 889 
Q 3016 1369 3016 2328 
Q 3016 3291 2770 3770 
Q 2525 4250 2034 4250 
z
M 2034 4750 
Q 2819 4750 3233 4129 
Q 3647 3509 3647 2328 
Q 3647 1150 3233 529 
Q 2819 -91 2034 -91 
Q 1250 -91 836 529 
Q 422 1150 422 2328 
Q 422 3509 836 4129 
Q 1250 4750 2034 4750 
z
" transform="scale(0.015625)"/>
       </defs>
       <use xlink:href="#DejaVuSans-30"/>
      </g>
     </g>
    </g>
    <g id="xtick_2">
     <g id="line2d_2">
      <g>
       <use xlink:href="#m06899e5658" x="124.517171" y="320.4" style="stroke: #000000; stroke-width: 0.8"/>
      </g>
     </g>
     <g id="text_2">
      <!-- 50 -->
      <g transform="translate(114.973421 338.797656) scale(0.15 -0.15)">
       <defs>
        <path id="DejaVuSans-35" d="M 691 4666 
L 3169 4666 
L 3169 4134 
L 1269 4134 
L 1269 2991 
Q 1406 3038 1543 3061 
Q 1681 3084 1819 3084 
Q 2600 3084 3056 2656 
Q 3513 2228 3513 1497 
Q 3513 744 3044 326 
Q 2575 -91 1722 -91 
Q 1428 -91 1123 -41 
Q 819 9 494 109 
L 494 744 
Q 775 591 1075 516 
Q 1375 441 1709 441 
Q 2250 441 2565 725 
Q 2881 1009 2881 1497 
Q 2881 1984 2565 2268 
Q 2250 2553 1709 2553 
Q 1456 2553 1204 2497 
Q 953 2441 691 2322 
L 691 4666 
z
" transform="scale(0.015625)"/>
       </defs>
       <use xlink:href="#DejaVuSans-35"/>
       <use xlink:href="#DejaVuSans-30" x="63.623047"/>
      </g>
     </g>
    </g>
    <g id="xtick_3">
     <g id="line2d_3">
      <g>
       <use xlink:href="#m06899e5658" x="176.431047" y="320.4" style="stroke: #000000; stroke-width: 0.8"/>
      </g>
     </g>
     <g id="text_3">
      <!-- 100 -->
      <g transform="translate(162.115422 338.797656) scale(0.15 -0.15)">
       <defs>
        <path id="DejaVuSans-31" d="M 794 531 
L 1825 531 
L 1825 4091 
L 703 3866 
L 703 4441 
L 1819 4666 
L 2450 4666 
L 2450 531 
L 3481 531 
L 3481 0 
L 794 0 
L 794 531 
z
" transform="scale(0.015625)"/>
       </defs>
       <use xlink:href="#DejaVuSans-31"/>
       <use xlink:href="#DejaVuSans-30" x="63.623047"/>
       <use xlink:href="#DejaVuSans-30" x="127.246094"/>
      </g>
     </g>
    </g>
    <g id="xtick_4">
     <g id="line2d_4">
      <g>
       <use xlink:href="#m06899e5658" x="228.344922" y="320.4" style="stroke: #000000; stroke-width: 0.8"/>
      </g>
     </g>
     <g id="text_4">
      <!-- 150 -->
      <g transform="translate(214.029297 338.797656) scale(0.15 -0.15)">
       <use xlink:href="#DejaVuSans-31"/>
       <use xlink:href="#DejaVuSans-35" x="63.623047"/>
       <use xlink:href="#DejaVuSans-30" x="127.246094"/>
      </g>
     </g>
    </g>
    <g id="xtick_5">
     <g id="line2d_5">
      <g>
       <use xlink:href="#m06899e5658" x="280.258798" y="320.4" style="stroke: #000000; stroke-width: 0.8"/>
      </g>
     </g>
     <g id="text_5">
      <!-- 200 -->
      <g transform="translate(265.943173 338.797656) scale(0.15 -0.15)">
       <defs>
        <path id="DejaVuSans-32" d="M 1228 531 
L 3431 531 
L 3431 0 
L 469 0 
L 469 531 
Q 828 903 1448 1529 
Q 2069 2156 2228 2338 
Q 2531 2678 2651 2914 
Q 2772 3150 2772 3378 
Q 2772 3750 2511 3984 
Q 2250 4219 1831 4219 
Q 1534 4219 1204 4116 
Q 875 4013 500 3803 
L 500 4441 
Q 881 4594 1212 4672 
Q 1544 4750 1819 4750 
Q 2544 4750 2975 4387 
Q 3406 4025 3406 3419 
Q 3406 3131 3298 2873 
Q 3191 2616 2906 2266 
Q 2828 2175 2409 1742 
Q 1991 1309 1228 531 
z
" transform="scale(0.015625)"/>
       </defs>
       <use xlink:href="#DejaVuSans-32"/>
       <use xlink:href="#DejaVuSans-30" x="63.623047"/>
       <use xlink:href="#DejaVuSans-30" x="127.246094"/>
      </g>
     </g>
    </g>
    <g id="xtick_6">
     <g id="line2d_6">
      <g>
       <use xlink:href="#m06899e5658" x="332.172673" y="320.4" style="stroke: #000000; stroke-width: 0.8"/>
      </g>
     </g>
     <g id="text_6">
      <!-- 250 -->
      <g transform="translate(317.857048 338.797656) scale(0.15 -0.15)">
       <use xlink:href="#DejaVuSans-32"/>
       <use xlink:href="#DejaVuSans-35" x="63.623047"/>
       <use xlink:href="#DejaVuSans-30" x="127.246094"/>
      </g>
     </g>
    </g>
    <g id="xtick_7">
     <g id="line2d_7">
      <g>
       <use xlink:href="#m06899e5658" x="384.086549" y="320.4" style="stroke: #000000; stroke-width: 0.8"/>
      </g>
     </g>
     <g id="text_7">
      <!-- 300 -->
      <g transform="translate(369.770924 338.797656) scale(0.15 -0.15)">
       <defs>
        <path id="DejaVuSans-33" d="M 2597 2516 
Q 3050 2419 3304 2112 
Q 3559 1806 3559 1356 
Q 3559 666 3084 287 
Q 2609 -91 1734 -91 
Q 1441 -91 1130 -33 
Q 819 25 488 141 
L 488 750 
Q 750 597 1062 519 
Q 1375 441 1716 441 
Q 2309 441 2620 675 
Q 2931 909 2931 1356 
Q 2931 1769 2642 2001 
Q 2353 2234 1838 2234 
L 1294 2234 
L 1294 2753 
L 1863 2753 
Q 2328 2753 2575 2939 
Q 2822 3125 2822 3475 
Q 2822 3834 2567 4026 
Q 2313 4219 1838 4219 
Q 1578 4219 1281 4162 
Q 984 4106 628 3988 
L 628 4550 
Q 988 4650 1302 4700 
Q 1616 4750 1894 4750 
Q 2613 4750 3031 4423 
Q 3450 4097 3450 3541 
Q 3450 3153 3228 2886 
Q 3006 2619 2597 2516 
z
" transform="scale(0.015625)"/>
       </defs>
       <use xlink:href="#DejaVuSans-33"/>
       <use xlink:href="#DejaVuSans-30" x="63.623047"/>
       <use xlink:href="#DejaVuSans-30" x="127.246094"/>
      </g>
     </g>
    </g>
    <g id="xtick_8">
     <g id="line2d_8">
      <g>
       <use xlink:href="#m06899e5658" x="436.000425" y="320.4" style="stroke: #000000; stroke-width: 0.8"/>
      </g>
     </g>
     <g id="text_8">
      <!-- 350 -->
      <g transform="translate(421.6848 338.797656) scale(0.15 -0.15)">
       <use xlink:href="#DejaVuSans-33"/>
       <use xlink:href="#DejaVuSans-35" x="63.623047"/>
       <use xlink:href="#DejaVuSans-30" x="127.246094"/>
      </g>
     </g>
    </g>
    <g id="text_9">
     <!-- time [hr] -->
     <g transform="translate(205.074219 359.594375) scale(0.18 -0.18)">
      <defs>
       <path id="DejaVuSans-Bold-74" d="M 1759 4494 
L 1759 3500 
L 2913 3500 
L 2913 2700 
L 1759 2700 
L 1759 1216 
Q 1759 972 1856 886 
Q 1953 800 2241 800 
L 2816 800 
L 2816 0 
L 1856 0 
Q 1194 0 917 276 
Q 641 553 641 1216 
L 641 2700 
L 84 2700 
L 84 3500 
L 641 3500 
L 641 4494 
L 1759 4494 
z
" transform="scale(0.015625)"/>
       <path id="DejaVuSans-Bold-69" d="M 538 3500 
L 1656 3500 
L 1656 0 
L 538 0 
L 538 3500 
z
M 538 4863 
L 1656 4863 
L 1656 3950 
L 538 3950 
L 538 4863 
z
" transform="scale(0.015625)"/>
       <path id="DejaVuSans-Bold-6d" d="M 3781 2919 
Q 3994 3244 4286 3414 
Q 4578 3584 4928 3584 
Q 5531 3584 5847 3212 
Q 6163 2841 6163 2131 
L 6163 0 
L 5038 0 
L 5038 1825 
Q 5041 1866 5042 1909 
Q 5044 1953 5044 2034 
Q 5044 2406 4934 2573 
Q 4825 2741 4581 2741 
Q 4263 2741 4089 2478 
Q 3916 2216 3909 1719 
L 3909 0 
L 2784 0 
L 2784 1825 
Q 2784 2406 2684 2573 
Q 2584 2741 2328 2741 
Q 2006 2741 1831 2477 
Q 1656 2213 1656 1722 
L 1656 0 
L 531 0 
L 531 3500 
L 1656 3500 
L 1656 2988 
Q 1863 3284 2130 3434 
Q 2397 3584 2719 3584 
Q 3081 3584 3359 3409 
Q 3638 3234 3781 2919 
z
" transform="scale(0.015625)"/>
       <path id="DejaVuSans-Bold-65" d="M 4031 1759 
L 4031 1441 
L 1416 1441 
Q 1456 1047 1700 850 
Q 1944 653 2381 653 
Q 2734 653 3104 758 
Q 3475 863 3866 1075 
L 3866 213 
Q 3469 63 3072 -14 
Q 2675 -91 2278 -91 
Q 1328 -91 801 392 
Q 275 875 275 1747 
Q 275 2603 792 3093 
Q 1309 3584 2216 3584 
Q 3041 3584 3536 3087 
Q 4031 2591 4031 1759 
z
M 2881 2131 
Q 2881 2450 2695 2645 
Q 2509 2841 2209 2841 
Q 1884 2841 1681 2658 
Q 1478 2475 1428 2131 
L 2881 2131 
z
" transform="scale(0.015625)"/>
       <path id="DejaVuSans-Bold-20" transform="scale(0.015625)"/>
       <path id="DejaVuSans-Bold-5b" d="M 550 4863 
L 2491 4863 
L 2491 4159 
L 1613 4159 
L 1613 -141 
L 2491 -141 
L 2491 -844 
L 550 -844 
L 550 4863 
z
" transform="scale(0.015625)"/>
       <path id="DejaVuSans-Bold-68" d="M 4056 2131 
L 4056 0 
L 2931 0 
L 2931 347 
L 2931 1625 
Q 2931 2084 2911 2256 
Q 2891 2428 2841 2509 
Q 2775 2619 2662 2680 
Q 2550 2741 2406 2741 
Q 2056 2741 1856 2470 
Q 1656 2200 1656 1722 
L 1656 0 
L 538 0 
L 538 4863 
L 1656 4863 
L 1656 2988 
Q 1909 3294 2193 3439 
Q 2478 3584 2822 3584 
Q 3428 3584 3742 3212 
Q 4056 2841 4056 2131 
z
" transform="scale(0.015625)"/>
       <path id="DejaVuSans-Bold-72" d="M 3138 2547 
Q 2991 2616 2845 2648 
Q 2700 2681 2553 2681 
Q 2122 2681 1889 2404 
Q 1656 2128 1656 1613 
L 1656 0 
L 538 0 
L 538 3500 
L 1656 3500 
L 1656 2925 
Q 1872 3269 2151 3426 
Q 2431 3584 2822 3584 
Q 2878 3584 2943 3579 
Q 3009 3575 3134 3559 
L 3138 2547 
z
" transform="scale(0.015625)"/>
       <path id="DejaVuSans-Bold-5d" d="M 2375 -844 
L 434 -844 
L 434 -141 
L 1313 -141 
L 1313 4159 
L 434 4159 
L 434 4863 
L 2375 4863 
L 2375 -844 
z
" transform="scale(0.015625)"/>
      </defs>
      <use xlink:href="#DejaVuSans-Bold-74"/>
      <use xlink:href="#DejaVuSans-Bold-69" x="47.802734"/>
      <use xlink:href="#DejaVuSans-Bold-6d" x="82.080078"/>
      <use xlink:href="#DejaVuSans-Bold-65" x="186.279297"/>
      <use xlink:href="#DejaVuSans-Bold-20" x="254.101562"/>
      <use xlink:href="#DejaVuSans-Bold-5b" x="288.916016"/>
      <use xlink:href="#DejaVuSans-Bold-68" x="334.619141"/>
      <use xlink:href="#DejaVuSans-Bold-72" x="405.810547"/>
      <use xlink:href="#DejaVuSans-Bold-5d" x="455.126953"/>
     </g>
    </g>
   </g>
   <g id="matplotlib.axis_2">
    <g id="ytick_1">
     <g id="line2d_9">
      <defs>
       <path id="m372660ddf9" d="M 0 0 
L -3.5 0 
" style="stroke: #000000; stroke-width: 0.8"/>
      </defs>
      <g>
       <use xlink:href="#m372660ddf9" x="54.84875" y="307.8" style="stroke: #000000; stroke-width: 0.8"/>
      </g>
     </g>
     <g id="text_10">
      <!-- 0 -->
      <g transform="translate(38.305 313.498828) scale(0.15 -0.15)">
       <use xlink:href="#DejaVuSans-30"/>
      </g>
     </g>
    </g>
    <g id="ytick_2">
     <g id="line2d_10">
      <g>
       <use xlink:href="#m372660ddf9" x="54.84875" y="266.034325" style="stroke: #000000; stroke-width: 0.8"/>
      </g>
     </g>
     <g id="text_11">
      <!-- 10 -->
      <g transform="translate(28.76125 271.733153) scale(0.15 -0.15)">
       <use xlink:href="#DejaVuSans-31"/>
       <use xlink:href="#DejaVuSans-30" x="63.623047"/>
      </g>
     </g>
    </g>
    <g id="ytick_3">
     <g id="line2d_11">
      <g>
       <use xlink:href="#m372660ddf9" x="54.84875" y="224.26865" style="stroke: #000000; stroke-width: 0.8"/>
      </g>
     </g>
     <g id="text_12">
      <!-- 20 -->
      <g transform="translate(28.76125 229.967478) scale(0.15 -0.15)">
       <use xlink:href="#DejaVuSans-32"/>
       <use xlink:href="#DejaVuSans-30" x="63.623047"/>
      </g>
     </g>
    </g>
    <g id="ytick_4">
     <g id="line2d_12">
      <g>
       <use xlink:href="#m372660ddf9" x="54.84875" y="182.502975" style="stroke: #000000; stroke-width: 0.8"/>
      </g>
     </g>
     <g id="text_13">
      <!-- 30 -->
      <g transform="translate(28.76125 188.201803) scale(0.15 -0.15)">
       <use xlink:href="#DejaVuSans-33"/>
       <use xlink:href="#DejaVuSans-30" x="63.623047"/>
      </g>
     </g>
    </g>
    <g id="ytick_5">
     <g id="line2d_13">
      <g>
       <use xlink:href="#m372660ddf9" x="54.84875" y="140.7373" style="stroke: #000000; stroke-width: 0.8"/>
      </g>
     </g>
     <g id="text_14">
      <!-- 40 -->
      <g transform="translate(28.76125 146.436128) scale(0.15 -0.15)">
       <defs>
        <path id="DejaVuSans-34" d="M 2419 4116 
L 825 1625 
L 2419 1625 
L 2419 4116 
z
M 2253 4666 
L 3047 4666 
L 3047 1625 
L 3713 1625 
L 3713 1100 
L 3047 1100 
L 3047 0 
L 2419 0 
L 2419 1100 
L 313 1100 
L 313 1709 
L 2253 4666 
z
" transform="scale(0.015625)"/>
       </defs>
       <use xlink:href="#DejaVuSans-34"/>
       <use xlink:href="#DejaVuSans-30" x="63.623047"/>
      </g>
     </g>
    </g>
    <g id="ytick_6">
     <g id="line2d_14">
      <g>
       <use xlink:href="#m372660ddf9" x="54.84875" y="98.971625" style="stroke: #000000; stroke-width: 0.8"/>
      </g>
     </g>
     <g id="text_15">
      <!-- 50 -->
      <g transform="translate(28.76125 104.670453) scale(0.15 -0.15)">
       <use xlink:href="#DejaVuSans-35"/>
       <use xlink:href="#DejaVuSans-30" x="63.623047"/>
      </g>
     </g>
    </g>
    <g id="ytick_7">
     <g id="line2d_15">
      <g>
       <use xlink:href="#m372660ddf9" x="54.84875" y="57.20595" style="stroke: #000000; stroke-width: 0.8"/>
      </g>
     </g>
     <g id="text_16">
      <!-- 60 -->
      <g transform="translate(28.76125 62.904778) scale(0.15 -0.15)">
       <defs>
        <path id="DejaVuSans-36" d="M 2113 2584 
Q 1688 2584 1439 2293 
Q 1191 2003 1191 1497 
Q 1191 994 1439 701 
Q 1688 409 2113 409 
Q 2538 409 2786 701 
Q 3034 994 3034 1497 
Q 3034 2003 2786 2293 
Q 2538 2584 2113 2584 
z
M 3366 4563 
L 3366 3988 
Q 3128 4100 2886 4159 
Q 2644 4219 2406 4219 
Q 1781 4219 1451 3797 
Q 1122 3375 1075 2522 
Q 1259 2794 1537 2939 
Q 1816 3084 2150 3084 
Q 2853 3084 3261 2657 
Q 3669 2231 3669 1497 
Q 3669 778 3244 343 
Q 2819 -91 2113 -91 
Q 1303 -91 875 529 
Q 447 1150 447 2328 
Q 447 3434 972 4092 
Q 1497 4750 2381 4750 
Q 2619 4750 2861 4703 
Q 3103 4656 3366 4563 
z
" transform="scale(0.015625)"/>
       </defs>
       <use xlink:href="#DejaVuSans-36"/>
       <use xlink:href="#DejaVuSans-30" x="63.623047"/>
      </g>
     </g>
    </g>
    <g id="text_17">
     <!-- UGE [g] -->
     <g transform="translate(20.877188 220.445156) rotate(-90) scale(0.18 -0.18)">
      <defs>
       <path id="DejaVuSans-Bold-55" d="M 588 4666 
L 1791 4666 
L 1791 1869 
Q 1791 1291 1980 1042 
Q 2169 794 2597 794 
Q 3028 794 3217 1042 
Q 3406 1291 3406 1869 
L 3406 4666 
L 4609 4666 
L 4609 1869 
Q 4609 878 4112 393 
Q 3616 -91 2597 -91 
Q 1581 -91 1084 393 
Q 588 878 588 1869 
L 588 4666 
z
" transform="scale(0.015625)"/>
       <path id="DejaVuSans-Bold-47" d="M 4781 347 
Q 4331 128 3847 18 
Q 3363 -91 2847 -91 
Q 1681 -91 1000 561 
Q 319 1213 319 2328 
Q 319 3456 1012 4103 
Q 1706 4750 2913 4750 
Q 3378 4750 3804 4662 
Q 4231 4575 4609 4403 
L 4609 3438 
Q 4219 3659 3833 3768 
Q 3447 3878 3059 3878 
Q 2341 3878 1952 3476 
Q 1563 3075 1563 2328 
Q 1563 1588 1938 1184 
Q 2313 781 3003 781 
Q 3191 781 3352 804 
Q 3513 828 3641 878 
L 3641 1784 
L 2906 1784 
L 2906 2591 
L 4781 2591 
L 4781 347 
z
" transform="scale(0.015625)"/>
       <path id="DejaVuSans-Bold-45" d="M 588 4666 
L 3834 4666 
L 3834 3756 
L 1791 3756 
L 1791 2888 
L 3713 2888 
L 3713 1978 
L 1791 1978 
L 1791 909 
L 3903 909 
L 3903 0 
L 588 0 
L 588 4666 
z
" transform="scale(0.015625)"/>
       <path id="DejaVuSans-Bold-67" d="M 2919 594 
Q 2688 288 2409 144 
Q 2131 0 1766 0 
Q 1125 0 706 504 
Q 288 1009 288 1791 
Q 288 2575 706 3076 
Q 1125 3578 1766 3578 
Q 2131 3578 2409 3434 
Q 2688 3291 2919 2981 
L 2919 3500 
L 4044 3500 
L 4044 353 
Q 4044 -491 3511 -936 
Q 2978 -1381 1966 -1381 
Q 1638 -1381 1331 -1331 
Q 1025 -1281 716 -1178 
L 716 -306 
Q 1009 -475 1290 -558 
Q 1572 -641 1856 -641 
Q 2406 -641 2662 -400 
Q 2919 -159 2919 353 
L 2919 594 
z
M 2181 2772 
Q 1834 2772 1640 2515 
Q 1447 2259 1447 1791 
Q 1447 1309 1634 1061 
Q 1822 813 2181 813 
Q 2531 813 2725 1069 
Q 2919 1325 2919 1791 
Q 2919 2259 2725 2515 
Q 2531 2772 2181 2772 
z
" transform="scale(0.015625)"/>
      </defs>
      <use xlink:href="#DejaVuSans-Bold-55"/>
      <use xlink:href="#DejaVuSans-Bold-47" x="81.201172"/>
      <use xlink:href="#DejaVuSans-Bold-45" x="163.28125"/>
      <use xlink:href="#DejaVuSans-Bold-20" x="231.591797"/>
      <use xlink:href="#DejaVuSans-Bold-5b" x="266.40625"/>
      <use xlink:href="#DejaVuSans-Bold-67" x="312.109375"/>
      <use xlink:href="#DejaVuSans-Bold-5d" x="383.691406"/>
     </g>
    </g>
   </g>
   <g id="line2d_16">
    <path d="M 72.603295 307.8 
L 72.802645 307.772159 
L 73.001994 307.047154 
L 73.948903 301.923964 
L 75.095161 296.303348 
L 75.842721 293.578065 
L 76.390932 292.265221 
L 76.78963 291.763671 
L 77.088654 291.67238 
L 97.521956 291.67238 
L 97.521956 307.8 
L 97.62163 307.8 
L 97.721305 307.761218 
L 97.920654 307.016367 
L 98.917401 301.601119 
L 100.063659 295.993479 
L 100.861056 293.112207 
L 101.409267 291.822586 
L 101.807965 291.317306 
L 102.156827 291.208106 
L 122.440616 291.208106 
L 122.440616 307.8 
L 122.540291 307.8 
L 122.639965 307.749718 
L 122.839315 306.987484 
L 123.885898 301.281693 
L 125.032157 295.689777 
L 125.829554 292.802404 
L 126.427602 291.392465 
L 126.876138 290.848991 
L 127.224999 290.758736 
L 147.359276 290.758736 
L 147.359276 307.8 
L 147.458951 307.8 
L 147.558626 307.737945 
L 147.807812 306.713455 
L 150.44919 293.643507 
L 151.146913 291.577224 
L 151.645286 290.677377 
L 152.043984 290.350472 
L 152.49252 290.323958 
L 172.277937 290.323958 
L 172.277937 307.8 
L 172.377611 307.8 
L 172.477286 307.726107 
L 172.726472 306.686574 
L 175.417688 293.354697 
L 176.11541 291.274919 
L 176.663621 290.274773 
L 177.062319 289.940106 
L 177.461018 289.903491 
L 197.196597 289.903491 
L 197.196597 307.8 
L 197.296272 307.8 
L 197.395946 307.714361 
L 197.645133 306.661424 
L 200.336348 293.251663 
L 201.034071 291.104837 
L 201.582281 290.019657 
L 202.030817 289.569037 
L 202.379678 289.497063 
L 222.115257 289.497063 
L 222.115257 307.8 
L 222.214932 307.8 
L 222.314606 307.70282 
L 222.563793 306.637895 
L 225.255008 293.157793 
L 226.002568 290.824117 
L 226.600616 289.639613 
L 227.049152 289.188752 
L 227.44785 289.104406 
L 247.033917 289.104406 
L 247.033917 307.8 
L 247.133592 307.8 
L 247.233267 307.691565 
L 247.532291 306.355439 
L 249.974319 293.847081 
L 250.771717 291.089529 
L 251.419602 289.587217 
L 251.917975 288.930814 
L 252.316673 288.730521 
L 253.562606 288.725259 
L 271.952578 288.725259 
L 271.952578 307.8 
L 272.052252 307.8 
L 272.151927 307.680655 
L 272.450951 306.334002 
L 274.89298 293.778131 
L 275.690377 290.97215 
L 276.338262 289.40315 
L 276.886472 288.622948 
L 277.285171 288.380198 
L 277.883219 288.359362 
L 296.871238 288.359362 
L 296.871238 307.8 
L 296.970913 307.8 
L 297.070587 307.670131 
L 297.369611 306.313967 
L 299.861477 293.51191 
L 300.708712 290.572675 
L 301.356597 289.045373 
L 301.904807 288.281274 
L 302.353343 288.021337 
L 303.051066 288.006456 
L 321.789898 288.006456 
L 321.789898 307.8 
L 321.889573 307.8 
L 321.989248 307.660017 
L 322.288272 306.295244 
L 324.780138 293.451962 
L 325.627372 290.468566 
L 326.275257 288.884606 
L 326.823468 288.051813 
L 327.272004 287.719027 
L 327.720539 287.666284 
L 346.708559 287.666284 
L 346.708559 307.8 
L 346.808233 307.8 
L 346.907908 307.650331 
L 347.206932 306.277746 
L 349.698798 293.396841 
L 350.546032 290.373576 
L 351.243755 288.638894 
L 351.791965 287.786086 
L 352.290339 287.399346 
L 352.738874 287.338587 
L 371.627219 287.338587 
L 371.627219 307.8 
L 371.726894 307.8 
L 371.826568 307.641079 
L 372.125592 306.261393 
L 374.617458 293.346105 
L 375.464693 290.286761 
L 376.162415 288.50216 
L 376.760463 287.532215 
L 377.258836 287.114422 
L 377.707372 287.023104 
L 396.545879 287.023104 
L 396.545879 307.8 
L 396.608176 307.8 
L 396.670472 307.791247 
L 396.857362 307.189264 
L 397.604922 303.089736 
L 399.100042 295.223425 
L 400.034492 291.370282 
L 400.844348 288.922553 
L 401.467315 287.658152 
L 402.027984 286.982823 
L 402.526358 286.733661 
L 403.336214 286.719575 
L 427.694205 286.719575 
L 427.694205 286.719575 
" clip-path="url(#p43dfc11e29)" style="fill: none; stroke: #1f77b4; stroke-width: 2; stroke-linecap: square"/>
   </g>
   <g id="line2d_17">
    <path d="M 72.603295 307.8 
L 72.70297 307.778168 
L 72.902319 306.717642 
L 77.038817 280.876919 
L 78.035563 276.392102 
L 78.783123 273.968797 
L 79.331334 272.84063 
L 79.77987 272.386256 
L 80.128731 272.32889 
L 97.521956 272.32889 
L 97.521956 307.8 
L 97.62163 307.7533 
L 97.870817 306.345981 
L 101.708291 282.021447 
L 102.854549 276.434648 
L 103.701783 273.282721 
L 104.399506 271.453355 
L 104.947717 270.546137 
L 105.396252 270.157624 
L 105.794951 270.071335 
L 122.440616 270.071335 
L 122.440616 307.8 
L 122.540291 307.722897 
L 122.839315 305.968039 
L 126.427602 282.993322 
L 127.673535 276.589547 
L 128.670281 272.554925 
L 129.467678 270.152974 
L 130.165401 268.673221 
L 130.813286 267.791491 
L 131.361496 267.377967 
L 131.909707 267.228544 
L 134.850109 267.226365 
L 147.359276 267.226365 
L 147.359276 307.8 
L 147.458951 307.687382 
L 147.807812 305.584881 
L 151.19675 283.736354 
L 152.542358 276.584898 
L 153.638779 271.892285 
L 154.585688 268.774096 
L 155.432922 266.694618 
L 156.280157 265.195582 
L 157.077554 264.209025 
L 157.924788 263.498953 
L 158.871697 262.997114 
L 159.968118 262.669559 
L 161.363563 262.489873 
L 163.606243 262.459592 
L 172.277937 262.459592 
L 172.277937 307.8 
L 172.377611 307.644107 
L 172.726472 305.526203 
L 176.165248 283.34099 
L 177.560693 275.886535 
L 178.706951 270.883935 
L 179.753535 267.261399 
L 180.750281 264.561336 
L 181.796865 262.341537 
L 182.992961 260.338968 
L 184.388406 258.442657 
L 186.282224 256.266211 
L 189.023276 253.478735 
L 192.86075 249.90304 
L 197.096922 246.253714 
L 197.196597 246.171344 
L 197.196597 307.8 
L 197.296272 307.579957 
L 197.69497 305.116708 
L 200.984233 283.804967 
L 202.479353 275.66539 
L 203.725286 270.068322 
L 204.871544 265.892919 
L 206.06764 262.360517 
L 207.413248 259.087482 
L 209.107717 255.577956 
L 211.549745 251.075618 
L 215.486894 244.326507 
L 220.719812 235.79539 
L 222.115257 233.588883 
L 222.115257 307.8 
L 222.214932 307.53024 
L 222.663468 304.72154 
L 225.853056 284.004435 
L 227.398013 275.479479 
L 228.693783 269.498286 
L 229.989554 264.560195 
L 231.384999 260.13895 
L 233.079468 255.538042 
L 235.521496 249.607037 
L 239.707831 240.100102 
L 245.787984 226.849885 
L 247.033917 224.196669 
L 247.033917 307.8 
L 247.133592 307.492518 
L 247.582128 304.673777 
L 250.821554 283.629202 
L 252.416348 274.814803 
L 253.811793 268.331251 
L 255.207238 262.898877 
L 256.802032 257.591733 
L 258.994874 251.126895 
L 262.632999 241.186871 
L 268.962339 224.590056 
L 271.952578 216.931357 
L 271.952578 307.8 
L 272.052252 307.462959 
L 272.550626 304.299945 
L 275.690377 283.861063 
L 277.335008 274.673281 
L 278.780291 267.82121 
L 280.27541 261.793322 
L 282.119391 255.326625 
L 284.810606 246.780076 
L 289.844176 231.648504 
L 296.871238 211.154803 
L 296.871238 307.8 
L 296.970913 307.439216 
L 297.469286 304.268346 
L 300.609037 283.805119 
L 302.303506 274.291873 
L 303.798626 267.119361 
L 305.443257 260.33745 
L 307.536425 252.709616 
L 310.925362 241.304969 
L 317.603563 219.718068 
L 321.789898 206.461642 
L 321.789898 307.8 
L 321.889573 307.419765 
L 322.437783 303.905402 
L 325.527697 283.756691 
L 327.222166 274.181766 
L 328.816961 266.43443 
L 330.561267 259.086953 
L 332.903621 250.242426 
L 337.089956 235.438614 
L 345.01409 208.297481 
L 346.708559 202.581768 
L 346.708559 307.8 
L 346.808233 307.403576 
L 347.356444 303.882913 
L 350.446358 283.714348 
L 352.190664 273.821842 
L 353.835295 265.763938 
L 355.729114 257.65059 
L 358.420329 247.201276 
L 363.653248 227.942245 
L 371.627219 199.328123 
L 371.627219 307.8 
L 371.726894 307.389923 
L 372.275104 303.863633 
L 375.365018 283.677029 
L 377.159161 273.469553 
L 378.85363 265.105961 
L 380.847123 256.427025 
L 383.837362 244.505462 
L 390.01719 220.952221 
L 396.545879 196.566975 
L 396.545879 307.8 
L 396.608176 307.555897 
L 397.044252 304.855256 
L 400.470568 282.51265 
L 402.277171 272.334915 
L 404.021477 263.764903 
L 406.20186 254.220841 
L 409.752769 239.813249 
L 417.415257 209.810954 
L 427.258128 172.125633 
L 427.694205 170.476608 
L 427.694205 170.476608 
" clip-path="url(#p43dfc11e29)" style="fill: none; stroke: #2ca02c; stroke-width: 2; stroke-linecap: square"/>
   </g>
   <g id="line2d_18">
    <path d="M 72.603295 307.8 
L 72.653133 307.8 
L 72.752807 307.407759 
L 73.948903 299.17095 
L 76.78963 280.260387 
L 78.28475 271.647904 
L 79.381171 266.538631 
L 80.228406 263.586315 
L 80.876291 262.025026 
L 81.424501 261.207039 
L 81.873037 260.881596 
L 82.321573 260.83069 
L 97.521956 260.83069 
L 97.521956 307.8 
L 97.62163 307.625 
L 98.219678 303.601055 
L 101.658453 280.449136 
L 103.303085 270.821808 
L 104.549018 264.78654 
L 105.595602 260.780315 
L 106.542511 258.00892 
L 107.439583 256.044006 
L 108.336654 254.591694 
L 109.283563 253.467399 
L 110.379984 252.520458 
L 111.675755 251.704576 
L 113.370224 250.911341 
L 115.762415 250.054147 
L 118.952004 249.158236 
L 122.440616 248.403503 
L 122.440616 307.8 
L 122.540291 307.543285 
L 123.238013 302.81336 
L 126.577114 280.314122 
L 128.32142 269.991192 
L 129.716865 263.020616 
L 130.962798 257.881972 
L 132.258568 253.470493 
L 133.753688 249.197612 
L 135.697343 244.362672 
L 138.687583 237.57938 
L 143.770989 226.645856 
L 147.359276 219.166432 
L 147.359276 307.8 
L 147.458951 307.442411 
L 148.206511 302.355285 
L 151.545611 279.851104 
L 153.389592 268.881138 
L 154.934549 261.009709 
L 156.479506 254.313973 
L 158.27365 247.563376 
L 160.86519 238.762569 
L 165.649573 223.427709 
L 172.277937 202.780412 
L 172.277937 307.8 
L 172.377611 307.383211 
L 173.175008 301.940327 
L 176.514109 279.433556 
L 178.407927 268.096265 
L 180.102396 259.274596 
L 181.946377 250.891967 
L 184.438243 240.685463 
L 189.073114 222.808077 
L 197.196597 192.307052 
L 197.196597 307.8 
L 197.296272 307.344084 
L 198.193343 301.199256 
L 201.482606 279.039271 
L 203.476099 267.061212 
L 205.32008 257.31977 
L 207.512922 246.982259 
L 211.051372 231.525378 
L 218.975506 198.106807 
L 222.115257 185.034804 
L 222.115257 307.8 
L 222.214932 307.316262 
L 223.161841 300.817705 
L 226.451104 278.659032 
L 228.544272 266.041832 
L 230.587602 255.11975 
L 233.22898 242.302337 
L 238.362224 218.718324 
L 247.033917 179.695306 
L 247.033917 307.8 
L 247.133592 307.295471 
L 248.130339 300.443966 
L 251.419602 278.288218 
L 253.562606 265.317865 
L 255.755449 253.430592 
L 258.8952 237.766391 
L 265.972099 203.877488 
L 271.952578 175.614215 
L 271.952578 307.8 
L 272.052252 307.279363 
L 273.098836 300.075579 
L 276.388099 277.924208 
L 278.630779 264.319358 
L 281.02297 251.230273 
L 284.810606 231.923239 
L 294.329535 184.853136 
L 296.871238 172.399199 
L 296.871238 307.8 
L 296.970913 307.266537 
L 298.067334 299.711063 
L 301.356597 277.565378 
L 303.649114 263.615237 
L 306.240654 249.291712 
L 310.726013 225.977289 
L 321.789898 169.806142 
L 321.789898 307.8 
L 321.889573 307.256103 
L 323.035831 299.349464 
L 326.325094 277.210657 
L 328.717286 262.629909 
L 331.508176 247.087761 
L 336.840769 218.912327 
L 346.708559 167.675035 
L 346.708559 307.8 
L 346.808233 307.247469 
L 348.004329 298.990143 
L 351.293592 276.859301 
L 353.735621 261.939682 
L 356.72586 245.153595 
L 363.005362 211.490936 
L 371.627219 165.896532 
L 371.627219 307.8 
L 371.726894 307.240221 
L 372.972827 298.632652 
L 376.26209 276.51077 
L 378.753956 261.255742 
L 381.943544 243.223463 
L 389.219793 203.725132 
L 396.545879 164.393316 
L 396.545879 307.8 
L 396.608176 307.45778 
L 397.480329 301.489679 
L 401.093535 277.045259 
L 403.647697 261.311592 
L 407.011717 242.129717 
L 414.985688 198.342725 
L 427.694205 129.428685 
L 427.694205 129.428685 
" clip-path="url(#p43dfc11e29)" style="fill: none; stroke: #d62728; stroke-width: 2; stroke-linecap: square"/>
   </g>
   <g id="line2d_19">
    <path d="M 72.603295 307.8 
L 72.653133 307.788891 
L 73.001994 305.443808 
L 77.736539 272.631971 
L 79.680195 260.676323 
L 81.07564 253.394784 
L 82.271736 248.269951 
L 83.417994 244.301524 
L 84.61409 240.950164 
L 85.959697 237.834847 
L 87.704004 234.382236 
L 90.245707 229.887988 
L 94.332367 223.154694 
L 97.521956 218.112059 
L 97.521956 307.8 
L 97.62163 307.37789 
L 99.764635 292.221466 
L 103.153573 269.170631 
L 105.196903 256.717776 
L 106.991047 247.139916 
L 108.984539 237.728758 
L 111.924941 225.032825 
L 118.054932 199.760253 
L 122.440616 181.966287 
L 122.440616 307.8 
L 122.540291 307.271446 
L 125.032157 289.65912 
L 128.371257 267.051691 
L 130.613937 253.322301 
L 133.006128 240.096116 
L 136.743927 220.859231 
L 146.163181 173.860075 
L 147.359276 167.940249 
L 147.359276 307.8 
L 147.458951 307.226683 
L 150.349516 286.820165 
L 153.638779 264.674034 
L 156.180482 249.070035 
L 159.519583 230.086014 
L 167.493554 186.417148 
L 172.277937 160.449812 
L 172.277937 307.8 
L 172.377611 307.201573 
L 175.816386 282.978064 
L 179.005975 261.676961 
L 181.946377 243.591045 
L 187.029783 213.986587 
L 197.196597 155.776026 
L 197.196597 307.8 
L 197.296272 307.185403 
L 205.818453 249.60872 
L 210.453324 221.611824 
L 222.115257 152.579456 
L 222.115257 307.8 
L 222.214932 307.174097 
L 230.886626 248.452713 
L 236.468406 214.196526 
L 247.033917 150.256391 
L 247.033917 307.8 
L 247.133592 307.165748 
L 255.904961 247.634296 
L 262.383812 207.357476 
L 271.952578 148.493758 
L 271.952578 307.8 
L 272.052252 307.159334 
L 280.923295 246.837949 
L 288.349056 200.199154 
L 296.871238 147.112655 
L 296.871238 307.8 
L 296.970913 307.15426 
L 305.94163 246.058822 
L 314.364138 192.718499 
L 321.789898 146.00327 
L 321.789898 307.8 
L 321.889573 307.150154 
L 330.910128 245.615176 
L 340.229707 186.179154 
L 346.708559 145.094383 
L 346.708559 307.8 
L 346.808233 307.146769 
L 355.928463 244.862479 
L 366.244788 178.692931 
L 371.627219 144.337739 
L 371.627219 307.8 
L 371.726894 307.143937 
L 380.896961 244.443361 
L 392.06052 172.485546 
L 396.545879 143.699453 
L 396.545879 307.8 
L 396.608176 307.394563 
L 399.598415 286.248238 
L 403.834587 257.392409 
L 410.500329 213.938322 
L 427.694205 103.054567 
L 427.694205 103.054567 
" clip-path="url(#p43dfc11e29)" style="fill: none; stroke: #9467bd; stroke-width: 2; stroke-linecap: square"/>
   </g>
   <g id="line2d_20">
    <path d="M 72.603295 307.8 
L 72.653133 307.7437 
L 73.649879 300.619459 
L 78.28475 268.08403 
L 80.676941 252.684822 
L 82.520922 242.188504 
L 84.41474 232.68978 
L 86.906606 221.403253 
L 91.49164 201.844884 
L 97.521956 176.688936 
L 97.521956 307.8 
L 97.62163 307.223437 
L 104.748367 257.548484 
L 107.389745 241.089132 
L 110.82852 221.199911 
L 119.300865 173.909245 
L 122.440616 156.51614 
L 122.440616 307.8 
L 122.540291 307.169497 
L 129.816539 256.36749 
L 133.205477 234.800673 
L 139.883678 194.125191 
L 147.359276 149.035962 
L 147.359276 307.8 
L 147.458951 307.148072 
L 154.884712 255.233664 
L 159.120884 227.856232 
L 171.530377 149.784008 
L 172.277937 145.099121 
L 172.277937 307.8 
L 172.377611 307.136366 
L 179.952884 254.120267 
L 185.135965 220.229266 
L 197.196597 142.659155 
L 197.196597 307.8 
L 197.296272 307.128941 
L 204.971219 253.354229 
L 211.200884 212.239418 
L 222.115257 140.995733 
L 222.115257 307.8 
L 222.214932 307.123798 
L 230.039391 252.263338 
L 237.465152 202.906285 
L 247.033917 139.788456 
L 247.033917 307.8 
L 247.133592 307.120022 
L 255.107563 251.178738 
L 263.878932 192.54443 
L 271.952578 138.872606 
L 271.952578 307.8 
L 272.052252 307.117132 
L 280.125898 250.437627 
L 290.1432 183.151225 
L 296.871238 138.154623 
L 296.871238 307.8 
L 296.970913 307.114852 
L 305.144233 249.702243 
L 316.507142 173.076501 
L 321.789898 137.577331 
L 321.789898 307.8 
L 321.889573 307.113009 
L 330.162568 248.97154 
L 342.920922 162.654042 
L 346.708559 137.10377 
L 346.708559 307.8 
L 346.808233 307.11149 
L 355.180903 248.244737 
L 369.334702 152.222594 
L 371.627219 136.708955 
L 371.627219 307.8 
L 371.726894 307.11022 
L 380.199238 247.521233 
L 395.748482 141.785685 
L 396.545879 136.375372 
L 396.545879 307.8 
L 396.608176 307.372456 
L 407.260903 232.818207 
L 427.694205 93.746936 
L 427.694205 93.746936 
" clip-path="url(#p43dfc11e29)" style="fill: none; stroke: #8c564b; stroke-width: 2; stroke-linecap: square"/>
   </g>
   <g id="line2d_21">
    <defs>
     <path id="mc7fe82118f" d="M -3 3 
L 3 3 
L 3 -3 
L -3 -3 
z
" style="stroke: #000000; stroke-linejoin: miter"/>
    </defs>
    <g clip-path="url(#p43dfc11e29)">
     <use xlink:href="#mc7fe82118f" x="72.603295" y="307.8" style="fill: #1f77b4; stroke: #000000; stroke-linejoin: miter"/>
     <use xlink:href="#mc7fe82118f" x="97.521956" y="236.119118" style="fill: #1f77b4; stroke: #000000; stroke-linejoin: miter"/>
     <use xlink:href="#mc7fe82118f" x="396.545879" y="307.8" style="fill: #1f77b4; stroke: #000000; stroke-linejoin: miter"/>
     <use xlink:href="#mc7fe82118f" x="421.464539" y="226.440871" style="fill: #1f77b4; stroke: #000000; stroke-linejoin: miter"/>
    </g>
   </g>
   <g id="line2d_22">
    <defs>
     <path id="m253df1767e" d="M -3 3 
L 3 3 
L 3 -3 
L -3 -3 
z
" style="stroke: #000000; stroke-linejoin: miter"/>
    </defs>
    <g clip-path="url(#p43dfc11e29)">
     <use xlink:href="#m253df1767e" x="72.603295" y="307.8" style="fill: #2ca02c; stroke: #000000; stroke-linejoin: miter"/>
     <use xlink:href="#m253df1767e" x="97.521956" y="130.910082" style="fill: #2ca02c; stroke: #000000; stroke-linejoin: miter"/>
     <use xlink:href="#m253df1767e" x="396.545879" y="307.8" style="fill: #2ca02c; stroke: #000000; stroke-linejoin: miter"/>
     <use xlink:href="#m253df1767e" x="421.464539" y="157.991834" style="fill: #2ca02c; stroke: #000000; stroke-linejoin: miter"/>
    </g>
   </g>
   <g id="line2d_23">
    <defs>
     <path id="m21949a729f" d="M -3 3 
L 3 3 
L 3 -3 
L -3 -3 
z
" style="stroke: #000000; stroke-linejoin: miter"/>
    </defs>
    <g clip-path="url(#p43dfc11e29)">
     <use xlink:href="#m21949a729f" x="72.603295" y="307.8" style="fill: #d62728; stroke: #000000; stroke-linejoin: miter"/>
     <use xlink:href="#m21949a729f" x="97.521956" y="65.009917" style="fill: #d62728; stroke: #000000; stroke-linejoin: miter"/>
     <use xlink:href="#m21949a729f" x="396.545879" y="307.8" style="fill: #d62728; stroke: #000000; stroke-linejoin: miter"/>
     <use xlink:href="#m21949a729f" x="421.464539" y="96.488527" style="fill: #d62728; stroke: #000000; stroke-linejoin: miter"/>
    </g>
   </g>
   <g id="line2d_24">
    <defs>
     <path id="m703c510dcb" d="M -3 3 
L 3 3 
L 3 -3 
L -3 -3 
z
" style="stroke: #000000; stroke-linejoin: miter"/>
    </defs>
    <g clip-path="url(#p43dfc11e29)">
     <use xlink:href="#m703c510dcb" x="72.603295" y="307.8" style="fill: #9467bd; stroke: #000000; stroke-linejoin: miter"/>
     <use xlink:href="#m703c510dcb" x="97.521956" y="56.916914" style="fill: #9467bd; stroke: #000000; stroke-linejoin: miter"/>
     <use xlink:href="#m703c510dcb" x="396.545879" y="307.8" style="fill: #9467bd; stroke: #000000; stroke-linejoin: miter"/>
     <use xlink:href="#m703c510dcb" x="421.464539" y="55.8" style="fill: #9467bd; stroke: #000000; stroke-linejoin: miter"/>
    </g>
   </g>
   <g id="line2d_25">
    <defs>
     <path id="m22e0be01ed" d="M -3 3 
L 3 3 
L 3 -3 
L -3 -3 
z
" style="stroke: #000000; stroke-linejoin: miter"/>
    </defs>
    <g clip-path="url(#p43dfc11e29)">
     <use xlink:href="#m22e0be01ed" x="72.603295" y="307.8" style="fill: #8c564b; stroke: #000000; stroke-linejoin: miter"/>
     <use xlink:href="#m22e0be01ed" x="97.521956" y="56.916914" style="fill: #8c564b; stroke: #000000; stroke-linejoin: miter"/>
     <use xlink:href="#m22e0be01ed" x="396.545879" y="307.8" style="fill: #8c564b; stroke: #000000; stroke-linejoin: miter"/>
     <use xlink:href="#m22e0be01ed" x="421.464539" y="56.732072" style="fill: #8c564b; stroke: #000000; stroke-linejoin: miter"/>
    </g>
   </g>
   <g id="patch_3">
    <path d="M 54.84875 320.4 
L 54.84875 43.2 
" style="fill: none; stroke: #000000; stroke-width: 0.8; stroke-linejoin: miter; stroke-linecap: square"/>
   </g>
   <g id="patch_4">
    <path d="M 445.44875 320.4 
L 445.44875 43.2 
" style="fill: none; stroke: #000000; stroke-width: 0.8; stroke-linejoin: miter; stroke-linecap: square"/>
   </g>
   <g id="patch_5">
    <path d="M 54.84875 320.4 
L 445.44875 320.4 
" style="fill: none; stroke: #000000; stroke-width: 0.8; stroke-linejoin: miter; stroke-linecap: square"/>
   </g>
   <g id="patch_6">
    <path d="M 54.84875 43.2 
L 445.44875 43.2 
" style="fill: none; stroke: #000000; stroke-width: 0.8; stroke-linejoin: miter; stroke-linecap: square"/>
   </g>
  </g>
  <g id="text_18">
   <!-- Komoroski2009 -->
   <g transform="translate(134.602656 26.196094) scale(0.25 -0.25)">
    <defs>
     <path id="DejaVuSans-Bold-4b" d="M 588 4666 
L 1791 4666 
L 1791 2963 
L 3525 4666 
L 4922 4666 
L 2675 2456 
L 5153 0 
L 3647 0 
L 1791 1838 
L 1791 0 
L 588 0 
L 588 4666 
z
" transform="scale(0.015625)"/>
     <path id="DejaVuSans-Bold-6f" d="M 2203 2784 
Q 1831 2784 1636 2517 
Q 1441 2250 1441 1747 
Q 1441 1244 1636 976 
Q 1831 709 2203 709 
Q 2569 709 2762 976 
Q 2956 1244 2956 1747 
Q 2956 2250 2762 2517 
Q 2569 2784 2203 2784 
z
M 2203 3584 
Q 3106 3584 3614 3096 
Q 4122 2609 4122 1747 
Q 4122 884 3614 396 
Q 3106 -91 2203 -91 
Q 1297 -91 786 396 
Q 275 884 275 1747 
Q 275 2609 786 3096 
Q 1297 3584 2203 3584 
z
" transform="scale(0.015625)"/>
     <path id="DejaVuSans-Bold-73" d="M 3272 3391 
L 3272 2541 
Q 2913 2691 2578 2766 
Q 2244 2841 1947 2841 
Q 1628 2841 1473 2761 
Q 1319 2681 1319 2516 
Q 1319 2381 1436 2309 
Q 1553 2238 1856 2203 
L 2053 2175 
Q 2913 2066 3209 1816 
Q 3506 1566 3506 1031 
Q 3506 472 3093 190 
Q 2681 -91 1863 -91 
Q 1516 -91 1145 -36 
Q 775 19 384 128 
L 384 978 
Q 719 816 1070 734 
Q 1422 653 1784 653 
Q 2113 653 2278 743 
Q 2444 834 2444 1013 
Q 2444 1163 2330 1236 
Q 2216 1309 1875 1350 
L 1678 1375 
Q 931 1469 631 1722 
Q 331 1975 331 2491 
Q 331 3047 712 3315 
Q 1094 3584 1881 3584 
Q 2191 3584 2531 3537 
Q 2872 3491 3272 3391 
z
" transform="scale(0.015625)"/>
     <path id="DejaVuSans-Bold-6b" d="M 538 4863 
L 1656 4863 
L 1656 2216 
L 2944 3500 
L 4244 3500 
L 2534 1894 
L 4378 0 
L 3022 0 
L 1656 1459 
L 1656 0 
L 538 0 
L 538 4863 
z
" transform="scale(0.015625)"/>
     <path id="DejaVuSans-Bold-32" d="M 1844 884 
L 3897 884 
L 3897 0 
L 506 0 
L 506 884 
L 2209 2388 
Q 2438 2594 2547 2791 
Q 2656 2988 2656 3200 
Q 2656 3528 2436 3728 
Q 2216 3928 1850 3928 
Q 1569 3928 1234 3808 
Q 900 3688 519 3450 
L 519 4475 
Q 925 4609 1322 4679 
Q 1719 4750 2100 4750 
Q 2938 4750 3402 4381 
Q 3866 4013 3866 3353 
Q 3866 2972 3669 2642 
Q 3472 2313 2841 1759 
L 1844 884 
z
" transform="scale(0.015625)"/>
     <path id="DejaVuSans-Bold-30" d="M 2944 2338 
Q 2944 3213 2780 3570 
Q 2616 3928 2228 3928 
Q 1841 3928 1675 3570 
Q 1509 3213 1509 2338 
Q 1509 1453 1675 1090 
Q 1841 728 2228 728 
Q 2613 728 2778 1090 
Q 2944 1453 2944 2338 
z
M 4147 2328 
Q 4147 1169 3647 539 
Q 3147 -91 2228 -91 
Q 1306 -91 806 539 
Q 306 1169 306 2328 
Q 306 3491 806 4120 
Q 1306 4750 2228 4750 
Q 3147 4750 3647 4120 
Q 4147 3491 4147 2328 
z
" transform="scale(0.015625)"/>
     <path id="DejaVuSans-Bold-39" d="M 641 103 
L 641 966 
Q 928 831 1190 764 
Q 1453 697 1709 697 
Q 2247 697 2547 995 
Q 2847 1294 2900 1881 
Q 2688 1725 2447 1647 
Q 2206 1569 1925 1569 
Q 1209 1569 770 1986 
Q 331 2403 331 3084 
Q 331 3838 820 4291 
Q 1309 4744 2131 4744 
Q 3044 4744 3544 4128 
Q 4044 3513 4044 2388 
Q 4044 1231 3459 570 
Q 2875 -91 1856 -91 
Q 1528 -91 1228 -42 
Q 928 6 641 103 
z
M 2125 2350 
Q 2441 2350 2600 2554 
Q 2759 2759 2759 3169 
Q 2759 3575 2600 3781 
Q 2441 3988 2125 3988 
Q 1809 3988 1650 3781 
Q 1491 3575 1491 3169 
Q 1491 2759 1650 2554 
Q 1809 2350 2125 2350 
z
" transform="scale(0.015625)"/>
    </defs>
    <use xlink:href="#DejaVuSans-Bold-4b"/>
    <use xlink:href="#DejaVuSans-Bold-6f" x="75.740234"/>
    <use xlink:href="#DejaVuSans-Bold-6d" x="144.441406"/>
    <use xlink:href="#DejaVuSans-Bold-6f" x="248.640625"/>
    <use xlink:href="#DejaVuSans-Bold-72" x="317.341797"/>
    <use xlink:href="#DejaVuSans-Bold-6f" x="366.658203"/>
    <use xlink:href="#DejaVuSans-Bold-73" x="435.359375"/>
    <use xlink:href="#DejaVuSans-Bold-6b" x="494.880859"/>
    <use xlink:href="#DejaVuSans-Bold-69" x="561.384766"/>
    <use xlink:href="#DejaVuSans-Bold-32" x="595.662109"/>
    <use xlink:href="#DejaVuSans-Bold-30" x="665.242188"/>
    <use xlink:href="#DejaVuSans-Bold-30" x="734.822266"/>
    <use xlink:href="#DejaVuSans-Bold-39" x="804.402344"/>
   </g>
  </g>
 </g>
 <defs>
  <clipPath id="p43dfc11e29">
   <rect x="54.84875" y="43.2" width="390.6" height="277.2"/>
  </clipPath>
 </defs>
</svg>
