<?xml version="1.0" encoding="utf-8" standalone="no"?>
<!DOCTYPE svg PUBLIC "-//W3C//DTD SVG 1.1//EN"
  "http://www.w3.org/Graphics/SVG/1.1/DTD/svg11.dtd">
<svg xmlns:xlink="http://www.w3.org/1999/xlink" width="462.1925pt" height="370.537812pt" viewBox="0 0 462.1925 370.537812" xmlns="http://www.w3.org/2000/svg" version="1.1">
 <metadata>
  <rdf:RDF xmlns:dc="http://purl.org/dc/elements/1.1/" xmlns:cc="http://creativecommons.org/ns#" xmlns:rdf="http://www.w3.org/1999/02/22-rdf-syntax-ns#">
   <cc:Work>
    <dc:type rdf:resource="http://purl.org/dc/dcmitype/StillImage"/>
    <dc:date>2025-06-10T18:17:26.453675</dc:date>
    <dc:format>image/svg+xml</dc:format>
    <dc:creator>
     <cc:Agent>
      <dc:title>Matplotlib v3.9.1, https://matplotlib.org/</dc:title>
     </cc:Agent>
    </dc:creator>
   </cc:Work>
  </rdf:RDF>
 </metadata>
 <defs>
  <style type="text/css">*{stroke-linejoin: round; stroke-linecap: butt}</style>
 </defs>
 <g id="figure_1">
  <g id="patch_1">
   <path d="M 0 370.537812 
L 462.1925 370.537812 
L 462.1925 0 
L 0 0 
z
" style="fill: #ffffff"/>
  </g>
  <g id="axes_1">
   <g id="patch_2">
    <path d="M 64.3925 320.4 
L 454.9925 320.4 
L 454.9925 43.2 
L 64.3925 43.2 
z
" style="fill: #ffffff"/>
   </g>
   <g id="matplotlib.axis_1">
    <g id="xtick_1">
     <g id="line2d_1">
      <defs>
       <path id="m29e909ff46" d="M 0 0 
L 0 3.5 
" style="stroke: #000000; stroke-width: 0.8"/>
      </defs>
      <g>
       <use xlink:href="#m29e909ff46" x="82.147045" y="320.4" style="stroke: #000000; stroke-width: 0.8"/>
      </g>
     </g>
     <g id="text_1">
      <!-- 0 -->
      <g transform="translate(77.37517 338.797656) scale(0.15 -0.15)">
       <defs>
        <path id="DejaVuSans-30" d="M 2034 4250 
Q 1547 4250 1301 3770 
Q 1056 3291 1056 2328 
Q 1056 1369 1301 889 
Q 1547 409 2034 409 
Q 2525 409 2770 889 
Q 3016 1369 3016 2328 
Q 3016 3291 2770 3770 
Q 2525 4250 2034 4250 
z
M 2034 4750 
Q 2819 4750 3233 4129 
Q 3647 3509 3647 2328 
Q 3647 1150 3233 529 
Q 2819 -91 2034 -91 
Q 1250 -91 836 529 
Q 422 1150 422 2328 
Q 422 3509 836 4129 
Q 1250 4750 2034 4750 
z
" transform="scale(0.015625)"/>
       </defs>
       <use xlink:href="#DejaVuSans-30"/>
      </g>
     </g>
    </g>
    <g id="xtick_2">
     <g id="line2d_2">
      <g>
       <use xlink:href="#m29e909ff46" x="138.961591" y="320.4" style="stroke: #000000; stroke-width: 0.8"/>
      </g>
     </g>
     <g id="text_2">
      <!-- 20 -->
      <g transform="translate(129.417841 338.797656) scale(0.15 -0.15)">
       <defs>
        <path id="DejaVuSans-32" d="M 1228 531 
L 3431 531 
L 3431 0 
L 469 0 
L 469 531 
Q 828 903 1448 1529 
Q 2069 2156 2228 2338 
Q 2531 2678 2651 2914 
Q 2772 3150 2772 3378 
Q 2772 3750 2511 3984 
Q 2250 4219 1831 4219 
Q 1534 4219 1204 4116 
Q 875 4013 500 3803 
L 500 4441 
Q 881 4594 1212 4672 
Q 1544 4750 1819 4750 
Q 2544 4750 2975 4387 
Q 3406 4025 3406 3419 
Q 3406 3131 3298 2873 
Q 3191 2616 2906 2266 
Q 2828 2175 2409 1742 
Q 1991 1309 1228 531 
z
" transform="scale(0.015625)"/>
       </defs>
       <use xlink:href="#DejaVuSans-32"/>
       <use xlink:href="#DejaVuSans-30" x="63.623047"/>
      </g>
     </g>
    </g>
    <g id="xtick_3">
     <g id="line2d_3">
      <g>
       <use xlink:href="#m29e909ff46" x="195.776136" y="320.4" style="stroke: #000000; stroke-width: 0.8"/>
      </g>
     </g>
     <g id="text_3">
      <!-- 40 -->
      <g transform="translate(186.232386 338.797656) scale(0.15 -0.15)">
       <defs>
        <path id="DejaVuSans-34" d="M 2419 4116 
L 825 1625 
L 2419 1625 
L 2419 4116 
z
M 2253 4666 
L 3047 4666 
L 3047 1625 
L 3713 1625 
L 3713 1100 
L 3047 1100 
L 3047 0 
L 2419 0 
L 2419 1100 
L 313 1100 
L 313 1709 
L 2253 4666 
z
" transform="scale(0.015625)"/>
       </defs>
       <use xlink:href="#DejaVuSans-34"/>
       <use xlink:href="#DejaVuSans-30" x="63.623047"/>
      </g>
     </g>
    </g>
    <g id="xtick_4">
     <g id="line2d_4">
      <g>
       <use xlink:href="#m29e909ff46" x="252.590682" y="320.4" style="stroke: #000000; stroke-width: 0.8"/>
      </g>
     </g>
     <g id="text_4">
      <!-- 60 -->
      <g transform="translate(243.046932 338.797656) scale(0.15 -0.15)">
       <defs>
        <path id="DejaVuSans-36" d="M 2113 2584 
Q 1688 2584 1439 2293 
Q 1191 2003 1191 1497 
Q 1191 994 1439 701 
Q 1688 409 2113 409 
Q 2538 409 2786 701 
Q 3034 994 3034 1497 
Q 3034 2003 2786 2293 
Q 2538 2584 2113 2584 
z
M 3366 4563 
L 3366 3988 
Q 3128 4100 2886 4159 
Q 2644 4219 2406 4219 
Q 1781 4219 1451 3797 
Q 1122 3375 1075 2522 
Q 1259 2794 1537 2939 
Q 1816 3084 2150 3084 
Q 2853 3084 3261 2657 
Q 3669 2231 3669 1497 
Q 3669 778 3244 343 
Q 2819 -91 2113 -91 
Q 1303 -91 875 529 
Q 447 1150 447 2328 
Q 447 3434 972 4092 
Q 1497 4750 2381 4750 
Q 2619 4750 2861 4703 
Q 3103 4656 3366 4563 
z
" transform="scale(0.015625)"/>
       </defs>
       <use xlink:href="#DejaVuSans-36"/>
       <use xlink:href="#DejaVuSans-30" x="63.623047"/>
      </g>
     </g>
    </g>
    <g id="xtick_5">
     <g id="line2d_5">
      <g>
       <use xlink:href="#m29e909ff46" x="309.405227" y="320.4" style="stroke: #000000; stroke-width: 0.8"/>
      </g>
     </g>
     <g id="text_5">
      <!-- 80 -->
      <g transform="translate(299.861477 338.797656) scale(0.15 -0.15)">
       <defs>
        <path id="DejaVuSans-38" d="M 2034 2216 
Q 1584 2216 1326 1975 
Q 1069 1734 1069 1313 
Q 1069 891 1326 650 
Q 1584 409 2034 409 
Q 2484 409 2743 651 
Q 3003 894 3003 1313 
Q 3003 1734 2745 1975 
Q 2488 2216 2034 2216 
z
M 1403 2484 
Q 997 2584 770 2862 
Q 544 3141 544 3541 
Q 544 4100 942 4425 
Q 1341 4750 2034 4750 
Q 2731 4750 3128 4425 
Q 3525 4100 3525 3541 
Q 3525 3141 3298 2862 
Q 3072 2584 2669 2484 
Q 3125 2378 3379 2068 
Q 3634 1759 3634 1313 
Q 3634 634 3220 271 
Q 2806 -91 2034 -91 
Q 1263 -91 848 271 
Q 434 634 434 1313 
Q 434 1759 690 2068 
Q 947 2378 1403 2484 
z
M 1172 3481 
Q 1172 3119 1398 2916 
Q 1625 2713 2034 2713 
Q 2441 2713 2670 2916 
Q 2900 3119 2900 3481 
Q 2900 3844 2670 4047 
Q 2441 4250 2034 4250 
Q 1625 4250 1398 4047 
Q 1172 3844 1172 3481 
z
" transform="scale(0.015625)"/>
       </defs>
       <use xlink:href="#DejaVuSans-38"/>
       <use xlink:href="#DejaVuSans-30" x="63.623047"/>
      </g>
     </g>
    </g>
    <g id="xtick_6">
     <g id="line2d_6">
      <g>
       <use xlink:href="#m29e909ff46" x="366.219773" y="320.4" style="stroke: #000000; stroke-width: 0.8"/>
      </g>
     </g>
     <g id="text_6">
      <!-- 100 -->
      <g transform="translate(351.904148 338.797656) scale(0.15 -0.15)">
       <defs>
        <path id="DejaVuSans-31" d="M 794 531 
L 1825 531 
L 1825 4091 
L 703 3866 
L 703 4441 
L 1819 4666 
L 2450 4666 
L 2450 531 
L 3481 531 
L 3481 0 
L 794 0 
L 794 531 
z
" transform="scale(0.015625)"/>
       </defs>
       <use xlink:href="#DejaVuSans-31"/>
       <use xlink:href="#DejaVuSans-30" x="63.623047"/>
       <use xlink:href="#DejaVuSans-30" x="127.246094"/>
      </g>
     </g>
    </g>
    <g id="xtick_7">
     <g id="line2d_7">
      <g>
       <use xlink:href="#m29e909ff46" x="423.034318" y="320.4" style="stroke: #000000; stroke-width: 0.8"/>
      </g>
     </g>
     <g id="text_7">
      <!-- 120 -->
      <g transform="translate(408.718693 338.797656) scale(0.15 -0.15)">
       <use xlink:href="#DejaVuSans-31"/>
       <use xlink:href="#DejaVuSans-32" x="63.623047"/>
       <use xlink:href="#DejaVuSans-30" x="127.246094"/>
      </g>
     </g>
    </g>
    <g id="text_8">
     <!-- time [hr] -->
     <g transform="translate(214.617969 359.594375) scale(0.18 -0.18)">
      <defs>
       <path id="DejaVuSans-Bold-74" d="M 1759 4494 
L 1759 3500 
L 2913 3500 
L 2913 2700 
L 1759 2700 
L 1759 1216 
Q 1759 972 1856 886 
Q 1953 800 2241 800 
L 2816 800 
L 2816 0 
L 1856 0 
Q 1194 0 917 276 
Q 641 553 641 1216 
L 641 2700 
L 84 2700 
L 84 3500 
L 641 3500 
L 641 4494 
L 1759 4494 
z
" transform="scale(0.015625)"/>
       <path id="DejaVuSans-Bold-69" d="M 538 3500 
L 1656 3500 
L 1656 0 
L 538 0 
L 538 3500 
z
M 538 4863 
L 1656 4863 
L 1656 3950 
L 538 3950 
L 538 4863 
z
" transform="scale(0.015625)"/>
       <path id="DejaVuSans-Bold-6d" d="M 3781 2919 
Q 3994 3244 4286 3414 
Q 4578 3584 4928 3584 
Q 5531 3584 5847 3212 
Q 6163 2841 6163 2131 
L 6163 0 
L 5038 0 
L 5038 1825 
Q 5041 1866 5042 1909 
Q 5044 1953 5044 2034 
Q 5044 2406 4934 2573 
Q 4825 2741 4581 2741 
Q 4263 2741 4089 2478 
Q 3916 2216 3909 1719 
L 3909 0 
L 2784 0 
L 2784 1825 
Q 2784 2406 2684 2573 
Q 2584 2741 2328 2741 
Q 2006 2741 1831 2477 
Q 1656 2213 1656 1722 
L 1656 0 
L 531 0 
L 531 3500 
L 1656 3500 
L 1656 2988 
Q 1863 3284 2130 3434 
Q 2397 3584 2719 3584 
Q 3081 3584 3359 3409 
Q 3638 3234 3781 2919 
z
" transform="scale(0.015625)"/>
       <path id="DejaVuSans-Bold-65" d="M 4031 1759 
L 4031 1441 
L 1416 1441 
Q 1456 1047 1700 850 
Q 1944 653 2381 653 
Q 2734 653 3104 758 
Q 3475 863 3866 1075 
L 3866 213 
Q 3469 63 3072 -14 
Q 2675 -91 2278 -91 
Q 1328 -91 801 392 
Q 275 875 275 1747 
Q 275 2603 792 3093 
Q 1309 3584 2216 3584 
Q 3041 3584 3536 3087 
Q 4031 2591 4031 1759 
z
M 2881 2131 
Q 2881 2450 2695 2645 
Q 2509 2841 2209 2841 
Q 1884 2841 1681 2658 
Q 1478 2475 1428 2131 
L 2881 2131 
z
" transform="scale(0.015625)"/>
       <path id="DejaVuSans-Bold-20" transform="scale(0.015625)"/>
       <path id="DejaVuSans-Bold-5b" d="M 550 4863 
L 2491 4863 
L 2491 4159 
L 1613 4159 
L 1613 -141 
L 2491 -141 
L 2491 -844 
L 550 -844 
L 550 4863 
z
" transform="scale(0.015625)"/>
       <path id="DejaVuSans-Bold-68" d="M 4056 2131 
L 4056 0 
L 2931 0 
L 2931 347 
L 2931 1625 
Q 2931 2084 2911 2256 
Q 2891 2428 2841 2509 
Q 2775 2619 2662 2680 
Q 2550 2741 2406 2741 
Q 2056 2741 1856 2470 
Q 1656 2200 1656 1722 
L 1656 0 
L 538 0 
L 538 4863 
L 1656 4863 
L 1656 2988 
Q 1909 3294 2193 3439 
Q 2478 3584 2822 3584 
Q 3428 3584 3742 3212 
Q 4056 2841 4056 2131 
z
" transform="scale(0.015625)"/>
       <path id="DejaVuSans-Bold-72" d="M 3138 2547 
Q 2991 2616 2845 2648 
Q 2700 2681 2553 2681 
Q 2122 2681 1889 2404 
Q 1656 2128 1656 1613 
L 1656 0 
L 538 0 
L 538 3500 
L 1656 3500 
L 1656 2925 
Q 1872 3269 2151 3426 
Q 2431 3584 2822 3584 
Q 2878 3584 2943 3579 
Q 3009 3575 3134 3559 
L 3138 2547 
z
" transform="scale(0.015625)"/>
       <path id="DejaVuSans-Bold-5d" d="M 2375 -844 
L 434 -844 
L 434 -141 
L 1313 -141 
L 1313 4159 
L 434 4159 
L 434 4863 
L 2375 4863 
L 2375 -844 
z
" transform="scale(0.015625)"/>
      </defs>
      <use xlink:href="#DejaVuSans-Bold-74"/>
      <use xlink:href="#DejaVuSans-Bold-69" x="47.802734"/>
      <use xlink:href="#DejaVuSans-Bold-6d" x="82.080078"/>
      <use xlink:href="#DejaVuSans-Bold-65" x="186.279297"/>
      <use xlink:href="#DejaVuSans-Bold-20" x="254.101562"/>
      <use xlink:href="#DejaVuSans-Bold-5b" x="288.916016"/>
      <use xlink:href="#DejaVuSans-Bold-68" x="334.619141"/>
      <use xlink:href="#DejaVuSans-Bold-72" x="405.810547"/>
      <use xlink:href="#DejaVuSans-Bold-5d" x="455.126953"/>
     </g>
    </g>
   </g>
   <g id="matplotlib.axis_2">
    <g id="ytick_1">
     <g id="line2d_8">
      <defs>
       <path id="m63f36a6913" d="M 0 0 
L -3.5 0 
" style="stroke: #000000; stroke-width: 0.8"/>
      </defs>
      <g>
       <use xlink:href="#m63f36a6913" x="64.3925" y="307.8" style="stroke: #000000; stroke-width: 0.8"/>
      </g>
     </g>
     <g id="text_9">
      <!-- 0 -->
      <g transform="translate(47.84875 313.498828) scale(0.15 -0.15)">
       <use xlink:href="#DejaVuSans-30"/>
      </g>
     </g>
    </g>
    <g id="ytick_2">
     <g id="line2d_9">
      <g>
       <use xlink:href="#m63f36a6913" x="64.3925" y="268.831844" style="stroke: #000000; stroke-width: 0.8"/>
      </g>
     </g>
     <g id="text_10">
      <!-- 50 -->
      <g transform="translate(38.305 274.530672) scale(0.15 -0.15)">
       <defs>
        <path id="DejaVuSans-35" d="M 691 4666 
L 3169 4666 
L 3169 4134 
L 1269 4134 
L 1269 2991 
Q 1406 3038 1543 3061 
Q 1681 3084 1819 3084 
Q 2600 3084 3056 2656 
Q 3513 2228 3513 1497 
Q 3513 744 3044 326 
Q 2575 -91 1722 -91 
Q 1428 -91 1123 -41 
Q 819 9 494 109 
L 494 744 
Q 775 591 1075 516 
Q 1375 441 1709 441 
Q 2250 441 2565 725 
Q 2881 1009 2881 1497 
Q 2881 1984 2565 2268 
Q 2250 2553 1709 2553 
Q 1456 2553 1204 2497 
Q 953 2441 691 2322 
L 691 4666 
z
" transform="scale(0.015625)"/>
       </defs>
       <use xlink:href="#DejaVuSans-35"/>
       <use xlink:href="#DejaVuSans-30" x="63.623047"/>
      </g>
     </g>
    </g>
    <g id="ytick_3">
     <g id="line2d_10">
      <g>
       <use xlink:href="#m63f36a6913" x="64.3925" y="229.863687" style="stroke: #000000; stroke-width: 0.8"/>
      </g>
     </g>
     <g id="text_11">
      <!-- 100 -->
      <g transform="translate(28.76125 235.562515) scale(0.15 -0.15)">
       <use xlink:href="#DejaVuSans-31"/>
       <use xlink:href="#DejaVuSans-30" x="63.623047"/>
       <use xlink:href="#DejaVuSans-30" x="127.246094"/>
      </g>
     </g>
    </g>
    <g id="ytick_4">
     <g id="line2d_11">
      <g>
       <use xlink:href="#m63f36a6913" x="64.3925" y="190.895531" style="stroke: #000000; stroke-width: 0.8"/>
      </g>
     </g>
     <g id="text_12">
      <!-- 150 -->
      <g transform="translate(28.76125 196.594359) scale(0.15 -0.15)">
       <use xlink:href="#DejaVuSans-31"/>
       <use xlink:href="#DejaVuSans-35" x="63.623047"/>
       <use xlink:href="#DejaVuSans-30" x="127.246094"/>
      </g>
     </g>
    </g>
    <g id="ytick_5">
     <g id="line2d_12">
      <g>
       <use xlink:href="#m63f36a6913" x="64.3925" y="151.927375" style="stroke: #000000; stroke-width: 0.8"/>
      </g>
     </g>
     <g id="text_13">
      <!-- 200 -->
      <g transform="translate(28.76125 157.626203) scale(0.15 -0.15)">
       <use xlink:href="#DejaVuSans-32"/>
       <use xlink:href="#DejaVuSans-30" x="63.623047"/>
       <use xlink:href="#DejaVuSans-30" x="127.246094"/>
      </g>
     </g>
    </g>
    <g id="ytick_6">
     <g id="line2d_13">
      <g>
       <use xlink:href="#m63f36a6913" x="64.3925" y="112.959218" style="stroke: #000000; stroke-width: 0.8"/>
      </g>
     </g>
     <g id="text_14">
      <!-- 250 -->
      <g transform="translate(28.76125 118.658046) scale(0.15 -0.15)">
       <use xlink:href="#DejaVuSans-32"/>
       <use xlink:href="#DejaVuSans-35" x="63.623047"/>
       <use xlink:href="#DejaVuSans-30" x="127.246094"/>
      </g>
     </g>
    </g>
    <g id="ytick_7">
     <g id="line2d_14">
      <g>
       <use xlink:href="#m63f36a6913" x="64.3925" y="73.991062" style="stroke: #000000; stroke-width: 0.8"/>
      </g>
     </g>
     <g id="text_15">
      <!-- 300 -->
      <g transform="translate(28.76125 79.68989) scale(0.15 -0.15)">
       <defs>
        <path id="DejaVuSans-33" d="M 2597 2516 
Q 3050 2419 3304 2112 
Q 3559 1806 3559 1356 
Q 3559 666 3084 287 
Q 2609 -91 1734 -91 
Q 1441 -91 1130 -33 
Q 819 25 488 141 
L 488 750 
Q 750 597 1062 519 
Q 1375 441 1716 441 
Q 2309 441 2620 675 
Q 2931 909 2931 1356 
Q 2931 1769 2642 2001 
Q 2353 2234 1838 2234 
L 1294 2234 
L 1294 2753 
L 1863 2753 
Q 2328 2753 2575 2939 
Q 2822 3125 2822 3475 
Q 2822 3834 2567 4026 
Q 2313 4219 1838 4219 
Q 1578 4219 1281 4162 
Q 984 4106 628 3988 
L 628 4550 
Q 988 4650 1302 4700 
Q 1616 4750 1894 4750 
Q 2613 4750 3031 4423 
Q 3450 4097 3450 3541 
Q 3450 3153 3228 2886 
Q 3006 2619 2597 2516 
z
" transform="scale(0.015625)"/>
       </defs>
       <use xlink:href="#DejaVuSans-33"/>
       <use xlink:href="#DejaVuSans-30" x="63.623047"/>
       <use xlink:href="#DejaVuSans-30" x="127.246094"/>
      </g>
     </g>
    </g>
    <g id="text_16">
     <!-- UGE [g] -->
     <g transform="translate(20.877187 220.445156) rotate(-90) scale(0.18 -0.18)">
      <defs>
       <path id="DejaVuSans-Bold-55" d="M 588 4666 
L 1791 4666 
L 1791 1869 
Q 1791 1291 1980 1042 
Q 2169 794 2597 794 
Q 3028 794 3217 1042 
Q 3406 1291 3406 1869 
L 3406 4666 
L 4609 4666 
L 4609 1869 
Q 4609 878 4112 393 
Q 3616 -91 2597 -91 
Q 1581 -91 1084 393 
Q 588 878 588 1869 
L 588 4666 
z
" transform="scale(0.015625)"/>
       <path id="DejaVuSans-Bold-47" d="M 4781 347 
Q 4331 128 3847 18 
Q 3363 -91 2847 -91 
Q 1681 -91 1000 561 
Q 319 1213 319 2328 
Q 319 3456 1012 4103 
Q 1706 4750 2913 4750 
Q 3378 4750 3804 4662 
Q 4231 4575 4609 4403 
L 4609 3438 
Q 4219 3659 3833 3768 
Q 3447 3878 3059 3878 
Q 2341 3878 1952 3476 
Q 1563 3075 1563 2328 
Q 1563 1588 1938 1184 
Q 2313 781 3003 781 
Q 3191 781 3352 804 
Q 3513 828 3641 878 
L 3641 1784 
L 2906 1784 
L 2906 2591 
L 4781 2591 
L 4781 347 
z
" transform="scale(0.015625)"/>
       <path id="DejaVuSans-Bold-45" d="M 588 4666 
L 3834 4666 
L 3834 3756 
L 1791 3756 
L 1791 2888 
L 3713 2888 
L 3713 1978 
L 1791 1978 
L 1791 909 
L 3903 909 
L 3903 0 
L 588 0 
L 588 4666 
z
" transform="scale(0.015625)"/>
       <path id="DejaVuSans-Bold-67" d="M 2919 594 
Q 2688 288 2409 144 
Q 2131 0 1766 0 
Q 1125 0 706 504 
Q 288 1009 288 1791 
Q 288 2575 706 3076 
Q 1125 3578 1766 3578 
Q 2131 3578 2409 3434 
Q 2688 3291 2919 2981 
L 2919 3500 
L 4044 3500 
L 4044 353 
Q 4044 -491 3511 -936 
Q 2978 -1381 1966 -1381 
Q 1638 -1381 1331 -1331 
Q 1025 -1281 716 -1178 
L 716 -306 
Q 1009 -475 1290 -558 
Q 1572 -641 1856 -641 
Q 2406 -641 2662 -400 
Q 2919 -159 2919 353 
L 2919 594 
z
M 2181 2772 
Q 1834 2772 1640 2515 
Q 1447 2259 1447 1791 
Q 1447 1309 1634 1061 
Q 1822 813 2181 813 
Q 2531 813 2725 1069 
Q 2919 1325 2919 1791 
Q 2919 2259 2725 2515 
Q 2531 2772 2181 2772 
z
" transform="scale(0.015625)"/>
      </defs>
      <use xlink:href="#DejaVuSans-Bold-55"/>
      <use xlink:href="#DejaVuSans-Bold-47" x="81.201172"/>
      <use xlink:href="#DejaVuSans-Bold-45" x="163.28125"/>
      <use xlink:href="#DejaVuSans-Bold-20" x="231.591797"/>
      <use xlink:href="#DejaVuSans-Bold-5b" x="266.40625"/>
      <use xlink:href="#DejaVuSans-Bold-67" x="312.109375"/>
      <use xlink:href="#DejaVuSans-Bold-5d" x="383.691406"/>
     </g>
    </g>
   </g>
   <g id="line2d_15">
    <path d="M 82.147045 307.8 
L 437.237955 307.8 
L 437.237955 307.8 
" clip-path="url(#p17aaff221f)" style="fill: none; stroke: #000000; stroke-width: 2; stroke-linecap: square"/>
   </g>
   <g id="line2d_16">
    <path d="M 82.147045 307.8 
L 82.857227 307.707188 
L 84.277591 306.893295 
L 88.538682 304.354934 
L 91.024318 303.152128 
L 93.154864 302.372859 
L 94.930318 301.941602 
L 96.705773 301.733863 
L 99.901591 301.716356 
L 437.237955 301.716356 
L 437.237955 301.716356 
" clip-path="url(#p17aaff221f)" style="fill: none; stroke: #1f77b4; stroke-width: 2; stroke-linecap: square"/>
   </g>
   <g id="line2d_17">
    <path d="M 82.147045 307.8 
L 82.502136 307.784344 
L 83.212318 307.393714 
L 91.7345 301.786815 
L 94.220136 300.518506 
L 96.350682 299.67058 
L 98.126136 299.169419 
L 99.901591 298.876713 
L 101.677045 298.798283 
L 437.237955 298.798283 
L 437.237955 298.798283 
" clip-path="url(#p17aaff221f)" style="fill: none; stroke: #ff7f0e; stroke-width: 2; stroke-linecap: square"/>
   </g>
   <g id="line2d_18">
    <path d="M 82.147045 307.8 
L 82.502136 307.749476 
L 83.9225 306.760641 
L 91.024318 301.621118 
L 94.575227 299.348168 
L 97.060864 297.986943 
L 99.191409 297.030123 
L 101.321955 296.308908 
L 103.4525 295.848058 
L 105.583045 295.649662 
L 110.199227 295.638636 
L 437.237955 295.638636 
L 437.237955 295.638636 
" clip-path="url(#p17aaff221f)" style="fill: none; stroke: #2ca02c; stroke-width: 2; stroke-linecap: square"/>
   </g>
   <g id="line2d_19">
    <path d="M 82.147045 307.8 
L 82.502136 307.709112 
L 84.632682 306.112918 
L 92.444682 300.261877 
L 96.350682 297.583956 
L 99.5465 295.65378 
L 102.032136 294.390746 
L 104.517773 293.38458 
L 106.648318 292.740914 
L 109.133955 292.233008 
L 111.619591 291.948115 
L 114.815409 291.825229 
L 156.716136 291.824281 
L 437.237955 291.824281 
L 437.237955 291.824281 
" clip-path="url(#p17aaff221f)" style="fill: none; stroke: #d62728; stroke-width: 2; stroke-linecap: square"/>
   </g>
   <g id="line2d_20">
    <path d="M 82.147045 307.8 
L 82.502136 307.660437 
L 87.8285 303.526539 
L 95.995591 297.325047 
L 100.611773 294.076733 
L 104.162682 291.838404 
L 107.3585 290.086355 
L 110.554318 288.594946 
L 114.105227 287.195066 
L 118.721409 285.64288 
L 125.468136 283.636532 
L 138.6065 280.000688 
L 159.556864 274.433481 
L 181.217409 268.901978 
L 202.877955 263.598281 
L 224.5385 258.524674 
L 245.843955 253.760891 
L 267.149409 249.223981 
L 288.454864 244.915967 
L 309.405227 240.904855 
L 330.355591 237.118759 
L 351.305955 233.559408 
L 372.256318 230.228463 
L 392.851591 227.178147 
L 413.446864 224.351537 
L 434.042136 221.750003 
L 437.237955 221.366574 
L 437.237955 221.366574 
" clip-path="url(#p17aaff221f)" style="fill: none; stroke: #9467bd; stroke-width: 2; stroke-linecap: square"/>
   </g>
   <g id="line2d_21">
    <path d="M 82.147045 307.8 
L 82.857227 307.35738 
L 99.191409 294.743304 
L 104.162682 291.197289 
L 108.423773 288.423346 
L 112.684864 285.917554 
L 118.011227 283.06349 
L 126.533409 278.793132 
L 145.353227 269.671984 
L 172.340136 256.832284 
L 198.971955 244.405947 
L 225.248682 232.388064 
L 251.170318 220.773898 
L 277.091955 209.404376 
L 302.6585 198.435073 
L 327.869955 187.860528 
L 352.726318 177.675027 
L 377.227591 167.872615 
L 401.728864 158.310249 
L 425.875045 149.125347 
L 437.237955 144.886223 
L 437.237955 144.886223 
" clip-path="url(#p17aaff221f)" style="fill: none; stroke: #8c564b; stroke-width: 2; stroke-linecap: square"/>
   </g>
   <g id="line2d_22">
    <path d="M 82.147045 307.8 
L 82.857227 307.323355 
L 102.387227 292.10905 
L 109.133955 287.156703 
L 115.880682 282.491829 
L 126.8885 275.197329 
L 157.071227 255.539889 
L 196.131227 230.346602 
L 234.481045 205.875837 
L 271.765591 182.346698 
L 308.339955 159.526919 
L 344.204136 137.411425 
L 379.358136 115.994534 
L 413.801955 95.269957 
L 437.237955 81.320399 
L 437.237955 81.320399 
" clip-path="url(#p17aaff221f)" style="fill: none; stroke: #e377c2; stroke-width: 2; stroke-linecap: square"/>
   </g>
   <g id="line2d_23">
    <path d="M 82.147045 307.8 
L 83.212318 307.025294 
L 104.872864 290.078861 
L 113.750136 283.429845 
L 127.598682 273.394483 
L 173.405409 240.575332 
L 226.669045 202.669496 
L 278.157227 166.298677 
L 327.869955 131.451359 
L 376.162318 97.868509 
L 423.034318 65.541601 
L 437.237955 55.8 
L 437.237955 55.8 
" clip-path="url(#p17aaff221f)" style="fill: none; stroke: #7f7f7f; stroke-width: 2; stroke-linecap: square"/>
   </g>
   <g id="line2d_24">
    <path d="M 92.089591 306.960364 
L 104.872864 306.098198 
L 116.235773 306.12974 
L 127.598682 306.159781 
L 138.961591 306.191324 
L 150.3245 307.110567 
L 161.687409 307.14211 
L 173.050318 306.279944 
L 184.413227 307.200689 
L 195.776136 306.338523 
L 207.139045 307.259268 
L 218.501955 307.290811 
L 252.590682 306.487224 
L 286.679409 306.577346 
L 320.768136 306.664464 
L 354.856864 306.75008 
L 388.945591 306.841704 
L 423.034318 306.931825 
" clip-path="url(#p17aaff221f)" style="fill: none; stroke-dasharray: 3.7,1.6; stroke-dashoffset: 0; stroke: #000000"/>
    <defs>
     <path id="m2a4b0b0a42" d="M -3 3 
L 3 3 
L 3 -3 
L -3 -3 
z
" style="stroke: #000000; stroke-linejoin: miter"/>
    </defs>
    <g clip-path="url(#p17aaff221f)">
     <use xlink:href="#m2a4b0b0a42" x="92.089591" y="306.960364" style="stroke: #000000; stroke-linejoin: miter"/>
     <use xlink:href="#m2a4b0b0a42" x="104.872864" y="306.098198" style="stroke: #000000; stroke-linejoin: miter"/>
     <use xlink:href="#m2a4b0b0a42" x="116.235773" y="306.12974" style="stroke: #000000; stroke-linejoin: miter"/>
     <use xlink:href="#m2a4b0b0a42" x="127.598682" y="306.159781" style="stroke: #000000; stroke-linejoin: miter"/>
     <use xlink:href="#m2a4b0b0a42" x="138.961591" y="306.191324" style="stroke: #000000; stroke-linejoin: miter"/>
     <use xlink:href="#m2a4b0b0a42" x="150.3245" y="307.110567" style="stroke: #000000; stroke-linejoin: miter"/>
     <use xlink:href="#m2a4b0b0a42" x="161.687409" y="307.14211" style="stroke: #000000; stroke-linejoin: miter"/>
     <use xlink:href="#m2a4b0b0a42" x="173.050318" y="306.279944" style="stroke: #000000; stroke-linejoin: miter"/>
     <use xlink:href="#m2a4b0b0a42" x="184.413227" y="307.200689" style="stroke: #000000; stroke-linejoin: miter"/>
     <use xlink:href="#m2a4b0b0a42" x="195.776136" y="306.338523" style="stroke: #000000; stroke-linejoin: miter"/>
     <use xlink:href="#m2a4b0b0a42" x="207.139045" y="307.259268" style="stroke: #000000; stroke-linejoin: miter"/>
     <use xlink:href="#m2a4b0b0a42" x="218.501955" y="307.290811" style="stroke: #000000; stroke-linejoin: miter"/>
     <use xlink:href="#m2a4b0b0a42" x="252.590682" y="306.487224" style="stroke: #000000; stroke-linejoin: miter"/>
     <use xlink:href="#m2a4b0b0a42" x="286.679409" y="306.577346" style="stroke: #000000; stroke-linejoin: miter"/>
     <use xlink:href="#m2a4b0b0a42" x="320.768136" y="306.664464" style="stroke: #000000; stroke-linejoin: miter"/>
     <use xlink:href="#m2a4b0b0a42" x="354.856864" y="306.75008" style="stroke: #000000; stroke-linejoin: miter"/>
     <use xlink:href="#m2a4b0b0a42" x="388.945591" y="306.841704" style="stroke: #000000; stroke-linejoin: miter"/>
     <use xlink:href="#m2a4b0b0a42" x="423.034318" y="306.931825" style="stroke: #000000; stroke-linejoin: miter"/>
    </g>
   </g>
   <g id="line2d_25">
    <path d="M 92.089591 304.904978 
L 104.872864 299.039428 
L 116.235773 292.681245 
L 127.598682 289.271491 
L 138.961591 286.354369 
L 150.3245 283.437248 
L 161.687409 282.485132 
L 173.050318 282.518281 
L 184.413227 282.55143 
L 195.776136 282.584579 
L 207.139045 282.617728 
L 218.501955 282.650878 
L 252.590682 281.766901 
L 286.679409 282.847931 
L 320.768136 279.997107 
L 354.856864 280.092872 
L 388.945591 280.190477 
L 423.034318 281.273348 
" clip-path="url(#p17aaff221f)" style="fill: none; stroke-dasharray: 3.7,1.6; stroke-dashoffset: 0; stroke: #1f77b4"/>
    <defs>
     <path id="m6f5f6e705f" d="M -3 3 
L 3 3 
L 3 -3 
L -3 -3 
z
" style="stroke: #000000; stroke-linejoin: miter"/>
    </defs>
    <g clip-path="url(#p17aaff221f)">
     <use xlink:href="#m6f5f6e705f" x="92.089591" y="304.904978" style="fill: #1f77b4; stroke: #000000; stroke-linejoin: miter"/>
     <use xlink:href="#m6f5f6e705f" x="104.872864" y="299.039428" style="fill: #1f77b4; stroke: #000000; stroke-linejoin: miter"/>
     <use xlink:href="#m6f5f6e705f" x="116.235773" y="292.681245" style="fill: #1f77b4; stroke: #000000; stroke-linejoin: miter"/>
     <use xlink:href="#m6f5f6e705f" x="127.598682" y="289.271491" style="fill: #1f77b4; stroke: #000000; stroke-linejoin: miter"/>
     <use xlink:href="#m6f5f6e705f" x="138.961591" y="286.354369" style="fill: #1f77b4; stroke: #000000; stroke-linejoin: miter"/>
     <use xlink:href="#m6f5f6e705f" x="150.3245" y="283.437248" style="fill: #1f77b4; stroke: #000000; stroke-linejoin: miter"/>
     <use xlink:href="#m6f5f6e705f" x="161.687409" y="282.485132" style="fill: #1f77b4; stroke: #000000; stroke-linejoin: miter"/>
     <use xlink:href="#m6f5f6e705f" x="173.050318" y="282.518281" style="fill: #1f77b4; stroke: #000000; stroke-linejoin: miter"/>
     <use xlink:href="#m6f5f6e705f" x="184.413227" y="282.55143" style="fill: #1f77b4; stroke: #000000; stroke-linejoin: miter"/>
     <use xlink:href="#m6f5f6e705f" x="195.776136" y="282.584579" style="fill: #1f77b4; stroke: #000000; stroke-linejoin: miter"/>
     <use xlink:href="#m6f5f6e705f" x="207.139045" y="282.617728" style="fill: #1f77b4; stroke: #000000; stroke-linejoin: miter"/>
     <use xlink:href="#m6f5f6e705f" x="218.501955" y="282.650878" style="fill: #1f77b4; stroke: #000000; stroke-linejoin: miter"/>
     <use xlink:href="#m6f5f6e705f" x="252.590682" y="281.766901" style="fill: #1f77b4; stroke: #000000; stroke-linejoin: miter"/>
     <use xlink:href="#m6f5f6e705f" x="286.679409" y="282.847931" style="fill: #1f77b4; stroke: #000000; stroke-linejoin: miter"/>
     <use xlink:href="#m6f5f6e705f" x="320.768136" y="279.997107" style="fill: #1f77b4; stroke: #000000; stroke-linejoin: miter"/>
     <use xlink:href="#m6f5f6e705f" x="354.856864" y="280.092872" style="fill: #1f77b4; stroke: #000000; stroke-linejoin: miter"/>
     <use xlink:href="#m6f5f6e705f" x="388.945591" y="280.190477" style="fill: #1f77b4; stroke: #000000; stroke-linejoin: miter"/>
     <use xlink:href="#m6f5f6e705f" x="423.034318" y="281.273348" style="fill: #1f77b4; stroke: #000000; stroke-linejoin: miter"/>
    </g>
   </g>
   <g id="line2d_26">
    <path d="M 93.509955 303.429843 
L 104.872864 297.072581 
L 116.235773 289.238342 
L 127.598682 286.319379 
L 138.961591 283.404099 
L 150.3245 279.503554 
L 161.687409 279.044071 
L 173.050318 278.584587 
L 184.413227 278.615895 
L 195.776136 278.650885 
L 207.139045 278.684034 
L 218.501955 279.700607 
L 252.590682 278.814789 
L 286.679409 279.89766 
L 320.768136 278.028419 
L 354.856864 277.142601 
L 388.945591 279.207054 
L 423.034318 281.27519 
" clip-path="url(#p17aaff221f)" style="fill: none; stroke-dasharray: 3.7,1.6; stroke-dashoffset: 0; stroke: #ff7f0e"/>
    <defs>
     <path id="mb4851aeb44" d="M -3 3 
L 3 3 
L 3 -3 
L -3 -3 
z
" style="stroke: #000000; stroke-linejoin: miter"/>
    </defs>
    <g clip-path="url(#p17aaff221f)">
     <use xlink:href="#mb4851aeb44" x="93.509955" y="303.429843" style="fill: #ff7f0e; stroke: #000000; stroke-linejoin: miter"/>
     <use xlink:href="#mb4851aeb44" x="104.872864" y="297.072581" style="fill: #ff7f0e; stroke: #000000; stroke-linejoin: miter"/>
     <use xlink:href="#mb4851aeb44" x="116.235773" y="289.238342" style="fill: #ff7f0e; stroke: #000000; stroke-linejoin: miter"/>
     <use xlink:href="#mb4851aeb44" x="127.598682" y="286.319379" style="fill: #ff7f0e; stroke: #000000; stroke-linejoin: miter"/>
     <use xlink:href="#mb4851aeb44" x="138.961591" y="283.404099" style="fill: #ff7f0e; stroke: #000000; stroke-linejoin: miter"/>
     <use xlink:href="#mb4851aeb44" x="150.3245" y="279.503554" style="fill: #ff7f0e; stroke: #000000; stroke-linejoin: miter"/>
     <use xlink:href="#mb4851aeb44" x="161.687409" y="279.044071" style="fill: #ff7f0e; stroke: #000000; stroke-linejoin: miter"/>
     <use xlink:href="#mb4851aeb44" x="173.050318" y="278.584587" style="fill: #ff7f0e; stroke: #000000; stroke-linejoin: miter"/>
     <use xlink:href="#mb4851aeb44" x="184.413227" y="278.615895" style="fill: #ff7f0e; stroke: #000000; stroke-linejoin: miter"/>
     <use xlink:href="#mb4851aeb44" x="195.776136" y="278.650885" style="fill: #ff7f0e; stroke: #000000; stroke-linejoin: miter"/>
     <use xlink:href="#mb4851aeb44" x="207.139045" y="278.684034" style="fill: #ff7f0e; stroke: #000000; stroke-linejoin: miter"/>
     <use xlink:href="#mb4851aeb44" x="218.501955" y="279.700607" style="fill: #ff7f0e; stroke: #000000; stroke-linejoin: miter"/>
     <use xlink:href="#mb4851aeb44" x="252.590682" y="278.814789" style="fill: #ff7f0e; stroke: #000000; stroke-linejoin: miter"/>
     <use xlink:href="#mb4851aeb44" x="286.679409" y="279.89766" style="fill: #ff7f0e; stroke: #000000; stroke-linejoin: miter"/>
     <use xlink:href="#mb4851aeb44" x="320.768136" y="278.028419" style="fill: #ff7f0e; stroke: #000000; stroke-linejoin: miter"/>
     <use xlink:href="#mb4851aeb44" x="354.856864" y="277.142601" style="fill: #ff7f0e; stroke: #000000; stroke-linejoin: miter"/>
     <use xlink:href="#mb4851aeb44" x="388.945591" y="279.207054" style="fill: #ff7f0e; stroke: #000000; stroke-linejoin: miter"/>
     <use xlink:href="#mb4851aeb44" x="423.034318" y="281.27519" style="fill: #ff7f0e; stroke: #000000; stroke-linejoin: miter"/>
    </g>
   </g>
   <g id="line2d_27">
    <path d="M 93.509955 304.904978 
L 104.872864 293.138887 
L 116.235773 286.28623 
L 127.598682 279.435414 
L 138.961591 275.536711 
L 150.3245 266.719048 
L 161.687409 262.816662 
L 173.050318 258.916117 
L 184.413227 255.015572 
L 195.776136 250.133445 
L 207.139045 249.183171 
L 218.501955 250.197902 
L 252.590682 245.380232 
L 286.679409 244.496256 
L 320.768136 244.595703 
L 354.856864 242.722778 
L 388.945591 243.803808 
L 423.034318 244.886678 
" clip-path="url(#p17aaff221f)" style="fill: none; stroke-dasharray: 3.7,1.6; stroke-dashoffset: 0; stroke: #2ca02c"/>
    <defs>
     <path id="md538e52615" d="M -3 3 
L 3 3 
L 3 -3 
L -3 -3 
z
" style="stroke: #000000; stroke-linejoin: miter"/>
    </defs>
    <g clip-path="url(#p17aaff221f)">
     <use xlink:href="#md538e52615" x="93.509955" y="304.904978" style="fill: #2ca02c; stroke: #000000; stroke-linejoin: miter"/>
     <use xlink:href="#md538e52615" x="104.872864" y="293.138887" style="fill: #2ca02c; stroke: #000000; stroke-linejoin: miter"/>
     <use xlink:href="#md538e52615" x="116.235773" y="286.28623" style="fill: #2ca02c; stroke: #000000; stroke-linejoin: miter"/>
     <use xlink:href="#md538e52615" x="127.598682" y="279.435414" style="fill: #2ca02c; stroke: #000000; stroke-linejoin: miter"/>
     <use xlink:href="#md538e52615" x="138.961591" y="275.536711" style="fill: #2ca02c; stroke: #000000; stroke-linejoin: miter"/>
     <use xlink:href="#md538e52615" x="150.3245" y="266.719048" style="fill: #2ca02c; stroke: #000000; stroke-linejoin: miter"/>
     <use xlink:href="#md538e52615" x="161.687409" y="262.816662" style="fill: #2ca02c; stroke: #000000; stroke-linejoin: miter"/>
     <use xlink:href="#md538e52615" x="173.050318" y="258.916117" style="fill: #2ca02c; stroke: #000000; stroke-linejoin: miter"/>
     <use xlink:href="#md538e52615" x="184.413227" y="255.015572" style="fill: #2ca02c; stroke: #000000; stroke-linejoin: miter"/>
     <use xlink:href="#md538e52615" x="195.776136" y="250.133445" style="fill: #2ca02c; stroke: #000000; stroke-linejoin: miter"/>
     <use xlink:href="#md538e52615" x="207.139045" y="249.183171" style="fill: #2ca02c; stroke: #000000; stroke-linejoin: miter"/>
     <use xlink:href="#md538e52615" x="218.501955" y="250.197902" style="fill: #2ca02c; stroke: #000000; stroke-linejoin: miter"/>
     <use xlink:href="#md538e52615" x="252.590682" y="245.380232" style="fill: #2ca02c; stroke: #000000; stroke-linejoin: miter"/>
     <use xlink:href="#md538e52615" x="286.679409" y="244.496256" style="fill: #2ca02c; stroke: #000000; stroke-linejoin: miter"/>
     <use xlink:href="#md538e52615" x="320.768136" y="244.595703" style="fill: #2ca02c; stroke: #000000; stroke-linejoin: miter"/>
     <use xlink:href="#md538e52615" x="354.856864" y="242.722778" style="fill: #2ca02c; stroke: #000000; stroke-linejoin: miter"/>
     <use xlink:href="#md538e52615" x="388.945591" y="243.803808" style="fill: #2ca02c; stroke: #000000; stroke-linejoin: miter"/>
     <use xlink:href="#md538e52615" x="423.034318" y="244.886678" style="fill: #2ca02c; stroke: #000000; stroke-linejoin: miter"/>
    </g>
   </g>
   <g id="line2d_28">
    <path d="M 93.509955 303.921554 
L 104.872864 296.087316 
L 116.235773 288.254918 
L 127.598682 279.437256 
L 138.961591 273.569864 
L 150.3245 265.737467 
L 161.687409 261.83508 
L 173.050318 257.932694 
L 184.413227 255.997154 
L 195.776136 255.04688 
L 207.139045 255.08187 
L 218.501955 256.098443 
" clip-path="url(#p17aaff221f)" style="fill: none; stroke-dasharray: 3.7,1.6; stroke-dashoffset: 0; stroke: #d62728"/>
    <defs>
     <path id="mbb0f573dae" d="M -3 3 
L 3 3 
L 3 -3 
L -3 -3 
z
" style="stroke: #000000; stroke-linejoin: miter"/>
    </defs>
    <g clip-path="url(#p17aaff221f)">
     <use xlink:href="#mbb0f573dae" x="93.509955" y="303.921554" style="fill: #d62728; stroke: #000000; stroke-linejoin: miter"/>
     <use xlink:href="#mbb0f573dae" x="104.872864" y="296.087316" style="fill: #d62728; stroke: #000000; stroke-linejoin: miter"/>
     <use xlink:href="#mbb0f573dae" x="116.235773" y="288.254918" style="fill: #d62728; stroke: #000000; stroke-linejoin: miter"/>
     <use xlink:href="#mbb0f573dae" x="127.598682" y="279.437256" style="fill: #d62728; stroke: #000000; stroke-linejoin: miter"/>
     <use xlink:href="#mbb0f573dae" x="138.961591" y="273.569864" style="fill: #d62728; stroke: #000000; stroke-linejoin: miter"/>
     <use xlink:href="#mbb0f573dae" x="150.3245" y="265.737467" style="fill: #d62728; stroke: #000000; stroke-linejoin: miter"/>
     <use xlink:href="#mbb0f573dae" x="161.687409" y="261.83508" style="fill: #d62728; stroke: #000000; stroke-linejoin: miter"/>
     <use xlink:href="#mbb0f573dae" x="173.050318" y="257.932694" style="fill: #d62728; stroke: #000000; stroke-linejoin: miter"/>
     <use xlink:href="#mbb0f573dae" x="184.413227" y="255.997154" style="fill: #d62728; stroke: #000000; stroke-linejoin: miter"/>
     <use xlink:href="#mbb0f573dae" x="195.776136" y="255.04688" style="fill: #d62728; stroke: #000000; stroke-linejoin: miter"/>
     <use xlink:href="#mbb0f573dae" x="207.139045" y="255.08187" style="fill: #d62728; stroke: #000000; stroke-linejoin: miter"/>
     <use xlink:href="#mbb0f573dae" x="218.501955" y="256.098443" style="fill: #d62728; stroke: #000000; stroke-linejoin: miter"/>
    </g>
   </g>
   <g id="line2d_29">
    <path d="M 93.509955 302.939973 
L 104.872864 292.157305 
L 116.235773 282.847931 
L 127.598682 275.010008 
L 138.961591 268.650905 
L 150.3245 261.801931 
L 161.687409 255.932697 
L 173.050318 251.048729 
L 184.413227 246.656472 
L 195.776136 239.315787 
L 207.139045 236.396824 
L 218.501955 234.462205 
L 252.590682 224.726497 
L 286.679409 219.417115 
L 320.768136 216.07458 
L 354.856864 216.170344 
L 388.945591 213.809391 
L 423.034318 214.891341 
" clip-path="url(#p17aaff221f)" style="fill: none; stroke-dasharray: 3.7,1.6; stroke-dashoffset: 0; stroke: #9467bd"/>
    <defs>
     <path id="m8796861a2f" d="M -3 3 
L 3 3 
L 3 -3 
L -3 -3 
z
" style="stroke: #000000; stroke-linejoin: miter"/>
    </defs>
    <g clip-path="url(#p17aaff221f)">
     <use xlink:href="#m8796861a2f" x="93.509955" y="302.939973" style="fill: #9467bd; stroke: #000000; stroke-linejoin: miter"/>
     <use xlink:href="#m8796861a2f" x="104.872864" y="292.157305" style="fill: #9467bd; stroke: #000000; stroke-linejoin: miter"/>
     <use xlink:href="#m8796861a2f" x="116.235773" y="282.847931" style="fill: #9467bd; stroke: #000000; stroke-linejoin: miter"/>
     <use xlink:href="#m8796861a2f" x="127.598682" y="275.010008" style="fill: #9467bd; stroke: #000000; stroke-linejoin: miter"/>
     <use xlink:href="#m8796861a2f" x="138.961591" y="268.650905" style="fill: #9467bd; stroke: #000000; stroke-linejoin: miter"/>
     <use xlink:href="#m8796861a2f" x="150.3245" y="261.801931" style="fill: #9467bd; stroke: #000000; stroke-linejoin: miter"/>
     <use xlink:href="#m8796861a2f" x="161.687409" y="255.932697" style="fill: #9467bd; stroke: #000000; stroke-linejoin: miter"/>
     <use xlink:href="#m8796861a2f" x="173.050318" y="251.048729" style="fill: #9467bd; stroke: #000000; stroke-linejoin: miter"/>
     <use xlink:href="#m8796861a2f" x="184.413227" y="246.656472" style="fill: #9467bd; stroke: #000000; stroke-linejoin: miter"/>
     <use xlink:href="#m8796861a2f" x="195.776136" y="239.315787" style="fill: #9467bd; stroke: #000000; stroke-linejoin: miter"/>
     <use xlink:href="#m8796861a2f" x="207.139045" y="236.396824" style="fill: #9467bd; stroke: #000000; stroke-linejoin: miter"/>
     <use xlink:href="#m8796861a2f" x="218.501955" y="234.462205" style="fill: #9467bd; stroke: #000000; stroke-linejoin: miter"/>
     <use xlink:href="#m8796861a2f" x="252.590682" y="224.726497" style="fill: #9467bd; stroke: #000000; stroke-linejoin: miter"/>
     <use xlink:href="#m8796861a2f" x="286.679409" y="219.417115" style="fill: #9467bd; stroke: #000000; stroke-linejoin: miter"/>
     <use xlink:href="#m8796861a2f" x="320.768136" y="216.07458" style="fill: #9467bd; stroke: #000000; stroke-linejoin: miter"/>
     <use xlink:href="#m8796861a2f" x="354.856864" y="216.170344" style="fill: #9467bd; stroke: #000000; stroke-linejoin: miter"/>
     <use xlink:href="#m8796861a2f" x="388.945591" y="213.809391" style="fill: #9467bd; stroke: #000000; stroke-linejoin: miter"/>
     <use xlink:href="#m8796861a2f" x="423.034318" y="214.891341" style="fill: #9467bd; stroke: #000000; stroke-linejoin: miter"/>
    </g>
   </g>
   <g id="line2d_30">
    <path d="M 93.509955 300.971284 
L 104.872864 289.203351 
L 116.235773 277.43726 
L 127.598682 268.619597 
L 138.961591 259.800093 
L 150.3245 250.982431 
L 161.687409 243.148192 
L 173.050318 233.838818 
L 184.413227 225.021155 
L 195.776136 218.17034 
L 207.139045 214.269795 
L 218.501955 207.418059 
L 252.590682 184.900607 
L 286.679409 172.214628 
L 320.768136 160.512993 
L 354.856864 158.149278 
L 388.945591 154.312269 
L 423.034318 156.380405 
" clip-path="url(#p17aaff221f)" style="fill: none; stroke-dasharray: 3.7,1.6; stroke-dashoffset: 0; stroke: #8c564b"/>
    <defs>
     <path id="m959bd60223" d="M -3 3 
L 3 3 
L 3 -3 
L -3 -3 
z
" style="stroke: #000000; stroke-linejoin: miter"/>
    </defs>
    <g clip-path="url(#p17aaff221f)">
     <use xlink:href="#m959bd60223" x="93.509955" y="300.971284" style="fill: #8c564b; stroke: #000000; stroke-linejoin: miter"/>
     <use xlink:href="#m959bd60223" x="104.872864" y="289.203351" style="fill: #8c564b; stroke: #000000; stroke-linejoin: miter"/>
     <use xlink:href="#m959bd60223" x="116.235773" y="277.43726" style="fill: #8c564b; stroke: #000000; stroke-linejoin: miter"/>
     <use xlink:href="#m959bd60223" x="127.598682" y="268.619597" style="fill: #8c564b; stroke: #000000; stroke-linejoin: miter"/>
     <use xlink:href="#m959bd60223" x="138.961591" y="259.800093" style="fill: #8c564b; stroke: #000000; stroke-linejoin: miter"/>
     <use xlink:href="#m959bd60223" x="150.3245" y="250.982431" style="fill: #8c564b; stroke: #000000; stroke-linejoin: miter"/>
     <use xlink:href="#m959bd60223" x="161.687409" y="243.148192" style="fill: #8c564b; stroke: #000000; stroke-linejoin: miter"/>
     <use xlink:href="#m959bd60223" x="173.050318" y="233.838818" style="fill: #8c564b; stroke: #000000; stroke-linejoin: miter"/>
     <use xlink:href="#m959bd60223" x="184.413227" y="225.021155" style="fill: #8c564b; stroke: #000000; stroke-linejoin: miter"/>
     <use xlink:href="#m959bd60223" x="195.776136" y="218.17034" style="fill: #8c564b; stroke: #000000; stroke-linejoin: miter"/>
     <use xlink:href="#m959bd60223" x="207.139045" y="214.269795" style="fill: #8c564b; stroke: #000000; stroke-linejoin: miter"/>
     <use xlink:href="#m959bd60223" x="218.501955" y="207.418059" style="fill: #8c564b; stroke: #000000; stroke-linejoin: miter"/>
     <use xlink:href="#m959bd60223" x="252.590682" y="184.900607" style="fill: #8c564b; stroke: #000000; stroke-linejoin: miter"/>
     <use xlink:href="#m959bd60223" x="286.679409" y="172.214628" style="fill: #8c564b; stroke: #000000; stroke-linejoin: miter"/>
     <use xlink:href="#m959bd60223" x="320.768136" y="160.512993" style="fill: #8c564b; stroke: #000000; stroke-linejoin: miter"/>
     <use xlink:href="#m959bd60223" x="354.856864" y="158.149278" style="fill: #8c564b; stroke: #000000; stroke-linejoin: miter"/>
     <use xlink:href="#m959bd60223" x="388.945591" y="154.312269" style="fill: #8c564b; stroke: #000000; stroke-linejoin: miter"/>
     <use xlink:href="#m959bd60223" x="423.034318" y="156.380405" style="fill: #8c564b; stroke: #000000; stroke-linejoin: miter"/>
    </g>
   </g>
   <g id="line2d_31">
    <path d="M 93.509955 299.006279 
L 104.872864 287.236504 
L 116.235773 279.404107 
L 127.598682 268.617756 
L 138.961591 260.783517 
L 150.3245 250.984272 
L 161.687409 242.164768 
L 173.050318 232.363682 
L 184.413227 224.52576 
L 195.776136 215.711781 
L 207.139045 207.877542 
L 218.501955 196.111451 
L 252.590682 172.606892 
L 286.679409 156.972485 
L 320.768136 141.336235 
L 354.856864 136.024091 
L 388.945591 131.69537 
L 423.034318 129.336258 
" clip-path="url(#p17aaff221f)" style="fill: none; stroke-dasharray: 3.7,1.6; stroke-dashoffset: 0; stroke: #e377c2"/>
    <defs>
     <path id="m373d1f794c" d="M -3 3 
L 3 3 
L 3 -3 
L -3 -3 
z
" style="stroke: #000000; stroke-linejoin: miter"/>
    </defs>
    <g clip-path="url(#p17aaff221f)">
     <use xlink:href="#m373d1f794c" x="93.509955" y="299.006279" style="fill: #e377c2; stroke: #000000; stroke-linejoin: miter"/>
     <use xlink:href="#m373d1f794c" x="104.872864" y="287.236504" style="fill: #e377c2; stroke: #000000; stroke-linejoin: miter"/>
     <use xlink:href="#m373d1f794c" x="116.235773" y="279.404107" style="fill: #e377c2; stroke: #000000; stroke-linejoin: miter"/>
     <use xlink:href="#m373d1f794c" x="127.598682" y="268.617756" style="fill: #e377c2; stroke: #000000; stroke-linejoin: miter"/>
     <use xlink:href="#m373d1f794c" x="138.961591" y="260.783517" style="fill: #e377c2; stroke: #000000; stroke-linejoin: miter"/>
     <use xlink:href="#m373d1f794c" x="150.3245" y="250.984272" style="fill: #e377c2; stroke: #000000; stroke-linejoin: miter"/>
     <use xlink:href="#m373d1f794c" x="161.687409" y="242.164768" style="fill: #e377c2; stroke: #000000; stroke-linejoin: miter"/>
     <use xlink:href="#m373d1f794c" x="173.050318" y="232.363682" style="fill: #e377c2; stroke: #000000; stroke-linejoin: miter"/>
     <use xlink:href="#m373d1f794c" x="184.413227" y="224.52576" style="fill: #e377c2; stroke: #000000; stroke-linejoin: miter"/>
     <use xlink:href="#m373d1f794c" x="195.776136" y="215.711781" style="fill: #e377c2; stroke: #000000; stroke-linejoin: miter"/>
     <use xlink:href="#m373d1f794c" x="207.139045" y="207.877542" style="fill: #e377c2; stroke: #000000; stroke-linejoin: miter"/>
     <use xlink:href="#m373d1f794c" x="218.501955" y="196.111451" style="fill: #e377c2; stroke: #000000; stroke-linejoin: miter"/>
     <use xlink:href="#m373d1f794c" x="252.590682" y="172.606892" style="fill: #e377c2; stroke: #000000; stroke-linejoin: miter"/>
     <use xlink:href="#m373d1f794c" x="286.679409" y="156.972485" style="fill: #e377c2; stroke: #000000; stroke-linejoin: miter"/>
     <use xlink:href="#m373d1f794c" x="320.768136" y="141.336235" style="fill: #e377c2; stroke: #000000; stroke-linejoin: miter"/>
     <use xlink:href="#m373d1f794c" x="354.856864" y="136.024091" style="fill: #e377c2; stroke: #000000; stroke-linejoin: miter"/>
     <use xlink:href="#m373d1f794c" x="388.945591" y="131.69537" style="fill: #e377c2; stroke: #000000; stroke-linejoin: miter"/>
     <use xlink:href="#m373d1f794c" x="423.034318" y="129.336258" style="fill: #e377c2; stroke: #000000; stroke-linejoin: miter"/>
    </g>
   </g>
   <g id="line2d_32">
    <path d="M 93.509955 297.03759 
L 104.872864 285.271499 
L 116.235773 276.451995 
L 127.598682 266.650909 
L 138.961591 257.831405 
L 150.3245 249.015584 
L 161.687409 239.214498 
L 173.050318 231.378417 
L 184.413227 221.57549 
L 195.776136 212.759669 
L 207.139045 203.942007 
L 218.501955 195.124344 
L 252.590682 163.264369 
L 286.679409 141.236788 
L 320.768136 119.700918 
L 354.856864 104.061906 
L 388.945591 85.473544 
L 423.034318 70.82256 
" clip-path="url(#p17aaff221f)" style="fill: none; stroke-dasharray: 3.7,1.6; stroke-dashoffset: 0; stroke: #7f7f7f"/>
    <defs>
     <path id="m4102bc015b" d="M -3 3 
L 3 3 
L 3 -3 
L -3 -3 
z
" style="stroke: #000000; stroke-linejoin: miter"/>
    </defs>
    <g clip-path="url(#p17aaff221f)">
     <use xlink:href="#m4102bc015b" x="93.509955" y="297.03759" style="fill: #7f7f7f; stroke: #000000; stroke-linejoin: miter"/>
     <use xlink:href="#m4102bc015b" x="104.872864" y="285.271499" style="fill: #7f7f7f; stroke: #000000; stroke-linejoin: miter"/>
     <use xlink:href="#m4102bc015b" x="116.235773" y="276.451995" style="fill: #7f7f7f; stroke: #000000; stroke-linejoin: miter"/>
     <use xlink:href="#m4102bc015b" x="127.598682" y="266.650909" style="fill: #7f7f7f; stroke: #000000; stroke-linejoin: miter"/>
     <use xlink:href="#m4102bc015b" x="138.961591" y="257.831405" style="fill: #7f7f7f; stroke: #000000; stroke-linejoin: miter"/>
     <use xlink:href="#m4102bc015b" x="150.3245" y="249.015584" style="fill: #7f7f7f; stroke: #000000; stroke-linejoin: miter"/>
     <use xlink:href="#m4102bc015b" x="161.687409" y="239.214498" style="fill: #7f7f7f; stroke: #000000; stroke-linejoin: miter"/>
     <use xlink:href="#m4102bc015b" x="173.050318" y="231.378417" style="fill: #7f7f7f; stroke: #000000; stroke-linejoin: miter"/>
     <use xlink:href="#m4102bc015b" x="184.413227" y="221.57549" style="fill: #7f7f7f; stroke: #000000; stroke-linejoin: miter"/>
     <use xlink:href="#m4102bc015b" x="195.776136" y="212.759669" style="fill: #7f7f7f; stroke: #000000; stroke-linejoin: miter"/>
     <use xlink:href="#m4102bc015b" x="207.139045" y="203.942007" style="fill: #7f7f7f; stroke: #000000; stroke-linejoin: miter"/>
     <use xlink:href="#m4102bc015b" x="218.501955" y="195.124344" style="fill: #7f7f7f; stroke: #000000; stroke-linejoin: miter"/>
     <use xlink:href="#m4102bc015b" x="252.590682" y="163.264369" style="fill: #7f7f7f; stroke: #000000; stroke-linejoin: miter"/>
     <use xlink:href="#m4102bc015b" x="286.679409" y="141.236788" style="fill: #7f7f7f; stroke: #000000; stroke-linejoin: miter"/>
     <use xlink:href="#m4102bc015b" x="320.768136" y="119.700918" style="fill: #7f7f7f; stroke: #000000; stroke-linejoin: miter"/>
     <use xlink:href="#m4102bc015b" x="354.856864" y="104.061906" style="fill: #7f7f7f; stroke: #000000; stroke-linejoin: miter"/>
     <use xlink:href="#m4102bc015b" x="388.945591" y="85.473544" style="fill: #7f7f7f; stroke: #000000; stroke-linejoin: miter"/>
     <use xlink:href="#m4102bc015b" x="423.034318" y="70.82256" style="fill: #7f7f7f; stroke: #000000; stroke-linejoin: miter"/>
    </g>
   </g>
   <g id="patch_3">
    <path d="M 64.3925 320.4 
L 64.3925 43.2 
" style="fill: none; stroke: #000000; stroke-width: 0.8; stroke-linejoin: miter; stroke-linecap: square"/>
   </g>
   <g id="patch_4">
    <path d="M 454.9925 320.4 
L 454.9925 43.2 
" style="fill: none; stroke: #000000; stroke-width: 0.8; stroke-linejoin: miter; stroke-linecap: square"/>
   </g>
   <g id="patch_5">
    <path d="M 64.3925 320.4 
L 454.9925 320.4 
" style="fill: none; stroke: #000000; stroke-width: 0.8; stroke-linejoin: miter; stroke-linecap: square"/>
   </g>
   <g id="patch_6">
    <path d="M 64.3925 43.2 
L 454.9925 43.2 
" style="fill: none; stroke: #000000; stroke-width: 0.8; stroke-linejoin: miter; stroke-linecap: square"/>
   </g>
  </g>
  <g id="text_17">
   <!-- Komoroski2009 -->
   <g transform="translate(144.146406 26.196094) scale(0.25 -0.25)">
    <defs>
     <path id="DejaVuSans-Bold-4b" d="M 588 4666 
L 1791 4666 
L 1791 2963 
L 3525 4666 
L 4922 4666 
L 2675 2456 
L 5153 0 
L 3647 0 
L 1791 1838 
L 1791 0 
L 588 0 
L 588 4666 
z
" transform="scale(0.015625)"/>
     <path id="DejaVuSans-Bold-6f" d="M 2203 2784 
Q 1831 2784 1636 2517 
Q 1441 2250 1441 1747 
Q 1441 1244 1636 976 
Q 1831 709 2203 709 
Q 2569 709 2762 976 
Q 2956 1244 2956 1747 
Q 2956 2250 2762 2517 
Q 2569 2784 2203 2784 
z
M 2203 3584 
Q 3106 3584 3614 3096 
Q 4122 2609 4122 1747 
Q 4122 884 3614 396 
Q 3106 -91 2203 -91 
Q 1297 -91 786 396 
Q 275 884 275 1747 
Q 275 2609 786 3096 
Q 1297 3584 2203 3584 
z
" transform="scale(0.015625)"/>
     <path id="DejaVuSans-Bold-73" d="M 3272 3391 
L 3272 2541 
Q 2913 2691 2578 2766 
Q 2244 2841 1947 2841 
Q 1628 2841 1473 2761 
Q 1319 2681 1319 2516 
Q 1319 2381 1436 2309 
Q 1553 2238 1856 2203 
L 2053 2175 
Q 2913 2066 3209 1816 
Q 3506 1566 3506 1031 
Q 3506 472 3093 190 
Q 2681 -91 1863 -91 
Q 1516 -91 1145 -36 
Q 775 19 384 128 
L 384 978 
Q 719 816 1070 734 
Q 1422 653 1784 653 
Q 2113 653 2278 743 
Q 2444 834 2444 1013 
Q 2444 1163 2330 1236 
Q 2216 1309 1875 1350 
L 1678 1375 
Q 931 1469 631 1722 
Q 331 1975 331 2491 
Q 331 3047 712 3315 
Q 1094 3584 1881 3584 
Q 2191 3584 2531 3537 
Q 2872 3491 3272 3391 
z
" transform="scale(0.015625)"/>
     <path id="DejaVuSans-Bold-6b" d="M 538 4863 
L 1656 4863 
L 1656 2216 
L 2944 3500 
L 4244 3500 
L 2534 1894 
L 4378 0 
L 3022 0 
L 1656 1459 
L 1656 0 
L 538 0 
L 538 4863 
z
" transform="scale(0.015625)"/>
     <path id="DejaVuSans-Bold-32" d="M 1844 884 
L 3897 884 
L 3897 0 
L 506 0 
L 506 884 
L 2209 2388 
Q 2438 2594 2547 2791 
Q 2656 2988 2656 3200 
Q 2656 3528 2436 3728 
Q 2216 3928 1850 3928 
Q 1569 3928 1234 3808 
Q 900 3688 519 3450 
L 519 4475 
Q 925 4609 1322 4679 
Q 1719 4750 2100 4750 
Q 2938 4750 3402 4381 
Q 3866 4013 3866 3353 
Q 3866 2972 3669 2642 
Q 3472 2313 2841 1759 
L 1844 884 
z
" transform="scale(0.015625)"/>
     <path id="DejaVuSans-Bold-30" d="M 2944 2338 
Q 2944 3213 2780 3570 
Q 2616 3928 2228 3928 
Q 1841 3928 1675 3570 
Q 1509 3213 1509 2338 
Q 1509 1453 1675 1090 
Q 1841 728 2228 728 
Q 2613 728 2778 1090 
Q 2944 1453 2944 2338 
z
M 4147 2328 
Q 4147 1169 3647 539 
Q 3147 -91 2228 -91 
Q 1306 -91 806 539 
Q 306 1169 306 2328 
Q 306 3491 806 4120 
Q 1306 4750 2228 4750 
Q 3147 4750 3647 4120 
Q 4147 3491 4147 2328 
z
" transform="scale(0.015625)"/>
     <path id="DejaVuSans-Bold-39" d="M 641 103 
L 641 966 
Q 928 831 1190 764 
Q 1453 697 1709 697 
Q 2247 697 2547 995 
Q 2847 1294 2900 1881 
Q 2688 1725 2447 1647 
Q 2206 1569 1925 1569 
Q 1209 1569 770 1986 
Q 331 2403 331 3084 
Q 331 3838 820 4291 
Q 1309 4744 2131 4744 
Q 3044 4744 3544 4128 
Q 4044 3513 4044 2388 
Q 4044 1231 3459 570 
Q 2875 -91 1856 -91 
Q 1528 -91 1228 -42 
Q 928 6 641 103 
z
M 2125 2350 
Q 2441 2350 2600 2554 
Q 2759 2759 2759 3169 
Q 2759 3575 2600 3781 
Q 2441 3988 2125 3988 
Q 1809 3988 1650 3781 
Q 1491 3575 1491 3169 
Q 1491 2759 1650 2554 
Q 1809 2350 2125 2350 
z
" transform="scale(0.015625)"/>
    </defs>
    <use xlink:href="#DejaVuSans-Bold-4b"/>
    <use xlink:href="#DejaVuSans-Bold-6f" x="75.740234"/>
    <use xlink:href="#DejaVuSans-Bold-6d" x="144.441406"/>
    <use xlink:href="#DejaVuSans-Bold-6f" x="248.640625"/>
    <use xlink:href="#DejaVuSans-Bold-72" x="317.341797"/>
    <use xlink:href="#DejaVuSans-Bold-6f" x="366.658203"/>
    <use xlink:href="#DejaVuSans-Bold-73" x="435.359375"/>
    <use xlink:href="#DejaVuSans-Bold-6b" x="494.880859"/>
    <use xlink:href="#DejaVuSans-Bold-69" x="561.384766"/>
    <use xlink:href="#DejaVuSans-Bold-32" x="595.662109"/>
    <use xlink:href="#DejaVuSans-Bold-30" x="665.242188"/>
    <use xlink:href="#DejaVuSans-Bold-30" x="734.822266"/>
    <use xlink:href="#DejaVuSans-Bold-39" x="804.402344"/>
   </g>
  </g>
 </g>
 <defs>
  <clipPath id="p17aaff221f">
   <rect x="64.3925" y="43.2" width="390.6" height="277.2"/>
  </clipPath>
 </defs>
</svg>
