<?xml version="1.0" encoding="utf-8" standalone="no"?>
<!DOCTYPE svg PUBLIC "-//W3C//DTD SVG 1.1//EN"
  "http://www.w3.org/Graphics/SVG/1.1/DTD/svg11.dtd">
<svg xmlns:xlink="http://www.w3.org/1999/xlink" width="466.959688pt" height="683.737812pt" viewBox="0 0 466.959688 683.737812" xmlns="http://www.w3.org/2000/svg" version="1.1">
 <metadata>
  <rdf:RDF xmlns:dc="http://purl.org/dc/elements/1.1/" xmlns:cc="http://creativecommons.org/ns#" xmlns:rdf="http://www.w3.org/1999/02/22-rdf-syntax-ns#">
   <cc:Work>
    <dc:type rdf:resource="http://purl.org/dc/dcmitype/StillImage"/>
    <dc:date>2025-03-19T16:41:38.049170</dc:date>
    <dc:format>image/svg+xml</dc:format>
    <dc:creator>
     <cc:Agent>
      <dc:title>Matplotlib v3.9.1, https://matplotlib.org/</dc:title>
     </cc:Agent>
    </dc:creator>
   </cc:Work>
  </rdf:RDF>
 </metadata>
 <defs>
  <style type="text/css">*{stroke-linejoin: round; stroke-linecap: butt}</style>
 </defs>
 <g id="figure_1">
  <g id="patch_1">
   <path d="M 0 683.737812 
L 466.959688 683.737812 
L 466.959688 0 
L 0 0 
z
" style="fill: #ffffff"/>
  </g>
  <g id="axes_1">
   <g id="patch_2">
    <path d="M 59.615938 320.243478 
L 450.215937 320.243478 
L 450.215937 79.2 
L 59.615938 79.2 
z
" style="fill: #ffffff"/>
   </g>
   <g id="matplotlib.axis_1">
    <g id="xtick_1">
     <g id="line2d_1">
      <defs>
       <path id="m271e3db970" d="M 0 0 
L 0 3.5 
" style="stroke: #000000; stroke-width: 0.8"/>
      </defs>
      <g>
       <use xlink:href="#m271e3db970" x="95.125028" y="320.243478" style="stroke: #000000; stroke-width: 0.8"/>
      </g>
     </g>
     <g id="text_1">
      <!-- 0 -->
      <g transform="translate(90.353153 338.641135) scale(0.15 -0.15)">
       <defs>
        <path id="DejaVuSans-30" d="M 2034 4250 
Q 1547 4250 1301 3770 
Q 1056 3291 1056 2328 
Q 1056 1369 1301 889 
Q 1547 409 2034 409 
Q 2525 409 2770 889 
Q 3016 1369 3016 2328 
Q 3016 3291 2770 3770 
Q 2525 4250 2034 4250 
z
M 2034 4750 
Q 2819 4750 3233 4129 
Q 3647 3509 3647 2328 
Q 3647 1150 3233 529 
Q 2819 -91 2034 -91 
Q 1250 -91 836 529 
Q 422 1150 422 2328 
Q 422 3509 836 4129 
Q 1250 4750 2034 4750 
z
" transform="scale(0.015625)"/>
       </defs>
       <use xlink:href="#DejaVuSans-30"/>
      </g>
     </g>
    </g>
    <g id="xtick_2">
     <g id="line2d_2">
      <g>
       <use xlink:href="#m271e3db970" x="154.306847" y="320.243478" style="stroke: #000000; stroke-width: 0.8"/>
      </g>
     </g>
     <g id="text_2">
      <!-- 5 -->
      <g transform="translate(149.534972 338.641135) scale(0.15 -0.15)">
       <defs>
        <path id="DejaVuSans-35" d="M 691 4666 
L 3169 4666 
L 3169 4134 
L 1269 4134 
L 1269 2991 
Q 1406 3038 1543 3061 
Q 1681 3084 1819 3084 
Q 2600 3084 3056 2656 
Q 3513 2228 3513 1497 
Q 3513 744 3044 326 
Q 2575 -91 1722 -91 
Q 1428 -91 1123 -41 
Q 819 9 494 109 
L 494 744 
Q 775 591 1075 516 
Q 1375 441 1709 441 
Q 2250 441 2565 725 
Q 2881 1009 2881 1497 
Q 2881 1984 2565 2268 
Q 2250 2553 1709 2553 
Q 1456 2553 1204 2497 
Q 953 2441 691 2322 
L 691 4666 
z
" transform="scale(0.015625)"/>
       </defs>
       <use xlink:href="#DejaVuSans-35"/>
      </g>
     </g>
    </g>
    <g id="xtick_3">
     <g id="line2d_3">
      <g>
       <use xlink:href="#m271e3db970" x="213.488665" y="320.243478" style="stroke: #000000; stroke-width: 0.8"/>
      </g>
     </g>
     <g id="text_3">
      <!-- 10 -->
      <g transform="translate(203.944915 338.641135) scale(0.15 -0.15)">
       <defs>
        <path id="DejaVuSans-31" d="M 794 531 
L 1825 531 
L 1825 4091 
L 703 3866 
L 703 4441 
L 1819 4666 
L 2450 4666 
L 2450 531 
L 3481 531 
L 3481 0 
L 794 0 
L 794 531 
z
" transform="scale(0.015625)"/>
       </defs>
       <use xlink:href="#DejaVuSans-31"/>
       <use xlink:href="#DejaVuSans-30" x="63.623047"/>
      </g>
     </g>
    </g>
    <g id="xtick_4">
     <g id="line2d_4">
      <g>
       <use xlink:href="#m271e3db970" x="272.670483" y="320.243478" style="stroke: #000000; stroke-width: 0.8"/>
      </g>
     </g>
     <g id="text_4">
      <!-- 15 -->
      <g transform="translate(263.126733 338.641135) scale(0.15 -0.15)">
       <use xlink:href="#DejaVuSans-31"/>
       <use xlink:href="#DejaVuSans-35" x="63.623047"/>
      </g>
     </g>
    </g>
    <g id="xtick_5">
     <g id="line2d_5">
      <g>
       <use xlink:href="#m271e3db970" x="331.852301" y="320.243478" style="stroke: #000000; stroke-width: 0.8"/>
      </g>
     </g>
     <g id="text_5">
      <!-- 20 -->
      <g transform="translate(322.308551 338.641135) scale(0.15 -0.15)">
       <defs>
        <path id="DejaVuSans-32" d="M 1228 531 
L 3431 531 
L 3431 0 
L 469 0 
L 469 531 
Q 828 903 1448 1529 
Q 2069 2156 2228 2338 
Q 2531 2678 2651 2914 
Q 2772 3150 2772 3378 
Q 2772 3750 2511 3984 
Q 2250 4219 1831 4219 
Q 1534 4219 1204 4116 
Q 875 4013 500 3803 
L 500 4441 
Q 881 4594 1212 4672 
Q 1544 4750 1819 4750 
Q 2544 4750 2975 4387 
Q 3406 4025 3406 3419 
Q 3406 3131 3298 2873 
Q 3191 2616 2906 2266 
Q 2828 2175 2409 1742 
Q 1991 1309 1228 531 
z
" transform="scale(0.015625)"/>
       </defs>
       <use xlink:href="#DejaVuSans-32"/>
       <use xlink:href="#DejaVuSans-30" x="63.623047"/>
      </g>
     </g>
    </g>
    <g id="xtick_6">
     <g id="line2d_6">
      <g>
       <use xlink:href="#m271e3db970" x="391.034119" y="320.243478" style="stroke: #000000; stroke-width: 0.8"/>
      </g>
     </g>
     <g id="text_6">
      <!-- 25 -->
      <g transform="translate(381.490369 338.641135) scale(0.15 -0.15)">
       <use xlink:href="#DejaVuSans-32"/>
       <use xlink:href="#DejaVuSans-35" x="63.623047"/>
      </g>
     </g>
    </g>
    <g id="xtick_7">
     <g id="line2d_7">
      <g>
       <use xlink:href="#m271e3db970" x="450.215938" y="320.243478" style="stroke: #000000; stroke-width: 0.8"/>
      </g>
     </g>
     <g id="text_7">
      <!-- 30 -->
      <g transform="translate(440.672188 338.641135) scale(0.15 -0.15)">
       <defs>
        <path id="DejaVuSans-33" d="M 2597 2516 
Q 3050 2419 3304 2112 
Q 3559 1806 3559 1356 
Q 3559 666 3084 287 
Q 2609 -91 1734 -91 
Q 1441 -91 1130 -33 
Q 819 25 488 141 
L 488 750 
Q 750 597 1062 519 
Q 1375 441 1716 441 
Q 2309 441 2620 675 
Q 2931 909 2931 1356 
Q 2931 1769 2642 2001 
Q 2353 2234 1838 2234 
L 1294 2234 
L 1294 2753 
L 1863 2753 
Q 2328 2753 2575 2939 
Q 2822 3125 2822 3475 
Q 2822 3834 2567 4026 
Q 2313 4219 1838 4219 
Q 1578 4219 1281 4162 
Q 984 4106 628 3988 
L 628 4550 
Q 988 4650 1302 4700 
Q 1616 4750 1894 4750 
Q 2613 4750 3031 4423 
Q 3450 4097 3450 3541 
Q 3450 3153 3228 2886 
Q 3006 2619 2597 2516 
z
" transform="scale(0.015625)"/>
       </defs>
       <use xlink:href="#DejaVuSans-33"/>
       <use xlink:href="#DejaVuSans-30" x="63.623047"/>
      </g>
     </g>
    </g>
    <g id="text_8">
     <!-- time [hr] -->
     <g transform="translate(209.841406 359.437853) scale(0.18 -0.18)">
      <defs>
       <path id="DejaVuSans-Bold-74" d="M 1759 4494 
L 1759 3500 
L 2913 3500 
L 2913 2700 
L 1759 2700 
L 1759 1216 
Q 1759 972 1856 886 
Q 1953 800 2241 800 
L 2816 800 
L 2816 0 
L 1856 0 
Q 1194 0 917 276 
Q 641 553 641 1216 
L 641 2700 
L 84 2700 
L 84 3500 
L 641 3500 
L 641 4494 
L 1759 4494 
z
" transform="scale(0.015625)"/>
       <path id="DejaVuSans-Bold-69" d="M 538 3500 
L 1656 3500 
L 1656 0 
L 538 0 
L 538 3500 
z
M 538 4863 
L 1656 4863 
L 1656 3950 
L 538 3950 
L 538 4863 
z
" transform="scale(0.015625)"/>
       <path id="DejaVuSans-Bold-6d" d="M 3781 2919 
Q 3994 3244 4286 3414 
Q 4578 3584 4928 3584 
Q 5531 3584 5847 3212 
Q 6163 2841 6163 2131 
L 6163 0 
L 5038 0 
L 5038 1825 
Q 5041 1866 5042 1909 
Q 5044 1953 5044 2034 
Q 5044 2406 4934 2573 
Q 4825 2741 4581 2741 
Q 4263 2741 4089 2478 
Q 3916 2216 3909 1719 
L 3909 0 
L 2784 0 
L 2784 1825 
Q 2784 2406 2684 2573 
Q 2584 2741 2328 2741 
Q 2006 2741 1831 2477 
Q 1656 2213 1656 1722 
L 1656 0 
L 531 0 
L 531 3500 
L 1656 3500 
L 1656 2988 
Q 1863 3284 2130 3434 
Q 2397 3584 2719 3584 
Q 3081 3584 3359 3409 
Q 3638 3234 3781 2919 
z
" transform="scale(0.015625)"/>
       <path id="DejaVuSans-Bold-65" d="M 4031 1759 
L 4031 1441 
L 1416 1441 
Q 1456 1047 1700 850 
Q 1944 653 2381 653 
Q 2734 653 3104 758 
Q 3475 863 3866 1075 
L 3866 213 
Q 3469 63 3072 -14 
Q 2675 -91 2278 -91 
Q 1328 -91 801 392 
Q 275 875 275 1747 
Q 275 2603 792 3093 
Q 1309 3584 2216 3584 
Q 3041 3584 3536 3087 
Q 4031 2591 4031 1759 
z
M 2881 2131 
Q 2881 2450 2695 2645 
Q 2509 2841 2209 2841 
Q 1884 2841 1681 2658 
Q 1478 2475 1428 2131 
L 2881 2131 
z
" transform="scale(0.015625)"/>
       <path id="DejaVuSans-Bold-20" transform="scale(0.015625)"/>
       <path id="DejaVuSans-Bold-5b" d="M 550 4863 
L 2491 4863 
L 2491 4159 
L 1613 4159 
L 1613 -141 
L 2491 -141 
L 2491 -844 
L 550 -844 
L 550 4863 
z
" transform="scale(0.015625)"/>
       <path id="DejaVuSans-Bold-68" d="M 4056 2131 
L 4056 0 
L 2931 0 
L 2931 347 
L 2931 1625 
Q 2931 2084 2911 2256 
Q 2891 2428 2841 2509 
Q 2775 2619 2662 2680 
Q 2550 2741 2406 2741 
Q 2056 2741 1856 2470 
Q 1656 2200 1656 1722 
L 1656 0 
L 538 0 
L 538 4863 
L 1656 4863 
L 1656 2988 
Q 1909 3294 2193 3439 
Q 2478 3584 2822 3584 
Q 3428 3584 3742 3212 
Q 4056 2841 4056 2131 
z
" transform="scale(0.015625)"/>
       <path id="DejaVuSans-Bold-72" d="M 3138 2547 
Q 2991 2616 2845 2648 
Q 2700 2681 2553 2681 
Q 2122 2681 1889 2404 
Q 1656 2128 1656 1613 
L 1656 0 
L 538 0 
L 538 3500 
L 1656 3500 
L 1656 2925 
Q 1872 3269 2151 3426 
Q 2431 3584 2822 3584 
Q 2878 3584 2943 3579 
Q 3009 3575 3134 3559 
L 3138 2547 
z
" transform="scale(0.015625)"/>
       <path id="DejaVuSans-Bold-5d" d="M 2375 -844 
L 434 -844 
L 434 -141 
L 1313 -141 
L 1313 4159 
L 434 4159 
L 434 4863 
L 2375 4863 
L 2375 -844 
z
" transform="scale(0.015625)"/>
      </defs>
      <use xlink:href="#DejaVuSans-Bold-74"/>
      <use xlink:href="#DejaVuSans-Bold-69" x="47.802734"/>
      <use xlink:href="#DejaVuSans-Bold-6d" x="82.080078"/>
      <use xlink:href="#DejaVuSans-Bold-65" x="186.279297"/>
      <use xlink:href="#DejaVuSans-Bold-20" x="254.101562"/>
      <use xlink:href="#DejaVuSans-Bold-5b" x="288.916016"/>
      <use xlink:href="#DejaVuSans-Bold-68" x="334.619141"/>
      <use xlink:href="#DejaVuSans-Bold-72" x="405.810547"/>
      <use xlink:href="#DejaVuSans-Bold-5d" x="455.126953"/>
     </g>
    </g>
   </g>
   <g id="matplotlib.axis_2">
    <g id="ytick_1">
     <g id="line2d_8">
      <defs>
       <path id="m0e85dd32ef" d="M 0 0 
L -3.5 0 
" style="stroke: #000000; stroke-width: 0.8"/>
      </defs>
      <g>
       <use xlink:href="#m0e85dd32ef" x="59.615938" y="309.286957" style="stroke: #000000; stroke-width: 0.8"/>
      </g>
     </g>
     <g id="text_9">
      <!-- 0.0 -->
      <g transform="translate(28.76125 314.985785) scale(0.15 -0.15)">
       <defs>
        <path id="DejaVuSans-2e" d="M 684 794 
L 1344 794 
L 1344 0 
L 684 0 
L 684 794 
z
" transform="scale(0.015625)"/>
       </defs>
       <use xlink:href="#DejaVuSans-30"/>
       <use xlink:href="#DejaVuSans-2e" x="63.623047"/>
       <use xlink:href="#DejaVuSans-30" x="95.410156"/>
      </g>
     </g>
    </g>
    <g id="ytick_2">
     <g id="line2d_9">
      <g>
       <use xlink:href="#m0e85dd32ef" x="59.615938" y="270.551711" style="stroke: #000000; stroke-width: 0.8"/>
      </g>
     </g>
     <g id="text_10">
      <!-- 0.5 -->
      <g transform="translate(28.76125 276.250539) scale(0.15 -0.15)">
       <use xlink:href="#DejaVuSans-30"/>
       <use xlink:href="#DejaVuSans-2e" x="63.623047"/>
       <use xlink:href="#DejaVuSans-35" x="95.410156"/>
      </g>
     </g>
    </g>
    <g id="ytick_3">
     <g id="line2d_10">
      <g>
       <use xlink:href="#m0e85dd32ef" x="59.615938" y="231.816466" style="stroke: #000000; stroke-width: 0.8"/>
      </g>
     </g>
     <g id="text_11">
      <!-- 1.0 -->
      <g transform="translate(28.76125 237.515294) scale(0.15 -0.15)">
       <use xlink:href="#DejaVuSans-31"/>
       <use xlink:href="#DejaVuSans-2e" x="63.623047"/>
       <use xlink:href="#DejaVuSans-30" x="95.410156"/>
      </g>
     </g>
    </g>
    <g id="ytick_4">
     <g id="line2d_11">
      <g>
       <use xlink:href="#m0e85dd32ef" x="59.615938" y="193.081221" style="stroke: #000000; stroke-width: 0.8"/>
      </g>
     </g>
     <g id="text_12">
      <!-- 1.5 -->
      <g transform="translate(28.76125 198.780049) scale(0.15 -0.15)">
       <use xlink:href="#DejaVuSans-31"/>
       <use xlink:href="#DejaVuSans-2e" x="63.623047"/>
       <use xlink:href="#DejaVuSans-35" x="95.410156"/>
      </g>
     </g>
    </g>
    <g id="ytick_5">
     <g id="line2d_12">
      <g>
       <use xlink:href="#m0e85dd32ef" x="59.615938" y="154.345976" style="stroke: #000000; stroke-width: 0.8"/>
      </g>
     </g>
     <g id="text_13">
      <!-- 2.0 -->
      <g transform="translate(28.76125 160.044804) scale(0.15 -0.15)">
       <use xlink:href="#DejaVuSans-32"/>
       <use xlink:href="#DejaVuSans-2e" x="63.623047"/>
       <use xlink:href="#DejaVuSans-30" x="95.410156"/>
      </g>
     </g>
    </g>
    <g id="ytick_6">
     <g id="line2d_13">
      <g>
       <use xlink:href="#m0e85dd32ef" x="59.615938" y="115.610731" style="stroke: #000000; stroke-width: 0.8"/>
      </g>
     </g>
     <g id="text_14">
      <!-- 2.5 -->
      <g transform="translate(28.76125 121.309559) scale(0.15 -0.15)">
       <use xlink:href="#DejaVuSans-32"/>
       <use xlink:href="#DejaVuSans-2e" x="63.623047"/>
       <use xlink:href="#DejaVuSans-35" x="95.410156"/>
      </g>
     </g>
    </g>
    <g id="text_15">
     <!-- dapagliflozin plasma [µM] -->
     <g transform="translate(20.877187 331.760177) rotate(-90) scale(0.18 -0.18)">
      <defs>
       <path id="DejaVuSans-Bold-64" d="M 2919 2988 
L 2919 4863 
L 4044 4863 
L 4044 0 
L 2919 0 
L 2919 506 
Q 2688 197 2409 53 
Q 2131 -91 1766 -91 
Q 1119 -91 703 423 
Q 288 938 288 1747 
Q 288 2556 703 3070 
Q 1119 3584 1766 3584 
Q 2128 3584 2408 3439 
Q 2688 3294 2919 2988 
z
M 2181 722 
Q 2541 722 2730 984 
Q 2919 1247 2919 1747 
Q 2919 2247 2730 2509 
Q 2541 2772 2181 2772 
Q 1825 2772 1636 2509 
Q 1447 2247 1447 1747 
Q 1447 1247 1636 984 
Q 1825 722 2181 722 
z
" transform="scale(0.015625)"/>
       <path id="DejaVuSans-Bold-61" d="M 2106 1575 
Q 1756 1575 1579 1456 
Q 1403 1338 1403 1106 
Q 1403 894 1545 773 
Q 1688 653 1941 653 
Q 2256 653 2472 879 
Q 2688 1106 2688 1447 
L 2688 1575 
L 2106 1575 
z
M 3816 1997 
L 3816 0 
L 2688 0 
L 2688 519 
Q 2463 200 2181 54 
Q 1900 -91 1497 -91 
Q 953 -91 614 226 
Q 275 544 275 1050 
Q 275 1666 698 1953 
Q 1122 2241 2028 2241 
L 2688 2241 
L 2688 2328 
Q 2688 2594 2478 2717 
Q 2269 2841 1825 2841 
Q 1466 2841 1156 2769 
Q 847 2697 581 2553 
L 581 3406 
Q 941 3494 1303 3539 
Q 1666 3584 2028 3584 
Q 2975 3584 3395 3211 
Q 3816 2838 3816 1997 
z
" transform="scale(0.015625)"/>
       <path id="DejaVuSans-Bold-70" d="M 1656 506 
L 1656 -1331 
L 538 -1331 
L 538 3500 
L 1656 3500 
L 1656 2988 
Q 1888 3294 2169 3439 
Q 2450 3584 2816 3584 
Q 3463 3584 3878 3070 
Q 4294 2556 4294 1747 
Q 4294 938 3878 423 
Q 3463 -91 2816 -91 
Q 2450 -91 2169 54 
Q 1888 200 1656 506 
z
M 2400 2772 
Q 2041 2772 1848 2508 
Q 1656 2244 1656 1747 
Q 1656 1250 1848 986 
Q 2041 722 2400 722 
Q 2759 722 2948 984 
Q 3138 1247 3138 1747 
Q 3138 2247 2948 2509 
Q 2759 2772 2400 2772 
z
" transform="scale(0.015625)"/>
       <path id="DejaVuSans-Bold-67" d="M 2919 594 
Q 2688 288 2409 144 
Q 2131 0 1766 0 
Q 1125 0 706 504 
Q 288 1009 288 1791 
Q 288 2575 706 3076 
Q 1125 3578 1766 3578 
Q 2131 3578 2409 3434 
Q 2688 3291 2919 2981 
L 2919 3500 
L 4044 3500 
L 4044 353 
Q 4044 -491 3511 -936 
Q 2978 -1381 1966 -1381 
Q 1638 -1381 1331 -1331 
Q 1025 -1281 716 -1178 
L 716 -306 
Q 1009 -475 1290 -558 
Q 1572 -641 1856 -641 
Q 2406 -641 2662 -400 
Q 2919 -159 2919 353 
L 2919 594 
z
M 2181 2772 
Q 1834 2772 1640 2515 
Q 1447 2259 1447 1791 
Q 1447 1309 1634 1061 
Q 1822 813 2181 813 
Q 2531 813 2725 1069 
Q 2919 1325 2919 1791 
Q 2919 2259 2725 2515 
Q 2531 2772 2181 2772 
z
" transform="scale(0.015625)"/>
       <path id="DejaVuSans-Bold-6c" d="M 538 4863 
L 1656 4863 
L 1656 0 
L 538 0 
L 538 4863 
z
" transform="scale(0.015625)"/>
       <path id="DejaVuSans-Bold-66" d="M 2841 4863 
L 2841 4128 
L 2222 4128 
Q 1984 4128 1890 4042 
Q 1797 3956 1797 3744 
L 1797 3500 
L 2753 3500 
L 2753 2700 
L 1797 2700 
L 1797 0 
L 678 0 
L 678 2700 
L 122 2700 
L 122 3500 
L 678 3500 
L 678 3744 
Q 678 4316 997 4589 
Q 1316 4863 1984 4863 
L 2841 4863 
z
" transform="scale(0.015625)"/>
       <path id="DejaVuSans-Bold-6f" d="M 2203 2784 
Q 1831 2784 1636 2517 
Q 1441 2250 1441 1747 
Q 1441 1244 1636 976 
Q 1831 709 2203 709 
Q 2569 709 2762 976 
Q 2956 1244 2956 1747 
Q 2956 2250 2762 2517 
Q 2569 2784 2203 2784 
z
M 2203 3584 
Q 3106 3584 3614 3096 
Q 4122 2609 4122 1747 
Q 4122 884 3614 396 
Q 3106 -91 2203 -91 
Q 1297 -91 786 396 
Q 275 884 275 1747 
Q 275 2609 786 3096 
Q 1297 3584 2203 3584 
z
" transform="scale(0.015625)"/>
       <path id="DejaVuSans-Bold-7a" d="M 366 3500 
L 3419 3500 
L 3419 2719 
L 1575 800 
L 3419 800 
L 3419 0 
L 288 0 
L 288 781 
L 2131 2700 
L 366 2700 
L 366 3500 
z
" transform="scale(0.015625)"/>
       <path id="DejaVuSans-Bold-6e" d="M 4056 2131 
L 4056 0 
L 2931 0 
L 2931 347 
L 2931 1631 
Q 2931 2084 2911 2256 
Q 2891 2428 2841 2509 
Q 2775 2619 2662 2680 
Q 2550 2741 2406 2741 
Q 2056 2741 1856 2470 
Q 1656 2200 1656 1722 
L 1656 0 
L 538 0 
L 538 3500 
L 1656 3500 
L 1656 2988 
Q 1909 3294 2193 3439 
Q 2478 3584 2822 3584 
Q 3428 3584 3742 3212 
Q 4056 2841 4056 2131 
z
" transform="scale(0.015625)"/>
       <path id="DejaVuSans-Bold-73" d="M 3272 3391 
L 3272 2541 
Q 2913 2691 2578 2766 
Q 2244 2841 1947 2841 
Q 1628 2841 1473 2761 
Q 1319 2681 1319 2516 
Q 1319 2381 1436 2309 
Q 1553 2238 1856 2203 
L 2053 2175 
Q 2913 2066 3209 1816 
Q 3506 1566 3506 1031 
Q 3506 472 3093 190 
Q 2681 -91 1863 -91 
Q 1516 -91 1145 -36 
Q 775 19 384 128 
L 384 978 
Q 719 816 1070 734 
Q 1422 653 1784 653 
Q 2113 653 2278 743 
Q 2444 834 2444 1013 
Q 2444 1163 2330 1236 
Q 2216 1309 1875 1350 
L 1678 1375 
Q 931 1469 631 1722 
Q 331 1975 331 2491 
Q 331 3047 712 3315 
Q 1094 3584 1881 3584 
Q 2191 3584 2531 3537 
Q 2872 3491 3272 3391 
z
" transform="scale(0.015625)"/>
       <path id="DejaVuSans-Bold-b5" d="M 544 -1338 
L 544 3500 
L 1672 3500 
L 1672 1466 
Q 1672 1103 1828 926 
Q 1984 750 2303 750 
Q 2625 750 2781 926 
Q 2938 1103 2938 1466 
L 2938 3500 
L 4063 3500 
L 4063 1159 
Q 4063 938 4114 850 
Q 4166 763 4288 763 
Q 4344 763 4395 778 
Q 4447 794 4506 831 
L 4506 50 
Q 4341 -22 4195 -56 
Q 4050 -91 3909 -91 
Q 3631 -91 3454 26 
Q 3278 144 3169 403 
Q 3022 156 2811 32 
Q 2600 -91 2322 -91 
Q 2091 -91 1928 -17 
Q 1766 56 1672 206 
L 1672 -1338 
L 544 -1338 
z
" transform="scale(0.015625)"/>
       <path id="DejaVuSans-Bold-4d" d="M 588 4666 
L 2119 4666 
L 3181 2169 
L 4250 4666 
L 5778 4666 
L 5778 0 
L 4641 0 
L 4641 3413 
L 3566 897 
L 2803 897 
L 1728 3413 
L 1728 0 
L 588 0 
L 588 4666 
z
" transform="scale(0.015625)"/>
      </defs>
      <use xlink:href="#DejaVuSans-Bold-64"/>
      <use xlink:href="#DejaVuSans-Bold-61" x="71.582031"/>
      <use xlink:href="#DejaVuSans-Bold-70" x="139.0625"/>
      <use xlink:href="#DejaVuSans-Bold-61" x="210.644531"/>
      <use xlink:href="#DejaVuSans-Bold-67" x="278.125"/>
      <use xlink:href="#DejaVuSans-Bold-6c" x="349.707031"/>
      <use xlink:href="#DejaVuSans-Bold-69" x="383.984375"/>
      <use xlink:href="#DejaVuSans-Bold-66" x="418.261719"/>
      <use xlink:href="#DejaVuSans-Bold-6c" x="461.767578"/>
      <use xlink:href="#DejaVuSans-Bold-6f" x="496.044922"/>
      <use xlink:href="#DejaVuSans-Bold-7a" x="564.746094"/>
      <use xlink:href="#DejaVuSans-Bold-69" x="622.949219"/>
      <use xlink:href="#DejaVuSans-Bold-6e" x="657.226562"/>
      <use xlink:href="#DejaVuSans-Bold-20" x="728.417969"/>
      <use xlink:href="#DejaVuSans-Bold-70" x="763.232422"/>
      <use xlink:href="#DejaVuSans-Bold-6c" x="834.814453"/>
      <use xlink:href="#DejaVuSans-Bold-61" x="869.091797"/>
      <use xlink:href="#DejaVuSans-Bold-73" x="936.572266"/>
      <use xlink:href="#DejaVuSans-Bold-6d" x="996.09375"/>
      <use xlink:href="#DejaVuSans-Bold-61" x="1100.292969"/>
      <use xlink:href="#DejaVuSans-Bold-20" x="1167.773438"/>
      <use xlink:href="#DejaVuSans-Bold-5b" x="1202.587891"/>
      <use xlink:href="#DejaVuSans-Bold-b5" x="1248.291016"/>
      <use xlink:href="#DejaVuSans-Bold-4d" x="1321.875"/>
      <use xlink:href="#DejaVuSans-Bold-5d" x="1421.386719"/>
     </g>
    </g>
   </g>
   <g id="LineCollection_1">
    <path d="M 99.512252 309.112023 
L 99.512252 308.977972 
" clip-path="url(#p980af7d497)" style="fill: none; stroke: #1f77b4"/>
    <path d="M 100.609058 306.744703 
L 100.609058 305.259958 
" clip-path="url(#p980af7d497)" style="fill: none; stroke: #1f77b4"/>
    <path d="M 107.189893 305.916617 
L 107.189893 302.98215 
" clip-path="url(#p980af7d497)" style="fill: none; stroke: #1f77b4"/>
    <path d="M 114.867535 306.548131 
L 114.867535 304.449384 
" clip-path="url(#p980af7d497)" style="fill: none; stroke: #1f77b4"/>
    <path d="M 118.157952 307.255191 
L 118.157952 306.068584 
" clip-path="url(#p980af7d497)" style="fill: none; stroke: #1f77b4"/>
    <path d="M 143.384488 308.317314 
L 143.384488 307.709702 
" clip-path="url(#p980af7d497)" style="fill: none; stroke: #1f77b4"/>
    <path d="M 166.417412 308.547867 
L 166.417412 308.051842 
" clip-path="url(#p980af7d497)" style="fill: none; stroke: #1f77b4"/>
    <path d="M 190.547141 308.742512 
L 190.547141 308.377119 
" clip-path="url(#p980af7d497)" style="fill: none; stroke: #1f77b4"/>
    <path d="M 213.580065 308.872377 
L 213.580065 308.630251 
" clip-path="url(#p980af7d497)" style="fill: none; stroke: #1f77b4"/>
    <path clip-path="url(#p980af7d497)" style="fill: none; stroke: #1f77b4"/>
    <path clip-path="url(#p980af7d497)" style="fill: none; stroke: #1f77b4"/>
    <path d="M 308.453775 309.09437 
L 308.453775 308.965119 
" clip-path="url(#p980af7d497)" style="fill: none; stroke: #1f77b4"/>
    <path clip-path="url(#p980af7d497)" style="fill: none; stroke: #1f77b4"/>
    <path clip-path="url(#p980af7d497)" style="fill: none; stroke: #1f77b4"/>
   </g>
   <g id="LineCollection_2">
    <path d="M 97.31864 308.927488 
L 97.31864 308.717548 
" clip-path="url(#p980af7d497)" style="fill: none; stroke: #2ca02c"/>
    <path d="M 98.415446 300.039075 
L 98.415446 293.832551 
" clip-path="url(#p980af7d497)" style="fill: none; stroke: #2ca02c"/>
    <path d="M 109.931908 295.491627 
L 109.931908 287.434776 
" clip-path="url(#p980af7d497)" style="fill: none; stroke: #2ca02c"/>
    <path d="M 118.157952 299.530557 
L 118.157952 293.832551 
" clip-path="url(#p980af7d497)" style="fill: none; stroke: #2ca02c"/>
    <path d="M 141.739279 304.724716 
L 141.739279 301.865858 
" clip-path="url(#p980af7d497)" style="fill: none; stroke: #2ca02c"/>
    <path d="M 165.869009 306.353394 
L 165.869009 304.248162 
" clip-path="url(#p980af7d497)" style="fill: none; stroke: #2ca02c"/>
    <path d="M 188.901933 307.037273 
L 188.901933 305.723396 
" clip-path="url(#p980af7d497)" style="fill: none; stroke: #2ca02c"/>
    <path d="M 212.483259 307.595629 
L 212.483259 306.607848 
" clip-path="url(#p980af7d497)" style="fill: none; stroke: #2ca02c"/>
    <path clip-path="url(#p980af7d497)" style="fill: none; stroke: #2ca02c"/>
    <path d="M 259.645913 308.191212 
L 259.645913 307.504581 
" clip-path="url(#p980af7d497)" style="fill: none; stroke: #2ca02c"/>
    <path d="M 306.808566 308.542966 
L 306.808566 308.076755 
" clip-path="url(#p980af7d497)" style="fill: none; stroke: #2ca02c"/>
    <path clip-path="url(#p980af7d497)" style="fill: none; stroke: #2ca02c"/>
    <path clip-path="url(#p980af7d497)" style="fill: none; stroke: #2ca02c"/>
   </g>
   <g id="LineCollection_3">
    <path d="M 96.221834 309.146421 
L 96.221834 309.007902 
" clip-path="url(#p980af7d497)" style="fill: none; stroke: #d62728"/>
    <path d="M 106.093087 275.900957 
L 106.093087 253.494637 
" clip-path="url(#p980af7d497)" style="fill: none; stroke: #d62728"/>
    <path d="M 112.673923 285.593412 
L 112.673923 273.65135 
" clip-path="url(#p980af7d497)" style="fill: none; stroke: #d62728"/>
    <path d="M 119.254758 294.32011 
L 119.254758 285.579061 
" clip-path="url(#p980af7d497)" style="fill: none; stroke: #d62728"/>
    <path d="M 142.287682 301.799488 
L 142.287682 298.577677 
" clip-path="url(#p980af7d497)" style="fill: none; stroke: #d62728"/>
    <path d="M 165.320606 304.478028 
L 165.320606 301.865858 
" clip-path="url(#p980af7d497)" style="fill: none; stroke: #d62728"/>
    <path d="M 189.450336 306.128235 
L 189.450336 303.707725 
" clip-path="url(#p980af7d497)" style="fill: none; stroke: #d62728"/>
    <path d="M 213.031662 307.479812 
L 213.031662 303.820261 
" clip-path="url(#p980af7d497)" style="fill: none; stroke: #d62728"/>
    <path d="M 237.161392 307.641352 
L 237.161392 306.380334 
" clip-path="url(#p980af7d497)" style="fill: none; stroke: #d62728"/>
    <path d="M 260.194316 307.988347 
L 260.194316 306.259432 
" clip-path="url(#p980af7d497)" style="fill: none; stroke: #d62728"/>
    <path d="M 306.808566 308.192158 
L 306.808566 307.353219 
" clip-path="url(#p980af7d497)" style="fill: none; stroke: #d62728"/>
    <path d="M 353.97122 308.524351 
L 353.97122 307.772689 
" clip-path="url(#p980af7d497)" style="fill: none; stroke: #d62728"/>
    <path d="M 379.197756 308.652754 
L 379.197756 307.946955 
" clip-path="url(#p980af7d497)" style="fill: none; stroke: #d62728"/>
   </g>
   <g id="LineCollection_4">
    <path clip-path="url(#p980af7d497)" style="fill: none; stroke: #9467bd"/>
    <path d="M 104.996281 249.848839 
L 104.996281 175.286773 
" clip-path="url(#p980af7d497)" style="fill: none; stroke: #9467bd"/>
    <path d="M 111.028714 256.441459 
L 111.028714 204.354291 
" clip-path="url(#p980af7d497)" style="fill: none; stroke: #9467bd"/>
    <path d="M 119.254758 267.904783 
L 119.254758 227.116441 
" clip-path="url(#p980af7d497)" style="fill: none; stroke: #9467bd"/>
    <path d="M 141.739279 290.612229 
L 141.739279 269.829241 
" clip-path="url(#p980af7d497)" style="fill: none; stroke: #9467bd"/>
    <path d="M 165.320606 297.362631 
L 165.320606 278.388467 
" clip-path="url(#p980af7d497)" style="fill: none; stroke: #9467bd"/>
    <path d="M 188.35353 299.676712 
L 188.35353 291.822718 
" clip-path="url(#p980af7d497)" style="fill: none; stroke: #9467bd"/>
    <path d="M 213.031662 304.290704 
L 213.031662 295.329557 
" clip-path="url(#p980af7d497)" style="fill: none; stroke: #9467bd"/>
    <path d="M 237.161392 304.536669 
L 237.161392 298.577677 
" clip-path="url(#p980af7d497)" style="fill: none; stroke: #9467bd"/>
    <path d="M 259.645913 305.628569 
L 259.645913 301.557173 
" clip-path="url(#p980af7d497)" style="fill: none; stroke: #9467bd"/>
    <path d="M 306.808566 306.831836 
L 306.808566 303.930528 
" clip-path="url(#p980af7d497)" style="fill: none; stroke: #9467bd"/>
    <path d="M 353.97122 307.320284 
L 353.97122 305.259958 
" clip-path="url(#p980af7d497)" style="fill: none; stroke: #9467bd"/>
    <path d="M 379.197756 307.606635 
L 379.197756 305.498757 
" clip-path="url(#p980af7d497)" style="fill: none; stroke: #9467bd"/>
   </g>
   <g id="LineCollection_5">
    <path d="M 97.31864 308.946401 
L 97.31864 308.465251 
" clip-path="url(#p980af7d497)" style="fill: none; stroke: #8c564b"/>
    <path d="M 104.996281 214.312926 
L 104.996281 95.172881 
" clip-path="url(#p980af7d497)" style="fill: none; stroke: #8c564b"/>
    <path d="M 113.770729 182.131839 
L 113.770729 107.869761 
" clip-path="url(#p980af7d497)" style="fill: none; stroke: #8c564b"/>
    <path d="M 120.351564 194.448841 
L 120.351564 127.380231 
" clip-path="url(#p980af7d497)" style="fill: none; stroke: #8c564b"/>
    <path d="M 141.739279 251.518028 
L 141.739279 220.138415 
" clip-path="url(#p980af7d497)" style="fill: none; stroke: #8c564b"/>
    <path clip-path="url(#p980af7d497)" style="fill: none; stroke: #8c564b"/>
    <path d="M 187.256724 287.243896 
L 187.256724 274.370143 
" clip-path="url(#p980af7d497)" style="fill: none; stroke: #8c564b"/>
    <path d="M 212.483259 294.663179 
L 212.483259 278.388467 
" clip-path="url(#p980af7d497)" style="fill: none; stroke: #8c564b"/>
    <path d="M 237.161392 297.436227 
L 237.161392 291.463202 
" clip-path="url(#p980af7d497)" style="fill: none; stroke: #8c564b"/>
    <path d="M 259.645913 299.329712 
L 259.645913 293.514409 
" clip-path="url(#p980af7d497)" style="fill: none; stroke: #8c564b"/>
    <path d="M 306.808566 302.684448 
L 306.808566 296.935813 
" clip-path="url(#p980af7d497)" style="fill: none; stroke: #8c564b"/>
    <path d="M 353.97122 302.856255 
L 353.97122 299.615041 
" clip-path="url(#p980af7d497)" style="fill: none; stroke: #8c564b"/>
    <path d="M 379.197756 302.925763 
L 379.197756 300.188582 
" clip-path="url(#p980af7d497)" style="fill: none; stroke: #8c564b"/>
   </g>
   <g id="line2d_14">
    <path d="M 95.125028 309.286957 
L 96.604574 308.558754 
L 99.563665 305.802258 
L 101.04321 304.838598 
L 102.522756 304.232316 
L 104.002301 303.916773 
L 105.481847 303.815927 
L 108.440938 304.011589 
L 112.879574 304.72788 
L 121.756847 306.224201 
L 127.675028 306.979675 
L 135.072756 307.66663 
L 143.950028 308.217584 
L 154.306847 308.61645 
L 169.102301 308.925414 
L 189.815938 309.109936 
L 229.763665 309.200748 
L 407.309119 309.218986 
L 451.695483 309.219777 
L 451.695483 309.219777 
" clip-path="url(#p980af7d497)" style="fill: none; stroke: #1f77b4; stroke-width: 2; stroke-linecap: square"/>
   </g>
   <g id="line2d_15">
    <path d="M 99.512252 309.044997 
L 100.609058 306.002331 
L 107.189893 304.449384 
L 114.867535 305.498757 
L 118.157952 306.661887 
L 143.384488 308.013508 
L 166.417412 308.299855 
L 190.547141 308.559815 
L 213.580065 308.751314 
L 237.709795 308.850059 
L 259.645913 308.892379 
L 308.453775 309.029745 
L 355.068026 309.029745 
L 379.197756 309.05466 
" clip-path="url(#p980af7d497)" style="fill: none; stroke-dasharray: 3.7,1.6; stroke-dashoffset: 0; stroke: #1f77b4"/>
    <defs>
     <path id="m8bba63e881" d="M -3 3 
L 3 3 
L 3 -3 
L -3 -3 
z
" style="stroke: #000000; stroke-linejoin: miter"/>
    </defs>
    <g clip-path="url(#p980af7d497)">
     <use xlink:href="#m8bba63e881" x="99.512252" y="309.044997" style="fill: #1f77b4; stroke: #000000; stroke-linejoin: miter"/>
     <use xlink:href="#m8bba63e881" x="100.609058" y="306.002331" style="fill: #1f77b4; stroke: #000000; stroke-linejoin: miter"/>
     <use xlink:href="#m8bba63e881" x="107.189893" y="304.449384" style="fill: #1f77b4; stroke: #000000; stroke-linejoin: miter"/>
     <use xlink:href="#m8bba63e881" x="114.867535" y="305.498757" style="fill: #1f77b4; stroke: #000000; stroke-linejoin: miter"/>
     <use xlink:href="#m8bba63e881" x="118.157952" y="306.661887" style="fill: #1f77b4; stroke: #000000; stroke-linejoin: miter"/>
     <use xlink:href="#m8bba63e881" x="143.384488" y="308.013508" style="fill: #1f77b4; stroke: #000000; stroke-linejoin: miter"/>
     <use xlink:href="#m8bba63e881" x="166.417412" y="308.299855" style="fill: #1f77b4; stroke: #000000; stroke-linejoin: miter"/>
     <use xlink:href="#m8bba63e881" x="190.547141" y="308.559815" style="fill: #1f77b4; stroke: #000000; stroke-linejoin: miter"/>
     <use xlink:href="#m8bba63e881" x="213.580065" y="308.751314" style="fill: #1f77b4; stroke: #000000; stroke-linejoin: miter"/>
     <use xlink:href="#m8bba63e881" x="237.709795" y="308.850059" style="fill: #1f77b4; stroke: #000000; stroke-linejoin: miter"/>
     <use xlink:href="#m8bba63e881" x="259.645913" y="308.892379" style="fill: #1f77b4; stroke: #000000; stroke-linejoin: miter"/>
     <use xlink:href="#m8bba63e881" x="308.453775" y="309.029745" style="fill: #1f77b4; stroke: #000000; stroke-linejoin: miter"/>
     <use xlink:href="#m8bba63e881" x="355.068026" y="309.029745" style="fill: #1f77b4; stroke: #000000; stroke-linejoin: miter"/>
     <use xlink:href="#m8bba63e881" x="379.197756" y="309.05466" style="fill: #1f77b4; stroke: #000000; stroke-linejoin: miter"/>
    </g>
   </g>
   <g id="line2d_16">
    <path d="M 95.125028 309.286957 
L 96.604574 306.374139 
L 98.084119 300.618808 
L 99.563665 295.347714 
L 101.04321 291.492587 
L 102.522756 289.06694 
L 104.002301 287.804315 
L 105.481847 287.400605 
L 106.961392 287.594196 
L 108.440938 288.182966 
L 109.920483 289.019135 
L 112.879574 291.048294 
L 118.797756 295.206214 
L 121.756847 297.034363 
L 124.715938 298.648502 
L 127.675028 300.056675 
L 130.634119 301.277555 
L 135.072756 302.804857 
L 139.511392 304.028752 
L 143.950028 305.008951 
L 148.388665 305.794241 
L 154.306847 306.604611 
L 161.704574 307.334226 
L 169.102301 307.840616 
L 179.459119 308.301308 
L 192.775028 308.635526 
L 212.009119 308.858317 
L 244.559119 308.973982 
L 346.647756 309.010478 
L 451.695483 309.018207 
L 451.695483 309.018207 
" clip-path="url(#p980af7d497)" style="fill: none; stroke: #2ca02c; stroke-width: 2; stroke-linecap: square"/>
   </g>
   <g id="line2d_17">
    <path d="M 97.31864 308.822518 
L 98.415446 296.935813 
L 109.931908 291.463202 
L 118.157952 296.681554 
L 141.739279 303.295287 
L 165.869009 305.300778 
L 188.901933 306.380334 
L 212.483259 307.101738 
L 236.612989 307.575759 
L 259.645913 307.847897 
L 306.808566 308.30986 
L 353.97122 308.513978 
L 379.197756 308.552369 
" clip-path="url(#p980af7d497)" style="fill: none; stroke-dasharray: 3.7,1.6; stroke-dashoffset: 0; stroke: #2ca02c"/>
    <defs>
     <path id="m009165d7f4" d="M -3 3 
L 3 3 
L 3 -3 
L -3 -3 
z
" style="stroke: #000000; stroke-linejoin: miter"/>
    </defs>
    <g clip-path="url(#p980af7d497)">
     <use xlink:href="#m009165d7f4" x="97.31864" y="308.822518" style="fill: #2ca02c; stroke: #000000; stroke-linejoin: miter"/>
     <use xlink:href="#m009165d7f4" x="98.415446" y="296.935813" style="fill: #2ca02c; stroke: #000000; stroke-linejoin: miter"/>
     <use xlink:href="#m009165d7f4" x="109.931908" y="291.463202" style="fill: #2ca02c; stroke: #000000; stroke-linejoin: miter"/>
     <use xlink:href="#m009165d7f4" x="118.157952" y="296.681554" style="fill: #2ca02c; stroke: #000000; stroke-linejoin: miter"/>
     <use xlink:href="#m009165d7f4" x="141.739279" y="303.295287" style="fill: #2ca02c; stroke: #000000; stroke-linejoin: miter"/>
     <use xlink:href="#m009165d7f4" x="165.869009" y="305.300778" style="fill: #2ca02c; stroke: #000000; stroke-linejoin: miter"/>
     <use xlink:href="#m009165d7f4" x="188.901933" y="306.380334" style="fill: #2ca02c; stroke: #000000; stroke-linejoin: miter"/>
     <use xlink:href="#m009165d7f4" x="212.483259" y="307.101738" style="fill: #2ca02c; stroke: #000000; stroke-linejoin: miter"/>
     <use xlink:href="#m009165d7f4" x="236.612989" y="307.575759" style="fill: #2ca02c; stroke: #000000; stroke-linejoin: miter"/>
     <use xlink:href="#m009165d7f4" x="259.645913" y="307.847897" style="fill: #2ca02c; stroke: #000000; stroke-linejoin: miter"/>
     <use xlink:href="#m009165d7f4" x="306.808566" y="308.30986" style="fill: #2ca02c; stroke: #000000; stroke-linejoin: miter"/>
     <use xlink:href="#m009165d7f4" x="353.97122" y="308.513978" style="fill: #2ca02c; stroke: #000000; stroke-linejoin: miter"/>
     <use xlink:href="#m009165d7f4" x="379.197756" y="308.552369" style="fill: #2ca02c; stroke: #000000; stroke-linejoin: miter"/>
    </g>
   </g>
   <g id="line2d_18">
    <path d="M 95.125028 309.286957 
L 96.604574 303.4613 
L 98.084119 291.950332 
L 99.563665 281.407276 
L 101.04321 273.695727 
L 102.522756 268.843045 
L 104.002301 266.316596 
L 105.481847 265.5083 
L 106.961392 265.89495 
L 108.440938 267.07226 
L 109.920483 268.744598 
L 112.879574 272.803349 
L 117.31821 279.139999 
L 120.277301 283.002054 
L 123.236392 286.445298 
L 126.195483 289.464313 
L 129.154574 292.088575 
L 132.113665 294.359599 
L 135.072756 296.320645 
L 138.031847 298.012384 
L 140.990938 299.471339 
L 143.950028 300.729577 
L 148.388665 302.300413 
L 152.827301 303.559693 
L 157.265938 304.569916 
L 161.704574 305.380878 
L 167.622756 306.219625 
L 173.540938 306.846477 
L 180.938665 307.412827 
L 189.815938 307.870404 
L 201.652301 308.240934 
L 217.927301 308.501788 
L 243.079574 308.656331 
L 299.302301 308.723333 
L 451.695483 308.749376 
L 451.695483 308.749376 
" clip-path="url(#p980af7d497)" style="fill: none; stroke: #d62728; stroke-width: 2; stroke-linecap: square"/>
   </g>
   <g id="line2d_19">
    <path d="M 96.221834 309.077161 
L 106.093087 264.697797 
L 112.673923 279.622381 
L 119.254758 289.949586 
L 142.287682 300.188582 
L 165.320606 303.171943 
L 189.450336 304.91798 
L 213.031662 305.650037 
L 237.161392 307.010843 
L 260.194316 307.123889 
L 306.808566 307.772689 
L 353.97122 308.14852 
L 379.197756 308.299855 
" clip-path="url(#p980af7d497)" style="fill: none; stroke-dasharray: 3.7,1.6; stroke-dashoffset: 0; stroke: #d62728"/>
    <defs>
     <path id="mb4b7a13247" d="M -3 3 
L 3 3 
L 3 -3 
L -3 -3 
z
" style="stroke: #000000; stroke-linejoin: miter"/>
    </defs>
    <g clip-path="url(#p980af7d497)">
     <use xlink:href="#mb4b7a13247" x="96.221834" y="309.077161" style="fill: #d62728; stroke: #000000; stroke-linejoin: miter"/>
     <use xlink:href="#mb4b7a13247" x="106.093087" y="264.697797" style="fill: #d62728; stroke: #000000; stroke-linejoin: miter"/>
     <use xlink:href="#mb4b7a13247" x="112.673923" y="279.622381" style="fill: #d62728; stroke: #000000; stroke-linejoin: miter"/>
     <use xlink:href="#mb4b7a13247" x="119.254758" y="289.949586" style="fill: #d62728; stroke: #000000; stroke-linejoin: miter"/>
     <use xlink:href="#mb4b7a13247" x="142.287682" y="300.188582" style="fill: #d62728; stroke: #000000; stroke-linejoin: miter"/>
     <use xlink:href="#mb4b7a13247" x="165.320606" y="303.171943" style="fill: #d62728; stroke: #000000; stroke-linejoin: miter"/>
     <use xlink:href="#mb4b7a13247" x="189.450336" y="304.91798" style="fill: #d62728; stroke: #000000; stroke-linejoin: miter"/>
     <use xlink:href="#mb4b7a13247" x="213.031662" y="305.650037" style="fill: #d62728; stroke: #000000; stroke-linejoin: miter"/>
     <use xlink:href="#mb4b7a13247" x="237.161392" y="307.010843" style="fill: #d62728; stroke: #000000; stroke-linejoin: miter"/>
     <use xlink:href="#mb4b7a13247" x="260.194316" y="307.123889" style="fill: #d62728; stroke: #000000; stroke-linejoin: miter"/>
     <use xlink:href="#mb4b7a13247" x="306.808566" y="307.772689" style="fill: #d62728; stroke: #000000; stroke-linejoin: miter"/>
     <use xlink:href="#mb4b7a13247" x="353.97122" y="308.14852" style="fill: #d62728; stroke: #000000; stroke-linejoin: miter"/>
     <use xlink:href="#mb4b7a13247" x="379.197756" y="308.299855" style="fill: #d62728; stroke: #000000; stroke-linejoin: miter"/>
    </g>
   </g>
   <g id="line2d_20">
    <path d="M 95.125028 309.286957 
L 96.604574 294.722652 
L 98.084119 265.94294 
L 99.563665 239.578807 
L 101.04321 220.290236 
L 102.522756 208.148147 
L 104.002301 201.82304 
L 105.481847 199.795743 
L 106.961392 200.758393 
L 108.440938 203.699937 
L 109.920483 207.880784 
L 112.879574 218.030889 
L 117.31821 233.880414 
L 120.277301 243.540862 
L 123.236392 252.15375 
L 126.195483 259.705429 
L 129.154574 266.269622 
L 132.113665 271.950187 
L 135.072756 276.855348 
L 138.031847 281.086856 
L 140.990938 284.736081 
L 143.950028 287.883239 
L 146.909119 290.597953 
L 149.86821 292.940303 
L 152.827301 294.961989 
L 155.786392 296.707455 
L 158.745483 298.214894 
L 161.704574 299.517135 
L 164.663665 300.642408 
L 169.102301 302.050694 
L 173.540938 303.182874 
L 177.979574 304.093493 
L 183.897756 305.037178 
L 189.815938 305.743907 
L 197.213665 306.38376 
L 206.090938 306.902009 
L 216.447756 307.282658 
L 231.24321 307.582948 
L 253.436392 307.775668 
L 296.34321 307.874596 
L 451.695483 307.942396 
L 451.695483 307.942396 
" clip-path="url(#p980af7d497)" style="fill: none; stroke: #9467bd; stroke-width: 2; stroke-linecap: square"/>
   </g>
   <g id="line2d_21">
    <path d="M 98.415446 308.971611 
L 104.996281 212.567806 
L 111.028714 230.397875 
L 119.254758 247.510612 
L 141.739279 280.220735 
L 165.320606 287.875549 
L 188.35353 295.749715 
L 213.031662 299.81013 
L 237.161392 301.557173 
L 259.645913 303.592871 
L 306.808566 305.381182 
L 353.97122 306.290121 
L 379.197756 306.552696 
" clip-path="url(#p980af7d497)" style="fill: none; stroke-dasharray: 3.7,1.6; stroke-dashoffset: 0; stroke: #9467bd"/>
    <defs>
     <path id="me0f672f671" d="M -3 3 
L 3 3 
L 3 -3 
L -3 -3 
z
" style="stroke: #000000; stroke-linejoin: miter"/>
    </defs>
    <g clip-path="url(#p980af7d497)">
     <use xlink:href="#me0f672f671" x="98.415446" y="308.971611" style="fill: #9467bd; stroke: #000000; stroke-linejoin: miter"/>
     <use xlink:href="#me0f672f671" x="104.996281" y="212.567806" style="fill: #9467bd; stroke: #000000; stroke-linejoin: miter"/>
     <use xlink:href="#me0f672f671" x="111.028714" y="230.397875" style="fill: #9467bd; stroke: #000000; stroke-linejoin: miter"/>
     <use xlink:href="#me0f672f671" x="119.254758" y="247.510612" style="fill: #9467bd; stroke: #000000; stroke-linejoin: miter"/>
     <use xlink:href="#me0f672f671" x="141.739279" y="280.220735" style="fill: #9467bd; stroke: #000000; stroke-linejoin: miter"/>
     <use xlink:href="#me0f672f671" x="165.320606" y="287.875549" style="fill: #9467bd; stroke: #000000; stroke-linejoin: miter"/>
     <use xlink:href="#me0f672f671" x="188.35353" y="295.749715" style="fill: #9467bd; stroke: #000000; stroke-linejoin: miter"/>
     <use xlink:href="#me0f672f671" x="213.031662" y="299.81013" style="fill: #9467bd; stroke: #000000; stroke-linejoin: miter"/>
     <use xlink:href="#me0f672f671" x="237.161392" y="301.557173" style="fill: #9467bd; stroke: #000000; stroke-linejoin: miter"/>
     <use xlink:href="#me0f672f671" x="259.645913" y="303.592871" style="fill: #9467bd; stroke: #000000; stroke-linejoin: miter"/>
     <use xlink:href="#me0f672f671" x="306.808566" y="305.381182" style="fill: #9467bd; stroke: #000000; stroke-linejoin: miter"/>
     <use xlink:href="#me0f672f671" x="353.97122" y="306.290121" style="fill: #9467bd; stroke: #000000; stroke-linejoin: miter"/>
     <use xlink:href="#me0f672f671" x="379.197756" y="306.552696" style="fill: #9467bd; stroke: #000000; stroke-linejoin: miter"/>
    </g>
   </g>
   <g id="line2d_22">
    <path d="M 95.125028 309.286957 
L 96.604574 280.157803 
L 98.084119 222.590753 
L 99.563665 169.840905 
L 101.04321 131.231561 
L 102.522756 106.912919 
L 104.002301 94.232889 
L 105.481847 90.156522 
L 106.961392 92.068598 
L 108.440938 97.945907 
L 109.920483 106.30757 
L 112.879574 126.618433 
L 117.31821 158.343665 
L 120.277301 177.682194 
L 123.236392 194.923837 
L 126.195483 210.040965 
L 129.154574 223.181117 
L 132.113665 234.552238 
L 135.072756 244.371034 
L 138.031847 252.841243 
L 140.990938 260.145807 
L 143.950028 266.445333 
L 146.909119 271.879209 
L 149.86821 276.567712 
L 152.827301 280.614345 
L 155.786392 284.108076 
L 158.745483 287.12536 
L 161.704574 289.731914 
L 164.663665 291.984244 
L 167.622756 293.930969 
L 170.581847 295.613937 
L 173.540938 297.069193 
L 176.500028 298.327795 
L 180.938665 299.904525 
L 185.377301 301.173553 
L 189.815938 302.195308 
L 194.254574 303.018272 
L 200.172756 303.872465 
L 206.090938 304.513355 
L 213.488665 305.094889 
L 222.365938 305.567429 
L 234.202301 305.953539 
L 250.477301 306.230489 
L 275.629574 306.403885 
L 331.852301 306.505493 
L 451.695483 306.59581 
L 451.695483 306.59581 
" clip-path="url(#p980af7d497)" style="fill: none; stroke: #8c564b; stroke-width: 2; stroke-linecap: square"/>
   </g>
   <g id="line2d_23">
    <path d="M 97.31864 308.705826 
L 104.996281 154.742904 
L 113.770729 145.0008 
L 120.351564 160.914536 
L 141.739279 235.828221 
L 165.320606 267.341916 
L 187.256724 280.80702 
L 212.483259 286.525823 
L 237.161392 294.449714 
L 259.645913 296.422061 
L 306.808566 299.81013 
L 353.97122 301.235648 
L 379.197756 301.557173 
" clip-path="url(#p980af7d497)" style="fill: none; stroke-dasharray: 3.7,1.6; stroke-dashoffset: 0; stroke: #8c564b"/>
    <defs>
     <path id="md63d791dae" d="M -3 3 
L 3 3 
L 3 -3 
L -3 -3 
z
" style="stroke: #000000; stroke-linejoin: miter"/>
    </defs>
    <g clip-path="url(#p980af7d497)">
     <use xlink:href="#md63d791dae" x="97.31864" y="308.705826" style="fill: #8c564b; stroke: #000000; stroke-linejoin: miter"/>
     <use xlink:href="#md63d791dae" x="104.996281" y="154.742904" style="fill: #8c564b; stroke: #000000; stroke-linejoin: miter"/>
     <use xlink:href="#md63d791dae" x="113.770729" y="145.0008" style="fill: #8c564b; stroke: #000000; stroke-linejoin: miter"/>
     <use xlink:href="#md63d791dae" x="120.351564" y="160.914536" style="fill: #8c564b; stroke: #000000; stroke-linejoin: miter"/>
     <use xlink:href="#md63d791dae" x="141.739279" y="235.828221" style="fill: #8c564b; stroke: #000000; stroke-linejoin: miter"/>
     <use xlink:href="#md63d791dae" x="165.320606" y="267.341916" style="fill: #8c564b; stroke: #000000; stroke-linejoin: miter"/>
     <use xlink:href="#md63d791dae" x="187.256724" y="280.80702" style="fill: #8c564b; stroke: #000000; stroke-linejoin: miter"/>
     <use xlink:href="#md63d791dae" x="212.483259" y="286.525823" style="fill: #8c564b; stroke: #000000; stroke-linejoin: miter"/>
     <use xlink:href="#md63d791dae" x="237.161392" y="294.449714" style="fill: #8c564b; stroke: #000000; stroke-linejoin: miter"/>
     <use xlink:href="#md63d791dae" x="259.645913" y="296.422061" style="fill: #8c564b; stroke: #000000; stroke-linejoin: miter"/>
     <use xlink:href="#md63d791dae" x="306.808566" y="299.81013" style="fill: #8c564b; stroke: #000000; stroke-linejoin: miter"/>
     <use xlink:href="#md63d791dae" x="353.97122" y="301.235648" style="fill: #8c564b; stroke: #000000; stroke-linejoin: miter"/>
     <use xlink:href="#md63d791dae" x="379.197756" y="301.557173" style="fill: #8c564b; stroke: #000000; stroke-linejoin: miter"/>
    </g>
   </g>
   <g id="patch_3">
    <path d="M 59.615938 320.243478 
L 59.615938 79.2 
" style="fill: none; stroke: #000000; stroke-width: 0.8; stroke-linejoin: miter; stroke-linecap: square"/>
   </g>
   <g id="patch_4">
    <path d="M 450.215937 320.243478 
L 450.215937 79.2 
" style="fill: none; stroke: #000000; stroke-width: 0.8; stroke-linejoin: miter; stroke-linecap: square"/>
   </g>
   <g id="patch_5">
    <path d="M 59.615938 320.243478 
L 450.215938 320.243478 
" style="fill: none; stroke: #000000; stroke-width: 0.8; stroke-linejoin: miter; stroke-linecap: square"/>
   </g>
   <g id="patch_6">
    <path d="M 59.615938 79.2 
L 450.215938 79.2 
" style="fill: none; stroke: #000000; stroke-width: 0.8; stroke-linejoin: miter; stroke-linecap: square"/>
   </g>
  </g>
  <g id="axes_2">
   <g id="patch_7">
    <path d="M 59.615938 633.6 
L 450.215937 633.6 
L 450.215937 392.556522 
L 59.615938 392.556522 
z
" style="fill: #ffffff"/>
   </g>
   <g id="matplotlib.axis_3">
    <g id="xtick_8">
     <g id="line2d_24">
      <g>
       <use xlink:href="#m271e3db970" x="88.549271" y="633.6" style="stroke: #000000; stroke-width: 0.8"/>
      </g>
     </g>
     <g id="text_16">
      <!-- −20 -->
      <g transform="translate(72.720755 651.997656) scale(0.15 -0.15)">
       <defs>
        <path id="DejaVuSans-2212" d="M 678 2272 
L 4684 2272 
L 4684 1741 
L 678 1741 
L 678 2272 
z
" transform="scale(0.015625)"/>
       </defs>
       <use xlink:href="#DejaVuSans-2212"/>
       <use xlink:href="#DejaVuSans-32" x="83.789062"/>
       <use xlink:href="#DejaVuSans-30" x="147.412109"/>
      </g>
     </g>
    </g>
    <g id="xtick_9">
     <g id="line2d_25">
      <g>
       <use xlink:href="#m271e3db970" x="160.882604" y="633.6" style="stroke: #000000; stroke-width: 0.8"/>
      </g>
     </g>
     <g id="text_17">
      <!-- −10 -->
      <g transform="translate(145.054089 651.997656) scale(0.15 -0.15)">
       <use xlink:href="#DejaVuSans-2212"/>
       <use xlink:href="#DejaVuSans-31" x="83.789062"/>
       <use xlink:href="#DejaVuSans-30" x="147.412109"/>
      </g>
     </g>
    </g>
    <g id="xtick_10">
     <g id="line2d_26">
      <g>
       <use xlink:href="#m271e3db970" x="233.215937" y="633.6" style="stroke: #000000; stroke-width: 0.8"/>
      </g>
     </g>
     <g id="text_18">
      <!-- 0 -->
      <g transform="translate(228.444063 651.997656) scale(0.15 -0.15)">
       <use xlink:href="#DejaVuSans-30"/>
      </g>
     </g>
    </g>
    <g id="xtick_11">
     <g id="line2d_27">
      <g>
       <use xlink:href="#m271e3db970" x="305.549271" y="633.6" style="stroke: #000000; stroke-width: 0.8"/>
      </g>
     </g>
     <g id="text_19">
      <!-- 10 -->
      <g transform="translate(296.005521 651.997656) scale(0.15 -0.15)">
       <use xlink:href="#DejaVuSans-31"/>
       <use xlink:href="#DejaVuSans-30" x="63.623047"/>
      </g>
     </g>
    </g>
    <g id="xtick_12">
     <g id="line2d_28">
      <g>
       <use xlink:href="#m271e3db970" x="377.882604" y="633.6" style="stroke: #000000; stroke-width: 0.8"/>
      </g>
     </g>
     <g id="text_20">
      <!-- 20 -->
      <g transform="translate(368.338854 651.997656) scale(0.15 -0.15)">
       <use xlink:href="#DejaVuSans-32"/>
       <use xlink:href="#DejaVuSans-30" x="63.623047"/>
      </g>
     </g>
    </g>
    <g id="xtick_13">
     <g id="line2d_29">
      <g>
       <use xlink:href="#m271e3db970" x="450.215937" y="633.6" style="stroke: #000000; stroke-width: 0.8"/>
      </g>
     </g>
     <g id="text_21">
      <!-- 30 -->
      <g transform="translate(440.672188 651.997656) scale(0.15 -0.15)">
       <use xlink:href="#DejaVuSans-33"/>
       <use xlink:href="#DejaVuSans-30" x="63.623047"/>
      </g>
     </g>
    </g>
    <g id="text_22">
     <!-- time [hr] -->
     <g transform="translate(209.841406 672.794375) scale(0.18 -0.18)">
      <use xlink:href="#DejaVuSans-Bold-74"/>
      <use xlink:href="#DejaVuSans-Bold-69" x="47.802734"/>
      <use xlink:href="#DejaVuSans-Bold-6d" x="82.080078"/>
      <use xlink:href="#DejaVuSans-Bold-65" x="186.279297"/>
      <use xlink:href="#DejaVuSans-Bold-20" x="254.101562"/>
      <use xlink:href="#DejaVuSans-Bold-5b" x="288.916016"/>
      <use xlink:href="#DejaVuSans-Bold-68" x="334.619141"/>
      <use xlink:href="#DejaVuSans-Bold-72" x="405.810547"/>
      <use xlink:href="#DejaVuSans-Bold-5d" x="455.126953"/>
     </g>
    </g>
   </g>
   <g id="matplotlib.axis_4">
    <g id="ytick_7">
     <g id="line2d_30">
      <g>
       <use xlink:href="#m0e85dd32ef" x="59.615938" y="622.643478" style="stroke: #000000; stroke-width: 0.8"/>
      </g>
     </g>
     <g id="text_23">
      <!-- 0 -->
      <g transform="translate(43.072187 628.342306) scale(0.15 -0.15)">
       <use xlink:href="#DejaVuSans-30"/>
      </g>
     </g>
    </g>
    <g id="ytick_8">
     <g id="line2d_31">
      <g>
       <use xlink:href="#m0e85dd32ef" x="59.615938" y="577.235" style="stroke: #000000; stroke-width: 0.8"/>
      </g>
     </g>
     <g id="text_24">
      <!-- 1 -->
      <g transform="translate(43.072187 582.933828) scale(0.15 -0.15)">
       <use xlink:href="#DejaVuSans-31"/>
      </g>
     </g>
    </g>
    <g id="ytick_9">
     <g id="line2d_32">
      <g>
       <use xlink:href="#m0e85dd32ef" x="59.615938" y="531.826522" style="stroke: #000000; stroke-width: 0.8"/>
      </g>
     </g>
     <g id="text_25">
      <!-- 2 -->
      <g transform="translate(43.072187 537.52535) scale(0.15 -0.15)">
       <use xlink:href="#DejaVuSans-32"/>
      </g>
     </g>
    </g>
    <g id="ytick_10">
     <g id="line2d_33">
      <g>
       <use xlink:href="#m0e85dd32ef" x="59.615938" y="486.418043" style="stroke: #000000; stroke-width: 0.8"/>
      </g>
     </g>
     <g id="text_26">
      <!-- 3 -->
      <g transform="translate(43.072187 492.116872) scale(0.15 -0.15)">
       <use xlink:href="#DejaVuSans-33"/>
      </g>
     </g>
    </g>
    <g id="ytick_11">
     <g id="line2d_34">
      <g>
       <use xlink:href="#m0e85dd32ef" x="59.615938" y="441.009565" style="stroke: #000000; stroke-width: 0.8"/>
      </g>
     </g>
     <g id="text_27">
      <!-- 4 -->
      <g transform="translate(43.072187 446.708393) scale(0.15 -0.15)">
       <defs>
        <path id="DejaVuSans-34" d="M 2419 4116 
L 825 1625 
L 2419 1625 
L 2419 4116 
z
M 2253 4666 
L 3047 4666 
L 3047 1625 
L 3713 1625 
L 3713 1100 
L 3047 1100 
L 3047 0 
L 2419 0 
L 2419 1100 
L 313 1100 
L 313 1709 
L 2253 4666 
z
" transform="scale(0.015625)"/>
       </defs>
       <use xlink:href="#DejaVuSans-34"/>
      </g>
     </g>
    </g>
    <g id="ytick_12">
     <g id="line2d_35">
      <g>
       <use xlink:href="#m0e85dd32ef" x="59.615938" y="395.601087" style="stroke: #000000; stroke-width: 0.8"/>
      </g>
     </g>
     <g id="text_28">
      <!-- 5 -->
      <g transform="translate(43.072187 401.299915) scale(0.15 -0.15)">
       <use xlink:href="#DejaVuSans-35"/>
      </g>
     </g>
    </g>
    <g id="text_29">
     <!-- dapagliflozin plasma [µM] -->
     <g transform="translate(35.188125 645.116698) rotate(-90) scale(0.18 -0.18)">
      <use xlink:href="#DejaVuSans-Bold-64"/>
      <use xlink:href="#DejaVuSans-Bold-61" x="71.582031"/>
      <use xlink:href="#DejaVuSans-Bold-70" x="139.0625"/>
      <use xlink:href="#DejaVuSans-Bold-61" x="210.644531"/>
      <use xlink:href="#DejaVuSans-Bold-67" x="278.125"/>
      <use xlink:href="#DejaVuSans-Bold-6c" x="349.707031"/>
      <use xlink:href="#DejaVuSans-Bold-69" x="383.984375"/>
      <use xlink:href="#DejaVuSans-Bold-66" x="418.261719"/>
      <use xlink:href="#DejaVuSans-Bold-6c" x="461.767578"/>
      <use xlink:href="#DejaVuSans-Bold-6f" x="496.044922"/>
      <use xlink:href="#DejaVuSans-Bold-7a" x="564.746094"/>
      <use xlink:href="#DejaVuSans-Bold-69" x="622.949219"/>
      <use xlink:href="#DejaVuSans-Bold-6e" x="657.226562"/>
      <use xlink:href="#DejaVuSans-Bold-20" x="728.417969"/>
      <use xlink:href="#DejaVuSans-Bold-70" x="763.232422"/>
      <use xlink:href="#DejaVuSans-Bold-6c" x="834.814453"/>
      <use xlink:href="#DejaVuSans-Bold-61" x="869.091797"/>
      <use xlink:href="#DejaVuSans-Bold-73" x="936.572266"/>
      <use xlink:href="#DejaVuSans-Bold-6d" x="996.09375"/>
      <use xlink:href="#DejaVuSans-Bold-61" x="1100.292969"/>
      <use xlink:href="#DejaVuSans-Bold-20" x="1167.773438"/>
      <use xlink:href="#DejaVuSans-Bold-5b" x="1202.587891"/>
      <use xlink:href="#DejaVuSans-Bold-b5" x="1248.291016"/>
      <use xlink:href="#DejaVuSans-Bold-4d" x="1321.875"/>
      <use xlink:href="#DejaVuSans-Bold-5d" x="1421.386719"/>
     </g>
    </g>
   </g>
   <g id="LineCollection_6">
    <path d="M 235.858893 622.540858 
L 235.858893 622.46276 
" clip-path="url(#pfc7c11cf2a)" style="fill: none; stroke: #1f77b4"/>
    <path d="M 236.502052 622.509379 
L 236.502052 622.39346 
" clip-path="url(#pfc7c11cf2a)" style="fill: none; stroke: #1f77b4"/>
    <path d="M 237.036796 621.737903 
L 237.036796 621.212343 
" clip-path="url(#pfc7c11cf2a)" style="fill: none; stroke: #1f77b4"/>
    <path d="M 244.277088 620.042873 
L 244.277088 618.533586 
" clip-path="url(#pfc7c11cf2a)" style="fill: none; stroke: #1f77b4"/>
    <path d="M 247.294365 620.812658 
L 247.294365 619.672761 
" clip-path="url(#pfc7c11cf2a)" style="fill: none; stroke: #1f77b4"/>
    <path d="M 250.973846 621.169762 
L 250.973846 620.539305 
" clip-path="url(#pfc7c11cf2a)" style="fill: none; stroke: #1f77b4"/>
    <path d="M 264.988544 621.896036 
L 264.988544 621.521579 
" clip-path="url(#pfc7c11cf2a)" style="fill: none; stroke: #1f77b4"/>
    <path d="M 279.645667 622.100562 
L 279.645667 621.848832 
" clip-path="url(#pfc7c11cf2a)" style="fill: none; stroke: #1f77b4"/>
    <path d="M 294.296931 622.254251 
L 294.296931 621.994742 
" clip-path="url(#pfc7c11cf2a)" style="fill: none; stroke: #1f77b4"/>
    <path d="M 307.951958 622.352529 
L 307.951958 622.145132 
" clip-path="url(#pfc7c11cf2a)" style="fill: none; stroke: #1f77b4"/>
    <path d="M 322.587106 622.366178 
L 322.587106 622.15514 
" clip-path="url(#pfc7c11cf2a)" style="fill: none; stroke: #1f77b4"/>
    <path d="M 337.242764 622.430309 
L 337.242764 622.297586 
" clip-path="url(#pfc7c11cf2a)" style="fill: none; stroke: #1f77b4"/>
    <path d="M 365.204767 622.495522 
L 365.204767 622.403401 
" clip-path="url(#pfc7c11cf2a)" style="fill: none; stroke: #1f77b4"/>
    <path d="M 393.475164 622.507152 
L 393.475164 622.403401 
" clip-path="url(#pfc7c11cf2a)" style="fill: none; stroke: #1f77b4"/>
    <path d="M 406.815938 622.536532 
L 406.815938 622.469946 
" clip-path="url(#pfc7c11cf2a)" style="fill: none; stroke: #1f77b4"/>
   </g>
   <g id="LineCollection_7">
    <path d="M 235.809081 622.410856 
L 235.809081 622.31134 
" clip-path="url(#pfc7c11cf2a)" style="fill: none; stroke: #2ca02c"/>
    <path d="M 236.904941 617.389562 
L 236.904941 613.3911 
" clip-path="url(#pfc7c11cf2a)" style="fill: none; stroke: #2ca02c"/>
    <path d="M 242.842801 611.314403 
L 242.842801 605.638717 
" clip-path="url(#pfc7c11cf2a)" style="fill: none; stroke: #2ca02c"/>
    <path d="M 248.184385 614.377827 
L 248.184385 609.580774 
" clip-path="url(#pfc7c11cf2a)" style="fill: none; stroke: #2ca02c"/>
    <path d="M 251.195801 616.332589 
L 251.195801 612.40333 
" clip-path="url(#pfc7c11cf2a)" style="fill: none; stroke: #2ca02c"/>
    <path d="M 265.212697 619.289501 
L 265.212697 617.609212 
" clip-path="url(#pfc7c11cf2a)" style="fill: none; stroke: #2ca02c"/>
    <path d="M 279.205419 620.340918 
L 279.205419 619.004604 
" clip-path="url(#pfc7c11cf2a)" style="fill: none; stroke: #2ca02c"/>
    <path d="M 294.187784 620.969969 
L 294.187784 619.611879 
" clip-path="url(#pfc7c11cf2a)" style="fill: none; stroke: #2ca02c"/>
    <path d="M 308.175378 621.3944 
L 308.175378 620.314666 
" clip-path="url(#pfc7c11cf2a)" style="fill: none; stroke: #2ca02c"/>
    <path clip-path="url(#pfc7c11cf2a)" style="fill: none; stroke: #2ca02c"/>
    <path d="M 337.138745 621.71408 
L 337.138745 621.212343 
" clip-path="url(#pfc7c11cf2a)" style="fill: none; stroke: #2ca02c"/>
    <path d="M 364.765984 621.988909 
L 364.765984 621.609023 
" clip-path="url(#pfc7c11cf2a)" style="fill: none; stroke: #2ca02c"/>
    <path d="M 393.379936 622.115809 
L 393.379936 621.763996 
" clip-path="url(#pfc7c11cf2a)" style="fill: none; stroke: #2ca02c"/>
    <path d="M 406.815938 622.173557 
L 406.815938 621.815926 
" clip-path="url(#pfc7c11cf2a)" style="fill: none; stroke: #2ca02c"/>
   </g>
   <g id="LineCollection_8">
    <path d="M 235.869149 622.525654 
L 235.869149 622.515475 
" clip-path="url(#pfc7c11cf2a)" style="fill: none; stroke: #d62728"/>
    <path d="M 236.409753 622.144069 
L 236.409753 621.763996 
" clip-path="url(#pfc7c11cf2a)" style="fill: none; stroke: #d62728"/>
    <path d="M 238.384645 621.95657 
L 238.384645 621.498587 
" clip-path="url(#pfc7c11cf2a)" style="fill: none; stroke: #d62728"/>
    <path d="M 243.458124 600.061919 
L 243.458124 588.748917 
" clip-path="url(#pfc7c11cf2a)" style="fill: none; stroke: #d62728"/>
    <path d="M 247.473834 606.648848 
L 247.473834 598.635794 
" clip-path="url(#pfc7c11cf2a)" style="fill: none; stroke: #d62728"/>
    <path d="M 250.814155 610.815621 
L 250.814155 601.814102 
" clip-path="url(#pfc7c11cf2a)" style="fill: none; stroke: #d62728"/>
    <path d="M 265.504242 617.092266 
L 265.504242 613.3911 
" clip-path="url(#pfc7c11cf2a)" style="fill: none; stroke: #d62728"/>
    <path d="M 280.165761 618.843105 
L 280.165761 616.476933 
" clip-path="url(#pfc7c11cf2a)" style="fill: none; stroke: #d62728"/>
    <path d="M 294.154088 619.782739 
L 294.154088 618.001598 
" clip-path="url(#pfc7c11cf2a)" style="fill: none; stroke: #d62728"/>
    <path d="M 308.806816 620.727842 
L 308.806816 618.853924 
" clip-path="url(#pfc7c11cf2a)" style="fill: none; stroke: #d62728"/>
    <path d="M 322.78562 621.167549 
L 322.78562 619.219466 
" clip-path="url(#pfc7c11cf2a)" style="fill: none; stroke: #d62728"/>
    <path d="M 337.436884 621.316019 
L 337.436884 620.16853 
" clip-path="url(#pfc7c11cf2a)" style="fill: none; stroke: #d62728"/>
    <path d="M 365.406212 621.81099 
L 365.406212 621.091367 
" clip-path="url(#pfc7c11cf2a)" style="fill: none; stroke: #d62728"/>
    <path d="M 394.011374 621.920621 
L 394.011374 621.122537 
" clip-path="url(#pfc7c11cf2a)" style="fill: none; stroke: #d62728"/>
    <path d="M 406.815938 622.10125 
L 406.815938 621.426743 
" clip-path="url(#pfc7c11cf2a)" style="fill: none; stroke: #d62728"/>
   </g>
   <g id="LineCollection_9">
    <path clip-path="url(#pfc7c11cf2a)" style="fill: none; stroke: #9467bd"/>
    <path d="M 239.432158 594.313638 
L 239.432158 559.072665 
" clip-path="url(#pfc7c11cf2a)" style="fill: none; stroke: #9467bd"/>
    <path d="M 242.035557 557.330483 
L 242.035557 485.220446 
" clip-path="url(#pfc7c11cf2a)" style="fill: none; stroke: #9467bd"/>
    <path d="M 247.383001 577.311018 
L 247.383001 527.260864 
" clip-path="url(#pfc7c11cf2a)" style="fill: none; stroke: #9467bd"/>
    <path d="M 250.739437 593.036965 
L 250.739437 560.349338 
" clip-path="url(#pfc7c11cf2a)" style="fill: none; stroke: #9467bd"/>
    <path d="M 264.7556 605.602427 
L 264.7556 592.633438 
" clip-path="url(#pfc7c11cf2a)" style="fill: none; stroke: #9467bd"/>
    <path d="M 279.423712 612.93483 
L 279.423712 603.437609 
" clip-path="url(#pfc7c11cf2a)" style="fill: none; stroke: #9467bd"/>
    <path d="M 293.403248 614.061371 
L 293.403248 606.642784 
" clip-path="url(#pfc7c11cf2a)" style="fill: none; stroke: #9467bd"/>
    <path d="M 308.066965 617.471246 
L 308.066965 611.760746 
" clip-path="url(#pfc7c11cf2a)" style="fill: none; stroke: #9467bd"/>
    <path d="M 322.049431 618.788846 
L 322.049431 613.3911 
" clip-path="url(#pfc7c11cf2a)" style="fill: none; stroke: #9467bd"/>
    <path d="M 337.369491 619.663106 
L 337.369491 615.955664 
" clip-path="url(#pfc7c11cf2a)" style="fill: none; stroke: #9467bd"/>
    <path d="M 365.325634 620.399997 
L 365.325634 617.609212 
" clip-path="url(#pfc7c11cf2a)" style="fill: none; stroke: #9467bd"/>
    <path d="M 393.289102 621.117594 
L 393.289102 619.219466 
" clip-path="url(#pfc7c11cf2a)" style="fill: none; stroke: #9467bd"/>
    <path d="M 406.815938 621.04883 
L 406.815938 619.288229 
" clip-path="url(#pfc7c11cf2a)" style="fill: none; stroke: #9467bd"/>
   </g>
   <g id="LineCollection_10">
    <path d="M 236.459565 622.64114 
L 236.459565 621.954033 
" clip-path="url(#pfc7c11cf2a)" style="fill: none; stroke: #8c564b"/>
    <path d="M 240.039422 558.079941 
L 240.039422 482.40406 
" clip-path="url(#pfc7c11cf2a)" style="fill: none; stroke: #8c564b"/>
    <path d="M 243.992868 498.211358 
L 243.992868 403.513043 
" clip-path="url(#pfc7c11cf2a)" style="fill: none; stroke: #8c564b"/>
    <path d="M 247.667221 519.57869 
L 247.667221 450.862201 
" clip-path="url(#pfc7c11cf2a)" style="fill: none; stroke: #8c564b"/>
    <path d="M 250.684498 542.819447 
L 250.684498 505.807944 
" clip-path="url(#pfc7c11cf2a)" style="fill: none; stroke: #8c564b"/>
    <path d="M 265.359202 578.536955 
L 265.359202 556.440289 
" clip-path="url(#pfc7c11cf2a)" style="fill: none; stroke: #8c564b"/>
    <path clip-path="url(#pfc7c11cf2a)" style="fill: none; stroke: #8c564b"/>
    <path clip-path="url(#pfc7c11cf2a)" style="fill: none; stroke: #8c564b"/>
    <path d="M 307.667738 606.241018 
L 307.667738 598.635794 
" clip-path="url(#pfc7c11cf2a)" style="fill: none; stroke: #8c564b"/>
    <path clip-path="url(#pfc7c11cf2a)" style="fill: none; stroke: #8c564b"/>
    <path clip-path="url(#pfc7c11cf2a)" style="fill: none; stroke: #8c564b"/>
    <path d="M 364.935198 616.459329 
L 364.935198 612.60898 
" clip-path="url(#pfc7c11cf2a)" style="fill: none; stroke: #8c564b"/>
    <path d="M 392.881085 617.103189 
L 392.881085 614.11226 
" clip-path="url(#pfc7c11cf2a)" style="fill: none; stroke: #8c564b"/>
    <path d="M 406.815938 617.245203 
L 406.815938 614.11226 
" clip-path="url(#pfc7c11cf2a)" style="fill: none; stroke: #8c564b"/>
   </g>
   <g id="line2d_36">
    <path d="M 59.268737 622.313337 
L 59.963138 622.251943 
L 60.657538 621.767221 
L 62.393538 620.223182 
L 63.435137 619.609855 
L 64.476737 619.264266 
L 65.865537 619.10866 
L 67.601537 619.204866 
L 70.726337 619.687846 
L 76.975937 620.666262 
L 82.183938 621.220096 
L 88.433537 621.640348 
L 96.419138 621.94308 
L 108.223938 622.148776 
L 129.403137 622.257403 
L 201.273538 622.292142 
L 233.649937 622.196656 
L 234.517937 621.509996 
L 235.819938 620.337489 
L 236.687938 619.765729 
L 237.555937 619.390901 
L 238.857937 619.126075 
L 240.159937 619.103002 
L 242.329937 619.339641 
L 253.613937 621.000351 
L 259.255938 621.463452 
L 266.633938 621.821966 
L 276.615937 622.065022 
L 292.673937 622.209382 
L 330.865937 622.267219 
L 450.215937 622.288506 
L 450.215937 622.288506 
" clip-path="url(#pfc7c11cf2a)" style="fill: none; stroke: #1f77b4; stroke-width: 2; stroke-linecap: square"/>
   </g>
   <g id="line2d_37">
    <path d="M 235.858893 622.501809 
L 236.502052 622.45142 
L 237.036796 621.475123 
L 244.277088 619.288229 
L 247.294365 620.24271 
L 250.973846 620.854533 
L 264.988544 621.708808 
L 279.645667 621.974697 
L 294.296931 622.124497 
L 307.951958 622.248831 
L 322.587106 622.260659 
L 337.242764 622.363948 
L 365.204767 622.449461 
L 393.475164 622.455277 
L 406.815938 622.503239 
" clip-path="url(#pfc7c11cf2a)" style="fill: none; stroke-dasharray: 3.7,1.6; stroke-dashoffset: 0; stroke: #1f77b4"/>
    <g clip-path="url(#pfc7c11cf2a)">
     <use xlink:href="#m8bba63e881" x="235.858893" y="622.501809" style="fill: #1f77b4; stroke: #000000; stroke-linejoin: miter"/>
     <use xlink:href="#m8bba63e881" x="236.502052" y="622.45142" style="fill: #1f77b4; stroke: #000000; stroke-linejoin: miter"/>
     <use xlink:href="#m8bba63e881" x="237.036796" y="621.475123" style="fill: #1f77b4; stroke: #000000; stroke-linejoin: miter"/>
     <use xlink:href="#m8bba63e881" x="244.277088" y="619.288229" style="fill: #1f77b4; stroke: #000000; stroke-linejoin: miter"/>
     <use xlink:href="#m8bba63e881" x="247.294365" y="620.24271" style="fill: #1f77b4; stroke: #000000; stroke-linejoin: miter"/>
     <use xlink:href="#m8bba63e881" x="250.973846" y="620.854533" style="fill: #1f77b4; stroke: #000000; stroke-linejoin: miter"/>
     <use xlink:href="#m8bba63e881" x="264.988544" y="621.708808" style="fill: #1f77b4; stroke: #000000; stroke-linejoin: miter"/>
     <use xlink:href="#m8bba63e881" x="279.645667" y="621.974697" style="fill: #1f77b4; stroke: #000000; stroke-linejoin: miter"/>
     <use xlink:href="#m8bba63e881" x="294.296931" y="622.124497" style="fill: #1f77b4; stroke: #000000; stroke-linejoin: miter"/>
     <use xlink:href="#m8bba63e881" x="307.951958" y="622.248831" style="fill: #1f77b4; stroke: #000000; stroke-linejoin: miter"/>
     <use xlink:href="#m8bba63e881" x="322.587106" y="622.260659" style="fill: #1f77b4; stroke: #000000; stroke-linejoin: miter"/>
     <use xlink:href="#m8bba63e881" x="337.242764" y="622.363948" style="fill: #1f77b4; stroke: #000000; stroke-linejoin: miter"/>
     <use xlink:href="#m8bba63e881" x="365.204767" y="622.449461" style="fill: #1f77b4; stroke: #000000; stroke-linejoin: miter"/>
     <use xlink:href="#m8bba63e881" x="393.475164" y="622.455277" style="fill: #1f77b4; stroke: #000000; stroke-linejoin: miter"/>
     <use xlink:href="#m8bba63e881" x="406.815938" y="622.503239" style="fill: #1f77b4; stroke: #000000; stroke-linejoin: miter"/>
    </g>
   </g>
   <g id="line2d_38">
    <path d="M 59.268737 621.3227 
L 59.615938 621.322898 
L 59.615938 621.322898 
L 59.963138 621.077123 
L 60.310338 620.276785 
L 61.351938 616.516232 
L 62.393538 612.961684 
L 63.087938 611.197023 
L 63.782338 609.939352 
L 64.476737 609.125219 
L 65.171137 608.672755 
L 65.865537 608.502407 
L 66.559937 608.544978 
L 67.601537 608.887026 
L 68.990337 609.652073 
L 72.115138 611.782051 
L 75.239937 613.778258 
L 77.670337 615.083024 
L 80.447937 616.309201 
L 83.225538 617.291885 
L 86.350337 618.162015 
L 89.822337 618.901027 
L 93.988737 619.551759 
L 98.849537 620.079462 
L 105.099137 620.515468 
L 113.084737 620.833772 
L 124.542337 621.050817 
L 144.679937 621.175413 
L 207.175938 621.241584 
L 233.215937 621.257371 
L 233.215937 621.257371 
L 233.649937 620.855961 
L 234.083937 619.671193 
L 236.253938 612.172946 
L 237.121938 610.289436 
L 237.989937 609.14009 
L 238.857937 608.572182 
L 239.725937 608.431379 
L 240.593937 608.588616 
L 241.895938 609.173298 
L 243.631937 610.274193 
L 248.405937 613.456227 
L 251.009938 614.888958 
L 253.613937 616.069857 
L 256.651937 617.171851 
L 259.689937 618.032885 
L 263.161938 618.78787 
L 267.067937 619.417345 
L 271.841937 619.959786 
L 277.917937 620.407825 
L 285.729938 620.741333 
L 297.013937 620.973146 
L 316.109938 621.10552 
L 370.793937 621.173554 
L 450.215937 621.223351 
L 450.215937 621.223351 
" clip-path="url(#pfc7c11cf2a)" style="fill: none; stroke: #2ca02c; stroke-width: 2; stroke-linecap: square"/>
   </g>
   <g id="line2d_39">
    <path d="M 235.809081 622.361098 
L 236.904941 615.390331 
L 242.842801 608.47656 
L 248.184385 611.979301 
L 251.195801 614.36796 
L 265.212697 618.449357 
L 279.205419 619.672761 
L 294.187784 620.290924 
L 308.175378 620.854533 
L 322.822247 621.168123 
L 337.138745 621.463211 
L 364.765984 621.798966 
L 393.379936 621.939903 
L 406.815938 621.994742 
" clip-path="url(#pfc7c11cf2a)" style="fill: none; stroke-dasharray: 3.7,1.6; stroke-dashoffset: 0; stroke: #2ca02c"/>
    <g clip-path="url(#pfc7c11cf2a)">
     <use xlink:href="#m009165d7f4" x="235.809081" y="622.361098" style="fill: #2ca02c; stroke: #000000; stroke-linejoin: miter"/>
     <use xlink:href="#m009165d7f4" x="236.904941" y="615.390331" style="fill: #2ca02c; stroke: #000000; stroke-linejoin: miter"/>
     <use xlink:href="#m009165d7f4" x="242.842801" y="608.47656" style="fill: #2ca02c; stroke: #000000; stroke-linejoin: miter"/>
     <use xlink:href="#m009165d7f4" x="248.184385" y="611.979301" style="fill: #2ca02c; stroke: #000000; stroke-linejoin: miter"/>
     <use xlink:href="#m009165d7f4" x="251.195801" y="614.36796" style="fill: #2ca02c; stroke: #000000; stroke-linejoin: miter"/>
     <use xlink:href="#m009165d7f4" x="265.212697" y="618.449357" style="fill: #2ca02c; stroke: #000000; stroke-linejoin: miter"/>
     <use xlink:href="#m009165d7f4" x="279.205419" y="619.672761" style="fill: #2ca02c; stroke: #000000; stroke-linejoin: miter"/>
     <use xlink:href="#m009165d7f4" x="294.187784" y="620.290924" style="fill: #2ca02c; stroke: #000000; stroke-linejoin: miter"/>
     <use xlink:href="#m009165d7f4" x="308.175378" y="620.854533" style="fill: #2ca02c; stroke: #000000; stroke-linejoin: miter"/>
     <use xlink:href="#m009165d7f4" x="322.822247" y="621.168123" style="fill: #2ca02c; stroke: #000000; stroke-linejoin: miter"/>
     <use xlink:href="#m009165d7f4" x="337.138745" y="621.463211" style="fill: #2ca02c; stroke: #000000; stroke-linejoin: miter"/>
     <use xlink:href="#m009165d7f4" x="364.765984" y="621.798966" style="fill: #2ca02c; stroke: #000000; stroke-linejoin: miter"/>
     <use xlink:href="#m009165d7f4" x="393.379936" y="621.939903" style="fill: #2ca02c; stroke: #000000; stroke-linejoin: miter"/>
     <use xlink:href="#m009165d7f4" x="406.815938" y="621.994742" style="fill: #2ca02c; stroke: #000000; stroke-linejoin: miter"/>
    </g>
   </g>
   <g id="line2d_40">
    <path d="M 59.268737 620.001355 
L 59.615938 620.001751 
L 59.615938 620.001751 
L 59.963138 619.510198 
L 60.310338 617.909507 
L 61.351938 610.388128 
L 62.393538 603.27827 
L 63.087938 599.748242 
L 63.782338 597.232157 
L 64.476737 595.603199 
L 65.171137 594.697689 
L 65.865537 594.356545 
L 66.559937 594.441376 
L 67.254337 594.838535 
L 68.295937 595.828349 
L 69.684737 597.559954 
L 75.239937 604.90914 
L 77.323138 607.173966 
L 79.406338 609.114259 
L 81.489538 610.761409 
L 83.572738 612.153918 
L 86.003138 613.506313 
L 88.433537 614.615232 
L 91.211137 615.640559 
L 94.335938 616.548515 
L 97.807938 617.321501 
L 101.974338 618.004588 
L 106.835138 618.560971 
L 112.737538 619.003082 
L 120.375937 619.341566 
L 131.139138 619.58044 
L 149.193537 619.729302 
L 197.107137 619.826423 
L 233.215937 619.870655 
L 233.215937 619.870655 
L 233.649937 619.067829 
L 234.083937 616.698261 
L 236.253938 601.700481 
L 237.121938 597.932535 
L 237.989937 595.63295 
L 238.423937 594.939464 
L 238.857937 594.496401 
L 239.291937 594.266078 
L 239.725937 594.214275 
L 240.159937 594.31059 
L 241.027938 594.844848 
L 241.895938 595.697655 
L 243.197937 597.313284 
L 248.839937 604.778848 
L 251.009938 607.130963 
L 253.179937 609.132164 
L 255.349938 610.818694 
L 257.519937 612.234138 
L 260.123938 613.633178 
L 262.727937 614.764231 
L 265.765938 615.813483 
L 268.803938 616.633396 
L 272.275937 617.354305 
L 276.615937 618.01391 
L 281.823937 618.555854 
L 288.333937 618.983763 
L 296.579937 619.290657 
L 308.731937 619.503693 
L 330.865937 619.632216 
L 411.155937 619.754404 
L 450.215937 619.802585 
L 450.215937 619.802585 
" clip-path="url(#pfc7c11cf2a)" style="fill: none; stroke: #d62728; stroke-width: 2; stroke-linecap: square"/>
   </g>
   <g id="line2d_41">
    <path d="M 235.869149 622.520564 
L 236.409753 621.954033 
L 238.384645 621.727578 
L 243.458124 594.405418 
L 247.473834 602.642321 
L 250.814155 606.314861 
L 265.504242 615.241683 
L 280.165761 617.660019 
L 294.154088 618.892169 
L 308.806816 619.790883 
L 322.78562 620.193508 
L 337.436884 620.742274 
L 365.406212 621.451178 
L 394.011374 621.521579 
L 406.815938 621.763996 
" clip-path="url(#pfc7c11cf2a)" style="fill: none; stroke-dasharray: 3.7,1.6; stroke-dashoffset: 0; stroke: #d62728"/>
    <g clip-path="url(#pfc7c11cf2a)">
     <use xlink:href="#mb4b7a13247" x="235.869149" y="622.520564" style="fill: #d62728; stroke: #000000; stroke-linejoin: miter"/>
     <use xlink:href="#mb4b7a13247" x="236.409753" y="621.954033" style="fill: #d62728; stroke: #000000; stroke-linejoin: miter"/>
     <use xlink:href="#mb4b7a13247" x="238.384645" y="621.727578" style="fill: #d62728; stroke: #000000; stroke-linejoin: miter"/>
     <use xlink:href="#mb4b7a13247" x="243.458124" y="594.405418" style="fill: #d62728; stroke: #000000; stroke-linejoin: miter"/>
     <use xlink:href="#mb4b7a13247" x="247.473834" y="602.642321" style="fill: #d62728; stroke: #000000; stroke-linejoin: miter"/>
     <use xlink:href="#mb4b7a13247" x="250.814155" y="606.314861" style="fill: #d62728; stroke: #000000; stroke-linejoin: miter"/>
     <use xlink:href="#mb4b7a13247" x="265.504242" y="615.241683" style="fill: #d62728; stroke: #000000; stroke-linejoin: miter"/>
     <use xlink:href="#mb4b7a13247" x="280.165761" y="617.660019" style="fill: #d62728; stroke: #000000; stroke-linejoin: miter"/>
     <use xlink:href="#mb4b7a13247" x="294.154088" y="618.892169" style="fill: #d62728; stroke: #000000; stroke-linejoin: miter"/>
     <use xlink:href="#mb4b7a13247" x="308.806816" y="619.790883" style="fill: #d62728; stroke: #000000; stroke-linejoin: miter"/>
     <use xlink:href="#mb4b7a13247" x="322.78562" y="620.193508" style="fill: #d62728; stroke: #000000; stroke-linejoin: miter"/>
     <use xlink:href="#mb4b7a13247" x="337.436884" y="620.742274" style="fill: #d62728; stroke: #000000; stroke-linejoin: miter"/>
     <use xlink:href="#mb4b7a13247" x="365.406212" y="621.451178" style="fill: #d62728; stroke: #000000; stroke-linejoin: miter"/>
     <use xlink:href="#mb4b7a13247" x="394.011374" y="621.521579" style="fill: #d62728; stroke: #000000; stroke-linejoin: miter"/>
     <use xlink:href="#mb4b7a13247" x="406.815938" y="621.763996" style="fill: #d62728; stroke: #000000; stroke-linejoin: miter"/>
    </g>
   </g>
   <g id="line2d_42">
    <path d="M 59.268737 616.033917 
L 59.615938 616.034908 
L 59.615938 616.034908 
L 59.963138 614.806008 
L 60.310338 610.804165 
L 61.351938 591.998674 
L 62.393538 574.218318 
L 63.087938 565.387972 
L 63.782338 559.092195 
L 64.476737 555.014626 
L 65.171137 552.74649 
L 65.518338 552.164937 
L 65.865537 551.890278 
L 66.212737 551.88112 
L 66.559937 552.100026 
L 67.254337 553.091524 
L 67.948737 554.639271 
L 68.990337 557.63309 
L 71.073537 564.68077 
L 73.851137 574.040582 
L 75.934337 580.260055 
L 77.670337 584.807783 
L 79.406338 588.797914 
L 81.142337 592.278531 
L 82.878338 595.305583 
L 84.614338 597.934343 
L 86.350337 600.215854 
L 88.433537 602.559143 
L 90.516737 604.536201 
L 92.599937 606.204955 
L 94.683138 607.614187 
L 97.113538 608.984594 
L 99.543937 610.111244 
L 102.321538 611.156464 
L 105.446337 612.085741 
L 108.918338 612.880482 
L 113.084737 613.586613 
L 117.945537 614.165837 
L 123.847937 614.630811 
L 131.486337 614.993142 
L 142.249537 615.258986 
L 159.956737 615.443095 
L 205.787138 615.623544 
L 233.215937 615.70685 
L 233.215937 615.70685 
L 233.649937 613.699752 
L 234.083937 607.775596 
L 236.253938 570.271503 
L 237.121938 560.844712 
L 237.989937 555.089062 
L 238.423937 553.352421 
L 238.857937 552.24221 
L 239.291937 551.664254 
L 239.725937 551.533005 
L 240.159937 551.772443 
L 240.593937 552.316081 
L 241.461938 554.094368 
L 242.329937 556.502095 
L 244.065937 562.239252 
L 247.537937 573.989245 
L 249.707937 580.41469 
L 251.443938 584.905311 
L 253.179937 588.842368 
L 254.915937 592.27535 
L 256.651937 595.260409 
L 258.387938 597.852502 
L 260.123938 600.102157 
L 261.859938 602.054438 
L 264.029938 604.136387 
L 266.199937 605.88132 
L 268.369937 607.34459 
L 270.973937 608.793185 
L 273.577938 609.967735 
L 276.615937 611.06133 
L 279.653937 611.919419 
L 283.125937 612.677277 
L 287.465937 613.374584 
L 292.239937 613.912229 
L 298.315938 614.364125 
L 306.127938 614.710578 
L 317.411938 614.967448 
L 336.507938 615.147105 
L 391.191937 615.353241 
L 450.215937 615.536451 
L 450.215937 615.536451 
" clip-path="url(#pfc7c11cf2a)" style="fill: none; stroke: #9467bd; stroke-width: 2; stroke-linecap: square"/>
   </g>
   <g id="line2d_43">
    <path d="M 235.838383 622.455277 
L 239.432158 576.693152 
L 242.035557 521.275464 
L 247.383001 552.285941 
L 250.739437 576.693152 
L 264.7556 599.117933 
L 279.423712 608.186219 
L 293.403248 610.352078 
L 308.066965 614.615996 
L 322.049431 616.089973 
L 337.369491 617.809385 
L 365.325634 619.004604 
L 393.289102 620.16853 
L 406.815938 620.16853 
" clip-path="url(#pfc7c11cf2a)" style="fill: none; stroke-dasharray: 3.7,1.6; stroke-dashoffset: 0; stroke: #9467bd"/>
    <g clip-path="url(#pfc7c11cf2a)">
     <use xlink:href="#me0f672f671" x="235.838383" y="622.455277" style="fill: #9467bd; stroke: #000000; stroke-linejoin: miter"/>
     <use xlink:href="#me0f672f671" x="239.432158" y="576.693152" style="fill: #9467bd; stroke: #000000; stroke-linejoin: miter"/>
     <use xlink:href="#me0f672f671" x="242.035557" y="521.275464" style="fill: #9467bd; stroke: #000000; stroke-linejoin: miter"/>
     <use xlink:href="#me0f672f671" x="247.383001" y="552.285941" style="fill: #9467bd; stroke: #000000; stroke-linejoin: miter"/>
     <use xlink:href="#me0f672f671" x="250.739437" y="576.693152" style="fill: #9467bd; stroke: #000000; stroke-linejoin: miter"/>
     <use xlink:href="#me0f672f671" x="264.7556" y="599.117933" style="fill: #9467bd; stroke: #000000; stroke-linejoin: miter"/>
     <use xlink:href="#me0f672f671" x="279.423712" y="608.186219" style="fill: #9467bd; stroke: #000000; stroke-linejoin: miter"/>
     <use xlink:href="#me0f672f671" x="293.403248" y="610.352078" style="fill: #9467bd; stroke: #000000; stroke-linejoin: miter"/>
     <use xlink:href="#me0f672f671" x="308.066965" y="614.615996" style="fill: #9467bd; stroke: #000000; stroke-linejoin: miter"/>
     <use xlink:href="#me0f672f671" x="322.049431" y="616.089973" style="fill: #9467bd; stroke: #000000; stroke-linejoin: miter"/>
     <use xlink:href="#me0f672f671" x="337.369491" y="617.809385" style="fill: #9467bd; stroke: #000000; stroke-linejoin: miter"/>
     <use xlink:href="#me0f672f671" x="365.325634" y="619.004604" style="fill: #9467bd; stroke: #000000; stroke-linejoin: miter"/>
     <use xlink:href="#me0f672f671" x="393.289102" y="620.16853" style="fill: #9467bd; stroke: #000000; stroke-linejoin: miter"/>
     <use xlink:href="#me0f672f671" x="406.815938" y="620.16853" style="fill: #9467bd; stroke: #000000; stroke-linejoin: miter"/>
    </g>
   </g>
   <g id="line2d_44">
    <path d="M 59.268737 609.410197 
L 59.615938 609.41218 
L 59.615938 609.41218 
L 59.963138 606.954325 
L 60.310338 598.950254 
L 61.351938 561.332469 
L 62.393538 525.752782 
L 63.087938 508.07457 
L 63.782338 495.46456 
L 64.476737 487.292247 
L 65.171137 482.741505 
L 65.518338 481.572404 
L 65.865537 481.017952 
L 66.212737 480.995356 
L 66.559937 481.429708 
L 66.907137 482.253855 
L 67.601537 484.839417 
L 68.643137 490.359877 
L 70.031937 499.370252 
L 74.198338 527.519486 
L 76.281538 539.697216 
L 78.017537 548.573083 
L 79.753537 556.349208 
L 81.489538 563.127126 
L 83.225538 569.019523 
L 84.961537 574.13574 
L 86.697537 578.575899 
L 88.433537 582.42911 
L 90.169537 585.773517 
L 91.905537 588.677131 
L 93.641537 591.198905 
L 95.377537 593.389851 
L 97.460738 595.643973 
L 99.543937 597.549935 
L 101.627138 599.162373 
L 104.057537 600.733431 
L 106.487938 602.027763 
L 109.265537 603.231299 
L 112.043138 604.197649 
L 115.167937 605.060232 
L 118.987138 605.865339 
L 123.153537 606.511046 
L 128.361537 607.077545 
L 134.611137 607.523381 
L 142.943938 607.880914 
L 155.095937 608.157342 
L 176.969538 608.393503 
L 233.215937 608.75501 
L 233.215937 608.75501 
L 233.649937 604.740701 
L 234.083937 592.891598 
L 236.253938 517.851369 
L 237.121938 498.974795 
L 237.989937 487.441312 
L 238.423937 483.958318 
L 238.857937 481.729425 
L 239.291937 480.566375 
L 239.725937 480.298091 
L 240.159937 480.772487 
L 240.593937 481.856493 
L 241.461938 485.409693 
L 242.329937 490.225142 
L 244.065937 501.705839 
L 247.537937 525.227632 
L 249.273937 535.663262 
L 251.009938 544.942141 
L 252.745937 553.093528 
L 254.481937 560.208748 
L 256.217938 566.398885 
L 257.953937 571.775432 
L 259.689937 576.442087 
L 261.425937 580.49187 
L 263.161938 584.006697 
L 264.897938 587.058007 
L 266.633938 589.707796 
L 268.369937 592.009734 
L 270.105937 594.010234 
L 272.275937 596.14757 
L 274.445938 597.942878 
L 276.615937 599.451777 
L 278.785937 600.720714 
L 281.389937 601.980877 
L 283.993938 603.006251 
L 287.031938 603.964762 
L 290.503938 604.814465 
L 294.409938 605.533055 
L 299.183938 606.164131 
L 304.825938 606.669748 
L 312.203937 607.084613 
L 322.185938 607.40074 
L 337.809937 607.648792 
L 372.963937 607.928976 
L 450.215937 608.413463 
L 450.215937 608.413463 
" clip-path="url(#pfc7c11cf2a)" style="fill: none; stroke: #8c564b; stroke-width: 2; stroke-linecap: square"/>
   </g>
   <g id="line2d_45">
    <path d="M 236.459565 622.297586 
L 240.039422 520.242 
L 243.992868 450.862201 
L 247.667221 485.220446 
L 250.684498 524.313696 
L 265.359202 567.488622 
L 278.693383 586.985522 
L 293.346111 595.528222 
L 307.667738 602.438406 
L 322.645708 605.638717 
L 336.294142 608.47656 
L 364.935198 614.534155 
L 392.881085 615.607725 
L 406.815938 615.678731 
" clip-path="url(#pfc7c11cf2a)" style="fill: none; stroke-dasharray: 3.7,1.6; stroke-dashoffset: 0; stroke: #8c564b"/>
    <g clip-path="url(#pfc7c11cf2a)">
     <use xlink:href="#md63d791dae" x="236.459565" y="622.297586" style="fill: #8c564b; stroke: #000000; stroke-linejoin: miter"/>
     <use xlink:href="#md63d791dae" x="240.039422" y="520.242" style="fill: #8c564b; stroke: #000000; stroke-linejoin: miter"/>
     <use xlink:href="#md63d791dae" x="243.992868" y="450.862201" style="fill: #8c564b; stroke: #000000; stroke-linejoin: miter"/>
     <use xlink:href="#md63d791dae" x="247.667221" y="485.220446" style="fill: #8c564b; stroke: #000000; stroke-linejoin: miter"/>
     <use xlink:href="#md63d791dae" x="250.684498" y="524.313696" style="fill: #8c564b; stroke: #000000; stroke-linejoin: miter"/>
     <use xlink:href="#md63d791dae" x="265.359202" y="567.488622" style="fill: #8c564b; stroke: #000000; stroke-linejoin: miter"/>
     <use xlink:href="#md63d791dae" x="278.693383" y="586.985522" style="fill: #8c564b; stroke: #000000; stroke-linejoin: miter"/>
     <use xlink:href="#md63d791dae" x="293.346111" y="595.528222" style="fill: #8c564b; stroke: #000000; stroke-linejoin: miter"/>
     <use xlink:href="#md63d791dae" x="307.667738" y="602.438406" style="fill: #8c564b; stroke: #000000; stroke-linejoin: miter"/>
     <use xlink:href="#md63d791dae" x="322.645708" y="605.638717" style="fill: #8c564b; stroke: #000000; stroke-linejoin: miter"/>
     <use xlink:href="#md63d791dae" x="336.294142" y="608.47656" style="fill: #8c564b; stroke: #000000; stroke-linejoin: miter"/>
     <use xlink:href="#md63d791dae" x="364.935198" y="614.534155" style="fill: #8c564b; stroke: #000000; stroke-linejoin: miter"/>
     <use xlink:href="#md63d791dae" x="392.881085" y="615.607725" style="fill: #8c564b; stroke: #000000; stroke-linejoin: miter"/>
     <use xlink:href="#md63d791dae" x="406.815938" y="615.678731" style="fill: #8c564b; stroke: #000000; stroke-linejoin: miter"/>
    </g>
   </g>
   <g id="patch_8">
    <path d="M 59.615938 633.6 
L 59.615938 392.556522 
" style="fill: none; stroke: #000000; stroke-width: 0.8; stroke-linejoin: miter; stroke-linecap: square"/>
   </g>
   <g id="patch_9">
    <path d="M 450.215937 633.6 
L 450.215937 392.556522 
" style="fill: none; stroke: #000000; stroke-width: 0.8; stroke-linejoin: miter; stroke-linecap: square"/>
   </g>
   <g id="patch_10">
    <path d="M 59.615938 633.6 
L 450.215937 633.6 
" style="fill: none; stroke: #000000; stroke-width: 0.8; stroke-linejoin: miter; stroke-linecap: square"/>
   </g>
   <g id="patch_11">
    <path d="M 59.615938 392.556522 
L 450.215937 392.556522 
" style="fill: none; stroke: #000000; stroke-width: 0.8; stroke-linejoin: miter; stroke-linecap: square"/>
   </g>
  </g>
  <g id="text_30">
   <!-- Komoroski2009 -->
   <g transform="translate(139.369844 26.196094) scale(0.25 -0.25)">
    <defs>
     <path id="DejaVuSans-Bold-4b" d="M 588 4666 
L 1791 4666 
L 1791 2963 
L 3525 4666 
L 4922 4666 
L 2675 2456 
L 5153 0 
L 3647 0 
L 1791 1838 
L 1791 0 
L 588 0 
L 588 4666 
z
" transform="scale(0.015625)"/>
     <path id="DejaVuSans-Bold-6b" d="M 538 4863 
L 1656 4863 
L 1656 2216 
L 2944 3500 
L 4244 3500 
L 2534 1894 
L 4378 0 
L 3022 0 
L 1656 1459 
L 1656 0 
L 538 0 
L 538 4863 
z
" transform="scale(0.015625)"/>
     <path id="DejaVuSans-Bold-32" d="M 1844 884 
L 3897 884 
L 3897 0 
L 506 0 
L 506 884 
L 2209 2388 
Q 2438 2594 2547 2791 
Q 2656 2988 2656 3200 
Q 2656 3528 2436 3728 
Q 2216 3928 1850 3928 
Q 1569 3928 1234 3808 
Q 900 3688 519 3450 
L 519 4475 
Q 925 4609 1322 4679 
Q 1719 4750 2100 4750 
Q 2938 4750 3402 4381 
Q 3866 4013 3866 3353 
Q 3866 2972 3669 2642 
Q 3472 2313 2841 1759 
L 1844 884 
z
" transform="scale(0.015625)"/>
     <path id="DejaVuSans-Bold-30" d="M 2944 2338 
Q 2944 3213 2780 3570 
Q 2616 3928 2228 3928 
Q 1841 3928 1675 3570 
Q 1509 3213 1509 2338 
Q 1509 1453 1675 1090 
Q 1841 728 2228 728 
Q 2613 728 2778 1090 
Q 2944 1453 2944 2338 
z
M 4147 2328 
Q 4147 1169 3647 539 
Q 3147 -91 2228 -91 
Q 1306 -91 806 539 
Q 306 1169 306 2328 
Q 306 3491 806 4120 
Q 1306 4750 2228 4750 
Q 3147 4750 3647 4120 
Q 4147 3491 4147 2328 
z
" transform="scale(0.015625)"/>
     <path id="DejaVuSans-Bold-39" d="M 641 103 
L 641 966 
Q 928 831 1190 764 
Q 1453 697 1709 697 
Q 2247 697 2547 995 
Q 2847 1294 2900 1881 
Q 2688 1725 2447 1647 
Q 2206 1569 1925 1569 
Q 1209 1569 770 1986 
Q 331 2403 331 3084 
Q 331 3838 820 4291 
Q 1309 4744 2131 4744 
Q 3044 4744 3544 4128 
Q 4044 3513 4044 2388 
Q 4044 1231 3459 570 
Q 2875 -91 1856 -91 
Q 1528 -91 1228 -42 
Q 928 6 641 103 
z
M 2125 2350 
Q 2441 2350 2600 2554 
Q 2759 2759 2759 3169 
Q 2759 3575 2600 3781 
Q 2441 3988 2125 3988 
Q 1809 3988 1650 3781 
Q 1491 3575 1491 3169 
Q 1491 2759 1650 2554 
Q 1809 2350 2125 2350 
z
" transform="scale(0.015625)"/>
    </defs>
    <use xlink:href="#DejaVuSans-Bold-4b"/>
    <use xlink:href="#DejaVuSans-Bold-6f" x="75.740234"/>
    <use xlink:href="#DejaVuSans-Bold-6d" x="144.441406"/>
    <use xlink:href="#DejaVuSans-Bold-6f" x="248.640625"/>
    <use xlink:href="#DejaVuSans-Bold-72" x="317.341797"/>
    <use xlink:href="#DejaVuSans-Bold-6f" x="366.658203"/>
    <use xlink:href="#DejaVuSans-Bold-73" x="435.359375"/>
    <use xlink:href="#DejaVuSans-Bold-6b" x="494.880859"/>
    <use xlink:href="#DejaVuSans-Bold-69" x="561.384766"/>
    <use xlink:href="#DejaVuSans-Bold-32" x="595.662109"/>
    <use xlink:href="#DejaVuSans-Bold-30" x="665.242188"/>
    <use xlink:href="#DejaVuSans-Bold-30" x="734.822266"/>
    <use xlink:href="#DejaVuSans-Bold-39" x="804.402344"/>
   </g>
  </g>
 </g>
 <defs>
  <clipPath id="p980af7d497">
   <rect x="59.615938" y="79.2" width="390.6" height="241.043478"/>
  </clipPath>
  <clipPath id="pfc7c11cf2a">
   <rect x="59.615938" y="392.556522" width="390.6" height="241.043478"/>
  </clipPath>
 </defs>
</svg>
