<?xml version="1.0" encoding="utf-8" standalone="no"?>
<!DOCTYPE svg PUBLIC "-//W3C//DTD SVG 1.1//EN"
  "http://www.w3.org/Graphics/SVG/1.1/DTD/svg11.dtd">
<svg xmlns:xlink="http://www.w3.org/1999/xlink" width="462.1925pt" height="370.537812pt" viewBox="0 0 462.1925 370.537812" xmlns="http://www.w3.org/2000/svg" version="1.1">
 <metadata>
  <rdf:RDF xmlns:dc="http://purl.org/dc/elements/1.1/" xmlns:cc="http://creativecommons.org/ns#" xmlns:rdf="http://www.w3.org/1999/02/22-rdf-syntax-ns#">
   <cc:Work>
    <dc:type rdf:resource="http://purl.org/dc/dcmitype/StillImage"/>
    <dc:date>2025-03-19T16:41:37.611733</dc:date>
    <dc:format>image/svg+xml</dc:format>
    <dc:creator>
     <cc:Agent>
      <dc:title>Matplotlib v3.9.1, https://matplotlib.org/</dc:title>
     </cc:Agent>
    </dc:creator>
   </cc:Work>
  </rdf:RDF>
 </metadata>
 <defs>
  <style type="text/css">*{stroke-linejoin: round; stroke-linecap: butt}</style>
 </defs>
 <g id="figure_1">
  <g id="patch_1">
   <path d="M 0 370.537812 
L 462.1925 370.537812 
L 462.1925 0 
L 0 0 
z
" style="fill: #ffffff"/>
  </g>
  <g id="axes_1">
   <g id="patch_2">
    <path d="M 64.3925 320.4 
L 454.9925 320.4 
L 454.9925 43.2 
L 64.3925 43.2 
z
" style="fill: #ffffff"/>
   </g>
   <g id="matplotlib.axis_1">
    <g id="xtick_1">
     <g id="line2d_1">
      <defs>
       <path id="m1ce35d957b" d="M 0 0 
L 0 3.5 
" style="stroke: #000000; stroke-width: 0.8"/>
      </defs>
      <g>
       <use xlink:href="#m1ce35d957b" x="82.147045" y="320.4" style="stroke: #000000; stroke-width: 0.8"/>
      </g>
     </g>
     <g id="text_1">
      <!-- 0 -->
      <g transform="translate(77.37517 338.797656) scale(0.15 -0.15)">
       <defs>
        <path id="DejaVuSans-30" d="M 2034 4250 
Q 1547 4250 1301 3770 
Q 1056 3291 1056 2328 
Q 1056 1369 1301 889 
Q 1547 409 2034 409 
Q 2525 409 2770 889 
Q 3016 1369 3016 2328 
Q 3016 3291 2770 3770 
Q 2525 4250 2034 4250 
z
M 2034 4750 
Q 2819 4750 3233 4129 
Q 3647 3509 3647 2328 
Q 3647 1150 3233 529 
Q 2819 -91 2034 -91 
Q 1250 -91 836 529 
Q 422 1150 422 2328 
Q 422 3509 836 4129 
Q 1250 4750 2034 4750 
z
" transform="scale(0.015625)"/>
       </defs>
       <use xlink:href="#DejaVuSans-30"/>
      </g>
     </g>
    </g>
    <g id="xtick_2">
     <g id="line2d_2">
      <g>
       <use xlink:href="#m1ce35d957b" x="138.961591" y="320.4" style="stroke: #000000; stroke-width: 0.8"/>
      </g>
     </g>
     <g id="text_2">
      <!-- 20 -->
      <g transform="translate(129.417841 338.797656) scale(0.15 -0.15)">
       <defs>
        <path id="DejaVuSans-32" d="M 1228 531 
L 3431 531 
L 3431 0 
L 469 0 
L 469 531 
Q 828 903 1448 1529 
Q 2069 2156 2228 2338 
Q 2531 2678 2651 2914 
Q 2772 3150 2772 3378 
Q 2772 3750 2511 3984 
Q 2250 4219 1831 4219 
Q 1534 4219 1204 4116 
Q 875 4013 500 3803 
L 500 4441 
Q 881 4594 1212 4672 
Q 1544 4750 1819 4750 
Q 2544 4750 2975 4387 
Q 3406 4025 3406 3419 
Q 3406 3131 3298 2873 
Q 3191 2616 2906 2266 
Q 2828 2175 2409 1742 
Q 1991 1309 1228 531 
z
" transform="scale(0.015625)"/>
       </defs>
       <use xlink:href="#DejaVuSans-32"/>
       <use xlink:href="#DejaVuSans-30" x="63.623047"/>
      </g>
     </g>
    </g>
    <g id="xtick_3">
     <g id="line2d_3">
      <g>
       <use xlink:href="#m1ce35d957b" x="195.776136" y="320.4" style="stroke: #000000; stroke-width: 0.8"/>
      </g>
     </g>
     <g id="text_3">
      <!-- 40 -->
      <g transform="translate(186.232386 338.797656) scale(0.15 -0.15)">
       <defs>
        <path id="DejaVuSans-34" d="M 2419 4116 
L 825 1625 
L 2419 1625 
L 2419 4116 
z
M 2253 4666 
L 3047 4666 
L 3047 1625 
L 3713 1625 
L 3713 1100 
L 3047 1100 
L 3047 0 
L 2419 0 
L 2419 1100 
L 313 1100 
L 313 1709 
L 2253 4666 
z
" transform="scale(0.015625)"/>
       </defs>
       <use xlink:href="#DejaVuSans-34"/>
       <use xlink:href="#DejaVuSans-30" x="63.623047"/>
      </g>
     </g>
    </g>
    <g id="xtick_4">
     <g id="line2d_4">
      <g>
       <use xlink:href="#m1ce35d957b" x="252.590682" y="320.4" style="stroke: #000000; stroke-width: 0.8"/>
      </g>
     </g>
     <g id="text_4">
      <!-- 60 -->
      <g transform="translate(243.046932 338.797656) scale(0.15 -0.15)">
       <defs>
        <path id="DejaVuSans-36" d="M 2113 2584 
Q 1688 2584 1439 2293 
Q 1191 2003 1191 1497 
Q 1191 994 1439 701 
Q 1688 409 2113 409 
Q 2538 409 2786 701 
Q 3034 994 3034 1497 
Q 3034 2003 2786 2293 
Q 2538 2584 2113 2584 
z
M 3366 4563 
L 3366 3988 
Q 3128 4100 2886 4159 
Q 2644 4219 2406 4219 
Q 1781 4219 1451 3797 
Q 1122 3375 1075 2522 
Q 1259 2794 1537 2939 
Q 1816 3084 2150 3084 
Q 2853 3084 3261 2657 
Q 3669 2231 3669 1497 
Q 3669 778 3244 343 
Q 2819 -91 2113 -91 
Q 1303 -91 875 529 
Q 447 1150 447 2328 
Q 447 3434 972 4092 
Q 1497 4750 2381 4750 
Q 2619 4750 2861 4703 
Q 3103 4656 3366 4563 
z
" transform="scale(0.015625)"/>
       </defs>
       <use xlink:href="#DejaVuSans-36"/>
       <use xlink:href="#DejaVuSans-30" x="63.623047"/>
      </g>
     </g>
    </g>
    <g id="xtick_5">
     <g id="line2d_5">
      <g>
       <use xlink:href="#m1ce35d957b" x="309.405227" y="320.4" style="stroke: #000000; stroke-width: 0.8"/>
      </g>
     </g>
     <g id="text_5">
      <!-- 80 -->
      <g transform="translate(299.861477 338.797656) scale(0.15 -0.15)">
       <defs>
        <path id="DejaVuSans-38" d="M 2034 2216 
Q 1584 2216 1326 1975 
Q 1069 1734 1069 1313 
Q 1069 891 1326 650 
Q 1584 409 2034 409 
Q 2484 409 2743 651 
Q 3003 894 3003 1313 
Q 3003 1734 2745 1975 
Q 2488 2216 2034 2216 
z
M 1403 2484 
Q 997 2584 770 2862 
Q 544 3141 544 3541 
Q 544 4100 942 4425 
Q 1341 4750 2034 4750 
Q 2731 4750 3128 4425 
Q 3525 4100 3525 3541 
Q 3525 3141 3298 2862 
Q 3072 2584 2669 2484 
Q 3125 2378 3379 2068 
Q 3634 1759 3634 1313 
Q 3634 634 3220 271 
Q 2806 -91 2034 -91 
Q 1263 -91 848 271 
Q 434 634 434 1313 
Q 434 1759 690 2068 
Q 947 2378 1403 2484 
z
M 1172 3481 
Q 1172 3119 1398 2916 
Q 1625 2713 2034 2713 
Q 2441 2713 2670 2916 
Q 2900 3119 2900 3481 
Q 2900 3844 2670 4047 
Q 2441 4250 2034 4250 
Q 1625 4250 1398 4047 
Q 1172 3844 1172 3481 
z
" transform="scale(0.015625)"/>
       </defs>
       <use xlink:href="#DejaVuSans-38"/>
       <use xlink:href="#DejaVuSans-30" x="63.623047"/>
      </g>
     </g>
    </g>
    <g id="xtick_6">
     <g id="line2d_6">
      <g>
       <use xlink:href="#m1ce35d957b" x="366.219773" y="320.4" style="stroke: #000000; stroke-width: 0.8"/>
      </g>
     </g>
     <g id="text_6">
      <!-- 100 -->
      <g transform="translate(351.904148 338.797656) scale(0.15 -0.15)">
       <defs>
        <path id="DejaVuSans-31" d="M 794 531 
L 1825 531 
L 1825 4091 
L 703 3866 
L 703 4441 
L 1819 4666 
L 2450 4666 
L 2450 531 
L 3481 531 
L 3481 0 
L 794 0 
L 794 531 
z
" transform="scale(0.015625)"/>
       </defs>
       <use xlink:href="#DejaVuSans-31"/>
       <use xlink:href="#DejaVuSans-30" x="63.623047"/>
       <use xlink:href="#DejaVuSans-30" x="127.246094"/>
      </g>
     </g>
    </g>
    <g id="xtick_7">
     <g id="line2d_7">
      <g>
       <use xlink:href="#m1ce35d957b" x="423.034318" y="320.4" style="stroke: #000000; stroke-width: 0.8"/>
      </g>
     </g>
     <g id="text_7">
      <!-- 120 -->
      <g transform="translate(408.718693 338.797656) scale(0.15 -0.15)">
       <use xlink:href="#DejaVuSans-31"/>
       <use xlink:href="#DejaVuSans-32" x="63.623047"/>
       <use xlink:href="#DejaVuSans-30" x="127.246094"/>
      </g>
     </g>
    </g>
    <g id="text_8">
     <!-- time [hr] -->
     <g transform="translate(214.617969 359.594375) scale(0.18 -0.18)">
      <defs>
       <path id="DejaVuSans-Bold-74" d="M 1759 4494 
L 1759 3500 
L 2913 3500 
L 2913 2700 
L 1759 2700 
L 1759 1216 
Q 1759 972 1856 886 
Q 1953 800 2241 800 
L 2816 800 
L 2816 0 
L 1856 0 
Q 1194 0 917 276 
Q 641 553 641 1216 
L 641 2700 
L 84 2700 
L 84 3500 
L 641 3500 
L 641 4494 
L 1759 4494 
z
" transform="scale(0.015625)"/>
       <path id="DejaVuSans-Bold-69" d="M 538 3500 
L 1656 3500 
L 1656 0 
L 538 0 
L 538 3500 
z
M 538 4863 
L 1656 4863 
L 1656 3950 
L 538 3950 
L 538 4863 
z
" transform="scale(0.015625)"/>
       <path id="DejaVuSans-Bold-6d" d="M 3781 2919 
Q 3994 3244 4286 3414 
Q 4578 3584 4928 3584 
Q 5531 3584 5847 3212 
Q 6163 2841 6163 2131 
L 6163 0 
L 5038 0 
L 5038 1825 
Q 5041 1866 5042 1909 
Q 5044 1953 5044 2034 
Q 5044 2406 4934 2573 
Q 4825 2741 4581 2741 
Q 4263 2741 4089 2478 
Q 3916 2216 3909 1719 
L 3909 0 
L 2784 0 
L 2784 1825 
Q 2784 2406 2684 2573 
Q 2584 2741 2328 2741 
Q 2006 2741 1831 2477 
Q 1656 2213 1656 1722 
L 1656 0 
L 531 0 
L 531 3500 
L 1656 3500 
L 1656 2988 
Q 1863 3284 2130 3434 
Q 2397 3584 2719 3584 
Q 3081 3584 3359 3409 
Q 3638 3234 3781 2919 
z
" transform="scale(0.015625)"/>
       <path id="DejaVuSans-Bold-65" d="M 4031 1759 
L 4031 1441 
L 1416 1441 
Q 1456 1047 1700 850 
Q 1944 653 2381 653 
Q 2734 653 3104 758 
Q 3475 863 3866 1075 
L 3866 213 
Q 3469 63 3072 -14 
Q 2675 -91 2278 -91 
Q 1328 -91 801 392 
Q 275 875 275 1747 
Q 275 2603 792 3093 
Q 1309 3584 2216 3584 
Q 3041 3584 3536 3087 
Q 4031 2591 4031 1759 
z
M 2881 2131 
Q 2881 2450 2695 2645 
Q 2509 2841 2209 2841 
Q 1884 2841 1681 2658 
Q 1478 2475 1428 2131 
L 2881 2131 
z
" transform="scale(0.015625)"/>
       <path id="DejaVuSans-Bold-20" transform="scale(0.015625)"/>
       <path id="DejaVuSans-Bold-5b" d="M 550 4863 
L 2491 4863 
L 2491 4159 
L 1613 4159 
L 1613 -141 
L 2491 -141 
L 2491 -844 
L 550 -844 
L 550 4863 
z
" transform="scale(0.015625)"/>
       <path id="DejaVuSans-Bold-68" d="M 4056 2131 
L 4056 0 
L 2931 0 
L 2931 347 
L 2931 1625 
Q 2931 2084 2911 2256 
Q 2891 2428 2841 2509 
Q 2775 2619 2662 2680 
Q 2550 2741 2406 2741 
Q 2056 2741 1856 2470 
Q 1656 2200 1656 1722 
L 1656 0 
L 538 0 
L 538 4863 
L 1656 4863 
L 1656 2988 
Q 1909 3294 2193 3439 
Q 2478 3584 2822 3584 
Q 3428 3584 3742 3212 
Q 4056 2841 4056 2131 
z
" transform="scale(0.015625)"/>
       <path id="DejaVuSans-Bold-72" d="M 3138 2547 
Q 2991 2616 2845 2648 
Q 2700 2681 2553 2681 
Q 2122 2681 1889 2404 
Q 1656 2128 1656 1613 
L 1656 0 
L 538 0 
L 538 3500 
L 1656 3500 
L 1656 2925 
Q 1872 3269 2151 3426 
Q 2431 3584 2822 3584 
Q 2878 3584 2943 3579 
Q 3009 3575 3134 3559 
L 3138 2547 
z
" transform="scale(0.015625)"/>
       <path id="DejaVuSans-Bold-5d" d="M 2375 -844 
L 434 -844 
L 434 -141 
L 1313 -141 
L 1313 4159 
L 434 4159 
L 434 4863 
L 2375 4863 
L 2375 -844 
z
" transform="scale(0.015625)"/>
      </defs>
      <use xlink:href="#DejaVuSans-Bold-74"/>
      <use xlink:href="#DejaVuSans-Bold-69" x="47.802734"/>
      <use xlink:href="#DejaVuSans-Bold-6d" x="82.080078"/>
      <use xlink:href="#DejaVuSans-Bold-65" x="186.279297"/>
      <use xlink:href="#DejaVuSans-Bold-20" x="254.101562"/>
      <use xlink:href="#DejaVuSans-Bold-5b" x="288.916016"/>
      <use xlink:href="#DejaVuSans-Bold-68" x="334.619141"/>
      <use xlink:href="#DejaVuSans-Bold-72" x="405.810547"/>
      <use xlink:href="#DejaVuSans-Bold-5d" x="455.126953"/>
     </g>
    </g>
   </g>
   <g id="matplotlib.axis_2">
    <g id="ytick_1">
     <g id="line2d_8">
      <defs>
       <path id="m0d750e9876" d="M 0 0 
L -3.5 0 
" style="stroke: #000000; stroke-width: 0.8"/>
      </defs>
      <g>
       <use xlink:href="#m0d750e9876" x="64.3925" y="307.8" style="stroke: #000000; stroke-width: 0.8"/>
      </g>
     </g>
     <g id="text_9">
      <!-- 0 -->
      <g transform="translate(47.84875 313.498828) scale(0.15 -0.15)">
       <use xlink:href="#DejaVuSans-30"/>
      </g>
     </g>
    </g>
    <g id="ytick_2">
     <g id="line2d_9">
      <g>
       <use xlink:href="#m0d750e9876" x="64.3925" y="266.36156" style="stroke: #000000; stroke-width: 0.8"/>
      </g>
     </g>
     <g id="text_10">
      <!-- 50 -->
      <g transform="translate(38.305 272.060388) scale(0.15 -0.15)">
       <defs>
        <path id="DejaVuSans-35" d="M 691 4666 
L 3169 4666 
L 3169 4134 
L 1269 4134 
L 1269 2991 
Q 1406 3038 1543 3061 
Q 1681 3084 1819 3084 
Q 2600 3084 3056 2656 
Q 3513 2228 3513 1497 
Q 3513 744 3044 326 
Q 2575 -91 1722 -91 
Q 1428 -91 1123 -41 
Q 819 9 494 109 
L 494 744 
Q 775 591 1075 516 
Q 1375 441 1709 441 
Q 2250 441 2565 725 
Q 2881 1009 2881 1497 
Q 2881 1984 2565 2268 
Q 2250 2553 1709 2553 
Q 1456 2553 1204 2497 
Q 953 2441 691 2322 
L 691 4666 
z
" transform="scale(0.015625)"/>
       </defs>
       <use xlink:href="#DejaVuSans-35"/>
       <use xlink:href="#DejaVuSans-30" x="63.623047"/>
      </g>
     </g>
    </g>
    <g id="ytick_3">
     <g id="line2d_10">
      <g>
       <use xlink:href="#m0d750e9876" x="64.3925" y="224.92312" style="stroke: #000000; stroke-width: 0.8"/>
      </g>
     </g>
     <g id="text_11">
      <!-- 100 -->
      <g transform="translate(28.76125 230.621948) scale(0.15 -0.15)">
       <use xlink:href="#DejaVuSans-31"/>
       <use xlink:href="#DejaVuSans-30" x="63.623047"/>
       <use xlink:href="#DejaVuSans-30" x="127.246094"/>
      </g>
     </g>
    </g>
    <g id="ytick_4">
     <g id="line2d_11">
      <g>
       <use xlink:href="#m0d750e9876" x="64.3925" y="183.48468" style="stroke: #000000; stroke-width: 0.8"/>
      </g>
     </g>
     <g id="text_12">
      <!-- 150 -->
      <g transform="translate(28.76125 189.183509) scale(0.15 -0.15)">
       <use xlink:href="#DejaVuSans-31"/>
       <use xlink:href="#DejaVuSans-35" x="63.623047"/>
       <use xlink:href="#DejaVuSans-30" x="127.246094"/>
      </g>
     </g>
    </g>
    <g id="ytick_5">
     <g id="line2d_12">
      <g>
       <use xlink:href="#m0d750e9876" x="64.3925" y="142.046241" style="stroke: #000000; stroke-width: 0.8"/>
      </g>
     </g>
     <g id="text_13">
      <!-- 200 -->
      <g transform="translate(28.76125 147.745069) scale(0.15 -0.15)">
       <use xlink:href="#DejaVuSans-32"/>
       <use xlink:href="#DejaVuSans-30" x="63.623047"/>
       <use xlink:href="#DejaVuSans-30" x="127.246094"/>
      </g>
     </g>
    </g>
    <g id="ytick_6">
     <g id="line2d_13">
      <g>
       <use xlink:href="#m0d750e9876" x="64.3925" y="100.607801" style="stroke: #000000; stroke-width: 0.8"/>
      </g>
     </g>
     <g id="text_14">
      <!-- 250 -->
      <g transform="translate(28.76125 106.306629) scale(0.15 -0.15)">
       <use xlink:href="#DejaVuSans-32"/>
       <use xlink:href="#DejaVuSans-35" x="63.623047"/>
       <use xlink:href="#DejaVuSans-30" x="127.246094"/>
      </g>
     </g>
    </g>
    <g id="ytick_7">
     <g id="line2d_14">
      <g>
       <use xlink:href="#m0d750e9876" x="64.3925" y="59.169361" style="stroke: #000000; stroke-width: 0.8"/>
      </g>
     </g>
     <g id="text_15">
      <!-- 300 -->
      <g transform="translate(28.76125 64.868189) scale(0.15 -0.15)">
       <defs>
        <path id="DejaVuSans-33" d="M 2597 2516 
Q 3050 2419 3304 2112 
Q 3559 1806 3559 1356 
Q 3559 666 3084 287 
Q 2609 -91 1734 -91 
Q 1441 -91 1130 -33 
Q 819 25 488 141 
L 488 750 
Q 750 597 1062 519 
Q 1375 441 1716 441 
Q 2309 441 2620 675 
Q 2931 909 2931 1356 
Q 2931 1769 2642 2001 
Q 2353 2234 1838 2234 
L 1294 2234 
L 1294 2753 
L 1863 2753 
Q 2328 2753 2575 2939 
Q 2822 3125 2822 3475 
Q 2822 3834 2567 4026 
Q 2313 4219 1838 4219 
Q 1578 4219 1281 4162 
Q 984 4106 628 3988 
L 628 4550 
Q 988 4650 1302 4700 
Q 1616 4750 1894 4750 
Q 2613 4750 3031 4423 
Q 3450 4097 3450 3541 
Q 3450 3153 3228 2886 
Q 3006 2619 2597 2516 
z
" transform="scale(0.015625)"/>
       </defs>
       <use xlink:href="#DejaVuSans-33"/>
       <use xlink:href="#DejaVuSans-30" x="63.623047"/>
       <use xlink:href="#DejaVuSans-30" x="127.246094"/>
      </g>
     </g>
    </g>
    <g id="text_16">
     <!-- UGE [g] -->
     <g transform="translate(20.877187 220.445156) rotate(-90) scale(0.18 -0.18)">
      <defs>
       <path id="DejaVuSans-Bold-55" d="M 588 4666 
L 1791 4666 
L 1791 1869 
Q 1791 1291 1980 1042 
Q 2169 794 2597 794 
Q 3028 794 3217 1042 
Q 3406 1291 3406 1869 
L 3406 4666 
L 4609 4666 
L 4609 1869 
Q 4609 878 4112 393 
Q 3616 -91 2597 -91 
Q 1581 -91 1084 393 
Q 588 878 588 1869 
L 588 4666 
z
" transform="scale(0.015625)"/>
       <path id="DejaVuSans-Bold-47" d="M 4781 347 
Q 4331 128 3847 18 
Q 3363 -91 2847 -91 
Q 1681 -91 1000 561 
Q 319 1213 319 2328 
Q 319 3456 1012 4103 
Q 1706 4750 2913 4750 
Q 3378 4750 3804 4662 
Q 4231 4575 4609 4403 
L 4609 3438 
Q 4219 3659 3833 3768 
Q 3447 3878 3059 3878 
Q 2341 3878 1952 3476 
Q 1563 3075 1563 2328 
Q 1563 1588 1938 1184 
Q 2313 781 3003 781 
Q 3191 781 3352 804 
Q 3513 828 3641 878 
L 3641 1784 
L 2906 1784 
L 2906 2591 
L 4781 2591 
L 4781 347 
z
" transform="scale(0.015625)"/>
       <path id="DejaVuSans-Bold-45" d="M 588 4666 
L 3834 4666 
L 3834 3756 
L 1791 3756 
L 1791 2888 
L 3713 2888 
L 3713 1978 
L 1791 1978 
L 1791 909 
L 3903 909 
L 3903 0 
L 588 0 
L 588 4666 
z
" transform="scale(0.015625)"/>
       <path id="DejaVuSans-Bold-67" d="M 2919 594 
Q 2688 288 2409 144 
Q 2131 0 1766 0 
Q 1125 0 706 504 
Q 288 1009 288 1791 
Q 288 2575 706 3076 
Q 1125 3578 1766 3578 
Q 2131 3578 2409 3434 
Q 2688 3291 2919 2981 
L 2919 3500 
L 4044 3500 
L 4044 353 
Q 4044 -491 3511 -936 
Q 2978 -1381 1966 -1381 
Q 1638 -1381 1331 -1331 
Q 1025 -1281 716 -1178 
L 716 -306 
Q 1009 -475 1290 -558 
Q 1572 -641 1856 -641 
Q 2406 -641 2662 -400 
Q 2919 -159 2919 353 
L 2919 594 
z
M 2181 2772 
Q 1834 2772 1640 2515 
Q 1447 2259 1447 1791 
Q 1447 1309 1634 1061 
Q 1822 813 2181 813 
Q 2531 813 2725 1069 
Q 2919 1325 2919 1791 
Q 2919 2259 2725 2515 
Q 2531 2772 2181 2772 
z
" transform="scale(0.015625)"/>
      </defs>
      <use xlink:href="#DejaVuSans-Bold-55"/>
      <use xlink:href="#DejaVuSans-Bold-47" x="81.201172"/>
      <use xlink:href="#DejaVuSans-Bold-45" x="163.28125"/>
      <use xlink:href="#DejaVuSans-Bold-20" x="231.591797"/>
      <use xlink:href="#DejaVuSans-Bold-5b" x="266.40625"/>
      <use xlink:href="#DejaVuSans-Bold-67" x="312.109375"/>
      <use xlink:href="#DejaVuSans-Bold-5d" x="383.691406"/>
     </g>
    </g>
   </g>
   <g id="line2d_15">
    <path d="M 82.147045 307.8 
L 437.237955 307.8 
L 437.237955 307.8 
" clip-path="url(#p81df0662ec)" style="fill: none; stroke: #000000; stroke-width: 2; stroke-linecap: square"/>
   </g>
   <g id="line2d_16">
    <path d="M 82.147045 307.8 
L 82.857227 307.764467 
L 84.277591 307.253726 
L 88.538682 305.653109 
L 91.024318 304.974836 
L 93.154864 304.648529 
L 95.285409 304.599748 
L 437.237955 304.599748 
L 437.237955 304.599748 
" clip-path="url(#p81df0662ec)" style="fill: none; stroke: #1f77b4; stroke-width: 2; stroke-linecap: square"/>
   </g>
   <g id="line2d_17">
    <path d="M 82.147045 307.8 
L 82.857227 307.698651 
L 85.342864 306.587787 
L 89.603955 304.746888 
L 92.444682 303.734092 
L 94.930318 303.089671 
L 97.060864 302.792813 
L 99.191409 302.754727 
L 437.237955 302.754727 
L 437.237955 302.754727 
" clip-path="url(#p81df0662ec)" style="fill: none; stroke: #ff7f0e; stroke-width: 2; stroke-linecap: square"/>
   </g>
   <g id="line2d_18">
    <path d="M 82.147045 307.8 
L 82.502136 307.775851 
L 84.277591 306.953601 
L 91.024318 303.777388 
L 94.575227 302.350997 
L 97.415955 301.457705 
L 99.5465 301.000427 
L 101.677045 300.776992 
L 105.227955 300.761361 
L 437.237955 300.761361 
L 437.237955 300.761361 
" clip-path="url(#p81df0662ec)" style="fill: none; stroke: #2ca02c; stroke-width: 2; stroke-linecap: square"/>
   </g>
   <g id="line2d_19">
    <path d="M 82.147045 307.8 
L 82.857227 307.580712 
L 94.575227 301.902847 
L 98.126136 300.464245 
L 100.966864 299.53282 
L 103.4525 298.937356 
L 105.938136 298.583459 
L 108.423773 298.479739 
L 437.237955 298.479739 
L 437.237955 298.479739 
" clip-path="url(#p81df0662ec)" style="fill: none; stroke: #d62728; stroke-width: 2; stroke-linecap: square"/>
   </g>
   <g id="line2d_20">
    <path d="M 82.147045 307.8 
L 82.857227 307.527846 
L 95.6405 301.083839 
L 100.611773 298.824604 
L 104.517773 297.288218 
L 108.068682 296.13814 
L 111.619591 295.226142 
L 115.880682 294.378191 
L 121.562136 293.493517 
L 131.504682 292.20595 
L 151.389773 289.882903 
L 175.535955 287.279801 
L 199.327045 284.937274 
L 223.118136 282.819308 
L 246.554136 280.956542 
L 269.635045 279.342797 
L 292.715955 277.952031 
L 315.441773 276.80429 
L 338.167591 275.880208 
L 360.538318 275.192654 
L 382.909045 274.72906 
L 404.924682 274.494997 
L 431.201409 274.461468 
L 437.237955 274.461468 
L 437.237955 274.461468 
" clip-path="url(#p81df0662ec)" style="fill: none; stroke: #9467bd; stroke-width: 2; stroke-linecap: square"/>
   </g>
   <g id="line2d_21">
    <path d="M 82.147045 307.8 
L 82.857227 307.49867 
L 96.705773 300.403747 
L 103.097409 297.369788 
L 108.068682 295.256965 
L 113.039955 293.392192 
L 119.431591 291.247025 
L 131.149591 287.592673 
L 158.846682 279.230405 
L 190.804864 269.802785 
L 222.407955 260.710218 
L 253.655955 251.951595 
L 284.193773 243.621128 
L 314.3765 235.616339 
L 344.204136 227.935368 
L 373.676682 220.576139 
L 402.794136 213.536359 
L 431.201409 206.895084 
L 437.237955 205.513214 
L 437.237955 205.513214 
" clip-path="url(#p81df0662ec)" style="fill: none; stroke: #8c564b; stroke-width: 2; stroke-linecap: square"/>
   </g>
   <g id="line2d_22">
    <path d="M 82.147045 307.8 
L 83.212318 307.281455 
L 96.705773 300.233261 
L 105.938136 295.650296 
L 113.750136 292.035875 
L 125.468136 286.905884 
L 161.332318 271.541669 
L 210.689955 250.61805 
L 258.627227 230.536857 
L 305.499227 211.142322 
L 351.305955 192.429392 
L 396.047409 174.392325 
L 437.237955 158.006533 
L 437.237955 158.006533 
" clip-path="url(#p81df0662ec)" style="fill: none; stroke: #e377c2; stroke-width: 2; stroke-linecap: square"/>
   </g>
   <g id="line2d_23">
    <path d="M 82.147045 307.8 
L 83.567409 307.067029 
L 93.865045 301.554507 
L 105.938136 295.38458 
L 116.945955 290.012655 
L 143.222682 277.538682 
L 212.110318 245.07421 
L 278.867409 213.856193 
L 343.493955 183.877986 
L 405.989955 155.131733 
L 437.237955 140.853498 
L 437.237955 140.853498 
" clip-path="url(#p81df0662ec)" style="fill: none; stroke: #7f7f7f; stroke-width: 2; stroke-linecap: square"/>
   </g>
   <g id="line2d_24">
    <path d="M 92.089591 306.907138 
L 104.872864 305.990316 
L 116.235773 306.023859 
L 127.598682 306.055804 
L 138.961591 306.089346 
L 150.3245 307.066863 
L 161.687409 307.100405 
L 173.050318 306.183584 
L 184.413227 307.162697 
L 195.776136 306.245876 
L 207.139045 307.22499 
L 218.501955 307.258532 
L 252.590682 306.404004 
L 286.679409 306.499839 
L 320.768136 306.592479 
L 354.856864 306.683523 
L 388.945591 306.780955 
L 423.034318 306.87679 
" clip-path="url(#p81df0662ec)" style="fill: none; stroke-dasharray: 3.7,1.6; stroke-dashoffset: 0; stroke: #000000"/>
    <defs>
     <path id="me45eca8c01" d="M -3 3 
L 3 3 
L 3 -3 
L -3 -3 
z
" style="stroke: #000000; stroke-linejoin: miter"/>
    </defs>
    <g clip-path="url(#p81df0662ec)">
     <use xlink:href="#me45eca8c01" x="92.089591" y="306.907138" style="stroke: #000000; stroke-linejoin: miter"/>
     <use xlink:href="#me45eca8c01" x="104.872864" y="305.990316" style="stroke: #000000; stroke-linejoin: miter"/>
     <use xlink:href="#me45eca8c01" x="116.235773" y="306.023859" style="stroke: #000000; stroke-linejoin: miter"/>
     <use xlink:href="#me45eca8c01" x="127.598682" y="306.055804" style="stroke: #000000; stroke-linejoin: miter"/>
     <use xlink:href="#me45eca8c01" x="138.961591" y="306.089346" style="stroke: #000000; stroke-linejoin: miter"/>
     <use xlink:href="#me45eca8c01" x="150.3245" y="307.066863" style="stroke: #000000; stroke-linejoin: miter"/>
     <use xlink:href="#me45eca8c01" x="161.687409" y="307.100405" style="stroke: #000000; stroke-linejoin: miter"/>
     <use xlink:href="#me45eca8c01" x="173.050318" y="306.183584" style="stroke: #000000; stroke-linejoin: miter"/>
     <use xlink:href="#me45eca8c01" x="184.413227" y="307.162697" style="stroke: #000000; stroke-linejoin: miter"/>
     <use xlink:href="#me45eca8c01" x="195.776136" y="306.245876" style="stroke: #000000; stroke-linejoin: miter"/>
     <use xlink:href="#me45eca8c01" x="207.139045" y="307.22499" style="stroke: #000000; stroke-linejoin: miter"/>
     <use xlink:href="#me45eca8c01" x="218.501955" y="307.258532" style="stroke: #000000; stroke-linejoin: miter"/>
     <use xlink:href="#me45eca8c01" x="252.590682" y="306.404004" style="stroke: #000000; stroke-linejoin: miter"/>
     <use xlink:href="#me45eca8c01" x="286.679409" y="306.499839" style="stroke: #000000; stroke-linejoin: miter"/>
     <use xlink:href="#me45eca8c01" x="320.768136" y="306.592479" style="stroke: #000000; stroke-linejoin: miter"/>
     <use xlink:href="#me45eca8c01" x="354.856864" y="306.683523" style="stroke: #000000; stroke-linejoin: miter"/>
     <use xlink:href="#me45eca8c01" x="388.945591" y="306.780955" style="stroke: #000000; stroke-linejoin: miter"/>
     <use xlink:href="#me45eca8c01" x="423.034318" y="306.87679" style="stroke: #000000; stroke-linejoin: miter"/>
    </g>
   </g>
   <g id="line2d_25">
    <path d="M 92.089591 304.721456 
L 104.872864 298.484074 
L 116.235773 291.722831 
L 127.598682 288.096925 
L 138.961591 284.99488 
L 150.3245 281.892836 
L 161.687409 280.880363 
L 173.050318 280.915613 
L 184.413227 280.950864 
L 195.776136 280.986114 
L 207.139045 281.021365 
L 218.501955 281.056615 
L 252.590682 280.116602 
L 286.679409 281.26616 
L 320.768136 278.234616 
L 354.856864 278.336451 
L 388.945591 278.440244 
L 423.034318 279.591761 
" clip-path="url(#p81df0662ec)" style="fill: none; stroke-dasharray: 3.7,1.6; stroke-dashoffset: 0; stroke: #1f77b4"/>
    <defs>
     <path id="m18d07011b7" d="M -3 3 
L 3 3 
L 3 -3 
L -3 -3 
z
" style="stroke: #000000; stroke-linejoin: miter"/>
    </defs>
    <g clip-path="url(#p81df0662ec)">
     <use xlink:href="#m18d07011b7" x="92.089591" y="304.721456" style="fill: #1f77b4; stroke: #000000; stroke-linejoin: miter"/>
     <use xlink:href="#m18d07011b7" x="104.872864" y="298.484074" style="fill: #1f77b4; stroke: #000000; stroke-linejoin: miter"/>
     <use xlink:href="#m18d07011b7" x="116.235773" y="291.722831" style="fill: #1f77b4; stroke: #000000; stroke-linejoin: miter"/>
     <use xlink:href="#m18d07011b7" x="127.598682" y="288.096925" style="fill: #1f77b4; stroke: #000000; stroke-linejoin: miter"/>
     <use xlink:href="#m18d07011b7" x="138.961591" y="284.99488" style="fill: #1f77b4; stroke: #000000; stroke-linejoin: miter"/>
     <use xlink:href="#m18d07011b7" x="150.3245" y="281.892836" style="fill: #1f77b4; stroke: #000000; stroke-linejoin: miter"/>
     <use xlink:href="#m18d07011b7" x="161.687409" y="280.880363" style="fill: #1f77b4; stroke: #000000; stroke-linejoin: miter"/>
     <use xlink:href="#m18d07011b7" x="173.050318" y="280.915613" style="fill: #1f77b4; stroke: #000000; stroke-linejoin: miter"/>
     <use xlink:href="#m18d07011b7" x="184.413227" y="280.950864" style="fill: #1f77b4; stroke: #000000; stroke-linejoin: miter"/>
     <use xlink:href="#m18d07011b7" x="195.776136" y="280.986114" style="fill: #1f77b4; stroke: #000000; stroke-linejoin: miter"/>
     <use xlink:href="#m18d07011b7" x="207.139045" y="281.021365" style="fill: #1f77b4; stroke: #000000; stroke-linejoin: miter"/>
     <use xlink:href="#m18d07011b7" x="218.501955" y="281.056615" style="fill: #1f77b4; stroke: #000000; stroke-linejoin: miter"/>
     <use xlink:href="#m18d07011b7" x="252.590682" y="280.116602" style="fill: #1f77b4; stroke: #000000; stroke-linejoin: miter"/>
     <use xlink:href="#m18d07011b7" x="286.679409" y="281.26616" style="fill: #1f77b4; stroke: #000000; stroke-linejoin: miter"/>
     <use xlink:href="#m18d07011b7" x="320.768136" y="278.234616" style="fill: #1f77b4; stroke: #000000; stroke-linejoin: miter"/>
     <use xlink:href="#m18d07011b7" x="354.856864" y="278.336451" style="fill: #1f77b4; stroke: #000000; stroke-linejoin: miter"/>
     <use xlink:href="#m18d07011b7" x="388.945591" y="278.440244" style="fill: #1f77b4; stroke: #000000; stroke-linejoin: miter"/>
     <use xlink:href="#m18d07011b7" x="423.034318" y="279.591761" style="fill: #1f77b4; stroke: #000000; stroke-linejoin: miter"/>
    </g>
   </g>
   <g id="line2d_26">
    <path d="M 93.509955 303.152808 
L 104.872864 296.392544 
L 116.235773 288.061674 
L 127.598682 284.957671 
L 138.961591 281.857585 
L 150.3245 277.709775 
L 161.687409 277.221164 
L 173.050318 276.732553 
L 184.413227 276.765845 
L 195.776136 276.803054 
L 207.139045 276.838305 
L 218.501955 277.91932 
L 252.590682 276.977348 
L 286.679409 278.128865 
L 320.768136 276.141128 
L 354.856864 275.199156 
L 388.945591 277.394479 
L 423.034318 279.593719 
" clip-path="url(#p81df0662ec)" style="fill: none; stroke-dasharray: 3.7,1.6; stroke-dashoffset: 0; stroke: #ff7f0e"/>
    <defs>
     <path id="mea60ed0c6f" d="M -3 3 
L 3 3 
L 3 -3 
L -3 -3 
z
" style="stroke: #000000; stroke-linejoin: miter"/>
    </defs>
    <g clip-path="url(#p81df0662ec)">
     <use xlink:href="#mea60ed0c6f" x="93.509955" y="303.152808" style="fill: #ff7f0e; stroke: #000000; stroke-linejoin: miter"/>
     <use xlink:href="#mea60ed0c6f" x="104.872864" y="296.392544" style="fill: #ff7f0e; stroke: #000000; stroke-linejoin: miter"/>
     <use xlink:href="#mea60ed0c6f" x="116.235773" y="288.061674" style="fill: #ff7f0e; stroke: #000000; stroke-linejoin: miter"/>
     <use xlink:href="#mea60ed0c6f" x="127.598682" y="284.957671" style="fill: #ff7f0e; stroke: #000000; stroke-linejoin: miter"/>
     <use xlink:href="#mea60ed0c6f" x="138.961591" y="281.857585" style="fill: #ff7f0e; stroke: #000000; stroke-linejoin: miter"/>
     <use xlink:href="#mea60ed0c6f" x="150.3245" y="277.709775" style="fill: #ff7f0e; stroke: #000000; stroke-linejoin: miter"/>
     <use xlink:href="#mea60ed0c6f" x="161.687409" y="277.221164" style="fill: #ff7f0e; stroke: #000000; stroke-linejoin: miter"/>
     <use xlink:href="#mea60ed0c6f" x="173.050318" y="276.732553" style="fill: #ff7f0e; stroke: #000000; stroke-linejoin: miter"/>
     <use xlink:href="#mea60ed0c6f" x="184.413227" y="276.765845" style="fill: #ff7f0e; stroke: #000000; stroke-linejoin: miter"/>
     <use xlink:href="#mea60ed0c6f" x="195.776136" y="276.803054" style="fill: #ff7f0e; stroke: #000000; stroke-linejoin: miter"/>
     <use xlink:href="#mea60ed0c6f" x="207.139045" y="276.838305" style="fill: #ff7f0e; stroke: #000000; stroke-linejoin: miter"/>
     <use xlink:href="#mea60ed0c6f" x="218.501955" y="277.91932" style="fill: #ff7f0e; stroke: #000000; stroke-linejoin: miter"/>
     <use xlink:href="#mea60ed0c6f" x="252.590682" y="276.977348" style="fill: #ff7f0e; stroke: #000000; stroke-linejoin: miter"/>
     <use xlink:href="#mea60ed0c6f" x="286.679409" y="278.128865" style="fill: #ff7f0e; stroke: #000000; stroke-linejoin: miter"/>
     <use xlink:href="#mea60ed0c6f" x="320.768136" y="276.141128" style="fill: #ff7f0e; stroke: #000000; stroke-linejoin: miter"/>
     <use xlink:href="#mea60ed0c6f" x="354.856864" y="275.199156" style="fill: #ff7f0e; stroke: #000000; stroke-linejoin: miter"/>
     <use xlink:href="#mea60ed0c6f" x="388.945591" y="277.394479" style="fill: #ff7f0e; stroke: #000000; stroke-linejoin: miter"/>
     <use xlink:href="#mea60ed0c6f" x="423.034318" y="279.593719" style="fill: #ff7f0e; stroke: #000000; stroke-linejoin: miter"/>
    </g>
   </g>
   <g id="line2d_27">
    <path d="M 93.509955 304.721456 
L 104.872864 292.209484 
L 116.235773 284.922421 
L 127.598682 277.637316 
L 138.961591 273.491465 
L 150.3245 264.11483 
L 161.687409 259.965062 
L 173.050318 255.817252 
L 184.413227 251.669443 
L 195.776136 246.477826 
L 207.139045 245.467312 
L 218.501955 246.546369 
L 252.590682 241.423295 
L 286.679409 240.483282 
L 320.768136 240.589033 
L 354.856864 238.59738 
L 388.945591 239.746938 
L 423.034318 240.898454 
" clip-path="url(#p81df0662ec)" style="fill: none; stroke-dasharray: 3.7,1.6; stroke-dashoffset: 0; stroke: #2ca02c"/>
    <defs>
     <path id="m86db38c940" d="M -3 3 
L 3 3 
L 3 -3 
L -3 -3 
z
" style="stroke: #000000; stroke-linejoin: miter"/>
    </defs>
    <g clip-path="url(#p81df0662ec)">
     <use xlink:href="#m86db38c940" x="93.509955" y="304.721456" style="fill: #2ca02c; stroke: #000000; stroke-linejoin: miter"/>
     <use xlink:href="#m86db38c940" x="104.872864" y="292.209484" style="fill: #2ca02c; stroke: #000000; stroke-linejoin: miter"/>
     <use xlink:href="#m86db38c940" x="116.235773" y="284.922421" style="fill: #2ca02c; stroke: #000000; stroke-linejoin: miter"/>
     <use xlink:href="#m86db38c940" x="127.598682" y="277.637316" style="fill: #2ca02c; stroke: #000000; stroke-linejoin: miter"/>
     <use xlink:href="#m86db38c940" x="138.961591" y="273.491465" style="fill: #2ca02c; stroke: #000000; stroke-linejoin: miter"/>
     <use xlink:href="#m86db38c940" x="150.3245" y="264.11483" style="fill: #2ca02c; stroke: #000000; stroke-linejoin: miter"/>
     <use xlink:href="#m86db38c940" x="161.687409" y="259.965062" style="fill: #2ca02c; stroke: #000000; stroke-linejoin: miter"/>
     <use xlink:href="#m86db38c940" x="173.050318" y="255.817252" style="fill: #2ca02c; stroke: #000000; stroke-linejoin: miter"/>
     <use xlink:href="#m86db38c940" x="184.413227" y="251.669443" style="fill: #2ca02c; stroke: #000000; stroke-linejoin: miter"/>
     <use xlink:href="#m86db38c940" x="195.776136" y="246.477826" style="fill: #2ca02c; stroke: #000000; stroke-linejoin: miter"/>
     <use xlink:href="#m86db38c940" x="207.139045" y="245.467312" style="fill: #2ca02c; stroke: #000000; stroke-linejoin: miter"/>
     <use xlink:href="#m86db38c940" x="218.501955" y="246.546369" style="fill: #2ca02c; stroke: #000000; stroke-linejoin: miter"/>
     <use xlink:href="#m86db38c940" x="252.590682" y="241.423295" style="fill: #2ca02c; stroke: #000000; stroke-linejoin: miter"/>
     <use xlink:href="#m86db38c940" x="286.679409" y="240.483282" style="fill: #2ca02c; stroke: #000000; stroke-linejoin: miter"/>
     <use xlink:href="#m86db38c940" x="320.768136" y="240.589033" style="fill: #2ca02c; stroke: #000000; stroke-linejoin: miter"/>
     <use xlink:href="#m86db38c940" x="354.856864" y="238.59738" style="fill: #2ca02c; stroke: #000000; stroke-linejoin: miter"/>
     <use xlink:href="#m86db38c940" x="388.945591" y="239.746938" style="fill: #2ca02c; stroke: #000000; stroke-linejoin: miter"/>
     <use xlink:href="#m86db38c940" x="423.034318" y="240.898454" style="fill: #2ca02c; stroke: #000000; stroke-linejoin: miter"/>
    </g>
   </g>
   <g id="line2d_28">
    <path d="M 93.509955 303.675691 
L 104.872864 295.344821 
L 116.235773 287.015909 
L 127.598682 277.639274 
L 138.961591 271.399935 
L 150.3245 263.071023 
L 161.687409 258.921255 
L 173.050318 254.771487 
L 184.413227 252.713249 
L 195.776136 251.702735 
L 207.139045 251.739944 
L 218.501955 252.820959 
" clip-path="url(#p81df0662ec)" style="fill: none; stroke-dasharray: 3.7,1.6; stroke-dashoffset: 0; stroke: #d62728"/>
    <defs>
     <path id="m575037955f" d="M -3 3 
L 3 3 
L 3 -3 
L -3 -3 
z
" style="stroke: #000000; stroke-linejoin: miter"/>
    </defs>
    <g clip-path="url(#p81df0662ec)">
     <use xlink:href="#m575037955f" x="93.509955" y="303.675691" style="fill: #d62728; stroke: #000000; stroke-linejoin: miter"/>
     <use xlink:href="#m575037955f" x="104.872864" y="295.344821" style="fill: #d62728; stroke: #000000; stroke-linejoin: miter"/>
     <use xlink:href="#m575037955f" x="116.235773" y="287.015909" style="fill: #d62728; stroke: #000000; stroke-linejoin: miter"/>
     <use xlink:href="#m575037955f" x="127.598682" y="277.639274" style="fill: #d62728; stroke: #000000; stroke-linejoin: miter"/>
     <use xlink:href="#m575037955f" x="138.961591" y="271.399935" style="fill: #d62728; stroke: #000000; stroke-linejoin: miter"/>
     <use xlink:href="#m575037955f" x="150.3245" y="263.071023" style="fill: #d62728; stroke: #000000; stroke-linejoin: miter"/>
     <use xlink:href="#m575037955f" x="161.687409" y="258.921255" style="fill: #d62728; stroke: #000000; stroke-linejoin: miter"/>
     <use xlink:href="#m575037955f" x="173.050318" y="254.771487" style="fill: #d62728; stroke: #000000; stroke-linejoin: miter"/>
     <use xlink:href="#m575037955f" x="184.413227" y="252.713249" style="fill: #d62728; stroke: #000000; stroke-linejoin: miter"/>
     <use xlink:href="#m575037955f" x="195.776136" y="251.702735" style="fill: #d62728; stroke: #000000; stroke-linejoin: miter"/>
     <use xlink:href="#m575037955f" x="207.139045" y="251.739944" style="fill: #d62728; stroke: #000000; stroke-linejoin: miter"/>
     <use xlink:href="#m575037955f" x="218.501955" y="252.820959" style="fill: #d62728; stroke: #000000; stroke-linejoin: miter"/>
    </g>
   </g>
   <g id="line2d_29">
    <path d="M 93.509955 302.631884 
L 104.872864 291.165677 
L 116.235773 281.26616 
L 127.598682 272.931373 
L 138.961591 266.169151 
L 150.3245 258.886005 
L 161.687409 252.644707 
L 173.050318 247.451132 
L 184.413227 242.78044 
L 195.776136 234.974411 
L 207.139045 231.870408 
L 218.501955 229.813149 
L 252.590682 219.460271 
L 286.679409 213.814315 
L 320.768136 210.259889 
L 354.856864 210.361723 
L 388.945591 207.851104 
L 423.034318 209.001641 
" clip-path="url(#p81df0662ec)" style="fill: none; stroke-dasharray: 3.7,1.6; stroke-dashoffset: 0; stroke: #9467bd"/>
    <defs>
     <path id="m89aa7c527d" d="M -3 3 
L 3 3 
L 3 -3 
L -3 -3 
z
" style="stroke: #000000; stroke-linejoin: miter"/>
    </defs>
    <g clip-path="url(#p81df0662ec)">
     <use xlink:href="#m89aa7c527d" x="93.509955" y="302.631884" style="fill: #9467bd; stroke: #000000; stroke-linejoin: miter"/>
     <use xlink:href="#m89aa7c527d" x="104.872864" y="291.165677" style="fill: #9467bd; stroke: #000000; stroke-linejoin: miter"/>
     <use xlink:href="#m89aa7c527d" x="116.235773" y="281.26616" style="fill: #9467bd; stroke: #000000; stroke-linejoin: miter"/>
     <use xlink:href="#m89aa7c527d" x="127.598682" y="272.931373" style="fill: #9467bd; stroke: #000000; stroke-linejoin: miter"/>
     <use xlink:href="#m89aa7c527d" x="138.961591" y="266.169151" style="fill: #9467bd; stroke: #000000; stroke-linejoin: miter"/>
     <use xlink:href="#m89aa7c527d" x="150.3245" y="258.886005" style="fill: #9467bd; stroke: #000000; stroke-linejoin: miter"/>
     <use xlink:href="#m89aa7c527d" x="161.687409" y="252.644707" style="fill: #9467bd; stroke: #000000; stroke-linejoin: miter"/>
     <use xlink:href="#m89aa7c527d" x="173.050318" y="247.451132" style="fill: #9467bd; stroke: #000000; stroke-linejoin: miter"/>
     <use xlink:href="#m89aa7c527d" x="184.413227" y="242.78044" style="fill: #9467bd; stroke: #000000; stroke-linejoin: miter"/>
     <use xlink:href="#m89aa7c527d" x="195.776136" y="234.974411" style="fill: #9467bd; stroke: #000000; stroke-linejoin: miter"/>
     <use xlink:href="#m89aa7c527d" x="207.139045" y="231.870408" style="fill: #9467bd; stroke: #000000; stroke-linejoin: miter"/>
     <use xlink:href="#m89aa7c527d" x="218.501955" y="229.813149" style="fill: #9467bd; stroke: #000000; stroke-linejoin: miter"/>
     <use xlink:href="#m89aa7c527d" x="252.590682" y="219.460271" style="fill: #9467bd; stroke: #000000; stroke-linejoin: miter"/>
     <use xlink:href="#m89aa7c527d" x="286.679409" y="213.814315" style="fill: #9467bd; stroke: #000000; stroke-linejoin: miter"/>
     <use xlink:href="#m89aa7c527d" x="320.768136" y="210.259889" style="fill: #9467bd; stroke: #000000; stroke-linejoin: miter"/>
     <use xlink:href="#m89aa7c527d" x="354.856864" y="210.361723" style="fill: #9467bd; stroke: #000000; stroke-linejoin: miter"/>
     <use xlink:href="#m89aa7c527d" x="388.945591" y="207.851104" style="fill: #9467bd; stroke: #000000; stroke-linejoin: miter"/>
     <use xlink:href="#m89aa7c527d" x="423.034318" y="209.001641" style="fill: #9467bd; stroke: #000000; stroke-linejoin: miter"/>
    </g>
   </g>
   <g id="line2d_30">
    <path d="M 93.509955 300.538396 
L 104.872864 288.024466 
L 116.235773 275.512494 
L 127.598682 266.135859 
L 138.961591 256.757266 
L 150.3245 247.380631 
L 161.687409 239.049761 
L 173.050318 229.150244 
L 184.413227 219.773609 
L 195.776136 212.488504 
L 207.139045 208.340694 
L 218.501955 201.05461 
L 252.590682 177.109724 
L 286.679409 163.619551 
L 320.768136 151.176122 
L 354.856864 148.662565 
L 388.945591 144.582319 
L 423.034318 146.781559 
" clip-path="url(#p81df0662ec)" style="fill: none; stroke-dasharray: 3.7,1.6; stroke-dashoffset: 0; stroke: #8c564b"/>
    <defs>
     <path id="m9ac84e6409" d="M -3 3 
L 3 3 
L 3 -3 
L -3 -3 
z
" style="stroke: #000000; stroke-linejoin: miter"/>
    </defs>
    <g clip-path="url(#p81df0662ec)">
     <use xlink:href="#m9ac84e6409" x="93.509955" y="300.538396" style="fill: #8c564b; stroke: #000000; stroke-linejoin: miter"/>
     <use xlink:href="#m9ac84e6409" x="104.872864" y="288.024466" style="fill: #8c564b; stroke: #000000; stroke-linejoin: miter"/>
     <use xlink:href="#m9ac84e6409" x="116.235773" y="275.512494" style="fill: #8c564b; stroke: #000000; stroke-linejoin: miter"/>
     <use xlink:href="#m9ac84e6409" x="127.598682" y="266.135859" style="fill: #8c564b; stroke: #000000; stroke-linejoin: miter"/>
     <use xlink:href="#m9ac84e6409" x="138.961591" y="256.757266" style="fill: #8c564b; stroke: #000000; stroke-linejoin: miter"/>
     <use xlink:href="#m9ac84e6409" x="150.3245" y="247.380631" style="fill: #8c564b; stroke: #000000; stroke-linejoin: miter"/>
     <use xlink:href="#m9ac84e6409" x="161.687409" y="239.049761" style="fill: #8c564b; stroke: #000000; stroke-linejoin: miter"/>
     <use xlink:href="#m9ac84e6409" x="173.050318" y="229.150244" style="fill: #8c564b; stroke: #000000; stroke-linejoin: miter"/>
     <use xlink:href="#m9ac84e6409" x="184.413227" y="219.773609" style="fill: #8c564b; stroke: #000000; stroke-linejoin: miter"/>
     <use xlink:href="#m9ac84e6409" x="195.776136" y="212.488504" style="fill: #8c564b; stroke: #000000; stroke-linejoin: miter"/>
     <use xlink:href="#m9ac84e6409" x="207.139045" y="208.340694" style="fill: #8c564b; stroke: #000000; stroke-linejoin: miter"/>
     <use xlink:href="#m9ac84e6409" x="218.501955" y="201.05461" style="fill: #8c564b; stroke: #000000; stroke-linejoin: miter"/>
     <use xlink:href="#m9ac84e6409" x="252.590682" y="177.109724" style="fill: #8c564b; stroke: #000000; stroke-linejoin: miter"/>
     <use xlink:href="#m9ac84e6409" x="286.679409" y="163.619551" style="fill: #8c564b; stroke: #000000; stroke-linejoin: miter"/>
     <use xlink:href="#m9ac84e6409" x="320.768136" y="151.176122" style="fill: #8c564b; stroke: #000000; stroke-linejoin: miter"/>
     <use xlink:href="#m9ac84e6409" x="354.856864" y="148.662565" style="fill: #8c564b; stroke: #000000; stroke-linejoin: miter"/>
     <use xlink:href="#m9ac84e6409" x="388.945591" y="144.582319" style="fill: #8c564b; stroke: #000000; stroke-linejoin: miter"/>
     <use xlink:href="#m9ac84e6409" x="423.034318" y="146.781559" style="fill: #8c564b; stroke: #000000; stroke-linejoin: miter"/>
    </g>
   </g>
   <g id="line2d_31">
    <path d="M 93.509955 298.448824 
L 104.872864 285.932935 
L 116.235773 277.604024 
L 127.598682 266.133901 
L 138.961591 257.803031 
L 150.3245 247.382589 
L 161.687409 238.003996 
L 173.050318 227.581596 
L 184.413227 219.24681 
L 195.776136 209.874091 
L 207.139045 201.543222 
L 218.501955 189.03125 
L 252.590682 164.036682 
L 286.679409 147.411172 
L 320.768136 130.783704 
L 354.856864 125.13481 
L 388.945591 120.531681 
L 423.034318 118.02302 
" clip-path="url(#p81df0662ec)" style="fill: none; stroke-dasharray: 3.7,1.6; stroke-dashoffset: 0; stroke: #e377c2"/>
    <defs>
     <path id="m6a44b453c7" d="M -3 3 
L 3 3 
L 3 -3 
L -3 -3 
z
" style="stroke: #000000; stroke-linejoin: miter"/>
    </defs>
    <g clip-path="url(#p81df0662ec)">
     <use xlink:href="#m6a44b453c7" x="93.509955" y="298.448824" style="fill: #e377c2; stroke: #000000; stroke-linejoin: miter"/>
     <use xlink:href="#m6a44b453c7" x="104.872864" y="285.932935" style="fill: #e377c2; stroke: #000000; stroke-linejoin: miter"/>
     <use xlink:href="#m6a44b453c7" x="116.235773" y="277.604024" style="fill: #e377c2; stroke: #000000; stroke-linejoin: miter"/>
     <use xlink:href="#m6a44b453c7" x="127.598682" y="266.133901" style="fill: #e377c2; stroke: #000000; stroke-linejoin: miter"/>
     <use xlink:href="#m6a44b453c7" x="138.961591" y="257.803031" style="fill: #e377c2; stroke: #000000; stroke-linejoin: miter"/>
     <use xlink:href="#m6a44b453c7" x="150.3245" y="247.382589" style="fill: #e377c2; stroke: #000000; stroke-linejoin: miter"/>
     <use xlink:href="#m6a44b453c7" x="161.687409" y="238.003996" style="fill: #e377c2; stroke: #000000; stroke-linejoin: miter"/>
     <use xlink:href="#m6a44b453c7" x="173.050318" y="227.581596" style="fill: #e377c2; stroke: #000000; stroke-linejoin: miter"/>
     <use xlink:href="#m6a44b453c7" x="184.413227" y="219.24681" style="fill: #e377c2; stroke: #000000; stroke-linejoin: miter"/>
     <use xlink:href="#m6a44b453c7" x="195.776136" y="209.874091" style="fill: #e377c2; stroke: #000000; stroke-linejoin: miter"/>
     <use xlink:href="#m6a44b453c7" x="207.139045" y="201.543222" style="fill: #e377c2; stroke: #000000; stroke-linejoin: miter"/>
     <use xlink:href="#m6a44b453c7" x="218.501955" y="189.03125" style="fill: #e377c2; stroke: #000000; stroke-linejoin: miter"/>
     <use xlink:href="#m6a44b453c7" x="252.590682" y="164.036682" style="fill: #e377c2; stroke: #000000; stroke-linejoin: miter"/>
     <use xlink:href="#m6a44b453c7" x="286.679409" y="147.411172" style="fill: #e377c2; stroke: #000000; stroke-linejoin: miter"/>
     <use xlink:href="#m6a44b453c7" x="320.768136" y="130.783704" style="fill: #e377c2; stroke: #000000; stroke-linejoin: miter"/>
     <use xlink:href="#m6a44b453c7" x="354.856864" y="125.13481" style="fill: #e377c2; stroke: #000000; stroke-linejoin: miter"/>
     <use xlink:href="#m6a44b453c7" x="388.945591" y="120.531681" style="fill: #e377c2; stroke: #000000; stroke-linejoin: miter"/>
     <use xlink:href="#m6a44b453c7" x="423.034318" y="118.02302" style="fill: #e377c2; stroke: #000000; stroke-linejoin: miter"/>
    </g>
   </g>
   <g id="line2d_32">
    <path d="M 93.509955 296.355335 
L 104.872864 283.843364 
L 116.235773 274.46477 
L 127.598682 264.042371 
L 138.961591 254.663777 
L 150.3245 245.289101 
L 161.687409 234.866701 
L 173.050318 226.533873 
L 184.413227 216.109514 
L 195.776136 206.734838 
L 207.139045 197.358203 
L 218.501955 187.981568 
L 252.590682 154.101914 
L 286.679409 130.677952 
L 320.768136 107.776873 
L 354.856864 91.146467 
L 388.945591 71.379745 
L 423.034318 55.8 
" clip-path="url(#p81df0662ec)" style="fill: none; stroke-dasharray: 3.7,1.6; stroke-dashoffset: 0; stroke: #7f7f7f"/>
    <defs>
     <path id="m5ccab7467d" d="M -3 3 
L 3 3 
L 3 -3 
L -3 -3 
z
" style="stroke: #000000; stroke-linejoin: miter"/>
    </defs>
    <g clip-path="url(#p81df0662ec)">
     <use xlink:href="#m5ccab7467d" x="93.509955" y="296.355335" style="fill: #7f7f7f; stroke: #000000; stroke-linejoin: miter"/>
     <use xlink:href="#m5ccab7467d" x="104.872864" y="283.843364" style="fill: #7f7f7f; stroke: #000000; stroke-linejoin: miter"/>
     <use xlink:href="#m5ccab7467d" x="116.235773" y="274.46477" style="fill: #7f7f7f; stroke: #000000; stroke-linejoin: miter"/>
     <use xlink:href="#m5ccab7467d" x="127.598682" y="264.042371" style="fill: #7f7f7f; stroke: #000000; stroke-linejoin: miter"/>
     <use xlink:href="#m5ccab7467d" x="138.961591" y="254.663777" style="fill: #7f7f7f; stroke: #000000; stroke-linejoin: miter"/>
     <use xlink:href="#m5ccab7467d" x="150.3245" y="245.289101" style="fill: #7f7f7f; stroke: #000000; stroke-linejoin: miter"/>
     <use xlink:href="#m5ccab7467d" x="161.687409" y="234.866701" style="fill: #7f7f7f; stroke: #000000; stroke-linejoin: miter"/>
     <use xlink:href="#m5ccab7467d" x="173.050318" y="226.533873" style="fill: #7f7f7f; stroke: #000000; stroke-linejoin: miter"/>
     <use xlink:href="#m5ccab7467d" x="184.413227" y="216.109514" style="fill: #7f7f7f; stroke: #000000; stroke-linejoin: miter"/>
     <use xlink:href="#m5ccab7467d" x="195.776136" y="206.734838" style="fill: #7f7f7f; stroke: #000000; stroke-linejoin: miter"/>
     <use xlink:href="#m5ccab7467d" x="207.139045" y="197.358203" style="fill: #7f7f7f; stroke: #000000; stroke-linejoin: miter"/>
     <use xlink:href="#m5ccab7467d" x="218.501955" y="187.981568" style="fill: #7f7f7f; stroke: #000000; stroke-linejoin: miter"/>
     <use xlink:href="#m5ccab7467d" x="252.590682" y="154.101914" style="fill: #7f7f7f; stroke: #000000; stroke-linejoin: miter"/>
     <use xlink:href="#m5ccab7467d" x="286.679409" y="130.677952" style="fill: #7f7f7f; stroke: #000000; stroke-linejoin: miter"/>
     <use xlink:href="#m5ccab7467d" x="320.768136" y="107.776873" style="fill: #7f7f7f; stroke: #000000; stroke-linejoin: miter"/>
     <use xlink:href="#m5ccab7467d" x="354.856864" y="91.146467" style="fill: #7f7f7f; stroke: #000000; stroke-linejoin: miter"/>
     <use xlink:href="#m5ccab7467d" x="388.945591" y="71.379745" style="fill: #7f7f7f; stroke: #000000; stroke-linejoin: miter"/>
     <use xlink:href="#m5ccab7467d" x="423.034318" y="55.8" style="fill: #7f7f7f; stroke: #000000; stroke-linejoin: miter"/>
    </g>
   </g>
   <g id="patch_3">
    <path d="M 64.3925 320.4 
L 64.3925 43.2 
" style="fill: none; stroke: #000000; stroke-width: 0.8; stroke-linejoin: miter; stroke-linecap: square"/>
   </g>
   <g id="patch_4">
    <path d="M 454.9925 320.4 
L 454.9925 43.2 
" style="fill: none; stroke: #000000; stroke-width: 0.8; stroke-linejoin: miter; stroke-linecap: square"/>
   </g>
   <g id="patch_5">
    <path d="M 64.3925 320.4 
L 454.9925 320.4 
" style="fill: none; stroke: #000000; stroke-width: 0.8; stroke-linejoin: miter; stroke-linecap: square"/>
   </g>
   <g id="patch_6">
    <path d="M 64.3925 43.2 
L 454.9925 43.2 
" style="fill: none; stroke: #000000; stroke-width: 0.8; stroke-linejoin: miter; stroke-linecap: square"/>
   </g>
  </g>
  <g id="text_17">
   <!-- Komoroski2009 -->
   <g transform="translate(144.146406 26.196094) scale(0.25 -0.25)">
    <defs>
     <path id="DejaVuSans-Bold-4b" d="M 588 4666 
L 1791 4666 
L 1791 2963 
L 3525 4666 
L 4922 4666 
L 2675 2456 
L 5153 0 
L 3647 0 
L 1791 1838 
L 1791 0 
L 588 0 
L 588 4666 
z
" transform="scale(0.015625)"/>
     <path id="DejaVuSans-Bold-6f" d="M 2203 2784 
Q 1831 2784 1636 2517 
Q 1441 2250 1441 1747 
Q 1441 1244 1636 976 
Q 1831 709 2203 709 
Q 2569 709 2762 976 
Q 2956 1244 2956 1747 
Q 2956 2250 2762 2517 
Q 2569 2784 2203 2784 
z
M 2203 3584 
Q 3106 3584 3614 3096 
Q 4122 2609 4122 1747 
Q 4122 884 3614 396 
Q 3106 -91 2203 -91 
Q 1297 -91 786 396 
Q 275 884 275 1747 
Q 275 2609 786 3096 
Q 1297 3584 2203 3584 
z
" transform="scale(0.015625)"/>
     <path id="DejaVuSans-Bold-73" d="M 3272 3391 
L 3272 2541 
Q 2913 2691 2578 2766 
Q 2244 2841 1947 2841 
Q 1628 2841 1473 2761 
Q 1319 2681 1319 2516 
Q 1319 2381 1436 2309 
Q 1553 2238 1856 2203 
L 2053 2175 
Q 2913 2066 3209 1816 
Q 3506 1566 3506 1031 
Q 3506 472 3093 190 
Q 2681 -91 1863 -91 
Q 1516 -91 1145 -36 
Q 775 19 384 128 
L 384 978 
Q 719 816 1070 734 
Q 1422 653 1784 653 
Q 2113 653 2278 743 
Q 2444 834 2444 1013 
Q 2444 1163 2330 1236 
Q 2216 1309 1875 1350 
L 1678 1375 
Q 931 1469 631 1722 
Q 331 1975 331 2491 
Q 331 3047 712 3315 
Q 1094 3584 1881 3584 
Q 2191 3584 2531 3537 
Q 2872 3491 3272 3391 
z
" transform="scale(0.015625)"/>
     <path id="DejaVuSans-Bold-6b" d="M 538 4863 
L 1656 4863 
L 1656 2216 
L 2944 3500 
L 4244 3500 
L 2534 1894 
L 4378 0 
L 3022 0 
L 1656 1459 
L 1656 0 
L 538 0 
L 538 4863 
z
" transform="scale(0.015625)"/>
     <path id="DejaVuSans-Bold-32" d="M 1844 884 
L 3897 884 
L 3897 0 
L 506 0 
L 506 884 
L 2209 2388 
Q 2438 2594 2547 2791 
Q 2656 2988 2656 3200 
Q 2656 3528 2436 3728 
Q 2216 3928 1850 3928 
Q 1569 3928 1234 3808 
Q 900 3688 519 3450 
L 519 4475 
Q 925 4609 1322 4679 
Q 1719 4750 2100 4750 
Q 2938 4750 3402 4381 
Q 3866 4013 3866 3353 
Q 3866 2972 3669 2642 
Q 3472 2313 2841 1759 
L 1844 884 
z
" transform="scale(0.015625)"/>
     <path id="DejaVuSans-Bold-30" d="M 2944 2338 
Q 2944 3213 2780 3570 
Q 2616 3928 2228 3928 
Q 1841 3928 1675 3570 
Q 1509 3213 1509 2338 
Q 1509 1453 1675 1090 
Q 1841 728 2228 728 
Q 2613 728 2778 1090 
Q 2944 1453 2944 2338 
z
M 4147 2328 
Q 4147 1169 3647 539 
Q 3147 -91 2228 -91 
Q 1306 -91 806 539 
Q 306 1169 306 2328 
Q 306 3491 806 4120 
Q 1306 4750 2228 4750 
Q 3147 4750 3647 4120 
Q 4147 3491 4147 2328 
z
" transform="scale(0.015625)"/>
     <path id="DejaVuSans-Bold-39" d="M 641 103 
L 641 966 
Q 928 831 1190 764 
Q 1453 697 1709 697 
Q 2247 697 2547 995 
Q 2847 1294 2900 1881 
Q 2688 1725 2447 1647 
Q 2206 1569 1925 1569 
Q 1209 1569 770 1986 
Q 331 2403 331 3084 
Q 331 3838 820 4291 
Q 1309 4744 2131 4744 
Q 3044 4744 3544 4128 
Q 4044 3513 4044 2388 
Q 4044 1231 3459 570 
Q 2875 -91 1856 -91 
Q 1528 -91 1228 -42 
Q 928 6 641 103 
z
M 2125 2350 
Q 2441 2350 2600 2554 
Q 2759 2759 2759 3169 
Q 2759 3575 2600 3781 
Q 2441 3988 2125 3988 
Q 1809 3988 1650 3781 
Q 1491 3575 1491 3169 
Q 1491 2759 1650 2554 
Q 1809 2350 2125 2350 
z
" transform="scale(0.015625)"/>
    </defs>
    <use xlink:href="#DejaVuSans-Bold-4b"/>
    <use xlink:href="#DejaVuSans-Bold-6f" x="75.740234"/>
    <use xlink:href="#DejaVuSans-Bold-6d" x="144.441406"/>
    <use xlink:href="#DejaVuSans-Bold-6f" x="248.640625"/>
    <use xlink:href="#DejaVuSans-Bold-72" x="317.341797"/>
    <use xlink:href="#DejaVuSans-Bold-6f" x="366.658203"/>
    <use xlink:href="#DejaVuSans-Bold-73" x="435.359375"/>
    <use xlink:href="#DejaVuSans-Bold-6b" x="494.880859"/>
    <use xlink:href="#DejaVuSans-Bold-69" x="561.384766"/>
    <use xlink:href="#DejaVuSans-Bold-32" x="595.662109"/>
    <use xlink:href="#DejaVuSans-Bold-30" x="665.242188"/>
    <use xlink:href="#DejaVuSans-Bold-30" x="734.822266"/>
    <use xlink:href="#DejaVuSans-Bold-39" x="804.402344"/>
   </g>
  </g>
 </g>
 <defs>
  <clipPath id="p81df0662ec">
   <rect x="64.3925" y="43.2" width="390.6" height="277.2"/>
  </clipPath>
 </defs>
</svg>
