<?xml version="1.0" encoding="utf-8" standalone="no"?>
<!DOCTYPE svg PUBLIC "-//W3C//DTD SVG 1.1//EN"
  "http://www.w3.org/Graphics/SVG/1.1/DTD/svg11.dtd">
<svg xmlns:xlink="http://www.w3.org/1999/xlink" width="462.1925pt" height="370.537812pt" viewBox="0 0 462.1925 370.537812" xmlns="http://www.w3.org/2000/svg" version="1.1">
 <metadata>
  <rdf:RDF xmlns:dc="http://purl.org/dc/elements/1.1/" xmlns:cc="http://creativecommons.org/ns#" xmlns:rdf="http://www.w3.org/1999/02/22-rdf-syntax-ns#">
   <cc:Work>
    <dc:type rdf:resource="http://purl.org/dc/dcmitype/StillImage"/>
    <dc:date>2025-12-21T21:51:15.982077</dc:date>
    <dc:format>image/svg+xml</dc:format>
    <dc:creator>
     <cc:Agent>
      <dc:title>Matplotlib v3.10.7, https://matplotlib.org/</dc:title>
     </cc:Agent>
    </dc:creator>
   </cc:Work>
  </rdf:RDF>
 </metadata>
 <defs>
  <style type="text/css">*{stroke-linejoin: round; stroke-linecap: butt}</style>
 </defs>
 <g id="figure_1">
  <g id="patch_1">
   <path d="M 0 370.537812 
L 462.1925 370.537812 
L 462.1925 0 
L 0 0 
z
" style="fill: #ffffff"/>
  </g>
  <g id="axes_1">
   <g id="patch_2">
    <path d="M 64.3925 320.4 
L 454.9925 320.4 
L 454.9925 43.2 
L 64.3925 43.2 
z
" style="fill: #ffffff"/>
   </g>
   <g id="matplotlib.axis_1">
    <g id="xtick_1">
     <g id="line2d_1">
      <defs>
       <path id="m54cc3a3217" d="M 0 0 
L 0 3.5 
" style="stroke: #000000; stroke-width: 0.8"/>
      </defs>
      <g>
       <use xlink:href="#m54cc3a3217" x="82.147045" y="320.4" style="stroke: #000000; stroke-width: 0.8"/>
      </g>
     </g>
     <g id="text_1">
      <!-- 0 -->
      <g transform="translate(77.37517 338.797656) scale(0.15 -0.15)">
       <defs>
        <path id="DejaVuSans-30" d="M 2034 4250 
Q 1547 4250 1301 3770 
Q 1056 3291 1056 2328 
Q 1056 1369 1301 889 
Q 1547 409 2034 409 
Q 2525 409 2770 889 
Q 3016 1369 3016 2328 
Q 3016 3291 2770 3770 
Q 2525 4250 2034 4250 
z
M 2034 4750 
Q 2819 4750 3233 4129 
Q 3647 3509 3647 2328 
Q 3647 1150 3233 529 
Q 2819 -91 2034 -91 
Q 1250 -91 836 529 
Q 422 1150 422 2328 
Q 422 3509 836 4129 
Q 1250 4750 2034 4750 
z
" transform="scale(0.015625)"/>
       </defs>
       <use xlink:href="#DejaVuSans-30"/>
      </g>
     </g>
    </g>
    <g id="xtick_2">
     <g id="line2d_2">
      <g>
       <use xlink:href="#m54cc3a3217" x="138.961591" y="320.4" style="stroke: #000000; stroke-width: 0.8"/>
      </g>
     </g>
     <g id="text_2">
      <!-- 20 -->
      <g transform="translate(129.417841 338.797656) scale(0.15 -0.15)">
       <defs>
        <path id="DejaVuSans-32" d="M 1228 531 
L 3431 531 
L 3431 0 
L 469 0 
L 469 531 
Q 828 903 1448 1529 
Q 2069 2156 2228 2338 
Q 2531 2678 2651 2914 
Q 2772 3150 2772 3378 
Q 2772 3750 2511 3984 
Q 2250 4219 1831 4219 
Q 1534 4219 1204 4116 
Q 875 4013 500 3803 
L 500 4441 
Q 881 4594 1212 4672 
Q 1544 4750 1819 4750 
Q 2544 4750 2975 4387 
Q 3406 4025 3406 3419 
Q 3406 3131 3298 2873 
Q 3191 2616 2906 2266 
Q 2828 2175 2409 1742 
Q 1991 1309 1228 531 
z
" transform="scale(0.015625)"/>
       </defs>
       <use xlink:href="#DejaVuSans-32"/>
       <use xlink:href="#DejaVuSans-30" transform="translate(63.623047 0)"/>
      </g>
     </g>
    </g>
    <g id="xtick_3">
     <g id="line2d_3">
      <g>
       <use xlink:href="#m54cc3a3217" x="195.776136" y="320.4" style="stroke: #000000; stroke-width: 0.8"/>
      </g>
     </g>
     <g id="text_3">
      <!-- 40 -->
      <g transform="translate(186.232386 338.797656) scale(0.15 -0.15)">
       <defs>
        <path id="DejaVuSans-34" d="M 2419 4116 
L 825 1625 
L 2419 1625 
L 2419 4116 
z
M 2253 4666 
L 3047 4666 
L 3047 1625 
L 3713 1625 
L 3713 1100 
L 3047 1100 
L 3047 0 
L 2419 0 
L 2419 1100 
L 313 1100 
L 313 1709 
L 2253 4666 
z
" transform="scale(0.015625)"/>
       </defs>
       <use xlink:href="#DejaVuSans-34"/>
       <use xlink:href="#DejaVuSans-30" transform="translate(63.623047 0)"/>
      </g>
     </g>
    </g>
    <g id="xtick_4">
     <g id="line2d_4">
      <g>
       <use xlink:href="#m54cc3a3217" x="252.590682" y="320.4" style="stroke: #000000; stroke-width: 0.8"/>
      </g>
     </g>
     <g id="text_4">
      <!-- 60 -->
      <g transform="translate(243.046932 338.797656) scale(0.15 -0.15)">
       <defs>
        <path id="DejaVuSans-36" d="M 2113 2584 
Q 1688 2584 1439 2293 
Q 1191 2003 1191 1497 
Q 1191 994 1439 701 
Q 1688 409 2113 409 
Q 2538 409 2786 701 
Q 3034 994 3034 1497 
Q 3034 2003 2786 2293 
Q 2538 2584 2113 2584 
z
M 3366 4563 
L 3366 3988 
Q 3128 4100 2886 4159 
Q 2644 4219 2406 4219 
Q 1781 4219 1451 3797 
Q 1122 3375 1075 2522 
Q 1259 2794 1537 2939 
Q 1816 3084 2150 3084 
Q 2853 3084 3261 2657 
Q 3669 2231 3669 1497 
Q 3669 778 3244 343 
Q 2819 -91 2113 -91 
Q 1303 -91 875 529 
Q 447 1150 447 2328 
Q 447 3434 972 4092 
Q 1497 4750 2381 4750 
Q 2619 4750 2861 4703 
Q 3103 4656 3366 4563 
z
" transform="scale(0.015625)"/>
       </defs>
       <use xlink:href="#DejaVuSans-36"/>
       <use xlink:href="#DejaVuSans-30" transform="translate(63.623047 0)"/>
      </g>
     </g>
    </g>
    <g id="xtick_5">
     <g id="line2d_5">
      <g>
       <use xlink:href="#m54cc3a3217" x="309.405227" y="320.4" style="stroke: #000000; stroke-width: 0.8"/>
      </g>
     </g>
     <g id="text_5">
      <!-- 80 -->
      <g transform="translate(299.861477 338.797656) scale(0.15 -0.15)">
       <defs>
        <path id="DejaVuSans-38" d="M 2034 2216 
Q 1584 2216 1326 1975 
Q 1069 1734 1069 1313 
Q 1069 891 1326 650 
Q 1584 409 2034 409 
Q 2484 409 2743 651 
Q 3003 894 3003 1313 
Q 3003 1734 2745 1975 
Q 2488 2216 2034 2216 
z
M 1403 2484 
Q 997 2584 770 2862 
Q 544 3141 544 3541 
Q 544 4100 942 4425 
Q 1341 4750 2034 4750 
Q 2731 4750 3128 4425 
Q 3525 4100 3525 3541 
Q 3525 3141 3298 2862 
Q 3072 2584 2669 2484 
Q 3125 2378 3379 2068 
Q 3634 1759 3634 1313 
Q 3634 634 3220 271 
Q 2806 -91 2034 -91 
Q 1263 -91 848 271 
Q 434 634 434 1313 
Q 434 1759 690 2068 
Q 947 2378 1403 2484 
z
M 1172 3481 
Q 1172 3119 1398 2916 
Q 1625 2713 2034 2713 
Q 2441 2713 2670 2916 
Q 2900 3119 2900 3481 
Q 2900 3844 2670 4047 
Q 2441 4250 2034 4250 
Q 1625 4250 1398 4047 
Q 1172 3844 1172 3481 
z
" transform="scale(0.015625)"/>
       </defs>
       <use xlink:href="#DejaVuSans-38"/>
       <use xlink:href="#DejaVuSans-30" transform="translate(63.623047 0)"/>
      </g>
     </g>
    </g>
    <g id="xtick_6">
     <g id="line2d_6">
      <g>
       <use xlink:href="#m54cc3a3217" x="366.219773" y="320.4" style="stroke: #000000; stroke-width: 0.8"/>
      </g>
     </g>
     <g id="text_6">
      <!-- 100 -->
      <g transform="translate(351.904148 338.797656) scale(0.15 -0.15)">
       <defs>
        <path id="DejaVuSans-31" d="M 794 531 
L 1825 531 
L 1825 4091 
L 703 3866 
L 703 4441 
L 1819 4666 
L 2450 4666 
L 2450 531 
L 3481 531 
L 3481 0 
L 794 0 
L 794 531 
z
" transform="scale(0.015625)"/>
       </defs>
       <use xlink:href="#DejaVuSans-31"/>
       <use xlink:href="#DejaVuSans-30" transform="translate(63.623047 0)"/>
       <use xlink:href="#DejaVuSans-30" transform="translate(127.246094 0)"/>
      </g>
     </g>
    </g>
    <g id="xtick_7">
     <g id="line2d_7">
      <g>
       <use xlink:href="#m54cc3a3217" x="423.034318" y="320.4" style="stroke: #000000; stroke-width: 0.8"/>
      </g>
     </g>
     <g id="text_7">
      <!-- 120 -->
      <g transform="translate(408.718693 338.797656) scale(0.15 -0.15)">
       <use xlink:href="#DejaVuSans-31"/>
       <use xlink:href="#DejaVuSans-32" transform="translate(63.623047 0)"/>
       <use xlink:href="#DejaVuSans-30" transform="translate(127.246094 0)"/>
      </g>
     </g>
    </g>
    <g id="text_8">
     <!-- time [hr] -->
     <g transform="translate(214.617969 359.594375) scale(0.18 -0.18)">
      <defs>
       <path id="DejaVuSans-Bold-74" d="M 1759 4494 
L 1759 3500 
L 2913 3500 
L 2913 2700 
L 1759 2700 
L 1759 1216 
Q 1759 972 1856 886 
Q 1953 800 2241 800 
L 2816 800 
L 2816 0 
L 1856 0 
Q 1194 0 917 276 
Q 641 553 641 1216 
L 641 2700 
L 84 2700 
L 84 3500 
L 641 3500 
L 641 4494 
L 1759 4494 
z
" transform="scale(0.015625)"/>
       <path id="DejaVuSans-Bold-69" d="M 538 3500 
L 1656 3500 
L 1656 0 
L 538 0 
L 538 3500 
z
M 538 4863 
L 1656 4863 
L 1656 3950 
L 538 3950 
L 538 4863 
z
" transform="scale(0.015625)"/>
       <path id="DejaVuSans-Bold-6d" d="M 3781 2919 
Q 3994 3244 4286 3414 
Q 4578 3584 4928 3584 
Q 5531 3584 5847 3212 
Q 6163 2841 6163 2131 
L 6163 0 
L 5038 0 
L 5038 1825 
Q 5041 1866 5042 1909 
Q 5044 1953 5044 2034 
Q 5044 2406 4934 2573 
Q 4825 2741 4581 2741 
Q 4263 2741 4089 2478 
Q 3916 2216 3909 1719 
L 3909 0 
L 2784 0 
L 2784 1825 
Q 2784 2406 2684 2573 
Q 2584 2741 2328 2741 
Q 2006 2741 1831 2477 
Q 1656 2213 1656 1722 
L 1656 0 
L 531 0 
L 531 3500 
L 1656 3500 
L 1656 2988 
Q 1863 3284 2130 3434 
Q 2397 3584 2719 3584 
Q 3081 3584 3359 3409 
Q 3638 3234 3781 2919 
z
" transform="scale(0.015625)"/>
       <path id="DejaVuSans-Bold-65" d="M 4031 1759 
L 4031 1441 
L 1416 1441 
Q 1456 1047 1700 850 
Q 1944 653 2381 653 
Q 2734 653 3104 758 
Q 3475 863 3866 1075 
L 3866 213 
Q 3469 63 3072 -14 
Q 2675 -91 2278 -91 
Q 1328 -91 801 392 
Q 275 875 275 1747 
Q 275 2603 792 3093 
Q 1309 3584 2216 3584 
Q 3041 3584 3536 3087 
Q 4031 2591 4031 1759 
z
M 2881 2131 
Q 2881 2450 2695 2645 
Q 2509 2841 2209 2841 
Q 1884 2841 1681 2658 
Q 1478 2475 1428 2131 
L 2881 2131 
z
" transform="scale(0.015625)"/>
       <path id="DejaVuSans-Bold-20" transform="scale(0.015625)"/>
       <path id="DejaVuSans-Bold-5b" d="M 550 4863 
L 2491 4863 
L 2491 4159 
L 1613 4159 
L 1613 -141 
L 2491 -141 
L 2491 -844 
L 550 -844 
L 550 4863 
z
" transform="scale(0.015625)"/>
       <path id="DejaVuSans-Bold-68" d="M 4056 2131 
L 4056 0 
L 2931 0 
L 2931 347 
L 2931 1625 
Q 2931 2084 2911 2256 
Q 2891 2428 2841 2509 
Q 2775 2619 2662 2680 
Q 2550 2741 2406 2741 
Q 2056 2741 1856 2470 
Q 1656 2200 1656 1722 
L 1656 0 
L 538 0 
L 538 4863 
L 1656 4863 
L 1656 2988 
Q 1909 3294 2193 3439 
Q 2478 3584 2822 3584 
Q 3428 3584 3742 3212 
Q 4056 2841 4056 2131 
z
" transform="scale(0.015625)"/>
       <path id="DejaVuSans-Bold-72" d="M 3138 2547 
Q 2991 2616 2845 2648 
Q 2700 2681 2553 2681 
Q 2122 2681 1889 2404 
Q 1656 2128 1656 1613 
L 1656 0 
L 538 0 
L 538 3500 
L 1656 3500 
L 1656 2925 
Q 1872 3269 2151 3426 
Q 2431 3584 2822 3584 
Q 2878 3584 2943 3579 
Q 3009 3575 3134 3559 
L 3138 2547 
z
" transform="scale(0.015625)"/>
       <path id="DejaVuSans-Bold-5d" d="M 2375 -844 
L 434 -844 
L 434 -141 
L 1313 -141 
L 1313 4159 
L 434 4159 
L 434 4863 
L 2375 4863 
L 2375 -844 
z
" transform="scale(0.015625)"/>
      </defs>
      <use xlink:href="#DejaVuSans-Bold-74"/>
      <use xlink:href="#DejaVuSans-Bold-69" transform="translate(47.802734 0)"/>
      <use xlink:href="#DejaVuSans-Bold-6d" transform="translate(82.080078 0)"/>
      <use xlink:href="#DejaVuSans-Bold-65" transform="translate(186.279297 0)"/>
      <use xlink:href="#DejaVuSans-Bold-20" transform="translate(254.101562 0)"/>
      <use xlink:href="#DejaVuSans-Bold-5b" transform="translate(288.916016 0)"/>
      <use xlink:href="#DejaVuSans-Bold-68" transform="translate(334.619141 0)"/>
      <use xlink:href="#DejaVuSans-Bold-72" transform="translate(405.810547 0)"/>
      <use xlink:href="#DejaVuSans-Bold-5d" transform="translate(455.126953 0)"/>
     </g>
    </g>
   </g>
   <g id="matplotlib.axis_2">
    <g id="ytick_1">
     <g id="line2d_8">
      <defs>
       <path id="m3b989c3124" d="M 0 0 
L -3.5 0 
" style="stroke: #000000; stroke-width: 0.8"/>
      </defs>
      <g>
       <use xlink:href="#m3b989c3124" x="64.3925" y="307.8" style="stroke: #000000; stroke-width: 0.8"/>
      </g>
     </g>
     <g id="text_9">
      <!-- 0 -->
      <g transform="translate(47.84875 313.498828) scale(0.15 -0.15)">
       <use xlink:href="#DejaVuSans-30"/>
      </g>
     </g>
    </g>
    <g id="ytick_2">
     <g id="line2d_9">
      <g>
       <use xlink:href="#m3b989c3124" x="64.3925" y="273.097507" style="stroke: #000000; stroke-width: 0.8"/>
      </g>
     </g>
     <g id="text_10">
      <!-- 50 -->
      <g transform="translate(38.305 278.796335) scale(0.15 -0.15)">
       <defs>
        <path id="DejaVuSans-35" d="M 691 4666 
L 3169 4666 
L 3169 4134 
L 1269 4134 
L 1269 2991 
Q 1406 3038 1543 3061 
Q 1681 3084 1819 3084 
Q 2600 3084 3056 2656 
Q 3513 2228 3513 1497 
Q 3513 744 3044 326 
Q 2575 -91 1722 -91 
Q 1428 -91 1123 -41 
Q 819 9 494 109 
L 494 744 
Q 775 591 1075 516 
Q 1375 441 1709 441 
Q 2250 441 2565 725 
Q 2881 1009 2881 1497 
Q 2881 1984 2565 2268 
Q 2250 2553 1709 2553 
Q 1456 2553 1204 2497 
Q 953 2441 691 2322 
L 691 4666 
z
" transform="scale(0.015625)"/>
       </defs>
       <use xlink:href="#DejaVuSans-35"/>
       <use xlink:href="#DejaVuSans-30" transform="translate(63.623047 0)"/>
      </g>
     </g>
    </g>
    <g id="ytick_3">
     <g id="line2d_10">
      <g>
       <use xlink:href="#m3b989c3124" x="64.3925" y="238.395014" style="stroke: #000000; stroke-width: 0.8"/>
      </g>
     </g>
     <g id="text_11">
      <!-- 100 -->
      <g transform="translate(28.76125 244.093842) scale(0.15 -0.15)">
       <use xlink:href="#DejaVuSans-31"/>
       <use xlink:href="#DejaVuSans-30" transform="translate(63.623047 0)"/>
       <use xlink:href="#DejaVuSans-30" transform="translate(127.246094 0)"/>
      </g>
     </g>
    </g>
    <g id="ytick_4">
     <g id="line2d_11">
      <g>
       <use xlink:href="#m3b989c3124" x="64.3925" y="203.692521" style="stroke: #000000; stroke-width: 0.8"/>
      </g>
     </g>
     <g id="text_12">
      <!-- 150 -->
      <g transform="translate(28.76125 209.391349) scale(0.15 -0.15)">
       <use xlink:href="#DejaVuSans-31"/>
       <use xlink:href="#DejaVuSans-35" transform="translate(63.623047 0)"/>
       <use xlink:href="#DejaVuSans-30" transform="translate(127.246094 0)"/>
      </g>
     </g>
    </g>
    <g id="ytick_5">
     <g id="line2d_12">
      <g>
       <use xlink:href="#m3b989c3124" x="64.3925" y="168.990028" style="stroke: #000000; stroke-width: 0.8"/>
      </g>
     </g>
     <g id="text_13">
      <!-- 200 -->
      <g transform="translate(28.76125 174.688856) scale(0.15 -0.15)">
       <use xlink:href="#DejaVuSans-32"/>
       <use xlink:href="#DejaVuSans-30" transform="translate(63.623047 0)"/>
       <use xlink:href="#DejaVuSans-30" transform="translate(127.246094 0)"/>
      </g>
     </g>
    </g>
    <g id="ytick_6">
     <g id="line2d_13">
      <g>
       <use xlink:href="#m3b989c3124" x="64.3925" y="134.287535" style="stroke: #000000; stroke-width: 0.8"/>
      </g>
     </g>
     <g id="text_14">
      <!-- 250 -->
      <g transform="translate(28.76125 139.986363) scale(0.15 -0.15)">
       <use xlink:href="#DejaVuSans-32"/>
       <use xlink:href="#DejaVuSans-35" transform="translate(63.623047 0)"/>
       <use xlink:href="#DejaVuSans-30" transform="translate(127.246094 0)"/>
      </g>
     </g>
    </g>
    <g id="ytick_7">
     <g id="line2d_14">
      <g>
       <use xlink:href="#m3b989c3124" x="64.3925" y="99.585042" style="stroke: #000000; stroke-width: 0.8"/>
      </g>
     </g>
     <g id="text_15">
      <!-- 300 -->
      <g transform="translate(28.76125 105.28387) scale(0.15 -0.15)">
       <defs>
        <path id="DejaVuSans-33" d="M 2597 2516 
Q 3050 2419 3304 2112 
Q 3559 1806 3559 1356 
Q 3559 666 3084 287 
Q 2609 -91 1734 -91 
Q 1441 -91 1130 -33 
Q 819 25 488 141 
L 488 750 
Q 750 597 1062 519 
Q 1375 441 1716 441 
Q 2309 441 2620 675 
Q 2931 909 2931 1356 
Q 2931 1769 2642 2001 
Q 2353 2234 1838 2234 
L 1294 2234 
L 1294 2753 
L 1863 2753 
Q 2328 2753 2575 2939 
Q 2822 3125 2822 3475 
Q 2822 3834 2567 4026 
Q 2313 4219 1838 4219 
Q 1578 4219 1281 4162 
Q 984 4106 628 3988 
L 628 4550 
Q 988 4650 1302 4700 
Q 1616 4750 1894 4750 
Q 2613 4750 3031 4423 
Q 3450 4097 3450 3541 
Q 3450 3153 3228 2886 
Q 3006 2619 2597 2516 
z
" transform="scale(0.015625)"/>
       </defs>
       <use xlink:href="#DejaVuSans-33"/>
       <use xlink:href="#DejaVuSans-30" transform="translate(63.623047 0)"/>
       <use xlink:href="#DejaVuSans-30" transform="translate(127.246094 0)"/>
      </g>
     </g>
    </g>
    <g id="ytick_8">
     <g id="line2d_15">
      <g>
       <use xlink:href="#m3b989c3124" x="64.3925" y="64.882549" style="stroke: #000000; stroke-width: 0.8"/>
      </g>
     </g>
     <g id="text_16">
      <!-- 350 -->
      <g transform="translate(28.76125 70.581377) scale(0.15 -0.15)">
       <use xlink:href="#DejaVuSans-33"/>
       <use xlink:href="#DejaVuSans-35" transform="translate(63.623047 0)"/>
       <use xlink:href="#DejaVuSans-30" transform="translate(127.246094 0)"/>
      </g>
     </g>
    </g>
    <g id="text_17">
     <!-- UGE [g] -->
     <g transform="translate(20.877187 220.445156) rotate(-90) scale(0.18 -0.18)">
      <defs>
       <path id="DejaVuSans-Bold-55" d="M 588 4666 
L 1791 4666 
L 1791 1869 
Q 1791 1291 1980 1042 
Q 2169 794 2597 794 
Q 3028 794 3217 1042 
Q 3406 1291 3406 1869 
L 3406 4666 
L 4609 4666 
L 4609 1869 
Q 4609 878 4112 393 
Q 3616 -91 2597 -91 
Q 1581 -91 1084 393 
Q 588 878 588 1869 
L 588 4666 
z
" transform="scale(0.015625)"/>
       <path id="DejaVuSans-Bold-47" d="M 4781 347 
Q 4331 128 3847 18 
Q 3363 -91 2847 -91 
Q 1681 -91 1000 561 
Q 319 1213 319 2328 
Q 319 3456 1012 4103 
Q 1706 4750 2913 4750 
Q 3378 4750 3804 4662 
Q 4231 4575 4609 4403 
L 4609 3438 
Q 4219 3659 3833 3768 
Q 3447 3878 3059 3878 
Q 2341 3878 1952 3476 
Q 1563 3075 1563 2328 
Q 1563 1588 1938 1184 
Q 2313 781 3003 781 
Q 3191 781 3352 804 
Q 3513 828 3641 878 
L 3641 1784 
L 2906 1784 
L 2906 2591 
L 4781 2591 
L 4781 347 
z
" transform="scale(0.015625)"/>
       <path id="DejaVuSans-Bold-45" d="M 588 4666 
L 3834 4666 
L 3834 3756 
L 1791 3756 
L 1791 2888 
L 3713 2888 
L 3713 1978 
L 1791 1978 
L 1791 909 
L 3903 909 
L 3903 0 
L 588 0 
L 588 4666 
z
" transform="scale(0.015625)"/>
       <path id="DejaVuSans-Bold-67" d="M 2919 594 
Q 2688 288 2409 144 
Q 2131 0 1766 0 
Q 1125 0 706 504 
Q 288 1009 288 1791 
Q 288 2575 706 3076 
Q 1125 3578 1766 3578 
Q 2131 3578 2409 3434 
Q 2688 3291 2919 2981 
L 2919 3500 
L 4044 3500 
L 4044 353 
Q 4044 -491 3511 -936 
Q 2978 -1381 1966 -1381 
Q 1638 -1381 1331 -1331 
Q 1025 -1281 716 -1178 
L 716 -306 
Q 1009 -475 1290 -558 
Q 1572 -641 1856 -641 
Q 2406 -641 2662 -400 
Q 2919 -159 2919 353 
L 2919 594 
z
M 2181 2772 
Q 1834 2772 1640 2515 
Q 1447 2259 1447 1791 
Q 1447 1309 1634 1061 
Q 1822 813 2181 813 
Q 2531 813 2725 1069 
Q 2919 1325 2919 1791 
Q 2919 2259 2725 2515 
Q 2531 2772 2181 2772 
z
" transform="scale(0.015625)"/>
      </defs>
      <use xlink:href="#DejaVuSans-Bold-55"/>
      <use xlink:href="#DejaVuSans-Bold-47" transform="translate(81.201172 0)"/>
      <use xlink:href="#DejaVuSans-Bold-45" transform="translate(163.28125 0)"/>
      <use xlink:href="#DejaVuSans-Bold-20" transform="translate(231.591797 0)"/>
      <use xlink:href="#DejaVuSans-Bold-5b" transform="translate(266.40625 0)"/>
      <use xlink:href="#DejaVuSans-Bold-67" transform="translate(312.109375 0)"/>
      <use xlink:href="#DejaVuSans-Bold-5d" transform="translate(383.691406 0)"/>
     </g>
    </g>
   </g>
   <g id="line2d_16">
    <path d="M 82.147045 307.8 
L 437.237955 307.8 
L 437.237955 307.8 
" clip-path="url(#p43a7f609c2)" style="fill: none; stroke: #000000; stroke-width: 2; stroke-linecap: square"/>
   </g>
   <g id="line2d_17">
    <path d="M 82.147045 307.8 
L 82.857227 307.702753 
L 84.277591 306.89413 
L 88.183591 304.562179 
L 90.669227 303.331226 
L 92.799773 302.51058 
L 94.930318 301.948713 
L 96.705773 301.694051 
L 98.836318 301.629897 
L 437.237955 301.629897 
L 437.237955 301.629897 
" clip-path="url(#p43a7f609c2)" style="fill: none; stroke: #fb8c00; stroke-width: 2; stroke-linecap: square"/>
   </g>
   <g id="line2d_18">
    <path d="M 82.147045 307.8 
L 82.502136 307.781707 
L 83.212318 307.393103 
L 91.7345 301.800895 
L 94.220136 300.543127 
L 96.350682 299.698164 
L 98.481227 299.105295 
L 100.611773 298.779008 
L 102.742318 298.703501 
L 437.237955 298.703501 
L 437.237955 298.703501 
" clip-path="url(#p43a7f609c2)" style="fill: none; stroke: #f57c00; stroke-width: 2; stroke-linecap: square"/>
   </g>
   <g id="line2d_19">
    <path d="M 82.147045 307.8 
L 82.502136 307.747866 
L 83.9225 306.759532 
L 90.669227 301.858135 
L 94.220136 299.562295 
L 97.060864 298.000709 
L 99.5465 296.913796 
L 101.677045 296.227542 
L 103.807591 295.777704 
L 105.938136 295.550371 
L 108.778864 295.507199 
L 437.237955 295.507199 
L 437.237955 295.507199 
" clip-path="url(#p43a7f609c2)" style="fill: none; stroke: #ef6c00; stroke-width: 2; stroke-linecap: square"/>
   </g>
   <g id="line2d_20">
    <path d="M 82.147045 307.8 
L 82.502136 307.708464 
L 84.632682 306.109492 
L 92.089591 300.502741 
L 96.350682 297.572652 
L 99.5465 295.653305 
L 102.032136 294.400857 
L 104.517773 293.398966 
L 107.003409 292.654123 
L 109.489045 292.140855 
L 112.329773 291.778522 
L 115.880682 291.554822 
L 120.851955 291.477405 
L 437.237955 291.477405 
L 437.237955 291.477405 
" clip-path="url(#p43a7f609c2)" style="fill: none; stroke: #e65100; stroke-width: 2; stroke-linecap: square"/>
   </g>
   <g id="line2d_21">
    <path d="M 82.147045 307.8 
L 82.502136 307.660202 
L 87.8285 303.516461 
L 95.995591 297.301243 
L 100.611773 294.053607 
L 104.162682 291.824937 
L 107.3585 290.086527 
L 110.554318 288.607148 
L 114.105227 287.212129 
L 118.721409 285.650958 
L 125.823227 283.508318 
L 140.381955 279.394829 
L 162.752682 273.302888 
L 185.833591 267.246854 
L 208.559409 261.511284 
L 231.285227 256.002543 
L 254.011045 250.721833 
L 276.736864 245.670252 
L 299.462682 240.848796 
L 321.833409 236.328298 
L 344.204136 232.032394 
L 366.574864 227.961725 
L 388.945591 224.11683 
L 411.316318 220.498139 
L 433.687045 217.105978 
L 437.237955 216.588388 
L 437.237955 216.588388 
" clip-path="url(#p43a7f609c2)" style="fill: none; stroke: #bf360c; stroke-width: 2; stroke-linecap: square"/>
   </g>
   <g id="line2d_22">
    <path d="M 82.147045 307.8 
L 82.857227 307.356542 
L 99.191409 294.713437 
L 104.162682 291.166335 
L 108.423773 288.401284 
L 112.684864 285.911637 
L 118.011227 283.081023 
L 126.533409 278.847638 
L 145.353227 269.804859 
L 172.340136 257.073835 
L 199.327045 244.587493 
L 225.958864 232.509384 
L 252.235591 220.834109 
L 278.512318 209.403186 
L 304.433955 198.370163 
L 330.0005 187.728909 
L 355.211955 177.473056 
L 380.423409 167.456613 
L 405.279773 157.818914 
L 430.136136 148.420376 
L 437.237955 145.779441 
L 437.237955 145.779441 
" clip-path="url(#p43a7f609c2)" style="fill: none; stroke: #a52a00; stroke-width: 2; stroke-linecap: square"/>
   </g>
   <g id="line2d_23">
    <path d="M 82.147045 307.8 
L 82.857227 307.32247 
L 102.387227 292.07406 
L 109.133955 287.115136 
L 115.880682 282.454494 
L 126.533409 275.411039 
L 155.650864 256.503207 
L 194.000682 231.844884 
L 231.640318 207.905623 
L 268.569773 184.680905 
L 304.789045 162.165598 
L 340.298136 140.353938 
L 375.097045 119.239533 
L 409.185773 98.815367 
L 437.237955 82.206665 
L 437.237955 82.206665 
" clip-path="url(#p43a7f609c2)" style="fill: none; stroke: #872200; stroke-width: 2; stroke-linecap: square"/>
   </g>
   <g id="line2d_24">
    <path d="M 82.147045 307.8 
L 83.212318 307.023952 
L 104.872864 290.04135 
L 113.750136 283.379395 
L 127.243591 273.590697 
L 171.274864 242.022694 
L 223.473227 204.852716 
L 274.251227 168.966597 
L 323.253773 134.605958 
L 370.835955 101.511042 
L 416.997773 69.672685 
L 437.237955 55.8 
L 437.237955 55.8 
" clip-path="url(#p43a7f609c2)" style="fill: none; stroke: #5e1800; stroke-width: 2; stroke-linecap: square"/>
   </g>
   <g id="line2d_25">
    <path d="M 92.089591 307.052275 
L 104.872864 306.284486 
L 116.235773 306.312576 
L 127.598682 306.339328 
L 138.961591 306.367418 
L 150.3245 307.186036 
L 161.687409 307.214126 
L 173.050318 306.446337 
L 184.413227 307.266293 
L 195.776136 306.498504 
L 207.139045 307.31846 
L 218.501955 307.34655 
L 252.590682 306.630927 
L 286.679409 306.711184 
L 320.768136 306.788766 
L 354.856864 306.86501 
L 388.945591 306.946604 
L 423.034318 307.026861 
" clip-path="url(#p43a7f609c2)" style="fill: none; stroke-dasharray: 3.7,1.6; stroke-dashoffset: 0; stroke: #000000"/>
    <defs>
     <path id="mb5e231950b" d="M -3 3 
L 3 3 
L 3 -3 
L -3 -3 
z
" style="stroke: #000000; stroke-linejoin: miter"/>
    </defs>
    <g clip-path="url(#p43a7f609c2)">
     <use xlink:href="#mb5e231950b" x="92.089591" y="307.052275" style="stroke: #000000; stroke-linejoin: miter"/>
     <use xlink:href="#mb5e231950b" x="104.872864" y="306.284486" style="stroke: #000000; stroke-linejoin: miter"/>
     <use xlink:href="#mb5e231950b" x="116.235773" y="306.312576" style="stroke: #000000; stroke-linejoin: miter"/>
     <use xlink:href="#mb5e231950b" x="127.598682" y="306.339328" style="stroke: #000000; stroke-linejoin: miter"/>
     <use xlink:href="#mb5e231950b" x="138.961591" y="306.367418" style="stroke: #000000; stroke-linejoin: miter"/>
     <use xlink:href="#mb5e231950b" x="150.3245" y="307.186036" style="stroke: #000000; stroke-linejoin: miter"/>
     <use xlink:href="#mb5e231950b" x="161.687409" y="307.214126" style="stroke: #000000; stroke-linejoin: miter"/>
     <use xlink:href="#mb5e231950b" x="173.050318" y="306.446337" style="stroke: #000000; stroke-linejoin: miter"/>
     <use xlink:href="#mb5e231950b" x="184.413227" y="307.266293" style="stroke: #000000; stroke-linejoin: miter"/>
     <use xlink:href="#mb5e231950b" x="195.776136" y="306.498504" style="stroke: #000000; stroke-linejoin: miter"/>
     <use xlink:href="#mb5e231950b" x="207.139045" y="307.31846" style="stroke: #000000; stroke-linejoin: miter"/>
     <use xlink:href="#mb5e231950b" x="218.501955" y="307.34655" style="stroke: #000000; stroke-linejoin: miter"/>
     <use xlink:href="#mb5e231950b" x="252.590682" y="306.630927" style="stroke: #000000; stroke-linejoin: miter"/>
     <use xlink:href="#mb5e231950b" x="286.679409" y="306.711184" style="stroke: #000000; stroke-linejoin: miter"/>
     <use xlink:href="#mb5e231950b" x="320.768136" y="306.788766" style="stroke: #000000; stroke-linejoin: miter"/>
     <use xlink:href="#mb5e231950b" x="354.856864" y="306.86501" style="stroke: #000000; stroke-linejoin: miter"/>
     <use xlink:href="#mb5e231950b" x="388.945591" y="306.946604" style="stroke: #000000; stroke-linejoin: miter"/>
     <use xlink:href="#mb5e231950b" x="423.034318" y="307.026861" style="stroke: #000000; stroke-linejoin: miter"/>
    </g>
   </g>
   <g id="line2d_26">
    <path d="M 92.089591 305.221883 
L 104.872864 299.998407 
L 116.235773 294.336225 
L 127.598682 291.299721 
L 138.961591 288.701923 
L 150.3245 286.104126 
L 161.687409 285.256233 
L 173.050318 285.285754 
L 184.413227 285.315274 
L 195.776136 285.344795 
L 207.139045 285.374315 
L 218.501955 285.403835 
L 252.590682 284.616624 
L 286.679409 285.579318 
L 320.768136 283.040561 
L 354.856864 283.125842 
L 388.945591 283.212764 
L 423.034318 284.177098 
" clip-path="url(#p43a7f609c2)" style="fill: none; stroke-dasharray: 3.7,1.6; stroke-dashoffset: 0; stroke: #fb8c00"/>
    <defs>
     <path id="m260f644b0d" d="M -3 3 
L 3 3 
L 3 -3 
L -3 -3 
z
" style="stroke: #000000; stroke-linejoin: miter"/>
    </defs>
    <g clip-path="url(#p43a7f609c2)">
     <use xlink:href="#m260f644b0d" x="92.089591" y="305.221883" style="fill: #fb8c00; stroke: #000000; stroke-linejoin: miter"/>
     <use xlink:href="#m260f644b0d" x="104.872864" y="299.998407" style="fill: #fb8c00; stroke: #000000; stroke-linejoin: miter"/>
     <use xlink:href="#m260f644b0d" x="116.235773" y="294.336225" style="fill: #fb8c00; stroke: #000000; stroke-linejoin: miter"/>
     <use xlink:href="#m260f644b0d" x="127.598682" y="291.299721" style="fill: #fb8c00; stroke: #000000; stroke-linejoin: miter"/>
     <use xlink:href="#m260f644b0d" x="138.961591" y="288.701923" style="fill: #fb8c00; stroke: #000000; stroke-linejoin: miter"/>
     <use xlink:href="#m260f644b0d" x="150.3245" y="286.104126" style="fill: #fb8c00; stroke: #000000; stroke-linejoin: miter"/>
     <use xlink:href="#m260f644b0d" x="161.687409" y="285.256233" style="fill: #fb8c00; stroke: #000000; stroke-linejoin: miter"/>
     <use xlink:href="#m260f644b0d" x="173.050318" y="285.285754" style="fill: #fb8c00; stroke: #000000; stroke-linejoin: miter"/>
     <use xlink:href="#m260f644b0d" x="184.413227" y="285.315274" style="fill: #fb8c00; stroke: #000000; stroke-linejoin: miter"/>
     <use xlink:href="#m260f644b0d" x="195.776136" y="285.344795" style="fill: #fb8c00; stroke: #000000; stroke-linejoin: miter"/>
     <use xlink:href="#m260f644b0d" x="207.139045" y="285.374315" style="fill: #fb8c00; stroke: #000000; stroke-linejoin: miter"/>
     <use xlink:href="#m260f644b0d" x="218.501955" y="285.403835" style="fill: #fb8c00; stroke: #000000; stroke-linejoin: miter"/>
     <use xlink:href="#m260f644b0d" x="252.590682" y="284.616624" style="fill: #fb8c00; stroke: #000000; stroke-linejoin: miter"/>
     <use xlink:href="#m260f644b0d" x="286.679409" y="285.579318" style="fill: #fb8c00; stroke: #000000; stroke-linejoin: miter"/>
     <use xlink:href="#m260f644b0d" x="320.768136" y="283.040561" style="fill: #fb8c00; stroke: #000000; stroke-linejoin: miter"/>
     <use xlink:href="#m260f644b0d" x="354.856864" y="283.125842" style="fill: #fb8c00; stroke: #000000; stroke-linejoin: miter"/>
     <use xlink:href="#m260f644b0d" x="388.945591" y="283.212764" style="fill: #fb8c00; stroke: #000000; stroke-linejoin: miter"/>
     <use xlink:href="#m260f644b0d" x="423.034318" y="284.177098" style="fill: #fb8c00; stroke: #000000; stroke-linejoin: miter"/>
    </g>
   </g>
   <g id="line2d_27">
    <path d="M 93.509955 303.908224 
L 104.872864 298.246862 
L 116.235773 291.2702 
L 127.598682 288.670763 
L 138.961591 286.074605 
L 150.3245 282.601035 
L 161.687409 282.191849 
L 173.050318 281.782663 
L 184.413227 281.810543 
L 195.776136 281.841704 
L 207.139045 281.871224 
L 218.501955 282.776517 
L 252.590682 281.987666 
L 286.679409 282.952 
L 320.768136 281.287376 
L 354.856864 280.498524 
L 388.945591 282.336991 
L 423.034318 284.178738 
" clip-path="url(#p43a7f609c2)" style="fill: none; stroke-dasharray: 3.7,1.6; stroke-dashoffset: 0; stroke: #f57c00"/>
    <defs>
     <path id="m3f6a6ec61b" d="M -3 3 
L 3 3 
L 3 -3 
L -3 -3 
z
" style="stroke: #000000; stroke-linejoin: miter"/>
    </defs>
    <g clip-path="url(#p43a7f609c2)">
     <use xlink:href="#m3f6a6ec61b" x="93.509955" y="303.908224" style="fill: #f57c00; stroke: #000000; stroke-linejoin: miter"/>
     <use xlink:href="#m3f6a6ec61b" x="104.872864" y="298.246862" style="fill: #f57c00; stroke: #000000; stroke-linejoin: miter"/>
     <use xlink:href="#m3f6a6ec61b" x="116.235773" y="291.2702" style="fill: #f57c00; stroke: #000000; stroke-linejoin: miter"/>
     <use xlink:href="#m3f6a6ec61b" x="127.598682" y="288.670763" style="fill: #f57c00; stroke: #000000; stroke-linejoin: miter"/>
     <use xlink:href="#m3f6a6ec61b" x="138.961591" y="286.074605" style="fill: #f57c00; stroke: #000000; stroke-linejoin: miter"/>
     <use xlink:href="#m3f6a6ec61b" x="150.3245" y="282.601035" style="fill: #f57c00; stroke: #000000; stroke-linejoin: miter"/>
     <use xlink:href="#m3f6a6ec61b" x="161.687409" y="282.191849" style="fill: #f57c00; stroke: #000000; stroke-linejoin: miter"/>
     <use xlink:href="#m3f6a6ec61b" x="173.050318" y="281.782663" style="fill: #f57c00; stroke: #000000; stroke-linejoin: miter"/>
     <use xlink:href="#m3f6a6ec61b" x="184.413227" y="281.810543" style="fill: #f57c00; stroke: #000000; stroke-linejoin: miter"/>
     <use xlink:href="#m3f6a6ec61b" x="195.776136" y="281.841704" style="fill: #f57c00; stroke: #000000; stroke-linejoin: miter"/>
     <use xlink:href="#m3f6a6ec61b" x="207.139045" y="281.871224" style="fill: #f57c00; stroke: #000000; stroke-linejoin: miter"/>
     <use xlink:href="#m3f6a6ec61b" x="218.501955" y="282.776517" style="fill: #f57c00; stroke: #000000; stroke-linejoin: miter"/>
     <use xlink:href="#m3f6a6ec61b" x="252.590682" y="281.987666" style="fill: #f57c00; stroke: #000000; stroke-linejoin: miter"/>
     <use xlink:href="#m3f6a6ec61b" x="286.679409" y="282.952" style="fill: #f57c00; stroke: #000000; stroke-linejoin: miter"/>
     <use xlink:href="#m3f6a6ec61b" x="320.768136" y="281.287376" style="fill: #f57c00; stroke: #000000; stroke-linejoin: miter"/>
     <use xlink:href="#m3f6a6ec61b" x="354.856864" y="280.498524" style="fill: #f57c00; stroke: #000000; stroke-linejoin: miter"/>
     <use xlink:href="#m3f6a6ec61b" x="388.945591" y="282.336991" style="fill: #f57c00; stroke: #000000; stroke-linejoin: miter"/>
     <use xlink:href="#m3f6a6ec61b" x="423.034318" y="284.178738" style="fill: #f57c00; stroke: #000000; stroke-linejoin: miter"/>
    </g>
   </g>
   <g id="line2d_28">
    <path d="M 93.509955 305.221883 
L 104.872864 294.743771 
L 116.235773 288.641242 
L 127.598682 282.540354 
L 138.961591 279.068424 
L 150.3245 271.21599 
L 161.687409 267.740779 
L 173.050318 264.267209 
L 184.413227 260.793639 
L 195.776136 256.445936 
L 207.139045 255.599683 
L 218.501955 256.503336 
L 252.590682 252.213034 
L 286.679409 251.425823 
L 320.768136 251.514384 
L 354.856864 249.84648 
L 388.945591 250.809174 
L 423.034318 251.773508 
" clip-path="url(#p43a7f609c2)" style="fill: none; stroke-dasharray: 3.7,1.6; stroke-dashoffset: 0; stroke: #ef6c00"/>
    <defs>
     <path id="maf05b15ffb" d="M -3 3 
L 3 3 
L 3 -3 
L -3 -3 
z
" style="stroke: #000000; stroke-linejoin: miter"/>
    </defs>
    <g clip-path="url(#p43a7f609c2)">
     <use xlink:href="#maf05b15ffb" x="93.509955" y="305.221883" style="fill: #ef6c00; stroke: #000000; stroke-linejoin: miter"/>
     <use xlink:href="#maf05b15ffb" x="104.872864" y="294.743771" style="fill: #ef6c00; stroke: #000000; stroke-linejoin: miter"/>
     <use xlink:href="#maf05b15ffb" x="116.235773" y="288.641242" style="fill: #ef6c00; stroke: #000000; stroke-linejoin: miter"/>
     <use xlink:href="#maf05b15ffb" x="127.598682" y="282.540354" style="fill: #ef6c00; stroke: #000000; stroke-linejoin: miter"/>
     <use xlink:href="#maf05b15ffb" x="138.961591" y="279.068424" style="fill: #ef6c00; stroke: #000000; stroke-linejoin: miter"/>
     <use xlink:href="#maf05b15ffb" x="150.3245" y="271.21599" style="fill: #ef6c00; stroke: #000000; stroke-linejoin: miter"/>
     <use xlink:href="#maf05b15ffb" x="161.687409" y="267.740779" style="fill: #ef6c00; stroke: #000000; stroke-linejoin: miter"/>
     <use xlink:href="#maf05b15ffb" x="173.050318" y="264.267209" style="fill: #ef6c00; stroke: #000000; stroke-linejoin: miter"/>
     <use xlink:href="#maf05b15ffb" x="184.413227" y="260.793639" style="fill: #ef6c00; stroke: #000000; stroke-linejoin: miter"/>
     <use xlink:href="#maf05b15ffb" x="195.776136" y="256.445936" style="fill: #ef6c00; stroke: #000000; stroke-linejoin: miter"/>
     <use xlink:href="#maf05b15ffb" x="207.139045" y="255.599683" style="fill: #ef6c00; stroke: #000000; stroke-linejoin: miter"/>
     <use xlink:href="#maf05b15ffb" x="218.501955" y="256.503336" style="fill: #ef6c00; stroke: #000000; stroke-linejoin: miter"/>
     <use xlink:href="#maf05b15ffb" x="252.590682" y="252.213034" style="fill: #ef6c00; stroke: #000000; stroke-linejoin: miter"/>
     <use xlink:href="#maf05b15ffb" x="286.679409" y="251.425823" style="fill: #ef6c00; stroke: #000000; stroke-linejoin: miter"/>
     <use xlink:href="#maf05b15ffb" x="320.768136" y="251.514384" style="fill: #ef6c00; stroke: #000000; stroke-linejoin: miter"/>
     <use xlink:href="#maf05b15ffb" x="354.856864" y="249.84648" style="fill: #ef6c00; stroke: #000000; stroke-linejoin: miter"/>
     <use xlink:href="#maf05b15ffb" x="388.945591" y="250.809174" style="fill: #ef6c00; stroke: #000000; stroke-linejoin: miter"/>
     <use xlink:href="#maf05b15ffb" x="423.034318" y="251.773508" style="fill: #ef6c00; stroke: #000000; stroke-linejoin: miter"/>
    </g>
   </g>
   <g id="line2d_29">
    <path d="M 93.509955 304.34611 
L 104.872864 297.369449 
L 116.235773 290.394428 
L 127.598682 282.541994 
L 138.961591 277.316878 
L 150.3245 270.341857 
L 161.687409 266.866647 
L 173.050318 263.391436 
L 184.413227 261.667771 
L 195.776136 260.821519 
L 207.139045 260.85268 
L 218.501955 261.757973 
" clip-path="url(#p43a7f609c2)" style="fill: none; stroke-dasharray: 3.7,1.6; stroke-dashoffset: 0; stroke: #e65100"/>
    <defs>
     <path id="m4d074afdb9" d="M -3 3 
L 3 3 
L 3 -3 
L -3 -3 
z
" style="stroke: #000000; stroke-linejoin: miter"/>
    </defs>
    <g clip-path="url(#p43a7f609c2)">
     <use xlink:href="#m4d074afdb9" x="93.509955" y="304.34611" style="fill: #e65100; stroke: #000000; stroke-linejoin: miter"/>
     <use xlink:href="#m4d074afdb9" x="104.872864" y="297.369449" style="fill: #e65100; stroke: #000000; stroke-linejoin: miter"/>
     <use xlink:href="#m4d074afdb9" x="116.235773" y="290.394428" style="fill: #e65100; stroke: #000000; stroke-linejoin: miter"/>
     <use xlink:href="#m4d074afdb9" x="127.598682" y="282.541994" style="fill: #e65100; stroke: #000000; stroke-linejoin: miter"/>
     <use xlink:href="#m4d074afdb9" x="138.961591" y="277.316878" style="fill: #e65100; stroke: #000000; stroke-linejoin: miter"/>
     <use xlink:href="#m4d074afdb9" x="150.3245" y="270.341857" style="fill: #e65100; stroke: #000000; stroke-linejoin: miter"/>
     <use xlink:href="#m4d074afdb9" x="161.687409" y="266.866647" style="fill: #e65100; stroke: #000000; stroke-linejoin: miter"/>
     <use xlink:href="#m4d074afdb9" x="173.050318" y="263.391436" style="fill: #e65100; stroke: #000000; stroke-linejoin: miter"/>
     <use xlink:href="#m4d074afdb9" x="184.413227" y="261.667771" style="fill: #e65100; stroke: #000000; stroke-linejoin: miter"/>
     <use xlink:href="#m4d074afdb9" x="195.776136" y="260.821519" style="fill: #e65100; stroke: #000000; stroke-linejoin: miter"/>
     <use xlink:href="#m4d074afdb9" x="207.139045" y="260.85268" style="fill: #e65100; stroke: #000000; stroke-linejoin: miter"/>
     <use xlink:href="#m4d074afdb9" x="218.501955" y="261.757973" style="fill: #e65100; stroke: #000000; stroke-linejoin: miter"/>
    </g>
   </g>
   <g id="line2d_30">
    <path d="M 93.509955 303.471977 
L 104.872864 293.869638 
L 116.235773 285.579318 
L 127.598682 278.599377 
L 138.961591 272.936375 
L 150.3245 266.837126 
L 161.687409 261.610371 
L 173.050318 257.261027 
L 184.413227 253.349571 
L 195.776136 246.812436 
L 207.139045 244.212998 
L 218.501955 242.490153 
L 252.590682 233.820168 
L 286.679409 229.091979 
L 320.768136 226.115336 
L 354.856864 226.200617 
L 388.945591 224.098107 
L 423.034318 225.061621 
" clip-path="url(#p43a7f609c2)" style="fill: none; stroke-dasharray: 3.7,1.6; stroke-dashoffset: 0; stroke: #bf360c"/>
    <defs>
     <path id="m1e5db703c3" d="M -3 3 
L 3 3 
L 3 -3 
L -3 -3 
z
" style="stroke: #000000; stroke-linejoin: miter"/>
    </defs>
    <g clip-path="url(#p43a7f609c2)">
     <use xlink:href="#m1e5db703c3" x="93.509955" y="303.471977" style="fill: #bf360c; stroke: #000000; stroke-linejoin: miter"/>
     <use xlink:href="#m1e5db703c3" x="104.872864" y="293.869638" style="fill: #bf360c; stroke: #000000; stroke-linejoin: miter"/>
     <use xlink:href="#m1e5db703c3" x="116.235773" y="285.579318" style="fill: #bf360c; stroke: #000000; stroke-linejoin: miter"/>
     <use xlink:href="#m1e5db703c3" x="127.598682" y="278.599377" style="fill: #bf360c; stroke: #000000; stroke-linejoin: miter"/>
     <use xlink:href="#m1e5db703c3" x="138.961591" y="272.936375" style="fill: #bf360c; stroke: #000000; stroke-linejoin: miter"/>
     <use xlink:href="#m1e5db703c3" x="150.3245" y="266.837126" style="fill: #bf360c; stroke: #000000; stroke-linejoin: miter"/>
     <use xlink:href="#m1e5db703c3" x="161.687409" y="261.610371" style="fill: #bf360c; stroke: #000000; stroke-linejoin: miter"/>
     <use xlink:href="#m1e5db703c3" x="173.050318" y="257.261027" style="fill: #bf360c; stroke: #000000; stroke-linejoin: miter"/>
     <use xlink:href="#m1e5db703c3" x="184.413227" y="253.349571" style="fill: #bf360c; stroke: #000000; stroke-linejoin: miter"/>
     <use xlink:href="#m1e5db703c3" x="195.776136" y="246.812436" style="fill: #bf360c; stroke: #000000; stroke-linejoin: miter"/>
     <use xlink:href="#m1e5db703c3" x="207.139045" y="244.212998" style="fill: #bf360c; stroke: #000000; stroke-linejoin: miter"/>
     <use xlink:href="#m1e5db703c3" x="218.501955" y="242.490153" style="fill: #bf360c; stroke: #000000; stroke-linejoin: miter"/>
     <use xlink:href="#m1e5db703c3" x="252.590682" y="233.820168" style="fill: #bf360c; stroke: #000000; stroke-linejoin: miter"/>
     <use xlink:href="#m1e5db703c3" x="286.679409" y="229.091979" style="fill: #bf360c; stroke: #000000; stroke-linejoin: miter"/>
     <use xlink:href="#m1e5db703c3" x="320.768136" y="226.115336" style="fill: #bf360c; stroke: #000000; stroke-linejoin: miter"/>
     <use xlink:href="#m1e5db703c3" x="354.856864" y="226.200617" style="fill: #bf360c; stroke: #000000; stroke-linejoin: miter"/>
     <use xlink:href="#m1e5db703c3" x="388.945591" y="224.098107" style="fill: #bf360c; stroke: #000000; stroke-linejoin: miter"/>
     <use xlink:href="#m1e5db703c3" x="423.034318" y="225.061621" style="fill: #bf360c; stroke: #000000; stroke-linejoin: miter"/>
    </g>
   </g>
   <g id="line2d_31">
    <path d="M 93.509955 301.718792 
L 104.872864 291.23904 
L 116.235773 280.760928 
L 127.598682 272.908494 
L 138.961591 265.05442 
L 150.3245 257.201987 
L 161.687409 250.225325 
L 173.050318 241.935005 
L 184.413227 234.082572 
L 195.776136 227.981683 
L 207.139045 224.508113 
L 218.501955 218.406404 
L 252.590682 198.353834 
L 286.679409 187.05653 
L 320.768136 176.635819 
L 354.856864 174.530848 
L 388.945591 171.113859 
L 423.034318 172.955606 
" clip-path="url(#p43a7f609c2)" style="fill: none; stroke-dasharray: 3.7,1.6; stroke-dashoffset: 0; stroke: #a52a00"/>
    <defs>
     <path id="m33742fcb36" d="M -3 3 
L 3 3 
L 3 -3 
L -3 -3 
z
" style="stroke: #000000; stroke-linejoin: miter"/>
    </defs>
    <g clip-path="url(#p43a7f609c2)">
     <use xlink:href="#m33742fcb36" x="93.509955" y="301.718792" style="fill: #a52a00; stroke: #000000; stroke-linejoin: miter"/>
     <use xlink:href="#m33742fcb36" x="104.872864" y="291.23904" style="fill: #a52a00; stroke: #000000; stroke-linejoin: miter"/>
     <use xlink:href="#m33742fcb36" x="116.235773" y="280.760928" style="fill: #a52a00; stroke: #000000; stroke-linejoin: miter"/>
     <use xlink:href="#m33742fcb36" x="127.598682" y="272.908494" style="fill: #a52a00; stroke: #000000; stroke-linejoin: miter"/>
     <use xlink:href="#m33742fcb36" x="138.961591" y="265.05442" style="fill: #a52a00; stroke: #000000; stroke-linejoin: miter"/>
     <use xlink:href="#m33742fcb36" x="150.3245" y="257.201987" style="fill: #a52a00; stroke: #000000; stroke-linejoin: miter"/>
     <use xlink:href="#m33742fcb36" x="161.687409" y="250.225325" style="fill: #a52a00; stroke: #000000; stroke-linejoin: miter"/>
     <use xlink:href="#m33742fcb36" x="173.050318" y="241.935005" style="fill: #a52a00; stroke: #000000; stroke-linejoin: miter"/>
     <use xlink:href="#m33742fcb36" x="184.413227" y="234.082572" style="fill: #a52a00; stroke: #000000; stroke-linejoin: miter"/>
     <use xlink:href="#m33742fcb36" x="195.776136" y="227.981683" style="fill: #a52a00; stroke: #000000; stroke-linejoin: miter"/>
     <use xlink:href="#m33742fcb36" x="207.139045" y="224.508113" style="fill: #a52a00; stroke: #000000; stroke-linejoin: miter"/>
     <use xlink:href="#m33742fcb36" x="218.501955" y="218.406404" style="fill: #a52a00; stroke: #000000; stroke-linejoin: miter"/>
     <use xlink:href="#m33742fcb36" x="252.590682" y="198.353834" style="fill: #a52a00; stroke: #000000; stroke-linejoin: miter"/>
     <use xlink:href="#m33742fcb36" x="286.679409" y="187.05653" style="fill: #a52a00; stroke: #000000; stroke-linejoin: miter"/>
     <use xlink:href="#m33742fcb36" x="320.768136" y="176.635819" style="fill: #a52a00; stroke: #000000; stroke-linejoin: miter"/>
     <use xlink:href="#m33742fcb36" x="354.856864" y="174.530848" style="fill: #a52a00; stroke: #000000; stroke-linejoin: miter"/>
     <use xlink:href="#m33742fcb36" x="388.945591" y="171.113859" style="fill: #a52a00; stroke: #000000; stroke-linejoin: miter"/>
     <use xlink:href="#m33742fcb36" x="423.034318" y="172.955606" style="fill: #a52a00; stroke: #000000; stroke-linejoin: miter"/>
    </g>
   </g>
   <g id="line2d_32">
    <path d="M 93.509955 299.968886 
L 104.872864 289.487495 
L 116.235773 282.512473 
L 127.598682 272.906854 
L 138.961591 265.930193 
L 150.3245 257.203627 
L 161.687409 249.349553 
L 173.050318 240.621346 
L 184.413227 233.641405 
L 195.776136 225.792251 
L 207.139045 218.81559 
L 218.501955 208.337478 
L 252.590682 187.405855 
L 286.679409 173.482873 
L 320.768136 159.558251 
L 354.856864 154.827603 
L 388.945591 150.972727 
L 423.034318 148.871856 
" clip-path="url(#p43a7f609c2)" style="fill: none; stroke-dasharray: 3.7,1.6; stroke-dashoffset: 0; stroke: #872200"/>
    <defs>
     <path id="m09e42bb5eb" d="M -3 3 
L 3 3 
L 3 -3 
L -3 -3 
z
" style="stroke: #000000; stroke-linejoin: miter"/>
    </defs>
    <g clip-path="url(#p43a7f609c2)">
     <use xlink:href="#m09e42bb5eb" x="93.509955" y="299.968886" style="fill: #872200; stroke: #000000; stroke-linejoin: miter"/>
     <use xlink:href="#m09e42bb5eb" x="104.872864" y="289.487495" style="fill: #872200; stroke: #000000; stroke-linejoin: miter"/>
     <use xlink:href="#m09e42bb5eb" x="116.235773" y="282.512473" style="fill: #872200; stroke: #000000; stroke-linejoin: miter"/>
     <use xlink:href="#m09e42bb5eb" x="127.598682" y="272.906854" style="fill: #872200; stroke: #000000; stroke-linejoin: miter"/>
     <use xlink:href="#m09e42bb5eb" x="138.961591" y="265.930193" style="fill: #872200; stroke: #000000; stroke-linejoin: miter"/>
     <use xlink:href="#m09e42bb5eb" x="150.3245" y="257.203627" style="fill: #872200; stroke: #000000; stroke-linejoin: miter"/>
     <use xlink:href="#m09e42bb5eb" x="161.687409" y="249.349553" style="fill: #872200; stroke: #000000; stroke-linejoin: miter"/>
     <use xlink:href="#m09e42bb5eb" x="173.050318" y="240.621346" style="fill: #872200; stroke: #000000; stroke-linejoin: miter"/>
     <use xlink:href="#m09e42bb5eb" x="184.413227" y="233.641405" style="fill: #872200; stroke: #000000; stroke-linejoin: miter"/>
     <use xlink:href="#m09e42bb5eb" x="195.776136" y="225.792251" style="fill: #872200; stroke: #000000; stroke-linejoin: miter"/>
     <use xlink:href="#m09e42bb5eb" x="207.139045" y="218.81559" style="fill: #872200; stroke: #000000; stroke-linejoin: miter"/>
     <use xlink:href="#m09e42bb5eb" x="218.501955" y="208.337478" style="fill: #872200; stroke: #000000; stroke-linejoin: miter"/>
     <use xlink:href="#m09e42bb5eb" x="252.590682" y="187.405855" style="fill: #872200; stroke: #000000; stroke-linejoin: miter"/>
     <use xlink:href="#m09e42bb5eb" x="286.679409" y="173.482873" style="fill: #872200; stroke: #000000; stroke-linejoin: miter"/>
     <use xlink:href="#m09e42bb5eb" x="320.768136" y="159.558251" style="fill: #872200; stroke: #000000; stroke-linejoin: miter"/>
     <use xlink:href="#m09e42bb5eb" x="354.856864" y="154.827603" style="fill: #872200; stroke: #000000; stroke-linejoin: miter"/>
     <use xlink:href="#m09e42bb5eb" x="388.945591" y="150.972727" style="fill: #872200; stroke: #000000; stroke-linejoin: miter"/>
     <use xlink:href="#m09e42bb5eb" x="423.034318" y="148.871856" style="fill: #872200; stroke: #000000; stroke-linejoin: miter"/>
    </g>
   </g>
   <g id="line2d_33">
    <path d="M 93.509955 298.215701 
L 104.872864 287.737589 
L 116.235773 279.883515 
L 127.598682 271.155309 
L 138.961591 263.301235 
L 150.3245 255.450441 
L 161.687409 246.722235 
L 173.050318 239.743934 
L 184.413227 231.014087 
L 195.776136 223.163293 
L 207.139045 215.310859 
L 218.501955 207.458426 
L 252.590682 179.086014 
L 286.679409 159.46969 
L 320.768136 140.291252 
L 354.856864 126.36417 
L 388.945591 109.81059 
L 423.034318 96.763381 
" clip-path="url(#p43a7f609c2)" style="fill: none; stroke-dasharray: 3.7,1.6; stroke-dashoffset: 0; stroke: #5e1800"/>
    <defs>
     <path id="mfe4170af56" d="M -3 3 
L 3 3 
L 3 -3 
L -3 -3 
z
" style="stroke: #000000; stroke-linejoin: miter"/>
    </defs>
    <g clip-path="url(#p43a7f609c2)">
     <use xlink:href="#mfe4170af56" x="93.509955" y="298.215701" style="fill: #5e1800; stroke: #000000; stroke-linejoin: miter"/>
     <use xlink:href="#mfe4170af56" x="104.872864" y="287.737589" style="fill: #5e1800; stroke: #000000; stroke-linejoin: miter"/>
     <use xlink:href="#mfe4170af56" x="116.235773" y="279.883515" style="fill: #5e1800; stroke: #000000; stroke-linejoin: miter"/>
     <use xlink:href="#mfe4170af56" x="127.598682" y="271.155309" style="fill: #5e1800; stroke: #000000; stroke-linejoin: miter"/>
     <use xlink:href="#mfe4170af56" x="138.961591" y="263.301235" style="fill: #5e1800; stroke: #000000; stroke-linejoin: miter"/>
     <use xlink:href="#mfe4170af56" x="150.3245" y="255.450441" style="fill: #5e1800; stroke: #000000; stroke-linejoin: miter"/>
     <use xlink:href="#mfe4170af56" x="161.687409" y="246.722235" style="fill: #5e1800; stroke: #000000; stroke-linejoin: miter"/>
     <use xlink:href="#mfe4170af56" x="173.050318" y="239.743934" style="fill: #5e1800; stroke: #000000; stroke-linejoin: miter"/>
     <use xlink:href="#mfe4170af56" x="184.413227" y="231.014087" style="fill: #5e1800; stroke: #000000; stroke-linejoin: miter"/>
     <use xlink:href="#mfe4170af56" x="195.776136" y="223.163293" style="fill: #5e1800; stroke: #000000; stroke-linejoin: miter"/>
     <use xlink:href="#mfe4170af56" x="207.139045" y="215.310859" style="fill: #5e1800; stroke: #000000; stroke-linejoin: miter"/>
     <use xlink:href="#mfe4170af56" x="218.501955" y="207.458426" style="fill: #5e1800; stroke: #000000; stroke-linejoin: miter"/>
     <use xlink:href="#mfe4170af56" x="252.590682" y="179.086014" style="fill: #5e1800; stroke: #000000; stroke-linejoin: miter"/>
     <use xlink:href="#mfe4170af56" x="286.679409" y="159.46969" style="fill: #5e1800; stroke: #000000; stroke-linejoin: miter"/>
     <use xlink:href="#mfe4170af56" x="320.768136" y="140.291252" style="fill: #5e1800; stroke: #000000; stroke-linejoin: miter"/>
     <use xlink:href="#mfe4170af56" x="354.856864" y="126.36417" style="fill: #5e1800; stroke: #000000; stroke-linejoin: miter"/>
     <use xlink:href="#mfe4170af56" x="388.945591" y="109.81059" style="fill: #5e1800; stroke: #000000; stroke-linejoin: miter"/>
     <use xlink:href="#mfe4170af56" x="423.034318" y="96.763381" style="fill: #5e1800; stroke: #000000; stroke-linejoin: miter"/>
    </g>
   </g>
   <g id="patch_3">
    <path d="M 64.3925 320.4 
L 64.3925 43.2 
" style="fill: none; stroke: #000000; stroke-width: 0.8; stroke-linejoin: miter; stroke-linecap: square"/>
   </g>
   <g id="patch_4">
    <path d="M 454.9925 320.4 
L 454.9925 43.2 
" style="fill: none; stroke: #000000; stroke-width: 0.8; stroke-linejoin: miter; stroke-linecap: square"/>
   </g>
   <g id="patch_5">
    <path d="M 64.3925 320.4 
L 454.9925 320.4 
" style="fill: none; stroke: #000000; stroke-width: 0.8; stroke-linejoin: miter; stroke-linecap: square"/>
   </g>
   <g id="patch_6">
    <path d="M 64.3925 43.2 
L 454.9925 43.2 
" style="fill: none; stroke: #000000; stroke-width: 0.8; stroke-linejoin: miter; stroke-linecap: square"/>
   </g>
   <g id="legend_1">
    <g id="patch_7">
     <path d="M 328.497187 315.40625 
L 447.9925 315.40625 
Q 449.9925 315.40625 449.9925 313.40625 
L 449.9925 50.2 
Q 449.9925 48.2 447.9925 48.2 
L 328.497187 48.2 
Q 326.497187 48.2 326.497187 50.2 
L 326.497187 313.40625 
Q 326.497187 315.40625 328.497187 315.40625 
z
" style="fill: #ffffff; opacity: 0.8; stroke: #cccccc; stroke-linejoin: miter"/>
    </g>
    <g id="line2d_34">
     <path d="M 330.497187 56.298437 
L 350.497187 56.298437 
" style="fill: none; stroke: #000000; stroke-width: 2; stroke-linecap: square"/>
    </g>
    <g id="line2d_35"/>
    <g id="text_18">
     <!-- 0 mg PO -->
     <g transform="translate(358.497187 59.798437) scale(0.1 -0.1)">
      <defs>
       <path id="DejaVuSans-20" transform="scale(0.015625)"/>
       <path id="DejaVuSans-6d" d="M 3328 2828 
Q 3544 3216 3844 3400 
Q 4144 3584 4550 3584 
Q 5097 3584 5394 3201 
Q 5691 2819 5691 2113 
L 5691 0 
L 5113 0 
L 5113 2094 
Q 5113 2597 4934 2840 
Q 4756 3084 4391 3084 
Q 3944 3084 3684 2787 
Q 3425 2491 3425 1978 
L 3425 0 
L 2847 0 
L 2847 2094 
Q 2847 2600 2669 2842 
Q 2491 3084 2119 3084 
Q 1678 3084 1418 2786 
Q 1159 2488 1159 1978 
L 1159 0 
L 581 0 
L 581 3500 
L 1159 3500 
L 1159 2956 
Q 1356 3278 1631 3431 
Q 1906 3584 2284 3584 
Q 2666 3584 2933 3390 
Q 3200 3197 3328 2828 
z
" transform="scale(0.015625)"/>
       <path id="DejaVuSans-67" d="M 2906 1791 
Q 2906 2416 2648 2759 
Q 2391 3103 1925 3103 
Q 1463 3103 1205 2759 
Q 947 2416 947 1791 
Q 947 1169 1205 825 
Q 1463 481 1925 481 
Q 2391 481 2648 825 
Q 2906 1169 2906 1791 
z
M 3481 434 
Q 3481 -459 3084 -895 
Q 2688 -1331 1869 -1331 
Q 1566 -1331 1297 -1286 
Q 1028 -1241 775 -1147 
L 775 -588 
Q 1028 -725 1275 -790 
Q 1522 -856 1778 -856 
Q 2344 -856 2625 -561 
Q 2906 -266 2906 331 
L 2906 616 
Q 2728 306 2450 153 
Q 2172 0 1784 0 
Q 1141 0 747 490 
Q 353 981 353 1791 
Q 353 2603 747 3093 
Q 1141 3584 1784 3584 
Q 2172 3584 2450 3431 
Q 2728 3278 2906 2969 
L 2906 3500 
L 3481 3500 
L 3481 434 
z
" transform="scale(0.015625)"/>
       <path id="DejaVuSans-50" d="M 1259 4147 
L 1259 2394 
L 2053 2394 
Q 2494 2394 2734 2622 
Q 2975 2850 2975 3272 
Q 2975 3691 2734 3919 
Q 2494 4147 2053 4147 
L 1259 4147 
z
M 628 4666 
L 2053 4666 
Q 2838 4666 3239 4311 
Q 3641 3956 3641 3272 
Q 3641 2581 3239 2228 
Q 2838 1875 2053 1875 
L 1259 1875 
L 1259 0 
L 628 0 
L 628 4666 
z
" transform="scale(0.015625)"/>
       <path id="DejaVuSans-4f" d="M 2522 4238 
Q 1834 4238 1429 3725 
Q 1025 3213 1025 2328 
Q 1025 1447 1429 934 
Q 1834 422 2522 422 
Q 3209 422 3611 934 
Q 4013 1447 4013 2328 
Q 4013 3213 3611 3725 
Q 3209 4238 2522 4238 
z
M 2522 4750 
Q 3503 4750 4090 4092 
Q 4678 3434 4678 2328 
Q 4678 1225 4090 567 
Q 3503 -91 2522 -91 
Q 1538 -91 948 565 
Q 359 1222 359 2328 
Q 359 3434 948 4092 
Q 1538 4750 2522 4750 
z
" transform="scale(0.015625)"/>
      </defs>
      <use xlink:href="#DejaVuSans-30"/>
      <use xlink:href="#DejaVuSans-20" transform="translate(63.623047 0)"/>
      <use xlink:href="#DejaVuSans-6d" transform="translate(95.410156 0)"/>
      <use xlink:href="#DejaVuSans-67" transform="translate(192.822266 0)"/>
      <use xlink:href="#DejaVuSans-20" transform="translate(256.298828 0)"/>
      <use xlink:href="#DejaVuSans-50" transform="translate(288.085938 0)"/>
      <use xlink:href="#DejaVuSans-4f" transform="translate(348.388672 0)"/>
     </g>
    </g>
    <g id="line2d_36">
     <path d="M 330.497187 70.976562 
L 350.497187 70.976562 
" style="fill: none; stroke: #fb8c00; stroke-width: 2; stroke-linecap: square"/>
    </g>
    <g id="line2d_37"/>
    <g id="text_19">
     <!-- 2.5 mg PO -->
     <g transform="translate(358.497187 74.476562) scale(0.1 -0.1)">
      <defs>
       <path id="DejaVuSans-2e" d="M 684 794 
L 1344 794 
L 1344 0 
L 684 0 
L 684 794 
z
" transform="scale(0.015625)"/>
      </defs>
      <use xlink:href="#DejaVuSans-32"/>
      <use xlink:href="#DejaVuSans-2e" transform="translate(63.623047 0)"/>
      <use xlink:href="#DejaVuSans-35" transform="translate(95.410156 0)"/>
      <use xlink:href="#DejaVuSans-20" transform="translate(159.033203 0)"/>
      <use xlink:href="#DejaVuSans-6d" transform="translate(190.820312 0)"/>
      <use xlink:href="#DejaVuSans-67" transform="translate(288.232422 0)"/>
      <use xlink:href="#DejaVuSans-20" transform="translate(351.708984 0)"/>
      <use xlink:href="#DejaVuSans-50" transform="translate(383.496094 0)"/>
      <use xlink:href="#DejaVuSans-4f" transform="translate(443.798828 0)"/>
     </g>
    </g>
    <g id="line2d_38">
     <path d="M 330.497187 85.654687 
L 350.497187 85.654687 
" style="fill: none; stroke: #f57c00; stroke-width: 2; stroke-linecap: square"/>
    </g>
    <g id="line2d_39"/>
    <g id="text_20">
     <!-- 5 mg PO -->
     <g transform="translate(358.497187 89.154687) scale(0.1 -0.1)">
      <use xlink:href="#DejaVuSans-35"/>
      <use xlink:href="#DejaVuSans-20" transform="translate(63.623047 0)"/>
      <use xlink:href="#DejaVuSans-6d" transform="translate(95.410156 0)"/>
      <use xlink:href="#DejaVuSans-67" transform="translate(192.822266 0)"/>
      <use xlink:href="#DejaVuSans-20" transform="translate(256.298828 0)"/>
      <use xlink:href="#DejaVuSans-50" transform="translate(288.085938 0)"/>
      <use xlink:href="#DejaVuSans-4f" transform="translate(348.388672 0)"/>
     </g>
    </g>
    <g id="line2d_40">
     <path d="M 330.497187 100.332812 
L 350.497187 100.332812 
" style="fill: none; stroke: #ef6c00; stroke-width: 2; stroke-linecap: square"/>
    </g>
    <g id="line2d_41"/>
    <g id="text_21">
     <!-- 10 mg PO -->
     <g transform="translate(358.497187 103.832812) scale(0.1 -0.1)">
      <use xlink:href="#DejaVuSans-31"/>
      <use xlink:href="#DejaVuSans-30" transform="translate(63.623047 0)"/>
      <use xlink:href="#DejaVuSans-20" transform="translate(127.246094 0)"/>
      <use xlink:href="#DejaVuSans-6d" transform="translate(159.033203 0)"/>
      <use xlink:href="#DejaVuSans-67" transform="translate(256.445312 0)"/>
      <use xlink:href="#DejaVuSans-20" transform="translate(319.921875 0)"/>
      <use xlink:href="#DejaVuSans-50" transform="translate(351.708984 0)"/>
      <use xlink:href="#DejaVuSans-4f" transform="translate(412.011719 0)"/>
     </g>
    </g>
    <g id="line2d_42">
     <path d="M 330.497187 115.010937 
L 350.497187 115.010937 
" style="fill: none; stroke: #e65100; stroke-width: 2; stroke-linecap: square"/>
    </g>
    <g id="line2d_43"/>
    <g id="text_22">
     <!-- 20 mg PO -->
     <g transform="translate(358.497187 118.510937) scale(0.1 -0.1)">
      <use xlink:href="#DejaVuSans-32"/>
      <use xlink:href="#DejaVuSans-30" transform="translate(63.623047 0)"/>
      <use xlink:href="#DejaVuSans-20" transform="translate(127.246094 0)"/>
      <use xlink:href="#DejaVuSans-6d" transform="translate(159.033203 0)"/>
      <use xlink:href="#DejaVuSans-67" transform="translate(256.445312 0)"/>
      <use xlink:href="#DejaVuSans-20" transform="translate(319.921875 0)"/>
      <use xlink:href="#DejaVuSans-50" transform="translate(351.708984 0)"/>
      <use xlink:href="#DejaVuSans-4f" transform="translate(412.011719 0)"/>
     </g>
    </g>
    <g id="line2d_44">
     <path d="M 330.497187 129.689062 
L 350.497187 129.689062 
" style="fill: none; stroke: #bf360c; stroke-width: 2; stroke-linecap: square"/>
    </g>
    <g id="line2d_45"/>
    <g id="text_23">
     <!-- 50 mg PO -->
     <g transform="translate(358.497187 133.189062) scale(0.1 -0.1)">
      <use xlink:href="#DejaVuSans-35"/>
      <use xlink:href="#DejaVuSans-30" transform="translate(63.623047 0)"/>
      <use xlink:href="#DejaVuSans-20" transform="translate(127.246094 0)"/>
      <use xlink:href="#DejaVuSans-6d" transform="translate(159.033203 0)"/>
      <use xlink:href="#DejaVuSans-67" transform="translate(256.445312 0)"/>
      <use xlink:href="#DejaVuSans-20" transform="translate(319.921875 0)"/>
      <use xlink:href="#DejaVuSans-50" transform="translate(351.708984 0)"/>
      <use xlink:href="#DejaVuSans-4f" transform="translate(412.011719 0)"/>
     </g>
    </g>
    <g id="line2d_46">
     <path d="M 330.497187 144.367187 
L 350.497187 144.367187 
" style="fill: none; stroke: #a52a00; stroke-width: 2; stroke-linecap: square"/>
    </g>
    <g id="line2d_47"/>
    <g id="text_24">
     <!-- 100 mg PO -->
     <g transform="translate(358.497187 147.867187) scale(0.1 -0.1)">
      <use xlink:href="#DejaVuSans-31"/>
      <use xlink:href="#DejaVuSans-30" transform="translate(63.623047 0)"/>
      <use xlink:href="#DejaVuSans-30" transform="translate(127.246094 0)"/>
      <use xlink:href="#DejaVuSans-20" transform="translate(190.869141 0)"/>
      <use xlink:href="#DejaVuSans-6d" transform="translate(222.65625 0)"/>
      <use xlink:href="#DejaVuSans-67" transform="translate(320.068359 0)"/>
      <use xlink:href="#DejaVuSans-20" transform="translate(383.544922 0)"/>
      <use xlink:href="#DejaVuSans-50" transform="translate(415.332031 0)"/>
      <use xlink:href="#DejaVuSans-4f" transform="translate(475.634766 0)"/>
     </g>
    </g>
    <g id="line2d_48">
     <path d="M 330.497187 159.045312 
L 350.497187 159.045312 
" style="fill: none; stroke: #872200; stroke-width: 2; stroke-linecap: square"/>
    </g>
    <g id="line2d_49"/>
    <g id="text_25">
     <!-- 250 mg PO -->
     <g transform="translate(358.497187 162.545312) scale(0.1 -0.1)">
      <use xlink:href="#DejaVuSans-32"/>
      <use xlink:href="#DejaVuSans-35" transform="translate(63.623047 0)"/>
      <use xlink:href="#DejaVuSans-30" transform="translate(127.246094 0)"/>
      <use xlink:href="#DejaVuSans-20" transform="translate(190.869141 0)"/>
      <use xlink:href="#DejaVuSans-6d" transform="translate(222.65625 0)"/>
      <use xlink:href="#DejaVuSans-67" transform="translate(320.068359 0)"/>
      <use xlink:href="#DejaVuSans-20" transform="translate(383.544922 0)"/>
      <use xlink:href="#DejaVuSans-50" transform="translate(415.332031 0)"/>
      <use xlink:href="#DejaVuSans-4f" transform="translate(475.634766 0)"/>
     </g>
    </g>
    <g id="line2d_50">
     <path d="M 330.497187 173.723437 
L 350.497187 173.723437 
" style="fill: none; stroke: #5e1800; stroke-width: 2; stroke-linecap: square"/>
    </g>
    <g id="line2d_51"/>
    <g id="text_26">
     <!-- 500 mg PO -->
     <g transform="translate(358.497187 177.223437) scale(0.1 -0.1)">
      <use xlink:href="#DejaVuSans-35"/>
      <use xlink:href="#DejaVuSans-30" transform="translate(63.623047 0)"/>
      <use xlink:href="#DejaVuSans-30" transform="translate(127.246094 0)"/>
      <use xlink:href="#DejaVuSans-20" transform="translate(190.869141 0)"/>
      <use xlink:href="#DejaVuSans-6d" transform="translate(222.65625 0)"/>
      <use xlink:href="#DejaVuSans-67" transform="translate(320.068359 0)"/>
      <use xlink:href="#DejaVuSans-20" transform="translate(383.544922 0)"/>
      <use xlink:href="#DejaVuSans-50" transform="translate(415.332031 0)"/>
      <use xlink:href="#DejaVuSans-4f" transform="translate(475.634766 0)"/>
     </g>
    </g>
    <g id="line2d_52">
     <path d="M 330.497187 188.401562 
L 350.497187 188.401562 
" style="fill: none; stroke-dasharray: 3.7,1.6; stroke-dashoffset: 0; stroke: #000000"/>
    </g>
    <g id="line2d_53">
     <g>
      <use xlink:href="#mb5e231950b" x="340.497187" y="188.401562" style="stroke: #000000; stroke-linejoin: miter"/>
     </g>
    </g>
    <g id="text_27">
     <!-- 0 mg PO (n=5) -->
     <g transform="translate(358.497187 191.901562) scale(0.1 -0.1)">
      <defs>
       <path id="DejaVuSans-28" d="M 1984 4856 
Q 1566 4138 1362 3434 
Q 1159 2731 1159 2009 
Q 1159 1288 1364 580 
Q 1569 -128 1984 -844 
L 1484 -844 
Q 1016 -109 783 600 
Q 550 1309 550 2009 
Q 550 2706 781 3412 
Q 1013 4119 1484 4856 
L 1984 4856 
z
" transform="scale(0.015625)"/>
       <path id="DejaVuSans-6e" d="M 3513 2113 
L 3513 0 
L 2938 0 
L 2938 2094 
Q 2938 2591 2744 2837 
Q 2550 3084 2163 3084 
Q 1697 3084 1428 2787 
Q 1159 2491 1159 1978 
L 1159 0 
L 581 0 
L 581 3500 
L 1159 3500 
L 1159 2956 
Q 1366 3272 1645 3428 
Q 1925 3584 2291 3584 
Q 2894 3584 3203 3211 
Q 3513 2838 3513 2113 
z
" transform="scale(0.015625)"/>
       <path id="DejaVuSans-3d" d="M 678 2906 
L 4684 2906 
L 4684 2381 
L 678 2381 
L 678 2906 
z
M 678 1631 
L 4684 1631 
L 4684 1100 
L 678 1100 
L 678 1631 
z
" transform="scale(0.015625)"/>
       <path id="DejaVuSans-29" d="M 513 4856 
L 1013 4856 
Q 1481 4119 1714 3412 
Q 1947 2706 1947 2009 
Q 1947 1309 1714 600 
Q 1481 -109 1013 -844 
L 513 -844 
Q 928 -128 1133 580 
Q 1338 1288 1338 2009 
Q 1338 2731 1133 3434 
Q 928 4138 513 4856 
z
" transform="scale(0.015625)"/>
      </defs>
      <use xlink:href="#DejaVuSans-30"/>
      <use xlink:href="#DejaVuSans-20" transform="translate(63.623047 0)"/>
      <use xlink:href="#DejaVuSans-6d" transform="translate(95.410156 0)"/>
      <use xlink:href="#DejaVuSans-67" transform="translate(192.822266 0)"/>
      <use xlink:href="#DejaVuSans-20" transform="translate(256.298828 0)"/>
      <use xlink:href="#DejaVuSans-50" transform="translate(288.085938 0)"/>
      <use xlink:href="#DejaVuSans-4f" transform="translate(348.388672 0)"/>
      <use xlink:href="#DejaVuSans-20" transform="translate(427.099609 0)"/>
      <use xlink:href="#DejaVuSans-28" transform="translate(458.886719 0)"/>
      <use xlink:href="#DejaVuSans-6e" transform="translate(497.900391 0)"/>
      <use xlink:href="#DejaVuSans-3d" transform="translate(561.279297 0)"/>
      <use xlink:href="#DejaVuSans-35" transform="translate(645.068359 0)"/>
      <use xlink:href="#DejaVuSans-29" transform="translate(708.691406 0)"/>
     </g>
    </g>
    <g id="line2d_54">
     <path d="M 330.497187 203.079687 
L 350.497187 203.079687 
" style="fill: none; stroke-dasharray: 3.7,1.6; stroke-dashoffset: 0; stroke: #fb8c00"/>
    </g>
    <g id="line2d_55">
     <g>
      <use xlink:href="#m260f644b0d" x="340.497187" y="203.079687" style="fill: #fb8c00; stroke: #000000; stroke-linejoin: miter"/>
     </g>
    </g>
    <g id="text_28">
     <!-- 2.5 mg PO (n=5) -->
     <g transform="translate(358.497187 206.579687) scale(0.1 -0.1)">
      <use xlink:href="#DejaVuSans-32"/>
      <use xlink:href="#DejaVuSans-2e" transform="translate(63.623047 0)"/>
      <use xlink:href="#DejaVuSans-35" transform="translate(95.410156 0)"/>
      <use xlink:href="#DejaVuSans-20" transform="translate(159.033203 0)"/>
      <use xlink:href="#DejaVuSans-6d" transform="translate(190.820312 0)"/>
      <use xlink:href="#DejaVuSans-67" transform="translate(288.232422 0)"/>
      <use xlink:href="#DejaVuSans-20" transform="translate(351.708984 0)"/>
      <use xlink:href="#DejaVuSans-50" transform="translate(383.496094 0)"/>
      <use xlink:href="#DejaVuSans-4f" transform="translate(443.798828 0)"/>
      <use xlink:href="#DejaVuSans-20" transform="translate(522.509766 0)"/>
      <use xlink:href="#DejaVuSans-28" transform="translate(554.296875 0)"/>
      <use xlink:href="#DejaVuSans-6e" transform="translate(593.310547 0)"/>
      <use xlink:href="#DejaVuSans-3d" transform="translate(656.689453 0)"/>
      <use xlink:href="#DejaVuSans-35" transform="translate(740.478516 0)"/>
      <use xlink:href="#DejaVuSans-29" transform="translate(804.101562 0)"/>
     </g>
    </g>
    <g id="line2d_56">
     <path d="M 330.497187 217.757812 
L 350.497187 217.757812 
" style="fill: none; stroke-dasharray: 3.7,1.6; stroke-dashoffset: 0; stroke: #f57c00"/>
    </g>
    <g id="line2d_57">
     <g>
      <use xlink:href="#m3f6a6ec61b" x="340.497187" y="217.757812" style="fill: #f57c00; stroke: #000000; stroke-linejoin: miter"/>
     </g>
    </g>
    <g id="text_29">
     <!-- 5 mg PO (n=5) -->
     <g transform="translate(358.497187 221.257812) scale(0.1 -0.1)">
      <use xlink:href="#DejaVuSans-35"/>
      <use xlink:href="#DejaVuSans-20" transform="translate(63.623047 0)"/>
      <use xlink:href="#DejaVuSans-6d" transform="translate(95.410156 0)"/>
      <use xlink:href="#DejaVuSans-67" transform="translate(192.822266 0)"/>
      <use xlink:href="#DejaVuSans-20" transform="translate(256.298828 0)"/>
      <use xlink:href="#DejaVuSans-50" transform="translate(288.085938 0)"/>
      <use xlink:href="#DejaVuSans-4f" transform="translate(348.388672 0)"/>
      <use xlink:href="#DejaVuSans-20" transform="translate(427.099609 0)"/>
      <use xlink:href="#DejaVuSans-28" transform="translate(458.886719 0)"/>
      <use xlink:href="#DejaVuSans-6e" transform="translate(497.900391 0)"/>
      <use xlink:href="#DejaVuSans-3d" transform="translate(561.279297 0)"/>
      <use xlink:href="#DejaVuSans-35" transform="translate(645.068359 0)"/>
      <use xlink:href="#DejaVuSans-29" transform="translate(708.691406 0)"/>
     </g>
    </g>
    <g id="line2d_58">
     <path d="M 330.497187 232.435937 
L 350.497187 232.435937 
" style="fill: none; stroke-dasharray: 3.7,1.6; stroke-dashoffset: 0; stroke: #ef6c00"/>
    </g>
    <g id="line2d_59">
     <g>
      <use xlink:href="#maf05b15ffb" x="340.497187" y="232.435937" style="fill: #ef6c00; stroke: #000000; stroke-linejoin: miter"/>
     </g>
    </g>
    <g id="text_30">
     <!-- 10 mg PO (n=5) -->
     <g transform="translate(358.497187 235.935937) scale(0.1 -0.1)">
      <use xlink:href="#DejaVuSans-31"/>
      <use xlink:href="#DejaVuSans-30" transform="translate(63.623047 0)"/>
      <use xlink:href="#DejaVuSans-20" transform="translate(127.246094 0)"/>
      <use xlink:href="#DejaVuSans-6d" transform="translate(159.033203 0)"/>
      <use xlink:href="#DejaVuSans-67" transform="translate(256.445312 0)"/>
      <use xlink:href="#DejaVuSans-20" transform="translate(319.921875 0)"/>
      <use xlink:href="#DejaVuSans-50" transform="translate(351.708984 0)"/>
      <use xlink:href="#DejaVuSans-4f" transform="translate(412.011719 0)"/>
      <use xlink:href="#DejaVuSans-20" transform="translate(490.722656 0)"/>
      <use xlink:href="#DejaVuSans-28" transform="translate(522.509766 0)"/>
      <use xlink:href="#DejaVuSans-6e" transform="translate(561.523438 0)"/>
      <use xlink:href="#DejaVuSans-3d" transform="translate(624.902344 0)"/>
      <use xlink:href="#DejaVuSans-35" transform="translate(708.691406 0)"/>
      <use xlink:href="#DejaVuSans-29" transform="translate(772.314453 0)"/>
     </g>
    </g>
    <g id="line2d_60">
     <path d="M 330.497187 247.114062 
L 350.497187 247.114062 
" style="fill: none; stroke-dasharray: 3.7,1.6; stroke-dashoffset: 0; stroke: #e65100"/>
    </g>
    <g id="line2d_61">
     <g>
      <use xlink:href="#m4d074afdb9" x="340.497187" y="247.114062" style="fill: #e65100; stroke: #000000; stroke-linejoin: miter"/>
     </g>
    </g>
    <g id="text_31">
     <!-- 20 mg PO (n=5) -->
     <g transform="translate(358.497187 250.614062) scale(0.1 -0.1)">
      <use xlink:href="#DejaVuSans-32"/>
      <use xlink:href="#DejaVuSans-30" transform="translate(63.623047 0)"/>
      <use xlink:href="#DejaVuSans-20" transform="translate(127.246094 0)"/>
      <use xlink:href="#DejaVuSans-6d" transform="translate(159.033203 0)"/>
      <use xlink:href="#DejaVuSans-67" transform="translate(256.445312 0)"/>
      <use xlink:href="#DejaVuSans-20" transform="translate(319.921875 0)"/>
      <use xlink:href="#DejaVuSans-50" transform="translate(351.708984 0)"/>
      <use xlink:href="#DejaVuSans-4f" transform="translate(412.011719 0)"/>
      <use xlink:href="#DejaVuSans-20" transform="translate(490.722656 0)"/>
      <use xlink:href="#DejaVuSans-28" transform="translate(522.509766 0)"/>
      <use xlink:href="#DejaVuSans-6e" transform="translate(561.523438 0)"/>
      <use xlink:href="#DejaVuSans-3d" transform="translate(624.902344 0)"/>
      <use xlink:href="#DejaVuSans-35" transform="translate(708.691406 0)"/>
      <use xlink:href="#DejaVuSans-29" transform="translate(772.314453 0)"/>
     </g>
    </g>
    <g id="line2d_62">
     <path d="M 330.497187 261.792187 
L 350.497187 261.792187 
" style="fill: none; stroke-dasharray: 3.7,1.6; stroke-dashoffset: 0; stroke: #bf360c"/>
    </g>
    <g id="line2d_63">
     <g>
      <use xlink:href="#m1e5db703c3" x="340.497187" y="261.792187" style="fill: #bf360c; stroke: #000000; stroke-linejoin: miter"/>
     </g>
    </g>
    <g id="text_32">
     <!-- 50 mg PO (n=5) -->
     <g transform="translate(358.497187 265.292187) scale(0.1 -0.1)">
      <use xlink:href="#DejaVuSans-35"/>
      <use xlink:href="#DejaVuSans-30" transform="translate(63.623047 0)"/>
      <use xlink:href="#DejaVuSans-20" transform="translate(127.246094 0)"/>
      <use xlink:href="#DejaVuSans-6d" transform="translate(159.033203 0)"/>
      <use xlink:href="#DejaVuSans-67" transform="translate(256.445312 0)"/>
      <use xlink:href="#DejaVuSans-20" transform="translate(319.921875 0)"/>
      <use xlink:href="#DejaVuSans-50" transform="translate(351.708984 0)"/>
      <use xlink:href="#DejaVuSans-4f" transform="translate(412.011719 0)"/>
      <use xlink:href="#DejaVuSans-20" transform="translate(490.722656 0)"/>
      <use xlink:href="#DejaVuSans-28" transform="translate(522.509766 0)"/>
      <use xlink:href="#DejaVuSans-6e" transform="translate(561.523438 0)"/>
      <use xlink:href="#DejaVuSans-3d" transform="translate(624.902344 0)"/>
      <use xlink:href="#DejaVuSans-35" transform="translate(708.691406 0)"/>
      <use xlink:href="#DejaVuSans-29" transform="translate(772.314453 0)"/>
     </g>
    </g>
    <g id="line2d_64">
     <path d="M 330.497187 276.470312 
L 350.497187 276.470312 
" style="fill: none; stroke-dasharray: 3.7,1.6; stroke-dashoffset: 0; stroke: #a52a00"/>
    </g>
    <g id="line2d_65">
     <g>
      <use xlink:href="#m33742fcb36" x="340.497187" y="276.470312" style="fill: #a52a00; stroke: #000000; stroke-linejoin: miter"/>
     </g>
    </g>
    <g id="text_33">
     <!-- 100 mg PO (n=5) -->
     <g transform="translate(358.497187 279.970312) scale(0.1 -0.1)">
      <use xlink:href="#DejaVuSans-31"/>
      <use xlink:href="#DejaVuSans-30" transform="translate(63.623047 0)"/>
      <use xlink:href="#DejaVuSans-30" transform="translate(127.246094 0)"/>
      <use xlink:href="#DejaVuSans-20" transform="translate(190.869141 0)"/>
      <use xlink:href="#DejaVuSans-6d" transform="translate(222.65625 0)"/>
      <use xlink:href="#DejaVuSans-67" transform="translate(320.068359 0)"/>
      <use xlink:href="#DejaVuSans-20" transform="translate(383.544922 0)"/>
      <use xlink:href="#DejaVuSans-50" transform="translate(415.332031 0)"/>
      <use xlink:href="#DejaVuSans-4f" transform="translate(475.634766 0)"/>
      <use xlink:href="#DejaVuSans-20" transform="translate(554.345703 0)"/>
      <use xlink:href="#DejaVuSans-28" transform="translate(586.132812 0)"/>
      <use xlink:href="#DejaVuSans-6e" transform="translate(625.146484 0)"/>
      <use xlink:href="#DejaVuSans-3d" transform="translate(688.525391 0)"/>
      <use xlink:href="#DejaVuSans-35" transform="translate(772.314453 0)"/>
      <use xlink:href="#DejaVuSans-29" transform="translate(835.9375 0)"/>
     </g>
    </g>
    <g id="line2d_66">
     <path d="M 330.497187 291.148437 
L 350.497187 291.148437 
" style="fill: none; stroke-dasharray: 3.7,1.6; stroke-dashoffset: 0; stroke: #872200"/>
    </g>
    <g id="line2d_67">
     <g>
      <use xlink:href="#m09e42bb5eb" x="340.497187" y="291.148437" style="fill: #872200; stroke: #000000; stroke-linejoin: miter"/>
     </g>
    </g>
    <g id="text_34">
     <!-- 250 mg PO (n=5) -->
     <g transform="translate(358.497187 294.648437) scale(0.1 -0.1)">
      <use xlink:href="#DejaVuSans-32"/>
      <use xlink:href="#DejaVuSans-35" transform="translate(63.623047 0)"/>
      <use xlink:href="#DejaVuSans-30" transform="translate(127.246094 0)"/>
      <use xlink:href="#DejaVuSans-20" transform="translate(190.869141 0)"/>
      <use xlink:href="#DejaVuSans-6d" transform="translate(222.65625 0)"/>
      <use xlink:href="#DejaVuSans-67" transform="translate(320.068359 0)"/>
      <use xlink:href="#DejaVuSans-20" transform="translate(383.544922 0)"/>
      <use xlink:href="#DejaVuSans-50" transform="translate(415.332031 0)"/>
      <use xlink:href="#DejaVuSans-4f" transform="translate(475.634766 0)"/>
      <use xlink:href="#DejaVuSans-20" transform="translate(554.345703 0)"/>
      <use xlink:href="#DejaVuSans-28" transform="translate(586.132812 0)"/>
      <use xlink:href="#DejaVuSans-6e" transform="translate(625.146484 0)"/>
      <use xlink:href="#DejaVuSans-3d" transform="translate(688.525391 0)"/>
      <use xlink:href="#DejaVuSans-35" transform="translate(772.314453 0)"/>
      <use xlink:href="#DejaVuSans-29" transform="translate(835.9375 0)"/>
     </g>
    </g>
    <g id="line2d_68">
     <path d="M 330.497187 305.826562 
L 350.497187 305.826562 
" style="fill: none; stroke-dasharray: 3.7,1.6; stroke-dashoffset: 0; stroke: #5e1800"/>
    </g>
    <g id="line2d_69">
     <g>
      <use xlink:href="#mfe4170af56" x="340.497187" y="305.826562" style="fill: #5e1800; stroke: #000000; stroke-linejoin: miter"/>
     </g>
    </g>
    <g id="text_35">
     <!-- 500 mg PO (n=5) -->
     <g transform="translate(358.497187 309.326562) scale(0.1 -0.1)">
      <use xlink:href="#DejaVuSans-35"/>
      <use xlink:href="#DejaVuSans-30" transform="translate(63.623047 0)"/>
      <use xlink:href="#DejaVuSans-30" transform="translate(127.246094 0)"/>
      <use xlink:href="#DejaVuSans-20" transform="translate(190.869141 0)"/>
      <use xlink:href="#DejaVuSans-6d" transform="translate(222.65625 0)"/>
      <use xlink:href="#DejaVuSans-67" transform="translate(320.068359 0)"/>
      <use xlink:href="#DejaVuSans-20" transform="translate(383.544922 0)"/>
      <use xlink:href="#DejaVuSans-50" transform="translate(415.332031 0)"/>
      <use xlink:href="#DejaVuSans-4f" transform="translate(475.634766 0)"/>
      <use xlink:href="#DejaVuSans-20" transform="translate(554.345703 0)"/>
      <use xlink:href="#DejaVuSans-28" transform="translate(586.132812 0)"/>
      <use xlink:href="#DejaVuSans-6e" transform="translate(625.146484 0)"/>
      <use xlink:href="#DejaVuSans-3d" transform="translate(688.525391 0)"/>
      <use xlink:href="#DejaVuSans-35" transform="translate(772.314453 0)"/>
      <use xlink:href="#DejaVuSans-29" transform="translate(835.9375 0)"/>
     </g>
    </g>
   </g>
  </g>
  <g id="text_36">
   <!-- Komoroski2009 (Healthy) -->
   <g transform="translate(109.628438 22.396875) scale(0.2 -0.2)">
    <defs>
     <path id="DejaVuSans-Bold-4b" d="M 588 4666 
L 1791 4666 
L 1791 2963 
L 3525 4666 
L 4922 4666 
L 2675 2456 
L 5153 0 
L 3647 0 
L 1791 1838 
L 1791 0 
L 588 0 
L 588 4666 
z
" transform="scale(0.015625)"/>
     <path id="DejaVuSans-Bold-6f" d="M 2203 2784 
Q 1831 2784 1636 2517 
Q 1441 2250 1441 1747 
Q 1441 1244 1636 976 
Q 1831 709 2203 709 
Q 2569 709 2762 976 
Q 2956 1244 2956 1747 
Q 2956 2250 2762 2517 
Q 2569 2784 2203 2784 
z
M 2203 3584 
Q 3106 3584 3614 3096 
Q 4122 2609 4122 1747 
Q 4122 884 3614 396 
Q 3106 -91 2203 -91 
Q 1297 -91 786 396 
Q 275 884 275 1747 
Q 275 2609 786 3096 
Q 1297 3584 2203 3584 
z
" transform="scale(0.015625)"/>
     <path id="DejaVuSans-Bold-73" d="M 3272 3391 
L 3272 2541 
Q 2913 2691 2578 2766 
Q 2244 2841 1947 2841 
Q 1628 2841 1473 2761 
Q 1319 2681 1319 2516 
Q 1319 2381 1436 2309 
Q 1553 2238 1856 2203 
L 2053 2175 
Q 2913 2066 3209 1816 
Q 3506 1566 3506 1031 
Q 3506 472 3093 190 
Q 2681 -91 1863 -91 
Q 1516 -91 1145 -36 
Q 775 19 384 128 
L 384 978 
Q 719 816 1070 734 
Q 1422 653 1784 653 
Q 2113 653 2278 743 
Q 2444 834 2444 1013 
Q 2444 1163 2330 1236 
Q 2216 1309 1875 1350 
L 1678 1375 
Q 931 1469 631 1722 
Q 331 1975 331 2491 
Q 331 3047 712 3315 
Q 1094 3584 1881 3584 
Q 2191 3584 2531 3537 
Q 2872 3491 3272 3391 
z
" transform="scale(0.015625)"/>
     <path id="DejaVuSans-Bold-6b" d="M 538 4863 
L 1656 4863 
L 1656 2216 
L 2944 3500 
L 4244 3500 
L 2534 1894 
L 4378 0 
L 3022 0 
L 1656 1459 
L 1656 0 
L 538 0 
L 538 4863 
z
" transform="scale(0.015625)"/>
     <path id="DejaVuSans-Bold-32" d="M 1844 884 
L 3897 884 
L 3897 0 
L 506 0 
L 506 884 
L 2209 2388 
Q 2438 2594 2547 2791 
Q 2656 2988 2656 3200 
Q 2656 3528 2436 3728 
Q 2216 3928 1850 3928 
Q 1569 3928 1234 3808 
Q 900 3688 519 3450 
L 519 4475 
Q 925 4609 1322 4679 
Q 1719 4750 2100 4750 
Q 2938 4750 3402 4381 
Q 3866 4013 3866 3353 
Q 3866 2972 3669 2642 
Q 3472 2313 2841 1759 
L 1844 884 
z
" transform="scale(0.015625)"/>
     <path id="DejaVuSans-Bold-30" d="M 2944 2338 
Q 2944 3213 2780 3570 
Q 2616 3928 2228 3928 
Q 1841 3928 1675 3570 
Q 1509 3213 1509 2338 
Q 1509 1453 1675 1090 
Q 1841 728 2228 728 
Q 2613 728 2778 1090 
Q 2944 1453 2944 2338 
z
M 4147 2328 
Q 4147 1169 3647 539 
Q 3147 -91 2228 -91 
Q 1306 -91 806 539 
Q 306 1169 306 2328 
Q 306 3491 806 4120 
Q 1306 4750 2228 4750 
Q 3147 4750 3647 4120 
Q 4147 3491 4147 2328 
z
" transform="scale(0.015625)"/>
     <path id="DejaVuSans-Bold-39" d="M 641 103 
L 641 966 
Q 928 831 1190 764 
Q 1453 697 1709 697 
Q 2247 697 2547 995 
Q 2847 1294 2900 1881 
Q 2688 1725 2447 1647 
Q 2206 1569 1925 1569 
Q 1209 1569 770 1986 
Q 331 2403 331 3084 
Q 331 3838 820 4291 
Q 1309 4744 2131 4744 
Q 3044 4744 3544 4128 
Q 4044 3513 4044 2388 
Q 4044 1231 3459 570 
Q 2875 -91 1856 -91 
Q 1528 -91 1228 -42 
Q 928 6 641 103 
z
M 2125 2350 
Q 2441 2350 2600 2554 
Q 2759 2759 2759 3169 
Q 2759 3575 2600 3781 
Q 2441 3988 2125 3988 
Q 1809 3988 1650 3781 
Q 1491 3575 1491 3169 
Q 1491 2759 1650 2554 
Q 1809 2350 2125 2350 
z
" transform="scale(0.015625)"/>
     <path id="DejaVuSans-Bold-28" d="M 2413 -844 
L 1484 -844 
Q 1006 -72 778 623 
Q 550 1319 550 2003 
Q 550 2688 779 3389 
Q 1009 4091 1484 4856 
L 2413 4856 
Q 2013 4116 1813 3408 
Q 1613 2700 1613 2009 
Q 1613 1319 1811 609 
Q 2009 -100 2413 -844 
z
" transform="scale(0.015625)"/>
     <path id="DejaVuSans-Bold-48" d="M 588 4666 
L 1791 4666 
L 1791 2888 
L 3566 2888 
L 3566 4666 
L 4769 4666 
L 4769 0 
L 3566 0 
L 3566 1978 
L 1791 1978 
L 1791 0 
L 588 0 
L 588 4666 
z
" transform="scale(0.015625)"/>
     <path id="DejaVuSans-Bold-61" d="M 2106 1575 
Q 1756 1575 1579 1456 
Q 1403 1338 1403 1106 
Q 1403 894 1545 773 
Q 1688 653 1941 653 
Q 2256 653 2472 879 
Q 2688 1106 2688 1447 
L 2688 1575 
L 2106 1575 
z
M 3816 1997 
L 3816 0 
L 2688 0 
L 2688 519 
Q 2463 200 2181 54 
Q 1900 -91 1497 -91 
Q 953 -91 614 226 
Q 275 544 275 1050 
Q 275 1666 698 1953 
Q 1122 2241 2028 2241 
L 2688 2241 
L 2688 2328 
Q 2688 2594 2478 2717 
Q 2269 2841 1825 2841 
Q 1466 2841 1156 2769 
Q 847 2697 581 2553 
L 581 3406 
Q 941 3494 1303 3539 
Q 1666 3584 2028 3584 
Q 2975 3584 3395 3211 
Q 3816 2838 3816 1997 
z
" transform="scale(0.015625)"/>
     <path id="DejaVuSans-Bold-6c" d="M 538 4863 
L 1656 4863 
L 1656 0 
L 538 0 
L 538 4863 
z
" transform="scale(0.015625)"/>
     <path id="DejaVuSans-Bold-79" d="M 78 3500 
L 1197 3500 
L 2138 1125 
L 2938 3500 
L 4056 3500 
L 2584 -331 
Q 2363 -916 2067 -1148 
Q 1772 -1381 1288 -1381 
L 641 -1381 
L 641 -647 
L 991 -647 
Q 1275 -647 1404 -556 
Q 1534 -466 1606 -231 
L 1638 -134 
L 78 3500 
z
" transform="scale(0.015625)"/>
     <path id="DejaVuSans-Bold-29" d="M 513 -844 
Q 913 -100 1113 609 
Q 1313 1319 1313 2009 
Q 1313 2700 1113 3408 
Q 913 4116 513 4856 
L 1441 4856 
Q 1916 4091 2145 3389 
Q 2375 2688 2375 2003 
Q 2375 1319 2147 623 
Q 1919 -72 1441 -844 
L 513 -844 
z
" transform="scale(0.015625)"/>
    </defs>
    <use xlink:href="#DejaVuSans-Bold-4b"/>
    <use xlink:href="#DejaVuSans-Bold-6f" transform="translate(75.740234 0)"/>
    <use xlink:href="#DejaVuSans-Bold-6d" transform="translate(144.441406 0)"/>
    <use xlink:href="#DejaVuSans-Bold-6f" transform="translate(248.640625 0)"/>
    <use xlink:href="#DejaVuSans-Bold-72" transform="translate(317.341797 0)"/>
    <use xlink:href="#DejaVuSans-Bold-6f" transform="translate(366.658203 0)"/>
    <use xlink:href="#DejaVuSans-Bold-73" transform="translate(435.359375 0)"/>
    <use xlink:href="#DejaVuSans-Bold-6b" transform="translate(494.880859 0)"/>
    <use xlink:href="#DejaVuSans-Bold-69" transform="translate(561.384766 0)"/>
    <use xlink:href="#DejaVuSans-Bold-32" transform="translate(595.662109 0)"/>
    <use xlink:href="#DejaVuSans-Bold-30" transform="translate(665.242188 0)"/>
    <use xlink:href="#DejaVuSans-Bold-30" transform="translate(734.822266 0)"/>
    <use xlink:href="#DejaVuSans-Bold-39" transform="translate(804.402344 0)"/>
    <use xlink:href="#DejaVuSans-Bold-20" transform="translate(873.982422 0)"/>
    <use xlink:href="#DejaVuSans-Bold-28" transform="translate(908.796875 0)"/>
    <use xlink:href="#DejaVuSans-Bold-48" transform="translate(954.5 0)"/>
    <use xlink:href="#DejaVuSans-Bold-65" transform="translate(1038.191406 0)"/>
    <use xlink:href="#DejaVuSans-Bold-61" transform="translate(1106.013672 0)"/>
    <use xlink:href="#DejaVuSans-Bold-6c" transform="translate(1173.494141 0)"/>
    <use xlink:href="#DejaVuSans-Bold-74" transform="translate(1207.771484 0)"/>
    <use xlink:href="#DejaVuSans-Bold-68" transform="translate(1255.574219 0)"/>
    <use xlink:href="#DejaVuSans-Bold-79" transform="translate(1326.765625 0)"/>
    <use xlink:href="#DejaVuSans-Bold-29" transform="translate(1391.951172 0)"/>
   </g>
  </g>
 </g>
 <defs>
  <clipPath id="p43a7f609c2">
   <rect x="64.3925" y="43.2" width="390.6" height="277.2"/>
  </clipPath>
 </defs>
</svg>
