<?xml version="1.0" encoding="utf-8" standalone="no"?>
<!DOCTYPE svg PUBLIC "-//W3C//DTD SVG 1.1//EN"
  "http://www.w3.org/Graphics/SVG/1.1/DTD/svg11.dtd">
<svg xmlns:xlink="http://www.w3.org/1999/xlink" width="462.1925pt" height="370.537812pt" viewBox="0 0 462.1925 370.537812" xmlns="http://www.w3.org/2000/svg" version="1.1">
 <metadata>
  <rdf:RDF xmlns:dc="http://purl.org/dc/elements/1.1/" xmlns:cc="http://creativecommons.org/ns#" xmlns:rdf="http://www.w3.org/1999/02/22-rdf-syntax-ns#">
   <cc:Work>
    <dc:type rdf:resource="http://purl.org/dc/dcmitype/StillImage"/>
    <dc:date>2025-06-10T17:07:53.835350</dc:date>
    <dc:format>image/svg+xml</dc:format>
    <dc:creator>
     <cc:Agent>
      <dc:title>Matplotlib v3.9.1, https://matplotlib.org/</dc:title>
     </cc:Agent>
    </dc:creator>
   </cc:Work>
  </rdf:RDF>
 </metadata>
 <defs>
  <style type="text/css">*{stroke-linejoin: round; stroke-linecap: butt}</style>
 </defs>
 <g id="figure_1">
  <g id="patch_1">
   <path d="M 0 370.537812 
L 462.1925 370.537812 
L 462.1925 0 
L 0 0 
z
" style="fill: #ffffff"/>
  </g>
  <g id="axes_1">
   <g id="patch_2">
    <path d="M 64.3925 320.4 
L 454.9925 320.4 
L 454.9925 43.2 
L 64.3925 43.2 
z
" style="fill: #ffffff"/>
   </g>
   <g id="matplotlib.axis_1">
    <g id="xtick_1">
     <g id="line2d_1">
      <defs>
       <path id="mc687fe4388" d="M 0 0 
L 0 3.5 
" style="stroke: #000000; stroke-width: 0.8"/>
      </defs>
      <g>
       <use xlink:href="#mc687fe4388" x="82.147045" y="320.4" style="stroke: #000000; stroke-width: 0.8"/>
      </g>
     </g>
     <g id="text_1">
      <!-- 0 -->
      <g transform="translate(77.37517 338.797656) scale(0.15 -0.15)">
       <defs>
        <path id="DejaVuSans-30" d="M 2034 4250 
Q 1547 4250 1301 3770 
Q 1056 3291 1056 2328 
Q 1056 1369 1301 889 
Q 1547 409 2034 409 
Q 2525 409 2770 889 
Q 3016 1369 3016 2328 
Q 3016 3291 2770 3770 
Q 2525 4250 2034 4250 
z
M 2034 4750 
Q 2819 4750 3233 4129 
Q 3647 3509 3647 2328 
Q 3647 1150 3233 529 
Q 2819 -91 2034 -91 
Q 1250 -91 836 529 
Q 422 1150 422 2328 
Q 422 3509 836 4129 
Q 1250 4750 2034 4750 
z
" transform="scale(0.015625)"/>
       </defs>
       <use xlink:href="#DejaVuSans-30"/>
      </g>
     </g>
    </g>
    <g id="xtick_2">
     <g id="line2d_2">
      <g>
       <use xlink:href="#mc687fe4388" x="138.961591" y="320.4" style="stroke: #000000; stroke-width: 0.8"/>
      </g>
     </g>
     <g id="text_2">
      <!-- 20 -->
      <g transform="translate(129.417841 338.797656) scale(0.15 -0.15)">
       <defs>
        <path id="DejaVuSans-32" d="M 1228 531 
L 3431 531 
L 3431 0 
L 469 0 
L 469 531 
Q 828 903 1448 1529 
Q 2069 2156 2228 2338 
Q 2531 2678 2651 2914 
Q 2772 3150 2772 3378 
Q 2772 3750 2511 3984 
Q 2250 4219 1831 4219 
Q 1534 4219 1204 4116 
Q 875 4013 500 3803 
L 500 4441 
Q 881 4594 1212 4672 
Q 1544 4750 1819 4750 
Q 2544 4750 2975 4387 
Q 3406 4025 3406 3419 
Q 3406 3131 3298 2873 
Q 3191 2616 2906 2266 
Q 2828 2175 2409 1742 
Q 1991 1309 1228 531 
z
" transform="scale(0.015625)"/>
       </defs>
       <use xlink:href="#DejaVuSans-32"/>
       <use xlink:href="#DejaVuSans-30" x="63.623047"/>
      </g>
     </g>
    </g>
    <g id="xtick_3">
     <g id="line2d_3">
      <g>
       <use xlink:href="#mc687fe4388" x="195.776136" y="320.4" style="stroke: #000000; stroke-width: 0.8"/>
      </g>
     </g>
     <g id="text_3">
      <!-- 40 -->
      <g transform="translate(186.232386 338.797656) scale(0.15 -0.15)">
       <defs>
        <path id="DejaVuSans-34" d="M 2419 4116 
L 825 1625 
L 2419 1625 
L 2419 4116 
z
M 2253 4666 
L 3047 4666 
L 3047 1625 
L 3713 1625 
L 3713 1100 
L 3047 1100 
L 3047 0 
L 2419 0 
L 2419 1100 
L 313 1100 
L 313 1709 
L 2253 4666 
z
" transform="scale(0.015625)"/>
       </defs>
       <use xlink:href="#DejaVuSans-34"/>
       <use xlink:href="#DejaVuSans-30" x="63.623047"/>
      </g>
     </g>
    </g>
    <g id="xtick_4">
     <g id="line2d_4">
      <g>
       <use xlink:href="#mc687fe4388" x="252.590682" y="320.4" style="stroke: #000000; stroke-width: 0.8"/>
      </g>
     </g>
     <g id="text_4">
      <!-- 60 -->
      <g transform="translate(243.046932 338.797656) scale(0.15 -0.15)">
       <defs>
        <path id="DejaVuSans-36" d="M 2113 2584 
Q 1688 2584 1439 2293 
Q 1191 2003 1191 1497 
Q 1191 994 1439 701 
Q 1688 409 2113 409 
Q 2538 409 2786 701 
Q 3034 994 3034 1497 
Q 3034 2003 2786 2293 
Q 2538 2584 2113 2584 
z
M 3366 4563 
L 3366 3988 
Q 3128 4100 2886 4159 
Q 2644 4219 2406 4219 
Q 1781 4219 1451 3797 
Q 1122 3375 1075 2522 
Q 1259 2794 1537 2939 
Q 1816 3084 2150 3084 
Q 2853 3084 3261 2657 
Q 3669 2231 3669 1497 
Q 3669 778 3244 343 
Q 2819 -91 2113 -91 
Q 1303 -91 875 529 
Q 447 1150 447 2328 
Q 447 3434 972 4092 
Q 1497 4750 2381 4750 
Q 2619 4750 2861 4703 
Q 3103 4656 3366 4563 
z
" transform="scale(0.015625)"/>
       </defs>
       <use xlink:href="#DejaVuSans-36"/>
       <use xlink:href="#DejaVuSans-30" x="63.623047"/>
      </g>
     </g>
    </g>
    <g id="xtick_5">
     <g id="line2d_5">
      <g>
       <use xlink:href="#mc687fe4388" x="309.405227" y="320.4" style="stroke: #000000; stroke-width: 0.8"/>
      </g>
     </g>
     <g id="text_5">
      <!-- 80 -->
      <g transform="translate(299.861477 338.797656) scale(0.15 -0.15)">
       <defs>
        <path id="DejaVuSans-38" d="M 2034 2216 
Q 1584 2216 1326 1975 
Q 1069 1734 1069 1313 
Q 1069 891 1326 650 
Q 1584 409 2034 409 
Q 2484 409 2743 651 
Q 3003 894 3003 1313 
Q 3003 1734 2745 1975 
Q 2488 2216 2034 2216 
z
M 1403 2484 
Q 997 2584 770 2862 
Q 544 3141 544 3541 
Q 544 4100 942 4425 
Q 1341 4750 2034 4750 
Q 2731 4750 3128 4425 
Q 3525 4100 3525 3541 
Q 3525 3141 3298 2862 
Q 3072 2584 2669 2484 
Q 3125 2378 3379 2068 
Q 3634 1759 3634 1313 
Q 3634 634 3220 271 
Q 2806 -91 2034 -91 
Q 1263 -91 848 271 
Q 434 634 434 1313 
Q 434 1759 690 2068 
Q 947 2378 1403 2484 
z
M 1172 3481 
Q 1172 3119 1398 2916 
Q 1625 2713 2034 2713 
Q 2441 2713 2670 2916 
Q 2900 3119 2900 3481 
Q 2900 3844 2670 4047 
Q 2441 4250 2034 4250 
Q 1625 4250 1398 4047 
Q 1172 3844 1172 3481 
z
" transform="scale(0.015625)"/>
       </defs>
       <use xlink:href="#DejaVuSans-38"/>
       <use xlink:href="#DejaVuSans-30" x="63.623047"/>
      </g>
     </g>
    </g>
    <g id="xtick_6">
     <g id="line2d_6">
      <g>
       <use xlink:href="#mc687fe4388" x="366.219773" y="320.4" style="stroke: #000000; stroke-width: 0.8"/>
      </g>
     </g>
     <g id="text_6">
      <!-- 100 -->
      <g transform="translate(351.904148 338.797656) scale(0.15 -0.15)">
       <defs>
        <path id="DejaVuSans-31" d="M 794 531 
L 1825 531 
L 1825 4091 
L 703 3866 
L 703 4441 
L 1819 4666 
L 2450 4666 
L 2450 531 
L 3481 531 
L 3481 0 
L 794 0 
L 794 531 
z
" transform="scale(0.015625)"/>
       </defs>
       <use xlink:href="#DejaVuSans-31"/>
       <use xlink:href="#DejaVuSans-30" x="63.623047"/>
       <use xlink:href="#DejaVuSans-30" x="127.246094"/>
      </g>
     </g>
    </g>
    <g id="xtick_7">
     <g id="line2d_7">
      <g>
       <use xlink:href="#mc687fe4388" x="423.034318" y="320.4" style="stroke: #000000; stroke-width: 0.8"/>
      </g>
     </g>
     <g id="text_7">
      <!-- 120 -->
      <g transform="translate(408.718693 338.797656) scale(0.15 -0.15)">
       <use xlink:href="#DejaVuSans-31"/>
       <use xlink:href="#DejaVuSans-32" x="63.623047"/>
       <use xlink:href="#DejaVuSans-30" x="127.246094"/>
      </g>
     </g>
    </g>
    <g id="text_8">
     <!-- time [hr] -->
     <g transform="translate(214.617969 359.594375) scale(0.18 -0.18)">
      <defs>
       <path id="DejaVuSans-Bold-74" d="M 1759 4494 
L 1759 3500 
L 2913 3500 
L 2913 2700 
L 1759 2700 
L 1759 1216 
Q 1759 972 1856 886 
Q 1953 800 2241 800 
L 2816 800 
L 2816 0 
L 1856 0 
Q 1194 0 917 276 
Q 641 553 641 1216 
L 641 2700 
L 84 2700 
L 84 3500 
L 641 3500 
L 641 4494 
L 1759 4494 
z
" transform="scale(0.015625)"/>
       <path id="DejaVuSans-Bold-69" d="M 538 3500 
L 1656 3500 
L 1656 0 
L 538 0 
L 538 3500 
z
M 538 4863 
L 1656 4863 
L 1656 3950 
L 538 3950 
L 538 4863 
z
" transform="scale(0.015625)"/>
       <path id="DejaVuSans-Bold-6d" d="M 3781 2919 
Q 3994 3244 4286 3414 
Q 4578 3584 4928 3584 
Q 5531 3584 5847 3212 
Q 6163 2841 6163 2131 
L 6163 0 
L 5038 0 
L 5038 1825 
Q 5041 1866 5042 1909 
Q 5044 1953 5044 2034 
Q 5044 2406 4934 2573 
Q 4825 2741 4581 2741 
Q 4263 2741 4089 2478 
Q 3916 2216 3909 1719 
L 3909 0 
L 2784 0 
L 2784 1825 
Q 2784 2406 2684 2573 
Q 2584 2741 2328 2741 
Q 2006 2741 1831 2477 
Q 1656 2213 1656 1722 
L 1656 0 
L 531 0 
L 531 3500 
L 1656 3500 
L 1656 2988 
Q 1863 3284 2130 3434 
Q 2397 3584 2719 3584 
Q 3081 3584 3359 3409 
Q 3638 3234 3781 2919 
z
" transform="scale(0.015625)"/>
       <path id="DejaVuSans-Bold-65" d="M 4031 1759 
L 4031 1441 
L 1416 1441 
Q 1456 1047 1700 850 
Q 1944 653 2381 653 
Q 2734 653 3104 758 
Q 3475 863 3866 1075 
L 3866 213 
Q 3469 63 3072 -14 
Q 2675 -91 2278 -91 
Q 1328 -91 801 392 
Q 275 875 275 1747 
Q 275 2603 792 3093 
Q 1309 3584 2216 3584 
Q 3041 3584 3536 3087 
Q 4031 2591 4031 1759 
z
M 2881 2131 
Q 2881 2450 2695 2645 
Q 2509 2841 2209 2841 
Q 1884 2841 1681 2658 
Q 1478 2475 1428 2131 
L 2881 2131 
z
" transform="scale(0.015625)"/>
       <path id="DejaVuSans-Bold-20" transform="scale(0.015625)"/>
       <path id="DejaVuSans-Bold-5b" d="M 550 4863 
L 2491 4863 
L 2491 4159 
L 1613 4159 
L 1613 -141 
L 2491 -141 
L 2491 -844 
L 550 -844 
L 550 4863 
z
" transform="scale(0.015625)"/>
       <path id="DejaVuSans-Bold-68" d="M 4056 2131 
L 4056 0 
L 2931 0 
L 2931 347 
L 2931 1625 
Q 2931 2084 2911 2256 
Q 2891 2428 2841 2509 
Q 2775 2619 2662 2680 
Q 2550 2741 2406 2741 
Q 2056 2741 1856 2470 
Q 1656 2200 1656 1722 
L 1656 0 
L 538 0 
L 538 4863 
L 1656 4863 
L 1656 2988 
Q 1909 3294 2193 3439 
Q 2478 3584 2822 3584 
Q 3428 3584 3742 3212 
Q 4056 2841 4056 2131 
z
" transform="scale(0.015625)"/>
       <path id="DejaVuSans-Bold-72" d="M 3138 2547 
Q 2991 2616 2845 2648 
Q 2700 2681 2553 2681 
Q 2122 2681 1889 2404 
Q 1656 2128 1656 1613 
L 1656 0 
L 538 0 
L 538 3500 
L 1656 3500 
L 1656 2925 
Q 1872 3269 2151 3426 
Q 2431 3584 2822 3584 
Q 2878 3584 2943 3579 
Q 3009 3575 3134 3559 
L 3138 2547 
z
" transform="scale(0.015625)"/>
       <path id="DejaVuSans-Bold-5d" d="M 2375 -844 
L 434 -844 
L 434 -141 
L 1313 -141 
L 1313 4159 
L 434 4159 
L 434 4863 
L 2375 4863 
L 2375 -844 
z
" transform="scale(0.015625)"/>
      </defs>
      <use xlink:href="#DejaVuSans-Bold-74"/>
      <use xlink:href="#DejaVuSans-Bold-69" x="47.802734"/>
      <use xlink:href="#DejaVuSans-Bold-6d" x="82.080078"/>
      <use xlink:href="#DejaVuSans-Bold-65" x="186.279297"/>
      <use xlink:href="#DejaVuSans-Bold-20" x="254.101562"/>
      <use xlink:href="#DejaVuSans-Bold-5b" x="288.916016"/>
      <use xlink:href="#DejaVuSans-Bold-68" x="334.619141"/>
      <use xlink:href="#DejaVuSans-Bold-72" x="405.810547"/>
      <use xlink:href="#DejaVuSans-Bold-5d" x="455.126953"/>
     </g>
    </g>
   </g>
   <g id="matplotlib.axis_2">
    <g id="ytick_1">
     <g id="line2d_8">
      <defs>
       <path id="me700d681ca" d="M 0 0 
L -3.5 0 
" style="stroke: #000000; stroke-width: 0.8"/>
      </defs>
      <g>
       <use xlink:href="#me700d681ca" x="64.3925" y="307.8" style="stroke: #000000; stroke-width: 0.8"/>
      </g>
     </g>
     <g id="text_9">
      <!-- 0 -->
      <g transform="translate(47.84875 313.498828) scale(0.15 -0.15)">
       <use xlink:href="#DejaVuSans-30"/>
      </g>
     </g>
    </g>
    <g id="ytick_2">
     <g id="line2d_9">
      <g>
       <use xlink:href="#me700d681ca" x="64.3925" y="266.946934" style="stroke: #000000; stroke-width: 0.8"/>
      </g>
     </g>
     <g id="text_10">
      <!-- 50 -->
      <g transform="translate(38.305 272.645762) scale(0.15 -0.15)">
       <defs>
        <path id="DejaVuSans-35" d="M 691 4666 
L 3169 4666 
L 3169 4134 
L 1269 4134 
L 1269 2991 
Q 1406 3038 1543 3061 
Q 1681 3084 1819 3084 
Q 2600 3084 3056 2656 
Q 3513 2228 3513 1497 
Q 3513 744 3044 326 
Q 2575 -91 1722 -91 
Q 1428 -91 1123 -41 
Q 819 9 494 109 
L 494 744 
Q 775 591 1075 516 
Q 1375 441 1709 441 
Q 2250 441 2565 725 
Q 2881 1009 2881 1497 
Q 2881 1984 2565 2268 
Q 2250 2553 1709 2553 
Q 1456 2553 1204 2497 
Q 953 2441 691 2322 
L 691 4666 
z
" transform="scale(0.015625)"/>
       </defs>
       <use xlink:href="#DejaVuSans-35"/>
       <use xlink:href="#DejaVuSans-30" x="63.623047"/>
      </g>
     </g>
    </g>
    <g id="ytick_3">
     <g id="line2d_10">
      <g>
       <use xlink:href="#me700d681ca" x="64.3925" y="226.093868" style="stroke: #000000; stroke-width: 0.8"/>
      </g>
     </g>
     <g id="text_11">
      <!-- 100 -->
      <g transform="translate(28.76125 231.792696) scale(0.15 -0.15)">
       <use xlink:href="#DejaVuSans-31"/>
       <use xlink:href="#DejaVuSans-30" x="63.623047"/>
       <use xlink:href="#DejaVuSans-30" x="127.246094"/>
      </g>
     </g>
    </g>
    <g id="ytick_4">
     <g id="line2d_11">
      <g>
       <use xlink:href="#me700d681ca" x="64.3925" y="185.240802" style="stroke: #000000; stroke-width: 0.8"/>
      </g>
     </g>
     <g id="text_12">
      <!-- 150 -->
      <g transform="translate(28.76125 190.93963) scale(0.15 -0.15)">
       <use xlink:href="#DejaVuSans-31"/>
       <use xlink:href="#DejaVuSans-35" x="63.623047"/>
       <use xlink:href="#DejaVuSans-30" x="127.246094"/>
      </g>
     </g>
    </g>
    <g id="ytick_5">
     <g id="line2d_12">
      <g>
       <use xlink:href="#me700d681ca" x="64.3925" y="144.387736" style="stroke: #000000; stroke-width: 0.8"/>
      </g>
     </g>
     <g id="text_13">
      <!-- 200 -->
      <g transform="translate(28.76125 150.086564) scale(0.15 -0.15)">
       <use xlink:href="#DejaVuSans-32"/>
       <use xlink:href="#DejaVuSans-30" x="63.623047"/>
       <use xlink:href="#DejaVuSans-30" x="127.246094"/>
      </g>
     </g>
    </g>
    <g id="ytick_6">
     <g id="line2d_13">
      <g>
       <use xlink:href="#me700d681ca" x="64.3925" y="103.53467" style="stroke: #000000; stroke-width: 0.8"/>
      </g>
     </g>
     <g id="text_14">
      <!-- 250 -->
      <g transform="translate(28.76125 109.233498) scale(0.15 -0.15)">
       <use xlink:href="#DejaVuSans-32"/>
       <use xlink:href="#DejaVuSans-35" x="63.623047"/>
       <use xlink:href="#DejaVuSans-30" x="127.246094"/>
      </g>
     </g>
    </g>
    <g id="ytick_7">
     <g id="line2d_14">
      <g>
       <use xlink:href="#me700d681ca" x="64.3925" y="62.681603" style="stroke: #000000; stroke-width: 0.8"/>
      </g>
     </g>
     <g id="text_15">
      <!-- 300 -->
      <g transform="translate(28.76125 68.380432) scale(0.15 -0.15)">
       <defs>
        <path id="DejaVuSans-33" d="M 2597 2516 
Q 3050 2419 3304 2112 
Q 3559 1806 3559 1356 
Q 3559 666 3084 287 
Q 2609 -91 1734 -91 
Q 1441 -91 1130 -33 
Q 819 25 488 141 
L 488 750 
Q 750 597 1062 519 
Q 1375 441 1716 441 
Q 2309 441 2620 675 
Q 2931 909 2931 1356 
Q 2931 1769 2642 2001 
Q 2353 2234 1838 2234 
L 1294 2234 
L 1294 2753 
L 1863 2753 
Q 2328 2753 2575 2939 
Q 2822 3125 2822 3475 
Q 2822 3834 2567 4026 
Q 2313 4219 1838 4219 
Q 1578 4219 1281 4162 
Q 984 4106 628 3988 
L 628 4550 
Q 988 4650 1302 4700 
Q 1616 4750 1894 4750 
Q 2613 4750 3031 4423 
Q 3450 4097 3450 3541 
Q 3450 3153 3228 2886 
Q 3006 2619 2597 2516 
z
" transform="scale(0.015625)"/>
       </defs>
       <use xlink:href="#DejaVuSans-33"/>
       <use xlink:href="#DejaVuSans-30" x="63.623047"/>
       <use xlink:href="#DejaVuSans-30" x="127.246094"/>
      </g>
     </g>
    </g>
    <g id="text_16">
     <!-- UGE [g] -->
     <g transform="translate(20.877187 220.445156) rotate(-90) scale(0.18 -0.18)">
      <defs>
       <path id="DejaVuSans-Bold-55" d="M 588 4666 
L 1791 4666 
L 1791 1869 
Q 1791 1291 1980 1042 
Q 2169 794 2597 794 
Q 3028 794 3217 1042 
Q 3406 1291 3406 1869 
L 3406 4666 
L 4609 4666 
L 4609 1869 
Q 4609 878 4112 393 
Q 3616 -91 2597 -91 
Q 1581 -91 1084 393 
Q 588 878 588 1869 
L 588 4666 
z
" transform="scale(0.015625)"/>
       <path id="DejaVuSans-Bold-47" d="M 4781 347 
Q 4331 128 3847 18 
Q 3363 -91 2847 -91 
Q 1681 -91 1000 561 
Q 319 1213 319 2328 
Q 319 3456 1012 4103 
Q 1706 4750 2913 4750 
Q 3378 4750 3804 4662 
Q 4231 4575 4609 4403 
L 4609 3438 
Q 4219 3659 3833 3768 
Q 3447 3878 3059 3878 
Q 2341 3878 1952 3476 
Q 1563 3075 1563 2328 
Q 1563 1588 1938 1184 
Q 2313 781 3003 781 
Q 3191 781 3352 804 
Q 3513 828 3641 878 
L 3641 1784 
L 2906 1784 
L 2906 2591 
L 4781 2591 
L 4781 347 
z
" transform="scale(0.015625)"/>
       <path id="DejaVuSans-Bold-45" d="M 588 4666 
L 3834 4666 
L 3834 3756 
L 1791 3756 
L 1791 2888 
L 3713 2888 
L 3713 1978 
L 1791 1978 
L 1791 909 
L 3903 909 
L 3903 0 
L 588 0 
L 588 4666 
z
" transform="scale(0.015625)"/>
       <path id="DejaVuSans-Bold-67" d="M 2919 594 
Q 2688 288 2409 144 
Q 2131 0 1766 0 
Q 1125 0 706 504 
Q 288 1009 288 1791 
Q 288 2575 706 3076 
Q 1125 3578 1766 3578 
Q 2131 3578 2409 3434 
Q 2688 3291 2919 2981 
L 2919 3500 
L 4044 3500 
L 4044 353 
Q 4044 -491 3511 -936 
Q 2978 -1381 1966 -1381 
Q 1638 -1381 1331 -1331 
Q 1025 -1281 716 -1178 
L 716 -306 
Q 1009 -475 1290 -558 
Q 1572 -641 1856 -641 
Q 2406 -641 2662 -400 
Q 2919 -159 2919 353 
L 2919 594 
z
M 2181 2772 
Q 1834 2772 1640 2515 
Q 1447 2259 1447 1791 
Q 1447 1309 1634 1061 
Q 1822 813 2181 813 
Q 2531 813 2725 1069 
Q 2919 1325 2919 1791 
Q 2919 2259 2725 2515 
Q 2531 2772 2181 2772 
z
" transform="scale(0.015625)"/>
      </defs>
      <use xlink:href="#DejaVuSans-Bold-55"/>
      <use xlink:href="#DejaVuSans-Bold-47" x="81.201172"/>
      <use xlink:href="#DejaVuSans-Bold-45" x="163.28125"/>
      <use xlink:href="#DejaVuSans-Bold-20" x="231.591797"/>
      <use xlink:href="#DejaVuSans-Bold-5b" x="266.40625"/>
      <use xlink:href="#DejaVuSans-Bold-67" x="312.109375"/>
      <use xlink:href="#DejaVuSans-Bold-5d" x="383.691406"/>
     </g>
    </g>
   </g>
   <g id="line2d_15">
    <path d="M 82.147045 307.8 
L 437.237955 307.8 
L 437.237955 307.8 
" clip-path="url(#pca0ea95e36)" style="fill: none; stroke: #000000; stroke-width: 2; stroke-linecap: square"/>
   </g>
   <g id="line2d_16">
    <path d="M 82.147045 307.8 
L 82.857227 307.695183 
L 84.277591 306.852044 
L 88.538682 304.23708 
L 91.024318 302.959066 
L 93.154864 302.10108 
L 94.930318 301.605054 
L 96.705773 301.349068 
L 99.191409 301.320873 
L 437.237955 301.320873 
L 437.237955 301.320873 
" clip-path="url(#pca0ea95e36)" style="fill: none; stroke: #1f77b4; stroke-width: 2; stroke-linecap: square"/>
   </g>
   <g id="line2d_17">
    <path d="M 82.147045 307.8 
L 82.502136 307.781271 
L 83.567409 307.133773 
L 90.669227 302.333339 
L 93.509955 300.714705 
L 95.6405 299.714475 
L 97.771045 298.962425 
L 99.5465 298.567188 
L 101.321955 298.410609 
L 121.562136 298.408648 
L 437.237955 298.408648 
L 437.237955 298.408648 
" clip-path="url(#pca0ea95e36)" style="fill: none; stroke: #ff7f0e; stroke-width: 2; stroke-linecap: square"/>
   </g>
   <g id="line2d_18">
    <path d="M 82.147045 307.8 
L 82.502136 307.743793 
L 83.9225 306.752064 
L 91.379409 301.388338 
L 94.930318 299.101562 
L 97.771045 297.53124 
L 99.901591 296.574348 
L 102.032136 295.857879 
L 103.807591 295.469757 
L 105.583045 295.281093 
L 108.778864 295.260502 
L 437.237955 295.260502 
L 437.237955 295.260502 
" clip-path="url(#pca0ea95e36)" style="fill: none; stroke: #2ca02c; stroke-width: 2; stroke-linecap: square"/>
   </g>
   <g id="line2d_19">
    <path d="M 82.147045 307.8 
L 82.502136 307.703032 
L 85.342864 305.585905 
L 93.154864 299.823724 
L 97.415955 296.945489 
L 100.611773 295.053046 
L 103.097409 293.816947 
L 105.583045 292.835689 
L 108.068682 292.127325 
L 110.554318 291.676388 
L 113.395045 291.421713 
L 116.945955 291.367966 
L 437.237955 291.367966 
L 437.237955 291.367966 
" clip-path="url(#pca0ea95e36)" style="fill: none; stroke: #d62728; stroke-width: 2; stroke-linecap: square"/>
   </g>
   <g id="line2d_20">
    <path d="M 82.147045 307.8 
L 82.502136 307.65601 
L 89.603955 302.238272 
L 97.415955 296.439042 
L 102.032136 293.269664 
L 105.583045 291.085257 
L 108.778864 289.361978 
L 112.329773 287.713498 
L 116.235773 286.152112 
L 121.562136 284.273453 
L 130.7945 281.289669 
L 148.904136 275.704702 
L 170.564682 269.251859 
L 192.225227 263.032729 
L 213.530682 257.146892 
L 234.481045 251.586343 
L 255.431409 246.254466 
L 276.026682 241.239106 
L 296.621955 236.45115 
L 317.217227 231.893754 
L 337.457409 227.642598 
L 357.697591 223.620096 
L 377.582682 219.893666 
L 397.467773 216.393505 
L 416.997773 213.178719 
L 436.527773 210.187357 
L 437.237955 210.082822 
L 437.237955 210.082822 
" clip-path="url(#pca0ea95e36)" style="fill: none; stroke: #9467bd; stroke-width: 2; stroke-linecap: square"/>
   </g>
   <g id="line2d_21">
    <path d="M 82.147045 307.8 
L 82.857227 307.358605 
L 99.901591 294.420872 
L 105.227955 290.671543 
L 109.844136 287.694141 
L 114.815409 284.772243 
L 121.562136 281.098542 
L 134.7005 274.258372 
L 161.332318 260.664462 
L 189.3845 246.588361 
L 217.081591 232.937448 
L 244.423591 219.708933 
L 271.4105 206.899753 
L 298.042318 194.506555 
L 324.319045 182.525695 
L 350.240682 170.953246 
L 375.807227 159.784995 
L 401.018682 149.016448 
L 425.875045 138.642838 
L 437.237955 133.982553 
L 437.237955 133.982553 
" clip-path="url(#pca0ea95e36)" style="fill: none; stroke: #8c564b; stroke-width: 2; stroke-linecap: square"/>
   </g>
   <g id="line2d_22">
    <path d="M 82.147045 307.8 
L 82.857227 307.327476 
L 103.097409 291.843474 
L 110.554318 286.445534 
L 118.721409 280.838709 
L 135.410682 269.724676 
L 176.601227 242.579253 
L 218.857045 214.993223 
L 260.047591 188.368665 
L 300.172864 162.6977 
L 339.232864 137.971518 
L 377.227591 114.180384 
L 414.512136 91.095054 
L 437.237955 77.155678 
L 437.237955 77.155678 
" clip-path="url(#pca0ea95e36)" style="fill: none; stroke: #e377c2; stroke-width: 2; stroke-linecap: square"/>
   </g>
   <g id="line2d_23">
    <path d="M 82.147045 307.8 
L 83.212318 307.036093 
L 105.583045 289.854705 
L 115.880682 282.253955 
L 135.765773 267.950783 
L 194.000682 226.361723 
L 251.8805 185.293162 
L 307.629773 146.005808 
L 361.603591 108.239688 
L 413.801955 71.986034 
L 437.237955 55.8 
L 437.237955 55.8 
" clip-path="url(#pca0ea95e36)" style="fill: none; stroke: #7f7f7f; stroke-width: 2; stroke-linecap: square"/>
   </g>
   <g id="line2d_24">
    <path d="M 92.089591 306.91975 
L 104.872864 306.015881 
L 116.235773 306.048949 
L 127.598682 306.080443 
L 138.961591 306.113511 
L 150.3245 307.077219 
L 161.687409 307.110287 
L 173.050318 306.206418 
L 184.413227 307.1717 
L 195.776136 306.26783 
L 207.139045 307.233113 
L 218.501955 307.266181 
L 252.590682 306.423724 
L 286.679409 306.518206 
L 320.768136 306.609537 
L 354.856864 306.699294 
L 388.945591 306.79535 
L 423.034318 306.889831 
" clip-path="url(#pca0ea95e36)" style="fill: none; stroke-dasharray: 3.7,1.6; stroke-dashoffset: 0; stroke: #000000"/>
    <defs>
     <path id="ma052560ea7" d="M -3 3 
L 3 3 
L 3 -3 
L -3 -3 
z
" style="stroke: #000000; stroke-linejoin: miter"/>
    </defs>
    <g clip-path="url(#pca0ea95e36)">
     <use xlink:href="#ma052560ea7" x="92.089591" y="306.91975" style="stroke: #000000; stroke-linejoin: miter"/>
     <use xlink:href="#ma052560ea7" x="104.872864" y="306.015881" style="stroke: #000000; stroke-linejoin: miter"/>
     <use xlink:href="#ma052560ea7" x="116.235773" y="306.048949" style="stroke: #000000; stroke-linejoin: miter"/>
     <use xlink:href="#ma052560ea7" x="127.598682" y="306.080443" style="stroke: #000000; stroke-linejoin: miter"/>
     <use xlink:href="#ma052560ea7" x="138.961591" y="306.113511" style="stroke: #000000; stroke-linejoin: miter"/>
     <use xlink:href="#ma052560ea7" x="150.3245" y="307.077219" style="stroke: #000000; stroke-linejoin: miter"/>
     <use xlink:href="#ma052560ea7" x="161.687409" y="307.110287" style="stroke: #000000; stroke-linejoin: miter"/>
     <use xlink:href="#ma052560ea7" x="173.050318" y="306.206418" style="stroke: #000000; stroke-linejoin: miter"/>
     <use xlink:href="#ma052560ea7" x="184.413227" y="307.1717" style="stroke: #000000; stroke-linejoin: miter"/>
     <use xlink:href="#ma052560ea7" x="195.776136" y="306.26783" style="stroke: #000000; stroke-linejoin: miter"/>
     <use xlink:href="#ma052560ea7" x="207.139045" y="307.233113" style="stroke: #000000; stroke-linejoin: miter"/>
     <use xlink:href="#ma052560ea7" x="218.501955" y="307.266181" style="stroke: #000000; stroke-linejoin: miter"/>
     <use xlink:href="#ma052560ea7" x="252.590682" y="306.423724" style="stroke: #000000; stroke-linejoin: miter"/>
     <use xlink:href="#ma052560ea7" x="286.679409" y="306.518206" style="stroke: #000000; stroke-linejoin: miter"/>
     <use xlink:href="#ma052560ea7" x="320.768136" y="306.609537" style="stroke: #000000; stroke-linejoin: miter"/>
     <use xlink:href="#ma052560ea7" x="354.856864" y="306.699294" style="stroke: #000000; stroke-linejoin: miter"/>
     <use xlink:href="#ma052560ea7" x="388.945591" y="306.79535" style="stroke: #000000; stroke-linejoin: miter"/>
     <use xlink:href="#ma052560ea7" x="423.034318" y="306.889831" style="stroke: #000000; stroke-linejoin: miter"/>
    </g>
   </g>
   <g id="line2d_25">
    <path d="M 92.089591 304.764944 
L 104.872864 298.615674 
L 116.235773 291.949943 
L 127.598682 288.375257 
L 138.961591 285.317033 
L 150.3245 282.258809 
L 161.687409 281.260639 
L 173.050318 281.295391 
L 184.413227 281.330144 
L 195.776136 281.364897 
L 207.139045 281.399649 
L 218.501955 281.434402 
L 252.590682 280.507667 
L 286.679409 281.640986 
L 320.768136 278.652267 
L 354.856864 278.752663 
L 388.945591 278.85499 
L 423.034318 279.99024 
" clip-path="url(#pca0ea95e36)" style="fill: none; stroke-dasharray: 3.7,1.6; stroke-dashoffset: 0; stroke: #1f77b4"/>
    <defs>
     <path id="m178fd3dc4f" d="M -3 3 
L 3 3 
L 3 -3 
L -3 -3 
z
" style="stroke: #000000; stroke-linejoin: miter"/>
    </defs>
    <g clip-path="url(#pca0ea95e36)">
     <use xlink:href="#m178fd3dc4f" x="92.089591" y="304.764944" style="fill: #1f77b4; stroke: #000000; stroke-linejoin: miter"/>
     <use xlink:href="#m178fd3dc4f" x="104.872864" y="298.615674" style="fill: #1f77b4; stroke: #000000; stroke-linejoin: miter"/>
     <use xlink:href="#m178fd3dc4f" x="116.235773" y="291.949943" style="fill: #1f77b4; stroke: #000000; stroke-linejoin: miter"/>
     <use xlink:href="#m178fd3dc4f" x="127.598682" y="288.375257" style="fill: #1f77b4; stroke: #000000; stroke-linejoin: miter"/>
     <use xlink:href="#m178fd3dc4f" x="138.961591" y="285.317033" style="fill: #1f77b4; stroke: #000000; stroke-linejoin: miter"/>
     <use xlink:href="#m178fd3dc4f" x="150.3245" y="282.258809" style="fill: #1f77b4; stroke: #000000; stroke-linejoin: miter"/>
     <use xlink:href="#m178fd3dc4f" x="161.687409" y="281.260639" style="fill: #1f77b4; stroke: #000000; stroke-linejoin: miter"/>
     <use xlink:href="#m178fd3dc4f" x="173.050318" y="281.295391" style="fill: #1f77b4; stroke: #000000; stroke-linejoin: miter"/>
     <use xlink:href="#m178fd3dc4f" x="184.413227" y="281.330144" style="fill: #1f77b4; stroke: #000000; stroke-linejoin: miter"/>
     <use xlink:href="#m178fd3dc4f" x="195.776136" y="281.364897" style="fill: #1f77b4; stroke: #000000; stroke-linejoin: miter"/>
     <use xlink:href="#m178fd3dc4f" x="207.139045" y="281.399649" style="fill: #1f77b4; stroke: #000000; stroke-linejoin: miter"/>
     <use xlink:href="#m178fd3dc4f" x="218.501955" y="281.434402" style="fill: #1f77b4; stroke: #000000; stroke-linejoin: miter"/>
     <use xlink:href="#m178fd3dc4f" x="252.590682" y="280.507667" style="fill: #1f77b4; stroke: #000000; stroke-linejoin: miter"/>
     <use xlink:href="#m178fd3dc4f" x="286.679409" y="281.640986" style="fill: #1f77b4; stroke: #000000; stroke-linejoin: miter"/>
     <use xlink:href="#m178fd3dc4f" x="320.768136" y="278.652267" style="fill: #1f77b4; stroke: #000000; stroke-linejoin: miter"/>
     <use xlink:href="#m178fd3dc4f" x="354.856864" y="278.752663" style="fill: #1f77b4; stroke: #000000; stroke-linejoin: miter"/>
     <use xlink:href="#m178fd3dc4f" x="388.945591" y="278.85499" style="fill: #1f77b4; stroke: #000000; stroke-linejoin: miter"/>
     <use xlink:href="#m178fd3dc4f" x="423.034318" y="279.99024" style="fill: #1f77b4; stroke: #000000; stroke-linejoin: miter"/>
    </g>
   </g>
   <g id="line2d_26">
    <path d="M 93.509955 303.218456 
L 104.872864 296.55369 
L 116.235773 288.340505 
L 127.598682 285.28035 
L 138.961591 282.224057 
L 150.3245 278.13484 
L 161.687409 277.653132 
L 173.050318 277.171423 
L 184.413227 277.204244 
L 195.776136 277.240928 
L 207.139045 277.27568 
L 218.501955 278.341425 
L 252.590682 277.41276 
L 286.679409 278.54801 
L 320.768136 276.588352 
L 354.856864 275.659687 
L 388.945591 277.823998 
L 423.034318 279.992171 
" clip-path="url(#pca0ea95e36)" style="fill: none; stroke-dasharray: 3.7,1.6; stroke-dashoffset: 0; stroke: #ff7f0e"/>
    <defs>
     <path id="mbc13051127" d="M -3 3 
L 3 3 
L 3 -3 
L -3 -3 
z
" style="stroke: #000000; stroke-linejoin: miter"/>
    </defs>
    <g clip-path="url(#pca0ea95e36)">
     <use xlink:href="#mbc13051127" x="93.509955" y="303.218456" style="fill: #ff7f0e; stroke: #000000; stroke-linejoin: miter"/>
     <use xlink:href="#mbc13051127" x="104.872864" y="296.55369" style="fill: #ff7f0e; stroke: #000000; stroke-linejoin: miter"/>
     <use xlink:href="#mbc13051127" x="116.235773" y="288.340505" style="fill: #ff7f0e; stroke: #000000; stroke-linejoin: miter"/>
     <use xlink:href="#mbc13051127" x="127.598682" y="285.28035" style="fill: #ff7f0e; stroke: #000000; stroke-linejoin: miter"/>
     <use xlink:href="#mbc13051127" x="138.961591" y="282.224057" style="fill: #ff7f0e; stroke: #000000; stroke-linejoin: miter"/>
     <use xlink:href="#mbc13051127" x="150.3245" y="278.13484" style="fill: #ff7f0e; stroke: #000000; stroke-linejoin: miter"/>
     <use xlink:href="#mbc13051127" x="161.687409" y="277.653132" style="fill: #ff7f0e; stroke: #000000; stroke-linejoin: miter"/>
     <use xlink:href="#mbc13051127" x="173.050318" y="277.171423" style="fill: #ff7f0e; stroke: #000000; stroke-linejoin: miter"/>
     <use xlink:href="#mbc13051127" x="184.413227" y="277.204244" style="fill: #ff7f0e; stroke: #000000; stroke-linejoin: miter"/>
     <use xlink:href="#mbc13051127" x="195.776136" y="277.240928" style="fill: #ff7f0e; stroke: #000000; stroke-linejoin: miter"/>
     <use xlink:href="#mbc13051127" x="207.139045" y="277.27568" style="fill: #ff7f0e; stroke: #000000; stroke-linejoin: miter"/>
     <use xlink:href="#mbc13051127" x="218.501955" y="278.341425" style="fill: #ff7f0e; stroke: #000000; stroke-linejoin: miter"/>
     <use xlink:href="#mbc13051127" x="252.590682" y="277.41276" style="fill: #ff7f0e; stroke: #000000; stroke-linejoin: miter"/>
     <use xlink:href="#mbc13051127" x="286.679409" y="278.54801" style="fill: #ff7f0e; stroke: #000000; stroke-linejoin: miter"/>
     <use xlink:href="#mbc13051127" x="320.768136" y="276.588352" style="fill: #ff7f0e; stroke: #000000; stroke-linejoin: miter"/>
     <use xlink:href="#mbc13051127" x="354.856864" y="275.659687" style="fill: #ff7f0e; stroke: #000000; stroke-linejoin: miter"/>
     <use xlink:href="#mbc13051127" x="388.945591" y="277.823998" style="fill: #ff7f0e; stroke: #000000; stroke-linejoin: miter"/>
     <use xlink:href="#mbc13051127" x="423.034318" y="279.992171" style="fill: #ff7f0e; stroke: #000000; stroke-linejoin: miter"/>
    </g>
   </g>
   <g id="line2d_27">
    <path d="M 93.509955 304.764944 
L 104.872864 292.429721 
L 116.235773 285.245598 
L 127.598682 278.063405 
L 138.961591 273.976119 
L 150.3245 264.731942 
L 161.687409 260.640795 
L 173.050318 256.551579 
L 184.413227 252.462362 
L 195.776136 247.344084 
L 207.139045 246.347845 
L 218.501955 247.411659 
L 252.590682 242.360955 
L 286.679409 241.434221 
L 320.768136 241.538479 
L 354.856864 239.57496 
L 388.945591 240.708279 
L 423.034318 241.843529 
" clip-path="url(#pca0ea95e36)" style="fill: none; stroke-dasharray: 3.7,1.6; stroke-dashoffset: 0; stroke: #2ca02c"/>
    <defs>
     <path id="m3f9b6c873c" d="M -3 3 
L 3 3 
L 3 -3 
L -3 -3 
z
" style="stroke: #000000; stroke-linejoin: miter"/>
    </defs>
    <g clip-path="url(#pca0ea95e36)">
     <use xlink:href="#m3f9b6c873c" x="93.509955" y="304.764944" style="fill: #2ca02c; stroke: #000000; stroke-linejoin: miter"/>
     <use xlink:href="#m3f9b6c873c" x="104.872864" y="292.429721" style="fill: #2ca02c; stroke: #000000; stroke-linejoin: miter"/>
     <use xlink:href="#m3f9b6c873c" x="116.235773" y="285.245598" style="fill: #2ca02c; stroke: #000000; stroke-linejoin: miter"/>
     <use xlink:href="#m3f9b6c873c" x="127.598682" y="278.063405" style="fill: #2ca02c; stroke: #000000; stroke-linejoin: miter"/>
     <use xlink:href="#m3f9b6c873c" x="138.961591" y="273.976119" style="fill: #2ca02c; stroke: #000000; stroke-linejoin: miter"/>
     <use xlink:href="#m3f9b6c873c" x="150.3245" y="264.731942" style="fill: #2ca02c; stroke: #000000; stroke-linejoin: miter"/>
     <use xlink:href="#m3f9b6c873c" x="161.687409" y="260.640795" style="fill: #2ca02c; stroke: #000000; stroke-linejoin: miter"/>
     <use xlink:href="#m3f9b6c873c" x="173.050318" y="256.551579" style="fill: #2ca02c; stroke: #000000; stroke-linejoin: miter"/>
     <use xlink:href="#m3f9b6c873c" x="184.413227" y="252.462362" style="fill: #2ca02c; stroke: #000000; stroke-linejoin: miter"/>
     <use xlink:href="#m3f9b6c873c" x="195.776136" y="247.344084" style="fill: #2ca02c; stroke: #000000; stroke-linejoin: miter"/>
     <use xlink:href="#m3f9b6c873c" x="207.139045" y="246.347845" style="fill: #2ca02c; stroke: #000000; stroke-linejoin: miter"/>
     <use xlink:href="#m3f9b6c873c" x="218.501955" y="247.411659" style="fill: #2ca02c; stroke: #000000; stroke-linejoin: miter"/>
     <use xlink:href="#m3f9b6c873c" x="252.590682" y="242.360955" style="fill: #2ca02c; stroke: #000000; stroke-linejoin: miter"/>
     <use xlink:href="#m3f9b6c873c" x="286.679409" y="241.434221" style="fill: #2ca02c; stroke: #000000; stroke-linejoin: miter"/>
     <use xlink:href="#m3f9b6c873c" x="320.768136" y="241.538479" style="fill: #2ca02c; stroke: #000000; stroke-linejoin: miter"/>
     <use xlink:href="#m3f9b6c873c" x="354.856864" y="239.57496" style="fill: #2ca02c; stroke: #000000; stroke-linejoin: miter"/>
     <use xlink:href="#m3f9b6c873c" x="388.945591" y="240.708279" style="fill: #2ca02c; stroke: #000000; stroke-linejoin: miter"/>
     <use xlink:href="#m3f9b6c873c" x="423.034318" y="241.843529" style="fill: #2ca02c; stroke: #000000; stroke-linejoin: miter"/>
    </g>
   </g>
   <g id="line2d_28">
    <path d="M 93.509955 303.733952 
L 104.872864 295.520767 
L 116.235773 287.309513 
L 127.598682 278.065335 
L 138.961591 271.914135 
L 150.3245 263.70288 
L 161.687409 259.611733 
L 173.050318 255.520586 
L 184.413227 253.491424 
L 195.776136 252.495184 
L 207.139045 252.531867 
L 218.501955 253.597612 
" clip-path="url(#pca0ea95e36)" style="fill: none; stroke-dasharray: 3.7,1.6; stroke-dashoffset: 0; stroke: #d62728"/>
    <defs>
     <path id="me4f1b363c7" d="M -3 3 
L 3 3 
L 3 -3 
L -3 -3 
z
" style="stroke: #000000; stroke-linejoin: miter"/>
    </defs>
    <g clip-path="url(#pca0ea95e36)">
     <use xlink:href="#me4f1b363c7" x="93.509955" y="303.733952" style="fill: #d62728; stroke: #000000; stroke-linejoin: miter"/>
     <use xlink:href="#me4f1b363c7" x="104.872864" y="295.520767" style="fill: #d62728; stroke: #000000; stroke-linejoin: miter"/>
     <use xlink:href="#me4f1b363c7" x="116.235773" y="287.309513" style="fill: #d62728; stroke: #000000; stroke-linejoin: miter"/>
     <use xlink:href="#me4f1b363c7" x="127.598682" y="278.065335" style="fill: #d62728; stroke: #000000; stroke-linejoin: miter"/>
     <use xlink:href="#me4f1b363c7" x="138.961591" y="271.914135" style="fill: #d62728; stroke: #000000; stroke-linejoin: miter"/>
     <use xlink:href="#me4f1b363c7" x="150.3245" y="263.70288" style="fill: #d62728; stroke: #000000; stroke-linejoin: miter"/>
     <use xlink:href="#me4f1b363c7" x="161.687409" y="259.611733" style="fill: #d62728; stroke: #000000; stroke-linejoin: miter"/>
     <use xlink:href="#me4f1b363c7" x="173.050318" y="255.520586" style="fill: #d62728; stroke: #000000; stroke-linejoin: miter"/>
     <use xlink:href="#me4f1b363c7" x="184.413227" y="253.491424" style="fill: #d62728; stroke: #000000; stroke-linejoin: miter"/>
     <use xlink:href="#me4f1b363c7" x="195.776136" y="252.495184" style="fill: #d62728; stroke: #000000; stroke-linejoin: miter"/>
     <use xlink:href="#me4f1b363c7" x="207.139045" y="252.531867" style="fill: #d62728; stroke: #000000; stroke-linejoin: miter"/>
     <use xlink:href="#me4f1b363c7" x="218.501955" y="253.597612" style="fill: #d62728; stroke: #000000; stroke-linejoin: miter"/>
    </g>
   </g>
   <g id="line2d_29">
    <path d="M 93.509955 302.704891 
L 104.872864 291.40066 
L 116.235773 281.640986 
L 127.598682 273.42394 
L 138.961591 266.757243 
L 150.3245 259.576981 
L 161.687409 253.423849 
L 173.050318 248.303641 
L 184.413227 243.698929 
L 195.776136 236.00317 
L 207.139045 232.943015 
L 218.501955 230.914818 
L 252.590682 220.708189 
L 286.679409 215.141989 
L 320.768136 211.637774 
L 354.856864 211.73817 
L 388.945591 209.263017 
L 423.034318 210.397301 
" clip-path="url(#pca0ea95e36)" style="fill: none; stroke-dasharray: 3.7,1.6; stroke-dashoffset: 0; stroke: #9467bd"/>
    <defs>
     <path id="mc6d028f016" d="M -3 3 
L 3 3 
L 3 -3 
L -3 -3 
z
" style="stroke: #000000; stroke-linejoin: miter"/>
    </defs>
    <g clip-path="url(#pca0ea95e36)">
     <use xlink:href="#mc6d028f016" x="93.509955" y="302.704891" style="fill: #9467bd; stroke: #000000; stroke-linejoin: miter"/>
     <use xlink:href="#mc6d028f016" x="104.872864" y="291.40066" style="fill: #9467bd; stroke: #000000; stroke-linejoin: miter"/>
     <use xlink:href="#mc6d028f016" x="116.235773" y="281.640986" style="fill: #9467bd; stroke: #000000; stroke-linejoin: miter"/>
     <use xlink:href="#mc6d028f016" x="127.598682" y="273.42394" style="fill: #9467bd; stroke: #000000; stroke-linejoin: miter"/>
     <use xlink:href="#mc6d028f016" x="138.961591" y="266.757243" style="fill: #9467bd; stroke: #000000; stroke-linejoin: miter"/>
     <use xlink:href="#mc6d028f016" x="150.3245" y="259.576981" style="fill: #9467bd; stroke: #000000; stroke-linejoin: miter"/>
     <use xlink:href="#mc6d028f016" x="161.687409" y="253.423849" style="fill: #9467bd; stroke: #000000; stroke-linejoin: miter"/>
     <use xlink:href="#mc6d028f016" x="173.050318" y="248.303641" style="fill: #9467bd; stroke: #000000; stroke-linejoin: miter"/>
     <use xlink:href="#mc6d028f016" x="184.413227" y="243.698929" style="fill: #9467bd; stroke: #000000; stroke-linejoin: miter"/>
     <use xlink:href="#mc6d028f016" x="195.776136" y="236.00317" style="fill: #9467bd; stroke: #000000; stroke-linejoin: miter"/>
     <use xlink:href="#mc6d028f016" x="207.139045" y="232.943015" style="fill: #9467bd; stroke: #000000; stroke-linejoin: miter"/>
     <use xlink:href="#mc6d028f016" x="218.501955" y="230.914818" style="fill: #9467bd; stroke: #000000; stroke-linejoin: miter"/>
     <use xlink:href="#mc6d028f016" x="252.590682" y="220.708189" style="fill: #9467bd; stroke: #000000; stroke-linejoin: miter"/>
     <use xlink:href="#mc6d028f016" x="286.679409" y="215.141989" style="fill: #9467bd; stroke: #000000; stroke-linejoin: miter"/>
     <use xlink:href="#mc6d028f016" x="320.768136" y="211.637774" style="fill: #9467bd; stroke: #000000; stroke-linejoin: miter"/>
     <use xlink:href="#mc6d028f016" x="354.856864" y="211.73817" style="fill: #9467bd; stroke: #000000; stroke-linejoin: miter"/>
     <use xlink:href="#mc6d028f016" x="388.945591" y="209.263017" style="fill: #9467bd; stroke: #000000; stroke-linejoin: miter"/>
     <use xlink:href="#mc6d028f016" x="423.034318" y="210.397301" style="fill: #9467bd; stroke: #000000; stroke-linejoin: miter"/>
    </g>
   </g>
   <g id="line2d_30">
    <path d="M 93.509955 300.640975 
L 104.872864 288.303822 
L 116.235773 275.968598 
L 127.598682 266.724421 
L 138.961591 257.478313 
L 150.3245 248.234136 
L 161.687409 240.020951 
L 173.050318 230.261277 
L 184.413227 221.0171 
L 195.776136 213.834907 
L 207.139045 209.745691 
L 218.501955 202.562533 
L 252.590682 178.9559 
L 286.679409 165.656294 
L 320.768136 153.388645 
L 354.856864 150.910596 
L 388.945591 146.887988 
L 423.034318 149.056161 
" clip-path="url(#pca0ea95e36)" style="fill: none; stroke-dasharray: 3.7,1.6; stroke-dashoffset: 0; stroke: #8c564b"/>
    <defs>
     <path id="mfb7ca1a242" d="M -3 3 
L 3 3 
L 3 -3 
L -3 -3 
z
" style="stroke: #000000; stroke-linejoin: miter"/>
    </defs>
    <g clip-path="url(#pca0ea95e36)">
     <use xlink:href="#mfb7ca1a242" x="93.509955" y="300.640975" style="fill: #8c564b; stroke: #000000; stroke-linejoin: miter"/>
     <use xlink:href="#mfb7ca1a242" x="104.872864" y="288.303822" style="fill: #8c564b; stroke: #000000; stroke-linejoin: miter"/>
     <use xlink:href="#mfb7ca1a242" x="116.235773" y="275.968598" style="fill: #8c564b; stroke: #000000; stroke-linejoin: miter"/>
     <use xlink:href="#mfb7ca1a242" x="127.598682" y="266.724421" style="fill: #8c564b; stroke: #000000; stroke-linejoin: miter"/>
     <use xlink:href="#mfb7ca1a242" x="138.961591" y="257.478313" style="fill: #8c564b; stroke: #000000; stroke-linejoin: miter"/>
     <use xlink:href="#mfb7ca1a242" x="150.3245" y="248.234136" style="fill: #8c564b; stroke: #000000; stroke-linejoin: miter"/>
     <use xlink:href="#mfb7ca1a242" x="161.687409" y="240.020951" style="fill: #8c564b; stroke: #000000; stroke-linejoin: miter"/>
     <use xlink:href="#mfb7ca1a242" x="173.050318" y="230.261277" style="fill: #8c564b; stroke: #000000; stroke-linejoin: miter"/>
     <use xlink:href="#mfb7ca1a242" x="184.413227" y="221.0171" style="fill: #8c564b; stroke: #000000; stroke-linejoin: miter"/>
     <use xlink:href="#mfb7ca1a242" x="195.776136" y="213.834907" style="fill: #8c564b; stroke: #000000; stroke-linejoin: miter"/>
     <use xlink:href="#mfb7ca1a242" x="207.139045" y="209.745691" style="fill: #8c564b; stroke: #000000; stroke-linejoin: miter"/>
     <use xlink:href="#mfb7ca1a242" x="218.501955" y="202.562533" style="fill: #8c564b; stroke: #000000; stroke-linejoin: miter"/>
     <use xlink:href="#mfb7ca1a242" x="252.590682" y="178.9559" style="fill: #8c564b; stroke: #000000; stroke-linejoin: miter"/>
     <use xlink:href="#mfb7ca1a242" x="286.679409" y="165.656294" style="fill: #8c564b; stroke: #000000; stroke-linejoin: miter"/>
     <use xlink:href="#mfb7ca1a242" x="320.768136" y="153.388645" style="fill: #8c564b; stroke: #000000; stroke-linejoin: miter"/>
     <use xlink:href="#mfb7ca1a242" x="354.856864" y="150.910596" style="fill: #8c564b; stroke: #000000; stroke-linejoin: miter"/>
     <use xlink:href="#mfb7ca1a242" x="388.945591" y="146.887988" style="fill: #8c564b; stroke: #000000; stroke-linejoin: miter"/>
     <use xlink:href="#mfb7ca1a242" x="423.034318" y="149.056161" style="fill: #8c564b; stroke: #000000; stroke-linejoin: miter"/>
    </g>
   </g>
   <g id="line2d_31">
    <path d="M 93.509955 298.580922 
L 104.872864 286.241837 
L 116.235773 278.030583 
L 127.598682 266.72249 
L 138.961591 258.509305 
L 150.3245 248.236067 
L 161.687409 238.989959 
L 173.050318 228.714789 
L 184.413227 220.497743 
L 195.776136 211.257427 
L 207.139045 203.044242 
L 218.501955 190.709018 
L 252.590682 166.067532 
L 286.679409 149.67688 
L 320.768136 133.284297 
L 354.856864 127.715202 
L 388.945591 123.177098 
L 423.034318 120.703875 
" clip-path="url(#pca0ea95e36)" style="fill: none; stroke-dasharray: 3.7,1.6; stroke-dashoffset: 0; stroke: #e377c2"/>
    <defs>
     <path id="mfd77aa659c" d="M -3 3 
L 3 3 
L 3 -3 
L -3 -3 
z
" style="stroke: #000000; stroke-linejoin: miter"/>
    </defs>
    <g clip-path="url(#pca0ea95e36)">
     <use xlink:href="#mfd77aa659c" x="93.509955" y="298.580922" style="fill: #e377c2; stroke: #000000; stroke-linejoin: miter"/>
     <use xlink:href="#mfd77aa659c" x="104.872864" y="286.241837" style="fill: #e377c2; stroke: #000000; stroke-linejoin: miter"/>
     <use xlink:href="#mfd77aa659c" x="116.235773" y="278.030583" style="fill: #e377c2; stroke: #000000; stroke-linejoin: miter"/>
     <use xlink:href="#mfd77aa659c" x="127.598682" y="266.72249" style="fill: #e377c2; stroke: #000000; stroke-linejoin: miter"/>
     <use xlink:href="#mfd77aa659c" x="138.961591" y="258.509305" style="fill: #e377c2; stroke: #000000; stroke-linejoin: miter"/>
     <use xlink:href="#mfd77aa659c" x="150.3245" y="248.236067" style="fill: #e377c2; stroke: #000000; stroke-linejoin: miter"/>
     <use xlink:href="#mfd77aa659c" x="161.687409" y="238.989959" style="fill: #e377c2; stroke: #000000; stroke-linejoin: miter"/>
     <use xlink:href="#mfd77aa659c" x="173.050318" y="228.714789" style="fill: #e377c2; stroke: #000000; stroke-linejoin: miter"/>
     <use xlink:href="#mfd77aa659c" x="184.413227" y="220.497743" style="fill: #e377c2; stroke: #000000; stroke-linejoin: miter"/>
     <use xlink:href="#mfd77aa659c" x="195.776136" y="211.257427" style="fill: #e377c2; stroke: #000000; stroke-linejoin: miter"/>
     <use xlink:href="#mfd77aa659c" x="207.139045" y="203.044242" style="fill: #e377c2; stroke: #000000; stroke-linejoin: miter"/>
     <use xlink:href="#mfd77aa659c" x="218.501955" y="190.709018" style="fill: #e377c2; stroke: #000000; stroke-linejoin: miter"/>
     <use xlink:href="#mfd77aa659c" x="252.590682" y="166.067532" style="fill: #e377c2; stroke: #000000; stroke-linejoin: miter"/>
     <use xlink:href="#mfd77aa659c" x="286.679409" y="149.67688" style="fill: #e377c2; stroke: #000000; stroke-linejoin: miter"/>
     <use xlink:href="#mfd77aa659c" x="320.768136" y="133.284297" style="fill: #e377c2; stroke: #000000; stroke-linejoin: miter"/>
     <use xlink:href="#mfd77aa659c" x="354.856864" y="127.715202" style="fill: #e377c2; stroke: #000000; stroke-linejoin: miter"/>
     <use xlink:href="#mfd77aa659c" x="388.945591" y="123.177098" style="fill: #e377c2; stroke: #000000; stroke-linejoin: miter"/>
     <use xlink:href="#mfd77aa659c" x="423.034318" y="120.703875" style="fill: #e377c2; stroke: #000000; stroke-linejoin: miter"/>
    </g>
   </g>
   <g id="line2d_32">
    <path d="M 93.509955 296.517007 
L 104.872864 284.181783 
L 116.235773 274.935675 
L 127.598682 264.660506 
L 138.961591 255.414398 
L 150.3245 246.172151 
L 161.687409 235.896982 
L 173.050318 227.681866 
L 184.413227 217.404766 
L 195.776136 208.162519 
L 207.139045 198.918342 
L 218.501955 189.674165 
L 252.590682 156.273106 
L 286.679409 133.18004 
L 320.768136 110.602469 
L 354.856864 94.20699 
L 388.945591 74.719499 
L 423.034318 59.359839 
" clip-path="url(#pca0ea95e36)" style="fill: none; stroke-dasharray: 3.7,1.6; stroke-dashoffset: 0; stroke: #7f7f7f"/>
    <defs>
     <path id="mb3a49a5af9" d="M -3 3 
L 3 3 
L 3 -3 
L -3 -3 
z
" style="stroke: #000000; stroke-linejoin: miter"/>
    </defs>
    <g clip-path="url(#pca0ea95e36)">
     <use xlink:href="#mb3a49a5af9" x="93.509955" y="296.517007" style="fill: #7f7f7f; stroke: #000000; stroke-linejoin: miter"/>
     <use xlink:href="#mb3a49a5af9" x="104.872864" y="284.181783" style="fill: #7f7f7f; stroke: #000000; stroke-linejoin: miter"/>
     <use xlink:href="#mb3a49a5af9" x="116.235773" y="274.935675" style="fill: #7f7f7f; stroke: #000000; stroke-linejoin: miter"/>
     <use xlink:href="#mb3a49a5af9" x="127.598682" y="264.660506" style="fill: #7f7f7f; stroke: #000000; stroke-linejoin: miter"/>
     <use xlink:href="#mb3a49a5af9" x="138.961591" y="255.414398" style="fill: #7f7f7f; stroke: #000000; stroke-linejoin: miter"/>
     <use xlink:href="#mb3a49a5af9" x="150.3245" y="246.172151" style="fill: #7f7f7f; stroke: #000000; stroke-linejoin: miter"/>
     <use xlink:href="#mb3a49a5af9" x="161.687409" y="235.896982" style="fill: #7f7f7f; stroke: #000000; stroke-linejoin: miter"/>
     <use xlink:href="#mb3a49a5af9" x="173.050318" y="227.681866" style="fill: #7f7f7f; stroke: #000000; stroke-linejoin: miter"/>
     <use xlink:href="#mb3a49a5af9" x="184.413227" y="217.404766" style="fill: #7f7f7f; stroke: #000000; stroke-linejoin: miter"/>
     <use xlink:href="#mb3a49a5af9" x="195.776136" y="208.162519" style="fill: #7f7f7f; stroke: #000000; stroke-linejoin: miter"/>
     <use xlink:href="#mb3a49a5af9" x="207.139045" y="198.918342" style="fill: #7f7f7f; stroke: #000000; stroke-linejoin: miter"/>
     <use xlink:href="#mb3a49a5af9" x="218.501955" y="189.674165" style="fill: #7f7f7f; stroke: #000000; stroke-linejoin: miter"/>
     <use xlink:href="#mb3a49a5af9" x="252.590682" y="156.273106" style="fill: #7f7f7f; stroke: #000000; stroke-linejoin: miter"/>
     <use xlink:href="#mb3a49a5af9" x="286.679409" y="133.18004" style="fill: #7f7f7f; stroke: #000000; stroke-linejoin: miter"/>
     <use xlink:href="#mb3a49a5af9" x="320.768136" y="110.602469" style="fill: #7f7f7f; stroke: #000000; stroke-linejoin: miter"/>
     <use xlink:href="#mb3a49a5af9" x="354.856864" y="94.20699" style="fill: #7f7f7f; stroke: #000000; stroke-linejoin: miter"/>
     <use xlink:href="#mb3a49a5af9" x="388.945591" y="74.719499" style="fill: #7f7f7f; stroke: #000000; stroke-linejoin: miter"/>
     <use xlink:href="#mb3a49a5af9" x="423.034318" y="59.359839" style="fill: #7f7f7f; stroke: #000000; stroke-linejoin: miter"/>
    </g>
   </g>
   <g id="patch_3">
    <path d="M 64.3925 320.4 
L 64.3925 43.2 
" style="fill: none; stroke: #000000; stroke-width: 0.8; stroke-linejoin: miter; stroke-linecap: square"/>
   </g>
   <g id="patch_4">
    <path d="M 454.9925 320.4 
L 454.9925 43.2 
" style="fill: none; stroke: #000000; stroke-width: 0.8; stroke-linejoin: miter; stroke-linecap: square"/>
   </g>
   <g id="patch_5">
    <path d="M 64.3925 320.4 
L 454.9925 320.4 
" style="fill: none; stroke: #000000; stroke-width: 0.8; stroke-linejoin: miter; stroke-linecap: square"/>
   </g>
   <g id="patch_6">
    <path d="M 64.3925 43.2 
L 454.9925 43.2 
" style="fill: none; stroke: #000000; stroke-width: 0.8; stroke-linejoin: miter; stroke-linecap: square"/>
   </g>
  </g>
  <g id="text_17">
   <!-- Komoroski2009 -->
   <g transform="translate(144.146406 26.196094) scale(0.25 -0.25)">
    <defs>
     <path id="DejaVuSans-Bold-4b" d="M 588 4666 
L 1791 4666 
L 1791 2963 
L 3525 4666 
L 4922 4666 
L 2675 2456 
L 5153 0 
L 3647 0 
L 1791 1838 
L 1791 0 
L 588 0 
L 588 4666 
z
" transform="scale(0.015625)"/>
     <path id="DejaVuSans-Bold-6f" d="M 2203 2784 
Q 1831 2784 1636 2517 
Q 1441 2250 1441 1747 
Q 1441 1244 1636 976 
Q 1831 709 2203 709 
Q 2569 709 2762 976 
Q 2956 1244 2956 1747 
Q 2956 2250 2762 2517 
Q 2569 2784 2203 2784 
z
M 2203 3584 
Q 3106 3584 3614 3096 
Q 4122 2609 4122 1747 
Q 4122 884 3614 396 
Q 3106 -91 2203 -91 
Q 1297 -91 786 396 
Q 275 884 275 1747 
Q 275 2609 786 3096 
Q 1297 3584 2203 3584 
z
" transform="scale(0.015625)"/>
     <path id="DejaVuSans-Bold-73" d="M 3272 3391 
L 3272 2541 
Q 2913 2691 2578 2766 
Q 2244 2841 1947 2841 
Q 1628 2841 1473 2761 
Q 1319 2681 1319 2516 
Q 1319 2381 1436 2309 
Q 1553 2238 1856 2203 
L 2053 2175 
Q 2913 2066 3209 1816 
Q 3506 1566 3506 1031 
Q 3506 472 3093 190 
Q 2681 -91 1863 -91 
Q 1516 -91 1145 -36 
Q 775 19 384 128 
L 384 978 
Q 719 816 1070 734 
Q 1422 653 1784 653 
Q 2113 653 2278 743 
Q 2444 834 2444 1013 
Q 2444 1163 2330 1236 
Q 2216 1309 1875 1350 
L 1678 1375 
Q 931 1469 631 1722 
Q 331 1975 331 2491 
Q 331 3047 712 3315 
Q 1094 3584 1881 3584 
Q 2191 3584 2531 3537 
Q 2872 3491 3272 3391 
z
" transform="scale(0.015625)"/>
     <path id="DejaVuSans-Bold-6b" d="M 538 4863 
L 1656 4863 
L 1656 2216 
L 2944 3500 
L 4244 3500 
L 2534 1894 
L 4378 0 
L 3022 0 
L 1656 1459 
L 1656 0 
L 538 0 
L 538 4863 
z
" transform="scale(0.015625)"/>
     <path id="DejaVuSans-Bold-32" d="M 1844 884 
L 3897 884 
L 3897 0 
L 506 0 
L 506 884 
L 2209 2388 
Q 2438 2594 2547 2791 
Q 2656 2988 2656 3200 
Q 2656 3528 2436 3728 
Q 2216 3928 1850 3928 
Q 1569 3928 1234 3808 
Q 900 3688 519 3450 
L 519 4475 
Q 925 4609 1322 4679 
Q 1719 4750 2100 4750 
Q 2938 4750 3402 4381 
Q 3866 4013 3866 3353 
Q 3866 2972 3669 2642 
Q 3472 2313 2841 1759 
L 1844 884 
z
" transform="scale(0.015625)"/>
     <path id="DejaVuSans-Bold-30" d="M 2944 2338 
Q 2944 3213 2780 3570 
Q 2616 3928 2228 3928 
Q 1841 3928 1675 3570 
Q 1509 3213 1509 2338 
Q 1509 1453 1675 1090 
Q 1841 728 2228 728 
Q 2613 728 2778 1090 
Q 2944 1453 2944 2338 
z
M 4147 2328 
Q 4147 1169 3647 539 
Q 3147 -91 2228 -91 
Q 1306 -91 806 539 
Q 306 1169 306 2328 
Q 306 3491 806 4120 
Q 1306 4750 2228 4750 
Q 3147 4750 3647 4120 
Q 4147 3491 4147 2328 
z
" transform="scale(0.015625)"/>
     <path id="DejaVuSans-Bold-39" d="M 641 103 
L 641 966 
Q 928 831 1190 764 
Q 1453 697 1709 697 
Q 2247 697 2547 995 
Q 2847 1294 2900 1881 
Q 2688 1725 2447 1647 
Q 2206 1569 1925 1569 
Q 1209 1569 770 1986 
Q 331 2403 331 3084 
Q 331 3838 820 4291 
Q 1309 4744 2131 4744 
Q 3044 4744 3544 4128 
Q 4044 3513 4044 2388 
Q 4044 1231 3459 570 
Q 2875 -91 1856 -91 
Q 1528 -91 1228 -42 
Q 928 6 641 103 
z
M 2125 2350 
Q 2441 2350 2600 2554 
Q 2759 2759 2759 3169 
Q 2759 3575 2600 3781 
Q 2441 3988 2125 3988 
Q 1809 3988 1650 3781 
Q 1491 3575 1491 3169 
Q 1491 2759 1650 2554 
Q 1809 2350 2125 2350 
z
" transform="scale(0.015625)"/>
    </defs>
    <use xlink:href="#DejaVuSans-Bold-4b"/>
    <use xlink:href="#DejaVuSans-Bold-6f" x="75.740234"/>
    <use xlink:href="#DejaVuSans-Bold-6d" x="144.441406"/>
    <use xlink:href="#DejaVuSans-Bold-6f" x="248.640625"/>
    <use xlink:href="#DejaVuSans-Bold-72" x="317.341797"/>
    <use xlink:href="#DejaVuSans-Bold-6f" x="366.658203"/>
    <use xlink:href="#DejaVuSans-Bold-73" x="435.359375"/>
    <use xlink:href="#DejaVuSans-Bold-6b" x="494.880859"/>
    <use xlink:href="#DejaVuSans-Bold-69" x="561.384766"/>
    <use xlink:href="#DejaVuSans-Bold-32" x="595.662109"/>
    <use xlink:href="#DejaVuSans-Bold-30" x="665.242188"/>
    <use xlink:href="#DejaVuSans-Bold-30" x="734.822266"/>
    <use xlink:href="#DejaVuSans-Bold-39" x="804.402344"/>
   </g>
  </g>
 </g>
 <defs>
  <clipPath id="pca0ea95e36">
   <rect x="64.3925" y="43.2" width="390.6" height="277.2"/>
  </clipPath>
 </defs>
</svg>
