<?xml version="1.0" encoding="utf-8" standalone="no"?>
<!DOCTYPE svg PUBLIC "-//W3C//DTD SVG 1.1//EN"
  "http://www.w3.org/Graphics/SVG/1.1/DTD/svg11.dtd">
<svg xmlns:xlink="http://www.w3.org/1999/xlink" width="457.51605pt" height="370.537812pt" viewBox="0 0 457.51605 370.537812" xmlns="http://www.w3.org/2000/svg" version="1.1">
 <metadata>
  <rdf:RDF xmlns:dc="http://purl.org/dc/elements/1.1/" xmlns:cc="http://creativecommons.org/ns#" xmlns:rdf="http://www.w3.org/1999/02/22-rdf-syntax-ns#">
   <cc:Work>
    <dc:type rdf:resource="http://purl.org/dc/dcmitype/StillImage"/>
    <dc:date>2025-06-10T17:07:54.534483</dc:date>
    <dc:format>image/svg+xml</dc:format>
    <dc:creator>
     <cc:Agent>
      <dc:title>Matplotlib v3.9.1, https://matplotlib.org/</dc:title>
     </cc:Agent>
    </dc:creator>
   </cc:Work>
  </rdf:RDF>
 </metadata>
 <defs>
  <style type="text/css">*{stroke-linejoin: round; stroke-linecap: butt}</style>
 </defs>
 <g id="figure_1">
  <g id="patch_1">
   <path d="M 0 370.537812 
L 457.51605 370.537812 
L 457.51605 0 
L 0 0 
z
" style="fill: #ffffff"/>
  </g>
  <g id="axes_1">
   <g id="patch_2">
    <path d="M 54.84875 320.4 
L 445.44875 320.4 
L 445.44875 43.2 
L 54.84875 43.2 
z
" style="fill: #ffffff"/>
   </g>
   <g id="matplotlib.axis_1">
    <g id="xtick_1">
     <g id="line2d_1">
      <defs>
       <path id="mac271307f4" d="M 0 0 
L 0 3.5 
" style="stroke: #000000; stroke-width: 0.8"/>
      </defs>
      <g>
       <use xlink:href="#mac271307f4" x="72.603295" y="320.4" style="stroke: #000000; stroke-width: 0.8"/>
      </g>
     </g>
     <g id="text_1">
      <!-- 0 -->
      <g transform="translate(67.83142 338.797656) scale(0.15 -0.15)">
       <defs>
        <path id="DejaVuSans-30" d="M 2034 4250 
Q 1547 4250 1301 3770 
Q 1056 3291 1056 2328 
Q 1056 1369 1301 889 
Q 1547 409 2034 409 
Q 2525 409 2770 889 
Q 3016 1369 3016 2328 
Q 3016 3291 2770 3770 
Q 2525 4250 2034 4250 
z
M 2034 4750 
Q 2819 4750 3233 4129 
Q 3647 3509 3647 2328 
Q 3647 1150 3233 529 
Q 2819 -91 2034 -91 
Q 1250 -91 836 529 
Q 422 1150 422 2328 
Q 422 3509 836 4129 
Q 1250 4750 2034 4750 
z
" transform="scale(0.015625)"/>
       </defs>
       <use xlink:href="#DejaVuSans-30"/>
      </g>
     </g>
    </g>
    <g id="xtick_2">
     <g id="line2d_2">
      <g>
       <use xlink:href="#mac271307f4" x="124.517171" y="320.4" style="stroke: #000000; stroke-width: 0.8"/>
      </g>
     </g>
     <g id="text_2">
      <!-- 50 -->
      <g transform="translate(114.973421 338.797656) scale(0.15 -0.15)">
       <defs>
        <path id="DejaVuSans-35" d="M 691 4666 
L 3169 4666 
L 3169 4134 
L 1269 4134 
L 1269 2991 
Q 1406 3038 1543 3061 
Q 1681 3084 1819 3084 
Q 2600 3084 3056 2656 
Q 3513 2228 3513 1497 
Q 3513 744 3044 326 
Q 2575 -91 1722 -91 
Q 1428 -91 1123 -41 
Q 819 9 494 109 
L 494 744 
Q 775 591 1075 516 
Q 1375 441 1709 441 
Q 2250 441 2565 725 
Q 2881 1009 2881 1497 
Q 2881 1984 2565 2268 
Q 2250 2553 1709 2553 
Q 1456 2553 1204 2497 
Q 953 2441 691 2322 
L 691 4666 
z
" transform="scale(0.015625)"/>
       </defs>
       <use xlink:href="#DejaVuSans-35"/>
       <use xlink:href="#DejaVuSans-30" x="63.623047"/>
      </g>
     </g>
    </g>
    <g id="xtick_3">
     <g id="line2d_3">
      <g>
       <use xlink:href="#mac271307f4" x="176.431047" y="320.4" style="stroke: #000000; stroke-width: 0.8"/>
      </g>
     </g>
     <g id="text_3">
      <!-- 100 -->
      <g transform="translate(162.115422 338.797656) scale(0.15 -0.15)">
       <defs>
        <path id="DejaVuSans-31" d="M 794 531 
L 1825 531 
L 1825 4091 
L 703 3866 
L 703 4441 
L 1819 4666 
L 2450 4666 
L 2450 531 
L 3481 531 
L 3481 0 
L 794 0 
L 794 531 
z
" transform="scale(0.015625)"/>
       </defs>
       <use xlink:href="#DejaVuSans-31"/>
       <use xlink:href="#DejaVuSans-30" x="63.623047"/>
       <use xlink:href="#DejaVuSans-30" x="127.246094"/>
      </g>
     </g>
    </g>
    <g id="xtick_4">
     <g id="line2d_4">
      <g>
       <use xlink:href="#mac271307f4" x="228.344922" y="320.4" style="stroke: #000000; stroke-width: 0.8"/>
      </g>
     </g>
     <g id="text_4">
      <!-- 150 -->
      <g transform="translate(214.029297 338.797656) scale(0.15 -0.15)">
       <use xlink:href="#DejaVuSans-31"/>
       <use xlink:href="#DejaVuSans-35" x="63.623047"/>
       <use xlink:href="#DejaVuSans-30" x="127.246094"/>
      </g>
     </g>
    </g>
    <g id="xtick_5">
     <g id="line2d_5">
      <g>
       <use xlink:href="#mac271307f4" x="280.258798" y="320.4" style="stroke: #000000; stroke-width: 0.8"/>
      </g>
     </g>
     <g id="text_5">
      <!-- 200 -->
      <g transform="translate(265.943173 338.797656) scale(0.15 -0.15)">
       <defs>
        <path id="DejaVuSans-32" d="M 1228 531 
L 3431 531 
L 3431 0 
L 469 0 
L 469 531 
Q 828 903 1448 1529 
Q 2069 2156 2228 2338 
Q 2531 2678 2651 2914 
Q 2772 3150 2772 3378 
Q 2772 3750 2511 3984 
Q 2250 4219 1831 4219 
Q 1534 4219 1204 4116 
Q 875 4013 500 3803 
L 500 4441 
Q 881 4594 1212 4672 
Q 1544 4750 1819 4750 
Q 2544 4750 2975 4387 
Q 3406 4025 3406 3419 
Q 3406 3131 3298 2873 
Q 3191 2616 2906 2266 
Q 2828 2175 2409 1742 
Q 1991 1309 1228 531 
z
" transform="scale(0.015625)"/>
       </defs>
       <use xlink:href="#DejaVuSans-32"/>
       <use xlink:href="#DejaVuSans-30" x="63.623047"/>
       <use xlink:href="#DejaVuSans-30" x="127.246094"/>
      </g>
     </g>
    </g>
    <g id="xtick_6">
     <g id="line2d_6">
      <g>
       <use xlink:href="#mac271307f4" x="332.172673" y="320.4" style="stroke: #000000; stroke-width: 0.8"/>
      </g>
     </g>
     <g id="text_6">
      <!-- 250 -->
      <g transform="translate(317.857048 338.797656) scale(0.15 -0.15)">
       <use xlink:href="#DejaVuSans-32"/>
       <use xlink:href="#DejaVuSans-35" x="63.623047"/>
       <use xlink:href="#DejaVuSans-30" x="127.246094"/>
      </g>
     </g>
    </g>
    <g id="xtick_7">
     <g id="line2d_7">
      <g>
       <use xlink:href="#mac271307f4" x="384.086549" y="320.4" style="stroke: #000000; stroke-width: 0.8"/>
      </g>
     </g>
     <g id="text_7">
      <!-- 300 -->
      <g transform="translate(369.770924 338.797656) scale(0.15 -0.15)">
       <defs>
        <path id="DejaVuSans-33" d="M 2597 2516 
Q 3050 2419 3304 2112 
Q 3559 1806 3559 1356 
Q 3559 666 3084 287 
Q 2609 -91 1734 -91 
Q 1441 -91 1130 -33 
Q 819 25 488 141 
L 488 750 
Q 750 597 1062 519 
Q 1375 441 1716 441 
Q 2309 441 2620 675 
Q 2931 909 2931 1356 
Q 2931 1769 2642 2001 
Q 2353 2234 1838 2234 
L 1294 2234 
L 1294 2753 
L 1863 2753 
Q 2328 2753 2575 2939 
Q 2822 3125 2822 3475 
Q 2822 3834 2567 4026 
Q 2313 4219 1838 4219 
Q 1578 4219 1281 4162 
Q 984 4106 628 3988 
L 628 4550 
Q 988 4650 1302 4700 
Q 1616 4750 1894 4750 
Q 2613 4750 3031 4423 
Q 3450 4097 3450 3541 
Q 3450 3153 3228 2886 
Q 3006 2619 2597 2516 
z
" transform="scale(0.015625)"/>
       </defs>
       <use xlink:href="#DejaVuSans-33"/>
       <use xlink:href="#DejaVuSans-30" x="63.623047"/>
       <use xlink:href="#DejaVuSans-30" x="127.246094"/>
      </g>
     </g>
    </g>
    <g id="xtick_8">
     <g id="line2d_8">
      <g>
       <use xlink:href="#mac271307f4" x="436.000425" y="320.4" style="stroke: #000000; stroke-width: 0.8"/>
      </g>
     </g>
     <g id="text_8">
      <!-- 350 -->
      <g transform="translate(421.6848 338.797656) scale(0.15 -0.15)">
       <use xlink:href="#DejaVuSans-33"/>
       <use xlink:href="#DejaVuSans-35" x="63.623047"/>
       <use xlink:href="#DejaVuSans-30" x="127.246094"/>
      </g>
     </g>
    </g>
    <g id="text_9">
     <!-- time [hr] -->
     <g transform="translate(205.074219 359.594375) scale(0.18 -0.18)">
      <defs>
       <path id="DejaVuSans-Bold-74" d="M 1759 4494 
L 1759 3500 
L 2913 3500 
L 2913 2700 
L 1759 2700 
L 1759 1216 
Q 1759 972 1856 886 
Q 1953 800 2241 800 
L 2816 800 
L 2816 0 
L 1856 0 
Q 1194 0 917 276 
Q 641 553 641 1216 
L 641 2700 
L 84 2700 
L 84 3500 
L 641 3500 
L 641 4494 
L 1759 4494 
z
" transform="scale(0.015625)"/>
       <path id="DejaVuSans-Bold-69" d="M 538 3500 
L 1656 3500 
L 1656 0 
L 538 0 
L 538 3500 
z
M 538 4863 
L 1656 4863 
L 1656 3950 
L 538 3950 
L 538 4863 
z
" transform="scale(0.015625)"/>
       <path id="DejaVuSans-Bold-6d" d="M 3781 2919 
Q 3994 3244 4286 3414 
Q 4578 3584 4928 3584 
Q 5531 3584 5847 3212 
Q 6163 2841 6163 2131 
L 6163 0 
L 5038 0 
L 5038 1825 
Q 5041 1866 5042 1909 
Q 5044 1953 5044 2034 
Q 5044 2406 4934 2573 
Q 4825 2741 4581 2741 
Q 4263 2741 4089 2478 
Q 3916 2216 3909 1719 
L 3909 0 
L 2784 0 
L 2784 1825 
Q 2784 2406 2684 2573 
Q 2584 2741 2328 2741 
Q 2006 2741 1831 2477 
Q 1656 2213 1656 1722 
L 1656 0 
L 531 0 
L 531 3500 
L 1656 3500 
L 1656 2988 
Q 1863 3284 2130 3434 
Q 2397 3584 2719 3584 
Q 3081 3584 3359 3409 
Q 3638 3234 3781 2919 
z
" transform="scale(0.015625)"/>
       <path id="DejaVuSans-Bold-65" d="M 4031 1759 
L 4031 1441 
L 1416 1441 
Q 1456 1047 1700 850 
Q 1944 653 2381 653 
Q 2734 653 3104 758 
Q 3475 863 3866 1075 
L 3866 213 
Q 3469 63 3072 -14 
Q 2675 -91 2278 -91 
Q 1328 -91 801 392 
Q 275 875 275 1747 
Q 275 2603 792 3093 
Q 1309 3584 2216 3584 
Q 3041 3584 3536 3087 
Q 4031 2591 4031 1759 
z
M 2881 2131 
Q 2881 2450 2695 2645 
Q 2509 2841 2209 2841 
Q 1884 2841 1681 2658 
Q 1478 2475 1428 2131 
L 2881 2131 
z
" transform="scale(0.015625)"/>
       <path id="DejaVuSans-Bold-20" transform="scale(0.015625)"/>
       <path id="DejaVuSans-Bold-5b" d="M 550 4863 
L 2491 4863 
L 2491 4159 
L 1613 4159 
L 1613 -141 
L 2491 -141 
L 2491 -844 
L 550 -844 
L 550 4863 
z
" transform="scale(0.015625)"/>
       <path id="DejaVuSans-Bold-68" d="M 4056 2131 
L 4056 0 
L 2931 0 
L 2931 347 
L 2931 1625 
Q 2931 2084 2911 2256 
Q 2891 2428 2841 2509 
Q 2775 2619 2662 2680 
Q 2550 2741 2406 2741 
Q 2056 2741 1856 2470 
Q 1656 2200 1656 1722 
L 1656 0 
L 538 0 
L 538 4863 
L 1656 4863 
L 1656 2988 
Q 1909 3294 2193 3439 
Q 2478 3584 2822 3584 
Q 3428 3584 3742 3212 
Q 4056 2841 4056 2131 
z
" transform="scale(0.015625)"/>
       <path id="DejaVuSans-Bold-72" d="M 3138 2547 
Q 2991 2616 2845 2648 
Q 2700 2681 2553 2681 
Q 2122 2681 1889 2404 
Q 1656 2128 1656 1613 
L 1656 0 
L 538 0 
L 538 3500 
L 1656 3500 
L 1656 2925 
Q 1872 3269 2151 3426 
Q 2431 3584 2822 3584 
Q 2878 3584 2943 3579 
Q 3009 3575 3134 3559 
L 3138 2547 
z
" transform="scale(0.015625)"/>
       <path id="DejaVuSans-Bold-5d" d="M 2375 -844 
L 434 -844 
L 434 -141 
L 1313 -141 
L 1313 4159 
L 434 4159 
L 434 4863 
L 2375 4863 
L 2375 -844 
z
" transform="scale(0.015625)"/>
      </defs>
      <use xlink:href="#DejaVuSans-Bold-74"/>
      <use xlink:href="#DejaVuSans-Bold-69" x="47.802734"/>
      <use xlink:href="#DejaVuSans-Bold-6d" x="82.080078"/>
      <use xlink:href="#DejaVuSans-Bold-65" x="186.279297"/>
      <use xlink:href="#DejaVuSans-Bold-20" x="254.101562"/>
      <use xlink:href="#DejaVuSans-Bold-5b" x="288.916016"/>
      <use xlink:href="#DejaVuSans-Bold-68" x="334.619141"/>
      <use xlink:href="#DejaVuSans-Bold-72" x="405.810547"/>
      <use xlink:href="#DejaVuSans-Bold-5d" x="455.126953"/>
     </g>
    </g>
   </g>
   <g id="matplotlib.axis_2">
    <g id="ytick_1">
     <g id="line2d_9">
      <defs>
       <path id="m481d272339" d="M 0 0 
L -3.5 0 
" style="stroke: #000000; stroke-width: 0.8"/>
      </defs>
      <g>
       <use xlink:href="#m481d272339" x="54.84875" y="307.8" style="stroke: #000000; stroke-width: 0.8"/>
      </g>
     </g>
     <g id="text_10">
      <!-- 0 -->
      <g transform="translate(38.305 313.498828) scale(0.15 -0.15)">
       <use xlink:href="#DejaVuSans-30"/>
      </g>
     </g>
    </g>
    <g id="ytick_2">
     <g id="line2d_10">
      <g>
       <use xlink:href="#m481d272339" x="54.84875" y="275.355734" style="stroke: #000000; stroke-width: 0.8"/>
      </g>
     </g>
     <g id="text_11">
      <!-- 10 -->
      <g transform="translate(28.76125 281.054562) scale(0.15 -0.15)">
       <use xlink:href="#DejaVuSans-31"/>
       <use xlink:href="#DejaVuSans-30" x="63.623047"/>
      </g>
     </g>
    </g>
    <g id="ytick_3">
     <g id="line2d_11">
      <g>
       <use xlink:href="#m481d272339" x="54.84875" y="242.911467" style="stroke: #000000; stroke-width: 0.8"/>
      </g>
     </g>
     <g id="text_12">
      <!-- 20 -->
      <g transform="translate(28.76125 248.610295) scale(0.15 -0.15)">
       <use xlink:href="#DejaVuSans-32"/>
       <use xlink:href="#DejaVuSans-30" x="63.623047"/>
      </g>
     </g>
    </g>
    <g id="ytick_4">
     <g id="line2d_12">
      <g>
       <use xlink:href="#m481d272339" x="54.84875" y="210.467201" style="stroke: #000000; stroke-width: 0.8"/>
      </g>
     </g>
     <g id="text_13">
      <!-- 30 -->
      <g transform="translate(28.76125 216.166029) scale(0.15 -0.15)">
       <use xlink:href="#DejaVuSans-33"/>
       <use xlink:href="#DejaVuSans-30" x="63.623047"/>
      </g>
     </g>
    </g>
    <g id="ytick_5">
     <g id="line2d_13">
      <g>
       <use xlink:href="#m481d272339" x="54.84875" y="178.022934" style="stroke: #000000; stroke-width: 0.8"/>
      </g>
     </g>
     <g id="text_14">
      <!-- 40 -->
      <g transform="translate(28.76125 183.721762) scale(0.15 -0.15)">
       <defs>
        <path id="DejaVuSans-34" d="M 2419 4116 
L 825 1625 
L 2419 1625 
L 2419 4116 
z
M 2253 4666 
L 3047 4666 
L 3047 1625 
L 3713 1625 
L 3713 1100 
L 3047 1100 
L 3047 0 
L 2419 0 
L 2419 1100 
L 313 1100 
L 313 1709 
L 2253 4666 
z
" transform="scale(0.015625)"/>
       </defs>
       <use xlink:href="#DejaVuSans-34"/>
       <use xlink:href="#DejaVuSans-30" x="63.623047"/>
      </g>
     </g>
    </g>
    <g id="ytick_6">
     <g id="line2d_14">
      <g>
       <use xlink:href="#m481d272339" x="54.84875" y="145.578668" style="stroke: #000000; stroke-width: 0.8"/>
      </g>
     </g>
     <g id="text_15">
      <!-- 50 -->
      <g transform="translate(28.76125 151.277496) scale(0.15 -0.15)">
       <use xlink:href="#DejaVuSans-35"/>
       <use xlink:href="#DejaVuSans-30" x="63.623047"/>
      </g>
     </g>
    </g>
    <g id="ytick_7">
     <g id="line2d_15">
      <g>
       <use xlink:href="#m481d272339" x="54.84875" y="113.134401" style="stroke: #000000; stroke-width: 0.8"/>
      </g>
     </g>
     <g id="text_16">
      <!-- 60 -->
      <g transform="translate(28.76125 118.833229) scale(0.15 -0.15)">
       <defs>
        <path id="DejaVuSans-36" d="M 2113 2584 
Q 1688 2584 1439 2293 
Q 1191 2003 1191 1497 
Q 1191 994 1439 701 
Q 1688 409 2113 409 
Q 2538 409 2786 701 
Q 3034 994 3034 1497 
Q 3034 2003 2786 2293 
Q 2538 2584 2113 2584 
z
M 3366 4563 
L 3366 3988 
Q 3128 4100 2886 4159 
Q 2644 4219 2406 4219 
Q 1781 4219 1451 3797 
Q 1122 3375 1075 2522 
Q 1259 2794 1537 2939 
Q 1816 3084 2150 3084 
Q 2853 3084 3261 2657 
Q 3669 2231 3669 1497 
Q 3669 778 3244 343 
Q 2819 -91 2113 -91 
Q 1303 -91 875 529 
Q 447 1150 447 2328 
Q 447 3434 972 4092 
Q 1497 4750 2381 4750 
Q 2619 4750 2861 4703 
Q 3103 4656 3366 4563 
z
" transform="scale(0.015625)"/>
       </defs>
       <use xlink:href="#DejaVuSans-36"/>
       <use xlink:href="#DejaVuSans-30" x="63.623047"/>
      </g>
     </g>
    </g>
    <g id="ytick_8">
     <g id="line2d_16">
      <g>
       <use xlink:href="#m481d272339" x="54.84875" y="80.690135" style="stroke: #000000; stroke-width: 0.8"/>
      </g>
     </g>
     <g id="text_17">
      <!-- 70 -->
      <g transform="translate(28.76125 86.388963) scale(0.15 -0.15)">
       <defs>
        <path id="DejaVuSans-37" d="M 525 4666 
L 3525 4666 
L 3525 4397 
L 1831 0 
L 1172 0 
L 2766 4134 
L 525 4134 
L 525 4666 
z
" transform="scale(0.015625)"/>
       </defs>
       <use xlink:href="#DejaVuSans-37"/>
       <use xlink:href="#DejaVuSans-30" x="63.623047"/>
      </g>
     </g>
    </g>
    <g id="ytick_9">
     <g id="line2d_17">
      <g>
       <use xlink:href="#m481d272339" x="54.84875" y="48.245868" style="stroke: #000000; stroke-width: 0.8"/>
      </g>
     </g>
     <g id="text_18">
      <!-- 80 -->
      <g transform="translate(28.76125 53.944696) scale(0.15 -0.15)">
       <defs>
        <path id="DejaVuSans-38" d="M 2034 2216 
Q 1584 2216 1326 1975 
Q 1069 1734 1069 1313 
Q 1069 891 1326 650 
Q 1584 409 2034 409 
Q 2484 409 2743 651 
Q 3003 894 3003 1313 
Q 3003 1734 2745 1975 
Q 2488 2216 2034 2216 
z
M 1403 2484 
Q 997 2584 770 2862 
Q 544 3141 544 3541 
Q 544 4100 942 4425 
Q 1341 4750 2034 4750 
Q 2731 4750 3128 4425 
Q 3525 4100 3525 3541 
Q 3525 3141 3298 2862 
Q 3072 2584 2669 2484 
Q 3125 2378 3379 2068 
Q 3634 1759 3634 1313 
Q 3634 634 3220 271 
Q 2806 -91 2034 -91 
Q 1263 -91 848 271 
Q 434 634 434 1313 
Q 434 1759 690 2068 
Q 947 2378 1403 2484 
z
M 1172 3481 
Q 1172 3119 1398 2916 
Q 1625 2713 2034 2713 
Q 2441 2713 2670 2916 
Q 2900 3119 2900 3481 
Q 2900 3844 2670 4047 
Q 2441 4250 2034 4250 
Q 1625 4250 1398 4047 
Q 1172 3844 1172 3481 
z
" transform="scale(0.015625)"/>
       </defs>
       <use xlink:href="#DejaVuSans-38"/>
       <use xlink:href="#DejaVuSans-30" x="63.623047"/>
      </g>
     </g>
    </g>
    <g id="text_19">
     <!-- UGE [g] -->
     <g transform="translate(20.877188 220.445156) rotate(-90) scale(0.18 -0.18)">
      <defs>
       <path id="DejaVuSans-Bold-55" d="M 588 4666 
L 1791 4666 
L 1791 1869 
Q 1791 1291 1980 1042 
Q 2169 794 2597 794 
Q 3028 794 3217 1042 
Q 3406 1291 3406 1869 
L 3406 4666 
L 4609 4666 
L 4609 1869 
Q 4609 878 4112 393 
Q 3616 -91 2597 -91 
Q 1581 -91 1084 393 
Q 588 878 588 1869 
L 588 4666 
z
" transform="scale(0.015625)"/>
       <path id="DejaVuSans-Bold-47" d="M 4781 347 
Q 4331 128 3847 18 
Q 3363 -91 2847 -91 
Q 1681 -91 1000 561 
Q 319 1213 319 2328 
Q 319 3456 1012 4103 
Q 1706 4750 2913 4750 
Q 3378 4750 3804 4662 
Q 4231 4575 4609 4403 
L 4609 3438 
Q 4219 3659 3833 3768 
Q 3447 3878 3059 3878 
Q 2341 3878 1952 3476 
Q 1563 3075 1563 2328 
Q 1563 1588 1938 1184 
Q 2313 781 3003 781 
Q 3191 781 3352 804 
Q 3513 828 3641 878 
L 3641 1784 
L 2906 1784 
L 2906 2591 
L 4781 2591 
L 4781 347 
z
" transform="scale(0.015625)"/>
       <path id="DejaVuSans-Bold-45" d="M 588 4666 
L 3834 4666 
L 3834 3756 
L 1791 3756 
L 1791 2888 
L 3713 2888 
L 3713 1978 
L 1791 1978 
L 1791 909 
L 3903 909 
L 3903 0 
L 588 0 
L 588 4666 
z
" transform="scale(0.015625)"/>
       <path id="DejaVuSans-Bold-67" d="M 2919 594 
Q 2688 288 2409 144 
Q 2131 0 1766 0 
Q 1125 0 706 504 
Q 288 1009 288 1791 
Q 288 2575 706 3076 
Q 1125 3578 1766 3578 
Q 2131 3578 2409 3434 
Q 2688 3291 2919 2981 
L 2919 3500 
L 4044 3500 
L 4044 353 
Q 4044 -491 3511 -936 
Q 2978 -1381 1966 -1381 
Q 1638 -1381 1331 -1331 
Q 1025 -1281 716 -1178 
L 716 -306 
Q 1009 -475 1290 -558 
Q 1572 -641 1856 -641 
Q 2406 -641 2662 -400 
Q 2919 -159 2919 353 
L 2919 594 
z
M 2181 2772 
Q 1834 2772 1640 2515 
Q 1447 2259 1447 1791 
Q 1447 1309 1634 1061 
Q 1822 813 2181 813 
Q 2531 813 2725 1069 
Q 2919 1325 2919 1791 
Q 2919 2259 2725 2515 
Q 2531 2772 2181 2772 
z
" transform="scale(0.015625)"/>
      </defs>
      <use xlink:href="#DejaVuSans-Bold-55"/>
      <use xlink:href="#DejaVuSans-Bold-47" x="81.201172"/>
      <use xlink:href="#DejaVuSans-Bold-45" x="163.28125"/>
      <use xlink:href="#DejaVuSans-Bold-20" x="231.591797"/>
      <use xlink:href="#DejaVuSans-Bold-5b" x="266.40625"/>
      <use xlink:href="#DejaVuSans-Bold-67" x="312.109375"/>
      <use xlink:href="#DejaVuSans-Bold-5d" x="383.691406"/>
     </g>
    </g>
   </g>
   <g id="line2d_18">
    <path d="M 72.603295 307.8 
L 72.752807 307.782896 
L 72.902319 307.17629 
L 73.550205 302.866294 
L 75.244673 291.837569 
L 76.24142 286.728683 
L 76.98898 283.961725 
L 77.53719 282.668421 
L 77.935889 282.175781 
L 78.28475 282.072367 
L 97.521956 282.072367 
L 97.571793 307.8 
L 97.62163 307.8 
L 97.721305 307.625535 
L 98.020329 305.904521 
L 100.661707 288.98207 
L 101.558779 284.889318 
L 102.256501 282.677465 
L 102.754874 281.714213 
L 103.153573 281.347633 
L 103.552272 281.304079 
L 122.440616 281.304079 
L 122.440616 307.8 
L 122.540291 307.8 
L 122.639965 307.603522 
L 122.988827 305.533364 
L 125.430855 289.673418 
L 126.377764 285.089269 
L 127.125324 282.483092 
L 127.673535 281.245218 
L 128.122071 280.692428 
L 128.470932 280.557251 
L 147.359276 280.557187 
L 147.359276 307.8 
L 147.458951 307.8 
L 147.558626 307.582424 
L 147.907487 305.497761 
L 150.399353 289.304823 
L 151.346262 284.710377 
L 152.093822 282.056287 
L 152.69187 280.652859 
L 153.190243 280.004811 
L 153.588941 279.83149 
L 160.765516 279.830718 
L 172.277937 279.830718 
L 172.277937 307.8 
L 172.377611 307.8 
L 172.477286 307.562297 
L 172.826147 305.464841 
L 175.318013 289.217253 
L 176.31476 284.343821 
L 177.062319 281.65098 
L 177.710205 280.083886 
L 178.208578 279.386181 
L 178.607276 279.144012 
L 179.205324 279.123678 
L 197.196597 279.123678 
L 197.196597 307.8 
L 197.296272 307.799884 
L 197.395946 307.543169 
L 197.744807 305.434388 
L 200.236673 289.138027 
L 201.23342 284.200363 
L 202.030817 281.264816 
L 202.678702 279.633191 
L 203.226913 278.798002 
L 203.675449 278.478047 
L 204.123984 278.435029 
L 222.115257 278.435029 
L 222.115257 307.8 
L 222.214932 307.798427 
L 222.314606 307.525041 
L 222.713305 305.065262 
L 225.055659 289.630128 
L 226.102243 284.291212 
L 226.949477 281.052702 
L 227.6472 279.210377 
L 228.19541 278.297604 
L 228.693783 277.861205 
L 229.142319 277.763666 
L 247.033917 277.763666 
L 247.033917 307.8 
L 247.133592 307.795669 
L 247.283104 307.264134 
L 247.831315 303.649348 
L 249.77497 290.732757 
L 250.871391 284.86723 
L 251.768463 281.200684 
L 252.516023 279.037482 
L 253.114071 277.9048 
L 253.662281 277.312365 
L 254.110817 277.119232 
L 255.057726 277.108402 
L 271.952578 277.108402 
L 271.952578 307.8 
L 272.052252 307.791981 
L 272.201764 307.245482 
L 272.799812 303.272323 
L 274.69363 290.68158 
L 275.839889 284.539738 
L 276.736961 280.867455 
L 277.48452 278.668678 
L 278.132406 277.401919 
L 278.680616 276.765805 
L 279.178989 276.500293 
L 279.777037 276.467931 
L 296.871238 276.467931 
L 296.871238 307.8 
L 296.970913 307.78764 
L 297.120425 307.228035 
L 297.718472 303.24765 
L 299.612291 290.634857 
L 300.758549 284.453987 
L 301.655621 280.721456 
L 302.403181 278.442842 
L 303.051066 277.080358 
L 303.649114 276.29308 
L 304.197324 275.924446 
L 304.695697 275.840796 
L 321.789898 275.840796 
L 321.789898 307.8 
L 321.889573 307.782854 
L 322.039085 307.211718 
L 322.637133 303.224824 
L 324.580788 290.294023 
L 325.727047 284.139491 
L 326.624118 280.410763 
L 327.421516 277.984225 
L 328.119238 276.535604 
L 328.717286 275.751647 
L 329.265496 275.357214 
L 329.813707 275.225861 
L 340.229707 275.225327 
L 346.708559 275.225327 
L 346.708559 307.8 
L 346.808233 307.777782 
L 346.957745 307.19646 
L 347.555793 303.203697 
L 349.499449 290.254065 
L 350.645707 284.067172 
L 351.592616 280.109593 
L 352.390013 277.665281 
L 353.087736 276.17506 
L 353.735621 275.279791 
L 354.333669 274.811579 
L 354.931717 274.627789 
L 356.327161 274.619568 
L 371.627219 274.619568 
L 371.627219 307.8 
L 371.726894 307.772542 
L 371.876406 307.182193 
L 372.474453 303.184129 
L 374.418109 290.217486 
L 375.564367 284.001561 
L 376.511276 279.997253 
L 377.308673 277.490675 
L 378.056233 275.835022 
L 378.704118 274.885413 
L 379.352004 274.316505 
L 379.950051 274.067412 
L 380.697611 274.021146 
L 396.545879 274.021146 
L 396.545879 307.8 
L 396.608176 307.799996 
L 396.732769 307.481348 
L 397.168846 304.742209 
L 399.473822 289.368954 
L 400.595161 283.40718 
L 401.529611 279.533322 
L 402.339468 277.034819 
L 403.087028 275.400031 
L 403.772291 274.397906 
L 404.457554 273.788778 
L 405.142817 273.49102 
L 405.890377 273.427075 
L 427.694205 273.427075 
L 427.694205 273.427075 
" clip-path="url(#p8c6edf22ed)" style="fill: none; stroke: #1f77b4; stroke-width: 2; stroke-linecap: square"/>
   </g>
   <g id="line2d_19">
    <path d="M 72.603295 307.8 
L 72.70297 307.724869 
L 73.001994 305.62295 
L 76.98898 275.163765 
L 78.28475 267.182313 
L 79.231659 262.641495 
L 79.979219 260.069066 
L 80.577267 258.740666 
L 81.025803 258.186719 
L 81.424501 258.009388 
L 84.464578 258.007556 
L 97.521956 258.007556 
L 97.521956 307.8 
L 97.62163 307.681987 
L 97.970492 305.165341 
L 101.758128 276.044468 
L 103.153573 267.130389 
L 104.200157 261.742156 
L 105.097228 258.227668 
L 105.844788 256.11891 
L 106.542511 254.786871 
L 107.140559 254.077588 
L 107.738606 253.70567 
L 108.336654 253.608802 
L 122.440616 253.608802 
L 122.440616 307.8 
L 122.540291 307.631926 
L 122.938989 304.702069 
L 126.626951 276.262969 
L 128.122071 266.554317 
L 129.268329 260.460942 
L 130.265075 256.276125 
L 131.211984 253.224716 
L 132.109056 251.033768 
L 133.055965 249.281767 
L 134.102549 247.809467 
L 135.348482 246.454041 
L 136.943276 245.068468 
L 139.136118 243.47558 
L 142.176195 241.552632 
L 145.714645 239.576728 
L 147.359276 238.742524 
L 147.359276 307.8 
L 147.458951 307.557409 
L 147.907487 304.215514 
L 151.445937 276.829136 
L 153.040731 266.279139 
L 154.286664 259.43283 
L 155.432922 254.331574 
L 156.579181 250.240268 
L 157.825114 246.634004 
L 159.320233 243.01886 
L 161.363563 238.708669 
L 164.553152 232.553838 
L 169.23786 224.013383 
L 172.277937 218.689289 
L 172.277937 307.8 
L 172.377611 307.480429 
L 172.826147 304.125393 
L 176.414434 276.34183 
L 178.059066 265.423419 
L 179.404673 257.938167 
L 180.650606 252.201642 
L 181.996214 247.030979 
L 183.640846 241.624445 
L 185.9832 234.758065 
L 189.970185 223.844791 
L 195.900827 208.264519 
L 197.196597 204.937896 
L 197.196597 307.8 
L 197.296272 307.426234 
L 197.794645 303.661976 
L 201.283257 276.596873 
L 202.977726 265.214572 
L 204.423008 256.992527 
L 205.818453 250.317191 
L 207.413248 243.784402 
L 209.556252 235.994313 
L 213.194377 223.715117 
L 219.573554 203.02269 
L 222.115257 194.957114 
L 222.115257 307.8 
L 222.214932 307.386064 
L 222.713305 303.612163 
L 226.251755 276.156172 
L 227.996061 264.419314 
L 229.491181 255.826973 
L 231.036138 248.240759 
L 232.929956 240.101752 
L 235.82052 228.766718 
L 241.4023 207.913578 
L 247.033917 187.403052 
L 247.033917 307.8 
L 247.133592 307.35517 
L 247.681803 303.173691 
L 251.120578 276.448248 
L 252.914721 264.265844 
L 254.509516 254.955729 
L 256.203984 246.414156 
L 258.396827 236.570436 
L 262.184463 220.744892 
L 269.510549 191.188876 
L 271.952578 181.50426 
L 271.952578 307.8 
L 272.052252 307.33074 
L 272.600463 303.141918 
L 276.089075 276.030129 
L 277.883219 263.818516 
L 279.52785 254.113463 
L 281.371831 244.613199 
L 283.913535 232.7872 
L 288.747755 211.535252 
L 296.871238 176.785619 
L 296.871238 307.8 
L 296.970913 307.311 
L 297.568961 302.715665 
L 300.957898 276.343457 
L 302.801879 263.702675 
L 304.496348 253.573416 
L 306.440004 243.332667 
L 309.280731 229.668619 
L 315.111697 202.922913 
L 321.789898 172.938196 
L 321.789898 307.8 
L 321.889573 307.294772 
L 322.487621 302.693704 
L 325.926396 275.938508 
L 327.820214 262.961946 
L 329.614358 252.216441 
L 331.757362 240.821347 
L 335.1463 224.169633 
L 342.472386 189.4863 
L 346.708559 169.75225 
L 346.708559 307.8 
L 346.808233 307.281243 
L 347.456118 302.274415 
L 350.845056 275.901588 
L 352.788712 262.548752 
L 354.632693 251.432793 
L 356.875372 239.333012 
L 360.663008 220.289331 
L 368.936004 180.006302 
L 371.627219 167.08027 
L 371.627219 307.8 
L 371.726894 307.269831 
L 372.374779 302.258445 
L 375.763717 275.869252 
L 377.707372 262.465364 
L 379.60119 250.950382 
L 381.993382 237.869286 
L 386.229554 216.153457 
L 395.299946 170.951506 
L 396.545879 164.815428 
L 396.545879 307.8 
L 396.608176 307.481922 
L 397.106549 303.745153 
L 400.844348 274.659994 
L 402.837841 261.024152 
L 404.831334 248.978773 
L 407.447793 234.635313 
L 412.556118 208.106041 
L 422.585879 157.245748 
L 427.694205 131.754146 
L 427.694205 131.754146 
" clip-path="url(#p8c6edf22ed)" style="fill: none; stroke: #2ca02c; stroke-width: 2; stroke-linecap: square"/>
   </g>
   <g id="line2d_20">
    <path d="M 72.603295 307.8 
L 72.653133 307.8 
L 72.802645 306.90073 
L 75.444023 285.422212 
L 77.886051 266.783983 
L 79.331334 257.306556 
L 80.427755 251.478685 
L 81.324827 247.819847 
L 82.122224 245.455341 
L 82.819946 244.033234 
L 83.467831 243.186125 
L 84.065879 242.74269 
L 84.663927 242.562328 
L 85.860023 242.550883 
L 97.521956 242.550883 
L 97.521956 307.8 
L 97.62163 307.528588 
L 98.319353 301.954428 
L 102.156827 271.346846 
L 103.95097 258.737502 
L 105.296578 250.745093 
L 106.492673 244.902102 
L 107.688769 240.142444 
L 108.984539 235.893696 
L 110.579334 231.452 
L 112.822013 225.911027 
L 116.559812 217.337709 
L 121.892406 205.66904 
L 122.440616 204.497751 
L 122.440616 307.8 
L 122.540291 307.390237 
L 123.28785 301.395661 
L 127.125324 270.776262 
L 129.019142 257.374893 
L 130.564099 247.984411 
L 132.059219 240.24349 
L 133.803525 232.409175 
L 136.295391 222.332604 
L 140.880425 204.861464 
L 147.359276 180.889184 
L 147.359276 307.8 
L 147.458951 307.306337 
L 148.306185 300.483601 
L 152.093822 270.265893 
L 154.087315 256.080191 
L 155.781783 245.557081 
L 157.625764 235.502806 
L 160.217305 222.714702 
L 165.201037 199.452331 
L 172.277937 167.191945 
L 172.277937 307.8 
L 172.377611 307.255199 
L 173.274683 300.015109 
L 177.062319 269.793044 
L 179.155487 254.829554 
L 181.049305 242.876033 
L 183.341822 229.887661 
L 187.229133 209.328488 
L 196.050339 164.069987 
L 197.196597 158.25388 
L 197.196597 307.8 
L 197.296272 307.220665 
L 198.243181 299.564311 
L 202.030817 269.340813 
L 204.223659 253.605223 
L 206.316827 240.20777 
L 209.157554 223.589787 
L 215.088195 190.513664 
L 222.115257 151.971368 
L 222.115257 307.8 
L 222.214932 307.195782 
L 223.211678 299.124053 
L 226.999315 268.901677 
L 229.241994 252.738615 
L 231.534511 237.8575 
L 234.973286 217.170493 
L 243.296118 168.808546 
L 247.033917 147.324832 
L 247.033917 307.8 
L 247.133592 307.177032 
L 248.180176 298.690669 
L 251.967812 268.471675 
L 254.310166 251.547978 
L 256.85187 234.894215 
L 261.137879 208.55421 
L 271.952578 143.758842 
L 271.952578 307.8 
L 272.052252 307.162432 
L 273.148673 298.262072 
L 276.93631 268.048468 
L 279.378339 250.367964 
L 282.119391 232.246615 
L 287.302472 199.784917 
L 296.871238 140.944447 
L 296.871238 307.8 
L 296.970913 307.150777 
L 298.117171 297.836975 
L 301.904807 267.630561 
L 304.396673 249.541959 
L 307.386913 229.60475 
L 313.56674 190.2789 
L 321.789898 138.674158 
L 321.789898 307.8 
L 321.889573 307.141286 
L 323.085669 297.41454 
L 326.873305 267.216937 
L 329.415008 248.726402 
L 332.604597 227.295139 
L 339.831008 180.679349 
L 346.708559 136.810492 
L 346.708559 307.8 
L 346.808233 307.133436 
L 348.054166 296.994195 
L 351.841803 266.806874 
L 354.483181 247.571428 
L 357.921956 224.3382 
L 366.444138 168.754399 
L 371.627219 135.258669 
L 371.627219 307.8 
L 371.726894 307.126858 
L 372.972827 296.98479 
L 376.760463 266.779321 
L 379.451678 247.120809 
L 383.089803 222.377895 
L 392.558894 160.002623 
L 396.545879 133.951179 
L 396.545879 307.8 
L 396.608176 307.386845 
L 397.542626 299.84497 
L 401.591908 267.421595 
L 404.332961 247.29494 
L 408.133056 221.269822 
L 418.28741 153.793976 
L 427.694205 91.928994 
L 427.694205 91.928994 
" clip-path="url(#p8c6edf22ed)" style="fill: none; stroke: #d62728; stroke-width: 2; stroke-linecap: square"/>
   </g>
   <g id="line2d_21">
    <path d="M 72.603295 307.8 
L 72.653133 307.770855 
L 73.051831 304.617996 
L 78.583774 259.603957 
L 80.527429 245.584951 
L 82.022549 236.335247 
L 83.417994 229.064606 
L 84.913114 222.451571 
L 86.806932 215.122244 
L 89.797171 204.54503 
L 95.378951 185.725006 
L 97.521956 178.645883 
L 97.521956 307.8 
L 97.62163 307.253405 
L 99.365937 292.799701 
L 103.602109 258.543327 
L 105.844788 242.158018 
L 107.888118 228.887803 
L 110.479659 213.630252 
L 115.413554 186.169538 
L 122.440616 147.827189 
L 122.440616 307.8 
L 122.540291 307.156876 
L 124.483946 291.043063 
L 128.720118 256.829263 
L 131.211984 238.481081 
L 134.002874 219.694323 
L 139.235793 186.310413 
L 147.359276 135.342768 
L 147.359276 307.8 
L 147.458951 307.113854 
L 149.601956 289.34224 
L 153.838128 255.170892 
L 156.629018 234.48588 
L 160.466492 207.923412 
L 171.032004 136.883605 
L 172.277937 128.559052 
L 172.277937 307.8 
L 172.377611 307.089074 
L 174.670128 288.074465 
L 178.9063 253.918227 
L 182.046051 230.488469 
L 187.378645 192.739742 
L 197.196597 124.292806 
L 197.196597 307.8 
L 197.296272 307.072878 
L 199.788138 286.404426 
L 204.02431 252.290944 
L 207.512922 226.121024 
L 214.938683 172.622558 
L 222.115257 121.365088 
L 222.115257 307.8 
L 222.214932 307.061455 
L 224.85631 285.153094 
L 229.092482 251.056916 
L 232.979793 221.742062 
L 243.046932 148.197832 
L 247.033917 119.235771 
L 247.033917 307.8 
L 247.133592 307.052976 
L 249.924482 283.90604 
L 254.210492 249.440993 
L 258.546339 216.612468 
L 271.803066 118.721212 
L 271.952578 117.621699 
L 271.952578 307.8 
L 272.052252 307.046447 
L 275.042492 282.251302 
L 279.328501 247.828521 
L 284.162721 211.093484 
L 296.871238 116.359806 
L 296.871238 307.8 
L 296.970913 307.041279 
L 300.110664 281.01063 
L 304.446511 246.218858 
L 309.878779 204.80714 
L 321.789898 115.349414 
L 321.789898 307.8 
L 321.889573 307.037099 
L 325.178836 279.77231 
L 329.56452 244.611588 
L 335.594836 198.502179 
L 346.708559 114.524933 
L 346.708559 307.8 
L 346.808233 307.033661 
L 350.247008 278.536112 
L 354.68253 243.00642 
L 361.410568 191.424969 
L 371.627219 113.841759 
L 371.627219 307.8 
L 371.726894 307.030792 
L 375.265343 277.711135 
L 379.750702 241.792117 
L 387.126626 185.094297 
L 396.545879 113.268482 
L 396.545879 307.8 
L 396.608176 307.322606 
L 398.975449 287.681072 
L 403.896884 247.813907 
L 410.251142 198.635497 
L 427.694205 65.237646 
L 427.694205 65.237646 
" clip-path="url(#p8c6edf22ed)" style="fill: none; stroke: #9467bd; stroke-width: 2; stroke-linecap: square"/>
   </g>
   <g id="line2d_22">
    <path d="M 72.603295 307.8 
L 72.653133 307.722527 
L 73.500367 300.720514 
L 79.480846 251.617317 
L 81.8232 234.155575 
L 83.86653 220.566914 
L 86.408233 205.254446 
L 91.142779 178.357053 
L 97.521956 142.83265 
L 97.521956 307.8 
L 97.62163 307.119326 
L 101.658453 273.503132 
L 105.545764 242.343823 
L 108.486166 220.626733 
L 113.220712 187.630322 
L 122.440616 124.562072 
L 122.440616 307.8 
L 122.540291 307.063695 
L 127.623697 264.836374 
L 131.411334 234.797179 
L 135.846855 201.681052 
L 147.359276 117.647091 
L 147.359276 307.8 
L 147.458951 307.040248 
L 158.722185 216.166965 
L 170.035257 130.830198 
L 172.277937 113.985319 
L 172.277937 307.8 
L 172.377611 307.027055 
L 184.189056 211.519386 
L 197.196597 111.714725 
L 197.196597 307.8 
L 197.296272 307.018543 
L 209.556252 207.67919 
L 222.115257 110.170334 
L 222.115257 307.8 
L 222.214932 307.012589 
L 234.973286 203.480381 
L 247.033917 109.053929 
L 247.033917 307.8 
L 247.133592 307.008195 
L 260.340482 199.694543 
L 271.952578 108.211392 
L 271.952578 307.8 
L 272.052252 307.004825 
L 285.657841 196.322377 
L 296.871238 107.55487 
L 296.871238 307.8 
L 296.970913 307.002167 
L 310.925362 193.364015 
L 321.789898 107.030545 
L 321.789898 307.8 
L 321.889573 307.000021 
L 336.242721 190.023734 
L 346.708559 106.603562 
L 346.708559 307.8 
L 346.808233 306.99826 
L 361.460406 187.491718 
L 371.627219 106.250339 
L 371.627219 307.8 
L 371.726894 306.996793 
L 386.67809 184.971845 
L 396.545879 105.954332 
L 396.545879 307.8 
L 396.608176 307.29981 
L 418.225114 131.674754 
L 427.694205 55.8 
L 427.694205 55.8 
" clip-path="url(#p8c6edf22ed)" style="fill: none; stroke: #8c564b; stroke-width: 2; stroke-linecap: square"/>
   </g>
   <g id="line2d_23">
    <defs>
     <path id="m5addafc67c" d="M -3 3 
L 3 3 
L 3 -3 
L -3 -3 
z
" style="stroke: #000000; stroke-linejoin: miter"/>
    </defs>
    <g clip-path="url(#p8c6edf22ed)">
     <use xlink:href="#m5addafc67c" x="72.603295" y="307.8" style="fill: #1f77b4; stroke: #000000; stroke-linejoin: miter"/>
     <use xlink:href="#m5addafc67c" x="97.521956" y="252.117107" style="fill: #1f77b4; stroke: #000000; stroke-linejoin: miter"/>
     <use xlink:href="#m5addafc67c" x="396.545879" y="307.8" style="fill: #1f77b4; stroke: #000000; stroke-linejoin: miter"/>
     <use xlink:href="#m5addafc67c" x="421.464539" y="244.598884" style="fill: #1f77b4; stroke: #000000; stroke-linejoin: miter"/>
    </g>
   </g>
   <g id="line2d_24">
    <defs>
     <path id="m74d140bbdd" d="M -3 3 
L 3 3 
L 3 -3 
L -3 -3 
z
" style="stroke: #000000; stroke-linejoin: miter"/>
    </defs>
    <g clip-path="url(#p8c6edf22ed)">
     <use xlink:href="#m74d140bbdd" x="72.603295" y="307.8" style="fill: #2ca02c; stroke: #000000; stroke-linejoin: miter"/>
     <use xlink:href="#m74d140bbdd" x="97.521956" y="170.388989" style="fill: #2ca02c; stroke: #000000; stroke-linejoin: miter"/>
     <use xlink:href="#m74d140bbdd" x="396.545879" y="307.8" style="fill: #2ca02c; stroke: #000000; stroke-linejoin: miter"/>
     <use xlink:href="#m74d140bbdd" x="421.464539" y="191.426542" style="fill: #2ca02c; stroke: #000000; stroke-linejoin: miter"/>
    </g>
   </g>
   <g id="line2d_25">
    <defs>
     <path id="m2592d24691" d="M -3 3 
L 3 3 
L 3 -3 
L -3 -3 
z
" style="stroke: #000000; stroke-linejoin: miter"/>
    </defs>
    <g clip-path="url(#p8c6edf22ed)">
     <use xlink:href="#m2592d24691" x="72.603295" y="307.8" style="fill: #d62728; stroke: #000000; stroke-linejoin: miter"/>
     <use xlink:href="#m2592d24691" x="97.521956" y="119.196652" style="fill: #d62728; stroke: #000000; stroke-linejoin: miter"/>
     <use xlink:href="#m2592d24691" x="396.545879" y="307.8" style="fill: #d62728; stroke: #000000; stroke-linejoin: miter"/>
     <use xlink:href="#m2592d24691" x="421.464539" y="143.649756" style="fill: #d62728; stroke: #000000; stroke-linejoin: miter"/>
    </g>
   </g>
   <g id="line2d_26">
    <defs>
     <path id="me235962362" d="M -3 3 
L 3 3 
L 3 -3 
L -3 -3 
z
" style="stroke: #000000; stroke-linejoin: miter"/>
    </defs>
    <g clip-path="url(#p8c6edf22ed)">
     <use xlink:href="#me235962362" x="72.603295" y="307.8" style="fill: #9467bd; stroke: #000000; stroke-linejoin: miter"/>
     <use xlink:href="#me235962362" x="97.521956" y="112.909873" style="fill: #9467bd; stroke: #000000; stroke-linejoin: miter"/>
     <use xlink:href="#me235962362" x="396.545879" y="307.8" style="fill: #9467bd; stroke: #000000; stroke-linejoin: miter"/>
     <use xlink:href="#me235962362" x="421.464539" y="112.042236" style="fill: #9467bd; stroke: #000000; stroke-linejoin: miter"/>
    </g>
   </g>
   <g id="line2d_27">
    <defs>
     <path id="mf64d0ae73d" d="M -3 3 
L 3 3 
L 3 -3 
L -3 -3 
z
" style="stroke: #000000; stroke-linejoin: miter"/>
    </defs>
    <g clip-path="url(#p8c6edf22ed)">
     <use xlink:href="#mf64d0ae73d" x="72.603295" y="307.8" style="fill: #8c564b; stroke: #000000; stroke-linejoin: miter"/>
     <use xlink:href="#mf64d0ae73d" x="97.521956" y="112.909873" style="fill: #8c564b; stroke: #000000; stroke-linejoin: miter"/>
     <use xlink:href="#mf64d0ae73d" x="396.545879" y="307.8" style="fill: #8c564b; stroke: #000000; stroke-linejoin: miter"/>
     <use xlink:href="#mf64d0ae73d" x="421.464539" y="112.766285" style="fill: #8c564b; stroke: #000000; stroke-linejoin: miter"/>
    </g>
   </g>
   <g id="patch_3">
    <path d="M 54.84875 320.4 
L 54.84875 43.2 
" style="fill: none; stroke: #000000; stroke-width: 0.8; stroke-linejoin: miter; stroke-linecap: square"/>
   </g>
   <g id="patch_4">
    <path d="M 445.44875 320.4 
L 445.44875 43.2 
" style="fill: none; stroke: #000000; stroke-width: 0.8; stroke-linejoin: miter; stroke-linecap: square"/>
   </g>
   <g id="patch_5">
    <path d="M 54.84875 320.4 
L 445.44875 320.4 
" style="fill: none; stroke: #000000; stroke-width: 0.8; stroke-linejoin: miter; stroke-linecap: square"/>
   </g>
   <g id="patch_6">
    <path d="M 54.84875 43.2 
L 445.44875 43.2 
" style="fill: none; stroke: #000000; stroke-width: 0.8; stroke-linejoin: miter; stroke-linecap: square"/>
   </g>
  </g>
  <g id="text_20">
   <!-- Komoroski2009 -->
   <g transform="translate(134.602656 26.196094) scale(0.25 -0.25)">
    <defs>
     <path id="DejaVuSans-Bold-4b" d="M 588 4666 
L 1791 4666 
L 1791 2963 
L 3525 4666 
L 4922 4666 
L 2675 2456 
L 5153 0 
L 3647 0 
L 1791 1838 
L 1791 0 
L 588 0 
L 588 4666 
z
" transform="scale(0.015625)"/>
     <path id="DejaVuSans-Bold-6f" d="M 2203 2784 
Q 1831 2784 1636 2517 
Q 1441 2250 1441 1747 
Q 1441 1244 1636 976 
Q 1831 709 2203 709 
Q 2569 709 2762 976 
Q 2956 1244 2956 1747 
Q 2956 2250 2762 2517 
Q 2569 2784 2203 2784 
z
M 2203 3584 
Q 3106 3584 3614 3096 
Q 4122 2609 4122 1747 
Q 4122 884 3614 396 
Q 3106 -91 2203 -91 
Q 1297 -91 786 396 
Q 275 884 275 1747 
Q 275 2609 786 3096 
Q 1297 3584 2203 3584 
z
" transform="scale(0.015625)"/>
     <path id="DejaVuSans-Bold-73" d="M 3272 3391 
L 3272 2541 
Q 2913 2691 2578 2766 
Q 2244 2841 1947 2841 
Q 1628 2841 1473 2761 
Q 1319 2681 1319 2516 
Q 1319 2381 1436 2309 
Q 1553 2238 1856 2203 
L 2053 2175 
Q 2913 2066 3209 1816 
Q 3506 1566 3506 1031 
Q 3506 472 3093 190 
Q 2681 -91 1863 -91 
Q 1516 -91 1145 -36 
Q 775 19 384 128 
L 384 978 
Q 719 816 1070 734 
Q 1422 653 1784 653 
Q 2113 653 2278 743 
Q 2444 834 2444 1013 
Q 2444 1163 2330 1236 
Q 2216 1309 1875 1350 
L 1678 1375 
Q 931 1469 631 1722 
Q 331 1975 331 2491 
Q 331 3047 712 3315 
Q 1094 3584 1881 3584 
Q 2191 3584 2531 3537 
Q 2872 3491 3272 3391 
z
" transform="scale(0.015625)"/>
     <path id="DejaVuSans-Bold-6b" d="M 538 4863 
L 1656 4863 
L 1656 2216 
L 2944 3500 
L 4244 3500 
L 2534 1894 
L 4378 0 
L 3022 0 
L 1656 1459 
L 1656 0 
L 538 0 
L 538 4863 
z
" transform="scale(0.015625)"/>
     <path id="DejaVuSans-Bold-32" d="M 1844 884 
L 3897 884 
L 3897 0 
L 506 0 
L 506 884 
L 2209 2388 
Q 2438 2594 2547 2791 
Q 2656 2988 2656 3200 
Q 2656 3528 2436 3728 
Q 2216 3928 1850 3928 
Q 1569 3928 1234 3808 
Q 900 3688 519 3450 
L 519 4475 
Q 925 4609 1322 4679 
Q 1719 4750 2100 4750 
Q 2938 4750 3402 4381 
Q 3866 4013 3866 3353 
Q 3866 2972 3669 2642 
Q 3472 2313 2841 1759 
L 1844 884 
z
" transform="scale(0.015625)"/>
     <path id="DejaVuSans-Bold-30" d="M 2944 2338 
Q 2944 3213 2780 3570 
Q 2616 3928 2228 3928 
Q 1841 3928 1675 3570 
Q 1509 3213 1509 2338 
Q 1509 1453 1675 1090 
Q 1841 728 2228 728 
Q 2613 728 2778 1090 
Q 2944 1453 2944 2338 
z
M 4147 2328 
Q 4147 1169 3647 539 
Q 3147 -91 2228 -91 
Q 1306 -91 806 539 
Q 306 1169 306 2328 
Q 306 3491 806 4120 
Q 1306 4750 2228 4750 
Q 3147 4750 3647 4120 
Q 4147 3491 4147 2328 
z
" transform="scale(0.015625)"/>
     <path id="DejaVuSans-Bold-39" d="M 641 103 
L 641 966 
Q 928 831 1190 764 
Q 1453 697 1709 697 
Q 2247 697 2547 995 
Q 2847 1294 2900 1881 
Q 2688 1725 2447 1647 
Q 2206 1569 1925 1569 
Q 1209 1569 770 1986 
Q 331 2403 331 3084 
Q 331 3838 820 4291 
Q 1309 4744 2131 4744 
Q 3044 4744 3544 4128 
Q 4044 3513 4044 2388 
Q 4044 1231 3459 570 
Q 2875 -91 1856 -91 
Q 1528 -91 1228 -42 
Q 928 6 641 103 
z
M 2125 2350 
Q 2441 2350 2600 2554 
Q 2759 2759 2759 3169 
Q 2759 3575 2600 3781 
Q 2441 3988 2125 3988 
Q 1809 3988 1650 3781 
Q 1491 3575 1491 3169 
Q 1491 2759 1650 2554 
Q 1809 2350 2125 2350 
z
" transform="scale(0.015625)"/>
    </defs>
    <use xlink:href="#DejaVuSans-Bold-4b"/>
    <use xlink:href="#DejaVuSans-Bold-6f" x="75.740234"/>
    <use xlink:href="#DejaVuSans-Bold-6d" x="144.441406"/>
    <use xlink:href="#DejaVuSans-Bold-6f" x="248.640625"/>
    <use xlink:href="#DejaVuSans-Bold-72" x="317.341797"/>
    <use xlink:href="#DejaVuSans-Bold-6f" x="366.658203"/>
    <use xlink:href="#DejaVuSans-Bold-73" x="435.359375"/>
    <use xlink:href="#DejaVuSans-Bold-6b" x="494.880859"/>
    <use xlink:href="#DejaVuSans-Bold-69" x="561.384766"/>
    <use xlink:href="#DejaVuSans-Bold-32" x="595.662109"/>
    <use xlink:href="#DejaVuSans-Bold-30" x="665.242188"/>
    <use xlink:href="#DejaVuSans-Bold-30" x="734.822266"/>
    <use xlink:href="#DejaVuSans-Bold-39" x="804.402344"/>
   </g>
  </g>
 </g>
 <defs>
  <clipPath id="p8c6edf22ed">
   <rect x="54.84875" y="43.2" width="390.6" height="277.2"/>
  </clipPath>
 </defs>
</svg>
