<?xml version="1.0" encoding="utf-8" standalone="no"?>
<!DOCTYPE svg PUBLIC "-//W3C//DTD SVG 1.1//EN"
  "http://www.w3.org/Graphics/SVG/1.1/DTD/svg11.dtd">
<svg xmlns:xlink="http://www.w3.org/1999/xlink" width="457.51605pt" height="370.537812pt" viewBox="0 0 457.51605 370.537812" xmlns="http://www.w3.org/2000/svg" version="1.1">
 <metadata>
  <rdf:RDF xmlns:dc="http://purl.org/dc/elements/1.1/" xmlns:cc="http://creativecommons.org/ns#" xmlns:rdf="http://www.w3.org/1999/02/22-rdf-syntax-ns#">
   <cc:Work>
    <dc:type rdf:resource="http://purl.org/dc/dcmitype/StillImage"/>
    <dc:date>2025-06-10T18:17:27.126265</dc:date>
    <dc:format>image/svg+xml</dc:format>
    <dc:creator>
     <cc:Agent>
      <dc:title>Matplotlib v3.9.1, https://matplotlib.org/</dc:title>
     </cc:Agent>
    </dc:creator>
   </cc:Work>
  </rdf:RDF>
 </metadata>
 <defs>
  <style type="text/css">*{stroke-linejoin: round; stroke-linecap: butt}</style>
 </defs>
 <g id="figure_1">
  <g id="patch_1">
   <path d="M 0 370.537812 
L 457.51605 370.537812 
L 457.51605 0 
L 0 0 
z
" style="fill: #ffffff"/>
  </g>
  <g id="axes_1">
   <g id="patch_2">
    <path d="M 54.84875 320.4 
L 445.44875 320.4 
L 445.44875 43.2 
L 54.84875 43.2 
z
" style="fill: #ffffff"/>
   </g>
   <g id="matplotlib.axis_1">
    <g id="xtick_1">
     <g id="line2d_1">
      <defs>
       <path id="mc82f7a06d8" d="M 0 0 
L 0 3.5 
" style="stroke: #000000; stroke-width: 0.8"/>
      </defs>
      <g>
       <use xlink:href="#mc82f7a06d8" x="72.603295" y="320.4" style="stroke: #000000; stroke-width: 0.8"/>
      </g>
     </g>
     <g id="text_1">
      <!-- 0 -->
      <g transform="translate(67.83142 338.797656) scale(0.15 -0.15)">
       <defs>
        <path id="DejaVuSans-30" d="M 2034 4250 
Q 1547 4250 1301 3770 
Q 1056 3291 1056 2328 
Q 1056 1369 1301 889 
Q 1547 409 2034 409 
Q 2525 409 2770 889 
Q 3016 1369 3016 2328 
Q 3016 3291 2770 3770 
Q 2525 4250 2034 4250 
z
M 2034 4750 
Q 2819 4750 3233 4129 
Q 3647 3509 3647 2328 
Q 3647 1150 3233 529 
Q 2819 -91 2034 -91 
Q 1250 -91 836 529 
Q 422 1150 422 2328 
Q 422 3509 836 4129 
Q 1250 4750 2034 4750 
z
" transform="scale(0.015625)"/>
       </defs>
       <use xlink:href="#DejaVuSans-30"/>
      </g>
     </g>
    </g>
    <g id="xtick_2">
     <g id="line2d_2">
      <g>
       <use xlink:href="#mc82f7a06d8" x="124.517171" y="320.4" style="stroke: #000000; stroke-width: 0.8"/>
      </g>
     </g>
     <g id="text_2">
      <!-- 50 -->
      <g transform="translate(114.973421 338.797656) scale(0.15 -0.15)">
       <defs>
        <path id="DejaVuSans-35" d="M 691 4666 
L 3169 4666 
L 3169 4134 
L 1269 4134 
L 1269 2991 
Q 1406 3038 1543 3061 
Q 1681 3084 1819 3084 
Q 2600 3084 3056 2656 
Q 3513 2228 3513 1497 
Q 3513 744 3044 326 
Q 2575 -91 1722 -91 
Q 1428 -91 1123 -41 
Q 819 9 494 109 
L 494 744 
Q 775 591 1075 516 
Q 1375 441 1709 441 
Q 2250 441 2565 725 
Q 2881 1009 2881 1497 
Q 2881 1984 2565 2268 
Q 2250 2553 1709 2553 
Q 1456 2553 1204 2497 
Q 953 2441 691 2322 
L 691 4666 
z
" transform="scale(0.015625)"/>
       </defs>
       <use xlink:href="#DejaVuSans-35"/>
       <use xlink:href="#DejaVuSans-30" x="63.623047"/>
      </g>
     </g>
    </g>
    <g id="xtick_3">
     <g id="line2d_3">
      <g>
       <use xlink:href="#mc82f7a06d8" x="176.431047" y="320.4" style="stroke: #000000; stroke-width: 0.8"/>
      </g>
     </g>
     <g id="text_3">
      <!-- 100 -->
      <g transform="translate(162.115422 338.797656) scale(0.15 -0.15)">
       <defs>
        <path id="DejaVuSans-31" d="M 794 531 
L 1825 531 
L 1825 4091 
L 703 3866 
L 703 4441 
L 1819 4666 
L 2450 4666 
L 2450 531 
L 3481 531 
L 3481 0 
L 794 0 
L 794 531 
z
" transform="scale(0.015625)"/>
       </defs>
       <use xlink:href="#DejaVuSans-31"/>
       <use xlink:href="#DejaVuSans-30" x="63.623047"/>
       <use xlink:href="#DejaVuSans-30" x="127.246094"/>
      </g>
     </g>
    </g>
    <g id="xtick_4">
     <g id="line2d_4">
      <g>
       <use xlink:href="#mc82f7a06d8" x="228.344922" y="320.4" style="stroke: #000000; stroke-width: 0.8"/>
      </g>
     </g>
     <g id="text_4">
      <!-- 150 -->
      <g transform="translate(214.029297 338.797656) scale(0.15 -0.15)">
       <use xlink:href="#DejaVuSans-31"/>
       <use xlink:href="#DejaVuSans-35" x="63.623047"/>
       <use xlink:href="#DejaVuSans-30" x="127.246094"/>
      </g>
     </g>
    </g>
    <g id="xtick_5">
     <g id="line2d_5">
      <g>
       <use xlink:href="#mc82f7a06d8" x="280.258798" y="320.4" style="stroke: #000000; stroke-width: 0.8"/>
      </g>
     </g>
     <g id="text_5">
      <!-- 200 -->
      <g transform="translate(265.943173 338.797656) scale(0.15 -0.15)">
       <defs>
        <path id="DejaVuSans-32" d="M 1228 531 
L 3431 531 
L 3431 0 
L 469 0 
L 469 531 
Q 828 903 1448 1529 
Q 2069 2156 2228 2338 
Q 2531 2678 2651 2914 
Q 2772 3150 2772 3378 
Q 2772 3750 2511 3984 
Q 2250 4219 1831 4219 
Q 1534 4219 1204 4116 
Q 875 4013 500 3803 
L 500 4441 
Q 881 4594 1212 4672 
Q 1544 4750 1819 4750 
Q 2544 4750 2975 4387 
Q 3406 4025 3406 3419 
Q 3406 3131 3298 2873 
Q 3191 2616 2906 2266 
Q 2828 2175 2409 1742 
Q 1991 1309 1228 531 
z
" transform="scale(0.015625)"/>
       </defs>
       <use xlink:href="#DejaVuSans-32"/>
       <use xlink:href="#DejaVuSans-30" x="63.623047"/>
       <use xlink:href="#DejaVuSans-30" x="127.246094"/>
      </g>
     </g>
    </g>
    <g id="xtick_6">
     <g id="line2d_6">
      <g>
       <use xlink:href="#mc82f7a06d8" x="332.172673" y="320.4" style="stroke: #000000; stroke-width: 0.8"/>
      </g>
     </g>
     <g id="text_6">
      <!-- 250 -->
      <g transform="translate(317.857048 338.797656) scale(0.15 -0.15)">
       <use xlink:href="#DejaVuSans-32"/>
       <use xlink:href="#DejaVuSans-35" x="63.623047"/>
       <use xlink:href="#DejaVuSans-30" x="127.246094"/>
      </g>
     </g>
    </g>
    <g id="xtick_7">
     <g id="line2d_7">
      <g>
       <use xlink:href="#mc82f7a06d8" x="384.086549" y="320.4" style="stroke: #000000; stroke-width: 0.8"/>
      </g>
     </g>
     <g id="text_7">
      <!-- 300 -->
      <g transform="translate(369.770924 338.797656) scale(0.15 -0.15)">
       <defs>
        <path id="DejaVuSans-33" d="M 2597 2516 
Q 3050 2419 3304 2112 
Q 3559 1806 3559 1356 
Q 3559 666 3084 287 
Q 2609 -91 1734 -91 
Q 1441 -91 1130 -33 
Q 819 25 488 141 
L 488 750 
Q 750 597 1062 519 
Q 1375 441 1716 441 
Q 2309 441 2620 675 
Q 2931 909 2931 1356 
Q 2931 1769 2642 2001 
Q 2353 2234 1838 2234 
L 1294 2234 
L 1294 2753 
L 1863 2753 
Q 2328 2753 2575 2939 
Q 2822 3125 2822 3475 
Q 2822 3834 2567 4026 
Q 2313 4219 1838 4219 
Q 1578 4219 1281 4162 
Q 984 4106 628 3988 
L 628 4550 
Q 988 4650 1302 4700 
Q 1616 4750 1894 4750 
Q 2613 4750 3031 4423 
Q 3450 4097 3450 3541 
Q 3450 3153 3228 2886 
Q 3006 2619 2597 2516 
z
" transform="scale(0.015625)"/>
       </defs>
       <use xlink:href="#DejaVuSans-33"/>
       <use xlink:href="#DejaVuSans-30" x="63.623047"/>
       <use xlink:href="#DejaVuSans-30" x="127.246094"/>
      </g>
     </g>
    </g>
    <g id="xtick_8">
     <g id="line2d_8">
      <g>
       <use xlink:href="#mc82f7a06d8" x="436.000425" y="320.4" style="stroke: #000000; stroke-width: 0.8"/>
      </g>
     </g>
     <g id="text_8">
      <!-- 350 -->
      <g transform="translate(421.6848 338.797656) scale(0.15 -0.15)">
       <use xlink:href="#DejaVuSans-33"/>
       <use xlink:href="#DejaVuSans-35" x="63.623047"/>
       <use xlink:href="#DejaVuSans-30" x="127.246094"/>
      </g>
     </g>
    </g>
    <g id="text_9">
     <!-- time [hr] -->
     <g transform="translate(205.074219 359.594375) scale(0.18 -0.18)">
      <defs>
       <path id="DejaVuSans-Bold-74" d="M 1759 4494 
L 1759 3500 
L 2913 3500 
L 2913 2700 
L 1759 2700 
L 1759 1216 
Q 1759 972 1856 886 
Q 1953 800 2241 800 
L 2816 800 
L 2816 0 
L 1856 0 
Q 1194 0 917 276 
Q 641 553 641 1216 
L 641 2700 
L 84 2700 
L 84 3500 
L 641 3500 
L 641 4494 
L 1759 4494 
z
" transform="scale(0.015625)"/>
       <path id="DejaVuSans-Bold-69" d="M 538 3500 
L 1656 3500 
L 1656 0 
L 538 0 
L 538 3500 
z
M 538 4863 
L 1656 4863 
L 1656 3950 
L 538 3950 
L 538 4863 
z
" transform="scale(0.015625)"/>
       <path id="DejaVuSans-Bold-6d" d="M 3781 2919 
Q 3994 3244 4286 3414 
Q 4578 3584 4928 3584 
Q 5531 3584 5847 3212 
Q 6163 2841 6163 2131 
L 6163 0 
L 5038 0 
L 5038 1825 
Q 5041 1866 5042 1909 
Q 5044 1953 5044 2034 
Q 5044 2406 4934 2573 
Q 4825 2741 4581 2741 
Q 4263 2741 4089 2478 
Q 3916 2216 3909 1719 
L 3909 0 
L 2784 0 
L 2784 1825 
Q 2784 2406 2684 2573 
Q 2584 2741 2328 2741 
Q 2006 2741 1831 2477 
Q 1656 2213 1656 1722 
L 1656 0 
L 531 0 
L 531 3500 
L 1656 3500 
L 1656 2988 
Q 1863 3284 2130 3434 
Q 2397 3584 2719 3584 
Q 3081 3584 3359 3409 
Q 3638 3234 3781 2919 
z
" transform="scale(0.015625)"/>
       <path id="DejaVuSans-Bold-65" d="M 4031 1759 
L 4031 1441 
L 1416 1441 
Q 1456 1047 1700 850 
Q 1944 653 2381 653 
Q 2734 653 3104 758 
Q 3475 863 3866 1075 
L 3866 213 
Q 3469 63 3072 -14 
Q 2675 -91 2278 -91 
Q 1328 -91 801 392 
Q 275 875 275 1747 
Q 275 2603 792 3093 
Q 1309 3584 2216 3584 
Q 3041 3584 3536 3087 
Q 4031 2591 4031 1759 
z
M 2881 2131 
Q 2881 2450 2695 2645 
Q 2509 2841 2209 2841 
Q 1884 2841 1681 2658 
Q 1478 2475 1428 2131 
L 2881 2131 
z
" transform="scale(0.015625)"/>
       <path id="DejaVuSans-Bold-20" transform="scale(0.015625)"/>
       <path id="DejaVuSans-Bold-5b" d="M 550 4863 
L 2491 4863 
L 2491 4159 
L 1613 4159 
L 1613 -141 
L 2491 -141 
L 2491 -844 
L 550 -844 
L 550 4863 
z
" transform="scale(0.015625)"/>
       <path id="DejaVuSans-Bold-68" d="M 4056 2131 
L 4056 0 
L 2931 0 
L 2931 347 
L 2931 1625 
Q 2931 2084 2911 2256 
Q 2891 2428 2841 2509 
Q 2775 2619 2662 2680 
Q 2550 2741 2406 2741 
Q 2056 2741 1856 2470 
Q 1656 2200 1656 1722 
L 1656 0 
L 538 0 
L 538 4863 
L 1656 4863 
L 1656 2988 
Q 1909 3294 2193 3439 
Q 2478 3584 2822 3584 
Q 3428 3584 3742 3212 
Q 4056 2841 4056 2131 
z
" transform="scale(0.015625)"/>
       <path id="DejaVuSans-Bold-72" d="M 3138 2547 
Q 2991 2616 2845 2648 
Q 2700 2681 2553 2681 
Q 2122 2681 1889 2404 
Q 1656 2128 1656 1613 
L 1656 0 
L 538 0 
L 538 3500 
L 1656 3500 
L 1656 2925 
Q 1872 3269 2151 3426 
Q 2431 3584 2822 3584 
Q 2878 3584 2943 3579 
Q 3009 3575 3134 3559 
L 3138 2547 
z
" transform="scale(0.015625)"/>
       <path id="DejaVuSans-Bold-5d" d="M 2375 -844 
L 434 -844 
L 434 -141 
L 1313 -141 
L 1313 4159 
L 434 4159 
L 434 4863 
L 2375 4863 
L 2375 -844 
z
" transform="scale(0.015625)"/>
      </defs>
      <use xlink:href="#DejaVuSans-Bold-74"/>
      <use xlink:href="#DejaVuSans-Bold-69" x="47.802734"/>
      <use xlink:href="#DejaVuSans-Bold-6d" x="82.080078"/>
      <use xlink:href="#DejaVuSans-Bold-65" x="186.279297"/>
      <use xlink:href="#DejaVuSans-Bold-20" x="254.101562"/>
      <use xlink:href="#DejaVuSans-Bold-5b" x="288.916016"/>
      <use xlink:href="#DejaVuSans-Bold-68" x="334.619141"/>
      <use xlink:href="#DejaVuSans-Bold-72" x="405.810547"/>
      <use xlink:href="#DejaVuSans-Bold-5d" x="455.126953"/>
     </g>
    </g>
   </g>
   <g id="matplotlib.axis_2">
    <g id="ytick_1">
     <g id="line2d_9">
      <defs>
       <path id="m3996a4456d" d="M 0 0 
L -3.5 0 
" style="stroke: #000000; stroke-width: 0.8"/>
      </defs>
      <g>
       <use xlink:href="#m3996a4456d" x="54.84875" y="307.8" style="stroke: #000000; stroke-width: 0.8"/>
      </g>
     </g>
     <g id="text_10">
      <!-- 0 -->
      <g transform="translate(38.305 313.498828) scale(0.15 -0.15)">
       <use xlink:href="#DejaVuSans-30"/>
      </g>
     </g>
    </g>
    <g id="ytick_2">
     <g id="line2d_10">
      <g>
       <use xlink:href="#m3996a4456d" x="54.84875" y="246.569604" style="stroke: #000000; stroke-width: 0.8"/>
      </g>
     </g>
     <g id="text_11">
      <!-- 20 -->
      <g transform="translate(28.76125 252.268433) scale(0.15 -0.15)">
       <use xlink:href="#DejaVuSans-32"/>
       <use xlink:href="#DejaVuSans-30" x="63.623047"/>
      </g>
     </g>
    </g>
    <g id="ytick_3">
     <g id="line2d_11">
      <g>
       <use xlink:href="#m3996a4456d" x="54.84875" y="185.339209" style="stroke: #000000; stroke-width: 0.8"/>
      </g>
     </g>
     <g id="text_12">
      <!-- 40 -->
      <g transform="translate(28.76125 191.038037) scale(0.15 -0.15)">
       <defs>
        <path id="DejaVuSans-34" d="M 2419 4116 
L 825 1625 
L 2419 1625 
L 2419 4116 
z
M 2253 4666 
L 3047 4666 
L 3047 1625 
L 3713 1625 
L 3713 1100 
L 3047 1100 
L 3047 0 
L 2419 0 
L 2419 1100 
L 313 1100 
L 313 1709 
L 2253 4666 
z
" transform="scale(0.015625)"/>
       </defs>
       <use xlink:href="#DejaVuSans-34"/>
       <use xlink:href="#DejaVuSans-30" x="63.623047"/>
      </g>
     </g>
    </g>
    <g id="ytick_4">
     <g id="line2d_12">
      <g>
       <use xlink:href="#m3996a4456d" x="54.84875" y="124.108813" style="stroke: #000000; stroke-width: 0.8"/>
      </g>
     </g>
     <g id="text_13">
      <!-- 60 -->
      <g transform="translate(28.76125 129.807642) scale(0.15 -0.15)">
       <defs>
        <path id="DejaVuSans-36" d="M 2113 2584 
Q 1688 2584 1439 2293 
Q 1191 2003 1191 1497 
Q 1191 994 1439 701 
Q 1688 409 2113 409 
Q 2538 409 2786 701 
Q 3034 994 3034 1497 
Q 3034 2003 2786 2293 
Q 2538 2584 2113 2584 
z
M 3366 4563 
L 3366 3988 
Q 3128 4100 2886 4159 
Q 2644 4219 2406 4219 
Q 1781 4219 1451 3797 
Q 1122 3375 1075 2522 
Q 1259 2794 1537 2939 
Q 1816 3084 2150 3084 
Q 2853 3084 3261 2657 
Q 3669 2231 3669 1497 
Q 3669 778 3244 343 
Q 2819 -91 2113 -91 
Q 1303 -91 875 529 
Q 447 1150 447 2328 
Q 447 3434 972 4092 
Q 1497 4750 2381 4750 
Q 2619 4750 2861 4703 
Q 3103 4656 3366 4563 
z
" transform="scale(0.015625)"/>
       </defs>
       <use xlink:href="#DejaVuSans-36"/>
       <use xlink:href="#DejaVuSans-30" x="63.623047"/>
      </g>
     </g>
    </g>
    <g id="ytick_5">
     <g id="line2d_13">
      <g>
       <use xlink:href="#m3996a4456d" x="54.84875" y="62.878418" style="stroke: #000000; stroke-width: 0.8"/>
      </g>
     </g>
     <g id="text_14">
      <!-- 80 -->
      <g transform="translate(28.76125 68.577246) scale(0.15 -0.15)">
       <defs>
        <path id="DejaVuSans-38" d="M 2034 2216 
Q 1584 2216 1326 1975 
Q 1069 1734 1069 1313 
Q 1069 891 1326 650 
Q 1584 409 2034 409 
Q 2484 409 2743 651 
Q 3003 894 3003 1313 
Q 3003 1734 2745 1975 
Q 2488 2216 2034 2216 
z
M 1403 2484 
Q 997 2584 770 2862 
Q 544 3141 544 3541 
Q 544 4100 942 4425 
Q 1341 4750 2034 4750 
Q 2731 4750 3128 4425 
Q 3525 4100 3525 3541 
Q 3525 3141 3298 2862 
Q 3072 2584 2669 2484 
Q 3125 2378 3379 2068 
Q 3634 1759 3634 1313 
Q 3634 634 3220 271 
Q 2806 -91 2034 -91 
Q 1263 -91 848 271 
Q 434 634 434 1313 
Q 434 1759 690 2068 
Q 947 2378 1403 2484 
z
M 1172 3481 
Q 1172 3119 1398 2916 
Q 1625 2713 2034 2713 
Q 2441 2713 2670 2916 
Q 2900 3119 2900 3481 
Q 2900 3844 2670 4047 
Q 2441 4250 2034 4250 
Q 1625 4250 1398 4047 
Q 1172 3844 1172 3481 
z
" transform="scale(0.015625)"/>
       </defs>
       <use xlink:href="#DejaVuSans-38"/>
       <use xlink:href="#DejaVuSans-30" x="63.623047"/>
      </g>
     </g>
    </g>
    <g id="text_15">
     <!-- UGE [g] -->
     <g transform="translate(20.877188 220.445156) rotate(-90) scale(0.18 -0.18)">
      <defs>
       <path id="DejaVuSans-Bold-55" d="M 588 4666 
L 1791 4666 
L 1791 1869 
Q 1791 1291 1980 1042 
Q 2169 794 2597 794 
Q 3028 794 3217 1042 
Q 3406 1291 3406 1869 
L 3406 4666 
L 4609 4666 
L 4609 1869 
Q 4609 878 4112 393 
Q 3616 -91 2597 -91 
Q 1581 -91 1084 393 
Q 588 878 588 1869 
L 588 4666 
z
" transform="scale(0.015625)"/>
       <path id="DejaVuSans-Bold-47" d="M 4781 347 
Q 4331 128 3847 18 
Q 3363 -91 2847 -91 
Q 1681 -91 1000 561 
Q 319 1213 319 2328 
Q 319 3456 1012 4103 
Q 1706 4750 2913 4750 
Q 3378 4750 3804 4662 
Q 4231 4575 4609 4403 
L 4609 3438 
Q 4219 3659 3833 3768 
Q 3447 3878 3059 3878 
Q 2341 3878 1952 3476 
Q 1563 3075 1563 2328 
Q 1563 1588 1938 1184 
Q 2313 781 3003 781 
Q 3191 781 3352 804 
Q 3513 828 3641 878 
L 3641 1784 
L 2906 1784 
L 2906 2591 
L 4781 2591 
L 4781 347 
z
" transform="scale(0.015625)"/>
       <path id="DejaVuSans-Bold-45" d="M 588 4666 
L 3834 4666 
L 3834 3756 
L 1791 3756 
L 1791 2888 
L 3713 2888 
L 3713 1978 
L 1791 1978 
L 1791 909 
L 3903 909 
L 3903 0 
L 588 0 
L 588 4666 
z
" transform="scale(0.015625)"/>
       <path id="DejaVuSans-Bold-67" d="M 2919 594 
Q 2688 288 2409 144 
Q 2131 0 1766 0 
Q 1125 0 706 504 
Q 288 1009 288 1791 
Q 288 2575 706 3076 
Q 1125 3578 1766 3578 
Q 2131 3578 2409 3434 
Q 2688 3291 2919 2981 
L 2919 3500 
L 4044 3500 
L 4044 353 
Q 4044 -491 3511 -936 
Q 2978 -1381 1966 -1381 
Q 1638 -1381 1331 -1331 
Q 1025 -1281 716 -1178 
L 716 -306 
Q 1009 -475 1290 -558 
Q 1572 -641 1856 -641 
Q 2406 -641 2662 -400 
Q 2919 -159 2919 353 
L 2919 594 
z
M 2181 2772 
Q 1834 2772 1640 2515 
Q 1447 2259 1447 1791 
Q 1447 1309 1634 1061 
Q 1822 813 2181 813 
Q 2531 813 2725 1069 
Q 2919 1325 2919 1791 
Q 2919 2259 2725 2515 
Q 2531 2772 2181 2772 
z
" transform="scale(0.015625)"/>
      </defs>
      <use xlink:href="#DejaVuSans-Bold-55"/>
      <use xlink:href="#DejaVuSans-Bold-47" x="81.201172"/>
      <use xlink:href="#DejaVuSans-Bold-45" x="163.28125"/>
      <use xlink:href="#DejaVuSans-Bold-20" x="231.591797"/>
      <use xlink:href="#DejaVuSans-Bold-5b" x="266.40625"/>
      <use xlink:href="#DejaVuSans-Bold-67" x="312.109375"/>
      <use xlink:href="#DejaVuSans-Bold-5d" x="383.691406"/>
     </g>
    </g>
   </g>
   <g id="line2d_14">
    <path d="M 72.603295 307.8 
L 72.752807 307.787477 
L 72.902319 307.24422 
L 73.500367 303.442206 
L 75.144999 293.105758 
L 76.091908 288.473086 
L 76.839468 285.833355 
L 77.387678 284.581148 
L 77.836214 284.027993 
L 78.185075 283.902031 
L 97.521956 283.902031 
L 97.521956 307.8 
L 97.62163 307.8 
L 97.721305 307.65315 
L 98.020329 306.039708 
L 100.61187 290.136081 
L 101.459104 286.54145 
L 102.106989 284.616463 
L 102.6552 283.612916 
L 103.053898 283.25925 
L 103.452597 283.199919 
L 122.440616 283.199919 
L 122.440616 307.8 
L 122.540291 307.8 
L 122.639965 307.633824 
L 122.938989 306.0038 
L 125.53053 290.018279 
L 126.427602 286.159728 
L 127.125324 284.064614 
L 127.673535 283.033264 
L 128.122071 282.602837 
L 128.520769 282.520091 
L 147.359276 282.520091 
L 147.359276 307.8 
L 147.458951 307.8 
L 147.558626 307.615244 
L 147.85765 305.970618 
L 150.44919 289.912302 
L 151.346262 285.976095 
L 152.043984 283.778564 
L 152.642032 282.553029 
L 153.140406 282.002722 
L 153.539104 281.861939 
L 172.277937 281.861644 
L 172.277937 307.8 
L 172.377611 307.8 
L 172.477286 307.597477 
L 172.77631 305.939946 
L 175.417688 289.565733 
L 176.31476 285.62387 
L 177.062319 283.262902 
L 177.660367 282.024693 
L 178.15874 281.433777 
L 178.607276 281.229257 
L 179.853209 281.223678 
L 197.196597 281.223678 
L 197.196597 307.8 
L 197.296272 307.799999 
L 197.395946 307.580562 
L 197.744807 305.588233 
L 200.136999 290.508761 
L 201.083908 286.062871 
L 201.881305 283.302095 
L 202.52919 281.777419 
L 203.077401 280.988918 
L 203.525937 280.668246 
L 203.974472 280.605269 
L 222.115257 280.605269 
L 222.115257 307.8 
L 222.214932 307.799269 
L 222.314606 307.564511 
L 222.663468 305.561241 
L 225.105496 290.172327 
L 226.102243 285.534725 
L 226.89964 282.813827 
L 227.547525 281.293856 
L 228.145573 280.428529 
L 228.643946 280.073817 
L 229.142319 280.005464 
L 247.033917 280.005464 
L 247.033917 307.8 
L 247.133592 307.797416 
L 247.233267 307.549322 
L 247.582128 305.536287 
L 250.024157 290.105157 
L 251.020903 285.416742 
L 251.8183 282.625409 
L 252.516023 280.923386 
L 253.114071 279.997314 
L 253.662281 279.544271 
L 254.160654 279.423264 
L 271.952578 279.423264 
L 271.952578 307.8 
L 272.052252 307.794744 
L 272.201764 307.310185 
L 272.700138 304.175407 
L 274.643793 291.690151 
L 275.690377 286.377596 
L 276.537611 283.088604 
L 277.285171 281.001611 
L 277.933056 279.798177 
L 278.531104 279.144233 
L 279.029477 278.894499 
L 279.627525 278.857612 
L 296.871238 278.857612 
L 296.871238 307.8 
L 296.970913 307.791483 
L 297.120425 307.294366 
L 297.618798 304.152232 
L 299.562453 291.642303 
L 300.658874 286.072076 
L 301.555946 282.623119 
L 302.303506 280.565491 
L 302.951391 279.360863 
L 303.549439 278.679656 
L 304.09765 278.370349 
L 304.695697 278.307375 
L 321.789898 278.307375 
L 321.789898 307.8 
L 321.889573 307.787814 
L 322.039085 307.279587 
L 322.537458 304.130824 
L 324.481114 291.598633 
L 325.577535 285.994559 
L 326.474606 282.494737 
L 327.222166 280.372926 
L 327.919889 279.016185 
L 328.517937 278.282288 
L 329.115984 277.886875 
L 329.714032 277.771314 
L 346.708559 277.771313 
L 346.708559 307.8 
L 346.808233 307.783871 
L 346.957745 307.265786 
L 347.505956 303.770567 
L 349.399774 291.558739 
L 350.496195 285.924288 
L 351.393267 282.379083 
L 352.190664 280.079575 
L 352.888386 278.691397 
L 353.536272 277.862723 
L 354.134319 277.429853 
L 354.732367 277.257219 
L 356.077975 277.248049 
L 371.627219 277.248049 
L 371.627219 307.8 
L 371.726894 307.779761 
L 371.876406 307.252902 
L 372.424616 303.751978 
L 374.318434 291.522264 
L 375.414855 285.860503 
L 376.311927 282.274717 
L 377.109324 279.92052 
L 377.856884 278.384595 
L 378.504769 277.513337 
L 379.152654 276.99709 
L 379.800539 276.765574 
L 380.647774 276.736008 
L 396.545879 276.736008 
L 396.545879 307.8 
L 396.608176 307.8 
L 396.732769 307.526839 
L 397.106549 305.338541 
L 399.536118 289.811456 
L 400.595161 284.645712 
L 401.467315 281.387689 
L 402.277171 279.178078 
L 403.024731 277.774491 
L 403.709994 276.943211 
L 404.395257 276.46329 
L 405.08052 276.256241 
L 406.139563 276.233341 
L 427.694205 276.233341 
L 427.694205 276.233341 
" clip-path="url(#p55d961e7e6)" style="fill: none; stroke: #1f77b4; stroke-width: 2; stroke-linecap: square"/>
   </g>
   <g id="line2d_15">
    <path d="M 72.603295 307.8 
L 72.70297 307.736575 
L 72.952157 306.076211 
L 77.138492 274.645506 
L 78.28475 268.051533 
L 79.181822 264.10216 
L 79.879544 261.9197 
L 80.477592 260.712235 
L 80.975965 260.170971 
L 81.374664 260.028138 
L 88.252214 260.027332 
L 97.521956 260.027332 
L 97.521956 307.8 
L 97.62163 307.698759 
L 97.920654 305.628741 
L 101.807965 276.10762 
L 103.103736 268.216316 
L 104.100482 263.405065 
L 104.947717 260.325415 
L 105.695276 258.387077 
L 106.343161 257.250881 
L 106.941209 256.591098 
L 107.539257 256.243176 
L 108.137305 256.147044 
L 122.440616 256.147044 
L 122.440616 307.8 
L 122.540291 307.654519 
L 122.889152 305.174379 
L 126.577114 276.98116 
L 127.972559 268.198347 
L 129.06898 262.609404 
L 130.015889 258.830912 
L 130.912961 256.101817 
L 131.810032 254.067534 
L 132.707104 252.56335 
L 133.70385 251.327017 
L 134.850109 250.268295 
L 136.295391 249.251223 
L 138.288884 248.140678 
L 141.129611 246.826541 
L 144.717898 245.412788 
L 147.359276 244.512885 
L 147.359276 307.8 
L 147.458951 307.591181 
L 147.807812 305.093811 
L 151.545611 276.498545 
L 152.990894 267.353029 
L 154.186989 261.166178 
L 155.28341 256.655254 
L 156.329994 253.245016 
L 157.476252 250.253924 
L 158.82186 247.379045 
L 160.566166 244.20394 
L 163.157707 239.98526 
L 167.244367 233.78743 
L 172.178262 226.70542 
L 172.277937 226.566344 
L 172.277937 307.8 
L 172.377611 307.52053 
L 172.77631 304.61548 
L 176.31476 277.399905 
L 177.859717 267.387143 
L 179.10565 260.681258 
L 180.301745 255.420141 
L 181.547678 250.937397 
L 182.992961 246.587235 
L 184.886779 241.627324 
L 187.877018 234.483023 
L 192.910587 223.078211 
L 197.196597 213.69998 
L 197.196597 307.8 
L 197.296272 307.468819 
L 197.69497 304.551256 
L 201.283257 276.944047 
L 202.828214 266.881168 
L 204.173822 259.533961 
L 205.469592 253.664296 
L 206.914874 248.159822 
L 208.758855 242.065448 
L 211.599583 233.537229 
L 216.732827 218.917794 
L 222.115257 204.063759 
L 222.115257 307.8 
L 222.214932 307.429419 
L 222.663468 304.105423 
L 226.102243 277.560277 
L 227.746874 266.702592 
L 229.142319 258.92096 
L 230.537764 252.364327 
L 232.182396 245.735469 
L 234.425075 237.684332 
L 238.362224 224.494492 
L 245.189937 202.440595 
L 247.033917 196.598724 
L 247.033917 307.8 
L 247.133592 307.398485 
L 247.582128 304.065023 
L 251.07074 277.134456 
L 252.715372 266.245552 
L 254.160654 258.090431 
L 255.705611 250.668689 
L 257.549592 242.938805 
L 260.390319 232.094228 
L 265.872425 212.182378 
L 271.952578 190.664213 
L 271.952578 307.8 
L 272.052252 307.373632 
L 272.550626 303.634471 
L 275.939563 277.428009 
L 277.634032 266.111593 
L 279.178989 257.28504 
L 280.823621 249.218479 
L 282.916788 240.129325 
L 286.405401 226.104016 
L 293.332788 199.289343 
L 296.871238 185.849422 
L 296.871238 307.8 
L 296.970913 307.353294 
L 297.469286 303.606771 
L 300.858224 277.375739 
L 302.60253 265.685424 
L 304.197324 256.500826 
L 305.94163 247.793926 
L 308.283984 237.31225 
L 312.520157 219.53199 
L 320.543965 186.875814 
L 321.789898 181.878562 
L 321.789898 307.8 
L 321.889573 307.336403 
L 322.387946 303.583401 
L 325.776884 277.330383 
L 327.52119 265.581469 
L 329.165822 256.004362 
L 331.009803 246.631263 
L 333.601343 234.713855 
L 338.634913 212.803381 
L 346.708559 178.559457 
L 346.708559 307.8 
L 346.808233 307.322202 
L 347.356444 303.164633 
L 350.695544 277.290743 
L 352.489688 265.176607 
L 354.184157 255.256485 
L 356.127812 245.25323 
L 359.018377 231.671923 
L 364.949018 205.07798 
L 371.627219 175.754004 
L 371.627219 307.8 
L 371.726894 307.31014 
L 372.275104 303.147391 
L 375.614205 277.255895 
L 377.458185 264.779697 
L 379.202492 254.522191 
L 381.245822 243.892557 
L 384.43541 228.62193 
L 391.263123 197.225674 
L 396.545879 173.360351 
L 396.545879 307.8 
L 396.608176 307.508185 
L 397.044252 304.326314 
L 400.782051 275.437951 
L 402.588654 263.374273 
L 404.395257 252.838569 
L 406.637937 241.174103 
L 410.438032 222.780601 
L 418.66119 184.251616 
L 427.694205 142.836288 
L 427.694205 142.836288 
" clip-path="url(#p55d961e7e6)" style="fill: none; stroke: #2ca02c; stroke-width: 2; stroke-linecap: square"/>
   </g>
   <g id="line2d_16">
    <path d="M 72.603295 307.8 
L 72.653133 307.8 
L 72.802645 306.939317 
L 74.7463 291.05548 
L 77.337841 270.91595 
L 78.832961 260.868804 
L 79.929382 254.840771 
L 80.876291 250.816191 
L 81.673688 248.336511 
L 82.37141 246.81444 
L 83.019295 245.877249 
L 83.667181 245.3229 
L 84.265228 245.084879 
L 85.012788 245.043657 
L 97.521956 245.043657 
L 97.521956 307.8 
L 97.62163 307.554945 
L 98.219678 302.816687 
L 101.957477 272.961473 
L 103.651946 261.129925 
L 104.947717 253.523595 
L 106.093975 248.041971 
L 107.190396 243.822863 
L 108.386492 240.10635 
L 109.732099 236.651357 
L 111.526243 232.691904 
L 114.217458 227.341538 
L 118.65298 219.0612 
L 122.440616 212.26953 
L 122.440616 307.8 
L 122.540291 307.429867 
L 123.188176 302.26828 
L 126.876138 272.776835 
L 128.670281 260.131489 
L 130.115563 251.434989 
L 131.511008 244.379279 
L 133.006128 237.957366 
L 134.949783 230.632985 
L 138.039697 219.954986 
L 143.920501 200.532567 
L 147.359276 189.426957 
L 147.359276 307.8 
L 147.458951 307.346698 
L 148.156673 301.763662 
L 151.844635 272.267463 
L 153.738453 258.864971 
L 155.333248 249.120991 
L 156.977879 240.448489 
L 159.071047 230.678056 
L 162.509822 215.843964 
L 169.586721 186.448209 
L 172.277937 175.449023 
L 172.277937 307.8 
L 172.377611 307.293593 
L 173.125171 301.290535 
L 176.813133 271.792938 
L 178.756788 257.968269 
L 180.501094 247.125793 
L 182.44475 236.478109 
L 185.285477 222.278436 
L 191.216118 194.006209 
L 197.196597 166.027861 
L 197.196597 307.8 
L 197.296272 307.256698 
L 198.093669 300.834746 
L 201.731793 271.715203 
L 203.775123 257.100933 
L 205.668941 245.160047 
L 207.961458 232.204701 
L 211.848769 211.706745 
L 220.719812 166.320856 
L 222.115257 159.260446 
L 222.115257 307.8 
L 222.214932 307.229599 
L 223.062166 300.389677 
L 226.700291 271.27467 
L 228.793458 256.25456 
L 230.836788 243.215991 
L 233.528004 227.609253 
L 238.860597 198.274297 
L 247.033917 154.176876 
L 247.033917 307.8 
L 247.133592 307.208897 
L 248.030664 299.95178 
L 251.668788 270.843511 
L 253.86163 255.085895 
L 256.054472 240.98278 
L 259.194224 222.392093 
L 266.370798 181.567229 
L 271.952578 150.229801 
L 271.952578 307.8 
L 272.052252 307.192608 
L 272.949324 299.930325 
L 276.587449 270.797695 
L 278.830128 254.606687 
L 281.172482 239.376658 
L 284.760769 217.705784 
L 293.68165 165.54634 
L 296.871238 147.086425 
L 296.871238 307.8 
L 296.970913 307.179499 
L 297.917822 299.501274 
L 301.555946 270.379292 
L 303.848463 253.799778 
L 306.340329 237.476555 
L 310.476827 212.097635 
L 321.042339 148.962889 
L 321.789898 144.532527 
L 321.789898 307.8 
L 321.889573 307.168757 
L 322.886319 299.075093 
L 326.524444 269.965343 
L 328.866798 253.001876 
L 331.508176 235.587408 
L 336.242721 206.142276 
L 346.708559 142.423834 
L 346.708559 307.8 
L 346.808233 307.159824 
L 347.80498 299.062539 
L 351.443104 269.934369 
L 353.835295 252.556406 
L 356.626185 234.028584 
L 361.958779 200.459947 
L 371.627219 140.659559 
L 371.627219 307.8 
L 371.726894 307.152306 
L 372.773477 298.640405 
L 376.411602 269.527278 
L 378.85363 251.77402 
L 381.794032 232.160745 
L 387.824348 193.817053 
L 396.545879 139.167113 
L 396.545879 307.8 
L 396.608176 307.403887 
L 397.355736 301.409248 
L 401.280425 269.883214 
L 403.772291 251.69179 
L 406.824827 231.195727 
L 413.365975 189.205879 
L 427.382721 100.685758 
L 427.694205 98.734291 
L 427.694205 98.734291 
" clip-path="url(#p55d961e7e6)" style="fill: none; stroke: #d62728; stroke-width: 2; stroke-linecap: square"/>
   </g>
   <g id="line2d_17">
    <path d="M 72.603295 307.8 
L 72.653133 307.775642 
L 73.001994 305.050877 
L 78.384425 261.068684 
L 80.228406 247.83278 
L 81.673688 239.010397 
L 82.969458 232.434755 
L 84.315066 226.737454 
L 85.90986 220.969161 
L 88.152539 213.756541 
L 92.03985 202.106074 
L 97.521956 186.260481 
L 97.521956 307.8 
L 97.62163 307.287467 
L 99.017075 295.671254 
L 103.20341 261.557815 
L 105.346415 245.840092 
L 107.190396 233.939306 
L 109.283563 221.923718 
L 112.522989 204.771489 
L 119.849075 167.434184 
L 122.440616 154.389486 
L 122.440616 307.8 
L 122.540291 307.185397 
L 124.085248 294.311652 
L 128.271583 260.225956 
L 130.613937 242.929853 
L 132.956291 227.332688 
L 136.49474 205.459503 
L 145.365783 152.39247 
L 147.359276 140.57324 
L 147.359276 307.8 
L 147.458951 307.137099 
L 149.15342 293.007596 
L 153.339755 258.951205 
L 155.881458 240.06918 
L 158.871697 219.646184 
L 165.101362 179.032397 
L 172.277937 132.8377 
L 172.277937 307.8 
L 172.377611 307.108535 
L 174.221592 291.724878 
L 178.407927 257.699135 
L 181.198817 236.867986 
L 185.036291 210.127647 
L 195.601803 138.615381 
L 197.196597 127.889976 
L 197.196597 307.8 
L 197.296272 307.089583 
L 199.239927 290.869262 
L 203.426262 256.847561 
L 206.466339 234.029847 
L 211.300559 199.749257 
L 222.115257 124.457507 
L 222.115257 307.8 
L 222.214932 307.076086 
L 224.308099 289.604221 
L 228.494434 255.616011 
L 231.783697 230.833005 
L 237.963525 186.398593 
L 247.033917 121.942144 
L 247.033917 307.8 
L 247.133592 307.065998 
L 249.326434 288.759393 
L 253.512769 254.779358 
L 257.051219 228.003444 
L 264.726166 172.165903 
L 271.952578 120.024835 
L 271.952578 307.8 
L 272.052252 307.058191 
L 274.344769 287.917625 
L 278.580941 253.558039 
L 282.418415 224.437936 
L 292.086855 153.440827 
L 296.871238 118.519515 
L 296.871238 307.8 
L 296.970913 307.051988 
L 299.363104 287.078208 
L 303.599276 252.730265 
L 307.685937 221.613302 
L 319.198358 136.399348 
L 321.789898 117.310206 
L 321.789898 307.8 
L 321.889573 307.046956 
L 324.381439 286.24069 
L 328.617611 251.906086 
L 333.003295 218.419067 
L 346.559047 117.43009 
L 346.708559 116.320774 
L 346.708559 307.8 
L 346.808233 307.042806 
L 349.399774 285.404771 
L 353.685783 250.694201 
L 358.420329 214.474097 
L 371.627219 115.499133 
L 371.627219 307.8 
L 371.726894 307.039337 
L 374.368272 284.98449 
L 378.654281 250.2666 
L 383.638013 212.034758 
L 396.545879 114.808416 
L 396.545879 307.8 
L 396.608176 307.328582 
L 398.477075 291.73287 
L 403.211621 253.083171 
L 408.008463 216.048319 
L 424.267889 93.091821 
L 427.694205 67.301021 
L 427.694205 67.301021 
" clip-path="url(#p55d961e7e6)" style="fill: none; stroke: #9467bd; stroke-width: 2; stroke-linecap: square"/>
   </g>
   <g id="line2d_18">
    <path d="M 72.603295 307.8 
L 72.653133 307.730929 
L 73.301018 302.376078 
L 79.131984 254.146577 
L 81.374664 237.375165 
L 83.268482 224.87361 
L 85.36165 212.581803 
L 88.601075 195.045367 
L 95.976999 156.620143 
L 97.521956 148.659893 
L 97.521956 307.8 
L 97.62163 307.142306 
L 100.562032 282.438434 
L 104.748367 248.33504 
L 107.389745 228.640435 
L 110.679008 205.954925 
L 118.45363 154.3575 
L 122.440616 128.126276 
L 122.440616 307.8 
L 122.540291 307.078718 
L 125.879391 279.036144 
L 130.015889 245.415381 
L 133.305152 220.598225 
L 139.534817 175.737314 
L 147.359276 120.016819 
L 147.359276 307.8 
L 147.458951 307.050898 
L 151.246587 275.262519 
L 155.383085 241.746669 
L 159.56942 209.864583 
L 171.879238 118.592691 
L 172.277937 115.648969 
L 172.277937 307.8 
L 172.377611 307.035 
L 176.713458 270.68512 
L 180.899793 236.909434 
L 186.53141 193.684578 
L 197.196597 112.915332 
L 197.196597 307.8 
L 197.296272 307.024655 
L 202.52919 263.258648 
L 206.865037 228.548492 
L 215.73608 160.0319 
L 222.115257 111.045101 
L 222.115257 307.8 
L 222.214932 307.017379 
L 234.674262 205.737768 
L 247.033917 109.687734 
L 247.033917 307.8 
L 247.133592 307.011989 
L 259.991621 202.324192 
L 271.952578 108.660369 
L 271.952578 307.8 
L 272.052252 307.007843 
L 285.259142 199.32724 
L 296.871238 107.858075 
L 296.871238 307.8 
L 296.970913 307.004566 
L 310.526664 196.351584 
L 321.789898 107.216239 
L 321.789898 307.8 
L 321.889573 307.001917 
L 335.794185 193.392755 
L 346.708559 106.692857 
L 346.708559 307.8 
L 346.808233 306.999739 
L 361.01187 190.845291 
L 371.627219 106.259412 
L 371.627219 307.8 
L 371.726894 306.997924 
L 386.179717 188.709691 
L 396.545879 105.895853 
L 396.545879 307.8 
L 396.608176 307.300851 
L 400.844348 271.740467 
L 406.700233 223.903972 
L 426.510568 65.254525 
L 427.694205 55.8 
L 427.694205 55.8 
" clip-path="url(#p55d961e7e6)" style="fill: none; stroke: #8c564b; stroke-width: 2; stroke-linecap: square"/>
   </g>
   <g id="line2d_19">
    <defs>
     <path id="ma39c48a29b" d="M -3 3 
L 3 3 
L 3 -3 
L -3 -3 
z
" style="stroke: #000000; stroke-linejoin: miter"/>
    </defs>
    <g clip-path="url(#p55d961e7e6)">
     <use xlink:href="#ma39c48a29b" x="72.603295" y="307.8" style="fill: #1f77b4; stroke: #000000; stroke-linejoin: miter"/>
     <use xlink:href="#ma39c48a29b" x="97.521956" y="255.25627" style="fill: #1f77b4; stroke: #000000; stroke-linejoin: miter"/>
     <use xlink:href="#ma39c48a29b" x="396.545879" y="307.8" style="fill: #1f77b4; stroke: #000000; stroke-linejoin: miter"/>
     <use xlink:href="#ma39c48a29b" x="421.464539" y="248.161892" style="fill: #1f77b4; stroke: #000000; stroke-linejoin: miter"/>
    </g>
   </g>
   <g id="line2d_20">
    <defs>
     <path id="m94d06b458c" d="M -3 3 
L 3 3 
L 3 -3 
L -3 -3 
z
" style="stroke: #000000; stroke-linejoin: miter"/>
    </defs>
    <g clip-path="url(#p55d961e7e6)">
     <use xlink:href="#m94d06b458c" x="72.603295" y="307.8" style="fill: #2ca02c; stroke: #000000; stroke-linejoin: miter"/>
     <use xlink:href="#m94d06b458c" x="97.521956" y="178.135633" style="fill: #2ca02c; stroke: #000000; stroke-linejoin: miter"/>
     <use xlink:href="#m94d06b458c" x="396.545879" y="307.8" style="fill: #2ca02c; stroke: #000000; stroke-linejoin: miter"/>
     <use xlink:href="#m94d06b458c" x="421.464539" y="197.987178" style="fill: #2ca02c; stroke: #000000; stroke-linejoin: miter"/>
    </g>
   </g>
   <g id="line2d_21">
    <defs>
     <path id="m70342df9f3" d="M -3 3 
L 3 3 
L 3 -3 
L -3 -3 
z
" style="stroke: #000000; stroke-linejoin: miter"/>
    </defs>
    <g clip-path="url(#p55d961e7e6)">
     <use xlink:href="#m70342df9f3" x="72.603295" y="307.8" style="fill: #d62728; stroke: #000000; stroke-linejoin: miter"/>
     <use xlink:href="#m70342df9f3" x="97.521956" y="129.8293" style="fill: #d62728; stroke: #000000; stroke-linejoin: miter"/>
     <use xlink:href="#m70342df9f3" x="396.545879" y="307.8" style="fill: #d62728; stroke: #000000; stroke-linejoin: miter"/>
     <use xlink:href="#m70342df9f3" x="421.464539" y="152.903843" style="fill: #d62728; stroke: #000000; stroke-linejoin: miter"/>
    </g>
   </g>
   <g id="line2d_22">
    <defs>
     <path id="me8b644384c" d="M -3 3 
L 3 3 
L 3 -3 
L -3 -3 
z
" style="stroke: #000000; stroke-linejoin: miter"/>
    </defs>
    <g clip-path="url(#p55d961e7e6)">
     <use xlink:href="#me8b644384c" x="72.603295" y="307.8" style="fill: #9467bd; stroke: #000000; stroke-linejoin: miter"/>
     <use xlink:href="#me8b644384c" x="97.521956" y="123.896944" style="fill: #9467bd; stroke: #000000; stroke-linejoin: miter"/>
     <use xlink:href="#me8b644384c" x="396.545879" y="307.8" style="fill: #9467bd; stroke: #000000; stroke-linejoin: miter"/>
     <use xlink:href="#me8b644384c" x="421.464539" y="123.07822" style="fill: #9467bd; stroke: #000000; stroke-linejoin: miter"/>
    </g>
   </g>
   <g id="line2d_23">
    <defs>
     <path id="m909c24ebb9" d="M -3 3 
L 3 3 
L 3 -3 
L -3 -3 
z
" style="stroke: #000000; stroke-linejoin: miter"/>
    </defs>
    <g clip-path="url(#p55d961e7e6)">
     <use xlink:href="#m909c24ebb9" x="72.603295" y="307.8" style="fill: #8c564b; stroke: #000000; stroke-linejoin: miter"/>
     <use xlink:href="#m909c24ebb9" x="97.521956" y="123.896944" style="fill: #8c564b; stroke: #000000; stroke-linejoin: miter"/>
     <use xlink:href="#m909c24ebb9" x="396.545879" y="307.8" style="fill: #8c564b; stroke: #000000; stroke-linejoin: miter"/>
     <use xlink:href="#m909c24ebb9" x="421.464539" y="123.76145" style="fill: #8c564b; stroke: #000000; stroke-linejoin: miter"/>
    </g>
   </g>
   <g id="patch_3">
    <path d="M 54.84875 320.4 
L 54.84875 43.2 
" style="fill: none; stroke: #000000; stroke-width: 0.8; stroke-linejoin: miter; stroke-linecap: square"/>
   </g>
   <g id="patch_4">
    <path d="M 445.44875 320.4 
L 445.44875 43.2 
" style="fill: none; stroke: #000000; stroke-width: 0.8; stroke-linejoin: miter; stroke-linecap: square"/>
   </g>
   <g id="patch_5">
    <path d="M 54.84875 320.4 
L 445.44875 320.4 
" style="fill: none; stroke: #000000; stroke-width: 0.8; stroke-linejoin: miter; stroke-linecap: square"/>
   </g>
   <g id="patch_6">
    <path d="M 54.84875 43.2 
L 445.44875 43.2 
" style="fill: none; stroke: #000000; stroke-width: 0.8; stroke-linejoin: miter; stroke-linecap: square"/>
   </g>
  </g>
  <g id="text_16">
   <!-- Komoroski2009 -->
   <g transform="translate(134.602656 26.196094) scale(0.25 -0.25)">
    <defs>
     <path id="DejaVuSans-Bold-4b" d="M 588 4666 
L 1791 4666 
L 1791 2963 
L 3525 4666 
L 4922 4666 
L 2675 2456 
L 5153 0 
L 3647 0 
L 1791 1838 
L 1791 0 
L 588 0 
L 588 4666 
z
" transform="scale(0.015625)"/>
     <path id="DejaVuSans-Bold-6f" d="M 2203 2784 
Q 1831 2784 1636 2517 
Q 1441 2250 1441 1747 
Q 1441 1244 1636 976 
Q 1831 709 2203 709 
Q 2569 709 2762 976 
Q 2956 1244 2956 1747 
Q 2956 2250 2762 2517 
Q 2569 2784 2203 2784 
z
M 2203 3584 
Q 3106 3584 3614 3096 
Q 4122 2609 4122 1747 
Q 4122 884 3614 396 
Q 3106 -91 2203 -91 
Q 1297 -91 786 396 
Q 275 884 275 1747 
Q 275 2609 786 3096 
Q 1297 3584 2203 3584 
z
" transform="scale(0.015625)"/>
     <path id="DejaVuSans-Bold-73" d="M 3272 3391 
L 3272 2541 
Q 2913 2691 2578 2766 
Q 2244 2841 1947 2841 
Q 1628 2841 1473 2761 
Q 1319 2681 1319 2516 
Q 1319 2381 1436 2309 
Q 1553 2238 1856 2203 
L 2053 2175 
Q 2913 2066 3209 1816 
Q 3506 1566 3506 1031 
Q 3506 472 3093 190 
Q 2681 -91 1863 -91 
Q 1516 -91 1145 -36 
Q 775 19 384 128 
L 384 978 
Q 719 816 1070 734 
Q 1422 653 1784 653 
Q 2113 653 2278 743 
Q 2444 834 2444 1013 
Q 2444 1163 2330 1236 
Q 2216 1309 1875 1350 
L 1678 1375 
Q 931 1469 631 1722 
Q 331 1975 331 2491 
Q 331 3047 712 3315 
Q 1094 3584 1881 3584 
Q 2191 3584 2531 3537 
Q 2872 3491 3272 3391 
z
" transform="scale(0.015625)"/>
     <path id="DejaVuSans-Bold-6b" d="M 538 4863 
L 1656 4863 
L 1656 2216 
L 2944 3500 
L 4244 3500 
L 2534 1894 
L 4378 0 
L 3022 0 
L 1656 1459 
L 1656 0 
L 538 0 
L 538 4863 
z
" transform="scale(0.015625)"/>
     <path id="DejaVuSans-Bold-32" d="M 1844 884 
L 3897 884 
L 3897 0 
L 506 0 
L 506 884 
L 2209 2388 
Q 2438 2594 2547 2791 
Q 2656 2988 2656 3200 
Q 2656 3528 2436 3728 
Q 2216 3928 1850 3928 
Q 1569 3928 1234 3808 
Q 900 3688 519 3450 
L 519 4475 
Q 925 4609 1322 4679 
Q 1719 4750 2100 4750 
Q 2938 4750 3402 4381 
Q 3866 4013 3866 3353 
Q 3866 2972 3669 2642 
Q 3472 2313 2841 1759 
L 1844 884 
z
" transform="scale(0.015625)"/>
     <path id="DejaVuSans-Bold-30" d="M 2944 2338 
Q 2944 3213 2780 3570 
Q 2616 3928 2228 3928 
Q 1841 3928 1675 3570 
Q 1509 3213 1509 2338 
Q 1509 1453 1675 1090 
Q 1841 728 2228 728 
Q 2613 728 2778 1090 
Q 2944 1453 2944 2338 
z
M 4147 2328 
Q 4147 1169 3647 539 
Q 3147 -91 2228 -91 
Q 1306 -91 806 539 
Q 306 1169 306 2328 
Q 306 3491 806 4120 
Q 1306 4750 2228 4750 
Q 3147 4750 3647 4120 
Q 4147 3491 4147 2328 
z
" transform="scale(0.015625)"/>
     <path id="DejaVuSans-Bold-39" d="M 641 103 
L 641 966 
Q 928 831 1190 764 
Q 1453 697 1709 697 
Q 2247 697 2547 995 
Q 2847 1294 2900 1881 
Q 2688 1725 2447 1647 
Q 2206 1569 1925 1569 
Q 1209 1569 770 1986 
Q 331 2403 331 3084 
Q 331 3838 820 4291 
Q 1309 4744 2131 4744 
Q 3044 4744 3544 4128 
Q 4044 3513 4044 2388 
Q 4044 1231 3459 570 
Q 2875 -91 1856 -91 
Q 1528 -91 1228 -42 
Q 928 6 641 103 
z
M 2125 2350 
Q 2441 2350 2600 2554 
Q 2759 2759 2759 3169 
Q 2759 3575 2600 3781 
Q 2441 3988 2125 3988 
Q 1809 3988 1650 3781 
Q 1491 3575 1491 3169 
Q 1491 2759 1650 2554 
Q 1809 2350 2125 2350 
z
" transform="scale(0.015625)"/>
    </defs>
    <use xlink:href="#DejaVuSans-Bold-4b"/>
    <use xlink:href="#DejaVuSans-Bold-6f" x="75.740234"/>
    <use xlink:href="#DejaVuSans-Bold-6d" x="144.441406"/>
    <use xlink:href="#DejaVuSans-Bold-6f" x="248.640625"/>
    <use xlink:href="#DejaVuSans-Bold-72" x="317.341797"/>
    <use xlink:href="#DejaVuSans-Bold-6f" x="366.658203"/>
    <use xlink:href="#DejaVuSans-Bold-73" x="435.359375"/>
    <use xlink:href="#DejaVuSans-Bold-6b" x="494.880859"/>
    <use xlink:href="#DejaVuSans-Bold-69" x="561.384766"/>
    <use xlink:href="#DejaVuSans-Bold-32" x="595.662109"/>
    <use xlink:href="#DejaVuSans-Bold-30" x="665.242188"/>
    <use xlink:href="#DejaVuSans-Bold-30" x="734.822266"/>
    <use xlink:href="#DejaVuSans-Bold-39" x="804.402344"/>
   </g>
  </g>
 </g>
 <defs>
  <clipPath id="p55d961e7e6">
   <rect x="54.84875" y="43.2" width="390.6" height="277.2"/>
  </clipPath>
 </defs>
</svg>
