<?xml version="1.0" encoding="utf-8" standalone="no"?>
<!DOCTYPE svg PUBLIC "-//W3C//DTD SVG 1.1//EN"
  "http://www.w3.org/Graphics/SVG/1.1/DTD/svg11.dtd">
<svg xmlns:xlink="http://www.w3.org/1999/xlink" width="476.503437pt" height="683.737812pt" viewBox="0 0 476.503437 683.737812" xmlns="http://www.w3.org/2000/svg" version="1.1">
 <metadata>
  <rdf:RDF xmlns:dc="http://purl.org/dc/elements/1.1/" xmlns:cc="http://creativecommons.org/ns#" xmlns:rdf="http://www.w3.org/1999/02/22-rdf-syntax-ns#">
   <cc:Work>
    <dc:type rdf:resource="http://purl.org/dc/dcmitype/StillImage"/>
    <dc:date>2025-03-19T16:41:40.065150</dc:date>
    <dc:format>image/svg+xml</dc:format>
    <dc:creator>
     <cc:Agent>
      <dc:title>Matplotlib v3.9.1, https://matplotlib.org/</dc:title>
     </cc:Agent>
    </dc:creator>
   </cc:Work>
  </rdf:RDF>
 </metadata>
 <defs>
  <style type="text/css">*{stroke-linejoin: round; stroke-linecap: butt}</style>
 </defs>
 <g id="figure_1">
  <g id="patch_1">
   <path d="M 0 683.737812 
L 476.503437 683.737812 
L 476.503437 0 
L 0 0 
z
" style="fill: #ffffff"/>
  </g>
  <g id="axes_1">
   <g id="patch_2">
    <path d="M 78.703437 320.243478 
L 469.303437 320.243478 
L 469.303437 79.2 
L 78.703437 79.2 
z
" style="fill: #ffffff"/>
   </g>
   <g id="matplotlib.axis_1">
    <g id="xtick_1">
     <g id="line2d_1">
      <defs>
       <path id="ma77b421cfa" d="M 0 0 
L 0 3.5 
" style="stroke: #000000; stroke-width: 0.8"/>
      </defs>
      <g>
       <use xlink:href="#ma77b421cfa" x="96.457983" y="320.243478" style="stroke: #000000; stroke-width: 0.8"/>
      </g>
     </g>
     <g id="text_1">
      <!-- 0 -->
      <g transform="translate(91.686108 338.641135) scale(0.15 -0.15)">
       <defs>
        <path id="DejaVuSans-30" d="M 2034 4250 
Q 1547 4250 1301 3770 
Q 1056 3291 1056 2328 
Q 1056 1369 1301 889 
Q 1547 409 2034 409 
Q 2525 409 2770 889 
Q 3016 1369 3016 2328 
Q 3016 3291 2770 3770 
Q 2525 4250 2034 4250 
z
M 2034 4750 
Q 2819 4750 3233 4129 
Q 3647 3509 3647 2328 
Q 3647 1150 3233 529 
Q 2819 -91 2034 -91 
Q 1250 -91 836 529 
Q 422 1150 422 2328 
Q 422 3509 836 4129 
Q 1250 4750 2034 4750 
z
" transform="scale(0.015625)"/>
       </defs>
       <use xlink:href="#DejaVuSans-30"/>
      </g>
     </g>
    </g>
    <g id="xtick_2">
     <g id="line2d_2">
      <g>
       <use xlink:href="#ma77b421cfa" x="167.476165" y="320.243478" style="stroke: #000000; stroke-width: 0.8"/>
      </g>
     </g>
     <g id="text_2">
      <!-- 10 -->
      <g transform="translate(157.932415 338.641135) scale(0.15 -0.15)">
       <defs>
        <path id="DejaVuSans-31" d="M 794 531 
L 1825 531 
L 1825 4091 
L 703 3866 
L 703 4441 
L 1819 4666 
L 2450 4666 
L 2450 531 
L 3481 531 
L 3481 0 
L 794 0 
L 794 531 
z
" transform="scale(0.015625)"/>
       </defs>
       <use xlink:href="#DejaVuSans-31"/>
       <use xlink:href="#DejaVuSans-30" x="63.623047"/>
      </g>
     </g>
    </g>
    <g id="xtick_3">
     <g id="line2d_3">
      <g>
       <use xlink:href="#ma77b421cfa" x="238.494347" y="320.243478" style="stroke: #000000; stroke-width: 0.8"/>
      </g>
     </g>
     <g id="text_3">
      <!-- 20 -->
      <g transform="translate(228.950597 338.641135) scale(0.15 -0.15)">
       <defs>
        <path id="DejaVuSans-32" d="M 1228 531 
L 3431 531 
L 3431 0 
L 469 0 
L 469 531 
Q 828 903 1448 1529 
Q 2069 2156 2228 2338 
Q 2531 2678 2651 2914 
Q 2772 3150 2772 3378 
Q 2772 3750 2511 3984 
Q 2250 4219 1831 4219 
Q 1534 4219 1204 4116 
Q 875 4013 500 3803 
L 500 4441 
Q 881 4594 1212 4672 
Q 1544 4750 1819 4750 
Q 2544 4750 2975 4387 
Q 3406 4025 3406 3419 
Q 3406 3131 3298 2873 
Q 3191 2616 2906 2266 
Q 2828 2175 2409 1742 
Q 1991 1309 1228 531 
z
" transform="scale(0.015625)"/>
       </defs>
       <use xlink:href="#DejaVuSans-32"/>
       <use xlink:href="#DejaVuSans-30" x="63.623047"/>
      </g>
     </g>
    </g>
    <g id="xtick_4">
     <g id="line2d_4">
      <g>
       <use xlink:href="#ma77b421cfa" x="309.512528" y="320.243478" style="stroke: #000000; stroke-width: 0.8"/>
      </g>
     </g>
     <g id="text_4">
      <!-- 30 -->
      <g transform="translate(299.968778 338.641135) scale(0.15 -0.15)">
       <defs>
        <path id="DejaVuSans-33" d="M 2597 2516 
Q 3050 2419 3304 2112 
Q 3559 1806 3559 1356 
Q 3559 666 3084 287 
Q 2609 -91 1734 -91 
Q 1441 -91 1130 -33 
Q 819 25 488 141 
L 488 750 
Q 750 597 1062 519 
Q 1375 441 1716 441 
Q 2309 441 2620 675 
Q 2931 909 2931 1356 
Q 2931 1769 2642 2001 
Q 2353 2234 1838 2234 
L 1294 2234 
L 1294 2753 
L 1863 2753 
Q 2328 2753 2575 2939 
Q 2822 3125 2822 3475 
Q 2822 3834 2567 4026 
Q 2313 4219 1838 4219 
Q 1578 4219 1281 4162 
Q 984 4106 628 3988 
L 628 4550 
Q 988 4650 1302 4700 
Q 1616 4750 1894 4750 
Q 2613 4750 3031 4423 
Q 3450 4097 3450 3541 
Q 3450 3153 3228 2886 
Q 3006 2619 2597 2516 
z
" transform="scale(0.015625)"/>
       </defs>
       <use xlink:href="#DejaVuSans-33"/>
       <use xlink:href="#DejaVuSans-30" x="63.623047"/>
      </g>
     </g>
    </g>
    <g id="xtick_5">
     <g id="line2d_5">
      <g>
       <use xlink:href="#ma77b421cfa" x="380.53071" y="320.243478" style="stroke: #000000; stroke-width: 0.8"/>
      </g>
     </g>
     <g id="text_5">
      <!-- 40 -->
      <g transform="translate(370.98696 338.641135) scale(0.15 -0.15)">
       <defs>
        <path id="DejaVuSans-34" d="M 2419 4116 
L 825 1625 
L 2419 1625 
L 2419 4116 
z
M 2253 4666 
L 3047 4666 
L 3047 1625 
L 3713 1625 
L 3713 1100 
L 3047 1100 
L 3047 0 
L 2419 0 
L 2419 1100 
L 313 1100 
L 313 1709 
L 2253 4666 
z
" transform="scale(0.015625)"/>
       </defs>
       <use xlink:href="#DejaVuSans-34"/>
       <use xlink:href="#DejaVuSans-30" x="63.623047"/>
      </g>
     </g>
    </g>
    <g id="xtick_6">
     <g id="line2d_6">
      <g>
       <use xlink:href="#ma77b421cfa" x="451.548892" y="320.243478" style="stroke: #000000; stroke-width: 0.8"/>
      </g>
     </g>
     <g id="text_6">
      <!-- 50 -->
      <g transform="translate(442.005142 338.641135) scale(0.15 -0.15)">
       <defs>
        <path id="DejaVuSans-35" d="M 691 4666 
L 3169 4666 
L 3169 4134 
L 1269 4134 
L 1269 2991 
Q 1406 3038 1543 3061 
Q 1681 3084 1819 3084 
Q 2600 3084 3056 2656 
Q 3513 2228 3513 1497 
Q 3513 744 3044 326 
Q 2575 -91 1722 -91 
Q 1428 -91 1123 -41 
Q 819 9 494 109 
L 494 744 
Q 775 591 1075 516 
Q 1375 441 1709 441 
Q 2250 441 2565 725 
Q 2881 1009 2881 1497 
Q 2881 1984 2565 2268 
Q 2250 2553 1709 2553 
Q 1456 2553 1204 2497 
Q 953 2441 691 2322 
L 691 4666 
z
" transform="scale(0.015625)"/>
       </defs>
       <use xlink:href="#DejaVuSans-35"/>
       <use xlink:href="#DejaVuSans-30" x="63.623047"/>
      </g>
     </g>
    </g>
    <g id="text_7">
     <!-- time [hr] -->
     <g transform="translate(228.928906 359.437853) scale(0.18 -0.18)">
      <defs>
       <path id="DejaVuSans-Bold-74" d="M 1759 4494 
L 1759 3500 
L 2913 3500 
L 2913 2700 
L 1759 2700 
L 1759 1216 
Q 1759 972 1856 886 
Q 1953 800 2241 800 
L 2816 800 
L 2816 0 
L 1856 0 
Q 1194 0 917 276 
Q 641 553 641 1216 
L 641 2700 
L 84 2700 
L 84 3500 
L 641 3500 
L 641 4494 
L 1759 4494 
z
" transform="scale(0.015625)"/>
       <path id="DejaVuSans-Bold-69" d="M 538 3500 
L 1656 3500 
L 1656 0 
L 538 0 
L 538 3500 
z
M 538 4863 
L 1656 4863 
L 1656 3950 
L 538 3950 
L 538 4863 
z
" transform="scale(0.015625)"/>
       <path id="DejaVuSans-Bold-6d" d="M 3781 2919 
Q 3994 3244 4286 3414 
Q 4578 3584 4928 3584 
Q 5531 3584 5847 3212 
Q 6163 2841 6163 2131 
L 6163 0 
L 5038 0 
L 5038 1825 
Q 5041 1866 5042 1909 
Q 5044 1953 5044 2034 
Q 5044 2406 4934 2573 
Q 4825 2741 4581 2741 
Q 4263 2741 4089 2478 
Q 3916 2216 3909 1719 
L 3909 0 
L 2784 0 
L 2784 1825 
Q 2784 2406 2684 2573 
Q 2584 2741 2328 2741 
Q 2006 2741 1831 2477 
Q 1656 2213 1656 1722 
L 1656 0 
L 531 0 
L 531 3500 
L 1656 3500 
L 1656 2988 
Q 1863 3284 2130 3434 
Q 2397 3584 2719 3584 
Q 3081 3584 3359 3409 
Q 3638 3234 3781 2919 
z
" transform="scale(0.015625)"/>
       <path id="DejaVuSans-Bold-65" d="M 4031 1759 
L 4031 1441 
L 1416 1441 
Q 1456 1047 1700 850 
Q 1944 653 2381 653 
Q 2734 653 3104 758 
Q 3475 863 3866 1075 
L 3866 213 
Q 3469 63 3072 -14 
Q 2675 -91 2278 -91 
Q 1328 -91 801 392 
Q 275 875 275 1747 
Q 275 2603 792 3093 
Q 1309 3584 2216 3584 
Q 3041 3584 3536 3087 
Q 4031 2591 4031 1759 
z
M 2881 2131 
Q 2881 2450 2695 2645 
Q 2509 2841 2209 2841 
Q 1884 2841 1681 2658 
Q 1478 2475 1428 2131 
L 2881 2131 
z
" transform="scale(0.015625)"/>
       <path id="DejaVuSans-Bold-20" transform="scale(0.015625)"/>
       <path id="DejaVuSans-Bold-5b" d="M 550 4863 
L 2491 4863 
L 2491 4159 
L 1613 4159 
L 1613 -141 
L 2491 -141 
L 2491 -844 
L 550 -844 
L 550 4863 
z
" transform="scale(0.015625)"/>
       <path id="DejaVuSans-Bold-68" d="M 4056 2131 
L 4056 0 
L 2931 0 
L 2931 347 
L 2931 1625 
Q 2931 2084 2911 2256 
Q 2891 2428 2841 2509 
Q 2775 2619 2662 2680 
Q 2550 2741 2406 2741 
Q 2056 2741 1856 2470 
Q 1656 2200 1656 1722 
L 1656 0 
L 538 0 
L 538 4863 
L 1656 4863 
L 1656 2988 
Q 1909 3294 2193 3439 
Q 2478 3584 2822 3584 
Q 3428 3584 3742 3212 
Q 4056 2841 4056 2131 
z
" transform="scale(0.015625)"/>
       <path id="DejaVuSans-Bold-72" d="M 3138 2547 
Q 2991 2616 2845 2648 
Q 2700 2681 2553 2681 
Q 2122 2681 1889 2404 
Q 1656 2128 1656 1613 
L 1656 0 
L 538 0 
L 538 3500 
L 1656 3500 
L 1656 2925 
Q 1872 3269 2151 3426 
Q 2431 3584 2822 3584 
Q 2878 3584 2943 3579 
Q 3009 3575 3134 3559 
L 3138 2547 
z
" transform="scale(0.015625)"/>
       <path id="DejaVuSans-Bold-5d" d="M 2375 -844 
L 434 -844 
L 434 -141 
L 1313 -141 
L 1313 4159 
L 434 4159 
L 434 4863 
L 2375 4863 
L 2375 -844 
z
" transform="scale(0.015625)"/>
      </defs>
      <use xlink:href="#DejaVuSans-Bold-74"/>
      <use xlink:href="#DejaVuSans-Bold-69" x="47.802734"/>
      <use xlink:href="#DejaVuSans-Bold-6d" x="82.080078"/>
      <use xlink:href="#DejaVuSans-Bold-65" x="186.279297"/>
      <use xlink:href="#DejaVuSans-Bold-20" x="254.101562"/>
      <use xlink:href="#DejaVuSans-Bold-5b" x="288.916016"/>
      <use xlink:href="#DejaVuSans-Bold-68" x="334.619141"/>
      <use xlink:href="#DejaVuSans-Bold-72" x="405.810547"/>
      <use xlink:href="#DejaVuSans-Bold-5d" x="455.126953"/>
     </g>
    </g>
   </g>
   <g id="matplotlib.axis_2">
    <g id="ytick_1">
     <g id="line2d_7">
      <defs>
       <path id="mb9b5368a18" d="M 0 0 
L -3.5 0 
" style="stroke: #000000; stroke-width: 0.8"/>
      </defs>
      <g>
       <use xlink:href="#mb9b5368a18" x="78.703437" y="292.813321" style="stroke: #000000; stroke-width: 0.8"/>
      </g>
     </g>
     <g id="text_8">
      <!-- 0.000 -->
      <g transform="translate(28.76125 298.512149) scale(0.15 -0.15)">
       <defs>
        <path id="DejaVuSans-2e" d="M 684 794 
L 1344 794 
L 1344 0 
L 684 0 
L 684 794 
z
" transform="scale(0.015625)"/>
       </defs>
       <use xlink:href="#DejaVuSans-30"/>
       <use xlink:href="#DejaVuSans-2e" x="63.623047"/>
       <use xlink:href="#DejaVuSans-30" x="95.410156"/>
       <use xlink:href="#DejaVuSans-30" x="159.033203"/>
       <use xlink:href="#DejaVuSans-30" x="222.65625"/>
      </g>
     </g>
    </g>
    <g id="ytick_2">
     <g id="line2d_8">
      <g>
       <use xlink:href="#mb9b5368a18" x="78.703437" y="256.593452" style="stroke: #000000; stroke-width: 0.8"/>
      </g>
     </g>
     <g id="text_9">
      <!-- 0.025 -->
      <g transform="translate(28.76125 262.29228) scale(0.15 -0.15)">
       <use xlink:href="#DejaVuSans-30"/>
       <use xlink:href="#DejaVuSans-2e" x="63.623047"/>
       <use xlink:href="#DejaVuSans-30" x="95.410156"/>
       <use xlink:href="#DejaVuSans-32" x="159.033203"/>
       <use xlink:href="#DejaVuSans-35" x="222.65625"/>
      </g>
     </g>
    </g>
    <g id="ytick_3">
     <g id="line2d_9">
      <g>
       <use xlink:href="#mb9b5368a18" x="78.703437" y="220.373583" style="stroke: #000000; stroke-width: 0.8"/>
      </g>
     </g>
     <g id="text_10">
      <!-- 0.050 -->
      <g transform="translate(28.76125 226.072411) scale(0.15 -0.15)">
       <use xlink:href="#DejaVuSans-30"/>
       <use xlink:href="#DejaVuSans-2e" x="63.623047"/>
       <use xlink:href="#DejaVuSans-30" x="95.410156"/>
       <use xlink:href="#DejaVuSans-35" x="159.033203"/>
       <use xlink:href="#DejaVuSans-30" x="222.65625"/>
      </g>
     </g>
    </g>
    <g id="ytick_4">
     <g id="line2d_10">
      <g>
       <use xlink:href="#mb9b5368a18" x="78.703437" y="184.153714" style="stroke: #000000; stroke-width: 0.8"/>
      </g>
     </g>
     <g id="text_11">
      <!-- 0.075 -->
      <g transform="translate(28.76125 189.852542) scale(0.15 -0.15)">
       <defs>
        <path id="DejaVuSans-37" d="M 525 4666 
L 3525 4666 
L 3525 4397 
L 1831 0 
L 1172 0 
L 2766 4134 
L 525 4134 
L 525 4666 
z
" transform="scale(0.015625)"/>
       </defs>
       <use xlink:href="#DejaVuSans-30"/>
       <use xlink:href="#DejaVuSans-2e" x="63.623047"/>
       <use xlink:href="#DejaVuSans-30" x="95.410156"/>
       <use xlink:href="#DejaVuSans-37" x="159.033203"/>
       <use xlink:href="#DejaVuSans-35" x="222.65625"/>
      </g>
     </g>
    </g>
    <g id="ytick_5">
     <g id="line2d_11">
      <g>
       <use xlink:href="#mb9b5368a18" x="78.703437" y="147.933845" style="stroke: #000000; stroke-width: 0.8"/>
      </g>
     </g>
     <g id="text_12">
      <!-- 0.100 -->
      <g transform="translate(28.76125 153.632673) scale(0.15 -0.15)">
       <use xlink:href="#DejaVuSans-30"/>
       <use xlink:href="#DejaVuSans-2e" x="63.623047"/>
       <use xlink:href="#DejaVuSans-31" x="95.410156"/>
       <use xlink:href="#DejaVuSans-30" x="159.033203"/>
       <use xlink:href="#DejaVuSans-30" x="222.65625"/>
      </g>
     </g>
    </g>
    <g id="ytick_6">
     <g id="line2d_12">
      <g>
       <use xlink:href="#mb9b5368a18" x="78.703437" y="111.713976" style="stroke: #000000; stroke-width: 0.8"/>
      </g>
     </g>
     <g id="text_13">
      <!-- 0.125 -->
      <g transform="translate(28.76125 117.412804) scale(0.15 -0.15)">
       <use xlink:href="#DejaVuSans-30"/>
       <use xlink:href="#DejaVuSans-2e" x="63.623047"/>
       <use xlink:href="#DejaVuSans-31" x="95.410156"/>
       <use xlink:href="#DejaVuSans-32" x="159.033203"/>
       <use xlink:href="#DejaVuSans-35" x="222.65625"/>
      </g>
     </g>
    </g>
    <g id="text_14">
     <!-- dapagliflozin plasma [µM] -->
     <g transform="translate(20.877187 331.760177) rotate(-90) scale(0.18 -0.18)">
      <defs>
       <path id="DejaVuSans-Bold-64" d="M 2919 2988 
L 2919 4863 
L 4044 4863 
L 4044 0 
L 2919 0 
L 2919 506 
Q 2688 197 2409 53 
Q 2131 -91 1766 -91 
Q 1119 -91 703 423 
Q 288 938 288 1747 
Q 288 2556 703 3070 
Q 1119 3584 1766 3584 
Q 2128 3584 2408 3439 
Q 2688 3294 2919 2988 
z
M 2181 722 
Q 2541 722 2730 984 
Q 2919 1247 2919 1747 
Q 2919 2247 2730 2509 
Q 2541 2772 2181 2772 
Q 1825 2772 1636 2509 
Q 1447 2247 1447 1747 
Q 1447 1247 1636 984 
Q 1825 722 2181 722 
z
" transform="scale(0.015625)"/>
       <path id="DejaVuSans-Bold-61" d="M 2106 1575 
Q 1756 1575 1579 1456 
Q 1403 1338 1403 1106 
Q 1403 894 1545 773 
Q 1688 653 1941 653 
Q 2256 653 2472 879 
Q 2688 1106 2688 1447 
L 2688 1575 
L 2106 1575 
z
M 3816 1997 
L 3816 0 
L 2688 0 
L 2688 519 
Q 2463 200 2181 54 
Q 1900 -91 1497 -91 
Q 953 -91 614 226 
Q 275 544 275 1050 
Q 275 1666 698 1953 
Q 1122 2241 2028 2241 
L 2688 2241 
L 2688 2328 
Q 2688 2594 2478 2717 
Q 2269 2841 1825 2841 
Q 1466 2841 1156 2769 
Q 847 2697 581 2553 
L 581 3406 
Q 941 3494 1303 3539 
Q 1666 3584 2028 3584 
Q 2975 3584 3395 3211 
Q 3816 2838 3816 1997 
z
" transform="scale(0.015625)"/>
       <path id="DejaVuSans-Bold-70" d="M 1656 506 
L 1656 -1331 
L 538 -1331 
L 538 3500 
L 1656 3500 
L 1656 2988 
Q 1888 3294 2169 3439 
Q 2450 3584 2816 3584 
Q 3463 3584 3878 3070 
Q 4294 2556 4294 1747 
Q 4294 938 3878 423 
Q 3463 -91 2816 -91 
Q 2450 -91 2169 54 
Q 1888 200 1656 506 
z
M 2400 2772 
Q 2041 2772 1848 2508 
Q 1656 2244 1656 1747 
Q 1656 1250 1848 986 
Q 2041 722 2400 722 
Q 2759 722 2948 984 
Q 3138 1247 3138 1747 
Q 3138 2247 2948 2509 
Q 2759 2772 2400 2772 
z
" transform="scale(0.015625)"/>
       <path id="DejaVuSans-Bold-67" d="M 2919 594 
Q 2688 288 2409 144 
Q 2131 0 1766 0 
Q 1125 0 706 504 
Q 288 1009 288 1791 
Q 288 2575 706 3076 
Q 1125 3578 1766 3578 
Q 2131 3578 2409 3434 
Q 2688 3291 2919 2981 
L 2919 3500 
L 4044 3500 
L 4044 353 
Q 4044 -491 3511 -936 
Q 2978 -1381 1966 -1381 
Q 1638 -1381 1331 -1331 
Q 1025 -1281 716 -1178 
L 716 -306 
Q 1009 -475 1290 -558 
Q 1572 -641 1856 -641 
Q 2406 -641 2662 -400 
Q 2919 -159 2919 353 
L 2919 594 
z
M 2181 2772 
Q 1834 2772 1640 2515 
Q 1447 2259 1447 1791 
Q 1447 1309 1634 1061 
Q 1822 813 2181 813 
Q 2531 813 2725 1069 
Q 2919 1325 2919 1791 
Q 2919 2259 2725 2515 
Q 2531 2772 2181 2772 
z
" transform="scale(0.015625)"/>
       <path id="DejaVuSans-Bold-6c" d="M 538 4863 
L 1656 4863 
L 1656 0 
L 538 0 
L 538 4863 
z
" transform="scale(0.015625)"/>
       <path id="DejaVuSans-Bold-66" d="M 2841 4863 
L 2841 4128 
L 2222 4128 
Q 1984 4128 1890 4042 
Q 1797 3956 1797 3744 
L 1797 3500 
L 2753 3500 
L 2753 2700 
L 1797 2700 
L 1797 0 
L 678 0 
L 678 2700 
L 122 2700 
L 122 3500 
L 678 3500 
L 678 3744 
Q 678 4316 997 4589 
Q 1316 4863 1984 4863 
L 2841 4863 
z
" transform="scale(0.015625)"/>
       <path id="DejaVuSans-Bold-6f" d="M 2203 2784 
Q 1831 2784 1636 2517 
Q 1441 2250 1441 1747 
Q 1441 1244 1636 976 
Q 1831 709 2203 709 
Q 2569 709 2762 976 
Q 2956 1244 2956 1747 
Q 2956 2250 2762 2517 
Q 2569 2784 2203 2784 
z
M 2203 3584 
Q 3106 3584 3614 3096 
Q 4122 2609 4122 1747 
Q 4122 884 3614 396 
Q 3106 -91 2203 -91 
Q 1297 -91 786 396 
Q 275 884 275 1747 
Q 275 2609 786 3096 
Q 1297 3584 2203 3584 
z
" transform="scale(0.015625)"/>
       <path id="DejaVuSans-Bold-7a" d="M 366 3500 
L 3419 3500 
L 3419 2719 
L 1575 800 
L 3419 800 
L 3419 0 
L 288 0 
L 288 781 
L 2131 2700 
L 366 2700 
L 366 3500 
z
" transform="scale(0.015625)"/>
       <path id="DejaVuSans-Bold-6e" d="M 4056 2131 
L 4056 0 
L 2931 0 
L 2931 347 
L 2931 1631 
Q 2931 2084 2911 2256 
Q 2891 2428 2841 2509 
Q 2775 2619 2662 2680 
Q 2550 2741 2406 2741 
Q 2056 2741 1856 2470 
Q 1656 2200 1656 1722 
L 1656 0 
L 538 0 
L 538 3500 
L 1656 3500 
L 1656 2988 
Q 1909 3294 2193 3439 
Q 2478 3584 2822 3584 
Q 3428 3584 3742 3212 
Q 4056 2841 4056 2131 
z
" transform="scale(0.015625)"/>
       <path id="DejaVuSans-Bold-73" d="M 3272 3391 
L 3272 2541 
Q 2913 2691 2578 2766 
Q 2244 2841 1947 2841 
Q 1628 2841 1473 2761 
Q 1319 2681 1319 2516 
Q 1319 2381 1436 2309 
Q 1553 2238 1856 2203 
L 2053 2175 
Q 2913 2066 3209 1816 
Q 3506 1566 3506 1031 
Q 3506 472 3093 190 
Q 2681 -91 1863 -91 
Q 1516 -91 1145 -36 
Q 775 19 384 128 
L 384 978 
Q 719 816 1070 734 
Q 1422 653 1784 653 
Q 2113 653 2278 743 
Q 2444 834 2444 1013 
Q 2444 1163 2330 1236 
Q 2216 1309 1875 1350 
L 1678 1375 
Q 931 1469 631 1722 
Q 331 1975 331 2491 
Q 331 3047 712 3315 
Q 1094 3584 1881 3584 
Q 2191 3584 2531 3537 
Q 2872 3491 3272 3391 
z
" transform="scale(0.015625)"/>
       <path id="DejaVuSans-Bold-b5" d="M 544 -1338 
L 544 3500 
L 1672 3500 
L 1672 1466 
Q 1672 1103 1828 926 
Q 1984 750 2303 750 
Q 2625 750 2781 926 
Q 2938 1103 2938 1466 
L 2938 3500 
L 4063 3500 
L 4063 1159 
Q 4063 938 4114 850 
Q 4166 763 4288 763 
Q 4344 763 4395 778 
Q 4447 794 4506 831 
L 4506 50 
Q 4341 -22 4195 -56 
Q 4050 -91 3909 -91 
Q 3631 -91 3454 26 
Q 3278 144 3169 403 
Q 3022 156 2811 32 
Q 2600 -91 2322 -91 
Q 2091 -91 1928 -17 
Q 1766 56 1672 206 
L 1672 -1338 
L 544 -1338 
z
" transform="scale(0.015625)"/>
       <path id="DejaVuSans-Bold-4d" d="M 588 4666 
L 2119 4666 
L 3181 2169 
L 4250 4666 
L 5778 4666 
L 5778 0 
L 4641 0 
L 4641 3413 
L 3566 897 
L 2803 897 
L 1728 3413 
L 1728 0 
L 588 0 
L 588 4666 
z
" transform="scale(0.015625)"/>
      </defs>
      <use xlink:href="#DejaVuSans-Bold-64"/>
      <use xlink:href="#DejaVuSans-Bold-61" x="71.582031"/>
      <use xlink:href="#DejaVuSans-Bold-70" x="139.0625"/>
      <use xlink:href="#DejaVuSans-Bold-61" x="210.644531"/>
      <use xlink:href="#DejaVuSans-Bold-67" x="278.125"/>
      <use xlink:href="#DejaVuSans-Bold-6c" x="349.707031"/>
      <use xlink:href="#DejaVuSans-Bold-69" x="383.984375"/>
      <use xlink:href="#DejaVuSans-Bold-66" x="418.261719"/>
      <use xlink:href="#DejaVuSans-Bold-6c" x="461.767578"/>
      <use xlink:href="#DejaVuSans-Bold-6f" x="496.044922"/>
      <use xlink:href="#DejaVuSans-Bold-7a" x="564.746094"/>
      <use xlink:href="#DejaVuSans-Bold-69" x="622.949219"/>
      <use xlink:href="#DejaVuSans-Bold-6e" x="657.226562"/>
      <use xlink:href="#DejaVuSans-Bold-20" x="728.417969"/>
      <use xlink:href="#DejaVuSans-Bold-70" x="763.232422"/>
      <use xlink:href="#DejaVuSans-Bold-6c" x="834.814453"/>
      <use xlink:href="#DejaVuSans-Bold-61" x="869.091797"/>
      <use xlink:href="#DejaVuSans-Bold-73" x="936.572266"/>
      <use xlink:href="#DejaVuSans-Bold-6d" x="996.09375"/>
      <use xlink:href="#DejaVuSans-Bold-61" x="1100.292969"/>
      <use xlink:href="#DejaVuSans-Bold-20" x="1167.773438"/>
      <use xlink:href="#DejaVuSans-Bold-5b" x="1202.587891"/>
      <use xlink:href="#DejaVuSans-Bold-b5" x="1248.291016"/>
      <use xlink:href="#DejaVuSans-Bold-4d" x="1321.875"/>
      <use xlink:href="#DejaVuSans-Bold-5d" x="1421.386719"/>
     </g>
    </g>
   </g>
   <g id="LineCollection_1">
    <path d="M 98.233437 289.394265 
L 98.233437 214.175023 
" clip-path="url(#p5a2a57777b)" style="fill: none; stroke: #000000"/>
    <path d="M 100.008892 212.93173 
L 100.008892 100.413691 
" clip-path="url(#p5a2a57777b)" style="fill: none; stroke: #000000"/>
    <path d="M 101.784347 179.051989 
L 101.784347 98.859574 
" clip-path="url(#p5a2a57777b)" style="fill: none; stroke: #000000"/>
    <path d="M 103.559801 184.646809 
L 103.559801 122.482146 
" clip-path="url(#p5a2a57777b)" style="fill: none; stroke: #000000"/>
    <path d="M 107.11071 213.242553 
L 107.11071 162.889177 
" clip-path="url(#p5a2a57777b)" style="fill: none; stroke: #000000"/>
    <path d="M 110.661619 235.000185 
L 110.661619 197.079741 
" clip-path="url(#p5a2a57777b)" style="fill: none; stroke: #000000"/>
   </g>
   <g id="LineCollection_2">
    <path d="M 98.233437 296.232377 
L 98.233437 203.607031 
" clip-path="url(#p5a2a57777b)" style="fill: none; stroke: #000000"/>
    <path d="M 100.008892 216.66161 
L 100.008892 96.683811 
" clip-path="url(#p5a2a57777b)" style="fill: none; stroke: #000000"/>
    <path d="M 101.784347 183.403515 
L 101.784347 90.156522 
" clip-path="url(#p5a2a57777b)" style="fill: none; stroke: #000000"/>
    <path d="M 103.559801 188.998335 
L 103.559801 122.482146 
" clip-path="url(#p5a2a57777b)" style="fill: none; stroke: #000000"/>
    <path d="M 107.11071 213.8642 
L 107.11071 165.99741 
" clip-path="url(#p5a2a57777b)" style="fill: none; stroke: #000000"/>
    <path d="M 110.661619 235.932655 
L 110.661619 192.417391 
" clip-path="url(#p5a2a57777b)" style="fill: none; stroke: #000000"/>
    <path d="M 124.865256 265.46087 
L 124.865256 244.324884 
" clip-path="url(#p5a2a57777b)" style="fill: none; stroke: #000000"/>
    <path d="M 153.272528 290.326735 
L 153.272528 264.217576 
" clip-path="url(#p5a2a57777b)" style="fill: none; stroke: #000000"/>
   </g>
   <g id="LineCollection_3">
    <path d="M 98.233437 309.286957 
L 98.233437 234.689362 
" clip-path="url(#p5a2a57777b)" style="fill: none; stroke: #d62728"/>
    <path d="M 100.008892 308.66531 
L 100.008892 204.850324 
" clip-path="url(#p5a2a57777b)" style="fill: none; stroke: #d62728"/>
    <path d="M 101.784347 303.07049 
L 101.784347 179.984459 
" clip-path="url(#p5a2a57777b)" style="fill: none; stroke: #d62728"/>
    <path d="M 103.559801 293.745791 
L 103.559801 170.659759 
" clip-path="url(#p5a2a57777b)" style="fill: none; stroke: #d62728"/>
    <path d="M 107.11071 268.879926 
L 107.11071 181.849399 
" clip-path="url(#p5a2a57777b)" style="fill: none; stroke: #d62728"/>
    <path d="M 110.661619 255.825347 
L 110.661619 198.633858 
" clip-path="url(#p5a2a57777b)" style="fill: none; stroke: #d62728"/>
    <path d="M 124.865256 259.86605 
L 124.865256 224.432192 
" clip-path="url(#p5a2a57777b)" style="fill: none; stroke: #d62728"/>
    <path d="M 153.272528 287.218501 
L 153.272528 256.757817 
" clip-path="url(#p5a2a57777b)" style="fill: none; stroke: #d62728"/>
    <path d="M 181.679801 285.353562 
L 181.679801 275.407216 
" clip-path="url(#p5a2a57777b)" style="fill: none; stroke: #d62728"/>
    <path d="M 210.087074 289.083441 
L 210.087074 282.245328 
" clip-path="url(#p5a2a57777b)" style="fill: none; stroke: #d62728"/>
    <path clip-path="url(#p5a2a57777b)" style="fill: none; stroke: #d62728"/>
   </g>
   <g id="LineCollection_4">
    <path d="M 98.233437 303.07049 
L 98.233437 265.771693 
" clip-path="url(#p5a2a57777b)" style="fill: none; stroke: #d62728"/>
    <path d="M 100.008892 302.759667 
L 100.008892 224.432192 
" clip-path="url(#p5a2a57777b)" style="fill: none; stroke: #d62728"/>
    <path d="M 101.784347 292.502498 
L 101.784347 218.526549 
" clip-path="url(#p5a2a57777b)" style="fill: none; stroke: #d62728"/>
    <path d="M 103.559801 285.353562 
L 103.559801 217.59408 
" clip-path="url(#p5a2a57777b)" style="fill: none; stroke: #d62728"/>
    <path d="M 107.11071 276.339685 
L 107.11071 202.363737 
" clip-path="url(#p5a2a57777b)" style="fill: none; stroke: #d62728"/>
    <path d="M 110.661619 269.501573 
L 110.661619 205.47197 
" clip-path="url(#p5a2a57777b)" style="fill: none; stroke: #d62728"/>
    <path d="M 124.865256 260.79852 
L 124.865256 217.904903 
" clip-path="url(#p5a2a57777b)" style="fill: none; stroke: #d62728"/>
    <path d="M 153.272528 279.758742 
L 153.272528 256.757817 
" clip-path="url(#p5a2a57777b)" style="fill: none; stroke: #d62728"/>
    <path d="M 181.679801 283.799445 
L 181.679801 275.718039 
" clip-path="url(#p5a2a57777b)" style="fill: none; stroke: #d62728"/>
    <path d="M 210.087074 289.083441 
L 210.087074 282.245328 
" clip-path="url(#p5a2a57777b)" style="fill: none; stroke: #d62728"/>
    <path clip-path="url(#p5a2a57777b)" style="fill: none; stroke: #d62728"/>
   </g>
   <g id="line2d_13">
    <path d="M 96.457983 292.813321 
L 97.168165 283.192773 
L 99.29871 220.334869 
L 100.008892 206.173829 
L 100.719074 196.475092 
L 101.429256 190.536978 
L 102.139437 187.573063 
L 102.849619 186.86757 
L 103.559801 187.824204 
L 104.269983 189.96909 
L 104.980165 192.936239 
L 106.400528 200.2983 
L 111.371801 227.98731 
L 113.502347 238.022543 
L 115.632892 246.62963 
L 117.763437 253.920531 
L 119.183801 258.129627 
L 120.604165 261.8755 
L 122.73471 266.728418 
L 124.865256 270.78977 
L 126.995801 274.185286 
L 129.126347 277.022235 
L 131.256892 279.391364 
L 133.387437 281.369096 
L 135.517983 283.019612 
L 137.648528 284.396727 
L 139.779074 285.545508 
L 142.619801 286.786301 
L 145.460528 287.760268 
L 149.011437 288.688558 
L 152.562347 289.374255 
L 156.823437 289.96496 
L 161.79471 290.430948 
L 168.186347 290.80244 
L 176.708528 291.068832 
L 190.201983 291.243638 
L 218.609256 291.331719 
L 421.721256 291.466915 
L 451.548892 291.484833 
L 451.548892 291.484833 
" clip-path="url(#p5a2a57777b)" style="fill: none; stroke: #000000; stroke-width: 2; stroke-linecap: square"/>
   </g>
   <g id="line2d_14">
    <path d="M 98.233437 251.784644 
L 100.008892 156.67271 
L 101.784347 138.955782 
L 103.559801 153.564477 
L 107.11071 188.065865 
L 110.661619 216.039963 
" clip-path="url(#p5a2a57777b)" style="fill: none; stroke-dasharray: 3.7,1.6; stroke-dashoffset: 0; stroke: #000000"/>
    <defs>
     <path id="mb07d7cb6ef" d="M -3 3 
L 3 3 
L 3 -3 
L -3 -3 
z
" style="stroke: #000000; stroke-linejoin: miter"/>
    </defs>
    <g clip-path="url(#p5a2a57777b)">
     <use xlink:href="#mb07d7cb6ef" x="98.233437" y="251.784644" style="stroke: #000000; stroke-linejoin: miter"/>
     <use xlink:href="#mb07d7cb6ef" x="100.008892" y="156.67271" style="stroke: #000000; stroke-linejoin: miter"/>
     <use xlink:href="#mb07d7cb6ef" x="101.784347" y="138.955782" style="stroke: #000000; stroke-linejoin: miter"/>
     <use xlink:href="#mb07d7cb6ef" x="103.559801" y="153.564477" style="stroke: #000000; stroke-linejoin: miter"/>
     <use xlink:href="#mb07d7cb6ef" x="107.11071" y="188.065865" style="stroke: #000000; stroke-linejoin: miter"/>
     <use xlink:href="#mb07d7cb6ef" x="110.661619" y="216.039963" style="stroke: #000000; stroke-linejoin: miter"/>
    </g>
   </g>
   <g id="line2d_15">
    <path d="M 96.457983 292.813321 
L 97.168165 283.192773 
L 99.29871 220.334869 
L 100.008892 206.173829 
L 100.719074 196.475092 
L 101.429256 190.536978 
L 102.139437 187.573063 
L 102.849619 186.86757 
L 103.559801 187.824204 
L 104.269983 189.96909 
L 104.980165 192.936239 
L 106.400528 200.2983 
L 111.371801 227.98731 
L 113.502347 238.022543 
L 115.632892 246.62963 
L 117.763437 253.920531 
L 119.183801 258.129627 
L 120.604165 261.8755 
L 122.73471 266.728418 
L 124.865256 270.78977 
L 126.995801 274.185286 
L 129.126347 277.022235 
L 131.256892 279.391364 
L 133.387437 281.369096 
L 135.517983 283.019612 
L 137.648528 284.396727 
L 139.779074 285.545508 
L 142.619801 286.786301 
L 145.460528 287.760268 
L 149.011437 288.688558 
L 152.562347 289.374255 
L 156.823437 289.96496 
L 161.79471 290.430948 
L 168.186347 290.80244 
L 176.708528 291.068832 
L 190.201983 291.243638 
L 218.609256 291.331719 
L 421.721256 291.466915 
L 451.548892 291.484833 
L 451.548892 291.484833 
" clip-path="url(#p5a2a57777b)" style="fill: none; stroke: #000000; stroke-width: 2; stroke-linecap: square"/>
   </g>
   <g id="line2d_16">
    <path d="M 98.233437 249.919704 
L 100.008892 156.67271 
L 101.784347 136.780019 
L 103.559801 155.740241 
L 107.11071 189.930805 
L 110.661619 214.175023 
L 124.865256 254.892877 
L 153.272528 277.272155 
" clip-path="url(#p5a2a57777b)" style="fill: none; stroke-dasharray: 3.7,1.6; stroke-dashoffset: 0; stroke: #000000"/>
    <defs>
     <path id="mb3fb4c803f" d="M 0 3 
C 0.795609 3 1.55874 2.683901 2.12132 2.12132 
C 2.683901 1.55874 3 0.795609 3 0 
C 3 -0.795609 2.683901 -1.55874 2.12132 -2.12132 
C 1.55874 -2.683901 0.795609 -3 0 -3 
C -0.795609 -3 -1.55874 -2.683901 -2.12132 -2.12132 
C -2.683901 -1.55874 -3 -0.795609 -3 0 
C -3 0.795609 -2.683901 1.55874 -2.12132 2.12132 
C -1.55874 2.683901 -0.795609 3 0 3 
z
" style="stroke: #000000"/>
    </defs>
    <g clip-path="url(#p5a2a57777b)">
     <use xlink:href="#mb3fb4c803f" x="98.233437" y="249.919704" style="stroke: #000000"/>
     <use xlink:href="#mb3fb4c803f" x="100.008892" y="156.67271" style="stroke: #000000"/>
     <use xlink:href="#mb3fb4c803f" x="101.784347" y="136.780019" style="stroke: #000000"/>
     <use xlink:href="#mb3fb4c803f" x="103.559801" y="155.740241" style="stroke: #000000"/>
     <use xlink:href="#mb3fb4c803f" x="107.11071" y="189.930805" style="stroke: #000000"/>
     <use xlink:href="#mb3fb4c803f" x="110.661619" y="214.175023" style="stroke: #000000"/>
     <use xlink:href="#mb3fb4c803f" x="124.865256" y="254.892877" style="stroke: #000000"/>
     <use xlink:href="#mb3fb4c803f" x="153.272528" y="277.272155" style="stroke: #000000"/>
    </g>
   </g>
   <g id="line2d_17">
    <path d="M 96.457983 292.813321 
L 97.168165 289.737761 
L 97.878347 282.093776 
L 100.008892 255.56727 
L 101.429256 241.906248 
L 102.139437 236.614801 
L 102.849619 232.26614 
L 103.559801 228.773199 
L 104.269983 226.046683 
L 104.980165 224.000758 
L 105.690347 222.555467 
L 106.400528 221.637558 
L 107.11071 221.180541 
L 107.820892 221.124404 
L 108.531074 221.415178 
L 109.241256 222.004456 
L 109.951437 222.848913 
L 111.371801 225.152741 
L 112.792165 228.064998 
L 114.92271 233.135024 
L 123.444892 254.494609 
L 125.575437 259.12867 
L 127.705983 263.333479 
L 129.836528 267.102386 
L 131.967074 270.447607 
L 134.097619 273.393062 
L 136.228165 275.969317 
L 138.35871 278.210063 
L 140.489256 280.14973 
L 142.619801 281.82192 
L 144.750347 283.258428 
L 147.591074 284.857634 
L 150.431801 286.152251 
L 153.272528 287.196147 
L 156.823437 288.2174 
L 160.374347 288.991126 
L 164.635437 289.673476 
L 169.60671 290.224341 
L 175.998347 290.673477 
L 183.810347 290.982983 
L 195.173256 291.193319 
L 215.768528 291.31093 
L 288.917256 291.38047 
L 451.548892 291.481441 
L 451.548892 291.481441 
" clip-path="url(#p5a2a57777b)" style="fill: none; stroke: #d62728; stroke-width: 2; stroke-linecap: square"/>
   </g>
   <g id="line2d_18">
    <path d="M 98.233437 271.988159 
L 100.008892 256.757817 
L 101.784347 241.527475 
L 103.559801 232.202775 
L 107.11071 225.364662 
L 110.661619 227.229602 
L 124.865256 242.149121 
L 153.272528 271.988159 
L 181.679801 280.380389 
L 210.087074 285.664385 
L 266.901619 288.150971 
" clip-path="url(#p5a2a57777b)" style="fill: none; stroke-dasharray: 3.7,1.6; stroke-dashoffset: 0; stroke: #d62728"/>
    <defs>
     <path id="mc6ebb29b74" d="M -3 3 
L 3 3 
L 3 -3 
L -3 -3 
z
" style="stroke: #000000; stroke-linejoin: miter"/>
    </defs>
    <g clip-path="url(#p5a2a57777b)">
     <use xlink:href="#mc6ebb29b74" x="98.233437" y="271.988159" style="fill: #d62728; stroke: #000000; stroke-linejoin: miter"/>
     <use xlink:href="#mc6ebb29b74" x="100.008892" y="256.757817" style="fill: #d62728; stroke: #000000; stroke-linejoin: miter"/>
     <use xlink:href="#mc6ebb29b74" x="101.784347" y="241.527475" style="fill: #d62728; stroke: #000000; stroke-linejoin: miter"/>
     <use xlink:href="#mc6ebb29b74" x="103.559801" y="232.202775" style="fill: #d62728; stroke: #000000; stroke-linejoin: miter"/>
     <use xlink:href="#mc6ebb29b74" x="107.11071" y="225.364662" style="fill: #d62728; stroke: #000000; stroke-linejoin: miter"/>
     <use xlink:href="#mc6ebb29b74" x="110.661619" y="227.229602" style="fill: #d62728; stroke: #000000; stroke-linejoin: miter"/>
     <use xlink:href="#mc6ebb29b74" x="124.865256" y="242.149121" style="fill: #d62728; stroke: #000000; stroke-linejoin: miter"/>
     <use xlink:href="#mc6ebb29b74" x="153.272528" y="271.988159" style="fill: #d62728; stroke: #000000; stroke-linejoin: miter"/>
     <use xlink:href="#mc6ebb29b74" x="181.679801" y="280.380389" style="fill: #d62728; stroke: #000000; stroke-linejoin: miter"/>
     <use xlink:href="#mc6ebb29b74" x="210.087074" y="285.664385" style="fill: #d62728; stroke: #000000; stroke-linejoin: miter"/>
     <use xlink:href="#mc6ebb29b74" x="266.901619" y="288.150971" style="fill: #d62728; stroke: #000000; stroke-linejoin: miter"/>
    </g>
   </g>
   <g id="line2d_19">
    <path d="M 96.457983 292.813321 
L 97.168165 289.737761 
L 97.878347 282.093776 
L 100.008892 255.56727 
L 101.429256 241.906248 
L 102.139437 236.614801 
L 102.849619 232.26614 
L 103.559801 228.773199 
L 104.269983 226.046683 
L 104.980165 224.000758 
L 105.690347 222.555467 
L 106.400528 221.637558 
L 107.11071 221.180541 
L 107.820892 221.124404 
L 108.531074 221.415178 
L 109.241256 222.004456 
L 109.951437 222.848913 
L 111.371801 225.152741 
L 112.792165 228.064998 
L 114.92271 233.135024 
L 123.444892 254.494609 
L 125.575437 259.12867 
L 127.705983 263.333479 
L 129.836528 267.102386 
L 131.967074 270.447607 
L 134.097619 273.393062 
L 136.228165 275.969317 
L 138.35871 278.210063 
L 140.489256 280.14973 
L 142.619801 281.82192 
L 144.750347 283.258428 
L 147.591074 284.857634 
L 150.431801 286.152251 
L 153.272528 287.196147 
L 156.823437 288.2174 
L 160.374347 288.991126 
L 164.635437 289.673476 
L 169.60671 290.224341 
L 175.998347 290.673477 
L 183.810347 290.982983 
L 195.173256 291.193319 
L 215.768528 291.31093 
L 288.917256 291.38047 
L 451.548892 291.481441 
L 451.548892 291.481441 
" clip-path="url(#p5a2a57777b)" style="fill: none; stroke: #d62728; stroke-width: 2; stroke-linecap: square"/>
   </g>
   <g id="line2d_20">
    <path d="M 98.233437 284.421092 
L 100.008892 263.59593 
L 101.784347 255.514524 
L 103.559801 251.473821 
L 107.11071 239.351711 
L 110.661619 237.486772 
L 124.865256 239.351711 
L 153.272528 268.258279 
L 181.679801 279.758742 
L 210.087074 285.664385 
L 266.901619 287.840148 
" clip-path="url(#p5a2a57777b)" style="fill: none; stroke-dasharray: 3.7,1.6; stroke-dashoffset: 0; stroke: #d62728"/>
    <defs>
     <path id="mba285e575d" d="M 0 3 
C 0.795609 3 1.55874 2.683901 2.12132 2.12132 
C 2.683901 1.55874 3 0.795609 3 0 
C 3 -0.795609 2.683901 -1.55874 2.12132 -2.12132 
C 1.55874 -2.683901 0.795609 -3 0 -3 
C -0.795609 -3 -1.55874 -2.683901 -2.12132 -2.12132 
C -2.683901 -1.55874 -3 -0.795609 -3 0 
C -3 0.795609 -2.683901 1.55874 -2.12132 2.12132 
C -1.55874 2.683901 -0.795609 3 0 3 
z
" style="stroke: #000000"/>
    </defs>
    <g clip-path="url(#p5a2a57777b)">
     <use xlink:href="#mba285e575d" x="98.233437" y="284.421092" style="fill: #d62728; stroke: #000000"/>
     <use xlink:href="#mba285e575d" x="100.008892" y="263.59593" style="fill: #d62728; stroke: #000000"/>
     <use xlink:href="#mba285e575d" x="101.784347" y="255.514524" style="fill: #d62728; stroke: #000000"/>
     <use xlink:href="#mba285e575d" x="103.559801" y="251.473821" style="fill: #d62728; stroke: #000000"/>
     <use xlink:href="#mba285e575d" x="107.11071" y="239.351711" style="fill: #d62728; stroke: #000000"/>
     <use xlink:href="#mba285e575d" x="110.661619" y="237.486772" style="fill: #d62728; stroke: #000000"/>
     <use xlink:href="#mba285e575d" x="124.865256" y="239.351711" style="fill: #d62728; stroke: #000000"/>
     <use xlink:href="#mba285e575d" x="153.272528" y="268.258279" style="fill: #d62728; stroke: #000000"/>
     <use xlink:href="#mba285e575d" x="181.679801" y="279.758742" style="fill: #d62728; stroke: #000000"/>
     <use xlink:href="#mba285e575d" x="210.087074" y="285.664385" style="fill: #d62728; stroke: #000000"/>
     <use xlink:href="#mba285e575d" x="266.901619" y="287.840148" style="fill: #d62728; stroke: #000000"/>
    </g>
   </g>
   <g id="patch_3">
    <path d="M 78.703437 320.243478 
L 78.703437 79.2 
" style="fill: none; stroke: #000000; stroke-width: 0.8; stroke-linejoin: miter; stroke-linecap: square"/>
   </g>
   <g id="patch_4">
    <path d="M 469.303437 320.243478 
L 469.303437 79.2 
" style="fill: none; stroke: #000000; stroke-width: 0.8; stroke-linejoin: miter; stroke-linecap: square"/>
   </g>
   <g id="patch_5">
    <path d="M 78.703437 320.243478 
L 469.303437 320.243478 
" style="fill: none; stroke: #000000; stroke-width: 0.8; stroke-linejoin: miter; stroke-linecap: square"/>
   </g>
   <g id="patch_6">
    <path d="M 78.703437 79.2 
L 469.303437 79.2 
" style="fill: none; stroke: #000000; stroke-width: 0.8; stroke-linejoin: miter; stroke-linecap: square"/>
   </g>
   <g id="legend_1">
    <g id="patch_7">
     <path d="M 276.872187 206.85 
L 462.303437 206.85 
Q 464.303437 206.85 464.303437 204.85 
L 464.303437 86.2 
Q 464.303437 84.2 462.303437 84.2 
L 276.872187 84.2 
Q 274.872187 84.2 274.872187 86.2 
L 274.872187 204.85 
Q 274.872187 206.85 276.872187 206.85 
z
" style="fill: #ffffff; opacity: 0.8; stroke: #cccccc; stroke-linejoin: miter"/>
    </g>
    <g id="line2d_21">
     <path d="M 278.872187 92.298437 
L 298.872187 92.298437 
" style="fill: none; stroke: #000000; stroke-width: 2; stroke-linecap: square"/>
    </g>
    <g id="line2d_22"/>
    <g id="text_15">
     <!-- dap (2.5_fasted) -->
     <g transform="translate(306.872187 95.798437) scale(0.1 -0.1)">
      <defs>
       <path id="DejaVuSans-64" d="M 2906 2969 
L 2906 4863 
L 3481 4863 
L 3481 0 
L 2906 0 
L 2906 525 
Q 2725 213 2448 61 
Q 2172 -91 1784 -91 
Q 1150 -91 751 415 
Q 353 922 353 1747 
Q 353 2572 751 3078 
Q 1150 3584 1784 3584 
Q 2172 3584 2448 3432 
Q 2725 3281 2906 2969 
z
M 947 1747 
Q 947 1113 1208 752 
Q 1469 391 1925 391 
Q 2381 391 2643 752 
Q 2906 1113 2906 1747 
Q 2906 2381 2643 2742 
Q 2381 3103 1925 3103 
Q 1469 3103 1208 2742 
Q 947 2381 947 1747 
z
" transform="scale(0.015625)"/>
       <path id="DejaVuSans-61" d="M 2194 1759 
Q 1497 1759 1228 1600 
Q 959 1441 959 1056 
Q 959 750 1161 570 
Q 1363 391 1709 391 
Q 2188 391 2477 730 
Q 2766 1069 2766 1631 
L 2766 1759 
L 2194 1759 
z
M 3341 1997 
L 3341 0 
L 2766 0 
L 2766 531 
Q 2569 213 2275 61 
Q 1981 -91 1556 -91 
Q 1019 -91 701 211 
Q 384 513 384 1019 
Q 384 1609 779 1909 
Q 1175 2209 1959 2209 
L 2766 2209 
L 2766 2266 
Q 2766 2663 2505 2880 
Q 2244 3097 1772 3097 
Q 1472 3097 1187 3025 
Q 903 2953 641 2809 
L 641 3341 
Q 956 3463 1253 3523 
Q 1550 3584 1831 3584 
Q 2591 3584 2966 3190 
Q 3341 2797 3341 1997 
z
" transform="scale(0.015625)"/>
       <path id="DejaVuSans-70" d="M 1159 525 
L 1159 -1331 
L 581 -1331 
L 581 3500 
L 1159 3500 
L 1159 2969 
Q 1341 3281 1617 3432 
Q 1894 3584 2278 3584 
Q 2916 3584 3314 3078 
Q 3713 2572 3713 1747 
Q 3713 922 3314 415 
Q 2916 -91 2278 -91 
Q 1894 -91 1617 61 
Q 1341 213 1159 525 
z
M 3116 1747 
Q 3116 2381 2855 2742 
Q 2594 3103 2138 3103 
Q 1681 3103 1420 2742 
Q 1159 2381 1159 1747 
Q 1159 1113 1420 752 
Q 1681 391 2138 391 
Q 2594 391 2855 752 
Q 3116 1113 3116 1747 
z
" transform="scale(0.015625)"/>
       <path id="DejaVuSans-20" transform="scale(0.015625)"/>
       <path id="DejaVuSans-28" d="M 1984 4856 
Q 1566 4138 1362 3434 
Q 1159 2731 1159 2009 
Q 1159 1288 1364 580 
Q 1569 -128 1984 -844 
L 1484 -844 
Q 1016 -109 783 600 
Q 550 1309 550 2009 
Q 550 2706 781 3412 
Q 1013 4119 1484 4856 
L 1984 4856 
z
" transform="scale(0.015625)"/>
       <path id="DejaVuSans-5f" d="M 3263 -1063 
L 3263 -1509 
L -63 -1509 
L -63 -1063 
L 3263 -1063 
z
" transform="scale(0.015625)"/>
       <path id="DejaVuSans-66" d="M 2375 4863 
L 2375 4384 
L 1825 4384 
Q 1516 4384 1395 4259 
Q 1275 4134 1275 3809 
L 1275 3500 
L 2222 3500 
L 2222 3053 
L 1275 3053 
L 1275 0 
L 697 0 
L 697 3053 
L 147 3053 
L 147 3500 
L 697 3500 
L 697 3744 
Q 697 4328 969 4595 
Q 1241 4863 1831 4863 
L 2375 4863 
z
" transform="scale(0.015625)"/>
       <path id="DejaVuSans-73" d="M 2834 3397 
L 2834 2853 
Q 2591 2978 2328 3040 
Q 2066 3103 1784 3103 
Q 1356 3103 1142 2972 
Q 928 2841 928 2578 
Q 928 2378 1081 2264 
Q 1234 2150 1697 2047 
L 1894 2003 
Q 2506 1872 2764 1633 
Q 3022 1394 3022 966 
Q 3022 478 2636 193 
Q 2250 -91 1575 -91 
Q 1294 -91 989 -36 
Q 684 19 347 128 
L 347 722 
Q 666 556 975 473 
Q 1284 391 1588 391 
Q 1994 391 2212 530 
Q 2431 669 2431 922 
Q 2431 1156 2273 1281 
Q 2116 1406 1581 1522 
L 1381 1569 
Q 847 1681 609 1914 
Q 372 2147 372 2553 
Q 372 3047 722 3315 
Q 1072 3584 1716 3584 
Q 2034 3584 2315 3537 
Q 2597 3491 2834 3397 
z
" transform="scale(0.015625)"/>
       <path id="DejaVuSans-74" d="M 1172 4494 
L 1172 3500 
L 2356 3500 
L 2356 3053 
L 1172 3053 
L 1172 1153 
Q 1172 725 1289 603 
Q 1406 481 1766 481 
L 2356 481 
L 2356 0 
L 1766 0 
Q 1100 0 847 248 
Q 594 497 594 1153 
L 594 3053 
L 172 3053 
L 172 3500 
L 594 3500 
L 594 4494 
L 1172 4494 
z
" transform="scale(0.015625)"/>
       <path id="DejaVuSans-65" d="M 3597 1894 
L 3597 1613 
L 953 1613 
Q 991 1019 1311 708 
Q 1631 397 2203 397 
Q 2534 397 2845 478 
Q 3156 559 3463 722 
L 3463 178 
Q 3153 47 2828 -22 
Q 2503 -91 2169 -91 
Q 1331 -91 842 396 
Q 353 884 353 1716 
Q 353 2575 817 3079 
Q 1281 3584 2069 3584 
Q 2775 3584 3186 3129 
Q 3597 2675 3597 1894 
z
M 3022 2063 
Q 3016 2534 2758 2815 
Q 2500 3097 2075 3097 
Q 1594 3097 1305 2825 
Q 1016 2553 972 2059 
L 3022 2063 
z
" transform="scale(0.015625)"/>
       <path id="DejaVuSans-29" d="M 513 4856 
L 1013 4856 
Q 1481 4119 1714 3412 
Q 1947 2706 1947 2009 
Q 1947 1309 1714 600 
Q 1481 -109 1013 -844 
L 513 -844 
Q 928 -128 1133 580 
Q 1338 1288 1338 2009 
Q 1338 2731 1133 3434 
Q 928 4138 513 4856 
z
" transform="scale(0.015625)"/>
      </defs>
      <use xlink:href="#DejaVuSans-64"/>
      <use xlink:href="#DejaVuSans-61" x="63.476562"/>
      <use xlink:href="#DejaVuSans-70" x="124.755859"/>
      <use xlink:href="#DejaVuSans-20" x="188.232422"/>
      <use xlink:href="#DejaVuSans-28" x="220.019531"/>
      <use xlink:href="#DejaVuSans-32" x="259.033203"/>
      <use xlink:href="#DejaVuSans-2e" x="322.65625"/>
      <use xlink:href="#DejaVuSans-35" x="354.443359"/>
      <use xlink:href="#DejaVuSans-5f" x="418.066406"/>
      <use xlink:href="#DejaVuSans-66" x="468.066406"/>
      <use xlink:href="#DejaVuSans-61" x="503.271484"/>
      <use xlink:href="#DejaVuSans-73" x="564.550781"/>
      <use xlink:href="#DejaVuSans-74" x="616.650391"/>
      <use xlink:href="#DejaVuSans-65" x="655.859375"/>
      <use xlink:href="#DejaVuSans-64" x="717.382812"/>
      <use xlink:href="#DejaVuSans-29" x="780.859375"/>
     </g>
    </g>
    <g id="LineCollection_5">
     <path d="M 288.872187 112.254687 
L 288.872187 102.254687 
" style="fill: none; stroke: #000000"/>
    </g>
    <g id="line2d_23">
     <path d="M 278.872187 107.254687 
L 298.872187 107.254687 
" style="fill: none; stroke-dasharray: 3.7,1.6; stroke-dashoffset: 0; stroke: #000000"/>
    </g>
    <g id="line2d_24">
     <g>
      <use xlink:href="#mb07d7cb6ef" x="288.872187" y="107.254687" style="stroke: #000000; stroke-linejoin: miter"/>
     </g>
    </g>
    <g id="text_16">
     <!-- fasted_DAP2.5_NH±SD (n=28) -->
     <g transform="translate(306.872187 110.754687) scale(0.1 -0.1)">
      <defs>
       <path id="DejaVuSans-44" d="M 1259 4147 
L 1259 519 
L 2022 519 
Q 2988 519 3436 956 
Q 3884 1394 3884 2338 
Q 3884 3275 3436 3711 
Q 2988 4147 2022 4147 
L 1259 4147 
z
M 628 4666 
L 1925 4666 
Q 3281 4666 3915 4102 
Q 4550 3538 4550 2338 
Q 4550 1131 3912 565 
Q 3275 0 1925 0 
L 628 0 
L 628 4666 
z
" transform="scale(0.015625)"/>
       <path id="DejaVuSans-41" d="M 2188 4044 
L 1331 1722 
L 3047 1722 
L 2188 4044 
z
M 1831 4666 
L 2547 4666 
L 4325 0 
L 3669 0 
L 3244 1197 
L 1141 1197 
L 716 0 
L 50 0 
L 1831 4666 
z
" transform="scale(0.015625)"/>
       <path id="DejaVuSans-50" d="M 1259 4147 
L 1259 2394 
L 2053 2394 
Q 2494 2394 2734 2622 
Q 2975 2850 2975 3272 
Q 2975 3691 2734 3919 
Q 2494 4147 2053 4147 
L 1259 4147 
z
M 628 4666 
L 2053 4666 
Q 2838 4666 3239 4311 
Q 3641 3956 3641 3272 
Q 3641 2581 3239 2228 
Q 2838 1875 2053 1875 
L 1259 1875 
L 1259 0 
L 628 0 
L 628 4666 
z
" transform="scale(0.015625)"/>
       <path id="DejaVuSans-4e" d="M 628 4666 
L 1478 4666 
L 3547 763 
L 3547 4666 
L 4159 4666 
L 4159 0 
L 3309 0 
L 1241 3903 
L 1241 0 
L 628 0 
L 628 4666 
z
" transform="scale(0.015625)"/>
       <path id="DejaVuSans-48" d="M 628 4666 
L 1259 4666 
L 1259 2753 
L 3553 2753 
L 3553 4666 
L 4184 4666 
L 4184 0 
L 3553 0 
L 3553 2222 
L 1259 2222 
L 1259 0 
L 628 0 
L 628 4666 
z
" transform="scale(0.015625)"/>
       <path id="DejaVuSans-b1" d="M 2944 4013 
L 2944 2803 
L 4684 2803 
L 4684 2272 
L 2944 2272 
L 2944 1063 
L 2419 1063 
L 2419 2272 
L 678 2272 
L 678 2803 
L 2419 2803 
L 2419 4013 
L 2944 4013 
z
M 678 531 
L 4684 531 
L 4684 0 
L 678 0 
L 678 531 
z
" transform="scale(0.015625)"/>
       <path id="DejaVuSans-53" d="M 3425 4513 
L 3425 3897 
Q 3066 4069 2747 4153 
Q 2428 4238 2131 4238 
Q 1616 4238 1336 4038 
Q 1056 3838 1056 3469 
Q 1056 3159 1242 3001 
Q 1428 2844 1947 2747 
L 2328 2669 
Q 3034 2534 3370 2195 
Q 3706 1856 3706 1288 
Q 3706 609 3251 259 
Q 2797 -91 1919 -91 
Q 1588 -91 1214 -16 
Q 841 59 441 206 
L 441 856 
Q 825 641 1194 531 
Q 1563 422 1919 422 
Q 2459 422 2753 634 
Q 3047 847 3047 1241 
Q 3047 1584 2836 1778 
Q 2625 1972 2144 2069 
L 1759 2144 
Q 1053 2284 737 2584 
Q 422 2884 422 3419 
Q 422 4038 858 4394 
Q 1294 4750 2059 4750 
Q 2388 4750 2728 4690 
Q 3069 4631 3425 4513 
z
" transform="scale(0.015625)"/>
       <path id="DejaVuSans-6e" d="M 3513 2113 
L 3513 0 
L 2938 0 
L 2938 2094 
Q 2938 2591 2744 2837 
Q 2550 3084 2163 3084 
Q 1697 3084 1428 2787 
Q 1159 2491 1159 1978 
L 1159 0 
L 581 0 
L 581 3500 
L 1159 3500 
L 1159 2956 
Q 1366 3272 1645 3428 
Q 1925 3584 2291 3584 
Q 2894 3584 3203 3211 
Q 3513 2838 3513 2113 
z
" transform="scale(0.015625)"/>
       <path id="DejaVuSans-3d" d="M 678 2906 
L 4684 2906 
L 4684 2381 
L 678 2381 
L 678 2906 
z
M 678 1631 
L 4684 1631 
L 4684 1100 
L 678 1100 
L 678 1631 
z
" transform="scale(0.015625)"/>
       <path id="DejaVuSans-38" d="M 2034 2216 
Q 1584 2216 1326 1975 
Q 1069 1734 1069 1313 
Q 1069 891 1326 650 
Q 1584 409 2034 409 
Q 2484 409 2743 651 
Q 3003 894 3003 1313 
Q 3003 1734 2745 1975 
Q 2488 2216 2034 2216 
z
M 1403 2484 
Q 997 2584 770 2862 
Q 544 3141 544 3541 
Q 544 4100 942 4425 
Q 1341 4750 2034 4750 
Q 2731 4750 3128 4425 
Q 3525 4100 3525 3541 
Q 3525 3141 3298 2862 
Q 3072 2584 2669 2484 
Q 3125 2378 3379 2068 
Q 3634 1759 3634 1313 
Q 3634 634 3220 271 
Q 2806 -91 2034 -91 
Q 1263 -91 848 271 
Q 434 634 434 1313 
Q 434 1759 690 2068 
Q 947 2378 1403 2484 
z
M 1172 3481 
Q 1172 3119 1398 2916 
Q 1625 2713 2034 2713 
Q 2441 2713 2670 2916 
Q 2900 3119 2900 3481 
Q 2900 3844 2670 4047 
Q 2441 4250 2034 4250 
Q 1625 4250 1398 4047 
Q 1172 3844 1172 3481 
z
" transform="scale(0.015625)"/>
      </defs>
      <use xlink:href="#DejaVuSans-66"/>
      <use xlink:href="#DejaVuSans-61" x="35.205078"/>
      <use xlink:href="#DejaVuSans-73" x="96.484375"/>
      <use xlink:href="#DejaVuSans-74" x="148.583984"/>
      <use xlink:href="#DejaVuSans-65" x="187.792969"/>
      <use xlink:href="#DejaVuSans-64" x="249.316406"/>
      <use xlink:href="#DejaVuSans-5f" x="312.792969"/>
      <use xlink:href="#DejaVuSans-44" x="362.792969"/>
      <use xlink:href="#DejaVuSans-41" x="438.044922"/>
      <use xlink:href="#DejaVuSans-50" x="506.453125"/>
      <use xlink:href="#DejaVuSans-32" x="566.755859"/>
      <use xlink:href="#DejaVuSans-2e" x="630.378906"/>
      <use xlink:href="#DejaVuSans-35" x="662.166016"/>
      <use xlink:href="#DejaVuSans-5f" x="725.789062"/>
      <use xlink:href="#DejaVuSans-4e" x="775.789062"/>
      <use xlink:href="#DejaVuSans-48" x="850.59375"/>
      <use xlink:href="#DejaVuSans-b1" x="925.789062"/>
      <use xlink:href="#DejaVuSans-53" x="1009.578125"/>
      <use xlink:href="#DejaVuSans-44" x="1073.054688"/>
      <use xlink:href="#DejaVuSans-20" x="1150.056641"/>
      <use xlink:href="#DejaVuSans-28" x="1181.84375"/>
      <use xlink:href="#DejaVuSans-6e" x="1220.857422"/>
      <use xlink:href="#DejaVuSans-3d" x="1284.236328"/>
      <use xlink:href="#DejaVuSans-32" x="1368.025391"/>
      <use xlink:href="#DejaVuSans-38" x="1431.648438"/>
      <use xlink:href="#DejaVuSans-29" x="1495.271484"/>
     </g>
    </g>
    <g id="line2d_25">
     <path d="M 278.872187 122.210938 
L 298.872187 122.210938 
" style="fill: none; stroke: #000000; stroke-width: 2; stroke-linecap: square"/>
    </g>
    <g id="line2d_26"/>
    <g id="text_17">
     <!-- dap (2.5_fasted) -->
     <g transform="translate(306.872187 125.710938) scale(0.1 -0.1)">
      <use xlink:href="#DejaVuSans-64"/>
      <use xlink:href="#DejaVuSans-61" x="63.476562"/>
      <use xlink:href="#DejaVuSans-70" x="124.755859"/>
      <use xlink:href="#DejaVuSans-20" x="188.232422"/>
      <use xlink:href="#DejaVuSans-28" x="220.019531"/>
      <use xlink:href="#DejaVuSans-32" x="259.033203"/>
      <use xlink:href="#DejaVuSans-2e" x="322.65625"/>
      <use xlink:href="#DejaVuSans-35" x="354.443359"/>
      <use xlink:href="#DejaVuSans-5f" x="418.066406"/>
      <use xlink:href="#DejaVuSans-66" x="468.066406"/>
      <use xlink:href="#DejaVuSans-61" x="503.271484"/>
      <use xlink:href="#DejaVuSans-73" x="564.550781"/>
      <use xlink:href="#DejaVuSans-74" x="616.650391"/>
      <use xlink:href="#DejaVuSans-65" x="655.859375"/>
      <use xlink:href="#DejaVuSans-64" x="717.382812"/>
      <use xlink:href="#DejaVuSans-29" x="780.859375"/>
     </g>
    </g>
    <g id="LineCollection_6">
     <path d="M 288.872187 142.167187 
L 288.872187 132.167187 
" style="fill: none; stroke: #000000"/>
    </g>
    <g id="line2d_27">
     <path d="M 278.872187 137.167187 
L 298.872187 137.167187 
" style="fill: none; stroke-dasharray: 3.7,1.6; stroke-dashoffset: 0; stroke: #000000"/>
    </g>
    <g id="line2d_28">
     <g>
      <use xlink:href="#mb3fb4c803f" x="288.872187" y="137.167187" style="stroke: #000000"/>
     </g>
    </g>
    <g id="text_18">
     <!-- fasted_DAP2.5_HS±SD (n=26) -->
     <g transform="translate(306.872187 140.667187) scale(0.1 -0.1)">
      <defs>
       <path id="DejaVuSans-36" d="M 2113 2584 
Q 1688 2584 1439 2293 
Q 1191 2003 1191 1497 
Q 1191 994 1439 701 
Q 1688 409 2113 409 
Q 2538 409 2786 701 
Q 3034 994 3034 1497 
Q 3034 2003 2786 2293 
Q 2538 2584 2113 2584 
z
M 3366 4563 
L 3366 3988 
Q 3128 4100 2886 4159 
Q 2644 4219 2406 4219 
Q 1781 4219 1451 3797 
Q 1122 3375 1075 2522 
Q 1259 2794 1537 2939 
Q 1816 3084 2150 3084 
Q 2853 3084 3261 2657 
Q 3669 2231 3669 1497 
Q 3669 778 3244 343 
Q 2819 -91 2113 -91 
Q 1303 -91 875 529 
Q 447 1150 447 2328 
Q 447 3434 972 4092 
Q 1497 4750 2381 4750 
Q 2619 4750 2861 4703 
Q 3103 4656 3366 4563 
z
" transform="scale(0.015625)"/>
      </defs>
      <use xlink:href="#DejaVuSans-66"/>
      <use xlink:href="#DejaVuSans-61" x="35.205078"/>
      <use xlink:href="#DejaVuSans-73" x="96.484375"/>
      <use xlink:href="#DejaVuSans-74" x="148.583984"/>
      <use xlink:href="#DejaVuSans-65" x="187.792969"/>
      <use xlink:href="#DejaVuSans-64" x="249.316406"/>
      <use xlink:href="#DejaVuSans-5f" x="312.792969"/>
      <use xlink:href="#DejaVuSans-44" x="362.792969"/>
      <use xlink:href="#DejaVuSans-41" x="438.044922"/>
      <use xlink:href="#DejaVuSans-50" x="506.453125"/>
      <use xlink:href="#DejaVuSans-32" x="566.755859"/>
      <use xlink:href="#DejaVuSans-2e" x="630.378906"/>
      <use xlink:href="#DejaVuSans-35" x="662.166016"/>
      <use xlink:href="#DejaVuSans-5f" x="725.789062"/>
      <use xlink:href="#DejaVuSans-48" x="775.789062"/>
      <use xlink:href="#DejaVuSans-53" x="850.984375"/>
      <use xlink:href="#DejaVuSans-b1" x="914.460938"/>
      <use xlink:href="#DejaVuSans-53" x="998.25"/>
      <use xlink:href="#DejaVuSans-44" x="1061.726562"/>
      <use xlink:href="#DejaVuSans-20" x="1138.728516"/>
      <use xlink:href="#DejaVuSans-28" x="1170.515625"/>
      <use xlink:href="#DejaVuSans-6e" x="1209.529297"/>
      <use xlink:href="#DejaVuSans-3d" x="1272.908203"/>
      <use xlink:href="#DejaVuSans-32" x="1356.697266"/>
      <use xlink:href="#DejaVuSans-36" x="1420.320312"/>
      <use xlink:href="#DejaVuSans-29" x="1483.943359"/>
     </g>
    </g>
    <g id="line2d_29">
     <path d="M 278.872187 152.123438 
L 298.872187 152.123438 
" style="fill: none; stroke: #d62728; stroke-width: 2; stroke-linecap: square"/>
    </g>
    <g id="line2d_30"/>
    <g id="text_19">
     <!-- dap (2.5_fed) -->
     <g transform="translate(306.872187 155.623438) scale(0.1 -0.1)">
      <use xlink:href="#DejaVuSans-64"/>
      <use xlink:href="#DejaVuSans-61" x="63.476562"/>
      <use xlink:href="#DejaVuSans-70" x="124.755859"/>
      <use xlink:href="#DejaVuSans-20" x="188.232422"/>
      <use xlink:href="#DejaVuSans-28" x="220.019531"/>
      <use xlink:href="#DejaVuSans-32" x="259.033203"/>
      <use xlink:href="#DejaVuSans-2e" x="322.65625"/>
      <use xlink:href="#DejaVuSans-35" x="354.443359"/>
      <use xlink:href="#DejaVuSans-5f" x="418.066406"/>
      <use xlink:href="#DejaVuSans-66" x="468.066406"/>
      <use xlink:href="#DejaVuSans-65" x="503.271484"/>
      <use xlink:href="#DejaVuSans-64" x="564.794922"/>
      <use xlink:href="#DejaVuSans-29" x="628.271484"/>
     </g>
    </g>
    <g id="LineCollection_7">
     <path d="M 288.872187 172.079687 
L 288.872187 162.079687 
" style="fill: none; stroke: #d62728"/>
    </g>
    <g id="line2d_31">
     <path d="M 278.872187 167.079687 
L 298.872187 167.079687 
" style="fill: none; stroke-dasharray: 3.7,1.6; stroke-dashoffset: 0; stroke: #d62728"/>
    </g>
    <g id="line2d_32">
     <g>
      <use xlink:href="#mc6ebb29b74" x="288.872187" y="167.079687" style="fill: #d62728; stroke: #000000; stroke-linejoin: miter"/>
     </g>
    </g>
    <g id="text_20">
     <!-- fed_DAP2.5_NH±SD (n=27) -->
     <g transform="translate(306.872187 170.579687) scale(0.1 -0.1)">
      <use xlink:href="#DejaVuSans-66"/>
      <use xlink:href="#DejaVuSans-65" x="35.205078"/>
      <use xlink:href="#DejaVuSans-64" x="96.728516"/>
      <use xlink:href="#DejaVuSans-5f" x="160.205078"/>
      <use xlink:href="#DejaVuSans-44" x="210.205078"/>
      <use xlink:href="#DejaVuSans-41" x="285.457031"/>
      <use xlink:href="#DejaVuSans-50" x="353.865234"/>
      <use xlink:href="#DejaVuSans-32" x="414.167969"/>
      <use xlink:href="#DejaVuSans-2e" x="477.791016"/>
      <use xlink:href="#DejaVuSans-35" x="509.578125"/>
      <use xlink:href="#DejaVuSans-5f" x="573.201172"/>
      <use xlink:href="#DejaVuSans-4e" x="623.201172"/>
      <use xlink:href="#DejaVuSans-48" x="698.005859"/>
      <use xlink:href="#DejaVuSans-b1" x="773.201172"/>
      <use xlink:href="#DejaVuSans-53" x="856.990234"/>
      <use xlink:href="#DejaVuSans-44" x="920.466797"/>
      <use xlink:href="#DejaVuSans-20" x="997.46875"/>
      <use xlink:href="#DejaVuSans-28" x="1029.255859"/>
      <use xlink:href="#DejaVuSans-6e" x="1068.269531"/>
      <use xlink:href="#DejaVuSans-3d" x="1131.648438"/>
      <use xlink:href="#DejaVuSans-32" x="1215.4375"/>
      <use xlink:href="#DejaVuSans-37" x="1279.060547"/>
      <use xlink:href="#DejaVuSans-29" x="1342.683594"/>
     </g>
    </g>
    <g id="line2d_33">
     <path d="M 278.872187 182.035937 
L 298.872187 182.035937 
" style="fill: none; stroke: #d62728; stroke-width: 2; stroke-linecap: square"/>
    </g>
    <g id="line2d_34"/>
    <g id="text_21">
     <!-- dap (2.5_fed) -->
     <g transform="translate(306.872187 185.535937) scale(0.1 -0.1)">
      <use xlink:href="#DejaVuSans-64"/>
      <use xlink:href="#DejaVuSans-61" x="63.476562"/>
      <use xlink:href="#DejaVuSans-70" x="124.755859"/>
      <use xlink:href="#DejaVuSans-20" x="188.232422"/>
      <use xlink:href="#DejaVuSans-28" x="220.019531"/>
      <use xlink:href="#DejaVuSans-32" x="259.033203"/>
      <use xlink:href="#DejaVuSans-2e" x="322.65625"/>
      <use xlink:href="#DejaVuSans-35" x="354.443359"/>
      <use xlink:href="#DejaVuSans-5f" x="418.066406"/>
      <use xlink:href="#DejaVuSans-66" x="468.066406"/>
      <use xlink:href="#DejaVuSans-65" x="503.271484"/>
      <use xlink:href="#DejaVuSans-64" x="564.794922"/>
      <use xlink:href="#DejaVuSans-29" x="628.271484"/>
     </g>
    </g>
    <g id="LineCollection_8">
     <path d="M 288.872187 201.992188 
L 288.872187 191.992188 
" style="fill: none; stroke: #d62728"/>
    </g>
    <g id="line2d_35">
     <path d="M 278.872187 196.992188 
L 298.872187 196.992188 
" style="fill: none; stroke-dasharray: 3.7,1.6; stroke-dashoffset: 0; stroke: #d62728"/>
    </g>
    <g id="line2d_36">
     <g>
      <use xlink:href="#mba285e575d" x="288.872187" y="196.992188" style="fill: #d62728; stroke: #000000"/>
     </g>
    </g>
    <g id="text_22">
     <!-- fed_DAP2.5_HS±SD (n=28) -->
     <g transform="translate(306.872187 200.492188) scale(0.1 -0.1)">
      <use xlink:href="#DejaVuSans-66"/>
      <use xlink:href="#DejaVuSans-65" x="35.205078"/>
      <use xlink:href="#DejaVuSans-64" x="96.728516"/>
      <use xlink:href="#DejaVuSans-5f" x="160.205078"/>
      <use xlink:href="#DejaVuSans-44" x="210.205078"/>
      <use xlink:href="#DejaVuSans-41" x="285.457031"/>
      <use xlink:href="#DejaVuSans-50" x="353.865234"/>
      <use xlink:href="#DejaVuSans-32" x="414.167969"/>
      <use xlink:href="#DejaVuSans-2e" x="477.791016"/>
      <use xlink:href="#DejaVuSans-35" x="509.578125"/>
      <use xlink:href="#DejaVuSans-5f" x="573.201172"/>
      <use xlink:href="#DejaVuSans-48" x="623.201172"/>
      <use xlink:href="#DejaVuSans-53" x="698.396484"/>
      <use xlink:href="#DejaVuSans-b1" x="761.873047"/>
      <use xlink:href="#DejaVuSans-53" x="845.662109"/>
      <use xlink:href="#DejaVuSans-44" x="909.138672"/>
      <use xlink:href="#DejaVuSans-20" x="986.140625"/>
      <use xlink:href="#DejaVuSans-28" x="1017.927734"/>
      <use xlink:href="#DejaVuSans-6e" x="1056.941406"/>
      <use xlink:href="#DejaVuSans-3d" x="1120.320312"/>
      <use xlink:href="#DejaVuSans-32" x="1204.109375"/>
      <use xlink:href="#DejaVuSans-38" x="1267.732422"/>
      <use xlink:href="#DejaVuSans-29" x="1331.355469"/>
     </g>
    </g>
   </g>
  </g>
  <g id="axes_2">
   <g id="patch_8">
    <path d="M 78.703437 633.6 
L 469.303437 633.6 
L 469.303437 392.556522 
L 78.703437 392.556522 
z
" style="fill: #ffffff"/>
   </g>
   <g id="matplotlib.axis_3">
    <g id="xtick_7">
     <g id="line2d_37">
      <g>
       <use xlink:href="#ma77b421cfa" x="96.457983" y="633.6" style="stroke: #000000; stroke-width: 0.8"/>
      </g>
     </g>
     <g id="text_23">
      <!-- 0 -->
      <g transform="translate(91.686108 651.997656) scale(0.15 -0.15)">
       <use xlink:href="#DejaVuSans-30"/>
      </g>
     </g>
    </g>
    <g id="xtick_8">
     <g id="line2d_38">
      <g>
       <use xlink:href="#ma77b421cfa" x="167.476165" y="633.6" style="stroke: #000000; stroke-width: 0.8"/>
      </g>
     </g>
     <g id="text_24">
      <!-- 10 -->
      <g transform="translate(157.932415 651.997656) scale(0.15 -0.15)">
       <use xlink:href="#DejaVuSans-31"/>
       <use xlink:href="#DejaVuSans-30" x="63.623047"/>
      </g>
     </g>
    </g>
    <g id="xtick_9">
     <g id="line2d_39">
      <g>
       <use xlink:href="#ma77b421cfa" x="238.494347" y="633.6" style="stroke: #000000; stroke-width: 0.8"/>
      </g>
     </g>
     <g id="text_25">
      <!-- 20 -->
      <g transform="translate(228.950597 651.997656) scale(0.15 -0.15)">
       <use xlink:href="#DejaVuSans-32"/>
       <use xlink:href="#DejaVuSans-30" x="63.623047"/>
      </g>
     </g>
    </g>
    <g id="xtick_10">
     <g id="line2d_40">
      <g>
       <use xlink:href="#ma77b421cfa" x="309.512528" y="633.6" style="stroke: #000000; stroke-width: 0.8"/>
      </g>
     </g>
     <g id="text_26">
      <!-- 30 -->
      <g transform="translate(299.968778 651.997656) scale(0.15 -0.15)">
       <use xlink:href="#DejaVuSans-33"/>
       <use xlink:href="#DejaVuSans-30" x="63.623047"/>
      </g>
     </g>
    </g>
    <g id="xtick_11">
     <g id="line2d_41">
      <g>
       <use xlink:href="#ma77b421cfa" x="380.53071" y="633.6" style="stroke: #000000; stroke-width: 0.8"/>
      </g>
     </g>
     <g id="text_27">
      <!-- 40 -->
      <g transform="translate(370.98696 651.997656) scale(0.15 -0.15)">
       <use xlink:href="#DejaVuSans-34"/>
       <use xlink:href="#DejaVuSans-30" x="63.623047"/>
      </g>
     </g>
    </g>
    <g id="xtick_12">
     <g id="line2d_42">
      <g>
       <use xlink:href="#ma77b421cfa" x="451.548892" y="633.6" style="stroke: #000000; stroke-width: 0.8"/>
      </g>
     </g>
     <g id="text_28">
      <!-- 50 -->
      <g transform="translate(442.005142 651.997656) scale(0.15 -0.15)">
       <use xlink:href="#DejaVuSans-35"/>
       <use xlink:href="#DejaVuSans-30" x="63.623047"/>
      </g>
     </g>
    </g>
    <g id="text_29">
     <!-- time [hr] -->
     <g transform="translate(228.928906 672.794375) scale(0.18 -0.18)">
      <use xlink:href="#DejaVuSans-Bold-74"/>
      <use xlink:href="#DejaVuSans-Bold-69" x="47.802734"/>
      <use xlink:href="#DejaVuSans-Bold-6d" x="82.080078"/>
      <use xlink:href="#DejaVuSans-Bold-65" x="186.279297"/>
      <use xlink:href="#DejaVuSans-Bold-20" x="254.101562"/>
      <use xlink:href="#DejaVuSans-Bold-5b" x="288.916016"/>
      <use xlink:href="#DejaVuSans-Bold-68" x="334.619141"/>
      <use xlink:href="#DejaVuSans-Bold-72" x="405.810547"/>
      <use xlink:href="#DejaVuSans-Bold-5d" x="455.126953"/>
     </g>
    </g>
   </g>
   <g id="matplotlib.axis_4">
    <g id="ytick_7">
     <g id="line2d_43">
      <g>
       <use xlink:href="#mb9b5368a18" x="78.703437" y="610.652757" style="stroke: #000000; stroke-width: 0.8"/>
      </g>
     </g>
     <g id="text_30">
      <!-- 0.0 -->
      <g transform="translate(47.84875 616.351585) scale(0.15 -0.15)">
       <use xlink:href="#DejaVuSans-30"/>
       <use xlink:href="#DejaVuSans-2e" x="63.623047"/>
       <use xlink:href="#DejaVuSans-30" x="95.410156"/>
      </g>
     </g>
    </g>
    <g id="ytick_8">
     <g id="line2d_44">
      <g>
       <use xlink:href="#mb9b5368a18" x="78.703437" y="573.61619" style="stroke: #000000; stroke-width: 0.8"/>
      </g>
     </g>
     <g id="text_31">
      <!-- 0.1 -->
      <g transform="translate(47.84875 579.315018) scale(0.15 -0.15)">
       <use xlink:href="#DejaVuSans-30"/>
       <use xlink:href="#DejaVuSans-2e" x="63.623047"/>
       <use xlink:href="#DejaVuSans-31" x="95.410156"/>
      </g>
     </g>
    </g>
    <g id="ytick_9">
     <g id="line2d_45">
      <g>
       <use xlink:href="#mb9b5368a18" x="78.703437" y="536.579623" style="stroke: #000000; stroke-width: 0.8"/>
      </g>
     </g>
     <g id="text_32">
      <!-- 0.2 -->
      <g transform="translate(47.84875 542.278451) scale(0.15 -0.15)">
       <use xlink:href="#DejaVuSans-30"/>
       <use xlink:href="#DejaVuSans-2e" x="63.623047"/>
       <use xlink:href="#DejaVuSans-32" x="95.410156"/>
      </g>
     </g>
    </g>
    <g id="ytick_10">
     <g id="line2d_46">
      <g>
       <use xlink:href="#mb9b5368a18" x="78.703437" y="499.543056" style="stroke: #000000; stroke-width: 0.8"/>
      </g>
     </g>
     <g id="text_33">
      <!-- 0.3 -->
      <g transform="translate(47.84875 505.241884) scale(0.15 -0.15)">
       <use xlink:href="#DejaVuSans-30"/>
       <use xlink:href="#DejaVuSans-2e" x="63.623047"/>
       <use xlink:href="#DejaVuSans-33" x="95.410156"/>
      </g>
     </g>
    </g>
    <g id="ytick_11">
     <g id="line2d_47">
      <g>
       <use xlink:href="#mb9b5368a18" x="78.703437" y="462.506489" style="stroke: #000000; stroke-width: 0.8"/>
      </g>
     </g>
     <g id="text_34">
      <!-- 0.4 -->
      <g transform="translate(47.84875 468.205317) scale(0.15 -0.15)">
       <use xlink:href="#DejaVuSans-30"/>
       <use xlink:href="#DejaVuSans-2e" x="63.623047"/>
       <use xlink:href="#DejaVuSans-34" x="95.410156"/>
      </g>
     </g>
    </g>
    <g id="ytick_12">
     <g id="line2d_48">
      <g>
       <use xlink:href="#mb9b5368a18" x="78.703437" y="425.469922" style="stroke: #000000; stroke-width: 0.8"/>
      </g>
     </g>
     <g id="text_35">
      <!-- 0.5 -->
      <g transform="translate(47.84875 431.16875) scale(0.15 -0.15)">
       <use xlink:href="#DejaVuSans-30"/>
       <use xlink:href="#DejaVuSans-2e" x="63.623047"/>
       <use xlink:href="#DejaVuSans-35" x="95.410156"/>
      </g>
     </g>
    </g>
    <g id="text_36">
     <!-- dapagliflozin plasma [µM] -->
     <g transform="translate(39.964687 645.116698) rotate(-90) scale(0.18 -0.18)">
      <use xlink:href="#DejaVuSans-Bold-64"/>
      <use xlink:href="#DejaVuSans-Bold-61" x="71.582031"/>
      <use xlink:href="#DejaVuSans-Bold-70" x="139.0625"/>
      <use xlink:href="#DejaVuSans-Bold-61" x="210.644531"/>
      <use xlink:href="#DejaVuSans-Bold-67" x="278.125"/>
      <use xlink:href="#DejaVuSans-Bold-6c" x="349.707031"/>
      <use xlink:href="#DejaVuSans-Bold-69" x="383.984375"/>
      <use xlink:href="#DejaVuSans-Bold-66" x="418.261719"/>
      <use xlink:href="#DejaVuSans-Bold-6c" x="461.767578"/>
      <use xlink:href="#DejaVuSans-Bold-6f" x="496.044922"/>
      <use xlink:href="#DejaVuSans-Bold-7a" x="564.746094"/>
      <use xlink:href="#DejaVuSans-Bold-69" x="622.949219"/>
      <use xlink:href="#DejaVuSans-Bold-6e" x="657.226562"/>
      <use xlink:href="#DejaVuSans-Bold-20" x="728.417969"/>
      <use xlink:href="#DejaVuSans-Bold-70" x="763.232422"/>
      <use xlink:href="#DejaVuSans-Bold-6c" x="834.814453"/>
      <use xlink:href="#DejaVuSans-Bold-61" x="869.091797"/>
      <use xlink:href="#DejaVuSans-Bold-73" x="936.572266"/>
      <use xlink:href="#DejaVuSans-Bold-6d" x="996.09375"/>
      <use xlink:href="#DejaVuSans-Bold-61" x="1100.292969"/>
      <use xlink:href="#DejaVuSans-Bold-20" x="1167.773438"/>
      <use xlink:href="#DejaVuSans-Bold-5b" x="1202.587891"/>
      <use xlink:href="#DejaVuSans-Bold-b5" x="1248.291016"/>
      <use xlink:href="#DejaVuSans-Bold-4d" x="1321.875"/>
      <use xlink:href="#DejaVuSans-Bold-5d" x="1421.386719"/>
     </g>
    </g>
   </g>
   <g id="LineCollection_9">
    <path d="M 100.008892 613.350669 
L 100.008892 579.177113 
" clip-path="url(#pad6e6d3e2c)" style="fill: none; stroke: #000000"/>
    <path d="M 103.559801 590.26853 
L 103.559801 458.97013 
" clip-path="url(#pad6e6d3e2c)" style="fill: none; stroke: #000000"/>
    <path d="M 107.11071 532.413299 
L 107.11071 410.707476 
" clip-path="url(#pad6e6d3e2c)" style="fill: none; stroke: #000000"/>
    <path d="M 110.661619 527.916779 
L 110.661619 454.773378 
" clip-path="url(#pad6e6d3e2c)" style="fill: none; stroke: #000000"/>
    <path d="M 114.212528 550.699149 
L 114.212528 491.944614 
" clip-path="url(#pad6e6d3e2c)" style="fill: none; stroke: #000000"/>
    <path d="M 124.865256 581.275489 
L 124.865256 563.289407 
" clip-path="url(#pad6e6d3e2c)" style="fill: none; stroke: #000000"/>
    <path d="M 153.272528 598.662035 
L 153.272528 592.067139 
" clip-path="url(#pad6e6d3e2c)" style="fill: none; stroke: #000000"/>
   </g>
   <g id="LineCollection_10">
    <path d="M 103.559801 581.575257 
L 103.559801 458.670362 
" clip-path="url(#pad6e6d3e2c)" style="fill: none; stroke: #000000"/>
    <path d="M 107.11071 528.816083 
L 107.11071 403.513043 
" clip-path="url(#pad6e6d3e2c)" style="fill: none; stroke: #000000"/>
    <path d="M 110.661619 531.813763 
L 110.661619 464.365955 
" clip-path="url(#pad6e6d3e2c)" style="fill: none; stroke: #000000"/>
    <path d="M 114.212528 553.397062 
L 114.212528 504.534872 
" clip-path="url(#pad6e6d3e2c)" style="fill: none; stroke: #000000"/>
    <path d="M 124.865256 584.572938 
L 124.865256 560.291727 
" clip-path="url(#pad6e6d3e2c)" style="fill: none; stroke: #000000"/>
    <path d="M 181.679801 608.554381 
L 181.679801 595.064819 
" clip-path="url(#pad6e6d3e2c)" style="fill: none; stroke: #000000"/>
    <path clip-path="url(#pad6e6d3e2c)" style="fill: none; stroke: #000000"/>
    <path clip-path="url(#pad6e6d3e2c)" style="fill: none; stroke: #000000"/>
    <path clip-path="url(#pad6e6d3e2c)" style="fill: none; stroke: #000000"/>
    <path clip-path="url(#pad6e6d3e2c)" style="fill: none; stroke: #000000"/>
   </g>
   <g id="LineCollection_11">
    <path d="M 100.008892 613.650437 
L 100.008892 604.657396 
" clip-path="url(#pad6e6d3e2c)" style="fill: none; stroke: #d62728"/>
    <path d="M 101.784347 616.648118 
L 101.784347 592.067139 
" clip-path="url(#pad6e6d3e2c)" style="fill: none; stroke: #d62728"/>
    <path d="M 103.559801 622.643478 
L 103.559801 536.90982 
" clip-path="url(#pad6e6d3e2c)" style="fill: none; stroke: #d62728"/>
    <path d="M 107.11071 607.05554 
L 107.11071 527.916779 
" clip-path="url(#pad6e6d3e2c)" style="fill: none; stroke: #d62728"/>
    <path d="M 110.661619 586.671314 
L 110.661619 523.12049 
" clip-path="url(#pad6e6d3e2c)" style="fill: none; stroke: #d62728"/>
    <path d="M 114.212528 570.184072 
L 114.212528 528.216547 
" clip-path="url(#pad6e6d3e2c)" style="fill: none; stroke: #d62728"/>
    <path d="M 124.865256 577.978041 
L 124.865256 524.61933 
" clip-path="url(#pad6e6d3e2c)" style="fill: none; stroke: #d62728"/>
    <path d="M 153.272528 599.861107 
L 153.272528 578.877345 
" clip-path="url(#pad6e6d3e2c)" style="fill: none; stroke: #d62728"/>
    <path clip-path="url(#pad6e6d3e2c)" style="fill: none; stroke: #d62728"/>
    <path clip-path="url(#pad6e6d3e2c)" style="fill: none; stroke: #d62728"/>
    <path clip-path="url(#pad6e6d3e2c)" style="fill: none; stroke: #d62728"/>
    <path clip-path="url(#pad6e6d3e2c)" style="fill: none; stroke: #d62728"/>
    <path clip-path="url(#pad6e6d3e2c)" style="fill: none; stroke: #d62728"/>
   </g>
   <g id="line2d_49">
    <path d="M 96.457983 610.652757 
L 97.168165 600.396648 
L 99.29871 534.38931 
L 100.008892 519.700188 
L 100.719074 509.679861 
L 101.429256 503.565411 
L 102.139437 500.525513 
L 102.849619 499.813944 
L 103.559801 500.814284 
L 104.269983 503.039259 
L 104.980165 506.113681 
L 106.400528 513.747056 
L 111.371801 542.619674 
L 113.502347 553.156149 
L 115.632892 562.221883 
L 117.763437 569.918582 
L 119.183801 574.367163 
L 120.604165 578.327933 
L 122.024528 581.849163 
L 124.155074 586.4049 
L 126.285619 590.210211 
L 128.416165 593.384165 
L 130.54671 596.028532 
L 132.677256 598.229641 
L 134.807801 600.060373 
L 136.938347 601.582047 
L 139.068892 602.846127 
L 141.199437 603.895713 
L 144.040165 605.022919 
L 146.880892 605.901617 
L 150.431801 606.732356 
L 153.98271 607.340236 
L 158.243801 607.858396 
L 163.925256 608.306576 
L 171.027074 608.628292 
L 181.679801 608.856166 
L 200.144528 608.98203 
L 259.089619 609.052188 
L 451.548892 609.186842 
L 451.548892 609.186842 
" clip-path="url(#pad6e6d3e2c)" style="fill: none; stroke: #000000; stroke-width: 2; stroke-linecap: square"/>
   </g>
   <g id="line2d_50">
    <path d="M 100.008892 596.263891 
L 103.559801 524.61933 
L 107.11071 471.560388 
L 110.661619 491.345078 
L 114.212528 521.321882 
L 124.865256 572.282448 
L 153.272528 595.364587 
" clip-path="url(#pad6e6d3e2c)" style="fill: none; stroke-dasharray: 3.7,1.6; stroke-dashoffset: 0; stroke: #000000"/>
    <g clip-path="url(#pad6e6d3e2c)">
     <use xlink:href="#mb07d7cb6ef" x="100.008892" y="596.263891" style="stroke: #000000; stroke-linejoin: miter"/>
     <use xlink:href="#mb07d7cb6ef" x="103.559801" y="524.61933" style="stroke: #000000; stroke-linejoin: miter"/>
     <use xlink:href="#mb07d7cb6ef" x="107.11071" y="471.560388" style="stroke: #000000; stroke-linejoin: miter"/>
     <use xlink:href="#mb07d7cb6ef" x="110.661619" y="491.345078" style="stroke: #000000; stroke-linejoin: miter"/>
     <use xlink:href="#mb07d7cb6ef" x="114.212528" y="521.321882" style="stroke: #000000; stroke-linejoin: miter"/>
     <use xlink:href="#mb07d7cb6ef" x="124.865256" y="572.282448" style="stroke: #000000; stroke-linejoin: miter"/>
     <use xlink:href="#mb07d7cb6ef" x="153.272528" y="595.364587" style="stroke: #000000; stroke-linejoin: miter"/>
    </g>
   </g>
   <g id="line2d_51">
    <path d="M 96.457983 610.652757 
L 97.168165 600.396648 
L 99.29871 534.38931 
L 100.008892 519.700188 
L 100.719074 509.679861 
L 101.429256 503.565411 
L 102.139437 500.525513 
L 102.849619 499.813944 
L 103.559801 500.814284 
L 104.269983 503.039259 
L 104.980165 506.113681 
L 106.400528 513.747056 
L 111.371801 542.619674 
L 113.502347 553.156149 
L 115.632892 562.221883 
L 117.763437 569.918582 
L 119.183801 574.367163 
L 120.604165 578.327933 
L 122.024528 581.849163 
L 124.155074 586.4049 
L 126.285619 590.210211 
L 128.416165 593.384165 
L 130.54671 596.028532 
L 132.677256 598.229641 
L 134.807801 600.060373 
L 136.938347 601.582047 
L 139.068892 602.846127 
L 141.199437 603.895713 
L 144.040165 605.022919 
L 146.880892 605.901617 
L 150.431801 606.732356 
L 153.98271 607.340236 
L 158.243801 607.858396 
L 163.925256 608.306576 
L 171.027074 608.628292 
L 181.679801 608.856166 
L 200.144528 608.98203 
L 259.089619 609.052188 
L 451.548892 609.186842 
L 451.548892 609.186842 
" clip-path="url(#pad6e6d3e2c)" style="fill: none; stroke: #000000; stroke-width: 2; stroke-linecap: square"/>
   </g>
   <g id="line2d_52">
    <path d="M 103.559801 520.12281 
L 107.11071 466.164563 
L 110.661619 498.089859 
L 114.212528 528.965967 
L 124.865256 572.432332 
L 181.679801 601.8096 
L 210.087074 606.156236 
L 266.901619 607.05554 
L 352.123437 609.153917 
L 437.345256 609.603569 
" clip-path="url(#pad6e6d3e2c)" style="fill: none; stroke-dasharray: 3.7,1.6; stroke-dashoffset: 0; stroke: #000000"/>
    <g clip-path="url(#pad6e6d3e2c)">
     <use xlink:href="#mb3fb4c803f" x="103.559801" y="520.12281" style="stroke: #000000"/>
     <use xlink:href="#mb3fb4c803f" x="107.11071" y="466.164563" style="stroke: #000000"/>
     <use xlink:href="#mb3fb4c803f" x="110.661619" y="498.089859" style="stroke: #000000"/>
     <use xlink:href="#mb3fb4c803f" x="114.212528" y="528.965967" style="stroke: #000000"/>
     <use xlink:href="#mb3fb4c803f" x="124.865256" y="572.432332" style="stroke: #000000"/>
     <use xlink:href="#mb3fb4c803f" x="181.679801" y="601.8096" style="stroke: #000000"/>
     <use xlink:href="#mb3fb4c803f" x="210.087074" y="606.156236" style="stroke: #000000"/>
     <use xlink:href="#mb3fb4c803f" x="266.901619" y="607.05554" style="stroke: #000000"/>
     <use xlink:href="#mb3fb4c803f" x="352.123437" y="609.153917" style="stroke: #000000"/>
     <use xlink:href="#mb3fb4c803f" x="437.345256" y="609.603569" style="stroke: #000000"/>
    </g>
   </g>
   <g id="line2d_53">
    <path d="M 96.457983 610.652757 
L 97.168165 607.373712 
L 97.878347 599.284395 
L 100.008892 571.504733 
L 101.429256 557.274232 
L 102.139437 551.761888 
L 102.849619 547.227569 
L 103.559801 543.580432 
L 104.269983 540.728277 
L 104.980165 538.582885 
L 105.690347 537.06221 
L 106.400528 536.091066 
L 107.11071 535.601127 
L 107.820892 535.530605 
L 108.531074 535.823812 
L 109.241256 536.430678 
L 109.951437 537.306278 
L 111.371801 539.707006 
L 112.792165 542.753021 
L 114.92271 548.071354 
L 123.444892 570.569008 
L 125.575437 575.456775 
L 127.705983 579.890518 
L 129.836528 583.862099 
L 131.967074 587.383821 
L 134.097619 590.48076 
L 136.228165 593.185303 
L 138.35871 595.533341 
L 140.489256 597.561656 
L 142.619801 599.306209 
L 144.750347 600.801057 
L 146.880892 602.077724 
L 149.721619 603.489714 
L 152.562347 604.624403 
L 155.403074 605.532777 
L 158.953983 606.414436 
L 162.504892 607.076545 
L 166.765983 607.654924 
L 171.737256 608.116667 
L 178.128892 608.488148 
L 186.651074 608.755895 
L 200.144528 608.931393 
L 228.551801 609.019791 
L 443.02671 609.177359 
L 451.548892 609.183084 
L 451.548892 609.183084 
" clip-path="url(#pad6e6d3e2c)" style="fill: none; stroke: #d62728; stroke-width: 2; stroke-linecap: square"/>
   </g>
   <g id="line2d_54">
    <path d="M 100.008892 609.153917 
L 101.784347 604.357628 
L 103.559801 579.776649 
L 107.11071 567.48616 
L 110.661619 554.895902 
L 114.212528 549.200309 
L 124.865256 551.298686 
L 153.272528 589.369226 
L 181.679801 599.861107 
L 210.087074 604.05786 
L 266.901619 606.755772 
L 352.123437 609.004033 
L 437.345256 609.453685 
" clip-path="url(#pad6e6d3e2c)" style="fill: none; stroke-dasharray: 3.7,1.6; stroke-dashoffset: 0; stroke: #d62728"/>
    <g clip-path="url(#pad6e6d3e2c)">
     <use xlink:href="#mba285e575d" x="100.008892" y="609.153917" style="fill: #d62728; stroke: #000000"/>
     <use xlink:href="#mba285e575d" x="101.784347" y="604.357628" style="fill: #d62728; stroke: #000000"/>
     <use xlink:href="#mba285e575d" x="103.559801" y="579.776649" style="fill: #d62728; stroke: #000000"/>
     <use xlink:href="#mba285e575d" x="107.11071" y="567.48616" style="fill: #d62728; stroke: #000000"/>
     <use xlink:href="#mba285e575d" x="110.661619" y="554.895902" style="fill: #d62728; stroke: #000000"/>
     <use xlink:href="#mba285e575d" x="114.212528" y="549.200309" style="fill: #d62728; stroke: #000000"/>
     <use xlink:href="#mba285e575d" x="124.865256" y="551.298686" style="fill: #d62728; stroke: #000000"/>
     <use xlink:href="#mba285e575d" x="153.272528" y="589.369226" style="fill: #d62728; stroke: #000000"/>
     <use xlink:href="#mba285e575d" x="181.679801" y="599.861107" style="fill: #d62728; stroke: #000000"/>
     <use xlink:href="#mba285e575d" x="210.087074" y="604.05786" style="fill: #d62728; stroke: #000000"/>
     <use xlink:href="#mba285e575d" x="266.901619" y="606.755772" style="fill: #d62728; stroke: #000000"/>
     <use xlink:href="#mba285e575d" x="352.123437" y="609.004033" style="fill: #d62728; stroke: #000000"/>
     <use xlink:href="#mba285e575d" x="437.345256" y="609.453685" style="fill: #d62728; stroke: #000000"/>
    </g>
   </g>
   <g id="patch_9">
    <path d="M 78.703437 633.6 
L 78.703437 392.556522 
" style="fill: none; stroke: #000000; stroke-width: 0.8; stroke-linejoin: miter; stroke-linecap: square"/>
   </g>
   <g id="patch_10">
    <path d="M 469.303437 633.6 
L 469.303437 392.556522 
" style="fill: none; stroke: #000000; stroke-width: 0.8; stroke-linejoin: miter; stroke-linecap: square"/>
   </g>
   <g id="patch_11">
    <path d="M 78.703437 633.6 
L 469.303437 633.6 
" style="fill: none; stroke: #000000; stroke-width: 0.8; stroke-linejoin: miter; stroke-linecap: square"/>
   </g>
   <g id="patch_12">
    <path d="M 78.703437 392.556522 
L 469.303437 392.556522 
" style="fill: none; stroke: #000000; stroke-width: 0.8; stroke-linejoin: miter; stroke-linecap: square"/>
   </g>
   <g id="legend_2">
    <g id="patch_13">
     <path d="M 280.050312 490.294022 
L 462.303437 490.294022 
Q 464.303437 490.294022 464.303437 488.294022 
L 464.303437 399.556522 
Q 464.303437 397.556522 462.303437 397.556522 
L 280.050312 397.556522 
Q 278.050312 397.556522 278.050312 399.556522 
L 278.050312 488.294022 
Q 278.050312 490.294022 280.050312 490.294022 
z
" style="fill: #ffffff; opacity: 0.8; stroke: #cccccc; stroke-linejoin: miter"/>
    </g>
    <g id="line2d_55">
     <path d="M 282.050312 405.654959 
L 302.050312 405.654959 
" style="fill: none; stroke: #000000; stroke-width: 2; stroke-linecap: square"/>
    </g>
    <g id="line2d_56"/>
    <g id="text_37">
     <!-- dap (10_fasted) -->
     <g transform="translate(310.050312 409.154959) scale(0.1 -0.1)">
      <use xlink:href="#DejaVuSans-64"/>
      <use xlink:href="#DejaVuSans-61" x="63.476562"/>
      <use xlink:href="#DejaVuSans-70" x="124.755859"/>
      <use xlink:href="#DejaVuSans-20" x="188.232422"/>
      <use xlink:href="#DejaVuSans-28" x="220.019531"/>
      <use xlink:href="#DejaVuSans-31" x="259.033203"/>
      <use xlink:href="#DejaVuSans-30" x="322.65625"/>
      <use xlink:href="#DejaVuSans-5f" x="386.279297"/>
      <use xlink:href="#DejaVuSans-66" x="436.279297"/>
      <use xlink:href="#DejaVuSans-61" x="471.484375"/>
      <use xlink:href="#DejaVuSans-73" x="532.763672"/>
      <use xlink:href="#DejaVuSans-74" x="584.863281"/>
      <use xlink:href="#DejaVuSans-65" x="624.072266"/>
      <use xlink:href="#DejaVuSans-64" x="685.595703"/>
      <use xlink:href="#DejaVuSans-29" x="749.072266"/>
     </g>
    </g>
    <g id="LineCollection_12">
     <path d="M 292.050312 425.611209 
L 292.050312 415.611209 
" style="fill: none; stroke: #000000"/>
    </g>
    <g id="line2d_57">
     <path d="M 282.050312 420.611209 
L 302.050312 420.611209 
" style="fill: none; stroke-dasharray: 3.7,1.6; stroke-dashoffset: 0; stroke: #000000"/>
    </g>
    <g id="line2d_58">
     <g>
      <use xlink:href="#mb07d7cb6ef" x="292.050312" y="420.611209" style="stroke: #000000; stroke-linejoin: miter"/>
     </g>
    </g>
    <g id="text_38">
     <!-- fasted_DAP10_NH±SD (n=28) -->
     <g transform="translate(310.050312 424.111209) scale(0.1 -0.1)">
      <use xlink:href="#DejaVuSans-66"/>
      <use xlink:href="#DejaVuSans-61" x="35.205078"/>
      <use xlink:href="#DejaVuSans-73" x="96.484375"/>
      <use xlink:href="#DejaVuSans-74" x="148.583984"/>
      <use xlink:href="#DejaVuSans-65" x="187.792969"/>
      <use xlink:href="#DejaVuSans-64" x="249.316406"/>
      <use xlink:href="#DejaVuSans-5f" x="312.792969"/>
      <use xlink:href="#DejaVuSans-44" x="362.792969"/>
      <use xlink:href="#DejaVuSans-41" x="438.044922"/>
      <use xlink:href="#DejaVuSans-50" x="506.453125"/>
      <use xlink:href="#DejaVuSans-31" x="566.755859"/>
      <use xlink:href="#DejaVuSans-30" x="630.378906"/>
      <use xlink:href="#DejaVuSans-5f" x="694.001953"/>
      <use xlink:href="#DejaVuSans-4e" x="744.001953"/>
      <use xlink:href="#DejaVuSans-48" x="818.806641"/>
      <use xlink:href="#DejaVuSans-b1" x="894.001953"/>
      <use xlink:href="#DejaVuSans-53" x="977.791016"/>
      <use xlink:href="#DejaVuSans-44" x="1041.267578"/>
      <use xlink:href="#DejaVuSans-20" x="1118.269531"/>
      <use xlink:href="#DejaVuSans-28" x="1150.056641"/>
      <use xlink:href="#DejaVuSans-6e" x="1189.070312"/>
      <use xlink:href="#DejaVuSans-3d" x="1252.449219"/>
      <use xlink:href="#DejaVuSans-32" x="1336.238281"/>
      <use xlink:href="#DejaVuSans-38" x="1399.861328"/>
      <use xlink:href="#DejaVuSans-29" x="1463.484375"/>
     </g>
    </g>
    <g id="line2d_59">
     <path d="M 282.050312 435.567459 
L 302.050312 435.567459 
" style="fill: none; stroke: #000000; stroke-width: 2; stroke-linecap: square"/>
    </g>
    <g id="line2d_60"/>
    <g id="text_39">
     <!-- dap (10_fasted) -->
     <g transform="translate(310.050312 439.067459) scale(0.1 -0.1)">
      <use xlink:href="#DejaVuSans-64"/>
      <use xlink:href="#DejaVuSans-61" x="63.476562"/>
      <use xlink:href="#DejaVuSans-70" x="124.755859"/>
      <use xlink:href="#DejaVuSans-20" x="188.232422"/>
      <use xlink:href="#DejaVuSans-28" x="220.019531"/>
      <use xlink:href="#DejaVuSans-31" x="259.033203"/>
      <use xlink:href="#DejaVuSans-30" x="322.65625"/>
      <use xlink:href="#DejaVuSans-5f" x="386.279297"/>
      <use xlink:href="#DejaVuSans-66" x="436.279297"/>
      <use xlink:href="#DejaVuSans-61" x="471.484375"/>
      <use xlink:href="#DejaVuSans-73" x="532.763672"/>
      <use xlink:href="#DejaVuSans-74" x="584.863281"/>
      <use xlink:href="#DejaVuSans-65" x="624.072266"/>
      <use xlink:href="#DejaVuSans-64" x="685.595703"/>
      <use xlink:href="#DejaVuSans-29" x="749.072266"/>
     </g>
    </g>
    <g id="LineCollection_13">
     <path d="M 292.050312 455.523709 
L 292.050312 445.523709 
" style="fill: none; stroke: #000000"/>
    </g>
    <g id="line2d_61">
     <path d="M 282.050312 450.523709 
L 302.050312 450.523709 
" style="fill: none; stroke-dasharray: 3.7,1.6; stroke-dashoffset: 0; stroke: #000000"/>
    </g>
    <g id="line2d_62">
     <g>
      <use xlink:href="#mb3fb4c803f" x="292.050312" y="450.523709" style="stroke: #000000"/>
     </g>
    </g>
    <g id="text_40">
     <!-- fasted_DAP10_HS±SD (n=29) -->
     <g transform="translate(310.050312 454.023709) scale(0.1 -0.1)">
      <defs>
       <path id="DejaVuSans-39" d="M 703 97 
L 703 672 
Q 941 559 1184 500 
Q 1428 441 1663 441 
Q 2288 441 2617 861 
Q 2947 1281 2994 2138 
Q 2813 1869 2534 1725 
Q 2256 1581 1919 1581 
Q 1219 1581 811 2004 
Q 403 2428 403 3163 
Q 403 3881 828 4315 
Q 1253 4750 1959 4750 
Q 2769 4750 3195 4129 
Q 3622 3509 3622 2328 
Q 3622 1225 3098 567 
Q 2575 -91 1691 -91 
Q 1453 -91 1209 -44 
Q 966 3 703 97 
z
M 1959 2075 
Q 2384 2075 2632 2365 
Q 2881 2656 2881 3163 
Q 2881 3666 2632 3958 
Q 2384 4250 1959 4250 
Q 1534 4250 1286 3958 
Q 1038 3666 1038 3163 
Q 1038 2656 1286 2365 
Q 1534 2075 1959 2075 
z
" transform="scale(0.015625)"/>
      </defs>
      <use xlink:href="#DejaVuSans-66"/>
      <use xlink:href="#DejaVuSans-61" x="35.205078"/>
      <use xlink:href="#DejaVuSans-73" x="96.484375"/>
      <use xlink:href="#DejaVuSans-74" x="148.583984"/>
      <use xlink:href="#DejaVuSans-65" x="187.792969"/>
      <use xlink:href="#DejaVuSans-64" x="249.316406"/>
      <use xlink:href="#DejaVuSans-5f" x="312.792969"/>
      <use xlink:href="#DejaVuSans-44" x="362.792969"/>
      <use xlink:href="#DejaVuSans-41" x="438.044922"/>
      <use xlink:href="#DejaVuSans-50" x="506.453125"/>
      <use xlink:href="#DejaVuSans-31" x="566.755859"/>
      <use xlink:href="#DejaVuSans-30" x="630.378906"/>
      <use xlink:href="#DejaVuSans-5f" x="694.001953"/>
      <use xlink:href="#DejaVuSans-48" x="744.001953"/>
      <use xlink:href="#DejaVuSans-53" x="819.197266"/>
      <use xlink:href="#DejaVuSans-b1" x="882.673828"/>
      <use xlink:href="#DejaVuSans-53" x="966.462891"/>
      <use xlink:href="#DejaVuSans-44" x="1029.939453"/>
      <use xlink:href="#DejaVuSans-20" x="1106.941406"/>
      <use xlink:href="#DejaVuSans-28" x="1138.728516"/>
      <use xlink:href="#DejaVuSans-6e" x="1177.742188"/>
      <use xlink:href="#DejaVuSans-3d" x="1241.121094"/>
      <use xlink:href="#DejaVuSans-32" x="1324.910156"/>
      <use xlink:href="#DejaVuSans-39" x="1388.533203"/>
      <use xlink:href="#DejaVuSans-29" x="1452.15625"/>
     </g>
    </g>
    <g id="line2d_63">
     <path d="M 282.050312 465.479959 
L 302.050312 465.479959 
" style="fill: none; stroke: #d62728; stroke-width: 2; stroke-linecap: square"/>
    </g>
    <g id="line2d_64"/>
    <g id="text_41">
     <!-- dap (10_fed) -->
     <g transform="translate(310.050312 468.979959) scale(0.1 -0.1)">
      <use xlink:href="#DejaVuSans-64"/>
      <use xlink:href="#DejaVuSans-61" x="63.476562"/>
      <use xlink:href="#DejaVuSans-70" x="124.755859"/>
      <use xlink:href="#DejaVuSans-20" x="188.232422"/>
      <use xlink:href="#DejaVuSans-28" x="220.019531"/>
      <use xlink:href="#DejaVuSans-31" x="259.033203"/>
      <use xlink:href="#DejaVuSans-30" x="322.65625"/>
      <use xlink:href="#DejaVuSans-5f" x="386.279297"/>
      <use xlink:href="#DejaVuSans-66" x="436.279297"/>
      <use xlink:href="#DejaVuSans-65" x="471.484375"/>
      <use xlink:href="#DejaVuSans-64" x="533.007812"/>
      <use xlink:href="#DejaVuSans-29" x="596.484375"/>
     </g>
    </g>
    <g id="LineCollection_14">
     <path d="M 292.050312 485.436209 
L 292.050312 475.436209 
" style="fill: none; stroke: #d62728"/>
    </g>
    <g id="line2d_65">
     <path d="M 282.050312 480.436209 
L 302.050312 480.436209 
" style="fill: none; stroke-dasharray: 3.7,1.6; stroke-dashoffset: 0; stroke: #d62728"/>
    </g>
    <g id="line2d_66">
     <g>
      <use xlink:href="#mba285e575d" x="292.050312" y="480.436209" style="fill: #d62728; stroke: #000000"/>
     </g>
    </g>
    <g id="text_42">
     <!-- fed_DAP10_HS±SD (n=29) -->
     <g transform="translate(310.050312 483.936209) scale(0.1 -0.1)">
      <use xlink:href="#DejaVuSans-66"/>
      <use xlink:href="#DejaVuSans-65" x="35.205078"/>
      <use xlink:href="#DejaVuSans-64" x="96.728516"/>
      <use xlink:href="#DejaVuSans-5f" x="160.205078"/>
      <use xlink:href="#DejaVuSans-44" x="210.205078"/>
      <use xlink:href="#DejaVuSans-41" x="285.457031"/>
      <use xlink:href="#DejaVuSans-50" x="353.865234"/>
      <use xlink:href="#DejaVuSans-31" x="414.167969"/>
      <use xlink:href="#DejaVuSans-30" x="477.791016"/>
      <use xlink:href="#DejaVuSans-5f" x="541.414062"/>
      <use xlink:href="#DejaVuSans-48" x="591.414062"/>
      <use xlink:href="#DejaVuSans-53" x="666.609375"/>
      <use xlink:href="#DejaVuSans-b1" x="730.085938"/>
      <use xlink:href="#DejaVuSans-53" x="813.875"/>
      <use xlink:href="#DejaVuSans-44" x="877.351562"/>
      <use xlink:href="#DejaVuSans-20" x="954.353516"/>
      <use xlink:href="#DejaVuSans-28" x="986.140625"/>
      <use xlink:href="#DejaVuSans-6e" x="1025.154297"/>
      <use xlink:href="#DejaVuSans-3d" x="1088.533203"/>
      <use xlink:href="#DejaVuSans-32" x="1172.322266"/>
      <use xlink:href="#DejaVuSans-39" x="1235.945312"/>
      <use xlink:href="#DejaVuSans-29" x="1299.568359"/>
     </g>
    </g>
   </g>
  </g>
  <g id="text_43">
   <!-- LaCreta2016 -->
   <g transform="translate(178.287422 26.196094) scale(0.25 -0.25)">
    <defs>
     <path id="DejaVuSans-Bold-4c" d="M 588 4666 
L 1791 4666 
L 1791 909 
L 3903 909 
L 3903 0 
L 588 0 
L 588 4666 
z
" transform="scale(0.015625)"/>
     <path id="DejaVuSans-Bold-43" d="M 4288 256 
Q 3956 84 3597 -3 
Q 3238 -91 2847 -91 
Q 1681 -91 1000 561 
Q 319 1213 319 2328 
Q 319 3447 1000 4098 
Q 1681 4750 2847 4750 
Q 3238 4750 3597 4662 
Q 3956 4575 4288 4403 
L 4288 3438 
Q 3953 3666 3628 3772 
Q 3303 3878 2944 3878 
Q 2300 3878 1931 3465 
Q 1563 3053 1563 2328 
Q 1563 1606 1931 1193 
Q 2300 781 2944 781 
Q 3303 781 3628 887 
Q 3953 994 4288 1222 
L 4288 256 
z
" transform="scale(0.015625)"/>
     <path id="DejaVuSans-Bold-32" d="M 1844 884 
L 3897 884 
L 3897 0 
L 506 0 
L 506 884 
L 2209 2388 
Q 2438 2594 2547 2791 
Q 2656 2988 2656 3200 
Q 2656 3528 2436 3728 
Q 2216 3928 1850 3928 
Q 1569 3928 1234 3808 
Q 900 3688 519 3450 
L 519 4475 
Q 925 4609 1322 4679 
Q 1719 4750 2100 4750 
Q 2938 4750 3402 4381 
Q 3866 4013 3866 3353 
Q 3866 2972 3669 2642 
Q 3472 2313 2841 1759 
L 1844 884 
z
" transform="scale(0.015625)"/>
     <path id="DejaVuSans-Bold-30" d="M 2944 2338 
Q 2944 3213 2780 3570 
Q 2616 3928 2228 3928 
Q 1841 3928 1675 3570 
Q 1509 3213 1509 2338 
Q 1509 1453 1675 1090 
Q 1841 728 2228 728 
Q 2613 728 2778 1090 
Q 2944 1453 2944 2338 
z
M 4147 2328 
Q 4147 1169 3647 539 
Q 3147 -91 2228 -91 
Q 1306 -91 806 539 
Q 306 1169 306 2328 
Q 306 3491 806 4120 
Q 1306 4750 2228 4750 
Q 3147 4750 3647 4120 
Q 4147 3491 4147 2328 
z
" transform="scale(0.015625)"/>
     <path id="DejaVuSans-Bold-31" d="M 750 831 
L 1813 831 
L 1813 3847 
L 722 3622 
L 722 4441 
L 1806 4666 
L 2950 4666 
L 2950 831 
L 4013 831 
L 4013 0 
L 750 0 
L 750 831 
z
" transform="scale(0.015625)"/>
     <path id="DejaVuSans-Bold-36" d="M 2316 2303 
Q 2000 2303 1842 2098 
Q 1684 1894 1684 1484 
Q 1684 1075 1842 870 
Q 2000 666 2316 666 
Q 2634 666 2792 870 
Q 2950 1075 2950 1484 
Q 2950 1894 2792 2098 
Q 2634 2303 2316 2303 
z
M 3803 4544 
L 3803 3681 
Q 3506 3822 3243 3889 
Q 2981 3956 2731 3956 
Q 2194 3956 1894 3657 
Q 1594 3359 1544 2772 
Q 1750 2925 1990 3001 
Q 2231 3078 2516 3078 
Q 3231 3078 3670 2659 
Q 4109 2241 4109 1563 
Q 4109 813 3618 361 
Q 3128 -91 2303 -91 
Q 1394 -91 895 523 
Q 397 1138 397 2266 
Q 397 3422 980 4083 
Q 1563 4744 2578 4744 
Q 2900 4744 3203 4694 
Q 3506 4644 3803 4544 
z
" transform="scale(0.015625)"/>
    </defs>
    <use xlink:href="#DejaVuSans-Bold-4c"/>
    <use xlink:href="#DejaVuSans-Bold-61" x="63.720703"/>
    <use xlink:href="#DejaVuSans-Bold-43" x="131.201172"/>
    <use xlink:href="#DejaVuSans-Bold-72" x="204.589844"/>
    <use xlink:href="#DejaVuSans-Bold-65" x="253.90625"/>
    <use xlink:href="#DejaVuSans-Bold-74" x="321.728516"/>
    <use xlink:href="#DejaVuSans-Bold-61" x="369.53125"/>
    <use xlink:href="#DejaVuSans-Bold-32" x="437.011719"/>
    <use xlink:href="#DejaVuSans-Bold-30" x="506.591797"/>
    <use xlink:href="#DejaVuSans-Bold-31" x="576.171875"/>
    <use xlink:href="#DejaVuSans-Bold-36" x="645.751953"/>
   </g>
  </g>
 </g>
 <defs>
  <clipPath id="p5a2a57777b">
   <rect x="78.703437" y="79.2" width="390.6" height="241.043478"/>
  </clipPath>
  <clipPath id="pad6e6d3e2c">
   <rect x="78.703437" y="392.556522" width="390.6" height="241.043478"/>
  </clipPath>
 </defs>
</svg>
